<svg width="78" height="328" viewBox="0 0 78 328" fill="none" xmlns="http://www.w3.org/2000/svg">
<g clip-path="url(#clip0_16_249)">
<path d="M61.7209 298.979L61.7209 303.644C61.7209 304.325 61.326 304.666 60.6349 304.666L19.3121 304.666C18.63 304.666 18.2261 304.325 18.2261 303.644L18.2261 298.979C18.2261 298.297 18.621 297.956 19.3121 297.956L60.6438 297.956C61.326 297.956 61.7299 298.297 61.7299 298.979L61.7209 298.979Z" fill="#EBECF1"/>
<path d="M19.0789 104.917C19.5366 104.118 19.9315 104.002 20.5598 104.002L23.4589 104.002C24.2577 104.002 24.4282 104.396 24.3115 105.141C23.9705 107.303 23.6294 111.403 23.6294 116.462C23.6294 127.272 28.9249 129.04 36.3296 129.04L43.9048 129.04C51.9917 129.04 56.3717 128.475 56.3717 115.664C56.3717 113.726 56.255 111.735 55.8062 110.03C55.5818 109.178 55.2408 109.124 54.4958 109.124L43.5638 109.124L43.5638 117.036C43.5638 117.772 43.1688 118.122 42.4777 118.122L38.5465 118.122C37.8105 118.122 37.4605 117.781 37.5233 116.983L37.5233 103.607C37.5233 102.925 37.8644 102.521 38.5465 102.521L58.9835 102.521C60.0695 102.467 60.6888 102.862 60.976 103.777C62.2326 107.707 62.5737 112.999 62.5737 116.409C62.5737 130.466 58.4181 135.759 44.0125 135.759L37.1284 135.759C22.0407 135.759 17.3735 129.156 17.3735 116.92C17.3735 111.968 18.0557 106.675 19.0789 104.917Z" fill="#EBECF1"/>
<path d="M18.2261 93.8193L18.2261 78.9633C18.2261 69.4001 20.0481 63.9367 29.8941 63.9367L31.8328 63.9367C38.8336 63.9367 42.1366 67.579 43.447 71.3917L60.581 62.7974C61.317 62.4565 61.7209 62.7974 61.7209 63.542L61.7209 68.8888C61.7209 69.4539 61.4337 69.8576 60.6977 70.1985L44.2996 78.2187L44.2996 88.1766L60.6438 88.1766C61.326 88.1766 61.7299 88.5174 61.7299 89.1992L61.7299 93.8104C61.7299 94.4922 61.3349 94.8331 60.6438 94.8331L19.3121 94.8331C18.63 94.8331 18.2261 94.4922 18.2261 93.8104L18.2261 93.8193ZM38.3759 88.1855L38.3759 78.9633C38.3759 70.0281 34.5613 70.6561 32.0572 70.6561L29.3825 70.6561C25.6846 70.6561 24.1498 72.8181 24.1498 78.9633L24.1498 88.1855L38.3848 88.1855L38.3759 88.1855Z" fill="#EBECF1"/>
<path d="M61.7209 50.1751L61.7209 54.8401C61.7209 55.5219 61.326 55.8628 60.6349 55.8628L19.3121 55.8628C18.63 55.8628 18.2261 55.5219 18.2261 54.8401L18.2261 50.1751C18.2261 49.4933 18.621 49.1525 19.3121 49.1525L60.6438 49.1525C61.326 49.1525 61.7299 49.4933 61.7299 50.1751L61.7209 50.1751Z" fill="#EBECF1"/>
<path d="M19.2493 10.5051L23.2343 10.5051C23.9165 10.5051 24.2575 10.8998 24.2575 11.5906L24.2575 23.7644L60.6349 23.7644C61.317 23.7644 61.7209 24.1053 61.7209 24.7871L61.7209 29.452C61.7209 30.1338 61.326 30.4747 60.6349 30.4747L24.2575 30.4747L24.2575 42.6485C24.2575 43.3303 23.9165 43.7339 23.2344 43.7339L19.2493 43.7339C18.5671 43.7339 18.2261 43.3392 18.2261 42.6485L18.2261 11.5817C18.2261 10.8999 18.5671 10.4961 19.2493 10.4961L19.2493 10.5051Z" fill="#EBECF1"/>
<path d="M17.3647 147.511L17.3647 284.939L61.3891 284.939L61.3891 147.511L17.3647 147.511Z" fill="#EBECF1"/>
<path d="M54.5 234.918L54.5 246.111L25.4091 246.111L25.4091 235.031C25.4091 232.039 25.9915 229.454 27.1562 227.276C28.3116 225.088 29.9782 223.403 32.1562 222.219C34.3248 221.026 36.9242 220.429 39.9545 220.429C42.9848 220.429 45.589 221.021 47.767 222.205C49.9356 223.388 51.6023 225.065 52.767 227.233C53.9223 229.402 54.5 231.963 54.5 234.918ZM47.7955 238.213L47.7955 235.202C47.7955 233.762 47.5634 232.536 47.0994 231.523C46.6354 230.5 45.8352 229.724 44.6989 229.193C43.5625 228.654 41.9811 228.384 39.9545 228.384C37.928 228.384 36.3466 228.658 35.2102 229.208C34.0739 229.747 33.2737 230.543 32.8097 231.594C32.3456 232.636 32.1136 233.914 32.1136 235.429L32.1136 238.213L47.7955 238.213ZM39.9545 185.793C43.1932 185.793 45.9252 186.423 48.1506 187.682C50.3665 188.942 52.0473 190.642 53.1932 192.782C54.3295 194.922 54.8977 197.308 54.8977 199.941C54.8977 202.592 54.3248 204.988 53.179 207.128C52.0237 209.259 50.3381 210.954 48.1222 212.214C45.8968 213.464 43.1742 214.089 39.9545 214.089C36.7159 214.089 33.9886 213.464 31.7727 212.214C29.5473 210.954 27.8665 209.259 26.7301 207.128C25.5843 204.988 25.0114 202.592 25.0114 199.941C25.0114 197.308 25.5843 194.922 26.7301 192.782C27.8665 190.642 29.5473 188.942 31.7727 187.682C33.9886 186.423 36.7159 185.793 39.9545 185.793ZM39.9545 193.918C38.2121 193.918 36.7443 194.15 35.5511 194.614C34.3485 195.069 33.4394 195.746 32.8239 196.645C32.1989 197.536 31.8864 198.634 31.8864 199.941C31.8864 201.248 32.1989 202.351 32.8239 203.251C33.4394 204.141 34.3485 204.818 35.5511 205.282C36.7443 205.736 38.2121 205.964 39.9545 205.964C41.697 205.964 43.1695 205.736 44.3722 205.282C45.5653 204.818 46.4744 204.141 47.0994 203.251C47.715 202.351 48.0227 201.248 48.0227 199.941C48.0227 198.634 47.715 197.536 47.0994 196.645C46.4744 195.746 45.5653 195.069 44.3722 194.614C43.1695 194.15 41.697 193.918 39.9545 193.918Z" fill="white"/>
</g>
<defs>
<clipPath id="clip0_16_249">
<rect width="328" height="77" fill="white" transform="translate(0.5 328) rotate(-90)"/>
</clipPath>
</defs>
</svg>
