<svg width="238" height="60" viewBox="0 0 238 60" fill="none" xmlns="http://www.w3.org/2000/svg">
<path d="M23.453 6.603V7.435H21.646V10.022H20.658V4.003H21.646V6.603H23.453ZM18.942 5.381H12.637V4.601H18.942V5.381ZM19.566 9.359C18.6907 9.48033 17.6117 9.57567 16.329 9.645C15.055 9.70567 13.742 9.736 12.39 9.736L12.299 8.956C13.0357 8.956 13.5903 8.95167 13.963 8.943L13.651 6.187L14.574 6.109L14.808 8.93C15.3973 8.91267 15.835 8.89533 16.121 8.878L16.693 8.852L16.992 6.096L17.915 6.174L17.564 8.813C18.1967 8.76967 18.8293 8.709 19.462 8.631L19.566 9.359ZM15.471 14.975H21.958V15.82H15.133C14.925 15.82 14.7647 15.7637 14.652 15.651C14.5393 15.5383 14.483 15.3737 14.483 15.157V12.843H20.658V11.53H14.405V10.698H21.646V13.662H15.471V14.975ZM32.9248 5.784H26.0608V4.939H33.8998V5.862C33.8998 7.786 33.7135 9.619 33.3408 11.361L32.3788 11.205C32.7428 9.44567 32.9248 7.67767 32.9248 5.901V5.784ZM35.3428 13.168V14H24.7348V13.168H28.8948V8.995H29.8698V13.168H35.3428ZM51.8455 10.438H50.8445V4.003H51.8455V10.438ZM45.6185 7.656C45.5578 7.656 45.5015 7.68633 45.4495 7.747C45.2241 8.111 44.9295 8.488 44.5655 8.878C44.2015 9.25933 43.6988 9.74467 43.0575 10.334L42.3165 9.697C43.0618 9.047 43.6338 8.49233 44.0325 8.033C44.4311 7.565 44.7171 7.10567 44.8905 6.655C45.0725 6.19567 45.1635 5.67567 45.1635 5.095V4.38H46.1645V5.147C46.1645 5.97033 46.0128 6.68967 45.7095 7.305L45.7745 7.344L45.9825 7.162C46.0778 7.084 46.1688 7.045 46.2555 7.045C46.3595 7.045 46.4548 7.08833 46.5415 7.175L49.0375 9.45L48.3225 10.139L45.8005 7.734C45.7485 7.682 45.6878 7.656 45.6185 7.656ZM44.3835 11.14H52.0405V11.946H44.3835V11.14ZM52.1445 14.936V15.716H44.2665V14.936H46.1775L45.7745 12.648L46.7625 12.557L47.0875 14.936H49.3365L49.6615 12.557L50.6495 12.648L50.2465 14.936H52.1445ZM55.7403 6.616C55.7403 6.148 55.8833 5.732 56.1693 5.368C56.4553 4.99533 56.8886 4.705 57.4693 4.497C58.0586 4.28033 58.7866 4.172 59.6533 4.172C60.5199 4.172 61.2436 4.28033 61.8243 4.497C62.4136 4.705 62.8513 4.99533 63.1373 5.368C63.4233 5.732 63.5663 6.148 63.5663 6.616C63.5663 7.344 63.2369 7.93333 62.5783 8.384C61.9196 8.83467 60.9446 9.06 59.6533 9.06C58.3619 9.06 57.3869 8.83467 56.7283 8.384C56.0696 7.93333 55.7403 7.344 55.7403 6.616ZM62.5133 6.72V6.499C62.5133 6.04833 62.2749 5.67567 61.7983 5.381C61.3216 5.08633 60.6066 4.939 59.6533 4.939C58.6999 4.939 57.9849 5.08633 57.5083 5.381C57.0316 5.67567 56.7933 6.04833 56.7933 6.499V6.72C56.7933 7.17067 57.0316 7.54333 57.5083 7.838C57.9849 8.13267 58.6999 8.28 59.6533 8.28C60.6066 8.28 61.3216 8.13267 61.7983 7.838C62.2749 7.54333 62.5133 7.17067 62.5133 6.72ZM64.9573 10.165V11.023H54.3493V10.165H64.9573ZM55.8703 14.858V12.115H56.8583V14.689H63.5923V15.521H56.5203C56.3123 15.521 56.1519 15.4647 56.0393 15.352C55.9266 15.2393 55.8703 15.0747 55.8703 14.858ZM76.5589 5.16H73.0229V4.367H81.0309V5.16H77.5339C77.5166 5.76667 77.3302 6.278 76.9749 6.694L77.0399 6.72L77.3129 6.525C77.4342 6.447 77.5469 6.408 77.6509 6.408C77.7376 6.408 77.8416 6.434 77.9629 6.486L81.5119 8.137L80.9919 8.852L77.2739 7.058C77.1612 6.99733 77.0486 6.967 76.9359 6.967C76.8146 6.967 76.7062 6.99733 76.6109 7.058C76.2729 7.344 75.8179 7.63433 75.2459 7.929C74.6739 8.215 73.9416 8.53133 73.0489 8.878L72.5419 8.176C73.5732 7.786 74.3706 7.43933 74.9339 7.136C75.4972 6.824 75.9002 6.51633 76.1429 6.213C76.3942 5.90967 76.5329 5.55867 76.5589 5.16ZM77.5209 10.542V11.582C78.6129 11.6427 79.4449 11.868 80.0169 12.258C80.5889 12.648 80.8749 13.1507 80.8749 13.766C80.8749 14.1993 80.7276 14.5807 80.4329 14.91C80.1469 15.248 79.7136 15.5123 79.1329 15.703C78.5609 15.8937 77.8589 15.989 77.0269 15.989C76.1949 15.989 75.4886 15.8937 74.9079 15.703C74.3359 15.5123 73.9026 15.248 73.6079 14.91C73.3219 14.5807 73.1789 14.1993 73.1789 13.766C73.1789 13.1507 73.4649 12.648 74.0369 12.258C74.6089 11.868 75.4409 11.6427 76.5329 11.582V10.542H71.7229V9.71H82.3309V10.542H77.5209ZM77.0269 12.336C76.0822 12.336 75.3716 12.466 74.8949 12.726C74.4269 12.986 74.1929 13.3067 74.1929 13.688V13.87C74.1929 14.2427 74.4269 14.559 74.8949 14.819C75.3716 15.079 76.0822 15.209 77.0269 15.209C77.9716 15.209 78.6779 15.079 79.1459 14.819C79.6139 14.559 79.8479 14.2427 79.8479 13.87V13.688C79.8479 13.298 79.6139 12.9773 79.1459 12.726C78.6866 12.466 77.9802 12.336 77.0269 12.336ZM92.1537 5.784H85.2897V4.939H93.1287V5.862C93.1287 7.786 92.9424 9.619 92.5697 11.361L91.6077 11.205C91.9717 9.44567 92.1537 7.67767 92.1537 5.901V5.784ZM94.5717 13.168V14H83.9637V13.168H88.1237V8.995H89.0987V13.168H94.5717ZM112.296 6.915V7.747H110.489V10.724H109.501V4.003H110.489V6.915H112.296ZM104.574 7.695C104.514 7.695 104.457 7.72533 104.405 7.786C104.18 8.15867 103.881 8.54433 103.508 8.943C103.144 9.333 102.65 9.81833 102.026 10.399L101.298 9.762C102.035 9.10333 102.603 8.54 103.001 8.072C103.4 7.604 103.686 7.14033 103.859 6.681C104.033 6.22167 104.119 5.70167 104.119 5.121V4.419H105.107V5.173C105.107 5.96167 104.956 6.681 104.652 7.331L104.717 7.383L104.925 7.201C105.021 7.123 105.116 7.084 105.211 7.084C105.307 7.084 105.393 7.123 105.471 7.201L107.941 9.489L107.239 10.165L104.743 7.773C104.691 7.721 104.635 7.695 104.574 7.695ZM110.58 13.428C110.58 13.9047 110.446 14.3293 110.177 14.702C109.909 15.0833 109.506 15.3823 108.968 15.599C108.431 15.8157 107.772 15.924 106.992 15.924C106.221 15.924 105.562 15.8157 105.016 15.599C104.479 15.3823 104.072 15.0833 103.794 14.702C103.526 14.3293 103.391 13.9047 103.391 13.428C103.391 12.9513 103.526 12.5267 103.794 12.154C104.072 11.7727 104.479 11.4737 105.016 11.257C105.562 11.0403 106.221 10.932 106.992 10.932C107.772 10.932 108.431 11.0403 108.968 11.257C109.506 11.4737 109.909 11.7727 110.177 12.154C110.446 12.5267 110.58 12.9513 110.58 13.428ZM109.54 13.324C109.54 12.8733 109.328 12.4963 108.903 12.193C108.487 11.8897 107.85 11.738 106.992 11.738C106.143 11.738 105.506 11.894 105.081 12.206C104.657 12.5093 104.444 12.882 104.444 13.324V13.545C104.444 13.987 104.657 14.3597 105.081 14.663C105.506 14.975 106.143 15.131 106.992 15.131C107.85 15.131 108.487 14.975 108.903 14.663C109.328 14.3597 109.54 13.987 109.54 13.545V13.324ZM122.951 5.095H114.813V4.289H122.951V5.095ZM123.068 8.605H114.696V7.812H116.646L116.269 5.797L117.257 5.693L117.569 7.812H120.195L120.494 5.693L121.482 5.797L121.105 7.812H123.068V8.605ZM119.376 10.542V11.764H122.613V15.729H115.801C115.593 15.729 115.433 15.6727 115.32 15.56C115.208 15.4473 115.151 15.2827 115.151 15.066V11.764H118.388V10.542H113.578V9.71H124.186V10.542H119.376ZM121.638 12.557H116.126V14.923H121.638V12.557ZM127.223 6.083C127.223 5.45033 127.548 4.94767 128.198 4.575C128.848 4.19367 129.823 4.003 131.123 4.003C132.423 4.003 133.398 4.19367 134.048 4.575C134.698 4.94767 135.023 5.45033 135.023 6.083C135.023 6.71567 134.698 7.22267 134.048 7.604C133.398 7.98533 132.423 8.176 131.123 8.176C129.823 8.176 128.848 7.98533 128.198 7.604C127.548 7.22267 127.223 6.71567 127.223 6.083ZM133.97 6.148V6.005C133.97 5.63233 133.732 5.329 133.255 5.095C132.787 4.85233 132.076 4.731 131.123 4.731C130.17 4.731 129.455 4.85233 128.978 5.095C128.51 5.329 128.276 5.63233 128.276 6.005V6.148C128.276 6.52067 128.51 6.82833 128.978 7.071C129.455 7.305 130.17 7.422 131.123 7.422C132.076 7.422 132.787 7.305 133.255 7.071C133.732 6.82833 133.97 6.52067 133.97 6.148ZM136.427 9.073V9.905H125.819V9.073H136.427ZM127.47 15.157V13.025H133.879V11.803H127.392V10.997H134.828V13.779H128.419V15.014H135.166V15.82H128.12C127.912 15.82 127.752 15.7637 127.639 15.651C127.526 15.5383 127.47 15.3737 127.47 15.157ZM148.029 5.16H144.493V4.367H152.501V5.16H149.004C148.986 5.76667 148.8 6.278 148.445 6.694L148.51 6.72L148.783 6.525C148.904 6.447 149.017 6.408 149.121 6.408C149.207 6.408 149.311 6.434 149.433 6.486L152.982 8.137L152.462 8.852L148.744 7.058C148.631 6.99733 148.518 6.967 148.406 6.967C148.284 6.967 148.176 6.99733 148.081 7.058C147.743 7.344 147.288 7.63433 146.716 7.929C146.144 8.215 145.411 8.53133 144.519 8.878L144.012 8.176C145.043 7.786 145.84 7.43933 146.404 7.136C146.967 6.824 147.37 6.51633 147.613 6.213C147.864 5.90967 148.003 5.55867 148.029 5.16ZM148.991 10.542V11.582C150.083 11.6427 150.915 11.868 151.487 12.258C152.059 12.648 152.345 13.1507 152.345 13.766C152.345 14.1993 152.197 14.5807 151.903 14.91C151.617 15.248 151.183 15.5123 150.603 15.703C150.031 15.8937 149.329 15.989 148.497 15.989C147.665 15.989 146.958 15.8937 146.378 15.703C145.806 15.5123 145.372 15.248 145.078 14.91C144.792 14.5807 144.649 14.1993 144.649 13.766C144.649 13.1507 144.935 12.648 145.507 12.258C146.079 11.868 146.911 11.6427 148.003 11.582V10.542H143.193V9.71H153.801V10.542H148.991ZM148.497 12.336C147.552 12.336 146.841 12.466 146.365 12.726C145.897 12.986 145.663 13.3067 145.663 13.688V13.87C145.663 14.2427 145.897 14.559 146.365 14.819C146.841 15.079 147.552 15.209 148.497 15.209C149.441 15.209 150.148 15.079 150.616 14.819C151.084 14.559 151.318 14.2427 151.318 13.87V13.688C151.318 13.298 151.084 12.9773 150.616 12.726C150.156 12.466 149.45 12.336 148.497 12.336ZM163.623 5.784H156.759V4.939H164.598V5.862C164.598 7.786 164.412 9.619 164.039 11.361L163.077 11.205C163.441 9.44567 163.623 7.67767 163.623 5.901V5.784ZM166.041 13.168V14H155.433V13.168H159.593V8.995H160.568V13.168H166.041ZM182.83 4.003V15.287H181.868V9.229H180.152V14.975H179.203V4.198H180.152V8.41H181.868V4.003H182.83ZM173.249 5.134H177.864V12.115H173.249V5.134ZM174.211 11.296H176.902V5.953H174.211V11.296ZM196.007 6.915V7.747H194.2V10.789H193.212V4.003H194.2V6.915H196.007ZM185.828 10.386L185.1 9.762C185.828 9.19 186.391 8.696 186.79 8.28C187.189 7.85533 187.475 7.43933 187.648 7.032C187.83 6.62467 187.921 6.161 187.921 5.641V5.524H185.438V4.705H191.379V5.524H188.909V5.693C188.909 6.40367 188.757 7.04067 188.454 7.604L188.532 7.656L188.727 7.5C188.822 7.43067 188.913 7.396 189 7.396C189.104 7.396 189.208 7.43933 189.312 7.526L191.743 9.541L191.015 10.178L188.545 8.072C188.484 8.02 188.419 7.994 188.35 7.994C188.298 7.994 188.242 8.01567 188.181 8.059C187.938 8.397 187.631 8.748 187.258 9.112C186.885 9.476 186.409 9.90067 185.828 10.386ZM194.291 13.48C194.291 13.948 194.157 14.364 193.888 14.728C193.619 15.1007 193.216 15.391 192.679 15.599C192.142 15.8157 191.483 15.924 190.703 15.924C189.932 15.924 189.273 15.8157 188.727 15.599C188.19 15.391 187.782 15.1007 187.505 14.728C187.236 14.364 187.102 13.948 187.102 13.48C187.102 13.012 187.236 12.596 187.505 12.232C187.782 11.8593 188.19 11.569 188.727 11.361C189.273 11.1443 189.932 11.036 190.703 11.036C191.483 11.036 192.142 11.1443 192.679 11.361C193.216 11.569 193.619 11.8593 193.888 12.232C194.157 12.596 194.291 13.012 194.291 13.48ZM193.264 13.376C193.264 12.934 193.052 12.5657 192.627 12.271C192.202 11.9677 191.561 11.816 190.703 11.816C189.845 11.816 189.204 11.9677 188.779 12.271C188.354 12.5657 188.142 12.934 188.142 13.376V13.597C188.142 14.0303 188.354 14.3943 188.779 14.689C189.204 14.9923 189.845 15.144 190.703 15.144C191.561 15.144 192.202 14.9923 192.627 14.689C193.052 14.3943 193.264 14.0303 193.264 13.597V13.376ZM207.312 4.003V15.287H206.363V4.003H207.312ZM203.802 4.198H204.725V14.975H203.802V9.06H202.554C202.51 10.1867 202.259 11.036 201.8 11.608C201.34 12.1713 200.734 12.453 199.98 12.453C199.174 12.453 198.537 12.141 198.069 11.517C197.601 10.8843 197.367 9.944 197.367 8.696C197.367 7.448 197.601 6.512 198.069 5.888C198.537 5.25533 199.174 4.939 199.98 4.939C200.725 4.939 201.323 5.21633 201.774 5.771C202.233 6.32567 202.493 7.149 202.554 8.241H203.802V4.198ZM201.566 8.072C201.566 7.30933 201.418 6.72867 201.124 6.33C200.838 5.93133 200.456 5.732 199.98 5.732C199.494 5.732 199.104 5.93133 198.81 6.33C198.524 6.72867 198.381 7.30933 198.381 8.072V9.333C198.381 10.087 198.524 10.6677 198.81 11.075C199.104 11.4737 199.494 11.673 199.98 11.673C200.456 11.673 200.838 11.4737 201.124 11.075C201.418 10.6677 201.566 10.087 201.566 9.333V8.072ZM225.621 6.915V7.747H223.814V10.789H222.826V4.003H223.814V6.915H225.621ZM220.33 9.905H215.052V4.51H216.001V6.369H219.355V4.497H220.33V9.905ZM219.355 7.175H216.001V9.112H219.355V7.175ZM223.905 13.48C223.905 13.948 223.771 14.364 223.502 14.728C223.234 15.1007 222.831 15.391 222.293 15.599C221.756 15.8157 221.097 15.924 220.317 15.924C219.546 15.924 218.887 15.8157 218.341 15.599C217.804 15.391 217.397 15.1007 217.119 14.728C216.851 14.364 216.716 13.948 216.716 13.48C216.716 13.012 216.851 12.596 217.119 12.232C217.397 11.8593 217.804 11.569 218.341 11.361C218.887 11.1443 219.546 11.036 220.317 11.036C221.097 11.036 221.756 11.1443 222.293 11.361C222.831 11.569 223.234 11.8593 223.502 12.232C223.771 12.596 223.905 13.012 223.905 13.48ZM222.865 13.376C222.865 12.9427 222.653 12.5787 222.228 12.284C221.812 11.9807 221.175 11.829 220.317 11.829C219.468 11.829 218.831 11.9807 218.406 12.284C217.982 12.5787 217.769 12.9427 217.769 13.376V13.597C217.769 14.0217 217.982 14.3813 218.406 14.676C218.831 14.9793 219.468 15.131 220.317 15.131C221.175 15.131 221.812 14.9793 222.228 14.676C222.653 14.3813 222.865 14.0217 222.865 13.597V13.376ZM235.925 8.722H228.489V4.354H235.925V8.722ZM234.95 5.16H229.464V7.916H234.95V5.16ZM237.511 10.022V10.867H232.766V13.246H231.778V10.867H226.903V10.022H237.511ZM229.373 14.78H236.133V15.599H229.048C228.84 15.599 228.68 15.5427 228.567 15.43C228.455 15.3173 228.398 15.1527 228.398 14.936V12.167H229.373V14.78ZM23.44 29.489H21.607V35.313H20.619V24.029H21.607V28.657H23.44V29.489ZM17.85 25.485H14.158V24.64H17.85V25.485ZM12.429 27.045H19.384V27.851H17.46V27.929C18.2487 28.319 18.643 29.0687 18.643 30.178C18.643 30.7413 18.526 31.231 18.292 31.647C18.058 32.0543 17.733 32.3663 17.317 32.583C16.9097 32.7997 16.4547 32.908 15.952 32.908C15.4493 32.908 14.99 32.7997 14.574 32.583C14.1667 32.3663 13.846 32.0543 13.612 31.647C13.378 31.231 13.261 30.7413 13.261 30.178C13.261 29.0687 13.6553 28.319 14.444 27.929V27.851H12.429V27.045ZM17.681 29.749C17.681 29.1683 17.525 28.7263 17.213 28.423C16.901 28.111 16.4807 27.955 15.952 27.955C15.432 27.955 15.0117 28.111 14.691 28.423C14.379 28.735 14.223 29.177 14.223 29.749V30.282C14.223 30.8453 14.3833 31.2873 14.704 31.608C15.0247 31.92 15.4407 32.076 15.952 32.076C16.4633 32.076 16.8793 31.92 17.2 31.608C17.5207 31.2873 17.681 30.8453 17.681 30.282V29.749ZM34.4068 24.003V35.287H33.4188V24.003H34.4068ZM28.9728 28.774C29.0942 28.774 29.1938 28.8217 29.2718 28.917L31.8198 31.907L31.0788 32.544L28.5048 29.45C28.4615 29.398 28.4095 29.372 28.3488 29.372C28.2968 29.372 28.2492 29.398 28.2058 29.45C27.9718 29.9267 27.6642 30.412 27.2828 30.906C26.9015 31.4 26.3815 32.0067 25.7228 32.726L24.9818 32.102C25.7358 31.3133 26.3165 30.6287 26.7238 30.048C27.1398 29.4673 27.4388 28.891 27.6208 28.319C27.8028 27.7383 27.8938 27.0797 27.8938 26.343V25.849H25.3328V25.017H31.4298V25.849H28.8818V26.382C28.8818 27.3613 28.7302 28.2323 28.4268 28.995L28.4918 29.034L28.6868 28.878C28.7822 28.8087 28.8775 28.774 28.9728 28.774ZM54.094 26.564V27.396H52.287V29.879H51.299V24.003H52.287V26.564H54.094ZM46.19 29.879C45.618 29.879 45.1067 29.7663 44.656 29.541C44.214 29.3157 43.8673 28.995 43.616 28.579C43.3647 28.1543 43.239 27.6647 43.239 27.11C43.239 26.5553 43.3647 26.07 43.616 25.654C43.8673 25.238 44.214 24.9173 44.656 24.692C45.1067 24.4667 45.618 24.354 46.19 24.354C46.7533 24.354 47.256 24.4667 47.698 24.692C48.1487 24.9173 48.4997 25.238 48.751 25.654C49.0023 26.07 49.128 26.5553 49.128 27.11C49.128 27.6647 49.0023 28.1543 48.751 28.579C48.4997 28.995 48.1487 29.3157 47.698 29.541C47.256 29.7663 46.7533 29.879 46.19 29.879ZM46.19 29.086C46.7533 29.086 47.2127 28.9257 47.568 28.605C47.9233 28.2843 48.101 27.8597 48.101 27.331V26.902C48.101 26.3733 47.9233 25.953 47.568 25.641C47.2127 25.3203 46.7533 25.16 46.19 25.16C45.618 25.16 45.1543 25.3203 44.799 25.641C44.4437 25.953 44.266 26.3733 44.266 26.902V27.331C44.266 27.8597 44.4437 28.2843 44.799 28.605C45.1543 28.9257 45.618 29.086 46.19 29.086ZM49.115 31.322V30.529H51.858V31.322H49.115ZM47.698 34.26L47.945 35.079C47.607 35.2263 47.204 35.3477 46.736 35.443C46.268 35.547 45.7783 35.599 45.267 35.599H45.033C44.825 35.599 44.6647 35.5427 44.552 35.43C44.4393 35.3173 44.383 35.1527 44.383 34.936V30.971H45.306V34.715H45.475C45.8823 34.715 46.281 34.6673 46.671 34.572C47.0697 34.4853 47.412 34.3813 47.698 34.26ZM47.724 32.349H53.249V33.09H51.767V33.168C52.0443 33.298 52.2523 33.4713 52.391 33.688C52.5297 33.9047 52.599 34.1517 52.599 34.429C52.599 34.8797 52.4083 35.2567 52.027 35.56C51.6457 35.872 51.1343 36.028 50.493 36.028C49.843 36.028 49.3273 35.872 48.946 35.56C48.5647 35.2567 48.374 34.8797 48.374 34.429C48.374 34.143 48.4433 33.8917 48.582 33.675C48.7207 33.4583 48.933 33.285 49.219 33.155V33.09H47.724V32.349ZM51.767 34.208C51.767 33.8787 51.6543 33.6187 51.429 33.428C51.2123 33.2373 50.9263 33.142 50.571 33.142H50.402C50.0467 33.142 49.7563 33.2373 49.531 33.428C49.3143 33.6187 49.206 33.8787 49.206 34.208C49.206 34.5373 49.3143 34.7973 49.531 34.988C49.7563 35.1787 50.0467 35.274 50.402 35.274H50.571C50.9263 35.274 51.2123 35.1787 51.429 34.988C51.6543 34.7973 51.767 34.5373 51.767 34.208ZM66.3218 29.281H64.4498V35.313H63.4618V24.029H64.4498V28.449H66.3218V29.281ZM61.4728 28.566C61.4728 29.8313 61.1955 30.789 60.6408 31.439C60.0948 32.089 59.3668 32.414 58.4568 32.414C57.5468 32.414 56.8145 32.089 56.2598 31.439C55.7138 30.789 55.4408 29.8313 55.4408 28.566C55.4408 27.3007 55.7138 26.343 56.2598 25.693C56.8145 25.043 57.5468 24.718 58.4568 24.718C59.3668 24.718 60.0948 25.043 60.6408 25.693C61.1955 26.343 61.4728 27.3007 61.4728 28.566ZM60.4198 28.046C60.4198 27.24 60.2378 26.6247 59.8738 26.2C59.5185 25.7667 59.0462 25.55 58.4568 25.55C57.8675 25.55 57.3908 25.7667 57.0268 26.2C56.6628 26.6247 56.4808 27.24 56.4808 28.046V29.086C56.4808 29.892 56.6628 30.5117 57.0268 30.945C57.3908 31.3697 57.8675 31.582 58.4568 31.582C59.0462 31.582 59.5185 31.3697 59.8738 30.945C60.2378 30.5117 60.4198 29.892 60.4198 29.086V28.046ZM78.2247 33.168V34H67.6167V33.168H72.4267V30.165H69.1507V24.77H76.7297V25.615H70.1387V29.32H76.8467V30.165H73.4147V33.168H78.2247ZM96.0399 24.003V35.287H95.0779V29.229H93.3619V34.975H92.4129V24.198H93.3619V28.41H95.0779V24.003H96.0399ZM86.4589 25.134H91.0739V32.115H86.4589V25.134ZM87.4209 31.296H90.1119V25.953H87.4209V31.296ZM107.995 24.003V30.282H106.994V24.003H107.995ZM98.6347 27.136C98.6347 26.5727 98.7603 26.083 99.0117 25.667C99.2717 25.2423 99.627 24.9173 100.078 24.692C100.537 24.4667 101.053 24.354 101.625 24.354C102.197 24.354 102.708 24.4667 103.159 24.692C103.618 24.9173 103.973 25.2423 104.225 25.667C104.485 26.083 104.615 26.5727 104.615 27.136C104.615 27.6993 104.485 28.1933 104.225 28.618C103.973 29.034 103.618 29.3547 103.159 29.58C102.708 29.8053 102.197 29.918 101.625 29.918C101.053 29.918 100.537 29.8053 100.078 29.58C99.627 29.3547 99.2717 29.034 99.0117 28.618C98.7603 28.1933 98.6347 27.6993 98.6347 27.136ZM103.562 27.344V26.915C103.562 26.3863 103.384 25.966 103.029 25.654C102.673 25.3333 102.205 25.173 101.625 25.173C101.044 25.173 100.572 25.3333 100.208 25.654C99.8523 25.966 99.6747 26.3863 99.6747 26.915V27.344C99.6747 27.8727 99.8523 28.2973 100.208 28.618C100.572 28.9387 101.044 29.099 101.625 29.099C102.197 29.099 102.66 28.9387 103.016 28.618C103.38 28.2973 103.562 27.8727 103.562 27.344ZM100.858 35.092V30.997H101.82V32.492H107.007V30.997H107.995V35.755H101.508C101.3 35.755 101.139 35.6987 101.027 35.586C100.914 35.4733 100.858 35.3087 100.858 35.092ZM107.007 33.337H101.82V34.91H107.007V33.337ZM121.444 29.281H119.572V35.313H118.584V24.029H119.572V28.449H121.444V29.281ZM111.057 24.926H116.114V26.733C116.114 27.695 115.971 28.5097 115.685 29.177C115.399 29.8443 114.914 30.4683 114.229 31.049C113.553 31.621 112.583 32.2493 111.317 32.934L110.732 32.193C111.911 31.569 112.812 31.0013 113.436 30.49C114.06 29.9787 114.498 29.437 114.749 28.865C115.001 28.293 115.126 27.5867 115.126 26.746V25.771H111.057V24.926ZM133.722 25.602H130.095V24.77H138.324V25.602H134.723C134.723 26.0267 134.675 26.408 134.58 26.746C134.484 27.084 134.324 27.4047 134.099 27.708L134.138 27.721L134.385 27.539C134.489 27.4437 134.61 27.396 134.749 27.396C134.835 27.396 134.931 27.422 135.035 27.474L138.844 29.619L138.298 30.386L134.385 28.098C134.246 28.0287 134.125 27.994 134.021 27.994C133.934 27.994 133.856 28.0157 133.787 28.059C133.449 28.423 132.985 28.7957 132.396 29.177C131.806 29.5583 131.039 29.9743 130.095 30.425L129.562 29.697C130.645 29.1857 131.481 28.722 132.071 28.306C132.669 27.8813 133.089 27.461 133.332 27.045C133.583 26.6203 133.713 26.1393 133.722 25.602ZM139.507 33.168V34H128.899V33.168H133.709V30.36H134.697V33.168H139.507ZM150.825 24.003V35.287H149.85V24.003H150.825ZM146.769 25.329H143.298V24.523H146.769V25.329ZM149.005 32.232L149.109 33.025C148.121 33.181 146.938 33.3023 145.56 33.389C144.182 33.467 142.765 33.506 141.309 33.506L141.218 32.674C142.223 32.674 143.324 32.6523 144.52 32.609V31.062C143.818 31.0013 143.259 30.7977 142.843 30.451C142.435 30.0957 142.232 29.658 142.232 29.138C142.232 28.7653 142.327 28.4447 142.518 28.176C142.708 27.8987 142.994 27.682 143.376 27.526V27.448H141.4V26.668H148.498V27.448H146.574V27.526C146.955 27.682 147.241 27.8987 147.432 28.176C147.622 28.4447 147.718 28.7653 147.718 29.138C147.718 29.658 147.514 30.0913 147.107 30.438C146.708 30.7847 146.162 30.9927 145.469 31.062V32.57C146.951 32.4833 148.129 32.3707 149.005 32.232ZM144.832 30.282H145.118C145.612 30.282 146.015 30.165 146.327 29.931C146.647 29.6883 146.808 29.3503 146.808 28.917C146.808 28.4837 146.652 28.1457 146.34 27.903C146.028 27.6603 145.62 27.539 145.118 27.539H144.832C144.338 27.539 143.93 27.6603 143.61 27.903C143.298 28.1457 143.142 28.4837 143.142 28.917C143.142 29.3417 143.298 29.6753 143.61 29.918C143.93 30.1607 144.338 30.282 144.832 30.282ZM169.225 24.003V35.287H168.25V28.618H165.845V27.786H168.25V24.003H169.225ZM163.596 28.553C163.7 28.553 163.791 28.6007 163.869 28.696L166.417 31.946L165.663 32.609L163.115 29.255C163.08 29.2117 163.037 29.19 162.985 29.19C162.933 29.19 162.889 29.2117 162.855 29.255C162.638 29.7577 162.339 30.2733 161.958 30.802C161.576 31.3307 161.056 31.9893 160.398 32.778L159.644 32.141C160.398 31.283 160.974 30.5507 161.373 29.944C161.78 29.3287 162.07 28.7133 162.244 28.098C162.426 27.4827 162.517 26.7763 162.517 25.979V24.757H163.505V25.966C163.505 27.0147 163.362 27.9507 163.076 28.774L163.128 28.813L163.31 28.657C163.405 28.5877 163.5 28.553 163.596 28.553ZM180.465 24.003H181.453V35.287H180.465V24.003ZM172.444 24.809H173.419V27.656H176.838V24.796H177.8V32.245H172.444V24.809ZM176.838 31.413V28.488H173.419V31.413H176.838ZM185.113 30.503L184.554 29.736C185.733 29.1293 186.634 28.592 187.258 28.124C187.891 27.6473 188.329 27.175 188.571 26.707C188.814 26.2303 188.935 25.6843 188.935 25.069V24.627H189.949V25.095C189.949 25.5977 189.893 26.0483 189.78 26.447C189.676 26.837 189.499 27.2053 189.247 27.552L189.312 27.591L189.637 27.344C189.75 27.2573 189.863 27.214 189.975 27.214C190.088 27.214 190.201 27.253 190.313 27.331L194.096 29.684L193.524 30.464L189.611 27.942C189.499 27.864 189.377 27.825 189.247 27.825C189.135 27.825 189.022 27.8683 188.909 27.955C188.554 28.3363 188.073 28.7307 187.466 29.138C186.86 29.5367 186.075 29.9917 185.113 30.503ZM194.629 33.155V34H184.021V33.155H194.629ZM204.205 26.031V24.913H197.861V24.185H205.154V26.746H198.888V27.851H205.479V28.592H197.926V26.031H204.205ZM206.87 29.567V30.334H196.262V29.567H206.87ZM197.887 35.196V33.233H204.361V32.141H197.809V31.374H205.284V33.961H198.81V35.079H205.622V35.859H198.537C198.329 35.859 198.169 35.8027 198.056 35.69C197.944 35.5773 197.887 35.4127 197.887 35.196ZM223.346 24.003H224.334V35.287H223.346V24.003ZM215 28.566C215 27.3007 215.278 26.343 215.832 25.693C216.396 25.043 217.137 24.718 218.055 24.718C218.965 24.718 219.698 25.043 220.252 25.693C220.816 26.343 221.097 27.3007 221.097 28.566C221.097 29.4153 220.967 30.1303 220.707 30.711C220.447 31.283 220.088 31.712 219.628 31.998C219.169 32.2753 218.645 32.414 218.055 32.414C217.137 32.414 216.396 32.089 215.832 31.439C215.278 30.789 215 29.8313 215 28.566ZM220.044 29.073V28.059C220.044 27.253 219.858 26.6333 219.485 26.2C219.121 25.7667 218.645 25.55 218.055 25.55C217.457 25.55 216.972 25.7667 216.599 26.2C216.235 26.6247 216.053 27.2443 216.053 28.059V29.073C216.053 29.8877 216.235 30.5117 216.599 30.945C216.972 31.3697 217.457 31.582 218.055 31.582C218.645 31.582 219.121 31.3653 219.485 30.932C219.858 30.4987 220.044 29.879 220.044 29.073ZM237.511 29.71V30.542H226.903V29.71H229.724V28.176C229.248 27.9767 228.888 27.7167 228.645 27.396C228.411 27.0753 228.294 26.7113 228.294 26.304C228.294 25.628 228.624 25.082 229.282 24.666C229.941 24.2413 230.916 24.029 232.207 24.029C233.499 24.029 234.474 24.2413 235.132 24.666C235.791 25.082 236.12 25.628 236.12 26.304C236.12 26.7113 235.999 27.0753 235.756 27.396C235.522 27.7167 235.167 27.9767 234.69 28.176V29.71H237.511ZM232.207 27.812C233.169 27.812 233.889 27.6777 234.365 27.409C234.842 27.1403 235.08 26.798 235.08 26.382V26.2C235.08 25.7927 234.838 25.4547 234.352 25.186C233.876 24.9173 233.161 24.783 232.207 24.783C231.254 24.783 230.539 24.9173 230.062 25.186C229.586 25.4547 229.347 25.7927 229.347 26.2V26.382C229.347 26.798 229.581 27.1403 230.049 27.409C230.526 27.6777 231.245 27.812 232.207 27.812ZM230.673 29.71H233.741V28.449C233.317 28.5357 232.805 28.579 232.207 28.579C231.609 28.579 231.098 28.5357 230.673 28.449V29.71ZM236.055 33.727C236.055 34.169 235.908 34.559 235.613 34.897C235.327 35.235 234.894 35.4993 234.313 35.69C233.741 35.8893 233.039 35.989 232.207 35.989C231.375 35.989 230.669 35.8893 230.088 35.69C229.516 35.4993 229.083 35.235 228.788 34.897C228.502 34.559 228.359 34.169 228.359 33.727C228.359 33.2937 228.502 32.9123 228.788 32.583C229.083 32.245 229.516 31.9807 230.088 31.79C230.669 31.5993 231.375 31.504 232.207 31.504C233.039 31.504 233.741 31.5993 234.313 31.79C234.894 31.9807 235.327 32.245 235.613 32.583C235.908 32.9123 236.055 33.2937 236.055 33.727ZM235.015 33.649C235.015 33.2677 234.781 32.947 234.313 32.687C233.854 32.4183 233.152 32.284 232.207 32.284C231.575 32.284 231.046 32.349 230.621 32.479C230.197 32.6003 229.885 32.765 229.685 32.973C229.486 33.181 229.386 33.4063 229.386 33.649V33.831C229.386 34.0737 229.486 34.299 229.685 34.507C229.885 34.715 230.197 34.8797 230.621 35.001C231.046 35.131 231.575 35.196 232.207 35.196C233.152 35.196 233.854 35.0617 234.313 34.793C234.781 34.533 235.015 34.2123 235.015 33.831V33.649ZM23.44 49.489H21.607V55.313H20.619V44.029H21.607V48.657H23.44V49.489ZM17.85 45.485H14.158V44.64H17.85V45.485ZM12.429 47.045H19.384V47.851H17.46V47.929C18.2487 48.319 18.643 49.0687 18.643 50.178C18.643 50.7413 18.526 51.231 18.292 51.647C18.058 52.0543 17.733 52.3663 17.317 52.583C16.9097 52.7997 16.4547 52.908 15.952 52.908C15.4493 52.908 14.99 52.7997 14.574 52.583C14.1667 52.3663 13.846 52.0543 13.612 51.647C13.378 51.231 13.261 50.7413 13.261 50.178C13.261 49.0687 13.6553 48.319 14.444 47.929V47.851H12.429V47.045ZM17.681 49.749C17.681 49.1683 17.525 48.7263 17.213 48.423C16.901 48.111 16.4807 47.955 15.952 47.955C15.432 47.955 15.0117 48.111 14.691 48.423C14.379 48.735 14.223 49.177 14.223 49.749V50.282C14.223 50.8453 14.3833 51.2873 14.704 51.608C15.0247 51.92 15.4407 52.076 15.952 52.076C16.4633 52.076 16.8793 51.92 17.2 51.608C17.5207 51.2873 17.681 50.8453 17.681 50.282V49.749ZM34.4328 44.003V55.287H33.4578V50.542H31.2478V49.736H33.4578V47.292H31.2478V46.486H33.4578V44.003H34.4328ZM30.9748 48.566C30.9748 49.8313 30.7018 50.789 30.1558 51.439C29.6098 52.089 28.8905 52.414 27.9978 52.414C27.0965 52.414 26.3728 52.089 25.8268 51.439C25.2808 50.789 25.0078 49.8313 25.0078 48.566C25.0078 47.3007 25.2808 46.343 25.8268 45.693C26.3728 45.043 27.0965 44.718 27.9978 44.718C28.8905 44.718 29.6098 45.043 30.1558 45.693C30.7018 46.343 30.9748 47.3007 30.9748 48.566ZM29.9348 48.046C29.9348 47.2313 29.7572 46.6117 29.4018 46.187C29.0465 45.7537 28.5785 45.537 27.9978 45.537C27.4085 45.537 26.9362 45.7537 26.5808 46.187C26.2255 46.6117 26.0478 47.2313 26.0478 48.046V49.086C26.0478 49.9007 26.2255 50.5247 26.5808 50.958C26.9362 51.3827 27.4085 51.595 27.9978 51.595C28.5785 51.595 29.0465 51.3827 29.4018 50.958C29.7572 50.5247 29.9348 49.9007 29.9348 49.086V48.046ZM50.7209 44.003V55.287H49.7589V49.229H48.0429V54.975H47.0939V44.198H48.0429V48.41H49.7589V44.003H50.7209ZM41.1399 45.134H45.7549V52.115H41.1399V45.134ZM42.1019 51.296H44.7929V45.953H42.1019V51.296ZM62.6757 44.003V50.282H61.6747V44.003H62.6757ZM53.3157 47.136C53.3157 46.5727 53.4414 46.083 53.6927 45.667C53.9527 45.2423 54.3081 44.9173 54.7587 44.692C55.2181 44.4667 55.7337 44.354 56.3057 44.354C56.8777 44.354 57.3891 44.4667 57.8397 44.692C58.2991 44.9173 58.6544 45.2423 58.9057 45.667C59.1657 46.083 59.2957 46.5727 59.2957 47.136C59.2957 47.6993 59.1657 48.1933 58.9057 48.618C58.6544 49.034 58.2991 49.3547 57.8397 49.58C57.3891 49.8053 56.8777 49.918 56.3057 49.918C55.7337 49.918 55.2181 49.8053 54.7587 49.58C54.3081 49.3547 53.9527 49.034 53.6927 48.618C53.4414 48.1933 53.3157 47.6993 53.3157 47.136ZM58.2427 47.344V46.915C58.2427 46.3863 58.0651 45.966 57.7097 45.654C57.3544 45.3333 56.8864 45.173 56.3057 45.173C55.7251 45.173 55.2527 45.3333 54.8887 45.654C54.5334 45.966 54.3557 46.3863 54.3557 46.915V47.344C54.3557 47.8727 54.5334 48.2973 54.8887 48.618C55.2527 48.9387 55.7251 49.099 56.3057 49.099C56.8777 49.099 57.3414 48.9387 57.6967 48.618C58.0607 48.2973 58.2427 47.8727 58.2427 47.344ZM55.5387 55.092V50.997H56.5007V52.492H61.6877V50.997H62.6757V55.755H56.1887C55.9807 55.755 55.8204 55.6987 55.7077 55.586C55.5951 55.4733 55.5387 55.3087 55.5387 55.092ZM61.6877 53.337H56.5007V54.91H61.6877V53.337ZM76.1255 49.281H74.2535V55.313H73.2655V44.029H74.2535V48.449H76.1255V49.281ZM65.7385 44.926H70.7955V46.733C70.7955 47.695 70.6525 48.5097 70.3665 49.177C70.0805 49.8443 69.5952 50.4683 68.9105 51.049C68.2345 51.621 67.2639 52.2493 65.9985 52.934L65.4135 52.193C66.5922 51.569 67.4935 51.0013 68.1175 50.49C68.7415 49.9787 69.1792 49.437 69.4305 48.865C69.6819 48.293 69.8075 47.5867 69.8075 46.746V45.771H65.7385V44.926ZM78.6944 52.479C78.9717 52.479 79.171 52.5527 79.2924 52.7C79.4224 52.8387 79.4874 53.0207 79.4874 53.246V53.428C79.4874 53.7833 79.3834 54.1733 79.1754 54.598C78.9674 55.0313 78.677 55.4083 78.3044 55.729H77.4334C77.6934 55.4517 77.9014 55.1873 78.0574 54.936C78.222 54.6933 78.339 54.4203 78.4084 54.117C78.235 54.0737 78.105 53.9913 78.0184 53.87C77.9404 53.7487 77.9014 53.6013 77.9014 53.428V53.246C77.9014 53.0207 77.962 52.8387 78.0834 52.7C78.2134 52.5527 78.417 52.479 78.6944 52.479ZM95.3576 44.003V55.287H94.3956V49.229H92.6796V54.975H91.7306V44.198H92.6796V48.41H94.3956V44.003H95.3576ZM85.7766 45.134H90.3916V52.115H85.7766V45.134ZM86.7386 51.296H89.4296V45.953H86.7386V51.296ZM107.312 44.003V50.282H106.311V44.003H107.312ZM97.9524 47.136C97.9524 46.5727 98.0781 46.083 98.3294 45.667C98.5894 45.2423 98.9448 44.9173 99.3954 44.692C99.8548 44.4667 100.37 44.354 100.942 44.354C101.514 44.354 102.026 44.4667 102.476 44.692C102.936 44.9173 103.291 45.2423 103.542 45.667C103.802 46.083 103.932 46.5727 103.932 47.136C103.932 47.6993 103.802 48.1933 103.542 48.618C103.291 49.034 102.936 49.3547 102.476 49.58C102.026 49.8053 101.514 49.918 100.942 49.918C100.37 49.918 99.8548 49.8053 99.3954 49.58C98.9448 49.3547 98.5894 49.034 98.3294 48.618C98.0781 48.1933 97.9524 47.6993 97.9524 47.136ZM102.879 47.344V46.915C102.879 46.3863 102.702 45.966 102.346 45.654C101.991 45.3333 101.523 45.173 100.942 45.173C100.362 45.173 99.8894 45.3333 99.5254 45.654C99.1701 45.966 98.9924 46.3863 98.9924 46.915V47.344C98.9924 47.8727 99.1701 48.2973 99.5254 48.618C99.8894 48.9387 100.362 49.099 100.942 49.099C101.514 49.099 101.978 48.9387 102.333 48.618C102.697 48.2973 102.879 47.8727 102.879 47.344ZM100.175 55.092V50.997H101.137V52.492H106.324V50.997H107.312V55.755H100.825C100.617 55.755 100.457 55.6987 100.344 55.586C100.232 55.4733 100.175 55.3087 100.175 55.092ZM106.324 53.337H101.137V54.91H106.324V53.337ZM124.485 49.281H122.613V55.313H121.625V44.029H122.613V48.449H124.485V49.281ZM114.098 44.926H119.155V46.733C119.155 47.695 119.012 48.5097 118.726 49.177C118.44 49.8443 117.954 50.4683 117.27 51.049C116.594 51.621 115.623 52.2493 114.358 52.934L113.773 52.193C114.951 51.569 115.853 51.0013 116.477 50.49C117.101 49.9787 117.538 49.437 117.79 48.865C118.041 48.293 118.167 47.5867 118.167 46.746V45.771H114.098V44.926ZM134.879 48.137H127.404V44.315H128.379V47.331H134.879V48.137ZM136.387 49.476V50.334H125.779V49.476H136.387ZM134.931 53.714C134.931 54.3987 134.602 54.949 133.943 55.365C133.285 55.781 132.331 55.989 131.083 55.989C129.835 55.989 128.882 55.781 128.223 55.365C127.565 54.949 127.235 54.3987 127.235 53.714C127.235 53.2807 127.378 52.895 127.664 52.557C127.959 52.219 128.392 51.9547 128.964 51.764C129.545 51.5733 130.251 51.478 131.083 51.478C131.915 51.478 132.617 51.5733 133.189 51.764C133.77 51.9547 134.203 52.219 134.489 52.557C134.784 52.895 134.931 53.2807 134.931 53.714ZM133.891 53.636C133.891 53.246 133.657 52.921 133.189 52.661C132.73 52.3923 132.028 52.258 131.083 52.258C130.147 52.258 129.441 52.3923 128.964 52.661C128.496 52.921 128.262 53.246 128.262 53.636V53.818C128.262 54.208 128.496 54.533 128.964 54.793C129.441 55.0617 130.147 55.196 131.083 55.196C132.028 55.196 132.73 55.0617 133.189 54.793C133.657 54.533 133.891 54.208 133.891 53.818V53.636ZM151.44 44.003V55.287H150.465V50.542H148.255V49.736H150.465V47.292H148.255V46.486H150.465V44.003H151.44ZM147.982 48.566C147.982 49.8313 147.709 50.789 147.163 51.439C146.617 52.089 145.898 52.414 145.005 52.414C144.104 52.414 143.38 52.089 142.834 51.439C142.288 50.789 142.015 49.8313 142.015 48.566C142.015 47.3007 142.288 46.343 142.834 45.693C143.38 45.043 144.104 44.718 145.005 44.718C145.898 44.718 146.617 45.043 147.163 45.693C147.709 46.343 147.982 47.3007 147.982 48.566ZM146.942 48.046C146.942 47.2313 146.765 46.6117 146.409 46.187C146.054 45.7537 145.586 45.537 145.005 45.537C144.416 45.537 143.944 45.7537 143.588 46.187C143.233 46.6117 143.055 47.2313 143.055 48.046V49.086C143.055 49.9007 143.233 50.5247 143.588 50.958C143.944 51.3827 144.416 51.595 145.005 51.595C145.586 51.595 146.054 51.3827 146.409 50.958C146.765 50.5247 146.942 49.9007 146.942 49.086V48.046ZM163.044 49.372H155.53V44.289H156.505V46.005H162.069V44.289H163.044V49.372ZM162.069 46.824H156.505V48.553H162.069V46.824ZM164.591 51.621H159.781V55.742H158.793V51.621H153.983V50.776H164.591V51.621ZM179.059 48.306H171.558V44.315H178.955V45.134H172.533V47.487H179.059V48.306ZM180.554 49.593V50.438H169.946V49.593H180.554ZM179.085 53.714C179.085 54.156 178.942 54.546 178.656 54.884C178.37 55.2307 177.937 55.4993 177.356 55.69C176.784 55.8893 176.082 55.989 175.25 55.989C174.418 55.989 173.712 55.8893 173.131 55.69C172.559 55.4993 172.13 55.2307 171.844 54.884C171.558 54.546 171.415 54.156 171.415 53.714C171.415 53.2807 171.558 52.895 171.844 52.557C172.139 52.219 172.572 51.9547 173.144 51.764C173.716 51.5733 174.418 51.478 175.25 51.478C176.082 51.478 176.784 51.5733 177.356 51.764C177.928 51.9547 178.357 52.219 178.643 52.557C178.938 52.895 179.085 53.2807 179.085 53.714ZM178.045 53.636C178.045 53.246 177.811 52.921 177.343 52.661C176.884 52.3923 176.186 52.258 175.25 52.258C174.314 52.258 173.612 52.3923 173.144 52.661C172.676 52.921 172.442 53.246 172.442 53.636V53.818C172.442 54.208 172.676 54.533 173.144 54.793C173.612 55.0617 174.314 55.196 175.25 55.196C176.186 55.196 176.884 55.0617 177.343 54.793C177.811 54.533 178.045 54.208 178.045 53.818V53.636ZM190.732 45.602H187.105V44.77H195.334V45.602H191.733C191.733 46.0267 191.686 46.408 191.59 46.746C191.495 47.084 191.335 47.4047 191.109 47.708L191.148 47.721L191.395 47.539C191.499 47.4437 191.621 47.396 191.759 47.396C191.846 47.396 191.941 47.422 192.045 47.474L195.854 49.619L195.308 50.386L191.395 48.098C191.257 48.0287 191.135 47.994 191.031 47.994C190.945 47.994 190.867 48.0157 190.797 48.059C190.459 48.423 189.996 48.7957 189.406 49.177C188.817 49.5583 188.05 49.9743 187.105 50.425L186.572 49.697C187.656 49.1857 188.492 48.722 189.081 48.306C189.679 47.8813 190.1 47.461 190.342 47.045C190.594 46.6203 190.724 46.1393 190.732 45.602ZM196.517 53.168V54H185.909V53.168H190.719V50.36H191.707V53.168H196.517ZM207.835 44.003V55.287H206.86V44.003H207.835ZM203.779 45.329H200.308V44.523H203.779V45.329ZM206.015 52.232L206.119 53.025C205.131 53.181 203.948 53.3023 202.57 53.389C201.192 53.467 199.775 53.506 198.319 53.506L198.228 52.674C199.234 52.674 200.334 52.6523 201.53 52.609V51.062C200.828 51.0013 200.269 50.7977 199.853 50.451C199.446 50.0957 199.242 49.658 199.242 49.138C199.242 48.7653 199.338 48.4447 199.528 48.176C199.719 47.8987 200.005 47.682 200.386 47.526V47.448H198.41V46.668H205.508V47.448H203.584V47.526C203.966 47.682 204.252 47.8987 204.442 48.176C204.633 48.4447 204.728 48.7653 204.728 49.138C204.728 49.658 204.525 50.0913 204.117 50.438C203.719 50.7847 203.173 50.9927 202.479 51.062V52.57C203.961 52.4833 205.14 52.3707 206.015 52.232ZM201.842 50.282H202.128C202.622 50.282 203.025 50.165 203.337 49.931C203.658 49.6883 203.818 49.3503 203.818 48.917C203.818 48.4837 203.662 48.1457 203.35 47.903C203.038 47.6603 202.631 47.539 202.128 47.539H201.842C201.348 47.539 200.941 47.6603 200.62 47.903C200.308 48.1457 200.152 48.4837 200.152 48.917C200.152 49.3417 200.308 49.6753 200.62 49.918C200.941 50.1607 201.348 50.282 201.842 50.282ZM225.059 49.281H223.187V55.313H222.199V44.029H223.187V48.449H225.059V49.281ZM214.672 44.926H219.729V46.733C219.729 47.695 219.586 48.5097 219.3 49.177C219.014 49.8443 218.529 50.4683 217.844 51.049C217.168 51.621 216.198 52.2493 214.932 52.934L214.347 52.193C215.526 51.569 216.427 51.0013 217.051 50.49C217.675 49.9787 218.113 49.437 218.364 48.865C218.616 48.293 218.741 47.5867 218.741 46.746V45.771H214.672V44.926ZM235.454 48.137H227.979V44.315H228.954V47.331H235.454V48.137ZM236.962 49.476V50.334H226.354V49.476H236.962ZM235.506 53.714C235.506 54.3987 235.177 54.949 234.518 55.365C233.859 55.781 232.906 55.989 231.658 55.989C230.41 55.989 229.457 55.781 228.798 55.365C228.139 54.949 227.81 54.3987 227.81 53.714C227.81 53.2807 227.953 52.895 228.239 52.557C228.534 52.219 228.967 51.9547 229.539 51.764C230.12 51.5733 230.826 51.478 231.658 51.478C232.49 51.478 233.192 51.5733 233.764 51.764C234.345 51.9547 234.778 52.219 235.064 52.557C235.359 52.895 235.506 53.2807 235.506 53.714ZM234.466 53.636C234.466 53.246 234.232 52.921 233.764 52.661C233.305 52.3923 232.603 52.258 231.658 52.258C230.722 52.258 230.016 52.3923 229.539 52.661C229.071 52.921 228.837 53.246 228.837 53.636V53.818C228.837 54.208 229.071 54.533 229.539 54.793C230.016 55.0617 230.722 55.196 231.658 55.196C232.603 55.196 233.305 55.0617 233.764 54.793C234.232 54.533 234.466 54.208 234.466 53.818V53.636Z" fill="white"/>
<rect y="4" width="2" height="10" fill="white"/>
</svg>
