<svg width="238" height="20" viewBox="0 0 238 20" fill="none" xmlns="http://www.w3.org/2000/svg">
<path d="M23.102 13.168V14H12.494V13.168H17.304V10.165H14.028V4.77H21.607V5.615H15.016V9.32H21.724V10.165H18.292V13.168H23.102ZM34.4198 4.003V15.287H33.4448V8.618H31.0398V7.786H33.4448V4.003H34.4198ZM28.7908 8.553C28.8948 8.553 28.9858 8.60067 29.0638 8.696L31.6118 11.946L30.8578 12.609L28.3098 9.255C28.2752 9.21167 28.2318 9.19 28.1798 9.19C28.1278 9.19 28.0845 9.21167 28.0498 9.255C27.8332 9.75767 27.5342 10.2733 27.1528 10.802C26.7715 11.3307 26.2515 11.9893 25.5928 12.778L24.8388 12.141C25.5928 11.283 26.1692 10.5507 26.5678 9.944C26.9752 9.32867 27.2655 8.71333 27.4388 8.098C27.6208 7.48267 27.7118 6.77633 27.7118 5.979V4.757H28.6998V5.966C28.6998 7.01467 28.5568 7.95067 28.2708 8.774L28.3228 8.813L28.5048 8.657C28.6002 8.58767 28.6955 8.553 28.7908 8.553ZM45.6856 4.003H46.6606V15.287H45.6856V4.003ZM37.5736 7.383C37.5736 6.84567 37.708 6.37333 37.9766 5.966C38.2453 5.55 38.6136 5.23367 39.0816 5.017C39.5496 4.79167 40.0783 4.679 40.6676 4.679C41.257 4.679 41.7856 4.79167 42.2536 5.017C42.7216 5.23367 43.09 5.55 43.3586 5.966C43.6273 6.37333 43.7616 6.84567 43.7616 7.383C43.7616 7.92033 43.6273 8.39267 43.3586 8.8C43.09 9.20733 42.7216 9.52367 42.2536 9.749C41.7856 9.96567 41.257 10.074 40.6676 10.074C40.0783 10.074 39.5496 9.96567 39.0816 9.749C38.6136 9.52367 38.2453 9.20733 37.9766 8.8C37.708 8.39267 37.5736 7.92033 37.5736 7.383ZM42.7216 7.539V7.227C42.7216 6.707 42.531 6.28667 42.1496 5.966C41.7683 5.64533 41.2743 5.485 40.6676 5.485C40.061 5.485 39.567 5.64533 39.1856 5.966C38.8043 6.28667 38.6136 6.707 38.6136 7.227V7.539C38.6136 8.059 38.8043 8.47933 39.1856 8.8C39.567 9.12067 40.061 9.281 40.6676 9.281C41.2743 9.281 41.7683 9.12067 42.1496 8.8C42.531 8.47933 42.7216 8.059 42.7216 7.539ZM37.0276 12.076C38.501 12.076 39.9223 12.0413 41.2916 11.972C42.661 11.9027 43.8223 11.7943 44.7756 11.647L44.8796 12.44C43.9003 12.596 42.7216 12.7173 41.3436 12.804C39.9743 12.882 38.566 12.921 37.1186 12.921L37.0276 12.076ZM61.9737 8.93H54.5117V4.224H55.4867V5.771H61.0117V4.224H61.9737V8.93ZM61.0117 6.577H55.4867V8.111H61.0117V6.577ZM63.5467 10.113V10.971H58.8017V13.272H57.8137V10.971H52.9387V10.113H63.5467ZM55.4087 14.754H62.1557V15.573H55.0837C54.8757 15.573 54.7154 15.5167 54.6027 15.404C54.4901 15.2913 54.4337 15.1267 54.4337 14.91V12.232H55.4087V14.754ZM73.1485 5.147H66.7655V4.328H74.1235V7.409H67.8185V8.904H74.4485V9.723H66.8305V6.629H73.1485V5.147ZM75.7875 11.829H73.0445V15.677H72.0695V11.829H68.8975V15.677H67.9225V11.829H65.1795V11.01H75.7875V11.829ZM78.6944 12.479C78.9717 12.479 79.171 12.5527 79.2924 12.7C79.4224 12.8387 79.4874 13.0207 79.4874 13.246V13.428C79.4874 13.7833 79.3834 14.1733 79.1754 14.598C78.9674 15.0313 78.677 15.4083 78.3044 15.729H77.4334C77.6934 15.4517 77.9014 15.1873 78.0574 14.936C78.222 14.6933 78.339 14.4203 78.4084 14.117C78.235 14.0737 78.105 13.9913 78.0184 13.87C77.9404 13.7487 77.9014 13.6013 77.9014 13.428V13.246C77.9014 13.0207 77.962 12.8387 78.0834 12.7C78.2134 12.5527 78.417 12.479 78.6944 12.479ZM95.3576 4.003V15.287H94.3956V9.229H92.5496V14.975H91.6006V4.198H92.5496V8.41H94.3956V4.003H95.3576ZM90.7816 10.971L90.9116 11.777C89.8456 12.037 88.5326 12.167 86.9726 12.167H85.8806V5.147H86.8296V11.348H87.2066C87.8826 11.348 88.5283 11.3177 89.1436 11.257C89.7676 11.1877 90.3136 11.0923 90.7816 10.971ZM108.183 9.71V10.542H97.5754V9.71H100.396V8.176C99.9198 7.97667 99.5601 7.71667 99.3174 7.396C99.0834 7.07533 98.9664 6.71133 98.9664 6.304C98.9664 5.628 99.2958 5.082 99.9544 4.666C100.613 4.24133 101.588 4.029 102.879 4.029C104.171 4.029 105.146 4.24133 105.804 4.666C106.463 5.082 106.792 5.628 106.792 6.304C106.792 6.71133 106.671 7.07533 106.428 7.396C106.194 7.71667 105.839 7.97667 105.362 8.176V9.71H108.183ZM102.879 7.812C103.841 7.812 104.561 7.67767 105.037 7.409C105.514 7.14033 105.752 6.798 105.752 6.382V6.2C105.752 5.79267 105.51 5.45467 105.024 5.186C104.548 4.91733 103.833 4.783 102.879 4.783C101.926 4.783 101.211 4.91733 100.734 5.186C100.258 5.45467 100.019 5.79267 100.019 6.2V6.382C100.019 6.798 100.253 7.14033 100.721 7.409C101.198 7.67767 101.917 7.812 102.879 7.812ZM101.345 9.71H104.413V8.449C103.989 8.53567 103.477 8.579 102.879 8.579C102.281 8.579 101.77 8.53567 101.345 8.449V9.71ZM106.727 13.727C106.727 14.169 106.58 14.559 106.285 14.897C105.999 15.235 105.566 15.4993 104.985 15.69C104.413 15.8893 103.711 15.989 102.879 15.989C102.047 15.989 101.341 15.8893 100.76 15.69C100.188 15.4993 99.7551 15.235 99.4604 14.897C99.1744 14.559 99.0314 14.169 99.0314 13.727C99.0314 13.2937 99.1744 12.9123 99.4604 12.583C99.7551 12.245 100.188 11.9807 100.76 11.79C101.341 11.5993 102.047 11.504 102.879 11.504C103.711 11.504 104.413 11.5993 104.985 11.79C105.566 11.9807 105.999 12.245 106.285 12.583C106.58 12.9123 106.727 13.2937 106.727 13.727ZM105.687 13.649C105.687 13.2677 105.453 12.947 104.985 12.687C104.526 12.4183 103.824 12.284 102.879 12.284C102.247 12.284 101.718 12.349 101.293 12.479C100.869 12.6003 100.557 12.765 100.357 12.973C100.158 13.181 100.058 13.4063 100.058 13.649V13.831C100.058 14.0737 100.158 14.299 100.357 14.507C100.557 14.715 100.869 14.8797 101.293 15.001C101.718 15.131 102.247 15.196 102.879 15.196C103.824 15.196 104.526 15.0617 104.985 14.793C105.453 14.533 105.687 14.2123 105.687 13.831V13.649ZM111.09 12.479C111.368 12.479 111.567 12.5527 111.688 12.7C111.818 12.8387 111.883 13.0207 111.883 13.246V13.428C111.883 13.7833 111.779 14.1733 111.571 14.598C111.363 15.0313 111.073 15.4083 110.7 15.729H109.829C110.089 15.4517 110.297 15.1873 110.453 14.936C110.618 14.6933 110.735 14.4203 110.804 14.117C110.631 14.0737 110.501 13.9913 110.414 13.87C110.336 13.7487 110.297 13.6013 110.297 13.428V13.246C110.297 13.0207 110.358 12.8387 110.479 12.7C110.609 12.5527 110.813 12.479 111.09 12.479ZM128.677 7.812V8.644H126.961V12.674H125.986V4.003H126.961V7.812H128.677ZM123.165 5.602H118.355V4.783H124.127V5.615C124.127 6.71567 123.988 7.838 123.711 8.982L122.775 8.839C123.026 7.903 123.156 6.889 123.165 5.797V5.602ZM125.089 10.529C124.127 10.685 122.978 10.8063 121.644 10.893C120.309 10.971 118.931 11.01 117.51 11.01L117.419 10.178C118.337 10.178 119.252 10.165 120.162 10.139V7.604H121.124V10.1C122.744 10.0307 124.036 9.918 124.998 9.762L125.089 10.529ZM120.708 14.715H127.195V15.534H120.37C120.162 15.534 120.001 15.4777 119.889 15.365C119.776 15.2523 119.72 15.0877 119.72 14.871V12.128H120.708V14.715ZM138.707 9.138H136.38V8.345H138.707V6.603H136.38V5.797H138.707V4.003H139.708V12.7H138.707V9.138ZM136.38 10.529C135.21 10.7977 133.711 10.932 131.882 10.932H130.725V7.357H134.443V5.524H130.673V4.718H135.405V8.15H131.674V10.126H132.051C133.663 10.126 135.067 10.0003 136.263 9.749L136.38 10.529ZM139.942 14.715V15.534H133.104C132.896 15.534 132.736 15.4777 132.623 15.365C132.511 15.2523 132.454 15.0877 132.454 14.871V12.089H133.442V14.715H139.942ZM154.618 4.003H155.606V15.287H154.618V4.003ZM146.272 8.566C146.272 7.30067 146.55 6.343 147.104 5.693C147.668 5.043 148.409 4.718 149.327 4.718C150.237 4.718 150.97 5.043 151.524 5.693C152.088 6.343 152.369 7.30067 152.369 8.566C152.369 9.41533 152.239 10.1303 151.979 10.711C151.719 11.283 151.36 11.712 150.9 11.998C150.441 12.2753 149.917 12.414 149.327 12.414C148.409 12.414 147.668 12.089 147.104 11.439C146.55 10.789 146.272 9.83133 146.272 8.566ZM151.316 9.073V8.059C151.316 7.253 151.13 6.63333 150.757 6.2C150.393 5.76667 149.917 5.55 149.327 5.55C148.729 5.55 148.244 5.76667 147.871 6.2C147.507 6.62467 147.325 7.24433 147.325 8.059V9.073C147.325 9.88767 147.507 10.5117 147.871 10.945C148.244 11.3697 148.729 11.582 149.327 11.582C149.917 11.582 150.393 11.3653 150.757 10.932C151.13 10.4987 151.316 9.879 151.316 9.073ZM168.198 12.648H167.249V4.003H168.198V12.648ZM163.05 10.386H158.591V4.796H159.501V6.772H162.14V4.783H163.05V7.136H164.714V4.185H165.637V12.323H164.714V7.955H163.05V10.386ZM162.14 7.565H159.501V9.606H162.14V7.565ZM168.445 14.715V15.534H161.334C161.126 15.534 160.966 15.4777 160.853 15.365C160.741 15.2523 160.684 15.0877 160.684 14.871V11.79H161.672V14.715H168.445ZM171.937 4.705H179.555V5.537H172.925V7.448H179.373V8.241H172.938V10.152H179.776V10.984H171.937V4.705ZM170.416 13.155H181.024V14H170.416V13.155ZM196.402 4.003V15.287H195.453V4.003H196.402ZM192.866 4.198H193.789V14.975H192.866V8.761H191.059V7.942H192.866V4.198ZM189.707 8.904C189.811 8.904 189.911 8.96467 190.006 9.086L192.073 11.985L191.371 12.583L189.291 9.593C189.248 9.541 189.204 9.515 189.161 9.515C189.118 9.515 189.083 9.541 189.057 9.593C188.875 10.0437 188.624 10.5117 188.303 10.997C187.991 11.4737 187.566 12.063 187.029 12.765L186.34 12.18C186.973 11.374 187.458 10.6807 187.796 10.1C188.134 9.51067 188.377 8.93 188.524 8.358C188.671 7.77733 188.745 7.11867 188.745 6.382V6.005H186.613V5.173H191.774V6.005H189.681V6.382C189.681 7.38733 189.542 8.28 189.265 9.06L189.33 9.099L189.46 8.995C189.555 8.93433 189.638 8.904 189.707 8.904ZM206.68 5.199H200.037V4.367H207.642V5.004C207.642 6.13933 207.508 7.30067 207.239 8.488L206.303 8.358C206.546 7.33533 206.671 6.28233 206.68 5.199ZM209.228 9.398V10.256H198.62V9.398H202.975V7.149H203.95V9.398H209.228ZM207.772 13.662C207.772 14.1127 207.625 14.5113 207.33 14.858C207.044 15.2133 206.611 15.4907 206.03 15.69C205.458 15.8893 204.756 15.989 203.924 15.989C203.092 15.989 202.386 15.8893 201.805 15.69C201.233 15.4907 200.8 15.2133 200.505 14.858C200.219 14.5113 200.076 14.1127 200.076 13.662C200.076 13.2113 200.219 12.8127 200.505 12.466C200.8 12.1193 201.233 11.8463 201.805 11.647C202.386 11.4477 203.092 11.348 203.924 11.348C204.756 11.348 205.458 11.4477 206.03 11.647C206.611 11.8463 207.044 12.1193 207.33 12.466C207.625 12.8127 207.772 13.2113 207.772 13.662ZM206.732 13.571C206.732 13.1637 206.498 12.8213 206.03 12.544C205.571 12.2667 204.869 12.128 203.924 12.128C202.988 12.128 202.282 12.2667 201.805 12.544C201.337 12.8213 201.103 13.1637 201.103 13.571V13.766C201.103 14.1647 201.337 14.5027 201.805 14.78C202.282 15.0573 202.988 15.196 203.924 15.196C204.869 15.196 205.571 15.0573 206.03 14.78C206.498 14.5027 206.732 14.1647 206.732 13.766V13.571Z" fill="white"/>
<rect y="4" width="2" height="10" fill="white"/>
</svg>
