<svg width="238" height="40" viewBox="0 0 238 40" fill="none" xmlns="http://www.w3.org/2000/svg">
<path d="M13.872 6.785C13.872 6.28233 14.015 5.83167 14.301 5.433C14.587 5.03433 15.0247 4.718 15.614 4.484C16.2033 4.25 16.9313 4.133 17.798 4.133C18.6647 4.133 19.3927 4.25 19.982 4.484C20.5713 4.718 21.009 5.03433 21.295 5.433C21.581 5.83167 21.724 6.28233 21.724 6.785C21.724 7.28767 21.581 7.74267 21.295 8.15C21.009 8.54867 20.5713 8.865 19.982 9.099C19.3927 9.333 18.6647 9.45 17.798 9.45C16.9313 9.45 16.2033 9.333 15.614 9.099C15.0247 8.865 14.587 8.54867 14.301 8.15C14.015 7.74267 13.872 7.28767 13.872 6.785ZM14.938 6.915C14.938 7.409 15.1763 7.82067 15.653 8.15C16.1297 8.47933 16.8447 8.644 17.798 8.644C18.7513 8.644 19.4663 8.47933 19.943 8.15C20.4197 7.82067 20.658 7.409 20.658 6.915V6.655C20.658 6.161 20.4197 5.74933 19.943 5.42C19.4663 5.082 18.7513 4.913 17.798 4.913C16.8533 4.913 16.1383 5.082 15.653 5.42C15.1763 5.74933 14.938 6.161 14.938 6.655V6.915ZM23.102 11.504H18.292V15.742H17.304V11.504H12.494V10.672H23.102V11.504ZM32.0148 4.939H28.0758V4.133H32.0148V4.939ZM29.5708 6.798H25.9698V6.005H34.1078V6.798H30.5328C30.5068 7.24867 30.3248 7.63 29.9868 7.942L30.0648 7.968L30.3638 7.773C30.4852 7.68633 30.6152 7.643 30.7538 7.643C30.7972 7.643 30.8882 7.66033 31.0268 7.695L34.5498 9.021L34.0298 9.736L30.2988 8.241C30.1862 8.19767 30.0735 8.176 29.9608 8.176C29.8482 8.176 29.7312 8.202 29.6098 8.254C29.2805 8.47933 28.8298 8.71333 28.2578 8.956C27.6858 9.19 26.9405 9.45867 26.0218 9.762L25.5148 9.073C26.5115 8.76967 27.2915 8.501 27.8548 8.267C28.4182 8.02433 28.8298 7.79033 29.0898 7.565C29.3585 7.331 29.5188 7.07533 29.5708 6.798ZM35.3428 10.425V11.257H24.7348V10.425H35.3428ZM26.2038 12.362H33.7698V15.82H32.7948V13.168H26.2038V12.362ZM54.081 9.281H52.209V15.313H51.221V4.029H52.209V8.449H54.081V9.281ZM49.232 8.566C49.232 9.83133 48.9547 10.789 48.4 11.439C47.854 12.089 47.126 12.414 46.216 12.414C45.306 12.414 44.5737 12.089 44.019 11.439C43.473 10.789 43.2 9.83133 43.2 8.566C43.2 7.30067 43.473 6.343 44.019 5.693C44.5737 5.043 45.306 4.718 46.216 4.718C47.126 4.718 47.854 5.043 48.4 5.693C48.9547 6.343 49.232 7.30067 49.232 8.566ZM48.179 8.046C48.179 7.24 47.997 6.62467 47.633 6.2C47.2777 5.76667 46.8053 5.55 46.216 5.55C45.6267 5.55 45.15 5.76667 44.786 6.2C44.422 6.62467 44.24 7.24 44.24 8.046V9.086C44.24 9.892 44.422 10.5117 44.786 10.945C45.15 11.3697 45.6267 11.582 46.216 11.582C46.8053 11.582 47.2777 11.3697 47.633 10.945C47.997 10.5117 48.179 9.892 48.179 9.086V8.046ZM64.0598 4.003H65.0478V15.287H64.0598V4.003ZM55.7138 8.566C55.7138 7.30067 55.9912 6.343 56.5458 5.693C57.1092 5.043 57.8502 4.718 58.7688 4.718C59.6788 4.718 60.4112 5.043 60.9658 5.693C61.5292 6.343 61.8108 7.30067 61.8108 8.566C61.8108 9.41533 61.6808 10.1303 61.4208 10.711C61.1608 11.283 60.8012 11.712 60.3418 11.998C59.8825 12.2753 59.3582 12.414 58.7688 12.414C57.8502 12.414 57.1092 12.089 56.5458 11.439C55.9912 10.789 55.7138 9.83133 55.7138 8.566ZM60.7578 9.073V8.059C60.7578 7.253 60.5715 6.63333 60.1988 6.2C59.8348 5.76667 59.3582 5.55 58.7688 5.55C58.1708 5.55 57.6855 5.76667 57.3128 6.2C56.9488 6.62467 56.7668 7.24433 56.7668 8.059V9.073C56.7668 9.88767 56.9488 10.5117 57.3128 10.945C57.6855 11.3697 58.1708 11.582 58.7688 11.582C59.3582 11.582 59.8348 11.3653 60.1988 10.932C60.5715 10.4987 60.7578 9.879 60.7578 9.073ZM75.7287 6.655C75.7547 6.19567 75.7677 5.72333 75.7677 5.238H69.0597V4.419H76.7297V5.29C76.7297 6.67667 76.5823 8.02 76.2877 9.32L75.3517 9.19C75.4817 8.65267 75.5813 8.06333 75.6507 7.422L68.7737 7.695L68.6697 6.876L75.7287 6.655ZM78.2247 10.178V11.023H67.6167V10.178H71.9587V8.449H72.9467V10.178H78.2247ZM70.1257 14.741H76.8597V15.56H69.7877C69.5797 15.56 69.4193 15.5037 69.3067 15.391C69.194 15.2783 69.1377 15.1137 69.1377 14.897V12.128H70.1257V14.741ZM81.2615 6.083C81.2615 5.45033 81.5865 4.94767 82.2365 4.575C82.8865 4.19367 83.8615 4.003 85.1615 4.003C86.4615 4.003 87.4365 4.19367 88.0865 4.575C88.7365 4.94767 89.0615 5.45033 89.0615 6.083C89.0615 6.71567 88.7365 7.22267 88.0865 7.604C87.4365 7.98533 86.4615 8.176 85.1615 8.176C83.8615 8.176 82.8865 7.98533 82.2365 7.604C81.5865 7.22267 81.2615 6.71567 81.2615 6.083ZM88.0085 6.148V6.005C88.0085 5.63233 87.7701 5.329 87.2935 5.095C86.8255 4.85233 86.1148 4.731 85.1615 4.731C84.2081 4.731 83.4931 4.85233 83.0165 5.095C82.5485 5.329 82.3145 5.63233 82.3145 6.005V6.148C82.3145 6.52067 82.5485 6.82833 83.0165 7.071C83.4931 7.305 84.2081 7.422 85.1615 7.422C86.1148 7.422 86.8255 7.305 87.2935 7.071C87.7701 6.82833 88.0085 6.52067 88.0085 6.148ZM90.4655 9.073V9.905H79.8575V9.073H90.4655ZM81.5085 15.157V13.025H87.9175V11.803H81.4305V10.997H88.8665V13.779H82.4575V15.014H89.2045V15.82H82.1585C81.9505 15.82 81.7901 15.7637 81.6775 15.651C81.5648 15.5383 81.5085 15.3737 81.5085 15.157ZM108.866 10.321V11.127H98.2577V10.321H103.081V9.099H99.8697V4.237H107.241V5.017H100.819V6.291H107.046V7.045H100.832V8.319H107.449V9.099H104.056V10.321H108.866ZM107.41 14C107.41 14.6153 107.08 15.105 106.422 15.469C105.763 15.833 104.81 16.015 103.562 16.015C102.314 16.015 101.36 15.833 100.702 15.469C100.043 15.105 99.7137 14.6153 99.7137 14C99.7137 13.3933 100.043 12.908 100.702 12.544C101.36 12.1713 102.314 11.985 103.562 11.985C104.81 11.985 105.763 12.1713 106.422 12.544C107.08 12.908 107.41 13.3933 107.41 14ZM106.37 13.922C106.37 13.584 106.136 13.3023 105.668 13.077C105.208 12.8517 104.506 12.739 103.562 12.739C102.626 12.739 101.919 12.8517 101.443 13.077C100.975 13.3023 100.741 13.584 100.741 13.922V14.078C100.741 14.416 100.975 14.6977 101.443 14.923C101.919 15.1483 102.626 15.261 103.562 15.261C104.506 15.261 105.208 15.1483 105.668 14.923C106.136 14.6977 106.37 14.416 106.37 14.078V13.922ZM120.521 4.003V15.287H119.559V9.398H117.869V14.975H116.92V4.198H117.869V8.579H119.559V4.003H120.521ZM115.126 5.693H111.785V4.887H115.126V5.693ZM110.42 7.149H116.296V7.929H114.749V7.994C115.434 8.36667 115.776 9.073 115.776 10.113C115.776 10.9277 115.555 11.5647 115.113 12.024C114.68 12.4747 114.108 12.7 113.397 12.7C112.695 12.7 112.123 12.4747 111.681 12.024C111.248 11.5647 111.031 10.9277 111.031 10.113C111.031 9.073 111.369 8.36667 112.045 7.994V7.929H110.42V7.149ZM114.84 9.645C114.84 9.125 114.71 8.72633 114.45 8.449C114.19 8.17167 113.839 8.033 113.397 8.033C112.955 8.033 112.604 8.17167 112.344 8.449C112.093 8.72633 111.967 9.125 111.967 9.645V10.269C111.967 10.7803 112.097 11.179 112.357 11.465C112.626 11.751 112.973 11.894 113.397 11.894C113.822 11.894 114.169 11.751 114.437 11.465C114.706 11.179 114.84 10.7803 114.84 10.269V9.645ZM137.089 5.784H130.225V4.939H138.064V5.862C138.064 7.786 137.877 9.619 137.505 11.361L136.543 11.205C136.907 9.44567 137.089 7.67767 137.089 5.901V5.784ZM139.507 13.168V14H128.899V13.168H133.059V8.995H134.034V13.168H139.507ZM151.163 4.003V10.789H150.201V7.786H148.381V10.646H147.419V4.185H148.381V6.98H150.201V4.003H151.163ZM142.037 10.711L141.452 10.035C142.431 9.567 143.176 9.151 143.688 8.787C144.199 8.41433 144.559 8.033 144.767 7.643C144.975 7.24433 145.079 6.76333 145.079 6.2V5.667H141.764V4.848H146.054V6.083C146.054 6.81967 145.932 7.435 145.69 7.929C145.456 8.423 145.057 8.88233 144.494 9.307C143.93 9.723 143.111 10.191 142.037 10.711ZM143.519 11.504H151.163V15.859H150.188V12.349H143.519V11.504ZM169.225 4.003V15.287H168.25V8.618H165.845V7.786H168.25V4.003H169.225ZM163.596 8.553C163.7 8.553 163.791 8.60067 163.869 8.696L166.417 11.946L165.663 12.609L163.115 9.255C163.08 9.21167 163.037 9.19 162.985 9.19C162.933 9.19 162.889 9.21167 162.855 9.255C162.638 9.75767 162.339 10.2733 161.958 10.802C161.576 11.3307 161.056 11.9893 160.398 12.778L159.644 12.141C160.398 11.283 160.974 10.5507 161.373 9.944C161.78 9.32867 162.07 8.71333 162.244 8.098C162.426 7.48267 162.517 6.77633 162.517 5.979V4.757H163.505V5.966C163.505 7.01467 163.362 7.95067 163.076 8.774L163.128 8.813L163.31 8.657C163.405 8.58767 163.5 8.553 163.596 8.553ZM180.465 4.003H181.453V15.287H180.465V4.003ZM172.444 4.809H173.419V7.656H176.838V4.796H177.8V12.245H172.444V4.809ZM176.838 11.413V8.488H173.419V11.413H176.838ZM185.113 10.503L184.554 9.736C185.733 9.12933 186.634 8.592 187.258 8.124C187.891 7.64733 188.329 7.175 188.571 6.707C188.814 6.23033 188.935 5.68433 188.935 5.069V4.627H189.949V5.095C189.949 5.59767 189.893 6.04833 189.78 6.447C189.676 6.837 189.499 7.20533 189.247 7.552L189.312 7.591L189.637 7.344C189.75 7.25733 189.863 7.214 189.975 7.214C190.088 7.214 190.201 7.253 190.313 7.331L194.096 9.684L193.524 10.464L189.611 7.942C189.499 7.864 189.377 7.825 189.247 7.825C189.135 7.825 189.022 7.86833 188.909 7.955C188.554 8.33633 188.073 8.73067 187.466 9.138C186.86 9.53667 186.075 9.99167 185.113 10.503ZM194.629 13.155V14H184.021V13.155H194.629ZM204.205 6.031V4.913H197.861V4.185H205.154V6.746H198.888V7.851H205.479V8.592H197.926V6.031H204.205ZM206.87 9.567V10.334H196.262V9.567H206.87ZM197.887 15.196V13.233H204.361V12.141H197.809V11.374H205.284V13.961H198.81V15.079H205.622V15.859H198.537C198.329 15.859 198.169 15.8027 198.056 15.69C197.944 15.5773 197.887 15.4127 197.887 15.196ZM223.346 4.003H224.334V15.287H223.346V4.003ZM215 8.566C215 7.30067 215.278 6.343 215.832 5.693C216.396 5.043 217.137 4.718 218.055 4.718C218.965 4.718 219.698 5.043 220.252 5.693C220.816 6.343 221.097 7.30067 221.097 8.566C221.097 9.41533 220.967 10.1303 220.707 10.711C220.447 11.283 220.088 11.712 219.628 11.998C219.169 12.2753 218.645 12.414 218.055 12.414C217.137 12.414 216.396 12.089 215.832 11.439C215.278 10.789 215 9.83133 215 8.566ZM220.044 9.073V8.059C220.044 7.253 219.858 6.63333 219.485 6.2C219.121 5.76667 218.645 5.55 218.055 5.55C217.457 5.55 216.972 5.76667 216.599 6.2C216.235 6.62467 216.053 7.24433 216.053 8.059V9.073C216.053 9.88767 216.235 10.5117 216.599 10.945C216.972 11.3697 217.457 11.582 218.055 11.582C218.645 11.582 219.121 11.3653 219.485 10.932C219.858 10.4987 220.044 9.879 220.044 9.073ZM237.511 9.71V10.542H226.903V9.71H229.724V8.176C229.248 7.97667 228.888 7.71667 228.645 7.396C228.411 7.07533 228.294 6.71133 228.294 6.304C228.294 5.628 228.624 5.082 229.282 4.666C229.941 4.24133 230.916 4.029 232.207 4.029C233.499 4.029 234.474 4.24133 235.132 4.666C235.791 5.082 236.12 5.628 236.12 6.304C236.12 6.71133 235.999 7.07533 235.756 7.396C235.522 7.71667 235.167 7.97667 234.69 8.176V9.71H237.511ZM232.207 7.812C233.169 7.812 233.889 7.67767 234.365 7.409C234.842 7.14033 235.08 6.798 235.08 6.382V6.2C235.08 5.79267 234.838 5.45467 234.352 5.186C233.876 4.91733 233.161 4.783 232.207 4.783C231.254 4.783 230.539 4.91733 230.062 5.186C229.586 5.45467 229.347 5.79267 229.347 6.2V6.382C229.347 6.798 229.581 7.14033 230.049 7.409C230.526 7.67767 231.245 7.812 232.207 7.812ZM230.673 9.71H233.741V8.449C233.317 8.53567 232.805 8.579 232.207 8.579C231.609 8.579 231.098 8.53567 230.673 8.449V9.71ZM236.055 13.727C236.055 14.169 235.908 14.559 235.613 14.897C235.327 15.235 234.894 15.4993 234.313 15.69C233.741 15.8893 233.039 15.989 232.207 15.989C231.375 15.989 230.669 15.8893 230.088 15.69C229.516 15.4993 229.083 15.235 228.788 14.897C228.502 14.559 228.359 14.169 228.359 13.727C228.359 13.2937 228.502 12.9123 228.788 12.583C229.083 12.245 229.516 11.9807 230.088 11.79C230.669 11.5993 231.375 11.504 232.207 11.504C233.039 11.504 233.741 11.5993 234.313 11.79C234.894 11.9807 235.327 12.245 235.613 12.583C235.908 12.9123 236.055 13.2937 236.055 13.727ZM235.015 13.649C235.015 13.2677 234.781 12.947 234.313 12.687C233.854 12.4183 233.152 12.284 232.207 12.284C231.575 12.284 231.046 12.349 230.621 12.479C230.197 12.6003 229.885 12.765 229.685 12.973C229.486 13.181 229.386 13.4063 229.386 13.649V13.831C229.386 14.0737 229.486 14.299 229.685 14.507C229.885 14.715 230.197 14.8797 230.621 15.001C231.046 15.131 231.575 15.196 232.207 15.196C233.152 15.196 233.854 15.0617 234.313 14.793C234.781 14.533 235.015 14.2123 235.015 13.831V13.649ZM23.453 26.915V27.747H21.646V30.373H20.658V24.003H21.646V26.915H23.453ZM17.681 25.004H14.21V24.211H17.681V25.004ZM15.861 30.191C15.0463 30.191 14.392 30.035 13.898 29.723C13.4127 29.4023 13.17 28.982 13.17 28.462C13.17 27.786 13.5253 27.3137 14.236 27.045V26.967H12.312V26.2H19.358V26.967H17.486V27.045C18.1967 27.3137 18.552 27.786 18.552 28.462C18.552 28.982 18.305 29.4023 17.811 29.723C17.3257 30.035 16.6757 30.191 15.861 30.191ZM15.705 29.398H16.017C16.4937 29.398 16.8837 29.294 17.187 29.086C17.4903 28.878 17.642 28.5877 17.642 28.215C17.642 27.8423 17.4903 27.552 17.187 27.344C16.8923 27.136 16.5023 27.032 16.017 27.032H15.705C15.2197 27.032 14.8253 27.136 14.522 27.344C14.2273 27.552 14.08 27.8423 14.08 28.215C14.08 28.5877 14.2317 28.878 14.535 29.086C14.8383 29.294 15.2283 29.398 15.705 29.398ZM15.445 35.014H21.958V35.82H15.133C14.925 35.82 14.7647 35.7637 14.652 35.651C14.5393 35.5383 14.483 35.3737 14.483 35.157V33.038H20.684V31.842H14.405V31.049H21.646V33.818H15.445V35.014ZM29.6271 29.437L29.0811 28.683C30.2251 28.163 31.1004 27.695 31.7071 27.279C32.3138 26.863 32.7341 26.4513 32.9681 26.044C33.2108 25.6367 33.3321 25.1643 33.3321 24.627V24.224H34.3461V24.653C34.3461 25.095 34.2898 25.4893 34.1771 25.836C34.0731 26.1827 33.9041 26.512 33.6701 26.824L33.7351 26.85L34.0731 26.603C34.1858 26.5163 34.3028 26.473 34.4241 26.473C34.5368 26.473 34.6408 26.5033 34.7361 26.564L38.4541 28.631L37.8951 29.398L34.0341 27.175C33.9128 27.1057 33.7958 27.071 33.6831 27.071C33.5618 27.071 33.4448 27.1143 33.3321 27.201L33.3191 27.214C32.9724 27.552 32.5044 27.8943 31.9151 28.241C31.3344 28.5877 30.5718 28.9863 29.6271 29.437ZM39.0651 31.517H34.2551V35.742H33.2671V31.517H28.4571V30.685H39.0651V31.517ZM54.1572 30.516H53.1562V24.003H54.1572V30.516ZM44.7972 27.24C44.7972 26.668 44.9228 26.1697 45.1742 25.745C45.4342 25.3203 45.7895 24.9953 46.2402 24.77C46.6908 24.536 47.2065 24.419 47.7872 24.419C48.3678 24.419 48.8835 24.536 49.3342 24.77C49.7848 24.9953 50.1358 25.3203 50.3872 25.745C50.6472 26.1697 50.7772 26.668 50.7772 27.24C50.7772 27.812 50.6472 28.3103 50.3872 28.735C50.1358 29.1597 49.7805 29.489 49.3212 29.723C48.8705 29.9483 48.3592 30.061 47.7872 30.061C47.2152 30.061 46.6995 29.9483 46.2402 29.723C45.7895 29.489 45.4342 29.1597 45.1742 28.735C44.9228 28.3103 44.7972 27.812 44.7972 27.24ZM45.8372 27.461C45.8372 27.9983 46.0148 28.4317 46.3702 28.761C46.7342 29.0817 47.2065 29.242 47.7872 29.242C48.3678 29.242 48.8358 29.0817 49.1912 28.761C49.5465 28.4317 49.7242 27.9983 49.7242 27.461V27.006C49.7242 26.4687 49.5465 26.0397 49.1912 25.719C48.8358 25.3983 48.3678 25.238 47.7872 25.238C47.2065 25.238 46.7342 25.3983 46.3702 25.719C46.0148 26.0397 45.8372 26.4687 45.8372 27.006V27.461ZM55.2232 35.105L54.5862 35.781L52.6622 33.896C52.6102 33.8353 52.5495 33.805 52.4802 33.805C52.4455 33.805 52.4065 33.818 52.3632 33.844C52.1638 34.1387 51.9082 34.442 51.5962 34.754C51.2842 35.0747 50.8682 35.4603 50.3482 35.911L48.3722 33.857C48.3115 33.7963 48.2508 33.766 48.1902 33.766C48.1555 33.766 48.1078 33.7877 48.0472 33.831C47.6658 34.403 47.0158 35.0833 46.0972 35.872L45.4732 35.209C46.0538 34.7237 46.5088 34.2903 46.8382 33.909C47.1675 33.5277 47.4015 33.1507 47.5402 32.778C47.6875 32.4053 47.7612 31.985 47.7612 31.517V31.101H48.6972V31.543C48.6972 32.2537 48.5628 32.8733 48.2942 33.402L48.3462 33.428L48.5152 33.298C48.5845 33.2373 48.6668 33.207 48.7622 33.207C48.8662 33.207 48.9572 33.246 49.0352 33.324L50.4132 34.702C51.0372 34.1387 51.4662 33.6317 51.7002 33.181C51.9342 32.7303 52.0512 32.18 52.0512 31.53V31.101H52.9872V31.582C52.9872 31.9633 52.9568 32.3013 52.8962 32.596C52.8355 32.8907 52.7358 33.1723 52.5972 33.441L52.6492 33.48L52.8182 33.337C52.9135 33.2677 53.0045 33.233 53.0912 33.233C53.1778 33.233 53.2645 33.2677 53.3512 33.337L55.2232 35.105ZM58.052 26.33C58.052 25.6453 58.377 25.095 59.027 24.679C59.6857 24.2543 60.665 24.042 61.965 24.042C63.265 24.042 64.24 24.2543 64.89 24.679C65.5487 25.095 65.878 25.6453 65.878 26.33C65.878 27.0147 65.5487 27.5693 64.89 27.994C64.24 28.41 63.265 28.618 61.965 28.618C60.665 28.618 59.6857 28.41 59.027 27.994C58.377 27.5693 58.052 27.0147 58.052 26.33ZM64.825 26.421V26.239C64.825 25.823 64.5867 25.4807 64.11 25.212C63.642 24.9433 62.927 24.809 61.965 24.809C61.003 24.809 60.2837 24.9433 59.807 25.212C59.339 25.4807 59.105 25.823 59.105 26.239V26.421C59.105 26.8283 59.3433 27.1663 59.82 27.435C60.2967 27.7037 61.0117 27.838 61.965 27.838C62.9183 27.838 63.6333 27.7037 64.11 27.435C64.5867 27.1663 64.825 26.8283 64.825 26.421ZM67.269 29.593V30.438H56.661V29.593H67.269ZM58.234 35.066V31.66H65.696V35.729H58.884C58.676 35.729 58.5157 35.6727 58.403 35.56C58.2903 35.4473 58.234 35.2827 58.234 35.066ZM64.721 32.466H59.209V34.91H64.721V32.466Z" fill="white"/>
<rect y="4" width="2" height="10" fill="white"/>
</svg>
