<svg width="238" height="40" viewBox="0 0 238 40" fill="none" xmlns="http://www.w3.org/2000/svg">
<path d="M21.243 7.578H18.76V6.746H21.243V4.003H22.231V12.57H21.243V7.578ZM15.926 8.072C15.8653 8.072 15.8133 8.098 15.77 8.15C15.5533 8.54867 15.2587 8.96033 14.886 9.385C14.5133 9.80967 14.015 10.3297 13.391 10.945L12.663 10.295C13.3997 9.60167 13.963 9.008 14.353 8.514C14.743 8.02 15.0247 7.53033 15.198 7.045C15.38 6.551 15.471 5.992 15.471 5.368V4.549H16.472V5.407C16.472 6.27367 16.3203 7.03633 16.017 7.695L16.082 7.747L16.29 7.565C16.3853 7.487 16.4763 7.448 16.563 7.448C16.6583 7.448 16.7493 7.49133 16.836 7.578L19.306 10.061L18.591 10.737L16.095 8.15C16.043 8.098 15.9867 8.072 15.926 8.072ZM22.465 14.715V15.534H15.653C15.445 15.534 15.2847 15.4777 15.172 15.365C15.0593 15.2523 15.003 15.0877 15.003 14.871V11.647H16.004V14.715H22.465ZM34.7578 4.003V11.075H33.8088V7.89H32.0538V10.958H31.1048V4.185H32.0538V7.084H33.8088V4.003H34.7578ZM30.4678 10.23C29.3758 10.4987 28.0065 10.633 26.3598 10.633H25.2938V4.744H29.7788V5.55H26.2168V7.253H29.6098V8.046H26.2168V9.853H26.6068C27.3262 9.853 28.0065 9.81833 28.6478 9.749C29.2978 9.67967 29.8612 9.58433 30.3378 9.463L30.4678 10.23ZM27.1138 11.764H34.7578V15.859H33.7828V12.596H27.1138V11.764ZM46.7126 12.674H45.7246V4.003H46.7126V12.674ZM44.8406 10.763C43.8526 10.919 42.674 11.036 41.3046 11.114C39.944 11.192 38.5486 11.231 37.1186 11.231L37.0276 10.412C38.2236 10.412 39.2853 10.3947 40.2126 10.36V8.722H38.0156V4.731H43.4626V5.524H38.9776V7.929H43.5796V8.722H41.1746V10.308C42.6133 10.2387 43.805 10.1303 44.7496 9.983L44.8406 10.763ZM46.9466 14.715V15.534H40.0436C39.8356 15.534 39.6753 15.4777 39.5626 15.365C39.45 15.2523 39.3936 15.0877 39.3936 14.871V12.128H40.3816V14.715H46.9466ZM64.9573 13.168V14H54.3493V13.168H59.1593V10.165H55.8833V4.77H63.4623V5.615H56.8713V9.32H63.5793V10.165H60.1473V13.168H64.9573ZM76.2751 4.003V15.287H75.3001V8.618H72.8951V7.786H75.3001V4.003H76.2751ZM70.6461 8.553C70.7501 8.553 70.8411 8.60067 70.9191 8.696L73.4671 11.946L72.7131 12.609L70.1651 9.255C70.1304 9.21167 70.0871 9.19 70.0351 9.19C69.9831 9.19 69.9398 9.21167 69.9051 9.255C69.6884 9.75767 69.3894 10.2733 69.0081 10.802C68.6268 11.3307 68.1068 11.9893 67.4481 12.778L66.6941 12.141C67.4481 11.283 68.0244 10.5507 68.4231 9.944C68.8304 9.32867 69.1208 8.71333 69.2941 8.098C69.4761 7.48267 69.5671 6.77633 69.5671 5.979V4.757H70.5551V5.966C70.5551 7.01467 70.4121 7.95067 70.1261 8.774L70.1781 8.813L70.3601 8.657C70.4554 8.58767 70.5508 8.553 70.6461 8.553ZM88.8539 4.003V15.287H87.9049V4.003H88.8539ZM85.3439 4.198H86.2669V14.975H85.3439V9.06H84.0959C84.0526 10.1867 83.8012 11.036 83.3419 11.608C82.8826 12.1713 82.2759 12.453 81.5219 12.453C80.7159 12.453 80.0789 12.141 79.6109 11.517C79.1429 10.8843 78.9089 9.944 78.9089 8.696C78.9089 7.448 79.1429 6.512 79.6109 5.888C80.0789 5.25533 80.7159 4.939 81.5219 4.939C82.2672 4.939 82.8652 5.21633 83.3159 5.771C83.7752 6.32567 84.0352 7.149 84.0959 8.241H85.3439V4.198ZM83.1079 8.072C83.1079 7.30933 82.9606 6.72867 82.6659 6.33C82.3799 5.93133 81.9986 5.732 81.5219 5.732C81.0366 5.732 80.6466 5.93133 80.3519 6.33C80.0659 6.72867 79.9229 7.30933 79.9229 8.072V9.333C79.9229 10.087 80.0659 10.6677 80.3519 11.075C80.6466 11.4737 81.0366 11.673 81.5219 11.673C81.9986 11.673 82.3799 11.4737 82.6659 11.075C82.9606 10.6677 83.1079 10.087 83.1079 9.333V8.072ZM107.151 7.812V8.644H105.435V12.674H104.46V4.003H105.435V7.812H107.151ZM101.639 5.602H96.8285V4.783H102.601V5.615C102.601 6.71567 102.462 7.838 102.185 8.982L101.249 8.839C101.5 7.903 101.63 6.889 101.639 5.797V5.602ZM103.563 10.529C102.601 10.685 101.452 10.8063 100.118 10.893C98.7829 10.971 97.4049 11.01 95.9835 11.01L95.8925 10.178C96.8112 10.178 97.7255 10.165 98.6355 10.139V7.604H99.5975V10.1C101.218 10.0307 102.51 9.918 103.472 9.762L103.563 10.529ZM99.1815 14.715H105.669V15.534H98.8435C98.6355 15.534 98.4752 15.4777 98.3625 15.365C98.2499 15.2523 98.1935 15.0877 98.1935 14.871V12.128H99.1815V14.715ZM119.404 7.864V8.696H117.597V12.7H116.609V4.003H117.597V7.864H119.404ZM113.632 5.186H110.161V4.354H113.632V5.186ZM111.812 11.348C111.275 11.348 110.803 11.257 110.395 11.075C109.988 10.893 109.672 10.6417 109.446 10.321C109.23 10.0003 109.121 9.63633 109.121 9.229C109.121 8.82167 109.217 8.46633 109.407 8.163C109.607 7.851 109.901 7.61267 110.291 7.448V7.383H108.263V6.564H115.309V7.383H113.333V7.448C113.723 7.61267 114.014 7.851 114.204 8.163C114.404 8.46633 114.503 8.82167 114.503 9.229C114.503 9.63633 114.391 10.0003 114.165 10.321C113.949 10.6417 113.637 10.893 113.229 11.075C112.822 11.257 112.35 11.348 111.812 11.348ZM111.708 10.516H111.929C112.415 10.516 112.809 10.386 113.112 10.126C113.424 9.85733 113.58 9.48467 113.58 9.008C113.58 8.53133 113.429 8.15867 113.125 7.89C112.822 7.62133 112.423 7.487 111.929 7.487H111.708C111.214 7.487 110.816 7.62133 110.512 7.89C110.209 8.15 110.057 8.52267 110.057 9.008C110.057 9.48467 110.209 9.85733 110.512 10.126C110.824 10.386 111.223 10.516 111.708 10.516ZM111.5 14.78H117.857V15.599H111.162C110.954 15.599 110.794 15.5427 110.681 15.43C110.569 15.3173 110.512 15.1527 110.512 14.936V12.336H111.5V14.78ZM136.427 13.168V14H125.819V13.168H130.629V10.581C129.832 10.529 129.164 10.3643 128.627 10.087C128.09 9.801 127.687 9.437 127.418 8.995C127.158 8.54433 127.028 8.046 127.028 7.5C127.028 6.91933 127.175 6.39933 127.47 5.94C127.773 5.472 128.233 5.10367 128.848 4.835C129.463 4.55767 130.222 4.419 131.123 4.419C132.024 4.419 132.783 4.55767 133.398 4.835C134.013 5.10367 134.468 5.472 134.763 5.94C135.066 6.39933 135.218 6.91933 135.218 7.5C135.218 8.046 135.084 8.54433 134.815 8.995C134.555 9.437 134.156 9.801 133.619 10.087C133.082 10.3643 132.414 10.529 131.617 10.581V13.168H136.427ZM131.123 9.788C132.137 9.788 132.895 9.58433 133.398 9.177C133.901 8.76967 134.152 8.25833 134.152 7.643V7.357C134.152 6.74167 133.901 6.23033 133.398 5.823C132.895 5.41567 132.137 5.212 131.123 5.212C130.109 5.212 129.351 5.41567 128.848 5.823C128.345 6.23033 128.094 6.74167 128.094 7.357V7.643C128.094 8.25833 128.345 8.76967 128.848 9.177C129.351 9.58433 130.109 9.788 131.123 9.788ZM147.147 7.734H139.698V4.263H140.673V6.941H147.147V7.734ZM148.668 8.956V9.788H138.06V8.956H148.668ZM140.66 15.014H147.407V15.82H140.361C140.153 15.82 139.992 15.7637 139.88 15.651C139.767 15.5383 139.711 15.3737 139.711 15.157V13.025H146.12V11.803H139.633V10.997H147.069V13.779H140.66V15.014ZM159.011 4.003H159.986V15.287H159.011V4.003ZM150.899 7.383C150.899 6.84567 151.033 6.37333 151.302 5.966C151.57 5.55 151.939 5.23367 152.407 5.017C152.875 4.79167 153.403 4.679 153.993 4.679C154.582 4.679 155.111 4.79167 155.579 5.017C156.047 5.23367 156.415 5.55 156.684 5.966C156.952 6.37333 157.087 6.84567 157.087 7.383C157.087 7.92033 156.952 8.39267 156.684 8.8C156.415 9.20733 156.047 9.52367 155.579 9.749C155.111 9.96567 154.582 10.074 153.993 10.074C153.403 10.074 152.875 9.96567 152.407 9.749C151.939 9.52367 151.57 9.20733 151.302 8.8C151.033 8.39267 150.899 7.92033 150.899 7.383ZM156.047 7.539V7.227C156.047 6.707 155.856 6.28667 155.475 5.966C155.093 5.64533 154.599 5.485 153.993 5.485C153.386 5.485 152.892 5.64533 152.511 5.966C152.129 6.28667 151.939 6.707 151.939 7.227V7.539C151.939 8.059 152.129 8.47933 152.511 8.8C152.892 9.12067 153.386 9.281 153.993 9.281C154.599 9.281 155.093 9.12067 155.475 8.8C155.856 8.47933 156.047 8.059 156.047 7.539ZM150.353 12.076C151.826 12.076 153.247 12.0413 154.617 11.972C155.986 11.9027 157.147 11.7943 158.101 11.647L158.205 12.44C157.225 12.596 156.047 12.7173 154.669 12.804C153.299 12.882 151.891 12.921 150.444 12.921L150.353 12.076ZM178.633 7.864V8.696H176.826V12.7H175.838V4.003H176.826V7.864H178.633ZM172.861 5.186H169.39V4.354H172.861V5.186ZM171.041 11.348C170.504 11.348 170.032 11.257 169.624 11.075C169.217 10.893 168.901 10.6417 168.675 10.321C168.459 10.0003 168.35 9.63633 168.35 9.229C168.35 8.82167 168.446 8.46633 168.636 8.163C168.836 7.851 169.13 7.61267 169.52 7.448V7.383H167.492V6.564H174.538V7.383H172.562V7.448C172.952 7.61267 173.243 7.851 173.433 8.163C173.633 8.46633 173.732 8.82167 173.732 9.229C173.732 9.63633 173.62 10.0003 173.394 10.321C173.178 10.6417 172.866 10.893 172.458 11.075C172.051 11.257 171.579 11.348 171.041 11.348ZM170.937 10.516H171.158C171.644 10.516 172.038 10.386 172.341 10.126C172.653 9.85733 172.809 9.48467 172.809 9.008C172.809 8.53133 172.658 8.15867 172.354 7.89C172.051 7.62133 171.652 7.487 171.158 7.487H170.937C170.443 7.487 170.045 7.62133 169.741 7.89C169.438 8.15 169.286 8.52267 169.286 9.008C169.286 9.48467 169.438 9.85733 169.741 10.126C170.053 10.386 170.452 10.516 170.937 10.516ZM170.729 14.78H177.086V15.599H170.391C170.183 15.599 170.023 15.5427 169.91 15.43C169.798 15.3173 169.741 15.1527 169.741 14.936V12.336H170.729V14.78ZM194.07 8.722H186.634V4.354H194.07V8.722ZM193.095 5.16H187.609V7.916H193.095V5.16ZM195.656 10.022V10.867H190.911V13.246H189.923V10.867H185.048V10.022H195.656ZM187.518 14.78H194.278V15.599H187.193C186.985 15.599 186.825 15.5427 186.712 15.43C186.599 15.3173 186.543 15.1527 186.543 14.936V12.167H187.518V14.78ZM208.248 6.915V7.747H206.441V10.789H205.453V4.003H206.441V6.915H208.248ZM198.069 10.386L197.341 9.762C198.069 9.19 198.632 8.696 199.031 8.28C199.429 7.85533 199.715 7.43933 199.889 7.032C200.071 6.62467 200.162 6.161 200.162 5.641V5.524H197.679V4.705H203.62V5.524H201.15V5.693C201.15 6.40367 200.998 7.04067 200.695 7.604L200.773 7.656L200.968 7.5C201.063 7.43067 201.154 7.396 201.241 7.396C201.345 7.396 201.449 7.43933 201.553 7.526L203.984 9.541L203.256 10.178L200.786 8.072C200.725 8.02 200.66 7.994 200.591 7.994C200.539 7.994 200.482 8.01567 200.422 8.059C200.179 8.397 199.871 8.748 199.499 9.112C199.126 9.476 198.649 9.90067 198.069 10.386ZM206.532 13.48C206.532 13.948 206.397 14.364 206.129 14.728C205.86 15.1007 205.457 15.391 204.92 15.599C204.382 15.8157 203.724 15.924 202.944 15.924C202.172 15.924 201.514 15.8157 200.968 15.599C200.43 15.391 200.023 15.1007 199.746 14.728C199.477 14.364 199.343 13.948 199.343 13.48C199.343 13.012 199.477 12.596 199.746 12.232C200.023 11.8593 200.43 11.569 200.968 11.361C201.514 11.1443 202.172 11.036 202.944 11.036C203.724 11.036 204.382 11.1443 204.92 11.361C205.457 11.569 205.86 11.8593 206.129 12.232C206.397 12.596 206.532 13.012 206.532 13.48ZM205.505 13.376C205.505 12.934 205.292 12.5657 204.868 12.271C204.443 11.9677 203.802 11.816 202.944 11.816C202.086 11.816 201.444 11.9677 201.02 12.271C200.595 12.5657 200.383 12.934 200.383 13.376V13.597C200.383 14.0303 200.595 14.3943 201.02 14.689C201.444 14.9923 202.086 15.144 202.944 15.144C203.802 15.144 204.443 14.9923 204.868 14.689C205.292 14.3943 205.505 14.0303 205.505 13.597V13.376ZM220.476 9.476H218.708V15.287H217.733V4.003H218.708V8.644H220.476V9.476ZM214.964 5.849H210.076V5.03H215.926V6.031C215.926 7.409 215.77 8.78267 215.458 10.152L214.509 10.009C214.812 8.75233 214.964 7.46533 214.964 6.148V5.849ZM216.797 11.582L216.888 12.375C215.934 12.531 214.795 12.648 213.469 12.726C212.151 12.804 210.795 12.843 209.4 12.843L209.309 12.011C210.175 12.011 211.038 11.998 211.896 11.972V8.449H212.858V11.933C214.426 11.8637 215.739 11.7467 216.797 11.582ZM235.587 4.003H236.575V15.287H235.587V4.003ZM227.41 12.18C228.606 11.5647 229.521 11.0013 230.153 10.49C230.786 9.97867 231.228 9.437 231.479 8.865C231.739 8.293 231.869 7.58667 231.869 6.746V5.771H227.735V4.926H232.857V6.733C232.857 7.695 232.71 8.50967 232.415 9.177C232.129 9.84433 231.64 10.4683 230.946 11.049C230.262 11.621 229.278 12.2493 227.995 12.934L227.41 12.18ZM23.102 30.347V31.192H12.494V30.347H17.304V29.034H14.067V24.25H15.042V25.823H20.567V24.25H21.529V29.034H18.292V30.347H23.102ZM15.042 28.215H20.567V26.642H15.042V28.215ZM15.003 34.741H21.737V35.56H14.665C14.457 35.56 14.2967 35.5037 14.184 35.391C14.0713 35.2783 14.015 35.1137 14.015 34.897V32.219H15.003V34.741ZM37.2061 26.798V24.003H38.1941V30.789H37.2061V27.604H34.8401V26.798H37.2061ZM29.4841 30.399L28.7431 29.775C29.4711 29.203 30.0344 28.709 30.4331 28.293C30.8318 27.8683 31.1178 27.4523 31.2911 27.045C31.4731 26.629 31.5641 26.1653 31.5641 25.654V25.524H29.0811V24.692H35.0091V25.524H32.5521V25.693C32.5521 26.4297 32.4004 27.0753 32.0971 27.63L32.1751 27.669L32.3831 27.513C32.4784 27.4437 32.5738 27.409 32.6691 27.409C32.7818 27.409 32.8814 27.448 32.9681 27.526L35.3861 29.554L34.6581 30.204L32.2011 28.072C32.1318 28.02 32.0668 27.994 32.0061 27.994C31.9368 27.994 31.8761 28.02 31.8241 28.072C31.5901 28.41 31.2911 28.7567 30.9271 29.112C30.5631 29.4673 30.0821 29.8963 29.4841 30.399ZM38.2591 33.48C38.2591 33.948 38.1204 34.364 37.8431 34.728C37.5744 35.1007 37.1628 35.391 36.6081 35.599C36.0621 35.8157 35.3948 35.924 34.6061 35.924C33.8088 35.924 33.1328 35.8157 32.5781 35.599C32.0321 35.391 31.6204 35.1007 31.3431 34.728C31.0744 34.364 30.9401 33.948 30.9401 33.48C30.9401 33.012 31.0744 32.596 31.3431 32.232C31.6204 31.8593 32.0321 31.569 32.5781 31.361C33.1328 31.1443 33.8088 31.036 34.6061 31.036C35.3948 31.036 36.0621 31.1443 36.6081 31.361C37.1628 31.569 37.5744 31.8593 37.8431 32.232C38.1204 32.596 38.2591 33.012 38.2591 33.48ZM37.2191 33.376C37.2191 32.934 37.0024 32.5657 36.5691 32.271C36.1358 31.9677 35.4814 31.816 34.6061 31.816C33.7221 31.816 33.0591 31.9677 32.6171 32.271C32.1838 32.5657 31.9671 32.934 31.9671 33.376V33.597C31.9671 34.0303 32.1838 34.3943 32.6171 34.689C33.0591 34.9923 33.7221 35.144 34.6061 35.144C35.4814 35.144 36.1358 34.9923 36.5691 34.689C37.0024 34.3943 37.2191 34.0303 37.2191 33.597V33.376ZM51.3059 33.168V34H40.6979V33.168H45.5079V30.516H42.1539V24.601H43.1419V26.746H48.8489V24.601H49.8239V30.516H46.4959V33.168H51.3059ZM43.1419 29.697H48.8489V27.565H43.1419V29.697ZM60.8817 26.031V24.913H54.5377V24.185H61.8307V26.746H55.5647V27.851H62.1557V28.592H54.6027V26.031H60.8817ZM63.5467 29.567V30.334H52.9387V29.567H63.5467ZM54.5637 35.196V33.233H61.0377V32.141H54.4857V31.374H61.9607V33.961H55.4867V35.079H62.2987V35.859H55.2137C55.0057 35.859 54.8454 35.8027 54.7327 35.69C54.6201 35.5773 54.5637 35.4127 54.5637 35.196ZM78.9248 24.003V35.287H77.9758V24.003H78.9248ZM75.3888 24.198H76.3118V34.975H75.3888V28.761H73.5818V27.942H75.3888V24.198ZM72.2298 28.904C72.3338 28.904 72.4335 28.9647 72.5288 29.086L74.5958 31.985L73.8938 32.583L71.8138 29.593C71.7705 29.541 71.7271 29.515 71.6838 29.515C71.6405 29.515 71.6058 29.541 71.5798 29.593C71.3978 30.0437 71.1465 30.5117 70.8258 30.997C70.5138 31.4737 70.0891 32.063 69.5518 32.765L68.8628 32.18C69.4955 31.374 69.9808 30.6807 70.3188 30.1C70.6568 29.5107 70.8995 28.93 71.0468 28.358C71.1941 27.7773 71.2678 27.1187 71.2678 26.382V26.005H69.1358V25.173H74.2968V26.005H72.2038V26.382C72.2038 27.3873 72.0651 28.28 71.7878 29.06L71.8528 29.099L71.9828 28.995C72.0781 28.9343 72.1605 28.904 72.2298 28.904ZM89.2026 25.199H82.5596V24.367H90.1646V25.004C90.1646 26.1393 90.0303 27.3007 89.7616 28.488L88.8256 28.358C89.0683 27.3353 89.194 26.2823 89.2026 25.199ZM91.7506 29.398V30.256H81.1426V29.398H85.4976V27.149H86.4726V29.398H91.7506ZM90.2946 33.662C90.2946 34.1127 90.1473 34.5113 89.8526 34.858C89.5666 35.2133 89.1333 35.4907 88.5526 35.69C87.9806 35.8893 87.2786 35.989 86.4466 35.989C85.6146 35.989 84.9083 35.8893 84.3276 35.69C83.7556 35.4907 83.3223 35.2133 83.0276 34.858C82.7416 34.5113 82.5986 34.1127 82.5986 33.662C82.5986 33.2113 82.7416 32.8127 83.0276 32.466C83.3223 32.1193 83.7556 31.8463 84.3276 31.647C84.9083 31.4477 85.6146 31.348 86.4466 31.348C87.2786 31.348 87.9806 31.4477 88.5526 31.647C89.1333 31.8463 89.5666 32.1193 89.8526 32.466C90.1473 32.8127 90.2946 33.2113 90.2946 33.662ZM89.2546 33.571C89.2546 33.1637 89.0206 32.8213 88.5526 32.544C88.0933 32.2667 87.3913 32.128 86.4466 32.128C85.5106 32.128 84.8043 32.2667 84.3276 32.544C83.8596 32.8213 83.6256 33.1637 83.6256 33.571V33.766C83.6256 34.1647 83.8596 34.5027 84.3276 34.78C84.8043 35.0573 85.5106 35.196 86.4466 35.196C87.3913 35.196 88.0933 35.0573 88.5526 34.78C89.0206 34.5027 89.2546 34.1647 89.2546 33.766V33.571Z" fill="white"/>
<rect y="4" width="2" height="10" fill="white"/>
</svg>
