<svg width="86" height="61" viewBox="0 0 86 61" fill="none" xmlns="http://www.w3.org/2000/svg">
<path d="M0.978693 13V12.169L4.09943 8.75284C4.46567 8.35275 4.76728 8.00497 5.00426 7.70952C5.24124 7.41098 5.41667 7.13092 5.53054 6.86932C5.64749 6.60464 5.70597 6.32765 5.70597 6.03835C5.70597 5.70597 5.62595 5.41821 5.46591 5.17507C5.30895 4.93194 5.09351 4.7442 4.8196 4.61186C4.54569 4.47952 4.23793 4.41335 3.89631 4.41335C3.53314 4.41335 3.21615 4.48875 2.94531 4.63956C2.67756 4.78729 2.46982 4.99503 2.32209 5.26278C2.17744 5.53054 2.10511 5.84446 2.10511 6.20454H1.01562C1.01562 5.65057 1.14335 5.1643 1.39879 4.74574C1.65424 4.32718 2.00201 4.00095 2.44212 3.76704C2.8853 3.53314 3.38234 3.41619 3.93324 3.41619C4.48722 3.41619 4.9781 3.53314 5.4059 3.76704C5.83369 4.00095 6.16915 4.31641 6.41229 4.71342C6.65542 5.11044 6.77699 5.55208 6.77699 6.03835C6.77699 6.38613 6.7139 6.72621 6.58771 7.05859C6.46461 7.3879 6.24917 7.75568 5.94141 8.16193C5.63672 8.5651 5.21354 9.05753 4.67188 9.6392L2.5483 11.9105V11.9844H6.94318V13H0.978693ZM9.49979 13V12.169L12.6205 8.75284C12.9868 8.35275 13.2884 8.00497 13.5254 7.70952C13.7623 7.41098 13.9378 7.13092 14.0516 6.86932C14.1686 6.60464 14.2271 6.32765 14.2271 6.03835C14.2271 5.70597 14.147 5.41821 13.987 5.17507C13.83 4.93194 13.6146 4.7442 13.3407 4.61186C13.0668 4.47952 12.759 4.41335 12.4174 4.41335C12.0542 4.41335 11.7372 4.48875 11.4664 4.63956C11.1987 4.78729 10.9909 4.99503 10.8432 5.26278C10.6985 5.53054 10.6262 5.84446 10.6262 6.20454H9.53672C9.53672 5.65057 9.66444 5.1643 9.91989 4.74574C10.1753 4.32718 10.5231 4.00095 10.9632 3.76704C11.4064 3.53314 11.9034 3.41619 12.4543 3.41619C13.0083 3.41619 13.4992 3.53314 13.927 3.76704C14.3548 4.00095 14.6902 4.31641 14.9334 4.71342C15.1765 5.11044 15.2981 5.55208 15.2981 6.03835C15.2981 6.38613 15.235 6.72621 15.1088 7.05859C14.9857 7.3879 14.7703 7.75568 14.4625 8.16193C14.1578 8.5651 13.7346 9.05753 13.193 9.6392L11.0694 11.9105V11.9844H15.4643V13H9.49979ZM18.8334 13.0739C18.6056 13.0739 18.4102 12.9923 18.2471 12.8292C18.084 12.6661 18.0024 12.4706 18.0024 12.2429C18.0024 12.0152 18.084 11.8197 18.2471 11.6566C18.4102 11.4935 18.6056 11.4119 18.8334 11.4119C19.0611 11.4119 19.2566 11.4935 19.4197 11.6566C19.5828 11.8197 19.6643 12.0152 19.6643 12.2429C19.6643 12.3937 19.6259 12.5322 19.5489 12.6584C19.4751 12.7846 19.375 12.8861 19.2489 12.9631C19.1258 13.0369 18.9873 13.0739 18.8334 13.0739ZM25.0047 13.1293C24.3091 13.1293 23.7167 12.94 23.2273 12.5614C22.738 12.1798 22.3641 11.6274 22.1055 10.9041C21.847 10.1778 21.7178 9.30066 21.7178 8.27273C21.7178 7.25095 21.847 6.37843 22.1055 5.65518C22.3671 4.92886 22.7426 4.37488 23.232 3.99325C23.7244 3.60855 24.3153 3.41619 25.0047 3.41619C25.6941 3.41619 26.2835 3.60855 26.7728 3.99325C27.2652 4.37488 27.6407 4.92886 27.8992 5.65518C28.1608 6.37843 28.2916 7.25095 28.2916 8.27273C28.2916 9.30066 28.1624 10.1778 27.9038 10.9041C27.6453 11.6274 27.2714 12.1798 26.782 12.5614C26.2927 12.94 25.7002 13.1293 25.0047 13.1293ZM25.0047 12.1136C25.6941 12.1136 26.2296 11.7812 26.6112 11.1165C26.9929 10.4517 27.1837 9.50379 27.1837 8.27273C27.1837 7.45407 27.096 6.75698 26.9205 6.18146C26.7482 5.60594 26.4989 5.16738 26.1727 4.86577C25.8495 4.56416 25.4602 4.41335 25.0047 4.41335C24.3214 4.41335 23.7875 4.75035 23.4028 5.42436C23.0181 6.09529 22.8257 7.04474 22.8257 8.27273C22.8257 9.09138 22.9119 9.78693 23.0842 10.3594C23.2566 10.9318 23.5043 11.3673 23.8275 11.6658C24.1537 11.9644 24.5461 12.1136 25.0047 12.1136ZM30.4743 11.0611V10.1193L34.6291 3.54545H35.3124V5.00426H34.8507L31.7115 9.97159V10.0455H37.3067V11.0611H30.4743ZM34.9246 13V10.7749V10.3363V3.54545H36.0141V13H34.9246ZM40.0549 13.0739C39.8271 13.0739 39.6317 12.9923 39.4686 12.8292C39.3055 12.6661 39.2239 12.4706 39.2239 12.2429C39.2239 12.0152 39.3055 11.8197 39.4686 11.6566C39.6317 11.4935 39.8271 11.4119 40.0549 11.4119C40.2826 11.4119 40.478 11.4935 40.6412 11.6566C40.8043 11.8197 40.8858 12.0152 40.8858 12.2429C40.8858 12.3937 40.8474 12.5322 40.7704 12.6584C40.6966 12.7846 40.5965 12.8861 40.4703 12.9631C40.3472 13.0369 40.2087 13.0739 40.0549 13.0739ZM45.6664 3.54545V13H44.5215V4.74574H44.4661L42.1579 6.27841V5.11506L44.5215 3.54545H45.6664ZM48.8139 11.0611V10.1193L52.9688 3.54545H53.652V5.00426H53.1904L50.0512 9.97159V10.0455H55.6463V11.0611H48.8139ZM53.2642 13V10.7749V10.3363V3.54545H54.3537V13H53.2642ZM58.3945 13.0739C58.1668 13.0739 57.9713 12.9923 57.8082 12.8292C57.6451 12.6661 57.5635 12.4706 57.5635 12.2429C57.5635 12.0152 57.6451 11.8197 57.8082 11.6566C57.9713 11.4935 58.1668 11.4119 58.3945 11.4119C58.6223 11.4119 58.8177 11.4935 58.9808 11.6566C59.1439 11.8197 59.2255 12.0152 59.2255 12.2429C59.2255 12.3937 59.187 12.5322 59.1101 12.6584C59.0362 12.7846 58.9362 12.8861 58.81 12.9631C58.6869 13.0369 58.5484 13.0739 58.3945 13.0739ZM5.05966 24.4389V25.4545H0.923295V24.4389H5.05966ZM7.16385 29V28.169L10.2846 24.7528C10.6508 24.3527 10.9524 24.005 11.1894 23.7095C11.4264 23.411 11.6018 23.1309 11.7157 22.8693C11.8326 22.6046 11.8911 22.3277 11.8911 22.0384C11.8911 21.706 11.8111 21.4182 11.6511 21.1751C11.4941 20.9319 11.2787 20.7442 11.0048 20.6119C10.7308 20.4795 10.4231 20.4134 10.0815 20.4134C9.7183 20.4134 9.4013 20.4888 9.13047 20.6396C8.86271 20.7873 8.65497 20.995 8.50724 21.2628C8.36259 21.5305 8.29027 21.8445 8.29027 22.2045H7.20078C7.20078 21.6506 7.3285 21.1643 7.58395 20.7457C7.83939 20.3272 8.18717 20.0009 8.62727 19.767C9.07045 19.5331 9.5675 19.4162 10.1184 19.4162C10.6724 19.4162 11.1633 19.5331 11.5911 19.767C12.0188 20.0009 12.3543 20.3164 12.5974 20.7134C12.8406 21.1104 12.9621 21.5521 12.9621 22.0384C12.9621 22.3861 12.8991 22.7262 12.7729 23.0586C12.6498 23.3879 12.4343 23.7557 12.1266 24.1619C11.8219 24.5651 11.3987 25.0575 10.857 25.6392L8.73345 27.9105V27.9844H13.1283V29H7.16385ZM15.6849 29V28.169L18.8057 24.7528C19.1719 24.3527 19.4735 24.005 19.7105 23.7095C19.9475 23.411 20.1229 23.1309 20.2368 22.8693C20.3537 22.6046 20.4122 22.3277 20.4122 22.0384C20.4122 21.706 20.3322 21.4182 20.1722 21.1751C20.0152 20.9319 19.7998 20.7442 19.5259 20.6119C19.2519 20.4795 18.9442 20.4134 18.6026 20.4134C18.2394 20.4134 17.9224 20.4888 17.6516 20.6396C17.3838 20.7873 17.1761 20.995 17.0283 21.2628C16.8837 21.5305 16.8114 21.8445 16.8114 22.2045H15.7219C15.7219 21.6506 15.8496 21.1643 16.105 20.7457C16.3605 20.3272 16.7083 20.0009 17.1484 19.767C17.5915 19.5331 18.0886 19.4162 18.6395 19.4162C19.1935 19.4162 19.6844 19.5331 20.1121 19.767C20.5399 20.0009 20.8754 20.3164 21.1185 20.7134C21.3617 21.1104 21.4832 21.5521 21.4832 22.0384C21.4832 22.3861 21.4201 22.7262 21.294 23.0586C21.1709 23.3879 20.9554 23.7557 20.6477 24.1619C20.343 24.5651 19.9198 25.0575 19.3781 25.6392L17.2545 27.9105V27.9844H21.6494V29H15.6849ZM25.0185 29.0739C24.7908 29.0739 24.5954 28.9923 24.4322 28.8292C24.2691 28.6661 24.1876 28.4706 24.1876 28.2429C24.1876 28.0152 24.2691 27.8197 24.4322 27.6566C24.5954 27.4935 24.7908 27.4119 25.0185 27.4119C25.2463 27.4119 25.4417 27.4935 25.6048 27.6566C25.7679 27.8197 25.8495 28.0152 25.8495 28.2429C25.8495 28.3937 25.811 28.5322 25.7341 28.6584C25.6602 28.7846 25.5602 28.8861 25.434 28.9631C25.3109 29.0369 25.1724 29.0739 25.0185 29.0739ZM31.1898 29.1293C30.4943 29.1293 29.9018 28.94 29.4125 28.5614C28.9232 28.1798 28.5492 27.6274 28.2907 26.9041C28.0322 26.1778 27.9029 25.3007 27.9029 24.2727C27.9029 23.2509 28.0322 22.3784 28.2907 21.6552C28.5523 20.9289 28.9278 20.3749 29.4171 19.9933C29.9095 19.6085 30.5005 19.4162 31.1898 19.4162C31.8792 19.4162 32.4686 19.6085 32.958 19.9933C33.4504 20.3749 33.8259 20.9289 34.0844 21.6552C34.346 22.3784 34.4768 23.2509 34.4768 24.2727C34.4768 25.3007 34.3475 26.1778 34.089 26.9041C33.8305 27.6274 33.4565 28.1798 32.9672 28.5614C32.4778 28.94 31.8854 29.1293 31.1898 29.1293ZM31.1898 28.1136C31.8792 28.1136 32.4147 27.7812 32.7964 27.1165C33.178 26.4517 33.3688 25.5038 33.3688 24.2727C33.3688 23.4541 33.2811 22.757 33.1057 22.1815C32.9333 21.6059 32.684 21.1674 32.3578 20.8658C32.0347 20.5642 31.6453 20.4134 31.1898 20.4134C30.5066 20.4134 29.9726 20.7504 29.5879 21.4244C29.2032 22.0953 29.0109 23.0447 29.0109 24.2727C29.0109 25.0914 29.097 25.7869 29.2694 26.3594C29.4417 26.9318 29.6895 27.3673 30.0126 27.6658C30.3389 27.9644 30.7313 28.1136 31.1898 28.1136ZM36.6594 27.0611V26.1193L40.8143 19.5455H41.4975V21.0043H41.0359L37.8967 25.9716V26.0455H43.4918V27.0611H36.6594ZM41.1097 29V26.7749V26.3363V19.5455H42.1992V29H41.1097ZM46.24 29.0739C46.0123 29.0739 45.8168 28.9923 45.6537 28.8292C45.4906 28.6661 45.4091 28.4706 45.4091 28.2429C45.4091 28.0152 45.4906 27.8197 45.6537 27.6566C45.8168 27.4935 46.0123 27.4119 46.24 27.4119C46.4678 27.4119 46.6632 27.4935 46.8263 27.6566C46.9894 27.8197 47.071 28.0152 47.071 28.2429C47.071 28.3937 47.0325 28.5322 46.9556 28.6584C46.8817 28.7846 46.7817 28.8861 46.6555 28.9631C46.5324 29.0369 46.3939 29.0739 46.24 29.0739ZM51.8516 19.5455V29H50.7067V20.7457H50.6513L48.3431 22.2784V21.1151L50.7067 19.5455H51.8516ZM58.3599 29.1293C57.9721 29.1231 57.5843 29.0492 57.1965 28.9077C56.8088 28.7661 56.4548 28.5276 56.1347 28.1921C55.8147 27.8536 55.5577 27.3965 55.3638 26.821C55.1699 26.2424 55.073 25.5161 55.073 24.642C55.073 23.8049 55.1514 23.0632 55.3084 22.4169C55.4654 21.7675 55.6931 21.2212 55.9916 20.7781C56.2902 20.3318 56.6503 19.9933 57.0719 19.7624C57.4966 19.5316 57.9752 19.4162 58.5076 19.4162C59.037 19.4162 59.5079 19.5224 59.9203 19.7347C60.3357 19.944 60.6743 20.2364 60.9359 20.6119C61.1975 20.9873 61.3668 21.4197 61.4437 21.9091H60.3173C60.2126 21.4844 60.0095 21.132 59.7079 20.8519C59.4063 20.5719 59.0062 20.4318 58.5076 20.4318C57.7751 20.4318 57.1981 20.7504 56.7764 21.3874C56.3579 22.0245 56.1471 22.9186 56.144 24.0696H56.2178C56.3902 23.808 56.5949 23.5849 56.8318 23.4002C57.0719 23.2125 57.3366 23.0678 57.6259 22.9663C57.9152 22.8647 58.2214 22.8139 58.5445 22.8139C59.0862 22.8139 59.5817 22.9493 60.0311 23.2202C60.4804 23.4879 60.8405 23.8588 61.1113 24.3327C61.3821 24.8036 61.5176 25.3438 61.5176 25.9531C61.5176 26.5379 61.3868 27.0734 61.1252 27.5597C60.8636 28.0429 60.4958 28.4276 60.0218 28.7138C59.5509 28.9969 58.997 29.1354 58.3599 29.1293ZM58.3599 28.1136C58.7477 28.1136 59.0954 28.0167 59.4032 27.8228C59.7141 27.6289 59.9587 27.3688 60.1372 27.0426C60.3188 26.7164 60.4096 26.3532 60.4096 25.9531C60.4096 25.5623 60.3219 25.2068 60.1465 24.8867C59.9741 24.5636 59.7356 24.3066 59.4309 24.1158C59.1293 23.925 58.7846 23.8295 58.3968 23.8295C58.1044 23.8295 57.8321 23.888 57.5797 24.005C57.3273 24.1188 57.1057 24.2758 56.9149 24.4759C56.7272 24.6759 56.5795 24.9052 56.4718 25.1637C56.364 25.4192 56.3102 25.6884 56.3102 25.9716C56.3102 26.3471 56.3979 26.6979 56.5733 27.0241C56.7518 27.3504 56.995 27.6135 57.3027 27.8136C57.6136 28.0136 57.966 28.1136 58.3599 28.1136ZM64.3512 29.0739C64.1234 29.0739 63.928 28.9923 63.7649 28.8292C63.6017 28.6661 63.5202 28.4706 63.5202 28.2429C63.5202 28.0152 63.6017 27.8197 63.7649 27.6566C63.928 27.4935 64.1234 27.4119 64.3512 27.4119C64.5789 27.4119 64.7743 27.4935 64.9374 27.6566C65.1006 27.8197 65.1821 28.0152 65.1821 28.2429C65.1821 28.3937 65.1436 28.5322 65.0667 28.6584C64.9928 28.7846 64.8928 28.8861 64.7666 28.9631C64.6435 29.0369 64.505 29.0739 64.3512 29.0739Z" fill="white"/>
<path d="M11.475 45.265H1.905V44.29H11.475V45.265ZM11.595 51.025H1.77V50.065H4.155L3.645 46.525L4.8 46.42L5.22 50.065H8.145L8.565 46.42L9.72 46.525L9.21 50.065H11.595V51.025ZM12.81 54.025V55H0.57V54.025H12.81ZM27.234 54.04V55H14.994V54.04H20.544V51.475H16.794V47.41H24.294V45.205H16.719V44.26H25.434V48.325H17.934V50.53H25.824V51.475H21.684V54.04H27.234ZM41.658 54.04V55H29.418V54.04H34.968V51.49H31.173V44.275H39.963V45.22H32.313V47.425H39.753V48.34H32.328V50.53H40.218V51.49H36.108V54.04H41.658ZM56.4721 49.555H54.3121V56.515H53.1721V43.495H54.3121V48.595H56.4721V49.555ZM51.6871 51.91L51.8371 52.825C50.3171 53.125 48.3871 53.275 46.0471 53.275H44.4571V44.455H50.4871V45.4H45.5821V48.295H50.2921V49.225H45.5821V52.345H46.0771C48.2671 52.345 50.1371 52.2 51.6871 51.91ZM68.2861 43.465H69.4261V56.485H68.2861V43.465ZM58.6561 48.73C58.6561 47.27 58.9761 46.165 59.6161 45.415C60.2661 44.665 61.1211 44.29 62.1811 44.29C63.2311 44.29 64.0761 44.665 64.7161 45.415C65.3661 46.165 65.6911 47.27 65.6911 48.73C65.6911 49.71 65.5411 50.535 65.2411 51.205C64.9411 51.865 64.5261 52.36 63.9961 52.69C63.4661 53.01 62.8611 53.17 62.1811 53.17C61.1211 53.17 60.2661 52.795 59.6161 52.045C58.9761 51.295 58.6561 50.19 58.6561 48.73ZM64.4761 49.315V48.145C64.4761 47.215 64.2611 46.5 63.8311 46C63.4111 45.5 62.8611 45.25 62.1811 45.25C61.4911 45.25 60.9311 45.5 60.5011 46C60.0811 46.49 59.8711 47.205 59.8711 48.145V49.315C59.8711 50.255 60.0811 50.975 60.5011 51.475C60.9311 51.965 61.4911 52.21 62.1811 52.21C62.8611 52.21 63.4111 51.96 63.8311 51.46C64.2611 50.96 64.4761 50.245 64.4761 49.315ZM82.7701 43.465H83.9101V51.4H82.7701V43.465ZM73.2001 44.275H80.5501V45.22H73.2001V44.275ZM72.8101 49.81C73.6801 49.81 74.3301 49.805 74.7601 49.795L74.3851 46.21L75.4651 46.12L75.7651 49.78C76.4251 49.76 76.9201 49.74 77.2501 49.72L77.8951 49.69L78.2701 46.09L79.3651 46.195L78.9301 49.645C79.7001 49.595 80.4501 49.525 81.1801 49.435L81.3001 50.32C80.2701 50.46 79.0101 50.565 77.5201 50.635C76.0301 50.705 74.4951 50.74 72.9151 50.74L72.8101 49.81ZM75.5551 54.49C75.5551 53.96 75.7101 53.49 76.0201 53.08C76.3401 52.67 76.8151 52.345 77.4451 52.105C78.0851 51.865 78.8651 51.745 79.7851 51.745C80.6951 51.745 81.4651 51.865 82.0951 52.105C82.7351 52.345 83.2101 52.67 83.5201 53.08C83.8401 53.49 84.0001 53.96 84.0001 54.49C84.0001 55.03 83.8401 55.505 83.5201 55.915C83.2101 56.335 82.7351 56.665 82.0951 56.905C81.4651 57.145 80.6951 57.265 79.7851 57.265C78.8651 57.265 78.0851 57.145 77.4451 56.905C76.8151 56.665 76.3401 56.335 76.0201 55.915C75.7101 55.505 75.5551 55.03 75.5551 54.49ZM82.7851 54.625V54.385C82.7851 53.905 82.5351 53.5 82.0351 53.17C81.5351 52.83 80.7851 52.66 79.7851 52.66C78.7751 52.66 78.0151 52.83 77.5051 53.17C77.0051 53.5 76.7551 53.905 76.7551 54.385V54.625C76.7551 54.925 76.8601 55.205 77.0701 55.465C77.2901 55.735 77.6251 55.95 78.0751 56.11C78.5351 56.27 79.1051 56.35 79.7851 56.35C80.4651 56.35 81.0301 56.27 81.4801 56.11C81.9301 55.95 82.2601 55.735 82.4701 55.465C82.6801 55.205 82.7851 54.925 82.7851 54.625Z" fill="white"/>
</svg>
