<svg width="238" height="60" viewBox="0 0 238 60" fill="none" xmlns="http://www.w3.org/2000/svg">
<path d="M23.102 13.168V14H12.494V13.168H17.304V10.945H14.054V7.422H20.554V5.511H13.989V4.692H21.542V8.215H15.042V10.126H21.88V10.945H18.292V13.168H23.102ZM32.8728 5.784H26.0738V4.939H33.8478V5.901C33.8478 7.96367 33.6528 9.87467 33.2628 11.634L32.3138 11.478C32.6865 9.72733 32.8728 7.86833 32.8728 5.901V5.784ZM35.3428 13.155V14H24.7348V13.155H35.3428ZM46.7126 4.003V12.57H45.7116V4.003H46.7126ZM37.3526 7.513C37.3526 6.90633 37.4783 6.37767 37.7296 5.927C37.9896 5.47633 38.345 5.134 38.7956 4.9C39.2463 4.65733 39.762 4.536 40.3426 4.536C40.9146 4.536 41.426 4.65733 41.8766 4.9C42.336 5.134 42.6913 5.47633 42.9426 5.927C43.2026 6.37767 43.3326 6.90633 43.3326 7.513C43.3326 8.111 43.2026 8.63533 42.9426 9.086C42.6913 9.53667 42.336 9.88333 41.8766 10.126C41.426 10.36 40.9146 10.477 40.3426 10.477C39.762 10.477 39.2463 10.36 38.7956 10.126C38.345 9.88333 37.9896 9.541 37.7296 9.099C37.4783 8.64833 37.3526 8.11967 37.3526 7.513ZM42.2796 7.786V7.24C42.2796 6.668 42.0976 6.213 41.7336 5.875C41.3783 5.52833 40.9146 5.355 40.3426 5.355C39.762 5.355 39.2896 5.52833 38.9256 5.875C38.5703 6.22167 38.3926 6.67667 38.3926 7.24V7.786C38.3926 8.34933 38.5746 8.80433 38.9386 9.151C39.3026 9.489 39.7706 9.658 40.3426 9.658C40.9146 9.658 41.3783 9.489 41.7336 9.151C42.0976 8.80433 42.2796 8.34933 42.2796 7.786ZM39.4846 14.871V11.634H40.4856V14.715H46.9466V15.534H40.1346C39.9266 15.534 39.7663 15.4777 39.6536 15.365C39.541 15.2523 39.4846 15.0877 39.4846 14.871ZM50.6205 6.083C50.6205 5.45033 50.9455 4.94767 51.5955 4.575C52.2455 4.19367 53.2205 4.003 54.5205 4.003C55.8205 4.003 56.7955 4.19367 57.4455 4.575C58.0955 4.94767 58.4205 5.45033 58.4205 6.083C58.4205 6.71567 58.0955 7.22267 57.4455 7.604C56.7955 7.98533 55.8205 8.176 54.5205 8.176C53.2205 8.176 52.2455 7.98533 51.5955 7.604C50.9455 7.22267 50.6205 6.71567 50.6205 6.083ZM57.3675 6.148V6.005C57.3675 5.63233 57.1291 5.329 56.6525 5.095C56.1845 4.85233 55.4738 4.731 54.5205 4.731C53.5671 4.731 52.8521 4.85233 52.3755 5.095C51.9075 5.329 51.6735 5.63233 51.6735 6.005V6.148C51.6735 6.52067 51.9075 6.82833 52.3755 7.071C52.8521 7.305 53.5671 7.422 54.5205 7.422C55.4738 7.422 56.1845 7.305 56.6525 7.071C57.1291 6.82833 57.3675 6.52067 57.3675 6.148ZM59.8245 9.073V9.905H49.2165V9.073H59.8245ZM50.8675 15.157V13.025H57.2765V11.803H50.7895V10.997H58.2255V13.779H51.8165V15.014H58.5635V15.82H51.5175C51.3095 15.82 51.1491 15.7637 51.0365 15.651C50.9238 15.5383 50.8675 15.3737 50.8675 15.157ZM77.4278 9.489H75.5948V15.313H74.6068V4.029H75.5948V8.657H77.4278V9.489ZM71.8378 5.485H68.1458V4.64H71.8378V5.485ZM66.4168 7.045H73.3718V7.851H71.4478V7.929C72.2364 8.319 72.6308 9.06867 72.6308 10.178C72.6308 10.7413 72.5138 11.231 72.2798 11.647C72.0458 12.0543 71.7208 12.3663 71.3048 12.583C70.8974 12.7997 70.4424 12.908 69.9398 12.908C69.4371 12.908 68.9778 12.7997 68.5618 12.583C68.1544 12.3663 67.8338 12.0543 67.5998 11.647C67.3658 11.231 67.2488 10.7413 67.2488 10.178C67.2488 9.06867 67.6431 8.319 68.4318 7.929V7.851H66.4168V7.045ZM71.6688 9.749C71.6688 9.16833 71.5128 8.72633 71.2008 8.423C70.8888 8.111 70.4684 7.955 69.9398 7.955C69.4198 7.955 68.9994 8.111 68.6788 8.423C68.3668 8.735 68.2108 9.177 68.2108 9.749V10.282C68.2108 10.8453 68.3711 11.2873 68.6918 11.608C69.0124 11.92 69.4284 12.076 69.9398 12.076C70.4511 12.076 70.8671 11.92 71.1878 11.608C71.5084 11.2873 71.6688 10.8453 71.6688 10.282V9.749ZM87.4716 9.19H85.0796V8.384H87.4716V6.616H85.0796V5.81H87.4716V4.003H88.4596V12.57H87.4716V9.19ZM84.6376 10.269H79.3206V4.731H84.6376V10.269ZM83.6626 5.55H80.2956V9.45H83.6626V5.55ZM88.6936 14.715V15.534H81.8816C81.6736 15.534 81.5133 15.4777 81.4006 15.365C81.2879 15.2523 81.2316 15.0877 81.2316 14.871V11.634H82.2326V14.715H88.6936ZM106.934 9.476H105.166V15.287H104.191V4.003H105.166V8.644H106.934V9.476ZM101.422 5.849H96.5339V5.03H102.384V6.031C102.384 7.409 102.228 8.78267 101.916 10.152L100.967 10.009C101.27 8.75233 101.422 7.46533 101.422 6.148V5.849ZM103.255 11.582L103.346 12.375C102.393 12.531 101.253 12.648 99.9269 12.726C98.6095 12.804 97.2532 12.843 95.8579 12.843L95.7669 12.011C96.6335 12.011 97.4959 11.998 98.3539 11.972V8.449H99.3159V11.933C100.885 11.8637 102.198 11.7467 103.255 11.582ZM117.914 4.003V15.287H116.939V9.32H114.417V8.488H116.939V4.003H117.914ZM108.996 4.926H114.001V6.733C114.001 7.695 113.858 8.50967 113.572 9.177C113.286 9.84433 112.805 10.4683 112.129 11.049C111.461 11.621 110.504 12.2493 109.256 12.934L108.671 12.193C109.832 11.569 110.72 11.0013 111.336 10.49C111.951 9.97867 112.38 9.437 112.623 8.865C112.874 8.28433 113 7.578 113 6.746V5.771H108.996V4.926ZM135.231 4.003V10.516H134.243V7.773H131.721V6.941H134.243V4.003H135.231ZM126.456 10.477L125.936 9.723C127.097 9.281 127.981 8.878 128.588 8.514C129.195 8.15 129.619 7.773 129.862 7.383C130.113 6.98433 130.239 6.50333 130.239 5.94V5.446H126.261V4.614H131.24V5.836C131.24 6.59 131.097 7.21833 130.811 7.721C130.534 8.215 130.057 8.67433 129.381 9.099C128.714 9.515 127.739 9.97433 126.456 10.477ZM128.081 11.218H135.231V15.755H128.731C128.523 15.755 128.363 15.6987 128.25 15.586C128.137 15.4733 128.081 15.3087 128.081 15.092V11.218ZM129.069 14.923H134.23V12.037H129.069V14.923ZM147.758 4.003V10.789H146.796V7.786H145.054V10.646H144.105V4.185H145.054V6.98H146.796V4.003H147.758ZM140.582 8.033C140.512 8.033 140.46 8.059 140.426 8.111C140.226 8.48367 139.966 8.86933 139.646 9.268C139.325 9.658 138.913 10.1087 138.411 10.62L137.722 10.022C138.363 9.35467 138.848 8.787 139.178 8.319C139.516 7.84233 139.754 7.37867 139.893 6.928C140.04 6.47733 140.114 5.95733 140.114 5.368V4.653H141.063V5.394C141.063 6.20867 140.937 6.93233 140.686 7.565L140.738 7.591L140.894 7.461C140.989 7.39167 141.076 7.357 141.154 7.357C141.24 7.357 141.327 7.40033 141.414 7.487L143.494 9.749L142.818 10.399L140.751 8.111C140.699 8.059 140.642 8.033 140.582 8.033ZM140.114 11.504H147.758V15.859H146.783V12.349H140.114V11.504ZM164.737 10.451H163.736V4.003H164.737V10.451ZM161.084 9.424H155.663V4.471H161.084V9.424ZM160.096 5.277H156.664V8.618H160.096V5.277ZM159.277 10.399H162.865V11.179H159.277V10.399ZM165.283 15.235L164.841 15.95L161.331 14.507C161.218 14.4637 161.11 14.442 161.006 14.442C160.885 14.442 160.772 14.468 160.668 14.52L160.642 14.533C160.33 14.7583 159.897 14.9837 159.342 15.209C158.796 15.443 158.085 15.6987 157.21 15.976L156.781 15.274C157.76 14.988 158.519 14.728 159.056 14.494C159.602 14.26 159.988 14.026 160.213 13.792C160.447 13.5493 160.577 13.2763 160.603 12.973H157.093V12.193H164.945V12.973H161.552C161.543 13.2157 161.5 13.4367 161.422 13.636C161.344 13.8353 161.218 14.0217 161.045 14.195L161.123 14.208L161.344 14.052C161.491 13.948 161.608 13.896 161.695 13.896C161.73 13.896 161.808 13.9133 161.929 13.948L165.283 15.235ZM182.873 10.594H178.05V15.703H177.062V10.594H172.265V9.762H179.87C180.182 8.40133 180.343 6.94967 180.351 5.407V5.342H173.669V4.51H181.313V5.342C181.313 6.84133 181.166 8.31467 180.871 9.762H182.873V10.594ZM194.529 4.003V15.287H193.567V9.229H191.851V14.975H190.902V4.198H191.851V8.41H193.567V4.003H194.529ZM184.948 5.134H189.563V12.115H184.948V5.134ZM185.91 11.296H188.601V5.953H185.91V11.296ZM210.521 6.798V4.003H211.509V10.789H210.521V7.604H208.155V6.798H210.521ZM202.799 10.399L202.058 9.775C202.786 9.203 203.349 8.709 203.748 8.293C204.146 7.86833 204.432 7.45233 204.606 7.045C204.788 6.629 204.879 6.16533 204.879 5.654V5.524H202.396V4.692H208.324V5.524H205.867V5.693C205.867 6.42967 205.715 7.07533 205.412 7.63L205.49 7.669L205.698 7.513C205.793 7.44367 205.888 7.409 205.984 7.409C206.096 7.409 206.196 7.448 206.283 7.526L208.701 9.554L207.973 10.204L205.516 8.072C205.446 8.02 205.381 7.994 205.321 7.994C205.251 7.994 205.191 8.02 205.139 8.072C204.905 8.41 204.606 8.75667 204.242 9.112C203.878 9.46733 203.397 9.89633 202.799 10.399ZM211.574 13.48C211.574 13.948 211.435 14.364 211.158 14.728C210.889 15.1007 210.477 15.391 209.923 15.599C209.377 15.8157 208.709 15.924 207.921 15.924C207.123 15.924 206.447 15.8157 205.893 15.599C205.347 15.391 204.935 15.1007 204.658 14.728C204.389 14.364 204.255 13.948 204.255 13.48C204.255 13.012 204.389 12.596 204.658 12.232C204.935 11.8593 205.347 11.569 205.893 11.361C206.447 11.1443 207.123 11.036 207.921 11.036C208.709 11.036 209.377 11.1443 209.923 11.361C210.477 11.569 210.889 11.8593 211.158 12.232C211.435 12.596 211.574 13.012 211.574 13.48ZM210.534 13.376C210.534 12.934 210.317 12.5657 209.884 12.271C209.45 11.9677 208.796 11.816 207.921 11.816C207.037 11.816 206.374 11.9677 205.932 12.271C205.498 12.5657 205.282 12.934 205.282 13.376V13.597C205.282 14.0303 205.498 14.3943 205.932 14.689C206.374 14.9923 207.037 15.144 207.921 15.144C208.796 15.144 209.45 14.9923 209.884 14.689C210.317 14.3943 210.534 14.0303 210.534 13.597V13.376ZM224.62 13.168V14H214.012V13.168H218.822V10.516H215.468V4.601H216.456V6.746H222.163V4.601H223.138V10.516H219.81V13.168H224.62ZM216.456 9.697H222.163V7.565H216.456V9.697ZM234.196 6.031V4.913H227.852V4.185H235.145V6.746H228.879V7.851H235.47V8.592H227.917V6.031H234.196ZM236.861 9.567V10.334H226.253V9.567H236.861ZM227.878 15.196V13.233H234.352V12.141H227.8V11.374H235.275V13.961H228.801V15.079H235.613V15.859H228.528C228.32 15.859 228.16 15.8027 228.047 15.69C227.935 15.5773 227.878 15.4127 227.878 15.196ZM23.102 30.321V31.127H12.494V30.321H17.317V29.099H14.106V24.237H21.477V25.017H15.055V26.291H21.282V27.045H15.068V28.319H21.685V29.099H18.292V30.321H23.102ZM21.646 34C21.646 34.6153 21.3167 35.105 20.658 35.469C19.9993 35.833 19.046 36.015 17.798 36.015C16.55 36.015 15.5967 35.833 14.938 35.469C14.2793 35.105 13.95 34.6153 13.95 34C13.95 33.3933 14.2793 32.908 14.938 32.544C15.5967 32.1713 16.55 31.985 17.798 31.985C19.046 31.985 19.9993 32.1713 20.658 32.544C21.3167 32.908 21.646 33.3933 21.646 34ZM20.606 33.922C20.606 33.584 20.372 33.3023 19.904 33.077C19.4447 32.8517 18.7427 32.739 17.798 32.739C16.862 32.739 16.1557 32.8517 15.679 33.077C15.211 33.3023 14.977 33.584 14.977 33.922V34.078C14.977 34.416 15.211 34.6977 15.679 34.923C16.1557 35.1483 16.862 35.261 17.798 35.261C18.7427 35.261 19.4447 35.1483 19.904 34.923C20.372 34.6977 20.606 34.416 20.606 34.078V33.922ZM34.7578 24.003V35.287H33.7958V29.398H32.1058V34.975H31.1568V24.198H32.1058V28.579H33.7958V24.003H34.7578ZM29.3628 25.693H26.0218V24.887H29.3628V25.693ZM24.6568 27.149H30.5328V27.929H28.9858V27.994C29.6705 28.3667 30.0128 29.073 30.0128 30.113C30.0128 30.9277 29.7918 31.5647 29.3498 32.024C28.9165 32.4747 28.3445 32.7 27.6338 32.7C26.9318 32.7 26.3598 32.4747 25.9178 32.024C25.4845 31.5647 25.2678 30.9277 25.2678 30.113C25.2678 29.073 25.6058 28.3667 26.2818 27.994V27.929H24.6568V27.149ZM29.0768 29.645C29.0768 29.125 28.9468 28.7263 28.6868 28.449C28.4268 28.1717 28.0758 28.033 27.6338 28.033C27.1918 28.033 26.8408 28.1717 26.5808 28.449C26.3295 28.7263 26.2038 29.125 26.2038 29.645V30.269C26.2038 30.7803 26.3338 31.179 26.5938 31.465C26.8625 31.751 27.2092 31.894 27.6338 31.894C28.0585 31.894 28.4052 31.751 28.6738 31.465C28.9425 31.179 29.0768 30.7803 29.0768 30.269V29.645ZM50.285 24.926H46.333V24.12H50.285V24.926ZM47.815 26.915H44.24V26.109H52.391V26.915H48.816C48.7727 27.4263 48.5864 27.8597 48.257 28.215L48.348 28.241L48.595 28.072C48.7164 27.9853 48.842 27.942 48.972 27.942C49.0587 27.942 49.1584 27.9637 49.271 28.007L52.846 29.528L52.313 30.256L48.543 28.566C48.439 28.514 48.3307 28.488 48.218 28.488C48.088 28.488 47.9754 28.5183 47.88 28.579L47.841 28.592C47.503 28.852 47.048 29.1207 46.476 29.398C45.9127 29.6667 45.1847 29.9657 44.292 30.295L43.772 29.58C44.76 29.2333 45.5357 28.9213 46.099 28.644C46.671 28.3667 47.087 28.0937 47.347 27.825C47.607 27.5477 47.763 27.2443 47.815 26.915ZM53.613 31.933H48.803V35.742H47.815V31.933H43.005V31.114H53.613V31.933ZM63.9818 28.956H61.7848V28.124H63.9818V24.003H64.9828V32.7H63.9818V28.956ZM60.5368 25.225H57.0788V24.406H60.5368V25.225ZM56.2208 31.517L55.5318 30.919C56.2512 30.4077 56.8058 29.9657 57.1958 29.593C57.5945 29.2203 57.8805 28.852 58.0538 28.488C58.2272 28.124 58.3182 27.7123 58.3268 27.253H55.8438V26.434H61.7718V27.253H59.2758C59.2758 27.9203 59.1242 28.5053 58.8208 29.008L58.8988 29.047L59.0938 28.904C59.1892 28.8347 59.2845 28.8 59.3798 28.8C59.4838 28.8 59.5835 28.8347 59.6788 28.904L62.0708 30.724L61.3818 31.335L58.9508 29.424C58.8815 29.372 58.8078 29.346 58.7298 29.346C58.6518 29.346 58.5868 29.372 58.5348 29.424C58.3095 29.736 58.0148 30.0523 57.6508 30.373C57.2868 30.6937 56.8102 31.075 56.2208 31.517ZM65.2168 34.78V35.599H58.3788C58.1708 35.599 58.0105 35.5427 57.8978 35.43C57.7852 35.3173 57.7288 35.1527 57.7288 34.936V32.31H58.7168V34.78H65.2168ZM83.188 24.003V35.287H82.2V24.003H83.188ZM74.517 24.965H79.6V26.967C79.6 27.8943 79.444 28.6917 79.132 29.359C78.82 30.0263 78.313 30.6503 77.611 31.231C76.909 31.8117 75.9167 32.4573 74.634 33.168L74.062 32.427C75.4054 31.6903 76.4064 31.036 77.065 30.464C77.7324 29.892 78.183 29.255 78.417 28.553L74.166 28.891L74.023 28.046L78.586 27.76C78.6207 27.5433 78.638 27.2747 78.638 26.954V25.784H74.517V24.965ZM95.5069 24.003V35.287H94.5319V32.648H91.7109V31.842H94.5319V24.003H95.5069ZM86.4069 26.655C86.4069 26.187 86.5369 25.7753 86.7969 25.42C87.0655 25.0647 87.4339 24.7917 87.9019 24.601C88.3699 24.4103 88.8985 24.315 89.4879 24.315C90.0772 24.315 90.6015 24.4103 91.0609 24.601C91.5289 24.7917 91.8929 25.0647 92.1529 25.42C92.4215 25.7753 92.5559 26.187 92.5559 26.655C92.5559 27.1317 92.4215 27.5477 92.1529 27.903C91.8929 28.2497 91.5289 28.5183 91.0609 28.709C90.6015 28.8997 90.0772 28.995 89.4879 28.995C88.8899 28.995 88.3569 28.8997 87.8889 28.709C87.4295 28.5183 87.0655 28.2497 86.7969 27.903C86.5369 27.5477 86.4069 27.1317 86.4069 26.655ZM87.4339 26.772C87.4339 27.2053 87.6245 27.5563 88.0059 27.825C88.3872 28.085 88.8812 28.215 89.4879 28.215C90.0945 28.215 90.5885 28.085 90.9699 27.825C91.3512 27.5563 91.5419 27.2053 91.5419 26.772V26.538C91.5419 26.1047 91.3512 25.758 90.9699 25.498C90.5885 25.2293 90.0945 25.095 89.4879 25.095C88.8812 25.095 88.3872 25.2293 88.0059 25.498C87.6245 25.758 87.4339 26.1047 87.4339 26.538V26.772ZM90.0079 30.88V35.183H89.0329V30.932C87.8629 30.9753 86.7969 30.997 85.8349 30.997L85.7439 30.165C87.2172 30.165 88.6385 30.1303 90.0079 30.061C91.3772 29.9917 92.5385 29.8833 93.4919 29.736L93.5959 30.529C92.6079 30.685 91.4119 30.802 90.0079 30.88ZM107.228 30.23H99.5317V24.783H107.111V25.628H100.52V29.385H107.228V30.23ZM108.606 33.155V34H97.9977V33.155H108.606ZM121.184 29.476H119.416V35.287H118.441V24.003H119.416V28.644H121.184V29.476ZM117.505 31.79L117.596 32.583C116.652 32.739 115.516 32.8603 114.19 32.947C112.873 33.025 111.512 33.064 110.108 33.064L110.017 32.219C111.239 32.219 112.279 32.1973 113.137 32.154V29.918C112.366 29.8313 111.738 29.5497 111.252 29.073C110.767 28.5963 110.524 27.9897 110.524 27.253C110.524 26.7243 110.659 26.2607 110.927 25.862C111.196 25.4547 111.564 25.1427 112.032 24.926C112.5 24.7007 113.029 24.588 113.618 24.588C114.208 24.588 114.736 24.7007 115.204 24.926C115.672 25.1427 116.036 25.4547 116.296 25.862C116.565 26.2607 116.699 26.7243 116.699 27.253C116.699 27.9897 116.457 28.5963 115.971 29.073C115.495 29.5497 114.866 29.8313 114.086 29.918V32.115C115.352 32.0543 116.491 31.946 117.505 31.79ZM113.618 29.138C114.225 29.138 114.719 28.982 115.1 28.67C115.482 28.3493 115.672 27.929 115.672 27.409V27.11C115.672 26.59 115.482 26.174 115.1 25.862C114.719 25.5413 114.225 25.381 113.618 25.381C113.012 25.381 112.518 25.5413 112.136 25.862C111.755 26.174 111.564 26.59 111.564 27.11V27.409C111.564 27.929 111.755 28.3493 112.136 28.67C112.518 28.982 113.012 29.138 113.618 29.138ZM136.647 25.784H129.848V24.939H137.622V25.901C137.622 27.9637 137.427 29.8747 137.037 31.634L136.088 31.478C136.46 29.7273 136.647 27.8683 136.647 25.901V25.784ZM139.117 33.155V34H128.509V33.155H139.117ZM150.773 24.003V35.287H149.824V24.003H150.773ZM147.263 24.198H148.186V34.975H147.263V29.06H146.015C145.971 30.1867 145.72 31.036 145.261 31.608C144.801 32.1713 144.195 32.453 143.441 32.453C142.635 32.453 141.998 32.141 141.53 31.517C141.062 30.8843 140.828 29.944 140.828 28.696C140.828 27.448 141.062 26.512 141.53 25.888C141.998 25.2553 142.635 24.939 143.441 24.939C144.186 24.939 144.784 25.2163 145.235 25.771C145.694 26.3257 145.954 27.149 146.015 28.241H147.263V24.198ZM145.027 28.072C145.027 27.3093 144.879 26.7287 144.585 26.33C144.299 25.9313 143.917 25.732 143.441 25.732C142.955 25.732 142.565 25.9313 142.271 26.33C141.985 26.7287 141.842 27.3093 141.842 28.072V29.333C141.842 30.087 141.985 30.6677 142.271 31.075C142.565 31.4737 142.955 31.673 143.441 31.673C143.917 31.673 144.299 31.4737 144.585 31.075C144.879 30.6677 145.027 30.087 145.027 29.333V28.072ZM169.043 24.003V35.287H168.081V29.398H166.391V34.975H165.442V24.198H166.391V28.579H168.081V24.003H169.043ZM163.648 25.693H160.307V24.887H163.648V25.693ZM158.942 27.149H164.818V27.929H163.271V27.994C163.955 28.3667 164.298 29.073 164.298 30.113C164.298 30.9277 164.077 31.5647 163.635 32.024C163.201 32.4747 162.629 32.7 161.919 32.7C161.217 32.7 160.645 32.4747 160.203 32.024C159.769 31.5647 159.553 30.9277 159.553 30.113C159.553 29.073 159.891 28.3667 160.567 27.994V27.929H158.942V27.149ZM163.362 29.645C163.362 29.125 163.232 28.7263 162.972 28.449C162.712 28.1717 162.361 28.033 161.919 28.033C161.477 28.033 161.126 28.1717 160.866 28.449C160.614 28.7263 160.489 29.125 160.489 29.645V30.269C160.489 30.7803 160.619 31.179 160.879 31.465C161.147 31.751 161.494 31.894 161.919 31.894C162.343 31.894 162.69 31.751 162.959 31.465C163.227 31.179 163.362 30.7803 163.362 30.269V29.645ZM182.22 26.915V27.747H180.413V30.724H179.425V24.003H180.413V26.915H182.22ZM178.112 29.476C177.488 29.606 176.734 29.71 175.85 29.788C174.974 29.8573 174.038 29.892 173.042 29.892H171.716V24.614H176.864V25.446H172.704V29.086H173.055C173.991 29.086 174.888 29.0513 175.746 28.982C176.612 28.9127 177.358 28.8173 177.982 28.696L178.112 29.476ZM180.504 33.428C180.504 33.9047 180.369 34.3293 180.101 34.702C179.832 35.0833 179.429 35.3823 178.892 35.599C178.354 35.8157 177.696 35.924 176.916 35.924C176.144 35.924 175.486 35.8157 174.94 35.599C174.402 35.3823 173.995 35.0833 173.718 34.702C173.449 34.3293 173.315 33.9047 173.315 33.428C173.315 32.9513 173.449 32.5267 173.718 32.154C173.995 31.7727 174.402 31.4737 174.94 31.257C175.486 31.0403 176.144 30.932 176.916 30.932C177.696 30.932 178.354 31.0403 178.892 31.257C179.429 31.4737 179.832 31.7727 180.101 32.154C180.369 32.5267 180.504 32.9513 180.504 33.428ZM179.464 33.324C179.464 32.8733 179.251 32.4963 178.827 32.193C178.411 31.8897 177.774 31.738 176.916 31.738C176.066 31.738 175.429 31.894 175.005 32.206C174.58 32.5093 174.368 32.882 174.368 33.324V33.545C174.368 33.987 174.58 34.3597 175.005 34.663C175.429 34.975 176.066 35.131 176.916 35.131C177.774 35.131 178.411 34.975 178.827 34.663C179.251 34.3597 179.464 33.987 179.464 33.545V33.324ZM194.447 29.489H192.614V35.313H191.626V24.029H192.614V28.657H194.447V29.489ZM188.857 25.485H185.165V24.64H188.857V25.485ZM183.436 27.045H190.391V27.851H188.467V27.929C189.256 28.319 189.65 29.0687 189.65 30.178C189.65 30.7413 189.533 31.231 189.299 31.647C189.065 32.0543 188.74 32.3663 188.324 32.583C187.917 32.7997 187.462 32.908 186.959 32.908C186.457 32.908 185.997 32.7997 185.581 32.583C185.174 32.3663 184.853 32.0543 184.619 31.647C184.385 31.231 184.268 30.7413 184.268 30.178C184.268 29.0687 184.663 28.319 185.451 27.929V27.851H183.436V27.045ZM188.688 29.749C188.688 29.1683 188.532 28.7263 188.22 28.423C187.908 28.111 187.488 27.955 186.959 27.955C186.439 27.955 186.019 28.111 185.698 28.423C185.386 28.735 185.23 29.177 185.23 29.749V30.282C185.23 30.8453 185.391 31.2873 185.711 31.608C186.032 31.92 186.448 32.076 186.959 32.076C187.471 32.076 187.887 31.92 188.207 31.608C188.528 31.2873 188.688 30.8453 188.688 30.282V29.749ZM204.842 28.501H197.367V24.419H198.342V27.682H204.842V28.501ZM206.35 29.944V30.789H195.742V29.944H206.35ZM198.251 34.689H204.985V35.521H197.913C197.705 35.521 197.545 35.4647 197.432 35.352C197.32 35.2393 197.263 35.0747 197.263 34.858V32.011H198.251V34.689ZM221.292 24.926H217.34V24.12H221.292V24.926ZM218.822 26.915H215.247V26.109H223.398V26.915H219.823C219.78 27.4263 219.594 27.8597 219.264 28.215L219.355 28.241L219.602 28.072C219.724 27.9853 219.849 27.942 219.979 27.942C220.066 27.942 220.166 27.9637 220.278 28.007L223.853 29.528L223.32 30.256L219.55 28.566C219.446 28.514 219.338 28.488 219.225 28.488C219.095 28.488 218.983 28.5183 218.887 28.579L218.848 28.592C218.51 28.852 218.055 29.1207 217.483 29.398C216.92 29.6667 216.192 29.9657 215.299 30.295L214.779 29.58C215.767 29.2333 216.543 28.9213 217.106 28.644C217.678 28.3667 218.094 28.0937 218.354 27.825C218.614 27.5477 218.77 27.2443 218.822 26.915ZM224.62 31.933H219.81V35.742H218.822V31.933H214.012V31.114H224.62V31.933ZM234.989 28.956H232.792V28.124H234.989V24.003H235.99V32.7H234.989V28.956ZM231.544 25.225H228.086V24.406H231.544V25.225ZM227.228 31.517L226.539 30.919C227.259 30.4077 227.813 29.9657 228.203 29.593C228.602 29.2203 228.888 28.852 229.061 28.488C229.235 28.124 229.326 27.7123 229.334 27.253H226.851V26.434H232.779V27.253H230.283C230.283 27.9203 230.132 28.5053 229.828 29.008L229.906 29.047L230.101 28.904C230.197 28.8347 230.292 28.8 230.387 28.8C230.491 28.8 230.591 28.8347 230.686 28.904L233.078 30.724L232.389 31.335L229.958 29.424C229.889 29.372 229.815 29.346 229.737 29.346C229.659 29.346 229.594 29.372 229.542 29.424C229.317 29.736 229.022 30.0523 228.658 30.373C228.294 30.6937 227.818 31.075 227.228 31.517ZM236.224 34.78V35.599H229.386C229.178 35.599 229.018 35.5427 228.905 35.43C228.793 35.3173 228.736 35.1527 228.736 34.936V32.31H229.724V34.78H236.224ZM23.102 53.168V54H12.494V53.168H17.304V50.165H14.028V44.77H21.607V45.615H15.016V49.32H21.724V50.165H18.292V53.168H23.102ZM34.4198 44.003V55.287H33.4448V48.618H31.0398V47.786H33.4448V44.003H34.4198ZM28.7908 48.553C28.8948 48.553 28.9858 48.6007 29.0638 48.696L31.6118 51.946L30.8578 52.609L28.3098 49.255C28.2752 49.2117 28.2318 49.19 28.1798 49.19C28.1278 49.19 28.0845 49.2117 28.0498 49.255C27.8332 49.7577 27.5342 50.2733 27.1528 50.802C26.7715 51.3307 26.2515 51.9893 25.5928 52.778L24.8388 52.141C25.5928 51.283 26.1692 50.5507 26.5678 49.944C26.9752 49.3287 27.2655 48.7133 27.4388 48.098C27.6208 47.4827 27.7118 46.7763 27.7118 45.979V44.757H28.6998V45.966C28.6998 47.0147 28.5568 47.9507 28.2708 48.774L28.3228 48.813L28.5048 48.657C28.6002 48.5877 28.6955 48.553 28.7908 48.553ZM50.7209 44.003V55.287H49.7719V44.003H50.7209ZM47.1849 44.198H48.1079V54.975H47.1849V48.761H45.3779V47.942H47.1849V44.198ZM44.0259 48.904C44.1299 48.904 44.2296 48.9647 44.3249 49.086L46.3919 51.985L45.6899 52.583L43.6099 49.593C43.5666 49.541 43.5232 49.515 43.4799 49.515C43.4366 49.515 43.4019 49.541 43.3759 49.593C43.1939 50.0437 42.9426 50.5117 42.6219 50.997C42.3099 51.4737 41.8852 52.063 41.3479 52.765L40.6589 52.18C41.2916 51.374 41.7769 50.6807 42.1149 50.1C42.4529 49.5107 42.6956 48.93 42.8429 48.358C42.9902 47.7773 43.0639 47.1187 43.0639 46.382V46.005H40.9319V45.173H46.0929V46.005H43.9999V46.382C43.9999 47.3873 43.8612 48.28 43.5839 49.06L43.6489 49.099L43.7789 48.995C43.8742 48.9343 43.9566 48.904 44.0259 48.904ZM60.9987 45.199H54.3557V44.367H61.9607V45.004C61.9607 46.1393 61.8264 47.3007 61.5577 48.488L60.6217 48.358C60.8644 47.3353 60.9901 46.2823 60.9987 45.199ZM63.5467 49.398V50.256H52.9387V49.398H57.2937V47.149H58.2687V49.398H63.5467ZM62.0907 53.662C62.0907 54.1127 61.9434 54.5113 61.6487 54.858C61.3627 55.2133 60.9294 55.4907 60.3487 55.69C59.7767 55.8893 59.0747 55.989 58.2427 55.989C57.4107 55.989 56.7044 55.8893 56.1237 55.69C55.5517 55.4907 55.1184 55.2133 54.8237 54.858C54.5377 54.5113 54.3947 54.1127 54.3947 53.662C54.3947 53.2113 54.5377 52.8127 54.8237 52.466C55.1184 52.1193 55.5517 51.8463 56.1237 51.647C56.7044 51.4477 57.4107 51.348 58.2427 51.348C59.0747 51.348 59.7767 51.4477 60.3487 51.647C60.9294 51.8463 61.3627 52.1193 61.6487 52.466C61.9434 52.8127 62.0907 53.2113 62.0907 53.662ZM61.0507 53.571C61.0507 53.1637 60.8167 52.8213 60.3487 52.544C59.8894 52.2667 59.1874 52.128 58.2427 52.128C57.3067 52.128 56.6004 52.2667 56.1237 52.544C55.6557 52.8213 55.4217 53.1637 55.4217 53.571V53.766C55.4217 54.1647 55.6557 54.5027 56.1237 54.78C56.6004 55.0573 57.3067 55.196 58.2427 55.196C59.1874 55.196 59.8894 55.0573 60.3487 54.78C60.8167 54.5027 61.0507 54.1647 61.0507 53.766V53.571Z" fill="white"/>
<rect y="4" width="2" height="10" fill="white"/>
</svg>
