<svg width="67" height="61" viewBox="0 0 67 61" fill="none" xmlns="http://www.w3.org/2000/svg">
<path d="M0.978693 13V12.169L4.09943 8.75284C4.46567 8.35275 4.76728 8.00497 5.00426 7.70952C5.24124 7.41098 5.41667 7.13092 5.53054 6.86932C5.64749 6.60464 5.70597 6.32765 5.70597 6.03835C5.70597 5.70597 5.62595 5.41821 5.46591 5.17507C5.30895 4.93194 5.09351 4.7442 4.8196 4.61186C4.54569 4.47952 4.23793 4.41335 3.89631 4.41335C3.53314 4.41335 3.21615 4.48875 2.94531 4.63956C2.67756 4.78729 2.46982 4.99503 2.32209 5.26278C2.17744 5.53054 2.10511 5.84446 2.10511 6.20454H1.01562C1.01562 5.65057 1.14335 5.1643 1.39879 4.74574C1.65424 4.32718 2.00201 4.00095 2.44212 3.76704C2.8853 3.53314 3.38234 3.41619 3.93324 3.41619C4.48722 3.41619 4.9781 3.53314 5.4059 3.76704C5.83369 4.00095 6.16915 4.31641 6.41229 4.71342C6.65542 5.11044 6.77699 5.55208 6.77699 6.03835C6.77699 6.38613 6.7139 6.72621 6.58771 7.05859C6.46461 7.3879 6.24917 7.75568 5.94141 8.16193C5.63672 8.5651 5.21354 9.05753 4.67188 9.6392L2.5483 11.9105V11.9844H6.94318V13H0.978693ZM9.49979 13V12.169L12.6205 8.75284C12.9868 8.35275 13.2884 8.00497 13.5254 7.70952C13.7623 7.41098 13.9378 7.13092 14.0516 6.86932C14.1686 6.60464 14.2271 6.32765 14.2271 6.03835C14.2271 5.70597 14.147 5.41821 13.987 5.17507C13.83 4.93194 13.6146 4.7442 13.3407 4.61186C13.0668 4.47952 12.759 4.41335 12.4174 4.41335C12.0542 4.41335 11.7372 4.48875 11.4664 4.63956C11.1987 4.78729 10.9909 4.99503 10.8432 5.26278C10.6985 5.53054 10.6262 5.84446 10.6262 6.20454H9.53672C9.53672 5.65057 9.66444 5.1643 9.91989 4.74574C10.1753 4.32718 10.5231 4.00095 10.9632 3.76704C11.4064 3.53314 11.9034 3.41619 12.4543 3.41619C13.0083 3.41619 13.4992 3.53314 13.927 3.76704C14.3548 4.00095 14.6902 4.31641 14.9334 4.71342C15.1765 5.11044 15.2981 5.55208 15.2981 6.03835C15.2981 6.38613 15.235 6.72621 15.1088 7.05859C14.9857 7.3879 14.7703 7.75568 14.4625 8.16193C14.1578 8.5651 13.7346 9.05753 13.193 9.6392L11.0694 11.9105V11.9844H15.4643V13H9.49979ZM18.8334 13.0739C18.6056 13.0739 18.4102 12.9923 18.2471 12.8292C18.084 12.6661 18.0024 12.4706 18.0024 12.2429C18.0024 12.0152 18.084 11.8197 18.2471 11.6566C18.4102 11.4935 18.6056 11.4119 18.8334 11.4119C19.0611 11.4119 19.2566 11.4935 19.4197 11.6566C19.5828 11.8197 19.6643 12.0152 19.6643 12.2429C19.6643 12.3937 19.6259 12.5322 19.5489 12.6584C19.4751 12.7846 19.375 12.8861 19.2489 12.9631C19.1258 13.0369 18.9873 13.0739 18.8334 13.0739ZM25.0047 13.1293C24.3091 13.1293 23.7167 12.94 23.2273 12.5614C22.738 12.1798 22.3641 11.6274 22.1055 10.9041C21.847 10.1778 21.7178 9.30066 21.7178 8.27273C21.7178 7.25095 21.847 6.37843 22.1055 5.65518C22.3671 4.92886 22.7426 4.37488 23.232 3.99325C23.7244 3.60855 24.3153 3.41619 25.0047 3.41619C25.6941 3.41619 26.2835 3.60855 26.7728 3.99325C27.2652 4.37488 27.6407 4.92886 27.8992 5.65518C28.1608 6.37843 28.2916 7.25095 28.2916 8.27273C28.2916 9.30066 28.1624 10.1778 27.9038 10.9041C27.6453 11.6274 27.2714 12.1798 26.782 12.5614C26.2927 12.94 25.7002 13.1293 25.0047 13.1293ZM25.0047 12.1136C25.6941 12.1136 26.2296 11.7812 26.6112 11.1165C26.9929 10.4517 27.1837 9.50379 27.1837 8.27273C27.1837 7.45407 27.096 6.75698 26.9205 6.18146C26.7482 5.60594 26.4989 5.16738 26.1727 4.86577C25.8495 4.56416 25.4602 4.41335 25.0047 4.41335C24.3214 4.41335 23.7875 4.75035 23.4028 5.42436C23.0181 6.09529 22.8257 7.04474 22.8257 8.27273C22.8257 9.09138 22.9119 9.78693 23.0842 10.3594C23.2566 10.9318 23.5043 11.3673 23.8275 11.6658C24.1537 11.9644 24.5461 12.1136 25.0047 12.1136ZM30.4743 11.0611V10.1193L34.6291 3.54545H35.3124V5.00426H34.8507L31.7115 9.97159V10.0455H37.3067V11.0611H30.4743ZM34.9246 13V10.7749V10.3363V3.54545H36.0141V13H34.9246ZM40.0549 13.0739C39.8271 13.0739 39.6317 12.9923 39.4686 12.8292C39.3055 12.6661 39.2239 12.4706 39.2239 12.2429C39.2239 12.0152 39.3055 11.8197 39.4686 11.6566C39.6317 11.4935 39.8271 11.4119 40.0549 11.4119C40.2826 11.4119 40.478 11.4935 40.6412 11.6566C40.8043 11.8197 40.8858 12.0152 40.8858 12.2429C40.8858 12.3937 40.8474 12.5322 40.7704 12.6584C40.6966 12.7846 40.5965 12.8861 40.4703 12.9631C40.3472 13.0369 40.2087 13.0739 40.0549 13.0739ZM45.6664 3.54545V13H44.5215V4.74574H44.4661L42.1579 6.27841V5.11506L44.5215 3.54545H45.6664ZM49.0355 13V12.169L52.1563 8.75284C52.5225 8.35275 52.8241 8.00497 53.0611 7.70952C53.2981 7.41098 53.4735 7.13092 53.5874 6.86932C53.7043 6.60464 53.7628 6.32765 53.7628 6.03835C53.7628 5.70597 53.6828 5.41821 53.5227 5.17507C53.3658 4.93194 53.1503 4.7442 52.8764 4.61186C52.6025 4.47952 52.2948 4.41335 51.9531 4.41335C51.59 4.41335 51.273 4.48875 51.0021 4.63956C50.7344 4.78729 50.5267 4.99503 50.3789 5.26278C50.2343 5.53054 50.1619 5.84446 50.1619 6.20454H49.0725C49.0725 5.65057 49.2002 5.1643 49.4556 4.74574C49.7111 4.32718 50.0588 4.00095 50.499 3.76704C50.9421 3.53314 51.4392 3.41619 51.9901 3.41619C52.5441 3.41619 53.0349 3.53314 53.4627 3.76704C53.8905 4.00095 54.226 4.31641 54.4691 4.71342C54.7123 5.11044 54.8338 5.55208 54.8338 6.03835C54.8338 6.38613 54.7707 6.72621 54.6445 7.05859C54.5214 7.3879 54.306 7.75568 53.9982 8.16193C53.6936 8.5651 53.2704 9.05753 52.7287 9.6392L50.6051 11.9105V11.9844H55V13H49.0355ZM58.3691 13.0739C58.1414 13.0739 57.9459 12.9923 57.7828 12.8292C57.6197 12.6661 57.5382 12.4706 57.5382 12.2429C57.5382 12.0152 57.6197 11.8197 57.7828 11.6566C57.9459 11.4935 58.1414 11.4119 58.3691 11.4119C58.5969 11.4119 58.7923 11.4935 58.9554 11.6566C59.1185 11.8197 59.2001 12.0152 59.2001 12.2429C59.2001 12.3937 59.1616 12.5322 59.0847 12.6584C59.0108 12.7846 58.9108 12.8861 58.7846 12.9631C58.6615 13.0369 58.523 13.0739 58.3691 13.0739ZM5.05966 24.4389V25.4545H0.923295V24.4389H5.05966ZM7.16385 29V28.169L10.2846 24.7528C10.6508 24.3527 10.9524 24.005 11.1894 23.7095C11.4264 23.411 11.6018 23.1309 11.7157 22.8693C11.8326 22.6046 11.8911 22.3277 11.8911 22.0384C11.8911 21.706 11.8111 21.4182 11.6511 21.1751C11.4941 20.9319 11.2787 20.7442 11.0048 20.6119C10.7308 20.4795 10.4231 20.4134 10.0815 20.4134C9.7183 20.4134 9.4013 20.4888 9.13047 20.6396C8.86271 20.7873 8.65497 20.995 8.50724 21.2628C8.36259 21.5305 8.29027 21.8445 8.29027 22.2045H7.20078C7.20078 21.6506 7.3285 21.1643 7.58395 20.7457C7.83939 20.3272 8.18717 20.0009 8.62727 19.767C9.07045 19.5331 9.5675 19.4162 10.1184 19.4162C10.6724 19.4162 11.1633 19.5331 11.5911 19.767C12.0188 20.0009 12.3543 20.3164 12.5974 20.7134C12.8406 21.1104 12.9621 21.5521 12.9621 22.0384C12.9621 22.3861 12.8991 22.7262 12.7729 23.0586C12.6498 23.3879 12.4343 23.7557 12.1266 24.1619C11.8219 24.5651 11.3987 25.0575 10.857 25.6392L8.73345 27.9105V27.9844H13.1283V29H7.16385ZM15.6849 29V28.169L18.8057 24.7528C19.1719 24.3527 19.4735 24.005 19.7105 23.7095C19.9475 23.411 20.1229 23.1309 20.2368 22.8693C20.3537 22.6046 20.4122 22.3277 20.4122 22.0384C20.4122 21.706 20.3322 21.4182 20.1722 21.1751C20.0152 20.9319 19.7998 20.7442 19.5259 20.6119C19.2519 20.4795 18.9442 20.4134 18.6026 20.4134C18.2394 20.4134 17.9224 20.4888 17.6516 20.6396C17.3838 20.7873 17.1761 20.995 17.0283 21.2628C16.8837 21.5305 16.8114 21.8445 16.8114 22.2045H15.7219C15.7219 21.6506 15.8496 21.1643 16.105 20.7457C16.3605 20.3272 16.7083 20.0009 17.1484 19.767C17.5915 19.5331 18.0886 19.4162 18.6395 19.4162C19.1935 19.4162 19.6844 19.5331 20.1121 19.767C20.5399 20.0009 20.8754 20.3164 21.1185 20.7134C21.3617 21.1104 21.4832 21.5521 21.4832 22.0384C21.4832 22.3861 21.4201 22.7262 21.294 23.0586C21.1709 23.3879 20.9554 23.7557 20.6477 24.1619C20.343 24.5651 19.9198 25.0575 19.3781 25.6392L17.2545 27.9105V27.9844H21.6494V29H15.6849ZM25.0185 29.0739C24.7908 29.0739 24.5954 28.9923 24.4322 28.8292C24.2691 28.6661 24.1876 28.4706 24.1876 28.2429C24.1876 28.0152 24.2691 27.8197 24.4322 27.6566C24.5954 27.4935 24.7908 27.4119 25.0185 27.4119C25.2463 27.4119 25.4417 27.4935 25.6048 27.6566C25.7679 27.8197 25.8495 28.0152 25.8495 28.2429C25.8495 28.3937 25.811 28.5322 25.7341 28.6584C25.6602 28.7846 25.5602 28.8861 25.434 28.9631C25.3109 29.0369 25.1724 29.0739 25.0185 29.0739ZM31.1898 29.1293C30.4943 29.1293 29.9018 28.94 29.4125 28.5614C28.9232 28.1798 28.5492 27.6274 28.2907 26.9041C28.0322 26.1778 27.9029 25.3007 27.9029 24.2727C27.9029 23.2509 28.0322 22.3784 28.2907 21.6552C28.5523 20.9289 28.9278 20.3749 29.4171 19.9933C29.9095 19.6085 30.5005 19.4162 31.1898 19.4162C31.8792 19.4162 32.4686 19.6085 32.958 19.9933C33.4504 20.3749 33.8259 20.9289 34.0844 21.6552C34.346 22.3784 34.4768 23.2509 34.4768 24.2727C34.4768 25.3007 34.3475 26.1778 34.089 26.9041C33.8305 27.6274 33.4565 28.1798 32.9672 28.5614C32.4778 28.94 31.8854 29.1293 31.1898 29.1293ZM31.1898 28.1136C31.8792 28.1136 32.4147 27.7812 32.7964 27.1165C33.178 26.4517 33.3688 25.5038 33.3688 24.2727C33.3688 23.4541 33.2811 22.757 33.1057 22.1815C32.9333 21.6059 32.684 21.1674 32.3578 20.8658C32.0347 20.5642 31.6453 20.4134 31.1898 20.4134C30.5066 20.4134 29.9726 20.7504 29.5879 21.4244C29.2032 22.0953 29.0109 23.0447 29.0109 24.2727C29.0109 25.0914 29.097 25.7869 29.2694 26.3594C29.4417 26.9318 29.6895 27.3673 30.0126 27.6658C30.3389 27.9644 30.7313 28.1136 31.1898 28.1136ZM36.6594 27.0611V26.1193L40.8143 19.5455H41.4975V21.0043H41.0359L37.8967 25.9716V26.0455H43.4918V27.0611H36.6594ZM41.1097 29V26.7749V26.3363V19.5455H42.1992V29H41.1097ZM46.24 29.0739C46.0123 29.0739 45.8168 28.9923 45.6537 28.8292C45.4906 28.6661 45.4091 28.4706 45.4091 28.2429C45.4091 28.0152 45.4906 27.8197 45.6537 27.6566C45.8168 27.4935 46.0123 27.4119 46.24 27.4119C46.4678 27.4119 46.6632 27.4935 46.8263 27.6566C46.9894 27.8197 47.071 28.0152 47.071 28.2429C47.071 28.3937 47.0325 28.5322 46.9556 28.6584C46.8817 28.7846 46.7817 28.8861 46.6555 28.9631C46.5324 29.0369 46.3939 29.0739 46.24 29.0739ZM51.8516 19.5455V29H50.7067V20.7457H50.6513L48.3431 22.2784V21.1151L50.7067 19.5455H51.8516ZM58.4153 29.1293C57.8059 29.1293 57.2627 29.0246 56.7857 28.8153C56.3117 28.6061 55.9347 28.3152 55.6546 27.9428C55.3776 27.5674 55.2268 27.1319 55.2022 26.6364H56.3656C56.3902 26.9411 56.4948 27.2042 56.6795 27.4258C56.8642 27.6443 57.1057 27.8136 57.4043 27.9336C57.7028 28.0536 58.0337 28.1136 58.3968 28.1136C58.8031 28.1136 59.1632 28.0429 59.4771 27.9013C59.791 27.7597 60.0372 27.5627 60.2157 27.3104C60.3942 27.058 60.4835 26.7656 60.4835 26.4332C60.4835 26.0855 60.3973 25.7792 60.2249 25.5146C60.0526 25.2468 59.8002 25.0375 59.4678 24.8867C59.1355 24.7359 58.7292 24.6605 58.2491 24.6605H57.492V23.6449H58.2491C58.6246 23.6449 58.9539 23.5772 59.237 23.4418C59.5232 23.3063 59.7464 23.1155 59.9064 22.8693C60.0695 22.6231 60.1511 22.3338 60.1511 22.0014C60.1511 21.6813 60.0803 21.4028 59.9387 21.1658C59.7972 20.9289 59.5971 20.7442 59.3386 20.6119C59.0831 20.4795 58.7815 20.4134 58.4338 20.4134C58.1075 20.4134 57.7998 20.4734 57.5105 20.5934C57.2242 20.7103 56.9903 20.8812 56.8088 21.1058C56.6272 21.3274 56.5287 21.5952 56.5133 21.9091H55.4053C55.4238 21.4136 55.5731 20.9796 55.8531 20.6072C56.1332 20.2318 56.4995 19.9394 56.9519 19.7301C57.4074 19.5208 57.9075 19.4162 58.4522 19.4162C59.037 19.4162 59.5386 19.5347 59.9572 19.7717C60.3758 20.0056 60.6974 20.3149 60.922 20.6996C61.1467 21.0843 61.259 21.4998 61.259 21.946C61.259 22.4785 61.119 22.9324 60.8389 23.3079C60.562 23.6834 60.1849 23.9434 59.7079 24.0881V24.1619C60.305 24.2604 60.7712 24.5143 61.1067 24.9237C61.4422 25.3299 61.6099 25.8331 61.6099 26.4332C61.6099 26.9472 61.4699 27.4089 61.1898 27.8182C60.9128 28.2244 60.5343 28.5445 60.0541 28.7784C59.574 29.0123 59.0277 29.1293 58.4153 29.1293ZM64.6685 29.0739C64.4408 29.0739 64.2454 28.9923 64.0822 28.8292C63.9191 28.6661 63.8376 28.4706 63.8376 28.2429C63.8376 28.0152 63.9191 27.8197 64.0822 27.6566C64.2454 27.4935 64.4408 27.4119 64.6685 27.4119C64.8963 27.4119 65.0917 27.4935 65.2548 27.6566C65.4179 27.8197 65.4995 28.0152 65.4995 28.2429C65.4995 28.3937 65.461 28.5322 65.3841 28.6584C65.3102 28.7846 65.2102 28.8861 65.084 28.9631C64.9609 29.0369 64.8224 29.0739 64.6685 29.0739Z" fill="white"/>
<path d="M13.2 49.555H11.04V56.515H9.9V43.495H11.04V48.595H13.2V49.555ZM5.07 48.97C5.19 48.97 5.305 49.025 5.415 49.135L8.34 52.6L7.485 53.335L4.545 49.75C4.485 49.69 4.42 49.66 4.35 49.66C4.28 49.66 4.23 49.69 4.2 49.75C3.93 50.29 3.575 50.845 3.135 51.415C2.705 51.975 2.115 52.68 1.365 53.53L0.525 52.825C1.395 51.905 2.06 51.11 2.52 50.44C2.99 49.77 3.33 49.105 3.54 48.445C3.75 47.775 3.855 47.015 3.855 46.165V45.595H0.915V44.635H7.905V45.595H4.98V46.195C4.98 47.315 4.8 48.32 4.44 49.21L4.515 49.27L4.755 49.09C4.855 49.01 4.96 48.97 5.07 48.97ZM27.234 54.055V55H14.994V54.055H18.324V51.355H16.794V47.335H24.294V45.175H16.719V44.215H25.434V48.25H17.934V50.41H25.824V51.355H23.904V54.055H27.234ZM19.434 54.055H22.794V51.355H19.434V54.055ZM39.578 45.31H35.393V44.35H44.888V45.31H40.733C40.733 45.8 40.678 46.24 40.568 46.63C40.458 47.02 40.273 47.39 40.013 47.74L40.058 47.755L40.343 47.545C40.463 47.435 40.603 47.38 40.763 47.38C40.863 47.38 40.973 47.41 41.093 47.47L45.488 49.945L44.858 50.83L40.343 48.19C40.183 48.11 40.043 48.07 39.923 48.07C39.823 48.07 39.733 48.095 39.653 48.145C39.263 48.565 38.728 48.995 38.048 49.435C37.368 49.875 36.483 50.355 35.393 50.875L34.778 50.035C36.028 49.445 36.993 48.91 37.673 48.43C38.363 47.94 38.848 47.455 39.128 46.975C39.418 46.485 39.568 45.93 39.578 45.31ZM46.253 54.04V55H34.013V54.04H39.563V50.8H40.703V54.04H46.253ZM61.067 49.555H58.907V56.515H57.767V43.495H58.907V48.595H61.067V49.555ZM52.862 48.715C52.992 48.715 53.102 48.77 53.192 48.88L56.117 52.63L55.247 53.395L52.307 49.54C52.277 49.48 52.227 49.45 52.157 49.45C52.107 49.45 52.057 49.48 52.007 49.54C51.747 50.12 51.397 50.72 50.957 51.34C50.517 51.95 49.922 52.7 49.172 53.59L48.302 52.855C49.172 51.865 49.837 51.02 50.297 50.32C50.767 49.61 51.102 48.9 51.302 48.19C51.512 47.48 51.617 46.665 51.617 45.745V44.335H52.772V45.73C52.772 46.92 52.597 48 52.247 48.97L52.322 49.015L52.547 48.835C52.657 48.755 52.762 48.715 52.862 48.715Z" fill="white"/>
</svg>
