<svg width="238" height="60" viewBox="0 0 238 60" fill="none" xmlns="http://www.w3.org/2000/svg">
<path d="M21.178 4.003H22.166V15.287H21.178V4.003ZM13.001 12.18C14.197 11.5647 15.1113 11.0013 15.744 10.49C16.3767 9.97867 16.8187 9.437 17.07 8.865C17.33 8.293 17.46 7.58667 17.46 6.746V5.771H13.326V4.926H18.448V6.733C18.448 7.695 18.3007 8.50967 18.006 9.177C17.72 9.84433 17.2303 10.4683 16.537 11.049C15.8523 11.621 14.8687 12.2493 13.586 12.934L13.001 12.18ZM35.3428 10.347V11.192H24.7348V10.347H29.5448V9.034H26.3078V4.25H27.2828V5.823H32.8078V4.25H33.7698V9.034H30.5328V10.347H35.3428ZM27.2828 8.215H32.8078V6.642H27.2828V8.215ZM27.2438 14.741H33.9778V15.56H26.9058C26.6978 15.56 26.5375 15.5037 26.4248 15.391C26.3122 15.2783 26.2558 15.1137 26.2558 14.897V12.219H27.2438V14.741ZM46.7126 4.003V10.841H45.7246V7.708H43.3586V6.902H45.7246V4.003H46.7126ZM38.0026 10.555L37.2616 9.931C37.9896 9.333 38.553 8.82167 38.9516 8.397C39.3503 7.96367 39.6363 7.539 39.8096 7.123C39.9916 6.707 40.0826 6.23467 40.0826 5.706V5.563H37.5996V4.731H43.5276V5.563H41.0706V5.758C41.0706 6.49467 40.919 7.149 40.6156 7.721L40.6936 7.76L40.9016 7.617C40.997 7.539 41.0923 7.5 41.1876 7.5C41.3003 7.5 41.4 7.539 41.4866 7.617L43.9046 9.697L43.1766 10.347L40.7196 8.176C40.6503 8.124 40.5853 8.098 40.5246 8.098C40.4553 8.098 40.3946 8.124 40.3426 8.176C40.1173 8.514 39.827 8.86067 39.4716 9.216C39.1163 9.56267 38.6266 10.009 38.0026 10.555ZM39.2636 11.543H46.7126V15.859H45.7376V12.375H39.2636V11.543ZM50.4255 7.539C50.4255 6.95833 50.5728 6.43833 50.8675 5.979C51.1708 5.511 51.6301 5.13833 52.2455 4.861C52.8608 4.58367 53.6191 4.445 54.5205 4.445C55.4218 4.445 56.1801 4.58367 56.7955 4.861C57.4108 5.13833 57.8658 5.511 58.1605 5.979C58.4638 6.43833 58.6155 6.95833 58.6155 7.539C58.6155 8.11967 58.4638 8.644 58.1605 9.112C57.8658 9.58 57.4108 9.95267 56.7955 10.23C56.1801 10.5073 55.4218 10.646 54.5205 10.646C53.6191 10.646 52.8608 10.5073 52.2455 10.23C51.6301 9.95267 51.1708 9.58 50.8675 9.112C50.5728 8.644 50.4255 8.11967 50.4255 7.539ZM57.5495 7.695V7.396C57.5495 6.99733 57.4411 6.63767 57.2245 6.317C57.0165 5.98767 56.6828 5.72767 56.2235 5.537C55.7728 5.33767 55.2051 5.238 54.5205 5.238C53.8358 5.238 53.2638 5.33767 52.8045 5.537C52.3538 5.72767 52.0201 5.98767 51.8035 6.317C51.5955 6.63767 51.4915 6.99733 51.4915 7.396V7.695C51.4915 8.31033 51.7428 8.82167 52.2455 9.229C52.7481 9.63633 53.5065 9.84 54.5205 9.84C55.5345 9.84 56.2928 9.63633 56.7955 9.229C57.2981 8.82167 57.5495 8.31033 57.5495 7.695ZM49.2165 13.155H59.8245V14H49.2165V13.155ZM72.0653 13.168V14H61.4573V13.168H66.2673V10.945H63.0173V7.422H69.5173V5.511H62.9523V4.692H70.5053V8.215H64.0053V10.126H70.8433V10.945H67.2553V13.168H72.0653ZM89.5945 12.674H88.6065V4.003H89.5945V12.674ZM87.7225 10.763C86.7345 10.919 85.5558 11.036 84.1865 11.114C82.8258 11.192 81.4305 11.231 80.0005 11.231L79.9095 10.412C81.1055 10.412 82.1671 10.3947 83.0945 10.36V8.982C82.3318 8.91267 81.7208 8.67867 81.2615 8.28C80.8021 7.87267 80.5725 7.35267 80.5725 6.72C80.5725 6.26067 80.6981 5.85767 80.9495 5.511C81.2095 5.16433 81.5648 4.9 82.0155 4.718C82.4748 4.52733 82.9948 4.432 83.5755 4.432C84.1561 4.432 84.6761 4.52733 85.1355 4.718C85.5948 4.9 85.9501 5.16433 86.2015 5.511C86.4615 5.85767 86.5915 6.26067 86.5915 6.72C86.5915 7.36133 86.3575 7.88133 85.8895 8.28C85.4301 8.67867 84.8191 8.91267 84.0565 8.982V10.308C85.4951 10.2387 86.6868 10.1303 87.6315 9.983L87.7225 10.763ZM83.5755 8.254C84.1821 8.254 84.6675 8.12833 85.0315 7.877C85.4041 7.617 85.5905 7.27033 85.5905 6.837V6.616C85.5905 6.18267 85.4041 5.84033 85.0315 5.589C84.6675 5.329 84.1821 5.199 83.5755 5.199C82.9775 5.199 82.4921 5.329 82.1195 5.589C81.7555 5.84033 81.5735 6.18267 81.5735 6.616V6.837C81.5735 7.27033 81.7555 7.617 82.1195 7.877C82.4921 8.12833 82.9775 8.254 83.5755 8.254ZM89.8285 14.715V15.534H82.9255C82.7175 15.534 82.5571 15.4777 82.4445 15.365C82.3318 15.2523 82.2755 15.0877 82.2755 14.871V12.128H83.2635V14.715H89.8285ZM102.706 9.931V10.776H92.0983V9.931H96.9213V8.54H97.0903L95.4783 7.084C95.4263 7.032 95.357 7.006 95.2703 7.006C95.201 7.006 95.1316 7.032 95.0623 7.084C94.6983 7.56933 94.0656 8.14133 93.1643 8.8L92.5663 8.163C93.3983 7.617 93.9833 7.11433 94.3213 6.655C94.6593 6.187 94.837 5.67133 94.8543 5.108H92.9823V4.328H97.1553V5.108H95.7643C95.7643 5.68867 95.6343 6.213 95.3743 6.681L95.4133 6.707L95.5953 6.564C95.6906 6.486 95.7816 6.447 95.8683 6.447C95.9376 6.447 96.02 6.47733 96.1153 6.538L97.4673 7.734C98.0566 7.27467 98.464 6.85433 98.6893 6.473C98.9233 6.09167 99.0446 5.63667 99.0533 5.108H97.6493V4.328H101.822V5.108H99.9503C99.9503 5.71467 99.8246 6.252 99.5733 6.72L99.6123 6.733L99.7943 6.59C99.8896 6.512 99.985 6.473 100.08 6.473C100.167 6.473 100.245 6.50333 100.314 6.564L102.225 8.124L101.601 8.774L99.6513 7.11C99.5906 7.058 99.5256 7.032 99.4563 7.032C99.3783 7.032 99.3133 7.058 99.2613 7.11C98.9666 7.5 98.4683 7.97667 97.7663 8.54H97.8963V9.931H102.706ZM93.5673 11.946H101.133V15.807H100.145V12.752H93.5673V11.946ZM121.106 13.168V14H110.498V13.168H115.308V10.165H112.032V4.77H119.611V5.615H113.02V9.32H119.728V10.165H116.296V13.168H121.106ZM132.424 4.003V15.287H131.449V8.618H129.044V7.786H131.449V4.003H132.424ZM126.795 8.553C126.899 8.553 126.99 8.60067 127.068 8.696L129.616 11.946L128.862 12.609L126.314 9.255C126.28 9.21167 126.236 9.19 126.184 9.19C126.132 9.19 126.089 9.21167 126.054 9.255C125.838 9.75767 125.539 10.2733 125.157 10.802C124.776 11.3307 124.256 11.9893 123.597 12.778L122.843 12.141C123.597 11.283 124.174 10.5507 124.572 9.944C124.98 9.32867 125.27 8.71333 125.443 8.098C125.625 7.48267 125.716 6.77633 125.716 5.979V4.757H126.704V5.966C126.704 7.01467 126.561 7.95067 126.275 8.774L126.327 8.813L126.509 8.657C126.605 8.58767 126.7 8.553 126.795 8.553ZM145.003 4.003V15.287H144.054V4.003H145.003ZM141.493 4.198H142.416V14.975H141.493V9.06H140.245C140.202 10.1867 139.95 11.036 139.491 11.608C139.032 12.1713 138.425 12.453 137.671 12.453C136.865 12.453 136.228 12.141 135.76 11.517C135.292 10.8843 135.058 9.944 135.058 8.696C135.058 7.448 135.292 6.512 135.76 5.888C136.228 5.25533 136.865 4.939 137.671 4.939C138.416 4.939 139.014 5.21633 139.465 5.771C139.924 6.32567 140.184 7.149 140.245 8.241H141.493V4.198ZM139.257 8.072C139.257 7.30933 139.11 6.72867 138.815 6.33C138.529 5.93133 138.148 5.732 137.671 5.732C137.186 5.732 136.796 5.93133 136.501 6.33C136.215 6.72867 136.072 7.30933 136.072 8.072V9.333C136.072 10.087 136.215 10.6677 136.501 11.075C136.796 11.4737 137.186 11.673 137.671 11.673C138.148 11.673 138.529 11.4737 138.815 11.075C139.11 10.6677 139.257 10.087 139.257 9.333V8.072ZM164.326 7.812V8.644H162.61V12.674H161.635V4.003H162.61V7.812H164.326ZM158.814 5.602H154.004V4.783H159.776V5.615C159.776 6.71567 159.638 7.838 159.36 8.982L158.424 8.839C158.676 7.903 158.806 6.889 158.814 5.797V5.602ZM160.738 10.529C159.776 10.685 158.628 10.8063 157.293 10.893C155.959 10.971 154.581 11.01 153.159 11.01L153.068 10.178C153.987 10.178 154.901 10.165 155.811 10.139V7.604H156.773V10.1C158.394 10.0307 159.685 9.918 160.647 9.762L160.738 10.529ZM156.357 14.715H162.844V15.534H156.019C155.811 15.534 155.651 15.4777 155.538 15.365C155.426 15.2523 155.369 15.0877 155.369 14.871V12.128H156.357V14.715ZM176.58 7.864V8.696H174.773V12.7H173.785V4.003H174.773V7.864H176.58ZM170.808 5.186H167.337V4.354H170.808V5.186ZM168.988 11.348C168.451 11.348 167.978 11.257 167.571 11.075C167.164 10.893 166.847 10.6417 166.622 10.321C166.405 10.0003 166.297 9.63633 166.297 9.229C166.297 8.82167 166.392 8.46633 166.583 8.163C166.782 7.851 167.077 7.61267 167.467 7.448V7.383H165.439V6.564H172.485V7.383H170.509V7.448C170.899 7.61267 171.189 7.851 171.38 8.163C171.579 8.46633 171.679 8.82167 171.679 9.229C171.679 9.63633 171.566 10.0003 171.341 10.321C171.124 10.6417 170.812 10.893 170.405 11.075C169.998 11.257 169.525 11.348 168.988 11.348ZM168.884 10.516H169.105C169.59 10.516 169.985 10.386 170.288 10.126C170.6 9.85733 170.756 9.48467 170.756 9.008C170.756 8.53133 170.604 8.15867 170.301 7.89C169.998 7.62133 169.599 7.487 169.105 7.487H168.884C168.39 7.487 167.991 7.62133 167.688 7.89C167.385 8.15 167.233 8.52267 167.233 9.008C167.233 9.48467 167.385 9.85733 167.688 10.126C168 10.386 168.399 10.516 168.884 10.516ZM168.676 14.78H175.033V15.599H168.338C168.13 15.599 167.97 15.5427 167.857 15.43C167.744 15.3173 167.688 15.1527 167.688 14.936V12.336H168.676V14.78ZM193.043 8.722H185.607V4.354H193.043V8.722ZM192.068 5.16H186.582V7.916H192.068V5.16ZM194.629 10.022V10.867H189.884V13.246H188.896V10.867H184.021V10.022H194.629ZM186.491 14.78H193.251V15.599H186.166C185.958 15.599 185.798 15.5427 185.685 15.43C185.573 15.3173 185.516 15.1527 185.516 14.936V12.167H186.491V14.78ZM207.221 6.915V7.747H205.414V10.789H204.426V4.003H205.414V6.915H207.221ZM197.042 10.386L196.314 9.762C197.042 9.19 197.606 8.696 198.004 8.28C198.403 7.85533 198.689 7.43933 198.862 7.032C199.044 6.62467 199.135 6.161 199.135 5.641V5.524H196.652V4.705H202.593V5.524H200.123V5.693C200.123 6.40367 199.972 7.04067 199.668 7.604L199.746 7.656L199.941 7.5C200.037 7.43067 200.128 7.396 200.214 7.396C200.318 7.396 200.422 7.43933 200.526 7.526L202.957 9.541L202.229 10.178L199.759 8.072C199.699 8.02 199.634 7.994 199.564 7.994C199.512 7.994 199.456 8.01567 199.395 8.059C199.153 8.397 198.845 8.748 198.472 9.112C198.1 9.476 197.623 9.90067 197.042 10.386ZM205.505 13.48C205.505 13.948 205.371 14.364 205.102 14.728C204.834 15.1007 204.431 15.391 203.893 15.599C203.356 15.8157 202.697 15.924 201.917 15.924C201.146 15.924 200.487 15.8157 199.941 15.599C199.404 15.391 198.997 15.1007 198.719 14.728C198.451 14.364 198.316 13.948 198.316 13.48C198.316 13.012 198.451 12.596 198.719 12.232C198.997 11.8593 199.404 11.569 199.941 11.361C200.487 11.1443 201.146 11.036 201.917 11.036C202.697 11.036 203.356 11.1443 203.893 11.361C204.431 11.569 204.834 11.8593 205.102 12.232C205.371 12.596 205.505 13.012 205.505 13.48ZM204.478 13.376C204.478 12.934 204.266 12.5657 203.841 12.271C203.417 11.9677 202.775 11.816 201.917 11.816C201.059 11.816 200.418 11.9677 199.993 12.271C199.569 12.5657 199.356 12.934 199.356 13.376V13.597C199.356 14.0303 199.569 14.3943 199.993 14.689C200.418 14.9923 201.059 15.144 201.917 15.144C202.775 15.144 203.417 14.9923 203.841 14.689C204.266 14.3943 204.478 14.0303 204.478 13.597V13.376ZM209.907 6.083C209.907 5.45033 210.232 4.94767 210.882 4.575C211.532 4.19367 212.507 4.003 213.807 4.003C215.107 4.003 216.082 4.19367 216.732 4.575C217.382 4.94767 217.707 5.45033 217.707 6.083C217.707 6.71567 217.382 7.22267 216.732 7.604C216.082 7.98533 215.107 8.176 213.807 8.176C212.507 8.176 211.532 7.98533 210.882 7.604C210.232 7.22267 209.907 6.71567 209.907 6.083ZM216.654 6.148V6.005C216.654 5.63233 216.416 5.329 215.939 5.095C215.471 4.85233 214.76 4.731 213.807 4.731C212.854 4.731 212.139 4.85233 211.662 5.095C211.194 5.329 210.96 5.63233 210.96 6.005V6.148C210.96 6.52067 211.194 6.82833 211.662 7.071C212.139 7.305 212.854 7.422 213.807 7.422C214.76 7.422 215.471 7.305 215.939 7.071C216.416 6.82833 216.654 6.52067 216.654 6.148ZM219.111 9.073V9.905H208.503V9.073H219.111ZM210.154 15.157V13.025H216.563V11.803H210.076V10.997H217.512V13.779H211.103V15.014H217.85V15.82H210.804C210.596 15.82 210.436 15.7637 210.323 15.651C210.21 15.5383 210.154 15.3737 210.154 15.157ZM236.926 4.003V15.287H235.977V4.003H236.926ZM233.39 4.198H234.313V14.975H233.39V8.761H231.583V7.942H233.39V4.198ZM230.231 8.904C230.335 8.904 230.435 8.96467 230.53 9.086L232.597 11.985L231.895 12.583L229.815 9.593C229.772 9.541 229.729 9.515 229.685 9.515C229.642 9.515 229.607 9.541 229.581 9.593C229.399 10.0437 229.148 10.5117 228.827 10.997C228.515 11.4737 228.091 12.063 227.553 12.765L226.864 12.18C227.497 11.374 227.982 10.6807 228.32 10.1C228.658 9.51067 228.901 8.93 229.048 8.358C229.196 7.77733 229.269 7.11867 229.269 6.382V6.005H227.137V5.173H232.298V6.005H230.205V6.382C230.205 7.38733 230.067 8.28 229.789 9.06L229.854 9.099L229.984 8.995C230.08 8.93433 230.162 8.904 230.231 8.904ZM20.554 25.199H13.911V24.367H21.516V25.004C21.516 26.1393 21.3817 27.3007 21.113 28.488L20.177 28.358C20.4197 27.3353 20.5453 26.2823 20.554 25.199ZM23.102 29.398V30.256H12.494V29.398H16.849V27.149H17.824V29.398H23.102ZM21.646 33.662C21.646 34.1127 21.4987 34.5113 21.204 34.858C20.918 35.2133 20.4847 35.4907 19.904 35.69C19.332 35.8893 18.63 35.989 17.798 35.989C16.966 35.989 16.2597 35.8893 15.679 35.69C15.107 35.4907 14.6737 35.2133 14.379 34.858C14.093 34.5113 13.95 34.1127 13.95 33.662C13.95 33.2113 14.093 32.8127 14.379 32.466C14.6737 32.1193 15.107 31.8463 15.679 31.647C16.2597 31.4477 16.966 31.348 17.798 31.348C18.63 31.348 19.332 31.4477 19.904 31.647C20.4847 31.8463 20.918 32.1193 21.204 32.466C21.4987 32.8127 21.646 33.2113 21.646 33.662ZM20.606 33.571C20.606 33.1637 20.372 32.8213 19.904 32.544C19.4447 32.2667 18.7427 32.128 17.798 32.128C16.862 32.128 16.1557 32.2667 15.679 32.544C15.211 32.8213 14.977 33.1637 14.977 33.571V33.766C14.977 34.1647 15.211 34.5027 15.679 34.78C16.1557 35.0573 16.862 35.196 17.798 35.196C18.7427 35.196 19.4447 35.0573 19.904 34.78C20.372 34.5027 20.606 34.1647 20.606 33.766V33.571ZM35.6808 29.489H33.8478V35.313H32.8598V24.029H33.8478V28.657H35.6808V29.489ZM30.0908 25.485H26.3988V24.64H30.0908V25.485ZM24.6698 27.045H31.6248V27.851H29.7008V27.929C30.4895 28.319 30.8838 29.0687 30.8838 30.178C30.8838 30.7413 30.7668 31.231 30.5328 31.647C30.2988 32.0543 29.9738 32.3663 29.5578 32.583C29.1505 32.7997 28.6955 32.908 28.1928 32.908C27.6902 32.908 27.2308 32.7997 26.8148 32.583C26.4075 32.3663 26.0868 32.0543 25.8528 31.647C25.6188 31.231 25.5018 30.7413 25.5018 30.178C25.5018 29.0687 25.8962 28.319 26.6848 27.929V27.851H24.6698V27.045ZM29.9218 29.749C29.9218 29.1683 29.7658 28.7263 29.4538 28.423C29.1418 28.111 28.7215 27.955 28.1928 27.955C27.6728 27.955 27.2525 28.111 26.9318 28.423C26.6198 28.735 26.4638 29.177 26.4638 29.749V30.282C26.4638 30.8453 26.6242 31.2873 26.9448 31.608C27.2655 31.92 27.6815 32.076 28.1928 32.076C28.7042 32.076 29.1202 31.92 29.4408 31.608C29.7615 31.2873 29.9218 30.8453 29.9218 30.282V29.749ZM46.6736 24.003V35.287H45.6986V30.477H42.8646V32.141H37.5736V24.9H42.8646V26.499H45.6986V24.003H46.6736ZM41.9156 25.706H38.5226V31.335H41.9156V25.706ZM45.6986 29.658V27.305H42.8646V29.658H45.6986ZM65.9838 33.168V34H55.3758V33.168H60.1858V30.581C59.3885 30.529 58.7212 30.3643 58.1838 30.087C57.6465 29.801 57.2435 29.437 56.9748 28.995C56.7148 28.5443 56.5848 28.046 56.5848 27.5C56.5848 26.9193 56.7322 26.3993 57.0268 25.94C57.3302 25.472 57.7895 25.1037 58.4048 24.835C59.0202 24.5577 59.7785 24.419 60.6798 24.419C61.5812 24.419 62.3395 24.5577 62.9548 24.835C63.5702 25.1037 64.0252 25.472 64.3198 25.94C64.6232 26.3993 64.7748 26.9193 64.7748 27.5C64.7748 28.046 64.6405 28.5443 64.3718 28.995C64.1118 29.437 63.7132 29.801 63.1758 30.087C62.6385 30.3643 61.9712 30.529 61.1738 30.581V33.168H65.9838ZM60.6798 29.788C61.6938 29.788 62.4522 29.5843 62.9548 29.177C63.4575 28.7697 63.7088 28.2583 63.7088 27.643V27.357C63.7088 26.7417 63.4575 26.2303 62.9548 25.823C62.4522 25.4157 61.6938 25.212 60.6798 25.212C59.6658 25.212 58.9075 25.4157 58.4048 25.823C57.9022 26.2303 57.6508 26.7417 57.6508 27.357V27.643C57.6508 28.2583 57.9022 28.7697 58.4048 29.177C58.9075 29.5843 59.6658 29.788 60.6798 29.788ZM75.5727 26.525V25.173H69.2027V24.354H76.5347V27.318H70.2297V28.67H76.8597V29.489H69.2677V26.525H75.5727ZM78.2247 30.659V31.504H67.6167V30.659H78.2247ZM69.1507 34.962V32.518H70.1257V34.806H76.8597V35.625H69.8007C69.5927 35.625 69.4323 35.5687 69.3197 35.456C69.207 35.3433 69.1507 35.1787 69.1507 34.962ZM90.4655 29.931V30.776H79.8575V29.931H84.6805V28.54H84.8495L83.2375 27.084C83.1855 27.032 83.1161 27.006 83.0295 27.006C82.9601 27.006 82.8908 27.032 82.8215 27.084C82.4575 27.5693 81.8248 28.1413 80.9235 28.8L80.3255 28.163C81.1575 27.617 81.7425 27.1143 82.0805 26.655C82.4185 26.187 82.5961 25.6713 82.6135 25.108H80.7415V24.328H84.9145V25.108H83.5235C83.5235 25.6887 83.3935 26.213 83.1335 26.681L83.1725 26.707L83.3545 26.564C83.4498 26.486 83.5408 26.447 83.6275 26.447C83.6968 26.447 83.7791 26.4773 83.8745 26.538L85.2265 27.734C85.8158 27.2747 86.2231 26.8543 86.4485 26.473C86.6825 26.0917 86.8038 25.6367 86.8125 25.108H85.4085V24.328H89.5815V25.108H87.7095C87.7095 25.7147 87.5838 26.252 87.3325 26.72L87.3715 26.733L87.5535 26.59C87.6488 26.512 87.7441 26.473 87.8395 26.473C87.9261 26.473 88.0041 26.5033 88.0735 26.564L89.9845 28.124L89.3605 28.774L87.4105 27.11C87.3498 27.058 87.2848 27.032 87.2155 27.032C87.1375 27.032 87.0725 27.058 87.0205 27.11C86.7258 27.5 86.2275 27.9767 85.5255 28.54H85.6555V29.931H90.4655ZM81.3265 31.946H88.8925V35.807H87.9045V32.752H81.3265V31.946ZM108.866 33.168V34H98.2577V33.168H103.068V30.165H99.7917V24.77H107.371V25.615H100.78V29.32H107.488V30.165H104.056V33.168H108.866ZM120.183 24.003V35.287H119.208V28.618H116.803V27.786H119.208V24.003H120.183ZM114.554 28.553C114.658 28.553 114.749 28.6007 114.827 28.696L117.375 31.946L116.621 32.609L114.073 29.255C114.039 29.2117 113.995 29.19 113.943 29.19C113.891 29.19 113.848 29.2117 113.813 29.255C113.597 29.7577 113.298 30.2733 112.916 30.802C112.535 31.3307 112.015 31.9893 111.356 32.778L110.602 32.141C111.356 31.283 111.933 30.5507 112.331 29.944C112.739 29.3287 113.029 28.7133 113.202 28.098C113.384 27.4827 113.475 26.7763 113.475 25.979V24.757H114.463V25.966C114.463 27.0147 114.32 27.9507 114.034 28.774L114.086 28.813L114.268 28.657C114.364 28.5877 114.459 28.553 114.554 28.553ZM130.682 26.031V24.913H124.338V24.185H131.631V26.746H125.365V27.851H131.956V28.592H124.403V26.031H130.682ZM133.347 29.567V30.334H122.739V29.567H133.347ZM124.364 35.196V33.233H130.838V32.141H124.286V31.374H131.761V33.961H125.287V35.079H132.099V35.859H125.014C124.806 35.859 124.646 35.8027 124.533 35.69C124.421 35.5773 124.364 35.4127 124.364 35.196ZM151.748 28.826V29.658H141.14V28.826H148.862C148.983 28.2887 149.074 27.7427 149.135 27.188L142.323 27.448L142.219 26.655L149.2 26.46C149.226 26.018 149.239 25.5587 149.239 25.082H142.596V24.289H150.214V25.186C150.214 26.4773 150.084 27.6907 149.824 28.826H151.748ZM143.74 35.014H150.487V35.82H143.441C143.233 35.82 143.072 35.7637 142.96 35.651C142.847 35.5383 142.791 35.3737 142.791 35.157V32.999H149.2V31.764H142.713V30.958H150.149V33.766H143.74V35.014ZM163.117 24.003V31.075H162.116V24.003H163.117ZM160.79 30.217C159.36 30.4943 157.614 30.633 155.551 30.633H154.199V27.175H158.229V25.433H154.147V24.627H159.204V27.968H155.161V29.827H155.551C157.545 29.827 159.248 29.697 160.66 29.437L160.79 30.217ZM155.668 31.764H163.117V35.859H162.142V32.596H155.668V31.764ZM176.567 29.489H174.734V35.313H173.746V24.029H174.734V28.657H176.567V29.489ZM170.977 25.485H167.285V24.64H170.977V25.485ZM165.556 27.045H172.511V27.851H170.587V27.929C171.376 28.319 171.77 29.0687 171.77 30.178C171.77 30.7413 171.653 31.231 171.419 31.647C171.185 32.0543 170.86 32.3663 170.444 32.583C170.037 32.7997 169.582 32.908 169.079 32.908C168.576 32.908 168.117 32.7997 167.701 32.583C167.294 32.3663 166.973 32.0543 166.739 31.647C166.505 31.231 166.388 30.7413 166.388 30.178C166.388 29.0687 166.782 28.319 167.571 27.929V27.851H165.556V27.045ZM170.808 29.749C170.808 29.1683 170.652 28.7263 170.34 28.423C170.028 28.111 169.608 27.955 169.079 27.955C168.559 27.955 168.139 28.111 167.818 28.423C167.506 28.735 167.35 29.177 167.35 29.749V30.282C167.35 30.8453 167.51 31.2873 167.831 31.608C168.152 31.92 168.568 32.076 169.079 32.076C169.59 32.076 170.006 31.92 170.327 31.608C170.648 31.2873 170.808 30.8453 170.808 30.282V29.749ZM186.611 29.19H184.219V28.384H186.611V26.616H184.219V25.81H186.611V24.003H187.599V32.57H186.611V29.19ZM183.777 30.269H178.46V24.731H183.777V30.269ZM182.802 25.55H179.435V29.45H182.802V25.55ZM187.833 34.715V35.534H181.021C180.813 35.534 180.653 35.4777 180.54 35.365C180.427 35.2523 180.371 35.0877 180.371 34.871V31.634H181.372V34.715H187.833ZM206.285 24.003V35.287H205.323V29.398H203.633V34.975H202.684V24.198H203.633V28.579H205.323V24.003H206.285ZM200.89 25.693H197.549V24.887H200.89V25.693ZM196.184 27.149H202.06V27.929H200.513V27.994C201.198 28.3667 201.54 29.073 201.54 30.113C201.54 30.9277 201.319 31.5647 200.877 32.024C200.444 32.4747 199.872 32.7 199.161 32.7C198.459 32.7 197.887 32.4747 197.445 32.024C197.012 31.5647 196.795 30.9277 196.795 30.113C196.795 29.073 197.133 28.3667 197.809 27.994V27.929H196.184V27.149ZM200.604 29.645C200.604 29.125 200.474 28.7263 200.214 28.449C199.954 28.1717 199.603 28.033 199.161 28.033C198.719 28.033 198.368 28.1717 198.108 28.449C197.857 28.7263 197.731 29.125 197.731 29.645V30.269C197.731 30.7803 197.861 31.179 198.121 31.465C198.39 31.751 198.737 31.894 199.161 31.894C199.586 31.894 199.933 31.751 200.201 31.465C200.47 31.179 200.604 30.7803 200.604 30.269V29.645ZM219.462 26.915V27.747H217.655V30.724H216.667V24.003H217.655V26.915H219.462ZM215.354 29.476C214.73 29.606 213.976 29.71 213.092 29.788C212.217 29.8573 211.281 29.892 210.284 29.892H208.958V24.614H214.106V25.446H209.946V29.086H210.297C211.233 29.086 212.13 29.0513 212.988 28.982C213.855 28.9127 214.6 28.8173 215.224 28.696L215.354 29.476ZM217.746 33.428C217.746 33.9047 217.612 34.3293 217.343 34.702C217.074 35.0833 216.671 35.3823 216.134 35.599C215.597 35.8157 214.938 35.924 214.158 35.924C213.387 35.924 212.728 35.8157 212.182 35.599C211.645 35.3823 211.237 35.0833 210.96 34.702C210.691 34.3293 210.557 33.9047 210.557 33.428C210.557 32.9513 210.691 32.5267 210.96 32.154C211.237 31.7727 211.645 31.4737 212.182 31.257C212.728 31.0403 213.387 30.932 214.158 30.932C214.938 30.932 215.597 31.0403 216.134 31.257C216.671 31.4737 217.074 31.7727 217.343 32.154C217.612 32.5267 217.746 32.9513 217.746 33.428ZM216.706 33.324C216.706 32.8733 216.494 32.4963 216.069 32.193C215.653 31.8897 215.016 31.738 214.158 31.738C213.309 31.738 212.672 31.894 212.247 32.206C211.822 32.5093 211.61 32.882 211.61 33.324V33.545C211.61 33.987 211.822 34.3597 212.247 34.663C212.672 34.975 213.309 35.131 214.158 35.131C215.016 35.131 215.653 34.975 216.069 34.663C216.494 34.3597 216.706 33.987 216.706 33.545V33.324ZM236.926 24.003V35.287H235.964V29.229H234.118V34.975H233.169V24.198H234.118V28.41H235.964V24.003H236.926ZM232.35 30.971L232.48 31.777C231.414 32.037 230.101 32.167 228.541 32.167H227.449V25.147H228.398V31.348H228.775C229.451 31.348 230.097 31.3177 230.712 31.257C231.336 31.1877 231.882 31.0923 232.35 30.971ZM23.102 49.71V50.542H12.494V49.71H15.315V48.176C14.8383 47.9767 14.4787 47.7167 14.236 47.396C14.002 47.0753 13.885 46.7113 13.885 46.304C13.885 45.628 14.2143 45.082 14.873 44.666C15.5317 44.2413 16.5067 44.029 17.798 44.029C19.0893 44.029 20.0643 44.2413 20.723 44.666C21.3817 45.082 21.711 45.628 21.711 46.304C21.711 46.7113 21.5897 47.0753 21.347 47.396C21.113 47.7167 20.7577 47.9767 20.281 48.176V49.71H23.102ZM17.798 47.812C18.76 47.812 19.4793 47.6777 19.956 47.409C20.4327 47.1403 20.671 46.798 20.671 46.382V46.2C20.671 45.7927 20.4283 45.4547 19.943 45.186C19.4663 44.9173 18.7513 44.783 17.798 44.783C16.8447 44.783 16.1297 44.9173 15.653 45.186C15.1763 45.4547 14.938 45.7927 14.938 46.2V46.382C14.938 46.798 15.172 47.1403 15.64 47.409C16.1167 47.6777 16.836 47.812 17.798 47.812ZM16.264 49.71H19.332V48.449C18.9073 48.5357 18.396 48.579 17.798 48.579C17.2 48.579 16.6887 48.5357 16.264 48.449V49.71ZM21.646 53.727C21.646 54.169 21.4987 54.559 21.204 54.897C20.918 55.235 20.4847 55.4993 19.904 55.69C19.332 55.8893 18.63 55.989 17.798 55.989C16.966 55.989 16.2597 55.8893 15.679 55.69C15.107 55.4993 14.6737 55.235 14.379 54.897C14.093 54.559 13.95 54.169 13.95 53.727C13.95 53.2937 14.093 52.9123 14.379 52.583C14.6737 52.245 15.107 51.9807 15.679 51.79C16.2597 51.5993 16.966 51.504 17.798 51.504C18.63 51.504 19.332 51.5993 19.904 51.79C20.4847 51.9807 20.918 52.245 21.204 52.583C21.4987 52.9123 21.646 53.2937 21.646 53.727ZM20.606 53.649C20.606 53.2677 20.372 52.947 19.904 52.687C19.4447 52.4183 18.7427 52.284 17.798 52.284C17.1653 52.284 16.6367 52.349 16.212 52.479C15.7873 52.6003 15.4753 52.765 15.276 52.973C15.0767 53.181 14.977 53.4063 14.977 53.649V53.831C14.977 54.0737 15.0767 54.299 15.276 54.507C15.4753 54.715 15.7873 54.8797 16.212 55.001C16.6367 55.131 17.1653 55.196 17.798 55.196C18.7427 55.196 19.4447 55.0617 19.904 54.793C20.372 54.533 20.606 54.2123 20.606 53.831V53.649ZM25.9438 47.539C25.9438 46.9583 26.0912 46.4383 26.3858 45.979C26.6892 45.511 27.1485 45.1383 27.7638 44.861C28.3792 44.5837 29.1375 44.445 30.0388 44.445C30.9402 44.445 31.6985 44.5837 32.3138 44.861C32.9292 45.1383 33.3842 45.511 33.6788 45.979C33.9822 46.4383 34.1338 46.9583 34.1338 47.539C34.1338 48.1197 33.9822 48.644 33.6788 49.112C33.3842 49.58 32.9292 49.9527 32.3138 50.23C31.6985 50.5073 30.9402 50.646 30.0388 50.646C29.1375 50.646 28.3792 50.5073 27.7638 50.23C27.1485 49.9527 26.6892 49.58 26.3858 49.112C26.0912 48.644 25.9438 48.1197 25.9438 47.539ZM33.0678 47.695V47.396C33.0678 46.9973 32.9595 46.6377 32.7428 46.317C32.5348 45.9877 32.2012 45.7277 31.7418 45.537C31.2912 45.3377 30.7235 45.238 30.0388 45.238C29.3542 45.238 28.7822 45.3377 28.3228 45.537C27.8722 45.7277 27.5385 45.9877 27.3218 46.317C27.1138 46.6377 27.0098 46.9973 27.0098 47.396V47.695C27.0098 48.3103 27.2612 48.8217 27.7638 49.229C28.2665 49.6363 29.0248 49.84 30.0388 49.84C31.0528 49.84 31.8112 49.6363 32.3138 49.229C32.8165 48.8217 33.0678 48.3103 33.0678 47.695ZM24.7348 53.155H35.3428V54H24.7348V53.155ZM47.5836 53.168V54H36.9756V53.168H41.7856V50.945H38.5356V47.422H45.0356V45.511H38.4706V44.692H46.0236V48.215H39.5236V50.126H46.3616V50.945H42.7736V53.168H47.5836ZM63.8847 49.281H62.0127V55.313H61.0247V44.029H62.0127V48.449H63.8847V49.281ZM57.6837 44.796H58.6327V52.245H53.3287V44.809H54.2907V47.656H57.6837V44.796ZM57.6837 48.488H54.2907V51.413H57.6837V48.488ZM74.9295 51.296H73.9545V44.003H74.9295V51.296ZM68.4295 49.216C67.5195 49.2507 66.4795 49.268 65.3095 49.268L65.2315 48.462C66.0895 48.462 66.7352 48.4577 67.1685 48.449C67.5152 47.4177 67.6842 46.408 67.6755 45.42V45.238H65.7125V44.471H68.5855V45.342C68.5855 46.4167 68.4252 47.4437 68.1045 48.423C69.1792 48.397 70.0979 48.3537 70.8605 48.293C71.1119 47.3397 71.2332 46.3733 71.2245 45.394V45.238H69.2615V44.471H72.1215V45.42C72.1215 46.3907 72.0089 47.3267 71.7835 48.228C72.2862 48.1847 72.6805 48.1413 72.9665 48.098L73.0445 48.852C72.0999 48.982 70.8822 49.0903 69.3915 49.177V51.283H68.4295V49.216ZM74.9425 51.881V55.755H68.2215C68.0135 55.755 67.8532 55.6987 67.7405 55.586C67.6279 55.4733 67.5715 55.3087 67.5715 55.092V51.881H74.9425ZM73.9545 52.674H68.5595V54.962H73.9545V52.674Z" fill="white"/>
<rect y="4" width="2" height="10" fill="white"/>
</svg>
