<svg width="86" height="61" viewBox="0 0 86 61" fill="none" xmlns="http://www.w3.org/2000/svg">
<path d="M0.978693 13V12.169L4.09943 8.75284C4.46567 8.35275 4.76728 8.00497 5.00426 7.70952C5.24124 7.41098 5.41667 7.13092 5.53054 6.86932C5.64749 6.60464 5.70597 6.32765 5.70597 6.03835C5.70597 5.70597 5.62595 5.41821 5.46591 5.17507C5.30895 4.93194 5.09351 4.7442 4.8196 4.61186C4.54569 4.47952 4.23793 4.41335 3.89631 4.41335C3.53314 4.41335 3.21615 4.48875 2.94531 4.63956C2.67756 4.78729 2.46982 4.99503 2.32209 5.26278C2.17744 5.53054 2.10511 5.84446 2.10511 6.20454H1.01562C1.01562 5.65057 1.14335 5.1643 1.39879 4.74574C1.65424 4.32718 2.00201 4.00095 2.44212 3.76704C2.8853 3.53314 3.38234 3.41619 3.93324 3.41619C4.48722 3.41619 4.9781 3.53314 5.4059 3.76704C5.83369 4.00095 6.16915 4.31641 6.41229 4.71342C6.65542 5.11044 6.77699 5.55208 6.77699 6.03835C6.77699 6.38613 6.7139 6.72621 6.58771 7.05859C6.46461 7.3879 6.24917 7.75568 5.94141 8.16193C5.63672 8.5651 5.21354 9.05753 4.67188 9.6392L2.5483 11.9105V11.9844H6.94318V13H0.978693ZM9.49979 13V12.169L12.6205 8.75284C12.9868 8.35275 13.2884 8.00497 13.5254 7.70952C13.7623 7.41098 13.9378 7.13092 14.0516 6.86932C14.1686 6.60464 14.2271 6.32765 14.2271 6.03835C14.2271 5.70597 14.147 5.41821 13.987 5.17507C13.83 4.93194 13.6146 4.7442 13.3407 4.61186C13.0668 4.47952 12.759 4.41335 12.4174 4.41335C12.0542 4.41335 11.7372 4.48875 11.4664 4.63956C11.1987 4.78729 10.9909 4.99503 10.8432 5.26278C10.6985 5.53054 10.6262 5.84446 10.6262 6.20454H9.53672C9.53672 5.65057 9.66444 5.1643 9.91989 4.74574C10.1753 4.32718 10.5231 4.00095 10.9632 3.76704C11.4064 3.53314 11.9034 3.41619 12.4543 3.41619C13.0083 3.41619 13.4992 3.53314 13.927 3.76704C14.3548 4.00095 14.6902 4.31641 14.9334 4.71342C15.1765 5.11044 15.2981 5.55208 15.2981 6.03835C15.2981 6.38613 15.235 6.72621 15.1088 7.05859C14.9857 7.3879 14.7703 7.75568 14.4625 8.16193C14.1578 8.5651 13.7346 9.05753 13.193 9.6392L11.0694 11.9105V11.9844H15.4643V13H9.49979ZM18.8334 13.0739C18.6056 13.0739 18.4102 12.9923 18.2471 12.8292C18.084 12.6661 18.0024 12.4706 18.0024 12.2429C18.0024 12.0152 18.084 11.8197 18.2471 11.6566C18.4102 11.4935 18.6056 11.4119 18.8334 11.4119C19.0611 11.4119 19.2566 11.4935 19.4197 11.6566C19.5828 11.8197 19.6643 12.0152 19.6643 12.2429C19.6643 12.3937 19.6259 12.5322 19.5489 12.6584C19.4751 12.7846 19.375 12.8861 19.2489 12.9631C19.1258 13.0369 18.9873 13.0739 18.8334 13.0739ZM25.0047 13.1293C24.3091 13.1293 23.7167 12.94 23.2273 12.5614C22.738 12.1798 22.3641 11.6274 22.1055 10.9041C21.847 10.1778 21.7178 9.30066 21.7178 8.27273C21.7178 7.25095 21.847 6.37843 22.1055 5.65518C22.3671 4.92886 22.7426 4.37488 23.232 3.99325C23.7244 3.60855 24.3153 3.41619 25.0047 3.41619C25.6941 3.41619 26.2835 3.60855 26.7728 3.99325C27.2652 4.37488 27.6407 4.92886 27.8992 5.65518C28.1608 6.37843 28.2916 7.25095 28.2916 8.27273C28.2916 9.30066 28.1624 10.1778 27.9038 10.9041C27.6453 11.6274 27.2714 12.1798 26.782 12.5614C26.2927 12.94 25.7002 13.1293 25.0047 13.1293ZM25.0047 12.1136C25.6941 12.1136 26.2296 11.7812 26.6112 11.1165C26.9929 10.4517 27.1837 9.50379 27.1837 8.27273C27.1837 7.45407 27.096 6.75698 26.9205 6.18146C26.7482 5.60594 26.4989 5.16738 26.1727 4.86577C25.8495 4.56416 25.4602 4.41335 25.0047 4.41335C24.3214 4.41335 23.7875 4.75035 23.4028 5.42436C23.0181 6.09529 22.8257 7.04474 22.8257 8.27273C22.8257 9.09138 22.9119 9.78693 23.0842 10.3594C23.2566 10.9318 23.5043 11.3673 23.8275 11.6658C24.1537 11.9644 24.5461 12.1136 25.0047 12.1136ZM30.4743 11.0611V10.1193L34.6291 3.54545H35.3124V5.00426H34.8507L31.7115 9.97159V10.0455H37.3067V11.0611H30.4743ZM34.9246 13V10.7749V10.3363V3.54545H36.0141V13H34.9246ZM40.0549 13.0739C39.8271 13.0739 39.6317 12.9923 39.4686 12.8292C39.3055 12.6661 39.2239 12.4706 39.2239 12.2429C39.2239 12.0152 39.3055 11.8197 39.4686 11.6566C39.6317 11.4935 39.8271 11.4119 40.0549 11.4119C40.2826 11.4119 40.478 11.4935 40.6412 11.6566C40.8043 11.8197 40.8858 12.0152 40.8858 12.2429C40.8858 12.3937 40.8474 12.5322 40.7704 12.6584C40.6966 12.7846 40.5965 12.8861 40.4703 12.9631C40.3472 13.0369 40.2087 13.0739 40.0549 13.0739ZM43.4724 13V12.169L46.5932 8.75284C46.9594 8.35275 47.261 8.00497 47.498 7.70952C47.735 7.41098 47.9104 7.13092 48.0243 6.86932C48.1412 6.60464 48.1997 6.32765 48.1997 6.03835C48.1997 5.70597 48.1197 5.41821 47.9597 5.17507C47.8027 4.93194 47.5873 4.7442 47.3134 4.61186C47.0394 4.47952 46.7317 4.41335 46.3901 4.41335C46.0269 4.41335 45.7099 4.48875 45.4391 4.63956C45.1713 4.78729 44.9636 4.99503 44.8158 5.26278C44.6712 5.53054 44.5989 5.84446 44.5989 6.20454H43.5094C43.5094 5.65057 43.6371 5.1643 43.8925 4.74574C44.148 4.32718 44.4958 4.00095 44.9359 3.76704C45.379 3.53314 45.8761 3.41619 46.427 3.41619C46.981 3.41619 47.4719 3.53314 47.8996 3.76704C48.3274 4.00095 48.6629 4.31641 48.906 4.71342C49.1492 5.11044 49.2707 5.55208 49.2707 6.03835C49.2707 6.38613 49.2076 6.72621 49.0815 7.05859C48.9584 7.3879 48.7429 7.75568 48.4352 8.16193C48.1305 8.5651 47.7073 9.05753 47.1656 9.6392L45.042 11.9105V11.9844H49.4369V13H43.4724ZM55.3174 3.54545V13H54.1725V4.74574H54.1171L51.8089 6.27841V5.11506L54.1725 3.54545H55.3174ZM58.9404 13.0739C58.7127 13.0739 58.5172 12.9923 58.3541 12.8292C58.191 12.6661 58.1094 12.4706 58.1094 12.2429C58.1094 12.0152 58.191 11.8197 58.3541 11.6566C58.5172 11.4935 58.7127 11.4119 58.9404 11.4119C59.1682 11.4119 59.3636 11.4935 59.5267 11.6566C59.6898 11.8197 59.7714 12.0152 59.7714 12.2429C59.7714 12.3937 59.7329 12.5322 59.656 12.6584C59.5821 12.7846 59.4821 12.8861 59.3559 12.9631C59.2328 13.0369 59.0943 13.0739 58.9404 13.0739ZM5.05966 24.4389V25.4545H0.923295V24.4389H5.05966ZM7.16385 29V28.169L10.2846 24.7528C10.6508 24.3527 10.9524 24.005 11.1894 23.7095C11.4264 23.411 11.6018 23.1309 11.7157 22.8693C11.8326 22.6046 11.8911 22.3277 11.8911 22.0384C11.8911 21.706 11.8111 21.4182 11.6511 21.1751C11.4941 20.9319 11.2787 20.7442 11.0048 20.6119C10.7308 20.4795 10.4231 20.4134 10.0815 20.4134C9.7183 20.4134 9.4013 20.4888 9.13047 20.6396C8.86271 20.7873 8.65497 20.995 8.50724 21.2628C8.36259 21.5305 8.29027 21.8445 8.29027 22.2045H7.20078C7.20078 21.6506 7.3285 21.1643 7.58395 20.7457C7.83939 20.3272 8.18717 20.0009 8.62727 19.767C9.07045 19.5331 9.5675 19.4162 10.1184 19.4162C10.6724 19.4162 11.1633 19.5331 11.5911 19.767C12.0188 20.0009 12.3543 20.3164 12.5974 20.7134C12.8406 21.1104 12.9621 21.5521 12.9621 22.0384C12.9621 22.3861 12.8991 22.7262 12.7729 23.0586C12.6498 23.3879 12.4343 23.7557 12.1266 24.1619C11.8219 24.5651 11.3987 25.0575 10.857 25.6392L8.73345 27.9105V27.9844H13.1283V29H7.16385ZM15.6849 29V28.169L18.8057 24.7528C19.1719 24.3527 19.4735 24.005 19.7105 23.7095C19.9475 23.411 20.1229 23.1309 20.2368 22.8693C20.3537 22.6046 20.4122 22.3277 20.4122 22.0384C20.4122 21.706 20.3322 21.4182 20.1722 21.1751C20.0152 20.9319 19.7998 20.7442 19.5259 20.6119C19.2519 20.4795 18.9442 20.4134 18.6026 20.4134C18.2394 20.4134 17.9224 20.4888 17.6516 20.6396C17.3838 20.7873 17.1761 20.995 17.0283 21.2628C16.8837 21.5305 16.8114 21.8445 16.8114 22.2045H15.7219C15.7219 21.6506 15.8496 21.1643 16.105 20.7457C16.3605 20.3272 16.7083 20.0009 17.1484 19.767C17.5915 19.5331 18.0886 19.4162 18.6395 19.4162C19.1935 19.4162 19.6844 19.5331 20.1121 19.767C20.5399 20.0009 20.8754 20.3164 21.1185 20.7134C21.3617 21.1104 21.4832 21.5521 21.4832 22.0384C21.4832 22.3861 21.4201 22.7262 21.294 23.0586C21.1709 23.3879 20.9554 23.7557 20.6477 24.1619C20.343 24.5651 19.9198 25.0575 19.3781 25.6392L17.2545 27.9105V27.9844H21.6494V29H15.6849ZM25.0185 29.0739C24.7908 29.0739 24.5954 28.9923 24.4322 28.8292C24.2691 28.6661 24.1876 28.4706 24.1876 28.2429C24.1876 28.0152 24.2691 27.8197 24.4322 27.6566C24.5954 27.4935 24.7908 27.4119 25.0185 27.4119C25.2463 27.4119 25.4417 27.4935 25.6048 27.6566C25.7679 27.8197 25.8495 28.0152 25.8495 28.2429C25.8495 28.3937 25.811 28.5322 25.7341 28.6584C25.6602 28.7846 25.5602 28.8861 25.434 28.9631C25.3109 29.0369 25.1724 29.0739 25.0185 29.0739ZM31.1898 29.1293C30.4943 29.1293 29.9018 28.94 29.4125 28.5614C28.9232 28.1798 28.5492 27.6274 28.2907 26.9041C28.0322 26.1778 27.9029 25.3007 27.9029 24.2727C27.9029 23.2509 28.0322 22.3784 28.2907 21.6552C28.5523 20.9289 28.9278 20.3749 29.4171 19.9933C29.9095 19.6085 30.5005 19.4162 31.1898 19.4162C31.8792 19.4162 32.4686 19.6085 32.958 19.9933C33.4504 20.3749 33.8259 20.9289 34.0844 21.6552C34.346 22.3784 34.4768 23.2509 34.4768 24.2727C34.4768 25.3007 34.3475 26.1778 34.089 26.9041C33.8305 27.6274 33.4565 28.1798 32.9672 28.5614C32.4778 28.94 31.8854 29.1293 31.1898 29.1293ZM31.1898 28.1136C31.8792 28.1136 32.4147 27.7812 32.7964 27.1165C33.178 26.4517 33.3688 25.5038 33.3688 24.2727C33.3688 23.4541 33.2811 22.757 33.1057 22.1815C32.9333 21.6059 32.684 21.1674 32.3578 20.8658C32.0347 20.5642 31.6453 20.4134 31.1898 20.4134C30.5066 20.4134 29.9726 20.7504 29.5879 21.4244C29.2032 22.0953 29.0109 23.0447 29.0109 24.2727C29.0109 25.0914 29.097 25.7869 29.2694 26.3594C29.4417 26.9318 29.6895 27.3673 30.0126 27.6658C30.3389 27.9644 30.7313 28.1136 31.1898 28.1136ZM36.6594 27.0611V26.1193L40.8143 19.5455H41.4975V21.0043H41.0359L37.8967 25.9716V26.0455H43.4918V27.0611H36.6594ZM41.1097 29V26.7749V26.3363V19.5455H42.1992V29H41.1097ZM46.24 29.0739C46.0123 29.0739 45.8168 28.9923 45.6537 28.8292C45.4906 28.6661 45.4091 28.4706 45.4091 28.2429C45.4091 28.0152 45.4906 27.8197 45.6537 27.6566C45.8168 27.4935 46.0123 27.4119 46.24 27.4119C46.4678 27.4119 46.6632 27.4935 46.8263 27.6566C46.9894 27.8197 47.071 28.0152 47.071 28.2429C47.071 28.3937 47.0325 28.5322 46.9556 28.6584C46.8817 28.7846 46.7817 28.8861 46.6555 28.9631C46.5324 29.0369 46.3939 29.0739 46.24 29.0739ZM52.4967 29.1293C51.8874 29.1293 51.3442 29.0246 50.8671 28.8153C50.3932 28.6061 50.0161 28.3152 49.7361 27.9428C49.4591 27.5674 49.3083 27.1319 49.2837 26.6364H50.447C50.4716 26.9411 50.5763 27.2042 50.7609 27.4258C50.9456 27.6443 51.1872 27.8136 51.4857 27.9336C51.7843 28.0536 52.1151 28.1136 52.4783 28.1136C52.8845 28.1136 53.2446 28.0429 53.5585 27.9013C53.8724 27.7597 54.1187 27.5627 54.2972 27.3104C54.4757 27.058 54.5649 26.7656 54.5649 26.4332C54.5649 26.0855 54.4787 25.7792 54.3064 25.5146C54.134 25.2468 53.8817 25.0375 53.5493 24.8867C53.2169 24.7359 52.8107 24.6605 52.3305 24.6605H51.5734V23.6449H52.3305C52.706 23.6449 53.0353 23.5772 53.3185 23.4418C53.6047 23.3063 53.8278 23.1155 53.9879 22.8693C54.151 22.6231 54.2325 22.3338 54.2325 22.0014C54.2325 21.6813 54.1617 21.4028 54.0202 21.1658C53.8786 20.9289 53.6786 20.7442 53.42 20.6119C53.1646 20.4795 52.863 20.4134 52.5152 20.4134C52.189 20.4134 51.8812 20.4734 51.5919 20.5934C51.3057 20.7103 51.0718 20.8812 50.8902 21.1058C50.7086 21.3274 50.6101 21.5952 50.5947 21.9091H49.4868C49.5053 21.4136 49.6545 20.9796 49.9346 20.6072C50.2147 20.2318 50.5809 19.9394 51.0333 19.7301C51.4888 19.5208 51.9889 19.4162 52.5337 19.4162C53.1184 19.4162 53.6201 19.5347 54.0386 19.7717C54.4572 20.0056 54.7788 20.3149 55.0035 20.6996C55.2281 21.0843 55.3405 21.4998 55.3405 21.946C55.3405 22.4785 55.2004 22.9324 54.9204 23.3079C54.6434 23.6834 54.2664 23.9434 53.7893 24.0881V24.1619C54.3864 24.2604 54.8527 24.5143 55.1881 24.9237C55.5236 25.3299 55.6913 25.8331 55.6913 26.4332C55.6913 26.9472 55.5513 27.4089 55.2712 27.8182C54.9942 28.2244 54.6157 28.5445 54.1356 28.7784C53.6555 29.0123 53.1092 29.1293 52.4967 29.1293ZM61.3133 29.1293C60.6177 29.1293 60.0253 28.94 59.5359 28.5614C59.0466 28.1798 58.6727 27.6274 58.4141 26.9041C58.1556 26.1778 58.0264 25.3007 58.0264 24.2727C58.0264 23.2509 58.1556 22.3784 58.4141 21.6552C58.6757 20.9289 59.0512 20.3749 59.5406 19.9933C60.033 19.6085 60.6239 19.4162 61.3133 19.4162C62.0027 19.4162 62.592 19.6085 63.0814 19.9933C63.5738 20.3749 63.9493 20.9289 64.2078 21.6552C64.4694 22.3784 64.6002 23.2509 64.6002 24.2727C64.6002 25.3007 64.471 26.1778 64.2124 26.9041C63.9539 27.6274 63.58 28.1798 63.0906 28.5614C62.6013 28.94 62.0088 29.1293 61.3133 29.1293ZM61.3133 28.1136C62.0027 28.1136 62.5382 27.7812 62.9198 27.1165C63.3014 26.4517 63.4923 25.5038 63.4923 24.2727C63.4923 23.4541 63.4045 22.757 63.2291 22.1815C63.0568 21.6059 62.8075 21.1674 62.4813 20.8658C62.1581 20.5642 61.7688 20.4134 61.3133 20.4134C60.63 20.4134 60.0961 20.7504 59.7114 21.4244C59.3267 22.0953 59.1343 23.0447 59.1343 24.2727C59.1343 25.0914 59.2205 25.7869 59.3928 26.3594C59.5652 26.9318 59.8129 27.3673 60.1361 27.6658C60.4623 27.9644 60.8547 28.1136 61.3133 28.1136ZM67.4869 29.0739C67.2591 29.0739 67.0637 28.9923 66.9006 28.8292C66.7375 28.6661 66.6559 28.4706 66.6559 28.2429C66.6559 28.0152 66.7375 27.8197 66.9006 27.6566C67.0637 27.4935 67.2591 27.4119 67.4869 27.4119C67.7146 27.4119 67.9101 27.4935 68.0732 27.6566C68.2363 27.8197 68.3179 28.0152 68.3179 28.2429C68.3179 28.3937 68.2794 28.5322 68.2024 28.6584C68.1286 28.7846 68.0286 28.8861 67.9024 28.9631C67.7793 29.0369 67.6408 29.0739 67.4869 29.0739Z" fill="white"/>
<path d="M1.32 55V53.89H4.245V45.46H4.14L1.5 47.92L0.765 47.125L3.54 44.53H5.505V53.89H8.205V55H1.32ZM23.2441 49.555H21.0841V56.515H19.9441V43.495H21.0841V48.595H23.2441V49.555ZM16.5391 45.055H12.5191V44.11H16.5391V45.055ZM15.1441 49.99C15.2641 49.99 15.3891 50.045 15.5191 50.155L18.4291 52.96L17.5891 53.695L14.6341 50.74C14.5741 50.68 14.5091 50.65 14.4391 50.65C14.3691 50.65 14.3091 50.68 14.2591 50.74C13.9891 51.19 13.6341 51.66 13.1941 52.15C12.7541 52.63 12.1691 53.205 11.4391 53.875L10.6141 53.17C11.4841 52.42 12.1541 51.77 12.6241 51.22C13.0941 50.66 13.4291 50.105 13.6291 49.555C13.8391 48.995 13.9441 48.36 13.9441 47.65V47.575H11.0041V46.63H18.0541V47.575H15.0691V47.68C15.0691 48.67 14.8891 49.525 14.5291 50.245L14.6041 50.29L14.8291 50.11C14.9391 50.03 15.0441 49.99 15.1441 49.99ZM40.8081 43.465V56.485H39.6831V49.135H37.2681V48.175H39.6831V43.465H40.8081ZM37.2981 45.475H30.0381V44.53H37.2981V45.475ZM37.8681 51.775L37.9881 52.675C36.9781 52.835 35.7531 52.955 34.3131 53.035C32.8731 53.115 31.3681 53.155 29.7981 53.155L29.6931 52.21L31.6731 52.195L31.2081 46.72L32.3331 46.615L32.6931 52.18L34.4931 52.09L34.9581 46.6L36.0681 46.705L35.5281 52.03C36.3981 51.97 37.1781 51.885 37.8681 51.775ZM46.9971 43.57V45.04H53.3721V43.57H54.4821V48.25H45.8721V43.57H46.9971ZM53.3721 45.91H46.9971V47.38H53.3721V45.91ZM56.2971 49.45V50.395H44.0571V49.45H56.2971ZM45.9621 56.335V53.905H53.3571V52.525H45.8721V51.61H54.4521V54.775H47.0421V56.17H54.8421V57.1H46.7121C46.4721 57.1 46.2871 57.035 46.1571 56.905C46.0271 56.775 45.9621 56.585 45.9621 56.335ZM69.6411 43.465V56.485H68.5011V43.465H69.6411ZM66.7911 51.925L66.9411 52.84C65.3911 53.14 63.4211 53.29 61.0311 53.29H59.4111V48.265H64.1361V45.415H59.3511V44.455H65.2761V49.21H60.5361V52.36H61.0161C63.2861 52.36 65.2111 52.215 66.7911 51.925ZM84.1402 51.22H82.9852V43.465H84.1402V51.22ZM76.9552 47.755C76.8852 47.755 76.8202 47.79 76.7602 47.86C76.5002 48.28 76.1602 48.715 75.7402 49.165C75.3202 49.605 74.7402 50.165 74.0002 50.845L73.1452 50.11C74.0052 49.36 74.6652 48.72 75.1252 48.19C75.5852 47.65 75.9152 47.12 76.1152 46.6C76.3252 46.07 76.4302 45.47 76.4302 44.8V43.975H77.5852V44.86C77.5852 45.81 77.4102 46.64 77.0602 47.35L77.1202 47.395L77.3752 47.185C77.4852 47.095 77.5902 47.05 77.6902 47.05C77.8102 47.05 77.9152 47.1 78.0052 47.2L80.9002 49.825L80.0752 50.62L77.1652 47.845C77.1052 47.785 77.0352 47.755 76.9552 47.755ZM84.2152 54.34C84.2152 54.89 84.0552 55.38 83.7352 55.81C83.4252 56.25 82.9552 56.595 82.3252 56.845C81.6952 57.095 80.9252 57.22 80.0152 57.22C79.1052 57.22 78.3302 57.095 77.6902 56.845C77.0602 56.595 76.5852 56.25 76.2652 55.81C75.9552 55.38 75.8002 54.89 75.8002 54.34C75.8002 53.79 75.9552 53.3 76.2652 52.87C76.5852 52.43 77.0602 52.085 77.6902 51.835C78.3302 51.585 79.1052 51.46 80.0152 51.46C80.9252 51.46 81.6952 51.585 82.3252 51.835C82.9552 52.085 83.4252 52.43 83.7352 52.87C84.0552 53.3 84.2152 53.79 84.2152 54.34ZM83.0002 54.22C83.0002 53.7 82.7502 53.265 82.2502 52.915C81.7602 52.565 81.0152 52.39 80.0152 52.39C79.0152 52.39 78.2652 52.57 77.7652 52.93C77.2652 53.28 77.0152 53.71 77.0152 54.22V54.475C77.0152 54.985 77.2652 55.415 77.7652 55.765C78.2652 56.125 79.0152 56.305 80.0152 56.305C81.0152 56.305 81.7602 56.125 82.2502 55.765C82.7502 55.415 83.0002 54.985 83.0002 54.475V54.22Z" fill="white"/>
</svg>
