<svg width="165" height="15" viewBox="0 0 165 15" fill="none" xmlns="http://www.w3.org/2000/svg">
<path d="M5.505 1.81H4.275V4.225C4.275 6.715 2.745 9.31 0.795 10.285L1.545 11.26C3.06 10.45 4.305 8.755 4.89 6.76C5.505 8.65 6.735 10.255 8.265 11.02L8.985 10.045C7.035 9.115 5.505 6.67 5.505 4.225V1.81ZM10.65 0.655V5.215H7.53V6.22H10.65V14.125H11.88V0.655H10.65ZM14.5938 11.305V12.325H26.7888V11.305H14.5938ZM16.0338 1.63V8.635H25.3188V1.63H24.1188V4.09H17.2488V1.63H16.0338ZM17.2488 5.08H24.1188V7.63H17.2488V5.08ZM34.5371 10.12H33.3071V13.81H42.5621V12.805H34.5371V10.12ZM36.1421 2.26H39.4871V5.32H36.1421V2.26ZM38.4521 7.945V6.31H42.6971V5.32H40.7171V2.26H42.7421V1.27H32.8721V2.26H34.9121V5.32H32.9171V6.31H37.2221V7.945H31.7321V8.935H43.8971V7.945H38.4521ZM56.346 7.915H48.351V5.785H55.911V4.81H48.351V2.815H56.211V1.825H47.106V8.905H56.346V7.915ZM45.531 11.365V12.37H57.741V11.365H45.531ZM66.0498 11.44V8.905H70.3548V7.915H62.0748V5.74H70.0398V1.645H60.8298V2.65H68.8398V4.75H60.8598V8.905H64.8048V11.44H59.3298V12.445H71.5548V11.44H66.0498ZM78.2081 6.73H82.1231V5.755H78.2081V3.205H82.3331V2.2H77.0231V10.78H77.9081C80.0831 10.78 81.3731 10.735 82.9331 10.435L82.8131 9.415C81.3731 9.7 80.1731 9.76 78.2081 9.76V6.73ZM86.7581 0.655V6.055H84.9731V0.955H83.8031V13.45H84.9731V7.06H86.7581V14.11H87.9281V0.655H86.7581ZM99.627 3.43C99.627 5.095 99.627 7.105 99.087 9.85L100.317 9.985C100.842 7.075 100.842 5.14 100.842 3.43V2.08H91.617V3.085H99.627V3.43ZM90.312 11.125V12.145H102.477V11.125H90.312ZM118.205 4.78H110.21V2.185H118.115V1.195H108.98V5.77H118.205V4.78ZM113.525 13.135C111.41 13.135 110.165 12.61 110.165 11.665C110.165 10.72 111.41 10.195 113.525 10.195C115.64 10.195 116.885 10.72 116.885 11.665C116.885 12.61 115.625 13.135 113.525 13.135ZM113.525 9.235C110.66 9.235 108.92 10.105 108.92 11.665C108.92 13.225 110.66 14.095 113.525 14.095C116.39 14.095 118.13 13.225 118.13 11.665C118.13 10.105 116.39 9.235 113.525 9.235ZM107.45 7.06V8.08H119.63V7.06H107.45ZM124.294 10.015C123.214 10.015 122.539 8.65 122.539 6.445C122.539 4.285 123.214 2.92 124.294 2.92C125.344 2.92 126.034 4.285 126.034 6.445C126.034 8.65 125.344 10.015 124.294 10.015ZM128.839 5.89H127.144C126.994 3.355 125.914 1.78 124.294 1.78C122.539 1.78 121.414 3.58 121.414 6.445C121.414 9.355 122.539 11.155 124.294 11.155C125.944 11.155 127.039 9.535 127.144 6.895H128.839V13.45H130.009V0.955H128.839V5.89ZM131.509 0.655V14.11H132.679V0.655H131.509ZM142.917 1.825H141.702V4.24C141.702 6.685 140.172 9.265 138.237 10.255L138.972 11.245C140.487 10.435 141.732 8.755 142.317 6.79C142.932 8.635 144.147 10.21 145.572 10.975L146.337 10C144.447 9.055 142.917 6.61 142.917 4.24V1.825ZM150.972 6.115H148.752V0.67H147.522V14.11H148.752V7.135H150.972V6.115ZM158.276 13.15C156.161 13.15 154.916 12.625 154.916 11.71C154.916 10.795 156.161 10.27 158.276 10.27C160.376 10.27 161.636 10.795 161.636 11.71C161.636 12.625 160.376 13.15 158.276 13.15ZM158.276 9.31C155.396 9.31 153.671 10.165 153.671 11.71C153.671 13.255 155.396 14.095 158.276 14.095C161.171 14.095 162.881 13.255 162.881 11.71C162.881 10.165 161.171 9.31 158.276 9.31ZM156.416 5.74C156.971 5.83 157.601 5.89 158.276 5.89C158.966 5.89 159.596 5.83 160.151 5.74V7.315H156.416V5.74ZM154.811 3.4C154.811 2.425 156.131 1.855 158.276 1.855C160.421 1.855 161.741 2.425 161.741 3.4C161.741 4.36 160.421 4.945 158.276 4.945C156.131 4.945 154.811 4.36 154.811 3.4ZM161.366 7.315V5.41C162.401 4.99 163.001 4.3 163.001 3.4C163.001 1.825 161.201 0.894999 158.276 0.894999C155.366 0.894999 153.551 1.825 153.551 3.4C153.551 4.315 154.136 4.99 155.201 5.425V7.315H152.186V8.305H164.366V7.315H161.366Z" fill="#AAAAAA"/>
</svg>
