<svg width="185" height="15" viewBox="0 0 185 15" fill="none" xmlns="http://www.w3.org/2000/svg">
<path d="M0.14 2.535C0.14 2.115 0.22 1.835 0.38 1.695C0.54 1.545 0.84 1.47 1.28 1.47H4.865C5.105 1.47 5.295 1.485 5.435 1.515C5.585 1.545 5.7 1.6 5.78 1.68C5.87 1.76 5.93 1.87 5.96 2.01C5.99 2.15 6.005 2.325 6.005 2.535V5.43H7.925V0.734999C7.925 0.594999 7.995 0.524999 8.135 0.524999H8.705C8.845 0.524999 8.915 0.594999 8.915 0.734999V13.32C8.915 13.46 8.845 13.53 8.705 13.53H8.135C7.995 13.53 7.925 13.46 7.925 13.32V6.33H6.005V9.03C6.005 9.45 5.925 9.735 5.765 9.885C5.605 10.025 5.305 10.095 4.865 10.095H1.28C1.04 10.095 0.845 10.08 0.695 10.05C0.555 10.02 0.44 9.965 0.35 9.885C0.27 9.795 0.215 9.685 0.185 9.555C0.155 9.415 0.14 9.24 0.14 9.03V2.535ZM1.535 2.37C1.395 2.37 1.3 2.4 1.25 2.46C1.2 2.51 1.175 2.61 1.175 2.76V8.805C1.175 8.955 1.2 9.06 1.25 9.12C1.3 9.17 1.395 9.195 1.535 9.195H4.61C4.75 9.195 4.845 9.17 4.895 9.12C4.945 9.06 4.97 8.955 4.97 8.805V2.76C4.97 2.61 4.945 2.51 4.895 2.46C4.845 2.4 4.75 2.37 4.61 2.37H1.535ZM11.57 13.89C11.57 14.03 11.5 14.1 11.36 14.1H10.79C10.65 14.1 10.58 14.03 10.58 13.89V0.48C10.58 0.339999 10.65 0.269999 10.79 0.269999H11.36C11.5 0.269999 11.57 0.339999 11.57 0.48V13.89ZM25.1814 10.05C25.1814 10.19 25.1114 10.26 24.9714 10.26H24.3564C24.2164 10.26 24.1464 10.19 24.1464 10.05V0.48C24.1464 0.339999 24.2164 0.269999 24.3564 0.269999H24.9714C25.1114 0.269999 25.1814 0.339999 25.1814 0.48V10.05ZM25.6314 13.65C25.6314 13.71 25.6064 13.755 25.5564 13.785C25.5064 13.815 25.4564 13.83 25.4064 13.83H17.8914C17.4214 13.83 17.1114 13.74 16.9614 13.56C16.8214 13.39 16.7514 13.1 16.7514 12.69V9.75C16.7514 9.61 16.8214 9.54 16.9614 9.54H17.5764C17.7164 9.54 17.7864 9.61 17.7864 9.75V12.615C17.7864 12.755 17.8064 12.84 17.8464 12.87C17.8964 12.91 17.9914 12.93 18.1314 12.93H25.4064C25.4564 12.93 25.5064 12.945 25.5564 12.975C25.6064 13.015 25.6314 13.06 25.6314 13.11V13.65ZM21.5064 4.425C21.5064 4.945 21.4164 5.425 21.2364 5.865C21.0564 6.295 20.8064 6.665 20.4864 6.975C20.1664 7.285 19.7864 7.53 19.3464 7.71C18.9164 7.88 18.4464 7.965 17.9364 7.965C17.4464 7.965 16.9864 7.88 16.5564 7.71C16.1264 7.54 15.7514 7.3 15.4314 6.99C15.1214 6.67 14.8764 6.295 14.6964 5.865C14.5164 5.435 14.4264 4.955 14.4264 4.425C14.4264 3.875 14.5164 3.38 14.6964 2.94C14.8764 2.5 15.1214 2.125 15.4314 1.815C15.7514 1.505 16.1264 1.27 16.5564 1.11C16.9864 0.95 17.4464 0.869999 17.9364 0.869999C18.3964 0.869999 18.8414 0.95 19.2714 1.11C19.7014 1.27 20.0814 1.505 20.4114 1.815C20.7414 2.115 21.0064 2.485 21.2064 2.925C21.4064 3.365 21.5064 3.865 21.5064 4.425ZM20.4564 4.41C20.4564 3.99 20.3864 3.62 20.2464 3.3C20.1164 2.97 19.9364 2.7 19.7064 2.49C19.4764 2.27 19.2064 2.105 18.8964 1.995C18.5964 1.885 18.2764 1.83 17.9364 1.83C17.5864 1.83 17.2614 1.885 16.9614 1.995C16.6714 2.105 16.4114 2.27 16.1814 2.49C15.9614 2.7 15.7864 2.97 15.6564 3.3C15.5364 3.62 15.4764 3.99 15.4764 4.41C15.4764 4.81 15.5364 5.17 15.6564 5.49C15.7764 5.81 15.9464 6.085 16.1664 6.315C16.3864 6.535 16.6464 6.71 16.9464 6.84C17.2464 6.96 17.5764 7.02 17.9364 7.02C18.2764 7.02 18.5964 6.96 18.8964 6.84C19.2064 6.71 19.4764 6.535 19.7064 6.315C19.9364 6.085 20.1164 5.81 20.2464 5.49C20.3864 5.17 20.4564 4.81 20.4564 4.41ZM43.222 5.535C43.222 5.665 43.147 5.73 42.997 5.73H38.962V7.8H44.842C44.892 7.8 44.942 7.82 44.992 7.86C45.042 7.89 45.067 7.935 45.067 7.995V8.505C45.067 8.555 45.042 8.6 44.992 8.64C44.942 8.68 44.892 8.7 44.842 8.7H32.092C32.032 8.7 31.977 8.68 31.927 8.64C31.887 8.6 31.867 8.555 31.867 8.505V7.995C31.867 7.935 31.887 7.89 31.927 7.86C31.977 7.82 32.032 7.8 32.092 7.8H37.927V5.73H33.757C33.707 5.73 33.657 5.71 33.607 5.67C33.567 5.63 33.547 5.58 33.547 5.52V5.055C33.547 4.995 33.567 4.945 33.607 4.905C33.657 4.865 33.707 4.845 33.757 4.845H35.602V1.56H34.057C34.007 1.56 33.957 1.54 33.907 1.5C33.867 1.46 33.847 1.41 33.847 1.35V0.884999C33.847 0.824999 33.867 0.774999 33.907 0.734999C33.957 0.694999 34.007 0.674999 34.057 0.674999H42.697C42.847 0.674999 42.922 0.739999 42.922 0.869999V1.365C42.922 1.495 42.847 1.56 42.697 1.56H41.227V4.845H42.997C43.147 4.845 43.222 4.91 43.222 5.04V5.535ZM36.622 4.845H40.207V1.56H36.622V4.845ZM43.447 13.65C43.447 13.71 43.422 13.755 43.372 13.785C43.322 13.815 43.272 13.83 43.222 13.83H35.077C34.607 13.83 34.297 13.73 34.147 13.53C34.007 13.34 33.937 13.04 33.937 12.63V10.11C33.937 9.97 34.007 9.9 34.147 9.9H34.762C34.902 9.9 34.972 9.97 34.972 10.11V12.615C34.972 12.755 34.992 12.84 35.032 12.87C35.082 12.91 35.177 12.93 35.317 12.93H43.222C43.272 12.93 43.322 12.945 43.372 12.975C43.422 13.015 43.447 13.06 43.447 13.11V13.65ZM57.3134 7.86C57.3134 8 57.2484 8.07 57.1184 8.07H49.0184C48.5784 8.07 48.2784 8 48.1184 7.86C47.9584 7.71 47.8784 7.425 47.8784 7.005V2.13C47.8784 1.71 47.9584 1.43 48.1184 1.29C48.2784 1.14 48.5784 1.065 49.0184 1.065H57.0134C57.1434 1.065 57.2084 1.13 57.2084 1.26V1.755C57.2084 1.895 57.1434 1.965 57.0134 1.965H49.2734C49.1334 1.965 49.0384 1.995 48.9884 2.055C48.9384 2.105 48.9134 2.205 48.9134 2.355V4.125H56.8034C56.9434 4.125 57.0134 4.18 57.0134 4.29V4.8C57.0134 4.93 56.9484 4.995 56.8184 4.995H48.9134V6.78C48.9134 6.92 48.9384 7.02 48.9884 7.08C49.0384 7.14 49.1334 7.17 49.2734 7.17H57.1184C57.2484 7.17 57.3134 7.235 57.3134 7.365V7.86ZM58.9484 10.83C58.9984 10.83 59.0484 10.85 59.0984 10.89C59.1484 10.92 59.1734 10.965 59.1734 11.025V11.535C59.1734 11.585 59.1484 11.63 59.0984 11.67C59.0484 11.71 58.9984 11.73 58.9484 11.73H46.1984C46.1384 11.73 46.0834 11.71 46.0334 11.67C45.9934 11.63 45.9734 11.585 45.9734 11.535V11.025C45.9734 10.965 45.9934 10.92 46.0334 10.89C46.0834 10.85 46.1384 10.83 46.1984 10.83H58.9484ZM66.1249 10.83V8.22H63.1249C62.6549 8.22 62.3449 8.135 62.1949 7.965C62.0549 7.785 61.9849 7.485 61.9849 7.065V5.19C61.9849 4.76 62.0699 4.475 62.2399 4.335C62.4199 4.195 62.7349 4.125 63.1849 4.125H69.9499C70.0899 4.125 70.1749 4.105 70.2049 4.065C70.2449 4.025 70.2649 3.93 70.2649 3.78V2.22C70.2649 2.07 70.2449 1.975 70.2049 1.935C70.1749 1.895 70.0899 1.875 69.9499 1.875H62.1949C62.1449 1.875 62.0949 1.86 62.0449 1.83C62.0049 1.8 61.9849 1.76 61.9849 1.71V1.14C61.9849 1.09 62.0049 1.05 62.0449 1.02C62.0949 0.99 62.1449 0.975 62.1949 0.975H70.1149C70.3549 0.975 70.5499 0.995 70.6999 1.035C70.8499 1.065 70.9699 1.12 71.0599 1.2C71.1499 1.28 71.2099 1.395 71.2399 1.545C71.2799 1.685 71.2999 1.86 71.2999 2.07V3.945C71.2999 4.375 71.2099 4.66 71.0299 4.8C70.8599 4.94 70.5499 5.01 70.0999 5.01H63.3349C63.1949 5.01 63.1049 5.03 63.0649 5.07C63.0349 5.11 63.0199 5.205 63.0199 5.355V6.975C63.0199 7.115 63.0399 7.21 63.0799 7.26C63.1199 7.3 63.2099 7.32 63.3499 7.32H71.4049C71.4549 7.32 71.4999 7.335 71.5399 7.365C71.5899 7.395 71.6149 7.435 71.6149 7.485V8.04C71.6149 8.09 71.5899 8.135 71.5399 8.175C71.4999 8.205 71.4599 8.22 71.4199 8.22H67.1599V10.83H73.0549C73.1049 10.83 73.1549 10.85 73.2049 10.89C73.2549 10.92 73.2799 10.965 73.2799 11.025V11.535C73.2799 11.585 73.2549 11.63 73.2049 11.67C73.1549 11.71 73.1049 11.73 73.0549 11.73H60.3049C60.2449 11.73 60.1899 11.71 60.1399 11.67C60.0999 11.63 60.0799 11.585 60.0799 11.535V11.025C60.0799 10.965 60.0999 10.92 60.1399 10.89C60.1899 10.85 60.2449 10.83 60.3049 10.83H66.1249ZM85.5604 6.33C85.2704 6.35 84.9254 6.37 84.5254 6.39C84.1254 6.4 83.7204 6.41 83.3104 6.42C82.9004 6.43 82.5004 6.435 82.1104 6.435C81.7304 6.435 81.4104 6.43 81.1504 6.42H80.4004V9.195C80.4004 9.345 80.4254 9.45 80.4754 9.51C80.5254 9.56 80.6204 9.585 80.7604 9.585C81.2104 9.595 81.6954 9.595 82.2154 9.585C82.7354 9.565 83.2554 9.535 83.7754 9.495C84.3054 9.455 84.8154 9.405 85.3054 9.345C85.7954 9.285 86.2354 9.215 86.6254 9.135C86.7854 9.105 86.8804 9.16 86.9104 9.3L86.9854 9.735C87.0054 9.815 86.9954 9.875 86.9554 9.915C86.9154 9.955 86.8654 9.985 86.8054 10.005C86.4154 10.095 85.9454 10.175 85.3954 10.245C84.8554 10.305 84.2954 10.36 83.7154 10.41C83.1454 10.45 82.5804 10.48 82.0204 10.5C81.4604 10.52 80.9654 10.525 80.5354 10.515C80.0854 10.505 79.7754 10.4 79.6054 10.2C79.4454 10 79.3654 9.69 79.3654 9.27V2.445C79.3654 2.025 79.4454 1.745 79.6054 1.605C79.7654 1.465 80.0654 1.395 80.5054 1.395H85.6654C85.7954 1.395 85.8604 1.455 85.8604 1.575V2.115C85.8604 2.235 85.7954 2.295 85.6654 2.295H80.7004C80.5604 2.295 80.4754 2.315 80.4454 2.355C80.4154 2.385 80.4004 2.475 80.4004 2.625V5.55H81.1504C81.4004 5.55 81.7154 5.55 82.0954 5.55C82.4754 5.55 82.8704 5.545 83.2804 5.535C83.6904 5.525 84.0954 5.515 84.4954 5.505C84.9054 5.495 85.2604 5.48 85.5604 5.46C85.6204 5.45 85.6654 5.465 85.6954 5.505C85.7354 5.545 85.7554 5.59 85.7554 5.64V6.15C85.7554 6.25 85.6904 6.31 85.5604 6.33ZM89.4904 13.89C89.4904 14.03 89.4204 14.1 89.2804 14.1H88.6654C88.5254 14.1 88.4554 14.03 88.4554 13.89V0.48C88.4554 0.339999 88.5254 0.269999 88.6654 0.269999H89.2804C89.4204 0.269999 89.4904 0.339999 89.4904 0.48V5.94H91.5604C91.6204 5.94 91.6704 5.96 91.7104 6C91.7604 6.03 91.7854 6.075 91.7854 6.135V6.645C91.7854 6.695 91.7604 6.74 91.7104 6.78C91.6704 6.82 91.6204 6.84 91.5604 6.84H89.4904V13.89ZM100.612 5.985C100.612 6.545 100.542 7.11 100.402 7.68C100.272 8.25 100.062 8.765 99.7719 9.225C99.4819 9.685 99.1069 10.065 98.6469 10.365C98.1969 10.655 97.6519 10.8 97.0119 10.8C96.3519 10.8 95.7919 10.655 95.3319 10.365C94.8819 10.075 94.5169 9.7 94.2369 9.24C93.9669 8.77 93.7719 8.25 93.6519 7.68C93.5319 7.11 93.4719 6.545 93.4719 5.985C93.4719 5.395 93.5319 4.815 93.6519 4.245C93.7719 3.665 93.9669 3.145 94.2369 2.685C94.5169 2.225 94.8819 1.855 95.3319 1.575C95.7919 1.295 96.3519 1.155 97.0119 1.155C97.6519 1.155 98.1969 1.295 98.6469 1.575C99.1069 1.855 99.4819 2.225 99.7719 2.685C100.062 3.135 100.272 3.65 100.402 4.23C100.542 4.8 100.612 5.385 100.612 5.985ZM99.5469 5.97C99.5469 5.51 99.4969 5.045 99.3969 4.575C99.3069 4.105 99.1619 3.685 98.9619 3.315C98.7619 2.935 98.5019 2.63 98.1819 2.4C97.8619 2.16 97.4719 2.04 97.0119 2.04C96.5319 2.04 96.1319 2.16 95.8119 2.4C95.5019 2.63 95.2519 2.935 95.0619 3.315C94.8719 3.685 94.7369 4.105 94.6569 4.575C94.5769 5.045 94.5369 5.51 94.5369 5.97C94.5369 6.41 94.5719 6.865 94.6419 7.335C94.7219 7.795 94.8569 8.22 95.0469 8.61C95.2369 8.99 95.4919 9.305 95.8119 9.555C96.1319 9.795 96.5319 9.915 97.0119 9.915C97.4719 9.915 97.8619 9.795 98.1819 9.555C98.5019 9.305 98.7619 8.99 98.9619 8.61C99.1619 8.22 99.3069 7.795 99.3969 7.335C99.4969 6.865 99.5469 6.41 99.5469 5.97ZM104.122 13.89C104.122 14.03 104.052 14.1 103.912 14.1H103.297C103.157 14.1 103.087 14.03 103.087 13.89V0.48C103.087 0.339999 103.157 0.269999 103.297 0.269999H103.912C104.052 0.269999 104.122 0.339999 104.122 0.48V13.89ZM118.018 13.83C118.018 13.88 117.993 13.92 117.943 13.95C117.903 13.99 117.863 14.01 117.823 14.01H109.828C109.358 14.01 109.048 13.92 108.898 13.74C108.758 13.57 108.688 13.275 108.688 12.855V11.97C108.688 11.55 108.773 11.27 108.943 11.13C109.123 10.98 109.438 10.905 109.888 10.905H116.353C116.493 10.905 116.578 10.885 116.608 10.845C116.648 10.805 116.668 10.71 116.668 10.56V9.99C116.668 9.84 116.648 9.745 116.608 9.705C116.578 9.665 116.493 9.645 116.353 9.645H108.868C108.818 9.645 108.768 9.63 108.718 9.6C108.678 9.57 108.658 9.53 108.658 9.48V8.955C108.658 8.905 108.678 8.865 108.718 8.835C108.768 8.805 108.818 8.79 108.868 8.79H116.503C116.743 8.79 116.938 8.81 117.088 8.85C117.238 8.88 117.358 8.935 117.448 9.015C117.538 9.095 117.598 9.21 117.628 9.36C117.668 9.5 117.688 9.675 117.688 9.885V10.695C117.688 11.115 117.598 11.4 117.418 11.55C117.248 11.69 116.938 11.76 116.488 11.76H110.023C109.883 11.76 109.793 11.78 109.753 11.82C109.723 11.86 109.708 11.955 109.708 12.105V12.795C109.708 12.935 109.728 13.025 109.768 13.065C109.808 13.115 109.898 13.14 110.038 13.14H117.808C117.858 13.14 117.903 13.155 117.943 13.185C117.993 13.215 118.018 13.255 118.018 13.305V13.83ZM117.493 3.06C117.493 3.19 117.428 3.255 117.298 3.255H109.723V4.2C109.723 4.34 109.748 4.44 109.798 4.5C109.848 4.56 109.943 4.59 110.083 4.59H117.598C117.728 4.59 117.793 4.655 117.793 4.785V5.235C117.793 5.375 117.728 5.445 117.598 5.445H109.828C109.388 5.445 109.088 5.375 108.928 5.235C108.768 5.085 108.688 4.8 108.688 4.38V1.29C108.688 0.869999 108.768 0.589999 108.928 0.449999C109.088 0.3 109.388 0.225 109.828 0.225H117.493C117.623 0.225 117.688 0.29 117.688 0.42V0.884999C117.688 1.025 117.623 1.095 117.493 1.095H110.083C109.943 1.095 109.848 1.125 109.798 1.185C109.748 1.235 109.723 1.335 109.723 1.485V2.4H117.283C117.423 2.4 117.493 2.455 117.493 2.565V3.06ZM119.578 6.66C119.628 6.66 119.678 6.68 119.728 6.72C119.778 6.75 119.803 6.795 119.803 6.855V7.365C119.803 7.415 119.778 7.46 119.728 7.5C119.678 7.54 119.628 7.56 119.578 7.56H106.828C106.768 7.56 106.713 7.54 106.663 7.5C106.623 7.46 106.603 7.415 106.603 7.365V6.855C106.603 6.795 106.623 6.75 106.663 6.72C106.713 6.68 106.768 6.66 106.828 6.66H119.578ZM136.134 5.25C136.134 5.39 136.069 5.46 135.939 5.46H128.199C127.759 5.46 127.459 5.39 127.299 5.25C127.139 5.1 127.059 4.815 127.059 4.395V1.635C127.059 1.215 127.139 0.934999 127.299 0.794999C127.459 0.645 127.759 0.57 128.199 0.57H135.834C135.964 0.57 136.029 0.635 136.029 0.765V1.26C136.029 1.4 135.964 1.47 135.834 1.47H128.454C128.314 1.47 128.219 1.5 128.169 1.56C128.119 1.61 128.094 1.71 128.094 1.86V4.17C128.094 4.31 128.119 4.41 128.169 4.47C128.219 4.53 128.314 4.56 128.454 4.56H135.939C136.069 4.56 136.134 4.625 136.134 4.755V5.25ZM137.889 7.05C137.939 7.05 137.989 7.07 138.039 7.11C138.089 7.14 138.114 7.185 138.114 7.245V7.755C138.114 7.805 138.089 7.85 138.039 7.89C137.989 7.93 137.939 7.95 137.889 7.95H125.139C125.079 7.95 125.024 7.93 124.974 7.89C124.934 7.85 124.914 7.805 124.914 7.755V7.245C124.914 7.185 124.934 7.14 124.974 7.11C125.024 7.07 125.079 7.05 125.139 7.05H137.889ZM136.164 11.625C136.164 11.965 136.089 12.26 135.939 12.51C135.789 12.77 135.589 12.995 135.339 13.185C135.089 13.385 134.799 13.55 134.469 13.68C134.149 13.81 133.814 13.91 133.464 13.98C133.124 14.06 132.779 14.115 132.429 14.145C132.089 14.185 131.774 14.205 131.484 14.205C131.204 14.205 130.889 14.185 130.539 14.145C130.199 14.115 129.854 14.06 129.504 13.98C129.164 13.91 128.829 13.81 128.499 13.68C128.179 13.55 127.894 13.385 127.644 13.185C127.394 12.995 127.194 12.77 127.044 12.51C126.894 12.26 126.819 11.965 126.819 11.625C126.819 11.295 126.894 11.005 127.044 10.755C127.194 10.495 127.394 10.27 127.644 10.08C127.894 9.89 128.179 9.73 128.499 9.6C128.829 9.47 129.164 9.365 129.504 9.285C129.854 9.205 130.199 9.15 130.539 9.12C130.879 9.08 131.194 9.06 131.484 9.06C131.774 9.06 132.089 9.08 132.429 9.12C132.779 9.15 133.129 9.205 133.479 9.285C133.829 9.355 134.164 9.455 134.484 9.585C134.804 9.715 135.089 9.875 135.339 10.065C135.589 10.255 135.789 10.48 135.939 10.74C136.089 11 136.164 11.295 136.164 11.625ZM135.069 11.64C135.069 11.3 134.934 11.02 134.664 10.8C134.394 10.58 134.064 10.41 133.674 10.29C133.294 10.16 132.899 10.075 132.489 10.035C132.089 9.985 131.754 9.96 131.484 9.96C131.204 9.96 130.859 9.985 130.449 10.035C130.049 10.075 129.659 10.16 129.279 10.29C128.909 10.41 128.589 10.58 128.319 10.8C128.049 11.02 127.914 11.3 127.914 11.64C127.914 11.98 128.049 12.255 128.319 12.465C128.589 12.685 128.909 12.855 129.279 12.975C129.659 13.095 130.049 13.175 130.449 13.215C130.859 13.265 131.204 13.29 131.484 13.29C131.754 13.29 132.089 13.265 132.489 13.215C132.899 13.175 133.294 13.095 133.674 12.975C134.064 12.855 134.394 12.685 134.664 12.465C134.934 12.255 135.069 11.98 135.069 11.64ZM148.485 13.32C148.485 13.46 148.415 13.53 148.275 13.53H147.705C147.565 13.53 147.495 13.46 147.495 13.32V6.33H145.8C145.76 7.02 145.65 7.625 145.47 8.145C145.29 8.655 145.055 9.085 144.765 9.435C144.475 9.775 144.14 10.03 143.76 10.2C143.39 10.37 142.995 10.455 142.575 10.455C142.125 10.455 141.71 10.36 141.33 10.17C140.95 9.97 140.62 9.68 140.34 9.3C140.06 8.91 139.84 8.425 139.68 7.845C139.52 7.265 139.44 6.585 139.44 5.805C139.44 5.025 139.52 4.35 139.68 3.78C139.84 3.2 140.06 2.72 140.34 2.34C140.63 1.95 140.965 1.665 141.345 1.485C141.725 1.295 142.14 1.2 142.59 1.2C143.02 1.2 143.42 1.285 143.79 1.455C144.17 1.625 144.505 1.885 144.795 2.235C145.085 2.585 145.315 3.025 145.485 3.555C145.665 4.085 145.77 4.71 145.8 5.43H147.495V0.734999C147.495 0.594999 147.565 0.524999 147.705 0.524999H148.275C148.415 0.524999 148.485 0.594999 148.485 0.734999V13.32ZM144.765 5.805C144.765 5.345 144.72 4.895 144.63 4.455C144.54 4.015 144.405 3.62 144.225 3.27C144.045 2.92 143.815 2.64 143.535 2.43C143.265 2.21 142.945 2.1 142.575 2.1C142.185 2.1 141.855 2.21 141.585 2.43C141.325 2.65 141.11 2.94 140.94 3.3C140.78 3.65 140.665 4.045 140.595 4.485C140.525 4.925 140.49 5.365 140.49 5.805C140.49 6.245 140.53 6.69 140.61 7.14C140.69 7.58 140.81 7.98 140.97 8.34C141.14 8.7 141.355 8.995 141.615 9.225C141.885 9.445 142.205 9.555 142.575 9.555C142.945 9.555 143.265 9.445 143.535 9.225C143.815 9.005 144.045 8.72 144.225 8.37C144.405 8.01 144.54 7.605 144.63 7.155C144.72 6.705 144.765 6.255 144.765 5.805ZM151.14 13.89C151.14 14.03 151.07 14.1 150.93 14.1H150.36C150.22 14.1 150.15 14.03 150.15 13.89V0.48C150.15 0.339999 150.22 0.269999 150.36 0.269999H150.93C151.07 0.269999 151.14 0.339999 151.14 0.48V13.89ZM162.236 1.245C162.236 1.905 162.206 2.54 162.146 3.15C162.096 3.75 162.011 4.33 161.891 4.89C161.991 5.29 162.146 5.715 162.356 6.165C162.566 6.605 162.811 7.045 163.091 7.485C163.381 7.925 163.701 8.355 164.051 8.775C164.411 9.185 164.791 9.555 165.191 9.885C165.241 9.925 165.266 9.975 165.266 10.035C165.276 10.095 165.266 10.145 165.236 10.185L164.861 10.65C164.771 10.76 164.666 10.76 164.546 10.65C164.266 10.41 163.976 10.125 163.676 9.795C163.386 9.455 163.101 9.1 162.821 8.73C162.551 8.36 162.296 7.98 162.056 7.59C161.816 7.2 161.611 6.825 161.441 6.465C161.121 7.375 160.701 8.215 160.181 8.985C159.661 9.745 159.041 10.455 158.321 11.115C158.221 11.195 158.136 11.2 158.066 11.13L157.616 10.665C157.586 10.635 157.571 10.595 157.571 10.545C157.581 10.495 157.611 10.445 157.661 10.395C158.271 9.815 158.801 9.205 159.251 8.565C159.701 7.925 160.066 7.235 160.346 6.495C160.636 5.755 160.846 4.95 160.976 4.08C161.116 3.21 161.186 2.255 161.186 1.215C161.186 1.145 161.201 1.095 161.231 1.065C161.271 1.025 161.316 1.005 161.366 1.005L162.071 1.035C162.181 1.035 162.236 1.105 162.236 1.245ZM168.431 13.89C168.431 14.03 168.361 14.1 168.221 14.1H167.606C167.466 14.1 167.396 14.03 167.396 13.89V0.48C167.396 0.339999 167.466 0.269999 167.606 0.269999H168.221C168.361 0.269999 168.431 0.339999 168.431 0.48V5.94H170.501C170.561 5.94 170.611 5.96 170.651 6C170.701 6.03 170.726 6.075 170.726 6.135V6.645C170.726 6.695 170.701 6.74 170.651 6.78C170.611 6.82 170.561 6.84 170.501 6.84H168.431V13.89ZM184.412 7.365C184.462 7.365 184.512 7.385 184.562 7.425C184.612 7.455 184.637 7.5 184.637 7.56V8.07C184.637 8.12 184.612 8.165 184.562 8.205C184.512 8.245 184.462 8.265 184.412 8.265H171.662C171.602 8.265 171.547 8.245 171.497 8.205C171.457 8.165 171.437 8.12 171.437 8.07V7.56C171.437 7.5 171.457 7.455 171.497 7.425C171.547 7.385 171.602 7.365 171.662 7.365H175.067V4.95C174.587 4.75 174.182 4.485 173.852 4.155C173.532 3.825 173.372 3.405 173.372 2.895C173.372 2.405 173.527 1.995 173.837 1.665C174.157 1.335 174.547 1.075 175.007 0.884999C175.477 0.694999 175.982 0.559999 176.522 0.48C177.072 0.4 177.577 0.36 178.037 0.36C178.507 0.36 179.012 0.405 179.552 0.495C180.102 0.585 180.607 0.73 181.067 0.929999C181.537 1.13 181.927 1.395 182.237 1.725C182.547 2.045 182.702 2.435 182.702 2.895C182.702 3.385 182.537 3.795 182.207 4.125C181.887 4.455 181.482 4.72 180.992 4.92V7.365H184.412ZM182.687 11.745C182.687 12.255 182.527 12.67 182.207 12.99C181.887 13.31 181.492 13.56 181.022 13.74C180.552 13.92 180.042 14.04 179.492 14.1C178.952 14.17 178.457 14.205 178.007 14.205C177.707 14.205 177.382 14.19 177.032 14.16C176.692 14.13 176.347 14.08 175.997 14.01C175.657 13.95 175.327 13.86 175.007 13.74C174.687 13.62 174.402 13.465 174.152 13.275C173.912 13.095 173.717 12.88 173.567 12.63C173.417 12.38 173.342 12.085 173.342 11.745C173.342 11.245 173.502 10.84 173.822 10.53C174.142 10.21 174.537 9.96 175.007 9.78C175.477 9.6 175.982 9.475 176.522 9.405C177.072 9.335 177.567 9.3 178.007 9.3C178.457 9.3 178.952 9.335 179.492 9.405C180.042 9.465 180.552 9.585 181.022 9.765C181.502 9.945 181.897 10.195 182.207 10.515C182.527 10.835 182.687 11.245 182.687 11.745ZM178.037 1.305C177.717 1.305 177.352 1.325 176.942 1.365C176.532 1.405 176.142 1.485 175.772 1.605C175.412 1.725 175.102 1.89 174.842 2.1C174.592 2.31 174.467 2.58 174.467 2.91C174.467 3.24 174.592 3.51 174.842 3.72C175.102 3.93 175.412 4.095 175.772 4.215C176.142 4.335 176.532 4.415 176.942 4.455C177.352 4.495 177.717 4.515 178.037 4.515C178.347 4.515 178.707 4.495 179.117 4.455C179.527 4.415 179.917 4.335 180.287 4.215C180.657 4.095 180.967 3.93 181.217 3.72C181.477 3.51 181.607 3.24 181.607 2.91C181.607 2.58 181.477 2.31 181.217 2.1C180.967 1.89 180.657 1.725 180.287 1.605C179.917 1.485 179.527 1.405 179.117 1.365C178.707 1.325 178.347 1.305 178.037 1.305ZM181.592 11.76C181.592 11.43 181.457 11.17 181.187 10.98C180.917 10.78 180.592 10.625 180.212 10.515C179.832 10.405 179.437 10.335 179.027 10.305C178.627 10.265 178.287 10.245 178.007 10.245C177.717 10.245 177.367 10.265 176.957 10.305C176.557 10.335 176.167 10.405 175.787 10.515C175.417 10.625 175.097 10.78 174.827 10.98C174.567 11.17 174.437 11.43 174.437 11.76C174.437 12.08 174.567 12.34 174.827 12.54C175.097 12.74 175.417 12.89 175.787 12.99C176.167 13.1 176.557 13.17 176.957 13.2C177.367 13.24 177.717 13.26 178.007 13.26C178.287 13.26 178.632 13.24 179.042 13.2C179.452 13.17 179.842 13.1 180.212 12.99C180.592 12.89 180.917 12.74 181.187 12.54C181.457 12.34 181.592 12.08 181.592 11.76ZM178.037 5.445C177.747 5.445 177.432 5.435 177.092 5.415C176.762 5.385 176.432 5.33 176.102 5.25V7.365H179.957V5.235C179.627 5.315 179.297 5.37 178.967 5.4C178.637 5.43 178.327 5.445 178.037 5.445Z" fill="#AAAAAA"/>
</svg>
