<svg width="238" height="60" viewBox="0 0 238 60" fill="none" xmlns="http://www.w3.org/2000/svg">
<path d="M23.102 13.168V14H12.494V13.168H17.304V10.165H14.028V4.77H21.607V5.615H15.016V9.32H21.724V10.165H18.292V13.168H23.102ZM34.4198 4.003V15.287H33.4448V8.618H31.0398V7.786H33.4448V4.003H34.4198ZM28.7908 8.553C28.8948 8.553 28.9858 8.60067 29.0638 8.696L31.6118 11.946L30.8578 12.609L28.3098 9.255C28.2752 9.21167 28.2318 9.19 28.1798 9.19C28.1278 9.19 28.0845 9.21167 28.0498 9.255C27.8332 9.75767 27.5342 10.2733 27.1528 10.802C26.7715 11.3307 26.2515 11.9893 25.5928 12.778L24.8388 12.141C25.5928 11.283 26.1692 10.5507 26.5678 9.944C26.9752 9.32867 27.2655 8.71333 27.4388 8.098C27.6208 7.48267 27.7118 6.77633 27.7118 5.979V4.757H28.6998V5.966C28.6998 7.01467 28.5568 7.95067 28.2708 8.774L28.3228 8.813L28.5048 8.657C28.6002 8.58767 28.6955 8.553 28.7908 8.553ZM51.819 4.003H52.807V15.287H51.819V4.003ZM43.473 8.566C43.473 7.30067 43.7503 6.343 44.305 5.693C44.8683 5.043 45.6093 4.718 46.528 4.718C47.438 4.718 48.1703 5.043 48.725 5.693C49.2883 6.343 49.57 7.30067 49.57 8.566C49.57 9.41533 49.44 10.1303 49.18 10.711C48.92 11.283 48.5603 11.712 48.101 11.998C47.6417 12.2753 47.1173 12.414 46.528 12.414C45.6093 12.414 44.8683 12.089 44.305 11.439C43.7503 10.789 43.473 9.83133 43.473 8.566ZM48.517 9.073V8.059C48.517 7.253 48.3307 6.63333 47.958 6.2C47.594 5.76667 47.1173 5.55 46.528 5.55C45.93 5.55 45.4447 5.76667 45.072 6.2C44.708 6.62467 44.526 7.24433 44.526 8.059V9.073C44.526 9.88767 44.708 10.5117 45.072 10.945C45.4447 11.3697 45.93 11.582 46.528 11.582C47.1173 11.582 47.594 11.3653 47.958 10.932C48.3307 10.4987 48.517 9.879 48.517 9.073ZM64.0598 4.003H65.0478V15.287H64.0598V4.003ZM56.0388 4.9H61.4598V12.141H56.0388V4.9ZM60.4848 11.322V5.719H57.0008V11.322H60.4848ZM77.2887 4.003V15.287H76.3007V4.003H77.2887ZM71.8547 8.774C71.976 8.774 72.0757 8.82167 72.1537 8.917L74.7017 11.907L73.9607 12.544L71.3867 9.45C71.3433 9.398 71.2913 9.372 71.2307 9.372C71.1787 9.372 71.131 9.398 71.0877 9.45C70.8537 9.92667 70.546 10.412 70.1647 10.906C69.7833 11.4 69.2633 12.0067 68.6047 12.726L67.8637 12.102C68.6177 11.3133 69.1983 10.6287 69.6057 10.048C70.0217 9.46733 70.3207 8.891 70.5027 8.319C70.6847 7.73833 70.7757 7.07967 70.7757 6.343V5.849H68.2147V5.017H74.3117V5.849H71.7637V6.382C71.7637 7.36133 71.612 8.23233 71.3087 8.995L71.3737 9.034L71.5687 8.878C71.664 8.80867 71.7593 8.774 71.8547 8.774ZM89.8805 4.003V15.287H88.9315V4.003H89.8805ZM86.3705 4.198H87.2935V14.975H86.3705V9.06H85.1225C85.0791 10.1867 84.8278 11.036 84.3685 11.608C83.9091 12.1713 83.3025 12.453 82.5485 12.453C81.7425 12.453 81.1055 12.141 80.6375 11.517C80.1695 10.8843 79.9355 9.944 79.9355 8.696C79.9355 7.448 80.1695 6.512 80.6375 5.888C81.1055 5.25533 81.7425 4.939 82.5485 4.939C83.2938 4.939 83.8918 5.21633 84.3425 5.771C84.8018 6.32567 85.0618 7.149 85.1225 8.241H86.3705V4.198ZM84.1345 8.072C84.1345 7.30933 83.9871 6.72867 83.6925 6.33C83.4065 5.93133 83.0251 5.732 82.5485 5.732C82.0631 5.732 81.6731 5.93133 81.3785 6.33C81.0925 6.72867 80.9495 7.30933 80.9495 8.072V9.333C80.9495 10.087 81.0925 10.6677 81.3785 11.075C81.6731 11.4737 82.0631 11.673 82.5485 11.673C83.0251 11.673 83.4065 11.4737 83.6925 11.075C83.9871 10.6677 84.1345 10.087 84.1345 9.333V8.072ZM109.204 9.281H107.332V15.313H106.344V4.029H107.332V8.449H109.204V9.281ZM98.6477 4.9H104.004V12.141H98.6477V4.9ZM99.6097 11.322H103.042V5.719H99.6097V11.322ZM111.876 6.785C111.876 6.28233 112.019 5.83167 112.305 5.433C112.591 5.03433 113.029 4.718 113.618 4.484C114.208 4.25 114.936 4.133 115.802 4.133C116.669 4.133 117.397 4.25 117.986 4.484C118.576 4.718 119.013 5.03433 119.299 5.433C119.585 5.83167 119.728 6.28233 119.728 6.785C119.728 7.28767 119.585 7.74267 119.299 8.15C119.013 8.54867 118.576 8.865 117.986 9.099C117.397 9.333 116.669 9.45 115.802 9.45C114.936 9.45 114.208 9.333 113.618 9.099C113.029 8.865 112.591 8.54867 112.305 8.15C112.019 7.74267 111.876 7.28767 111.876 6.785ZM112.942 6.915C112.942 7.409 113.181 7.82067 113.657 8.15C114.134 8.47933 114.849 8.644 115.802 8.644C116.756 8.644 117.471 8.47933 117.947 8.15C118.424 7.82067 118.662 7.409 118.662 6.915V6.655C118.662 6.161 118.424 5.74933 117.947 5.42C117.471 5.082 116.756 4.913 115.802 4.913C114.858 4.913 114.143 5.082 113.657 5.42C113.181 5.74933 112.942 6.161 112.942 6.655V6.915ZM121.106 11.504H116.296V15.742H115.308V11.504H110.498V10.672H121.106V11.504ZM123.831 10.503L123.272 9.736C124.451 9.12933 125.352 8.592 125.976 8.124C126.609 7.64733 127.047 7.175 127.289 6.707C127.532 6.23033 127.653 5.68433 127.653 5.069V4.627H128.667V5.095C128.667 5.59767 128.611 6.04833 128.498 6.447C128.394 6.837 128.217 7.20533 127.965 7.552L128.03 7.591L128.355 7.344C128.468 7.25733 128.581 7.214 128.693 7.214C128.806 7.214 128.919 7.253 129.031 7.331L132.814 9.684L132.242 10.464L128.329 7.942C128.217 7.864 128.095 7.825 127.965 7.825C127.853 7.825 127.74 7.86833 127.627 7.955C127.272 8.33633 126.791 8.73067 126.184 9.138C125.578 9.53667 124.793 9.99167 123.831 10.503ZM133.347 13.155V14H122.739V13.155H133.347ZM142.923 6.031V4.913H136.579V4.185H143.872V6.746H137.606V7.851H144.197V8.592H136.644V6.031H142.923ZM145.588 9.567V10.334H134.98V9.567H145.588ZM136.605 15.196V13.233H143.079V12.141H136.527V11.374H144.002V13.961H137.528V15.079H144.34V15.859H137.255C137.047 15.859 136.887 15.8027 136.774 15.69C136.661 15.5773 136.605 15.4127 136.605 15.196ZM163.988 9.151V9.957H153.38V9.151H158.203V8.15C157.068 8.098 156.214 7.88567 155.642 7.513C155.07 7.14033 154.784 6.65933 154.784 6.07C154.784 5.446 155.109 4.94333 155.759 4.562C156.418 4.18067 157.393 3.99 158.684 3.99C159.976 3.99 160.946 4.18067 161.596 4.562C162.255 4.94333 162.584 5.446 162.584 6.07C162.584 6.65933 162.298 7.14033 161.726 7.513C161.163 7.88567 160.314 8.098 159.178 8.15V9.151H163.988ZM158.684 7.409C159.638 7.409 160.348 7.292 160.816 7.058C161.293 6.824 161.531 6.52067 161.531 6.148V5.992C161.531 5.61933 161.293 5.316 160.816 5.082C160.348 4.848 159.638 4.731 158.684 4.731C157.731 4.731 157.016 4.848 156.539 5.082C156.071 5.316 155.837 5.61933 155.837 5.992V6.148C155.837 6.52067 156.071 6.824 156.539 7.058C157.016 7.292 157.731 7.409 158.684 7.409ZM155.98 15.04H162.727V15.859H155.681C155.473 15.859 155.313 15.8027 155.2 15.69C155.088 15.5773 155.031 15.4127 155.031 15.196V13.051H161.44V11.829H154.953V11.023H162.389V13.818H155.98V15.04ZM175.293 4.003V15.287H174.305V4.003H175.293ZM172.823 11.335L172.953 12.128C171.61 12.388 169.902 12.518 167.831 12.518H166.427V8.163H170.522V5.693H166.375V4.861H171.51V8.982H167.402V11.712H167.818C169.785 11.712 171.454 11.5863 172.823 11.335ZM186.611 9.19H184.219V8.384H186.611V6.616H184.219V5.81H186.611V4.003H187.599V12.57H186.611V9.19ZM183.777 10.269H178.46V4.731H183.777V10.269ZM182.802 5.55H179.435V9.45H182.802V5.55ZM187.833 14.715V15.534H181.021C180.813 15.534 180.653 15.4777 180.54 15.365C180.427 15.2523 180.371 15.0877 180.371 14.871V11.634H181.372V14.715H187.833ZM206.87 13.168V14H196.262V13.168H201.072V10.165H197.796V4.77H205.375V5.615H198.784V9.32H205.492V10.165H202.06V13.168H206.87ZM218.188 4.003V15.287H217.213V8.618H214.808V7.786H217.213V4.003H218.188ZM212.559 8.553C212.663 8.553 212.754 8.60067 212.832 8.696L215.38 11.946L214.626 12.609L212.078 9.255C212.043 9.21167 212 9.19 211.948 9.19C211.896 9.19 211.853 9.21167 211.818 9.255C211.601 9.75767 211.302 10.2733 210.921 10.802C210.54 11.3307 210.02 11.9893 209.361 12.778L208.607 12.141C209.361 11.283 209.937 10.5507 210.336 9.944C210.743 9.32867 211.034 8.71333 211.207 8.098C211.389 7.48267 211.48 6.77633 211.48 5.979V4.757H212.468V5.966C212.468 7.01467 212.325 7.95067 212.039 8.774L212.091 8.813L212.273 8.657C212.368 8.58767 212.464 8.553 212.559 8.553ZM235.652 6.798V4.003H236.64V10.789H235.652V7.604H233.286V6.798H235.652ZM227.93 10.399L227.189 9.775C227.917 9.203 228.481 8.709 228.879 8.293C229.278 7.86833 229.564 7.45233 229.737 7.045C229.919 6.629 230.01 6.16533 230.01 5.654V5.524H227.527V4.692H233.455V5.524H230.998V5.693C230.998 6.42967 230.847 7.07533 230.543 7.63L230.621 7.669L230.829 7.513C230.925 7.44367 231.02 7.409 231.115 7.409C231.228 7.409 231.328 7.448 231.414 7.526L233.832 9.554L233.104 10.204L230.647 8.072C230.578 8.02 230.513 7.994 230.452 7.994C230.383 7.994 230.322 8.02 230.27 8.072C230.036 8.41 229.737 8.75667 229.373 9.112C229.009 9.46733 228.528 9.89633 227.93 10.399ZM236.705 13.48C236.705 13.948 236.567 14.364 236.289 14.728C236.021 15.1007 235.609 15.391 235.054 15.599C234.508 15.8157 233.841 15.924 233.052 15.924C232.255 15.924 231.579 15.8157 231.024 15.599C230.478 15.391 230.067 15.1007 229.789 14.728C229.521 14.364 229.386 13.948 229.386 13.48C229.386 13.012 229.521 12.596 229.789 12.232C230.067 11.8593 230.478 11.569 231.024 11.361C231.579 11.1443 232.255 11.036 233.052 11.036C233.841 11.036 234.508 11.1443 235.054 11.361C235.609 11.569 236.021 11.8593 236.289 12.232C236.567 12.596 236.705 13.012 236.705 13.48ZM235.665 13.376C235.665 12.934 235.449 12.5657 235.015 12.271C234.582 11.9677 233.928 11.816 233.052 11.816C232.168 11.816 231.505 11.9677 231.063 12.271C230.63 12.5657 230.413 12.934 230.413 13.376V13.597C230.413 14.0303 230.63 14.3943 231.063 14.689C231.505 14.9923 232.168 15.144 233.052 15.144C233.928 15.144 234.582 14.9923 235.015 14.689C235.449 14.3943 235.665 14.0303 235.665 13.597V13.376ZM23.102 33.168V34H12.494V33.168H17.304V30.516H13.95V24.601H14.938V26.746H20.645V24.601H21.62V30.516H18.292V33.168H23.102ZM14.938 29.697H20.645V27.565H14.938V29.697ZM25.3198 29.944C25.3198 29.32 25.3805 28.7177 25.5018 28.137C25.6232 27.5563 25.7878 27.019 25.9958 26.525C26.2125 26.0223 26.4638 25.5673 26.7498 25.16C27.0358 24.7527 27.3435 24.406 27.6728 24.12H28.6608C28.2968 24.4493 27.9675 24.822 27.6728 25.238C27.3868 25.654 27.1398 26.096 26.9318 26.564C26.7325 27.032 26.5765 27.5087 26.4638 27.994C26.3512 28.4793 26.2948 28.9473 26.2948 29.398V30.516C26.2948 30.9753 26.3512 31.4477 26.4638 31.933C26.5765 32.4183 26.7368 32.895 26.9448 33.363C27.1528 33.831 27.3998 34.273 27.6858 34.689C27.9805 35.105 28.3055 35.469 28.6608 35.781H27.6728C27.3522 35.5123 27.0488 35.1743 26.7628 34.767C26.4768 34.3597 26.2255 33.9047 26.0088 33.402C25.8008 32.8993 25.6318 32.3577 25.5018 31.777C25.3805 31.1877 25.3198 30.5767 25.3198 29.944ZM40.3473 33.168V34H29.7393V33.168H34.5493V30.165H31.2733V24.77H38.8523V25.615H32.2613V29.32H38.9693V30.165H35.5373V33.168H40.3473ZM51.6651 24.003V35.287H50.6901V28.618H48.2851V27.786H50.6901V24.003H51.6651ZM46.0361 28.553C46.1401 28.553 46.2311 28.6007 46.3091 28.696L48.8571 31.946L48.1031 32.609L45.5551 29.255C45.5205 29.2117 45.4771 29.19 45.4251 29.19C45.3731 29.19 45.3298 29.2117 45.2951 29.255C45.0785 29.7577 44.7795 30.2733 44.3981 30.802C44.0168 31.3307 43.4968 31.9893 42.8381 32.778L42.0841 32.141C42.8381 31.283 43.4145 30.5507 43.8131 29.944C44.2205 29.3287 44.5108 28.7133 44.6841 28.098C44.8661 27.4827 44.9571 26.7763 44.9571 25.979V24.757H45.9451V25.966C45.9451 27.0147 45.8021 27.9507 45.5161 28.774L45.5681 28.813L45.7501 28.657C45.8455 28.5877 45.9408 28.553 46.0361 28.553ZM62.97 28.826H60.578V28.033H62.97V26.408H60.578V25.615H62.97V24.003H63.958V30.724H62.97V28.826ZM60.136 29.749H54.819V24.575H60.136V29.749ZM59.161 25.381H55.794V28.943H59.161V25.381ZM64.023 33.428C64.023 33.9047 63.8843 34.3293 63.607 34.702C63.3383 35.0833 62.931 35.3823 62.385 35.599C61.839 35.8157 61.1716 35.924 60.383 35.924C59.5943 35.924 58.9226 35.8157 58.368 35.599C57.822 35.3823 57.4103 35.0833 57.133 34.702C56.8643 34.3293 56.73 33.9047 56.73 33.428C56.73 32.9513 56.8643 32.5267 57.133 32.154C57.4103 31.7727 57.822 31.4737 58.368 31.257C58.9226 31.0403 59.5943 30.932 60.383 30.932C61.1716 30.932 61.839 31.0403 62.385 31.257C62.931 31.4737 63.3383 31.7727 63.607 32.154C63.8843 32.5267 64.023 32.9513 64.023 33.428ZM62.97 33.324C62.97 32.8733 62.7533 32.4963 62.32 32.193C61.8953 31.8897 61.2496 31.738 60.383 31.738C59.5163 31.738 58.8663 31.894 58.433 32.206C57.9996 32.5093 57.783 32.882 57.783 33.324V33.545C57.783 33.987 57.9996 34.3597 58.433 34.663C58.8663 34.975 59.5163 35.131 60.383 35.131C61.2496 35.131 61.8953 34.975 62.32 34.663C62.7533 34.3597 62.97 33.987 62.97 33.545V33.324ZM67.7358 32.479C68.0131 32.479 68.2124 32.5527 68.3338 32.7C68.4638 32.8387 68.5288 33.0207 68.5288 33.246V33.428C68.5288 33.7833 68.4248 34.1733 68.2168 34.598C68.0088 35.0313 67.7184 35.4083 67.3458 35.729H66.4748C66.7348 35.4517 66.9428 35.1873 67.0988 34.936C67.2634 34.6933 67.3804 34.4203 67.4498 34.117C67.2764 34.0737 67.1464 33.9913 67.0598 33.87C66.9818 33.7487 66.9428 33.6013 66.9428 33.428V33.246C66.9428 33.0207 67.0034 32.8387 67.1248 32.7C67.2548 32.5527 67.4584 32.479 67.7358 32.479ZM84.061 24.003V35.287H83.086V28.67H80.642V27.838H83.086V24.003H84.061ZM78.51 28.774C78.6227 28.774 78.7267 28.8217 78.822 28.917L81.331 31.907L80.59 32.544L78.055 29.45C78.0204 29.398 77.9684 29.372 77.899 29.372C77.847 29.372 77.7994 29.398 77.756 29.45C77.5307 29.918 77.2274 30.399 76.846 30.893C76.4734 31.387 75.9577 31.998 75.299 32.726L74.558 32.102C75.3034 31.3133 75.8797 30.6287 76.287 30.048C76.6944 29.4673 76.989 28.891 77.171 28.319C77.353 27.7383 77.444 27.0797 77.444 26.343V25.849H74.909V25.017H80.954V25.849H78.432V26.382C78.432 27.344 78.276 28.215 77.964 28.995L78.042 29.034L78.237 28.878C78.3324 28.8087 78.4234 28.774 78.51 28.774ZM97.5628 29.281H95.6908V35.313H94.7028V24.029H95.6908V28.449H97.5628V29.281ZM90.5168 28.774C90.6208 28.774 90.7205 28.8217 90.8158 28.917L93.3508 31.92L92.6098 32.557L90.0618 29.45C90.0098 29.398 89.9535 29.372 89.8928 29.372C89.8322 29.372 89.7888 29.398 89.7628 29.45C89.5288 29.918 89.2212 30.399 88.8398 30.893C88.4672 31.3783 87.9558 31.9893 87.3058 32.726L86.5778 32.115C87.3318 31.3177 87.9082 30.6287 88.3068 30.048C88.7142 29.4673 89.0088 28.891 89.1908 28.319C89.3728 27.7383 89.4638 27.0797 89.4638 26.343V25.849H86.9158V25.017H92.9738V25.849H90.4388V26.369C90.4388 27.3397 90.2828 28.2107 89.9708 28.982L90.0358 29.034L90.2438 28.878C90.3305 28.8087 90.4215 28.774 90.5168 28.774ZM111.693 28.306H104.192V24.315H111.589V25.134H105.167V27.487H111.693V28.306ZM113.188 29.593V30.438H102.58V29.593H113.188ZM111.719 33.714C111.719 34.156 111.576 34.546 111.29 34.884C111.004 35.2307 110.571 35.4993 109.99 35.69C109.418 35.8893 108.716 35.989 107.884 35.989C107.052 35.989 106.346 35.8893 105.765 35.69C105.193 35.4993 104.764 35.2307 104.478 34.884C104.192 34.546 104.049 34.156 104.049 33.714C104.049 33.2807 104.192 32.895 104.478 32.557C104.773 32.219 105.206 31.9547 105.778 31.764C106.35 31.5733 107.052 31.478 107.884 31.478C108.716 31.478 109.418 31.5733 109.99 31.764C110.562 31.9547 110.991 32.219 111.277 32.557C111.572 32.895 111.719 33.2807 111.719 33.714ZM110.679 33.636C110.679 33.246 110.445 32.921 109.977 32.661C109.518 32.3923 108.82 32.258 107.884 32.258C106.948 32.258 106.246 32.3923 105.778 32.661C105.31 32.921 105.076 33.246 105.076 33.636V33.818C105.076 34.208 105.31 34.533 105.778 34.793C106.246 35.0617 106.948 35.196 107.884 35.196C108.82 35.196 109.518 35.0617 109.977 34.793C110.445 34.533 110.679 34.208 110.679 33.818V33.636ZM117.603 29.944C117.603 30.5767 117.538 31.1877 117.408 31.777C117.286 32.3577 117.117 32.8993 116.901 33.402C116.693 33.9047 116.446 34.3597 116.16 34.767C115.874 35.1743 115.57 35.5123 115.25 35.781H114.262C114.617 35.469 114.938 35.105 115.224 34.689C115.518 34.273 115.77 33.831 115.978 33.363C116.186 32.895 116.346 32.4183 116.459 31.933C116.571 31.4477 116.628 30.9753 116.628 30.516V29.398C116.628 28.9473 116.571 28.4793 116.459 27.994C116.346 27.5087 116.186 27.032 115.978 26.564C115.778 26.096 115.531 25.654 115.237 25.238C114.951 24.822 114.626 24.4493 114.262 24.12H115.25C115.579 24.406 115.887 24.7527 116.173 25.16C116.459 25.5673 116.706 26.0223 116.914 26.525C117.13 27.019 117.299 27.5563 117.421 28.137C117.542 28.7177 117.603 29.32 117.603 29.944ZM134.494 28.462H132.778V31.764H131.803V24.003H132.778V27.63H134.494V28.462ZM128.8 24.861H125.381V24.094H128.8V24.861ZM130.945 31.114C129.983 31.27 128.826 31.3913 127.474 31.478C126.13 31.556 124.744 31.595 123.314 31.595L123.236 30.789C124.544 30.789 125.649 30.7673 126.551 30.724V29.814C125.875 29.7533 125.342 29.58 124.952 29.294C124.562 28.9993 124.367 28.631 124.367 28.189C124.367 27.5477 124.705 27.1013 125.381 26.85V26.772H123.587V26.031H130.36V26.772H128.644V26.85C129.32 27.1187 129.658 27.565 129.658 28.189C129.658 28.6223 129.463 28.9863 129.073 29.281C128.683 29.567 128.154 29.7403 127.487 29.801V30.685C128.821 30.6157 129.944 30.5117 130.854 30.373L130.945 31.114ZM126.824 29.06H127.201C127.66 29.06 128.033 28.9647 128.319 28.774C128.613 28.5747 128.761 28.2973 128.761 27.942C128.761 27.5867 128.618 27.3137 128.332 27.123C128.046 26.9237 127.669 26.824 127.201 26.824H126.824C126.356 26.824 125.974 26.9237 125.68 27.123C125.394 27.3137 125.251 27.5867 125.251 27.942C125.251 28.2973 125.394 28.5747 125.68 28.774C125.974 28.9647 126.356 29.06 126.824 29.06ZM125.277 32.453H132.778V35.885H131.816V33.22H125.277V32.453ZM145.525 24.003V32.57H144.524V24.003H145.525ZM136.165 27.513C136.165 26.9063 136.291 26.3777 136.542 25.927C136.802 25.4763 137.158 25.134 137.608 24.9C138.059 24.6573 138.575 24.536 139.155 24.536C139.727 24.536 140.239 24.6573 140.689 24.9C141.149 25.134 141.504 25.4763 141.755 25.927C142.015 26.3777 142.145 26.9063 142.145 27.513C142.145 28.111 142.015 28.6353 141.755 29.086C141.504 29.5367 141.149 29.8833 140.689 30.126C140.239 30.36 139.727 30.477 139.155 30.477C138.575 30.477 138.059 30.36 137.608 30.126C137.158 29.8833 136.802 29.541 136.542 29.099C136.291 28.6483 136.165 28.1197 136.165 27.513ZM141.092 27.786V27.24C141.092 26.668 140.91 26.213 140.546 25.875C140.191 25.5283 139.727 25.355 139.155 25.355C138.575 25.355 138.102 25.5283 137.738 25.875C137.383 26.2217 137.205 26.6767 137.205 27.24V27.786C137.205 28.3493 137.387 28.8043 137.751 29.151C138.115 29.489 138.583 29.658 139.155 29.658C139.727 29.658 140.191 29.489 140.546 29.151C140.91 28.8043 141.092 28.3493 141.092 27.786ZM138.297 34.871V31.634H139.298V34.715H145.759V35.534H138.947C138.739 35.534 138.579 35.4777 138.466 35.365C138.354 35.2523 138.297 35.0877 138.297 34.871ZM162.697 29.281H160.825V35.313H159.837V24.029H160.825V28.449H162.697V29.281ZM152.31 24.926H157.367V26.733C157.367 27.695 157.224 28.5097 156.938 29.177C156.652 29.8443 156.167 30.4683 155.482 31.049C154.806 31.621 153.836 32.2493 152.57 32.934L151.985 32.193C153.164 31.569 154.065 31.0013 154.689 30.49C155.313 29.9787 155.751 29.437 156.002 28.865C156.254 28.293 156.379 27.5867 156.379 26.746V25.771H152.31V24.926ZM173.092 28.137H165.617V24.315H166.592V27.331H173.092V28.137ZM174.6 29.476V30.334H163.992V29.476H174.6ZM173.144 33.714C173.144 34.3987 172.815 34.949 172.156 35.365C171.498 35.781 170.544 35.989 169.296 35.989C168.048 35.989 167.095 35.781 166.436 35.365C165.778 34.949 165.448 34.3987 165.448 33.714C165.448 33.2807 165.591 32.895 165.877 32.557C166.172 32.219 166.605 31.9547 167.177 31.764C167.758 31.5733 168.464 31.478 169.296 31.478C170.128 31.478 170.83 31.5733 171.402 31.764C171.983 31.9547 172.416 32.219 172.702 32.557C172.997 32.895 173.144 33.2807 173.144 33.714ZM172.104 33.636C172.104 33.246 171.87 32.921 171.402 32.661C170.943 32.3923 170.241 32.258 169.296 32.258C168.36 32.258 167.654 32.3923 167.177 32.661C166.709 32.921 166.475 33.246 166.475 33.636V33.818C166.475 34.208 166.709 34.533 167.177 34.793C167.654 35.0617 168.36 35.196 169.296 35.196C170.241 35.196 170.943 35.0617 171.402 34.793C171.87 34.533 172.104 34.208 172.104 33.818V33.636Z" fill="white"/>
<path d="M23.44 49.606H21.672V55.287H20.697V44.003H21.672V48.774H23.44V49.606ZM17.772 45.329H14.301V44.523H17.772V45.329ZM19.774 52.232L19.865 53.025C18.9117 53.181 17.772 53.3023 16.446 53.389C15.1287 53.467 13.768 53.506 12.364 53.506L12.273 52.674C13.2437 52.674 14.314 52.6523 15.484 52.609V51.062C14.7993 50.9927 14.2577 50.7847 13.859 50.438C13.4603 50.0827 13.261 49.6493 13.261 49.138C13.261 48.7653 13.352 48.4447 13.534 48.176C13.7247 47.8987 14.0107 47.682 14.392 47.526V47.448H12.455V46.668H19.449V47.448H17.577V47.526C17.9497 47.682 18.2313 47.8987 18.422 48.176C18.6127 48.4533 18.708 48.774 18.708 49.138C18.708 49.658 18.5043 50.0957 18.097 50.451C17.6897 50.7977 17.135 51.0013 16.433 51.062V52.557C17.785 52.4877 18.8987 52.3793 19.774 52.232ZM15.848 50.282H16.121C16.615 50.282 17.018 50.165 17.33 49.931C17.642 49.6883 17.798 49.3503 17.798 48.917C17.798 48.4837 17.642 48.15 17.33 47.916C17.018 47.6733 16.615 47.552 16.121 47.552H15.848C15.354 47.552 14.951 47.6733 14.639 47.916C14.327 48.15 14.171 48.4837 14.171 48.917C14.171 49.3503 14.327 49.6883 14.639 49.931C14.951 50.165 15.354 50.282 15.848 50.282ZM35.6938 46.59V47.422H33.8868V49.918H32.8988V44.003H33.8868V46.59H35.6938ZM25.4238 50.022L24.6958 49.385C25.4325 48.7523 26.0002 48.215 26.3988 47.773C26.7975 47.3223 27.0835 46.8803 27.2568 46.447C27.4302 46.005 27.5168 45.5067 27.5168 44.952V44.276H28.5048V45.004C28.5048 45.7753 28.3532 46.4643 28.0498 47.071L28.1148 47.11L28.3228 46.941C28.4268 46.863 28.5222 46.824 28.6088 46.824C28.7042 46.824 28.7908 46.863 28.8688 46.941L31.3388 49.112L30.6368 49.801L28.1538 47.513C28.0845 47.461 28.0195 47.435 27.9588 47.435C27.8982 47.435 27.8462 47.461 27.8028 47.513C27.5688 47.877 27.2655 48.2497 26.8928 48.631C26.5288 49.0123 26.0392 49.476 25.4238 50.022ZM27.7508 54.975H34.1988V55.82H27.3998C27.1918 55.82 27.0315 55.7637 26.9188 55.651C26.8062 55.5383 26.7498 55.3737 26.7498 55.157V52.804H32.8988V51.465H26.6718V50.633H33.8868V53.636H27.7508V54.975ZM46.4266 45.537H38.1196V44.705H46.4266V45.537ZM46.5436 50.308H38.0156V49.489H40.0696L39.6406 46.603L40.6416 46.499L40.9926 49.489H43.5536L43.9046 46.499L44.9186 46.603L44.4766 49.489H46.5436V50.308ZM47.5836 53.168V54H36.9756V53.168H39.8616V50.971H40.8236V53.168H43.7356V50.971H44.6976V53.168H47.5836ZM57.1595 46.031V44.913H50.8155V44.185H58.1085V46.746H51.8425V47.851H58.4335V48.592H50.8805V46.031H57.1595ZM59.8245 49.567V50.334H49.2165V49.567H59.8245ZM50.8415 55.196V53.233H57.3155V52.141H50.7635V51.374H58.2385V53.961H51.7645V55.079H58.5765V55.859H51.4915C51.2835 55.859 51.1231 55.8027 51.0105 55.69C50.8978 55.5773 50.8415 55.4127 50.8415 55.196ZM75.7875 50.321V51.127H65.1795V50.321H70.0025V49.099H66.7915V44.237H74.1625V45.017H67.7405V46.291H73.9675V47.045H67.7535V48.319H74.3705V49.099H70.9775V50.321H75.7875ZM74.3315 54C74.3315 54.6153 74.0022 55.105 73.3435 55.469C72.6849 55.833 71.7315 56.015 70.4835 56.015C69.2355 56.015 68.2822 55.833 67.6235 55.469C66.9649 55.105 66.6355 54.6153 66.6355 54C66.6355 53.3933 66.9649 52.908 67.6235 52.544C68.2822 52.1713 69.2355 51.985 70.4835 51.985C71.7315 51.985 72.6849 52.1713 73.3435 52.544C74.0022 52.908 74.3315 53.3933 74.3315 54ZM73.2915 53.922C73.2915 53.584 73.0575 53.3023 72.5895 53.077C72.1302 52.8517 71.4282 52.739 70.4835 52.739C69.5475 52.739 68.8412 52.8517 68.3645 53.077C67.8965 53.3023 67.6625 53.584 67.6625 53.922V54.078C67.6625 54.416 67.8965 54.6977 68.3645 54.923C68.8412 55.1483 69.5475 55.261 70.4835 55.261C71.4282 55.261 72.1302 55.1483 72.5895 54.923C73.0575 54.6977 73.2915 54.416 73.2915 54.078V53.922ZM87.4434 44.003V55.287H86.4814V49.398H84.7914V54.975H83.8424V44.198H84.7914V48.579H86.4814V44.003H87.4434ZM82.0484 45.693H78.7074V44.887H82.0484V45.693ZM77.3424 47.149H83.2184V47.929H81.6714V47.994C82.356 48.3667 82.6984 49.073 82.6984 50.113C82.6984 50.9277 82.4774 51.5647 82.0354 52.024C81.602 52.4747 81.03 52.7 80.3194 52.7C79.6174 52.7 79.0454 52.4747 78.6034 52.024C78.17 51.5647 77.9534 50.9277 77.9534 50.113C77.9534 49.073 78.2914 48.3667 78.9674 47.994V47.929H77.3424V47.149ZM81.7624 49.645C81.7624 49.125 81.6324 48.7263 81.3724 48.449C81.1124 48.1717 80.7614 48.033 80.3194 48.033C79.8774 48.033 79.5264 48.1717 79.2664 48.449C79.015 48.7263 78.8894 49.125 78.8894 49.645V50.269C78.8894 50.7803 79.0194 51.179 79.2794 51.465C79.548 51.751 79.8947 51.894 80.3194 51.894C80.744 51.894 81.0907 51.751 81.3594 51.465C81.628 51.179 81.7624 50.7803 81.7624 50.269V49.645ZM104.329 49.476H102.561V55.287H101.586V44.003H102.561V48.644H104.329V49.476ZM96.3865 45.68H93.8775V44.874H99.8575V45.68H97.3485C97.3485 46.4167 97.1881 47.0667 96.8675 47.63L96.9195 47.669L97.1405 47.5C97.2445 47.422 97.3441 47.383 97.4395 47.383C97.5435 47.383 97.6475 47.422 97.7515 47.5L100.13 49.372L99.4285 50.022L96.9845 48.02C96.9238 47.968 96.8545 47.942 96.7765 47.942C96.7158 47.942 96.6638 47.9593 96.6205 47.994C96.3865 48.3147 96.0788 48.6483 95.6975 48.995C95.3161 49.3417 94.8221 49.7403 94.2155 50.191L93.5135 49.554C94.2588 49.008 94.8308 48.54 95.2295 48.15C95.6281 47.76 95.9185 47.3743 96.1005 46.993C96.2825 46.6117 96.3778 46.174 96.3865 45.68ZM100.65 51.79L100.741 52.583C99.7968 52.739 98.6615 52.8603 97.3355 52.947C96.0181 53.025 94.6575 53.064 93.2535 53.064L93.1625 52.219C94.1245 52.219 95.1818 52.1973 96.3345 52.154V49.892H97.2965V52.115C98.6745 52.0283 99.7925 51.92 100.65 51.79ZM107.002 46.785C107.002 46.2823 107.145 45.8317 107.431 45.433C107.717 45.0343 108.155 44.718 108.744 44.484C109.334 44.25 110.062 44.133 110.928 44.133C111.795 44.133 112.523 44.25 113.112 44.484C113.702 44.718 114.139 45.0343 114.425 45.433C114.711 45.8317 114.854 46.2823 114.854 46.785C114.854 47.2877 114.711 47.7427 114.425 48.15C114.139 48.5487 113.702 48.865 113.112 49.099C112.523 49.333 111.795 49.45 110.928 49.45C110.062 49.45 109.334 49.333 108.744 49.099C108.155 48.865 107.717 48.5487 107.431 48.15C107.145 47.7427 107.002 47.2877 107.002 46.785ZM108.068 46.915C108.068 47.409 108.307 47.8207 108.783 48.15C109.26 48.4793 109.975 48.644 110.928 48.644C111.882 48.644 112.597 48.4793 113.073 48.15C113.55 47.8207 113.788 47.409 113.788 46.915V46.655C113.788 46.161 113.55 45.7493 113.073 45.42C112.597 45.082 111.882 44.913 110.928 44.913C109.984 44.913 109.269 45.082 108.783 45.42C108.307 45.7493 108.068 46.161 108.068 46.655V46.915ZM116.232 51.504H111.422V55.742H110.434V51.504H105.624V50.672H116.232V51.504ZM128.473 53.168V54H117.865V53.168H122.675V50.945H119.425V47.422H125.925V45.511H119.36V44.692H126.913V48.215H120.413V50.126H127.251V50.945H123.663V53.168H128.473ZM144.774 48.462H143.058V51.764H142.083V44.003H143.058V47.63H144.774V48.462ZM139.08 44.861H135.661V44.094H139.08V44.861ZM141.225 51.114C140.263 51.27 139.106 51.3913 137.754 51.478C136.411 51.556 135.024 51.595 133.594 51.595L133.516 50.789C134.825 50.789 135.93 50.7673 136.831 50.724V49.814C136.155 49.7533 135.622 49.58 135.232 49.294C134.842 48.9993 134.647 48.631 134.647 48.189C134.647 47.5477 134.985 47.1013 135.661 46.85V46.772H133.867V46.031H140.64V46.772H138.924V46.85C139.6 47.1187 139.938 47.565 139.938 48.189C139.938 48.6223 139.743 48.9863 139.353 49.281C138.963 49.567 138.435 49.7403 137.767 49.801V50.685C139.102 50.6157 140.224 50.5117 141.134 50.373L141.225 51.114ZM137.104 49.06H137.481C137.941 49.06 138.313 48.9647 138.599 48.774C138.894 48.5747 139.041 48.2973 139.041 47.942C139.041 47.5867 138.898 47.3137 138.612 47.123C138.326 46.9237 137.949 46.824 137.481 46.824H137.104C136.636 46.824 136.255 46.9237 135.96 47.123C135.674 47.3137 135.531 47.5867 135.531 47.942C135.531 48.2973 135.674 48.5747 135.96 48.774C136.255 48.9647 136.636 49.06 137.104 49.06ZM135.557 52.453H143.058V55.885H142.096V53.22H135.557V52.453ZM155.806 44.003V52.57H154.805V44.003H155.806ZM146.446 47.513C146.446 46.9063 146.572 46.3777 146.823 45.927C147.083 45.4763 147.438 45.134 147.889 44.9C148.34 44.6573 148.855 44.536 149.436 44.536C150.008 44.536 150.519 44.6573 150.97 44.9C151.429 45.134 151.785 45.4763 152.036 45.927C152.296 46.3777 152.426 46.9063 152.426 47.513C152.426 48.111 152.296 48.6353 152.036 49.086C151.785 49.5367 151.429 49.8833 150.97 50.126C150.519 50.36 150.008 50.477 149.436 50.477C148.855 50.477 148.34 50.36 147.889 50.126C147.438 49.8833 147.083 49.541 146.823 49.099C146.572 48.6483 146.446 48.1197 146.446 47.513ZM151.373 47.786V47.24C151.373 46.668 151.191 46.213 150.827 45.875C150.472 45.5283 150.008 45.355 149.436 45.355C148.855 45.355 148.383 45.5283 148.019 45.875C147.664 46.2217 147.486 46.6767 147.486 47.24V47.786C147.486 48.3493 147.668 48.8043 148.032 49.151C148.396 49.489 148.864 49.658 149.436 49.658C150.008 49.658 150.472 49.489 150.827 49.151C151.191 48.8043 151.373 48.3493 151.373 47.786ZM148.578 54.871V51.634H149.579V54.715H156.04V55.534H149.228C149.02 55.534 148.86 55.4777 148.747 55.365C148.634 55.2523 148.578 55.0877 148.578 54.871ZM172.978 49.281H171.106V55.313H170.118V44.029H171.106V48.449H172.978V49.281ZM162.591 44.926H167.648V46.733C167.648 47.695 167.505 48.5097 167.219 49.177C166.933 49.8443 166.448 50.4683 165.763 51.049C165.087 51.621 164.116 52.2493 162.851 52.934L162.266 52.193C163.445 51.569 164.346 51.0013 164.97 50.49C165.594 49.9787 166.032 49.437 166.283 48.865C166.534 48.293 166.66 47.5867 166.66 46.746V45.771H162.591V44.926ZM183.373 48.137H175.898V44.315H176.873V47.331H183.373V48.137ZM184.881 49.476V50.334H174.273V49.476H184.881ZM183.425 53.714C183.425 54.3987 183.096 54.949 182.437 55.365C181.778 55.781 180.825 55.989 179.577 55.989C178.329 55.989 177.376 55.781 176.717 55.365C176.058 54.949 175.729 54.3987 175.729 53.714C175.729 53.2807 175.872 52.895 176.158 52.557C176.453 52.219 176.886 51.9547 177.458 51.764C178.039 51.5733 178.745 51.478 179.577 51.478C180.409 51.478 181.111 51.5733 181.683 51.764C182.264 51.9547 182.697 52.219 182.983 52.557C183.278 52.895 183.425 53.2807 183.425 53.714ZM182.385 53.636C182.385 53.246 182.151 52.921 181.683 52.661C181.224 52.3923 180.522 52.258 179.577 52.258C178.641 52.258 177.935 52.3923 177.458 52.661C176.99 52.921 176.756 53.246 176.756 53.636V53.818C176.756 54.208 176.99 54.533 177.458 54.793C177.935 55.0617 178.641 55.196 179.577 55.196C180.522 55.196 181.224 55.0617 181.683 54.793C182.151 54.533 182.385 54.208 182.385 53.818V53.636Z" fill="white"/>
<rect y="4" width="2" height="10" fill="white"/>
</svg>
