<svg width="995" height="160" viewBox="0 0 995 160" fill="none" xmlns="http://www.w3.org/2000/svg">
<rect x="666.5" y="0.5" width="353" height="159" fill="#243F5B" stroke="white"/>
<path d="M711.679 49.1847H709.463C709.378 48.7112 709.219 48.2945 708.987 47.9347C708.755 47.5748 708.471 47.2694 708.135 47.0185C707.799 46.7675 707.422 46.5781 707.006 46.4503C706.594 46.3224 706.156 46.2585 705.692 46.2585C704.854 46.2585 704.103 46.4692 703.44 46.8906C702.782 47.312 702.261 47.9299 701.878 48.7443C701.499 49.5587 701.31 50.553 701.31 51.7273C701.31 52.911 701.499 53.91 701.878 54.7244C702.261 55.5388 702.785 56.1544 703.447 56.571C704.11 56.9877 704.856 57.196 705.685 57.196C706.144 57.196 706.58 57.1345 706.991 57.0114C707.408 56.8835 707.785 56.6965 708.121 56.4503C708.457 56.2041 708.741 55.9034 708.973 55.5483C709.21 55.1884 709.373 54.7765 709.463 54.3125L711.679 54.3196C711.561 55.0346 711.331 55.6927 710.99 56.294C710.654 56.8906 710.221 57.4067 709.69 57.8423C709.165 58.2732 708.563 58.607 707.886 58.8438C707.209 59.0805 706.471 59.1989 705.67 59.1989C704.411 59.1989 703.289 58.9006 702.304 58.304C701.319 57.7027 700.543 56.8433 699.974 55.7259C699.411 54.6084 699.129 53.2756 699.129 51.7273C699.129 50.1742 699.413 48.8414 699.982 47.7287C700.55 46.6113 701.326 45.7543 702.311 45.1577C703.296 44.5563 704.416 44.2557 705.67 44.2557C706.442 44.2557 707.162 44.367 707.83 44.5895C708.502 44.8073 709.106 45.1293 709.641 45.5554C710.176 45.9768 710.618 46.4929 710.969 47.1037C711.319 47.7098 711.556 48.4034 711.679 49.1847ZM728.34 51.7273C728.34 53.2803 728.056 54.6155 727.488 55.733C726.92 56.8456 726.141 57.7027 725.151 58.304C724.166 58.9006 723.046 59.1989 721.792 59.1989C720.532 59.1989 719.408 58.9006 718.418 58.304C717.433 57.7027 716.657 56.8433 716.089 55.7259C715.52 54.6084 715.236 53.2756 715.236 51.7273C715.236 50.1742 715.52 48.8414 716.089 47.7287C716.657 46.6113 717.433 45.7543 718.418 45.1577C719.408 44.5563 720.532 44.2557 721.792 44.2557C723.046 44.2557 724.166 44.5563 725.151 45.1577C726.141 45.7543 726.92 46.6113 727.488 47.7287C728.056 48.8414 728.34 50.1742 728.34 51.7273ZM726.167 51.7273C726.167 50.5436 725.975 49.5469 725.591 48.7372C725.213 47.9228 724.692 47.3073 724.029 46.8906C723.371 46.4692 722.625 46.2585 721.792 46.2585C720.954 46.2585 720.206 46.4692 719.547 46.8906C718.889 47.3073 718.368 47.9228 717.985 48.7372C717.606 49.5469 717.417 50.5436 717.417 51.7273C717.417 52.911 717.606 53.91 717.985 54.7244C718.368 55.5341 718.889 56.1496 719.547 56.571C720.206 56.9877 720.954 57.196 721.792 57.196C722.625 57.196 723.371 56.9877 724.029 56.571C724.692 56.1496 725.213 55.5341 725.591 54.7244C725.975 53.91 726.167 52.911 726.167 51.7273ZM744.216 44.4545V59H742.199L734.806 48.3324H734.671V59H732.476V44.4545H734.507L741.908 55.1364H742.043V44.4545H744.216ZM760.899 49.1847H758.683C758.597 48.7112 758.439 48.2945 758.207 47.9347C757.975 47.5748 757.691 47.2694 757.354 47.0185C757.018 46.7675 756.642 46.5781 756.225 46.4503C755.813 46.3224 755.375 46.2585 754.911 46.2585C754.073 46.2585 753.323 46.4692 752.66 46.8906C752.002 47.312 751.481 47.9299 751.097 48.7443C750.719 49.5587 750.529 50.553 750.529 51.7273C750.529 52.911 750.719 53.91 751.097 54.7244C751.481 55.5388 752.004 56.1544 752.667 56.571C753.33 56.9877 754.076 57.196 754.904 57.196C755.363 57.196 755.799 57.1345 756.211 57.0114C756.628 56.8835 757.004 56.6965 757.34 56.4503C757.676 56.2041 757.961 55.9034 758.193 55.5483C758.429 55.1884 758.593 54.7765 758.683 54.3125L760.899 54.3196C760.78 55.0346 760.55 55.6927 760.21 56.294C759.873 56.8906 759.44 57.4067 758.91 57.8423C758.384 58.2732 757.783 58.607 757.106 58.8438C756.429 59.0805 755.69 59.1989 754.89 59.1989C753.631 59.1989 752.508 58.9006 751.524 58.304C750.539 57.7027 749.762 56.8433 749.194 55.7259C748.631 54.6084 748.349 53.2756 748.349 51.7273C748.349 50.1742 748.633 48.8414 749.201 47.7287C749.769 46.6113 750.546 45.7543 751.531 45.1577C752.515 44.5563 753.635 44.2557 754.89 44.2557C755.662 44.2557 756.381 44.367 757.049 44.5895C757.721 44.8073 758.325 45.1293 758.86 45.5554C759.395 45.9768 759.838 46.4929 760.188 47.1037C760.539 47.7098 760.775 48.4034 760.899 49.1847ZM764.925 59V44.4545H774.044V46.3438H767.119V50.7756H773.568V52.6577H767.119V57.1108H774.129V59H764.925ZM778.375 59V44.4545H783.56C784.692 44.4545 785.629 44.6605 786.373 45.0724C787.116 45.4844 787.672 46.0478 788.042 46.7628C788.411 47.473 788.596 48.2732 788.596 49.1634C788.596 50.0582 788.408 50.8632 788.034 51.5781C787.665 52.2884 787.106 52.8518 786.358 53.2685C785.615 53.6804 784.68 53.8864 783.553 53.8864H779.988V52.0256H783.354C784.069 52.0256 784.649 51.9025 785.094 51.6562C785.539 51.4053 785.866 51.0644 786.074 50.6335C786.283 50.2027 786.387 49.7126 786.387 49.1634C786.387 48.6141 786.283 48.1264 786.074 47.7003C785.866 47.2741 785.537 46.9403 785.087 46.6989C784.642 46.4574 784.055 46.3366 783.326 46.3366H780.57V59H778.375ZM791.851 46.3438V44.4545H803.108V46.3438H798.57V59H796.382V46.3438H791.851Z" fill="white"/>
<rect x="0.5" y="0.5" width="656" height="159" fill="white" stroke="white"/>
<path d="M113.26 43.54V54.72H111.32V49.94H109.24V54.56H107.32V43.8H109.24V48.28H111.32V43.54H113.26ZM104.56 45.8H99.86V44.18H104.56V45.8ZM102.16 51.84C102.04 51.84 101.94 51.8867 101.86 51.98C101.153 52.8867 100.193 53.8067 98.98 54.74L97.68 53.58C98.9067 52.5933 99.7867 51.7467 100.32 51.04C100.853 50.32 101.16 49.5533 101.24 48.74H98.14V47.14H106.18V48.74H103.08C103.027 49.58 102.793 50.38 102.38 51.14L102.48 51.2L102.86 50.92C103.02 50.8 103.173 50.74 103.32 50.74C103.493 50.74 103.693 50.82 103.92 50.98L106.62 53.2L105.3 54.38L102.46 51.96C102.353 51.88 102.253 51.84 102.16 51.84ZM101.3 55.68H113.26V61.96H111.28V57.38H101.3V55.68ZM132.492 43.54V61.06H130.552V43.54H132.492ZM126.692 43.82H128.612V60.58H126.692V51.6H125.172C125.079 53.2933 124.665 54.5733 123.932 55.44C123.212 56.2933 122.265 56.72 121.092 56.72C119.839 56.72 118.845 56.2267 118.112 55.24C117.379 54.2533 117.012 52.7933 117.012 50.86C117.012 48.9133 117.379 47.4533 118.112 46.48C118.845 45.4933 119.839 45 121.092 45C122.252 45 123.185 45.4133 123.892 46.24C124.612 47.0533 125.032 48.28 125.152 49.92H126.692V43.82ZM123.132 49.6C123.132 48.6267 122.945 47.8867 122.572 47.38C122.199 46.86 121.705 46.6 121.092 46.6C120.479 46.6 119.985 46.86 119.612 47.38C119.252 47.8867 119.072 48.6267 119.072 49.6V52.12C119.072 53.0933 119.252 53.84 119.612 54.36C119.985 54.8667 120.479 55.12 121.092 55.12C121.719 55.12 122.212 54.8667 122.572 54.36C122.945 53.84 123.132 53.0933 123.132 52.12V49.6ZM157.451 43.54V53.34H155.431V43.54H157.451ZM144.131 53.4L142.651 52.12C143.717 51.3467 144.557 50.6467 145.171 50.02C145.797 49.3933 146.251 48.7733 146.531 48.16C146.824 47.5467 146.977 46.88 146.991 46.16H143.291V44.48H152.711V46.16H148.991V46.22C148.991 47.3133 148.737 48.3133 148.231 49.22L148.351 49.28L148.791 48.98C148.964 48.8467 149.151 48.78 149.351 48.78C149.564 48.78 149.757 48.8467 149.931 48.98L153.371 51.76L151.891 53.08L148.311 50.06C148.191 49.9667 148.077 49.92 147.971 49.92C147.864 49.92 147.764 49.9667 147.671 50.06C147.297 50.5533 146.831 51.06 146.271 51.58C145.724 52.0867 145.011 52.6933 144.131 53.4ZM155.471 54.36H157.451V61.78H147.471C147.044 61.78 146.717 61.6667 146.491 61.44C146.277 61.2133 146.171 60.8867 146.171 60.46V54.36H148.171V56.44H155.471V54.36ZM155.471 58.04H148.171V60.18H155.471V58.04ZM168.743 45.72H163.543V44.12H175.963V45.72H170.783C170.716 46.5867 170.416 47.3333 169.883 47.96L169.983 48.02L170.543 47.62C170.743 47.4733 170.963 47.4 171.203 47.4C171.403 47.4 171.603 47.4467 171.803 47.54L176.743 49.78L175.683 51.26L170.283 48.66C170.096 48.5667 169.909 48.52 169.723 48.52C169.536 48.52 169.356 48.5667 169.183 48.66L169.083 48.72C168.003 49.56 166.236 50.4133 163.783 51.28L162.743 49.84C164.169 49.3467 165.303 48.8933 166.143 48.48C166.983 48.0533 167.603 47.62 168.003 47.18C168.416 46.74 168.663 46.2533 168.743 45.72ZM170.763 53.92V55.26C172.363 55.3667 173.589 55.7267 174.443 56.34C175.309 56.9533 175.743 57.7333 175.743 58.68C175.743 59.36 175.509 59.96 175.043 60.48C174.589 61 173.909 61.4 173.003 61.68C172.109 61.9733 171.023 62.12 169.743 62.12C168.463 62.12 167.369 61.9733 166.463 61.68C165.569 61.4 164.889 61 164.423 60.48C163.969 59.96 163.743 59.36 163.743 58.68C163.743 57.7333 164.169 56.9533 165.023 56.34C165.889 55.7267 167.129 55.3667 168.743 55.26V53.92H161.543V52.22H177.943V53.92H170.763ZM169.743 56.8C168.436 56.8 167.456 56.9667 166.803 57.3C166.149 57.6333 165.823 58.0533 165.823 58.56V58.8C165.823 59.3067 166.149 59.7267 166.803 60.06C167.456 60.3933 168.436 60.56 169.743 60.56C171.063 60.56 172.043 60.3933 172.683 60.06C173.323 59.7267 173.643 59.3067 173.643 58.8V58.56C173.643 58.0533 173.323 57.6333 172.683 57.3C172.043 56.9667 171.063 56.8 169.743 56.8ZM195.875 43.54V61.06H193.855V43.54H195.875ZM192.615 55.42L192.795 57.04C191.315 57.2667 189.521 57.44 187.415 57.56C185.308 57.68 183.155 57.74 180.955 57.74L180.775 56.04C182.575 56.04 184.175 56.0133 185.575 55.96V52.4H182.235V44.88H191.035V46.56H184.215V50.72H191.175V52.4H187.535V55.88C189.735 55.7467 191.428 55.5933 192.615 55.42ZM214.127 50.62H202.467V44.2H204.487V48.96H214.127V50.62ZM216.407 52.52V54.26H200.007V52.52H216.407ZM204.347 59.72H214.327V61.4H203.607C203.18 61.4 202.853 61.2867 202.627 61.06C202.413 60.8333 202.307 60.5067 202.307 60.08V55.84H204.347V59.72ZM241.765 57.42V59.12H225.365V57.42H232.565V53.3H227.565V44.62H239.565V53.3H234.585V57.42H241.765ZM229.585 51.6H237.545V46.32H229.585V51.6ZM257.717 48.22V43.54H259.737V56.76H257.717V49.88H253.117V48.22H257.717ZM255.177 53.26C252.991 53.6867 250.437 53.9 247.517 53.9H245.617V44.7H253.637V46.4H247.637V52.22C250.491 52.22 252.917 52.0333 254.917 51.66L255.177 53.26ZM260.097 59.78V61.44H249.697C249.271 61.44 248.944 61.3267 248.717 61.1C248.504 60.8733 248.397 60.5467 248.397 60.12V55.46H250.417V59.78H260.097ZM280.749 49.34V51.04H278.029V57.04H276.009V43.54H278.029V49.34H280.749ZM271.809 45.74H266.469V44.04H271.809V45.74ZM269.029 55.08C268.176 55.08 267.429 54.94 266.789 54.66C266.149 54.3667 265.656 53.9733 265.309 53.48C264.976 52.9867 264.809 52.44 264.809 51.84C264.809 50.5867 265.363 49.7133 266.469 49.22V49.1H263.629V47.44H274.389V49.1H271.589V49.22C272.149 49.4733 272.569 49.8267 272.849 50.28C273.129 50.72 273.269 51.24 273.269 51.84C273.269 52.44 273.096 52.9867 272.749 53.48C272.403 53.9733 271.909 54.3667 271.269 54.66C270.629 54.94 269.883 55.08 269.029 55.08ZM268.869 53.38H269.189C269.829 53.38 270.356 53.2 270.769 52.84C271.183 52.48 271.389 51.9867 271.389 51.36C271.389 50.7333 271.183 50.24 270.769 49.88C270.369 49.52 269.843 49.34 269.189 49.34H268.869C268.229 49.34 267.703 49.52 267.289 49.88C266.889 50.24 266.689 50.7333 266.689 51.36C266.689 51.9867 266.889 52.48 267.289 52.84C267.703 53.2 268.229 53.38 268.869 53.38ZM268.909 59.92H278.449V61.58H268.189C267.763 61.58 267.436 61.4667 267.209 61.24C266.996 61.0133 266.889 60.6867 266.889 60.26V56.44H268.909V59.92ZM304.268 43.54V61.06H302.228V43.54H304.268ZM300.028 54.32L300.268 55.96C298.175 56.3733 295.535 56.58 292.348 56.58H290.328V44.96H298.568V46.66H292.368V54.9C295.368 54.9 297.921 54.7067 300.028 54.32ZM325.34 51.9H322.54V61.08H320.52V43.56H322.54V50.2H325.34V51.9ZM314.82 51.1C315.047 51.1 315.24 51.1867 315.4 51.36L318.96 55.56L317.46 56.84L313.82 52.4C313.767 52.32 313.687 52.28 313.58 52.28C313.487 52.28 313.407 52.32 313.34 52.4C312.967 53.0933 312.493 53.8067 311.92 54.54C311.347 55.2733 310.607 56.1333 309.7 57.12L308.2 55.88C309.293 54.7733 310.147 53.78 310.76 52.9C311.387 52.02 311.84 51.1467 312.12 50.28C312.413 49.4 312.56 48.4333 312.56 47.38V46.78H308.82V45.08H318.26V46.78H314.54V47.44C314.54 48.9333 314.287 50.3 313.78 51.54L313.86 51.6L314.28 51.3C314.453 51.1667 314.633 51.1 314.82 51.1ZM342.792 43.54V56.76H340.772V43.54H342.792ZM328.152 49.04C328.152 48.08 328.352 47.2533 328.752 46.56C329.152 45.8533 329.705 45.3133 330.412 44.94C331.119 44.5667 331.932 44.38 332.852 44.38C333.772 44.38 334.585 44.5667 335.292 44.94C336.012 45.3133 336.572 45.8533 336.972 46.56C337.372 47.2533 337.572 48.08 337.572 49.04C337.572 49.9867 337.372 50.8133 336.972 51.52C336.572 52.2133 336.012 52.7467 335.292 53.12C334.585 53.4933 333.772 53.68 332.852 53.68C331.932 53.68 331.119 53.4933 330.412 53.12C329.705 52.7467 329.152 52.2133 328.752 51.52C328.352 50.8133 328.152 49.9867 328.152 49.04ZM335.412 49.52V48.56C335.412 47.8 335.179 47.1933 334.712 46.74C334.245 46.2867 333.625 46.06 332.852 46.06C332.079 46.06 331.459 46.2867 330.992 46.74C330.525 47.1933 330.292 47.8 330.292 48.56V49.52C330.292 50.28 330.525 50.8867 330.992 51.34C331.459 51.7933 332.079 52.02 332.852 52.02C333.625 52.02 334.245 51.7933 334.712 51.34C335.179 50.8867 335.412 50.28 335.412 49.52ZM331.452 60.12V55.32H333.472V59.78H343.152V61.44H332.752C332.325 61.44 331.999 61.3267 331.772 61.1C331.559 60.8733 331.452 60.5467 331.452 60.12ZM359.964 43.54H361.984V61.06H359.964V43.54ZM347.684 48.82C347.684 47.98 347.891 47.24 348.304 46.6C348.731 45.9467 349.311 45.4467 350.044 45.1C350.777 44.74 351.611 44.56 352.544 44.56C353.477 44.56 354.311 44.74 355.044 45.1C355.777 45.4467 356.351 45.9467 356.764 46.6C357.191 47.24 357.404 47.98 357.404 48.82C357.404 49.66 357.191 50.4 356.764 51.04C356.351 51.68 355.777 52.18 355.044 52.54C354.311 52.8867 353.477 53.06 352.544 53.06C351.611 53.06 350.777 52.8867 350.044 52.54C349.311 52.18 348.731 51.68 348.304 51.04C347.891 50.4 347.684 49.66 347.684 48.82ZM355.284 49.04V48.58C355.284 47.86 355.031 47.28 354.524 46.84C354.017 46.4 353.357 46.18 352.544 46.18C351.731 46.18 351.071 46.4 350.564 46.84C350.057 47.28 349.804 47.86 349.804 48.58V49.04C349.804 49.76 350.057 50.34 350.564 50.78C351.071 51.22 351.731 51.44 352.544 51.44C353.357 51.44 354.017 51.22 354.524 50.78C355.031 50.34 355.284 49.76 355.284 49.04ZM346.924 55.72C349.177 55.72 351.357 55.6667 353.464 55.56C355.571 55.4533 357.331 55.3 358.744 55.1L358.944 56.7C357.464 56.94 355.671 57.12 353.564 57.24C351.471 57.36 349.311 57.42 347.084 57.42L346.924 55.72ZM388.643 57.42V59.12H372.243V57.42H379.443V53.22H374.563V44.72H386.403V46.44H376.603V51.48H386.543V53.22H381.463V57.42H388.643ZM406.575 43.54V61.06H404.555V50.92H401.115V49.22H404.555V43.54H406.575ZM398.115 50.7C398.315 50.7 398.495 50.7933 398.655 50.98L402.275 55.64L400.715 56.96L397.055 52.1C397.015 52.02 396.955 51.98 396.875 51.98C396.808 51.98 396.741 52.02 396.675 52.1C396.328 52.8467 395.868 53.6067 395.295 54.38C394.735 55.1533 393.975 56.1133 393.015 57.26L391.455 55.96C392.548 54.7333 393.401 53.6533 394.015 52.72C394.641 51.7867 395.095 50.8533 395.375 49.92C395.655 48.9733 395.795 47.9133 395.795 46.74V44.7H397.835V46.72C397.835 48.3733 397.588 49.8533 397.095 51.16L397.195 51.22L397.575 50.92C397.761 50.7733 397.941 50.7 398.115 50.7ZM427.627 49.28V50.98H425.107V57H423.107V43.54H425.107V49.28H427.627ZM418.727 46.38H411.587V44.72H420.707V45.94C420.707 47.5533 420.507 49.3333 420.107 51.28L418.167 51C418.5 49.6933 418.687 48.1533 418.727 46.38ZM421.967 53.88C420.5 54.1067 418.733 54.2867 416.667 54.42C414.6 54.54 412.5 54.6 410.367 54.6L410.207 52.92C411.527 52.92 412.833 52.9 414.127 52.86V49.06H416.107V52.8C418.453 52.6933 420.347 52.5267 421.787 52.3L421.967 53.88ZM415.727 59.78H425.467V61.44H414.987C414.56 61.44 414.233 61.3267 414.007 61.1C413.793 60.8733 413.687 60.5467 413.687 60.12V56.04H415.727V59.78Z" fill="black"/>
<path d="M107.665 86.005V82.465H108.805V92.35H107.665V86.965H104.935V86.005H107.665ZM101.665 87.415C101.595 87.415 101.53 87.445 101.47 87.505C101.2 87.925 100.855 88.36 100.435 88.81C100.015 89.25 99.455 89.79 98.755 90.43L97.9 89.695C98.74 88.975 99.39 88.355 99.85 87.835C100.31 87.305 100.64 86.785 100.84 86.275C101.05 85.755 101.155 85.175 101.155 84.535V84.385H98.29V83.44H105.13V84.385H102.295V84.595C102.295 85.485 102.12 86.28 101.77 86.98L101.86 87.025L102.085 86.845C102.195 86.765 102.3 86.725 102.4 86.725C102.52 86.725 102.64 86.775 102.76 86.875L105.565 89.425L104.725 90.16L101.89 87.505C101.83 87.445 101.755 87.415 101.665 87.415ZM109.075 94.825V95.77H101.215C100.975 95.77 100.79 95.705 100.66 95.575C100.53 95.445 100.465 95.255 100.465 95.005V91.45H101.62V94.825H109.075ZM123.559 82.465V95.485H122.479V82.465H123.559ZM119.479 82.69H120.529V95.125H119.479V89.02H117.604V88.09H119.479V82.69ZM116.989 84.265H113.539V83.335H116.989V84.265ZM115.804 89.08C115.924 89.08 116.039 89.135 116.149 89.245L118.564 91.93L117.784 92.605L115.354 89.8C115.304 89.75 115.254 89.725 115.204 89.725C115.144 89.725 115.094 89.755 115.054 89.815C114.824 90.245 114.519 90.7 114.139 91.18C113.769 91.65 113.289 92.195 112.699 92.815L111.934 92.155C112.664 91.395 113.224 90.74 113.614 90.19C114.014 89.63 114.299 89.08 114.469 88.54C114.639 88 114.724 87.385 114.724 86.695H112.249V85.78H118.234V86.695H115.774C115.774 87.635 115.624 88.48 115.324 89.23L115.384 89.275L115.519 89.17C115.609 89.11 115.704 89.08 115.804 89.08ZM137.653 82.465V90.355H136.513V86.74H133.783V85.81H136.513V82.465H137.653ZM127.603 90.025L126.748 89.305C127.588 88.615 128.238 88.025 128.698 87.535C129.158 87.035 129.488 86.545 129.688 86.065C129.898 85.585 130.003 85.04 130.003 84.43V84.265H127.138V83.305H133.978V84.265H131.143V84.49C131.143 85.34 130.968 86.095 130.618 86.755L130.708 86.8L130.948 86.635C131.058 86.545 131.168 86.5 131.278 86.5C131.408 86.5 131.523 86.545 131.623 86.635L134.413 89.035L133.573 89.785L130.738 87.28C130.658 87.22 130.583 87.19 130.513 87.19C130.433 87.19 130.363 87.22 130.303 87.28C130.043 87.67 129.708 88.07 129.298 88.48C128.888 88.88 128.323 89.395 127.603 90.025ZM129.058 91.165H137.653V96.145H136.528V92.125H129.058V91.165ZM142.237 86.545C142.237 85.875 142.407 85.275 142.747 84.745C143.097 84.205 143.627 83.775 144.337 83.455C145.047 83.135 145.922 82.975 146.962 82.975C148.002 82.975 148.877 83.135 149.587 83.455C150.297 83.775 150.822 84.205 151.162 84.745C151.512 85.275 151.687 85.875 151.687 86.545C151.687 87.215 151.512 87.82 151.162 88.36C150.822 88.9 150.297 89.33 149.587 89.65C148.877 89.97 148.002 90.13 146.962 90.13C145.922 90.13 145.047 89.97 144.337 89.65C143.627 89.33 143.097 88.9 142.747 88.36C142.407 87.82 142.237 87.215 142.237 86.545ZM150.457 86.725V86.38C150.457 85.92 150.332 85.505 150.082 85.135C149.842 84.755 149.457 84.455 148.927 84.235C148.407 84.005 147.752 83.89 146.962 83.89C146.172 83.89 145.512 84.005 144.982 84.235C144.462 84.455 144.077 84.755 143.827 85.135C143.587 85.505 143.467 85.92 143.467 86.38V86.725C143.467 87.435 143.757 88.025 144.337 88.495C144.917 88.965 145.792 89.2 146.962 89.2C148.132 89.2 149.007 88.965 149.587 88.495C150.167 88.025 150.457 87.435 150.457 86.725ZM140.842 93.025H153.082V94H140.842V93.025ZM167.506 93.04V94H155.266V93.04H160.816V90.475H157.066V86.41H164.566V84.205H156.991V83.26H165.706V87.325H158.206V89.53H166.096V90.475H161.956V93.04H167.506ZM187.005 85.45V86.41H184.995V89.335H183.87V82.465H184.995V85.45H187.005ZM174.885 88.765L174.12 88.09C174.86 87.62 175.435 87.205 175.845 86.845C176.265 86.475 176.565 86.105 176.745 85.735C176.935 85.365 177.03 84.945 177.03 84.475V83.995H174.585V83.065H178.095V84.325C178.095 84.955 177.99 85.505 177.78 85.975C177.57 86.445 177.235 86.895 176.775 87.325C176.325 87.745 175.695 88.225 174.885 88.765ZM180.93 84.655V83.995H178.77V83.065H181.995V84.52C181.995 85.24 181.895 85.86 181.695 86.38C181.495 86.89 181.18 87.37 180.75 87.82C180.32 88.27 179.71 88.775 178.92 89.335L178.11 88.675C178.84 88.175 179.405 87.73 179.805 87.34C180.205 86.94 180.49 86.53 180.66 86.11C180.84 85.69 180.93 85.205 180.93 84.655ZM177.765 95.125H185.355V96.1H177.375C177.135 96.1 176.95 96.035 176.82 95.905C176.69 95.775 176.625 95.585 176.625 95.335V92.62H183.855V91.075H176.535V90.115H185.01V93.58H177.765V95.125ZM200.949 88.135V89.11H188.709V88.135H192.369C192.599 87.455 192.774 86.77 192.894 86.08C193.024 85.39 193.084 84.645 193.074 83.845V83.815H189.909V82.885H194.154V83.845C194.154 85.335 193.934 86.765 193.494 88.135H197.784C198.154 86.745 198.334 85.315 198.324 83.845V83.815H195.084V82.885H199.419V83.89C199.419 85.31 199.249 86.725 198.909 88.135H200.949ZM190.524 90.97H199.134V95.995H191.274C191.034 95.995 190.849 95.93 190.719 95.8C190.589 95.67 190.524 95.48 190.524 95.23V90.97ZM191.649 95.05H198.009V91.9H191.649V95.05ZM215.778 86.92V87.88H213.693V92.5H212.553V82.465H213.693V86.92H215.778ZM209.118 83.83H205.113V82.87H209.118V83.83ZM207.018 90.94C206.398 90.94 205.853 90.835 205.383 90.625C204.913 90.415 204.548 90.125 204.288 89.755C204.038 89.385 203.913 88.965 203.913 88.495C203.913 88.025 204.023 87.615 204.243 87.265C204.473 86.905 204.813 86.63 205.263 86.44V86.365H202.923V85.42H211.053V86.365H208.773V86.44C209.223 86.63 209.558 86.905 209.778 87.265C210.008 87.615 210.123 88.025 210.123 88.495C210.123 88.965 209.993 89.385 209.733 89.755C209.483 90.125 209.123 90.415 208.653 90.625C208.183 90.835 207.638 90.94 207.018 90.94ZM206.898 89.98H207.153C207.713 89.98 208.168 89.83 208.518 89.53C208.878 89.22 209.058 88.79 209.058 88.24C209.058 87.69 208.883 87.26 208.533 86.95C208.183 86.64 207.723 86.485 207.153 86.485H206.898C206.328 86.485 205.868 86.64 205.518 86.95C205.168 87.25 204.993 87.68 204.993 88.24C204.993 88.79 205.168 89.22 205.518 89.53C205.878 89.83 206.338 89.98 206.898 89.98ZM206.658 94.9H213.993V95.845H206.268C206.028 95.845 205.843 95.78 205.713 95.65C205.583 95.52 205.518 95.33 205.518 95.08V92.08H206.658V94.9ZM233.387 92.815H232.247V82.465H233.387V92.815ZM228.632 83.605H224.657V82.705H228.632V83.605ZM224.687 85.855H222.542V84.985H230.477V85.855H228.407V85.93C229.227 86.26 229.637 86.82 229.637 87.61C229.637 88.21 229.352 88.7 228.782 89.08C228.222 89.45 227.477 89.635 226.547 89.635C225.607 89.635 224.857 89.45 224.297 89.08C223.737 88.7 223.457 88.21 223.457 87.61C223.457 86.82 223.867 86.26 224.687 85.93V85.855ZM228.587 87.325C228.587 86.875 228.417 86.53 228.077 86.29C227.737 86.04 227.292 85.915 226.742 85.915H226.337C225.797 85.915 225.357 86.04 225.017 86.29C224.677 86.53 224.507 86.875 224.507 87.325C224.507 87.765 224.677 88.11 225.017 88.36C225.357 88.61 225.797 88.735 226.337 88.735H226.742C227.282 88.735 227.722 88.61 228.062 88.36C228.412 88.11 228.587 87.765 228.587 87.325ZM231.227 91.105C230.087 91.285 228.727 91.42 227.147 91.51C225.577 91.6 223.967 91.645 222.317 91.645L222.212 90.715C223.912 90.715 225.547 90.675 227.117 90.595C228.697 90.515 230.032 90.39 231.122 90.22L231.227 91.105ZM233.627 94.99V95.92H225.632C225.392 95.92 225.207 95.855 225.077 95.725C224.947 95.595 224.882 95.405 224.882 95.155V92.545H226.022V94.99H233.627ZM248.141 82.465V90.295H247.031V86.83H245.021V90.13H243.926V82.675H245.021V85.9H247.031V82.465H248.141ZM239.861 87.115C239.781 87.115 239.721 87.145 239.681 87.205C239.451 87.635 239.151 88.08 238.781 88.54C238.411 88.99 237.936 89.51 237.356 90.1L236.561 89.41C237.301 88.64 237.861 87.985 238.241 87.445C238.631 86.895 238.906 86.36 239.066 85.84C239.236 85.32 239.321 84.72 239.321 84.04V83.215H240.416V84.07C240.416 85.01 240.271 85.845 239.981 86.575L240.041 86.605L240.221 86.455C240.331 86.375 240.431 86.335 240.521 86.335C240.621 86.335 240.721 86.385 240.821 86.485L243.221 89.095L242.441 89.845L240.056 87.205C239.996 87.145 239.931 87.115 239.861 87.115ZM239.321 91.12H248.141V96.145H247.016V92.095H239.321V91.12ZM267.16 82.465V95.485H266.065V88.495H264.04V95.125H262.945V82.69H264.04V87.55H266.065V82.465H267.16ZM260.17 83.575H261.25V91.885H256.075V83.605H257.14V86.755H260.17V83.575ZM260.17 87.685H257.14V90.94H260.17V87.685ZM280.114 88.165H277.159V87.25H280.114V85.315H277.159V84.385H280.114V82.465H281.254V90.22H280.114V88.165ZM271.144 90.085L270.529 89.215C271.869 88.685 272.884 88.215 273.574 87.805C274.274 87.385 274.764 86.945 275.044 86.485C275.324 86.025 275.464 85.46 275.464 84.79V84.205H270.904V83.245H276.604V84.655C276.604 85.535 276.444 86.265 276.124 86.845C275.804 87.425 275.259 87.965 274.489 88.465C273.719 88.955 272.604 89.495 271.144 90.085ZM281.329 93.34C281.329 93.89 281.169 94.38 280.849 94.81C280.539 95.25 280.069 95.595 279.439 95.845C278.809 96.095 278.039 96.22 277.129 96.22C276.219 96.22 275.444 96.095 274.804 95.845C274.174 95.595 273.699 95.25 273.379 94.81C273.069 94.38 272.914 93.89 272.914 93.34C272.914 92.79 273.069 92.3 273.379 91.87C273.699 91.43 274.174 91.085 274.804 90.835C275.444 90.585 276.219 90.46 277.129 90.46C278.039 90.46 278.809 90.585 279.439 90.835C280.069 91.085 280.539 91.43 280.849 91.87C281.169 92.3 281.329 92.79 281.329 93.34ZM280.114 93.22C280.114 92.7 279.864 92.265 279.364 91.915C278.874 91.565 278.129 91.39 277.129 91.39C276.129 91.39 275.379 91.57 274.879 91.93C274.379 92.28 274.129 92.71 274.129 93.22V93.475C274.129 93.985 274.379 94.415 274.879 94.765C275.379 95.125 276.129 95.305 277.129 95.305C278.129 95.305 278.874 95.125 279.364 94.765C279.864 94.415 280.114 93.985 280.114 93.475V93.22ZM285.838 86.545C285.838 85.875 286.008 85.275 286.348 84.745C286.698 84.205 287.228 83.775 287.938 83.455C288.648 83.135 289.523 82.975 290.563 82.975C291.603 82.975 292.478 83.135 293.188 83.455C293.898 83.775 294.423 84.205 294.763 84.745C295.113 85.275 295.288 85.875 295.288 86.545C295.288 87.215 295.113 87.82 294.763 88.36C294.423 88.9 293.898 89.33 293.188 89.65C292.478 89.97 291.603 90.13 290.563 90.13C289.523 90.13 288.648 89.97 287.938 89.65C287.228 89.33 286.698 88.9 286.348 88.36C286.008 87.82 285.838 87.215 285.838 86.545ZM294.058 86.725V86.38C294.058 85.92 293.933 85.505 293.683 85.135C293.443 84.755 293.058 84.455 292.528 84.235C292.008 84.005 291.353 83.89 290.563 83.89C289.773 83.89 289.113 84.005 288.583 84.235C288.063 84.455 287.678 84.755 287.428 85.135C287.188 85.505 287.068 85.92 287.068 86.38V86.725C287.068 87.435 287.358 88.025 287.938 88.495C288.518 88.965 289.393 89.2 290.563 89.2C291.733 89.2 292.608 88.965 293.188 88.495C293.768 88.025 294.058 87.435 294.058 86.725ZM284.443 93.025H296.683V94H284.443V93.025ZM311.107 93.04V94H298.867V93.04H304.417V90.475H300.667V86.41H308.167V84.205H300.592V83.26H309.307V87.325H301.807V89.53H309.697V90.475H305.557V93.04H311.107ZM329.451 82.465V90.82H328.356V87.145H326.331V90.685H325.251V82.675H326.331V86.2H328.356V82.465H329.451ZM323.016 83.92H319.536V83.005H323.016V83.92ZM321.201 88.42C321.131 88.42 321.066 88.45 321.006 88.51C320.586 89.1 319.836 89.845 318.756 90.745L318.006 90.085C318.706 89.505 319.246 89.015 319.626 88.615C320.006 88.205 320.286 87.81 320.466 87.43C320.646 87.04 320.746 86.61 320.766 86.14H318.306V85.225H324.201V86.14H321.816C321.786 86.81 321.616 87.435 321.306 88.015L321.366 88.045L321.591 87.88C321.671 87.81 321.761 87.775 321.861 87.775C321.971 87.775 322.091 87.825 322.221 87.925L324.501 89.83L323.751 90.505L321.441 88.51C321.371 88.45 321.291 88.42 321.201 88.42ZM320.631 91.615H329.451V96.145H328.326V92.575H320.631V91.615ZM344.94 88.78H342.9V95.485H341.775V82.465H342.9V87.82H344.94V88.78ZM338.58 84.595H332.94V83.65H339.69V84.805C339.69 86.395 339.51 87.98 339.15 89.56L338.055 89.395C338.405 87.945 338.58 86.46 338.58 84.94V84.595ZM340.695 91.21L340.8 92.125C339.7 92.305 338.385 92.44 336.855 92.53C335.335 92.62 333.77 92.665 332.16 92.665L332.055 91.705C333.055 91.705 334.05 91.69 335.04 91.66V87.595H336.15V91.615C337.96 91.535 339.475 91.4 340.695 91.21ZM362.894 82.465V95.485H361.784V88.495H359.654V95.125H358.559V82.69H359.654V87.55H361.784V82.465H362.894ZM357.614 90.505L357.764 91.435C356.534 91.735 355.019 91.885 353.219 91.885H351.959V83.785H353.054V90.94H353.489C354.269 90.94 355.014 90.905 355.724 90.835C356.444 90.755 357.074 90.645 357.614 90.505ZM377.993 89.05V90.01H365.753V89.05H369.008V87.28C368.458 87.05 368.043 86.75 367.763 86.38C367.493 86.01 367.358 85.59 367.358 85.12C367.358 84.34 367.738 83.71 368.498 83.23C369.258 82.74 370.383 82.495 371.873 82.495C373.363 82.495 374.488 82.74 375.248 83.23C376.008 83.71 376.388 84.34 376.388 85.12C376.388 85.59 376.248 86.01 375.968 86.38C375.698 86.75 375.288 87.05 374.738 87.28V89.05H377.993ZM371.873 86.86C372.983 86.86 373.813 86.705 374.363 86.395C374.913 86.085 375.188 85.69 375.188 85.21V85C375.188 84.53 374.908 84.14 374.348 83.83C373.798 83.52 372.973 83.365 371.873 83.365C370.773 83.365 369.948 83.52 369.398 83.83C368.848 84.14 368.573 84.53 368.573 85V85.21C368.573 85.69 368.843 86.085 369.383 86.395C369.933 86.705 370.763 86.86 371.873 86.86ZM370.103 89.05H373.643V87.595C373.153 87.695 372.563 87.745 371.873 87.745C371.183 87.745 370.593 87.695 370.103 87.595V89.05ZM376.313 93.685C376.313 94.195 376.143 94.645 375.803 95.035C375.473 95.425 374.973 95.73 374.303 95.95C373.643 96.18 372.833 96.295 371.873 96.295C370.913 96.295 370.098 96.18 369.428 95.95C368.768 95.73 368.268 95.425 367.928 95.035C367.598 94.645 367.433 94.195 367.433 93.685C367.433 93.185 367.598 92.745 367.928 92.365C368.268 91.975 368.768 91.67 369.428 91.45C370.098 91.23 370.913 91.12 371.873 91.12C372.833 91.12 373.643 91.23 374.303 91.45C374.973 91.67 375.473 91.975 375.803 92.365C376.143 92.745 376.313 93.185 376.313 93.685ZM375.113 93.595C375.113 93.155 374.843 92.785 374.303 92.485C373.773 92.175 372.963 92.02 371.873 92.02C371.143 92.02 370.533 92.095 370.043 92.245C369.553 92.385 369.193 92.575 368.963 92.815C368.733 93.055 368.618 93.315 368.618 93.595V93.805C368.618 94.085 368.733 94.345 368.963 94.585C369.193 94.825 369.553 95.015 370.043 95.155C370.533 95.305 371.143 95.38 371.873 95.38C372.963 95.38 373.773 95.225 374.303 94.915C374.843 94.615 375.113 94.245 375.113 93.805V93.595ZM391.742 82.465V95.485H390.647V82.465H391.742ZM387.692 82.69H388.757V95.125H387.692V88.3H386.252C386.202 89.6 385.912 90.58 385.382 91.24C384.852 91.89 384.152 92.215 383.282 92.215C382.352 92.215 381.617 91.855 381.077 91.135C380.537 90.405 380.267 89.32 380.267 87.88C380.267 86.44 380.537 85.36 381.077 84.64C381.617 83.91 382.352 83.545 383.282 83.545C384.142 83.545 384.832 83.865 385.352 84.505C385.882 85.145 386.182 86.095 386.252 87.355H387.692V82.69ZM385.112 87.16C385.112 86.28 384.942 85.61 384.602 85.15C384.272 84.69 383.832 84.46 383.282 84.46C382.722 84.46 382.272 84.69 381.932 85.15C381.602 85.61 381.437 86.28 381.437 87.16V88.615C381.437 89.485 381.602 90.155 381.932 90.625C382.272 91.085 382.722 91.315 383.282 91.315C383.832 91.315 384.272 91.085 384.602 90.625C384.942 90.155 385.112 89.485 385.112 88.615V87.16ZM410.431 82.465V89.74H409.276V82.465H410.431ZM400.441 89.68L399.601 88.96C400.451 88.31 401.111 87.745 401.581 87.265C402.051 86.785 402.391 86.315 402.601 85.855C402.811 85.385 402.916 84.855 402.916 84.265V84.145H400.021V83.2H406.936V84.145H404.041V84.325C404.041 85.165 403.861 85.9 403.501 86.53L403.606 86.575L403.846 86.395C403.956 86.315 404.071 86.275 404.191 86.275C404.321 86.275 404.431 86.315 404.521 86.395L407.371 88.705L406.531 89.455L403.636 87.025C403.566 86.965 403.486 86.935 403.396 86.935C403.316 86.935 403.246 86.965 403.186 87.025C402.926 87.405 402.586 87.795 402.166 88.195C401.746 88.585 401.171 89.08 400.441 89.68ZM409.306 90.58H410.431V96.025H402.931C402.691 96.025 402.506 95.96 402.376 95.83C402.246 95.7 402.181 95.51 402.181 95.26V90.58H403.306V92.35H409.306V90.58ZM409.306 93.25H403.306V95.11H409.306V93.25ZM419.2 83.8H415.12V82.885H424.36V83.8H420.325C420.305 84.5 420.09 85.09 419.68 85.57L419.755 85.6L420.07 85.375C420.21 85.285 420.34 85.24 420.46 85.24C420.56 85.24 420.68 85.27 420.82 85.33L424.915 87.235L424.315 88.06L420.025 85.99C419.895 85.92 419.765 85.885 419.635 85.885C419.495 85.885 419.37 85.92 419.26 85.99C418.87 86.32 418.345 86.655 417.685 86.995C417.025 87.325 416.18 87.69 415.15 88.09L414.565 87.28C415.755 86.83 416.675 86.43 417.325 86.08C417.975 85.72 418.44 85.365 418.72 85.015C419.01 84.665 419.17 84.26 419.2 83.8ZM420.31 90.01V91.21C421.57 91.28 422.53 91.54 423.19 91.99C423.85 92.44 424.18 93.02 424.18 93.73C424.18 94.23 424.01 94.67 423.67 95.05C423.34 95.44 422.84 95.745 422.17 95.965C421.51 96.185 420.7 96.295 419.74 96.295C418.78 96.295 417.965 96.185 417.295 95.965C416.635 95.745 416.135 95.44 415.795 95.05C415.465 94.67 415.3 94.23 415.3 93.73C415.3 93.02 415.63 92.44 416.29 91.99C416.95 91.54 417.91 91.28 419.17 91.21V90.01H413.62V89.05H425.86V90.01H420.31ZM419.74 92.08C418.65 92.08 417.83 92.23 417.28 92.53C416.74 92.83 416.47 93.2 416.47 93.64V93.85C416.47 94.28 416.74 94.645 417.28 94.945C417.83 95.245 418.65 95.395 419.74 95.395C420.83 95.395 421.645 95.245 422.185 94.945C422.725 94.645 422.995 94.28 422.995 93.85V93.64C422.995 93.19 422.725 92.82 422.185 92.53C421.655 92.23 420.84 92.08 419.74 92.08ZM440.689 85.825V86.785H438.604V89.815H437.464V82.465H438.604V85.825H440.689ZM434.029 83.62H430.024V82.705H434.029V83.62ZM431.929 89.605C430.989 89.605 430.234 89.425 429.664 89.065C429.104 88.695 428.824 88.21 428.824 87.61C428.824 86.83 429.234 86.285 430.054 85.975V85.885H427.834V85H435.964V85.885H433.804V85.975C434.624 86.285 435.034 86.83 435.034 87.61C435.034 88.21 434.749 88.695 434.179 89.065C433.619 89.425 432.869 89.605 431.929 89.605ZM431.749 88.69H432.109C432.659 88.69 433.109 88.57 433.459 88.33C433.809 88.09 433.984 87.755 433.984 87.325C433.984 86.895 433.809 86.56 433.459 86.32C433.119 86.08 432.669 85.96 432.109 85.96H431.749C431.189 85.96 430.734 86.08 430.384 86.32C430.044 86.56 429.874 86.895 429.874 87.325C429.874 87.755 430.049 88.09 430.399 88.33C430.749 88.57 431.199 88.69 431.749 88.69ZM431.449 95.17H438.964V96.1H431.089C430.849 96.1 430.664 96.035 430.534 95.905C430.404 95.775 430.339 95.585 430.339 95.335V92.89H437.494V91.51H430.249V90.595H438.604V93.79H431.449V95.17ZM448.413 88.735L447.783 87.865C449.103 87.265 450.113 86.725 450.813 86.245C451.513 85.765 451.998 85.29 452.268 84.82C452.548 84.35 452.688 83.805 452.688 83.185V82.72H453.858V83.215C453.858 83.725 453.793 84.18 453.663 84.58C453.543 84.98 453.348 85.36 453.078 85.72L453.153 85.75L453.543 85.465C453.673 85.365 453.808 85.315 453.948 85.315C454.078 85.315 454.198 85.35 454.308 85.42L458.598 87.805L457.953 88.69L453.498 86.125C453.358 86.045 453.223 86.005 453.093 86.005C452.953 86.005 452.818 86.055 452.688 86.155L452.673 86.17C452.273 86.56 451.733 86.955 451.053 87.355C450.383 87.755 449.503 88.215 448.413 88.735ZM459.303 91.135H453.753V96.01H452.613V91.135H447.063V90.175H459.303V91.135ZM477.317 89.98H476.162V82.465H477.317V89.98ZM466.517 86.2C466.517 85.54 466.662 84.965 466.952 84.475C467.252 83.985 467.662 83.61 468.182 83.35C468.702 83.08 469.297 82.945 469.967 82.945C470.637 82.945 471.232 83.08 471.752 83.35C472.272 83.61 472.677 83.985 472.967 84.475C473.267 84.965 473.417 85.54 473.417 86.2C473.417 86.86 473.267 87.435 472.967 87.925C472.677 88.415 472.267 88.795 471.737 89.065C471.217 89.325 470.627 89.455 469.967 89.455C469.307 89.455 468.712 89.325 468.182 89.065C467.662 88.795 467.252 88.415 466.952 87.925C466.662 87.435 466.517 86.86 466.517 86.2ZM467.717 86.455C467.717 87.075 467.922 87.575 468.332 87.955C468.752 88.325 469.297 88.51 469.967 88.51C470.637 88.51 471.177 88.325 471.587 87.955C471.997 87.575 472.202 87.075 472.202 86.455V85.93C472.202 85.31 471.997 84.815 471.587 84.445C471.177 84.075 470.637 83.89 469.967 83.89C469.297 83.89 468.752 84.075 468.332 84.445C467.922 84.815 467.717 85.31 467.717 85.93V86.455ZM478.547 95.275L477.812 96.055L475.592 93.88C475.532 93.81 475.462 93.775 475.382 93.775C475.342 93.775 475.297 93.79 475.247 93.82C475.017 94.16 474.722 94.51 474.362 94.87C474.002 95.24 473.522 95.685 472.922 96.205L470.642 93.835C470.572 93.765 470.502 93.73 470.432 93.73C470.392 93.73 470.337 93.755 470.267 93.805C469.827 94.465 469.077 95.25 468.017 96.16L467.297 95.395C467.967 94.835 468.492 94.335 468.872 93.895C469.252 93.455 469.522 93.02 469.682 92.59C469.852 92.16 469.937 91.675 469.937 91.135V90.655H471.017V91.165C471.017 91.985 470.862 92.7 470.552 93.31L470.612 93.34L470.807 93.19C470.887 93.12 470.982 93.085 471.092 93.085C471.212 93.085 471.317 93.13 471.407 93.22L472.997 94.81C473.717 94.16 474.212 93.575 474.482 93.055C474.752 92.535 474.887 91.9 474.887 91.15V90.655H475.967V91.21C475.967 91.65 475.932 92.04 475.862 92.38C475.792 92.72 475.677 93.045 475.517 93.355L475.577 93.4L475.772 93.235C475.882 93.155 475.987 93.115 476.087 93.115C476.187 93.115 476.287 93.155 476.387 93.235L478.547 95.275ZM492.746 93.04V94H480.506V93.04H486.056V89.575H482.276V83.35H491.021V84.325H483.416V88.6H491.156V89.575H487.196V93.04H492.746ZM507.17 89.89V90.85H494.93V89.89H500.495V88.465H496.835V85.165H504.11V83.68H496.76V82.765H505.22V86.05H497.945V87.55H505.595V88.465H501.62V89.89H507.17ZM496.625 92.125H505.355V96.1H504.23V93.055H496.625V92.125ZM525.109 82.465V95.485H523.969V82.465H525.109ZM522.094 90.685L522.244 91.6C520.694 91.91 518.764 92.065 516.454 92.065H514.849V83.53H520.894V84.49H516.004V91.105H516.424C518.714 91.105 520.604 90.965 522.094 90.685ZM541.003 88.555H538.843V95.515H537.703V82.495H538.843V87.595H541.003V88.555ZM532.873 87.97C532.993 87.97 533.108 88.025 533.218 88.135L536.143 91.6L535.288 92.335L532.348 88.75C532.288 88.69 532.223 88.66 532.153 88.66C532.083 88.66 532.033 88.69 532.003 88.75C531.733 89.29 531.378 89.845 530.938 90.415C530.508 90.975 529.918 91.68 529.168 92.53L528.328 91.825C529.198 90.905 529.863 90.11 530.323 89.44C530.793 88.77 531.133 88.105 531.343 87.445C531.553 86.775 531.658 86.015 531.658 85.165V84.595H528.718V83.635H535.708V84.595H532.783V85.195C532.783 86.315 532.603 87.32 532.243 88.21L532.318 88.27L532.558 88.09C532.658 88.01 532.763 87.97 532.873 87.97ZM554.032 82.465V92.35H552.877V82.465H554.032ZM543.232 86.515C543.232 85.815 543.377 85.205 543.667 84.685C543.967 84.165 544.377 83.77 544.897 83.5C545.417 83.22 546.012 83.08 546.682 83.08C547.342 83.08 547.932 83.22 548.452 83.5C548.982 83.77 549.392 84.165 549.682 84.685C549.982 85.205 550.132 85.815 550.132 86.515C550.132 87.205 549.982 87.81 549.682 88.33C549.392 88.85 548.982 89.25 548.452 89.53C547.932 89.8 547.342 89.935 546.682 89.935C546.012 89.935 545.417 89.8 544.897 89.53C544.377 89.25 543.967 88.855 543.667 88.345C543.377 87.825 543.232 87.215 543.232 86.515ZM548.917 86.83V86.2C548.917 85.54 548.707 85.015 548.287 84.625C547.877 84.225 547.342 84.025 546.682 84.025C546.012 84.025 545.467 84.225 545.047 84.625C544.637 85.025 544.432 85.55 544.432 86.2V86.83C544.432 87.48 544.642 88.005 545.062 88.405C545.482 88.795 546.022 88.99 546.682 88.99C547.342 88.99 547.877 88.795 548.287 88.405C548.707 88.005 548.917 87.48 548.917 86.83ZM545.692 95.005V91.27H546.847V94.825H554.302V95.77H546.442C546.202 95.77 546.017 95.705 545.887 95.575C545.757 95.445 545.692 95.255 545.692 95.005ZM569.851 88.795H567.736V95.515H566.596V82.495H567.736V87.835H569.851V88.795ZM563.401 84.175H559.141V83.2H563.401V84.175ZM557.146 85.975H565.171V86.905H562.951V86.995C563.861 87.445 564.316 88.31 564.316 89.59C564.316 90.24 564.181 90.805 563.911 91.285C563.641 91.755 563.266 92.115 562.786 92.365C562.316 92.615 561.791 92.74 561.211 92.74C560.631 92.74 560.101 92.615 559.621 92.365C559.151 92.115 558.781 91.755 558.511 91.285C558.241 90.805 558.106 90.24 558.106 89.59C558.106 88.31 558.561 87.445 559.471 86.995V86.905H557.146V85.975ZM563.206 89.095C563.206 88.425 563.026 87.915 562.666 87.565C562.306 87.205 561.821 87.025 561.211 87.025C560.611 87.025 560.126 87.205 559.756 87.565C559.396 87.925 559.216 88.435 559.216 89.095V89.71C559.216 90.36 559.401 90.87 559.771 91.24C560.141 91.6 560.621 91.78 561.211 91.78C561.801 91.78 562.281 91.6 562.651 91.24C563.021 90.87 563.206 90.36 563.206 89.71V89.095ZM581.74 88.03H579.07V87.115H581.74V85.24H579.07V84.325H581.74V82.465H582.88V89.98H581.74V88.03ZM572.005 86.185C572.005 85.525 572.15 84.95 572.44 84.46C572.73 83.97 573.13 83.595 573.64 83.335C574.15 83.065 574.735 82.93 575.395 82.93C576.055 82.93 576.64 83.065 577.15 83.335C577.66 83.595 578.06 83.97 578.35 84.46C578.64 84.95 578.785 85.525 578.785 86.185C578.785 86.845 578.64 87.42 578.35 87.91C578.06 88.4 577.655 88.78 577.135 89.05C576.625 89.31 576.045 89.44 575.395 89.44C574.745 89.44 574.16 89.31 573.64 89.05C573.13 88.78 572.73 88.4 572.44 87.91C572.15 87.42 572.005 86.845 572.005 86.185ZM573.19 86.455C573.19 87.085 573.39 87.59 573.79 87.97C574.2 88.34 574.735 88.525 575.395 88.525C576.055 88.525 576.585 88.34 576.985 87.97C577.395 87.59 577.6 87.085 577.6 86.455V85.915C577.6 85.285 577.395 84.785 576.985 84.415C576.585 84.035 576.055 83.845 575.395 83.845C574.735 83.845 574.2 84.035 573.79 84.415C573.39 84.785 573.19 85.285 573.19 85.915V86.455ZM584.11 95.275L583.375 96.055L581.155 93.88C581.095 93.81 581.025 93.775 580.945 93.775C580.905 93.775 580.86 93.79 580.81 93.82C580.58 94.16 580.285 94.51 579.925 94.87C579.565 95.24 579.085 95.685 578.485 96.205L576.205 93.835C576.135 93.765 576.065 93.73 575.995 93.73C575.955 93.73 575.9 93.755 575.83 93.805C575.39 94.465 574.64 95.25 573.58 96.16L572.86 95.395C573.53 94.835 574.055 94.335 574.435 93.895C574.815 93.455 575.085 93.02 575.245 92.59C575.415 92.16 575.5 91.675 575.5 91.135V90.655H576.58V91.165C576.58 91.985 576.425 92.7 576.115 93.31L576.175 93.34L576.37 93.19C576.45 93.12 576.545 93.085 576.655 93.085C576.775 93.085 576.88 93.13 576.97 93.22L578.56 94.81C579.28 94.16 579.775 93.575 580.045 93.055C580.315 92.535 580.45 91.9 580.45 91.15V90.655H581.53V91.21C581.53 91.65 581.495 92.04 581.425 92.38C581.355 92.72 581.24 93.045 581.08 93.355L581.14 93.4L581.335 93.235C581.445 93.155 581.55 93.115 581.65 93.115C581.75 93.115 581.85 93.155 581.95 93.235L584.11 95.275ZM587.464 86.545C587.464 85.875 587.634 85.275 587.974 84.745C588.324 84.205 588.854 83.775 589.564 83.455C590.274 83.135 591.149 82.975 592.189 82.975C593.229 82.975 594.104 83.135 594.814 83.455C595.524 83.775 596.049 84.205 596.389 84.745C596.739 85.275 596.914 85.875 596.914 86.545C596.914 87.215 596.739 87.82 596.389 88.36C596.049 88.9 595.524 89.33 594.814 89.65C594.104 89.97 593.229 90.13 592.189 90.13C591.149 90.13 590.274 89.97 589.564 89.65C588.854 89.33 588.324 88.9 587.974 88.36C587.634 87.82 587.464 87.215 587.464 86.545ZM595.684 86.725V86.38C595.684 85.92 595.559 85.505 595.309 85.135C595.069 84.755 594.684 84.455 594.154 84.235C593.634 84.005 592.979 83.89 592.189 83.89C591.399 83.89 590.739 84.005 590.209 84.235C589.689 84.455 589.304 84.755 589.054 85.135C588.814 85.505 588.694 85.92 588.694 86.38V86.725C588.694 87.435 588.984 88.025 589.564 88.495C590.144 88.965 591.019 89.2 592.189 89.2C593.359 89.2 594.234 88.965 594.814 88.495C595.394 88.025 595.684 87.435 595.684 86.725ZM586.069 93.025H598.309V94H586.069V93.025ZM611.683 82.465V95.485H610.558V89.935H607.288V91.855H601.183V83.5H607.288V85.345H610.558V82.465H611.683ZM606.193 84.43H602.278V90.925H606.193V84.43ZM610.558 88.99V86.275H607.288V88.99H610.558ZM109.135 105.465V118.485H108.025V105.465H109.135ZM105.1 105.69H106.195V118.125H105.1V111.12H103.3V114.825H98.035V106.77H103.3V110.175H105.1V105.69ZM102.22 107.7H99.13V113.895H102.22V107.7ZM123.229 105.465V115.35H122.074V105.465H123.229ZM112.429 109.515C112.429 108.815 112.574 108.205 112.864 107.685C113.164 107.165 113.574 106.77 114.094 106.5C114.614 106.22 115.209 106.08 115.879 106.08C116.539 106.08 117.129 106.22 117.649 106.5C118.179 106.77 118.589 107.165 118.879 107.685C119.179 108.205 119.329 108.815 119.329 109.515C119.329 110.205 119.179 110.81 118.879 111.33C118.589 111.85 118.179 112.25 117.649 112.53C117.129 112.8 116.539 112.935 115.879 112.935C115.209 112.935 114.614 112.8 114.094 112.53C113.574 112.25 113.164 111.855 112.864 111.345C112.574 110.825 112.429 110.215 112.429 109.515ZM118.114 109.83V109.2C118.114 108.54 117.904 108.015 117.484 107.625C117.074 107.225 116.539 107.025 115.879 107.025C115.209 107.025 114.664 107.225 114.244 107.625C113.834 108.025 113.629 108.55 113.629 109.2V109.83C113.629 110.48 113.839 111.005 114.259 111.405C114.679 111.795 115.219 111.99 115.879 111.99C116.539 111.99 117.074 111.795 117.484 111.405C117.904 111.005 118.114 110.48 118.114 109.83ZM114.889 118.005V114.27H116.044V117.825H123.499V118.77H115.639C115.399 118.77 115.214 118.705 115.084 118.575C114.954 118.445 114.889 118.255 114.889 118.005ZM141.108 109.35H138.408V108.405H141.108V105.465H142.248V112.365H141.108V109.35ZM132.168 112.89L131.568 112.05C132.988 111.57 134.078 111.11 134.838 110.67C135.608 110.22 136.148 109.74 136.458 109.23L131.688 109.605L131.538 108.66L136.758 108.405C136.788 108.235 136.803 108.055 136.803 107.865V106.965H132.093V106.035H137.868V107.775C137.868 108.555 137.683 109.23 137.313 109.8C136.953 110.37 136.363 110.9 135.543 111.39C134.723 111.88 133.598 112.38 132.168 112.89ZM142.608 118.125V119.1H134.643C134.403 119.1 134.218 119.035 134.088 118.905C133.958 118.775 133.893 118.585 133.893 118.335V115.65H141.108V114.135H133.803V113.175H142.248V116.595H135.048V118.125H142.608ZM156.612 105.465V118.485H155.487V111.075H152.832V110.115H155.487V105.465H156.612ZM153.417 113.925L153.552 114.84C152.082 115.14 150.187 115.29 147.867 115.29H146.292V110.28H150.822V107.415H146.247V106.455H151.947V111.21H147.417V114.36H147.912C150.072 114.36 151.907 114.215 153.417 113.925ZM172.101 116.04V117H159.861V116.04H165.411V113.475H161.661V109.41H169.161V107.205H161.586V106.26H170.301V110.325H162.801V112.53H170.691V113.475H166.551V116.04H172.101ZM189.785 107.235H180.2V106.275H189.785V107.235ZM191.12 116.04V117H178.88V116.04H184.43V112.89H180.08V111.945H182.465L181.955 108.495L183.11 108.375L183.515 111.945H186.47L186.875 108.375L188.045 108.495L187.535 111.945H189.92V112.89H185.57V116.04H191.12ZM204.539 105.465V115.35H203.384V105.465H204.539ZM193.739 109.515C193.739 108.815 193.884 108.205 194.174 107.685C194.474 107.165 194.884 106.77 195.404 106.5C195.924 106.22 196.519 106.08 197.189 106.08C197.849 106.08 198.439 106.22 198.959 106.5C199.489 106.77 199.899 107.165 200.189 107.685C200.489 108.205 200.639 108.815 200.639 109.515C200.639 110.205 200.489 110.81 200.189 111.33C199.899 111.85 199.489 112.25 198.959 112.53C198.439 112.8 197.849 112.935 197.189 112.935C196.519 112.935 195.924 112.8 195.404 112.53C194.884 112.25 194.474 111.855 194.174 111.345C193.884 110.825 193.739 110.215 193.739 109.515ZM199.424 109.83V109.2C199.424 108.54 199.214 108.015 198.794 107.625C198.384 107.225 197.849 107.025 197.189 107.025C196.519 107.025 195.974 107.225 195.554 107.625C195.144 108.025 194.939 108.55 194.939 109.2V109.83C194.939 110.48 195.149 111.005 195.569 111.405C195.989 111.795 196.529 111.99 197.189 111.99C197.849 111.99 198.384 111.795 198.794 111.405C199.214 111.005 199.424 110.48 199.424 109.83ZM196.199 118.005V114.27H197.354V117.825H204.809V118.77H196.949C196.709 118.77 196.524 118.705 196.394 118.575C196.264 118.445 196.199 118.255 196.199 118.005ZM209.483 106.275H218.273V107.235H210.623V109.44H218.063V110.355H210.638V112.56H218.528V113.52H209.483V106.275ZM207.728 116.025H219.968V117H207.728V116.025ZM231.317 107.805V106.515H223.997V105.675H232.412V108.63H225.182V109.905H232.787V110.76H224.072V107.805H231.317ZM234.392 111.885V112.77H222.152V111.885H234.392ZM224.027 118.38V116.115H231.497V114.855H223.937V113.97H232.562V116.955H225.092V118.245H232.952V119.145H224.777C224.537 119.145 224.352 119.08 224.222 118.95C224.092 118.82 224.027 118.63 224.027 118.38ZM246.736 106.95H242.581V105.99H252.001V106.95H247.891C247.881 107.36 247.821 107.73 247.711 108.06C247.611 108.39 247.441 108.705 247.201 109.005L247.261 109.035L247.561 108.81C247.701 108.71 247.841 108.66 247.981 108.66C248.111 108.66 248.221 108.685 248.311 108.735L252.556 110.955L251.926 111.81L247.516 109.44C247.386 109.37 247.256 109.335 247.126 109.335C247.026 109.335 246.936 109.355 246.856 109.395C246.466 109.775 245.936 110.16 245.266 110.55C244.596 110.94 243.721 111.375 242.641 111.855L242.026 111C243.226 110.49 244.161 110.025 244.831 109.605C245.501 109.185 245.976 108.77 246.256 108.36C246.546 107.95 246.706 107.48 246.736 106.95ZM253.411 114.135H247.861V119.01H246.721V114.135H241.171V113.175H253.411V114.135ZM266.77 105.465V118.485H265.645V111.105H262.855C262.805 112.445 262.465 113.46 261.835 114.15C261.205 114.83 260.395 115.17 259.405 115.17C258.365 115.17 257.525 114.795 256.885 114.045C256.255 113.295 255.94 112.19 255.94 110.73C255.94 109.26 256.255 108.155 256.885 107.415C257.515 106.665 258.355 106.29 259.405 106.29C260.375 106.29 261.17 106.615 261.79 107.265C262.41 107.915 262.765 108.875 262.855 110.145H265.645V105.465H266.77ZM261.67 110.13C261.67 109.2 261.46 108.49 261.04 108C260.63 107.5 260.085 107.25 259.405 107.25C258.725 107.25 258.18 107.5 257.77 108C257.36 108.49 257.155 109.2 257.155 110.13V111.33C257.155 112.26 257.36 112.975 257.77 113.475C258.18 113.965 258.725 114.21 259.405 114.21C260.085 114.21 260.63 113.965 261.04 113.475C261.46 112.975 261.67 112.26 261.67 111.33V110.13ZM287.244 111.555H285.084V118.515H283.944V105.495H285.084V110.595H287.244V111.555ZM282.369 113.685L282.519 114.6C280.989 114.91 279.079 115.065 276.789 115.065H275.199V106.53H281.184V107.49H276.339V114.12H276.774C278.974 114.12 280.839 113.975 282.369 113.685ZM300.603 105.465V118.485H299.508V111.495H297.483V118.125H296.388V105.69H297.483V110.55H299.508V105.465H300.603ZM294.123 107.265H290.658V106.335H294.123V107.265ZM292.908 112.08C293.028 112.08 293.143 112.135 293.253 112.245L295.713 114.93L294.933 115.605L292.458 112.8C292.408 112.75 292.353 112.725 292.293 112.725C292.233 112.725 292.183 112.75 292.143 112.8C291.913 113.24 291.608 113.7 291.228 114.18C290.848 114.66 290.358 115.205 289.758 115.815L288.993 115.155C289.743 114.395 290.318 113.74 290.718 113.19C291.118 112.63 291.403 112.08 291.573 111.54C291.753 111 291.843 110.385 291.843 109.695H289.338V108.78H295.398V109.695H292.893C292.893 110.625 292.733 111.47 292.413 112.23L292.488 112.275L292.623 112.17C292.713 112.11 292.808 112.08 292.908 112.08ZM315.702 116.04V117H303.462V116.04H309.012V113.475H305.262V109.41H312.762V107.205H305.187V106.26H313.902V110.325H306.402V112.53H314.292V113.475H310.152V116.04H315.702ZM319.491 108.45C319.491 107.91 319.656 107.43 319.986 107.01C320.316 106.59 320.816 106.26 321.486 106.02C322.166 105.77 323.006 105.645 324.006 105.645C325.006 105.645 325.841 105.77 326.511 106.02C327.191 106.26 327.696 106.59 328.026 107.01C328.356 107.43 328.521 107.91 328.521 108.45C328.521 108.99 328.356 109.47 328.026 109.89C327.696 110.31 327.191 110.645 326.511 110.895C325.841 111.135 325.006 111.255 324.006 111.255C323.006 111.255 322.166 111.135 321.486 110.895C320.816 110.645 320.316 110.31 319.986 109.89C319.656 109.47 319.491 108.99 319.491 108.45ZM320.706 108.57C320.706 109.08 320.981 109.505 321.531 109.845C322.081 110.185 322.906 110.355 324.006 110.355C325.106 110.355 325.931 110.185 326.481 109.845C327.031 109.505 327.306 109.08 327.306 108.57V108.315C327.306 107.805 327.031 107.38 326.481 107.04C325.931 106.7 325.106 106.53 324.006 106.53C322.906 106.53 322.081 106.7 321.531 107.04C320.981 107.38 320.706 107.805 320.706 108.315V108.57ZM330.126 112.41V113.385H324.651V116.13H323.511V113.385H317.886V112.41H330.126ZM320.736 117.9H328.536V118.845H320.361C320.121 118.845 319.936 118.78 319.806 118.65C319.676 118.52 319.611 118.33 319.611 118.08V114.885H320.736V117.9ZM347.555 112.47H338.66V106.32H339.8V111.495H347.555V112.47ZM349.145 116.025V117H336.905V116.025H349.145ZM362.669 105.465V112.98H361.544V105.465H362.669ZM354.374 107.655V107.115H351.914V106.17H355.454V107.52C355.454 108.19 355.349 108.775 355.139 109.275C354.929 109.775 354.594 110.25 354.134 110.7C353.684 111.15 353.049 111.66 352.229 112.23L351.434 111.555C352.184 111.045 352.769 110.595 353.189 110.205C353.609 109.815 353.909 109.42 354.089 109.02C354.279 108.62 354.374 108.165 354.374 107.655ZM358.334 107.85V107.115H356.144V106.17H359.414V107.715C359.414 108.475 359.314 109.13 359.114 109.68C358.914 110.23 358.594 110.745 358.154 111.225C357.714 111.695 357.094 112.235 356.294 112.845L355.484 112.17C356.224 111.63 356.794 111.15 357.194 110.73C357.594 110.31 357.884 109.875 358.064 109.425C358.244 108.975 358.334 108.45 358.334 107.85ZM354.314 118.26V113.79H362.669V119.025H355.064C354.824 119.025 354.639 118.96 354.509 118.83C354.379 118.7 354.314 118.51 354.314 118.26ZM361.529 114.735H355.454V118.065H361.529V114.735ZM367.373 107.865C367.373 107.135 367.748 106.555 368.498 106.125C369.248 105.685 370.373 105.465 371.873 105.465C373.373 105.465 374.498 105.685 375.248 106.125C375.998 106.555 376.373 107.135 376.373 107.865C376.373 108.595 375.998 109.18 375.248 109.62C374.498 110.06 373.373 110.28 371.873 110.28C370.373 110.28 369.248 110.06 368.498 109.62C367.748 109.18 367.373 108.595 367.373 107.865ZM375.158 107.94V107.775C375.158 107.345 374.883 106.995 374.333 106.725C373.793 106.445 372.973 106.305 371.873 106.305C370.773 106.305 369.948 106.445 369.398 106.725C368.858 106.995 368.588 107.345 368.588 107.775V107.94C368.588 108.37 368.858 108.725 369.398 109.005C369.948 109.275 370.773 109.41 371.873 109.41C372.973 109.41 373.793 109.275 374.333 109.005C374.883 108.725 375.158 108.37 375.158 107.94ZM377.993 111.315V112.275H365.753V111.315H377.993ZM367.658 118.335V115.875H375.053V114.465H367.568V113.535H376.148V116.745H368.753V118.17H376.538V119.1H368.408C368.168 119.1 367.983 119.035 367.853 118.905C367.723 118.775 367.658 118.585 367.658 118.335ZM395.227 111.66H386.557V105.795H387.682V107.775H394.102V105.795H395.227V111.66ZM394.102 108.72H387.682V110.715H394.102V108.72ZM397.012 114.255H391.462V119.01H390.322V114.255H384.772V113.28H397.012V114.255ZM410.386 105.465V118.485H409.261V113.01H406.711V112.08H409.261V109.26H406.711V108.33H409.261V105.465H410.386ZM406.396 110.73C406.396 112.19 406.081 113.295 405.451 114.045C404.821 114.795 403.991 115.17 402.961 115.17C401.921 115.17 401.086 114.795 400.456 114.045C399.826 113.295 399.511 112.19 399.511 110.73C399.511 109.27 399.826 108.165 400.456 107.415C401.086 106.665 401.921 106.29 402.961 106.29C403.991 106.29 404.821 106.665 405.451 107.415C406.081 108.165 406.396 109.27 406.396 110.73ZM405.196 110.13C405.196 109.19 404.991 108.475 404.581 107.985C404.171 107.485 403.631 107.235 402.961 107.235C402.281 107.235 401.736 107.485 401.326 107.985C400.916 108.475 400.711 109.19 400.711 110.13V111.33C400.711 112.27 400.916 112.99 401.326 113.49C401.736 113.98 402.281 114.225 402.961 114.225C403.631 114.225 404.171 113.98 404.581 113.49C404.991 112.99 405.196 112.27 405.196 111.33V110.13Z" fill="black"/>
</svg>
