<svg width="995" height="174" viewBox="0 0 995 174" fill="none" xmlns="http://www.w3.org/2000/svg">
<path fill-rule="evenodd" clip-rule="evenodd" d="M211.5 102C227.24 102 240 89.2401 240 73.5C240 71.8035 239.852 70.1416 239.568 68.5266C237.971 72.546 232.428 74.3056 231.037 74.3056C229.733 74.3056 220.173 79.1389 215.556 81.5556C216.642 82.8981 218.815 85.7444 218.815 86.3889C218.815 87.1944 213.111 88 211.481 88C209.852 88 204.148 87.1944 203.333 86.3889C202.681 85.7444 205.235 83.4352 206.593 82.3611C204.691 81.0185 199.422 77.6889 193.556 75.1111C190.602 73.8131 186.697 72.8692 183.028 72.2175C183.01 72.6426 183 73.0702 183 73.5C183 89.2401 195.76 102 211.5 102ZM183.501 68.1533C186.003 54.9689 197.587 45 211.5 45C222.411 45 231.889 51.1311 236.679 60.136C235.284 59.3105 233.74 59 232.667 59C230.222 59 224.519 61.4167 226.148 66.25C227.452 70.1167 231.58 69.4722 233.481 68.6667C233.753 67.5926 234.133 65.2833 233.481 64.6389C232.83 63.9944 231.58 64.3704 231.037 64.6389L231.852 66.25C231.852 67.0556 231.526 68.5056 230.222 67.8611C228.593 67.0556 226.963 63.0278 229.407 62.2222C231.852 61.4167 236.741 61.4167 236.741 64.6389C236.741 67.8611 235.926 71.0833 230.222 71.0833C225.659 71.0833 215.827 67.8611 211.481 66.25C212.296 64.6389 213.437 61.4167 211.481 61.4167C209.037 61.4167 209.037 64.6389 209.852 65.4444C210.667 66.25 203.333 70.2778 197.63 69.4722C197.51 69.4553 197.386 69.4377 197.257 69.4195C194.155 68.9802 188.483 68.1767 183.501 68.1533Z" fill="#002C6A"/>
<path fill-rule="evenodd" clip-rule="evenodd" d="M599.5 102C615.24 102 628 89.2401 628 73.5C628 71.8035 627.852 70.1416 627.568 68.5266C625.971 72.546 620.428 74.3056 619.037 74.3056C617.733 74.3056 608.173 79.1389 603.556 81.5556C604.642 82.8981 606.815 85.7444 606.815 86.3889C606.815 87.1944 601.111 88 599.481 88C597.852 88 592.148 87.1944 591.333 86.3889C590.681 85.7444 593.235 83.4352 594.593 82.3611C592.691 81.0185 587.422 77.6889 581.556 75.1111C578.602 73.8131 574.697 72.8692 571.028 72.2175C571.01 72.6426 571 73.0702 571 73.5C571 89.2401 583.76 102 599.5 102ZM571.501 68.1533C574.003 54.9689 585.587 45 599.5 45C610.411 45 619.889 51.1311 624.679 60.136C623.284 59.3105 621.74 59 620.667 59C618.222 59 612.519 61.4167 614.148 66.25C615.452 70.1167 619.58 69.4722 621.481 68.6667C621.753 67.5926 622.133 65.2833 621.481 64.6389C620.83 63.9944 619.58 64.3704 619.037 64.6389L619.852 66.25C619.852 67.0556 619.526 68.5056 618.222 67.8611C616.593 67.0556 614.963 63.0278 617.407 62.2222C619.852 61.4167 624.741 61.4167 624.741 64.6389C624.741 67.8611 623.926 71.0833 618.222 71.0833C613.659 71.0833 603.827 67.8611 599.481 66.25C600.296 64.6389 601.437 61.4167 599.481 61.4167C597.037 61.4167 597.037 64.6389 597.852 65.4444C598.667 66.25 591.333 70.2778 585.63 69.4722C585.51 69.4553 585.386 69.4377 585.257 69.4195C582.155 68.9802 576.483 68.1767 571.501 68.1533Z" fill="#111111"/>
</svg>
