<svg width="995" height="271" viewBox="0 0 995 271" fill="none" xmlns="http://www.w3.org/2000/svg">
<rect y="84" width="995" height="174" fill="white"/>
<path d="M425.071 9.18466H422.855C422.77 8.71117 422.611 8.29451 422.379 7.93466C422.147 7.57481 421.863 7.26941 421.527 7.01847C421.191 6.76752 420.814 6.57812 420.397 6.45028C419.986 6.32244 419.548 6.25852 419.084 6.25852C418.245 6.25852 417.495 6.46922 416.832 6.89062C416.174 7.31203 415.653 7.92992 415.27 8.74432C414.891 9.55871 414.701 10.553 414.701 11.7273C414.701 12.911 414.891 13.91 415.27 14.7244C415.653 15.5388 416.176 16.1544 416.839 16.571C417.502 16.9877 418.248 17.196 419.076 17.196C419.536 17.196 419.971 17.1345 420.383 17.0114C420.8 16.8835 421.176 16.6965 421.513 16.4503C421.849 16.2041 422.133 15.9034 422.365 15.5483C422.602 15.1884 422.765 14.7765 422.855 14.3125L425.071 14.3196C424.952 15.0346 424.723 15.6927 424.382 16.294C424.046 16.8906 423.612 17.4067 423.082 17.8423C422.557 18.2732 421.955 18.607 421.278 18.8438C420.601 19.0805 419.862 19.1989 419.062 19.1989C417.803 19.1989 416.681 18.9006 415.696 18.304C414.711 17.7027 413.934 16.8433 413.366 15.7259C412.803 14.6084 412.521 13.2756 412.521 11.7273C412.521 10.1742 412.805 8.84138 413.373 7.72869C413.942 6.61127 414.718 5.75426 415.703 5.15767C416.688 4.55634 417.808 4.25568 419.062 4.25568C419.834 4.25568 420.554 4.36695 421.221 4.58949C421.894 4.80729 422.497 5.12926 423.032 5.5554C423.567 5.9768 424.01 6.4929 424.361 7.10369C424.711 7.70975 424.948 8.40341 425.071 9.18466ZM441.732 11.7273C441.732 13.2803 441.448 14.6155 440.88 15.733C440.311 16.8456 439.532 17.7027 438.543 18.304C437.558 18.9006 436.438 19.1989 435.183 19.1989C433.924 19.1989 432.799 18.9006 431.81 18.304C430.825 17.7027 430.049 16.8433 429.48 15.7259C428.912 14.6084 428.628 13.2756 428.628 11.7273C428.628 10.1742 428.912 8.84138 429.48 7.72869C430.049 6.61127 430.825 5.75426 431.81 5.15767C432.799 4.55634 433.924 4.25568 435.183 4.25568C436.438 4.25568 437.558 4.55634 438.543 5.15767C439.532 5.75426 440.311 6.61127 440.88 7.72869C441.448 8.84138 441.732 10.1742 441.732 11.7273ZM439.558 11.7273C439.558 10.5436 439.367 9.54687 438.983 8.73722C438.604 7.92282 438.084 7.30729 437.421 6.89062C436.763 6.46922 436.017 6.25852 435.183 6.25852C434.345 6.25852 433.597 6.46922 432.939 6.89062C432.281 7.30729 431.76 7.92282 431.377 8.73722C430.998 9.54687 430.808 10.5436 430.808 11.7273C430.808 12.911 430.998 13.91 431.377 14.7244C431.76 15.5341 432.281 16.1496 432.939 16.571C433.597 16.9877 434.345 17.196 435.183 17.196C436.017 17.196 436.763 16.9877 437.421 16.571C438.084 16.1496 438.604 15.5341 438.983 14.7244C439.367 13.91 439.558 12.911 439.558 11.7273ZM445.868 19V4.45455H448.063V17.1108H454.653V19H445.868ZM470.626 11.7273C470.626 13.2803 470.341 14.6155 469.773 15.733C469.205 16.8456 468.426 17.7027 467.437 18.304C466.452 18.9006 465.332 19.1989 464.077 19.1989C462.818 19.1989 461.693 18.9006 460.704 18.304C459.719 17.7027 458.942 16.8433 458.374 15.7259C457.806 14.6084 457.522 13.2756 457.522 11.7273C457.522 10.1742 457.806 8.84138 458.374 7.72869C458.942 6.61127 459.719 5.75426 460.704 5.15767C461.693 4.55634 462.818 4.25568 464.077 4.25568C465.332 4.25568 466.452 4.55634 467.437 5.15767C468.426 5.75426 469.205 6.61127 469.773 7.72869C470.341 8.84138 470.626 10.1742 470.626 11.7273ZM468.452 11.7273C468.452 10.5436 468.26 9.54687 467.877 8.73722C467.498 7.92282 466.977 7.30729 466.314 6.89062C465.656 6.46922 464.911 6.25852 464.077 6.25852C463.239 6.25852 462.491 6.46922 461.833 6.89062C461.175 7.30729 460.654 7.92282 460.27 8.73722C459.892 9.54687 459.702 10.5436 459.702 11.7273C459.702 12.911 459.892 13.91 460.27 14.7244C460.654 15.5341 461.175 16.1496 461.833 16.571C462.491 16.9877 463.239 17.196 464.077 17.196C464.911 17.196 465.656 16.9877 466.314 16.571C466.977 16.1496 467.498 15.5341 467.877 14.7244C468.26 13.91 468.452 12.911 468.452 11.7273ZM474.762 19V4.45455H479.946C481.073 4.45455 482.008 4.64867 482.752 5.03693C483.5 5.42519 484.059 5.96259 484.428 6.64915C484.797 7.33097 484.982 8.11932 484.982 9.0142C484.982 9.90436 484.795 10.688 484.421 11.3651C484.051 12.0374 483.493 12.5606 482.745 12.9347C482.001 13.3087 481.066 13.4957 479.939 13.4957H476.012V11.6065H479.74C480.451 11.6065 481.028 11.5047 481.473 11.3011C481.923 11.0975 482.252 10.8016 482.461 10.4134C482.669 10.0251 482.773 9.55871 482.773 9.0142C482.773 8.46496 482.667 7.98911 482.453 7.58665C482.245 7.18419 481.916 6.87642 481.466 6.66335C481.021 6.44555 480.436 6.33665 479.712 6.33665H476.956V19H474.762ZM481.942 12.4375L485.536 19H483.036L479.513 12.4375H481.942ZM503.679 8.27557C503.603 7.60322 503.29 7.08239 502.741 6.71307C502.192 6.33902 501.5 6.15199 500.667 6.15199C500.071 6.15199 499.554 6.24669 499.119 6.43608C498.683 6.62074 498.345 6.87642 498.103 7.20312C497.866 7.52509 497.748 7.89205 497.748 8.30398C497.748 8.64962 497.829 8.94792 497.99 9.19886C498.155 9.44981 498.371 9.66051 498.636 9.83097C498.906 9.99669 499.195 10.1364 499.502 10.25C499.81 10.3589 500.106 10.4489 500.39 10.5199L501.811 10.8892C502.275 11.0028 502.75 11.1567 503.238 11.3509C503.726 11.545 504.178 11.8007 504.595 12.1179C505.011 12.4351 505.348 12.8281 505.603 13.2969C505.864 13.7656 505.994 14.3267 505.994 14.9801C505.994 15.804 505.781 16.5355 505.355 17.1747C504.933 17.8139 504.32 18.3182 503.515 18.6875C502.715 19.0568 501.747 19.2415 500.61 19.2415C499.521 19.2415 498.579 19.0687 497.784 18.723C496.988 18.3774 496.366 17.8873 495.916 17.2528C495.466 16.6136 495.217 15.8561 495.17 14.9801H497.372C497.414 15.5057 497.585 15.9437 497.883 16.294C498.186 16.6397 498.572 16.8977 499.041 17.0682C499.514 17.2339 500.033 17.3168 500.596 17.3168C501.216 17.3168 501.768 17.2197 502.251 17.0256C502.739 16.8267 503.122 16.5521 503.402 16.2017C503.681 15.8466 503.821 15.4323 503.821 14.9588C503.821 14.5279 503.697 14.1752 503.451 13.9006C503.21 13.6259 502.881 13.3987 502.464 13.2188C502.052 13.0388 501.586 12.8802 501.065 12.7429L499.346 12.2741C498.181 11.9569 497.258 11.4905 496.576 10.875C495.899 10.2595 495.561 9.44508 495.561 8.43182C495.561 7.59375 495.788 6.86222 496.242 6.23722C496.697 5.61222 497.313 5.12689 498.089 4.78125C498.866 4.43087 499.741 4.25568 500.717 4.25568C501.702 4.25568 502.571 4.4285 503.323 4.77415C504.081 5.11979 504.678 5.59564 505.113 6.2017C505.549 6.80303 505.776 7.49432 505.795 8.27557H503.679ZM508.894 4.45455H511.387L515.187 11.0668H515.343L519.143 4.45455H521.636L516.359 13.2898V19H514.171V13.2898L508.894 4.45455ZM533.041 8.27557C532.965 7.60322 532.653 7.08239 532.104 6.71307C531.554 6.33902 530.863 6.15199 530.03 6.15199C529.433 6.15199 528.917 6.24669 528.481 6.43608C528.046 6.62074 527.707 6.87642 527.466 7.20312C527.229 7.52509 527.111 7.89205 527.111 8.30398C527.111 8.64962 527.191 8.94792 527.352 9.19886C527.518 9.44981 527.733 9.66051 527.998 9.83097C528.268 9.99669 528.557 10.1364 528.865 10.25C529.173 10.3589 529.469 10.4489 529.753 10.5199L531.173 10.8892C531.637 11.0028 532.113 11.1567 532.601 11.3509C533.088 11.545 533.541 11.8007 533.957 12.1179C534.374 12.4351 534.71 12.8281 534.966 13.2969C535.226 13.7656 535.356 14.3267 535.356 14.9801C535.356 15.804 535.143 16.5355 534.717 17.1747C534.296 17.8139 533.683 18.3182 532.878 18.6875C532.077 19.0568 531.109 19.2415 529.973 19.2415C528.884 19.2415 527.942 19.0687 527.146 18.723C526.351 18.3774 525.728 17.8873 525.278 17.2528C524.828 16.6136 524.58 15.8561 524.532 14.9801H526.734C526.777 15.5057 526.947 15.9437 527.246 16.294C527.549 16.6397 527.934 16.8977 528.403 17.0682C528.877 17.2339 529.395 17.3168 529.959 17.3168C530.579 17.3168 531.131 17.2197 531.613 17.0256C532.101 16.8267 532.485 16.5521 532.764 16.2017C533.043 15.8466 533.183 15.4323 533.183 14.9588C533.183 14.5279 533.06 14.1752 532.814 13.9006C532.572 13.6259 532.243 13.3987 531.827 13.2188C531.415 13.0388 530.948 12.8802 530.427 12.7429L528.709 12.2741C527.544 11.9569 526.621 11.4905 525.939 10.875C525.262 10.2595 524.923 9.44508 524.923 8.43182C524.923 7.59375 525.15 6.86222 525.605 6.23722C526.059 5.61222 526.675 5.12689 527.452 4.78125C528.228 4.43087 529.104 4.25568 530.079 4.25568C531.064 4.25568 531.933 4.4285 532.686 4.77415C533.443 5.11979 534.04 5.59564 534.476 6.2017C534.911 6.80303 535.139 7.49432 535.157 8.27557H533.041ZM538.662 6.34375V4.45455H549.919V6.34375H545.38V19H543.193V6.34375H538.662ZM553.806 19V4.45455H562.926V6.34375H556.001V10.7756H562.45V12.6577H556.001V17.1108H563.011V19H553.806ZM567.257 4.45455H569.92L574.551 15.7614H574.721L579.352 4.45455H582.016V19H579.927V8.47443H579.793L575.503 18.9787H573.77L569.48 8.46733H569.345V19H567.257V4.45455Z" fill="white"/>
<path d="M130.774 49.465H131.914V62.485H130.774V49.465ZM121.339 58.9C122.719 58.19 123.774 57.54 124.504 56.95C125.234 56.36 125.744 55.735 126.034 55.075C126.334 54.415 126.484 53.6 126.484 52.63V51.505H121.714V50.53H127.624V52.615C127.624 53.725 127.454 54.665 127.114 55.435C126.784 56.205 126.219 56.925 125.419 57.595C124.629 58.255 123.494 58.98 122.014 59.77L121.339 58.9ZM140.743 50.905H136.633V49.975H145.963V50.905H141.898C141.878 51.635 141.658 52.255 141.238 52.765L141.298 52.795L141.613 52.57C141.743 52.47 141.878 52.42 142.018 52.42C142.118 52.42 142.233 52.445 142.363 52.495L146.518 54.505L145.903 55.345L141.553 53.185C141.413 53.115 141.288 53.08 141.178 53.08C141.078 53.08 140.978 53.105 140.878 53.155C140.488 53.505 139.953 53.86 139.273 54.22C138.603 54.57 137.738 54.955 136.678 55.375L136.078 54.55C137.278 54.08 138.208 53.66 138.868 53.29C139.528 52.92 139.998 52.55 140.278 52.18C140.558 51.81 140.713 51.385 140.743 50.905ZM147.418 56.785V57.76H135.178V56.785H140.728V54.805H141.868V56.785H147.418ZM138.073 61.855H145.843V62.8H137.683C137.443 62.8 137.258 62.735 137.128 62.605C136.998 62.475 136.933 62.285 136.933 62.035V58.945H138.073V61.855ZM166.842 52.45V53.41H164.757V56.29H163.617V49.465H164.757V52.45H166.842ZM157.722 56.02C157.062 56.02 156.472 55.895 155.952 55.645C155.442 55.385 155.042 55.02 154.752 54.55C154.462 54.08 154.317 53.53 154.317 52.9C154.317 52.27 154.462 51.72 154.752 51.25C155.042 50.78 155.442 50.42 155.952 50.17C156.472 49.91 157.062 49.78 157.722 49.78C158.372 49.78 158.952 49.91 159.462 50.17C159.982 50.42 160.387 50.78 160.677 51.25C160.967 51.72 161.112 52.27 161.112 52.9C161.112 53.53 160.967 54.08 160.677 54.55C160.387 55.02 159.982 55.385 159.462 55.645C158.952 55.895 158.372 56.02 157.722 56.02ZM157.722 55.105C158.382 55.105 158.912 54.925 159.312 54.565C159.722 54.205 159.927 53.73 159.927 53.14V52.66C159.927 52.06 159.722 51.585 159.312 51.235C158.912 50.875 158.382 50.695 157.722 50.695C157.062 50.695 156.527 50.875 156.117 51.235C155.707 51.585 155.502 52.06 155.502 52.66V53.14C155.502 53.73 155.707 54.205 156.117 54.565C156.527 54.925 157.062 55.105 157.722 55.105ZM157.677 62.125H165.117V63.1H157.272C157.032 63.1 156.847 63.035 156.717 62.905C156.587 62.775 156.522 62.585 156.522 62.335V59.62H163.617V58.075H156.432V57.115H164.757V60.58H157.677V62.125ZM181.251 55.555H179.091V62.515H177.951V49.495H179.091V54.595H181.251V55.555ZM176.466 57.925L176.616 58.84C175.096 59.14 173.166 59.29 170.826 59.29H169.236V54.265H173.901V51.415H169.176V50.455H175.026V55.21H170.361V58.36H170.856C173.046 58.36 174.916 58.215 176.466 57.925ZM194.28 59.35H193.125V49.465H194.28V59.35ZM191.4 56.38C190.66 56.53 189.775 56.65 188.745 56.74C187.725 56.82 186.63 56.86 185.46 56.86H183.9V50.35H189.96V51.31H185.055V55.915H185.445C186.555 55.915 187.615 55.875 188.625 55.795C189.635 55.715 190.51 55.605 191.25 55.465L191.4 56.38ZM194.55 61.825V62.77H186.69C186.45 62.77 186.265 62.705 186.135 62.575C186.005 62.445 185.94 62.255 185.94 62.005V58.27H187.095V61.825H194.55ZM214.304 60.04V61H202.064V60.04H207.614V57.475H203.864V53.41H211.364V51.205H203.789V50.26H212.504V54.325H205.004V56.53H212.894V57.475H208.754V60.04H214.304ZM225.938 51.52H218.018V50.545H227.063V51.61C227.063 53.83 226.848 55.945 226.418 57.955L225.308 57.775C225.728 55.745 225.938 53.705 225.938 51.655V51.52ZM228.728 60.04V61H216.488V60.04H221.288V55.225H222.413V60.04H228.728ZM242.477 49.465V62.485H241.382V49.465H242.477ZM238.427 49.69H239.492V62.125H238.427V55.3H236.987C236.937 56.6 236.647 57.58 236.117 58.24C235.587 58.89 234.887 59.215 234.017 59.215C233.087 59.215 232.352 58.855 231.812 58.135C231.272 57.405 231.002 56.32 231.002 54.88C231.002 53.44 231.272 52.36 231.812 51.64C232.352 50.91 233.087 50.545 234.017 50.545C234.877 50.545 235.567 50.865 236.087 51.505C236.617 52.145 236.917 53.095 236.987 54.355H238.427V49.69ZM235.847 54.16C235.847 53.28 235.677 52.61 235.337 52.15C235.007 51.69 234.567 51.46 234.017 51.46C233.457 51.46 233.007 51.69 232.667 52.15C232.337 52.61 232.172 53.28 232.172 54.16V55.615C232.172 56.485 232.337 57.155 232.667 57.625C233.007 58.085 233.457 58.315 234.017 58.315C234.567 58.315 235.007 58.085 235.337 57.625C235.677 57.155 235.847 56.485 235.847 55.615V54.16ZM256.511 49.465V62.485H255.386V54.79H252.611V53.83H255.386V49.465H256.511ZM250.016 54.715C250.136 54.715 250.241 54.77 250.331 54.88L253.271 58.63L252.401 59.395L249.461 55.525C249.421 55.475 249.371 55.45 249.311 55.45C249.251 55.45 249.201 55.475 249.161 55.525C248.911 56.105 248.566 56.7 248.126 57.31C247.686 57.92 247.086 58.68 246.326 59.59L245.456 58.855C246.326 57.865 246.991 57.02 247.451 56.32C247.921 55.61 248.256 54.9 248.456 54.19C248.666 53.48 248.771 52.665 248.771 51.745V50.335H249.911V51.73C249.911 52.94 249.746 54.02 249.416 54.97L249.476 55.015L249.686 54.835C249.796 54.755 249.906 54.715 250.016 54.715ZM272.755 50.53H268.195V49.6H272.755V50.53ZM269.905 52.825H265.78V51.895H275.185V52.825H271.06C271.01 53.415 270.795 53.915 270.415 54.325L270.52 54.355L270.805 54.16C270.945 54.06 271.09 54.01 271.24 54.01C271.34 54.01 271.455 54.035 271.585 54.085L275.71 55.84L275.095 56.68L270.745 54.73C270.625 54.67 270.5 54.64 270.37 54.64C270.22 54.64 270.09 54.675 269.98 54.745L269.935 54.76C269.545 55.06 269.02 55.37 268.36 55.69C267.71 56 266.87 56.345 265.84 56.725L265.24 55.9C266.38 55.5 267.275 55.14 267.925 54.82C268.585 54.5 269.065 54.185 269.365 53.875C269.665 53.555 269.845 53.205 269.905 52.825ZM276.595 58.615H271.045V63.01H269.905V58.615H264.355V57.67H276.595V58.615ZM287.179 50.32H282.634V49.465H287.179V50.32ZM284.374 52.27H280.219V51.43H289.579V52.27H285.454C285.404 52.73 285.199 53.115 284.839 53.425L284.914 53.44L285.289 53.23C285.419 53.14 285.569 53.095 285.739 53.095C285.829 53.095 285.929 53.11 286.039 53.14L290.104 54.535L289.534 55.315L285.214 53.755C285.104 53.715 284.974 53.695 284.824 53.695C284.644 53.695 284.499 53.72 284.389 53.77L284.344 53.785C283.604 54.245 282.234 54.76 280.234 55.33L279.679 54.58C280.809 54.27 281.699 53.995 282.349 53.755C282.999 53.515 283.479 53.28 283.789 53.05C284.109 52.81 284.304 52.55 284.374 52.27ZM285.454 56.77V58.015H289.189V60.985H281.719V62.245H289.579V63.145H281.404C281.164 63.145 280.979 63.08 280.849 62.95C280.719 62.82 280.654 62.63 280.654 62.38V60.145H288.139V58.9H280.564V58.015H284.344V56.77H278.779V55.9H291.019V56.77H285.454ZM305.848 53.92V54.88H303.763V59.5H302.623V49.465H303.763V53.92H305.848ZM299.188 50.83H295.183V49.87H299.188V50.83ZM297.088 57.94C296.468 57.94 295.923 57.835 295.453 57.625C294.983 57.415 294.618 57.125 294.358 56.755C294.108 56.385 293.983 55.965 293.983 55.495C293.983 55.025 294.093 54.615 294.313 54.265C294.543 53.905 294.883 53.63 295.333 53.44V53.365H292.993V52.42H301.123V53.365H298.843V53.44C299.293 53.63 299.628 53.905 299.848 54.265C300.078 54.615 300.193 55.025 300.193 55.495C300.193 55.965 300.063 56.385 299.803 56.755C299.553 57.125 299.193 57.415 298.723 57.625C298.253 57.835 297.708 57.94 297.088 57.94ZM296.968 56.98H297.223C297.783 56.98 298.238 56.83 298.588 56.53C298.948 56.22 299.128 55.79 299.128 55.24C299.128 54.69 298.953 54.26 298.603 53.95C298.253 53.64 297.793 53.485 297.223 53.485H296.968C296.398 53.485 295.938 53.64 295.588 53.95C295.238 54.25 295.063 54.68 295.063 55.24C295.063 55.79 295.238 56.22 295.588 56.53C295.948 56.83 296.408 56.98 296.968 56.98ZM296.728 61.9H304.063V62.845H296.338C296.098 62.845 295.913 62.78 295.783 62.65C295.653 62.52 295.588 62.33 295.588 62.08V59.08H296.728V61.9ZM323.787 49.465V57.295H322.677V53.83H320.667V57.13H319.572V49.675H320.667V52.9H322.677V49.465H323.787ZM315.507 54.115C315.427 54.115 315.367 54.145 315.327 54.205C315.097 54.635 314.797 55.08 314.427 55.54C314.057 55.99 313.582 56.51 313.002 57.1L312.207 56.41C312.947 55.64 313.507 54.985 313.887 54.445C314.277 53.895 314.552 53.36 314.712 52.84C314.882 52.32 314.967 51.72 314.967 51.04V50.215H316.062V51.07C316.062 52.01 315.917 52.845 315.627 53.575L315.687 53.605L315.867 53.455C315.977 53.375 316.077 53.335 316.167 53.335C316.267 53.335 316.367 53.385 316.467 53.485L318.867 56.095L318.087 56.845L315.702 54.205C315.642 54.145 315.577 54.115 315.507 54.115ZM314.967 58.12H323.787V63.145H322.662V59.095H314.967V58.12ZM339.291 52.825V53.785H337.206V57.22H336.066V49.465H337.206V52.825H339.291ZM330.381 53.725C330.311 53.725 330.246 53.76 330.186 53.83C329.926 54.26 329.581 54.705 329.151 55.165C328.731 55.615 328.161 56.175 327.441 56.845L326.601 56.11C327.451 55.35 328.106 54.7 328.566 54.16C329.026 53.62 329.356 53.085 329.556 52.555C329.756 52.025 329.856 51.425 329.856 50.755V49.945H330.996V50.815C330.996 51.725 330.821 52.555 330.471 53.305L330.546 53.365L330.786 53.155C330.896 53.065 331.006 53.02 331.116 53.02C331.226 53.02 331.326 53.065 331.416 53.155L334.266 55.795L333.456 56.575L330.576 53.815C330.516 53.755 330.451 53.725 330.381 53.725ZM337.311 60.34C337.311 60.89 337.156 61.38 336.846 61.81C336.536 62.25 336.071 62.595 335.451 62.845C334.831 63.095 334.071 63.22 333.171 63.22C332.281 63.22 331.521 63.095 330.891 62.845C330.271 62.595 329.801 62.25 329.481 61.81C329.171 61.38 329.016 60.89 329.016 60.34C329.016 59.79 329.171 59.3 329.481 58.87C329.801 58.43 330.271 58.085 330.891 57.835C331.521 57.585 332.281 57.46 333.171 57.46C334.071 57.46 334.831 57.585 335.451 57.835C336.071 58.085 336.536 58.43 336.846 58.87C337.156 59.3 337.311 59.79 337.311 60.34ZM336.111 60.22C336.111 59.7 335.866 59.265 335.376 58.915C334.896 58.565 334.161 58.39 333.171 58.39C332.191 58.39 331.456 58.57 330.966 58.93C330.476 59.28 330.231 59.71 330.231 60.22V60.475C330.231 60.985 330.476 61.415 330.966 61.765C331.456 62.125 332.191 62.305 333.171 62.305C334.161 62.305 334.896 62.125 335.376 61.765C335.866 61.415 336.111 60.985 336.111 60.475V60.22ZM342.69 51.865C342.69 51.135 343.065 50.555 343.815 50.125C344.565 49.685 345.69 49.465 347.19 49.465C348.69 49.465 349.815 49.685 350.565 50.125C351.315 50.555 351.69 51.135 351.69 51.865C351.69 52.595 351.315 53.18 350.565 53.62C349.815 54.06 348.69 54.28 347.19 54.28C345.69 54.28 344.565 54.06 343.815 53.62C343.065 53.18 342.69 52.595 342.69 51.865ZM350.475 51.94V51.775C350.475 51.345 350.2 50.995 349.65 50.725C349.11 50.445 348.29 50.305 347.19 50.305C346.09 50.305 345.265 50.445 344.715 50.725C344.175 50.995 343.905 51.345 343.905 51.775V51.94C343.905 52.37 344.175 52.725 344.715 53.005C345.265 53.275 346.09 53.41 347.19 53.41C348.29 53.41 349.11 53.275 349.65 53.005C350.2 52.725 350.475 52.37 350.475 51.94ZM353.31 55.315V56.275H341.07V55.315H353.31ZM342.975 62.335V59.875H350.37V58.465H342.885V57.535H351.465V60.745H344.07V62.17H351.855V63.1H343.725C343.485 63.1 343.3 63.035 343.17 62.905C343.04 62.775 342.975 62.585 342.975 62.335ZM372.329 60.04V61H360.089V60.04H365.639V57.49H361.844V50.275H370.634V51.22H362.984V53.425H370.424V54.34H362.999V56.53H370.889V57.49H366.779V60.04H372.329ZM386.078 49.465V62.485H384.968V55.495H382.913V62.125H381.818V49.69H382.913V54.55H384.968V49.465H386.078ZM380.678 57.7L380.828 58.6C379.618 58.91 378.123 59.065 376.343 59.065H375.113V50.8H379.958V51.76H376.208V58.12H376.613C378.253 58.12 379.608 57.98 380.678 57.7ZM401.177 60.04V61H388.937V60.04H394.487V57.475H390.737V53.41H398.237V51.205H390.662V50.26H399.377V54.325H391.877V56.53H399.767V57.475H395.627V60.04H401.177ZM419.521 49.465V62.485H418.411V49.465H419.521ZM415.486 49.69H416.581V62.125H415.486V55.12H413.686V58.825H408.421V50.77H413.686V54.175H415.486V49.69ZM412.606 51.7H409.516V57.895H412.606V51.7ZM433.615 49.465V59.35H432.46V49.465H433.615ZM422.815 53.515C422.815 52.815 422.96 52.205 423.25 51.685C423.55 51.165 423.96 50.77 424.48 50.5C425 50.22 425.595 50.08 426.265 50.08C426.925 50.08 427.515 50.22 428.035 50.5C428.565 50.77 428.975 51.165 429.265 51.685C429.565 52.205 429.715 52.815 429.715 53.515C429.715 54.205 429.565 54.81 429.265 55.33C428.975 55.85 428.565 56.25 428.035 56.53C427.515 56.8 426.925 56.935 426.265 56.935C425.595 56.935 425 56.8 424.48 56.53C423.96 56.25 423.55 55.855 423.25 55.345C422.96 54.825 422.815 54.215 422.815 53.515ZM428.5 53.83V53.2C428.5 52.54 428.29 52.015 427.87 51.625C427.46 51.225 426.925 51.025 426.265 51.025C425.595 51.025 425.05 51.225 424.63 51.625C424.22 52.025 424.015 52.55 424.015 53.2V53.83C424.015 54.48 424.225 55.005 424.645 55.405C425.065 55.795 425.605 55.99 426.265 55.99C426.925 55.99 427.46 55.795 427.87 55.405C428.29 55.005 428.5 54.48 428.5 53.83ZM425.275 62.005V58.27H426.43V61.825H433.885V62.77H426.025C425.785 62.77 425.6 62.705 425.47 62.575C425.34 62.445 425.275 62.255 425.275 62.005ZM452.964 49.465V57.295H451.854V53.83H449.844V57.13H448.749V49.675H449.844V52.9H451.854V49.465H452.964ZM444.684 54.115C444.604 54.115 444.544 54.145 444.504 54.205C444.274 54.635 443.974 55.08 443.604 55.54C443.234 55.99 442.759 56.51 442.179 57.1L441.384 56.41C442.124 55.64 442.684 54.985 443.064 54.445C443.454 53.895 443.729 53.36 443.889 52.84C444.059 52.32 444.144 51.72 444.144 51.04V50.215H445.239V51.07C445.239 52.01 445.094 52.845 444.804 53.575L444.864 53.605L445.044 53.455C445.154 53.375 445.254 53.335 445.344 53.335C445.444 53.335 445.544 53.385 445.644 53.485L448.044 56.095L447.264 56.845L444.879 54.205C444.819 54.145 444.754 54.115 444.684 54.115ZM444.144 58.12H452.964V63.145H451.839V59.095H444.144V58.12ZM468.468 52.825V53.785H466.383V57.22H465.243V49.465H466.383V52.825H468.468ZM459.558 53.725C459.488 53.725 459.423 53.76 459.363 53.83C459.103 54.26 458.758 54.705 458.328 55.165C457.908 55.615 457.338 56.175 456.618 56.845L455.778 56.11C456.628 55.35 457.283 54.7 457.743 54.16C458.203 53.62 458.533 53.085 458.733 52.555C458.933 52.025 459.033 51.425 459.033 50.755V49.945H460.173V50.815C460.173 51.725 459.998 52.555 459.648 53.305L459.723 53.365L459.963 53.155C460.073 53.065 460.183 53.02 460.293 53.02C460.403 53.02 460.503 53.065 460.593 53.155L463.443 55.795L462.633 56.575L459.753 53.815C459.693 53.755 459.628 53.725 459.558 53.725ZM466.488 60.34C466.488 60.89 466.333 61.38 466.023 61.81C465.713 62.25 465.248 62.595 464.628 62.845C464.008 63.095 463.248 63.22 462.348 63.22C461.458 63.22 460.698 63.095 460.068 62.845C459.448 62.595 458.978 62.25 458.658 61.81C458.348 61.38 458.193 60.89 458.193 60.34C458.193 59.79 458.348 59.3 458.658 58.87C458.978 58.43 459.448 58.085 460.068 57.835C460.698 57.585 461.458 57.46 462.348 57.46C463.248 57.46 464.008 57.585 464.628 57.835C465.248 58.085 465.713 58.43 466.023 58.87C466.333 59.3 466.488 59.79 466.488 60.34ZM465.288 60.22C465.288 59.7 465.043 59.265 464.553 58.915C464.073 58.565 463.338 58.39 462.348 58.39C461.368 58.39 460.633 58.57 460.143 58.93C459.653 59.28 459.408 59.71 459.408 60.22V60.475C459.408 60.985 459.653 61.415 460.143 61.765C460.633 62.125 461.368 62.305 462.348 62.305C463.338 62.305 464.073 62.125 464.553 61.765C465.043 61.415 465.288 60.985 465.288 60.475V60.22ZM482.877 55.78H480.837V62.485H479.712V49.465H480.837V54.82H482.877V55.78ZM476.517 51.595H470.877V50.65H477.627V51.805C477.627 53.395 477.447 54.98 477.087 56.56L475.992 56.395C476.342 54.945 476.517 53.46 476.517 51.94V51.595ZM478.632 58.21L478.737 59.125C477.637 59.305 476.322 59.44 474.792 59.53C473.272 59.62 471.707 59.665 470.097 59.665L469.992 58.705C470.992 58.705 471.987 58.69 472.977 58.66V54.595H474.087V58.615C475.897 58.535 477.412 58.4 478.632 58.21ZM501.896 55.555H499.736V62.515H498.596V49.495H499.736V54.595H501.896V55.555ZM496.736 51.475H489.431V50.53H496.736V51.475ZM497.291 57.775L497.396 58.675C496.386 58.835 495.151 58.955 493.691 59.035C492.241 59.115 490.731 59.155 489.161 59.155L489.056 58.21L491.036 58.195L490.586 52.72L491.696 52.615L492.071 58.18L493.991 58.09L494.471 52.6L495.581 52.705L495.041 58.015C495.941 57.955 496.691 57.875 497.291 57.775ZM504.95 56.965L504.305 56.08C505.665 55.38 506.705 54.76 507.425 54.22C508.155 53.67 508.66 53.125 508.94 52.585C509.22 52.035 509.36 51.405 509.36 50.695V50.185H510.53V50.725C510.53 51.305 510.465 51.825 510.335 52.285C510.215 52.735 510.01 53.16 509.72 53.56L509.795 53.605L510.17 53.32C510.3 53.22 510.43 53.17 510.56 53.17C510.69 53.17 510.82 53.215 510.95 53.305L515.315 56.02L514.655 56.92L510.14 54.01C510.01 53.92 509.87 53.875 509.72 53.875C509.59 53.875 509.46 53.925 509.33 54.025C508.92 54.465 508.365 54.92 507.665 55.39C506.965 55.85 506.06 56.375 504.95 56.965ZM515.93 60.025V61H503.69V60.025H515.93ZM529.679 56.455H528.584V49.465H529.679V56.455ZM525.659 53.485H524.024V52.54H525.659V49.675H526.724V56.365H525.659V53.485ZM524.414 55.705C523.164 55.995 521.659 56.14 519.899 56.14H518.714V50.125H523.664V51.01H519.749V52.675H523.499V53.545H519.749V55.285H520.184C521.704 55.285 523.069 55.145 524.279 54.865L524.414 55.705ZM530.024 62.14V63.1H521.924C521.684 63.1 521.499 63.035 521.369 62.905C521.239 62.775 521.174 62.585 521.174 62.335V59.695H528.539V58.21H521.084V57.25H529.679V60.64H522.314V62.14H530.024ZM544.778 57.235V58.195H532.538V57.235H538.103V55.765H534.383V49.855H542.903V50.8H535.493V52.36H542.678V53.26H535.508V54.82H543.143V55.765H539.228V57.235H544.778ZM535.448 61.945H543.203V62.89H535.058C534.818 62.89 534.633 62.825 534.503 62.695C534.373 62.565 534.308 62.375 534.308 62.125V59.32H535.448V61.945ZM557.012 49.465H558.137V62.485H557.012V49.465ZM547.652 53.365C547.652 52.745 547.807 52.2 548.117 51.73C548.427 51.25 548.852 50.885 549.392 50.635C549.932 50.375 550.542 50.245 551.222 50.245C551.902 50.245 552.512 50.375 553.052 50.635C553.592 50.885 554.017 51.25 554.327 51.73C554.637 52.2 554.792 52.745 554.792 53.365C554.792 53.985 554.637 54.53 554.327 55C554.017 55.47 553.592 55.835 553.052 56.095C552.512 56.345 551.902 56.47 551.222 56.47C550.542 56.47 549.932 56.345 549.392 56.095C548.852 55.835 548.427 55.47 548.117 55C547.807 54.53 547.652 53.985 547.652 53.365ZM553.592 53.545V53.185C553.592 52.585 553.372 52.1 552.932 51.73C552.492 51.36 551.922 51.175 551.222 51.175C550.522 51.175 549.952 51.36 549.512 51.73C549.072 52.1 548.852 52.585 548.852 53.185V53.545C548.852 54.145 549.072 54.63 549.512 55C549.952 55.37 550.522 55.555 551.222 55.555C551.922 55.555 552.492 55.37 552.932 55C553.372 54.63 553.592 54.145 553.592 53.545ZM547.022 58.78C548.722 58.78 550.362 58.74 551.942 58.66C553.522 58.58 554.862 58.455 555.962 58.285L556.082 59.2C554.952 59.38 553.592 59.52 552.002 59.62C550.422 59.71 548.797 59.755 547.127 59.755L547.022 58.78ZM577.156 49.465V62.485H576.031V54.79H573.256V53.83H576.031V49.465H577.156ZM570.661 54.715C570.781 54.715 570.886 54.77 570.976 54.88L573.916 58.63L573.046 59.395L570.106 55.525C570.066 55.475 570.016 55.45 569.956 55.45C569.896 55.45 569.846 55.475 569.806 55.525C569.556 56.105 569.211 56.7 568.771 57.31C568.331 57.92 567.731 58.68 566.971 59.59L566.101 58.855C566.971 57.865 567.636 57.02 568.096 56.32C568.566 55.61 568.901 54.9 569.101 54.19C569.311 53.48 569.416 52.665 569.416 51.745V50.335H570.556V51.73C570.556 52.94 570.391 54.02 570.061 54.97L570.121 55.015L570.331 54.835C570.441 54.755 570.551 54.715 570.661 54.715ZM582.1 50.17H583.225V52.66H589.825V50.17H590.95V57.07H582.1V50.17ZM589.825 56.11V53.62H583.225V56.11H589.825ZM580.405 60.025H592.645V61H580.405V60.025ZM606.394 49.465V57.295H605.284V53.83H603.274V57.13H602.179V49.675H603.274V52.9H605.284V49.465H606.394ZM598.114 54.115C598.034 54.115 597.974 54.145 597.934 54.205C597.704 54.635 597.404 55.08 597.034 55.54C596.664 55.99 596.189 56.51 595.609 57.1L594.814 56.41C595.554 55.64 596.114 54.985 596.494 54.445C596.884 53.895 597.159 53.36 597.319 52.84C597.489 52.32 597.574 51.72 597.574 51.04V50.215H598.669V51.07C598.669 52.01 598.524 52.845 598.234 53.575L598.294 53.605L598.474 53.455C598.584 53.375 598.684 53.335 598.774 53.335C598.874 53.335 598.974 53.385 599.074 53.485L601.474 56.095L600.694 56.845L598.309 54.205C598.249 54.145 598.184 54.115 598.114 54.115ZM597.574 58.12H606.394V63.145H605.269V59.095H597.574V58.12ZM621.898 52.825V53.785H619.813V57.22H618.673V49.465H619.813V52.825H621.898ZM612.988 53.725C612.918 53.725 612.853 53.76 612.793 53.83C612.533 54.26 612.188 54.705 611.758 55.165C611.338 55.615 610.768 56.175 610.048 56.845L609.208 56.11C610.058 55.35 610.713 54.7 611.173 54.16C611.633 53.62 611.963 53.085 612.163 52.555C612.363 52.025 612.463 51.425 612.463 50.755V49.945H613.603V50.815C613.603 51.725 613.428 52.555 613.078 53.305L613.153 53.365L613.393 53.155C613.503 53.065 613.613 53.02 613.723 53.02C613.833 53.02 613.933 53.065 614.023 53.155L616.873 55.795L616.063 56.575L613.183 53.815C613.123 53.755 613.058 53.725 612.988 53.725ZM619.918 60.34C619.918 60.89 619.763 61.38 619.453 61.81C619.143 62.25 618.678 62.595 618.058 62.845C617.438 63.095 616.678 63.22 615.778 63.22C614.888 63.22 614.128 63.095 613.498 62.845C612.878 62.595 612.408 62.25 612.088 61.81C611.778 61.38 611.623 60.89 611.623 60.34C611.623 59.79 611.778 59.3 612.088 58.87C612.408 58.43 612.878 58.085 613.498 57.835C614.128 57.585 614.888 57.46 615.778 57.46C616.678 57.46 617.438 57.585 618.058 57.835C618.678 58.085 619.143 58.43 619.453 58.87C619.763 59.3 619.918 59.79 619.918 60.34ZM618.718 60.22C618.718 59.7 618.473 59.265 617.983 58.915C617.503 58.565 616.768 58.39 615.778 58.39C614.798 58.39 614.063 58.57 613.573 58.93C613.083 59.28 612.838 59.71 612.838 60.22V60.475C612.838 60.985 613.083 61.415 613.573 61.765C614.063 62.125 614.798 62.305 615.778 62.305C616.768 62.305 617.503 62.125 617.983 61.765C618.473 61.415 618.718 60.985 618.718 60.475V60.22ZM625.297 51.865C625.297 51.135 625.672 50.555 626.422 50.125C627.172 49.685 628.297 49.465 629.797 49.465C631.297 49.465 632.422 49.685 633.172 50.125C633.922 50.555 634.297 51.135 634.297 51.865C634.297 52.595 633.922 53.18 633.172 53.62C632.422 54.06 631.297 54.28 629.797 54.28C628.297 54.28 627.172 54.06 626.422 53.62C625.672 53.18 625.297 52.595 625.297 51.865ZM633.082 51.94V51.775C633.082 51.345 632.807 50.995 632.257 50.725C631.717 50.445 630.897 50.305 629.797 50.305C628.697 50.305 627.872 50.445 627.322 50.725C626.782 50.995 626.512 51.345 626.512 51.775V51.94C626.512 52.37 626.782 52.725 627.322 53.005C627.872 53.275 628.697 53.41 629.797 53.41C630.897 53.41 631.717 53.275 632.257 53.005C632.807 52.725 633.082 52.37 633.082 51.94ZM635.917 55.315V56.275H623.677V55.315H635.917ZM625.582 62.335V59.875H632.977V58.465H625.492V57.535H634.072V60.745H626.677V62.17H634.462V63.1H626.332C626.092 63.1 625.907 63.035 625.777 62.905C625.647 62.775 625.582 62.585 625.582 62.335ZM652.791 52.93H649.926V51.985H652.791V49.465H653.931V56.35H652.791V52.93ZM646.686 53.41C646.616 53.41 646.551 53.445 646.491 53.515C646.221 53.925 645.871 54.355 645.441 54.805C645.011 55.245 644.441 55.78 643.731 56.41L642.891 55.675C643.741 54.945 644.396 54.325 644.856 53.815C645.316 53.295 645.646 52.785 645.846 52.285C646.046 51.775 646.146 51.2 646.146 50.56V49.78H647.301V50.62C647.301 51.49 647.126 52.29 646.776 53.02L646.836 53.065L647.091 52.84C647.211 52.75 647.321 52.705 647.421 52.705C647.531 52.705 647.636 52.75 647.736 52.84L650.571 55.345L649.776 56.155L646.881 53.5C646.821 53.44 646.756 53.41 646.686 53.41ZM654.291 62.125V63.1H646.326C646.086 63.1 645.901 63.035 645.771 62.905C645.641 62.775 645.576 62.585 645.576 62.335V59.62H652.776V58.09H645.486V57.115H653.931V60.58H646.731V62.125H654.291ZM667.215 52.69V49.465H668.355V57.295H667.215V53.62H664.485V52.69H667.215ZM658.305 56.845L657.45 56.125C658.29 55.465 658.94 54.895 659.4 54.415C659.86 53.925 660.19 53.445 660.39 52.975C660.6 52.495 660.705 51.96 660.705 51.37V51.22H657.84V50.26H664.68V51.22H661.845V51.415C661.845 52.265 661.67 53.01 661.32 53.65L661.41 53.695L661.65 53.515C661.76 53.435 661.87 53.395 661.98 53.395C662.11 53.395 662.225 53.44 662.325 53.53L665.115 55.87L664.275 56.62L661.44 54.16C661.36 54.1 661.285 54.07 661.215 54.07C661.135 54.07 661.065 54.1 661.005 54.16C660.735 54.55 660.39 54.95 659.97 55.36C659.55 55.77 658.995 56.265 658.305 56.845ZM668.43 60.4C668.43 60.94 668.27 61.42 667.95 61.84C667.64 62.27 667.165 62.605 666.525 62.845C665.895 63.095 665.125 63.22 664.215 63.22C663.295 63.22 662.515 63.095 661.875 62.845C661.245 62.605 660.77 62.27 660.45 61.84C660.14 61.42 659.985 60.94 659.985 60.4C659.985 59.86 660.14 59.38 660.45 58.96C660.77 58.53 661.245 58.195 661.875 57.955C662.515 57.705 663.295 57.58 664.215 57.58C665.125 57.58 665.895 57.705 666.525 57.955C667.165 58.195 667.64 58.53 667.95 58.96C668.27 59.38 668.43 59.86 668.43 60.4ZM667.23 60.28C667.23 59.77 666.98 59.345 666.48 59.005C665.98 58.655 665.225 58.48 664.215 58.48C663.195 58.48 662.43 58.655 661.92 59.005C661.42 59.345 661.17 59.77 661.17 60.28V60.535C661.17 61.035 661.42 61.455 661.92 61.795C662.43 62.145 663.195 62.32 664.215 62.32C665.225 62.32 665.98 62.145 666.48 61.795C666.98 61.455 667.23 61.035 667.23 60.535V60.28ZM684.174 55.795H682.059V62.515H680.919V49.495H682.059V54.835H684.174V55.795ZM677.724 51.175H673.464V50.2H677.724V51.175ZM671.469 52.975H679.494V53.905H677.274V53.995C678.184 54.445 678.639 55.31 678.639 56.59C678.639 57.24 678.504 57.805 678.234 58.285C677.964 58.755 677.589 59.115 677.109 59.365C676.639 59.615 676.114 59.74 675.534 59.74C674.954 59.74 674.424 59.615 673.944 59.365C673.474 59.115 673.104 58.755 672.834 58.285C672.564 57.805 672.429 57.24 672.429 56.59C672.429 55.31 672.884 54.445 673.794 53.995V53.905H671.469V52.975ZM677.529 56.095C677.529 55.425 677.349 54.915 676.989 54.565C676.629 54.205 676.144 54.025 675.534 54.025C674.934 54.025 674.449 54.205 674.079 54.565C673.719 54.925 673.539 55.435 673.539 56.095V56.71C673.539 57.36 673.724 57.87 674.094 58.24C674.464 58.6 674.944 58.78 675.534 58.78C676.124 58.78 676.604 58.6 676.974 58.24C677.344 57.87 677.529 57.36 677.529 56.71V56.095ZM697.158 49.465V62.485H696.033V57.01H693.483V56.08H696.033V53.26H693.483V52.33H696.033V49.465H697.158ZM693.168 54.73C693.168 56.19 692.853 57.295 692.223 58.045C691.593 58.795 690.763 59.17 689.733 59.17C688.693 59.17 687.858 58.795 687.228 58.045C686.598 57.295 686.283 56.19 686.283 54.73C686.283 53.27 686.598 52.165 687.228 51.415C687.858 50.665 688.693 50.29 689.733 50.29C690.763 50.29 691.593 50.665 692.223 51.415C692.853 52.165 693.168 53.27 693.168 54.73ZM691.968 54.13C691.968 53.19 691.763 52.475 691.353 51.985C690.943 51.485 690.403 51.235 689.733 51.235C689.053 51.235 688.508 51.485 688.098 51.985C687.688 52.475 687.483 53.19 687.483 54.13V55.33C687.483 56.27 687.688 56.99 688.098 57.49C688.508 57.98 689.053 58.225 689.733 58.225C690.403 58.225 690.943 57.98 691.353 57.49C691.763 56.99 691.968 56.27 691.968 55.33V54.13ZM717.632 52.45V53.41H715.547V56.29H714.407V49.465H715.547V52.45H717.632ZM708.512 56.02C707.852 56.02 707.262 55.895 706.742 55.645C706.232 55.385 705.832 55.02 705.542 54.55C705.252 54.08 705.107 53.53 705.107 52.9C705.107 52.27 705.252 51.72 705.542 51.25C705.832 50.78 706.232 50.42 706.742 50.17C707.262 49.91 707.852 49.78 708.512 49.78C709.162 49.78 709.742 49.91 710.252 50.17C710.772 50.42 711.177 50.78 711.467 51.25C711.757 51.72 711.902 52.27 711.902 52.9C711.902 53.53 711.757 54.08 711.467 54.55C711.177 55.02 710.772 55.385 710.252 55.645C709.742 55.895 709.162 56.02 708.512 56.02ZM708.512 55.105C709.172 55.105 709.702 54.925 710.102 54.565C710.512 54.205 710.717 53.73 710.717 53.14V52.66C710.717 52.06 710.512 51.585 710.102 51.235C709.702 50.875 709.172 50.695 708.512 50.695C707.852 50.695 707.317 50.875 706.907 51.235C706.497 51.585 706.292 52.06 706.292 52.66V53.14C706.292 53.73 706.497 54.205 706.907 54.565C707.317 54.925 707.852 55.105 708.512 55.105ZM708.467 62.125H715.907V63.1H708.062C707.822 63.1 707.637 63.035 707.507 62.905C707.377 62.775 707.312 62.585 707.312 62.335V59.62H714.407V58.075H707.222V57.115H715.547V60.58H708.467V62.125ZM732.041 55.555H729.881V62.515H728.741V49.495H729.881V54.595H732.041V55.555ZM727.256 57.925L727.406 58.84C725.886 59.14 723.956 59.29 721.616 59.29H720.026V54.265H724.691V51.415H719.966V50.455H725.816V55.21H721.151V58.36H721.646C723.836 58.36 725.706 58.215 727.256 57.925ZM745.07 59.35H743.915V49.465H745.07V59.35ZM742.19 56.38C741.45 56.53 740.565 56.65 739.535 56.74C738.515 56.82 737.42 56.86 736.25 56.86H734.69V50.35H740.75V51.31H735.845V55.915H736.235C737.345 55.915 738.405 55.875 739.415 55.795C740.425 55.715 741.3 55.605 742.04 55.465L742.19 56.38ZM745.34 61.825V62.77H737.48C737.24 62.77 737.055 62.705 736.925 62.575C736.795 62.445 736.73 62.255 736.73 62.005V58.27H737.885V61.825H745.34ZM765.094 56.785V57.76H752.854V56.785H758.404V55.27H754.669V49.75H755.794V51.565H762.169V49.75H763.279V55.27H759.544V56.785H765.094ZM755.794 54.325H762.169V52.51H755.794V54.325ZM755.749 61.855H763.519V62.8H755.359C755.119 62.8 754.934 62.735 754.804 62.605C754.674 62.475 754.609 62.285 754.609 62.035V58.945H755.749V61.855ZM777.373 55.45H774.703V54.52H777.373V52.48H774.703V51.55H777.373V49.465H778.513V59.35H777.373V55.45ZM771.028 56.95C770.368 56.95 769.783 56.815 769.273 56.545C768.763 56.265 768.363 55.865 768.073 55.345C767.783 54.825 767.638 54.215 767.638 53.515C767.638 52.815 767.783 52.205 768.073 51.685C768.363 51.165 768.763 50.77 769.273 50.5C769.783 50.22 770.368 50.08 771.028 50.08C771.688 50.08 772.273 50.22 772.783 50.5C773.293 50.77 773.693 51.165 773.983 51.685C774.273 52.205 774.418 52.815 774.418 53.515C774.418 54.215 774.273 54.825 773.983 55.345C773.693 55.865 773.293 56.265 772.783 56.545C772.273 56.815 771.688 56.95 771.028 56.95ZM771.028 56.02C771.678 56.02 772.203 55.825 772.603 55.435C773.013 55.035 773.218 54.505 773.218 53.845V53.2C773.218 52.54 773.013 52.01 772.603 51.61C772.203 51.21 771.678 51.01 771.028 51.01C770.368 51.01 769.833 51.21 769.423 51.61C769.023 52.01 768.823 52.54 768.823 53.2V53.845C768.823 54.505 769.023 55.035 769.423 55.435C769.833 55.825 770.368 56.02 771.028 56.02ZM778.783 61.825V62.77H770.923C770.683 62.77 770.498 62.705 770.368 62.575C770.238 62.445 770.173 62.255 770.173 62.005V58.27H771.328V61.825H778.783ZM791.752 49.465H792.877V62.485H791.752V49.465ZM782.392 53.365C782.392 52.745 782.547 52.2 782.857 51.73C783.167 51.25 783.592 50.885 784.132 50.635C784.672 50.375 785.282 50.245 785.962 50.245C786.642 50.245 787.252 50.375 787.792 50.635C788.332 50.885 788.757 51.25 789.067 51.73C789.377 52.2 789.532 52.745 789.532 53.365C789.532 53.985 789.377 54.53 789.067 55C788.757 55.47 788.332 55.835 787.792 56.095C787.252 56.345 786.642 56.47 785.962 56.47C785.282 56.47 784.672 56.345 784.132 56.095C783.592 55.835 783.167 55.47 782.857 55C782.547 54.53 782.392 53.985 782.392 53.365ZM788.332 53.545V53.185C788.332 52.585 788.112 52.1 787.672 51.73C787.232 51.36 786.662 51.175 785.962 51.175C785.262 51.175 784.692 51.36 784.252 51.73C783.812 52.1 783.592 52.585 783.592 53.185V53.545C783.592 54.145 783.812 54.63 784.252 55C784.692 55.37 785.262 55.555 785.962 55.555C786.662 55.555 787.232 55.37 787.672 55C788.112 54.63 788.332 54.145 788.332 53.545ZM781.762 58.78C783.462 58.78 785.102 58.74 786.682 58.66C788.262 58.58 789.602 58.455 790.702 58.285L790.822 59.2C789.692 59.38 788.332 59.52 786.742 59.62C785.162 59.71 783.537 59.755 781.867 59.755L781.762 58.78ZM812.286 49.465V57.295H811.176V53.83H809.166V57.13H808.071V49.675H809.166V52.9H811.176V49.465H812.286ZM804.006 54.115C803.926 54.115 803.866 54.145 803.826 54.205C803.596 54.635 803.296 55.08 802.926 55.54C802.556 55.99 802.081 56.51 801.501 57.1L800.706 56.41C801.446 55.64 802.006 54.985 802.386 54.445C802.776 53.895 803.051 53.36 803.211 52.84C803.381 52.32 803.466 51.72 803.466 51.04V50.215H804.561V51.07C804.561 52.01 804.416 52.845 804.126 53.575L804.186 53.605L804.366 53.455C804.476 53.375 804.576 53.335 804.666 53.335C804.766 53.335 804.866 53.385 804.966 53.485L807.366 56.095L806.586 56.845L804.201 54.205C804.141 54.145 804.076 54.115 804.006 54.115ZM803.466 58.12H812.286V63.145H811.161V59.095H803.466V58.12ZM827.79 53.725H825.705V56.98H824.565V49.465H825.705V52.765H827.79V53.725ZM816.015 56.935L815.415 56.065C816.765 55.545 817.79 55.08 818.49 54.67C819.2 54.25 819.695 53.815 819.975 53.365C820.265 52.905 820.41 52.35 820.41 51.7V51.13H815.79V50.17H821.565V51.58C821.565 52.45 821.4 53.175 821.07 53.755C820.75 54.325 820.2 54.855 819.42 55.345C818.64 55.825 817.505 56.355 816.015 56.935ZM817.59 57.79H825.705V63.025H818.34C818.1 63.025 817.915 62.96 817.785 62.83C817.655 62.7 817.59 62.51 817.59 62.26V57.79ZM818.73 62.065H824.565V58.735H818.73V62.065ZM831.189 51.865C831.189 51.135 831.564 50.555 832.314 50.125C833.064 49.685 834.189 49.465 835.689 49.465C837.189 49.465 838.314 49.685 839.064 50.125C839.814 50.555 840.189 51.135 840.189 51.865C840.189 52.595 839.814 53.18 839.064 53.62C838.314 54.06 837.189 54.28 835.689 54.28C834.189 54.28 833.064 54.06 832.314 53.62C831.564 53.18 831.189 52.595 831.189 51.865ZM838.974 51.94V51.775C838.974 51.345 838.699 50.995 838.149 50.725C837.609 50.445 836.789 50.305 835.689 50.305C834.589 50.305 833.764 50.445 833.214 50.725C832.674 50.995 832.404 51.345 832.404 51.775V51.94C832.404 52.37 832.674 52.725 833.214 53.005C833.764 53.275 834.589 53.41 835.689 53.41C836.789 53.41 837.609 53.275 838.149 53.005C838.699 52.725 838.974 52.37 838.974 51.94ZM841.809 55.315V56.275H829.569V55.315H841.809ZM831.474 62.335V59.875H838.869V58.465H831.384V57.535H839.964V60.745H832.569V62.17H840.354V63.1H832.224C831.984 63.1 831.799 63.035 831.669 62.905C831.539 62.775 831.474 62.585 831.474 62.335ZM850.178 52.66C850.178 52.08 850.343 51.56 850.673 51.1C851.003 50.64 851.508 50.28 852.188 50.02C852.868 49.75 853.708 49.615 854.708 49.615C855.708 49.615 856.548 49.75 857.228 50.02C857.908 50.28 858.413 50.64 858.743 51.1C859.073 51.56 859.238 52.08 859.238 52.66C859.238 53.24 859.073 53.76 858.743 54.22C858.413 54.68 857.908 55.045 857.228 55.315C856.548 55.585 855.708 55.72 854.708 55.72C853.708 55.72 852.868 55.585 852.188 55.315C851.508 55.045 851.003 54.68 850.673 54.22C850.343 53.76 850.178 53.24 850.178 52.66ZM851.408 52.81C851.408 53.38 851.683 53.855 852.233 54.235C852.783 54.615 853.608 54.805 854.708 54.805C855.808 54.805 856.633 54.615 857.183 54.235C857.733 53.855 858.008 53.38 858.008 52.81V52.525C858.008 51.955 857.733 51.48 857.183 51.1C856.633 50.71 855.808 50.515 854.708 50.515C853.618 50.515 852.793 50.71 852.233 51.1C851.683 51.48 851.408 51.955 851.408 52.525V52.81ZM860.828 58.09H857.663V62.935H856.538V58.09H852.878V62.935H851.753V58.09H848.588V57.13H860.828V58.09ZM874.172 49.465V62.485H873.032V49.465H874.172ZM867.902 54.97C868.042 54.97 868.157 55.025 868.247 55.135L871.187 58.585L870.332 59.32L867.362 55.75C867.312 55.69 867.252 55.66 867.182 55.66C867.122 55.66 867.067 55.69 867.017 55.75C866.747 56.3 866.392 56.86 865.952 57.43C865.512 58 864.912 58.7 864.152 59.53L863.297 58.81C864.167 57.9 864.837 57.11 865.307 56.44C865.787 55.77 866.132 55.105 866.342 54.445C866.552 53.775 866.657 53.015 866.657 52.165V51.595H863.702V50.635H870.737V51.595H867.797V52.21C867.797 53.34 867.622 54.345 867.272 55.225L867.347 55.27L867.572 55.09C867.682 55.01 867.792 54.97 867.902 54.97Z" fill="white"/>
<circle cx="211.5" cy="157.5" r="33" stroke="#002C6A"/>
<path fill-rule="evenodd" clip-rule="evenodd" d="M211.5 186C227.24 186 240 173.24 240 157.5C240 155.803 239.852 154.142 239.568 152.527C237.971 156.546 232.428 158.306 231.037 158.306C229.733 158.306 220.173 163.139 215.556 165.556C216.642 166.898 218.815 169.744 218.815 170.389C218.815 171.194 213.111 172 211.481 172C209.852 172 204.148 171.194 203.333 170.389C202.681 169.744 205.235 167.435 206.593 166.361C204.691 165.019 199.422 161.689 193.556 159.111C190.602 157.813 186.697 156.869 183.028 156.217C183.01 156.643 183 157.07 183 157.5C183 173.24 195.76 186 211.5 186ZM183.501 152.153C186.003 138.969 197.587 129 211.5 129C222.411 129 231.889 135.131 236.679 144.136C235.284 143.311 233.74 143 232.667 143C230.222 143 224.519 145.417 226.148 150.25C227.452 154.117 231.58 153.472 233.481 152.667C233.753 151.593 234.133 149.283 233.481 148.639C232.83 147.994 231.58 148.37 231.037 148.639L231.852 150.25C231.852 151.056 231.526 152.506 230.222 151.861C228.593 151.056 226.963 147.028 229.407 146.222C231.852 145.417 236.741 145.417 236.741 148.639C236.741 151.861 235.926 155.083 230.222 155.083C225.659 155.083 215.827 151.861 211.481 150.25C212.296 148.639 213.437 145.417 211.481 145.417C209.037 145.417 209.037 148.639 209.852 149.444C210.667 150.25 203.333 154.278 197.63 153.472C197.51 153.455 197.386 153.438 197.257 153.42C194.155 152.98 188.483 152.177 183.501 152.153Z" fill="#002C6A"/>
<path d="M182.142 207.925H179.832L179.292 211H178.332L178.872 207.925H176.952V207.025H179.022L179.442 204.505H177.537V203.605H179.607L180.132 200.53H181.092L180.567 203.605H182.877L183.402 200.53H184.362L183.837 203.605H185.757V204.505H183.672L183.252 207.025H185.172V207.925H183.102L182.562 211H181.602L182.142 207.925ZM182.292 207.025L182.712 204.505H180.402L179.982 207.025H182.292ZM192.296 211.18C191.046 211.18 190.131 210.705 189.551 209.755C188.981 208.805 188.696 207.475 188.696 205.765C188.696 204.055 188.981 202.725 189.551 201.775C190.131 200.825 191.046 200.35 192.296 200.35C193.546 200.35 194.456 200.825 195.026 201.775C195.606 202.725 195.896 204.055 195.896 205.765C195.896 207.475 195.606 208.805 195.026 209.755C194.456 210.705 193.546 211.18 192.296 211.18ZM192.296 210.085C192.706 210.085 193.056 210 193.346 209.83C193.636 209.66 193.871 209.42 194.051 209.11C194.231 208.8 194.361 208.435 194.441 208.015C194.531 207.595 194.576 207.13 194.576 206.62V204.91C194.576 204.4 194.531 203.935 194.441 203.515C194.361 203.095 194.231 202.73 194.051 202.42C193.871 202.11 193.636 201.87 193.346 201.7C193.056 201.53 192.706 201.445 192.296 201.445C191.886 201.445 191.536 201.53 191.246 201.7C190.956 201.87 190.721 202.11 190.541 202.42C190.361 202.73 190.226 203.095 190.136 203.515C190.056 203.935 190.016 204.4 190.016 204.91V206.62C190.016 207.13 190.056 207.595 190.136 208.015C190.226 208.435 190.361 208.8 190.541 209.11C190.721 209.42 190.956 209.66 191.246 209.83C191.536 210 191.886 210.085 192.296 210.085ZM202.34 211.18C201.09 211.18 200.175 210.705 199.595 209.755C199.025 208.805 198.74 207.475 198.74 205.765C198.74 204.055 199.025 202.725 199.595 201.775C200.175 200.825 201.09 200.35 202.34 200.35C203.59 200.35 204.5 200.825 205.07 201.775C205.65 202.725 205.94 204.055 205.94 205.765C205.94 207.475 205.65 208.805 205.07 209.755C204.5 210.705 203.59 211.18 202.34 211.18ZM202.34 210.085C202.75 210.085 203.1 210 203.39 209.83C203.68 209.66 203.915 209.42 204.095 209.11C204.275 208.8 204.405 208.435 204.485 208.015C204.575 207.595 204.62 207.13 204.62 206.62V204.91C204.62 204.4 204.575 203.935 204.485 203.515C204.405 203.095 204.275 202.73 204.095 202.42C203.915 202.11 203.68 201.87 203.39 201.7C203.1 201.53 202.75 201.445 202.34 201.445C201.93 201.445 201.58 201.53 201.29 201.7C201 201.87 200.765 202.11 200.585 202.42C200.405 202.73 200.27 203.095 200.18 203.515C200.1 203.935 200.06 204.4 200.06 204.91V206.62C200.06 207.13 200.1 207.595 200.18 208.015C200.27 208.435 200.405 208.8 200.585 209.11C200.765 209.42 201 209.66 201.29 209.83C201.58 210 201.93 210.085 202.34 210.085ZM215.879 211H209.009V209.71L212.429 206.56C212.919 206.11 213.329 205.635 213.659 205.135C213.989 204.625 214.154 204.115 214.154 203.605V203.425C214.154 202.845 213.994 202.375 213.674 202.015C213.354 201.655 212.869 201.475 212.219 201.475C211.899 201.475 211.619 201.52 211.379 201.61C211.139 201.7 210.929 201.825 210.749 201.985C210.579 202.145 210.434 202.335 210.314 202.555C210.204 202.765 210.114 202.995 210.044 203.245L208.919 202.81C209.019 202.5 209.154 202.2 209.324 201.91C209.504 201.61 209.724 201.345 209.984 201.115C210.254 200.885 210.574 200.7 210.944 200.56C211.324 200.42 211.769 200.35 212.279 200.35C212.789 200.35 213.244 200.425 213.644 200.575C214.044 200.725 214.379 200.935 214.649 201.205C214.919 201.475 215.124 201.795 215.264 202.165C215.414 202.535 215.489 202.945 215.489 203.395C215.489 203.805 215.429 204.185 215.309 204.535C215.199 204.885 215.044 205.22 214.844 205.54C214.644 205.85 214.399 206.155 214.109 206.455C213.829 206.755 213.524 207.055 213.194 207.355L210.374 209.89H215.879V211ZM223.013 211.18C221.683 211.18 220.648 210.73 219.908 209.83C219.168 208.92 218.798 207.585 218.798 205.825C218.798 204.065 219.168 202.715 219.908 201.775C220.648 200.825 221.683 200.35 223.013 200.35C223.893 200.35 224.628 200.55 225.218 200.95C225.818 201.35 226.283 201.915 226.613 202.645L225.593 203.26C225.383 202.72 225.063 202.29 224.633 201.97C224.203 201.64 223.663 201.475 223.013 201.475C222.563 201.475 222.158 201.56 221.798 201.73C221.448 201.9 221.148 202.145 220.898 202.465C220.658 202.775 220.473 203.15 220.343 203.59C220.213 204.02 220.148 204.505 220.148 205.045V206.605C220.148 207.685 220.398 208.53 220.898 209.14C221.398 209.75 222.103 210.055 223.013 210.055C223.683 210.055 224.243 209.885 224.693 209.545C225.143 209.195 225.473 208.735 225.683 208.165L226.688 208.795C226.358 209.535 225.883 210.12 225.263 210.55C224.643 210.97 223.893 211.18 223.013 211.18ZM232.809 211.18C232.269 211.18 231.779 211.09 231.339 210.91C230.909 210.72 230.539 210.455 230.229 210.115C229.929 209.765 229.699 209.34 229.539 208.84C229.379 208.34 229.299 207.78 229.299 207.16C229.299 206.38 229.414 205.65 229.644 204.97C229.874 204.28 230.169 203.655 230.529 203.095C230.899 202.525 231.304 202.025 231.744 201.595C232.184 201.155 232.614 200.8 233.034 200.53H234.654C234.094 200.94 233.594 201.34 233.154 201.73C232.714 202.12 232.329 202.53 231.999 202.96C231.669 203.38 231.389 203.835 231.159 204.325C230.929 204.805 230.744 205.35 230.604 205.96L230.679 205.99C230.929 205.56 231.249 205.205 231.639 204.925C232.039 204.635 232.559 204.49 233.199 204.49C233.649 204.49 234.064 204.565 234.444 204.715C234.824 204.865 235.149 205.08 235.419 205.36C235.689 205.64 235.899 205.98 236.049 206.38C236.209 206.78 236.289 207.225 236.289 207.715C236.289 208.225 236.204 208.695 236.034 209.125C235.874 209.545 235.639 209.91 235.329 210.22C235.029 210.52 234.664 210.755 234.234 210.925C233.804 211.095 233.329 211.18 232.809 211.18ZM232.794 210.085C233.484 210.085 234.019 209.895 234.399 209.515C234.789 209.135 234.984 208.59 234.984 207.88V207.76C234.984 207.05 234.789 206.505 234.399 206.125C234.019 205.745 233.484 205.555 232.794 205.555C232.104 205.555 231.564 205.745 231.174 206.125C230.794 206.505 230.604 207.05 230.604 207.76V207.88C230.604 208.59 230.794 209.135 231.174 209.515C231.564 209.895 232.104 210.085 232.794 210.085ZM246.288 211L245.238 207.91H241.008L239.958 211H238.683L242.343 200.53H243.948L247.608 211H246.288ZM243.153 201.7H243.078L241.308 206.8H244.923L243.153 201.7Z" fill="#111111"/>
<path d="M274.235 207.925H271.925L271.385 211H270.425L270.965 207.925H269.045V207.025H271.115L271.535 204.505H269.63V203.605H271.7L272.225 200.53H273.185L272.66 203.605H274.97L275.495 200.53H276.455L275.93 203.605H277.85V204.505H275.765L275.345 207.025H277.265V207.925H275.195L274.655 211H273.695L274.235 207.925ZM274.385 207.025L274.805 204.505H272.495L272.075 207.025H274.385ZM281.284 211V200.53H287.674V201.64H282.544V205.15H287.374V206.26H282.544V209.89H287.674V211H281.284ZM295.309 211V208.945H290.254V207.835L294.634 200.53H296.509V207.895H298.024V208.945H296.509V211H295.309ZM291.439 207.895H295.309V201.505H295.234L291.439 207.895ZM307.198 201.64H302.608L302.308 205.63H302.413C302.663 205.28 302.943 205 303.253 204.79C303.573 204.58 304.008 204.475 304.558 204.475C305.008 204.475 305.423 204.55 305.803 204.7C306.183 204.85 306.513 205.065 306.793 205.345C307.073 205.615 307.288 205.95 307.438 206.35C307.598 206.75 307.678 207.205 307.678 207.715C307.678 208.225 307.598 208.695 307.438 209.125C307.278 209.545 307.043 209.91 306.733 210.22C306.433 210.52 306.063 210.755 305.623 210.925C305.193 211.095 304.703 211.18 304.153 211.18C303.713 211.18 303.323 211.13 302.983 211.03C302.653 210.93 302.358 210.795 302.098 210.625C301.838 210.455 301.608 210.265 301.408 210.055C301.218 209.845 301.043 209.625 300.883 209.395L301.828 208.675C301.958 208.885 302.093 209.075 302.233 209.245C302.383 209.415 302.543 209.56 302.713 209.68C302.893 209.8 303.098 209.895 303.328 209.965C303.558 210.025 303.833 210.055 304.153 210.055C304.873 210.055 305.418 209.865 305.788 209.485C306.158 209.105 306.343 208.57 306.343 207.88V207.73C306.343 207.04 306.158 206.505 305.788 206.125C305.418 205.745 304.873 205.555 304.153 205.555C303.673 205.555 303.293 205.645 303.013 205.825C302.743 205.995 302.498 206.2 302.278 206.44L301.213 206.29L301.588 200.53H307.198V201.64ZM311.092 211V209.89H314.017V201.46H313.912L311.272 203.92L310.537 203.125L313.312 200.53H315.277V209.89H317.977V211H311.092ZM322.441 211L326.446 201.61H321.976V203.56H320.851V200.53H327.721V201.64L323.791 211H322.441ZM331.18 211V209.89H334.105V201.46H334L331.36 203.92L330.625 203.125L333.4 200.53H335.365V209.89H338.065V211H331.18Z" fill="#111111"/>
<path d="M371.208 207.925H368.898L368.358 211H367.398L367.938 207.925H366.018V207.025H368.088L368.508 204.505H366.603V203.605H368.673L369.198 200.53H370.158L369.633 203.605H371.943L372.468 200.53H373.428L372.903 203.605H374.823V204.505H372.738L372.318 207.025H374.238V207.925H372.168L371.628 211H370.668L371.208 207.925ZM371.358 207.025L371.778 204.505H369.468L369.048 207.025H371.358ZM378.256 211V200.53H384.496V201.64H379.516V205.15H384.061V206.26H379.516V211H378.256ZM390.79 211.18C390.19 211.18 389.665 211.105 389.215 210.955C388.765 210.795 388.385 210.58 388.075 210.31C387.775 210.04 387.545 209.72 387.385 209.35C387.235 208.98 387.16 208.58 387.16 208.15C387.16 207.43 387.355 206.86 387.745 206.44C388.135 206.02 388.645 205.725 389.275 205.555V205.435C388.725 205.245 388.285 204.94 387.955 204.52C387.635 204.09 387.475 203.575 387.475 202.975C387.475 202.175 387.765 201.54 388.345 201.07C388.925 200.59 389.74 200.35 390.79 200.35C391.84 200.35 392.655 200.59 393.235 201.07C393.815 201.54 394.105 202.175 394.105 202.975C394.105 203.575 393.94 204.09 393.61 204.52C393.29 204.94 392.855 205.245 392.305 205.435V205.555C392.935 205.725 393.445 206.02 393.835 206.44C394.225 206.86 394.42 207.43 394.42 208.15C394.42 208.58 394.34 208.98 394.18 209.35C394.03 209.72 393.8 210.04 393.49 210.31C393.19 210.58 392.815 210.795 392.365 210.955C391.915 211.105 391.39 211.18 390.79 211.18ZM390.79 210.085C391.52 210.085 392.085 209.925 392.485 209.605C392.885 209.275 393.085 208.81 393.085 208.21V207.895C393.085 207.295 392.885 206.835 392.485 206.515C392.085 206.185 391.52 206.02 390.79 206.02C390.06 206.02 389.495 206.185 389.095 206.515C388.695 206.835 388.495 207.295 388.495 207.895V208.21C388.495 208.81 388.695 209.275 389.095 209.605C389.495 209.925 390.06 210.085 390.79 210.085ZM390.79 204.97C391.45 204.97 391.95 204.83 392.29 204.55C392.63 204.27 392.8 203.86 392.8 203.32V203.095C392.8 202.555 392.63 202.145 392.29 201.865C391.95 201.585 391.45 201.445 390.79 201.445C390.13 201.445 389.63 201.585 389.29 201.865C388.95 202.145 388.78 202.555 388.78 203.095V203.32C388.78 203.86 388.95 204.27 389.29 204.55C389.63 204.83 390.13 204.97 390.79 204.97ZM404.284 211L403.234 207.91H399.004L397.954 211H396.679L400.339 200.53H401.944L405.604 211H404.284ZM401.149 201.7H401.074L399.304 206.8H402.919L401.149 201.7ZM409.619 211L413.624 201.61H409.154V203.56H408.029V200.53H414.899V201.64L410.969 211H409.619ZM425.033 204.37C425.033 205.15 424.918 205.885 424.688 206.575C424.458 207.255 424.158 207.88 423.788 208.45C423.428 209.01 423.028 209.51 422.588 209.95C422.148 210.38 421.718 210.73 421.298 211H419.678C420.238 210.59 420.738 210.19 421.178 209.8C421.618 209.41 422.003 209.005 422.333 208.585C422.663 208.155 422.943 207.7 423.173 207.22C423.403 206.73 423.588 206.18 423.728 205.57L423.653 205.54C423.403 205.97 423.078 206.33 422.678 206.62C422.288 206.9 421.773 207.04 421.133 207.04C420.683 207.04 420.268 206.965 419.888 206.815C419.508 206.665 419.183 206.45 418.913 206.17C418.643 205.89 418.428 205.555 418.268 205.165C418.118 204.765 418.043 204.315 418.043 203.815C418.043 203.305 418.123 202.84 418.283 202.42C418.453 201.99 418.688 201.625 418.988 201.325C419.298 201.015 419.663 200.775 420.083 200.605C420.513 200.435 420.993 200.35 421.523 200.35C422.063 200.35 422.548 200.445 422.978 200.635C423.418 200.815 423.788 201.08 424.088 201.43C424.398 201.77 424.633 202.19 424.793 202.69C424.953 203.19 425.033 203.75 425.033 204.37ZM421.538 205.975C422.228 205.975 422.763 205.785 423.143 205.405C423.533 205.025 423.728 204.48 423.728 203.77V203.65C423.728 202.94 423.533 202.395 423.143 202.015C422.763 201.635 422.228 201.445 421.538 201.445C420.848 201.445 420.308 201.635 419.918 202.015C419.538 202.395 419.348 202.94 419.348 203.65V203.77C419.348 204.48 419.538 205.025 419.918 205.405C420.308 205.785 420.848 205.975 421.538 205.975ZM428.477 200.53H432.782C433.652 200.53 434.332 200.775 434.822 201.265C435.322 201.755 435.572 202.41 435.572 203.23C435.572 203.62 435.517 203.95 435.407 204.22C435.297 204.49 435.157 204.715 434.987 204.895C434.817 205.065 434.632 205.195 434.432 205.285C434.232 205.365 434.047 205.42 433.877 205.45V205.54C434.067 205.55 434.277 205.6 434.507 205.69C434.747 205.78 434.972 205.925 435.182 206.125C435.392 206.315 435.567 206.565 435.707 206.875C435.857 207.175 435.932 207.54 435.932 207.97C435.932 208.4 435.862 208.8 435.722 209.17C435.592 209.54 435.407 209.86 435.167 210.13C434.927 210.4 434.642 210.615 434.312 210.775C433.982 210.925 433.622 211 433.232 211H428.477V200.53ZM429.737 209.89H432.842C433.382 209.89 433.807 209.755 434.117 209.485C434.427 209.205 434.582 208.8 434.582 208.27V207.76C434.582 207.23 434.427 206.83 434.117 206.56C433.807 206.28 433.382 206.14 432.842 206.14H429.737V209.89ZM429.737 205.06H432.632C433.132 205.06 433.522 204.935 433.802 204.685C434.082 204.435 434.222 204.075 434.222 203.605V203.095C434.222 202.625 434.082 202.265 433.802 202.015C433.522 201.765 433.132 201.64 432.632 201.64H429.737V205.06Z" fill="#111111"/>
<path d="M472.481 207.925H470.171L469.631 211H468.671L469.211 207.925H467.291V207.025H469.361L469.781 204.505H467.876V203.605H469.946L470.471 200.53H471.431L470.906 203.605H473.216L473.741 200.53H474.701L474.176 203.605H476.096V204.505H474.011L473.591 207.025H475.511V207.925H473.441L472.901 211H471.941L472.481 207.925ZM472.631 207.025L473.051 204.505H470.741L470.321 207.025H472.631ZM479.529 211V200.53H485.769V201.64H480.789V205.15H485.334V206.26H480.789V211H479.529ZM492.063 211.18C491.463 211.18 490.938 211.105 490.488 210.955C490.038 210.795 489.658 210.58 489.348 210.31C489.048 210.04 488.818 209.72 488.658 209.35C488.508 208.98 488.433 208.58 488.433 208.15C488.433 207.43 488.628 206.86 489.018 206.44C489.408 206.02 489.918 205.725 490.548 205.555V205.435C489.998 205.245 489.558 204.94 489.228 204.52C488.908 204.09 488.748 203.575 488.748 202.975C488.748 202.175 489.038 201.54 489.618 201.07C490.198 200.59 491.013 200.35 492.063 200.35C493.113 200.35 493.928 200.59 494.508 201.07C495.088 201.54 495.378 202.175 495.378 202.975C495.378 203.575 495.213 204.09 494.883 204.52C494.563 204.94 494.128 205.245 493.578 205.435V205.555C494.208 205.725 494.718 206.02 495.108 206.44C495.498 206.86 495.693 207.43 495.693 208.15C495.693 208.58 495.613 208.98 495.453 209.35C495.303 209.72 495.073 210.04 494.763 210.31C494.463 210.58 494.088 210.795 493.638 210.955C493.188 211.105 492.663 211.18 492.063 211.18ZM492.063 210.085C492.793 210.085 493.358 209.925 493.758 209.605C494.158 209.275 494.358 208.81 494.358 208.21V207.895C494.358 207.295 494.158 206.835 493.758 206.515C493.358 206.185 492.793 206.02 492.063 206.02C491.333 206.02 490.768 206.185 490.368 206.515C489.968 206.835 489.768 207.295 489.768 207.895V208.21C489.768 208.81 489.968 209.275 490.368 209.605C490.768 209.925 491.333 210.085 492.063 210.085ZM492.063 204.97C492.723 204.97 493.223 204.83 493.563 204.55C493.903 204.27 494.073 203.86 494.073 203.32V203.095C494.073 202.555 493.903 202.145 493.563 201.865C493.223 201.585 492.723 201.445 492.063 201.445C491.403 201.445 490.903 201.585 490.563 201.865C490.223 202.145 490.053 202.555 490.053 203.095V203.32C490.053 203.86 490.223 204.27 490.563 204.55C490.903 204.83 491.403 204.97 492.063 204.97ZM499.002 200.53H502.512C503.162 200.53 503.752 200.64 504.282 200.86C504.812 201.08 505.262 201.41 505.632 201.85C506.012 202.28 506.302 202.825 506.502 203.485C506.702 204.135 506.802 204.895 506.802 205.765C506.802 206.635 506.702 207.4 506.502 208.06C506.302 208.71 506.012 209.255 505.632 209.695C505.262 210.125 504.812 210.45 504.282 210.67C503.752 210.89 503.162 211 502.512 211H499.002V200.53ZM502.512 209.89C502.942 209.89 503.337 209.82 503.697 209.68C504.057 209.53 504.367 209.315 504.627 209.035C504.887 208.755 505.087 208.415 505.227 208.015C505.377 207.605 505.452 207.14 505.452 206.62V204.91C505.452 204.39 505.377 203.93 505.227 203.53C505.087 203.12 504.887 202.775 504.627 202.495C504.367 202.215 504.057 202.005 503.697 201.865C503.337 201.715 502.942 201.64 502.512 201.64H500.262V209.89H502.512ZM516.716 204.37C516.716 205.15 516.601 205.885 516.371 206.575C516.141 207.255 515.841 207.88 515.471 208.45C515.111 209.01 514.711 209.51 514.271 209.95C513.831 210.38 513.401 210.73 512.981 211H511.361C511.921 210.59 512.421 210.19 512.861 209.8C513.301 209.41 513.686 209.005 514.016 208.585C514.346 208.155 514.626 207.7 514.856 207.22C515.086 206.73 515.271 206.18 515.411 205.57L515.336 205.54C515.086 205.97 514.761 206.33 514.361 206.62C513.971 206.9 513.456 207.04 512.816 207.04C512.366 207.04 511.951 206.965 511.571 206.815C511.191 206.665 510.866 206.45 510.596 206.17C510.326 205.89 510.111 205.555 509.951 205.165C509.801 204.765 509.726 204.315 509.726 203.815C509.726 203.305 509.806 202.84 509.966 202.42C510.136 201.99 510.371 201.625 510.671 201.325C510.981 201.015 511.346 200.775 511.766 200.605C512.196 200.435 512.676 200.35 513.206 200.35C513.746 200.35 514.231 200.445 514.661 200.635C515.101 200.815 515.471 201.08 515.771 201.43C516.081 201.77 516.316 202.19 516.476 202.69C516.636 203.19 516.716 203.75 516.716 204.37ZM513.221 205.975C513.911 205.975 514.446 205.785 514.826 205.405C515.216 205.025 515.411 204.48 515.411 203.77V203.65C515.411 202.94 515.216 202.395 514.826 202.015C514.446 201.635 513.911 201.445 513.221 201.445C512.531 201.445 511.991 201.635 511.601 202.015C511.221 202.395 511.031 202.94 511.031 203.65V203.77C511.031 204.48 511.221 205.025 511.601 205.405C511.991 205.785 512.531 205.975 513.221 205.975ZM526.76 204.37C526.76 205.15 526.645 205.885 526.415 206.575C526.185 207.255 525.885 207.88 525.515 208.45C525.155 209.01 524.755 209.51 524.315 209.95C523.875 210.38 523.445 210.73 523.025 211H521.405C521.965 210.59 522.465 210.19 522.905 209.8C523.345 209.41 523.73 209.005 524.06 208.585C524.39 208.155 524.67 207.7 524.9 207.22C525.13 206.73 525.315 206.18 525.455 205.57L525.38 205.54C525.13 205.97 524.805 206.33 524.405 206.62C524.015 206.9 523.5 207.04 522.86 207.04C522.41 207.04 521.995 206.965 521.615 206.815C521.235 206.665 520.91 206.45 520.64 206.17C520.37 205.89 520.155 205.555 519.995 205.165C519.845 204.765 519.77 204.315 519.77 203.815C519.77 203.305 519.85 202.84 520.01 202.42C520.18 201.99 520.415 201.625 520.715 201.325C521.025 201.015 521.39 200.775 521.81 200.605C522.24 200.435 522.72 200.35 523.25 200.35C523.79 200.35 524.275 200.445 524.705 200.635C525.145 200.815 525.515 201.08 525.815 201.43C526.125 201.77 526.36 202.19 526.52 202.69C526.68 203.19 526.76 203.75 526.76 204.37ZM523.265 205.975C523.955 205.975 524.49 205.785 524.87 205.405C525.26 205.025 525.455 204.48 525.455 203.77V203.65C525.455 202.94 525.26 202.395 524.87 202.015C524.49 201.635 523.955 201.445 523.265 201.445C522.575 201.445 522.035 201.635 521.645 202.015C521.265 202.395 521.075 202.94 521.075 203.65V203.77C521.075 204.48 521.265 205.025 521.645 205.405C522.035 205.785 522.575 205.975 523.265 205.975ZM530.204 200.53H534.509C535.379 200.53 536.059 200.775 536.549 201.265C537.049 201.755 537.299 202.41 537.299 203.23C537.299 203.62 537.244 203.95 537.134 204.22C537.024 204.49 536.884 204.715 536.714 204.895C536.544 205.065 536.359 205.195 536.159 205.285C535.959 205.365 535.774 205.42 535.604 205.45V205.54C535.794 205.55 536.004 205.6 536.234 205.69C536.474 205.78 536.699 205.925 536.909 206.125C537.119 206.315 537.294 206.565 537.434 206.875C537.584 207.175 537.659 207.54 537.659 207.97C537.659 208.4 537.589 208.8 537.449 209.17C537.319 209.54 537.134 209.86 536.894 210.13C536.654 210.4 536.369 210.615 536.039 210.775C535.709 210.925 535.349 211 534.959 211H530.204V200.53ZM531.464 209.89H534.569C535.109 209.89 535.534 209.755 535.844 209.485C536.154 209.205 536.309 208.8 536.309 208.27V207.76C536.309 207.23 536.154 206.83 535.844 206.56C535.534 206.28 535.109 206.14 534.569 206.14H531.464V209.89ZM531.464 205.06H534.359C534.859 205.06 535.249 204.935 535.529 204.685C535.809 204.435 535.949 204.075 535.949 203.605V203.095C535.949 202.625 535.809 202.265 535.529 202.015C535.249 201.765 534.859 201.64 534.359 201.64H531.464V205.06Z" fill="#111111"/>
<path d="M570.111 207.925H567.801L567.261 211H566.301L566.841 207.925H564.921V207.025H566.991L567.411 204.505H565.506V203.605H567.576L568.101 200.53H569.061L568.536 203.605H570.846L571.371 200.53H572.331L571.806 203.605H573.726V204.505H571.641L571.221 207.025H573.141V207.925H571.071L570.531 211H569.571L570.111 207.925ZM570.261 207.025L570.681 204.505H568.371L567.951 207.025H570.261ZM577.084 211V209.89H580.009V201.46H579.904L577.264 203.92L576.529 203.125L579.304 200.53H581.269V209.89H583.969V211H577.084ZM587.128 211V209.89H590.053V201.46H589.948L587.308 203.92L586.573 203.125L589.348 200.53H591.313V209.89H594.013V211H587.128ZM597.173 211V209.89H600.098V201.46H599.993L597.353 203.92L596.618 203.125L599.393 200.53H601.358V209.89H604.058V211H597.173ZM607.217 211V209.89H610.142V201.46H610.037L607.397 203.92L606.662 203.125L609.437 200.53H611.402V209.89H614.102V211H607.217ZM617.261 211V209.89H620.186V201.46H620.081L617.441 203.92L616.706 203.125L619.481 200.53H621.446V209.89H624.146V211H617.261ZM627.305 211V209.89H630.23V201.46H630.125L627.485 203.92L626.75 203.125L629.525 200.53H631.49V209.89H634.19V211H627.305Z" fill="#111111"/>
<path d="M667.111 207.925H664.801L664.261 211H663.301L663.841 207.925H661.921V207.025H663.991L664.411 204.505H662.506V203.605H664.576L665.101 200.53H666.061L665.536 203.605H667.846L668.371 200.53H669.331L668.806 203.605H670.726V204.505H668.641L668.221 207.025H670.141V207.925H668.071L667.531 211H666.571L667.111 207.925ZM667.261 207.025L667.681 204.505H665.371L664.951 207.025H667.261ZM676.679 204.97C677.389 204.97 677.919 204.81 678.269 204.49C678.629 204.16 678.809 203.74 678.809 203.23V203.125C678.809 202.575 678.634 202.165 678.284 201.895C677.944 201.615 677.494 201.475 676.934 201.475C676.394 201.475 675.954 201.595 675.614 201.835C675.274 202.065 674.994 202.38 674.774 202.78L673.844 202.06C673.974 201.85 674.129 201.645 674.309 201.445C674.499 201.235 674.719 201.05 674.969 200.89C675.219 200.73 675.509 200.6 675.839 200.5C676.169 200.4 676.544 200.35 676.964 200.35C677.404 200.35 677.819 200.41 678.209 200.53C678.599 200.64 678.934 200.81 679.214 201.04C679.504 201.26 679.729 201.535 679.889 201.865C680.059 202.195 680.144 202.57 680.144 202.99C680.144 203.33 680.089 203.635 679.979 203.905C679.879 204.175 679.739 204.41 679.559 204.61C679.379 204.81 679.164 204.98 678.914 205.12C678.674 205.26 678.414 205.365 678.134 205.435V205.495C678.414 205.555 678.684 205.655 678.944 205.795C679.214 205.925 679.449 206.1 679.649 206.32C679.859 206.53 680.024 206.79 680.144 207.1C680.274 207.4 680.339 207.745 680.339 208.135C680.339 208.585 680.254 209 680.084 209.38C679.914 209.75 679.674 210.07 679.364 210.34C679.054 210.6 678.679 210.805 678.239 210.955C677.799 211.105 677.314 211.18 676.784 211.18C676.334 211.18 675.934 211.13 675.584 211.03C675.234 210.93 674.924 210.795 674.654 210.625C674.384 210.455 674.144 210.265 673.934 210.055C673.734 209.845 673.554 209.625 673.394 209.395L674.339 208.675C674.469 208.885 674.609 209.075 674.759 209.245C674.919 209.415 675.094 209.56 675.284 209.68C675.474 209.8 675.689 209.895 675.929 209.965C676.169 210.025 676.449 210.055 676.769 210.055C677.509 210.055 678.069 209.89 678.449 209.56C678.829 209.22 679.019 208.74 679.019 208.12V208C679.019 207.38 678.829 206.905 678.449 206.575C678.069 206.235 677.509 206.065 676.769 206.065H675.539V204.97H676.679ZM686.723 204.97C687.433 204.97 687.963 204.81 688.313 204.49C688.673 204.16 688.853 203.74 688.853 203.23V203.125C688.853 202.575 688.678 202.165 688.328 201.895C687.988 201.615 687.538 201.475 686.978 201.475C686.438 201.475 685.998 201.595 685.658 201.835C685.318 202.065 685.038 202.38 684.818 202.78L683.888 202.06C684.018 201.85 684.173 201.645 684.353 201.445C684.543 201.235 684.763 201.05 685.013 200.89C685.263 200.73 685.553 200.6 685.883 200.5C686.213 200.4 686.588 200.35 687.008 200.35C687.448 200.35 687.863 200.41 688.253 200.53C688.643 200.64 688.978 200.81 689.258 201.04C689.548 201.26 689.773 201.535 689.933 201.865C690.103 202.195 690.188 202.57 690.188 202.99C690.188 203.33 690.133 203.635 690.023 203.905C689.923 204.175 689.783 204.41 689.603 204.61C689.423 204.81 689.208 204.98 688.958 205.12C688.718 205.26 688.458 205.365 688.178 205.435V205.495C688.458 205.555 688.728 205.655 688.988 205.795C689.258 205.925 689.493 206.1 689.693 206.32C689.903 206.53 690.068 206.79 690.188 207.1C690.318 207.4 690.383 207.745 690.383 208.135C690.383 208.585 690.298 209 690.128 209.38C689.958 209.75 689.718 210.07 689.408 210.34C689.098 210.6 688.723 210.805 688.283 210.955C687.843 211.105 687.358 211.18 686.828 211.18C686.378 211.18 685.978 211.13 685.628 211.03C685.278 210.93 684.968 210.795 684.698 210.625C684.428 210.455 684.188 210.265 683.978 210.055C683.778 209.845 683.598 209.625 683.438 209.395L684.383 208.675C684.513 208.885 684.653 209.075 684.803 209.245C684.963 209.415 685.138 209.56 685.328 209.68C685.518 209.8 685.733 209.895 685.973 209.965C686.213 210.025 686.493 210.055 686.813 210.055C687.553 210.055 688.113 209.89 688.493 209.56C688.873 209.22 689.063 208.74 689.063 208.12V208C689.063 207.38 688.873 206.905 688.493 206.575C688.113 206.235 687.553 206.065 686.813 206.065H685.583V204.97H686.723ZM696.768 204.97C697.478 204.97 698.008 204.81 698.358 204.49C698.718 204.16 698.898 203.74 698.898 203.23V203.125C698.898 202.575 698.723 202.165 698.373 201.895C698.033 201.615 697.583 201.475 697.023 201.475C696.483 201.475 696.043 201.595 695.703 201.835C695.363 202.065 695.083 202.38 694.863 202.78L693.933 202.06C694.063 201.85 694.218 201.645 694.398 201.445C694.588 201.235 694.808 201.05 695.058 200.89C695.308 200.73 695.598 200.6 695.928 200.5C696.258 200.4 696.633 200.35 697.053 200.35C697.493 200.35 697.908 200.41 698.298 200.53C698.688 200.64 699.023 200.81 699.303 201.04C699.593 201.26 699.818 201.535 699.978 201.865C700.148 202.195 700.233 202.57 700.233 202.99C700.233 203.33 700.178 203.635 700.068 203.905C699.968 204.175 699.828 204.41 699.648 204.61C699.468 204.81 699.253 204.98 699.003 205.12C698.763 205.26 698.503 205.365 698.223 205.435V205.495C698.503 205.555 698.773 205.655 699.033 205.795C699.303 205.925 699.538 206.1 699.738 206.32C699.948 206.53 700.113 206.79 700.233 207.1C700.363 207.4 700.428 207.745 700.428 208.135C700.428 208.585 700.343 209 700.173 209.38C700.003 209.75 699.763 210.07 699.453 210.34C699.143 210.6 698.768 210.805 698.328 210.955C697.888 211.105 697.403 211.18 696.873 211.18C696.423 211.18 696.023 211.13 695.673 211.03C695.323 210.93 695.013 210.795 694.743 210.625C694.473 210.455 694.233 210.265 694.023 210.055C693.823 209.845 693.643 209.625 693.483 209.395L694.428 208.675C694.558 208.885 694.698 209.075 694.848 209.245C695.008 209.415 695.183 209.56 695.373 209.68C695.563 209.8 695.778 209.895 696.018 209.965C696.258 210.025 696.538 210.055 696.858 210.055C697.598 210.055 698.158 209.89 698.538 209.56C698.918 209.22 699.108 208.74 699.108 208.12V208C699.108 207.38 698.918 206.905 698.538 206.575C698.158 206.235 697.598 206.065 696.858 206.065H695.628V204.97H696.768ZM706.812 204.97C707.522 204.97 708.052 204.81 708.402 204.49C708.762 204.16 708.942 203.74 708.942 203.23V203.125C708.942 202.575 708.767 202.165 708.417 201.895C708.077 201.615 707.627 201.475 707.067 201.475C706.527 201.475 706.087 201.595 705.747 201.835C705.407 202.065 705.127 202.38 704.907 202.78L703.977 202.06C704.107 201.85 704.262 201.645 704.442 201.445C704.632 201.235 704.852 201.05 705.102 200.89C705.352 200.73 705.642 200.6 705.972 200.5C706.302 200.4 706.677 200.35 707.097 200.35C707.537 200.35 707.952 200.41 708.342 200.53C708.732 200.64 709.067 200.81 709.347 201.04C709.637 201.26 709.862 201.535 710.022 201.865C710.192 202.195 710.277 202.57 710.277 202.99C710.277 203.33 710.222 203.635 710.112 203.905C710.012 204.175 709.872 204.41 709.692 204.61C709.512 204.81 709.297 204.98 709.047 205.12C708.807 205.26 708.547 205.365 708.267 205.435V205.495C708.547 205.555 708.817 205.655 709.077 205.795C709.347 205.925 709.582 206.1 709.782 206.32C709.992 206.53 710.157 206.79 710.277 207.1C710.407 207.4 710.472 207.745 710.472 208.135C710.472 208.585 710.387 209 710.217 209.38C710.047 209.75 709.807 210.07 709.497 210.34C709.187 210.6 708.812 210.805 708.372 210.955C707.932 211.105 707.447 211.18 706.917 211.18C706.467 211.18 706.067 211.13 705.717 211.03C705.367 210.93 705.057 210.795 704.787 210.625C704.517 210.455 704.277 210.265 704.067 210.055C703.867 209.845 703.687 209.625 703.527 209.395L704.472 208.675C704.602 208.885 704.742 209.075 704.892 209.245C705.052 209.415 705.227 209.56 705.417 209.68C705.607 209.8 705.822 209.895 706.062 209.965C706.302 210.025 706.582 210.055 706.902 210.055C707.642 210.055 708.202 209.89 708.582 209.56C708.962 209.22 709.152 208.74 709.152 208.12V208C709.152 207.38 708.962 206.905 708.582 206.575C708.202 206.235 707.642 206.065 706.902 206.065H705.672V204.97H706.812ZM716.856 204.97C717.566 204.97 718.096 204.81 718.446 204.49C718.806 204.16 718.986 203.74 718.986 203.23V203.125C718.986 202.575 718.811 202.165 718.461 201.895C718.121 201.615 717.671 201.475 717.111 201.475C716.571 201.475 716.131 201.595 715.791 201.835C715.451 202.065 715.171 202.38 714.951 202.78L714.021 202.06C714.151 201.85 714.306 201.645 714.486 201.445C714.676 201.235 714.896 201.05 715.146 200.89C715.396 200.73 715.686 200.6 716.016 200.5C716.346 200.4 716.721 200.35 717.141 200.35C717.581 200.35 717.996 200.41 718.386 200.53C718.776 200.64 719.111 200.81 719.391 201.04C719.681 201.26 719.906 201.535 720.066 201.865C720.236 202.195 720.321 202.57 720.321 202.99C720.321 203.33 720.266 203.635 720.156 203.905C720.056 204.175 719.916 204.41 719.736 204.61C719.556 204.81 719.341 204.98 719.091 205.12C718.851 205.26 718.591 205.365 718.311 205.435V205.495C718.591 205.555 718.861 205.655 719.121 205.795C719.391 205.925 719.626 206.1 719.826 206.32C720.036 206.53 720.201 206.79 720.321 207.1C720.451 207.4 720.516 207.745 720.516 208.135C720.516 208.585 720.431 209 720.261 209.38C720.091 209.75 719.851 210.07 719.541 210.34C719.231 210.6 718.856 210.805 718.416 210.955C717.976 211.105 717.491 211.18 716.961 211.18C716.511 211.18 716.111 211.13 715.761 211.03C715.411 210.93 715.101 210.795 714.831 210.625C714.561 210.455 714.321 210.265 714.111 210.055C713.911 209.845 713.731 209.625 713.571 209.395L714.516 208.675C714.646 208.885 714.786 209.075 714.936 209.245C715.096 209.415 715.271 209.56 715.461 209.68C715.651 209.8 715.866 209.895 716.106 209.965C716.346 210.025 716.626 210.055 716.946 210.055C717.686 210.055 718.246 209.89 718.626 209.56C719.006 209.22 719.196 208.74 719.196 208.12V208C719.196 207.38 719.006 206.905 718.626 206.575C718.246 206.235 717.686 206.065 716.946 206.065H715.716V204.97H716.856ZM726.9 204.97C727.61 204.97 728.14 204.81 728.49 204.49C728.85 204.16 729.03 203.74 729.03 203.23V203.125C729.03 202.575 728.855 202.165 728.505 201.895C728.165 201.615 727.715 201.475 727.155 201.475C726.615 201.475 726.175 201.595 725.835 201.835C725.495 202.065 725.215 202.38 724.995 202.78L724.065 202.06C724.195 201.85 724.35 201.645 724.53 201.445C724.72 201.235 724.94 201.05 725.19 200.89C725.44 200.73 725.73 200.6 726.06 200.5C726.39 200.4 726.765 200.35 727.185 200.35C727.625 200.35 728.04 200.41 728.43 200.53C728.82 200.64 729.155 200.81 729.435 201.04C729.725 201.26 729.95 201.535 730.11 201.865C730.28 202.195 730.365 202.57 730.365 202.99C730.365 203.33 730.31 203.635 730.2 203.905C730.1 204.175 729.96 204.41 729.78 204.61C729.6 204.81 729.385 204.98 729.135 205.12C728.895 205.26 728.635 205.365 728.355 205.435V205.495C728.635 205.555 728.905 205.655 729.165 205.795C729.435 205.925 729.67 206.1 729.87 206.32C730.08 206.53 730.245 206.79 730.365 207.1C730.495 207.4 730.56 207.745 730.56 208.135C730.56 208.585 730.475 209 730.305 209.38C730.135 209.75 729.895 210.07 729.585 210.34C729.275 210.6 728.9 210.805 728.46 210.955C728.02 211.105 727.535 211.18 727.005 211.18C726.555 211.18 726.155 211.13 725.805 211.03C725.455 210.93 725.145 210.795 724.875 210.625C724.605 210.455 724.365 210.265 724.155 210.055C723.955 209.845 723.775 209.625 723.615 209.395L724.56 208.675C724.69 208.885 724.83 209.075 724.98 209.245C725.14 209.415 725.315 209.56 725.505 209.68C725.695 209.8 725.91 209.895 726.15 209.965C726.39 210.025 726.67 210.055 726.99 210.055C727.73 210.055 728.29 209.89 728.67 209.56C729.05 209.22 729.24 208.74 729.24 208.12V208C729.24 207.38 729.05 206.905 728.67 206.575C728.29 206.235 727.73 206.065 726.99 206.065H725.76V204.97H726.9Z" fill="#111111"/>
<path d="M765.358 207.925H763.048L762.508 211H761.548L762.088 207.925H760.168V207.025H762.238L762.658 204.505H760.753V203.605H762.823L763.348 200.53H764.308L763.783 203.605H766.093L766.618 200.53H767.578L767.053 203.605H768.973V204.505H766.888L766.468 207.025H768.388V207.925H766.318L765.778 211H764.818L765.358 207.925ZM765.508 207.025L765.928 204.505H763.618L763.198 207.025H765.508ZM772.406 211V200.53H778.796V201.64H773.666V205.15H778.496V206.26H773.666V209.89H778.796V211H772.406ZM782.201 211V200.53H788.591V201.64H783.461V205.15H788.291V206.26H783.461V209.89H788.591V211H782.201ZM791.997 211V200.53H798.387V201.64H793.257V205.15H798.087V206.26H793.257V209.89H798.387V211H791.997ZM801.792 211V200.53H808.182V201.64H803.052V205.15H807.882V206.26H803.052V209.89H808.182V211H801.792ZM811.587 211V200.53H817.977V201.64H812.847V205.15H817.677V206.26H812.847V209.89H817.977V211H811.587ZM821.382 211V200.53H827.772V201.64H822.642V205.15H827.472V206.26H822.642V209.89H827.772V211H821.382Z" fill="#111111"/>
<path fill-rule="evenodd" clip-rule="evenodd" d="M308.5 186C324.24 186 337 173.24 337 157.5C337 155.803 336.852 154.142 336.568 152.527C334.971 156.546 329.428 158.306 328.037 158.306C326.733 158.306 317.173 163.139 312.556 165.556C313.642 166.898 315.815 169.744 315.815 170.389C315.815 171.194 310.111 172 308.481 172C306.852 172 301.148 171.194 300.333 170.389C299.681 169.744 302.235 167.435 303.593 166.361C301.691 165.019 296.422 161.689 290.556 159.111C287.602 157.813 283.697 156.869 280.028 156.217C280.01 156.643 280 157.07 280 157.5C280 173.24 292.76 186 308.5 186ZM280.501 152.153C283.003 138.969 294.587 129 308.5 129C319.411 129 328.889 135.131 333.679 144.136C332.284 143.311 330.74 143 329.667 143C327.222 143 321.519 145.417 323.148 150.25C324.452 154.117 328.58 153.472 330.481 152.667C330.753 151.593 331.133 149.283 330.481 148.639C329.83 147.994 328.58 148.37 328.037 148.639L328.852 150.25C328.852 151.056 328.526 152.506 327.222 151.861C325.593 151.056 323.963 147.028 326.407 146.222C328.852 145.417 333.741 145.417 333.741 148.639C333.741 151.861 332.926 155.083 327.222 155.083C322.659 155.083 312.827 151.861 308.481 150.25C309.296 148.639 310.437 145.417 308.481 145.417C306.037 145.417 306.037 148.639 306.852 149.444C307.667 150.25 300.333 154.278 294.63 153.472C294.51 153.455 294.386 153.438 294.257 153.42C291.155 152.98 285.483 152.177 280.501 152.153Z" fill="#E45171"/>
<path fill-rule="evenodd" clip-rule="evenodd" d="M405.5 186C421.24 186 434 173.24 434 157.5C434 155.803 433.852 154.142 433.568 152.527C431.971 156.546 426.428 158.306 425.037 158.306C423.733 158.306 414.173 163.139 409.556 165.556C410.642 166.898 412.815 169.744 412.815 170.389C412.815 171.194 407.111 172 405.481 172C403.852 172 398.148 171.194 397.333 170.389C396.681 169.744 399.235 167.435 400.593 166.361C398.691 165.019 393.422 161.689 387.556 159.111C384.602 157.813 380.697 156.869 377.028 156.217C377.01 156.643 377 157.07 377 157.5C377 173.24 389.76 186 405.5 186ZM377.501 152.153C380.003 138.969 391.587 129 405.5 129C416.411 129 425.889 135.131 430.679 144.136C429.284 143.311 427.74 143 426.667 143C424.222 143 418.519 145.417 420.148 150.25C421.452 154.117 425.58 153.472 427.481 152.667C427.753 151.593 428.133 149.283 427.481 148.639C426.83 147.994 425.58 148.37 425.037 148.639L425.852 150.25C425.852 151.056 425.526 152.506 424.222 151.861C422.593 151.056 420.963 147.028 423.407 146.222C425.852 145.417 430.741 145.417 430.741 148.639C430.741 151.861 429.926 155.083 424.222 155.083C419.659 155.083 409.827 151.861 405.481 150.25C406.296 148.639 407.437 145.417 405.481 145.417C403.037 145.417 403.037 148.639 403.852 149.444C404.667 150.25 397.333 154.278 391.63 153.472C391.51 153.455 391.386 153.438 391.257 153.42C388.155 152.98 382.483 152.177 377.501 152.153Z" fill="#F8A79B"/>
<path fill-rule="evenodd" clip-rule="evenodd" d="M502.5 186C518.24 186 531 173.24 531 157.5C531 155.803 530.852 154.142 530.568 152.527C528.971 156.546 523.428 158.306 522.037 158.306C520.733 158.306 511.173 163.139 506.556 165.556C507.642 166.898 509.815 169.744 509.815 170.389C509.815 171.194 504.111 172 502.481 172C500.852 172 495.148 171.194 494.333 170.389C493.681 169.744 496.235 167.435 497.593 166.361C495.691 165.019 490.422 161.689 484.556 159.111C481.602 157.813 477.697 156.869 474.028 156.217C474.01 156.643 474 157.07 474 157.5C474 173.24 486.76 186 502.5 186ZM474.501 152.153C477.003 138.969 488.587 129 502.5 129C513.411 129 522.889 135.131 527.679 144.136C526.284 143.311 524.74 143 523.667 143C521.222 143 515.519 145.417 517.148 150.25C518.452 154.117 522.58 153.472 524.481 152.667C524.753 151.593 525.133 149.283 524.481 148.639C523.83 147.994 522.58 148.37 522.037 148.639L522.852 150.25C522.852 151.056 522.526 152.506 521.222 151.861C519.593 151.056 517.963 147.028 520.407 146.222C522.852 145.417 527.741 145.417 527.741 148.639C527.741 151.861 526.926 155.083 521.222 155.083C516.659 155.083 506.827 151.861 502.481 150.25C503.296 148.639 504.437 145.417 502.481 145.417C500.037 145.417 500.037 148.639 500.852 149.444C501.667 150.25 494.333 154.278 488.63 153.472C488.51 153.455 488.386 153.438 488.257 153.42C485.155 152.98 479.483 152.177 474.501 152.153Z" fill="#F8D99B"/>
<circle cx="599.5" cy="157.5" r="33" stroke="#111111"/>
<path fill-rule="evenodd" clip-rule="evenodd" d="M599.5 186C615.24 186 628 173.24 628 157.5C628 155.803 627.852 154.142 627.568 152.527C625.971 156.546 620.428 158.306 619.037 158.306C617.733 158.306 608.173 163.139 603.556 165.556C604.642 166.898 606.815 169.744 606.815 170.389C606.815 171.194 601.111 172 599.481 172C597.852 172 592.148 171.194 591.333 170.389C590.681 169.744 593.235 167.435 594.593 166.361C592.691 165.019 587.422 161.689 581.556 159.111C578.602 157.813 574.697 156.869 571.028 156.217C571.01 156.643 571 157.07 571 157.5C571 173.24 583.76 186 599.5 186ZM571.501 152.153C574.003 138.969 585.587 129 599.5 129C610.411 129 619.889 135.131 624.679 144.136C623.284 143.31 621.74 143 620.667 143C618.222 143 612.519 145.417 614.148 150.25C615.452 154.117 619.58 153.472 621.481 152.667C621.753 151.593 622.133 149.283 621.481 148.639C620.83 147.994 619.58 148.37 619.037 148.639L619.852 150.25C619.852 151.056 619.526 152.506 618.222 151.861C616.593 151.056 614.963 147.028 617.407 146.222C619.852 145.417 624.741 145.417 624.741 148.639C624.741 151.861 623.926 155.083 618.222 155.083C613.659 155.083 603.827 151.861 599.481 150.25C600.296 148.639 601.437 145.417 599.481 145.417C597.037 145.417 597.037 148.639 597.852 149.444C598.667 150.25 591.333 154.278 585.63 153.472C585.51 153.455 585.386 153.438 585.257 153.42C582.155 152.98 576.483 152.177 571.501 152.153Z" fill="#111111"/>
<path fill-rule="evenodd" clip-rule="evenodd" d="M696.5 186C712.24 186 725 173.24 725 157.5C725 155.803 724.852 154.142 724.568 152.527C722.971 156.546 717.428 158.306 716.037 158.306C714.733 158.306 705.173 163.139 700.556 165.556C701.642 166.898 703.815 169.744 703.815 170.389C703.815 171.194 698.111 172 696.482 172C694.852 172 689.148 171.194 688.333 170.389C687.681 169.744 690.235 167.435 691.593 166.361C689.691 165.019 684.422 161.689 678.556 159.111C675.602 157.813 671.697 156.869 668.028 156.218C668.01 156.643 668 157.07 668 157.5C668 173.24 680.76 186 696.5 186ZM668.501 152.153C671.003 138.969 682.587 129 696.5 129C707.411 129 716.889 135.131 721.679 144.136C720.284 143.311 718.74 143 717.667 143C715.222 143 709.518 145.417 711.148 150.25C712.452 154.117 716.58 153.472 718.482 152.667C718.753 151.593 719.133 149.283 718.482 148.639C717.83 147.994 716.58 148.37 716.037 148.639L716.852 150.25C716.852 151.056 716.526 152.506 715.222 151.861C713.593 151.056 711.963 147.028 714.407 146.222C716.852 145.417 721.741 145.417 721.741 148.639C721.741 151.861 720.926 155.083 715.222 155.083C710.659 155.083 700.827 151.861 696.482 150.25C697.296 148.639 698.437 145.417 696.482 145.417C694.037 145.417 694.037 148.639 694.852 149.444C695.667 150.25 688.333 154.278 682.63 153.472L682.256 153.419C679.153 152.98 673.482 152.177 668.501 152.153Z" fill="#333333"/>
<path fill-rule="evenodd" clip-rule="evenodd" d="M793.5 186C809.24 186 822 173.24 822 157.5C822 155.803 821.852 154.142 821.568 152.527C819.971 156.546 814.428 158.306 813.037 158.306C811.733 158.306 802.173 163.139 797.556 165.556C798.642 166.898 800.815 169.744 800.815 170.389C800.815 171.194 795.111 172 793.481 172C791.852 172 786.148 171.194 785.333 170.389C784.681 169.744 787.235 167.435 788.593 166.361C786.691 165.019 781.422 161.689 775.556 159.111C772.602 157.813 768.697 156.869 765.028 156.217C765.01 156.643 765 157.07 765 157.5C765 173.24 777.76 186 793.5 186ZM765.501 152.153C768.003 138.969 779.587 129 793.5 129C804.411 129 813.889 135.131 818.679 144.136C817.284 143.311 815.74 143 814.667 143C812.222 143 806.519 145.417 808.148 150.25C809.452 154.117 813.58 153.472 815.481 152.667C815.753 151.593 816.133 149.283 815.481 148.639C814.83 147.994 813.58 148.37 813.037 148.639L813.852 150.25C813.852 151.056 813.526 152.506 812.222 151.861C810.593 151.056 808.963 147.028 811.407 146.222C813.852 145.417 818.741 145.417 818.741 148.639C818.741 151.861 817.926 155.083 812.222 155.083C807.659 155.083 797.827 151.861 793.481 150.25C794.296 148.639 795.437 145.417 793.481 145.417C791.037 145.417 791.037 148.639 791.852 149.444C792.667 150.25 785.333 154.278 779.63 153.472C779.51 153.455 779.386 153.438 779.257 153.42C776.155 152.98 770.483 152.177 765.501 152.153Z" fill="#EEEEEE"/>
<line y1="270.5" x2="995" y2="270.5" stroke="white"/>
</svg>
