<svg width="124" height="84" viewBox="0 0 124 84" fill="none" xmlns="http://www.w3.org/2000/svg">
<path d="M0.978693 13V12.169L4.09943 8.75284C4.46567 8.35275 4.76728 8.00497 5.00426 7.70952C5.24124 7.41098 5.41667 7.13092 5.53054 6.86932C5.64749 6.60464 5.70597 6.32765 5.70597 6.03835C5.70597 5.70597 5.62595 5.41821 5.46591 5.17507C5.30895 4.93194 5.09351 4.7442 4.8196 4.61186C4.54569 4.47952 4.23793 4.41335 3.89631 4.41335C3.53314 4.41335 3.21615 4.48875 2.94531 4.63956C2.67756 4.78729 2.46982 4.99503 2.32209 5.26278C2.17744 5.53054 2.10511 5.84446 2.10511 6.20454H1.01562C1.01562 5.65057 1.14335 5.1643 1.39879 4.74574C1.65424 4.32718 2.00201 4.00095 2.44212 3.76704C2.8853 3.53314 3.38234 3.41619 3.93324 3.41619C4.48722 3.41619 4.9781 3.53314 5.4059 3.76704C5.83369 4.00095 6.16915 4.31641 6.41229 4.71342C6.65542 5.11044 6.77699 5.55208 6.77699 6.03835C6.77699 6.38613 6.7139 6.72621 6.58771 7.05859C6.46461 7.3879 6.24917 7.75568 5.94141 8.16193C5.63672 8.5651 5.21354 9.05753 4.67188 9.6392L2.5483 11.9105V11.9844H6.94318V13H0.978693ZM9.49979 13V12.169L12.6205 8.75284C12.9868 8.35275 13.2884 8.00497 13.5254 7.70952C13.7623 7.41098 13.9378 7.13092 14.0516 6.86932C14.1686 6.60464 14.2271 6.32765 14.2271 6.03835C14.2271 5.70597 14.147 5.41821 13.987 5.17507C13.83 4.93194 13.6146 4.7442 13.3407 4.61186C13.0668 4.47952 12.759 4.41335 12.4174 4.41335C12.0542 4.41335 11.7372 4.48875 11.4664 4.63956C11.1987 4.78729 10.9909 4.99503 10.8432 5.26278C10.6985 5.53054 10.6262 5.84446 10.6262 6.20454H9.53672C9.53672 5.65057 9.66444 5.1643 9.91989 4.74574C10.1753 4.32718 10.5231 4.00095 10.9632 3.76704C11.4064 3.53314 11.9034 3.41619 12.4543 3.41619C13.0083 3.41619 13.4992 3.53314 13.927 3.76704C14.3548 4.00095 14.6902 4.31641 14.9334 4.71342C15.1765 5.11044 15.2981 5.55208 15.2981 6.03835C15.2981 6.38613 15.235 6.72621 15.1088 7.05859C14.9857 7.3879 14.7703 7.75568 14.4625 8.16193C14.1578 8.5651 13.7346 9.05753 13.193 9.6392L11.0694 11.9105V11.9844H15.4643V13H9.49979ZM18.8334 13.0739C18.6056 13.0739 18.4102 12.9923 18.2471 12.8292C18.084 12.6661 18.0024 12.4706 18.0024 12.2429C18.0024 12.0152 18.084 11.8197 18.2471 11.6566C18.4102 11.4935 18.6056 11.4119 18.8334 11.4119C19.0611 11.4119 19.2566 11.4935 19.4197 11.6566C19.5828 11.8197 19.6643 12.0152 19.6643 12.2429C19.6643 12.3937 19.6259 12.5322 19.5489 12.6584C19.4751 12.7846 19.375 12.8861 19.2489 12.9631C19.1258 13.0369 18.9873 13.0739 18.8334 13.0739ZM25.0047 13.1293C24.3091 13.1293 23.7167 12.94 23.2273 12.5614C22.738 12.1798 22.3641 11.6274 22.1055 10.9041C21.847 10.1778 21.7178 9.30066 21.7178 8.27273C21.7178 7.25095 21.847 6.37843 22.1055 5.65518C22.3671 4.92886 22.7426 4.37488 23.232 3.99325C23.7244 3.60855 24.3153 3.41619 25.0047 3.41619C25.6941 3.41619 26.2835 3.60855 26.7728 3.99325C27.2652 4.37488 27.6407 4.92886 27.8992 5.65518C28.1608 6.37843 28.2916 7.25095 28.2916 8.27273C28.2916 9.30066 28.1624 10.1778 27.9038 10.9041C27.6453 11.6274 27.2714 12.1798 26.782 12.5614C26.2927 12.94 25.7002 13.1293 25.0047 13.1293ZM25.0047 12.1136C25.6941 12.1136 26.2296 11.7812 26.6112 11.1165C26.9929 10.4517 27.1837 9.50379 27.1837 8.27273C27.1837 7.45407 27.096 6.75698 26.9205 6.18146C26.7482 5.60594 26.4989 5.16738 26.1727 4.86577C25.8495 4.56416 25.4602 4.41335 25.0047 4.41335C24.3214 4.41335 23.7875 4.75035 23.4028 5.42436C23.0181 6.09529 22.8257 7.04474 22.8257 8.27273C22.8257 9.09138 22.9119 9.78693 23.0842 10.3594C23.2566 10.9318 23.5043 11.3673 23.8275 11.6658C24.1537 11.9644 24.5461 12.1136 25.0047 12.1136ZM33.6504 13.1293C33.1088 13.1293 32.621 13.0215 32.187 12.8061C31.7531 12.5907 31.4053 12.2952 31.1437 11.9197C30.8821 11.5443 30.739 11.1165 30.7143 10.6364H31.8223C31.8654 11.0642 32.0593 11.4181 32.404 11.6982C32.7518 11.9751 33.1672 12.1136 33.6504 12.1136C34.0382 12.1136 34.3829 12.0228 34.6845 11.8413C34.9892 11.6597 35.2277 11.4104 35.4001 11.0934C35.5755 10.7733 35.6632 10.4117 35.6632 10.0085C35.6632 9.59612 35.5724 9.22834 35.3908 8.90518C35.2123 8.57895 34.9661 8.32197 34.6522 8.13423C34.3383 7.9465 33.9797 7.85109 33.5766 7.84801C33.2873 7.84493 32.9903 7.88956 32.6856 7.98189C32.3809 8.07114 32.1301 8.18655 31.9331 8.32812L30.8621 8.19886L31.4345 3.54545H36.3464V4.56108H32.3947L32.0624 7.34943H32.1178C32.3116 7.19555 32.5548 7.06783 32.8472 6.96626C33.1395 6.8647 33.4442 6.81392 33.7612 6.81392C34.3398 6.81392 34.8553 6.95241 35.3077 7.2294C35.7632 7.50331 36.1202 7.87879 36.3788 8.35582C36.6404 8.83286 36.7712 9.3776 36.7712 9.99006C36.7712 10.5933 36.6357 11.1319 36.3649 11.6058C36.0972 12.0767 35.7278 12.4491 35.257 12.723C34.7861 12.9938 34.2506 13.1293 33.6504 13.1293ZM39.7121 13.0739C39.4843 13.0739 39.2889 12.9923 39.1258 12.8292C38.9627 12.6661 38.8811 12.4706 38.8811 12.2429C38.8811 12.0152 38.9627 11.8197 39.1258 11.6566C39.2889 11.4935 39.4843 11.4119 39.7121 11.4119C39.9398 11.4119 40.1353 11.4935 40.2984 11.6566C40.4615 11.8197 40.5431 12.0152 40.5431 12.2429C40.5431 12.3937 40.5046 12.5322 40.4276 12.6584C40.3538 12.7846 40.2538 12.8861 40.1276 12.9631C40.0045 13.0369 39.866 13.0739 39.7121 13.0739ZM45.8834 13.1293C45.1879 13.1293 44.5954 12.94 44.1061 12.5614C43.6167 12.1798 43.2428 11.6274 42.9843 10.9041C42.7257 10.1778 42.5965 9.30066 42.5965 8.27273C42.5965 7.25095 42.7257 6.37843 42.9843 5.65518C43.2459 4.92886 43.6213 4.37488 44.1107 3.99325C44.6031 3.60855 45.194 3.41619 45.8834 3.41619C46.5728 3.41619 47.1622 3.60855 47.6515 3.99325C48.1439 4.37488 48.5194 4.92886 48.7779 5.65518C49.0395 6.37843 49.1703 7.25095 49.1703 8.27273C49.1703 9.30066 49.0411 10.1778 48.7825 10.9041C48.524 11.6274 48.1501 12.1798 47.6607 12.5614C47.1714 12.94 46.5789 13.1293 45.8834 13.1293ZM45.8834 12.1136C46.5728 12.1136 47.1083 11.7812 47.4899 11.1165C47.8716 10.4517 48.0624 9.50379 48.0624 8.27273C48.0624 7.45407 47.9747 6.75698 47.7992 6.18146C47.6269 5.60594 47.3776 5.16738 47.0514 4.86577C46.7282 4.56416 46.3389 4.41335 45.8834 4.41335C45.2002 4.41335 44.6662 4.75035 44.2815 5.42436C43.8968 6.09529 43.7044 7.04474 43.7044 8.27273C43.7044 9.09138 43.7906 9.78693 43.9629 10.3594C44.1353 10.9318 44.383 11.3673 44.7062 11.6658C45.0324 11.9644 45.4248 12.1136 45.8834 12.1136ZM54.8985 3.54545V13H53.7536V4.74574H53.6982L51.3899 6.27841V5.11506L53.7536 3.54545H54.8985ZM58.5215 13.0739C58.2937 13.0739 58.0983 12.9923 57.9352 12.8292C57.7721 12.6661 57.6905 12.4706 57.6905 12.2429C57.6905 12.0152 57.7721 11.8197 57.9352 11.6566C58.0983 11.4935 58.2937 11.4119 58.5215 11.4119C58.7492 11.4119 58.9446 11.4935 59.1078 11.6566C59.2709 11.8197 59.3524 12.0152 59.3524 12.2429C59.3524 12.3937 59.314 12.5322 59.237 12.6584C59.1632 12.7846 59.0631 12.8861 58.937 12.9631C58.8138 13.0369 58.6754 13.0739 58.5215 13.0739ZM5.05966 24.4389V25.4545H0.923295V24.4389H5.05966ZM7.16385 29V28.169L10.2846 24.7528C10.6508 24.3527 10.9524 24.005 11.1894 23.7095C11.4264 23.411 11.6018 23.1309 11.7157 22.8693C11.8326 22.6046 11.8911 22.3277 11.8911 22.0384C11.8911 21.706 11.8111 21.4182 11.6511 21.1751C11.4941 20.9319 11.2787 20.7442 11.0048 20.6119C10.7308 20.4795 10.4231 20.4134 10.0815 20.4134C9.7183 20.4134 9.4013 20.4888 9.13047 20.6396C8.86271 20.7873 8.65497 20.995 8.50724 21.2628C8.36259 21.5305 8.29027 21.8445 8.29027 22.2045H7.20078C7.20078 21.6506 7.3285 21.1643 7.58395 20.7457C7.83939 20.3272 8.18717 20.0009 8.62727 19.767C9.07045 19.5331 9.5675 19.4162 10.1184 19.4162C10.6724 19.4162 11.1633 19.5331 11.5911 19.767C12.0188 20.0009 12.3543 20.3164 12.5974 20.7134C12.8406 21.1104 12.9621 21.5521 12.9621 22.0384C12.9621 22.3861 12.8991 22.7262 12.7729 23.0586C12.6498 23.3879 12.4343 23.7557 12.1266 24.1619C11.8219 24.5651 11.3987 25.0575 10.857 25.6392L8.73345 27.9105V27.9844H13.1283V29H7.16385ZM15.6849 29V28.169L18.8057 24.7528C19.1719 24.3527 19.4735 24.005 19.7105 23.7095C19.9475 23.411 20.1229 23.1309 20.2368 22.8693C20.3537 22.6046 20.4122 22.3277 20.4122 22.0384C20.4122 21.706 20.3322 21.4182 20.1722 21.1751C20.0152 20.9319 19.7998 20.7442 19.5259 20.6119C19.2519 20.4795 18.9442 20.4134 18.6026 20.4134C18.2394 20.4134 17.9224 20.4888 17.6516 20.6396C17.3838 20.7873 17.1761 20.995 17.0283 21.2628C16.8837 21.5305 16.8114 21.8445 16.8114 22.2045H15.7219C15.7219 21.6506 15.8496 21.1643 16.105 20.7457C16.3605 20.3272 16.7083 20.0009 17.1484 19.767C17.5915 19.5331 18.0886 19.4162 18.6395 19.4162C19.1935 19.4162 19.6844 19.5331 20.1121 19.767C20.5399 20.0009 20.8754 20.3164 21.1185 20.7134C21.3617 21.1104 21.4832 21.5521 21.4832 22.0384C21.4832 22.3861 21.4201 22.7262 21.294 23.0586C21.1709 23.3879 20.9554 23.7557 20.6477 24.1619C20.343 24.5651 19.9198 25.0575 19.3781 25.6392L17.2545 27.9105V27.9844H21.6494V29H15.6849ZM25.0185 29.0739C24.7908 29.0739 24.5954 28.9923 24.4322 28.8292C24.2691 28.6661 24.1876 28.4706 24.1876 28.2429C24.1876 28.0152 24.2691 27.8197 24.4322 27.6566C24.5954 27.4935 24.7908 27.4119 25.0185 27.4119C25.2463 27.4119 25.4417 27.4935 25.6048 27.6566C25.7679 27.8197 25.8495 28.0152 25.8495 28.2429C25.8495 28.3937 25.811 28.5322 25.7341 28.6584C25.6602 28.7846 25.5602 28.8861 25.434 28.9631C25.3109 29.0369 25.1724 29.0739 25.0185 29.0739ZM31.1898 29.1293C30.4943 29.1293 29.9018 28.94 29.4125 28.5614C28.9232 28.1798 28.5492 27.6274 28.2907 26.9041C28.0322 26.1778 27.9029 25.3007 27.9029 24.2727C27.9029 23.2509 28.0322 22.3784 28.2907 21.6552C28.5523 20.9289 28.9278 20.3749 29.4171 19.9933C29.9095 19.6085 30.5005 19.4162 31.1898 19.4162C31.8792 19.4162 32.4686 19.6085 32.958 19.9933C33.4504 20.3749 33.8259 20.9289 34.0844 21.6552C34.346 22.3784 34.4768 23.2509 34.4768 24.2727C34.4768 25.3007 34.3475 26.1778 34.089 26.9041C33.8305 27.6274 33.4565 28.1798 32.9672 28.5614C32.4778 28.94 31.8854 29.1293 31.1898 29.1293ZM31.1898 28.1136C31.8792 28.1136 32.4147 27.7812 32.7964 27.1165C33.178 26.4517 33.3688 25.5038 33.3688 24.2727C33.3688 23.4541 33.2811 22.757 33.1057 22.1815C32.9333 21.6059 32.684 21.1674 32.3578 20.8658C32.0347 20.5642 31.6453 20.4134 31.1898 20.4134C30.5066 20.4134 29.9726 20.7504 29.5879 21.4244C29.2032 22.0953 29.0109 23.0447 29.0109 24.2727C29.0109 25.0914 29.097 25.7869 29.2694 26.3594C29.4417 26.9318 29.6895 27.3673 30.0126 27.6658C30.3389 27.9644 30.7313 28.1136 31.1898 28.1136ZM39.8356 29.1293C39.2939 29.1293 38.8061 29.0215 38.3722 28.8061C37.9382 28.5907 37.5904 28.2952 37.3288 27.9197C37.0672 27.5443 36.9241 27.1165 36.8995 26.6364H38.0075C38.0505 27.0642 38.2444 27.4181 38.5891 27.6982C38.9369 27.9751 39.3524 28.1136 39.8356 28.1136C40.2234 28.1136 40.5681 28.0228 40.8697 27.8413C41.1744 27.6597 41.4129 27.4104 41.5852 27.0934C41.7607 26.7733 41.8484 26.4117 41.8484 26.0085C41.8484 25.5961 41.7576 25.2283 41.576 24.9052C41.3975 24.579 41.1513 24.322 40.8374 24.1342C40.5234 23.9465 40.1649 23.8511 39.7617 23.848C39.4724 23.8449 39.1754 23.8896 38.8707 23.9819C38.5661 24.0711 38.3152 24.1866 38.1183 24.3281L37.0472 24.1989L37.6197 19.5455H42.5316V20.5611H38.5799L38.2475 23.3494H38.3029C38.4968 23.1955 38.7399 23.0678 39.0323 22.9663C39.3247 22.8647 39.6294 22.8139 39.9464 22.8139C40.525 22.8139 41.0405 22.9524 41.4929 23.2294C41.9484 23.5033 42.3054 23.8788 42.5639 24.3558C42.8255 24.8329 42.9563 25.3776 42.9563 25.9901C42.9563 26.5933 42.8209 27.1319 42.5501 27.6058C42.2823 28.0767 41.913 28.4491 41.4421 28.723C40.9712 28.9938 40.4357 29.1293 39.8356 29.1293ZM45.8972 29.0739C45.6695 29.0739 45.4741 28.9923 45.311 28.8292C45.1478 28.6661 45.0663 28.4706 45.0663 28.2429C45.0663 28.0152 45.1478 27.8197 45.311 27.6566C45.4741 27.4935 45.6695 27.4119 45.8972 27.4119C46.125 27.4119 46.3204 27.4935 46.4835 27.6566C46.6467 27.8197 46.7282 28.0152 46.7282 28.2429C46.7282 28.3937 46.6897 28.5322 46.6128 28.6584C46.5389 28.7846 46.4389 28.8861 46.3127 28.9631C46.1896 29.0369 46.0511 29.0739 45.8972 29.0739ZM52.0686 29.1293C51.373 29.1293 50.7806 28.94 50.2912 28.5614C49.8019 28.1798 49.4279 27.6274 49.1694 26.9041C48.9109 26.1778 48.7816 25.3007 48.7816 24.2727C48.7816 23.2509 48.9109 22.3784 49.1694 21.6552C49.431 20.9289 49.8065 20.3749 50.2958 19.9933C50.7883 19.6085 51.3792 19.4162 52.0686 19.4162C52.7579 19.4162 53.3473 19.6085 53.8367 19.9933C54.3291 20.3749 54.7046 20.9289 54.9631 21.6552C55.2247 22.3784 55.3555 23.2509 55.3555 24.2727C55.3555 25.3007 55.2262 26.1778 54.9677 26.9041C54.7092 27.6274 54.3352 28.1798 53.8459 28.5614C53.3566 28.94 52.7641 29.1293 52.0686 29.1293ZM52.0686 28.1136C52.7579 28.1136 53.2935 27.7812 53.6751 27.1165C54.0567 26.4517 54.2475 25.5038 54.2475 24.2727C54.2475 23.4541 54.1598 22.757 53.9844 22.1815C53.812 21.6059 53.5628 21.1674 53.2365 20.8658C52.9134 20.5642 52.524 20.4134 52.0686 20.4134C51.3853 20.4134 50.8513 20.7504 50.4666 21.4244C50.0819 22.0953 49.8896 23.0447 49.8896 24.2727C49.8896 25.0914 49.9758 25.7869 50.1481 26.3594C50.3204 26.9318 50.5682 27.3673 50.8914 27.6658C51.2176 27.9644 51.61 28.1136 52.0686 28.1136ZM60.7697 19.4162C61.1575 19.4193 61.5453 19.4931 61.933 19.6378C62.3208 19.7824 62.6748 20.0225 62.9948 20.358C63.3149 20.6903 63.5719 21.1443 63.7658 21.7198C63.9597 22.2953 64.0566 23.017 64.0566 23.8849C64.0566 24.7251 63.9766 25.4715 63.8166 26.1239C63.6596 26.7733 63.4319 27.3211 63.1333 27.7674C62.8379 28.2137 62.4778 28.5522 62.0531 28.783C61.6314 29.0138 61.1544 29.1293 60.622 29.1293C60.0926 29.1293 59.6202 29.0246 59.2047 28.8153C58.7923 28.603 58.4538 28.3091 58.1891 27.9336C57.9275 27.555 57.7597 27.1165 57.6859 26.6179H58.8123C58.9139 27.0518 59.1155 27.4104 59.4171 27.6935C59.7218 27.9736 60.1234 28.1136 60.622 28.1136C61.3514 28.1136 61.9269 27.7951 62.3485 27.158C62.7732 26.521 62.9856 25.6207 62.9856 24.4574H62.9117C62.7394 24.7159 62.5347 24.939 62.2977 25.1268C62.0608 25.3145 61.7976 25.4592 61.5083 25.5607C61.219 25.6623 60.9113 25.7131 60.585 25.7131C60.0434 25.7131 59.5463 25.5792 59.0939 25.3114C58.6446 25.0406 58.2845 24.6697 58.0137 24.1989C57.7459 23.7249 57.612 23.1832 57.612 22.5739C57.612 21.9953 57.7413 21.4659 57.9998 20.9858C58.2614 20.5026 58.6276 20.1179 59.0985 19.8317C59.5725 19.5455 60.1295 19.407 60.7697 19.4162ZM60.7697 20.4318C60.3819 20.4318 60.0326 20.5288 59.7218 20.7227C59.414 20.9135 59.1693 21.172 58.9877 21.4982C58.8092 21.8214 58.72 22.1799 58.72 22.5739C58.72 22.9678 58.8062 23.3263 58.9785 23.6495C59.1539 23.9696 59.3924 24.225 59.6941 24.4158C59.9987 24.6036 60.345 24.6974 60.7328 24.6974C61.0251 24.6974 61.2975 24.6405 61.5499 24.5266C61.8022 24.4097 62.0223 24.2512 62.21 24.0511C62.4008 23.848 62.5501 23.6187 62.6578 23.3633C62.7655 23.1048 62.8194 22.8355 62.8194 22.5554C62.8194 22.1861 62.7302 21.8398 62.5517 21.5167C62.3762 21.1935 62.1331 20.9319 61.8222 20.7319C61.5145 20.5318 61.1636 20.4318 60.7697 20.4318ZM67.0045 29.0739C66.7767 29.0739 66.5813 28.9923 66.4182 28.8292C66.2551 28.6661 66.1735 28.4706 66.1735 28.2429C66.1735 28.0152 66.2551 27.8197 66.4182 27.6566C66.5813 27.4935 66.7767 27.4119 67.0045 27.4119C67.2322 27.4119 67.4277 27.4935 67.5908 27.6566C67.7539 27.8197 67.8354 28.0152 67.8354 28.2429C67.8354 28.3937 67.797 28.5322 67.72 28.6584C67.6462 28.7846 67.5461 28.8861 67.42 28.9631C67.2968 29.0369 67.1584 29.0739 67.0045 29.0739Z" fill="white"/>
<path d="M7.995 55H1.125V53.71L4.545 50.56C5.035 50.11 5.445 49.635 5.775 49.135C6.105 48.625 6.27 48.115 6.27 47.605V47.425C6.27 46.845 6.11 46.375 5.79 46.015C5.47 45.655 4.985 45.475 4.335 45.475C4.015 45.475 3.735 45.52 3.495 45.61C3.255 45.7 3.045 45.825 2.865 45.985C2.695 46.145 2.55 46.335 2.43 46.555C2.32 46.765 2.23 46.995 2.16 47.245L1.035 46.81C1.135 46.5 1.27 46.2 1.44 45.91C1.62 45.61 1.84 45.345 2.1 45.115C2.37 44.885 2.69 44.7 3.06 44.56C3.44 44.42 3.885 44.35 4.395 44.35C4.905 44.35 5.36 44.425 5.76 44.575C6.16 44.725 6.495 44.935 6.765 45.205C7.035 45.475 7.24 45.795 7.38 46.165C7.53 46.535 7.605 46.945 7.605 47.395C7.605 47.805 7.545 48.185 7.425 48.535C7.315 48.885 7.16 49.22 6.96 49.54C6.76 49.85 6.515 50.155 6.225 50.455C5.945 50.755 5.64 51.055 5.31 51.355L2.49 53.89H7.995V55ZM23.2441 49.555H21.0841V56.515H19.9441V43.495H21.0841V48.595H23.2441V49.555ZM16.5391 45.055H12.5191V44.11H16.5391V45.055ZM15.1441 49.99C15.2641 49.99 15.3891 50.045 15.5191 50.155L18.4291 52.96L17.5891 53.695L14.6341 50.74C14.5741 50.68 14.5091 50.65 14.4391 50.65C14.3691 50.65 14.3091 50.68 14.2591 50.74C13.9891 51.19 13.6341 51.66 13.1941 52.15C12.7541 52.63 12.1691 53.205 11.4391 53.875L10.6141 53.17C11.4841 52.42 12.1541 51.77 12.6241 51.22C13.0941 50.66 13.4291 50.105 13.6291 49.555C13.8391 48.995 13.9441 48.36 13.9441 47.65V47.575H11.0041V46.63H18.0541V47.575H15.0691V47.68C15.0691 48.67 14.8891 49.525 14.5291 50.245L14.6041 50.29L14.8291 50.11C14.9391 50.03 15.0441 49.99 15.1441 49.99ZM40.8081 43.465V56.485H39.6831V49.135H37.2681V48.175H39.6831V43.465H40.8081ZM37.2981 45.475H30.0381V44.53H37.2981V45.475ZM37.8681 51.775L37.9881 52.675C36.9781 52.835 35.7531 52.955 34.3131 53.035C32.8731 53.115 31.3681 53.155 29.7981 53.155L29.6931 52.21L31.6731 52.195L31.2081 46.72L32.3331 46.615L32.6931 52.18L34.4931 52.09L34.9581 46.6L36.0681 46.705L35.5281 52.03C36.3981 51.97 37.1781 51.885 37.8681 51.775ZM46.9971 43.57V45.04H53.3721V43.57H54.4821V48.25H45.8721V43.57H46.9971ZM53.3721 45.91H46.9971V47.38H53.3721V45.91ZM56.2971 49.45V50.395H44.0571V49.45H56.2971ZM45.9621 56.335V53.905H53.3571V52.525H45.8721V51.61H54.4521V54.775H47.0421V56.17H54.8421V57.1H46.7121C46.4721 57.1 46.2871 57.035 46.1571 56.905C46.0271 56.775 45.9621 56.585 45.9621 56.335ZM69.6411 43.465V56.485H68.5011V43.465H69.6411ZM66.7911 51.925L66.9411 52.84C65.3911 53.14 63.4211 53.29 61.0311 53.29H59.4111V48.265H64.1361V45.415H59.3511V44.455H65.2761V49.21H60.5361V52.36H61.0161C63.2861 52.36 65.2111 52.215 66.7911 51.925ZM84.1402 51.22H82.9852V43.465H84.1402V51.22ZM76.9552 47.755C76.8852 47.755 76.8202 47.79 76.7602 47.86C76.5002 48.28 76.1602 48.715 75.7402 49.165C75.3202 49.605 74.7402 50.165 74.0002 50.845L73.1452 50.11C74.0052 49.36 74.6652 48.72 75.1252 48.19C75.5852 47.65 75.9152 47.12 76.1152 46.6C76.3252 46.07 76.4302 45.47 76.4302 44.8V43.975H77.5852V44.86C77.5852 45.81 77.4102 46.64 77.0602 47.35L77.1202 47.395L77.3752 47.185C77.4852 47.095 77.5902 47.05 77.6902 47.05C77.8102 47.05 77.9152 47.1 78.0052 47.2L80.9002 49.825L80.0752 50.62L77.1652 47.845C77.1052 47.785 77.0352 47.755 76.9552 47.755ZM84.2152 54.34C84.2152 54.89 84.0552 55.38 83.7352 55.81C83.4252 56.25 82.9552 56.595 82.3252 56.845C81.6952 57.095 80.9252 57.22 80.0152 57.22C79.1052 57.22 78.3302 57.095 77.6902 56.845C77.0602 56.595 76.5852 56.25 76.2652 55.81C75.9552 55.38 75.8002 54.89 75.8002 54.34C75.8002 53.79 75.9552 53.3 76.2652 52.87C76.5852 52.43 77.0602 52.085 77.6902 51.835C78.3302 51.585 79.1052 51.46 80.0152 51.46C80.9252 51.46 81.6952 51.585 82.3252 51.835C82.9552 52.085 83.4252 52.43 83.7352 52.87C84.0552 53.3 84.2152 53.79 84.2152 54.34ZM83.0002 54.22C83.0002 53.7 82.7502 53.265 82.2502 52.915C81.7602 52.565 81.0152 52.39 80.0152 52.39C79.0152 52.39 78.2652 52.57 77.7652 52.93C77.2652 53.28 77.0152 53.71 77.0152 54.22V54.475C77.0152 54.985 77.2652 55.415 77.7652 55.765C78.2652 56.125 79.0152 56.305 80.0152 56.305C81.0152 56.305 81.7602 56.125 82.2502 55.765C82.7502 55.415 83.0002 54.985 83.0002 54.475V54.22ZM11.805 73.905H10.65V66.465H11.805V73.905ZM7.59 72.72H1.335V67.005H7.59V72.72ZM6.45 67.935H2.49V71.79H6.45V67.935ZM5.505 73.845H9.645V74.745H5.505V73.845ZM12.435 79.425L11.925 80.25L7.875 78.585C7.745 78.535 7.62 78.51 7.5 78.51C7.36 78.51 7.23 78.54 7.11 78.6L7.08 78.615C6.72 78.875 6.22 79.135 5.58 79.395C4.95 79.665 4.13 79.96 3.12 80.28L2.625 79.47C3.755 79.14 4.63 78.84 5.25 78.57C5.88 78.3 6.325 78.03 6.585 77.76C6.855 77.48 7.005 77.165 7.035 76.815H2.985V75.915H12.045V76.815H8.13C8.12 77.095 8.07 77.35 7.98 77.58C7.89 77.81 7.745 78.025 7.545 78.225L7.635 78.24L7.89 78.06C8.06 77.94 8.195 77.88 8.295 77.88C8.335 77.88 8.425 77.9 8.565 77.94L12.435 79.425ZM32.2339 70.41V71.37H30.1489V76.35H29.0089V66.465H30.1489V70.41H32.2339ZM26.1289 73.875H20.0389V67.245H21.1339V69.585H25.0189V67.215H26.1289V73.875ZM25.0189 70.515H21.1339V72.945H25.0189V70.515ZM23.1139 78.825H30.4489V79.77H22.7239C22.4839 79.77 22.2989 79.705 22.1689 79.575C22.0389 79.445 21.9739 79.255 21.9739 79.005V75.45H23.1139V78.825ZM35.618 69.135C35.618 68.355 35.998 67.725 36.758 67.245C37.518 66.755 38.643 66.51 40.133 66.51C41.623 66.51 42.748 66.755 43.508 67.245C44.268 67.725 44.648 68.355 44.648 69.135C44.648 69.925 44.268 70.565 43.508 71.055C42.758 71.535 41.633 71.775 40.133 71.775C38.633 71.775 37.503 71.535 36.743 71.055C35.993 70.565 35.618 69.925 35.618 69.135ZM43.433 69.24V69.03C43.433 68.56 43.158 68.17 42.608 67.86C42.058 67.55 41.233 67.395 40.133 67.395C39.033 67.395 38.208 67.55 37.658 67.86C37.108 68.17 36.833 68.56 36.833 69.03V69.24C36.833 69.71 37.108 70.1 37.658 70.41C38.208 70.72 39.033 70.875 40.133 70.875C41.233 70.875 42.058 70.72 42.608 70.41C43.158 70.1 43.433 69.71 43.433 69.24ZM34.013 72.915H46.253V73.89H34.013V72.915ZM35.693 77.67C35.693 77.17 35.858 76.725 36.188 76.335C36.528 75.945 37.028 75.64 37.688 75.42C38.358 75.2 39.173 75.09 40.133 75.09C41.093 75.09 41.903 75.2 42.563 75.42C43.233 75.64 43.733 75.945 44.063 76.335C44.403 76.725 44.573 77.17 44.573 77.67C44.573 78.46 44.193 79.095 43.433 79.575C42.673 80.055 41.573 80.295 40.133 80.295C38.693 80.295 37.593 80.055 36.833 79.575C36.073 79.095 35.693 78.46 35.693 77.67ZM43.373 77.79V77.58C43.373 77.13 43.103 76.755 42.563 76.455C42.033 76.145 41.223 75.99 40.133 75.99C39.053 75.99 38.238 76.145 37.688 76.455C37.148 76.755 36.878 77.13 36.878 77.58V77.79C36.878 78.24 37.148 78.615 37.688 78.915C38.238 79.225 39.053 79.38 40.133 79.38C41.223 79.38 42.033 79.225 42.563 78.915C43.103 78.615 43.373 78.24 43.373 77.79ZM58.517 72.855H56.522V71.925H58.517V70.245H56.522V69.33H58.517V66.465H59.657V74.895H58.517V72.855ZM54.497 67.725H50.477V66.78H54.497V67.725ZM52.382 74.385C51.772 74.385 51.237 74.29 50.777 74.1C50.317 73.91 49.962 73.645 49.712 73.305C49.462 72.965 49.337 72.58 49.337 72.15C49.337 71.72 49.442 71.35 49.652 71.04C49.862 70.72 50.177 70.47 50.597 70.29V70.2H48.527V69.285H56.042V70.2H54.182V70.29C54.602 70.47 54.917 70.72 55.127 71.04C55.337 71.35 55.442 71.72 55.442 72.15C55.442 72.58 55.317 72.965 55.067 73.305C54.817 73.645 54.457 73.91 53.987 74.1C53.527 74.29 52.992 74.385 52.382 74.385ZM52.247 73.44H52.532C53.072 73.44 53.517 73.305 53.867 73.035C54.217 72.755 54.392 72.37 54.392 71.88C54.392 71.38 54.217 70.995 53.867 70.725C53.527 70.445 53.082 70.305 52.532 70.305H52.247C51.697 70.305 51.247 70.445 50.897 70.725C50.557 70.995 50.387 71.38 50.387 71.88C50.387 72.37 50.562 72.755 50.912 73.035C51.262 73.305 51.707 73.44 52.247 73.44ZM59.747 77.7C59.747 78.47 59.382 79.09 58.652 79.56C57.932 80.03 56.892 80.265 55.532 80.265C54.162 80.265 53.112 80.03 52.382 79.56C51.662 79.09 51.302 78.47 51.302 77.7C51.302 77.21 51.457 76.775 51.767 76.395C52.087 76.015 52.562 75.715 53.192 75.495C53.832 75.275 54.612 75.165 55.532 75.165C56.442 75.165 57.212 75.275 57.842 75.495C58.482 75.715 58.957 76.015 59.267 76.395C59.587 76.775 59.747 77.21 59.747 77.7ZM58.532 77.61C58.532 77.18 58.282 76.82 57.782 76.53C57.282 76.23 56.532 76.08 55.532 76.08C54.522 76.08 53.762 76.23 53.252 76.53C52.752 76.82 52.502 77.18 52.502 77.61V77.82C52.502 78.25 52.752 78.61 53.252 78.9C53.762 79.2 54.522 79.35 55.532 79.35C56.532 79.35 57.282 79.2 57.782 78.9C58.282 78.61 58.532 78.25 58.532 77.82V77.61ZM68.2059 78V76.89H71.1309V68.46H71.0259L68.3859 70.92L67.6509 70.125L70.4259 67.53H72.3909V76.89H75.0909V78H68.2059ZM90.1301 72.555H87.9701V79.515H86.8301V66.495H87.9701V71.595H90.1301V72.555ZM83.4251 68.055H79.4051V67.11H83.4251V68.055ZM82.0301 72.99C82.1501 72.99 82.2751 73.045 82.4051 73.155L85.3151 75.96L84.4751 76.695L81.5201 73.74C81.4601 73.68 81.3951 73.65 81.3251 73.65C81.2551 73.65 81.1951 73.68 81.1451 73.74C80.8751 74.19 80.5201 74.66 80.0801 75.15C79.6401 75.63 79.0551 76.205 78.3251 76.875L77.5001 76.17C78.3701 75.42 79.0401 74.77 79.5101 74.22C79.9801 73.66 80.3151 73.105 80.5151 72.555C80.7251 71.995 80.8301 71.36 80.8301 70.65V70.575H77.8901V69.63H84.9401V70.575H81.9551V70.68C81.9551 71.67 81.7751 72.525 81.4151 73.245L81.4901 73.29L81.7151 73.11C81.8251 73.03 81.9301 72.99 82.0301 72.99ZM109.164 70.815H107.079V74.355H105.939V66.465H107.079V69.855H109.164V70.815ZM97.419 73.995L96.579 73.275C97.419 72.595 98.069 72.01 98.529 71.52C98.989 71.03 99.319 70.545 99.519 70.065C99.729 69.575 99.834 69.03 99.834 68.43V68.28H96.969V67.32H103.824V68.28H100.974V68.475C100.974 69.305 100.799 70.06 100.449 70.74L100.539 70.785L100.764 70.62C100.874 70.53 100.984 70.485 101.094 70.485C101.204 70.485 101.319 70.535 101.439 70.635L104.244 73.02L103.404 73.77L100.554 71.265C100.494 71.205 100.424 71.175 100.344 71.175C100.264 71.175 100.194 71.205 100.134 71.265C99.874 71.655 99.534 72.055 99.114 72.465C98.694 72.875 98.129 73.385 97.419 73.995ZM98.634 75.165H107.079V80.145H105.954V76.125H98.634V75.165ZM122.178 66.465V73.695H121.038V70.53H118.143C118.043 71.38 117.683 72.055 117.063 72.555C116.443 73.045 115.673 73.29 114.753 73.29C114.093 73.29 113.503 73.16 112.983 72.9C112.473 72.64 112.073 72.27 111.783 71.79C111.493 71.3 111.348 70.73 111.348 70.08C111.348 69.43 111.493 68.865 111.783 68.385C112.073 67.895 112.473 67.52 112.983 67.26C113.503 67 114.093 66.87 114.753 66.87C115.673 66.87 116.438 67.115 117.048 67.605C117.668 68.085 118.033 68.745 118.143 69.585H121.038V66.465H122.178ZM116.973 69.825C116.973 69.215 116.768 68.725 116.358 68.355C115.948 67.985 115.413 67.8 114.753 67.8C114.093 67.8 113.558 67.985 113.148 68.355C112.748 68.725 112.548 69.215 112.548 69.825V70.32C112.548 70.94 112.748 71.435 113.148 71.805C113.558 72.175 114.093 72.36 114.753 72.36C115.413 72.36 115.948 72.175 116.358 71.805C116.768 71.435 116.973 70.94 116.973 70.32V69.825ZM121.038 74.535H122.178V80.025H114.693C114.453 80.025 114.268 79.96 114.138 79.83C114.008 79.7 113.943 79.51 113.943 79.26V74.535H115.053V76.26H121.038V74.535ZM121.038 77.235H115.053V79.05H121.038V77.235Z" fill="white"/>
</svg>
