<svg width="238" height="40" viewBox="0 0 238 40" fill="none" xmlns="http://www.w3.org/2000/svg">
<path d="M22.166 4.003V15.287H21.178V4.003H22.166ZM16.732 8.774C16.8533 8.774 16.953 8.82167 17.031 8.917L19.579 11.907L18.838 12.544L16.264 9.45C16.2207 9.398 16.1687 9.372 16.108 9.372C16.056 9.372 16.0083 9.398 15.965 9.45C15.731 9.92667 15.4233 10.412 15.042 10.906C14.6607 11.4 14.1407 12.0067 13.482 12.726L12.741 12.102C13.495 11.3133 14.0757 10.6287 14.483 10.048C14.899 9.46733 15.198 8.891 15.38 8.319C15.562 7.73833 15.653 7.07967 15.653 6.343V5.849H13.092V5.017H19.189V5.849H16.641V6.382C16.641 7.36133 16.4893 8.23233 16.186 8.995L16.251 9.034L16.446 8.878C16.5413 8.80867 16.6367 8.774 16.732 8.774ZM35.3428 13.168V14H24.7348V13.168H29.5448V10.165H26.2688V4.77H33.8478V5.615H27.2568V9.32H33.9648V10.165H30.5328V13.168H35.3428ZM45.6856 4.003H46.6606V15.287H45.6856V4.003ZM37.5736 7.383C37.5736 6.84567 37.708 6.37333 37.9766 5.966C38.2453 5.55 38.6136 5.23367 39.0816 5.017C39.5496 4.79167 40.0783 4.679 40.6676 4.679C41.257 4.679 41.7856 4.79167 42.2536 5.017C42.7216 5.23367 43.09 5.55 43.3586 5.966C43.6273 6.37333 43.7616 6.84567 43.7616 7.383C43.7616 7.92033 43.6273 8.39267 43.3586 8.8C43.09 9.20733 42.7216 9.52367 42.2536 9.749C41.7856 9.96567 41.257 10.074 40.6676 10.074C40.0783 10.074 39.5496 9.96567 39.0816 9.749C38.6136 9.52367 38.2453 9.20733 37.9766 8.8C37.708 8.39267 37.5736 7.92033 37.5736 7.383ZM42.7216 7.539V7.227C42.7216 6.707 42.531 6.28667 42.1496 5.966C41.7683 5.64533 41.2743 5.485 40.6676 5.485C40.061 5.485 39.567 5.64533 39.1856 5.966C38.8043 6.28667 38.6136 6.707 38.6136 7.227V7.539C38.6136 8.059 38.8043 8.47933 39.1856 8.8C39.567 9.12067 40.061 9.281 40.6676 9.281C41.2743 9.281 41.7683 9.12067 42.1496 8.8C42.531 8.47933 42.7216 8.059 42.7216 7.539ZM37.0276 12.076C38.501 12.076 39.9223 12.0413 41.2916 11.972C42.661 11.9027 43.8223 11.7943 44.7756 11.647L44.8796 12.44C43.9003 12.596 42.7216 12.7173 41.3436 12.804C39.9743 12.882 38.566 12.921 37.1186 12.921L37.0276 12.076ZM66.2042 5.537H57.8972V4.705H66.2042V5.537ZM67.3612 13.168V14H56.7532V13.168H61.5632V10.438H57.7932V9.619H59.8602L59.4182 6.629L60.4192 6.525L60.7702 9.619H63.3312L63.6822 6.525L64.6962 6.629L64.2542 9.619H66.3212V10.438H62.5512V13.168H67.3612ZM78.731 4.003V12.57H77.73V4.003H78.731ZM69.371 7.513C69.371 6.90633 69.4967 6.37767 69.748 5.927C70.008 5.47633 70.3633 5.134 70.814 4.9C71.2647 4.65733 71.7803 4.536 72.361 4.536C72.933 4.536 73.4443 4.65733 73.895 4.9C74.3543 5.134 74.7097 5.47633 74.961 5.927C75.221 6.37767 75.351 6.90633 75.351 7.513C75.351 8.111 75.221 8.63533 74.961 9.086C74.7097 9.53667 74.3543 9.88333 73.895 10.126C73.4443 10.36 72.933 10.477 72.361 10.477C71.7803 10.477 71.2647 10.36 70.814 10.126C70.3633 9.88333 70.008 9.541 69.748 9.099C69.4967 8.64833 69.371 8.11967 69.371 7.513ZM74.298 7.786V7.24C74.298 6.668 74.116 6.213 73.752 5.875C73.3967 5.52833 72.933 5.355 72.361 5.355C71.7803 5.355 71.308 5.52833 70.944 5.875C70.5887 6.22167 70.411 6.67667 70.411 7.24V7.786C70.411 8.34933 70.593 8.80433 70.957 9.151C71.321 9.489 71.789 9.658 72.361 9.658C72.933 9.658 73.3967 9.489 73.752 9.151C74.116 8.80433 74.298 8.34933 74.298 7.786ZM71.503 14.871V11.634H72.504V14.715H78.965V15.534H72.153C71.945 15.534 71.7847 15.4777 71.672 15.365C71.5593 15.2523 71.503 15.0877 71.503 14.871ZM82.7558 4.705H90.3738V5.537H83.7438V7.448H90.1918V8.241H83.7568V10.152H90.5948V10.984H82.7558V4.705ZM81.2348 13.155H91.8428V14H81.2348V13.155ZM101.419 6.031V4.913H95.0746V4.185H102.368V6.746H96.1016V7.851H102.693V8.592H95.1396V6.031H101.419ZM104.084 9.567V10.334H93.4756V9.567H104.084ZM95.1006 15.196V13.233H101.575V12.141H95.0226V11.374H102.498V13.961H96.0236V15.079H102.836V15.859H95.7506C95.5426 15.859 95.3823 15.8027 95.2696 15.69C95.157 15.5773 95.1006 15.4127 95.1006 15.196ZM123.861 8.826V9.658H113.253V8.826H120.975C121.097 8.28867 121.188 7.74267 121.248 7.188L114.436 7.448L114.332 6.655L121.313 6.46C121.339 6.018 121.352 5.55867 121.352 5.082H114.709V4.289H122.327V5.186C122.327 6.47733 122.197 7.69067 121.937 8.826H123.861ZM115.853 15.014H122.6V15.82H115.554C115.346 15.82 115.186 15.7637 115.073 15.651C114.961 15.5383 114.904 15.3737 114.904 15.157V12.999H121.313V11.764H114.826V10.958H122.262V13.766H115.853V15.014ZM135.231 4.003V11.075H134.23V4.003H135.231ZM132.904 10.217C131.474 10.4943 129.728 10.633 127.665 10.633H126.313V7.175H130.343V5.433H126.261V4.627H131.318V7.968H127.275V9.827H127.665C129.658 9.827 131.361 9.697 132.774 9.437L132.904 10.217ZM127.782 11.764H135.231V15.859H134.256V12.596H127.782V11.764ZM148.681 9.489H146.848V15.313H145.86V4.029H146.848V8.657H148.681V9.489ZM143.091 5.485H139.399V4.64H143.091V5.485ZM137.67 7.045H144.625V7.851H142.701V7.929C143.489 8.319 143.884 9.06867 143.884 10.178C143.884 10.7413 143.767 11.231 143.533 11.647C143.299 12.0543 142.974 12.3663 142.558 12.583C142.15 12.7997 141.695 12.908 141.193 12.908C140.69 12.908 140.231 12.7997 139.815 12.583C139.407 12.3663 139.087 12.0543 138.853 11.647C138.619 11.231 138.502 10.7413 138.502 10.178C138.502 9.06867 138.896 8.319 139.685 7.929V7.851H137.67V7.045ZM142.922 9.749C142.922 9.16833 142.766 8.72633 142.454 8.423C142.142 8.111 141.721 7.955 141.193 7.955C140.673 7.955 140.252 8.111 139.932 8.423C139.62 8.735 139.464 9.177 139.464 9.749V10.282C139.464 10.8453 139.624 11.2873 139.945 11.608C140.265 11.92 140.681 12.076 141.193 12.076C141.704 12.076 142.12 11.92 142.441 11.608C142.761 11.2873 142.922 10.8453 142.922 10.282V9.749ZM158.725 9.19H156.333V8.384H158.725V6.616H156.333V5.81H158.725V4.003H159.713V12.57H158.725V9.19ZM155.891 10.269H150.574V4.731H155.891V10.269ZM154.916 5.55H151.549V9.45H154.916V5.55ZM159.947 14.715V15.534H153.135C152.927 15.534 152.766 15.4777 152.654 15.365C152.541 15.2523 152.485 15.0877 152.485 14.871V11.634H153.486V14.715H159.947ZM171.131 6.785C171.131 6.28233 171.274 5.83167 171.56 5.433C171.846 5.03433 172.284 4.718 172.873 4.484C173.463 4.25 174.191 4.133 175.057 4.133C175.924 4.133 176.652 4.25 177.241 4.484C177.831 4.718 178.268 5.03433 178.554 5.433C178.84 5.83167 178.983 6.28233 178.983 6.785C178.983 7.28767 178.84 7.74267 178.554 8.15C178.268 8.54867 177.831 8.865 177.241 9.099C176.652 9.333 175.924 9.45 175.057 9.45C174.191 9.45 173.463 9.333 172.873 9.099C172.284 8.865 171.846 8.54867 171.56 8.15C171.274 7.74267 171.131 7.28767 171.131 6.785ZM172.197 6.915C172.197 7.409 172.436 7.82067 172.912 8.15C173.389 8.47933 174.104 8.644 175.057 8.644C176.011 8.644 176.726 8.47933 177.202 8.15C177.679 7.82067 177.917 7.409 177.917 6.915V6.655C177.917 6.161 177.679 5.74933 177.202 5.42C176.726 5.082 176.011 4.913 175.057 4.913C174.113 4.913 173.398 5.082 172.912 5.42C172.436 5.74933 172.197 6.161 172.197 6.655V6.915ZM180.361 11.504H175.551V15.742H174.563V11.504H169.753V10.672H180.361V11.504ZM189.274 4.939H185.335V4.133H189.274V4.939ZM186.83 6.798H183.229V6.005H191.367V6.798H187.792C187.766 7.24867 187.584 7.63 187.246 7.942L187.324 7.968L187.623 7.773C187.744 7.68633 187.874 7.643 188.013 7.643C188.056 7.643 188.147 7.66033 188.286 7.695L191.809 9.021L191.289 9.736L187.558 8.241C187.445 8.19767 187.333 8.176 187.22 8.176C187.107 8.176 186.99 8.202 186.869 8.254C186.54 8.47933 186.089 8.71333 185.517 8.956C184.945 9.19 184.2 9.45867 183.281 9.762L182.774 9.073C183.771 8.76967 184.551 8.501 185.114 8.267C185.677 8.02433 186.089 7.79033 186.349 7.565C186.618 7.331 186.778 7.07533 186.83 6.798ZM192.602 10.425V11.257H181.994V10.425H192.602ZM183.463 12.362H191.029V15.82H190.054V13.168H183.463V12.362ZM211.444 4.003V15.287H210.456V4.003H211.444ZM208.974 11.335L209.104 12.128C207.76 12.388 206.053 12.518 203.982 12.518H202.578V8.163H206.673V5.693H202.526V4.861H207.661V8.982H203.553V11.712H203.969C205.936 11.712 207.604 11.5863 208.974 11.335ZM215.104 10.503L214.545 9.736C215.724 9.12933 216.625 8.592 217.249 8.124C217.882 7.64733 218.32 7.175 218.562 6.707C218.805 6.23033 218.926 5.68433 218.926 5.069V4.627H219.94V5.095C219.94 5.59767 219.884 6.04833 219.771 6.447C219.667 6.837 219.49 7.20533 219.238 7.552L219.303 7.591L219.628 7.344C219.741 7.25733 219.854 7.214 219.966 7.214C220.079 7.214 220.192 7.253 220.304 7.331L224.087 9.684L223.515 10.464L219.602 7.942C219.49 7.864 219.368 7.825 219.238 7.825C219.126 7.825 219.013 7.86833 218.9 7.955C218.545 8.33633 218.064 8.73067 217.457 9.138C216.851 9.53667 216.066 9.99167 215.104 10.503ZM224.62 13.155V14H214.012V13.155H224.62ZM227.774 4.705H235.392V5.537H228.762V7.448H235.21V8.241H228.775V10.152H235.613V10.984H227.774V4.705ZM226.253 13.155H236.861V14H226.253V13.155ZM17.33 25.16H13.794V24.367H21.802V25.16H18.305C18.2877 25.7667 18.1013 26.278 17.746 26.694L17.811 26.72L18.084 26.525C18.2053 26.447 18.318 26.408 18.422 26.408C18.5087 26.408 18.6127 26.434 18.734 26.486L22.283 28.137L21.763 28.852L18.045 27.058C17.9323 26.9973 17.8197 26.967 17.707 26.967C17.5857 26.967 17.4773 26.9973 17.382 27.058C17.044 27.344 16.589 27.6343 16.017 27.929C15.445 28.215 14.7127 28.5313 13.82 28.878L13.313 28.176C14.3443 27.786 15.1417 27.4393 15.705 27.136C16.2683 26.824 16.6713 26.5163 16.914 26.213C17.1653 25.9097 17.304 25.5587 17.33 25.16ZM18.292 30.542V31.582C19.384 31.6427 20.216 31.868 20.788 32.258C21.36 32.648 21.646 33.1507 21.646 33.766C21.646 34.1993 21.4987 34.5807 21.204 34.91C20.918 35.248 20.4847 35.5123 19.904 35.703C19.332 35.8937 18.63 35.989 17.798 35.989C16.966 35.989 16.2597 35.8937 15.679 35.703C15.107 35.5123 14.6737 35.248 14.379 34.91C14.093 34.5807 13.95 34.1993 13.95 33.766C13.95 33.1507 14.236 32.648 14.808 32.258C15.38 31.868 16.212 31.6427 17.304 31.582V30.542H12.494V29.71H23.102V30.542H18.292ZM17.798 32.336C16.8533 32.336 16.1427 32.466 15.666 32.726C15.198 32.986 14.964 33.3067 14.964 33.688V33.87C14.964 34.2427 15.198 34.559 15.666 34.819C16.1427 35.079 16.8533 35.209 17.798 35.209C18.7427 35.209 19.449 35.079 19.917 34.819C20.385 34.559 20.619 34.2427 20.619 33.87V33.688C20.619 33.298 20.385 32.9773 19.917 32.726C19.4577 32.466 18.7513 32.336 17.798 32.336ZM38.4801 24.003V35.287H37.5181V29.398H35.8281V34.975H34.8791V24.198H35.8281V28.579H37.5181V24.003H38.4801ZM33.0851 25.693H29.7441V24.887H33.0851V25.693ZM28.3791 27.149H34.2551V27.929H32.7081V27.994C33.3928 28.3667 33.7351 29.073 33.7351 30.113C33.7351 30.9277 33.5141 31.5647 33.0721 32.024C32.6388 32.4747 32.0668 32.7 31.3561 32.7C30.6541 32.7 30.0821 32.4747 29.6401 32.024C29.2068 31.5647 28.9901 30.9277 28.9901 30.113C28.9901 29.073 29.3281 28.3667 30.0041 27.994V27.929H28.3791V27.149ZM32.7991 29.645C32.7991 29.125 32.6691 28.7263 32.4091 28.449C32.1491 28.1717 31.7981 28.033 31.3561 28.033C30.9141 28.033 30.5631 28.1717 30.3031 28.449C30.0518 28.7263 29.9261 29.125 29.9261 29.645V30.269C29.9261 30.7803 30.0561 31.179 30.3161 31.465C30.5848 31.751 30.9314 31.894 31.3561 31.894C31.7808 31.894 32.1274 31.751 32.3961 31.465C32.6648 31.179 32.7991 30.7803 32.7991 30.269V29.645ZM51.6569 26.915V27.747H49.8499V30.724H48.8619V24.003H49.8499V26.915H51.6569ZM47.5489 29.476C46.9249 29.606 46.1709 29.71 45.2869 29.788C44.4116 29.8573 43.4756 29.892 42.4789 29.892H41.1529V24.614H46.3009V25.446H42.1409V29.086H42.4919C43.4279 29.086 44.3249 29.0513 45.1829 28.982C46.0496 28.9127 46.7949 28.8173 47.4189 28.696L47.5489 29.476ZM49.9409 33.428C49.9409 33.9047 49.8066 34.3293 49.5379 34.702C49.2692 35.0833 48.8662 35.3823 48.3289 35.599C47.7916 35.8157 47.1329 35.924 46.3529 35.924C45.5816 35.924 44.9229 35.8157 44.3769 35.599C43.8396 35.3823 43.4322 35.0833 43.1549 34.702C42.8862 34.3293 42.7519 33.9047 42.7519 33.428C42.7519 32.9513 42.8862 32.5267 43.1549 32.154C43.4322 31.7727 43.8396 31.4737 44.3769 31.257C44.9229 31.0403 45.5816 30.932 46.3529 30.932C47.1329 30.932 47.7916 31.0403 48.3289 31.257C48.8662 31.4737 49.2692 31.7727 49.5379 32.154C49.8066 32.5267 49.9409 32.9513 49.9409 33.428ZM48.9009 33.324C48.9009 32.8733 48.6886 32.4963 48.2639 32.193C47.8479 31.8897 47.2109 31.738 46.3529 31.738C45.5036 31.738 44.8666 31.894 44.4419 32.206C44.0172 32.5093 43.8049 32.882 43.8049 33.324V33.545C43.8049 33.987 44.0172 34.3597 44.4419 34.663C44.8666 34.975 45.5036 35.131 46.3529 35.131C47.2109 35.131 47.8479 34.975 48.2639 34.663C48.6886 34.3597 48.9009 33.987 48.9009 33.545V33.324ZM65.475 30.633V24.003H66.45V33.103H65.475V31.387H62.628V30.633H65.475ZM59.846 29.58C58.7367 29.6233 57.7227 29.645 56.804 29.645L56.713 28.839C58.5417 28.839 60.249 28.787 61.835 28.683C62.0863 27.721 62.2163 26.7157 62.225 25.667V25.42H57.675V24.627H63.161V25.511C63.161 26.499 63.044 27.5303 62.81 28.605C63.408 28.553 63.9497 28.488 64.435 28.41L64.526 29.177C63.408 29.3417 62.1687 29.463 60.808 29.541V31.998H59.846V29.58ZM66.684 34.728V35.534H59.742C59.534 35.534 59.3737 35.4777 59.261 35.365C59.1483 35.2523 59.092 35.0877 59.092 34.871V32.557H60.067V34.728H66.684ZM78.6388 24.003V30.776H77.6508V28.956H75.3368V28.15H77.6508V26.486H75.3368V25.68H77.6508V24.003H78.6388ZM72.1518 30.217C71.5798 30.217 71.0728 30.1 70.6308 29.866C70.1888 29.632 69.8421 29.2983 69.5908 28.865C69.3395 28.4317 69.2138 27.9203 69.2138 27.331C69.2138 26.7417 69.3395 26.2303 69.5908 25.797C69.8421 25.3637 70.1888 25.0343 70.6308 24.809C71.0728 24.575 71.5798 24.458 72.1518 24.458C72.7238 24.458 73.2308 24.575 73.6728 24.809C74.1148 25.0343 74.4615 25.3637 74.7128 25.797C74.9641 26.2303 75.0898 26.7417 75.0898 27.331C75.0898 27.9203 74.9641 28.4317 74.7128 28.865C74.4615 29.2983 74.1148 29.632 73.6728 29.866C73.2308 30.1 72.7238 30.217 72.1518 30.217ZM72.1518 29.424C72.7151 29.424 73.1701 29.2593 73.5168 28.93C73.8721 28.592 74.0498 28.1457 74.0498 27.591V27.084C74.0498 26.5293 73.8765 26.0873 73.5298 25.758C73.1831 25.42 72.7238 25.251 72.1518 25.251C71.5798 25.251 71.1161 25.42 70.7608 25.758C70.4141 26.0873 70.2408 26.5293 70.2408 27.084V27.591C70.2408 28.137 70.4141 28.579 70.7608 28.917C71.1161 29.255 71.5798 29.424 72.1518 29.424ZM71.1898 31.478H78.6388V35.859H77.6638V32.31H71.1898V31.478ZM89.8916 28.514H87.3436V27.734H89.8916V26.226H87.3436V25.446H89.8916V24.003H90.8796V29.957H89.8916V28.514ZM86.9406 29.541H81.7146V24.406H82.6506V26.148H86.0046V24.393H86.9406V29.541ZM86.0046 26.941H82.6506V28.748H86.0046V26.941ZM91.1916 34.975V35.82H84.2886C84.0806 35.82 83.9203 35.7637 83.8076 35.651C83.695 35.5383 83.6386 35.3737 83.6386 35.157V32.817H89.8786V31.504H83.5606V30.659H90.8796V33.649H84.6396V34.975H91.1916ZM107.129 24.003V35.287H106.167V29.229H104.451V34.975H103.502V24.198H104.451V28.41H106.167V24.003H107.129ZM97.5477 25.134H102.163V32.115H97.5477V25.134ZM98.5097 31.296H101.201V25.953H98.5097V31.296ZM120.306 26.915V27.747H118.499V30.789H117.511V24.003H118.499V26.915H120.306ZM110.127 30.386L109.399 29.762C110.127 29.19 110.69 28.696 111.089 28.28C111.487 27.8553 111.773 27.4393 111.947 27.032C112.129 26.6247 112.22 26.161 112.22 25.641V25.524H109.737V24.705H115.678V25.524H113.208V25.693C113.208 26.4037 113.056 27.0407 112.753 27.604L112.831 27.656L113.026 27.5C113.121 27.4307 113.212 27.396 113.299 27.396C113.403 27.396 113.507 27.4393 113.611 27.526L116.042 29.541L115.314 30.178L112.844 28.072C112.783 28.02 112.718 27.994 112.649 27.994C112.597 27.994 112.54 28.0157 112.48 28.059C112.237 28.397 111.929 28.748 111.557 29.112C111.184 29.476 110.707 29.9007 110.127 30.386ZM118.59 33.48C118.59 33.948 118.455 34.364 118.187 34.728C117.918 35.1007 117.515 35.391 116.978 35.599C116.44 35.8157 115.782 35.924 115.002 35.924C114.23 35.924 113.572 35.8157 113.026 35.599C112.488 35.391 112.081 35.1007 111.804 34.728C111.535 34.364 111.401 33.948 111.401 33.48C111.401 33.012 111.535 32.596 111.804 32.232C112.081 31.8593 112.488 31.569 113.026 31.361C113.572 31.1443 114.23 31.036 115.002 31.036C115.782 31.036 116.44 31.1443 116.978 31.361C117.515 31.569 117.918 31.8593 118.187 32.232C118.455 32.596 118.59 33.012 118.59 33.48ZM117.563 33.376C117.563 32.934 117.35 32.5657 116.926 32.271C116.501 31.9677 115.86 31.816 115.002 31.816C114.144 31.816 113.502 31.9677 113.078 32.271C112.653 32.5657 112.441 32.934 112.441 33.376V33.597C112.441 34.0303 112.653 34.3943 113.078 34.689C113.502 34.9923 114.144 35.144 115.002 35.144C115.86 35.144 116.501 34.9923 116.926 34.689C117.35 34.3943 117.563 34.0303 117.563 33.597V33.376ZM130.336 28.826H127.944V28.033H130.336V26.408H127.944V25.615H130.336V24.003H131.324V30.724H130.336V28.826ZM127.502 29.749H122.185V24.575H127.502V29.749ZM126.527 25.381H123.16V28.943H126.527V25.381ZM131.389 33.428C131.389 33.9047 131.251 34.3293 130.973 34.702C130.705 35.0833 130.297 35.3823 129.751 35.599C129.205 35.8157 128.538 35.924 127.749 35.924C126.961 35.924 126.289 35.8157 125.734 35.599C125.188 35.3823 124.777 35.0833 124.499 34.702C124.231 34.3293 124.096 33.9047 124.096 33.428C124.096 32.9513 124.231 32.5267 124.499 32.154C124.777 31.7727 125.188 31.4737 125.734 31.257C126.289 31.0403 126.961 30.932 127.749 30.932C128.538 30.932 129.205 31.0403 129.751 31.257C130.297 31.4737 130.705 31.7727 130.973 32.154C131.251 32.5267 131.389 32.9513 131.389 33.428ZM130.336 33.324C130.336 32.8733 130.12 32.4963 129.686 32.193C129.262 31.8897 128.616 31.738 127.749 31.738C126.883 31.738 126.233 31.894 125.799 32.206C125.366 32.5093 125.149 32.882 125.149 33.324V33.545C125.149 33.987 125.366 34.3597 125.799 34.663C126.233 34.975 126.883 35.131 127.749 35.131C128.616 35.131 129.262 34.975 129.686 34.663C130.12 34.3597 130.336 33.987 130.336 33.545V33.324ZM142.512 24.003H143.5V35.287H142.512V24.003ZM134.166 28.566C134.166 27.3007 134.444 26.343 134.998 25.693C135.562 25.043 136.303 24.718 137.221 24.718C138.131 24.718 138.864 25.043 139.418 25.693C139.982 26.343 140.263 27.3007 140.263 28.566C140.263 29.4153 140.133 30.1303 139.873 30.711C139.613 31.283 139.254 31.712 138.794 31.998C138.335 32.2753 137.811 32.414 137.221 32.414C136.303 32.414 135.562 32.089 134.998 31.439C134.444 30.789 134.166 29.8313 134.166 28.566ZM139.21 29.073V28.059C139.21 27.253 139.024 26.6333 138.651 26.2C138.287 25.7667 137.811 25.55 137.221 25.55C136.623 25.55 136.138 25.7667 135.765 26.2C135.401 26.6247 135.219 27.2443 135.219 28.059V29.073C135.219 29.8877 135.401 30.5117 135.765 30.945C136.138 31.3697 136.623 31.582 137.221 31.582C137.811 31.582 138.287 31.3653 138.651 30.932C139.024 30.4987 139.21 29.879 139.21 29.073ZM160.737 27.344V28.15H159.021V30.919H158.046V24.003H159.021V27.344H160.737ZM155.043 24.783H151.624V24.029H155.043V24.783ZM157.448 30.36C156.478 30.516 155.312 30.6373 153.951 30.724C152.599 30.802 151.2 30.841 149.752 30.841L149.687 30.087C150.857 30.087 151.893 30.0697 152.794 30.035V29.203C152.118 29.151 151.585 28.9993 151.195 28.748C150.805 28.4967 150.61 28.176 150.61 27.786C150.61 27.2573 150.918 26.876 151.533 26.642V26.551H149.83V25.836H156.603V26.551H154.965V26.642C155.589 26.876 155.901 27.2573 155.901 27.786C155.901 28.1673 155.706 28.488 155.316 28.748C154.926 28.9993 154.398 29.151 153.73 29.203V29.996C155.23 29.9093 156.443 29.801 157.37 29.671L157.448 30.36ZM153.041 28.475H153.47C153.938 28.475 154.315 28.397 154.601 28.241C154.887 28.0763 155.03 27.838 155.03 27.526C155.03 27.214 154.887 26.98 154.601 26.824C154.315 26.6593 153.938 26.577 153.47 26.577H153.041C152.573 26.577 152.196 26.6593 151.91 26.824C151.624 26.98 151.481 27.214 151.481 27.526C151.481 27.838 151.624 28.0763 151.91 28.241C152.196 28.397 152.573 28.475 153.041 28.475ZM152.651 35.144H159.333V35.898H152.378C152.17 35.898 152.01 35.8417 151.897 35.729C151.785 35.6163 151.728 35.4517 151.728 35.235V33.35H158.098V32.297H151.65V31.556H159.021V34.091H152.651V35.144ZM170.781 27.292H168.298V26.46H170.781V24.003H171.769V30.724H170.781V27.292ZM165.49 27.682C165.429 27.682 165.377 27.708 165.334 27.76C165.1 28.15 164.792 28.553 164.411 28.969C164.038 29.3763 163.544 29.866 162.929 30.438L162.201 29.788C162.938 29.1293 163.505 28.566 163.904 28.098C164.303 27.6213 164.589 27.1533 164.762 26.694C164.944 26.226 165.035 25.6973 165.035 25.108V24.393H166.023V25.16C166.023 25.966 165.876 26.694 165.581 27.344L165.633 27.37L165.854 27.188C165.949 27.11 166.045 27.071 166.14 27.071C166.235 27.071 166.322 27.11 166.4 27.188L168.883 29.489L168.168 30.178L165.659 27.76C165.607 27.708 165.551 27.682 165.49 27.682ZM171.834 33.428C171.834 33.9047 171.695 34.3293 171.418 34.702C171.149 35.0833 170.742 35.3823 170.196 35.599C169.65 35.8157 168.983 35.924 168.194 35.924C167.405 35.924 166.734 35.8157 166.179 35.599C165.633 35.3823 165.221 35.0833 164.944 34.702C164.675 34.3293 164.541 33.9047 164.541 33.428C164.541 32.9513 164.675 32.5267 164.944 32.154C165.221 31.7727 165.633 31.4737 166.179 31.257C166.734 31.0403 167.405 30.932 168.194 30.932C168.983 30.932 169.65 31.0403 170.196 31.257C170.742 31.4737 171.149 31.7727 171.418 32.154C171.695 32.5267 171.834 32.9513 171.834 33.428ZM170.781 33.324C170.781 32.8733 170.564 32.4963 170.131 32.193C169.706 31.8897 169.061 31.738 168.194 31.738C167.327 31.738 166.677 31.894 166.244 32.206C165.811 32.5093 165.594 32.882 165.594 33.324V33.545C165.594 33.987 165.811 34.3597 166.244 34.663C166.677 34.975 167.327 35.131 168.194 35.131C169.061 35.131 169.706 34.975 170.131 34.663C170.564 34.3597 170.781 33.987 170.781 33.545V33.324ZM185.219 29.606H183.451V35.287H182.476V24.003H183.451V28.774H185.219V29.606ZM179.551 25.329H176.08V24.523H179.551V25.329ZM181.553 32.232L181.644 33.025C180.691 33.181 179.551 33.3023 178.225 33.389C176.908 33.467 175.547 33.506 174.143 33.506L174.052 32.674C175.023 32.674 176.093 32.6523 177.263 32.609V31.062C176.578 30.9927 176.037 30.7847 175.638 30.438C175.239 30.0827 175.04 29.6493 175.04 29.138C175.04 28.7653 175.131 28.4447 175.313 28.176C175.504 27.8987 175.79 27.682 176.171 27.526V27.448H174.234V26.668H181.228V27.448H179.356V27.526C179.729 27.682 180.01 27.8987 180.201 28.176C180.392 28.4533 180.487 28.774 180.487 29.138C180.487 29.658 180.283 30.0957 179.876 30.451C179.469 30.7977 178.914 31.0013 178.212 31.062V32.557C179.564 32.4877 180.678 32.3793 181.553 32.232ZM177.627 30.282H177.9C178.394 30.282 178.797 30.165 179.109 29.931C179.421 29.6883 179.577 29.3503 179.577 28.917C179.577 28.4837 179.421 28.15 179.109 27.916C178.797 27.6733 178.394 27.552 177.9 27.552H177.627C177.133 27.552 176.73 27.6733 176.418 27.916C176.106 28.15 175.95 28.4837 175.95 28.917C175.95 29.3503 176.106 29.6883 176.418 29.931C176.73 30.165 177.133 30.282 177.627 30.282ZM199.96 30.997H198.972V24.003H199.96V30.997ZM198.101 30.269C197.113 30.425 195.934 30.542 194.565 30.62C193.204 30.698 191.809 30.737 190.379 30.737L190.288 29.918C191.484 29.918 192.546 29.9007 193.473 29.866V28.397H191.276V24.536H196.723V25.329H192.238V27.604H196.84V28.397H194.435V29.814C195.839 29.7447 197.031 29.6407 198.01 29.502L198.101 30.269ZM199.973 31.647V35.755H193.33C193.122 35.755 192.962 35.6987 192.849 35.586C192.736 35.4733 192.68 35.3087 192.68 35.092V31.647H199.973ZM198.972 32.466H193.681V34.936H198.972V32.466Z" fill="white"/>
<rect y="4" width="2" height="10" fill="white"/>
</svg>
