<svg width="238" height="20" viewBox="0 0 238 20" fill="none" xmlns="http://www.w3.org/2000/svg">
<path d="M22.231 4.003V10.516H21.243V7.773H18.721V6.941H21.243V4.003H22.231ZM13.456 10.477L12.936 9.723C14.0973 9.281 14.9813 8.878 15.588 8.514C16.1947 8.15 16.6193 7.773 16.862 7.383C17.1133 6.98433 17.239 6.50333 17.239 5.94V5.446H13.261V4.614H18.24V5.836C18.24 6.59 18.097 7.21833 17.811 7.721C17.5337 8.215 17.057 8.67433 16.381 9.099C15.7137 9.515 14.7387 9.97433 13.456 10.477ZM15.081 11.218H22.231V15.755H15.731C15.523 15.755 15.3627 15.6987 15.25 15.586C15.1373 15.4733 15.081 15.3087 15.081 15.092V11.218ZM16.069 14.923H21.23V12.037H16.069V14.923ZM34.7578 4.003V10.789H33.7958V7.786H32.0538V10.646H31.1048V4.185H32.0538V6.98H33.7958V4.003H34.7578ZM27.5818 8.033C27.5125 8.033 27.4605 8.059 27.4258 8.111C27.2265 8.48367 26.9665 8.86933 26.6458 9.268C26.3252 9.658 25.9135 10.1087 25.4108 10.62L24.7218 10.022C25.3632 9.35467 25.8485 8.787 26.1778 8.319C26.5158 7.84233 26.7542 7.37867 26.8928 6.928C27.0402 6.47733 27.1138 5.95733 27.1138 5.368V4.653H28.0628V5.394C28.0628 6.20867 27.9372 6.93233 27.6858 7.565L27.7378 7.591L27.8938 7.461C27.9892 7.39167 28.0758 7.357 28.1538 7.357C28.2405 7.357 28.3272 7.40033 28.4138 7.487L30.4938 9.749L29.8178 10.399L27.7508 8.111C27.6988 8.059 27.6425 8.033 27.5818 8.033ZM27.1138 11.504H34.7578V15.859H33.7828V12.349H27.1138V11.504ZM47.9346 7.123V7.955H46.1276V11.244H45.1396V4.003H46.1276V7.123H47.9346ZM42.1106 5.056H38.5876V4.25H42.1106V5.056ZM37.7296 11.036L37.0406 10.438C37.76 9.95267 38.319 9.53667 38.7176 9.19C39.1163 8.83467 39.4066 8.488 39.5886 8.15C39.7706 7.812 39.8703 7.43067 39.8876 7.006H37.3656V6.213H43.3716V7.006H40.8236C40.815 7.63 40.659 8.17167 40.3556 8.631L40.4336 8.67L40.6416 8.514C40.737 8.44467 40.828 8.41 40.9146 8.41C41.0013 8.41 41.101 8.44467 41.2136 8.514L43.6576 10.23L42.9816 10.841L40.4986 9.034C40.438 8.982 40.3643 8.956 40.2776 8.956C40.2083 8.956 40.139 8.982 40.0696 9.034C39.8356 9.32 39.5366 9.619 39.1726 9.931C38.8086 10.2343 38.3276 10.6027 37.7296 11.036ZM46.2186 13.714C46.2186 14.3813 45.911 14.923 45.2956 15.339C44.6803 15.755 43.792 15.963 42.6306 15.963C41.8506 15.963 41.1876 15.8677 40.6416 15.677C40.1043 15.4863 39.7013 15.2177 39.4326 14.871C39.164 14.533 39.0296 14.1473 39.0296 13.714C39.0296 13.2807 39.164 12.895 39.4326 12.557C39.7013 12.219 40.1043 11.9547 40.6416 11.764C41.1876 11.5733 41.8506 11.478 42.6306 11.478C43.4106 11.478 44.0693 11.5733 44.6066 11.764C45.144 11.9547 45.547 12.219 45.8156 12.557C46.0843 12.895 46.2186 13.2807 46.2186 13.714ZM45.1786 13.636C45.1786 13.246 44.9663 12.921 44.5416 12.661C44.1256 12.401 43.4886 12.271 42.6306 12.271C41.7813 12.271 41.1443 12.401 40.7196 12.661C40.295 12.921 40.0826 13.246 40.0826 13.636V13.818C40.0826 14.1993 40.295 14.52 40.7196 14.78C41.1443 15.04 41.7813 15.17 42.6306 15.17C43.4886 15.17 44.1256 15.04 44.5416 14.78C44.9663 14.52 45.1786 14.1993 45.1786 13.818V13.636ZM63.8847 9.281H62.0127V15.313H61.0247V4.029H62.0127V8.449H63.8847V9.281ZM59.0357 8.566C59.0357 9.83133 58.7584 10.789 58.2037 11.439C57.6577 12.089 56.9297 12.414 56.0197 12.414C55.1097 12.414 54.3774 12.089 53.8227 11.439C53.2767 10.789 53.0037 9.83133 53.0037 8.566C53.0037 7.30067 53.2767 6.343 53.8227 5.693C54.3774 5.043 55.1097 4.718 56.0197 4.718C56.9297 4.718 57.6577 5.043 58.2037 5.693C58.7584 6.343 59.0357 7.30067 59.0357 8.566ZM57.9827 8.046C57.9827 7.24 57.8007 6.62467 57.4367 6.2C57.0814 5.76667 56.6091 5.55 56.0197 5.55C55.4304 5.55 54.9537 5.76667 54.5897 6.2C54.2257 6.62467 54.0437 7.24 54.0437 8.046V9.086C54.0437 9.892 54.2257 10.5117 54.5897 10.945C54.9537 11.3697 55.4304 11.582 56.0197 11.582C56.6091 11.582 57.0814 11.3697 57.4367 10.945C57.8007 10.5117 57.9827 9.892 57.9827 9.086V8.046ZM75.2025 4.003V15.287H74.2405V9.229H72.4465V14.975H71.4975V4.198H72.4465V8.41H74.2405V4.003H75.2025ZM70.5485 11.335L70.6785 12.115C69.6645 12.375 68.3602 12.505 66.7655 12.505H65.6995V8.28H68.9365V5.914H65.6605V5.095H69.8855V9.086H66.6485V11.699H67.0125C68.3732 11.699 69.5519 11.5777 70.5485 11.335ZM88.4226 4.926H84.4706V4.12H88.4226V4.926ZM85.9526 6.915H82.3776V6.109H90.5286V6.915H86.9536C86.9103 7.42633 86.724 7.85967 86.3946 8.215L86.4856 8.241L86.7326 8.072C86.854 7.98533 86.9796 7.942 87.1096 7.942C87.1963 7.942 87.296 7.96367 87.4086 8.007L90.9836 9.528L90.4506 10.256L86.6806 8.566C86.5766 8.514 86.4683 8.488 86.3556 8.488C86.2256 8.488 86.113 8.51833 86.0176 8.579L85.9786 8.592C85.6406 8.852 85.1856 9.12067 84.6136 9.398C84.0503 9.66667 83.3223 9.96567 82.4296 10.295L81.9096 9.58C82.8976 9.23333 83.6733 8.92133 84.2366 8.644C84.8086 8.36667 85.2246 8.09367 85.4846 7.825C85.7446 7.54767 85.9006 7.24433 85.9526 6.915ZM91.7506 11.933H86.9406V15.742H85.9526V11.933H81.1426V11.114H91.7506V11.933ZM102.119 8.956H99.9225V8.124H102.119V4.003H103.12V12.7H102.119V8.956ZM98.6745 5.225H95.2165V4.406H98.6745V5.225ZM94.3585 11.517L93.6695 10.919C94.3888 10.4077 94.9435 9.96567 95.3335 9.593C95.7321 9.22033 96.0181 8.852 96.1915 8.488C96.3648 8.124 96.4558 7.71233 96.4645 7.253H93.9815V6.434H99.9095V7.253H97.4135C97.4135 7.92033 97.2618 8.50533 96.9585 9.008L97.0365 9.047L97.2315 8.904C97.3268 8.83467 97.4221 8.8 97.5175 8.8C97.6215 8.8 97.7211 8.83467 97.8165 8.904L100.208 10.724L99.5195 11.335L97.0885 9.424C97.0191 9.372 96.9455 9.346 96.8675 9.346C96.7895 9.346 96.7245 9.372 96.6725 9.424C96.4471 9.736 96.1525 10.0523 95.7885 10.373C95.4245 10.6937 94.9478 11.075 94.3585 11.517ZM103.354 14.78V15.599H96.5165C96.3085 15.599 96.1481 15.5427 96.0355 15.43C95.9228 15.3173 95.8665 15.1527 95.8665 14.936V12.31H96.8545V14.78H103.354ZM119.084 4.003V10.516H118.096V7.773H115.574V6.941H118.096V4.003H119.084ZM110.309 10.477L109.789 9.723C110.95 9.281 111.834 8.878 112.441 8.514C113.047 8.15 113.472 7.773 113.715 7.383C113.966 6.98433 114.092 6.50333 114.092 5.94V5.446H110.114V4.614H115.093V5.836C115.093 6.59 114.95 7.21833 114.664 7.721C114.386 8.215 113.91 8.67433 113.234 9.099C112.566 9.515 111.591 9.97433 110.309 10.477ZM111.934 11.218H119.084V15.755H112.584C112.376 15.755 112.215 15.6987 112.103 15.586C111.99 15.4733 111.934 15.3087 111.934 15.092V11.218ZM112.922 14.923H118.083V12.037H112.922V14.923ZM131.61 4.003V10.789H130.648V7.786H128.906V10.646H127.957V4.185H128.906V6.98H130.648V4.003H131.61ZM124.434 8.033C124.365 8.033 124.313 8.059 124.278 8.111C124.079 8.48367 123.819 8.86933 123.498 9.268C123.178 9.658 122.766 10.1087 122.263 10.62L121.574 10.022C122.216 9.35467 122.701 8.787 123.03 8.319C123.368 7.84233 123.607 7.37867 123.745 6.928C123.893 6.47733 123.966 5.95733 123.966 5.368V4.653H124.915V5.394C124.915 6.20867 124.79 6.93233 124.538 7.565L124.59 7.591L124.746 7.461C124.842 7.39167 124.928 7.357 125.006 7.357C125.093 7.357 125.18 7.40033 125.266 7.487L127.346 9.749L126.67 10.399L124.603 8.111C124.551 8.059 124.495 8.033 124.434 8.033ZM123.966 11.504H131.61V15.859H130.635V12.349H123.966V11.504ZM143.513 4.003V15.287H142.538V8.891H140.12C140.077 10.0523 139.782 10.932 139.236 11.53C138.69 12.1193 137.988 12.414 137.13 12.414C136.229 12.414 135.501 12.089 134.946 11.439C134.4 10.789 134.127 9.83133 134.127 8.566C134.127 7.292 134.4 6.33433 134.946 5.693C135.492 5.043 136.22 4.718 137.13 4.718C137.971 4.718 138.66 4.99967 139.197 5.563C139.735 6.12633 140.042 6.95833 140.12 8.059H142.538V4.003H143.513ZM139.093 8.046C139.093 7.24 138.911 6.62467 138.547 6.2C138.192 5.76667 137.72 5.55 137.13 5.55C136.541 5.55 136.069 5.76667 135.713 6.2C135.358 6.62467 135.18 7.24 135.18 8.046V9.086C135.18 9.892 135.358 10.5117 135.713 10.945C136.069 11.3697 136.541 11.582 137.13 11.582C137.72 11.582 138.192 11.3697 138.547 10.945C138.911 10.5117 139.093 9.892 139.093 9.086V8.046ZM159.814 4.003V15.287H158.865V4.003H159.814ZM156.278 4.198H157.201V14.975H156.278V8.761H154.471V7.942H156.278V4.198ZM153.119 8.904C153.223 8.904 153.323 8.96467 153.418 9.086L155.485 11.985L154.783 12.583L152.703 9.593C152.66 9.541 152.617 9.515 152.573 9.515C152.53 9.515 152.495 9.541 152.469 9.593C152.287 10.0437 152.036 10.5117 151.715 10.997C151.403 11.4737 150.979 12.063 150.441 12.765L149.752 12.18C150.385 11.374 150.87 10.6807 151.208 10.1C151.546 9.51067 151.789 8.93 151.936 8.358C152.084 7.77733 152.157 7.11867 152.157 6.382V6.005H150.025V5.173H155.186V6.005H153.093V6.382C153.093 7.38733 152.955 8.28 152.677 9.06L152.742 9.099L152.872 8.995C152.968 8.93433 153.05 8.904 153.119 8.904ZM170.092 5.199H163.449V4.367H171.054V5.004C171.054 6.13933 170.92 7.30067 170.651 8.488L169.715 8.358C169.958 7.33533 170.083 6.28233 170.092 5.199ZM172.64 9.398V10.256H162.032V9.398H166.387V7.149H167.362V9.398H172.64ZM171.184 13.662C171.184 14.1127 171.037 14.5113 170.742 14.858C170.456 15.2133 170.023 15.4907 169.442 15.69C168.87 15.8893 168.168 15.989 167.336 15.989C166.504 15.989 165.798 15.8893 165.217 15.69C164.645 15.4907 164.212 15.2133 163.917 14.858C163.631 14.5113 163.488 14.1127 163.488 13.662C163.488 13.2113 163.631 12.8127 163.917 12.466C164.212 12.1193 164.645 11.8463 165.217 11.647C165.798 11.4477 166.504 11.348 167.336 11.348C168.168 11.348 168.87 11.4477 169.442 11.647C170.023 11.8463 170.456 12.1193 170.742 12.466C171.037 12.8127 171.184 13.2113 171.184 13.662ZM170.144 13.571C170.144 13.1637 169.91 12.8213 169.442 12.544C168.983 12.2667 168.281 12.128 167.336 12.128C166.4 12.128 165.694 12.2667 165.217 12.544C164.749 12.8213 164.515 13.1637 164.515 13.571V13.766C164.515 14.1647 164.749 14.5027 165.217 14.78C165.694 15.0573 166.4 15.196 167.336 15.196C168.281 15.196 168.983 15.0573 169.442 14.78C169.91 14.5027 170.144 14.1647 170.144 13.766V13.571Z" fill="white"/>
<rect y="4" width="2" height="10" fill="white"/>
</svg>
