<svg width="995" height="271" viewBox="0 0 995 271" fill="none" xmlns="http://www.w3.org/2000/svg">
<rect y="84" width="995" height="174" fill="white"/>
<path d="M425.071 9.18466H422.855C422.77 8.71117 422.611 8.29451 422.379 7.93466C422.147 7.57481 421.863 7.26941 421.527 7.01847C421.191 6.76752 420.814 6.57812 420.397 6.45028C419.986 6.32244 419.548 6.25852 419.084 6.25852C418.245 6.25852 417.495 6.46922 416.832 6.89062C416.174 7.31203 415.653 7.92992 415.27 8.74432C414.891 9.55871 414.701 10.553 414.701 11.7273C414.701 12.911 414.891 13.91 415.27 14.7244C415.653 15.5388 416.176 16.1544 416.839 16.571C417.502 16.9877 418.248 17.196 419.076 17.196C419.536 17.196 419.971 17.1345 420.383 17.0114C420.8 16.8835 421.176 16.6965 421.513 16.4503C421.849 16.2041 422.133 15.9034 422.365 15.5483C422.602 15.1884 422.765 14.7765 422.855 14.3125L425.071 14.3196C424.952 15.0346 424.723 15.6927 424.382 16.294C424.046 16.8906 423.612 17.4067 423.082 17.8423C422.557 18.2732 421.955 18.607 421.278 18.8438C420.601 19.0805 419.862 19.1989 419.062 19.1989C417.803 19.1989 416.681 18.9006 415.696 18.304C414.711 17.7027 413.934 16.8433 413.366 15.7259C412.803 14.6084 412.521 13.2756 412.521 11.7273C412.521 10.1742 412.805 8.84138 413.373 7.72869C413.942 6.61127 414.718 5.75426 415.703 5.15767C416.688 4.55634 417.808 4.25568 419.062 4.25568C419.834 4.25568 420.554 4.36695 421.221 4.58949C421.894 4.80729 422.497 5.12926 423.032 5.5554C423.567 5.9768 424.01 6.4929 424.361 7.10369C424.711 7.70975 424.948 8.40341 425.071 9.18466ZM441.732 11.7273C441.732 13.2803 441.448 14.6155 440.88 15.733C440.311 16.8456 439.532 17.7027 438.543 18.304C437.558 18.9006 436.438 19.1989 435.183 19.1989C433.924 19.1989 432.799 18.9006 431.81 18.304C430.825 17.7027 430.049 16.8433 429.48 15.7259C428.912 14.6084 428.628 13.2756 428.628 11.7273C428.628 10.1742 428.912 8.84138 429.48 7.72869C430.049 6.61127 430.825 5.75426 431.81 5.15767C432.799 4.55634 433.924 4.25568 435.183 4.25568C436.438 4.25568 437.558 4.55634 438.543 5.15767C439.532 5.75426 440.311 6.61127 440.88 7.72869C441.448 8.84138 441.732 10.1742 441.732 11.7273ZM439.558 11.7273C439.558 10.5436 439.367 9.54687 438.983 8.73722C438.604 7.92282 438.084 7.30729 437.421 6.89062C436.763 6.46922 436.017 6.25852 435.183 6.25852C434.345 6.25852 433.597 6.46922 432.939 6.89062C432.281 7.30729 431.76 7.92282 431.377 8.73722C430.998 9.54687 430.808 10.5436 430.808 11.7273C430.808 12.911 430.998 13.91 431.377 14.7244C431.76 15.5341 432.281 16.1496 432.939 16.571C433.597 16.9877 434.345 17.196 435.183 17.196C436.017 17.196 436.763 16.9877 437.421 16.571C438.084 16.1496 438.604 15.5341 438.983 14.7244C439.367 13.91 439.558 12.911 439.558 11.7273ZM445.868 19V4.45455H448.063V17.1108H454.653V19H445.868ZM470.626 11.7273C470.626 13.2803 470.341 14.6155 469.773 15.733C469.205 16.8456 468.426 17.7027 467.437 18.304C466.452 18.9006 465.332 19.1989 464.077 19.1989C462.818 19.1989 461.693 18.9006 460.704 18.304C459.719 17.7027 458.942 16.8433 458.374 15.7259C457.806 14.6084 457.522 13.2756 457.522 11.7273C457.522 10.1742 457.806 8.84138 458.374 7.72869C458.942 6.61127 459.719 5.75426 460.704 5.15767C461.693 4.55634 462.818 4.25568 464.077 4.25568C465.332 4.25568 466.452 4.55634 467.437 5.15767C468.426 5.75426 469.205 6.61127 469.773 7.72869C470.341 8.84138 470.626 10.1742 470.626 11.7273ZM468.452 11.7273C468.452 10.5436 468.26 9.54687 467.877 8.73722C467.498 7.92282 466.977 7.30729 466.314 6.89062C465.656 6.46922 464.911 6.25852 464.077 6.25852C463.239 6.25852 462.491 6.46922 461.833 6.89062C461.175 7.30729 460.654 7.92282 460.27 8.73722C459.892 9.54687 459.702 10.5436 459.702 11.7273C459.702 12.911 459.892 13.91 460.27 14.7244C460.654 15.5341 461.175 16.1496 461.833 16.571C462.491 16.9877 463.239 17.196 464.077 17.196C464.911 17.196 465.656 16.9877 466.314 16.571C466.977 16.1496 467.498 15.5341 467.877 14.7244C468.26 13.91 468.452 12.911 468.452 11.7273ZM474.762 19V4.45455H479.946C481.073 4.45455 482.008 4.64867 482.752 5.03693C483.5 5.42519 484.059 5.96259 484.428 6.64915C484.797 7.33097 484.982 8.11932 484.982 9.0142C484.982 9.90436 484.795 10.688 484.421 11.3651C484.051 12.0374 483.493 12.5606 482.745 12.9347C482.001 13.3087 481.066 13.4957 479.939 13.4957H476.012V11.6065H479.74C480.451 11.6065 481.028 11.5047 481.473 11.3011C481.923 11.0975 482.252 10.8016 482.461 10.4134C482.669 10.0251 482.773 9.55871 482.773 9.0142C482.773 8.46496 482.667 7.98911 482.453 7.58665C482.245 7.18419 481.916 6.87642 481.466 6.66335C481.021 6.44555 480.436 6.33665 479.712 6.33665H476.956V19H474.762ZM481.942 12.4375L485.536 19H483.036L479.513 12.4375H481.942ZM503.679 8.27557C503.603 7.60322 503.29 7.08239 502.741 6.71307C502.192 6.33902 501.5 6.15199 500.667 6.15199C500.071 6.15199 499.554 6.24669 499.119 6.43608C498.683 6.62074 498.345 6.87642 498.103 7.20312C497.866 7.52509 497.748 7.89205 497.748 8.30398C497.748 8.64962 497.829 8.94792 497.99 9.19886C498.155 9.44981 498.371 9.66051 498.636 9.83097C498.906 9.99669 499.195 10.1364 499.502 10.25C499.81 10.3589 500.106 10.4489 500.39 10.5199L501.811 10.8892C502.275 11.0028 502.75 11.1567 503.238 11.3509C503.726 11.545 504.178 11.8007 504.595 12.1179C505.011 12.4351 505.348 12.8281 505.603 13.2969C505.864 13.7656 505.994 14.3267 505.994 14.9801C505.994 15.804 505.781 16.5355 505.355 17.1747C504.933 17.8139 504.32 18.3182 503.515 18.6875C502.715 19.0568 501.747 19.2415 500.61 19.2415C499.521 19.2415 498.579 19.0687 497.784 18.723C496.988 18.3774 496.366 17.8873 495.916 17.2528C495.466 16.6136 495.217 15.8561 495.17 14.9801H497.372C497.414 15.5057 497.585 15.9437 497.883 16.294C498.186 16.6397 498.572 16.8977 499.041 17.0682C499.514 17.2339 500.033 17.3168 500.596 17.3168C501.216 17.3168 501.768 17.2197 502.251 17.0256C502.739 16.8267 503.122 16.5521 503.402 16.2017C503.681 15.8466 503.821 15.4323 503.821 14.9588C503.821 14.5279 503.697 14.1752 503.451 13.9006C503.21 13.6259 502.881 13.3987 502.464 13.2188C502.052 13.0388 501.586 12.8802 501.065 12.7429L499.346 12.2741C498.181 11.9569 497.258 11.4905 496.576 10.875C495.899 10.2595 495.561 9.44508 495.561 8.43182C495.561 7.59375 495.788 6.86222 496.242 6.23722C496.697 5.61222 497.313 5.12689 498.089 4.78125C498.866 4.43087 499.741 4.25568 500.717 4.25568C501.702 4.25568 502.571 4.4285 503.323 4.77415C504.081 5.11979 504.678 5.59564 505.113 6.2017C505.549 6.80303 505.776 7.49432 505.795 8.27557H503.679ZM508.894 4.45455H511.387L515.187 11.0668H515.343L519.143 4.45455H521.636L516.359 13.2898V19H514.171V13.2898L508.894 4.45455ZM533.041 8.27557C532.965 7.60322 532.653 7.08239 532.104 6.71307C531.554 6.33902 530.863 6.15199 530.03 6.15199C529.433 6.15199 528.917 6.24669 528.481 6.43608C528.046 6.62074 527.707 6.87642 527.466 7.20312C527.229 7.52509 527.111 7.89205 527.111 8.30398C527.111 8.64962 527.191 8.94792 527.352 9.19886C527.518 9.44981 527.733 9.66051 527.998 9.83097C528.268 9.99669 528.557 10.1364 528.865 10.25C529.173 10.3589 529.469 10.4489 529.753 10.5199L531.173 10.8892C531.637 11.0028 532.113 11.1567 532.601 11.3509C533.088 11.545 533.541 11.8007 533.957 12.1179C534.374 12.4351 534.71 12.8281 534.966 13.2969C535.226 13.7656 535.356 14.3267 535.356 14.9801C535.356 15.804 535.143 16.5355 534.717 17.1747C534.296 17.8139 533.683 18.3182 532.878 18.6875C532.077 19.0568 531.109 19.2415 529.973 19.2415C528.884 19.2415 527.942 19.0687 527.146 18.723C526.351 18.3774 525.728 17.8873 525.278 17.2528C524.828 16.6136 524.58 15.8561 524.532 14.9801H526.734C526.777 15.5057 526.947 15.9437 527.246 16.294C527.549 16.6397 527.934 16.8977 528.403 17.0682C528.877 17.2339 529.395 17.3168 529.959 17.3168C530.579 17.3168 531.131 17.2197 531.613 17.0256C532.101 16.8267 532.485 16.5521 532.764 16.2017C533.043 15.8466 533.183 15.4323 533.183 14.9588C533.183 14.5279 533.06 14.1752 532.814 13.9006C532.572 13.6259 532.243 13.3987 531.827 13.2188C531.415 13.0388 530.948 12.8802 530.427 12.7429L528.709 12.2741C527.544 11.9569 526.621 11.4905 525.939 10.875C525.262 10.2595 524.923 9.44508 524.923 8.43182C524.923 7.59375 525.15 6.86222 525.605 6.23722C526.059 5.61222 526.675 5.12689 527.452 4.78125C528.228 4.43087 529.104 4.25568 530.079 4.25568C531.064 4.25568 531.933 4.4285 532.686 4.77415C533.443 5.11979 534.04 5.59564 534.476 6.2017C534.911 6.80303 535.139 7.49432 535.157 8.27557H533.041ZM538.662 6.34375V4.45455H549.919V6.34375H545.38V19H543.193V6.34375H538.662ZM553.806 19V4.45455H562.926V6.34375H556.001V10.7756H562.45V12.6577H556.001V17.1108H563.011V19H553.806ZM567.257 4.45455H569.92L574.551 15.7614H574.721L579.352 4.45455H582.016V19H579.927V8.47443H579.793L575.503 18.9787H573.77L569.48 8.46733H569.345V19H567.257V4.45455Z" fill="white"/>
<path d="M124.062 49.465H125.202V62.485H124.062V49.465ZM114.627 58.9C116.007 58.19 117.062 57.54 117.792 56.95C118.522 56.36 119.032 55.735 119.322 55.075C119.622 54.415 119.772 53.6 119.772 52.63V51.505H115.002V50.53H120.912V52.615C120.912 53.725 120.742 54.665 120.402 55.435C120.072 56.205 119.507 56.925 118.707 57.595C117.917 58.255 116.782 58.98 115.302 59.77L114.627 58.9ZM134.031 50.905H129.921V49.975H139.251V50.905H135.186C135.166 51.635 134.946 52.255 134.526 52.765L134.586 52.795L134.901 52.57C135.031 52.47 135.166 52.42 135.306 52.42C135.406 52.42 135.521 52.445 135.651 52.495L139.806 54.505L139.191 55.345L134.841 53.185C134.701 53.115 134.576 53.08 134.466 53.08C134.366 53.08 134.266 53.105 134.166 53.155C133.776 53.505 133.241 53.86 132.561 54.22C131.891 54.57 131.026 54.955 129.966 55.375L129.366 54.55C130.566 54.08 131.496 53.66 132.156 53.29C132.816 52.92 133.286 52.55 133.566 52.18C133.846 51.81 134.001 51.385 134.031 50.905ZM140.706 56.785V57.76H128.466V56.785H134.016V54.805H135.156V56.785H140.706ZM131.361 61.855H139.131V62.8H130.971C130.731 62.8 130.546 62.735 130.416 62.605C130.286 62.475 130.221 62.285 130.221 62.035V58.945H131.361V61.855ZM160.13 52.45V53.41H158.045V56.29H156.905V49.465H158.045V52.45H160.13ZM151.01 56.02C150.35 56.02 149.76 55.895 149.24 55.645C148.73 55.385 148.33 55.02 148.04 54.55C147.75 54.08 147.605 53.53 147.605 52.9C147.605 52.27 147.75 51.72 148.04 51.25C148.33 50.78 148.73 50.42 149.24 50.17C149.76 49.91 150.35 49.78 151.01 49.78C151.66 49.78 152.24 49.91 152.75 50.17C153.27 50.42 153.675 50.78 153.965 51.25C154.255 51.72 154.4 52.27 154.4 52.9C154.4 53.53 154.255 54.08 153.965 54.55C153.675 55.02 153.27 55.385 152.75 55.645C152.24 55.895 151.66 56.02 151.01 56.02ZM151.01 55.105C151.67 55.105 152.2 54.925 152.6 54.565C153.01 54.205 153.215 53.73 153.215 53.14V52.66C153.215 52.06 153.01 51.585 152.6 51.235C152.2 50.875 151.67 50.695 151.01 50.695C150.35 50.695 149.815 50.875 149.405 51.235C148.995 51.585 148.79 52.06 148.79 52.66V53.14C148.79 53.73 148.995 54.205 149.405 54.565C149.815 54.925 150.35 55.105 151.01 55.105ZM150.965 62.125H158.405V63.1H150.56C150.32 63.1 150.135 63.035 150.005 62.905C149.875 62.775 149.81 62.585 149.81 62.335V59.62H156.905V58.075H149.72V57.115H158.045V60.58H150.965V62.125ZM174.539 55.555H172.379V62.515H171.239V49.495H172.379V54.595H174.539V55.555ZM169.754 57.925L169.904 58.84C168.384 59.14 166.454 59.29 164.114 59.29H162.524V54.265H167.189V51.415H162.464V50.455H168.314V55.21H163.649V58.36H164.144C166.334 58.36 168.204 58.215 169.754 57.925ZM187.568 59.35H186.413V49.465H187.568V59.35ZM184.688 56.38C183.948 56.53 183.063 56.65 182.033 56.74C181.013 56.82 179.918 56.86 178.748 56.86H177.188V50.35H183.248V51.31H178.343V55.915H178.733C179.843 55.915 180.903 55.875 181.913 55.795C182.923 55.715 183.798 55.605 184.538 55.465L184.688 56.38ZM187.838 61.825V62.77H179.978C179.738 62.77 179.553 62.705 179.423 62.575C179.293 62.445 179.228 62.255 179.228 62.005V58.27H180.383V61.825H187.838ZM207.592 60.04V61H195.352V60.04H200.902V57.475H197.152V53.41H204.652V51.205H197.077V50.26H205.792V54.325H198.292V56.53H206.182V57.475H202.042V60.04H207.592ZM219.226 51.52H211.306V50.545H220.351V51.61C220.351 53.83 220.136 55.945 219.706 57.955L218.596 57.775C219.016 55.745 219.226 53.705 219.226 51.655V51.52ZM222.016 60.04V61H209.776V60.04H214.576V55.225H215.701V60.04H222.016ZM235.765 49.465V62.485H234.67V49.465H235.765ZM231.715 49.69H232.78V62.125H231.715V55.3H230.275C230.225 56.6 229.935 57.58 229.405 58.24C228.875 58.89 228.175 59.215 227.305 59.215C226.375 59.215 225.64 58.855 225.1 58.135C224.56 57.405 224.29 56.32 224.29 54.88C224.29 53.44 224.56 52.36 225.1 51.64C225.64 50.91 226.375 50.545 227.305 50.545C228.165 50.545 228.855 50.865 229.375 51.505C229.905 52.145 230.205 53.095 230.275 54.355H231.715V49.69ZM229.135 54.16C229.135 53.28 228.965 52.61 228.625 52.15C228.295 51.69 227.855 51.46 227.305 51.46C226.745 51.46 226.295 51.69 225.955 52.15C225.625 52.61 225.46 53.28 225.46 54.16V55.615C225.46 56.485 225.625 57.155 225.955 57.625C226.295 58.085 226.745 58.315 227.305 58.315C227.855 58.315 228.295 58.085 228.625 57.625C228.965 57.155 229.135 56.485 229.135 55.615V54.16ZM249.799 49.465V62.485H248.674V54.79H245.899V53.83H248.674V49.465H249.799ZM243.304 54.715C243.424 54.715 243.529 54.77 243.619 54.88L246.559 58.63L245.689 59.395L242.749 55.525C242.709 55.475 242.659 55.45 242.599 55.45C242.539 55.45 242.489 55.475 242.449 55.525C242.199 56.105 241.854 56.7 241.414 57.31C240.974 57.92 240.374 58.68 239.614 59.59L238.744 58.855C239.614 57.865 240.279 57.02 240.739 56.32C241.209 55.61 241.544 54.9 241.744 54.19C241.954 53.48 242.059 52.665 242.059 51.745V50.335H243.199V51.73C243.199 52.94 243.034 54.02 242.704 54.97L242.764 55.015L242.974 54.835C243.084 54.755 243.194 54.715 243.304 54.715ZM266.043 50.53H261.483V49.6H266.043V50.53ZM263.193 52.825H259.068V51.895H268.473V52.825H264.348C264.298 53.415 264.083 53.915 263.703 54.325L263.808 54.355L264.093 54.16C264.233 54.06 264.378 54.01 264.528 54.01C264.628 54.01 264.743 54.035 264.873 54.085L268.998 55.84L268.383 56.68L264.033 54.73C263.913 54.67 263.788 54.64 263.658 54.64C263.508 54.64 263.378 54.675 263.268 54.745L263.223 54.76C262.833 55.06 262.308 55.37 261.648 55.69C260.998 56 260.158 56.345 259.128 56.725L258.528 55.9C259.668 55.5 260.563 55.14 261.213 54.82C261.873 54.5 262.353 54.185 262.653 53.875C262.953 53.555 263.133 53.205 263.193 52.825ZM269.883 58.615H264.333V63.01H263.193V58.615H257.643V57.67H269.883V58.615ZM280.467 50.32H275.922V49.465H280.467V50.32ZM277.662 52.27H273.507V51.43H282.867V52.27H278.742C278.692 52.73 278.487 53.115 278.127 53.425L278.202 53.44L278.577 53.23C278.707 53.14 278.857 53.095 279.027 53.095C279.117 53.095 279.217 53.11 279.327 53.14L283.392 54.535L282.822 55.315L278.502 53.755C278.392 53.715 278.262 53.695 278.112 53.695C277.932 53.695 277.787 53.72 277.677 53.77L277.632 53.785C276.892 54.245 275.522 54.76 273.522 55.33L272.967 54.58C274.097 54.27 274.987 53.995 275.637 53.755C276.287 53.515 276.767 53.28 277.077 53.05C277.397 52.81 277.592 52.55 277.662 52.27ZM278.742 56.77V58.015H282.477V60.985H275.007V62.245H282.867V63.145H274.692C274.452 63.145 274.267 63.08 274.137 62.95C274.007 62.82 273.942 62.63 273.942 62.38V60.145H281.427V58.9H273.852V58.015H277.632V56.77H272.067V55.9H284.307V56.77H278.742ZM299.136 53.92V54.88H297.051V59.5H295.911V49.465H297.051V53.92H299.136ZM292.476 50.83H288.471V49.87H292.476V50.83ZM290.376 57.94C289.756 57.94 289.211 57.835 288.741 57.625C288.271 57.415 287.906 57.125 287.646 56.755C287.396 56.385 287.271 55.965 287.271 55.495C287.271 55.025 287.381 54.615 287.601 54.265C287.831 53.905 288.171 53.63 288.621 53.44V53.365H286.281V52.42H294.411V53.365H292.131V53.44C292.581 53.63 292.916 53.905 293.136 54.265C293.366 54.615 293.481 55.025 293.481 55.495C293.481 55.965 293.351 56.385 293.091 56.755C292.841 57.125 292.481 57.415 292.011 57.625C291.541 57.835 290.996 57.94 290.376 57.94ZM290.256 56.98H290.511C291.071 56.98 291.526 56.83 291.876 56.53C292.236 56.22 292.416 55.79 292.416 55.24C292.416 54.69 292.241 54.26 291.891 53.95C291.541 53.64 291.081 53.485 290.511 53.485H290.256C289.686 53.485 289.226 53.64 288.876 53.95C288.526 54.25 288.351 54.68 288.351 55.24C288.351 55.79 288.526 56.22 288.876 56.53C289.236 56.83 289.696 56.98 290.256 56.98ZM290.016 61.9H297.351V62.845H289.626C289.386 62.845 289.201 62.78 289.071 62.65C288.941 62.52 288.876 62.33 288.876 62.08V59.08H290.016V61.9ZM317.075 49.465V57.295H315.965V53.83H313.955V57.13H312.86V49.675H313.955V52.9H315.965V49.465H317.075ZM308.795 54.115C308.715 54.115 308.655 54.145 308.615 54.205C308.385 54.635 308.085 55.08 307.715 55.54C307.345 55.99 306.87 56.51 306.29 57.1L305.495 56.41C306.235 55.64 306.795 54.985 307.175 54.445C307.565 53.895 307.84 53.36 308 52.84C308.17 52.32 308.255 51.72 308.255 51.04V50.215H309.35V51.07C309.35 52.01 309.205 52.845 308.915 53.575L308.975 53.605L309.155 53.455C309.265 53.375 309.365 53.335 309.455 53.335C309.555 53.335 309.655 53.385 309.755 53.485L312.155 56.095L311.375 56.845L308.99 54.205C308.93 54.145 308.865 54.115 308.795 54.115ZM308.255 58.12H317.075V63.145H315.95V59.095H308.255V58.12ZM332.579 52.825V53.785H330.494V57.22H329.354V49.465H330.494V52.825H332.579ZM323.669 53.725C323.599 53.725 323.534 53.76 323.474 53.83C323.214 54.26 322.869 54.705 322.439 55.165C322.019 55.615 321.449 56.175 320.729 56.845L319.889 56.11C320.739 55.35 321.394 54.7 321.854 54.16C322.314 53.62 322.644 53.085 322.844 52.555C323.044 52.025 323.144 51.425 323.144 50.755V49.945H324.284V50.815C324.284 51.725 324.109 52.555 323.759 53.305L323.834 53.365L324.074 53.155C324.184 53.065 324.294 53.02 324.404 53.02C324.514 53.02 324.614 53.065 324.704 53.155L327.554 55.795L326.744 56.575L323.864 53.815C323.804 53.755 323.739 53.725 323.669 53.725ZM330.599 60.34C330.599 60.89 330.444 61.38 330.134 61.81C329.824 62.25 329.359 62.595 328.739 62.845C328.119 63.095 327.359 63.22 326.459 63.22C325.569 63.22 324.809 63.095 324.179 62.845C323.559 62.595 323.089 62.25 322.769 61.81C322.459 61.38 322.304 60.89 322.304 60.34C322.304 59.79 322.459 59.3 322.769 58.87C323.089 58.43 323.559 58.085 324.179 57.835C324.809 57.585 325.569 57.46 326.459 57.46C327.359 57.46 328.119 57.585 328.739 57.835C329.359 58.085 329.824 58.43 330.134 58.87C330.444 59.3 330.599 59.79 330.599 60.34ZM329.399 60.22C329.399 59.7 329.154 59.265 328.664 58.915C328.184 58.565 327.449 58.39 326.459 58.39C325.479 58.39 324.744 58.57 324.254 58.93C323.764 59.28 323.519 59.71 323.519 60.22V60.475C323.519 60.985 323.764 61.415 324.254 61.765C324.744 62.125 325.479 62.305 326.459 62.305C327.449 62.305 328.184 62.125 328.664 61.765C329.154 61.415 329.399 60.985 329.399 60.475V60.22ZM335.978 51.865C335.978 51.135 336.353 50.555 337.103 50.125C337.853 49.685 338.978 49.465 340.478 49.465C341.978 49.465 343.103 49.685 343.853 50.125C344.603 50.555 344.978 51.135 344.978 51.865C344.978 52.595 344.603 53.18 343.853 53.62C343.103 54.06 341.978 54.28 340.478 54.28C338.978 54.28 337.853 54.06 337.103 53.62C336.353 53.18 335.978 52.595 335.978 51.865ZM343.763 51.94V51.775C343.763 51.345 343.488 50.995 342.938 50.725C342.398 50.445 341.578 50.305 340.478 50.305C339.378 50.305 338.553 50.445 338.003 50.725C337.463 50.995 337.193 51.345 337.193 51.775V51.94C337.193 52.37 337.463 52.725 338.003 53.005C338.553 53.275 339.378 53.41 340.478 53.41C341.578 53.41 342.398 53.275 342.938 53.005C343.488 52.725 343.763 52.37 343.763 51.94ZM346.598 55.315V56.275H334.358V55.315H346.598ZM336.263 62.335V59.875H343.658V58.465H336.173V57.535H344.753V60.745H337.358V62.17H345.143V63.1H337.013C336.773 63.1 336.588 63.035 336.458 62.905C336.328 62.775 336.263 62.585 336.263 62.335ZM363.472 55.45H360.532V54.52H363.472V52.48H360.532V51.55H363.472V49.465H364.612V59.35H363.472V55.45ZM360.082 56.875H354.037V50.245H355.132V52.585H358.972V50.215H360.082V56.875ZM358.972 53.515H355.132V55.945H358.972V53.515ZM364.882 61.825V62.77H357.022C356.782 62.77 356.597 62.705 356.467 62.575C356.337 62.445 356.272 62.255 356.272 62.005V58.45H357.427V61.825H364.882ZM377.881 55.855H375.886V54.925H377.881V53.245H375.886V52.33H377.881V49.465H379.021V57.895H377.881V55.855ZM373.861 50.725H369.841V49.78H373.861V50.725ZM371.746 57.385C371.136 57.385 370.601 57.29 370.141 57.1C369.681 56.91 369.326 56.645 369.076 56.305C368.826 55.965 368.701 55.58 368.701 55.15C368.701 54.72 368.806 54.35 369.016 54.04C369.226 53.72 369.541 53.47 369.961 53.29V53.2H367.891V52.285H375.406V53.2H373.546V53.29C373.966 53.47 374.281 53.72 374.491 54.04C374.701 54.35 374.806 54.72 374.806 55.15C374.806 55.58 374.681 55.965 374.431 56.305C374.181 56.645 373.821 56.91 373.351 57.1C372.891 57.29 372.356 57.385 371.746 57.385ZM371.611 56.44H371.896C372.436 56.44 372.881 56.305 373.231 56.035C373.581 55.755 373.756 55.37 373.756 54.88C373.756 54.38 373.581 53.995 373.231 53.725C372.891 53.445 372.446 53.305 371.896 53.305H371.611C371.061 53.305 370.611 53.445 370.261 53.725C369.921 53.995 369.751 54.38 369.751 54.88C369.751 55.37 369.926 55.755 370.276 56.035C370.626 56.305 371.071 56.44 371.611 56.44ZM379.111 60.7C379.111 61.47 378.746 62.09 378.016 62.56C377.296 63.03 376.256 63.265 374.896 63.265C373.526 63.265 372.476 63.03 371.746 62.56C371.026 62.09 370.666 61.47 370.666 60.7C370.666 60.21 370.821 59.775 371.131 59.395C371.451 59.015 371.926 58.715 372.556 58.495C373.196 58.275 373.976 58.165 374.896 58.165C375.806 58.165 376.576 58.275 377.206 58.495C377.846 58.715 378.321 59.015 378.631 59.395C378.951 59.775 379.111 60.21 379.111 60.7ZM377.896 60.61C377.896 60.18 377.646 59.82 377.146 59.53C376.646 59.23 375.896 59.08 374.896 59.08C373.886 59.08 373.126 59.23 372.616 59.53C372.116 59.82 371.866 60.18 371.866 60.61V60.82C371.866 61.25 372.116 61.61 372.616 61.9C373.126 62.2 373.886 62.35 374.896 62.35C375.896 62.35 376.646 62.2 377.146 61.9C377.646 61.61 377.896 61.25 377.896 60.82V60.61ZM393.385 49.465V62.485H392.245V49.465H393.385ZM387.01 54.715C387.15 54.715 387.26 54.77 387.34 54.88L390.31 58.63L389.44 59.395L386.47 55.525C386.43 55.475 386.375 55.45 386.305 55.45C386.245 55.45 386.2 55.475 386.17 55.525C385.9 56.115 385.54 56.72 385.09 57.34C384.65 57.95 384.05 58.7 383.29 59.59L382.42 58.855C383.3 57.865 383.975 57.02 384.445 56.32C384.915 55.61 385.255 54.9 385.465 54.19C385.675 53.48 385.78 52.665 385.78 51.745V50.335H386.92V51.73C386.92 52.92 386.745 54 386.395 54.97L386.47 55.015L386.68 54.835C386.79 54.755 386.9 54.715 387.01 54.715ZM407.884 59.35H406.729V49.465H407.884V59.35ZM397.939 57.955L397.324 57.115C398.784 56.545 399.899 56.005 400.669 55.495C401.449 54.985 401.989 54.435 402.289 53.845L397.444 54.22L397.294 53.26L402.574 52.99C402.614 52.79 402.634 52.56 402.634 52.3V51.28H397.849V50.35H403.729V52.225C403.729 53.095 403.544 53.85 403.174 54.49C402.804 55.12 402.204 55.71 401.374 56.26C400.544 56.8 399.399 57.365 397.939 57.955ZM408.154 61.825V62.77H400.294C400.054 62.77 399.869 62.705 399.739 62.575C399.609 62.445 399.544 62.255 399.544 62.005V58.525H400.699V61.825H408.154ZM427.233 49.465V62.485H426.123V49.465H427.233ZM423.198 49.69H424.293V62.125H423.198V55.12H421.398V58.825H416.133V50.77H421.398V54.175H423.198V49.69ZM420.318 51.7H417.228V57.895H420.318V51.7ZM441.327 49.465V59.35H440.172V49.465H441.327ZM430.527 53.515C430.527 52.815 430.672 52.205 430.962 51.685C431.262 51.165 431.672 50.77 432.192 50.5C432.712 50.22 433.307 50.08 433.977 50.08C434.637 50.08 435.227 50.22 435.747 50.5C436.277 50.77 436.687 51.165 436.977 51.685C437.277 52.205 437.427 52.815 437.427 53.515C437.427 54.205 437.277 54.81 436.977 55.33C436.687 55.85 436.277 56.25 435.747 56.53C435.227 56.8 434.637 56.935 433.977 56.935C433.307 56.935 432.712 56.8 432.192 56.53C431.672 56.25 431.262 55.855 430.962 55.345C430.672 54.825 430.527 54.215 430.527 53.515ZM436.212 53.83V53.2C436.212 52.54 436.002 52.015 435.582 51.625C435.172 51.225 434.637 51.025 433.977 51.025C433.307 51.025 432.762 51.225 432.342 51.625C431.932 52.025 431.727 52.55 431.727 53.2V53.83C431.727 54.48 431.937 55.005 432.357 55.405C432.777 55.795 433.317 55.99 433.977 55.99C434.637 55.99 435.172 55.795 435.582 55.405C436.002 55.005 436.212 54.48 436.212 53.83ZM432.987 62.005V58.27H434.142V61.825H441.597V62.77H433.737C433.497 62.77 433.312 62.705 433.182 62.575C433.052 62.445 432.987 62.255 432.987 62.005ZM460.676 49.465V57.295H459.566V53.83H457.556V57.13H456.461V49.675H457.556V52.9H459.566V49.465H460.676ZM452.396 54.115C452.316 54.115 452.256 54.145 452.216 54.205C451.986 54.635 451.686 55.08 451.316 55.54C450.946 55.99 450.471 56.51 449.891 57.1L449.096 56.41C449.836 55.64 450.396 54.985 450.776 54.445C451.166 53.895 451.441 53.36 451.601 52.84C451.771 52.32 451.856 51.72 451.856 51.04V50.215H452.951V51.07C452.951 52.01 452.806 52.845 452.516 53.575L452.576 53.605L452.756 53.455C452.866 53.375 452.966 53.335 453.056 53.335C453.156 53.335 453.256 53.385 453.356 53.485L455.756 56.095L454.976 56.845L452.591 54.205C452.531 54.145 452.466 54.115 452.396 54.115ZM451.856 58.12H460.676V63.145H459.551V59.095H451.856V58.12ZM476.18 52.825V53.785H474.095V57.22H472.955V49.465H474.095V52.825H476.18ZM467.27 53.725C467.2 53.725 467.135 53.76 467.075 53.83C466.815 54.26 466.47 54.705 466.04 55.165C465.62 55.615 465.05 56.175 464.33 56.845L463.49 56.11C464.34 55.35 464.995 54.7 465.455 54.16C465.915 53.62 466.245 53.085 466.445 52.555C466.645 52.025 466.745 51.425 466.745 50.755V49.945H467.885V50.815C467.885 51.725 467.71 52.555 467.36 53.305L467.435 53.365L467.675 53.155C467.785 53.065 467.895 53.02 468.005 53.02C468.115 53.02 468.215 53.065 468.305 53.155L471.155 55.795L470.345 56.575L467.465 53.815C467.405 53.755 467.34 53.725 467.27 53.725ZM474.2 60.34C474.2 60.89 474.045 61.38 473.735 61.81C473.425 62.25 472.96 62.595 472.34 62.845C471.72 63.095 470.96 63.22 470.06 63.22C469.17 63.22 468.41 63.095 467.78 62.845C467.16 62.595 466.69 62.25 466.37 61.81C466.06 61.38 465.905 60.89 465.905 60.34C465.905 59.79 466.06 59.3 466.37 58.87C466.69 58.43 467.16 58.085 467.78 57.835C468.41 57.585 469.17 57.46 470.06 57.46C470.96 57.46 471.72 57.585 472.34 57.835C472.96 58.085 473.425 58.43 473.735 58.87C474.045 59.3 474.2 59.79 474.2 60.34ZM473 60.22C473 59.7 472.755 59.265 472.265 58.915C471.785 58.565 471.05 58.39 470.06 58.39C469.08 58.39 468.345 58.57 467.855 58.93C467.365 59.28 467.12 59.71 467.12 60.22V60.475C467.12 60.985 467.365 61.415 467.855 61.765C468.345 62.125 469.08 62.305 470.06 62.305C471.05 62.305 471.785 62.125 472.265 61.765C472.755 61.415 473 60.985 473 60.475V60.22ZM490.589 55.78H488.549V62.485H487.424V49.465H488.549V54.82H490.589V55.78ZM484.229 51.595H478.589V50.65H485.339V51.805C485.339 53.395 485.159 54.98 484.799 56.56L483.704 56.395C484.054 54.945 484.229 53.46 484.229 51.94V51.595ZM486.344 58.21L486.449 59.125C485.349 59.305 484.034 59.44 482.504 59.53C480.984 59.62 479.419 59.665 477.809 59.665L477.704 58.705C478.704 58.705 479.699 58.69 480.689 58.66V54.595H481.799V58.615C483.609 58.535 485.124 58.4 486.344 58.21ZM509.608 55.555H507.448V62.515H506.308V49.495H507.448V54.595H509.608V55.555ZM504.448 51.475H497.143V50.53H504.448V51.475ZM505.003 57.775L505.108 58.675C504.098 58.835 502.863 58.955 501.403 59.035C499.953 59.115 498.443 59.155 496.873 59.155L496.768 58.21L498.748 58.195L498.298 52.72L499.408 52.615L499.783 58.18L501.703 58.09L502.183 52.6L503.293 52.705L502.753 58.015C503.653 57.955 504.403 57.875 505.003 57.775ZM512.662 56.965L512.017 56.08C513.377 55.38 514.417 54.76 515.137 54.22C515.867 53.67 516.372 53.125 516.652 52.585C516.932 52.035 517.072 51.405 517.072 50.695V50.185H518.242V50.725C518.242 51.305 518.177 51.825 518.047 52.285C517.927 52.735 517.722 53.16 517.432 53.56L517.507 53.605L517.882 53.32C518.012 53.22 518.142 53.17 518.272 53.17C518.402 53.17 518.532 53.215 518.662 53.305L523.027 56.02L522.367 56.92L517.852 54.01C517.722 53.92 517.582 53.875 517.432 53.875C517.302 53.875 517.172 53.925 517.042 54.025C516.632 54.465 516.077 54.92 515.377 55.39C514.677 55.85 513.772 56.375 512.662 56.965ZM523.642 60.025V61H511.402V60.025H523.642ZM537.391 56.455H536.296V49.465H537.391V56.455ZM533.371 53.485H531.736V52.54H533.371V49.675H534.436V56.365H533.371V53.485ZM532.126 55.705C530.876 55.995 529.371 56.14 527.611 56.14H526.426V50.125H531.376V51.01H527.461V52.675H531.211V53.545H527.461V55.285H527.896C529.416 55.285 530.781 55.145 531.991 54.865L532.126 55.705ZM537.736 62.14V63.1H529.636C529.396 63.1 529.211 63.035 529.081 62.905C528.951 62.775 528.886 62.585 528.886 62.335V59.695H536.251V58.21H528.796V57.25H537.391V60.64H530.026V62.14H537.736ZM552.49 57.235V58.195H540.25V57.235H545.815V55.765H542.095V49.855H550.615V50.8H543.205V52.36H550.39V53.26H543.22V54.82H550.855V55.765H546.94V57.235H552.49ZM543.16 61.945H550.915V62.89H542.77C542.53 62.89 542.345 62.825 542.215 62.695C542.085 62.565 542.02 62.375 542.02 62.125V59.32H543.16V61.945ZM564.724 49.465H565.849V62.485H564.724V49.465ZM555.364 53.365C555.364 52.745 555.519 52.2 555.829 51.73C556.139 51.25 556.564 50.885 557.104 50.635C557.644 50.375 558.254 50.245 558.934 50.245C559.614 50.245 560.224 50.375 560.764 50.635C561.304 50.885 561.729 51.25 562.039 51.73C562.349 52.2 562.504 52.745 562.504 53.365C562.504 53.985 562.349 54.53 562.039 55C561.729 55.47 561.304 55.835 560.764 56.095C560.224 56.345 559.614 56.47 558.934 56.47C558.254 56.47 557.644 56.345 557.104 56.095C556.564 55.835 556.139 55.47 555.829 55C555.519 54.53 555.364 53.985 555.364 53.365ZM561.304 53.545V53.185C561.304 52.585 561.084 52.1 560.644 51.73C560.204 51.36 559.634 51.175 558.934 51.175C558.234 51.175 557.664 51.36 557.224 51.73C556.784 52.1 556.564 52.585 556.564 53.185V53.545C556.564 54.145 556.784 54.63 557.224 55C557.664 55.37 558.234 55.555 558.934 55.555C559.634 55.555 560.204 55.37 560.644 55C561.084 54.63 561.304 54.145 561.304 53.545ZM554.734 58.78C556.434 58.78 558.074 58.74 559.654 58.66C561.234 58.58 562.574 58.455 563.674 58.285L563.794 59.2C562.664 59.38 561.304 59.52 559.714 59.62C558.134 59.71 556.509 59.755 554.839 59.755L554.734 58.78ZM584.868 49.465V62.485H583.743V54.79H580.968V53.83H583.743V49.465H584.868ZM578.373 54.715C578.493 54.715 578.598 54.77 578.688 54.88L581.628 58.63L580.758 59.395L577.818 55.525C577.778 55.475 577.728 55.45 577.668 55.45C577.608 55.45 577.558 55.475 577.518 55.525C577.268 56.105 576.923 56.7 576.483 57.31C576.043 57.92 575.443 58.68 574.683 59.59L573.813 58.855C574.683 57.865 575.348 57.02 575.808 56.32C576.278 55.61 576.613 54.9 576.813 54.19C577.023 53.48 577.128 52.665 577.128 51.745V50.335H578.268V51.73C578.268 52.94 578.103 54.02 577.773 54.97L577.833 55.015L578.043 54.835C578.153 54.755 578.263 54.715 578.373 54.715ZM589.812 50.17H590.937V52.66H597.537V50.17H598.662V57.07H589.812V50.17ZM597.537 56.11V53.62H590.937V56.11H597.537ZM588.117 60.025H600.357V61H588.117V60.025ZM614.106 49.465V57.295H612.996V53.83H610.986V57.13H609.891V49.675H610.986V52.9H612.996V49.465H614.106ZM605.826 54.115C605.746 54.115 605.686 54.145 605.646 54.205C605.416 54.635 605.116 55.08 604.746 55.54C604.376 55.99 603.901 56.51 603.321 57.1L602.526 56.41C603.266 55.64 603.826 54.985 604.206 54.445C604.596 53.895 604.871 53.36 605.031 52.84C605.201 52.32 605.286 51.72 605.286 51.04V50.215H606.381V51.07C606.381 52.01 606.236 52.845 605.946 53.575L606.006 53.605L606.186 53.455C606.296 53.375 606.396 53.335 606.486 53.335C606.586 53.335 606.686 53.385 606.786 53.485L609.186 56.095L608.406 56.845L606.021 54.205C605.961 54.145 605.896 54.115 605.826 54.115ZM605.286 58.12H614.106V63.145H612.981V59.095H605.286V58.12ZM629.61 52.825V53.785H627.525V57.22H626.385V49.465H627.525V52.825H629.61ZM620.7 53.725C620.63 53.725 620.565 53.76 620.505 53.83C620.245 54.26 619.9 54.705 619.47 55.165C619.05 55.615 618.48 56.175 617.76 56.845L616.92 56.11C617.77 55.35 618.425 54.7 618.885 54.16C619.345 53.62 619.675 53.085 619.875 52.555C620.075 52.025 620.175 51.425 620.175 50.755V49.945H621.315V50.815C621.315 51.725 621.14 52.555 620.79 53.305L620.865 53.365L621.105 53.155C621.215 53.065 621.325 53.02 621.435 53.02C621.545 53.02 621.645 53.065 621.735 53.155L624.585 55.795L623.775 56.575L620.895 53.815C620.835 53.755 620.77 53.725 620.7 53.725ZM627.63 60.34C627.63 60.89 627.475 61.38 627.165 61.81C626.855 62.25 626.39 62.595 625.77 62.845C625.15 63.095 624.39 63.22 623.49 63.22C622.6 63.22 621.84 63.095 621.21 62.845C620.59 62.595 620.12 62.25 619.8 61.81C619.49 61.38 619.335 60.89 619.335 60.34C619.335 59.79 619.49 59.3 619.8 58.87C620.12 58.43 620.59 58.085 621.21 57.835C621.84 57.585 622.6 57.46 623.49 57.46C624.39 57.46 625.15 57.585 625.77 57.835C626.39 58.085 626.855 58.43 627.165 58.87C627.475 59.3 627.63 59.79 627.63 60.34ZM626.43 60.22C626.43 59.7 626.185 59.265 625.695 58.915C625.215 58.565 624.48 58.39 623.49 58.39C622.51 58.39 621.775 58.57 621.285 58.93C620.795 59.28 620.55 59.71 620.55 60.22V60.475C620.55 60.985 620.795 61.415 621.285 61.765C621.775 62.125 622.51 62.305 623.49 62.305C624.48 62.305 625.215 62.125 625.695 61.765C626.185 61.415 626.43 60.985 626.43 60.475V60.22ZM633.009 51.865C633.009 51.135 633.384 50.555 634.134 50.125C634.884 49.685 636.009 49.465 637.509 49.465C639.009 49.465 640.134 49.685 640.884 50.125C641.634 50.555 642.009 51.135 642.009 51.865C642.009 52.595 641.634 53.18 640.884 53.62C640.134 54.06 639.009 54.28 637.509 54.28C636.009 54.28 634.884 54.06 634.134 53.62C633.384 53.18 633.009 52.595 633.009 51.865ZM640.794 51.94V51.775C640.794 51.345 640.519 50.995 639.969 50.725C639.429 50.445 638.609 50.305 637.509 50.305C636.409 50.305 635.584 50.445 635.034 50.725C634.494 50.995 634.224 51.345 634.224 51.775V51.94C634.224 52.37 634.494 52.725 635.034 53.005C635.584 53.275 636.409 53.41 637.509 53.41C638.609 53.41 639.429 53.275 639.969 53.005C640.519 52.725 640.794 52.37 640.794 51.94ZM643.629 55.315V56.275H631.389V55.315H643.629ZM633.294 62.335V59.875H640.689V58.465H633.204V57.535H641.784V60.745H634.389V62.17H642.174V63.1H634.044C633.804 63.1 633.619 63.035 633.489 62.905C633.359 62.775 633.294 62.585 633.294 62.335ZM660.503 52.93H657.638V51.985H660.503V49.465H661.643V56.35H660.503V52.93ZM654.398 53.41C654.328 53.41 654.263 53.445 654.203 53.515C653.933 53.925 653.583 54.355 653.153 54.805C652.723 55.245 652.153 55.78 651.443 56.41L650.603 55.675C651.453 54.945 652.108 54.325 652.568 53.815C653.028 53.295 653.358 52.785 653.558 52.285C653.758 51.775 653.858 51.2 653.858 50.56V49.78H655.013V50.62C655.013 51.49 654.838 52.29 654.488 53.02L654.548 53.065L654.803 52.84C654.923 52.75 655.033 52.705 655.133 52.705C655.243 52.705 655.348 52.75 655.448 52.84L658.283 55.345L657.488 56.155L654.593 53.5C654.533 53.44 654.468 53.41 654.398 53.41ZM662.003 62.125V63.1H654.038C653.798 63.1 653.613 63.035 653.483 62.905C653.353 62.775 653.288 62.585 653.288 62.335V59.62H660.488V58.09H653.198V57.115H661.643V60.58H654.443V62.125H662.003ZM674.927 52.69V49.465H676.067V57.295H674.927V53.62H672.197V52.69H674.927ZM666.017 56.845L665.162 56.125C666.002 55.465 666.652 54.895 667.112 54.415C667.572 53.925 667.902 53.445 668.102 52.975C668.312 52.495 668.417 51.96 668.417 51.37V51.22H665.552V50.26H672.392V51.22H669.557V51.415C669.557 52.265 669.382 53.01 669.032 53.65L669.122 53.695L669.362 53.515C669.472 53.435 669.582 53.395 669.692 53.395C669.822 53.395 669.937 53.44 670.037 53.53L672.827 55.87L671.987 56.62L669.152 54.16C669.072 54.1 668.997 54.07 668.927 54.07C668.847 54.07 668.777 54.1 668.717 54.16C668.447 54.55 668.102 54.95 667.682 55.36C667.262 55.77 666.707 56.265 666.017 56.845ZM676.142 60.4C676.142 60.94 675.982 61.42 675.662 61.84C675.352 62.27 674.877 62.605 674.237 62.845C673.607 63.095 672.837 63.22 671.927 63.22C671.007 63.22 670.227 63.095 669.587 62.845C668.957 62.605 668.482 62.27 668.162 61.84C667.852 61.42 667.697 60.94 667.697 60.4C667.697 59.86 667.852 59.38 668.162 58.96C668.482 58.53 668.957 58.195 669.587 57.955C670.227 57.705 671.007 57.58 671.927 57.58C672.837 57.58 673.607 57.705 674.237 57.955C674.877 58.195 675.352 58.53 675.662 58.96C675.982 59.38 676.142 59.86 676.142 60.4ZM674.942 60.28C674.942 59.77 674.692 59.345 674.192 59.005C673.692 58.655 672.937 58.48 671.927 58.48C670.907 58.48 670.142 58.655 669.632 59.005C669.132 59.345 668.882 59.77 668.882 60.28V60.535C668.882 61.035 669.132 61.455 669.632 61.795C670.142 62.145 670.907 62.32 671.927 62.32C672.937 62.32 673.692 62.145 674.192 61.795C674.692 61.455 674.942 61.035 674.942 60.535V60.28ZM691.886 55.795H689.771V62.515H688.631V49.495H689.771V54.835H691.886V55.795ZM685.436 51.175H681.176V50.2H685.436V51.175ZM679.181 52.975H687.206V53.905H684.986V53.995C685.896 54.445 686.351 55.31 686.351 56.59C686.351 57.24 686.216 57.805 685.946 58.285C685.676 58.755 685.301 59.115 684.821 59.365C684.351 59.615 683.826 59.74 683.246 59.74C682.666 59.74 682.136 59.615 681.656 59.365C681.186 59.115 680.816 58.755 680.546 58.285C680.276 57.805 680.141 57.24 680.141 56.59C680.141 55.31 680.596 54.445 681.506 53.995V53.905H679.181V52.975ZM685.241 56.095C685.241 55.425 685.061 54.915 684.701 54.565C684.341 54.205 683.856 54.025 683.246 54.025C682.646 54.025 682.161 54.205 681.791 54.565C681.431 54.925 681.251 55.435 681.251 56.095V56.71C681.251 57.36 681.436 57.87 681.806 58.24C682.176 58.6 682.656 58.78 683.246 58.78C683.836 58.78 684.316 58.6 684.686 58.24C685.056 57.87 685.241 57.36 685.241 56.71V56.095ZM704.87 49.465V62.485H703.745V57.01H701.195V56.08H703.745V53.26H701.195V52.33H703.745V49.465H704.87ZM700.88 54.73C700.88 56.19 700.565 57.295 699.935 58.045C699.305 58.795 698.475 59.17 697.445 59.17C696.405 59.17 695.57 58.795 694.94 58.045C694.31 57.295 693.995 56.19 693.995 54.73C693.995 53.27 694.31 52.165 694.94 51.415C695.57 50.665 696.405 50.29 697.445 50.29C698.475 50.29 699.305 50.665 699.935 51.415C700.565 52.165 700.88 53.27 700.88 54.73ZM699.68 54.13C699.68 53.19 699.475 52.475 699.065 51.985C698.655 51.485 698.115 51.235 697.445 51.235C696.765 51.235 696.22 51.485 695.81 51.985C695.4 52.475 695.195 53.19 695.195 54.13V55.33C695.195 56.27 695.4 56.99 695.81 57.49C696.22 57.98 696.765 58.225 697.445 58.225C698.115 58.225 698.655 57.98 699.065 57.49C699.475 56.99 699.68 56.27 699.68 55.33V54.13ZM725.344 52.45V53.41H723.259V56.29H722.119V49.465H723.259V52.45H725.344ZM716.224 56.02C715.564 56.02 714.974 55.895 714.454 55.645C713.944 55.385 713.544 55.02 713.254 54.55C712.964 54.08 712.819 53.53 712.819 52.9C712.819 52.27 712.964 51.72 713.254 51.25C713.544 50.78 713.944 50.42 714.454 50.17C714.974 49.91 715.564 49.78 716.224 49.78C716.874 49.78 717.454 49.91 717.964 50.17C718.484 50.42 718.889 50.78 719.179 51.25C719.469 51.72 719.614 52.27 719.614 52.9C719.614 53.53 719.469 54.08 719.179 54.55C718.889 55.02 718.484 55.385 717.964 55.645C717.454 55.895 716.874 56.02 716.224 56.02ZM716.224 55.105C716.884 55.105 717.414 54.925 717.814 54.565C718.224 54.205 718.429 53.73 718.429 53.14V52.66C718.429 52.06 718.224 51.585 717.814 51.235C717.414 50.875 716.884 50.695 716.224 50.695C715.564 50.695 715.029 50.875 714.619 51.235C714.209 51.585 714.004 52.06 714.004 52.66V53.14C714.004 53.73 714.209 54.205 714.619 54.565C715.029 54.925 715.564 55.105 716.224 55.105ZM716.179 62.125H723.619V63.1H715.774C715.534 63.1 715.349 63.035 715.219 62.905C715.089 62.775 715.024 62.585 715.024 62.335V59.62H722.119V58.075H714.934V57.115H723.259V60.58H716.179V62.125ZM739.753 55.555H737.593V62.515H736.453V49.495H737.593V54.595H739.753V55.555ZM734.968 57.925L735.118 58.84C733.598 59.14 731.668 59.29 729.328 59.29H727.738V54.265H732.403V51.415H727.678V50.455H733.528V55.21H728.863V58.36H729.358C731.548 58.36 733.418 58.215 734.968 57.925ZM752.782 59.35H751.627V49.465H752.782V59.35ZM749.902 56.38C749.162 56.53 748.277 56.65 747.247 56.74C746.227 56.82 745.132 56.86 743.962 56.86H742.402V50.35H748.462V51.31H743.557V55.915H743.947C745.057 55.915 746.117 55.875 747.127 55.795C748.137 55.715 749.012 55.605 749.752 55.465L749.902 56.38ZM753.052 61.825V62.77H745.192C744.952 62.77 744.767 62.705 744.637 62.575C744.507 62.445 744.442 62.255 744.442 62.005V58.27H745.597V61.825H753.052ZM772.806 56.785V57.76H760.566V56.785H766.116V55.27H762.381V49.75H763.506V51.565H769.881V49.75H770.991V55.27H767.256V56.785H772.806ZM763.506 54.325H769.881V52.51H763.506V54.325ZM763.461 61.855H771.231V62.8H763.071C762.831 62.8 762.646 62.735 762.516 62.605C762.386 62.475 762.321 62.285 762.321 62.035V58.945H763.461V61.855ZM785.085 55.45H782.415V54.52H785.085V52.48H782.415V51.55H785.085V49.465H786.225V59.35H785.085V55.45ZM778.74 56.95C778.08 56.95 777.495 56.815 776.985 56.545C776.475 56.265 776.075 55.865 775.785 55.345C775.495 54.825 775.35 54.215 775.35 53.515C775.35 52.815 775.495 52.205 775.785 51.685C776.075 51.165 776.475 50.77 776.985 50.5C777.495 50.22 778.08 50.08 778.74 50.08C779.4 50.08 779.985 50.22 780.495 50.5C781.005 50.77 781.405 51.165 781.695 51.685C781.985 52.205 782.13 52.815 782.13 53.515C782.13 54.215 781.985 54.825 781.695 55.345C781.405 55.865 781.005 56.265 780.495 56.545C779.985 56.815 779.4 56.95 778.74 56.95ZM778.74 56.02C779.39 56.02 779.915 55.825 780.315 55.435C780.725 55.035 780.93 54.505 780.93 53.845V53.2C780.93 52.54 780.725 52.01 780.315 51.61C779.915 51.21 779.39 51.01 778.74 51.01C778.08 51.01 777.545 51.21 777.135 51.61C776.735 52.01 776.535 52.54 776.535 53.2V53.845C776.535 54.505 776.735 55.035 777.135 55.435C777.545 55.825 778.08 56.02 778.74 56.02ZM786.495 61.825V62.77H778.635C778.395 62.77 778.21 62.705 778.08 62.575C777.95 62.445 777.885 62.255 777.885 62.005V58.27H779.04V61.825H786.495ZM799.464 49.465H800.589V62.485H799.464V49.465ZM790.104 53.365C790.104 52.745 790.259 52.2 790.569 51.73C790.879 51.25 791.304 50.885 791.844 50.635C792.384 50.375 792.994 50.245 793.674 50.245C794.354 50.245 794.964 50.375 795.504 50.635C796.044 50.885 796.469 51.25 796.779 51.73C797.089 52.2 797.244 52.745 797.244 53.365C797.244 53.985 797.089 54.53 796.779 55C796.469 55.47 796.044 55.835 795.504 56.095C794.964 56.345 794.354 56.47 793.674 56.47C792.994 56.47 792.384 56.345 791.844 56.095C791.304 55.835 790.879 55.47 790.569 55C790.259 54.53 790.104 53.985 790.104 53.365ZM796.044 53.545V53.185C796.044 52.585 795.824 52.1 795.384 51.73C794.944 51.36 794.374 51.175 793.674 51.175C792.974 51.175 792.404 51.36 791.964 51.73C791.524 52.1 791.304 52.585 791.304 53.185V53.545C791.304 54.145 791.524 54.63 791.964 55C792.404 55.37 792.974 55.555 793.674 55.555C794.374 55.555 794.944 55.37 795.384 55C795.824 54.63 796.044 54.145 796.044 53.545ZM789.474 58.78C791.174 58.78 792.814 58.74 794.394 58.66C795.974 58.58 797.314 58.455 798.414 58.285L798.534 59.2C797.404 59.38 796.044 59.52 794.454 59.62C792.874 59.71 791.249 59.755 789.579 59.755L789.474 58.78ZM819.998 49.465V57.295H818.888V53.83H816.878V57.13H815.783V49.675H816.878V52.9H818.888V49.465H819.998ZM811.718 54.115C811.638 54.115 811.578 54.145 811.538 54.205C811.308 54.635 811.008 55.08 810.638 55.54C810.268 55.99 809.793 56.51 809.213 57.1L808.418 56.41C809.158 55.64 809.718 54.985 810.098 54.445C810.488 53.895 810.763 53.36 810.923 52.84C811.093 52.32 811.178 51.72 811.178 51.04V50.215H812.273V51.07C812.273 52.01 812.128 52.845 811.838 53.575L811.898 53.605L812.078 53.455C812.188 53.375 812.288 53.335 812.378 53.335C812.478 53.335 812.578 53.385 812.678 53.485L815.078 56.095L814.298 56.845L811.913 54.205C811.853 54.145 811.788 54.115 811.718 54.115ZM811.178 58.12H819.998V63.145H818.873V59.095H811.178V58.12ZM835.502 53.725H833.417V56.98H832.277V49.465H833.417V52.765H835.502V53.725ZM823.727 56.935L823.127 56.065C824.477 55.545 825.502 55.08 826.202 54.67C826.912 54.25 827.407 53.815 827.687 53.365C827.977 52.905 828.122 52.35 828.122 51.7V51.13H823.502V50.17H829.277V51.58C829.277 52.45 829.112 53.175 828.782 53.755C828.462 54.325 827.912 54.855 827.132 55.345C826.352 55.825 825.217 56.355 823.727 56.935ZM825.302 57.79H833.417V63.025H826.052C825.812 63.025 825.627 62.96 825.497 62.83C825.367 62.7 825.302 62.51 825.302 62.26V57.79ZM826.442 62.065H832.277V58.735H826.442V62.065ZM838.901 51.865C838.901 51.135 839.276 50.555 840.026 50.125C840.776 49.685 841.901 49.465 843.401 49.465C844.901 49.465 846.026 49.685 846.776 50.125C847.526 50.555 847.901 51.135 847.901 51.865C847.901 52.595 847.526 53.18 846.776 53.62C846.026 54.06 844.901 54.28 843.401 54.28C841.901 54.28 840.776 54.06 840.026 53.62C839.276 53.18 838.901 52.595 838.901 51.865ZM846.686 51.94V51.775C846.686 51.345 846.411 50.995 845.861 50.725C845.321 50.445 844.501 50.305 843.401 50.305C842.301 50.305 841.476 50.445 840.926 50.725C840.386 50.995 840.116 51.345 840.116 51.775V51.94C840.116 52.37 840.386 52.725 840.926 53.005C841.476 53.275 842.301 53.41 843.401 53.41C844.501 53.41 845.321 53.275 845.861 53.005C846.411 52.725 846.686 52.37 846.686 51.94ZM849.521 55.315V56.275H837.281V55.315H849.521ZM839.186 62.335V59.875H846.581V58.465H839.096V57.535H847.676V60.745H840.281V62.17H848.066V63.1H839.936C839.696 63.1 839.511 63.035 839.381 62.905C839.251 62.775 839.186 62.585 839.186 62.335ZM857.89 52.66C857.89 52.08 858.055 51.56 858.385 51.1C858.715 50.64 859.22 50.28 859.9 50.02C860.58 49.75 861.42 49.615 862.42 49.615C863.42 49.615 864.26 49.75 864.94 50.02C865.62 50.28 866.125 50.64 866.455 51.1C866.785 51.56 866.95 52.08 866.95 52.66C866.95 53.24 866.785 53.76 866.455 54.22C866.125 54.68 865.62 55.045 864.94 55.315C864.26 55.585 863.42 55.72 862.42 55.72C861.42 55.72 860.58 55.585 859.9 55.315C859.22 55.045 858.715 54.68 858.385 54.22C858.055 53.76 857.89 53.24 857.89 52.66ZM859.12 52.81C859.12 53.38 859.395 53.855 859.945 54.235C860.495 54.615 861.32 54.805 862.42 54.805C863.52 54.805 864.345 54.615 864.895 54.235C865.445 53.855 865.72 53.38 865.72 52.81V52.525C865.72 51.955 865.445 51.48 864.895 51.1C864.345 50.71 863.52 50.515 862.42 50.515C861.33 50.515 860.505 50.71 859.945 51.1C859.395 51.48 859.12 51.955 859.12 52.525V52.81ZM868.54 58.09H865.375V62.935H864.25V58.09H860.59V62.935H859.465V58.09H856.3V57.13H868.54V58.09ZM881.884 49.465V62.485H880.744V49.465H881.884ZM875.614 54.97C875.754 54.97 875.869 55.025 875.959 55.135L878.899 58.585L878.044 59.32L875.074 55.75C875.024 55.69 874.964 55.66 874.894 55.66C874.834 55.66 874.779 55.69 874.729 55.75C874.459 56.3 874.104 56.86 873.664 57.43C873.224 58 872.624 58.7 871.864 59.53L871.009 58.81C871.879 57.9 872.549 57.11 873.019 56.44C873.499 55.77 873.844 55.105 874.054 54.445C874.264 53.775 874.369 53.015 874.369 52.165V51.595H871.414V50.635H878.449V51.595H875.509V52.21C875.509 53.34 875.334 54.345 874.984 55.225L875.059 55.27L875.284 55.09C875.394 55.01 875.504 54.97 875.614 54.97Z" fill="white"/>
<path fill-rule="evenodd" clip-rule="evenodd" d="M211.5 186C227.24 186 240 173.24 240 157.5C240 155.803 239.852 154.142 239.568 152.527C237.971 156.546 232.428 158.306 231.037 158.306C229.733 158.306 220.173 163.139 215.556 165.556C216.642 166.898 218.815 169.744 218.815 170.389C218.815 171.194 213.111 172 211.481 172C209.852 172 204.148 171.194 203.333 170.389C202.681 169.744 205.235 167.435 206.593 166.361C204.691 165.019 199.422 161.689 193.556 159.111C190.602 157.813 186.697 156.869 183.028 156.217C183.01 156.643 183 157.07 183 157.5C183 173.24 195.76 186 211.5 186ZM183.501 152.153C186.003 138.969 197.587 129 211.5 129C222.411 129 231.889 135.131 236.679 144.136C235.284 143.311 233.74 143 232.667 143C230.222 143 224.519 145.417 226.148 150.25C227.452 154.117 231.58 153.472 233.481 152.667C233.753 151.593 234.133 149.283 233.481 148.639C232.83 147.994 231.58 148.37 231.037 148.639L231.852 150.25C231.852 151.056 231.526 152.506 230.222 151.861C228.593 151.056 226.963 147.028 229.407 146.222C231.852 145.417 236.741 145.417 236.741 148.639C236.741 151.861 235.926 155.083 230.222 155.083C225.659 155.083 215.827 151.861 211.481 150.25C212.296 148.639 213.437 145.417 211.481 145.417C209.037 145.417 209.037 148.639 209.852 149.444C210.667 150.25 203.333 154.278 197.63 153.472C197.51 153.455 197.386 153.438 197.257 153.42C194.155 152.98 188.483 152.177 183.501 152.153Z" fill="#002C6A"/>
<path d="M182.142 207.925H179.832L179.292 211H178.332L178.872 207.925H176.952V207.025H179.022L179.442 204.505H177.537V203.605H179.607L180.132 200.53H181.092L180.567 203.605H182.877L183.402 200.53H184.362L183.837 203.605H185.757V204.505H183.672L183.252 207.025H185.172V207.925H183.102L182.562 211H181.602L182.142 207.925ZM182.292 207.025L182.712 204.505H180.402L179.982 207.025H182.292ZM192.296 211.18C191.046 211.18 190.131 210.705 189.551 209.755C188.981 208.805 188.696 207.475 188.696 205.765C188.696 204.055 188.981 202.725 189.551 201.775C190.131 200.825 191.046 200.35 192.296 200.35C193.546 200.35 194.456 200.825 195.026 201.775C195.606 202.725 195.896 204.055 195.896 205.765C195.896 207.475 195.606 208.805 195.026 209.755C194.456 210.705 193.546 211.18 192.296 211.18ZM192.296 210.085C192.706 210.085 193.056 210 193.346 209.83C193.636 209.66 193.871 209.42 194.051 209.11C194.231 208.8 194.361 208.435 194.441 208.015C194.531 207.595 194.576 207.13 194.576 206.62V204.91C194.576 204.4 194.531 203.935 194.441 203.515C194.361 203.095 194.231 202.73 194.051 202.42C193.871 202.11 193.636 201.87 193.346 201.7C193.056 201.53 192.706 201.445 192.296 201.445C191.886 201.445 191.536 201.53 191.246 201.7C190.956 201.87 190.721 202.11 190.541 202.42C190.361 202.73 190.226 203.095 190.136 203.515C190.056 203.935 190.016 204.4 190.016 204.91V206.62C190.016 207.13 190.056 207.595 190.136 208.015C190.226 208.435 190.361 208.8 190.541 209.11C190.721 209.42 190.956 209.66 191.246 209.83C191.536 210 191.886 210.085 192.296 210.085ZM202.34 211.18C201.09 211.18 200.175 210.705 199.595 209.755C199.025 208.805 198.74 207.475 198.74 205.765C198.74 204.055 199.025 202.725 199.595 201.775C200.175 200.825 201.09 200.35 202.34 200.35C203.59 200.35 204.5 200.825 205.07 201.775C205.65 202.725 205.94 204.055 205.94 205.765C205.94 207.475 205.65 208.805 205.07 209.755C204.5 210.705 203.59 211.18 202.34 211.18ZM202.34 210.085C202.75 210.085 203.1 210 203.39 209.83C203.68 209.66 203.915 209.42 204.095 209.11C204.275 208.8 204.405 208.435 204.485 208.015C204.575 207.595 204.62 207.13 204.62 206.62V204.91C204.62 204.4 204.575 203.935 204.485 203.515C204.405 203.095 204.275 202.73 204.095 202.42C203.915 202.11 203.68 201.87 203.39 201.7C203.1 201.53 202.75 201.445 202.34 201.445C201.93 201.445 201.58 201.53 201.29 201.7C201 201.87 200.765 202.11 200.585 202.42C200.405 202.73 200.27 203.095 200.18 203.515C200.1 203.935 200.06 204.4 200.06 204.91V206.62C200.06 207.13 200.1 207.595 200.18 208.015C200.27 208.435 200.405 208.8 200.585 209.11C200.765 209.42 201 209.66 201.29 209.83C201.58 210 201.93 210.085 202.34 210.085ZM215.879 211H209.009V209.71L212.429 206.56C212.919 206.11 213.329 205.635 213.659 205.135C213.989 204.625 214.154 204.115 214.154 203.605V203.425C214.154 202.845 213.994 202.375 213.674 202.015C213.354 201.655 212.869 201.475 212.219 201.475C211.899 201.475 211.619 201.52 211.379 201.61C211.139 201.7 210.929 201.825 210.749 201.985C210.579 202.145 210.434 202.335 210.314 202.555C210.204 202.765 210.114 202.995 210.044 203.245L208.919 202.81C209.019 202.5 209.154 202.2 209.324 201.91C209.504 201.61 209.724 201.345 209.984 201.115C210.254 200.885 210.574 200.7 210.944 200.56C211.324 200.42 211.769 200.35 212.279 200.35C212.789 200.35 213.244 200.425 213.644 200.575C214.044 200.725 214.379 200.935 214.649 201.205C214.919 201.475 215.124 201.795 215.264 202.165C215.414 202.535 215.489 202.945 215.489 203.395C215.489 203.805 215.429 204.185 215.309 204.535C215.199 204.885 215.044 205.22 214.844 205.54C214.644 205.85 214.399 206.155 214.109 206.455C213.829 206.755 213.524 207.055 213.194 207.355L210.374 209.89H215.879V211ZM223.013 211.18C221.683 211.18 220.648 210.73 219.908 209.83C219.168 208.92 218.798 207.585 218.798 205.825C218.798 204.065 219.168 202.715 219.908 201.775C220.648 200.825 221.683 200.35 223.013 200.35C223.893 200.35 224.628 200.55 225.218 200.95C225.818 201.35 226.283 201.915 226.613 202.645L225.593 203.26C225.383 202.72 225.063 202.29 224.633 201.97C224.203 201.64 223.663 201.475 223.013 201.475C222.563 201.475 222.158 201.56 221.798 201.73C221.448 201.9 221.148 202.145 220.898 202.465C220.658 202.775 220.473 203.15 220.343 203.59C220.213 204.02 220.148 204.505 220.148 205.045V206.605C220.148 207.685 220.398 208.53 220.898 209.14C221.398 209.75 222.103 210.055 223.013 210.055C223.683 210.055 224.243 209.885 224.693 209.545C225.143 209.195 225.473 208.735 225.683 208.165L226.688 208.795C226.358 209.535 225.883 210.12 225.263 210.55C224.643 210.97 223.893 211.18 223.013 211.18ZM232.809 211.18C232.269 211.18 231.779 211.09 231.339 210.91C230.909 210.72 230.539 210.455 230.229 210.115C229.929 209.765 229.699 209.34 229.539 208.84C229.379 208.34 229.299 207.78 229.299 207.16C229.299 206.38 229.414 205.65 229.644 204.97C229.874 204.28 230.169 203.655 230.529 203.095C230.899 202.525 231.304 202.025 231.744 201.595C232.184 201.155 232.614 200.8 233.034 200.53H234.654C234.094 200.94 233.594 201.34 233.154 201.73C232.714 202.12 232.329 202.53 231.999 202.96C231.669 203.38 231.389 203.835 231.159 204.325C230.929 204.805 230.744 205.35 230.604 205.96L230.679 205.99C230.929 205.56 231.249 205.205 231.639 204.925C232.039 204.635 232.559 204.49 233.199 204.49C233.649 204.49 234.064 204.565 234.444 204.715C234.824 204.865 235.149 205.08 235.419 205.36C235.689 205.64 235.899 205.98 236.049 206.38C236.209 206.78 236.289 207.225 236.289 207.715C236.289 208.225 236.204 208.695 236.034 209.125C235.874 209.545 235.639 209.91 235.329 210.22C235.029 210.52 234.664 210.755 234.234 210.925C233.804 211.095 233.329 211.18 232.809 211.18ZM232.794 210.085C233.484 210.085 234.019 209.895 234.399 209.515C234.789 209.135 234.984 208.59 234.984 207.88V207.76C234.984 207.05 234.789 206.505 234.399 206.125C234.019 205.745 233.484 205.555 232.794 205.555C232.104 205.555 231.564 205.745 231.174 206.125C230.794 206.505 230.604 207.05 230.604 207.76V207.88C230.604 208.59 230.794 209.135 231.174 209.515C231.564 209.895 232.104 210.085 232.794 210.085ZM246.288 211L245.238 207.91H241.008L239.958 211H238.683L242.343 200.53H243.948L247.608 211H246.288ZM243.153 201.7H243.078L241.308 206.8H244.923L243.153 201.7Z" fill="#111111"/>
<path d="M274.235 207.925H271.925L271.385 211H270.425L270.965 207.925H269.045V207.025H271.115L271.535 204.505H269.63V203.605H271.7L272.225 200.53H273.185L272.66 203.605H274.97L275.495 200.53H276.455L275.93 203.605H277.85V204.505H275.765L275.345 207.025H277.265V207.925H275.195L274.655 211H273.695L274.235 207.925ZM274.385 207.025L274.805 204.505H272.495L272.075 207.025H274.385ZM281.284 211V200.53H287.674V201.64H282.544V205.15H287.374V206.26H282.544V209.89H287.674V211H281.284ZM295.309 211V208.945H290.254V207.835L294.634 200.53H296.509V207.895H298.024V208.945H296.509V211H295.309ZM291.439 207.895H295.309V201.505H295.234L291.439 207.895ZM307.198 201.64H302.608L302.308 205.63H302.413C302.663 205.28 302.943 205 303.253 204.79C303.573 204.58 304.008 204.475 304.558 204.475C305.008 204.475 305.423 204.55 305.803 204.7C306.183 204.85 306.513 205.065 306.793 205.345C307.073 205.615 307.288 205.95 307.438 206.35C307.598 206.75 307.678 207.205 307.678 207.715C307.678 208.225 307.598 208.695 307.438 209.125C307.278 209.545 307.043 209.91 306.733 210.22C306.433 210.52 306.063 210.755 305.623 210.925C305.193 211.095 304.703 211.18 304.153 211.18C303.713 211.18 303.323 211.13 302.983 211.03C302.653 210.93 302.358 210.795 302.098 210.625C301.838 210.455 301.608 210.265 301.408 210.055C301.218 209.845 301.043 209.625 300.883 209.395L301.828 208.675C301.958 208.885 302.093 209.075 302.233 209.245C302.383 209.415 302.543 209.56 302.713 209.68C302.893 209.8 303.098 209.895 303.328 209.965C303.558 210.025 303.833 210.055 304.153 210.055C304.873 210.055 305.418 209.865 305.788 209.485C306.158 209.105 306.343 208.57 306.343 207.88V207.73C306.343 207.04 306.158 206.505 305.788 206.125C305.418 205.745 304.873 205.555 304.153 205.555C303.673 205.555 303.293 205.645 303.013 205.825C302.743 205.995 302.498 206.2 302.278 206.44L301.213 206.29L301.588 200.53H307.198V201.64ZM311.092 211V209.89H314.017V201.46H313.912L311.272 203.92L310.537 203.125L313.312 200.53H315.277V209.89H317.977V211H311.092ZM322.441 211L326.446 201.61H321.976V203.56H320.851V200.53H327.721V201.64L323.791 211H322.441ZM331.18 211V209.89H334.105V201.46H334L331.36 203.92L330.625 203.125L333.4 200.53H335.365V209.89H338.065V211H331.18Z" fill="#111111"/>
<path d="M371.208 207.925H368.898L368.358 211H367.398L367.938 207.925H366.018V207.025H368.088L368.508 204.505H366.603V203.605H368.673L369.198 200.53H370.158L369.633 203.605H371.943L372.468 200.53H373.428L372.903 203.605H374.823V204.505H372.738L372.318 207.025H374.238V207.925H372.168L371.628 211H370.668L371.208 207.925ZM371.358 207.025L371.778 204.505H369.468L369.048 207.025H371.358ZM378.256 211V200.53H384.496V201.64H379.516V205.15H384.061V206.26H379.516V211H378.256ZM390.79 211.18C390.19 211.18 389.665 211.105 389.215 210.955C388.765 210.795 388.385 210.58 388.075 210.31C387.775 210.04 387.545 209.72 387.385 209.35C387.235 208.98 387.16 208.58 387.16 208.15C387.16 207.43 387.355 206.86 387.745 206.44C388.135 206.02 388.645 205.725 389.275 205.555V205.435C388.725 205.245 388.285 204.94 387.955 204.52C387.635 204.09 387.475 203.575 387.475 202.975C387.475 202.175 387.765 201.54 388.345 201.07C388.925 200.59 389.74 200.35 390.79 200.35C391.84 200.35 392.655 200.59 393.235 201.07C393.815 201.54 394.105 202.175 394.105 202.975C394.105 203.575 393.94 204.09 393.61 204.52C393.29 204.94 392.855 205.245 392.305 205.435V205.555C392.935 205.725 393.445 206.02 393.835 206.44C394.225 206.86 394.42 207.43 394.42 208.15C394.42 208.58 394.34 208.98 394.18 209.35C394.03 209.72 393.8 210.04 393.49 210.31C393.19 210.58 392.815 210.795 392.365 210.955C391.915 211.105 391.39 211.18 390.79 211.18ZM390.79 210.085C391.52 210.085 392.085 209.925 392.485 209.605C392.885 209.275 393.085 208.81 393.085 208.21V207.895C393.085 207.295 392.885 206.835 392.485 206.515C392.085 206.185 391.52 206.02 390.79 206.02C390.06 206.02 389.495 206.185 389.095 206.515C388.695 206.835 388.495 207.295 388.495 207.895V208.21C388.495 208.81 388.695 209.275 389.095 209.605C389.495 209.925 390.06 210.085 390.79 210.085ZM390.79 204.97C391.45 204.97 391.95 204.83 392.29 204.55C392.63 204.27 392.8 203.86 392.8 203.32V203.095C392.8 202.555 392.63 202.145 392.29 201.865C391.95 201.585 391.45 201.445 390.79 201.445C390.13 201.445 389.63 201.585 389.29 201.865C388.95 202.145 388.78 202.555 388.78 203.095V203.32C388.78 203.86 388.95 204.27 389.29 204.55C389.63 204.83 390.13 204.97 390.79 204.97ZM404.284 211L403.234 207.91H399.004L397.954 211H396.679L400.339 200.53H401.944L405.604 211H404.284ZM401.149 201.7H401.074L399.304 206.8H402.919L401.149 201.7ZM409.619 211L413.624 201.61H409.154V203.56H408.029V200.53H414.899V201.64L410.969 211H409.619ZM425.033 204.37C425.033 205.15 424.918 205.885 424.688 206.575C424.458 207.255 424.158 207.88 423.788 208.45C423.428 209.01 423.028 209.51 422.588 209.95C422.148 210.38 421.718 210.73 421.298 211H419.678C420.238 210.59 420.738 210.19 421.178 209.8C421.618 209.41 422.003 209.005 422.333 208.585C422.663 208.155 422.943 207.7 423.173 207.22C423.403 206.73 423.588 206.18 423.728 205.57L423.653 205.54C423.403 205.97 423.078 206.33 422.678 206.62C422.288 206.9 421.773 207.04 421.133 207.04C420.683 207.04 420.268 206.965 419.888 206.815C419.508 206.665 419.183 206.45 418.913 206.17C418.643 205.89 418.428 205.555 418.268 205.165C418.118 204.765 418.043 204.315 418.043 203.815C418.043 203.305 418.123 202.84 418.283 202.42C418.453 201.99 418.688 201.625 418.988 201.325C419.298 201.015 419.663 200.775 420.083 200.605C420.513 200.435 420.993 200.35 421.523 200.35C422.063 200.35 422.548 200.445 422.978 200.635C423.418 200.815 423.788 201.08 424.088 201.43C424.398 201.77 424.633 202.19 424.793 202.69C424.953 203.19 425.033 203.75 425.033 204.37ZM421.538 205.975C422.228 205.975 422.763 205.785 423.143 205.405C423.533 205.025 423.728 204.48 423.728 203.77V203.65C423.728 202.94 423.533 202.395 423.143 202.015C422.763 201.635 422.228 201.445 421.538 201.445C420.848 201.445 420.308 201.635 419.918 202.015C419.538 202.395 419.348 202.94 419.348 203.65V203.77C419.348 204.48 419.538 205.025 419.918 205.405C420.308 205.785 420.848 205.975 421.538 205.975ZM428.477 200.53H432.782C433.652 200.53 434.332 200.775 434.822 201.265C435.322 201.755 435.572 202.41 435.572 203.23C435.572 203.62 435.517 203.95 435.407 204.22C435.297 204.49 435.157 204.715 434.987 204.895C434.817 205.065 434.632 205.195 434.432 205.285C434.232 205.365 434.047 205.42 433.877 205.45V205.54C434.067 205.55 434.277 205.6 434.507 205.69C434.747 205.78 434.972 205.925 435.182 206.125C435.392 206.315 435.567 206.565 435.707 206.875C435.857 207.175 435.932 207.54 435.932 207.97C435.932 208.4 435.862 208.8 435.722 209.17C435.592 209.54 435.407 209.86 435.167 210.13C434.927 210.4 434.642 210.615 434.312 210.775C433.982 210.925 433.622 211 433.232 211H428.477V200.53ZM429.737 209.89H432.842C433.382 209.89 433.807 209.755 434.117 209.485C434.427 209.205 434.582 208.8 434.582 208.27V207.76C434.582 207.23 434.427 206.83 434.117 206.56C433.807 206.28 433.382 206.14 432.842 206.14H429.737V209.89ZM429.737 205.06H432.632C433.132 205.06 433.522 204.935 433.802 204.685C434.082 204.435 434.222 204.075 434.222 203.605V203.095C434.222 202.625 434.082 202.265 433.802 202.015C433.522 201.765 433.132 201.64 432.632 201.64H429.737V205.06Z" fill="#111111"/>
<path d="M472.481 207.925H470.171L469.631 211H468.671L469.211 207.925H467.291V207.025H469.361L469.781 204.505H467.876V203.605H469.946L470.471 200.53H471.431L470.906 203.605H473.216L473.741 200.53H474.701L474.176 203.605H476.096V204.505H474.011L473.591 207.025H475.511V207.925H473.441L472.901 211H471.941L472.481 207.925ZM472.631 207.025L473.051 204.505H470.741L470.321 207.025H472.631ZM479.529 211V200.53H485.769V201.64H480.789V205.15H485.334V206.26H480.789V211H479.529ZM492.063 211.18C491.463 211.18 490.938 211.105 490.488 210.955C490.038 210.795 489.658 210.58 489.348 210.31C489.048 210.04 488.818 209.72 488.658 209.35C488.508 208.98 488.433 208.58 488.433 208.15C488.433 207.43 488.628 206.86 489.018 206.44C489.408 206.02 489.918 205.725 490.548 205.555V205.435C489.998 205.245 489.558 204.94 489.228 204.52C488.908 204.09 488.748 203.575 488.748 202.975C488.748 202.175 489.038 201.54 489.618 201.07C490.198 200.59 491.013 200.35 492.063 200.35C493.113 200.35 493.928 200.59 494.508 201.07C495.088 201.54 495.378 202.175 495.378 202.975C495.378 203.575 495.213 204.09 494.883 204.52C494.563 204.94 494.128 205.245 493.578 205.435V205.555C494.208 205.725 494.718 206.02 495.108 206.44C495.498 206.86 495.693 207.43 495.693 208.15C495.693 208.58 495.613 208.98 495.453 209.35C495.303 209.72 495.073 210.04 494.763 210.31C494.463 210.58 494.088 210.795 493.638 210.955C493.188 211.105 492.663 211.18 492.063 211.18ZM492.063 210.085C492.793 210.085 493.358 209.925 493.758 209.605C494.158 209.275 494.358 208.81 494.358 208.21V207.895C494.358 207.295 494.158 206.835 493.758 206.515C493.358 206.185 492.793 206.02 492.063 206.02C491.333 206.02 490.768 206.185 490.368 206.515C489.968 206.835 489.768 207.295 489.768 207.895V208.21C489.768 208.81 489.968 209.275 490.368 209.605C490.768 209.925 491.333 210.085 492.063 210.085ZM492.063 204.97C492.723 204.97 493.223 204.83 493.563 204.55C493.903 204.27 494.073 203.86 494.073 203.32V203.095C494.073 202.555 493.903 202.145 493.563 201.865C493.223 201.585 492.723 201.445 492.063 201.445C491.403 201.445 490.903 201.585 490.563 201.865C490.223 202.145 490.053 202.555 490.053 203.095V203.32C490.053 203.86 490.223 204.27 490.563 204.55C490.903 204.83 491.403 204.97 492.063 204.97ZM499.002 200.53H502.512C503.162 200.53 503.752 200.64 504.282 200.86C504.812 201.08 505.262 201.41 505.632 201.85C506.012 202.28 506.302 202.825 506.502 203.485C506.702 204.135 506.802 204.895 506.802 205.765C506.802 206.635 506.702 207.4 506.502 208.06C506.302 208.71 506.012 209.255 505.632 209.695C505.262 210.125 504.812 210.45 504.282 210.67C503.752 210.89 503.162 211 502.512 211H499.002V200.53ZM502.512 209.89C502.942 209.89 503.337 209.82 503.697 209.68C504.057 209.53 504.367 209.315 504.627 209.035C504.887 208.755 505.087 208.415 505.227 208.015C505.377 207.605 505.452 207.14 505.452 206.62V204.91C505.452 204.39 505.377 203.93 505.227 203.53C505.087 203.12 504.887 202.775 504.627 202.495C504.367 202.215 504.057 202.005 503.697 201.865C503.337 201.715 502.942 201.64 502.512 201.64H500.262V209.89H502.512ZM516.716 204.37C516.716 205.15 516.601 205.885 516.371 206.575C516.141 207.255 515.841 207.88 515.471 208.45C515.111 209.01 514.711 209.51 514.271 209.95C513.831 210.38 513.401 210.73 512.981 211H511.361C511.921 210.59 512.421 210.19 512.861 209.8C513.301 209.41 513.686 209.005 514.016 208.585C514.346 208.155 514.626 207.7 514.856 207.22C515.086 206.73 515.271 206.18 515.411 205.57L515.336 205.54C515.086 205.97 514.761 206.33 514.361 206.62C513.971 206.9 513.456 207.04 512.816 207.04C512.366 207.04 511.951 206.965 511.571 206.815C511.191 206.665 510.866 206.45 510.596 206.17C510.326 205.89 510.111 205.555 509.951 205.165C509.801 204.765 509.726 204.315 509.726 203.815C509.726 203.305 509.806 202.84 509.966 202.42C510.136 201.99 510.371 201.625 510.671 201.325C510.981 201.015 511.346 200.775 511.766 200.605C512.196 200.435 512.676 200.35 513.206 200.35C513.746 200.35 514.231 200.445 514.661 200.635C515.101 200.815 515.471 201.08 515.771 201.43C516.081 201.77 516.316 202.19 516.476 202.69C516.636 203.19 516.716 203.75 516.716 204.37ZM513.221 205.975C513.911 205.975 514.446 205.785 514.826 205.405C515.216 205.025 515.411 204.48 515.411 203.77V203.65C515.411 202.94 515.216 202.395 514.826 202.015C514.446 201.635 513.911 201.445 513.221 201.445C512.531 201.445 511.991 201.635 511.601 202.015C511.221 202.395 511.031 202.94 511.031 203.65V203.77C511.031 204.48 511.221 205.025 511.601 205.405C511.991 205.785 512.531 205.975 513.221 205.975ZM526.76 204.37C526.76 205.15 526.645 205.885 526.415 206.575C526.185 207.255 525.885 207.88 525.515 208.45C525.155 209.01 524.755 209.51 524.315 209.95C523.875 210.38 523.445 210.73 523.025 211H521.405C521.965 210.59 522.465 210.19 522.905 209.8C523.345 209.41 523.73 209.005 524.06 208.585C524.39 208.155 524.67 207.7 524.9 207.22C525.13 206.73 525.315 206.18 525.455 205.57L525.38 205.54C525.13 205.97 524.805 206.33 524.405 206.62C524.015 206.9 523.5 207.04 522.86 207.04C522.41 207.04 521.995 206.965 521.615 206.815C521.235 206.665 520.91 206.45 520.64 206.17C520.37 205.89 520.155 205.555 519.995 205.165C519.845 204.765 519.77 204.315 519.77 203.815C519.77 203.305 519.85 202.84 520.01 202.42C520.18 201.99 520.415 201.625 520.715 201.325C521.025 201.015 521.39 200.775 521.81 200.605C522.24 200.435 522.72 200.35 523.25 200.35C523.79 200.35 524.275 200.445 524.705 200.635C525.145 200.815 525.515 201.08 525.815 201.43C526.125 201.77 526.36 202.19 526.52 202.69C526.68 203.19 526.76 203.75 526.76 204.37ZM523.265 205.975C523.955 205.975 524.49 205.785 524.87 205.405C525.26 205.025 525.455 204.48 525.455 203.77V203.65C525.455 202.94 525.26 202.395 524.87 202.015C524.49 201.635 523.955 201.445 523.265 201.445C522.575 201.445 522.035 201.635 521.645 202.015C521.265 202.395 521.075 202.94 521.075 203.65V203.77C521.075 204.48 521.265 205.025 521.645 205.405C522.035 205.785 522.575 205.975 523.265 205.975ZM530.204 200.53H534.509C535.379 200.53 536.059 200.775 536.549 201.265C537.049 201.755 537.299 202.41 537.299 203.23C537.299 203.62 537.244 203.95 537.134 204.22C537.024 204.49 536.884 204.715 536.714 204.895C536.544 205.065 536.359 205.195 536.159 205.285C535.959 205.365 535.774 205.42 535.604 205.45V205.54C535.794 205.55 536.004 205.6 536.234 205.69C536.474 205.78 536.699 205.925 536.909 206.125C537.119 206.315 537.294 206.565 537.434 206.875C537.584 207.175 537.659 207.54 537.659 207.97C537.659 208.4 537.589 208.8 537.449 209.17C537.319 209.54 537.134 209.86 536.894 210.13C536.654 210.4 536.369 210.615 536.039 210.775C535.709 210.925 535.349 211 534.959 211H530.204V200.53ZM531.464 209.89H534.569C535.109 209.89 535.534 209.755 535.844 209.485C536.154 209.205 536.309 208.8 536.309 208.27V207.76C536.309 207.23 536.154 206.83 535.844 206.56C535.534 206.28 535.109 206.14 534.569 206.14H531.464V209.89ZM531.464 205.06H534.359C534.859 205.06 535.249 204.935 535.529 204.685C535.809 204.435 535.949 204.075 535.949 203.605V203.095C535.949 202.625 535.809 202.265 535.529 202.015C535.249 201.765 534.859 201.64 534.359 201.64H531.464V205.06Z" fill="#111111"/>
<path d="M570.111 207.925H567.801L567.261 211H566.301L566.841 207.925H564.921V207.025H566.991L567.411 204.505H565.506V203.605H567.576L568.101 200.53H569.061L568.536 203.605H570.846L571.371 200.53H572.331L571.806 203.605H573.726V204.505H571.641L571.221 207.025H573.141V207.925H571.071L570.531 211H569.571L570.111 207.925ZM570.261 207.025L570.681 204.505H568.371L567.951 207.025H570.261ZM577.084 211V209.89H580.009V201.46H579.904L577.264 203.92L576.529 203.125L579.304 200.53H581.269V209.89H583.969V211H577.084ZM587.128 211V209.89H590.053V201.46H589.948L587.308 203.92L586.573 203.125L589.348 200.53H591.313V209.89H594.013V211H587.128ZM597.173 211V209.89H600.098V201.46H599.993L597.353 203.92L596.618 203.125L599.393 200.53H601.358V209.89H604.058V211H597.173ZM607.217 211V209.89H610.142V201.46H610.037L607.397 203.92L606.662 203.125L609.437 200.53H611.402V209.89H614.102V211H607.217ZM617.261 211V209.89H620.186V201.46H620.081L617.441 203.92L616.706 203.125L619.481 200.53H621.446V209.89H624.146V211H617.261ZM627.305 211V209.89H630.23V201.46H630.125L627.485 203.92L626.75 203.125L629.525 200.53H631.49V209.89H634.19V211H627.305Z" fill="#111111"/>
<path d="M667.111 207.925H664.801L664.261 211H663.301L663.841 207.925H661.921V207.025H663.991L664.411 204.505H662.506V203.605H664.576L665.101 200.53H666.061L665.536 203.605H667.846L668.371 200.53H669.331L668.806 203.605H670.726V204.505H668.641L668.221 207.025H670.141V207.925H668.071L667.531 211H666.571L667.111 207.925ZM667.261 207.025L667.681 204.505H665.371L664.951 207.025H667.261ZM676.679 204.97C677.389 204.97 677.919 204.81 678.269 204.49C678.629 204.16 678.809 203.74 678.809 203.23V203.125C678.809 202.575 678.634 202.165 678.284 201.895C677.944 201.615 677.494 201.475 676.934 201.475C676.394 201.475 675.954 201.595 675.614 201.835C675.274 202.065 674.994 202.38 674.774 202.78L673.844 202.06C673.974 201.85 674.129 201.645 674.309 201.445C674.499 201.235 674.719 201.05 674.969 200.89C675.219 200.73 675.509 200.6 675.839 200.5C676.169 200.4 676.544 200.35 676.964 200.35C677.404 200.35 677.819 200.41 678.209 200.53C678.599 200.64 678.934 200.81 679.214 201.04C679.504 201.26 679.729 201.535 679.889 201.865C680.059 202.195 680.144 202.57 680.144 202.99C680.144 203.33 680.089 203.635 679.979 203.905C679.879 204.175 679.739 204.41 679.559 204.61C679.379 204.81 679.164 204.98 678.914 205.12C678.674 205.26 678.414 205.365 678.134 205.435V205.495C678.414 205.555 678.684 205.655 678.944 205.795C679.214 205.925 679.449 206.1 679.649 206.32C679.859 206.53 680.024 206.79 680.144 207.1C680.274 207.4 680.339 207.745 680.339 208.135C680.339 208.585 680.254 209 680.084 209.38C679.914 209.75 679.674 210.07 679.364 210.34C679.054 210.6 678.679 210.805 678.239 210.955C677.799 211.105 677.314 211.18 676.784 211.18C676.334 211.18 675.934 211.13 675.584 211.03C675.234 210.93 674.924 210.795 674.654 210.625C674.384 210.455 674.144 210.265 673.934 210.055C673.734 209.845 673.554 209.625 673.394 209.395L674.339 208.675C674.469 208.885 674.609 209.075 674.759 209.245C674.919 209.415 675.094 209.56 675.284 209.68C675.474 209.8 675.689 209.895 675.929 209.965C676.169 210.025 676.449 210.055 676.769 210.055C677.509 210.055 678.069 209.89 678.449 209.56C678.829 209.22 679.019 208.74 679.019 208.12V208C679.019 207.38 678.829 206.905 678.449 206.575C678.069 206.235 677.509 206.065 676.769 206.065H675.539V204.97H676.679ZM686.723 204.97C687.433 204.97 687.963 204.81 688.313 204.49C688.673 204.16 688.853 203.74 688.853 203.23V203.125C688.853 202.575 688.678 202.165 688.328 201.895C687.988 201.615 687.538 201.475 686.978 201.475C686.438 201.475 685.998 201.595 685.658 201.835C685.318 202.065 685.038 202.38 684.818 202.78L683.888 202.06C684.018 201.85 684.173 201.645 684.353 201.445C684.543 201.235 684.763 201.05 685.013 200.89C685.263 200.73 685.553 200.6 685.883 200.5C686.213 200.4 686.588 200.35 687.008 200.35C687.448 200.35 687.863 200.41 688.253 200.53C688.643 200.64 688.978 200.81 689.258 201.04C689.548 201.26 689.773 201.535 689.933 201.865C690.103 202.195 690.188 202.57 690.188 202.99C690.188 203.33 690.133 203.635 690.023 203.905C689.923 204.175 689.783 204.41 689.603 204.61C689.423 204.81 689.208 204.98 688.958 205.12C688.718 205.26 688.458 205.365 688.178 205.435V205.495C688.458 205.555 688.728 205.655 688.988 205.795C689.258 205.925 689.493 206.1 689.693 206.32C689.903 206.53 690.068 206.79 690.188 207.1C690.318 207.4 690.383 207.745 690.383 208.135C690.383 208.585 690.298 209 690.128 209.38C689.958 209.75 689.718 210.07 689.408 210.34C689.098 210.6 688.723 210.805 688.283 210.955C687.843 211.105 687.358 211.18 686.828 211.18C686.378 211.18 685.978 211.13 685.628 211.03C685.278 210.93 684.968 210.795 684.698 210.625C684.428 210.455 684.188 210.265 683.978 210.055C683.778 209.845 683.598 209.625 683.438 209.395L684.383 208.675C684.513 208.885 684.653 209.075 684.803 209.245C684.963 209.415 685.138 209.56 685.328 209.68C685.518 209.8 685.733 209.895 685.973 209.965C686.213 210.025 686.493 210.055 686.813 210.055C687.553 210.055 688.113 209.89 688.493 209.56C688.873 209.22 689.063 208.74 689.063 208.12V208C689.063 207.38 688.873 206.905 688.493 206.575C688.113 206.235 687.553 206.065 686.813 206.065H685.583V204.97H686.723ZM696.768 204.97C697.478 204.97 698.008 204.81 698.358 204.49C698.718 204.16 698.898 203.74 698.898 203.23V203.125C698.898 202.575 698.723 202.165 698.373 201.895C698.033 201.615 697.583 201.475 697.023 201.475C696.483 201.475 696.043 201.595 695.703 201.835C695.363 202.065 695.083 202.38 694.863 202.78L693.933 202.06C694.063 201.85 694.218 201.645 694.398 201.445C694.588 201.235 694.808 201.05 695.058 200.89C695.308 200.73 695.598 200.6 695.928 200.5C696.258 200.4 696.633 200.35 697.053 200.35C697.493 200.35 697.908 200.41 698.298 200.53C698.688 200.64 699.023 200.81 699.303 201.04C699.593 201.26 699.818 201.535 699.978 201.865C700.148 202.195 700.233 202.57 700.233 202.99C700.233 203.33 700.178 203.635 700.068 203.905C699.968 204.175 699.828 204.41 699.648 204.61C699.468 204.81 699.253 204.98 699.003 205.12C698.763 205.26 698.503 205.365 698.223 205.435V205.495C698.503 205.555 698.773 205.655 699.033 205.795C699.303 205.925 699.538 206.1 699.738 206.32C699.948 206.53 700.113 206.79 700.233 207.1C700.363 207.4 700.428 207.745 700.428 208.135C700.428 208.585 700.343 209 700.173 209.38C700.003 209.75 699.763 210.07 699.453 210.34C699.143 210.6 698.768 210.805 698.328 210.955C697.888 211.105 697.403 211.18 696.873 211.18C696.423 211.18 696.023 211.13 695.673 211.03C695.323 210.93 695.013 210.795 694.743 210.625C694.473 210.455 694.233 210.265 694.023 210.055C693.823 209.845 693.643 209.625 693.483 209.395L694.428 208.675C694.558 208.885 694.698 209.075 694.848 209.245C695.008 209.415 695.183 209.56 695.373 209.68C695.563 209.8 695.778 209.895 696.018 209.965C696.258 210.025 696.538 210.055 696.858 210.055C697.598 210.055 698.158 209.89 698.538 209.56C698.918 209.22 699.108 208.74 699.108 208.12V208C699.108 207.38 698.918 206.905 698.538 206.575C698.158 206.235 697.598 206.065 696.858 206.065H695.628V204.97H696.768ZM706.812 204.97C707.522 204.97 708.052 204.81 708.402 204.49C708.762 204.16 708.942 203.74 708.942 203.23V203.125C708.942 202.575 708.767 202.165 708.417 201.895C708.077 201.615 707.627 201.475 707.067 201.475C706.527 201.475 706.087 201.595 705.747 201.835C705.407 202.065 705.127 202.38 704.907 202.78L703.977 202.06C704.107 201.85 704.262 201.645 704.442 201.445C704.632 201.235 704.852 201.05 705.102 200.89C705.352 200.73 705.642 200.6 705.972 200.5C706.302 200.4 706.677 200.35 707.097 200.35C707.537 200.35 707.952 200.41 708.342 200.53C708.732 200.64 709.067 200.81 709.347 201.04C709.637 201.26 709.862 201.535 710.022 201.865C710.192 202.195 710.277 202.57 710.277 202.99C710.277 203.33 710.222 203.635 710.112 203.905C710.012 204.175 709.872 204.41 709.692 204.61C709.512 204.81 709.297 204.98 709.047 205.12C708.807 205.26 708.547 205.365 708.267 205.435V205.495C708.547 205.555 708.817 205.655 709.077 205.795C709.347 205.925 709.582 206.1 709.782 206.32C709.992 206.53 710.157 206.79 710.277 207.1C710.407 207.4 710.472 207.745 710.472 208.135C710.472 208.585 710.387 209 710.217 209.38C710.047 209.75 709.807 210.07 709.497 210.34C709.187 210.6 708.812 210.805 708.372 210.955C707.932 211.105 707.447 211.18 706.917 211.18C706.467 211.18 706.067 211.13 705.717 211.03C705.367 210.93 705.057 210.795 704.787 210.625C704.517 210.455 704.277 210.265 704.067 210.055C703.867 209.845 703.687 209.625 703.527 209.395L704.472 208.675C704.602 208.885 704.742 209.075 704.892 209.245C705.052 209.415 705.227 209.56 705.417 209.68C705.607 209.8 705.822 209.895 706.062 209.965C706.302 210.025 706.582 210.055 706.902 210.055C707.642 210.055 708.202 209.89 708.582 209.56C708.962 209.22 709.152 208.74 709.152 208.12V208C709.152 207.38 708.962 206.905 708.582 206.575C708.202 206.235 707.642 206.065 706.902 206.065H705.672V204.97H706.812ZM716.856 204.97C717.566 204.97 718.096 204.81 718.446 204.49C718.806 204.16 718.986 203.74 718.986 203.23V203.125C718.986 202.575 718.811 202.165 718.461 201.895C718.121 201.615 717.671 201.475 717.111 201.475C716.571 201.475 716.131 201.595 715.791 201.835C715.451 202.065 715.171 202.38 714.951 202.78L714.021 202.06C714.151 201.85 714.306 201.645 714.486 201.445C714.676 201.235 714.896 201.05 715.146 200.89C715.396 200.73 715.686 200.6 716.016 200.5C716.346 200.4 716.721 200.35 717.141 200.35C717.581 200.35 717.996 200.41 718.386 200.53C718.776 200.64 719.111 200.81 719.391 201.04C719.681 201.26 719.906 201.535 720.066 201.865C720.236 202.195 720.321 202.57 720.321 202.99C720.321 203.33 720.266 203.635 720.156 203.905C720.056 204.175 719.916 204.41 719.736 204.61C719.556 204.81 719.341 204.98 719.091 205.12C718.851 205.26 718.591 205.365 718.311 205.435V205.495C718.591 205.555 718.861 205.655 719.121 205.795C719.391 205.925 719.626 206.1 719.826 206.32C720.036 206.53 720.201 206.79 720.321 207.1C720.451 207.4 720.516 207.745 720.516 208.135C720.516 208.585 720.431 209 720.261 209.38C720.091 209.75 719.851 210.07 719.541 210.34C719.231 210.6 718.856 210.805 718.416 210.955C717.976 211.105 717.491 211.18 716.961 211.18C716.511 211.18 716.111 211.13 715.761 211.03C715.411 210.93 715.101 210.795 714.831 210.625C714.561 210.455 714.321 210.265 714.111 210.055C713.911 209.845 713.731 209.625 713.571 209.395L714.516 208.675C714.646 208.885 714.786 209.075 714.936 209.245C715.096 209.415 715.271 209.56 715.461 209.68C715.651 209.8 715.866 209.895 716.106 209.965C716.346 210.025 716.626 210.055 716.946 210.055C717.686 210.055 718.246 209.89 718.626 209.56C719.006 209.22 719.196 208.74 719.196 208.12V208C719.196 207.38 719.006 206.905 718.626 206.575C718.246 206.235 717.686 206.065 716.946 206.065H715.716V204.97H716.856ZM726.9 204.97C727.61 204.97 728.14 204.81 728.49 204.49C728.85 204.16 729.03 203.74 729.03 203.23V203.125C729.03 202.575 728.855 202.165 728.505 201.895C728.165 201.615 727.715 201.475 727.155 201.475C726.615 201.475 726.175 201.595 725.835 201.835C725.495 202.065 725.215 202.38 724.995 202.78L724.065 202.06C724.195 201.85 724.35 201.645 724.53 201.445C724.72 201.235 724.94 201.05 725.19 200.89C725.44 200.73 725.73 200.6 726.06 200.5C726.39 200.4 726.765 200.35 727.185 200.35C727.625 200.35 728.04 200.41 728.43 200.53C728.82 200.64 729.155 200.81 729.435 201.04C729.725 201.26 729.95 201.535 730.11 201.865C730.28 202.195 730.365 202.57 730.365 202.99C730.365 203.33 730.31 203.635 730.2 203.905C730.1 204.175 729.96 204.41 729.78 204.61C729.6 204.81 729.385 204.98 729.135 205.12C728.895 205.26 728.635 205.365 728.355 205.435V205.495C728.635 205.555 728.905 205.655 729.165 205.795C729.435 205.925 729.67 206.1 729.87 206.32C730.08 206.53 730.245 206.79 730.365 207.1C730.495 207.4 730.56 207.745 730.56 208.135C730.56 208.585 730.475 209 730.305 209.38C730.135 209.75 729.895 210.07 729.585 210.34C729.275 210.6 728.9 210.805 728.46 210.955C728.02 211.105 727.535 211.18 727.005 211.18C726.555 211.18 726.155 211.13 725.805 211.03C725.455 210.93 725.145 210.795 724.875 210.625C724.605 210.455 724.365 210.265 724.155 210.055C723.955 209.845 723.775 209.625 723.615 209.395L724.56 208.675C724.69 208.885 724.83 209.075 724.98 209.245C725.14 209.415 725.315 209.56 725.505 209.68C725.695 209.8 725.91 209.895 726.15 209.965C726.39 210.025 726.67 210.055 726.99 210.055C727.73 210.055 728.29 209.89 728.67 209.56C729.05 209.22 729.24 208.74 729.24 208.12V208C729.24 207.38 729.05 206.905 728.67 206.575C728.29 206.235 727.73 206.065 726.99 206.065H725.76V204.97H726.9Z" fill="#111111"/>
<path d="M765.358 207.925H763.048L762.508 211H761.548L762.088 207.925H760.168V207.025H762.238L762.658 204.505H760.753V203.605H762.823L763.348 200.53H764.308L763.783 203.605H766.093L766.618 200.53H767.578L767.053 203.605H768.973V204.505H766.888L766.468 207.025H768.388V207.925H766.318L765.778 211H764.818L765.358 207.925ZM765.508 207.025L765.928 204.505H763.618L763.198 207.025H765.508ZM772.406 211V200.53H778.796V201.64H773.666V205.15H778.496V206.26H773.666V209.89H778.796V211H772.406ZM782.201 211V200.53H788.591V201.64H783.461V205.15H788.291V206.26H783.461V209.89H788.591V211H782.201ZM791.997 211V200.53H798.387V201.64H793.257V205.15H798.087V206.26H793.257V209.89H798.387V211H791.997ZM801.792 211V200.53H808.182V201.64H803.052V205.15H807.882V206.26H803.052V209.89H808.182V211H801.792ZM811.587 211V200.53H817.977V201.64H812.847V205.15H817.677V206.26H812.847V209.89H817.977V211H811.587ZM821.382 211V200.53H827.772V201.64H822.642V205.15H827.472V206.26H822.642V209.89H827.772V211H821.382Z" fill="#111111"/>
<path fill-rule="evenodd" clip-rule="evenodd" d="M308.5 186C324.24 186 337 173.24 337 157.5C337 155.803 336.852 154.142 336.568 152.527C334.971 156.546 329.428 158.306 328.037 158.306C326.733 158.306 317.173 163.139 312.556 165.556C313.642 166.898 315.815 169.744 315.815 170.389C315.815 171.194 310.111 172 308.481 172C306.852 172 301.148 171.194 300.333 170.389C299.681 169.744 302.235 167.435 303.593 166.361C301.691 165.019 296.422 161.689 290.556 159.111C287.602 157.813 283.697 156.869 280.028 156.217C280.01 156.643 280 157.07 280 157.5C280 173.24 292.76 186 308.5 186ZM280.501 152.153C283.003 138.969 294.587 129 308.5 129C319.411 129 328.889 135.131 333.679 144.136C332.284 143.311 330.74 143 329.667 143C327.222 143 321.519 145.417 323.148 150.25C324.452 154.117 328.58 153.472 330.481 152.667C330.753 151.593 331.133 149.283 330.481 148.639C329.83 147.994 328.58 148.37 328.037 148.639L328.852 150.25C328.852 151.056 328.526 152.506 327.222 151.861C325.593 151.056 323.963 147.028 326.407 146.222C328.852 145.417 333.741 145.417 333.741 148.639C333.741 151.861 332.926 155.083 327.222 155.083C322.659 155.083 312.827 151.861 308.481 150.25C309.296 148.639 310.437 145.417 308.481 145.417C306.037 145.417 306.037 148.639 306.852 149.444C307.667 150.25 300.333 154.278 294.63 153.472C294.51 153.455 294.386 153.438 294.257 153.42C291.155 152.98 285.483 152.177 280.501 152.153Z" fill="#E45171"/>
<path fill-rule="evenodd" clip-rule="evenodd" d="M405.5 186C421.24 186 434 173.24 434 157.5C434 155.803 433.852 154.142 433.568 152.527C431.971 156.546 426.428 158.306 425.037 158.306C423.733 158.306 414.173 163.139 409.556 165.556C410.642 166.898 412.815 169.744 412.815 170.389C412.815 171.194 407.111 172 405.481 172C403.852 172 398.148 171.194 397.333 170.389C396.681 169.744 399.235 167.435 400.593 166.361C398.691 165.019 393.422 161.689 387.556 159.111C384.602 157.813 380.697 156.869 377.028 156.217C377.01 156.643 377 157.07 377 157.5C377 173.24 389.76 186 405.5 186ZM377.501 152.153C380.003 138.969 391.587 129 405.5 129C416.411 129 425.889 135.131 430.679 144.136C429.284 143.311 427.74 143 426.667 143C424.222 143 418.519 145.417 420.148 150.25C421.452 154.117 425.58 153.472 427.481 152.667C427.753 151.593 428.133 149.283 427.481 148.639C426.83 147.994 425.58 148.37 425.037 148.639L425.852 150.25C425.852 151.056 425.526 152.506 424.222 151.861C422.593 151.056 420.963 147.028 423.407 146.222C425.852 145.417 430.741 145.417 430.741 148.639C430.741 151.861 429.926 155.083 424.222 155.083C419.659 155.083 409.827 151.861 405.481 150.25C406.296 148.639 407.437 145.417 405.481 145.417C403.037 145.417 403.037 148.639 403.852 149.444C404.667 150.25 397.333 154.278 391.63 153.472C391.51 153.455 391.386 153.438 391.257 153.42C388.155 152.98 382.483 152.177 377.501 152.153Z" fill="#F8A79B"/>
<path fill-rule="evenodd" clip-rule="evenodd" d="M502.5 186C518.24 186 531 173.24 531 157.5C531 155.803 530.852 154.142 530.568 152.527C528.971 156.546 523.428 158.306 522.037 158.306C520.733 158.306 511.173 163.139 506.556 165.556C507.642 166.898 509.815 169.744 509.815 170.389C509.815 171.194 504.111 172 502.481 172C500.852 172 495.148 171.194 494.333 170.389C493.681 169.744 496.235 167.435 497.593 166.361C495.691 165.019 490.422 161.689 484.556 159.111C481.602 157.813 477.697 156.869 474.028 156.217C474.01 156.643 474 157.07 474 157.5C474 173.24 486.76 186 502.5 186ZM474.501 152.153C477.003 138.969 488.587 129 502.5 129C513.411 129 522.889 135.131 527.679 144.136C526.284 143.311 524.74 143 523.667 143C521.222 143 515.519 145.417 517.148 150.25C518.452 154.117 522.58 153.472 524.481 152.667C524.753 151.593 525.133 149.283 524.481 148.639C523.83 147.994 522.58 148.37 522.037 148.639L522.852 150.25C522.852 151.056 522.526 152.506 521.222 151.861C519.593 151.056 517.963 147.028 520.407 146.222C522.852 145.417 527.741 145.417 527.741 148.639C527.741 151.861 526.926 155.083 521.222 155.083C516.659 155.083 506.827 151.861 502.481 150.25C503.296 148.639 504.437 145.417 502.481 145.417C500.037 145.417 500.037 148.639 500.852 149.444C501.667 150.25 494.333 154.278 488.63 153.472C488.51 153.455 488.386 153.438 488.257 153.42C485.155 152.98 479.483 152.177 474.501 152.153Z" fill="#F8D99B"/>
<path fill-rule="evenodd" clip-rule="evenodd" d="M599.5 186C615.24 186 628 173.24 628 157.5C628 155.803 627.852 154.142 627.568 152.527C625.971 156.546 620.428 158.306 619.037 158.306C617.733 158.306 608.173 163.139 603.556 165.556C604.642 166.898 606.815 169.744 606.815 170.389C606.815 171.194 601.111 172 599.481 172C597.852 172 592.148 171.194 591.333 170.389C590.681 169.744 593.235 167.435 594.593 166.361C592.691 165.019 587.422 161.689 581.556 159.111C578.602 157.813 574.697 156.869 571.028 156.217C571.01 156.643 571 157.07 571 157.5C571 173.24 583.76 186 599.5 186ZM571.501 152.153C574.003 138.969 585.587 129 599.5 129C610.411 129 619.889 135.131 624.679 144.136C623.284 143.311 621.74 143 620.667 143C618.222 143 612.519 145.417 614.148 150.25C615.452 154.117 619.58 153.472 621.481 152.667C621.753 151.593 622.133 149.283 621.481 148.639C620.83 147.994 619.58 148.37 619.037 148.639L619.852 150.25C619.852 151.056 619.526 152.506 618.222 151.861C616.593 151.056 614.963 147.028 617.407 146.222C619.852 145.417 624.741 145.417 624.741 148.639C624.741 151.861 623.926 155.083 618.222 155.083C613.659 155.083 603.827 151.861 599.481 150.25C600.296 148.639 601.437 145.417 599.481 145.417C597.037 145.417 597.037 148.639 597.852 149.444C598.667 150.25 591.333 154.278 585.63 153.472C585.51 153.455 585.386 153.438 585.257 153.42C582.155 152.98 576.483 152.177 571.501 152.153Z" fill="#111111"/>
<path fill-rule="evenodd" clip-rule="evenodd" d="M696.5 186C712.24 186 725 173.24 725 157.5C725 155.803 724.852 154.142 724.568 152.527C722.971 156.546 717.428 158.306 716.037 158.306C714.733 158.306 705.173 163.139 700.556 165.556C701.642 166.898 703.815 169.744 703.815 170.389C703.815 171.194 698.111 172 696.481 172C694.852 172 689.148 171.194 688.333 170.389C687.681 169.744 690.235 167.435 691.593 166.361C689.691 165.019 684.422 161.689 678.556 159.111C675.602 157.813 671.697 156.869 668.028 156.217C668.01 156.643 668 157.07 668 157.5C668 173.24 680.76 186 696.5 186ZM668.501 152.153C671.003 138.969 682.587 129 696.5 129C707.411 129 716.889 135.131 721.679 144.136C720.284 143.311 718.74 143 717.667 143C715.222 143 709.519 145.417 711.148 150.25C712.452 154.117 716.58 153.472 718.481 152.667C718.753 151.593 719.133 149.283 718.481 148.639C717.83 147.994 716.58 148.37 716.037 148.639L716.852 150.25C716.852 151.056 716.526 152.506 715.222 151.861C713.593 151.056 711.963 147.028 714.407 146.222C716.852 145.417 721.741 145.417 721.741 148.639C721.741 151.861 720.926 155.083 715.222 155.083C710.659 155.083 700.827 151.861 696.481 150.25C697.296 148.639 698.437 145.417 696.481 145.417C694.037 145.417 694.037 148.639 694.852 149.444C695.667 150.25 688.333 154.278 682.63 153.472C682.51 153.455 682.386 153.438 682.257 153.42C679.155 152.98 673.483 152.177 668.501 152.153Z" fill="#333333"/>
<path fill-rule="evenodd" clip-rule="evenodd" d="M793.5 186C809.24 186 822 173.24 822 157.5C822 155.803 821.852 154.142 821.568 152.527C819.971 156.546 814.428 158.306 813.037 158.306C811.733 158.306 802.173 163.139 797.556 165.556C798.642 166.898 800.815 169.744 800.815 170.389C800.815 171.194 795.111 172 793.481 172C791.852 172 786.148 171.194 785.333 170.389C784.681 169.744 787.235 167.435 788.593 166.361C786.691 165.019 781.422 161.689 775.556 159.111C772.602 157.813 768.697 156.869 765.028 156.217C765.01 156.643 765 157.07 765 157.5C765 173.24 777.76 186 793.5 186ZM765.501 152.153C768.003 138.969 779.587 129 793.5 129C804.411 129 813.889 135.131 818.679 144.136C817.284 143.311 815.74 143 814.667 143C812.222 143 806.519 145.417 808.148 150.25C809.452 154.117 813.58 153.472 815.481 152.667C815.753 151.593 816.133 149.283 815.481 148.639C814.83 147.994 813.58 148.37 813.037 148.639L813.852 150.25C813.852 151.056 813.526 152.506 812.222 151.861C810.593 151.056 808.963 147.028 811.407 146.222C813.852 145.417 818.741 145.417 818.741 148.639C818.741 151.861 817.926 155.083 812.222 155.083C807.659 155.083 797.827 151.861 793.481 150.25C794.296 148.639 795.437 145.417 793.481 145.417C791.037 145.417 791.037 148.639 791.852 149.444C792.667 150.25 785.333 154.278 779.63 153.472C779.51 153.455 779.386 153.438 779.257 153.42C776.155 152.98 770.483 152.177 765.501 152.153Z" fill="#EEEEEE"/>
<line y1="270.5" x2="995" y2="270.5" stroke="white"/>
</svg>
