<svg width="123" height="16" viewBox="0 0 123 16" fill="none" xmlns="http://www.w3.org/2000/svg">
<path d="M2.98023e-08 15H1.76V7.32C1.76 5.76 1.62 4.22 1.52 2.74H1.62L3.2 5.76L8.52 15H10.44V0.339999H8.66V7.96C8.66 9.48 8.8 11.14 8.92 12.62H8.82L7.24 9.58L1.9 0.339999H2.98023e-08V15ZM18.5131 15.28C21.1731 15.28 23.5331 13.18 23.5331 9.6C23.5331 5.96 21.1731 3.88 18.5131 3.88C15.8331 3.88 13.4731 5.96 13.4731 9.6C13.4731 13.18 15.8331 15.28 18.5131 15.28ZM18.5131 13.76C16.6131 13.76 15.3531 12.08 15.3531 9.6C15.3531 7.08 16.6131 5.4 18.5131 5.4C20.3931 5.4 21.6531 7.08 21.6531 9.6C21.6531 12.08 20.3931 13.76 18.5131 13.76ZM29.3923 15.28C30.0723 15.28 30.7923 15.08 31.3923 14.86L31.0323 13.5C30.6923 13.64 30.1923 13.8 29.8123 13.8C28.5523 13.8 28.1323 13.02 28.1323 11.7V5.62H31.0723V4.14H28.1323V1.08H26.5923L26.3923 4.14L24.6923 4.26V5.62H26.3123V11.66C26.3123 13.82 27.0723 15.28 29.3923 15.28ZM37.3998 15.28C40.0598 15.28 42.4198 13.18 42.4198 9.6C42.4198 5.96 40.0598 3.88 37.3998 3.88C34.7198 3.88 32.3598 5.96 32.3598 9.6C32.3598 13.18 34.7198 15.28 37.3998 15.28ZM37.3998 13.76C35.4998 13.76 34.2398 12.08 34.2398 9.6C34.2398 7.08 35.4998 5.4 37.3998 5.4C39.2798 5.4 40.5398 7.08 40.5398 9.6C40.5398 12.08 39.2798 13.76 37.3998 13.76ZM54.0014 15.28C57.0814 15.28 58.9814 13.44 58.9814 11.12C58.9814 8.94 57.6814 7.92 55.9614 7.18L53.8814 6.28C52.7414 5.8 51.4614 5.28 51.4614 3.84C51.4614 2.54 52.5414 1.7 54.2014 1.7C55.5414 1.7 56.6214 2.24 57.5214 3.08L58.5014 1.9C57.4814 0.819999 55.9414 0.079999 54.2014 0.079999C51.5214 0.079999 49.5814 1.72 49.5814 3.98C49.5814 6.12 51.1814 7.16 52.5614 7.74L54.6614 8.66C56.0414 9.26 57.1014 9.74 57.1014 11.26C57.1014 12.68 55.9614 13.64 54.0414 13.64C52.5214 13.64 51.0414 12.94 49.9814 11.82L48.8814 13.1C50.1614 14.44 51.9414 15.28 54.0014 15.28ZM64.1955 15.28C65.5355 15.28 66.7555 14.58 67.7755 13.72H67.8555L68.0155 15H69.5155V8.34C69.5155 5.64 68.3955 3.88 65.7355 3.88C63.9955 3.88 62.4755 4.64 61.4755 5.28L62.1955 6.56C63.0355 5.98 64.1755 5.38 65.4555 5.38C67.2355 5.38 67.6755 6.72 67.6755 8.12C63.0555 8.64 61.0155 9.82 61.0155 12.18C61.0155 14.14 62.3755 15.28 64.1955 15.28ZM64.6955 13.8C63.6355 13.8 62.7955 13.3 62.7955 12.06C62.7955 10.66 64.0155 9.76 67.6755 9.34V12.36C66.6355 13.3 65.7555 13.8 64.6955 13.8ZM72.965 15H74.785V7.12C75.865 6.04 76.645 5.46 77.745 5.46C79.185 5.46 79.805 6.32 79.805 8.36V15H81.645V8.12C81.645 5.36 80.605 3.88 78.325 3.88C76.825 3.88 75.705 4.7 74.685 5.72H74.625L74.445 4.14H72.965V15ZM88.012 15.28C90.572 15.28 91.952 13.82 91.952 12.04C91.952 9.98 90.232 9.34 88.652 8.74C87.412 8.3 86.312 7.9 86.312 6.86C86.312 6.02 86.932 5.3 88.312 5.3C89.272 5.3 90.052 5.72 90.792 6.26L91.672 5.1C90.832 4.42 89.632 3.88 88.292 3.88C85.932 3.88 84.552 5.22 84.552 6.94C84.552 8.8 86.212 9.52 87.712 10.1C88.912 10.54 90.212 11.04 90.212 12.14C90.212 13.1 89.492 13.86 88.052 13.86C86.752 13.86 85.792 13.32 84.852 12.56L83.952 13.78C84.972 14.62 86.472 15.28 88.012 15.28ZM99.1602 15H101.02V10.36L103.54 7.38L107.94 15H109.98L104.68 5.92L109.28 0.339999H107.18L101.06 7.72H101.02V0.339999H99.1602V15ZM112.09 15H113.95V8.8H116.67C119.65 8.8 121.79 7.4 121.79 4.46C121.79 1.42 119.65 0.339999 116.67 0.339999H112.09V15ZM113.95 7.3V1.86H116.41C118.69 1.86 119.95 2.54 119.95 4.46C119.95 6.36 118.69 7.3 116.41 7.3H113.95ZM120.15 15H122.23L117.75 7.34L116.31 8.3L120.15 15Z" fill="#F8A79B"/>
</svg>
