<svg width="129" height="17" viewBox="0 0 129 17" fill="none" xmlns="http://www.w3.org/2000/svg">
<path d="M2.28 15.7C2.28 15.8867 2.18667 15.98 2 15.98H1.1C0.913333 15.98 0.82 15.8867 0.82 15.7V1.7C0.82 1.42 0.84 1.26 0.88 1.22C0.933333 1.16667 1.1 1.14 1.38 1.14H2.3C2.47333 1.14 2.58667 1.16 2.64 1.2C2.70667 1.22667 2.77333 1.3 2.84 1.42L10.38 14.36V1.42C10.38 1.23333 10.4733 1.14 10.66 1.14H11.54C11.7267 1.14 11.82 1.23333 11.82 1.42V15.42C11.82 15.7 11.7933 15.8667 11.74 15.92C11.7 15.96 11.54 15.98 11.26 15.98H10.04C9.93333 15.98 9.85333 15.9667 9.8 15.94C9.76 15.9133 9.70667 15.8467 9.64 15.74L2.28 3.02V15.7ZM21.5513 10.34H21.1713C20.4246 10.3133 19.7579 10.3467 19.1713 10.44C18.5979 10.52 18.1179 10.6333 17.7313 10.78C17.1713 10.98 16.7513 11.28 16.4712 11.68C16.1913 12.0667 16.0513 12.5333 16.0513 13.08C16.0513 13.4133 16.1046 13.7267 16.2113 14.02C16.3179 14.3 16.4846 14.52 16.7113 14.68C17.1113 15 17.6446 15.16 18.3113 15.16C18.7779 15.16 19.2046 15.0667 19.5913 14.88C19.9913 14.6933 20.3379 14.4267 20.6313 14.08C20.9246 13.7333 21.1513 13.3067 21.3113 12.8C21.4713 12.28 21.5513 11.6867 21.5513 11.02V10.34ZM15.8513 6.84C15.7846 6.88 15.7179 6.89333 15.6513 6.88C15.5979 6.85333 15.5713 6.80667 15.5713 6.74V5.98C15.5713 5.79333 15.6646 5.65333 15.8513 5.56C16.3179 5.30667 16.8113 5.13333 17.3313 5.04C17.8646 4.93333 18.4446 4.88 19.0713 4.88C20.4046 4.88 21.3779 5.2 21.9913 5.84C22.6046 6.46667 22.9113 7.42 22.9113 8.7V13.72C22.9113 14.12 22.9179 14.48 22.9313 14.8C22.9446 15.1067 22.9646 15.4067 22.9913 15.7C22.9913 15.8867 22.8979 15.98 22.7113 15.98H21.9913C21.8046 15.98 21.7113 15.8867 21.7113 15.7V14.16C21.4313 14.84 20.9579 15.3667 20.2913 15.74C19.6379 16.1133 18.9246 16.3 18.1513 16.3C16.8046 16.3 15.8179 15.9067 15.1913 15.12C14.9779 14.8533 14.8179 14.5467 14.7113 14.2C14.6046 13.84 14.5513 13.4867 14.5513 13.14C14.5513 12.3267 14.7379 11.6267 15.1113 11.04C15.4979 10.4533 16.0846 10.0133 16.8713 9.72C17.8313 9.37333 19.3046 9.2 21.2913 9.2H21.5513V8.6C21.5513 7.76 21.3579 7.12 20.9713 6.68C20.5979 6.24 19.9646 6.02 19.0713 6.02C18.4713 6.02 17.9046 6.08667 17.3713 6.22C16.8379 6.34 16.3313 6.54667 15.8513 6.84ZM34.8497 15.7C34.8497 15.8867 34.7564 15.98 34.5697 15.98H33.7697C33.583 15.98 33.4897 15.8867 33.4897 15.7V9.4C33.4897 8.17333 33.2697 7.30667 32.8297 6.8C32.3897 6.28 31.7697 6.02 30.9697 6.02C29.8897 6.02 29.063 6.32 28.4897 6.92C27.9297 7.52 27.6497 8.36 27.6497 9.44V15.7C27.6497 15.8867 27.5564 15.98 27.3697 15.98H26.5697C26.383 15.98 26.2897 15.8867 26.2897 15.7V7.7C26.2897 7.12667 26.283 6.68 26.2697 6.36C26.2697 6.04 26.2564 5.73333 26.2297 5.44C26.2164 5.34667 26.2364 5.28 26.2897 5.24C26.3564 5.18667 26.4297 5.16 26.5097 5.16H27.2297C27.4164 5.16 27.5097 5.25333 27.5097 5.44V6.54C27.883 5.96667 28.3297 5.54667 28.8497 5.28C29.383 5.01333 30.1097 4.88 31.0297 4.88C32.2964 4.88 33.2497 5.24667 33.8897 5.98C34.5297 6.71333 34.8497 7.74667 34.8497 9.08V15.7ZM47.0186 15.7C47.0186 15.8867 46.9253 15.98 46.7386 15.98H46.0186C45.8319 15.98 45.7386 15.8867 45.7386 15.7V14.04C45.3919 14.84 44.9253 15.42 44.3386 15.78C43.7653 16.1267 43.0386 16.3 42.1586 16.3C39.6653 16.3 38.4186 14.9067 38.4186 12.12V5.44C38.4186 5.25333 38.5119 5.16 38.6986 5.16H39.4986C39.6853 5.16 39.7786 5.25333 39.7786 5.44V11.76C39.7786 14.0267 40.6453 15.16 42.3786 15.16C42.8853 15.16 43.3386 15.0533 43.7386 14.84C44.1519 14.6133 44.4986 14.3133 44.7786 13.94C45.0586 13.5533 45.2719 13.1067 45.4186 12.6C45.5653 12.0933 45.6319 11.56 45.6186 11V5.44C45.6186 5.25333 45.7119 5.16 45.8986 5.16H46.6986C46.8853 5.16 46.9786 5.25333 46.9786 5.44V13.48C46.9786 13.92 46.9786 14.3133 46.9786 14.66C46.9919 15.0067 47.0053 15.3533 47.0186 15.7ZM50.5675 7.7C50.5675 7.14 50.5608 6.7 50.5475 6.38C50.5342 6.04667 50.5142 5.73333 50.4875 5.44C50.4875 5.25333 50.5808 5.16 50.7675 5.16H51.5075C51.6942 5.16 51.7875 5.25333 51.7875 5.44V6.52C52.0942 6.02667 52.5075 5.64 53.0275 5.36C53.5475 5.06667 54.1875 4.92 54.9475 4.92C55.7475 4.92 56.4475 5.12 57.0475 5.52C57.6475 5.90667 58.0142 6.48 58.1475 7.24C58.4275 6.48 58.8742 5.90667 59.4875 5.52C60.1142 5.12 60.8342 4.92 61.6475 4.92C62.1675 4.92 62.6342 5.01333 63.0475 5.2C63.4742 5.38667 63.8342 5.64667 64.1275 5.98C64.4342 6.3 64.6675 6.68 64.8275 7.12C64.9875 7.56 65.0675 8.02667 65.0675 8.52V15.7C65.0675 15.8867 64.9742 15.98 64.7875 15.98H64.0275C63.8408 15.98 63.7475 15.8933 63.7475 15.72V8.8C63.7475 6.97333 62.9808 6.06 61.4475 6.06C60.9808 6.06 60.5608 6.16667 60.1875 6.38C59.8275 6.58 59.5142 6.86 59.2475 7.22C58.9942 7.58 58.8008 8 58.6675 8.48C58.5475 8.96 58.4942 9.46667 58.5075 10V15.7C58.5075 15.8867 58.4142 15.98 58.2275 15.98H57.4275C57.2408 15.98 57.1475 15.8867 57.1475 15.7V8.8C57.1475 6.97333 56.3742 6.06 54.8275 6.06C53.9208 6.06 53.2075 6.35333 52.6875 6.94C52.1675 7.52667 51.9075 8.3 51.9075 9.26V15.7C51.9075 15.8867 51.8142 15.98 51.6275 15.98H50.8475C50.6608 15.98 50.5675 15.8867 50.5675 15.7V7.7ZM80.1316 7.98C80.4116 7.98 80.5716 8.00667 80.6116 8.06C80.6649 8.1 80.6916 8.26 80.6916 8.54V14.88C80.6916 15.0267 80.6449 15.1533 80.5516 15.26C80.4716 15.3667 80.3782 15.4467 80.2716 15.5C79.6316 15.74 78.9582 15.92 78.2516 16.04C77.5582 16.1733 76.8316 16.24 76.0716 16.24C74.9649 16.24 73.9382 16.0733 72.9916 15.74C72.0582 15.3933 71.2516 14.9 70.5716 14.26C69.8916 13.6067 69.3582 12.8067 68.9716 11.86C68.5982 10.9 68.4116 9.80667 68.4116 8.58C68.4116 7.46 68.5849 6.43333 68.9316 5.5C69.2916 4.56667 69.7982 3.76 70.4516 3.08C71.1182 2.4 71.9249 1.87333 72.8716 1.5C73.8182 1.11333 74.8849 0.92 76.0716 0.92C76.8182 0.92 77.4649 0.953333 78.0116 1.02C78.5716 1.08667 79.1649 1.22 79.7916 1.42C79.9916 1.47333 80.0716 1.60667 80.0316 1.82L79.9316 2.56C79.9182 2.73333 79.8182 2.79333 79.6316 2.74C79.0316 2.51333 78.4582 2.36667 77.9116 2.3C77.3649 2.22 76.7516 2.18 76.0716 2.18C75.1249 2.18 74.2649 2.34 73.4916 2.66C72.7316 2.96667 72.0782 3.4 71.5316 3.96C70.9982 4.52 70.5849 5.19333 70.2916 5.98C70.0116 6.76667 69.8716 7.63333 69.8716 8.58C69.8716 9.60667 70.0249 10.52 70.3316 11.32C70.6382 12.12 71.0649 12.7933 71.6116 13.34C72.1716 13.8733 72.8249 14.28 73.5716 14.56C74.3316 14.84 75.1649 14.98 76.0716 14.98C77.5516 14.98 78.6049 14.8 79.2316 14.44V9.24H75.2116C75.0249 9.24 74.9316 9.14667 74.9316 8.96V8.26C74.9316 8.07333 75.0249 7.98 75.2116 7.98H80.1316ZM92.5691 10.58C92.5691 9.95333 92.4824 9.36667 92.3091 8.82C92.1491 8.27333 91.9224 7.78667 91.6291 7.36C90.9357 6.50667 90.0357 6.08 88.9291 6.08C88.3691 6.08 87.8624 6.19333 87.4091 6.42C86.9691 6.63333 86.5757 6.94667 86.2291 7.36C85.9224 7.78667 85.6824 8.27333 85.5091 8.82C85.3491 9.36667 85.2691 9.95333 85.2691 10.58C85.2691 11.22 85.3491 11.8133 85.5091 12.36C85.6824 12.9067 85.9224 13.3867 86.2291 13.8C86.9357 14.6667 87.8357 15.1 88.9291 15.1C89.4891 15.1 89.9891 14.9867 90.4291 14.76C90.8824 14.5333 91.2824 14.2133 91.6291 13.8C91.9224 13.3867 92.1491 12.9067 92.3091 12.36C92.4824 11.8133 92.5691 11.22 92.5691 10.58ZM94.0491 10.58C94.0491 11.3667 93.9357 12.1 93.7091 12.78C93.4824 13.4467 93.1824 14.0333 92.8091 14.54C92.3424 15.1 91.7824 15.5333 91.1291 15.84C90.4891 16.1467 89.7557 16.3 88.9291 16.3C88.1024 16.3 87.3624 16.1467 86.7091 15.84C86.0557 15.5333 85.4957 15.1 85.0291 14.54C84.6557 14.0333 84.3557 13.4467 84.1291 12.78C83.9157 12.1 83.8091 11.3667 83.8091 10.58C83.8091 8.96667 84.2157 7.64667 85.0291 6.62C85.9624 5.46 87.2624 4.88 88.9291 4.88C89.7691 4.88 90.5091 5.02667 91.1491 5.32C91.7891 5.6 92.3424 6.03333 92.8091 6.62C93.6357 7.67333 94.0491 8.99333 94.0491 10.58ZM101.818 16C101.258 16.2 100.705 16.3 100.158 16.3C99.078 16.3 98.3646 15.9467 98.018 15.24C97.7913 14.76 97.678 13.9133 97.678 12.7V6.32H95.798C95.6113 6.32 95.518 6.22667 95.518 6.04V5.44C95.518 5.25333 95.6113 5.16 95.798 5.16H97.678V2.46C97.678 2.26 97.7646 2.16 97.938 2.16H98.778C98.9513 2.16 99.038 2.26 99.038 2.46V5.16H101.258C101.445 5.16 101.538 5.25333 101.538 5.44V6.04C101.538 6.22667 101.445 6.32 101.258 6.32H99.038V13.38C99.038 14.5667 99.518 15.16 100.478 15.16C100.851 15.16 101.271 15.08 101.738 14.92C101.805 14.8933 101.865 14.8933 101.918 14.92C101.985 14.9467 102.018 15 102.018 15.08L102.058 15.6C102.085 15.7867 102.005 15.92 101.818 16ZM112.604 15.7C112.604 15.8867 112.51 15.98 112.324 15.98H111.524C111.337 15.98 111.244 15.8867 111.244 15.7V9.54C111.244 8.9 111.184 8.36 111.064 7.92C110.957 7.46667 110.797 7.10667 110.584 6.84C110.37 6.56 110.11 6.36 109.804 6.24C109.497 6.12 109.157 6.06 108.784 6.06C107.69 6.06 106.85 6.32 106.264 6.84C105.69 7.36 105.404 8.08 105.404 9V15.7C105.404 15.8867 105.31 15.98 105.124 15.98H104.324C104.137 15.98 104.044 15.8867 104.044 15.7V0.339999C104.044 0.153332 104.137 0.059999 104.324 0.059999H105.124C105.31 0.059999 105.404 0.153332 105.404 0.339999V6.14C105.777 5.71333 106.237 5.40667 106.784 5.22C107.344 5.02 108.037 4.92 108.864 4.92C110.157 4.92 111.104 5.3 111.704 6.06C112.304 6.82 112.604 7.97333 112.604 9.52V15.7ZM117.593 16.58C117.593 16.7667 117.499 16.86 117.313 16.86H116.433C116.246 16.86 116.153 16.7667 116.153 16.58V6.32C116.153 6.13333 116.246 6.04 116.433 6.04H117.313C117.499 6.04 117.593 6.13333 117.593 6.32V16.58ZM115.893 2.26C115.893 1.99333 115.986 1.76667 116.173 1.58C116.359 1.38 116.586 1.28 116.853 1.28C117.119 1.28 117.346 1.38 117.533 1.58C117.733 1.76667 117.833 1.99333 117.833 2.26C117.833 2.52667 117.733 2.75333 117.533 2.94C117.346 3.12667 117.119 3.22 116.853 3.22C116.586 3.22 116.359 3.12667 116.173 2.94C115.986 2.75333 115.893 2.52667 115.893 2.26ZM127.956 16.06C127.556 16.1267 127.17 16.1733 126.796 16.2C126.423 16.2267 125.976 16.24 125.456 16.24C124.63 16.24 123.89 16.0933 123.236 15.8C122.596 15.5067 122.05 15.1067 121.596 14.6C121.156 14.0933 120.816 13.4933 120.576 12.8C120.336 12.1067 120.216 11.36 120.216 10.56C120.216 9.74667 120.343 9 120.596 8.32C120.85 7.62667 121.21 7.03333 121.676 6.54C122.156 6.03333 122.723 5.64 123.376 5.36C124.043 5.06667 124.79 4.92 125.616 4.92C126.056 4.92 126.456 4.94 126.816 4.98C127.176 5.00667 127.563 5.06667 127.976 5.16C128.163 5.21333 128.25 5.34 128.236 5.54L128.176 6.18C128.15 6.34 128.05 6.4 127.876 6.36C127.53 6.25333 127.196 6.18 126.876 6.14C126.556 6.08667 126.203 6.06 125.816 6.06C125.136 6.06 124.536 6.17333 124.016 6.4C123.51 6.61333 123.083 6.92 122.736 7.32C122.39 7.72 122.13 8.2 121.956 8.76C121.783 9.30667 121.696 9.90667 121.696 10.56C121.696 11.16 121.783 11.7333 121.956 12.28C122.143 12.8267 122.403 13.3133 122.736 13.74C123.083 14.1533 123.496 14.4867 123.976 14.74C124.47 14.98 125.03 15.1 125.656 15.1C126.123 15.1 126.51 15.08 126.816 15.04C127.123 15 127.47 14.9267 127.856 14.82C128.056 14.7667 128.163 14.8133 128.176 14.96L128.236 15.7C128.25 15.9 128.156 16.02 127.956 16.06Z" fill="#F8A79B"/>
</svg>
