<svg width="995" height="160" viewBox="0 0 995 160" fill="none" xmlns="http://www.w3.org/2000/svg">
<rect x="666.5" y="0.5" width="353" height="159" fill="#243F5B" stroke="white"/>
<path d="M711.679 49.1847H709.463C709.378 48.7112 709.219 48.2945 708.987 47.9347C708.755 47.5748 708.471 47.2694 708.135 47.0185C707.799 46.7675 707.422 46.5781 707.006 46.4503C706.594 46.3224 706.156 46.2585 705.692 46.2585C704.854 46.2585 704.103 46.4692 703.44 46.8906C702.782 47.312 702.261 47.9299 701.878 48.7443C701.499 49.5587 701.31 50.553 701.31 51.7273C701.31 52.911 701.499 53.91 701.878 54.7244C702.261 55.5388 702.785 56.1544 703.447 56.571C704.11 56.9877 704.856 57.196 705.685 57.196C706.144 57.196 706.58 57.1345 706.991 57.0114C707.408 56.8835 707.785 56.6965 708.121 56.4503C708.457 56.2041 708.741 55.9034 708.973 55.5483C709.21 55.1884 709.373 54.7765 709.463 54.3125L711.679 54.3196C711.561 55.0346 711.331 55.6927 710.99 56.294C710.654 56.8906 710.221 57.4067 709.69 57.8423C709.165 58.2732 708.563 58.607 707.886 58.8438C707.209 59.0805 706.471 59.1989 705.67 59.1989C704.411 59.1989 703.289 58.9006 702.304 58.304C701.319 57.7027 700.543 56.8433 699.974 55.7259C699.411 54.6084 699.129 53.2756 699.129 51.7273C699.129 50.1742 699.413 48.8414 699.982 47.7287C700.55 46.6113 701.326 45.7543 702.311 45.1577C703.296 44.5563 704.416 44.2557 705.67 44.2557C706.442 44.2557 707.162 44.367 707.83 44.5895C708.502 44.8073 709.106 45.1293 709.641 45.5554C710.176 45.9768 710.618 46.4929 710.969 47.1037C711.319 47.7098 711.556 48.4034 711.679 49.1847ZM728.34 51.7273C728.34 53.2803 728.056 54.6155 727.488 55.733C726.92 56.8456 726.141 57.7027 725.151 58.304C724.166 58.9006 723.046 59.1989 721.792 59.1989C720.532 59.1989 719.408 58.9006 718.418 58.304C717.433 57.7027 716.657 56.8433 716.089 55.7259C715.52 54.6084 715.236 53.2756 715.236 51.7273C715.236 50.1742 715.52 48.8414 716.089 47.7287C716.657 46.6113 717.433 45.7543 718.418 45.1577C719.408 44.5563 720.532 44.2557 721.792 44.2557C723.046 44.2557 724.166 44.5563 725.151 45.1577C726.141 45.7543 726.92 46.6113 727.488 47.7287C728.056 48.8414 728.34 50.1742 728.34 51.7273ZM726.167 51.7273C726.167 50.5436 725.975 49.5469 725.591 48.7372C725.213 47.9228 724.692 47.3073 724.029 46.8906C723.371 46.4692 722.625 46.2585 721.792 46.2585C720.954 46.2585 720.206 46.4692 719.547 46.8906C718.889 47.3073 718.368 47.9228 717.985 48.7372C717.606 49.5469 717.417 50.5436 717.417 51.7273C717.417 52.911 717.606 53.91 717.985 54.7244C718.368 55.5341 718.889 56.1496 719.547 56.571C720.206 56.9877 720.954 57.196 721.792 57.196C722.625 57.196 723.371 56.9877 724.029 56.571C724.692 56.1496 725.213 55.5341 725.591 54.7244C725.975 53.91 726.167 52.911 726.167 51.7273ZM744.216 44.4545V59H742.199L734.806 48.3324H734.671V59H732.476V44.4545H734.507L741.908 55.1364H742.043V44.4545H744.216ZM760.899 49.1847H758.683C758.597 48.7112 758.439 48.2945 758.207 47.9347C757.975 47.5748 757.691 47.2694 757.354 47.0185C757.018 46.7675 756.642 46.5781 756.225 46.4503C755.813 46.3224 755.375 46.2585 754.911 46.2585C754.073 46.2585 753.323 46.4692 752.66 46.8906C752.002 47.312 751.481 47.9299 751.097 48.7443C750.719 49.5587 750.529 50.553 750.529 51.7273C750.529 52.911 750.719 53.91 751.097 54.7244C751.481 55.5388 752.004 56.1544 752.667 56.571C753.33 56.9877 754.076 57.196 754.904 57.196C755.363 57.196 755.799 57.1345 756.211 57.0114C756.628 56.8835 757.004 56.6965 757.34 56.4503C757.676 56.2041 757.961 55.9034 758.193 55.5483C758.429 55.1884 758.593 54.7765 758.683 54.3125L760.899 54.3196C760.78 55.0346 760.55 55.6927 760.21 56.294C759.873 56.8906 759.44 57.4067 758.91 57.8423C758.384 58.2732 757.783 58.607 757.106 58.8438C756.429 59.0805 755.69 59.1989 754.89 59.1989C753.631 59.1989 752.508 58.9006 751.524 58.304C750.539 57.7027 749.762 56.8433 749.194 55.7259C748.631 54.6084 748.349 53.2756 748.349 51.7273C748.349 50.1742 748.633 48.8414 749.201 47.7287C749.769 46.6113 750.546 45.7543 751.531 45.1577C752.515 44.5563 753.635 44.2557 754.89 44.2557C755.662 44.2557 756.381 44.367 757.049 44.5895C757.721 44.8073 758.325 45.1293 758.86 45.5554C759.395 45.9768 759.838 46.4929 760.188 47.1037C760.539 47.7098 760.775 48.4034 760.899 49.1847ZM764.925 59V44.4545H774.044V46.3438H767.119V50.7756H773.568V52.6577H767.119V57.1108H774.129V59H764.925ZM778.375 59V44.4545H783.56C784.692 44.4545 785.629 44.6605 786.373 45.0724C787.116 45.4844 787.672 46.0478 788.042 46.7628C788.411 47.473 788.596 48.2732 788.596 49.1634C788.596 50.0582 788.408 50.8632 788.034 51.5781C787.665 52.2884 787.106 52.8518 786.358 53.2685C785.615 53.6804 784.68 53.8864 783.553 53.8864H779.988V52.0256H783.354C784.069 52.0256 784.649 51.9025 785.094 51.6562C785.539 51.4053 785.866 51.0644 786.074 50.6335C786.283 50.2027 786.387 49.7126 786.387 49.1634C786.387 48.6141 786.283 48.1264 786.074 47.7003C785.866 47.2741 785.537 46.9403 785.087 46.6989C784.642 46.4574 784.055 46.3366 783.326 46.3366H780.57V59H778.375ZM791.851 46.3438V44.4545H803.108V46.3438H798.57V59H796.382V46.3438H791.851Z" fill="white"/>
<rect x="0.5" y="0.5" width="656" height="159" fill="white" stroke="white"/>
<path d="M113.26 43.54V54.72H111.32V49.94H109.24V54.56H107.32V43.8H109.24V48.28H111.32V43.54H113.26ZM104.56 45.8H99.86V44.18H104.56V45.8ZM102.16 51.84C102.04 51.84 101.94 51.8867 101.86 51.98C101.153 52.8867 100.193 53.8067 98.98 54.74L97.68 53.58C98.9067 52.5933 99.7867 51.7467 100.32 51.04C100.853 50.32 101.16 49.5533 101.24 48.74H98.14V47.14H106.18V48.74H103.08C103.027 49.58 102.793 50.38 102.38 51.14L102.48 51.2L102.86 50.92C103.02 50.8 103.173 50.74 103.32 50.74C103.493 50.74 103.693 50.82 103.92 50.98L106.62 53.2L105.3 54.38L102.46 51.96C102.353 51.88 102.253 51.84 102.16 51.84ZM101.3 55.68H113.26V61.96H111.28V57.38H101.3V55.68ZM132.492 43.54V61.06H130.552V43.54H132.492ZM126.692 43.82H128.612V60.58H126.692V51.6H125.172C125.079 53.2933 124.665 54.5733 123.932 55.44C123.212 56.2933 122.265 56.72 121.092 56.72C119.839 56.72 118.845 56.2267 118.112 55.24C117.379 54.2533 117.012 52.7933 117.012 50.86C117.012 48.9133 117.379 47.4533 118.112 46.48C118.845 45.4933 119.839 45 121.092 45C122.252 45 123.185 45.4133 123.892 46.24C124.612 47.0533 125.032 48.28 125.152 49.92H126.692V43.82ZM123.132 49.6C123.132 48.6267 122.945 47.8867 122.572 47.38C122.199 46.86 121.705 46.6 121.092 46.6C120.479 46.6 119.985 46.86 119.612 47.38C119.252 47.8867 119.072 48.6267 119.072 49.6V52.12C119.072 53.0933 119.252 53.84 119.612 54.36C119.985 54.8667 120.479 55.12 121.092 55.12C121.719 55.12 122.212 54.8667 122.572 54.36C122.945 53.84 123.132 53.0933 123.132 52.12V49.6ZM157.451 43.54V53.34H155.431V43.54H157.451ZM144.131 53.4L142.651 52.12C143.717 51.3467 144.557 50.6467 145.171 50.02C145.797 49.3933 146.251 48.7733 146.531 48.16C146.824 47.5467 146.977 46.88 146.991 46.16H143.291V44.48H152.711V46.16H148.991V46.22C148.991 47.3133 148.737 48.3133 148.231 49.22L148.351 49.28L148.791 48.98C148.964 48.8467 149.151 48.78 149.351 48.78C149.564 48.78 149.757 48.8467 149.931 48.98L153.371 51.76L151.891 53.08L148.311 50.06C148.191 49.9667 148.077 49.92 147.971 49.92C147.864 49.92 147.764 49.9667 147.671 50.06C147.297 50.5533 146.831 51.06 146.271 51.58C145.724 52.0867 145.011 52.6933 144.131 53.4ZM155.471 54.36H157.451V61.78H147.471C147.044 61.78 146.717 61.6667 146.491 61.44C146.277 61.2133 146.171 60.8867 146.171 60.46V54.36H148.171V56.44H155.471V54.36ZM155.471 58.04H148.171V60.18H155.471V58.04ZM168.743 45.72H163.543V44.12H175.963V45.72H170.783C170.716 46.5867 170.416 47.3333 169.883 47.96L169.983 48.02L170.543 47.62C170.743 47.4733 170.963 47.4 171.203 47.4C171.403 47.4 171.603 47.4467 171.803 47.54L176.743 49.78L175.683 51.26L170.283 48.66C170.096 48.5667 169.909 48.52 169.723 48.52C169.536 48.52 169.356 48.5667 169.183 48.66L169.083 48.72C168.003 49.56 166.236 50.4133 163.783 51.28L162.743 49.84C164.169 49.3467 165.303 48.8933 166.143 48.48C166.983 48.0533 167.603 47.62 168.003 47.18C168.416 46.74 168.663 46.2533 168.743 45.72ZM170.763 53.92V55.26C172.363 55.3667 173.589 55.7267 174.443 56.34C175.309 56.9533 175.743 57.7333 175.743 58.68C175.743 59.36 175.509 59.96 175.043 60.48C174.589 61 173.909 61.4 173.003 61.68C172.109 61.9733 171.023 62.12 169.743 62.12C168.463 62.12 167.369 61.9733 166.463 61.68C165.569 61.4 164.889 61 164.423 60.48C163.969 59.96 163.743 59.36 163.743 58.68C163.743 57.7333 164.169 56.9533 165.023 56.34C165.889 55.7267 167.129 55.3667 168.743 55.26V53.92H161.543V52.22H177.943V53.92H170.763ZM169.743 56.8C168.436 56.8 167.456 56.9667 166.803 57.3C166.149 57.6333 165.823 58.0533 165.823 58.56V58.8C165.823 59.3067 166.149 59.7267 166.803 60.06C167.456 60.3933 168.436 60.56 169.743 60.56C171.063 60.56 172.043 60.3933 172.683 60.06C173.323 59.7267 173.643 59.3067 173.643 58.8V58.56C173.643 58.0533 173.323 57.6333 172.683 57.3C172.043 56.9667 171.063 56.8 169.743 56.8ZM195.875 43.54V61.06H193.855V43.54H195.875ZM192.615 55.42L192.795 57.04C191.315 57.2667 189.521 57.44 187.415 57.56C185.308 57.68 183.155 57.74 180.955 57.74L180.775 56.04C182.575 56.04 184.175 56.0133 185.575 55.96V52.4H182.235V44.88H191.035V46.56H184.215V50.72H191.175V52.4H187.535V55.88C189.735 55.7467 191.428 55.5933 192.615 55.42ZM214.127 50.62H202.467V44.2H204.487V48.96H214.127V50.62ZM216.407 52.52V54.26H200.007V52.52H216.407ZM204.347 59.72H214.327V61.4H203.607C203.18 61.4 202.853 61.2867 202.627 61.06C202.413 60.8333 202.307 60.5067 202.307 60.08V55.84H204.347V59.72ZM241.765 57.42V59.12H225.365V57.42H232.565V53.3H227.565V44.62H239.565V53.3H234.585V57.42H241.765ZM229.585 51.6H237.545V46.32H229.585V51.6ZM257.717 48.22V43.54H259.737V56.76H257.717V49.88H253.117V48.22H257.717ZM255.177 53.26C252.991 53.6867 250.437 53.9 247.517 53.9H245.617V44.7H253.637V46.4H247.637V52.22C250.491 52.22 252.917 52.0333 254.917 51.66L255.177 53.26ZM260.097 59.78V61.44H249.697C249.271 61.44 248.944 61.3267 248.717 61.1C248.504 60.8733 248.397 60.5467 248.397 60.12V55.46H250.417V59.78H260.097ZM280.749 49.34V51.04H278.029V57.04H276.009V43.54H278.029V49.34H280.749ZM271.809 45.74H266.469V44.04H271.809V45.74ZM269.029 55.08C268.176 55.08 267.429 54.94 266.789 54.66C266.149 54.3667 265.656 53.9733 265.309 53.48C264.976 52.9867 264.809 52.44 264.809 51.84C264.809 50.5867 265.363 49.7133 266.469 49.22V49.1H263.629V47.44H274.389V49.1H271.589V49.22C272.149 49.4733 272.569 49.8267 272.849 50.28C273.129 50.72 273.269 51.24 273.269 51.84C273.269 52.44 273.096 52.9867 272.749 53.48C272.403 53.9733 271.909 54.3667 271.269 54.66C270.629 54.94 269.883 55.08 269.029 55.08ZM268.869 53.38H269.189C269.829 53.38 270.356 53.2 270.769 52.84C271.183 52.48 271.389 51.9867 271.389 51.36C271.389 50.7333 271.183 50.24 270.769 49.88C270.369 49.52 269.843 49.34 269.189 49.34H268.869C268.229 49.34 267.703 49.52 267.289 49.88C266.889 50.24 266.689 50.7333 266.689 51.36C266.689 51.9867 266.889 52.48 267.289 52.84C267.703 53.2 268.229 53.38 268.869 53.38ZM268.909 59.92H278.449V61.58H268.189C267.763 61.58 267.436 61.4667 267.209 61.24C266.996 61.0133 266.889 60.6867 266.889 60.26V56.44H268.909V59.92ZM304.268 43.54V61.06H302.228V43.54H304.268ZM300.028 54.32L300.268 55.96C298.175 56.3733 295.535 56.58 292.348 56.58H290.328V44.96H298.568V46.66H292.368V54.9C295.368 54.9 297.921 54.7067 300.028 54.32ZM325.34 51.9H322.54V61.08H320.52V43.56H322.54V50.2H325.34V51.9ZM314.82 51.1C315.047 51.1 315.24 51.1867 315.4 51.36L318.96 55.56L317.46 56.84L313.82 52.4C313.767 52.32 313.687 52.28 313.58 52.28C313.487 52.28 313.407 52.32 313.34 52.4C312.967 53.0933 312.493 53.8067 311.92 54.54C311.347 55.2733 310.607 56.1333 309.7 57.12L308.2 55.88C309.293 54.7733 310.147 53.78 310.76 52.9C311.387 52.02 311.84 51.1467 312.12 50.28C312.413 49.4 312.56 48.4333 312.56 47.38V46.78H308.82V45.08H318.26V46.78H314.54V47.44C314.54 48.9333 314.287 50.3 313.78 51.54L313.86 51.6L314.28 51.3C314.453 51.1667 314.633 51.1 314.82 51.1ZM342.792 43.54V56.76H340.772V43.54H342.792ZM328.152 49.04C328.152 48.08 328.352 47.2533 328.752 46.56C329.152 45.8533 329.705 45.3133 330.412 44.94C331.119 44.5667 331.932 44.38 332.852 44.38C333.772 44.38 334.585 44.5667 335.292 44.94C336.012 45.3133 336.572 45.8533 336.972 46.56C337.372 47.2533 337.572 48.08 337.572 49.04C337.572 49.9867 337.372 50.8133 336.972 51.52C336.572 52.2133 336.012 52.7467 335.292 53.12C334.585 53.4933 333.772 53.68 332.852 53.68C331.932 53.68 331.119 53.4933 330.412 53.12C329.705 52.7467 329.152 52.2133 328.752 51.52C328.352 50.8133 328.152 49.9867 328.152 49.04ZM335.412 49.52V48.56C335.412 47.8 335.179 47.1933 334.712 46.74C334.245 46.2867 333.625 46.06 332.852 46.06C332.079 46.06 331.459 46.2867 330.992 46.74C330.525 47.1933 330.292 47.8 330.292 48.56V49.52C330.292 50.28 330.525 50.8867 330.992 51.34C331.459 51.7933 332.079 52.02 332.852 52.02C333.625 52.02 334.245 51.7933 334.712 51.34C335.179 50.8867 335.412 50.28 335.412 49.52ZM331.452 60.12V55.32H333.472V59.78H343.152V61.44H332.752C332.325 61.44 331.999 61.3267 331.772 61.1C331.559 60.8733 331.452 60.5467 331.452 60.12ZM359.964 43.54H361.984V61.06H359.964V43.54ZM347.684 48.82C347.684 47.98 347.891 47.24 348.304 46.6C348.731 45.9467 349.311 45.4467 350.044 45.1C350.777 44.74 351.611 44.56 352.544 44.56C353.477 44.56 354.311 44.74 355.044 45.1C355.777 45.4467 356.351 45.9467 356.764 46.6C357.191 47.24 357.404 47.98 357.404 48.82C357.404 49.66 357.191 50.4 356.764 51.04C356.351 51.68 355.777 52.18 355.044 52.54C354.311 52.8867 353.477 53.06 352.544 53.06C351.611 53.06 350.777 52.8867 350.044 52.54C349.311 52.18 348.731 51.68 348.304 51.04C347.891 50.4 347.684 49.66 347.684 48.82ZM355.284 49.04V48.58C355.284 47.86 355.031 47.28 354.524 46.84C354.017 46.4 353.357 46.18 352.544 46.18C351.731 46.18 351.071 46.4 350.564 46.84C350.057 47.28 349.804 47.86 349.804 48.58V49.04C349.804 49.76 350.057 50.34 350.564 50.78C351.071 51.22 351.731 51.44 352.544 51.44C353.357 51.44 354.017 51.22 354.524 50.78C355.031 50.34 355.284 49.76 355.284 49.04ZM346.924 55.72C349.177 55.72 351.357 55.6667 353.464 55.56C355.571 55.4533 357.331 55.3 358.744 55.1L358.944 56.7C357.464 56.94 355.671 57.12 353.564 57.24C351.471 57.36 349.311 57.42 347.084 57.42L346.924 55.72ZM388.643 57.42V59.12H372.243V57.42H379.443V53.22H374.563V44.72H386.403V46.44H376.603V51.48H386.543V53.22H381.463V57.42H388.643ZM406.575 43.54V61.06H404.555V50.92H401.115V49.22H404.555V43.54H406.575ZM398.115 50.7C398.315 50.7 398.495 50.7933 398.655 50.98L402.275 55.64L400.715 56.96L397.055 52.1C397.015 52.02 396.955 51.98 396.875 51.98C396.808 51.98 396.741 52.02 396.675 52.1C396.328 52.8467 395.868 53.6067 395.295 54.38C394.735 55.1533 393.975 56.1133 393.015 57.26L391.455 55.96C392.548 54.7333 393.401 53.6533 394.015 52.72C394.641 51.7867 395.095 50.8533 395.375 49.92C395.655 48.9733 395.795 47.9133 395.795 46.74V44.7H397.835V46.72C397.835 48.3733 397.588 49.8533 397.095 51.16L397.195 51.22L397.575 50.92C397.761 50.7733 397.941 50.7 398.115 50.7ZM427.627 49.28V50.98H425.107V57H423.107V43.54H425.107V49.28H427.627ZM418.727 46.38H411.587V44.72H420.707V45.94C420.707 47.5533 420.507 49.3333 420.107 51.28L418.167 51C418.5 49.6933 418.687 48.1533 418.727 46.38ZM421.967 53.88C420.5 54.1067 418.733 54.2867 416.667 54.42C414.6 54.54 412.5 54.6 410.367 54.6L410.207 52.92C411.527 52.92 412.833 52.9 414.127 52.86V49.06H416.107V52.8C418.453 52.6933 420.347 52.5267 421.787 52.3L421.967 53.88ZM415.727 59.78H425.467V61.44H414.987C414.56 61.44 414.233 61.3267 414.007 61.1C413.793 60.8733 413.687 60.5467 413.687 60.12V56.04H415.727V59.78Z" fill="black"/>
<path d="M107.665 86.005V82.465H108.805V92.35H107.665V86.965H104.935V86.005H107.665ZM101.665 87.415C101.595 87.415 101.53 87.445 101.47 87.505C101.2 87.925 100.855 88.36 100.435 88.81C100.015 89.25 99.455 89.79 98.755 90.43L97.9 89.695C98.74 88.975 99.39 88.355 99.85 87.835C100.31 87.305 100.64 86.785 100.84 86.275C101.05 85.755 101.155 85.175 101.155 84.535V84.385H98.29V83.44H105.13V84.385H102.295V84.595C102.295 85.485 102.12 86.28 101.77 86.98L101.86 87.025L102.085 86.845C102.195 86.765 102.3 86.725 102.4 86.725C102.52 86.725 102.64 86.775 102.76 86.875L105.565 89.425L104.725 90.16L101.89 87.505C101.83 87.445 101.755 87.415 101.665 87.415ZM109.075 94.825V95.77H101.215C100.975 95.77 100.79 95.705 100.66 95.575C100.53 95.445 100.465 95.255 100.465 95.005V91.45H101.62V94.825H109.075ZM123.559 82.465V95.485H122.479V82.465H123.559ZM119.479 82.69H120.529V95.125H119.479V89.02H117.604V88.09H119.479V82.69ZM116.989 84.265H113.539V83.335H116.989V84.265ZM115.804 89.08C115.924 89.08 116.039 89.135 116.149 89.245L118.564 91.93L117.784 92.605L115.354 89.8C115.304 89.75 115.254 89.725 115.204 89.725C115.144 89.725 115.094 89.755 115.054 89.815C114.824 90.245 114.519 90.7 114.139 91.18C113.769 91.65 113.289 92.195 112.699 92.815L111.934 92.155C112.664 91.395 113.224 90.74 113.614 90.19C114.014 89.63 114.299 89.08 114.469 88.54C114.639 88 114.724 87.385 114.724 86.695H112.249V85.78H118.234V86.695H115.774C115.774 87.635 115.624 88.48 115.324 89.23L115.384 89.275L115.519 89.17C115.609 89.11 115.704 89.08 115.804 89.08ZM137.653 82.465V90.355H136.513V86.74H133.783V85.81H136.513V82.465H137.653ZM127.603 90.025L126.748 89.305C127.588 88.615 128.238 88.025 128.698 87.535C129.158 87.035 129.488 86.545 129.688 86.065C129.898 85.585 130.003 85.04 130.003 84.43V84.265H127.138V83.305H133.978V84.265H131.143V84.49C131.143 85.34 130.968 86.095 130.618 86.755L130.708 86.8L130.948 86.635C131.058 86.545 131.168 86.5 131.278 86.5C131.408 86.5 131.523 86.545 131.623 86.635L134.413 89.035L133.573 89.785L130.738 87.28C130.658 87.22 130.583 87.19 130.513 87.19C130.433 87.19 130.363 87.22 130.303 87.28C130.043 87.67 129.708 88.07 129.298 88.48C128.888 88.88 128.323 89.395 127.603 90.025ZM129.058 91.165H137.653V96.145H136.528V92.125H129.058V91.165ZM142.237 86.545C142.237 85.875 142.407 85.275 142.747 84.745C143.097 84.205 143.627 83.775 144.337 83.455C145.047 83.135 145.922 82.975 146.962 82.975C148.002 82.975 148.877 83.135 149.587 83.455C150.297 83.775 150.822 84.205 151.162 84.745C151.512 85.275 151.687 85.875 151.687 86.545C151.687 87.215 151.512 87.82 151.162 88.36C150.822 88.9 150.297 89.33 149.587 89.65C148.877 89.97 148.002 90.13 146.962 90.13C145.922 90.13 145.047 89.97 144.337 89.65C143.627 89.33 143.097 88.9 142.747 88.36C142.407 87.82 142.237 87.215 142.237 86.545ZM150.457 86.725V86.38C150.457 85.92 150.332 85.505 150.082 85.135C149.842 84.755 149.457 84.455 148.927 84.235C148.407 84.005 147.752 83.89 146.962 83.89C146.172 83.89 145.512 84.005 144.982 84.235C144.462 84.455 144.077 84.755 143.827 85.135C143.587 85.505 143.467 85.92 143.467 86.38V86.725C143.467 87.435 143.757 88.025 144.337 88.495C144.917 88.965 145.792 89.2 146.962 89.2C148.132 89.2 149.007 88.965 149.587 88.495C150.167 88.025 150.457 87.435 150.457 86.725ZM140.842 93.025H153.082V94H140.842V93.025ZM167.506 93.04V94H155.266V93.04H160.816V90.475H157.066V86.41H164.566V84.205H156.991V83.26H165.706V87.325H158.206V89.53H166.096V90.475H161.956V93.04H167.506ZM187.005 85.45V86.41H184.995V89.335H183.87V82.465H184.995V85.45H187.005ZM174.885 88.765L174.12 88.09C174.86 87.62 175.435 87.205 175.845 86.845C176.265 86.475 176.565 86.105 176.745 85.735C176.935 85.365 177.03 84.945 177.03 84.475V83.995H174.585V83.065H178.095V84.325C178.095 84.955 177.99 85.505 177.78 85.975C177.57 86.445 177.235 86.895 176.775 87.325C176.325 87.745 175.695 88.225 174.885 88.765ZM180.93 84.655V83.995H178.77V83.065H181.995V84.52C181.995 85.24 181.895 85.86 181.695 86.38C181.495 86.89 181.18 87.37 180.75 87.82C180.32 88.27 179.71 88.775 178.92 89.335L178.11 88.675C178.84 88.175 179.405 87.73 179.805 87.34C180.205 86.94 180.49 86.53 180.66 86.11C180.84 85.69 180.93 85.205 180.93 84.655ZM177.765 95.125H185.355V96.1H177.375C177.135 96.1 176.95 96.035 176.82 95.905C176.69 95.775 176.625 95.585 176.625 95.335V92.62H183.855V91.075H176.535V90.115H185.01V93.58H177.765V95.125ZM200.949 88.135V89.11H188.709V88.135H192.369C192.599 87.455 192.774 86.77 192.894 86.08C193.024 85.39 193.084 84.645 193.074 83.845V83.815H189.909V82.885H194.154V83.845C194.154 85.335 193.934 86.765 193.494 88.135H197.784C198.154 86.745 198.334 85.315 198.324 83.845V83.815H195.084V82.885H199.419V83.89C199.419 85.31 199.249 86.725 198.909 88.135H200.949ZM190.524 90.97H199.134V95.995H191.274C191.034 95.995 190.849 95.93 190.719 95.8C190.589 95.67 190.524 95.48 190.524 95.23V90.97ZM191.649 95.05H198.009V91.9H191.649V95.05ZM215.763 88.795H213.648V95.515H212.508V82.495H213.648V87.835H215.763V88.795ZM209.313 84.175H205.053V83.2H209.313V84.175ZM203.058 85.975H211.083V86.905H208.863V86.995C209.773 87.445 210.228 88.31 210.228 89.59C210.228 90.24 210.093 90.805 209.823 91.285C209.553 91.755 209.178 92.115 208.698 92.365C208.228 92.615 207.703 92.74 207.123 92.74C206.543 92.74 206.013 92.615 205.533 92.365C205.063 92.115 204.693 91.755 204.423 91.285C204.153 90.805 204.018 90.24 204.018 89.59C204.018 88.31 204.473 87.445 205.383 86.995V86.905H203.058V85.975ZM209.118 89.095C209.118 88.425 208.938 87.915 208.578 87.565C208.218 87.205 207.733 87.025 207.123 87.025C206.523 87.025 206.038 87.205 205.668 87.565C205.308 87.925 205.128 88.435 205.128 89.095V89.71C205.128 90.36 205.313 90.87 205.683 91.24C206.053 91.6 206.533 91.78 207.123 91.78C207.713 91.78 208.193 91.6 208.563 91.24C208.933 90.87 209.118 90.36 209.118 89.71V89.095ZM229.122 82.465V95.485H228.012V82.465H229.122ZM224.997 82.69H226.092V95.125H224.997V88.51H222.732C222.452 89.25 221.992 89.945 221.352 90.595C220.722 91.235 219.807 91.955 218.607 92.755L217.857 91.99C218.987 91.26 219.847 90.61 220.437 90.04C221.027 89.46 221.442 88.855 221.682 88.225C221.922 87.585 222.042 86.8 222.042 85.87V84.715H218.202V83.8H223.137V85.84C223.137 86.49 223.087 87.065 222.987 87.565H224.997V82.69ZM247.811 92.815H246.671V82.465H247.811V92.815ZM243.056 83.605H239.081V82.705H243.056V83.605ZM239.111 85.855H236.966V84.985H244.901V85.855H242.831V85.93C243.651 86.26 244.061 86.82 244.061 87.61C244.061 88.21 243.776 88.7 243.206 89.08C242.646 89.45 241.901 89.635 240.971 89.635C240.031 89.635 239.281 89.45 238.721 89.08C238.161 88.7 237.881 88.21 237.881 87.61C237.881 86.82 238.291 86.26 239.111 85.93V85.855ZM243.011 87.325C243.011 86.875 242.841 86.53 242.501 86.29C242.161 86.04 241.716 85.915 241.166 85.915H240.761C240.221 85.915 239.781 86.04 239.441 86.29C239.101 86.53 238.931 86.875 238.931 87.325C238.931 87.765 239.101 88.11 239.441 88.36C239.781 88.61 240.221 88.735 240.761 88.735H241.166C241.706 88.735 242.146 88.61 242.486 88.36C242.836 88.11 243.011 87.765 243.011 87.325ZM245.651 91.105C244.511 91.285 243.151 91.42 241.571 91.51C240.001 91.6 238.391 91.645 236.741 91.645L236.636 90.715C238.336 90.715 239.971 90.675 241.541 90.595C243.121 90.515 244.456 90.39 245.546 90.22L245.651 91.105ZM248.051 94.99V95.92H240.056C239.816 95.92 239.631 95.855 239.501 95.725C239.371 95.595 239.306 95.405 239.306 95.155V92.545H240.446V94.99H248.051ZM262.565 82.465V90.295H261.455V86.83H259.445V90.13H258.35V82.675H259.445V85.9H261.455V82.465H262.565ZM254.285 87.115C254.205 87.115 254.145 87.145 254.105 87.205C253.875 87.635 253.575 88.08 253.205 88.54C252.835 88.99 252.36 89.51 251.78 90.1L250.985 89.41C251.725 88.64 252.285 87.985 252.665 87.445C253.055 86.895 253.33 86.36 253.49 85.84C253.66 85.32 253.745 84.72 253.745 84.04V83.215H254.84V84.07C254.84 85.01 254.695 85.845 254.405 86.575L254.465 86.605L254.645 86.455C254.755 86.375 254.855 86.335 254.945 86.335C255.045 86.335 255.145 86.385 255.245 86.485L257.645 89.095L256.865 89.845L254.48 87.205C254.42 87.145 254.355 87.115 254.285 87.115ZM253.745 91.12H262.565V96.145H261.44V92.095H253.745V91.12ZM281.584 82.465V95.485H280.489V88.495H278.464V95.125H277.369V82.69H278.464V87.55H280.489V82.465H281.584ZM274.594 83.575H275.674V91.885H270.499V83.605H271.564V86.755H274.594V83.575ZM274.594 87.685H271.564V90.94H274.594V87.685ZM294.538 88.165H291.583V87.25H294.538V85.315H291.583V84.385H294.538V82.465H295.678V90.22H294.538V88.165ZM285.568 90.085L284.953 89.215C286.293 88.685 287.308 88.215 287.998 87.805C288.698 87.385 289.188 86.945 289.468 86.485C289.748 86.025 289.888 85.46 289.888 84.79V84.205H285.328V83.245H291.028V84.655C291.028 85.535 290.868 86.265 290.548 86.845C290.228 87.425 289.683 87.965 288.913 88.465C288.143 88.955 287.028 89.495 285.568 90.085ZM295.753 93.34C295.753 93.89 295.593 94.38 295.273 94.81C294.963 95.25 294.493 95.595 293.863 95.845C293.233 96.095 292.463 96.22 291.553 96.22C290.643 96.22 289.868 96.095 289.228 95.845C288.598 95.595 288.123 95.25 287.803 94.81C287.493 94.38 287.338 93.89 287.338 93.34C287.338 92.79 287.493 92.3 287.803 91.87C288.123 91.43 288.598 91.085 289.228 90.835C289.868 90.585 290.643 90.46 291.553 90.46C292.463 90.46 293.233 90.585 293.863 90.835C294.493 91.085 294.963 91.43 295.273 91.87C295.593 92.3 295.753 92.79 295.753 93.34ZM294.538 93.22C294.538 92.7 294.288 92.265 293.788 91.915C293.298 91.565 292.553 91.39 291.553 91.39C290.553 91.39 289.803 91.57 289.303 91.93C288.803 92.28 288.553 92.71 288.553 93.22V93.475C288.553 93.985 288.803 94.415 289.303 94.765C289.803 95.125 290.553 95.305 291.553 95.305C292.553 95.305 293.298 95.125 293.788 94.765C294.288 94.415 294.538 93.985 294.538 93.475V93.22ZM300.487 84.865C300.487 84.135 300.862 83.555 301.612 83.125C302.362 82.685 303.487 82.465 304.987 82.465C306.487 82.465 307.612 82.685 308.362 83.125C309.112 83.555 309.487 84.135 309.487 84.865C309.487 85.595 309.112 86.18 308.362 86.62C307.612 87.06 306.487 87.28 304.987 87.28C303.487 87.28 302.362 87.06 301.612 86.62C300.862 86.18 300.487 85.595 300.487 84.865ZM308.272 84.94V84.775C308.272 84.345 307.997 83.995 307.447 83.725C306.907 83.445 306.087 83.305 304.987 83.305C303.887 83.305 303.062 83.445 302.512 83.725C301.972 83.995 301.702 84.345 301.702 84.775V84.94C301.702 85.37 301.972 85.725 302.512 86.005C303.062 86.275 303.887 86.41 304.987 86.41C306.087 86.41 306.907 86.275 307.447 86.005C307.997 85.725 308.272 85.37 308.272 84.94ZM311.107 88.315V89.275H298.867V88.315H311.107ZM300.772 95.335V92.875H308.167V91.465H300.682V90.535H309.262V93.745H301.867V95.17H309.652V96.1H301.522C301.282 96.1 301.097 96.035 300.967 95.905C300.837 95.775 300.772 95.585 300.772 95.335ZM330.606 85.45V86.41H328.596V89.335H327.471V82.465H328.596V85.45H330.606ZM318.486 88.765L317.721 88.09C318.461 87.62 319.036 87.205 319.446 86.845C319.866 86.475 320.166 86.105 320.346 85.735C320.536 85.365 320.631 84.945 320.631 84.475V83.995H318.186V83.065H321.696V84.325C321.696 84.955 321.591 85.505 321.381 85.975C321.171 86.445 320.836 86.895 320.376 87.325C319.926 87.745 319.296 88.225 318.486 88.765ZM324.531 84.655V83.995H322.371V83.065H325.596V84.52C325.596 85.24 325.496 85.86 325.296 86.38C325.096 86.89 324.781 87.37 324.351 87.82C323.921 88.27 323.311 88.775 322.521 89.335L321.711 88.675C322.441 88.175 323.006 87.73 323.406 87.34C323.806 86.94 324.091 86.53 324.261 86.11C324.441 85.69 324.531 85.205 324.531 84.655ZM321.366 95.125H328.956V96.1H320.976C320.736 96.1 320.551 96.035 320.421 95.905C320.291 95.775 320.226 95.585 320.226 95.335V92.62H327.456V91.075H320.136V90.115H328.611V93.58H321.366V95.125ZM344.94 88.555H342.78V95.515H341.64V82.495H342.78V87.595H344.94V88.555ZM339.345 87.73C339.345 89.19 339.025 90.295 338.385 91.045C337.755 91.795 336.915 92.17 335.865 92.17C334.815 92.17 333.97 91.795 333.33 91.045C332.7 90.295 332.385 89.19 332.385 87.73C332.385 86.27 332.7 85.165 333.33 84.415C333.97 83.665 334.815 83.29 335.865 83.29C336.915 83.29 337.755 83.665 338.385 84.415C339.025 85.165 339.345 86.27 339.345 87.73ZM338.13 87.13C338.13 86.2 337.92 85.49 337.5 85C337.09 84.5 336.545 84.25 335.865 84.25C335.185 84.25 334.635 84.5 334.215 85C333.795 85.49 333.585 86.2 333.585 87.13V88.33C333.585 89.26 333.795 89.975 334.215 90.475C334.635 90.965 335.185 91.21 335.865 91.21C336.545 91.21 337.09 90.965 337.5 90.475C337.92 89.975 338.13 89.26 338.13 88.33V87.13ZM352.314 83.8H348.234V82.885H357.474V83.8H353.439C353.419 84.5 353.204 85.09 352.794 85.57L352.869 85.6L353.184 85.375C353.324 85.285 353.454 85.24 353.574 85.24C353.674 85.24 353.794 85.27 353.934 85.33L358.029 87.235L357.429 88.06L353.139 85.99C353.009 85.92 352.879 85.885 352.749 85.885C352.609 85.885 352.484 85.92 352.374 85.99C351.984 86.32 351.459 86.655 350.799 86.995C350.139 87.325 349.294 87.69 348.264 88.09L347.679 87.28C348.869 86.83 349.789 86.43 350.439 86.08C351.089 85.72 351.554 85.365 351.834 85.015C352.124 84.665 352.284 84.26 352.314 83.8ZM353.424 90.01V91.42H357.159V95.995H349.299C349.059 95.995 348.874 95.93 348.744 95.8C348.614 95.67 348.549 95.48 348.549 95.23V91.42H352.284V90.01H346.734V89.05H358.974V90.01H353.424ZM356.034 92.32H349.674V95.08H356.034V92.32ZM362.553 86.545C362.553 85.875 362.723 85.275 363.063 84.745C363.413 84.205 363.943 83.775 364.653 83.455C365.363 83.135 366.238 82.975 367.278 82.975C368.318 82.975 369.193 83.135 369.903 83.455C370.613 83.775 371.138 84.205 371.478 84.745C371.828 85.275 372.003 85.875 372.003 86.545C372.003 87.215 371.828 87.82 371.478 88.36C371.138 88.9 370.613 89.33 369.903 89.65C369.193 89.97 368.318 90.13 367.278 90.13C366.238 90.13 365.363 89.97 364.653 89.65C363.943 89.33 363.413 88.9 363.063 88.36C362.723 87.82 362.553 87.215 362.553 86.545ZM370.773 86.725V86.38C370.773 85.92 370.648 85.505 370.398 85.135C370.158 84.755 369.773 84.455 369.243 84.235C368.723 84.005 368.068 83.89 367.278 83.89C366.488 83.89 365.828 84.005 365.298 84.235C364.778 84.455 364.393 84.755 364.143 85.135C363.903 85.505 363.783 85.92 363.783 86.38V86.725C363.783 87.435 364.073 88.025 364.653 88.495C365.233 88.965 366.108 89.2 367.278 89.2C368.448 89.2 369.323 88.965 369.903 88.495C370.483 88.025 370.773 87.435 370.773 86.725ZM361.158 93.025H373.398V94H361.158V93.025ZM387.822 93.04V94H375.582V93.04H381.132V90.475H377.382V86.41H384.882V84.205H377.307V83.26H386.022V87.325H378.522V89.53H386.412V90.475H382.272V93.04H387.822ZM401.331 82.465V95.485H400.221V87.745H397.986V86.785H400.221V82.465H401.331ZM396.891 88.21C397.021 88.21 397.121 88.27 397.191 88.39L399.021 91.405L398.241 92.125L396.366 88.93C396.346 88.9 396.316 88.885 396.276 88.885C396.246 88.875 396.226 88.89 396.216 88.93C396.026 89.4 395.791 89.88 395.511 90.37C395.231 90.86 394.876 91.44 394.446 92.11L392.601 88.9C392.591 88.86 392.566 88.84 392.526 88.84C392.496 88.84 392.471 88.86 392.451 88.9C392.291 89.36 392.091 89.81 391.851 90.25C391.611 90.68 391.221 91.335 390.681 92.215L389.916 91.495C390.476 90.575 390.891 89.825 391.161 89.245C391.441 88.655 391.646 88.035 391.776 87.385C391.916 86.725 391.986 85.92 391.986 84.97V83.365H393.081V84.94C393.081 86.29 392.941 87.42 392.661 88.33L392.706 88.36L392.811 88.285C392.901 88.215 392.991 88.18 393.081 88.18C393.201 88.18 393.301 88.24 393.381 88.36L394.446 90.19C394.966 89.33 395.331 88.53 395.541 87.79C395.751 87.04 395.856 86.12 395.856 85.03V83.335H396.951V85C396.951 85.68 396.911 86.29 396.831 86.83C396.761 87.36 396.641 87.87 396.471 88.36L396.516 88.405L396.621 88.315C396.701 88.245 396.791 88.21 396.891 88.21ZM420.59 82.465V90.82H419.495V87.145H417.47V90.685H416.39V82.675H417.47V86.2H419.495V82.465H420.59ZM414.155 83.92H410.675V83.005H414.155V83.92ZM412.34 88.42C412.27 88.42 412.205 88.45 412.145 88.51C411.725 89.1 410.975 89.845 409.895 90.745L409.145 90.085C409.845 89.505 410.385 89.015 410.765 88.615C411.145 88.205 411.425 87.81 411.605 87.43C411.785 87.04 411.885 86.61 411.905 86.14H409.445V85.225H415.34V86.14H412.955C412.925 86.81 412.755 87.435 412.445 88.015L412.505 88.045L412.73 87.88C412.81 87.81 412.9 87.775 413 87.775C413.11 87.775 413.23 87.825 413.36 87.925L415.64 89.83L414.89 90.505L412.58 88.51C412.51 88.45 412.43 88.42 412.34 88.42ZM411.77 91.615H420.59V96.145H419.465V92.575H411.77V91.615ZM436.079 88.78H434.039V95.485H432.914V82.465H434.039V87.82H436.079V88.78ZM429.719 84.595H424.079V83.65H430.829V84.805C430.829 86.395 430.649 87.98 430.289 89.56L429.194 89.395C429.544 87.945 429.719 86.46 429.719 84.94V84.595ZM431.834 91.21L431.939 92.125C430.839 92.305 429.524 92.44 427.994 92.53C426.474 92.62 424.909 92.665 423.299 92.665L423.194 91.705C424.194 91.705 425.189 91.69 426.179 91.66V87.595H427.289V91.615C429.099 91.535 430.614 91.4 431.834 91.21ZM454.033 82.465V95.485H452.923V88.495H450.793V95.125H449.698V82.69H450.793V87.55H452.923V82.465H454.033ZM448.753 90.505L448.903 91.435C447.673 91.735 446.158 91.885 444.358 91.885H443.098V83.785H444.193V90.94H444.628C445.408 90.94 446.153 90.905 446.863 90.835C447.583 90.755 448.213 90.645 448.753 90.505ZM469.132 89.05V90.01H456.892V89.05H460.147V87.28C459.597 87.05 459.182 86.75 458.902 86.38C458.632 86.01 458.497 85.59 458.497 85.12C458.497 84.34 458.877 83.71 459.637 83.23C460.397 82.74 461.522 82.495 463.012 82.495C464.502 82.495 465.627 82.74 466.387 83.23C467.147 83.71 467.527 84.34 467.527 85.12C467.527 85.59 467.387 86.01 467.107 86.38C466.837 86.75 466.427 87.05 465.877 87.28V89.05H469.132ZM463.012 86.86C464.122 86.86 464.952 86.705 465.502 86.395C466.052 86.085 466.327 85.69 466.327 85.21V85C466.327 84.53 466.047 84.14 465.487 83.83C464.937 83.52 464.112 83.365 463.012 83.365C461.912 83.365 461.087 83.52 460.537 83.83C459.987 84.14 459.712 84.53 459.712 85V85.21C459.712 85.69 459.982 86.085 460.522 86.395C461.072 86.705 461.902 86.86 463.012 86.86ZM461.242 89.05H464.782V87.595C464.292 87.695 463.702 87.745 463.012 87.745C462.322 87.745 461.732 87.695 461.242 87.595V89.05ZM467.452 93.685C467.452 94.195 467.282 94.645 466.942 95.035C466.612 95.425 466.112 95.73 465.442 95.95C464.782 96.18 463.972 96.295 463.012 96.295C462.052 96.295 461.237 96.18 460.567 95.95C459.907 95.73 459.407 95.425 459.067 95.035C458.737 94.645 458.572 94.195 458.572 93.685C458.572 93.185 458.737 92.745 459.067 92.365C459.407 91.975 459.907 91.67 460.567 91.45C461.237 91.23 462.052 91.12 463.012 91.12C463.972 91.12 464.782 91.23 465.442 91.45C466.112 91.67 466.612 91.975 466.942 92.365C467.282 92.745 467.452 93.185 467.452 93.685ZM466.252 93.595C466.252 93.155 465.982 92.785 465.442 92.485C464.912 92.175 464.102 92.02 463.012 92.02C462.282 92.02 461.672 92.095 461.182 92.245C460.692 92.385 460.332 92.575 460.102 92.815C459.872 93.055 459.757 93.315 459.757 93.595V93.805C459.757 94.085 459.872 94.345 460.102 94.585C460.332 94.825 460.692 95.015 461.182 95.155C461.672 95.305 462.282 95.38 463.012 95.38C464.102 95.38 464.912 95.225 465.442 94.915C465.982 94.615 466.252 94.245 466.252 93.805V93.595ZM482.881 82.465V95.485H481.786V82.465H482.881ZM478.831 82.69H479.896V95.125H478.831V88.3H477.391C477.341 89.6 477.051 90.58 476.521 91.24C475.991 91.89 475.291 92.215 474.421 92.215C473.491 92.215 472.756 91.855 472.216 91.135C471.676 90.405 471.406 89.32 471.406 87.88C471.406 86.44 471.676 85.36 472.216 84.64C472.756 83.91 473.491 83.545 474.421 83.545C475.281 83.545 475.971 83.865 476.491 84.505C477.021 85.145 477.321 86.095 477.391 87.355H478.831V82.69ZM476.251 87.16C476.251 86.28 476.081 85.61 475.741 85.15C475.411 84.69 474.971 84.46 474.421 84.46C473.861 84.46 473.411 84.69 473.071 85.15C472.741 85.61 472.576 86.28 472.576 87.16V88.615C472.576 89.485 472.741 90.155 473.071 90.625C473.411 91.085 473.861 91.315 474.421 91.315C474.971 91.315 475.411 91.085 475.741 90.625C476.081 90.155 476.251 89.485 476.251 88.615V87.16ZM501.57 82.465V89.74H500.415V82.465H501.57ZM491.58 89.68L490.74 88.96C491.59 88.31 492.25 87.745 492.72 87.265C493.19 86.785 493.53 86.315 493.74 85.855C493.95 85.385 494.055 84.855 494.055 84.265V84.145H491.16V83.2H498.075V84.145H495.18V84.325C495.18 85.165 495 85.9 494.64 86.53L494.745 86.575L494.985 86.395C495.095 86.315 495.21 86.275 495.33 86.275C495.46 86.275 495.57 86.315 495.66 86.395L498.51 88.705L497.67 89.455L494.775 87.025C494.705 86.965 494.625 86.935 494.535 86.935C494.455 86.935 494.385 86.965 494.325 87.025C494.065 87.405 493.725 87.795 493.305 88.195C492.885 88.585 492.31 89.08 491.58 89.68ZM500.445 90.58H501.57V96.025H494.07C493.83 96.025 493.645 95.96 493.515 95.83C493.385 95.7 493.32 95.51 493.32 95.26V90.58H494.445V92.35H500.445V90.58ZM500.445 93.25H494.445V95.11H500.445V93.25ZM510.339 83.8H506.259V82.885H515.499V83.8H511.464C511.444 84.5 511.229 85.09 510.819 85.57L510.894 85.6L511.209 85.375C511.349 85.285 511.479 85.24 511.599 85.24C511.699 85.24 511.819 85.27 511.959 85.33L516.054 87.235L515.454 88.06L511.164 85.99C511.034 85.92 510.904 85.885 510.774 85.885C510.634 85.885 510.509 85.92 510.399 85.99C510.009 86.32 509.484 86.655 508.824 86.995C508.164 87.325 507.319 87.69 506.289 88.09L505.704 87.28C506.894 86.83 507.814 86.43 508.464 86.08C509.114 85.72 509.579 85.365 509.859 85.015C510.149 84.665 510.309 84.26 510.339 83.8ZM511.449 90.01V91.21C512.709 91.28 513.669 91.54 514.329 91.99C514.989 92.44 515.319 93.02 515.319 93.73C515.319 94.23 515.149 94.67 514.809 95.05C514.479 95.44 513.979 95.745 513.309 95.965C512.649 96.185 511.839 96.295 510.879 96.295C509.919 96.295 509.104 96.185 508.434 95.965C507.774 95.745 507.274 95.44 506.934 95.05C506.604 94.67 506.439 94.23 506.439 93.73C506.439 93.02 506.769 92.44 507.429 91.99C508.089 91.54 509.049 91.28 510.309 91.21V90.01H504.759V89.05H516.999V90.01H511.449ZM510.879 92.08C509.789 92.08 508.969 92.23 508.419 92.53C507.879 92.83 507.609 93.2 507.609 93.64V93.85C507.609 94.28 507.879 94.645 508.419 94.945C508.969 95.245 509.789 95.395 510.879 95.395C511.969 95.395 512.784 95.245 513.324 94.945C513.864 94.645 514.134 94.28 514.134 93.85V93.64C514.134 93.19 513.864 92.82 513.324 92.53C512.794 92.23 511.979 92.08 510.879 92.08ZM531.828 85.825V86.785H529.743V89.815H528.603V82.465H529.743V85.825H531.828ZM525.168 83.62H521.163V82.705H525.168V83.62ZM523.068 89.605C522.128 89.605 521.373 89.425 520.803 89.065C520.243 88.695 519.963 88.21 519.963 87.61C519.963 86.83 520.373 86.285 521.193 85.975V85.885H518.973V85H527.103V85.885H524.943V85.975C525.763 86.285 526.173 86.83 526.173 87.61C526.173 88.21 525.888 88.695 525.318 89.065C524.758 89.425 524.008 89.605 523.068 89.605ZM522.888 88.69H523.248C523.798 88.69 524.248 88.57 524.598 88.33C524.948 88.09 525.123 87.755 525.123 87.325C525.123 86.895 524.948 86.56 524.598 86.32C524.258 86.08 523.808 85.96 523.248 85.96H522.888C522.328 85.96 521.873 86.08 521.523 86.32C521.183 86.56 521.013 86.895 521.013 87.325C521.013 87.755 521.188 88.09 521.538 88.33C521.888 88.57 522.338 88.69 522.888 88.69ZM522.588 95.17H530.103V96.1H522.228C521.988 96.1 521.803 96.035 521.673 95.905C521.543 95.775 521.478 95.585 521.478 95.335V92.89H528.633V91.51H521.388V90.595H529.743V93.79H522.588V95.17ZM539.552 88.735L538.922 87.865C540.242 87.265 541.252 86.725 541.952 86.245C542.652 85.765 543.137 85.29 543.407 84.82C543.687 84.35 543.827 83.805 543.827 83.185V82.72H544.997V83.215C544.997 83.725 544.932 84.18 544.802 84.58C544.682 84.98 544.487 85.36 544.217 85.72L544.292 85.75L544.682 85.465C544.812 85.365 544.947 85.315 545.087 85.315C545.217 85.315 545.337 85.35 545.447 85.42L549.737 87.805L549.092 88.69L544.637 86.125C544.497 86.045 544.362 86.005 544.232 86.005C544.092 86.005 543.957 86.055 543.827 86.155L543.812 86.17C543.412 86.56 542.872 86.955 542.192 87.355C541.522 87.755 540.642 88.215 539.552 88.735ZM550.442 91.135H544.892V96.01H543.752V91.135H538.202V90.175H550.442V91.135ZM568.456 89.98H567.301V82.465H568.456V89.98ZM557.656 86.2C557.656 85.54 557.801 84.965 558.091 84.475C558.391 83.985 558.801 83.61 559.321 83.35C559.841 83.08 560.436 82.945 561.106 82.945C561.776 82.945 562.371 83.08 562.891 83.35C563.411 83.61 563.816 83.985 564.106 84.475C564.406 84.965 564.556 85.54 564.556 86.2C564.556 86.86 564.406 87.435 564.106 87.925C563.816 88.415 563.406 88.795 562.876 89.065C562.356 89.325 561.766 89.455 561.106 89.455C560.446 89.455 559.851 89.325 559.321 89.065C558.801 88.795 558.391 88.415 558.091 87.925C557.801 87.435 557.656 86.86 557.656 86.2ZM558.856 86.455C558.856 87.075 559.061 87.575 559.471 87.955C559.891 88.325 560.436 88.51 561.106 88.51C561.776 88.51 562.316 88.325 562.726 87.955C563.136 87.575 563.341 87.075 563.341 86.455V85.93C563.341 85.31 563.136 84.815 562.726 84.445C562.316 84.075 561.776 83.89 561.106 83.89C560.436 83.89 559.891 84.075 559.471 84.445C559.061 84.815 558.856 85.31 558.856 85.93V86.455ZM569.686 95.275L568.951 96.055L566.731 93.88C566.671 93.81 566.601 93.775 566.521 93.775C566.481 93.775 566.436 93.79 566.386 93.82C566.156 94.16 565.861 94.51 565.501 94.87C565.141 95.24 564.661 95.685 564.061 96.205L561.781 93.835C561.711 93.765 561.641 93.73 561.571 93.73C561.531 93.73 561.476 93.755 561.406 93.805C560.966 94.465 560.216 95.25 559.156 96.16L558.436 95.395C559.106 94.835 559.631 94.335 560.011 93.895C560.391 93.455 560.661 93.02 560.821 92.59C560.991 92.16 561.076 91.675 561.076 91.135V90.655H562.156V91.165C562.156 91.985 562.001 92.7 561.691 93.31L561.751 93.34L561.946 93.19C562.026 93.12 562.121 93.085 562.231 93.085C562.351 93.085 562.456 93.13 562.546 93.22L564.136 94.81C564.856 94.16 565.351 93.575 565.621 93.055C565.891 92.535 566.026 91.9 566.026 91.15V90.655H567.106V91.21C567.106 91.65 567.071 92.04 567.001 92.38C566.931 92.72 566.816 93.045 566.656 93.355L566.716 93.4L566.911 93.235C567.021 93.155 567.126 93.115 567.226 93.115C567.326 93.115 567.426 93.155 567.526 93.235L569.686 95.275ZM583.885 93.04V94H571.645V93.04H577.195V89.575H573.415V83.35H582.16V84.325H574.555V88.6H582.295V89.575H578.335V93.04H583.885ZM598.309 89.89V90.85H586.069V89.89H591.634V88.465H587.974V85.165H595.249V83.68H587.899V82.765H596.359V86.05H589.084V87.55H596.734V88.465H592.759V89.89H598.309ZM587.764 92.125H596.494V96.1H595.369V93.055H587.764V92.125ZM108.73 105.465V118.485H107.59V105.465H108.73ZM105.715 113.685L105.865 114.6C104.315 114.91 102.385 115.065 100.075 115.065H98.47V106.53H104.515V107.49H99.625V114.105H100.045C102.335 114.105 104.225 113.965 105.715 113.685ZM124.624 111.555H122.464V118.515H121.324V105.495H122.464V110.595H124.624V111.555ZM116.494 110.97C116.614 110.97 116.729 111.025 116.839 111.135L119.764 114.6L118.909 115.335L115.969 111.75C115.909 111.69 115.844 111.66 115.774 111.66C115.704 111.66 115.654 111.69 115.624 111.75C115.354 112.29 114.999 112.845 114.559 113.415C114.129 113.975 113.539 114.68 112.789 115.53L111.949 114.825C112.819 113.905 113.484 113.11 113.944 112.44C114.414 111.77 114.754 111.105 114.964 110.445C115.174 109.775 115.279 109.015 115.279 108.165V107.595H112.339V106.635H119.329V107.595H116.404V108.195C116.404 109.315 116.224 110.32 115.864 111.21L115.939 111.27L116.179 111.09C116.279 111.01 116.384 110.97 116.494 110.97ZM137.653 105.465V115.35H136.498V105.465H137.653ZM126.853 109.515C126.853 108.815 126.998 108.205 127.288 107.685C127.588 107.165 127.998 106.77 128.518 106.5C129.038 106.22 129.633 106.08 130.303 106.08C130.963 106.08 131.553 106.22 132.073 106.5C132.603 106.77 133.013 107.165 133.303 107.685C133.603 108.205 133.753 108.815 133.753 109.515C133.753 110.205 133.603 110.81 133.303 111.33C133.013 111.85 132.603 112.25 132.073 112.53C131.553 112.8 130.963 112.935 130.303 112.935C129.633 112.935 129.038 112.8 128.518 112.53C127.998 112.25 127.588 111.855 127.288 111.345C126.998 110.825 126.853 110.215 126.853 109.515ZM132.538 109.83V109.2C132.538 108.54 132.328 108.015 131.908 107.625C131.498 107.225 130.963 107.025 130.303 107.025C129.633 107.025 129.088 107.225 128.668 107.625C128.258 108.025 128.053 108.55 128.053 109.2V109.83C128.053 110.48 128.263 111.005 128.683 111.405C129.103 111.795 129.643 111.99 130.303 111.99C130.963 111.99 131.498 111.795 131.908 111.405C132.328 111.005 132.538 110.48 132.538 109.83ZM129.313 118.005V114.27H130.468V117.825H137.923V118.77H130.063C129.823 118.77 129.638 118.705 129.508 118.575C129.378 118.445 129.313 118.255 129.313 118.005ZM158.067 111.795H155.952V118.515H154.812V105.495H155.952V110.835H158.067V111.795ZM151.617 107.175H147.357V106.2H151.617V107.175ZM145.362 108.975H153.387V109.905H151.167V109.995C152.077 110.445 152.532 111.31 152.532 112.59C152.532 113.24 152.397 113.805 152.127 114.285C151.857 114.755 151.482 115.115 151.002 115.365C150.532 115.615 150.007 115.74 149.427 115.74C148.847 115.74 148.317 115.615 147.837 115.365C147.367 115.115 146.997 114.755 146.727 114.285C146.457 113.805 146.322 113.24 146.322 112.59C146.322 111.31 146.777 110.445 147.687 109.995V109.905H145.362V108.975ZM151.422 112.095C151.422 111.425 151.242 110.915 150.882 110.565C150.522 110.205 150.037 110.025 149.427 110.025C148.827 110.025 148.342 110.205 147.972 110.565C147.612 110.925 147.432 111.435 147.432 112.095V112.71C147.432 113.36 147.617 113.87 147.987 114.24C148.357 114.6 148.837 114.78 149.427 114.78C150.017 114.78 150.497 114.6 150.867 114.24C151.237 113.87 151.422 113.36 151.422 112.71V112.095ZM169.956 111.03H167.286V110.115H169.956V108.24H167.286V107.325H169.956V105.465H171.096V112.98H169.956V111.03ZM160.221 109.185C160.221 108.525 160.366 107.95 160.656 107.46C160.946 106.97 161.346 106.595 161.856 106.335C162.366 106.065 162.951 105.93 163.611 105.93C164.271 105.93 164.856 106.065 165.366 106.335C165.876 106.595 166.276 106.97 166.566 107.46C166.856 107.95 167.001 108.525 167.001 109.185C167.001 109.845 166.856 110.42 166.566 110.91C166.276 111.4 165.871 111.78 165.351 112.05C164.841 112.31 164.261 112.44 163.611 112.44C162.961 112.44 162.376 112.31 161.856 112.05C161.346 111.78 160.946 111.4 160.656 110.91C160.366 110.42 160.221 109.845 160.221 109.185ZM161.406 109.455C161.406 110.085 161.606 110.59 162.006 110.97C162.416 111.34 162.951 111.525 163.611 111.525C164.271 111.525 164.801 111.34 165.201 110.97C165.611 110.59 165.816 110.085 165.816 109.455V108.915C165.816 108.285 165.611 107.785 165.201 107.415C164.801 107.035 164.271 106.845 163.611 106.845C162.951 106.845 162.416 107.035 162.006 107.415C161.606 107.785 161.406 108.285 161.406 108.915V109.455ZM172.326 118.275L171.591 119.055L169.371 116.88C169.311 116.81 169.241 116.775 169.161 116.775C169.121 116.775 169.076 116.79 169.026 116.82C168.796 117.16 168.501 117.51 168.141 117.87C167.781 118.24 167.301 118.685 166.701 119.205L164.421 116.835C164.351 116.765 164.281 116.73 164.211 116.73C164.171 116.73 164.116 116.755 164.046 116.805C163.606 117.465 162.856 118.25 161.796 119.16L161.076 118.395C161.746 117.835 162.271 117.335 162.651 116.895C163.031 116.455 163.301 116.02 163.461 115.59C163.631 115.16 163.716 114.675 163.716 114.135V113.655H164.796V114.165C164.796 114.985 164.641 115.7 164.331 116.31L164.391 116.34L164.586 116.19C164.666 116.12 164.761 116.085 164.871 116.085C164.991 116.085 165.096 116.13 165.186 116.22L166.776 117.81C167.496 117.16 167.991 116.575 168.261 116.055C168.531 115.535 168.666 114.9 168.666 114.15V113.655H169.746V114.21C169.746 114.65 169.711 115.04 169.641 115.38C169.571 115.72 169.456 116.045 169.296 116.355L169.356 116.4L169.551 116.235C169.661 116.155 169.766 116.115 169.866 116.115C169.966 116.115 170.066 116.155 170.166 116.235L172.326 118.275ZM175.68 109.545C175.68 108.875 175.85 108.275 176.19 107.745C176.54 107.205 177.07 106.775 177.78 106.455C178.49 106.135 179.365 105.975 180.405 105.975C181.445 105.975 182.32 106.135 183.03 106.455C183.74 106.775 184.265 107.205 184.605 107.745C184.955 108.275 185.13 108.875 185.13 109.545C185.13 110.215 184.955 110.82 184.605 111.36C184.265 111.9 183.74 112.33 183.03 112.65C182.32 112.97 181.445 113.13 180.405 113.13C179.365 113.13 178.49 112.97 177.78 112.65C177.07 112.33 176.54 111.9 176.19 111.36C175.85 110.82 175.68 110.215 175.68 109.545ZM183.9 109.725V109.38C183.9 108.92 183.775 108.505 183.525 108.135C183.285 107.755 182.9 107.455 182.37 107.235C181.85 107.005 181.195 106.89 180.405 106.89C179.615 106.89 178.955 107.005 178.425 107.235C177.905 107.455 177.52 107.755 177.27 108.135C177.03 108.505 176.91 108.92 176.91 109.38V109.725C176.91 110.435 177.2 111.025 177.78 111.495C178.36 111.965 179.235 112.2 180.405 112.2C181.575 112.2 182.45 111.965 183.03 111.495C183.61 111.025 183.9 110.435 183.9 109.725ZM174.285 116.025H186.525V117H174.285V116.025ZM199.899 105.465V118.485H198.774V112.935H195.504V114.855H189.399V106.5H195.504V108.345H198.774V105.465H199.899ZM194.409 107.43H190.494V113.925H194.409V107.43ZM198.774 111.99V109.275H195.504V111.99H198.774ZM219.293 105.465V118.485H218.183V105.465H219.293ZM215.258 105.69H216.353V118.125H215.258V111.12H213.458V114.825H208.193V106.77H213.458V110.175H215.258V105.69ZM212.378 107.7H209.288V113.895H212.378V107.7ZM233.387 105.465V115.35H232.232V105.465H233.387ZM222.587 109.515C222.587 108.815 222.732 108.205 223.022 107.685C223.322 107.165 223.732 106.77 224.252 106.5C224.772 106.22 225.367 106.08 226.037 106.08C226.697 106.08 227.287 106.22 227.807 106.5C228.337 106.77 228.747 107.165 229.037 107.685C229.337 108.205 229.487 108.815 229.487 109.515C229.487 110.205 229.337 110.81 229.037 111.33C228.747 111.85 228.337 112.25 227.807 112.53C227.287 112.8 226.697 112.935 226.037 112.935C225.367 112.935 224.772 112.8 224.252 112.53C223.732 112.25 223.322 111.855 223.022 111.345C222.732 110.825 222.587 110.215 222.587 109.515ZM228.272 109.83V109.2C228.272 108.54 228.062 108.015 227.642 107.625C227.232 107.225 226.697 107.025 226.037 107.025C225.367 107.025 224.822 107.225 224.402 107.625C223.992 108.025 223.787 108.55 223.787 109.2V109.83C223.787 110.48 223.997 111.005 224.417 111.405C224.837 111.795 225.377 111.99 226.037 111.99C226.697 111.99 227.232 111.795 227.642 111.405C228.062 111.005 228.272 110.48 228.272 109.83ZM225.047 118.005V114.27H226.202V117.825H233.657V118.77H225.797C225.557 118.77 225.372 118.705 225.242 118.575C225.112 118.445 225.047 118.255 225.047 118.005ZM252.736 105.465V118.485H251.626V105.465H252.736ZM248.566 105.69H249.661V118.125H248.566V110.73H245.926V109.785H248.566V105.69ZM247.426 113.565L247.576 114.495C246.346 114.795 244.826 114.945 243.016 114.945H241.771V106.785H242.866V113.985H243.286C244.946 113.985 246.326 113.845 247.426 113.565ZM265.615 105.465H266.755V118.485H265.615V105.465ZM255.985 110.73C255.985 109.27 256.305 108.165 256.945 107.415C257.595 106.665 258.45 106.29 259.51 106.29C260.56 106.29 261.405 106.665 262.045 107.415C262.695 108.165 263.02 109.27 263.02 110.73C263.02 111.71 262.87 112.535 262.57 113.205C262.27 113.865 261.855 114.36 261.325 114.69C260.795 115.01 260.19 115.17 259.51 115.17C258.45 115.17 257.595 114.795 256.945 114.045C256.305 113.295 255.985 112.19 255.985 110.73ZM261.805 111.315V110.145C261.805 109.215 261.59 108.5 261.16 108C260.74 107.5 260.19 107.25 259.51 107.25C258.82 107.25 258.26 107.5 257.83 108C257.41 108.49 257.2 109.205 257.2 110.145V111.315C257.2 112.255 257.41 112.975 257.83 113.475C258.26 113.965 258.82 114.21 259.51 114.21C260.19 114.21 260.74 113.96 261.16 113.46C261.59 112.96 261.805 112.245 261.805 111.315ZM280.039 105.465H281.179V118.485H280.039V105.465ZM270.784 106.395H271.909V109.68H275.854V106.38H276.964V114.975H270.784V106.395ZM275.854 114.015V110.64H271.909V114.015H275.854ZM299.133 109.35H296.433V108.405H299.133V105.465H300.273V112.365H299.133V109.35ZM290.193 112.89L289.593 112.05C291.013 111.57 292.103 111.11 292.863 110.67C293.633 110.22 294.173 109.74 294.483 109.23L289.713 109.605L289.563 108.66L294.783 108.405C294.813 108.235 294.828 108.055 294.828 107.865V106.965H290.118V106.035H295.893V107.775C295.893 108.555 295.708 109.23 295.338 109.8C294.978 110.37 294.388 110.9 293.568 111.39C292.748 111.88 291.623 112.38 290.193 112.89ZM300.633 118.125V119.1H292.668C292.428 119.1 292.243 119.035 292.113 118.905C291.983 118.775 291.918 118.585 291.918 118.335V115.65H299.133V114.135H291.828V113.175H300.273V116.595H293.073V118.125H300.633ZM314.637 105.465V118.485H313.512V111.075H310.857V110.115H313.512V105.465H314.637ZM311.442 113.925L311.577 114.84C310.107 115.14 308.212 115.29 305.892 115.29H304.317V110.28H308.847V107.415H304.272V106.455H309.972V111.21H305.442V114.36H305.937C308.097 114.36 309.932 114.215 311.442 113.925ZM330.126 116.04V117H317.886V116.04H323.436V113.475H319.686V109.41H327.186V107.205H319.611V106.26H328.326V110.325H320.826V112.53H328.716V113.475H324.576V116.04H330.126ZM347.81 107.235H338.225V106.275H347.81V107.235ZM349.145 116.04V117H336.905V116.04H342.455V112.89H338.105V111.945H340.49L339.98 108.495L341.135 108.375L341.54 111.945H344.495L344.9 108.375L346.07 108.495L345.56 111.945H347.945V112.89H343.595V116.04H349.145ZM362.564 105.465V115.35H361.409V105.465H362.564ZM351.764 109.515C351.764 108.815 351.909 108.205 352.199 107.685C352.499 107.165 352.909 106.77 353.429 106.5C353.949 106.22 354.544 106.08 355.214 106.08C355.874 106.08 356.464 106.22 356.984 106.5C357.514 106.77 357.924 107.165 358.214 107.685C358.514 108.205 358.664 108.815 358.664 109.515C358.664 110.205 358.514 110.81 358.214 111.33C357.924 111.85 357.514 112.25 356.984 112.53C356.464 112.8 355.874 112.935 355.214 112.935C354.544 112.935 353.949 112.8 353.429 112.53C352.909 112.25 352.499 111.855 352.199 111.345C351.909 110.825 351.764 110.215 351.764 109.515ZM357.449 109.83V109.2C357.449 108.54 357.239 108.015 356.819 107.625C356.409 107.225 355.874 107.025 355.214 107.025C354.544 107.025 353.999 107.225 353.579 107.625C353.169 108.025 352.964 108.55 352.964 109.2V109.83C352.964 110.48 353.174 111.005 353.594 111.405C354.014 111.795 354.554 111.99 355.214 111.99C355.874 111.99 356.409 111.795 356.819 111.405C357.239 111.005 357.449 110.48 357.449 109.83ZM354.224 118.005V114.27H355.379V117.825H362.834V118.77H354.974C354.734 118.77 354.549 118.705 354.419 118.575C354.289 118.445 354.224 118.255 354.224 118.005ZM367.508 106.275H376.298V107.235H368.648V109.44H376.088V110.355H368.663V112.56H376.553V113.52H367.508V106.275ZM365.753 116.025H377.993V117H365.753V116.025ZM389.342 107.805V106.515H382.022V105.675H390.437V108.63H383.207V109.905H390.812V110.76H382.097V107.805H389.342ZM392.417 111.885V112.77H380.177V111.885H392.417ZM382.052 118.38V116.115H389.522V114.855H381.962V113.97H390.587V116.955H383.117V118.245H390.977V119.145H382.802C382.562 119.145 382.377 119.08 382.247 118.95C382.117 118.82 382.052 118.63 382.052 118.38ZM404.776 106.8H400.696V105.885H409.936V106.8H405.901C405.881 107.5 405.666 108.09 405.256 108.57L405.331 108.6L405.646 108.375C405.786 108.285 405.916 108.24 406.036 108.24C406.136 108.24 406.256 108.27 406.396 108.33L410.491 110.235L409.891 111.06L405.601 108.99C405.471 108.92 405.341 108.885 405.211 108.885C405.071 108.885 404.946 108.92 404.836 108.99C404.446 109.32 403.921 109.655 403.261 109.995C402.601 110.325 401.756 110.69 400.726 111.09L400.141 110.28C401.331 109.83 402.251 109.43 402.901 109.08C403.551 108.72 404.016 108.365 404.296 108.015C404.586 107.665 404.746 107.26 404.776 106.8ZM405.886 113.01V114.42H409.621V118.995H401.761C401.521 118.995 401.336 118.93 401.206 118.8C401.076 118.67 401.011 118.48 401.011 118.23V114.42H404.746V113.01H399.196V112.05H411.436V113.01H405.886ZM408.496 115.32H402.136V118.08H408.496V115.32Z" fill="black"/>
</svg>
