<svg width="238" height="20" viewBox="0 0 238 20" fill="none" xmlns="http://www.w3.org/2000/svg">
<path d="M23.44 9.606H21.672V15.287H20.697V4.003H21.672V8.774H23.44V9.606ZM17.772 5.329H14.301V4.523H17.772V5.329ZM19.774 12.232L19.865 13.025C18.9117 13.181 17.772 13.3023 16.446 13.389C15.1287 13.467 13.768 13.506 12.364 13.506L12.273 12.674C13.2437 12.674 14.314 12.6523 15.484 12.609V11.062C14.7993 10.9927 14.2577 10.7847 13.859 10.438C13.4603 10.0827 13.261 9.64933 13.261 9.138C13.261 8.76533 13.352 8.44467 13.534 8.176C13.7247 7.89867 14.0107 7.682 14.392 7.526V7.448H12.455V6.668H19.449V7.448H17.577V7.526C17.9497 7.682 18.2313 7.89867 18.422 8.176C18.6127 8.45333 18.708 8.774 18.708 9.138C18.708 9.658 18.5043 10.0957 18.097 10.451C17.6897 10.7977 17.135 11.0013 16.433 11.062V12.557C17.785 12.4877 18.8987 12.3793 19.774 12.232ZM15.848 10.282H16.121C16.615 10.282 17.018 10.165 17.33 9.931C17.642 9.68833 17.798 9.35033 17.798 8.917C17.798 8.48367 17.642 8.15 17.33 7.916C17.018 7.67333 16.615 7.552 16.121 7.552H15.848C15.354 7.552 14.951 7.67333 14.639 7.916C14.327 8.15 14.171 8.48367 14.171 8.917C14.171 9.35033 14.327 9.68833 14.639 9.931C14.951 10.165 15.354 10.282 15.848 10.282ZM35.6938 6.59V7.422H33.8868V9.918H32.8988V4.003H33.8868V6.59H35.6938ZM25.4238 10.022L24.6958 9.385C25.4325 8.75233 26.0002 8.215 26.3988 7.773C26.7975 7.32233 27.0835 6.88033 27.2568 6.447C27.4302 6.005 27.5168 5.50667 27.5168 4.952V4.276H28.5048V5.004C28.5048 5.77533 28.3532 6.46433 28.0498 7.071L28.1148 7.11L28.3228 6.941C28.4268 6.863 28.5222 6.824 28.6088 6.824C28.7042 6.824 28.7908 6.863 28.8688 6.941L31.3388 9.112L30.6368 9.801L28.1538 7.513C28.0845 7.461 28.0195 7.435 27.9588 7.435C27.8982 7.435 27.8462 7.461 27.8028 7.513C27.5688 7.877 27.2655 8.24967 26.8928 8.631C26.5288 9.01233 26.0392 9.476 25.4238 10.022ZM27.7508 14.975H34.1988V15.82H27.3998C27.1918 15.82 27.0315 15.7637 26.9188 15.651C26.8062 15.5383 26.7498 15.3737 26.7498 15.157V12.804H32.8988V11.465H26.6718V10.633H33.8868V13.636H27.7508V14.975ZM46.4266 5.537H38.1196V4.705H46.4266V5.537ZM46.5436 10.308H38.0156V9.489H40.0696L39.6406 6.603L40.6416 6.499L40.9926 9.489H43.5536L43.9046 6.499L44.9186 6.603L44.4766 9.489H46.5436V10.308ZM47.5836 13.168V14H36.9756V13.168H39.8616V10.971H40.8236V13.168H43.7356V10.971H44.6976V13.168H47.5836ZM57.1595 6.031V4.913H50.8155V4.185H58.1085V6.746H51.8425V7.851H58.4335V8.592H50.8805V6.031H57.1595ZM59.8245 9.567V10.334H49.2165V9.567H59.8245ZM50.8415 15.196V13.233H57.3155V12.141H50.7635V11.374H58.2385V13.961H51.7645V15.079H58.5765V15.859H51.4915C51.2835 15.859 51.1231 15.8027 51.0105 15.69C50.8978 15.5773 50.8415 15.4127 50.8415 15.196ZM75.7875 10.321V11.127H65.1795V10.321H70.0025V9.099H66.7915V4.237H74.1625V5.017H67.7405V6.291H73.9675V7.045H67.7535V8.319H74.3705V9.099H70.9775V10.321H75.7875ZM74.3315 14C74.3315 14.6153 74.0022 15.105 73.3435 15.469C72.6849 15.833 71.7315 16.015 70.4835 16.015C69.2355 16.015 68.2822 15.833 67.6235 15.469C66.9649 15.105 66.6355 14.6153 66.6355 14C66.6355 13.3933 66.9649 12.908 67.6235 12.544C68.2822 12.1713 69.2355 11.985 70.4835 11.985C71.7315 11.985 72.6849 12.1713 73.3435 12.544C74.0022 12.908 74.3315 13.3933 74.3315 14ZM73.2915 13.922C73.2915 13.584 73.0575 13.3023 72.5895 13.077C72.1302 12.8517 71.4282 12.739 70.4835 12.739C69.5475 12.739 68.8412 12.8517 68.3645 13.077C67.8965 13.3023 67.6625 13.584 67.6625 13.922V14.078C67.6625 14.416 67.8965 14.6977 68.3645 14.923C68.8412 15.1483 69.5475 15.261 70.4835 15.261C71.4282 15.261 72.1302 15.1483 72.5895 14.923C73.0575 14.6977 73.2915 14.416 73.2915 14.078V13.922ZM87.4434 4.003V15.287H86.4814V9.398H84.7914V14.975H83.8424V4.198H84.7914V8.579H86.4814V4.003H87.4434ZM82.0484 5.693H78.7074V4.887H82.0484V5.693ZM77.3424 7.149H83.2184V7.929H81.6714V7.994C82.356 8.36667 82.6984 9.073 82.6984 10.113C82.6984 10.9277 82.4774 11.5647 82.0354 12.024C81.602 12.4747 81.03 12.7 80.3194 12.7C79.6174 12.7 79.0454 12.4747 78.6034 12.024C78.17 11.5647 77.9534 10.9277 77.9534 10.113C77.9534 9.073 78.2914 8.36667 78.9674 7.994V7.929H77.3424V7.149ZM81.7624 9.645C81.7624 9.125 81.6324 8.72633 81.3724 8.449C81.1124 8.17167 80.7614 8.033 80.3194 8.033C79.8774 8.033 79.5264 8.17167 79.2664 8.449C79.015 8.72633 78.8894 9.125 78.8894 9.645V10.269C78.8894 10.7803 79.0194 11.179 79.2794 11.465C79.548 11.751 79.8947 11.894 80.3194 11.894C80.744 11.894 81.0907 11.751 81.3594 11.465C81.628 11.179 81.7624 10.7803 81.7624 10.269V9.645ZM104.329 9.476H102.561V15.287H101.586V4.003H102.561V8.644H104.329V9.476ZM96.3865 5.68H93.8775V4.874H99.8575V5.68H97.3485C97.3485 6.41667 97.1881 7.06667 96.8675 7.63L96.9195 7.669L97.1405 7.5C97.2445 7.422 97.3441 7.383 97.4395 7.383C97.5435 7.383 97.6475 7.422 97.7515 7.5L100.13 9.372L99.4285 10.022L96.9845 8.02C96.9238 7.968 96.8545 7.942 96.7765 7.942C96.7158 7.942 96.6638 7.95933 96.6205 7.994C96.3865 8.31467 96.0788 8.64833 95.6975 8.995C95.3161 9.34167 94.8221 9.74033 94.2155 10.191L93.5135 9.554C94.2588 9.008 94.8308 8.54 95.2295 8.15C95.6281 7.76 95.9185 7.37433 96.1005 6.993C96.2825 6.61167 96.3778 6.174 96.3865 5.68ZM100.65 11.79L100.741 12.583C99.7968 12.739 98.6615 12.8603 97.3355 12.947C96.0181 13.025 94.6575 13.064 93.2535 13.064L93.1625 12.219C94.1245 12.219 95.1818 12.1973 96.3345 12.154V9.892H97.2965V12.115C98.6745 12.0283 99.7925 11.92 100.65 11.79ZM107.002 6.785C107.002 6.28233 107.145 5.83167 107.431 5.433C107.717 5.03433 108.155 4.718 108.744 4.484C109.334 4.25 110.062 4.133 110.928 4.133C111.795 4.133 112.523 4.25 113.112 4.484C113.702 4.718 114.139 5.03433 114.425 5.433C114.711 5.83167 114.854 6.28233 114.854 6.785C114.854 7.28767 114.711 7.74267 114.425 8.15C114.139 8.54867 113.702 8.865 113.112 9.099C112.523 9.333 111.795 9.45 110.928 9.45C110.062 9.45 109.334 9.333 108.744 9.099C108.155 8.865 107.717 8.54867 107.431 8.15C107.145 7.74267 107.002 7.28767 107.002 6.785ZM108.068 6.915C108.068 7.409 108.307 7.82067 108.783 8.15C109.26 8.47933 109.975 8.644 110.928 8.644C111.882 8.644 112.597 8.47933 113.073 8.15C113.55 7.82067 113.788 7.409 113.788 6.915V6.655C113.788 6.161 113.55 5.74933 113.073 5.42C112.597 5.082 111.882 4.913 110.928 4.913C109.984 4.913 109.269 5.082 108.783 5.42C108.307 5.74933 108.068 6.161 108.068 6.655V6.915ZM116.232 11.504H111.422V15.742H110.434V11.504H105.624V10.672H116.232V11.504ZM128.473 13.168V14H117.865V13.168H122.675V10.945H119.425V7.422H125.925V5.511H119.36V4.692H126.913V8.215H120.413V10.126H127.251V10.945H123.663V13.168H128.473ZM144.774 8.462H143.058V11.764H142.083V4.003H143.058V7.63H144.774V8.462ZM139.08 4.861H135.661V4.094H139.08V4.861ZM141.225 11.114C140.263 11.27 139.106 11.3913 137.754 11.478C136.411 11.556 135.024 11.595 133.594 11.595L133.516 10.789C134.825 10.789 135.93 10.7673 136.831 10.724V9.814C136.155 9.75333 135.622 9.58 135.232 9.294C134.842 8.99933 134.647 8.631 134.647 8.189C134.647 7.54767 134.985 7.10133 135.661 6.85V6.772H133.867V6.031H140.64V6.772H138.924V6.85C139.6 7.11867 139.938 7.565 139.938 8.189C139.938 8.62233 139.743 8.98633 139.353 9.281C138.963 9.567 138.435 9.74033 137.767 9.801V10.685C139.102 10.6157 140.224 10.5117 141.134 10.373L141.225 11.114ZM137.104 9.06H137.481C137.941 9.06 138.313 8.96467 138.599 8.774C138.894 8.57467 139.041 8.29733 139.041 7.942C139.041 7.58667 138.898 7.31367 138.612 7.123C138.326 6.92367 137.949 6.824 137.481 6.824H137.104C136.636 6.824 136.255 6.92367 135.96 7.123C135.674 7.31367 135.531 7.58667 135.531 7.942C135.531 8.29733 135.674 8.57467 135.96 8.774C136.255 8.96467 136.636 9.06 137.104 9.06ZM135.557 12.453H143.058V15.885H142.096V13.22H135.557V12.453ZM155.806 4.003V12.57H154.805V4.003H155.806ZM146.446 7.513C146.446 6.90633 146.572 6.37767 146.823 5.927C147.083 5.47633 147.438 5.134 147.889 4.9C148.34 4.65733 148.855 4.536 149.436 4.536C150.008 4.536 150.519 4.65733 150.97 4.9C151.429 5.134 151.785 5.47633 152.036 5.927C152.296 6.37767 152.426 6.90633 152.426 7.513C152.426 8.111 152.296 8.63533 152.036 9.086C151.785 9.53667 151.429 9.88333 150.97 10.126C150.519 10.36 150.008 10.477 149.436 10.477C148.855 10.477 148.34 10.36 147.889 10.126C147.438 9.88333 147.083 9.541 146.823 9.099C146.572 8.64833 146.446 8.11967 146.446 7.513ZM151.373 7.786V7.24C151.373 6.668 151.191 6.213 150.827 5.875C150.472 5.52833 150.008 5.355 149.436 5.355C148.855 5.355 148.383 5.52833 148.019 5.875C147.664 6.22167 147.486 6.67667 147.486 7.24V7.786C147.486 8.34933 147.668 8.80433 148.032 9.151C148.396 9.489 148.864 9.658 149.436 9.658C150.008 9.658 150.472 9.489 150.827 9.151C151.191 8.80433 151.373 8.34933 151.373 7.786ZM148.578 14.871V11.634H149.579V14.715H156.04V15.534H149.228C149.02 15.534 148.86 15.4777 148.747 15.365C148.634 15.2523 148.578 15.0877 148.578 14.871ZM172.978 9.281H171.106V15.313H170.118V4.029H171.106V8.449H172.978V9.281ZM162.591 4.926H167.648V6.733C167.648 7.695 167.505 8.50967 167.219 9.177C166.933 9.84433 166.448 10.4683 165.763 11.049C165.087 11.621 164.116 12.2493 162.851 12.934L162.266 12.193C163.445 11.569 164.346 11.0013 164.97 10.49C165.594 9.97867 166.032 9.437 166.283 8.865C166.534 8.293 166.66 7.58667 166.66 6.746V5.771H162.591V4.926ZM183.373 8.137H175.898V4.315H176.873V7.331H183.373V8.137ZM184.881 9.476V10.334H174.273V9.476H184.881ZM183.425 13.714C183.425 14.3987 183.096 14.949 182.437 15.365C181.778 15.781 180.825 15.989 179.577 15.989C178.329 15.989 177.376 15.781 176.717 15.365C176.058 14.949 175.729 14.3987 175.729 13.714C175.729 13.2807 175.872 12.895 176.158 12.557C176.453 12.219 176.886 11.9547 177.458 11.764C178.039 11.5733 178.745 11.478 179.577 11.478C180.409 11.478 181.111 11.5733 181.683 11.764C182.264 11.9547 182.697 12.219 182.983 12.557C183.278 12.895 183.425 13.2807 183.425 13.714ZM182.385 13.636C182.385 13.246 182.151 12.921 181.683 12.661C181.224 12.3923 180.522 12.258 179.577 12.258C178.641 12.258 177.935 12.3923 177.458 12.661C176.99 12.921 176.756 13.246 176.756 13.636V13.818C176.756 14.208 176.99 14.533 177.458 14.793C177.935 15.0617 178.641 15.196 179.577 15.196C180.522 15.196 181.224 15.0617 181.683 14.793C182.151 14.533 182.385 14.208 182.385 13.818V13.636Z" fill="white"/>
<rect y="5" width="2" height="10" fill="white"/>
</svg>
