<svg width="238" height="20" viewBox="0 0 238 20" fill="none" xmlns="http://www.w3.org/2000/svg">
<path d="M18.929 14H12.975V12.882L15.939 10.152C16.3637 9.762 16.719 9.35033 17.005 8.917C17.291 8.475 17.434 8.033 17.434 7.591V7.435C17.434 6.93233 17.2953 6.525 17.018 6.213C16.7407 5.901 16.3203 5.745 15.757 5.745C15.4797 5.745 15.237 5.784 15.029 5.862C14.821 5.94 14.639 6.04833 14.483 6.187C14.3357 6.32567 14.21 6.49033 14.106 6.681C14.0107 6.863 13.9327 7.06233 13.872 7.279L12.897 6.902C12.9837 6.63333 13.1007 6.37333 13.248 6.122C13.404 5.862 13.5947 5.63233 13.82 5.433C14.054 5.23367 14.3313 5.07333 14.652 4.952C14.9813 4.83067 15.367 4.77 15.809 4.77C16.251 4.77 16.6453 4.835 16.992 4.965C17.3387 5.095 17.629 5.277 17.863 5.511C18.097 5.745 18.2747 6.02233 18.396 6.343C18.526 6.66367 18.591 7.019 18.591 7.409C18.591 7.76433 18.539 8.09367 18.435 8.397C18.3397 8.70033 18.2053 8.99067 18.032 9.268C17.8587 9.53667 17.6463 9.801 17.395 10.061C17.1523 10.321 16.888 10.581 16.602 10.841L14.158 13.038H18.929V14ZM31.8849 9.281H30.0129V15.313H29.0249V4.029H30.0129V8.449H31.8849V9.281ZM21.4979 4.926H26.5549V6.733C26.5549 7.695 26.4119 8.50967 26.1259 9.177C25.8399 9.84433 25.3546 10.4683 24.6699 11.049C23.9939 11.621 23.0233 12.2493 21.7579 12.934L21.1729 12.193C22.3516 11.569 23.2529 11.0013 23.8769 10.49C24.5009 9.97867 24.9386 9.437 25.1899 8.865C25.4413 8.293 25.5669 7.58667 25.5669 6.746V5.771H21.4979V4.926ZM42.8517 4.003V15.287H41.8637V4.003H42.8517ZM37.4177 8.774C37.5391 8.774 37.6387 8.82167 37.7167 8.917L40.2647 11.907L39.5237 12.544L36.9497 9.45C36.9064 9.398 36.8544 9.372 36.7937 9.372C36.7417 9.372 36.6941 9.398 36.6507 9.45C36.4167 9.92667 36.1091 10.412 35.7277 10.906C35.3464 11.4 34.8264 12.0067 34.1677 12.726L33.4267 12.102C34.1807 11.3133 34.7614 10.6287 35.1687 10.048C35.5847 9.46733 35.8837 8.891 36.0657 8.319C36.2477 7.73833 36.3387 7.07967 36.3387 6.343V5.849H33.7777V5.017H39.8747V5.849H37.3267V6.382C37.3267 7.36133 37.1751 8.23233 36.8717 8.995L36.9367 9.034L37.1317 8.878C37.2271 8.80867 37.3224 8.774 37.4177 8.774ZM60.0888 9.281H58.2168V15.313H57.2288V4.029H58.2168V8.449H60.0888V9.281ZM49.8708 4.952H54.9148V6.954C54.9148 7.88133 54.7588 8.67867 54.4468 9.346C54.1348 10.0133 53.6278 10.6373 52.9258 11.218C52.2325 11.7987 51.2532 12.4443 49.9878 13.155L49.4158 12.427C50.7505 11.6903 51.7428 11.036 52.3928 10.464C53.0515 9.892 53.4978 9.255 53.7318 8.553L49.5198 8.878L49.3768 8.046L53.9008 7.773C53.9355 7.539 53.9528 7.266 53.9528 6.954V5.771H49.8708V4.952ZM71.4066 4.003V15.287H70.4576V4.003H71.4066ZM67.8576 4.198H68.7936V14.975H67.8576V9.099H66.2586V8.28H67.8576V4.198ZM66.6746 11.335L66.7916 12.128C65.7516 12.388 64.4733 12.518 62.9566 12.518H61.9036V5.095H66.0506V5.901H62.8526V8.306H65.6996V9.112H62.8526V11.712H63.2036C64.5556 11.712 65.7126 11.5863 66.6746 11.335ZM81.8145 5.784H74.9505V4.939H82.7895V5.862C82.7895 7.786 82.6031 9.619 82.2305 11.361L81.2685 11.205C81.6325 9.44567 81.8145 7.67767 81.8145 5.901V5.784ZM84.2325 13.168V14H73.6245V13.168H77.7845V8.995H78.7595V13.168H84.2325ZM95.5373 4.003V15.287H94.5493V4.003H95.5373ZM93.0673 11.335L93.1973 12.128C91.854 12.388 90.1466 12.518 88.0753 12.518H86.6713V8.163H90.7663V5.693H86.6193V4.861H91.7543V8.982H87.6463V11.712H88.0623C90.0296 11.712 91.698 11.5863 93.0673 11.335ZM106.816 4.003H107.791V15.287H106.816V4.003ZM98.7041 7.383C98.7041 6.84567 98.8384 6.37333 99.1071 5.966C99.3758 5.55 99.7441 5.23367 100.212 5.017C100.68 4.79167 101.209 4.679 101.798 4.679C102.387 4.679 102.916 4.79167 103.384 5.017C103.852 5.23367 104.22 5.55 104.489 5.966C104.758 6.37333 104.892 6.84567 104.892 7.383C104.892 7.92033 104.758 8.39267 104.489 8.8C104.22 9.20733 103.852 9.52367 103.384 9.749C102.916 9.96567 102.387 10.074 101.798 10.074C101.209 10.074 100.68 9.96567 100.212 9.749C99.7441 9.52367 99.3758 9.20733 99.1071 8.8C98.8384 8.39267 98.7041 7.92033 98.7041 7.383ZM103.852 7.539V7.227C103.852 6.707 103.661 6.28667 103.28 5.966C102.899 5.64533 102.405 5.485 101.798 5.485C101.191 5.485 100.697 5.64533 100.316 5.966C99.9348 6.28667 99.7441 6.707 99.7441 7.227V7.539C99.7441 8.059 99.9348 8.47933 100.316 8.8C100.697 9.12067 101.191 9.281 101.798 9.281C102.405 9.281 102.899 9.12067 103.28 8.8C103.661 8.47933 103.852 8.059 103.852 7.539ZM98.1581 12.076C99.6314 12.076 101.053 12.0413 102.422 11.972C103.791 11.9027 104.953 11.7943 105.906 11.647L106.01 12.44C105.031 12.596 103.852 12.7173 102.474 12.804C101.105 12.882 99.6964 12.921 98.2491 12.921L98.1581 12.076ZM121.349 4.926H117.397V4.12H121.349V4.926ZM118.879 6.915H115.304V6.109H123.455V6.915H119.88C119.837 7.42633 119.651 7.85967 119.321 8.215L119.412 8.241L119.659 8.072C119.781 7.98533 119.906 7.942 120.036 7.942C120.123 7.942 120.223 7.96367 120.335 8.007L123.91 9.528L123.377 10.256L119.607 8.566C119.503 8.514 119.395 8.488 119.282 8.488C119.152 8.488 119.04 8.51833 118.944 8.579L118.905 8.592C118.567 8.852 118.112 9.12067 117.54 9.398C116.977 9.66667 116.249 9.96567 115.356 10.295L114.836 9.58C115.824 9.23333 116.6 8.92133 117.163 8.644C117.735 8.36667 118.151 8.09367 118.411 7.825C118.671 7.54767 118.827 7.24433 118.879 6.915ZM124.677 11.933H119.867V15.742H118.879V11.933H114.069V11.114H124.677V11.933ZM135.046 8.956H132.849V8.124H135.046V4.003H136.047V12.7H135.046V8.956ZM131.601 5.225H128.143V4.406H131.601V5.225ZM127.285 11.517L126.596 10.919C127.315 10.4077 127.87 9.96567 128.26 9.593C128.659 9.22033 128.945 8.852 129.118 8.488C129.291 8.124 129.382 7.71233 129.391 7.253H126.908V6.434H132.836V7.253H130.34C130.34 7.92033 130.188 8.50533 129.885 9.008L129.963 9.047L130.158 8.904C130.253 8.83467 130.349 8.8 130.444 8.8C130.548 8.8 130.648 8.83467 130.743 8.904L133.135 10.724L132.446 11.335L130.015 9.424C129.946 9.372 129.872 9.346 129.794 9.346C129.716 9.346 129.651 9.372 129.599 9.424C129.374 9.736 129.079 10.0523 128.715 10.373C128.351 10.6937 127.874 11.075 127.285 11.517ZM136.281 14.78V15.599H129.443C129.235 15.599 129.075 15.5427 128.962 15.43C128.849 15.3173 128.793 15.1527 128.793 14.936V12.31H129.781V14.78H136.281ZM147.109 5.16H143.573V4.367H151.581V5.16H148.084C148.067 5.76667 147.88 6.278 147.525 6.694L147.59 6.72L147.863 6.525C147.984 6.447 148.097 6.408 148.201 6.408C148.288 6.408 148.392 6.434 148.513 6.486L152.062 8.137L151.542 8.852L147.824 7.058C147.711 6.99733 147.599 6.967 147.486 6.967C147.365 6.967 147.256 6.99733 147.161 7.058C146.823 7.344 146.368 7.63433 145.796 7.929C145.224 8.215 144.492 8.53133 143.599 8.878L143.092 8.176C144.123 7.786 144.921 7.43933 145.484 7.136C146.047 6.824 146.45 6.51633 146.693 6.213C146.944 5.90967 147.083 5.55867 147.109 5.16ZM148.071 10.542V11.582C149.163 11.6427 149.995 11.868 150.567 12.258C151.139 12.648 151.425 13.1507 151.425 13.766C151.425 14.1993 151.278 14.5807 150.983 14.91C150.697 15.248 150.264 15.5123 149.683 15.703C149.111 15.8937 148.409 15.989 147.577 15.989C146.745 15.989 146.039 15.8937 145.458 15.703C144.886 15.5123 144.453 15.248 144.158 14.91C143.872 14.5807 143.729 14.1993 143.729 13.766C143.729 13.1507 144.015 12.648 144.587 12.258C145.159 11.868 145.991 11.6427 147.083 11.582V10.542H142.273V9.71H152.881V10.542H148.071ZM147.577 12.336C146.632 12.336 145.922 12.466 145.445 12.726C144.977 12.986 144.743 13.3067 144.743 13.688V13.87C144.743 14.2427 144.977 14.559 145.445 14.819C145.922 15.079 146.632 15.209 147.577 15.209C148.522 15.209 149.228 15.079 149.696 14.819C150.164 14.559 150.398 14.2427 150.398 13.87V13.688C150.398 13.298 150.164 12.9773 149.696 12.726C149.237 12.466 148.53 12.336 147.577 12.336ZM162.704 5.784H155.84V4.939H163.679V5.862C163.679 7.786 163.493 9.619 163.12 11.361L162.158 11.205C162.522 9.44567 162.704 7.67767 162.704 5.901V5.784ZM165.122 13.168V14H154.514V13.168H158.674V8.995H159.649V13.168H165.122ZM181.436 6.915V7.747H179.629V10.724H178.641V4.003H179.629V6.915H181.436ZM173.714 7.695C173.653 7.695 173.597 7.72533 173.545 7.786C173.32 8.15867 173.021 8.54433 172.648 8.943C172.284 9.333 171.79 9.81833 171.166 10.399L170.438 9.762C171.175 9.10333 171.742 8.54 172.141 8.072C172.54 7.604 172.826 7.14033 172.999 6.681C173.172 6.22167 173.259 5.70167 173.259 5.121V4.419H174.247V5.173C174.247 5.96167 174.095 6.681 173.792 7.331L173.857 7.383L174.065 7.201C174.16 7.123 174.256 7.084 174.351 7.084C174.446 7.084 174.533 7.123 174.611 7.201L177.081 9.489L176.379 10.165L173.883 7.773C173.831 7.721 173.775 7.695 173.714 7.695ZM179.72 13.428C179.72 13.9047 179.586 14.3293 179.317 14.702C179.048 15.0833 178.645 15.3823 178.108 15.599C177.571 15.8157 176.912 15.924 176.132 15.924C175.361 15.924 174.702 15.8157 174.156 15.599C173.619 15.3823 173.211 15.0833 172.934 14.702C172.665 14.3293 172.531 13.9047 172.531 13.428C172.531 12.9513 172.665 12.5267 172.934 12.154C173.211 11.7727 173.619 11.4737 174.156 11.257C174.702 11.0403 175.361 10.932 176.132 10.932C176.912 10.932 177.571 11.0403 178.108 11.257C178.645 11.4737 179.048 11.7727 179.317 12.154C179.586 12.5267 179.72 12.9513 179.72 13.428ZM178.68 13.324C178.68 12.8733 178.468 12.4963 178.043 12.193C177.627 11.8897 176.99 11.738 176.132 11.738C175.283 11.738 174.646 11.894 174.221 12.206C173.796 12.5093 173.584 12.882 173.584 13.324V13.545C173.584 13.987 173.796 14.3597 174.221 14.663C174.646 14.975 175.283 15.131 176.132 15.131C176.99 15.131 177.627 14.975 178.043 14.663C178.468 14.3597 178.68 13.987 178.68 13.545V13.324ZM192.091 5.095H183.953V4.289H192.091V5.095ZM192.208 8.605H183.836V7.812H185.786L185.409 5.797L186.397 5.693L186.709 7.812H189.335L189.634 5.693L190.622 5.797L190.245 7.812H192.208V8.605ZM188.516 10.542V11.764H191.753V15.729H184.941C184.733 15.729 184.572 15.6727 184.46 15.56C184.347 15.4473 184.291 15.2827 184.291 15.066V11.764H187.528V10.542H182.718V9.71H193.326V10.542H188.516ZM190.778 12.557H185.266V14.923H190.778V12.557ZM208.704 4.003V15.287H207.755V4.003H208.704ZM205.168 4.198H206.091V14.975H205.168V8.761H203.361V7.942H205.168V4.198ZM202.009 8.904C202.113 8.904 202.213 8.96467 202.308 9.086L204.375 11.985L203.673 12.583L201.593 9.593C201.55 9.541 201.506 9.515 201.463 9.515C201.42 9.515 201.385 9.541 201.359 9.593C201.177 10.0437 200.926 10.5117 200.605 10.997C200.293 11.4737 199.868 12.063 199.331 12.765L198.642 12.18C199.275 11.374 199.76 10.6807 200.098 10.1C200.436 9.51067 200.679 8.93 200.826 8.358C200.973 7.77733 201.047 7.11867 201.047 6.382V6.005H198.915V5.173H204.076V6.005H201.983V6.382C201.983 7.38733 201.844 8.28 201.567 9.06L201.632 9.099L201.762 8.995C201.857 8.93433 201.94 8.904 202.009 8.904ZM218.982 5.199H212.339V4.367H219.944V5.004C219.944 6.13933 219.809 7.30067 219.541 8.488L218.605 8.358C218.847 7.33533 218.973 6.28233 218.982 5.199ZM221.53 9.398V10.256H210.922V9.398H215.277V7.149H216.252V9.398H221.53ZM220.074 13.662C220.074 14.1127 219.926 14.5113 219.632 14.858C219.346 15.2133 218.912 15.4907 218.332 15.69C217.76 15.8893 217.058 15.989 216.226 15.989C215.394 15.989 214.687 15.8893 214.107 15.69C213.535 15.4907 213.101 15.2133 212.807 14.858C212.521 14.5113 212.378 14.1127 212.378 13.662C212.378 13.2113 212.521 12.8127 212.807 12.466C213.101 12.1193 213.535 11.8463 214.107 11.647C214.687 11.4477 215.394 11.348 216.226 11.348C217.058 11.348 217.76 11.4477 218.332 11.647C218.912 11.8463 219.346 12.1193 219.632 12.466C219.926 12.8127 220.074 13.2113 220.074 13.662ZM219.034 13.571C219.034 13.1637 218.8 12.8213 218.332 12.544C217.872 12.2667 217.17 12.128 216.226 12.128C215.29 12.128 214.583 12.2667 214.107 12.544C213.639 12.8213 213.405 13.1637 213.405 13.571V13.766C213.405 14.1647 213.639 14.5027 214.107 14.78C214.583 15.0573 215.29 15.196 216.226 15.196C217.17 15.196 217.872 15.0573 218.332 14.78C218.8 14.5027 219.034 14.1647 219.034 13.766V13.571Z" fill="white"/>
<rect y="4" width="2" height="10" fill="white"/>
</svg>
