<svg width="238" height="40" viewBox="0 0 238 40" fill="none" xmlns="http://www.w3.org/2000/svg">
<path d="M23.453 6.863V7.695H21.633V10.542H20.658V4.003H21.633V6.863H23.453ZM19.371 9.918C17.9497 10.1867 16.2553 10.321 14.288 10.321H12.962V4.536H18.188V5.329H13.911V6.993H18.006V7.786H13.911V9.528H14.34C16.2467 9.528 17.8803 9.398 19.241 9.138L19.371 9.918ZM20.684 11.205H21.646V15.755H15.289C15.081 15.755 14.9207 15.6987 14.808 15.586C14.6953 15.4733 14.639 15.3087 14.639 15.092V11.205H15.601V12.622H20.684V11.205ZM20.684 13.441H15.601V14.923H20.684V13.441ZM35.6808 9.281H33.8088V15.313H32.8208V4.029H33.8088V8.449H35.6808V9.281ZM29.4798 4.796H30.4288V12.245H25.1248V4.809H26.0868V7.656H29.4798V4.796ZM29.4798 8.488H26.0868V11.413H29.4798V8.488ZM46.0756 8.501H38.6006V4.419H39.5756V7.682H46.0756V8.501ZM47.5836 9.944V10.789H36.9756V9.944H47.5836ZM39.4846 14.689H46.2186V15.521H39.1466C38.9386 15.521 38.7783 15.4647 38.6656 15.352C38.553 15.2393 38.4966 15.0747 38.4966 14.858V12.011H39.4846V14.689ZM56.4678 10.503L55.9088 9.736C57.0875 9.12933 57.9888 8.592 58.6128 8.124C59.2455 7.64733 59.6832 7.175 59.9258 6.707C60.1685 6.23033 60.2898 5.68433 60.2898 5.069V4.627H61.3038V5.095C61.3038 5.59767 61.2475 6.04833 61.1348 6.447C61.0308 6.837 60.8532 7.20533 60.6018 7.552L60.6668 7.591L60.9918 7.344C61.1045 7.25733 61.2172 7.214 61.3298 7.214C61.4425 7.214 61.5552 7.253 61.6678 7.331L65.4508 9.684L64.8788 10.464L60.9658 7.942C60.8532 7.864 60.7318 7.825 60.6018 7.825C60.4892 7.825 60.3765 7.86833 60.2638 7.955C59.9085 8.33633 59.4275 8.73067 58.8208 9.138C58.2142 9.53667 57.4298 9.99167 56.4678 10.503ZM65.9838 13.155V14H55.3758V13.155H65.9838ZM75.8067 5.849V5.758H68.9947V4.926H76.7947V6.174C76.7947 8.16733 76.6127 10.061 76.2487 11.855L75.2867 11.699C75.4773 10.789 75.6117 9.84867 75.6897 8.878L68.7347 9.229L68.6047 8.384L75.7547 8.098C75.7893 7.46533 75.8067 6.71567 75.8067 5.849ZM78.2247 13.155V14H67.6167V13.155H78.2247ZM90.4655 9.619V10.373H79.8575V9.619H84.6805V8.566H81.5215V6.005H87.8005V4.913H81.4565V4.172H88.7495V6.72H82.4835V7.825H89.0745V8.566H85.6425V9.619H90.4655ZM82.4055 15.079H89.2175V15.859H82.1325C81.9245 15.859 81.7641 15.8027 81.6515 15.69C81.5388 15.5773 81.4825 15.4127 81.4825 15.196V13.246H87.9565V12.154H81.4045V11.387H88.8795V13.974H82.4055V15.079ZM93.5023 6.083C93.5023 5.45033 93.8273 4.94767 94.4773 4.575C95.1273 4.19367 96.1023 4.003 97.4023 4.003C98.7023 4.003 99.6773 4.19367 100.327 4.575C100.977 4.94767 101.302 5.45033 101.302 6.083C101.302 6.71567 100.977 7.22267 100.327 7.604C99.6773 7.98533 98.7023 8.176 97.4023 8.176C96.1023 8.176 95.1273 7.98533 94.4773 7.604C93.8273 7.22267 93.5023 6.71567 93.5023 6.083ZM100.249 6.148V6.005C100.249 5.63233 100.011 5.329 99.5343 5.095C99.0663 4.85233 98.3556 4.731 97.4023 4.731C96.449 4.731 95.734 4.85233 95.2573 5.095C94.7893 5.329 94.5553 5.63233 94.5553 6.005V6.148C94.5553 6.52067 94.7893 6.82833 95.2573 7.071C95.734 7.305 96.449 7.422 97.4023 7.422C98.3556 7.422 99.0663 7.305 99.5343 7.071C100.011 6.82833 100.249 6.52067 100.249 6.148ZM102.706 9.073V9.905H92.0983V9.073H102.706ZM93.7493 15.157V13.025H100.158V11.803H93.6713V10.997H101.107V13.779H94.6983V15.014H101.445V15.82H94.3993C94.1913 15.82 94.031 15.7637 93.9183 15.651C93.8056 15.5383 93.7493 15.3737 93.7493 15.157ZM120.521 4.003V15.287H119.559V9.229H117.713V14.975H116.764V4.198H117.713V8.41H119.559V4.003H120.521ZM115.945 10.971L116.075 11.777C115.009 12.037 113.696 12.167 112.136 12.167H111.044V5.147H111.993V11.348H112.37C113.046 11.348 113.692 11.3177 114.307 11.257C114.931 11.1877 115.477 11.0923 115.945 10.971ZM132.411 4.003V15.287H131.423V4.003H132.411ZM129.941 11.335L130.071 12.128C128.728 12.388 127.021 12.518 124.949 12.518H123.545V8.163H127.64V5.693H123.493V4.861H128.628V8.982H124.52V11.712H124.936C126.904 11.712 128.572 11.5863 129.941 11.335ZM143.729 9.19H141.337V8.384H143.729V6.616H141.337V5.81H143.729V4.003H144.717V12.57H143.729V9.19ZM140.895 10.269H135.578V4.731H140.895V10.269ZM139.92 5.55H136.553V9.45H139.92V5.55ZM144.951 14.715V15.534H138.139C137.931 15.534 137.771 15.4777 137.658 15.365C137.545 15.2523 137.489 15.0877 137.489 14.871V11.634H138.49V14.715H144.951ZM164.339 6.915V7.747H162.532V10.724H161.544V4.003H162.532V6.915H164.339ZM156.617 7.695C156.557 7.695 156.5 7.72533 156.448 7.786C156.223 8.15867 155.924 8.54433 155.551 8.943C155.187 9.333 154.693 9.81833 154.069 10.399L153.341 9.762C154.078 9.10333 154.646 8.54 155.044 8.072C155.443 7.604 155.729 7.14033 155.902 6.681C156.076 6.22167 156.162 5.70167 156.162 5.121V4.419H157.15V5.173C157.15 5.96167 156.999 6.681 156.695 7.331L156.76 7.383L156.968 7.201C157.064 7.123 157.159 7.084 157.254 7.084C157.35 7.084 157.436 7.123 157.514 7.201L159.984 9.489L159.282 10.165L156.786 7.773C156.734 7.721 156.678 7.695 156.617 7.695ZM162.623 13.428C162.623 13.9047 162.489 14.3293 162.22 14.702C161.952 15.0833 161.549 15.3823 161.011 15.599C160.474 15.8157 159.815 15.924 159.035 15.924C158.264 15.924 157.605 15.8157 157.059 15.599C156.522 15.3823 156.115 15.0833 155.837 14.702C155.569 14.3293 155.434 13.9047 155.434 13.428C155.434 12.9513 155.569 12.5267 155.837 12.154C156.115 11.7727 156.522 11.4737 157.059 11.257C157.605 11.0403 158.264 10.932 159.035 10.932C159.815 10.932 160.474 11.0403 161.011 11.257C161.549 11.4737 161.952 11.7727 162.22 12.154C162.489 12.5267 162.623 12.9513 162.623 13.428ZM161.583 13.324C161.583 12.8733 161.371 12.4963 160.946 12.193C160.53 11.8897 159.893 11.738 159.035 11.738C158.186 11.738 157.549 11.894 157.124 12.206C156.7 12.5093 156.487 12.882 156.487 13.324V13.545C156.487 13.987 156.7 14.3597 157.124 14.663C157.549 14.975 158.186 15.131 159.035 15.131C159.893 15.131 160.53 14.975 160.946 14.663C161.371 14.3597 161.583 13.987 161.583 13.545V13.324ZM176.58 7.422V8.254H174.773V12.57H173.785V4.003H174.773V7.422H176.58ZM172.498 9.996C171.865 10.126 171.111 10.23 170.236 10.308C169.361 10.3773 168.42 10.412 167.415 10.412H166.076V4.77H171.263V5.602H167.064V9.593H167.402C168.355 9.593 169.261 9.55833 170.119 9.489C170.986 9.41967 171.735 9.32433 172.368 9.203L172.498 9.996ZM168.676 14.715H175.033V15.534H168.338C168.13 15.534 167.97 15.4777 167.857 15.365C167.744 15.2523 167.688 15.0877 167.688 14.871V11.634H168.676V14.715ZM187.885 4.003V15.287H186.936V4.003H187.885ZM184.375 4.198H185.298V14.975H184.375V9.06H183.127C183.084 10.1867 182.832 11.036 182.373 11.608C181.914 12.1713 181.307 12.453 180.553 12.453C179.747 12.453 179.11 12.141 178.642 11.517C178.174 10.8843 177.94 9.944 177.94 8.696C177.94 7.448 178.174 6.512 178.642 5.888C179.11 5.25533 179.747 4.939 180.553 4.939C181.298 4.939 181.896 5.21633 182.347 5.771C182.806 6.32567 183.066 7.149 183.127 8.241H184.375V4.198ZM182.139 8.072C182.139 7.30933 181.992 6.72867 181.697 6.33C181.411 5.93133 181.03 5.732 180.553 5.732C180.068 5.732 179.678 5.93133 179.383 6.33C179.097 6.72867 178.954 7.30933 178.954 8.072V9.333C178.954 10.087 179.097 10.6677 179.383 11.075C179.678 11.4737 180.068 11.673 180.553 11.673C181.03 11.673 181.411 11.4737 181.697 11.075C181.992 10.6677 182.139 10.087 182.139 9.333V8.072ZM205.297 8.072H197.835V4.055H198.81V5.316H204.335V4.055H205.297V8.072ZM204.335 6.07H198.81V7.318H204.335V6.07ZM202.06 9.918V11.062H205.453V11.868H198.927V13.025H205.284V13.818H198.927V15.001H205.635V15.82H198.589C198.381 15.82 198.221 15.7637 198.108 15.651C197.996 15.5383 197.939 15.3737 197.939 15.157V11.062H201.072V9.918H196.262V9.099H206.87V9.918H202.06ZM218.188 4.003V15.287H217.213V8.891H214.795C214.752 10.0523 214.457 10.932 213.911 11.53C213.365 12.1193 212.663 12.414 211.805 12.414C210.904 12.414 210.176 12.089 209.621 11.439C209.075 10.789 208.802 9.83133 208.802 8.566C208.802 7.292 209.075 6.33433 209.621 5.693C210.167 5.043 210.895 4.718 211.805 4.718C212.646 4.718 213.335 4.99967 213.872 5.563C214.409 6.12633 214.717 6.95833 214.795 8.059H217.213V4.003H218.188ZM213.768 8.046C213.768 7.24 213.586 6.62467 213.222 6.2C212.867 5.76667 212.394 5.55 211.805 5.55C211.216 5.55 210.743 5.76667 210.388 6.2C210.033 6.62467 209.855 7.24 209.855 8.046V9.086C209.855 9.892 210.033 10.5117 210.388 10.945C210.743 11.3697 211.216 11.582 211.805 11.582C212.394 11.582 212.867 11.3697 213.222 10.945C213.586 10.5117 213.768 9.892 213.768 9.086V8.046ZM237.849 9.281H235.977V15.313H234.989V4.029H235.977V8.449H237.849V9.281ZM233.624 11.127L233.754 11.92C232.428 12.1887 230.773 12.323 228.788 12.323H227.41V4.926H232.597V5.758H228.398V11.504H228.775C230.682 11.504 232.298 11.3783 233.624 11.127ZM21.646 26.499V28.215H23.44V29.034H21.646V30.724H20.671V24.003H21.646V25.68H23.44V26.499H21.646ZM15.549 29.996C14.977 29.996 14.4657 29.8833 14.015 29.658C13.573 29.4327 13.2263 29.1077 12.975 28.683C12.7237 28.2583 12.598 27.76 12.598 27.188C12.598 26.616 12.7237 26.1177 12.975 25.693C13.2263 25.2683 13.573 24.9433 14.015 24.718C14.4657 24.4927 14.977 24.38 15.549 24.38C16.121 24.38 16.628 24.4927 17.07 24.718C17.512 24.9433 17.8587 25.2683 18.11 25.693C18.3613 26.1177 18.487 26.616 18.487 27.188C18.487 27.76 18.3613 28.2583 18.11 28.683C17.8587 29.1077 17.512 29.4327 17.07 29.658C16.628 29.8833 16.121 29.996 15.549 29.996ZM15.549 29.19C16.1123 29.19 16.5673 29.0297 16.914 28.709C17.2693 28.3883 17.447 27.9593 17.447 27.422V26.954C17.447 26.4167 17.2693 25.9877 16.914 25.667C16.5673 25.3463 16.1123 25.186 15.549 25.186C14.977 25.186 14.5133 25.3463 14.158 25.667C13.8113 25.9877 13.638 26.4167 13.638 26.954V27.422C13.638 27.9593 13.8113 28.3883 14.158 28.709C14.5133 29.0297 14.977 29.19 15.549 29.19ZM21.737 33.428C21.737 33.9047 21.6027 34.3293 21.334 34.702C21.0653 35.0833 20.6623 35.3823 20.125 35.599C19.5877 35.8157 18.929 35.924 18.149 35.924C17.3777 35.924 16.719 35.8157 16.173 35.599C15.6357 35.3823 15.2283 35.0833 14.951 34.702C14.6823 34.3293 14.548 33.9047 14.548 33.428C14.548 32.9513 14.6823 32.5267 14.951 32.154C15.2283 31.7727 15.6357 31.4737 16.173 31.257C16.719 31.0403 17.3777 30.932 18.149 30.932C18.929 30.932 19.5877 31.0403 20.125 31.257C20.6623 31.4737 21.0653 31.7727 21.334 32.154C21.6027 32.5267 21.737 32.9513 21.737 33.428ZM20.697 33.324C20.697 32.8733 20.4847 32.4963 20.06 32.193C19.644 31.8897 19.007 31.738 18.149 31.738C17.2997 31.738 16.6627 31.894 16.238 32.206C15.8133 32.5093 15.601 32.882 15.601 33.324V33.545C15.601 33.987 15.8133 34.3597 16.238 34.663C16.6627 34.975 17.2997 35.131 18.149 35.131C19.007 35.131 19.644 34.975 20.06 34.663C20.4847 34.3597 20.697 33.987 20.697 33.545V33.324ZM35.6938 27.864V28.696H33.8868V32.7H32.8988V24.003H33.8868V27.864H35.6938ZM29.9218 25.186H26.4508V24.354H29.9218V25.186ZM28.1018 31.348C27.5645 31.348 27.0922 31.257 26.6848 31.075C26.2775 30.893 25.9612 30.6417 25.7358 30.321C25.5192 30.0003 25.4108 29.6363 25.4108 29.229C25.4108 28.8217 25.5062 28.4663 25.6968 28.163C25.8962 27.851 26.1908 27.6127 26.5808 27.448V27.383H24.5528V26.564H31.5988V27.383H29.6228V27.448C30.0128 27.6127 30.3032 27.851 30.4938 28.163C30.6932 28.4663 30.7928 28.8217 30.7928 29.229C30.7928 29.6363 30.6802 30.0003 30.4548 30.321C30.2382 30.6417 29.9262 30.893 29.5188 31.075C29.1115 31.257 28.6392 31.348 28.1018 31.348ZM27.9978 30.516H28.2188C28.7042 30.516 29.0985 30.386 29.4018 30.126C29.7138 29.8573 29.8698 29.4847 29.8698 29.008C29.8698 28.5313 29.7182 28.1587 29.4148 27.89C29.1115 27.6213 28.7128 27.487 28.2188 27.487H27.9978C27.5038 27.487 27.1052 27.6213 26.8018 27.89C26.4985 28.15 26.3468 28.5227 26.3468 29.008C26.3468 29.4847 26.4985 29.8573 26.8018 30.126C27.1138 30.386 27.5125 30.516 27.9978 30.516ZM27.7898 34.78H34.1468V35.599H27.4518C27.2438 35.599 27.0835 35.5427 26.9708 35.43C26.8582 35.3173 26.8018 35.1527 26.8018 34.936V32.336H27.7898V34.78ZM50.3829 24.003V35.287H49.4079V28.618H47.0029V27.786H49.4079V24.003H50.3829ZM44.7539 28.553C44.8579 28.553 44.9489 28.6007 45.0269 28.696L47.5749 31.946L46.8209 32.609L44.2729 29.255C44.2382 29.2117 44.1949 29.19 44.1429 29.19C44.0909 29.19 44.0476 29.2117 44.0129 29.255C43.7962 29.7577 43.4972 30.2733 43.1159 30.802C42.7346 31.3307 42.2146 31.9893 41.5559 32.778L40.8019 32.141C41.5559 31.283 42.1322 30.5507 42.5309 29.944C42.9382 29.3287 43.2286 28.7133 43.4019 28.098C43.5839 27.4827 43.6749 26.7763 43.6749 25.979V24.757H44.6629V25.966C44.6629 27.0147 44.5199 27.9507 44.2339 28.774L44.2859 28.813L44.4679 28.657C44.5632 28.5877 44.6586 28.553 44.7539 28.553ZM61.6227 24.003H62.6107V35.287H61.6227V24.003ZM53.6017 24.809H54.5767V27.656H57.9957V24.796H58.9577V32.245H53.6017V24.809ZM57.9957 31.413V28.488H54.5767V31.413H57.9957ZM66.2715 30.503L65.7125 29.736C66.8912 29.1293 67.7925 28.592 68.4165 28.124C69.0492 27.6473 69.4869 27.175 69.7295 26.707C69.9722 26.2303 70.0935 25.6843 70.0935 25.069V24.627H71.1075V25.095C71.1075 25.5977 71.0512 26.0483 70.9385 26.447C70.8345 26.837 70.6569 27.2053 70.4055 27.552L70.4705 27.591L70.7955 27.344C70.9082 27.2573 71.0209 27.214 71.1335 27.214C71.2462 27.214 71.3589 27.253 71.4715 27.331L75.2545 29.684L74.6825 30.464L70.7695 27.942C70.6569 27.864 70.5355 27.825 70.4055 27.825C70.2929 27.825 70.1802 27.8683 70.0675 27.955C69.7122 28.3363 69.2312 28.7307 68.6245 29.138C68.0179 29.5367 67.2335 29.9917 66.2715 30.503ZM75.7875 33.155V34H65.1795V33.155H75.7875ZM85.3634 26.031V24.913H79.0194V24.185H86.3124V26.746H80.0464V27.851H86.6374V28.592H79.0844V26.031H85.3634ZM88.0284 29.567V30.334H77.4204V29.567H88.0284ZM79.0454 35.196V33.233H85.5194V32.141H78.9674V31.374H86.4424V33.961H79.9684V35.079H86.7804V35.859H79.6954C79.4874 35.859 79.327 35.8027 79.2144 35.69C79.1017 35.5773 79.0454 35.4127 79.0454 35.196ZM104.342 27.422V28.254H102.535V32.57H101.547V24.003H102.535V27.422H104.342ZM94.1505 30.984L93.6175 30.23C94.7961 29.7447 95.6931 29.3113 96.3085 28.93C96.9238 28.5487 97.3571 28.1457 97.6085 27.721C97.8598 27.2963 97.9855 26.7763 97.9855 26.161V25.615H93.9425V24.77H98.9735V26.07C98.9735 26.8673 98.8305 27.5303 98.5445 28.059C98.2671 28.5877 97.7861 29.073 97.1015 29.515C96.4255 29.957 95.4418 30.4467 94.1505 30.984ZM96.4385 34.715H102.795V35.534H96.1005C95.8925 35.534 95.7321 35.4777 95.6195 35.365C95.5068 35.2523 95.4505 35.0877 95.4505 34.871V31.634H96.4385V34.715ZM114.36 29.112H112.267V28.306H114.36V26.694H112.267V25.875H114.36V24.003H115.361V32.635H114.36V29.112ZM111.825 25.693H105.936V24.874H111.825V25.693ZM112.345 30.516C111.539 30.6373 110.547 30.7327 109.368 30.802C108.198 30.8627 106.985 30.893 105.728 30.893L105.637 30.087C105.975 30.087 106.491 30.0783 107.184 30.061L106.872 26.616L107.834 26.538L108.068 30.048C108.415 30.0393 108.948 30.0177 109.667 29.983L109.953 26.512L110.902 26.603L110.551 29.918C111.089 29.8833 111.652 29.827 112.241 29.749L112.345 30.516ZM115.595 34.715V35.534H108.757C108.549 35.534 108.389 35.4777 108.276 35.365C108.164 35.2523 108.107 35.0877 108.107 34.871V31.959H109.095V34.715H115.595ZM128.811 29.489H126.978V35.313H125.99V24.029H126.978V28.657H128.811V29.489ZM123.221 25.485H119.529V24.64H123.221V25.485ZM117.8 27.045H124.755V27.851H122.831V27.929C123.62 28.319 124.014 29.0687 124.014 30.178C124.014 30.7413 123.897 31.231 123.663 31.647C123.429 32.0543 123.104 32.3663 122.688 32.583C122.281 32.7997 121.826 32.908 121.323 32.908C120.82 32.908 120.361 32.7997 119.945 32.583C119.538 32.3663 119.217 32.0543 118.983 31.647C118.749 31.231 118.632 30.7413 118.632 30.178C118.632 29.0687 119.026 28.319 119.815 27.929V27.851H117.8V27.045ZM123.052 29.749C123.052 29.1683 122.896 28.7263 122.584 28.423C122.272 28.111 121.852 27.955 121.323 27.955C120.803 27.955 120.383 28.111 120.062 28.423C119.75 28.735 119.594 29.177 119.594 29.749V30.282C119.594 30.8453 119.754 31.2873 120.075 31.608C120.396 31.92 120.812 32.076 121.323 32.076C121.834 32.076 122.25 31.92 122.571 31.608C122.892 31.2873 123.052 30.8453 123.052 30.282V29.749ZM140.129 24.003V35.287H139.167V24.003H140.129ZM136.554 24.198H137.503V34.975H136.554V29.242H134.591C134.348 29.8833 133.95 30.4857 133.395 31.049C132.849 31.6037 132.056 32.2277 131.016 32.921L130.366 32.258C131.345 31.6253 132.091 31.062 132.602 30.568C133.113 30.0653 133.473 29.541 133.681 28.995C133.889 28.4403 133.993 27.76 133.993 26.954V25.953H130.665V25.16H134.942V26.928C134.942 27.4913 134.899 27.9897 134.812 28.423H136.554V24.198ZM154.753 24.003H155.741V35.287H154.753V24.003ZM146.407 28.566C146.407 27.3007 146.684 26.343 147.239 25.693C147.802 25.043 148.543 24.718 149.462 24.718C150.372 24.718 151.104 25.043 151.659 25.693C152.222 26.343 152.504 27.3007 152.504 28.566C152.504 29.4153 152.374 30.1303 152.114 30.711C151.854 31.283 151.494 31.712 151.035 31.998C150.576 32.2753 150.051 32.414 149.462 32.414C148.543 32.414 147.802 32.089 147.239 31.439C146.684 30.789 146.407 29.8313 146.407 28.566ZM151.451 29.073V28.059C151.451 27.253 151.265 26.6333 150.892 26.2C150.528 25.7667 150.051 25.55 149.462 25.55C148.864 25.55 148.379 25.7667 148.006 26.2C147.642 26.6247 147.46 27.2443 147.46 28.059V29.073C147.46 29.8877 147.642 30.5117 148.006 30.945C148.379 31.3697 148.864 31.582 149.462 31.582C150.051 31.582 150.528 31.3653 150.892 30.932C151.265 30.4987 151.451 29.879 151.451 29.073ZM168.918 29.71V30.542H158.31V29.71H161.131V28.176C160.654 27.9767 160.294 27.7167 160.052 27.396C159.818 27.0753 159.701 26.7113 159.701 26.304C159.701 25.628 160.03 25.082 160.689 24.666C161.347 24.2413 162.322 24.029 163.614 24.029C164.905 24.029 165.88 24.2413 166.539 24.666C167.197 25.082 167.527 25.628 167.527 26.304C167.527 26.7113 167.405 27.0753 167.163 27.396C166.929 27.7167 166.573 27.9767 166.097 28.176V29.71H168.918ZM163.614 27.812C164.576 27.812 165.295 27.6777 165.772 27.409C166.248 27.1403 166.487 26.798 166.487 26.382V26.2C166.487 25.7927 166.244 25.4547 165.759 25.186C165.282 24.9173 164.567 24.783 163.614 24.783C162.66 24.783 161.945 24.9173 161.469 25.186C160.992 25.4547 160.754 25.7927 160.754 26.2V26.382C160.754 26.798 160.988 27.1403 161.456 27.409C161.932 27.6777 162.652 27.812 163.614 27.812ZM162.08 29.71H165.148V28.449C164.723 28.5357 164.212 28.579 163.614 28.579C163.016 28.579 162.504 28.5357 162.08 28.449V29.71ZM167.462 33.727C167.462 34.169 167.314 34.559 167.02 34.897C166.734 35.235 166.3 35.4993 165.72 35.69C165.148 35.8893 164.446 35.989 163.614 35.989C162.782 35.989 162.075 35.8893 161.495 35.69C160.923 35.4993 160.489 35.235 160.195 34.897C159.909 34.559 159.766 34.169 159.766 33.727C159.766 33.2937 159.909 32.9123 160.195 32.583C160.489 32.245 160.923 31.9807 161.495 31.79C162.075 31.5993 162.782 31.504 163.614 31.504C164.446 31.504 165.148 31.5993 165.72 31.79C166.3 31.9807 166.734 32.245 167.02 32.583C167.314 32.9123 167.462 33.2937 167.462 33.727ZM166.422 33.649C166.422 33.2677 166.188 32.947 165.72 32.687C165.26 32.4183 164.558 32.284 163.614 32.284C162.981 32.284 162.452 32.349 162.028 32.479C161.603 32.6003 161.291 32.765 161.092 32.973C160.892 33.181 160.793 33.4063 160.793 33.649V33.831C160.793 34.0737 160.892 34.299 161.092 34.507C161.291 34.715 161.603 34.8797 162.028 35.001C162.452 35.131 162.981 35.196 163.614 35.196C164.558 35.196 165.26 35.0617 165.72 34.793C166.188 34.533 166.422 34.2123 166.422 33.831V33.649ZM185.219 29.281H183.347V35.313H182.359V24.029H183.347V28.449H185.219V29.281ZM174.832 24.926H179.889V26.733C179.889 27.695 179.746 28.5097 179.46 29.177C179.174 29.8443 178.689 30.4683 178.004 31.049C177.328 31.621 176.357 32.2493 175.092 32.934L174.507 32.193C175.686 31.569 176.587 31.0013 177.211 30.49C177.835 29.9787 178.273 29.437 178.524 28.865C178.775 28.293 178.901 27.5867 178.901 26.746V25.771H174.832V24.926ZM195.614 28.137H188.139V24.315H189.114V27.331H195.614V28.137ZM197.122 29.476V30.334H186.514V29.476H197.122ZM195.666 33.714C195.666 34.3987 195.336 34.949 194.678 35.365C194.019 35.781 193.066 35.989 191.818 35.989C190.57 35.989 189.616 35.781 188.958 35.365C188.299 34.949 187.97 34.3987 187.97 33.714C187.97 33.2807 188.113 32.895 188.399 32.557C188.693 32.219 189.127 31.9547 189.699 31.764C190.279 31.5733 190.986 31.478 191.818 31.478C192.65 31.478 193.352 31.5733 193.924 31.764C194.504 31.9547 194.938 32.219 195.224 32.557C195.518 32.895 195.666 33.2807 195.666 33.714ZM194.626 33.636C194.626 33.246 194.392 32.921 193.924 32.661C193.464 32.3923 192.762 32.258 191.818 32.258C190.882 32.258 190.175 32.3923 189.699 32.661C189.231 32.921 188.997 33.246 188.997 33.636V33.818C188.997 34.208 189.231 34.533 189.699 34.793C190.175 35.0617 190.882 35.196 191.818 35.196C192.762 35.196 193.464 35.0617 193.924 34.793C194.392 34.533 194.626 34.208 194.626 33.818V33.636Z" fill="white"/>
<rect y="4" width="2" height="10" fill="white"/>
</svg>
