<svg width="238" height="40" viewBox="0 0 238 40" fill="none" xmlns="http://www.w3.org/2000/svg">
<path d="M23.479 9.281H21.893V15.313H20.97V4.029H21.893V8.449H23.479V9.281ZM14.964 4.848H15.796V12.388H12.559V4.874H13.391V7.799H14.964V4.848ZM19.046 4.848H19.891V12.388H16.654V4.874H17.486V7.799H19.046V4.848ZM14.964 8.592H13.391V11.608H14.964V8.592ZM19.046 8.592H17.486V11.608H19.046V8.592ZM32.6908 6.525V5.173H26.3208V4.354H33.6528V7.318H27.3478V8.67H33.9778V9.489H26.3858V6.525H32.6908ZM35.3428 10.659V11.504H24.7348V10.659H35.3428ZM26.2688 14.962V12.518H27.2438V14.806H33.9778V15.625H26.9188C26.7108 15.625 26.5505 15.5687 26.4378 15.456C26.3252 15.3433 26.2688 15.1787 26.2688 14.962ZM51.7371 4.003V10.516H50.7491V7.773H48.2271V6.941H50.7491V4.003H51.7371ZM42.9621 10.477L42.4421 9.723C43.6035 9.281 44.4875 8.878 45.0941 8.514C45.7008 8.15 46.1255 7.773 46.3681 7.383C46.6195 6.98433 46.7451 6.50333 46.7451 5.94V5.446H42.7671V4.614H47.7461V5.836C47.7461 6.59 47.6031 7.21833 47.3171 7.721C47.0398 8.215 46.5631 8.67433 45.8871 9.099C45.2198 9.515 44.2448 9.97433 42.9621 10.477ZM44.5871 11.218H51.7371V15.755H45.2371C45.0291 15.755 44.8688 15.6987 44.7561 15.586C44.6435 15.4733 44.5871 15.3087 44.5871 15.092V11.218ZM45.5751 14.923H50.7361V12.037H45.5751V14.923ZM64.2639 4.003V10.789H63.3019V7.786H61.5599V10.646H60.6109V4.185H61.5599V6.98H63.3019V4.003H64.2639ZM57.0879 8.033C57.0186 8.033 56.9666 8.059 56.9319 8.111C56.7326 8.48367 56.4726 8.86933 56.1519 9.268C55.8313 9.658 55.4196 10.1087 54.9169 10.62L54.2279 10.022C54.8693 9.35467 55.3546 8.787 55.6839 8.319C56.0219 7.84233 56.2603 7.37867 56.3989 6.928C56.5463 6.47733 56.6199 5.95733 56.6199 5.368V4.653H57.5689V5.394C57.5689 6.20867 57.4433 6.93233 57.1919 7.565L57.2439 7.591L57.3999 7.461C57.4953 7.39167 57.5819 7.357 57.6599 7.357C57.7466 7.357 57.8333 7.40033 57.9199 7.487L59.9999 9.749L59.3239 10.399L57.2569 8.111C57.2049 8.059 57.1486 8.033 57.0879 8.033ZM56.6199 11.504H64.2639V15.859H63.2889V12.349H56.6199V11.504ZM80.1902 4.003H81.1782V15.287H80.1902V4.003ZM71.8442 8.566C71.8442 7.30067 72.1216 6.343 72.6762 5.693C73.2396 5.043 73.9806 4.718 74.8992 4.718C75.8092 4.718 76.5416 5.043 77.0962 5.693C77.6596 6.343 77.9412 7.30067 77.9412 8.566C77.9412 9.41533 77.8112 10.1303 77.5512 10.711C77.2912 11.283 76.9316 11.712 76.4722 11.998C76.0129 12.2753 75.4886 12.414 74.8992 12.414C73.9806 12.414 73.2396 12.089 72.6762 11.439C72.1216 10.789 71.8442 9.83133 71.8442 8.566ZM76.8882 9.073V8.059C76.8882 7.253 76.7019 6.63333 76.3292 6.2C75.9652 5.76667 75.4886 5.55 74.8992 5.55C74.3012 5.55 73.8159 5.76667 73.4432 6.2C73.0792 6.62467 72.8972 7.24433 72.8972 8.059V9.073C72.8972 9.88767 73.0792 10.5117 73.4432 10.945C73.8159 11.3697 74.3012 11.582 74.8992 11.582C75.4886 11.582 75.9652 11.3653 76.3292 10.932C76.7019 10.4987 76.8882 9.879 76.8882 9.073ZM94.3551 9.71V10.542H83.7471V9.71H86.5681V8.176C86.0914 7.97667 85.7317 7.71667 85.4891 7.396C85.2551 7.07533 85.1381 6.71133 85.1381 6.304C85.1381 5.628 85.4674 5.082 86.1261 4.666C86.7847 4.24133 87.7597 4.029 89.0511 4.029C90.3424 4.029 91.3174 4.24133 91.9761 4.666C92.6347 5.082 92.9641 5.628 92.9641 6.304C92.9641 6.71133 92.8427 7.07533 92.6001 7.396C92.3661 7.71667 92.0107 7.97667 91.5341 8.176V9.71H94.3551ZM89.0511 7.812C90.0131 7.812 90.7324 7.67767 91.2091 7.409C91.6857 7.14033 91.9241 6.798 91.9241 6.382V6.2C91.9241 5.79267 91.6814 5.45467 91.1961 5.186C90.7194 4.91733 90.0044 4.783 89.0511 4.783C88.0977 4.783 87.3827 4.91733 86.9061 5.186C86.4294 5.45467 86.1911 5.79267 86.1911 6.2V6.382C86.1911 6.798 86.4251 7.14033 86.8931 7.409C87.3697 7.67767 88.0891 7.812 89.0511 7.812ZM87.5171 9.71H90.5851V8.449C90.1604 8.53567 89.6491 8.579 89.0511 8.579C88.4531 8.579 87.9417 8.53567 87.5171 8.449V9.71ZM92.8991 13.727C92.8991 14.169 92.7517 14.559 92.4571 14.897C92.1711 15.235 91.7377 15.4993 91.1571 15.69C90.5851 15.8893 89.8831 15.989 89.0511 15.989C88.2191 15.989 87.5127 15.8893 86.9321 15.69C86.3601 15.4993 85.9267 15.235 85.6321 14.897C85.3461 14.559 85.2031 14.169 85.2031 13.727C85.2031 13.2937 85.3461 12.9123 85.6321 12.583C85.9267 12.245 86.3601 11.9807 86.9321 11.79C87.5127 11.5993 88.2191 11.504 89.0511 11.504C89.8831 11.504 90.5851 11.5993 91.1571 11.79C91.7377 11.9807 92.1711 12.245 92.4571 12.583C92.7517 12.9123 92.8991 13.2937 92.8991 13.727ZM91.8591 13.649C91.8591 13.2677 91.6251 12.947 91.1571 12.687C90.6977 12.4183 89.9957 12.284 89.0511 12.284C88.4184 12.284 87.8897 12.349 87.4651 12.479C87.0404 12.6003 86.7284 12.765 86.5291 12.973C86.3297 13.181 86.2301 13.4063 86.2301 13.649V13.831C86.2301 14.0737 86.3297 14.299 86.5291 14.507C86.7284 14.715 87.0404 14.8797 87.4651 15.001C87.8897 15.131 88.4184 15.196 89.0511 15.196C89.9957 15.196 90.6977 15.0617 91.1571 14.793C91.6251 14.533 91.8591 14.2123 91.8591 13.831V13.649ZM97.3919 6.083C97.3919 5.45033 97.7169 4.94767 98.3669 4.575C99.0169 4.19367 99.9919 4.003 101.292 4.003C102.592 4.003 103.567 4.19367 104.217 4.575C104.867 4.94767 105.192 5.45033 105.192 6.083C105.192 6.71567 104.867 7.22267 104.217 7.604C103.567 7.98533 102.592 8.176 101.292 8.176C99.9919 8.176 99.0169 7.98533 98.3669 7.604C97.7169 7.22267 97.3919 6.71567 97.3919 6.083ZM104.139 6.148V6.005C104.139 5.63233 103.901 5.329 103.424 5.095C102.956 4.85233 102.245 4.731 101.292 4.731C100.339 4.731 99.6235 4.85233 99.1469 5.095C98.6789 5.329 98.4449 5.63233 98.4449 6.005V6.148C98.4449 6.52067 98.6789 6.82833 99.1469 7.071C99.6235 7.305 100.339 7.422 101.292 7.422C102.245 7.422 102.956 7.305 103.424 7.071C103.901 6.82833 104.139 6.52067 104.139 6.148ZM106.596 9.073V9.905H95.9879V9.073H106.596ZM97.6389 15.157V13.025H104.048V11.803H97.5609V10.997H104.997V13.779H98.5879V15.014H105.335V15.82H98.2889C98.0809 15.82 97.9205 15.7637 97.8079 15.651C97.6952 15.5383 97.6389 15.3737 97.6389 15.157ZM122.938 4.003V15.287H121.963V4.003H122.938ZM113.929 6.759C113.929 6.28233 114.059 5.86633 114.319 5.511C114.588 5.147 114.956 4.86967 115.424 4.679C115.892 4.47967 116.421 4.38 117.01 4.38C117.6 4.38 118.124 4.47967 118.583 4.679C119.051 4.86967 119.415 5.147 119.675 5.511C119.944 5.86633 120.078 6.28233 120.078 6.759C120.078 7.24433 119.944 7.669 119.675 8.033C119.415 8.38833 119.051 8.66567 118.583 8.865C118.124 9.05567 117.6 9.151 117.01 9.151C116.412 9.151 115.879 9.05567 115.411 8.865C114.952 8.66567 114.588 8.38833 114.319 8.033C114.059 7.669 113.929 7.24433 113.929 6.759ZM114.943 6.889C114.943 7.331 115.134 7.68633 115.515 7.955C115.897 8.22367 116.395 8.358 117.01 8.358C117.617 8.358 118.107 8.22367 118.479 7.955C118.861 7.68633 119.051 7.331 119.051 6.889V6.655C119.051 6.20433 118.861 5.84467 118.479 5.576C118.107 5.30733 117.617 5.173 117.01 5.173C116.395 5.173 115.897 5.30733 115.515 5.576C115.134 5.84467 114.943 6.20433 114.943 6.655V6.889ZM121.118 10.737C120.044 10.9017 118.852 11.023 117.543 11.101V15.183H116.555V11.153C115.403 11.1963 114.337 11.218 113.357 11.218L113.279 10.386C114.753 10.386 116.174 10.3513 117.543 10.282C118.913 10.2127 120.074 10.1043 121.027 9.957L121.118 10.737ZM135.517 4.003V15.287H134.555V9.398H132.865V14.975H131.916V4.198H132.865V8.579H134.555V4.003H135.517ZM130.122 5.693H126.781V4.887H130.122V5.693ZM125.416 7.149H131.292V7.929H129.745V7.994C130.43 8.36667 130.772 9.073 130.772 10.113C130.772 10.9277 130.551 11.5647 130.109 12.024C129.676 12.4747 129.104 12.7 128.393 12.7C127.691 12.7 127.119 12.4747 126.677 12.024C126.244 11.5647 126.027 10.9277 126.027 10.113C126.027 9.073 126.365 8.36667 127.041 7.994V7.929H125.416V7.149ZM129.836 9.645C129.836 9.125 129.706 8.72633 129.446 8.449C129.186 8.17167 128.835 8.033 128.393 8.033C127.951 8.033 127.6 8.17167 127.34 8.449C127.089 8.72633 126.963 9.125 126.963 9.645V10.269C126.963 10.7803 127.093 11.179 127.353 11.465C127.622 11.751 127.968 11.894 128.393 11.894C128.818 11.894 129.164 11.751 129.433 11.465C129.702 11.179 129.836 10.7803 129.836 10.269V9.645ZM152.496 4.003V10.516H151.508V7.773H148.986V6.941H151.508V4.003H152.496ZM143.721 10.477L143.201 9.723C144.363 9.281 145.247 8.878 145.853 8.514C146.46 8.15 146.885 7.773 147.127 7.383C147.379 6.98433 147.504 6.50333 147.504 5.94V5.446H143.526V4.614H148.505V5.836C148.505 6.59 148.362 7.21833 148.076 7.721C147.799 8.215 147.322 8.67433 146.646 9.099C145.979 9.515 145.004 9.97433 143.721 10.477ZM145.346 11.218H152.496V15.755H145.996C145.788 15.755 145.628 15.6987 145.515 15.586C145.403 15.4733 145.346 15.3087 145.346 15.092V11.218ZM146.334 14.923H151.495V12.037H146.334V14.923ZM165.023 4.003V10.789H164.061V7.786H162.319V10.646H161.37V4.185H162.319V6.98H164.061V4.003H165.023ZM157.847 8.033C157.778 8.033 157.726 8.059 157.691 8.111C157.492 8.48367 157.232 8.86933 156.911 9.268C156.59 9.658 156.179 10.1087 155.676 10.62L154.987 10.022C155.628 9.35467 156.114 8.787 156.443 8.319C156.781 7.84233 157.019 7.37867 157.158 6.928C157.305 6.47733 157.379 5.95733 157.379 5.368V4.653H158.328V5.394C158.328 6.20867 158.202 6.93233 157.951 7.565L158.003 7.591L158.159 7.461C158.254 7.39167 158.341 7.357 158.419 7.357C158.506 7.357 158.592 7.40033 158.679 7.487L160.759 9.749L160.083 10.399L158.016 8.111C157.964 8.059 157.908 8.033 157.847 8.033ZM157.379 11.504H165.023V15.859H164.048V12.349H157.379V11.504ZM178.2 7.123V7.955H176.393V11.244H175.405V4.003H176.393V7.123H178.2ZM172.376 5.056H168.853V4.25H172.376V5.056ZM167.995 11.036L167.306 10.438C168.025 9.95267 168.584 9.53667 168.983 9.19C169.382 8.83467 169.672 8.488 169.854 8.15C170.036 7.812 170.136 7.43067 170.153 7.006H167.631V6.213H173.637V7.006H171.089C171.08 7.63 170.924 8.17167 170.621 8.631L170.699 8.67L170.907 8.514C171.002 8.44467 171.093 8.41 171.18 8.41C171.267 8.41 171.366 8.44467 171.479 8.514L173.923 10.23L173.247 10.841L170.764 9.034C170.703 8.982 170.63 8.956 170.543 8.956C170.474 8.956 170.404 8.982 170.335 9.034C170.101 9.32 169.802 9.619 169.438 9.931C169.074 10.2343 168.593 10.6027 167.995 11.036ZM176.484 13.714C176.484 14.3813 176.176 14.923 175.561 15.339C174.946 15.755 174.057 15.963 172.896 15.963C172.116 15.963 171.453 15.8677 170.907 15.677C170.37 15.4863 169.967 15.2177 169.698 14.871C169.429 14.533 169.295 14.1473 169.295 13.714C169.295 13.2807 169.429 12.895 169.698 12.557C169.967 12.219 170.37 11.9547 170.907 11.764C171.453 11.5733 172.116 11.478 172.896 11.478C173.676 11.478 174.335 11.5733 174.872 11.764C175.409 11.9547 175.812 12.219 176.081 12.557C176.35 12.895 176.484 13.2807 176.484 13.714ZM175.444 13.636C175.444 13.246 175.232 12.921 174.807 12.661C174.391 12.401 173.754 12.271 172.896 12.271C172.047 12.271 171.41 12.401 170.985 12.661C170.56 12.921 170.348 13.246 170.348 13.636V13.818C170.348 14.1993 170.56 14.52 170.985 14.78C171.41 15.04 172.047 15.17 172.896 15.17C173.754 15.17 174.391 15.04 174.807 14.78C175.232 14.52 175.444 14.1993 175.444 13.818V13.636ZM195.452 9.281H193.58V15.313H192.592V4.029H193.58V8.449H195.452V9.281ZM190.603 8.566C190.603 9.83133 190.326 10.789 189.771 11.439C189.225 12.089 188.497 12.414 187.587 12.414C186.677 12.414 185.945 12.089 185.39 11.439C184.844 10.789 184.571 9.83133 184.571 8.566C184.571 7.30067 184.844 6.343 185.39 5.693C185.945 5.043 186.677 4.718 187.587 4.718C188.497 4.718 189.225 5.043 189.771 5.693C190.326 6.343 190.603 7.30067 190.603 8.566ZM189.55 8.046C189.55 7.24 189.368 6.62467 189.004 6.2C188.649 5.76667 188.177 5.55 187.587 5.55C186.998 5.55 186.521 5.76667 186.157 6.2C185.793 6.62467 185.611 7.24 185.611 8.046V9.086C185.611 9.892 185.793 10.5117 186.157 10.945C186.521 11.3697 186.998 11.582 187.587 11.582C188.177 11.582 188.649 11.3697 189.004 10.945C189.368 10.5117 189.55 9.892 189.55 9.086V8.046ZM206.77 4.003V15.287H205.808V9.229H204.014V14.975H203.065V4.198H204.014V8.41H205.808V4.003H206.77ZM202.116 11.335L202.246 12.115C201.232 12.375 199.928 12.505 198.333 12.505H197.267V8.28H200.504V5.914H197.228V5.095H201.453V9.086H198.216V11.699H198.58C199.941 11.699 201.119 11.5777 202.116 11.335ZM221.292 4.926H217.34V4.12H221.292V4.926ZM218.822 6.915H215.247V6.109H223.398V6.915H219.823C219.78 7.42633 219.594 7.85967 219.264 8.215L219.355 8.241L219.602 8.072C219.724 7.98533 219.849 7.942 219.979 7.942C220.066 7.942 220.166 7.96367 220.278 8.007L223.853 9.528L223.32 10.256L219.55 8.566C219.446 8.514 219.338 8.488 219.225 8.488C219.095 8.488 218.983 8.51833 218.887 8.579L218.848 8.592C218.51 8.852 218.055 9.12067 217.483 9.398C216.92 9.66667 216.192 9.96567 215.299 10.295L214.779 9.58C215.767 9.23333 216.543 8.92133 217.106 8.644C217.678 8.36667 218.094 8.09367 218.354 7.825C218.614 7.54767 218.77 7.24433 218.822 6.915ZM224.62 11.933H219.81V15.742H218.822V11.933H214.012V11.114H224.62V11.933ZM234.989 8.956H232.792V8.124H234.989V4.003H235.99V12.7H234.989V8.956ZM231.544 5.225H228.086V4.406H231.544V5.225ZM227.228 11.517L226.539 10.919C227.259 10.4077 227.813 9.96567 228.203 9.593C228.602 9.22033 228.888 8.852 229.061 8.488C229.235 8.124 229.326 7.71233 229.334 7.253H226.851V6.434H232.779V7.253H230.283C230.283 7.92033 230.132 8.50533 229.828 9.008L229.906 9.047L230.101 8.904C230.197 8.83467 230.292 8.8 230.387 8.8C230.491 8.8 230.591 8.83467 230.686 8.904L233.078 10.724L232.389 11.335L229.958 9.424C229.889 9.372 229.815 9.346 229.737 9.346C229.659 9.346 229.594 9.372 229.542 9.424C229.317 9.736 229.022 10.0523 228.658 10.373C228.294 10.6937 227.818 11.075 227.228 11.517ZM236.224 14.78V15.599H229.386C229.178 15.599 229.018 15.5427 228.905 15.43C228.793 15.3173 228.736 15.1527 228.736 14.936V12.31H229.724V14.78H236.224ZM22.231 24.003V30.516H21.243V27.773H18.721V26.941H21.243V24.003H22.231ZM13.456 30.477L12.936 29.723C14.0973 29.281 14.9813 28.878 15.588 28.514C16.1947 28.15 16.6193 27.773 16.862 27.383C17.1133 26.9843 17.239 26.5033 17.239 25.94V25.446H13.261V24.614H18.24V25.836C18.24 26.59 18.097 27.2183 17.811 27.721C17.5337 28.215 17.057 28.6743 16.381 29.099C15.7137 29.515 14.7387 29.9743 13.456 30.477ZM15.081 31.218H22.231V35.755H15.731C15.523 35.755 15.3627 35.6987 15.25 35.586C15.1373 35.4733 15.081 35.3087 15.081 35.092V31.218ZM16.069 34.923H21.23V32.037H16.069V34.923ZM34.7578 24.003V30.789H33.7958V27.786H32.0538V30.646H31.1048V24.185H32.0538V26.98H33.7958V24.003H34.7578ZM27.5818 28.033C27.5125 28.033 27.4605 28.059 27.4258 28.111C27.2265 28.4837 26.9665 28.8693 26.6458 29.268C26.3252 29.658 25.9135 30.1087 25.4108 30.62L24.7218 30.022C25.3632 29.3547 25.8485 28.787 26.1778 28.319C26.5158 27.8423 26.7542 27.3787 26.8928 26.928C27.0402 26.4773 27.1138 25.9573 27.1138 25.368V24.653H28.0628V25.394C28.0628 26.2087 27.9372 26.9323 27.6858 27.565L27.7378 27.591L27.8938 27.461C27.9892 27.3917 28.0758 27.357 28.1538 27.357C28.2405 27.357 28.3272 27.4003 28.4138 27.487L30.4938 29.749L29.8178 30.399L27.7508 28.111C27.6988 28.059 27.6425 28.033 27.5818 28.033ZM27.1138 31.504H34.7578V35.859H33.7828V32.349H27.1138V31.504ZM46.6606 24.003V35.287H45.6856V28.891H43.2676C43.2243 30.0523 42.9296 30.932 42.3836 31.53C41.8376 32.1193 41.1356 32.414 40.2776 32.414C39.3763 32.414 38.6483 32.089 38.0936 31.439C37.5476 30.789 37.2746 29.8313 37.2746 28.566C37.2746 27.292 37.5476 26.3343 38.0936 25.693C38.6396 25.043 39.3676 24.718 40.2776 24.718C41.1183 24.718 41.8073 24.9997 42.3446 25.563C42.882 26.1263 43.1896 26.9583 43.2676 28.059H45.6856V24.003H46.6606ZM42.2406 28.046C42.2406 27.24 42.0586 26.6247 41.6946 26.2C41.3393 25.7667 40.867 25.55 40.2776 25.55C39.6883 25.55 39.216 25.7667 38.8606 26.2C38.5053 26.6247 38.3276 27.24 38.3276 28.046V29.086C38.3276 29.892 38.5053 30.5117 38.8606 30.945C39.216 31.3697 39.6883 31.582 40.2776 31.582C40.867 31.582 41.3393 31.3697 41.6946 30.945C42.0586 30.5117 42.2406 29.892 42.2406 29.086V28.046ZM62.9617 24.003V35.287H62.0127V24.003H62.9617ZM59.4257 24.198H60.3487V34.975H59.4257V28.761H57.6187V27.942H59.4257V24.198ZM56.2667 28.904C56.3707 28.904 56.4704 28.9647 56.5657 29.086L58.6327 31.985L57.9307 32.583L55.8507 29.593C55.8074 29.541 55.7641 29.515 55.7207 29.515C55.6774 29.515 55.6427 29.541 55.6167 29.593C55.4347 30.0437 55.1834 30.5117 54.8627 30.997C54.5507 31.4737 54.1261 32.063 53.5887 32.765L52.8997 32.18C53.5324 31.374 54.0177 30.6807 54.3557 30.1C54.6937 29.5107 54.9364 28.93 55.0837 28.358C55.2311 27.7773 55.3047 27.1187 55.3047 26.382V26.005H53.1727V25.173H58.3337V26.005H56.2407V26.382C56.2407 27.3873 56.1021 28.28 55.8247 29.06L55.8897 29.099L56.0197 28.995C56.1151 28.9343 56.1974 28.904 56.2667 28.904ZM73.2395 25.199H66.5965V24.367H74.2015V25.004C74.2015 26.1393 74.0672 27.3007 73.7985 28.488L72.8625 28.358C73.1052 27.3353 73.2309 26.2823 73.2395 25.199ZM75.7875 29.398V30.256H65.1795V29.398H69.5345V27.149H70.5095V29.398H75.7875ZM74.3315 33.662C74.3315 34.1127 74.1842 34.5113 73.8895 34.858C73.6035 35.2133 73.1702 35.4907 72.5895 35.69C72.0175 35.8893 71.3155 35.989 70.4835 35.989C69.6515 35.989 68.9452 35.8893 68.3645 35.69C67.7925 35.4907 67.3592 35.2133 67.0645 34.858C66.7785 34.5113 66.6355 34.1127 66.6355 33.662C66.6355 33.2113 66.7785 32.8127 67.0645 32.466C67.3592 32.1193 67.7925 31.8463 68.3645 31.647C68.9452 31.4477 69.6515 31.348 70.4835 31.348C71.3155 31.348 72.0175 31.4477 72.5895 31.647C73.1702 31.8463 73.6035 32.1193 73.8895 32.466C74.1842 32.8127 74.3315 33.2113 74.3315 33.662ZM73.2915 33.571C73.2915 33.1637 73.0575 32.8213 72.5895 32.544C72.1302 32.2667 71.4282 32.128 70.4835 32.128C69.5475 32.128 68.8412 32.2667 68.3645 32.544C67.8965 32.8213 67.6625 33.1637 67.6625 33.571V33.766C67.6625 34.1647 67.8965 34.5027 68.3645 34.78C68.8412 35.0573 69.5475 35.196 70.4835 35.196C71.4282 35.196 72.1302 35.0573 72.5895 34.78C73.0575 34.5027 73.2915 34.1647 73.2915 33.766V33.571Z" fill="white"/>
<rect y="4" width="2" height="10" fill="white"/>
</svg>
