<svg width="164" height="16" viewBox="0 0 164 16" fill="none" xmlns="http://www.w3.org/2000/svg">
<path d="M5.30682 15H0.598011V0.454545H5.45597C6.88116 0.454545 8.10511 0.745738 9.12784 1.32812C10.1506 1.90578 10.9342 2.73674 11.4787 3.82102C12.0279 4.90057 12.3026 6.19555 12.3026 7.70597C12.3026 9.22112 12.0256 10.5232 11.4716 11.6122C10.9223 12.7012 10.1269 13.5393 9.08523 14.1264C8.04356 14.7088 6.78409 15 5.30682 15ZM2.79261 13.0824H5.18608C6.29403 13.0824 7.21496 12.8741 7.94886 12.4574C8.68277 12.036 9.23201 11.4276 9.59659 10.6321C9.96117 9.83191 10.1435 8.85653 10.1435 7.70597C10.1435 6.56487 9.96117 5.59659 9.59659 4.80114C9.23674 4.00568 8.69934 3.40199 7.98438 2.99006C7.26941 2.57812 6.38163 2.37216 5.32102 2.37216H2.79261V13.0824ZM16.4316 15V0.454545H25.5509V2.34375H18.6262V6.77557H25.0751V8.65767H18.6262V13.1108H25.6362V15H16.4316ZM37.8156 4.27557C37.7399 3.60322 37.4274 3.08239 36.8781 2.71307C36.3289 2.33902 35.6376 2.15199 34.8043 2.15199C34.2077 2.15199 33.6916 2.24669 33.256 2.43608C32.8204 2.62074 32.4818 2.87642 32.2403 3.20312C32.0036 3.52509 31.8852 3.89205 31.8852 4.30398C31.8852 4.64962 31.9657 4.94792 32.1267 5.19886C32.2924 5.44981 32.5079 5.66051 32.773 5.83097C33.0429 5.99669 33.3317 6.13636 33.6395 6.25C33.9473 6.3589 34.2432 6.44886 34.5273 6.51989L35.9477 6.8892C36.4117 7.00284 36.8876 7.15672 37.3753 7.35085C37.863 7.54498 38.3152 7.80066 38.7318 8.1179C39.1485 8.43513 39.4847 8.82812 39.7403 9.29688C40.0008 9.76562 40.131 10.3267 40.131 10.9801C40.131 11.804 39.9179 12.5355 39.4918 13.1747C39.0704 13.8139 38.4572 14.3182 37.6523 14.6875C36.8521 15.0568 35.8838 15.2415 34.7474 15.2415C33.6584 15.2415 32.7162 15.0687 31.9207 14.723C31.1253 14.3774 30.5027 13.8873 30.0528 13.2528C29.603 12.6136 29.3545 11.8561 29.3071 10.9801H31.5088C31.5514 11.5057 31.7219 11.9437 32.0202 12.294C32.3232 12.6397 32.7091 12.8977 33.1778 13.0682C33.6513 13.2339 34.1698 13.3168 34.7332 13.3168C35.3535 13.3168 35.9051 13.2197 36.3881 13.0256C36.8758 12.8267 37.2593 12.5521 37.5386 12.2017C37.818 11.8466 37.9577 11.4323 37.9577 10.9588C37.9577 10.5279 37.8346 10.1752 37.5884 9.90057C37.3469 9.62595 37.0178 9.39867 36.6011 9.21875C36.1892 9.03883 35.7228 8.88021 35.202 8.7429L33.4832 8.27415C32.3185 7.95691 31.3952 7.49053 30.7134 6.875C30.0363 6.25947 29.6977 5.44508 29.6977 4.43182C29.6977 3.59375 29.925 2.86222 30.3795 2.23722C30.8341 1.61222 31.4496 1.12689 32.2261 0.78125C33.0027 0.430871 33.8786 0.255681 34.854 0.255681C35.8388 0.255681 36.7077 0.428503 37.4605 0.774148C38.2181 1.11979 38.8147 1.59564 39.2503 2.2017C39.6859 2.80303 39.9132 3.49432 39.9321 4.27557H37.8156ZM46.3481 0.454545V15H44.1535V0.454545H46.3481ZM60.7879 5.04972C60.6505 4.61884 60.4659 4.23295 60.2339 3.89205C60.0066 3.5464 59.7343 3.25284 59.4171 3.01136C59.0999 2.76515 58.7377 2.57812 58.3305 2.45028C57.928 2.32244 57.4853 2.25852 57.0023 2.25852C56.1832 2.25852 55.4446 2.46922 54.7864 2.89062C54.1283 3.31203 53.6075 3.92992 53.2239 4.74432C52.8451 5.55398 52.6558 6.54593 52.6558 7.72017C52.6558 8.89915 52.8475 9.89583 53.231 10.7102C53.6146 11.5246 54.1401 12.1425 54.8077 12.5639C55.4754 12.9853 56.2353 13.196 57.0876 13.196C57.8783 13.196 58.5672 13.035 59.1543 12.7131C59.7462 12.3911 60.2031 11.9366 60.5251 11.3494C60.8518 10.7576 61.0151 10.0616 61.0151 9.26136L61.5833 9.3679H57.4214V7.55682H63.1387V9.21165C63.1387 10.4332 62.8783 11.4938 62.3575 12.3935C61.8414 13.2884 61.1264 13.9796 60.2126 14.4673C59.3035 14.955 58.2618 15.1989 57.0876 15.1989C55.7713 15.1989 54.616 14.8958 53.6217 14.2898C52.6321 13.6837 51.8603 12.8243 51.3063 11.7116C50.7523 10.5942 50.4754 9.26847 50.4754 7.73438C50.4754 6.57434 50.6363 5.53267 50.9583 4.60938C51.2803 3.68608 51.7325 2.90246 52.3148 2.25852C52.902 1.60985 53.5909 1.11506 54.3816 0.774148C55.1771 0.428503 56.0459 0.255681 56.9881 0.255681C57.7741 0.255681 58.5057 0.371685 59.1827 0.603693C59.8646 0.8357 60.4706 1.16477 61.0009 1.59091C61.536 2.01705 61.9787 2.52367 62.329 3.1108C62.6794 3.69318 62.9162 4.33949 63.0393 5.04972H60.7879ZM79.0646 0.454545V15H77.0476L69.6541 4.33239H69.5192V15H67.3246V0.454545H69.3558L76.7564 11.1364H76.8913V0.454545H79.0646ZM95.0678 15H90.359V0.454545H95.2169C96.6421 0.454545 97.8661 0.745738 98.8888 1.32812C99.9115 1.90578 100.695 2.73674 101.24 3.82102C101.789 4.90057 102.063 6.19555 102.063 7.70597C102.063 9.22112 101.787 10.5232 101.233 11.6122C100.683 12.7012 99.8878 13.5393 98.8462 14.1264C97.8045 14.7088 96.545 15 95.0678 15ZM92.5536 13.0824H94.947C96.055 13.0824 96.9759 12.8741 97.7098 12.4574C98.4437 12.036 98.9929 11.4276 99.3575 10.6321C99.7221 9.83191 99.9044 8.85653 99.9044 7.70597C99.9044 6.56487 99.7221 5.59659 99.3575 4.80114C98.9977 4.00568 98.4603 3.40199 97.7453 2.99006C97.0304 2.57812 96.1426 2.37216 95.082 2.37216H92.5536V13.0824ZM106.193 15V0.454545H115.312V2.34375H108.387V6.77557H114.836V8.65767H108.387V13.1108H115.397V15H106.193ZM118.926 2.34375V0.454545H130.183V2.34375H125.645V15H123.457V2.34375H118.926ZM133.581 15H131.251L136.485 0.454545H139.021L144.255 15H141.926L137.814 3.09659H137.7L133.581 15ZM133.971 9.30398H141.528V11.1506H133.971V9.30398ZM149.95 0.454545V15H147.756V0.454545H149.95ZM154.546 15V0.454545H156.741V13.1108H163.332V15H154.546Z" fill="white"/>
</svg>
