<svg width="98" height="71" viewBox="0 0 98 71" fill="none" xmlns="http://www.w3.org/2000/svg">
<path d="M6.80265 64.3303C5.76571 64.3303 4.83177 64.1456 4.0008 63.7763C3.17694 63.3999 2.52353 62.8459 2.04057 62.1143C1.56472 61.3828 1.32679 60.4808 1.32679 59.4084C1.32679 58.4851 1.49725 57.7216 1.83816 57.1179C2.17907 56.5142 2.64426 56.0312 3.23375 55.669C3.82324 55.3068 4.4873 55.0334 5.22594 54.8487C5.97168 54.657 6.74228 54.5185 7.53773 54.4332C8.49654 54.3338 9.27424 54.245 9.87083 54.1669C10.4674 54.0817 10.9007 53.9538 11.1705 53.7834C11.4475 53.6058 11.586 53.3324 11.586 52.9631V52.8991C11.586 52.0966 11.3481 51.4751 10.8722 51.0348C10.3964 50.5945 9.71103 50.3743 8.81614 50.3743C7.87154 50.3743 7.12225 50.5803 6.56827 50.9922C6.0214 51.4041 5.65208 51.8906 5.46032 52.4517L1.85946 51.9403C2.14355 50.946 2.6123 50.1151 3.26571 49.4474C3.91912 48.7727 4.71813 48.2685 5.66273 47.9347C6.60733 47.5938 7.65137 47.4233 8.79483 47.4233C9.58319 47.4233 10.368 47.5156 11.1492 47.7003C11.9305 47.8849 12.6443 48.1903 13.2906 48.6165C13.9369 49.0355 14.4553 49.6072 14.846 50.3317C15.2437 51.0561 15.4426 51.9616 15.4426 53.0483V64H11.7352V61.7521H11.6073C11.373 62.2067 11.0427 62.6328 10.6166 63.0305C10.1975 63.4212 9.66841 63.7372 9.02921 63.9787C8.39711 64.2131 7.65492 64.3303 6.80265 64.3303ZM7.80407 61.4964C8.57821 61.4964 9.24938 61.3437 9.81756 61.0384C10.3857 60.7259 10.8225 60.3139 11.1279 59.8026C11.4404 59.2912 11.5967 58.7337 11.5967 58.13V56.2017C11.4759 56.3011 11.27 56.3935 10.9788 56.4787C10.6947 56.5639 10.3751 56.6385 10.02 56.7024C9.66486 56.7663 9.3133 56.8232 8.96529 56.8729C8.61728 56.9226 8.31543 56.9652 8.05975 57.0007C7.48446 57.0788 6.96955 57.2067 6.515 57.3842C6.06046 57.5618 5.70179 57.8104 5.43901 58.13C5.17623 58.4425 5.04483 58.8473 5.04483 59.3445C5.04483 60.0547 5.30407 60.5909 5.82253 60.9531C6.341 61.3153 7.00151 61.4964 7.80407 61.4964ZM25.2769 42.1818V64H21.4204V42.1818H25.2769ZM36.0515 64.3303C35.0145 64.3303 34.0806 64.1456 33.2496 63.7763C32.4258 63.3999 31.7724 62.8459 31.2894 62.1143C30.8135 61.3828 30.5756 60.4808 30.5756 59.4084C30.5756 58.4851 30.7461 57.7216 31.087 57.1179C31.4279 56.5142 31.8931 56.0312 32.4826 55.669C33.0721 55.3068 33.7361 55.0334 34.4748 54.8487C35.2205 54.657 35.9911 54.5185 36.7866 54.4332C37.7454 54.3338 38.5231 54.245 39.1197 54.1669C39.7162 54.0817 40.1495 53.9538 40.4194 53.7834C40.6964 53.6058 40.8349 53.3324 40.8349 52.9631V52.8991C40.8349 52.0966 40.5969 51.4751 40.1211 51.0348C39.6452 50.5945 38.9599 50.3743 38.065 50.3743C37.1204 50.3743 36.3711 50.5803 35.8171 50.9922C35.2702 51.4041 34.9009 51.8906 34.7091 52.4517L31.1083 51.9403C31.3924 50.946 31.8611 50.1151 32.5145 49.4474C33.168 48.7727 33.967 48.2685 34.9116 47.9347C35.8562 47.5938 36.9002 47.4233 38.0437 47.4233C38.832 47.4233 39.6168 47.5156 40.3981 47.7003C41.1793 47.8849 41.8931 48.1903 42.5394 48.6165C43.1857 49.0355 43.7042 49.6072 44.0948 50.3317C44.4925 51.0561 44.6914 51.9616 44.6914 53.0483V64H40.984V61.7521H40.8562C40.6218 62.2067 40.2915 62.6328 39.8654 63.0305C39.4464 63.4212 38.9172 63.7372 38.278 63.9787C37.6459 64.2131 36.9037 64.3303 36.0515 64.3303ZM37.0529 61.4964C37.827 61.4964 38.4982 61.3437 39.0664 61.0384C39.6346 60.7259 40.0714 60.3139 40.3768 59.8026C40.6893 59.2912 40.8455 58.7337 40.8455 58.13V56.2017C40.7248 56.3011 40.5188 56.3935 40.2276 56.4787C39.9435 56.5639 39.6239 56.6385 39.2688 56.7024C38.9137 56.7663 38.5621 56.8232 38.2141 56.8729C37.8661 56.9226 37.5643 56.9652 37.3086 57.0007C36.7333 57.0788 36.2184 57.2067 35.7638 57.3842C35.3093 57.5618 34.9506 57.8104 34.6878 58.13C34.4251 58.4425 34.2937 58.8473 34.2937 59.3445C34.2937 60.0547 34.5529 60.5909 35.0714 60.9531C35.5898 61.3153 36.2503 61.4964 37.0529 61.4964ZM56.7417 64.2876C55.4562 64.2876 54.3056 63.9574 53.29 63.2969C52.2743 62.6364 51.4718 61.6776 50.8823 60.4205C50.2928 59.1634 49.9981 57.6364 49.9981 55.8395C49.9981 54.0213 50.2964 52.4872 50.893 51.2372C51.4966 49.9801 52.3099 49.032 53.3326 48.3928C54.3553 47.7464 55.4952 47.4233 56.7523 47.4233C57.7111 47.4233 58.4995 47.5866 59.1174 47.9134C59.7353 48.233 60.2253 48.62 60.5876 49.0746C60.9498 49.522 61.2303 49.9446 61.4292 50.3423H61.589V42.1818H65.4562V64H61.6635V61.4219H61.4292C61.2303 61.8196 60.9427 62.2422 60.5662 62.6896C60.1898 63.13 59.6927 63.5064 59.0748 63.8189C58.4569 64.1314 57.6792 64.2876 56.7417 64.2876ZM57.8177 61.1236C58.6344 61.1236 59.3305 60.9034 59.9057 60.4631C60.481 60.0156 60.9178 59.3942 61.2161 58.5987C61.5144 57.8033 61.6635 56.8764 61.6635 55.8182C61.6635 54.7599 61.5144 53.8402 61.2161 53.0589C60.9249 52.2777 60.4917 51.6705 59.9164 51.2372C59.3482 50.804 58.6486 50.5874 57.8177 50.5874C56.9583 50.5874 56.241 50.8111 55.6657 51.2585C55.0904 51.706 54.6572 52.3239 54.366 53.1122C54.0748 53.9006 53.9292 54.8026 53.9292 55.8182C53.9292 56.8409 54.0748 57.7536 54.366 58.5561C54.6643 59.3516 55.101 59.9801 55.6763 60.4418C56.2587 60.8963 56.9725 61.1236 57.8177 61.1236ZM71.6657 64V47.6364H75.5222V64H71.6657ZM73.6046 45.3139C72.9938 45.3139 72.4683 45.1115 72.0279 44.7067C71.5876 44.2947 71.3674 43.8011 71.3674 43.2259C71.3674 42.6435 71.5876 42.1499 72.0279 41.745C72.4683 41.3331 72.9938 41.1271 73.6046 41.1271C74.2225 41.1271 74.7481 41.3331 75.1813 41.745C75.6217 42.1499 75.8419 42.6435 75.8419 43.2259C75.8419 43.8011 75.6217 44.2947 75.1813 44.7067C74.7481 45.1115 74.2225 45.3139 73.6046 45.3139ZM85.4445 54.4119V64H81.588V47.6364H85.2741V50.4169H85.4658C85.8422 49.5007 86.4424 48.7727 87.2662 48.233C88.0972 47.6932 89.1235 47.4233 90.3451 47.4233C91.4743 47.4233 92.458 47.6648 93.2961 48.1477C94.1412 48.6307 94.7947 49.3303 95.2563 50.2464C95.7251 51.1626 95.9559 52.2741 95.9488 53.581V64H92.0922V54.1776C92.0922 53.0838 91.8081 52.228 91.24 51.6101C90.6789 50.9922 89.9012 50.6832 88.9069 50.6832C88.2322 50.6832 87.632 50.8324 87.1064 51.1307C86.588 51.4219 86.1796 51.8445 85.8813 52.3984C85.5901 52.9524 85.4445 53.6236 85.4445 54.4119Z" fill="white"/>
<path d="M36.5556 16.1111C30.6889 13.5333 21.0741 12.3519 17 12.0833C18.6296 7.25 34.9259 9.66667 40.6296 10.4722C46.3333 11.2778 53.6667 7.25 52.8519 6.44444C52.037 5.63889 52.037 2.41667 54.4815 2.41667C56.437 2.41667 55.2963 5.63889 54.4815 7.25C58.8272 8.86111 68.6593 12.0833 73.2222 12.0833C78.9259 12.0833 79.7407 8.86111 79.7407 5.63889C79.7407 2.41667 74.8519 2.41667 72.4074 3.22222C69.963 4.02778 71.5926 8.05556 73.2222 8.86111C74.5259 9.50556 74.8519 8.05556 74.8519 7.25L74.037 5.63889C74.5802 5.37037 75.8296 4.99444 76.4815 5.63889C77.1333 6.28333 76.7531 8.59259 76.4815 9.66667C74.5802 10.4722 70.4519 11.1167 69.1481 7.25C67.5185 2.41667 73.2222 0 75.6667 0C78.1111 0 83 1.61111 83 7.25C83 12.8889 75.6667 15.3056 74.037 15.3056C72.7333 15.3056 63.1728 20.1389 58.5556 22.5556C59.642 23.8981 61.8148 26.7444 61.8148 27.3889C61.8148 28.1944 56.1111 29 54.4815 29C52.8519 29 47.1481 28.1944 46.3333 27.3889C45.6815 26.7444 48.2346 24.4352 49.5926 23.3611C47.6914 22.0185 42.4222 18.6889 36.5556 16.1111Z" fill="white"/>
</svg>
