<svg width="238" height="40" viewBox="0 0 238 40" fill="none" xmlns="http://www.w3.org/2000/svg">
<path d="M23.102 13.168V14H12.494V13.168H17.304V10.165H14.028V4.77H21.607V5.615H15.016V9.32H21.724V10.165H18.292V13.168H23.102ZM34.4198 4.003V15.287H33.4448V8.618H31.0398V7.786H33.4448V4.003H34.4198ZM28.7908 8.553C28.8948 8.553 28.9858 8.60067 29.0638 8.696L31.6118 11.946L30.8578 12.609L28.3098 9.255C28.2752 9.21167 28.2318 9.19 28.1798 9.19C28.1278 9.19 28.0845 9.21167 28.0498 9.255C27.8332 9.75767 27.5342 10.2733 27.1528 10.802C26.7715 11.3307 26.2515 11.9893 25.5928 12.778L24.8388 12.141C25.5928 11.283 26.1692 10.5507 26.5678 9.944C26.9752 9.32867 27.2655 8.71333 27.4388 8.098C27.6208 7.48267 27.7118 6.77633 27.7118 5.979V4.757H28.6998V5.966C28.6998 7.01467 28.5568 7.95067 28.2708 8.774L28.3228 8.813L28.5048 8.657C28.6002 8.58767 28.6955 8.553 28.7908 8.553ZM47.9216 9.476H46.1536V15.287H45.1786V4.003H46.1536V8.644H47.9216V9.476ZM44.2426 11.79L44.3336 12.583C43.389 12.739 42.2536 12.8603 40.9276 12.947C39.6103 13.025 38.2496 13.064 36.8456 13.064L36.7546 12.219C37.9766 12.219 39.0166 12.1973 39.8746 12.154V9.918C39.1033 9.83133 38.475 9.54967 37.9896 9.073C37.5043 8.59633 37.2616 7.98967 37.2616 7.253C37.2616 6.72433 37.396 6.26067 37.6646 5.862C37.9333 5.45467 38.3016 5.14267 38.7696 4.926C39.2376 4.70067 39.7663 4.588 40.3556 4.588C40.945 4.588 41.4736 4.70067 41.9416 4.926C42.4096 5.14267 42.7736 5.45467 43.0336 5.862C43.3023 6.26067 43.4366 6.72433 43.4366 7.253C43.4366 7.98967 43.194 8.59633 42.7086 9.073C42.232 9.54967 41.6036 9.83133 40.8236 9.918V12.115C42.089 12.0543 43.2286 11.946 44.2426 11.79ZM40.3556 9.138C40.9623 9.138 41.4563 8.982 41.8376 8.67C42.219 8.34933 42.4096 7.929 42.4096 7.409V7.11C42.4096 6.59 42.219 6.174 41.8376 5.862C41.4563 5.54133 40.9623 5.381 40.3556 5.381C39.749 5.381 39.255 5.54133 38.8736 5.862C38.4923 6.174 38.3016 6.59 38.3016 7.11V7.409C38.3016 7.929 38.4923 8.34933 38.8736 8.67C39.255 8.982 39.749 9.138 40.3556 9.138ZM66.4382 4.003V15.287H65.4632V8.891H63.0452C63.0018 10.0523 62.7072 10.932 62.1612 11.53C61.6152 12.1193 60.9132 12.414 60.0552 12.414C59.1538 12.414 58.4258 12.089 57.8712 11.439C57.3252 10.789 57.0522 9.83133 57.0522 8.566C57.0522 7.292 57.3252 6.33433 57.8712 5.693C58.4172 5.043 59.1452 4.718 60.0552 4.718C60.8958 4.718 61.5848 4.99967 62.1222 5.563C62.6595 6.12633 62.9672 6.95833 63.0452 8.059H65.4632V4.003H66.4382ZM62.0182 8.046C62.0182 7.24 61.8362 6.62467 61.4722 6.2C61.1168 5.76667 60.6445 5.55 60.0552 5.55C59.4658 5.55 58.9935 5.76667 58.6382 6.2C58.2828 6.62467 58.1052 7.24 58.1052 8.046V9.086C58.1052 9.892 58.2828 10.5117 58.6382 10.945C58.9935 11.3697 59.4658 11.582 60.0552 11.582C60.6445 11.582 61.1168 11.3697 61.4722 10.945C61.8362 10.5117 62.0182 9.892 62.0182 9.086V8.046ZM70.398 6.07C70.398 5.446 70.723 4.94333 71.373 4.562C72.0317 4.18067 73.0067 3.99 74.298 3.99C75.5893 3.99 76.56 4.18067 77.21 4.562C77.8687 4.94333 78.198 5.446 78.198 6.07C78.198 6.70267 77.873 7.20967 77.223 7.591C76.573 7.97233 75.598 8.163 74.298 8.163C72.998 8.163 72.023 7.97233 71.373 7.591C70.723 7.20967 70.398 6.70267 70.398 6.07ZM71.451 6.148C71.451 6.52067 71.685 6.824 72.153 7.058C72.6297 7.292 73.3447 7.409 74.298 7.409C75.2513 7.409 75.962 7.292 76.43 7.058C76.9067 6.824 77.145 6.52067 77.145 6.148V5.992C77.145 5.61933 76.9067 5.316 76.43 5.082C75.962 4.848 75.2513 4.731 74.298 4.731C73.3447 4.731 72.6297 4.848 72.153 5.082C71.685 5.316 71.451 5.61933 71.451 5.992V6.148ZM74.792 9.84V11.023H78.003V13.818H71.594V15.04H78.341V15.859H71.295C71.087 15.859 70.9267 15.8027 70.814 15.69C70.7013 15.5773 70.645 15.4127 70.645 15.196V13.051H77.054V11.829H70.567V11.023H73.817V9.84H68.994V9.034H79.602V9.84H74.792ZM90.9068 4.003V15.287H89.9188V4.003H90.9068ZM88.4368 11.335L88.5668 12.128C87.2235 12.388 85.5162 12.518 83.4448 12.518H82.0408V8.163H86.1358V5.693H81.9888V4.861H87.1238V8.982H83.0158V11.712H83.4318C85.3992 11.712 87.0675 11.5863 88.4368 11.335ZM102.576 8.501H95.1006V4.419H96.0756V7.682H102.576V8.501ZM104.084 9.944V10.789H93.4756V9.944H104.084ZM95.9846 14.689H102.719V15.521H95.6466C95.4386 15.521 95.2783 15.4647 95.1656 15.352C95.053 15.2393 94.9966 15.0747 94.9966 14.858V12.011H95.9846V14.689ZM123.276 4.003V15.287H122.327V9.229H120.572V14.975H119.623V4.198H120.572V8.41H122.327V4.003H123.276ZM117.218 4.965H118.154V12.167H113.669V4.991H114.592V7.721H117.218V4.965ZM117.218 8.527H114.592V11.348H117.218V8.527ZM134.243 8.943H131.682V8.15H134.243V6.473H131.682V5.667H134.243V4.003H135.231V10.724H134.243V8.943ZM126.469 10.607L125.936 9.853C127.097 9.39367 127.977 8.98633 128.575 8.631C129.182 8.267 129.606 7.88567 129.849 7.487C130.092 7.08833 130.213 6.59867 130.213 6.018V5.511H126.261V4.679H131.201V5.901C131.201 6.66367 131.062 7.29633 130.785 7.799C130.508 8.30167 130.035 8.76967 129.368 9.203C128.701 9.62767 127.734 10.0957 126.469 10.607ZM135.296 13.428C135.296 13.9047 135.157 14.3293 134.88 14.702C134.611 15.0833 134.204 15.3823 133.658 15.599C133.112 15.8157 132.445 15.924 131.656 15.924C130.867 15.924 130.196 15.8157 129.641 15.599C129.095 15.3823 128.683 15.0833 128.406 14.702C128.137 14.3293 128.003 13.9047 128.003 13.428C128.003 12.9513 128.137 12.5267 128.406 12.154C128.683 11.7727 129.095 11.4737 129.641 11.257C130.196 11.0403 130.867 10.932 131.656 10.932C132.445 10.932 133.112 11.0403 133.658 11.257C134.204 11.4737 134.611 11.7727 134.88 12.154C135.157 12.5267 135.296 12.9513 135.296 13.428ZM134.243 13.324C134.243 12.8733 134.026 12.4963 133.593 12.193C133.168 11.8897 132.523 11.738 131.656 11.738C130.789 11.738 130.139 11.894 129.706 12.206C129.273 12.5093 129.056 12.882 129.056 13.324V13.545C129.056 13.987 129.273 14.3597 129.706 14.663C130.139 14.975 130.789 15.131 131.656 15.131C132.523 15.131 133.168 14.975 133.593 14.663C134.026 14.3597 134.243 13.987 134.243 13.545V13.324ZM155.295 4.003V10.789H154.333V7.786H152.591V10.646H151.642V4.185H152.591V6.98H154.333V4.003H155.295ZM148.119 8.033C148.049 8.033 147.997 8.059 147.963 8.111C147.763 8.48367 147.503 8.86933 147.183 9.268C146.862 9.658 146.45 10.1087 145.948 10.62L145.259 10.022C145.9 9.35467 146.385 8.787 146.715 8.319C147.053 7.84233 147.291 7.37867 147.43 6.928C147.577 6.47733 147.651 5.95733 147.651 5.368V4.653H148.6V5.394C148.6 6.20867 148.474 6.93233 148.223 7.565L148.275 7.591L148.431 7.461C148.526 7.39167 148.613 7.357 148.691 7.357C148.777 7.357 148.864 7.40033 148.951 7.487L151.031 9.749L150.355 10.399L148.288 8.111C148.236 8.059 148.179 8.033 148.119 8.033ZM147.651 11.504H155.295V15.859H154.32V12.349H147.651V11.504ZM168.471 6.915V7.747H166.664V10.724H165.676V4.003H166.664V6.915H168.471ZM160.749 7.695C160.689 7.695 160.632 7.72533 160.58 7.786C160.355 8.15867 160.056 8.54433 159.683 8.943C159.319 9.333 158.825 9.81833 158.201 10.399L157.473 9.762C158.21 9.10333 158.778 8.54 159.176 8.072C159.575 7.604 159.861 7.14033 160.034 6.681C160.208 6.22167 160.294 5.70167 160.294 5.121V4.419H161.282V5.173C161.282 5.96167 161.131 6.681 160.827 7.331L160.892 7.383L161.1 7.201C161.196 7.123 161.291 7.084 161.386 7.084C161.482 7.084 161.568 7.123 161.646 7.201L164.116 9.489L163.414 10.165L160.918 7.773C160.866 7.721 160.81 7.695 160.749 7.695ZM166.755 13.428C166.755 13.9047 166.621 14.3293 166.352 14.702C166.084 15.0833 165.681 15.3823 165.143 15.599C164.606 15.8157 163.947 15.924 163.167 15.924C162.396 15.924 161.737 15.8157 161.191 15.599C160.654 15.3823 160.247 15.0833 159.969 14.702C159.701 14.3293 159.566 13.9047 159.566 13.428C159.566 12.9513 159.701 12.5267 159.969 12.154C160.247 11.7727 160.654 11.4737 161.191 11.257C161.737 11.0403 162.396 10.932 163.167 10.932C163.947 10.932 164.606 11.0403 165.143 11.257C165.681 11.4737 166.084 11.7727 166.352 12.154C166.621 12.5267 166.755 12.9513 166.755 13.428ZM165.715 13.324C165.715 12.8733 165.503 12.4963 165.078 12.193C164.662 11.8897 164.025 11.738 163.167 11.738C162.318 11.738 161.681 11.894 161.256 12.206C160.832 12.5093 160.619 12.882 160.619 13.324V13.545C160.619 13.987 160.832 14.3597 161.256 14.663C161.681 14.975 162.318 15.131 163.167 15.131C164.025 15.131 164.662 14.975 165.078 14.663C165.503 14.3597 165.715 13.987 165.715 13.545V13.324ZM171.157 6.083C171.157 5.45033 171.482 4.94767 172.132 4.575C172.782 4.19367 173.757 4.003 175.057 4.003C176.357 4.003 177.332 4.19367 177.982 4.575C178.632 4.94767 178.957 5.45033 178.957 6.083C178.957 6.71567 178.632 7.22267 177.982 7.604C177.332 7.98533 176.357 8.176 175.057 8.176C173.757 8.176 172.782 7.98533 172.132 7.604C171.482 7.22267 171.157 6.71567 171.157 6.083ZM177.904 6.148V6.005C177.904 5.63233 177.666 5.329 177.189 5.095C176.721 4.85233 176.011 4.731 175.057 4.731C174.104 4.731 173.389 4.85233 172.912 5.095C172.444 5.329 172.21 5.63233 172.21 6.005V6.148C172.21 6.52067 172.444 6.82833 172.912 7.071C173.389 7.305 174.104 7.422 175.057 7.422C176.011 7.422 176.721 7.305 177.189 7.071C177.666 6.82833 177.904 6.52067 177.904 6.148ZM180.361 9.073V9.905H169.753V9.073H180.361ZM171.404 15.157V13.025H177.813V11.803H171.326V10.997H178.762V13.779H172.353V15.014H179.1V15.82H172.054C171.846 15.82 171.686 15.7637 171.573 15.651C171.461 15.5383 171.404 15.3737 171.404 15.157ZM200.477 9.281H198.605V15.313H197.617V4.029H198.605V8.449H200.477V9.281ZM193.366 8.553C193.478 8.553 193.574 8.60067 193.652 8.696L196.187 11.946L195.433 12.609L192.885 9.268C192.859 9.216 192.815 9.19 192.755 9.19C192.711 9.19 192.668 9.216 192.625 9.268C192.399 9.77067 192.096 10.2907 191.715 10.828C191.333 11.3567 190.818 12.0067 190.168 12.778L189.414 12.141C190.168 11.283 190.744 10.5507 191.143 9.944C191.55 9.32867 191.84 8.71333 192.014 8.098C192.196 7.48267 192.287 6.77633 192.287 5.979V4.757H193.288V5.966C193.288 6.99733 193.136 7.93333 192.833 8.774L192.898 8.813L193.093 8.657C193.188 8.58767 193.279 8.553 193.366 8.553ZM212.38 9.71V10.542H201.772V9.71H204.593V8.176C204.116 7.97667 203.756 7.71667 203.514 7.396C203.28 7.07533 203.163 6.71133 203.163 6.304C203.163 5.628 203.492 5.082 204.151 4.666C204.809 4.24133 205.784 4.029 207.076 4.029C208.367 4.029 209.342 4.24133 210.001 4.666C210.659 5.082 210.989 5.628 210.989 6.304C210.989 6.71133 210.867 7.07533 210.625 7.396C210.391 7.71667 210.035 7.97667 209.559 8.176V9.71H212.38ZM207.076 7.812C208.038 7.812 208.757 7.67767 209.234 7.409C209.71 7.14033 209.949 6.798 209.949 6.382V6.2C209.949 5.79267 209.706 5.45467 209.221 5.186C208.744 4.91733 208.029 4.783 207.076 4.783C206.122 4.783 205.407 4.91733 204.931 5.186C204.454 5.45467 204.216 5.79267 204.216 6.2V6.382C204.216 6.798 204.45 7.14033 204.918 7.409C205.394 7.67767 206.114 7.812 207.076 7.812ZM205.542 9.71H208.61V8.449C208.185 8.53567 207.674 8.579 207.076 8.579C206.478 8.579 205.966 8.53567 205.542 8.449V9.71ZM210.924 13.727C210.924 14.169 210.776 14.559 210.482 14.897C210.196 15.235 209.762 15.4993 209.182 15.69C208.61 15.8893 207.908 15.989 207.076 15.989C206.244 15.989 205.537 15.8893 204.957 15.69C204.385 15.4993 203.951 15.235 203.657 14.897C203.371 14.559 203.228 14.169 203.228 13.727C203.228 13.2937 203.371 12.9123 203.657 12.583C203.951 12.245 204.385 11.9807 204.957 11.79C205.537 11.5993 206.244 11.504 207.076 11.504C207.908 11.504 208.61 11.5993 209.182 11.79C209.762 11.9807 210.196 12.245 210.482 12.583C210.776 12.9123 210.924 13.2937 210.924 13.727ZM209.884 13.649C209.884 13.2677 209.65 12.947 209.182 12.687C208.722 12.4183 208.02 12.284 207.076 12.284C206.443 12.284 205.914 12.349 205.49 12.479C205.065 12.6003 204.753 12.765 204.554 12.973C204.354 13.181 204.255 13.4063 204.255 13.649V13.831C204.255 14.0737 204.354 14.299 204.554 14.507C204.753 14.715 205.065 14.8797 205.49 15.001C205.914 15.131 206.443 15.196 207.076 15.196C208.02 15.196 208.722 15.0617 209.182 14.793C209.65 14.533 209.884 14.2123 209.884 13.831V13.649ZM224.958 9.489H223.125V15.313H222.137V4.029H223.125V8.657H224.958V9.489ZM219.368 5.485H215.676V4.64H219.368V5.485ZM213.947 7.045H220.902V7.851H218.978V7.929C219.767 8.319 220.161 9.06867 220.161 10.178C220.161 10.7413 220.044 11.231 219.81 11.647C219.576 12.0543 219.251 12.3663 218.835 12.583C218.428 12.7997 217.973 12.908 217.47 12.908C216.968 12.908 216.508 12.7997 216.092 12.583C215.685 12.3663 215.364 12.0543 215.13 11.647C214.896 11.231 214.779 10.7413 214.779 10.178C214.779 9.06867 215.174 8.319 215.962 7.929V7.851H213.947V7.045ZM219.199 9.749C219.199 9.16833 219.043 8.72633 218.731 8.423C218.419 8.111 217.999 7.955 217.47 7.955C216.95 7.955 216.53 8.111 216.209 8.423C215.897 8.735 215.741 9.177 215.741 9.749V10.282C215.741 10.8453 215.902 11.2873 216.222 11.608C216.543 11.92 216.959 12.076 217.47 12.076C217.982 12.076 218.398 11.92 218.718 11.608C219.039 11.2873 219.199 10.8453 219.199 10.282V9.749ZM235.951 4.003V15.287H234.976V10.542H232.766V9.736H234.976V7.292H232.766V6.486H234.976V4.003H235.951ZM232.493 8.566C232.493 9.83133 232.22 10.789 231.674 11.439C231.128 12.089 230.409 12.414 229.516 12.414C228.615 12.414 227.891 12.089 227.345 11.439C226.799 10.789 226.526 9.83133 226.526 8.566C226.526 7.30067 226.799 6.343 227.345 5.693C227.891 5.043 228.615 4.718 229.516 4.718C230.409 4.718 231.128 5.043 231.674 5.693C232.22 6.343 232.493 7.30067 232.493 8.566ZM231.453 8.046C231.453 7.23133 231.276 6.61167 230.92 6.187C230.565 5.75367 230.097 5.537 229.516 5.537C228.927 5.537 228.455 5.75367 228.099 6.187C227.744 6.61167 227.566 7.23133 227.566 8.046V9.086C227.566 9.90067 227.744 10.5247 228.099 10.958C228.455 11.3827 228.927 11.595 229.516 11.595C230.097 11.595 230.565 11.3827 230.92 10.958C231.276 10.5247 231.453 9.90067 231.453 9.086V8.046ZM22.517 24.003V30.789H21.555V24.003H22.517ZM19.033 27.448H17.317V26.629H19.033V24.185H19.969V30.646H19.033V27.448ZM15.315 28.033C15.263 28.033 15.2153 28.059 15.172 28.111C14.9727 28.4837 14.7127 28.8693 14.392 29.268C14.08 29.658 13.6727 30.1087 13.17 30.62L12.481 30.022C13.1137 29.3547 13.5947 28.787 13.924 28.319C14.262 27.8423 14.5003 27.3787 14.639 26.928C14.7863 26.4687 14.86 25.9487 14.86 25.368V24.653H15.809V25.394C15.809 26.226 15.679 26.9453 15.419 27.552L15.484 27.591L15.64 27.461C15.7353 27.3917 15.822 27.357 15.9 27.357C15.9953 27.357 16.082 27.4003 16.16 27.487L18.214 29.749L17.538 30.399L15.497 28.111C15.445 28.059 15.3843 28.033 15.315 28.033ZM14.873 31.504H22.517V35.859H21.542V32.349H14.873V31.504ZM33.4838 28.696H31.1178V27.89H33.4838V26.304H31.1178V25.498H33.4838V24.003H34.4718V32.57H33.4838V28.696ZM28.1148 28.085C28.0542 28.085 28.0022 28.111 27.9588 28.163C27.7335 28.5617 27.4388 28.969 27.0748 29.385C26.7195 29.801 26.2255 30.3253 25.5928 30.958L24.8648 30.321C25.5928 29.619 26.1518 29.021 26.5418 28.527C26.9405 28.033 27.2265 27.5433 27.3998 27.058C27.5732 26.564 27.6598 26.0007 27.6598 25.368V24.549H28.6478V25.407C28.6478 26.2823 28.4962 27.0537 28.1928 27.721L28.2448 27.747L28.4528 27.578C28.5568 27.5 28.6522 27.461 28.7388 27.461C28.8428 27.461 28.9338 27.5043 29.0118 27.591L31.4688 30.074L30.7538 30.75L28.2708 28.163C28.2275 28.111 28.1755 28.085 28.1148 28.085ZM34.7058 34.715V35.534H27.8938C27.6858 35.534 27.5255 35.4777 27.4128 35.365C27.3002 35.2523 27.2438 35.0877 27.2438 34.871V31.699H28.2448V34.715H34.7058ZM51.3059 30.594H46.4829V35.703H45.4949V30.594H40.6979V29.762H48.3029C48.6149 28.4013 48.7752 26.9497 48.7839 25.407V25.342H42.1019V24.51H49.7459V25.342C49.7459 26.8413 49.5986 28.3147 49.3039 29.762H51.3059V30.594ZM61.9737 28.93H54.5117V24.224H55.4867V25.771H61.0117V24.224H61.9737V28.93ZM61.0117 26.577H55.4867V28.111H61.0117V26.577ZM63.5467 30.113V30.971H58.8017V33.272H57.8137V30.971H52.9387V30.113H63.5467ZM55.4087 34.754H62.1557V35.573H55.0837C54.8757 35.573 54.7154 35.5167 54.6027 35.404C54.4901 35.2913 54.4337 35.1267 54.4337 34.91V32.232H55.4087V34.754ZM66.5835 26.083C66.5835 25.4503 66.9085 24.9477 67.5585 24.575C68.2085 24.1937 69.1835 24.003 70.4835 24.003C71.7835 24.003 72.7585 24.1937 73.4085 24.575C74.0585 24.9477 74.3835 25.4503 74.3835 26.083C74.3835 26.7157 74.0585 27.2227 73.4085 27.604C72.7585 27.9853 71.7835 28.176 70.4835 28.176C69.1835 28.176 68.2085 27.9853 67.5585 27.604C66.9085 27.2227 66.5835 26.7157 66.5835 26.083ZM73.3305 26.148V26.005C73.3305 25.6323 73.0922 25.329 72.6155 25.095C72.1475 24.8523 71.4369 24.731 70.4835 24.731C69.5302 24.731 68.8152 24.8523 68.3385 25.095C67.8705 25.329 67.6365 25.6323 67.6365 26.005V26.148C67.6365 26.5207 67.8705 26.8283 68.3385 27.071C68.8152 27.305 69.5302 27.422 70.4835 27.422C71.4369 27.422 72.1475 27.305 72.6155 27.071C73.0922 26.8283 73.3305 26.5207 73.3305 26.148ZM75.7875 29.073V29.905H65.1795V29.073H75.7875ZM66.8305 35.157V33.025H73.2395V31.803H66.7525V30.997H74.1885V33.779H67.7795V35.014H74.5265V35.82H67.4805C67.2725 35.82 67.1122 35.7637 66.9995 35.651C66.8869 35.5383 66.8305 35.3737 66.8305 35.157ZM89.8916 28.826H87.4996V28.033H89.8916V26.408H87.4996V25.615H89.8916V24.003H90.8796V30.724H89.8916V28.826ZM87.0576 29.749H81.7406V24.575H87.0576V29.749ZM86.0826 25.381H82.7156V28.943H86.0826V25.381ZM90.9446 33.428C90.9446 33.9047 90.806 34.3293 90.5286 34.702C90.26 35.0833 89.8526 35.3823 89.3066 35.599C88.7606 35.8157 88.0933 35.924 87.3046 35.924C86.516 35.924 85.8443 35.8157 85.2896 35.599C84.7436 35.3823 84.332 35.0833 84.0546 34.702C83.786 34.3293 83.6516 33.9047 83.6516 33.428C83.6516 32.9513 83.786 32.5267 84.0546 32.154C84.332 31.7727 84.7436 31.4737 85.2896 31.257C85.8443 31.0403 86.516 30.932 87.3046 30.932C88.0933 30.932 88.7606 31.0403 89.3066 31.257C89.8526 31.4737 90.26 31.7727 90.5286 32.154C90.806 32.5267 90.9446 32.9513 90.9446 33.428ZM89.8916 33.324C89.8916 32.8733 89.675 32.4963 89.2416 32.193C88.817 31.8897 88.1713 31.738 87.3046 31.738C86.438 31.738 85.788 31.894 85.3546 32.206C84.9213 32.5093 84.7046 32.882 84.7046 33.324V33.545C84.7046 33.987 84.9213 34.3597 85.3546 34.663C85.788 34.975 86.438 35.131 87.3046 35.131C88.1713 35.131 88.817 34.975 89.2416 34.663C89.675 34.3597 89.8916 33.987 89.8916 33.545V33.324ZM104.329 28.462H102.613V31.764H101.638V24.003H102.613V27.63H104.329V28.462ZM98.6355 24.861H95.2165V24.094H98.6355V24.861ZM100.78 31.114C99.8185 31.27 98.6615 31.3913 97.3095 31.478C95.9661 31.556 94.5795 31.595 93.1495 31.595L93.0715 30.789C94.3801 30.789 95.4851 30.7673 96.3865 30.724V29.814C95.7105 29.7533 95.1775 29.58 94.7875 29.294C94.3975 28.9993 94.2025 28.631 94.2025 28.189C94.2025 27.5477 94.5405 27.1013 95.2165 26.85V26.772H93.4225V26.031H100.195V26.772H98.4795V26.85C99.1555 27.1187 99.4935 27.565 99.4935 28.189C99.4935 28.6223 99.2985 28.9863 98.9085 29.281C98.5185 29.567 97.9898 29.7403 97.3225 29.801V30.685C98.6571 30.6157 99.7795 30.5117 100.689 30.373L100.78 31.114ZM96.6595 29.06H97.0365C97.4958 29.06 97.8685 28.9647 98.1545 28.774C98.4491 28.5747 98.5965 28.2973 98.5965 27.942C98.5965 27.5867 98.4535 27.3137 98.1675 27.123C97.8815 26.9237 97.5045 26.824 97.0365 26.824H96.6595C96.1915 26.824 95.8101 26.9237 95.5155 27.123C95.2295 27.3137 95.0865 27.5867 95.0865 27.942C95.0865 28.2973 95.2295 28.5747 95.5155 28.774C95.8101 28.9647 96.1915 29.06 96.6595 29.06ZM95.1125 32.453H102.613V35.885H101.651V33.22H95.1125V32.453ZM115.296 24.003V35.287H114.308V24.003H115.296ZM111.279 25.485H107.522V24.64H111.279V25.485ZM105.754 27.045H112.826V27.851H110.876V27.929C111.266 28.1197 111.565 28.4057 111.773 28.787C111.981 29.1597 112.085 29.6233 112.085 30.178C112.085 30.7413 111.964 31.231 111.721 31.647C111.487 32.0543 111.162 32.3663 110.746 32.583C110.33 32.7997 109.862 32.908 109.342 32.908C108.822 32.908 108.354 32.7997 107.938 32.583C107.522 32.3663 107.193 32.0543 106.95 31.647C106.716 31.231 106.599 30.7413 106.599 30.178C106.599 29.6233 106.703 29.1597 106.911 28.787C107.119 28.4057 107.418 28.1197 107.808 27.929V27.851H105.754V27.045ZM111.123 29.762C111.123 29.1813 110.959 28.735 110.629 28.423C110.309 28.111 109.88 27.955 109.342 27.955C108.805 27.955 108.372 28.111 108.042 28.423C107.722 28.735 107.561 29.1813 107.561 29.762V30.256C107.561 30.828 107.726 31.2743 108.055 31.595C108.385 31.9157 108.814 32.076 109.342 32.076C109.871 32.076 110.3 31.9157 110.629 31.595C110.959 31.2743 111.123 30.828 111.123 30.256V29.762ZM132.546 28.046H130.739V31.14H129.751V24.003H130.739V27.214H132.546V28.046ZM126.774 25.095H123.303V24.276H126.774V25.095ZM124.954 30.867C124.417 30.867 123.945 30.7847 123.537 30.62C123.13 30.4553 122.814 30.2257 122.588 29.931C122.372 29.6363 122.263 29.3027 122.263 28.93C122.263 28.5573 122.354 28.2367 122.536 27.968C122.727 27.6907 123.009 27.474 123.381 27.318V27.24H121.405V26.447H128.451V27.24H126.527V27.318C126.9 27.474 127.177 27.6907 127.359 27.968C127.55 28.2367 127.645 28.5573 127.645 28.93C127.645 29.3027 127.533 29.6363 127.307 29.931C127.091 30.2257 126.779 30.4553 126.371 30.62C125.964 30.7847 125.492 30.867 124.954 30.867ZM124.824 30.048H125.084C125.57 30.048 125.964 29.931 126.267 29.697C126.571 29.4543 126.722 29.1207 126.722 28.696C126.722 28.2627 126.571 27.929 126.267 27.695C125.964 27.4523 125.57 27.331 125.084 27.331H124.824C124.339 27.331 123.945 27.4523 123.641 27.695C123.338 27.929 123.186 28.2627 123.186 28.696C123.186 29.1207 123.338 29.4543 123.641 29.697C123.945 29.931 124.339 30.048 124.824 30.048ZM123.719 31.816H130.739V35.755H124.369C124.161 35.755 124.001 35.6987 123.888 35.586C123.776 35.4733 123.719 35.3087 123.719 35.092V31.816ZM124.707 34.936H129.751V32.635H124.707V34.936Z" fill="white"/>
<rect y="4" width="2" height="10" fill="white"/>
</svg>
