<svg width="238" height="20" viewBox="0 0 238 20" fill="none" xmlns="http://www.w3.org/2000/svg">
<path d="M13.872 6.785C13.872 6.28233 14.015 5.83167 14.301 5.433C14.587 5.03433 15.0247 4.718 15.614 4.484C16.2033 4.25 16.9313 4.133 17.798 4.133C18.6647 4.133 19.3927 4.25 19.982 4.484C20.5713 4.718 21.009 5.03433 21.295 5.433C21.581 5.83167 21.724 6.28233 21.724 6.785C21.724 7.28767 21.581 7.74267 21.295 8.15C21.009 8.54867 20.5713 8.865 19.982 9.099C19.3927 9.333 18.6647 9.45 17.798 9.45C16.9313 9.45 16.2033 9.333 15.614 9.099C15.0247 8.865 14.587 8.54867 14.301 8.15C14.015 7.74267 13.872 7.28767 13.872 6.785ZM14.938 6.915C14.938 7.409 15.1763 7.82067 15.653 8.15C16.1297 8.47933 16.8447 8.644 17.798 8.644C18.7513 8.644 19.4663 8.47933 19.943 8.15C20.4197 7.82067 20.658 7.409 20.658 6.915V6.655C20.658 6.161 20.4197 5.74933 19.943 5.42C19.4663 5.082 18.7513 4.913 17.798 4.913C16.8533 4.913 16.1383 5.082 15.653 5.42C15.1763 5.74933 14.938 6.161 14.938 6.655V6.915ZM23.102 11.504H18.292V15.742H17.304V11.504H12.494V10.672H23.102V11.504ZM32.0148 4.939H28.0758V4.133H32.0148V4.939ZM29.5708 6.798H25.9698V6.005H34.1078V6.798H30.5328C30.5068 7.24867 30.3248 7.63 29.9868 7.942L30.0648 7.968L30.3638 7.773C30.4852 7.68633 30.6152 7.643 30.7538 7.643C30.7972 7.643 30.8882 7.66033 31.0268 7.695L34.5498 9.021L34.0298 9.736L30.2988 8.241C30.1862 8.19767 30.0735 8.176 29.9608 8.176C29.8482 8.176 29.7312 8.202 29.6098 8.254C29.2805 8.47933 28.8298 8.71333 28.2578 8.956C27.6858 9.19 26.9405 9.45867 26.0218 9.762L25.5148 9.073C26.5115 8.76967 27.2915 8.501 27.8548 8.267C28.4182 8.02433 28.8298 7.79033 29.0898 7.565C29.3585 7.331 29.5188 7.07533 29.5708 6.798ZM35.3428 10.425V11.257H24.7348V10.425H35.3428ZM26.2038 12.362H33.7698V15.82H32.7948V13.168H26.2038V12.362ZM51.6439 9.281H49.7719V15.313H48.7839V4.029H49.7719V8.449H51.6439V9.281ZM46.7949 8.566C46.7949 9.83133 46.5176 10.789 45.9629 11.439C45.4169 12.089 44.6889 12.414 43.7789 12.414C42.8689 12.414 42.1366 12.089 41.5819 11.439C41.0359 10.789 40.7629 9.83133 40.7629 8.566C40.7629 7.30067 41.0359 6.343 41.5819 5.693C42.1366 5.043 42.8689 4.718 43.7789 4.718C44.6889 4.718 45.4169 5.043 45.9629 5.693C46.5176 6.343 46.7949 7.30067 46.7949 8.566ZM45.7419 8.046C45.7419 7.24 45.5599 6.62467 45.1959 6.2C44.8406 5.76667 44.3682 5.55 43.7789 5.55C43.1896 5.55 42.7129 5.76667 42.3489 6.2C41.9849 6.62467 41.8029 7.24 41.8029 8.046V9.086C41.8029 9.892 41.9849 10.5117 42.3489 10.945C42.7129 11.3697 43.1896 11.582 43.7789 11.582C44.3682 11.582 44.8406 11.3697 45.1959 10.945C45.5599 10.5117 45.7419 9.892 45.7419 9.086V8.046ZM61.6227 4.003H62.6107V15.287H61.6227V4.003ZM53.2767 8.566C53.2767 7.30067 53.5541 6.343 54.1087 5.693C54.6721 5.043 55.4131 4.718 56.3317 4.718C57.2417 4.718 57.9741 5.043 58.5287 5.693C59.0921 6.343 59.3737 7.30067 59.3737 8.566C59.3737 9.41533 59.2437 10.1303 58.9837 10.711C58.7237 11.283 58.3641 11.712 57.9047 11.998C57.4454 12.2753 56.9211 12.414 56.3317 12.414C55.4131 12.414 54.6721 12.089 54.1087 11.439C53.5541 10.789 53.2767 9.83133 53.2767 8.566ZM58.3207 9.073V8.059C58.3207 7.253 58.1344 6.63333 57.7617 6.2C57.3977 5.76667 56.9211 5.55 56.3317 5.55C55.7337 5.55 55.2484 5.76667 54.8757 6.2C54.5117 6.62467 54.3297 7.24433 54.3297 8.059V9.073C54.3297 9.88767 54.5117 10.5117 54.8757 10.945C55.2484 11.3697 55.7337 11.582 56.3317 11.582C56.9211 11.582 57.3977 11.3653 57.7617 10.932C58.1344 10.4987 58.3207 9.879 58.3207 9.073ZM73.2915 6.655C73.3175 6.19567 73.3305 5.72333 73.3305 5.238H66.6225V4.419H74.2925V5.29C74.2925 6.67667 74.1452 8.02 73.8505 9.32L72.9145 9.19C73.0445 8.65267 73.1442 8.06333 73.2135 7.422L66.3365 7.695L66.2325 6.876L73.2915 6.655ZM75.7875 10.178V11.023H65.1795V10.178H69.5215V8.449H70.5095V10.178H75.7875ZM67.6885 14.741H74.4225V15.56H67.3505C67.1425 15.56 66.9822 15.5037 66.8695 15.391C66.7569 15.2783 66.7005 15.1137 66.7005 14.897V12.128H67.6885V14.741ZM78.6294 7.539C78.6294 6.95833 78.7767 6.43833 79.0714 5.979C79.3747 5.511 79.834 5.13833 80.4494 4.861C81.0647 4.58367 81.823 4.445 82.7244 4.445C83.6257 4.445 84.384 4.58367 84.9994 4.861C85.6147 5.13833 86.0697 5.511 86.3644 5.979C86.6677 6.43833 86.8194 6.95833 86.8194 7.539C86.8194 8.11967 86.6677 8.644 86.3644 9.112C86.0697 9.58 85.6147 9.95267 84.9994 10.23C84.384 10.5073 83.6257 10.646 82.7244 10.646C81.823 10.646 81.0647 10.5073 80.4494 10.23C79.834 9.95267 79.3747 9.58 79.0714 9.112C78.7767 8.644 78.6294 8.11967 78.6294 7.539ZM85.7534 7.695V7.396C85.7534 6.99733 85.645 6.63767 85.4284 6.317C85.2204 5.98767 84.8867 5.72767 84.4274 5.537C83.9767 5.33767 83.409 5.238 82.7244 5.238C82.0397 5.238 81.4677 5.33767 81.0084 5.537C80.5577 5.72767 80.224 5.98767 80.0074 6.317C79.7994 6.63767 79.6954 6.99733 79.6954 7.396V7.695C79.6954 8.31033 79.9467 8.82167 80.4494 9.229C80.952 9.63633 81.7104 9.84 82.7244 9.84C83.7384 9.84 84.4967 9.63633 84.9994 9.229C85.502 8.82167 85.7534 8.31033 85.7534 7.695ZM77.4204 13.155H88.0284V14H77.4204V13.155ZM100.269 13.168V14H89.6612V13.168H94.4712V10.945H91.2212V7.422H97.7212V5.511H91.1562V4.692H98.7092V8.215H92.2092V10.126H99.0472V10.945H95.4592V13.168H100.269ZM113.814 5.784H106.95V4.939H114.789V5.862C114.789 7.786 114.603 9.619 114.23 11.361L113.268 11.205C113.632 9.44567 113.814 7.67767 113.814 5.901V5.784ZM116.232 13.168V14H105.624V13.168H109.784V8.995H110.759V13.168H116.232ZM127.888 4.003V10.789H126.926V7.786H125.106V10.646H124.144V4.185H125.106V6.98H126.926V4.003H127.888ZM118.762 10.711L118.177 10.035C119.156 9.567 119.902 9.151 120.413 8.787C120.924 8.41433 121.284 8.033 121.492 7.643C121.7 7.24433 121.804 6.76333 121.804 6.2V5.667H118.489V4.848H122.779V6.083C122.779 6.81967 122.658 7.435 122.415 7.929C122.181 8.423 121.782 8.88233 121.219 9.307C120.656 9.723 119.837 10.191 118.762 10.711ZM120.244 11.504H127.888V15.859H126.913V12.349H120.244V11.504ZM143.513 4.003V15.287H142.538V8.618H140.133V7.786H142.538V4.003H143.513ZM137.884 8.553C137.988 8.553 138.079 8.60067 138.157 8.696L140.705 11.946L139.951 12.609L137.403 9.255C137.369 9.21167 137.325 9.19 137.273 9.19C137.221 9.19 137.178 9.21167 137.143 9.255C136.927 9.75767 136.628 10.2733 136.246 10.802C135.865 11.3307 135.345 11.9893 134.686 12.778L133.932 12.141C134.686 11.283 135.263 10.5507 135.661 9.944C136.069 9.32867 136.359 8.71333 136.532 8.098C136.714 7.48267 136.805 6.77633 136.805 5.979V4.757H137.793V5.966C137.793 7.01467 137.65 7.95067 137.364 8.774L137.416 8.813L137.598 8.657C137.694 8.58767 137.789 8.553 137.884 8.553ZM154.753 4.003H155.741V15.287H154.753V4.003ZM146.732 4.809H147.707V7.656H151.126V4.796H152.088V12.245H146.732V4.809ZM151.126 11.413V8.488H147.707V11.413H151.126ZM159.402 10.503L158.843 9.736C160.021 9.12933 160.923 8.592 161.547 8.124C162.179 7.64733 162.617 7.175 162.86 6.707C163.102 6.23033 163.224 5.68433 163.224 5.069V4.627H164.238V5.095C164.238 5.59767 164.181 6.04833 164.069 6.447C163.965 6.837 163.787 7.20533 163.536 7.552L163.601 7.591L163.926 7.344C164.038 7.25733 164.151 7.214 164.264 7.214C164.376 7.214 164.489 7.253 164.602 7.331L168.385 9.684L167.813 10.464L163.9 7.942C163.787 7.864 163.666 7.825 163.536 7.825C163.423 7.825 163.31 7.86833 163.198 7.955C162.842 8.33633 162.361 8.73067 161.755 9.138C161.148 9.53667 160.364 9.99167 159.402 10.503ZM168.918 13.155V14H158.31V13.155H168.918ZM182.957 4.003H183.945V15.287H182.957V4.003ZM174.611 8.566C174.611 7.30067 174.888 6.343 175.443 5.693C176.006 5.043 176.747 4.718 177.666 4.718C178.576 4.718 179.308 5.043 179.863 5.693C180.426 6.343 180.708 7.30067 180.708 8.566C180.708 9.41533 180.578 10.1303 180.318 10.711C180.058 11.283 179.698 11.712 179.239 11.998C178.78 12.2753 178.255 12.414 177.666 12.414C176.747 12.414 176.006 12.089 175.443 11.439C174.888 10.789 174.611 9.83133 174.611 8.566ZM179.655 9.073V8.059C179.655 7.253 179.469 6.63333 179.096 6.2C178.732 5.76667 178.255 5.55 177.666 5.55C177.068 5.55 176.583 5.76667 176.21 6.2C175.846 6.62467 175.664 7.24433 175.664 8.059V9.073C175.664 9.88767 175.846 10.5117 176.21 10.945C176.583 11.3697 177.068 11.582 177.666 11.582C178.255 11.582 178.732 11.3653 179.096 10.932C179.469 10.4987 179.655 9.879 179.655 9.073ZM197.122 9.71V10.542H186.514V9.71H189.335V8.176C188.858 7.97667 188.498 7.71667 188.256 7.396C188.022 7.07533 187.905 6.71133 187.905 6.304C187.905 5.628 188.234 5.082 188.893 4.666C189.551 4.24133 190.526 4.029 191.818 4.029C193.109 4.029 194.084 4.24133 194.743 4.666C195.401 5.082 195.731 5.628 195.731 6.304C195.731 6.71133 195.609 7.07533 195.367 7.396C195.133 7.71667 194.777 7.97667 194.301 8.176V9.71H197.122ZM191.818 7.812C192.78 7.812 193.499 7.67767 193.976 7.409C194.452 7.14033 194.691 6.798 194.691 6.382V6.2C194.691 5.79267 194.448 5.45467 193.963 5.186C193.486 4.91733 192.771 4.783 191.818 4.783C190.864 4.783 190.149 4.91733 189.673 5.186C189.196 5.45467 188.958 5.79267 188.958 6.2V6.382C188.958 6.798 189.192 7.14033 189.66 7.409C190.136 7.67767 190.856 7.812 191.818 7.812ZM190.284 9.71H193.352V8.449C192.927 8.53567 192.416 8.579 191.818 8.579C191.22 8.579 190.708 8.53567 190.284 8.449V9.71ZM195.666 13.727C195.666 14.169 195.518 14.559 195.224 14.897C194.938 15.235 194.504 15.4993 193.924 15.69C193.352 15.8893 192.65 15.989 191.818 15.989C190.986 15.989 190.279 15.8893 189.699 15.69C189.127 15.4993 188.693 15.235 188.399 14.897C188.113 14.559 187.97 14.169 187.97 13.727C187.97 13.2937 188.113 12.9123 188.399 12.583C188.693 12.245 189.127 11.9807 189.699 11.79C190.279 11.5993 190.986 11.504 191.818 11.504C192.65 11.504 193.352 11.5993 193.924 11.79C194.504 11.9807 194.938 12.245 195.224 12.583C195.518 12.9123 195.666 13.2937 195.666 13.727ZM194.626 13.649C194.626 13.2677 194.392 12.947 193.924 12.687C193.464 12.4183 192.762 12.284 191.818 12.284C191.185 12.284 190.656 12.349 190.232 12.479C189.807 12.6003 189.495 12.765 189.296 12.973C189.096 13.181 188.997 13.4063 188.997 13.649V13.831C188.997 14.0737 189.096 14.299 189.296 14.507C189.495 14.715 189.807 14.8797 190.232 15.001C190.656 15.131 191.185 15.196 191.818 15.196C192.762 15.196 193.464 15.0617 193.924 14.793C194.392 14.533 194.626 14.2123 194.626 13.831V13.649ZM213.423 9.281H211.551V15.313H210.563V4.029H211.551V8.449H213.423V9.281ZM203.036 4.926H208.093V6.733C208.093 7.695 207.95 8.50967 207.664 9.177C207.378 9.84433 206.892 10.4683 206.208 11.049C205.532 11.621 204.561 12.2493 203.296 12.934L202.711 12.193C203.889 11.569 204.791 11.0013 205.415 10.49C206.039 9.97867 206.476 9.437 206.728 8.865C206.979 8.293 207.105 7.58667 207.105 6.746V5.771H203.036V4.926ZM223.818 8.137H216.343V4.315H217.318V7.331H223.818V8.137ZM225.326 9.476V10.334H214.718V9.476H225.326ZM223.87 13.714C223.87 14.3987 223.54 14.949 222.882 15.365C222.223 15.781 221.27 15.989 220.022 15.989C218.774 15.989 217.82 15.781 217.162 15.365C216.503 14.949 216.174 14.3987 216.174 13.714C216.174 13.2807 216.317 12.895 216.603 12.557C216.897 12.219 217.331 11.9547 217.903 11.764C218.483 11.5733 219.19 11.478 220.022 11.478C220.854 11.478 221.556 11.5733 222.128 11.764C222.708 11.9547 223.142 12.219 223.428 12.557C223.722 12.895 223.87 13.2807 223.87 13.714ZM222.83 13.636C222.83 13.246 222.596 12.921 222.128 12.661C221.668 12.3923 220.966 12.258 220.022 12.258C219.086 12.258 218.379 12.3923 217.903 12.661C217.435 12.921 217.201 13.246 217.201 13.636V13.818C217.201 14.208 217.435 14.533 217.903 14.793C218.379 15.0617 219.086 15.196 220.022 15.196C220.966 15.196 221.668 15.0617 222.128 14.793C222.596 14.533 222.83 14.208 222.83 13.818V13.636Z" fill="white"/>
<rect y="4" width="2" height="10" fill="white"/>
</svg>
