<svg width="238" height="40" viewBox="0 0 238 40" fill="none" xmlns="http://www.w3.org/2000/svg">
<path d="M23.453 6.863V7.695H21.633V10.542H20.658V4.003H21.633V6.863H23.453ZM19.371 9.918C17.9497 10.1867 16.2553 10.321 14.288 10.321H12.962V4.536H18.188V5.329H13.911V6.993H18.006V7.786H13.911V9.528H14.34C16.2467 9.528 17.8803 9.398 19.241 9.138L19.371 9.918ZM20.684 11.205H21.646V15.755H15.289C15.081 15.755 14.9207 15.6987 14.808 15.586C14.6953 15.4733 14.639 15.3087 14.639 15.092V11.205H15.601V12.622H20.684V11.205ZM20.684 13.441H15.601V14.923H20.684V13.441ZM35.6808 9.281H33.8088V15.313H32.8208V4.029H33.8088V8.449H35.6808V9.281ZM29.4798 4.796H30.4288V12.245H25.1248V4.809H26.0868V7.656H29.4798V4.796ZM29.4798 8.488H26.0868V11.413H29.4798V8.488ZM46.0756 8.501H38.6006V4.419H39.5756V7.682H46.0756V8.501ZM47.5836 9.944V10.789H36.9756V9.944H47.5836ZM39.4846 14.689H46.2186V15.521H39.1466C38.9386 15.521 38.7783 15.4647 38.6656 15.352C38.553 15.2393 38.4966 15.0747 38.4966 14.858V12.011H39.4846V14.689ZM56.4678 10.503L55.9088 9.736C57.0875 9.12933 57.9888 8.592 58.6128 8.124C59.2455 7.64733 59.6832 7.175 59.9258 6.707C60.1685 6.23033 60.2898 5.68433 60.2898 5.069V4.627H61.3038V5.095C61.3038 5.59767 61.2475 6.04833 61.1348 6.447C61.0308 6.837 60.8532 7.20533 60.6018 7.552L60.6668 7.591L60.9918 7.344C61.1045 7.25733 61.2172 7.214 61.3298 7.214C61.4425 7.214 61.5552 7.253 61.6678 7.331L65.4508 9.684L64.8788 10.464L60.9658 7.942C60.8532 7.864 60.7318 7.825 60.6018 7.825C60.4892 7.825 60.3765 7.86833 60.2638 7.955C59.9085 8.33633 59.4275 8.73067 58.8208 9.138C58.2142 9.53667 57.4298 9.99167 56.4678 10.503ZM65.9838 13.155V14H55.3758V13.155H65.9838ZM75.8067 5.849V5.758H68.9947V4.926H76.7947V6.174C76.7947 8.16733 76.6127 10.061 76.2487 11.855L75.2867 11.699C75.4773 10.789 75.6117 9.84867 75.6897 8.878L68.7347 9.229L68.6047 8.384L75.7547 8.098C75.7893 7.46533 75.8067 6.71567 75.8067 5.849ZM78.2247 13.155V14H67.6167V13.155H78.2247ZM90.4655 9.619V10.373H79.8575V9.619H84.6805V8.566H81.5215V6.005H87.8005V4.913H81.4565V4.172H88.7495V6.72H82.4835V7.825H89.0745V8.566H85.6425V9.619H90.4655ZM82.4055 15.079H89.2175V15.859H82.1325C81.9245 15.859 81.7641 15.8027 81.6515 15.69C81.5388 15.5773 81.4825 15.4127 81.4825 15.196V13.246H87.9565V12.154H81.4045V11.387H88.8795V13.974H82.4055V15.079ZM93.5023 6.083C93.5023 5.45033 93.8273 4.94767 94.4773 4.575C95.1273 4.19367 96.1023 4.003 97.4023 4.003C98.7023 4.003 99.6773 4.19367 100.327 4.575C100.977 4.94767 101.302 5.45033 101.302 6.083C101.302 6.71567 100.977 7.22267 100.327 7.604C99.6773 7.98533 98.7023 8.176 97.4023 8.176C96.1023 8.176 95.1273 7.98533 94.4773 7.604C93.8273 7.22267 93.5023 6.71567 93.5023 6.083ZM100.249 6.148V6.005C100.249 5.63233 100.011 5.329 99.5343 5.095C99.0663 4.85233 98.3556 4.731 97.4023 4.731C96.449 4.731 95.734 4.85233 95.2573 5.095C94.7893 5.329 94.5553 5.63233 94.5553 6.005V6.148C94.5553 6.52067 94.7893 6.82833 95.2573 7.071C95.734 7.305 96.449 7.422 97.4023 7.422C98.3556 7.422 99.0663 7.305 99.5343 7.071C100.011 6.82833 100.249 6.52067 100.249 6.148ZM102.706 9.073V9.905H92.0983V9.073H102.706ZM93.7493 15.157V13.025H100.158V11.803H93.6713V10.997H101.107V13.779H94.6983V15.014H101.445V15.82H94.3993C94.1913 15.82 94.031 15.7637 93.9183 15.651C93.8056 15.5383 93.7493 15.3737 93.7493 15.157ZM120.521 4.003V15.287H119.559V9.229H117.713V14.975H116.764V4.198H117.713V8.41H119.559V4.003H120.521ZM115.945 10.971L116.075 11.777C115.009 12.037 113.696 12.167 112.136 12.167H111.044V5.147H111.993V11.348H112.37C113.046 11.348 113.692 11.3177 114.307 11.257C114.931 11.1877 115.477 11.0923 115.945 10.971ZM132.411 4.003V15.287H131.423V4.003H132.411ZM129.941 11.335L130.071 12.128C128.728 12.388 127.021 12.518 124.949 12.518H123.545V8.163H127.64V5.693H123.493V4.861H128.628V8.982H124.52V11.712H124.936C126.904 11.712 128.572 11.5863 129.941 11.335ZM143.729 9.19H141.337V8.384H143.729V6.616H141.337V5.81H143.729V4.003H144.717V12.57H143.729V9.19ZM140.895 10.269H135.578V4.731H140.895V10.269ZM139.92 5.55H136.553V9.45H139.92V5.55ZM144.951 14.715V15.534H138.139C137.931 15.534 137.771 15.4777 137.658 15.365C137.545 15.2523 137.489 15.0877 137.489 14.871V11.634H138.49V14.715H144.951ZM164.339 6.915V7.747H162.532V10.724H161.544V4.003H162.532V6.915H164.339ZM156.617 7.695C156.557 7.695 156.5 7.72533 156.448 7.786C156.223 8.15867 155.924 8.54433 155.551 8.943C155.187 9.333 154.693 9.81833 154.069 10.399L153.341 9.762C154.078 9.10333 154.646 8.54 155.044 8.072C155.443 7.604 155.729 7.14033 155.902 6.681C156.076 6.22167 156.162 5.70167 156.162 5.121V4.419H157.15V5.173C157.15 5.96167 156.999 6.681 156.695 7.331L156.76 7.383L156.968 7.201C157.064 7.123 157.159 7.084 157.254 7.084C157.35 7.084 157.436 7.123 157.514 7.201L159.984 9.489L159.282 10.165L156.786 7.773C156.734 7.721 156.678 7.695 156.617 7.695ZM162.623 13.428C162.623 13.9047 162.489 14.3293 162.22 14.702C161.952 15.0833 161.549 15.3823 161.011 15.599C160.474 15.8157 159.815 15.924 159.035 15.924C158.264 15.924 157.605 15.8157 157.059 15.599C156.522 15.3823 156.115 15.0833 155.837 14.702C155.569 14.3293 155.434 13.9047 155.434 13.428C155.434 12.9513 155.569 12.5267 155.837 12.154C156.115 11.7727 156.522 11.4737 157.059 11.257C157.605 11.0403 158.264 10.932 159.035 10.932C159.815 10.932 160.474 11.0403 161.011 11.257C161.549 11.4737 161.952 11.7727 162.22 12.154C162.489 12.5267 162.623 12.9513 162.623 13.428ZM161.583 13.324C161.583 12.8733 161.371 12.4963 160.946 12.193C160.53 11.8897 159.893 11.738 159.035 11.738C158.186 11.738 157.549 11.894 157.124 12.206C156.7 12.5093 156.487 12.882 156.487 13.324V13.545C156.487 13.987 156.7 14.3597 157.124 14.663C157.549 14.975 158.186 15.131 159.035 15.131C159.893 15.131 160.53 14.975 160.946 14.663C161.371 14.3597 161.583 13.987 161.583 13.545V13.324ZM176.58 7.422V8.254H174.773V12.57H173.785V4.003H174.773V7.422H176.58ZM172.498 9.996C171.865 10.126 171.111 10.23 170.236 10.308C169.361 10.3773 168.42 10.412 167.415 10.412H166.076V4.77H171.263V5.602H167.064V9.593H167.402C168.355 9.593 169.261 9.55833 170.119 9.489C170.986 9.41967 171.735 9.32433 172.368 9.203L172.498 9.996ZM168.676 14.715H175.033V15.534H168.338C168.13 15.534 167.97 15.4777 167.857 15.365C167.744 15.2523 167.688 15.0877 167.688 14.871V11.634H168.676V14.715ZM187.885 4.003V15.287H186.936V4.003H187.885ZM184.375 4.198H185.298V14.975H184.375V9.06H183.127C183.084 10.1867 182.832 11.036 182.373 11.608C181.914 12.1713 181.307 12.453 180.553 12.453C179.747 12.453 179.11 12.141 178.642 11.517C178.174 10.8843 177.94 9.944 177.94 8.696C177.94 7.448 178.174 6.512 178.642 5.888C179.11 5.25533 179.747 4.939 180.553 4.939C181.298 4.939 181.896 5.21633 182.347 5.771C182.806 6.32567 183.066 7.149 183.127 8.241H184.375V4.198ZM182.139 8.072C182.139 7.30933 181.992 6.72867 181.697 6.33C181.411 5.93133 181.03 5.732 180.553 5.732C180.068 5.732 179.678 5.93133 179.383 6.33C179.097 6.72867 178.954 7.30933 178.954 8.072V9.333C178.954 10.087 179.097 10.6677 179.383 11.075C179.678 11.4737 180.068 11.673 180.553 11.673C181.03 11.673 181.411 11.4737 181.697 11.075C181.992 10.6677 182.139 10.087 182.139 9.333V8.072ZM205.297 8.072H197.835V4.055H198.81V5.316H204.335V4.055H205.297V8.072ZM204.335 6.07H198.81V7.318H204.335V6.07ZM202.06 9.918V11.062H205.453V11.868H198.927V13.025H205.284V13.818H198.927V15.001H205.635V15.82H198.589C198.381 15.82 198.221 15.7637 198.108 15.651C197.996 15.5383 197.939 15.3737 197.939 15.157V11.062H201.072V9.918H196.262V9.099H206.87V9.918H202.06ZM218.188 4.003V15.287H217.213V8.891H214.795C214.752 10.0523 214.457 10.932 213.911 11.53C213.365 12.1193 212.663 12.414 211.805 12.414C210.904 12.414 210.176 12.089 209.621 11.439C209.075 10.789 208.802 9.83133 208.802 8.566C208.802 7.292 209.075 6.33433 209.621 5.693C210.167 5.043 210.895 4.718 211.805 4.718C212.646 4.718 213.335 4.99967 213.872 5.563C214.409 6.12633 214.717 6.95833 214.795 8.059H217.213V4.003H218.188ZM213.768 8.046C213.768 7.24 213.586 6.62467 213.222 6.2C212.867 5.76667 212.394 5.55 211.805 5.55C211.216 5.55 210.743 5.76667 210.388 6.2C210.033 6.62467 209.855 7.24 209.855 8.046V9.086C209.855 9.892 210.033 10.5117 210.388 10.945C210.743 11.3697 211.216 11.582 211.805 11.582C212.394 11.582 212.867 11.3697 213.222 10.945C213.586 10.5117 213.768 9.892 213.768 9.086V8.046ZM237.849 9.281H235.977V15.313H234.989V4.029H235.977V8.449H237.849V9.281ZM233.624 11.127L233.754 11.92C232.428 12.1887 230.773 12.323 228.788 12.323H227.41V4.926H232.597V5.758H228.398V11.504H228.775C230.682 11.504 232.298 11.3783 233.624 11.127ZM21.646 26.499V28.215H23.44V29.034H21.646V30.724H20.671V24.003H21.646V25.68H23.44V26.499H21.646ZM15.549 29.996C14.977 29.996 14.4657 29.8833 14.015 29.658C13.573 29.4327 13.2263 29.1077 12.975 28.683C12.7237 28.2583 12.598 27.76 12.598 27.188C12.598 26.616 12.7237 26.1177 12.975 25.693C13.2263 25.2683 13.573 24.9433 14.015 24.718C14.4657 24.4927 14.977 24.38 15.549 24.38C16.121 24.38 16.628 24.4927 17.07 24.718C17.512 24.9433 17.8587 25.2683 18.11 25.693C18.3613 26.1177 18.487 26.616 18.487 27.188C18.487 27.76 18.3613 28.2583 18.11 28.683C17.8587 29.1077 17.512 29.4327 17.07 29.658C16.628 29.8833 16.121 29.996 15.549 29.996ZM15.549 29.19C16.1123 29.19 16.5673 29.0297 16.914 28.709C17.2693 28.3883 17.447 27.9593 17.447 27.422V26.954C17.447 26.4167 17.2693 25.9877 16.914 25.667C16.5673 25.3463 16.1123 25.186 15.549 25.186C14.977 25.186 14.5133 25.3463 14.158 25.667C13.8113 25.9877 13.638 26.4167 13.638 26.954V27.422C13.638 27.9593 13.8113 28.3883 14.158 28.709C14.5133 29.0297 14.977 29.19 15.549 29.19ZM21.737 33.428C21.737 33.9047 21.6027 34.3293 21.334 34.702C21.0653 35.0833 20.6623 35.3823 20.125 35.599C19.5877 35.8157 18.929 35.924 18.149 35.924C17.3777 35.924 16.719 35.8157 16.173 35.599C15.6357 35.3823 15.2283 35.0833 14.951 34.702C14.6823 34.3293 14.548 33.9047 14.548 33.428C14.548 32.9513 14.6823 32.5267 14.951 32.154C15.2283 31.7727 15.6357 31.4737 16.173 31.257C16.719 31.0403 17.3777 30.932 18.149 30.932C18.929 30.932 19.5877 31.0403 20.125 31.257C20.6623 31.4737 21.0653 31.7727 21.334 32.154C21.6027 32.5267 21.737 32.9513 21.737 33.428ZM20.697 33.324C20.697 32.8733 20.4847 32.4963 20.06 32.193C19.644 31.8897 19.007 31.738 18.149 31.738C17.2997 31.738 16.6627 31.894 16.238 32.206C15.8133 32.5093 15.601 32.882 15.601 33.324V33.545C15.601 33.987 15.8133 34.3597 16.238 34.663C16.6627 34.975 17.2997 35.131 18.149 35.131C19.007 35.131 19.644 34.975 20.06 34.663C20.4847 34.3597 20.697 33.987 20.697 33.545V33.324ZM35.6938 27.864V28.696H33.8868V32.7H32.8988V24.003H33.8868V27.864H35.6938ZM29.9218 25.186H26.4508V24.354H29.9218V25.186ZM28.1018 31.348C27.5645 31.348 27.0922 31.257 26.6848 31.075C26.2775 30.893 25.9612 30.6417 25.7358 30.321C25.5192 30.0003 25.4108 29.6363 25.4108 29.229C25.4108 28.8217 25.5062 28.4663 25.6968 28.163C25.8962 27.851 26.1908 27.6127 26.5808 27.448V27.383H24.5528V26.564H31.5988V27.383H29.6228V27.448C30.0128 27.6127 30.3032 27.851 30.4938 28.163C30.6932 28.4663 30.7928 28.8217 30.7928 29.229C30.7928 29.6363 30.6802 30.0003 30.4548 30.321C30.2382 30.6417 29.9262 30.893 29.5188 31.075C29.1115 31.257 28.6392 31.348 28.1018 31.348ZM27.9978 30.516H28.2188C28.7042 30.516 29.0985 30.386 29.4018 30.126C29.7138 29.8573 29.8698 29.4847 29.8698 29.008C29.8698 28.5313 29.7182 28.1587 29.4148 27.89C29.1115 27.6213 28.7128 27.487 28.2188 27.487H27.9978C27.5038 27.487 27.1052 27.6213 26.8018 27.89C26.4985 28.15 26.3468 28.5227 26.3468 29.008C26.3468 29.4847 26.4985 29.8573 26.8018 30.126C27.1138 30.386 27.5125 30.516 27.9978 30.516ZM27.7898 34.78H34.1468V35.599H27.4518C27.2438 35.599 27.0835 35.5427 26.9708 35.43C26.8582 35.3173 26.8018 35.1527 26.8018 34.936V32.336H27.7898V34.78ZM50.3829 24.003V35.287H49.4079V28.618H47.0029V27.786H49.4079V24.003H50.3829ZM44.7539 28.553C44.8579 28.553 44.9489 28.6007 45.0269 28.696L47.5749 31.946L46.8209 32.609L44.2729 29.255C44.2382 29.2117 44.1949 29.19 44.1429 29.19C44.0909 29.19 44.0476 29.2117 44.0129 29.255C43.7962 29.7577 43.4972 30.2733 43.1159 30.802C42.7346 31.3307 42.2146 31.9893 41.5559 32.778L40.8019 32.141C41.5559 31.283 42.1322 30.5507 42.5309 29.944C42.9382 29.3287 43.2286 28.7133 43.4019 28.098C43.5839 27.4827 43.6749 26.7763 43.6749 25.979V24.757H44.6629V25.966C44.6629 27.0147 44.5199 27.9507 44.2339 28.774L44.2859 28.813L44.4679 28.657C44.5632 28.5877 44.6586 28.553 44.7539 28.553ZM61.6227 24.003H62.6107V35.287H61.6227V24.003ZM53.6017 24.809H54.5767V27.656H57.9957V24.796H58.9577V32.245H53.6017V24.809ZM57.9957 31.413V28.488H54.5767V31.413H57.9957ZM66.2715 30.503L65.7125 29.736C66.8912 29.1293 67.7925 28.592 68.4165 28.124C69.0492 27.6473 69.4869 27.175 69.7295 26.707C69.9722 26.2303 70.0935 25.6843 70.0935 25.069V24.627H71.1075V25.095C71.1075 25.5977 71.0512 26.0483 70.9385 26.447C70.8345 26.837 70.6569 27.2053 70.4055 27.552L70.4705 27.591L70.7955 27.344C70.9082 27.2573 71.0209 27.214 71.1335 27.214C71.2462 27.214 71.3589 27.253 71.4715 27.331L75.2545 29.684L74.6825 30.464L70.7695 27.942C70.6569 27.864 70.5355 27.825 70.4055 27.825C70.2929 27.825 70.1802 27.8683 70.0675 27.955C69.7122 28.3363 69.2312 28.7307 68.6245 29.138C68.0179 29.5367 67.2335 29.9917 66.2715 30.503ZM75.7875 33.155V34H65.1795V33.155H75.7875ZM85.3634 26.031V24.913H79.0194V24.185H86.3124V26.746H80.0464V27.851H86.6374V28.592H79.0844V26.031H85.3634ZM88.0284 29.567V30.334H77.4204V29.567H88.0284ZM79.0454 35.196V33.233H85.5194V32.141H78.9674V31.374H86.4424V33.961H79.9684V35.079H86.7804V35.859H79.6954C79.4874 35.859 79.327 35.8027 79.2144 35.69C79.1017 35.5773 79.0454 35.4127 79.0454 35.196ZM103.406 24.003V35.287H102.457V24.003H103.406ZM99.8705 24.198H100.793V34.975H99.8705V28.761H98.0635V27.942H99.8705V24.198ZM96.7115 28.904C96.8155 28.904 96.9151 28.9647 97.0105 29.086L99.0775 31.985L98.3755 32.583L96.2955 29.593C96.2521 29.541 96.2088 29.515 96.1655 29.515C96.1221 29.515 96.0875 29.541 96.0615 29.593C95.8795 30.0437 95.6281 30.5117 95.3075 30.997C94.9955 31.4737 94.5708 32.063 94.0335 32.765L93.3445 32.18C93.9771 31.374 94.4625 30.6807 94.8005 30.1C95.1385 29.5107 95.3811 28.93 95.5285 28.358C95.6758 27.7773 95.7495 27.1187 95.7495 26.382V26.005H93.6175V25.173H98.7785V26.005H96.6855V26.382C96.6855 27.3873 96.5468 28.28 96.2695 29.06L96.3345 29.099L96.4645 28.995C96.5598 28.9343 96.6421 28.904 96.7115 28.904ZM113.684 25.199H107.041V24.367H114.646V25.004C114.646 26.1393 114.512 27.3007 114.243 28.488L113.307 28.358C113.55 27.3353 113.676 26.2823 113.684 25.199ZM116.232 29.398V30.256H105.624V29.398H109.979V27.149H110.954V29.398H116.232ZM114.776 33.662C114.776 34.1127 114.629 34.5113 114.334 34.858C114.048 35.2133 113.615 35.4907 113.034 35.69C112.462 35.8893 111.76 35.989 110.928 35.989C110.096 35.989 109.39 35.8893 108.809 35.69C108.237 35.4907 107.804 35.2133 107.509 34.858C107.223 34.5113 107.08 34.1127 107.08 33.662C107.08 33.2113 107.223 32.8127 107.509 32.466C107.804 32.1193 108.237 31.8463 108.809 31.647C109.39 31.4477 110.096 31.348 110.928 31.348C111.76 31.348 112.462 31.4477 113.034 31.647C113.615 31.8463 114.048 32.1193 114.334 32.466C114.629 32.8127 114.776 33.2113 114.776 33.662ZM113.736 33.571C113.736 33.1637 113.502 32.8213 113.034 32.544C112.575 32.2667 111.873 32.128 110.928 32.128C109.992 32.128 109.286 32.2667 108.809 32.544C108.341 32.8213 108.107 33.1637 108.107 33.571V33.766C108.107 34.1647 108.341 34.5027 108.809 34.78C109.286 35.0573 109.992 35.196 110.928 35.196C111.873 35.196 112.575 35.0573 113.034 34.78C113.502 34.5027 113.736 34.1647 113.736 33.766V33.571Z" fill="white"/>
<rect y="4" width="2" height="10" fill="white"/>
</svg>
