<svg width="109" height="39" viewBox="0 0 109 39" fill="none" xmlns="http://www.w3.org/2000/svg">
<path d="M2.59801 19V4.45455H11.7173V6.34375H4.79261V10.7756H11.2415V12.6577H4.79261V17.1108H11.8026V19H2.59801ZM16.0488 19V4.45455H21.2335C22.3651 4.45455 23.3026 4.66051 24.046 5.07244C24.7893 5.48437 25.3457 6.04782 25.715 6.76278C26.0843 7.47301 26.269 8.2732 26.269 9.16335C26.269 10.0582 26.0819 10.8632 25.7079 11.5781C25.3386 12.2884 24.7799 12.8518 24.0317 13.2685C23.2884 13.6804 22.3532 13.8864 21.2263 13.8864H17.661V12.0256H21.0275C21.7424 12.0256 22.3225 11.9025 22.7675 11.6562C23.2126 11.4053 23.5393 11.0644 23.7477 10.6335C23.956 10.2027 24.0602 9.71259 24.0602 9.16335C24.0602 8.61411 23.956 8.12642 23.7477 7.70028C23.5393 7.27415 23.2103 6.94034 22.7604 6.69886C22.3154 6.45739 21.7282 6.33665 20.9991 6.33665H18.2434V19H16.0488ZM32.4364 4.45455V19H30.2418V4.45455H32.4364ZM37.0324 19V4.45455H39.227V17.1108H45.8179V19H37.0324ZM61.79 11.7273C61.79 13.2803 61.5059 14.6155 60.9377 15.733C60.3695 16.8456 59.5906 17.7027 58.6011 18.304C57.6162 18.9006 56.4964 19.1989 55.2417 19.1989C53.9822 19.1989 52.8577 18.9006 51.8681 18.304C50.8833 17.7027 50.1067 16.8433 49.5386 15.7259C48.9704 14.6084 48.6863 13.2756 48.6863 11.7273C48.6863 10.1742 48.9704 8.84138 49.5386 7.72869C50.1067 6.61127 50.8833 5.75426 51.8681 5.15767C52.8577 4.55634 53.9822 4.25568 55.2417 4.25568C56.4964 4.25568 57.6162 4.55634 58.6011 5.15767C59.5906 5.75426 60.3695 6.61127 60.9377 7.72869C61.5059 8.84138 61.79 10.1742 61.79 11.7273ZM59.6167 11.7273C59.6167 10.5436 59.4249 9.54687 59.0414 8.73722C58.6626 7.92282 58.1418 7.30729 57.4789 6.89062C56.8208 6.46922 56.075 6.25852 55.2417 6.25852C54.4036 6.25852 53.6555 6.46922 52.9974 6.89062C52.3392 7.30729 51.8184 7.92282 51.4349 8.73722C51.0561 9.54687 50.8667 10.5436 50.8667 11.7273C50.8667 12.911 51.0561 13.91 51.4349 14.7244C51.8184 15.5341 52.3392 16.1496 52.9974 16.571C53.6555 16.9877 54.4036 17.196 55.2417 17.196C56.075 17.196 56.8208 16.9877 57.4789 16.571C58.1418 16.1496 58.6626 15.5341 59.0414 14.7244C59.4249 13.91 59.6167 12.911 59.6167 11.7273ZM75.7699 9.04972C75.6326 8.61884 75.4479 8.23295 75.2159 7.89205C74.9886 7.5464 74.7164 7.25284 74.3991 7.01136C74.0819 6.76515 73.7197 6.57812 73.3125 6.45028C72.91 6.32244 72.4673 6.25852 71.9844 6.25852C71.1652 6.25852 70.4266 6.46922 69.7685 6.89062C69.1103 7.31203 68.5895 7.92992 68.206 8.74432C67.8272 9.55398 67.6378 10.5459 67.6378 11.7202C67.6378 12.8991 67.8295 13.8958 68.2131 14.7102C68.5966 15.5246 69.1222 16.1425 69.7898 16.5639C70.4574 16.9853 71.2173 17.196 72.0696 17.196C72.8603 17.196 73.5492 17.035 74.1364 16.7131C74.7282 16.3911 75.1851 15.9366 75.5071 15.3494C75.8338 14.7576 75.9972 14.0616 75.9972 13.2614L76.5653 13.3679H72.4034V11.5568H78.1207V13.2116C78.1207 14.4332 77.8603 15.4938 77.3395 16.3935C76.8234 17.2884 76.1084 17.9796 75.1946 18.4673C74.2855 18.955 73.2438 19.1989 72.0696 19.1989C70.7533 19.1989 69.598 18.8958 68.6037 18.2898C67.6141 17.6837 66.8423 16.8243 66.2884 15.7116C65.7344 14.5942 65.4574 13.2685 65.4574 11.7344C65.4574 10.5743 65.6184 9.53267 65.9403 8.60938C66.2623 7.68608 66.7145 6.90246 67.2969 6.25852C67.884 5.60985 68.5729 5.11506 69.3636 4.77415C70.1591 4.4285 71.0279 4.25568 71.9702 4.25568C72.7562 4.25568 73.4877 4.37169 74.1648 4.60369C74.8466 4.8357 75.4527 5.16477 75.983 5.59091C76.518 6.01705 76.9607 6.52367 77.3111 7.1108C77.6615 7.69318 77.8982 8.33949 78.0213 9.04972H75.7699ZM91.6603 4.45455H93.862V14.0213C93.862 15.0393 93.6229 15.9413 93.1447 16.7273C92.6665 17.5085 91.9941 18.1241 91.1276 18.5739C90.2612 19.0189 89.2455 19.2415 88.0808 19.2415C86.9207 19.2415 85.9075 19.0189 85.041 18.5739C84.1745 18.1241 83.5022 17.5085 83.0239 16.7273C82.5457 15.9413 82.3066 15.0393 82.3066 14.0213V4.45455H84.5012V13.8438C84.5012 14.5019 84.6456 15.0866 84.9344 15.598C85.228 16.1094 85.6423 16.5118 86.1773 16.8054C86.7124 17.0942 87.3469 17.2386 88.0808 17.2386C88.8194 17.2386 89.4562 17.0942 89.9913 16.8054C90.531 16.5118 90.943 16.1094 91.2271 15.598C91.5159 15.0866 91.6603 14.5019 91.6603 13.8438V4.45455ZM98.4527 19V4.45455H107.572V6.34375H100.647V10.7756H107.096V12.6577H100.647V17.1108H107.657V19H98.4527Z" fill="white"/>
<line y1="37.5" x2="109" y2="37.5" stroke="url(#paint0_linear_250_286)" stroke-width="3"/>
<defs>
<linearGradient id="paint0_linear_250_286" x1="0" y1="39" x2="109" y2="39" gradientUnits="userSpaceOnUse">
<stop stop-color="#F8D554"/>
<stop offset="1" stop-color="#ED6A5E"/>
</linearGradient>
</defs>
</svg>
