<svg width="178" height="37" viewBox="0 0 178 37" fill="none" xmlns="http://www.w3.org/2000/svg">
<path d="M166.284 11.012C166.284 11.012 166.26 10.9949 166.25 10.988C166.28 10.9265 166.315 10.8582 166.338 10.8035C166.513 10.4173 166.615 10.055 166.649 9.71665C166.724 8.96476 166.373 8.1992 165.59 7.41654C165.006 6.83212 164.467 6.44592 163.971 6.2682C163.746 6.18959 163.524 6.16225 163.302 6.19301C163.08 6.22377 162.906 6.29896 162.783 6.42541C162.687 6.52111 162.625 6.63389 162.598 6.76718C162.571 6.89705 162.584 7.01325 162.636 7.11237C162.813 7.43363 162.895 7.66604 162.885 7.813C162.875 7.95996 162.755 8.18211 162.526 8.48286C162.386 8.664 162.26 8.84172 162.151 9.00919C161.068 8.71185 159.927 8.5478 158.759 8.5478C156.552 8.5478 154.496 9.12539 152.764 10.1165L159.958 17.3108L166.284 11.012Z" fill="#EBECF1"/>
<path d="M169.672 21.7815C170.003 21.8703 170.352 21.9216 170.717 21.9216C172.709 21.9216 174.475 20.4759 174.475 18.6919C174.475 16.9078 172.709 15.4621 170.717 15.4621C170.403 15.4621 170.102 15.5032 169.812 15.5681C169.337 14.2967 168.569 13.1313 167.582 12.1299L161.17 18.5141L167.551 24.895C168.463 23.9825 169.19 22.9264 169.675 21.778L169.672 21.7815Z" fill="#EBECF1"/>
<path d="M163.971 30.732C164.463 30.5509 165.003 30.1681 165.59 29.5837C166.373 28.801 166.724 28.0355 166.649 27.2836C166.619 26.9452 166.513 26.583 166.338 26.1968C166.315 26.1421 166.28 26.0771 166.25 26.0156L159.958 19.7236L152.767 26.8837C154.496 27.8748 156.552 28.4524 158.759 28.4524C159.927 28.4524 161.068 28.2884 162.151 27.991C162.263 28.1585 162.386 28.3362 162.526 28.5174C162.755 28.8181 162.875 29.0403 162.885 29.1872C162.895 29.3342 162.813 29.5666 162.636 29.8879C162.584 29.987 162.571 30.1032 162.598 30.2331C162.625 30.3629 162.687 30.4757 162.783 30.5748C162.906 30.6979 163.08 30.7765 163.302 30.8072C163.524 30.838 163.749 30.8106 163.971 30.732Z" fill="#EBECF1"/>
<path d="M147.227 28.6195C147.336 28.5443 147.411 28.4554 147.445 28.3461C147.548 27.994 147.654 27.7685 147.763 27.6728C147.872 27.5771 148.115 27.5019 148.49 27.4506C149.392 27.331 150.062 27.1328 150.499 26.856C150.844 26.6372 151.117 26.316 151.322 25.899L151.329 25.9058L158.748 18.5168L151.326 11.0969L151.326 11.1004C151.114 10.6834 150.84 10.3621 150.495 10.1434C150.058 9.86657 149.389 9.66835 148.487 9.54873C148.111 9.49746 147.869 9.42569 147.759 9.32658C147.65 9.23088 147.541 9.00531 147.442 8.65329C147.408 8.54392 147.336 8.45506 147.223 8.37987C147.114 8.30468 146.991 8.27051 146.854 8.27051C146.68 8.27051 146.502 8.33886 146.321 8.47557C146.144 8.61228 146.004 8.78658 145.901 9.0019C145.679 9.47696 145.57 10.1297 145.57 10.9602C145.57 12.0676 145.864 12.8571 146.444 13.3355C146.704 13.5509 147.035 13.7354 147.431 13.8858C147.729 13.9986 148.145 14.125 148.689 14.2686C148.012 15.5536 147.63 16.9891 147.63 18.5065C147.63 20.024 148.012 21.456 148.689 22.7445C148.145 22.888 147.729 23.0145 147.431 23.1272C147.035 23.2776 146.704 23.4622 146.444 23.6775C145.86 24.1526 145.57 24.9455 145.57 26.0528C145.57 26.8799 145.679 27.5327 145.901 28.0111C146.004 28.2264 146.144 28.4042 146.321 28.5375C146.499 28.6742 146.677 28.7425 146.854 28.7425C146.991 28.7425 147.114 28.7049 147.223 28.6332L147.227 28.6195Z" fill="#EBECF1"/>
<path d="M12.1139 14.235H2.52887V13.275H12.1139V14.235ZM13.4489 23.04V24H1.20887V23.04H6.75887V19.89H2.40887V18.945H4.79387L4.28387 15.495L5.43887 15.375L5.84387 18.945H8.79887L9.20387 15.375L10.3739 15.495L9.86387 18.945H12.2489V19.89H7.89887V23.04H13.4489ZM17.3879 13.275H26.1779V14.235H18.5279V16.44H25.9679V17.355H18.5429V19.56H26.4329V20.52H17.3879V13.275ZM15.6329 23.025H27.8729V24H15.6329V23.025ZM40.8719 13.59H31.4819V12.705H40.8719V13.59ZM42.2969 18.495V19.44H30.0569V18.495H35.6069V17.145H31.3469V16.275H33.5519L33.1619 14.28L34.3019 14.175L34.6169 16.275H37.7219L38.0369 14.175L39.1769 14.28L38.7869 16.275H41.0069V17.145H36.7469V18.495H42.2969ZM33.0419 25.17H40.8419V26.1H32.7119C32.4719 26.1 32.2869 26.035 32.1569 25.905C32.0269 25.775 31.9619 25.585 31.9619 25.335V22.905H39.3569V21.525H31.8719V20.61H40.4519V23.775H33.0419V25.17ZM55.6409 12.465V25.485H54.5009V12.465H55.6409ZM52.7909 20.925L52.9409 21.84C51.3909 22.14 49.4209 22.29 47.0309 22.29H45.4109V17.265H50.1359V14.415H45.3509V13.455H51.2759V18.21H46.5359V21.36H47.0159C49.2859 21.36 51.2109 21.215 52.7909 20.925ZM71.145 23.04V24H58.905V23.04H64.455V20.055C63.535 19.995 62.765 19.805 62.145 19.485C61.525 19.155 61.06 18.735 60.75 18.225C60.45 17.705 60.3 17.13 60.3 16.5C60.3 15.83 60.47 15.23 60.81 14.7C61.16 14.16 61.69 13.735 62.4 13.425C63.11 13.105 63.985 12.945 65.025 12.945C66.065 12.945 66.94 13.105 67.65 13.425C68.36 13.735 68.885 14.16 69.225 14.7C69.575 15.23 69.75 15.83 69.75 16.5C69.75 17.13 69.595 17.705 69.285 18.225C68.985 18.735 68.525 19.155 67.905 19.485C67.285 19.805 66.515 19.995 65.595 20.055V23.04H71.145ZM65.025 19.14C66.195 19.14 67.07 18.905 67.65 18.435C68.23 17.965 68.52 17.375 68.52 16.665V16.335C68.52 15.625 68.23 15.035 67.65 14.565C67.07 14.095 66.195 13.86 65.025 13.86C63.855 13.86 62.98 14.095 62.4 14.565C61.82 15.035 61.53 15.625 61.53 16.335V16.665C61.53 17.375 61.82 17.965 62.4 18.435C62.98 18.905 63.855 19.14 65.025 19.14ZM90.1639 23.04V24H77.9239V23.04H83.4739V19.98H79.6039V13.155H80.7439V15.63H87.3289V13.155H88.4539V19.98H84.6139V23.04H90.1639ZM80.7439 19.035H87.3289V16.575H80.7439V19.035ZM103.523 12.465V25.485H102.398V18.075H99.7429V17.115H102.398V12.465H103.523ZM100.328 20.925L100.463 21.84C98.9929 22.14 97.0979 22.29 94.7779 22.29H93.2029V17.28H97.7329V14.415H93.1579V13.455H98.8579V18.21H94.3279V21.36H94.8229C96.9829 21.36 98.8179 21.215 100.328 20.925ZM119.402 18.555H117.242V25.515H116.102V12.495H117.242V17.595H119.402V18.555ZM107.417 13.53H113.252V15.615C113.252 16.725 113.087 17.665 112.757 18.435C112.427 19.205 111.867 19.925 111.077 20.595C110.297 21.255 109.177 21.98 107.717 22.77L107.042 21.915C108.402 21.195 109.442 20.54 110.162 19.95C110.882 19.36 111.387 18.735 111.677 18.075C111.967 17.415 112.112 16.6 112.112 15.63V14.505H107.417V13.53ZM131.216 12.465H132.356V25.485H131.216V12.465ZM121.781 21.9C123.161 21.19 124.216 20.54 124.946 19.95C125.676 19.36 126.186 18.735 126.476 18.075C126.776 17.415 126.926 16.6 126.926 15.63V14.505H122.156V13.53H128.066V15.615C128.066 16.725 127.896 17.665 127.556 18.435C127.226 19.205 126.661 19.925 125.861 20.595C125.071 21.255 123.936 21.98 122.456 22.77L121.781 21.9Z" fill="#EBECF1"/>
</svg>
