<svg width="238" height="40" viewBox="0 0 238 40" fill="none" xmlns="http://www.w3.org/2000/svg">
<path d="M22.179 4.003V15.287H21.204V4.003H22.179ZM18.136 5.238H14.652V4.445H18.136V5.238ZM15.9 7.188H13.339V6.395H19.41V7.188H16.875C16.849 7.74267 16.6887 8.23667 16.394 8.67L16.459 8.709L16.706 8.54C16.81 8.462 16.914 8.423 17.018 8.423C17.122 8.423 17.2173 8.45333 17.304 8.514L19.67 9.983L18.981 10.62L16.524 9.034C16.472 8.99067 16.3983 8.969 16.303 8.969C16.2077 8.969 16.134 8.99067 16.082 9.034C15.848 9.28533 15.5447 9.54967 15.172 9.827C14.7993 10.0957 14.314 10.4077 13.716 10.763L13.027 10.152C13.7463 9.75333 14.3053 9.40233 14.704 9.099C15.1027 8.787 15.393 8.48367 15.575 8.189C15.7657 7.88567 15.874 7.552 15.9 7.188ZM20.268 11.92L20.359 12.7C19.3797 12.856 18.201 12.9773 16.823 13.064C15.4537 13.142 14.0453 13.181 12.598 13.181L12.507 12.349C13.5297 12.349 14.6563 12.3273 15.887 12.284V10.438H16.836V12.245C18.24 12.1583 19.384 12.05 20.268 11.92ZM34.4718 12.57H33.4708V4.003H34.4718V12.57ZM28.2448 8.033C28.1842 8.033 28.1322 8.059 28.0888 8.111C27.8635 8.501 27.5645 8.904 27.1918 9.32C26.8192 9.736 26.3165 10.243 25.6838 10.841L24.9428 10.204C25.6882 9.528 26.2602 8.94733 26.6588 8.462C27.0575 7.968 27.3435 7.48267 27.5168 7.006C27.6988 6.52067 27.7898 5.97033 27.7898 5.355V4.575H28.7908V5.407C28.7908 6.24767 28.6392 7.00167 28.3358 7.669L28.4008 7.708L28.6088 7.526C28.7042 7.448 28.7952 7.409 28.8818 7.409C28.9858 7.409 29.0768 7.45233 29.1548 7.539L31.6638 9.957L30.9488 10.646L28.4138 8.111C28.3618 8.059 28.3055 8.033 28.2448 8.033ZM34.7058 14.715V15.534H27.8938C27.6858 15.534 27.5255 15.4777 27.4128 15.365C27.3002 15.2523 27.2438 15.0877 27.2438 14.871V11.634H28.2448V14.715H34.7058ZM46.7821 14V12.219H42.4011V11.257L46.1971 4.926H47.8221V11.309H49.1351V12.219H47.8221V14H46.7821ZM43.4281 11.309H46.7821V5.771H46.7171L43.4281 11.309ZM60.8691 4.003V15.287H59.9071V9.229H58.1651V14.975H57.2031V4.198H58.1651V8.41H59.9071V4.003H60.8691ZM51.4571 5.16H55.7731V6.928C55.7731 7.84667 55.6517 8.62233 55.4091 9.255C55.1751 9.88767 54.7764 10.4857 54.2131 11.049C53.6497 11.6037 52.8437 12.2277 51.7951 12.921L51.1581 12.245C52.1374 11.621 52.8827 11.062 53.3941 10.568C53.9141 10.0653 54.2781 9.541 54.4861 8.995C54.6941 8.44033 54.7981 7.76 54.7981 6.954V5.966H51.4571V5.16ZM71.7969 4.003H72.7719V15.287H71.7969V4.003ZM63.6849 7.383C63.6849 6.84567 63.8192 6.37333 64.0879 5.966C64.3565 5.55 64.7249 5.23367 65.1929 5.017C65.6609 4.79167 66.1895 4.679 66.7789 4.679C67.3682 4.679 67.8969 4.79167 68.3649 5.017C68.8329 5.23367 69.2012 5.55 69.4699 5.966C69.7385 6.37333 69.8729 6.84567 69.8729 7.383C69.8729 7.92033 69.7385 8.39267 69.4699 8.8C69.2012 9.20733 68.8329 9.52367 68.3649 9.749C67.8969 9.96567 67.3682 10.074 66.7789 10.074C66.1895 10.074 65.6609 9.96567 65.1929 9.749C64.7249 9.52367 64.3565 9.20733 64.0879 8.8C63.8192 8.39267 63.6849 7.92033 63.6849 7.383ZM68.8329 7.539V7.227C68.8329 6.707 68.6422 6.28667 68.2609 5.966C67.8795 5.64533 67.3855 5.485 66.7789 5.485C66.1722 5.485 65.6782 5.64533 65.2969 5.966C64.9155 6.28667 64.7249 6.707 64.7249 7.227V7.539C64.7249 8.059 64.9155 8.47933 65.2969 8.8C65.6782 9.12067 66.1722 9.281 66.7789 9.281C67.3855 9.281 67.8795 9.12067 68.2609 8.8C68.6422 8.47933 68.8329 8.059 68.8329 7.539ZM63.1389 12.076C64.6122 12.076 66.0335 12.0413 67.4029 11.972C68.7722 11.9027 69.9335 11.7943 70.8869 11.647L70.9909 12.44C70.0115 12.596 68.8329 12.7173 67.4549 12.804C66.0855 12.882 64.6772 12.921 63.2299 12.921L63.1389 12.076ZM88.8132 5.199H82.1702V4.367H89.7752V5.004C89.7752 6.13933 89.6409 7.30067 89.3722 8.488L88.4362 8.358C88.6789 7.33533 88.8045 6.28233 88.8132 5.199ZM91.3612 9.398V10.256H80.7532V9.398H85.1082V7.149H86.0832V9.398H91.3612ZM89.9052 13.662C89.9052 14.1127 89.7579 14.5113 89.4632 14.858C89.1772 15.2133 88.7439 15.4907 88.1632 15.69C87.5912 15.8893 86.8892 15.989 86.0572 15.989C85.2252 15.989 84.5189 15.8893 83.9382 15.69C83.3662 15.4907 82.9329 15.2133 82.6382 14.858C82.3522 14.5113 82.2092 14.1127 82.2092 13.662C82.2092 13.2113 82.3522 12.8127 82.6382 12.466C82.9329 12.1193 83.3662 11.8463 83.9382 11.647C84.5189 11.4477 85.2252 11.348 86.0572 11.348C86.8892 11.348 87.5912 11.4477 88.1632 11.647C88.7439 11.8463 89.1772 12.1193 89.4632 12.466C89.7579 12.8127 89.9052 13.2113 89.9052 13.662ZM88.8652 13.571C88.8652 13.1637 88.6312 12.8213 88.1632 12.544C87.7039 12.2667 87.0019 12.128 86.0572 12.128C85.1212 12.128 84.4149 12.2667 83.9382 12.544C83.4702 12.8213 83.2362 13.1637 83.2362 13.571V13.766C83.2362 14.1647 83.4702 14.5027 83.9382 14.78C84.4149 15.0573 85.1212 15.196 86.0572 15.196C87.0019 15.196 87.7039 15.0573 88.1632 14.78C88.6312 14.5027 88.8652 14.1647 88.8652 13.766V13.571ZM102.666 4.003V15.287H101.678V4.003H102.666ZM97.232 8.774C97.3533 8.774 97.453 8.82167 97.531 8.917L100.079 11.907L99.338 12.544L96.764 9.45C96.7207 9.398 96.6687 9.372 96.608 9.372C96.556 9.372 96.5083 9.398 96.465 9.45C96.231 9.92667 95.9233 10.412 95.542 10.906C95.1607 11.4 94.6407 12.0067 93.982 12.726L93.241 12.102C93.995 11.3133 94.5757 10.6287 94.983 10.048C95.399 9.46733 95.698 8.891 95.88 8.319C96.062 7.73833 96.153 7.07967 96.153 6.343V5.849H93.592V5.017H99.689V5.849H97.141V6.382C97.141 7.36133 96.9893 8.23233 96.686 8.995L96.751 9.034L96.946 8.878C97.0413 8.80867 97.1367 8.774 97.232 8.774ZM116.181 9.281H114.309V15.313H113.321V4.029H114.309V8.449H116.181V9.281ZM109.07 8.553C109.182 8.553 109.278 8.60067 109.356 8.696L111.891 11.946L111.137 12.609L108.589 9.268C108.563 9.216 108.519 9.19 108.459 9.19C108.415 9.19 108.372 9.216 108.329 9.268C108.103 9.77067 107.8 10.2907 107.419 10.828C107.037 11.3567 106.522 12.0067 105.872 12.778L105.118 12.141C105.872 11.283 106.448 10.5507 106.847 9.944C107.254 9.32867 107.544 8.71333 107.718 8.098C107.9 7.48267 107.991 6.77633 107.991 5.979V4.757H108.992V5.966C108.992 6.99733 108.84 7.93333 108.537 8.774L108.602 8.813L108.797 8.657C108.892 8.58767 108.983 8.553 109.07 8.553ZM128.435 7.123V7.955H126.628V11.309H125.64V4.003H126.628V7.123H128.435ZM122.663 5.095H119.192V4.276H122.663V5.095ZM120.843 10.867C120.305 10.867 119.833 10.7847 119.426 10.62C119.018 10.4553 118.702 10.2257 118.477 9.931C118.26 9.63633 118.152 9.30267 118.152 8.93C118.152 8.55733 118.243 8.23667 118.425 7.968C118.615 7.69067 118.897 7.474 119.27 7.318V7.24H117.294V6.447H124.34V7.24H122.416V7.318C122.788 7.474 123.066 7.69067 123.248 7.968C123.438 8.23667 123.534 8.55733 123.534 8.93C123.534 9.30267 123.421 9.63633 123.196 9.931C122.979 10.2257 122.667 10.4553 122.26 10.62C121.852 10.7847 121.38 10.867 120.843 10.867ZM120.713 10.048H120.973C121.458 10.048 121.852 9.931 122.156 9.697C122.459 9.45433 122.611 9.12067 122.611 8.696C122.611 8.26267 122.459 7.929 122.156 7.695C121.852 7.45233 121.458 7.331 120.973 7.331H120.713C120.227 7.331 119.833 7.45233 119.53 7.695C119.226 7.929 119.075 8.26267 119.075 8.696C119.075 9.12067 119.226 9.45433 119.53 9.697C119.833 9.931 120.227 10.048 120.713 10.048ZM126.719 13.74C126.719 14.4073 126.411 14.9447 125.796 15.352C125.18 15.7593 124.292 15.963 123.131 15.963C121.969 15.963 121.077 15.7593 120.453 15.352C119.837 14.9447 119.53 14.4073 119.53 13.74C119.53 13.3153 119.664 12.9383 119.933 12.609C120.201 12.2797 120.604 12.0197 121.142 11.829C121.688 11.6383 122.351 11.543 123.131 11.543C123.911 11.543 124.569 11.6383 125.107 11.829C125.644 12.0197 126.047 12.2797 126.316 12.609C126.584 12.9383 126.719 13.3153 126.719 13.74ZM125.679 13.662C125.679 13.2893 125.466 12.9773 125.042 12.726C124.626 12.466 123.989 12.336 123.131 12.336C122.281 12.336 121.644 12.466 121.22 12.726C120.795 12.9773 120.583 13.2893 120.583 13.662V13.844C120.583 14.2167 120.795 14.5287 121.22 14.78C121.644 15.04 122.281 15.17 123.131 15.17C123.989 15.17 124.626 15.04 125.042 14.78C125.466 14.5287 125.679 14.2167 125.679 13.844V13.662ZM131.12 6.083C131.12 5.45033 131.445 4.94767 132.095 4.575C132.745 4.19367 133.72 4.003 135.02 4.003C136.32 4.003 137.295 4.19367 137.945 4.575C138.595 4.94767 138.92 5.45033 138.92 6.083C138.92 6.71567 138.595 7.22267 137.945 7.604C137.295 7.98533 136.32 8.176 135.02 8.176C133.72 8.176 132.745 7.98533 132.095 7.604C131.445 7.22267 131.12 6.71567 131.12 6.083ZM137.867 6.148V6.005C137.867 5.63233 137.629 5.329 137.152 5.095C136.684 4.85233 135.974 4.731 135.02 4.731C134.067 4.731 133.352 4.85233 132.875 5.095C132.407 5.329 132.173 5.63233 132.173 6.005V6.148C132.173 6.52067 132.407 6.82833 132.875 7.071C133.352 7.305 134.067 7.422 135.02 7.422C135.974 7.422 136.684 7.305 137.152 7.071C137.629 6.82833 137.867 6.52067 137.867 6.148ZM140.324 9.073V9.905H129.716V9.073H140.324ZM131.367 15.157V13.025H137.776V11.803H131.289V10.997H138.725V13.779H132.316V15.014H139.063V15.82H132.017C131.809 15.82 131.649 15.7637 131.536 15.651C131.424 15.5383 131.367 15.3737 131.367 15.157ZM148.566 8.267L148.046 7.552C149.172 7.14467 150.039 6.78067 150.646 6.46C151.252 6.13067 151.677 5.80567 151.92 5.485C152.162 5.15567 152.284 4.77867 152.284 4.354V4.081H153.259V4.393C153.259 4.74833 153.207 5.069 153.103 5.355C152.999 5.641 152.834 5.90533 152.609 6.148L152.7 6.174L153.025 5.953C153.155 5.849 153.285 5.797 153.415 5.797C153.51 5.797 153.601 5.823 153.688 5.875L157.328 7.513L156.795 8.241L152.986 6.46C152.847 6.39933 152.73 6.369 152.635 6.369C152.522 6.369 152.396 6.40367 152.258 6.473C151.902 6.759 151.43 7.045 150.841 7.331C150.26 7.60833 149.502 7.92033 148.566 8.267ZM157.991 9.125V9.944H147.383V9.125H157.991ZM149.97 15.014H156.73V15.82H149.684C149.476 15.82 149.315 15.7637 149.203 15.651C149.09 15.5383 149.034 15.3737 149.034 15.157V13.038H155.443V11.829H148.956V11.023H156.392V13.792H149.97V15.014ZM170.57 9.281H168.698V15.313H167.71V4.029H168.698V8.449H170.57V9.281ZM166.423 11.335L166.553 12.128C165.235 12.388 163.563 12.518 161.535 12.518H160.157V8.163H164.2V5.693H160.105V4.861H165.175V8.982H161.132V11.712H161.561C163.459 11.712 165.079 11.5863 166.423 11.335ZM180.548 4.003H181.536V15.287H180.548V4.003ZM172.202 8.566C172.202 7.30067 172.48 6.343 173.034 5.693C173.598 5.043 174.339 4.718 175.257 4.718C176.167 4.718 176.9 5.043 177.454 5.693C178.018 6.343 178.299 7.30067 178.299 8.566C178.299 9.41533 178.169 10.1303 177.909 10.711C177.649 11.283 177.29 11.712 176.83 11.998C176.371 12.2753 175.847 12.414 175.257 12.414C174.339 12.414 173.598 12.089 173.034 11.439C172.48 10.789 172.202 9.83133 172.202 8.566ZM177.246 9.073V8.059C177.246 7.253 177.06 6.63333 176.687 6.2C176.323 5.76667 175.847 5.55 175.257 5.55C174.659 5.55 174.174 5.76667 173.801 6.2C173.437 6.62467 173.255 7.24433 173.255 8.059V9.073C173.255 9.88767 173.437 10.5117 173.801 10.945C174.174 11.3697 174.659 11.582 175.257 11.582C175.847 11.582 176.323 11.3653 176.687 10.932C177.06 10.4987 177.246 9.879 177.246 9.073ZM193.335 10.23H185.639V4.783H193.218V5.628H186.627V9.385H193.335V10.23ZM194.713 13.155V14H184.105V13.155H194.713ZM204.289 6.031V4.913H197.945V4.185H205.238V6.746H198.972V7.851H205.563V8.592H198.01V6.031H204.289ZM206.954 9.567V10.334H196.346V9.567H206.954ZM197.971 15.196V13.233H204.445V12.141H197.893V11.374H205.368V13.961H198.894V15.079H205.706V15.859H198.621C198.413 15.859 198.253 15.8027 198.14 15.69C198.027 15.5773 197.971 15.4127 197.971 15.196ZM224.62 10.321V11.127H214.012V10.321H218.835V9.099H215.624V4.237H222.995V5.017H216.573V6.291H222.8V7.045H216.586V8.319H223.203V9.099H219.81V10.321H224.62ZM223.164 14C223.164 14.6153 222.835 15.105 222.176 15.469C221.518 15.833 220.564 16.015 219.316 16.015C218.068 16.015 217.115 15.833 216.456 15.469C215.798 15.105 215.468 14.6153 215.468 14C215.468 13.3933 215.798 12.908 216.456 12.544C217.115 12.1713 218.068 11.985 219.316 11.985C220.564 11.985 221.518 12.1713 222.176 12.544C222.835 12.908 223.164 13.3933 223.164 14ZM222.124 13.922C222.124 13.584 221.89 13.3023 221.422 13.077C220.963 12.8517 220.261 12.739 219.316 12.739C218.38 12.739 217.674 12.8517 217.197 13.077C216.729 13.3023 216.495 13.584 216.495 13.922V14.078C216.495 14.416 216.729 14.6977 217.197 14.923C217.674 15.1483 218.38 15.261 219.316 15.261C220.261 15.261 220.963 15.1483 221.422 14.923C221.89 14.6977 222.124 14.416 222.124 14.078V13.922ZM236.276 4.003V15.287H235.314V9.398H233.624V14.975H232.675V4.198H233.624V8.579H235.314V4.003H236.276ZM230.881 5.693H227.54V4.887H230.881V5.693ZM226.175 7.149H232.051V7.929H230.504V7.994C231.189 8.36667 231.531 9.073 231.531 10.113C231.531 10.9277 231.31 11.5647 230.868 12.024C230.435 12.4747 229.863 12.7 229.152 12.7C228.45 12.7 227.878 12.4747 227.436 12.024C227.003 11.5647 226.786 10.9277 226.786 10.113C226.786 9.073 227.124 8.36667 227.8 7.994V7.929H226.175V7.149ZM230.595 9.645C230.595 9.125 230.465 8.72633 230.205 8.449C229.945 8.17167 229.594 8.033 229.152 8.033C228.71 8.033 228.359 8.17167 228.099 8.449C227.848 8.72633 227.722 9.125 227.722 9.645V10.269C227.722 10.7803 227.852 11.179 228.112 11.465C228.381 11.751 228.728 11.894 229.152 11.894C229.577 11.894 229.924 11.751 230.192 11.465C230.461 11.179 230.595 10.7803 230.595 10.269V9.645ZM23.44 28.462H21.724V31.764H20.749V24.003H21.724V27.63H23.44V28.462ZM17.746 24.861H14.327V24.094H17.746V24.861ZM19.891 31.114C18.929 31.27 17.772 31.3913 16.42 31.478C15.0767 31.556 13.69 31.595 12.26 31.595L12.182 30.789C13.4907 30.789 14.5957 30.7673 15.497 30.724V29.814C14.821 29.7533 14.288 29.58 13.898 29.294C13.508 28.9993 13.313 28.631 13.313 28.189C13.313 27.5477 13.651 27.1013 14.327 26.85V26.772H12.533V26.031H19.306V26.772H17.59V26.85C18.266 27.1187 18.604 27.565 18.604 28.189C18.604 28.6223 18.409 28.9863 18.019 29.281C17.629 29.567 17.1003 29.7403 16.433 29.801V30.685C17.7677 30.6157 18.89 30.5117 19.8 30.373L19.891 31.114ZM15.77 29.06H16.147C16.6063 29.06 16.979 28.9647 17.265 28.774C17.5597 28.5747 17.707 28.2973 17.707 27.942C17.707 27.5867 17.564 27.3137 17.278 27.123C16.992 26.9237 16.615 26.824 16.147 26.824H15.77C15.302 26.824 14.9207 26.9237 14.626 27.123C14.34 27.3137 14.197 27.5867 14.197 27.942C14.197 28.2973 14.34 28.5747 14.626 28.774C14.9207 28.9647 15.302 29.06 15.77 29.06ZM14.223 32.453H21.724V35.885H20.762V33.22H14.223V32.453ZM34.4718 24.003V32.57H33.4708V24.003H34.4718ZM25.1118 27.513C25.1118 26.9063 25.2375 26.3777 25.4888 25.927C25.7488 25.4763 26.1042 25.134 26.5548 24.9C27.0055 24.6573 27.5212 24.536 28.1018 24.536C28.6738 24.536 29.1852 24.6573 29.6358 24.9C30.0952 25.134 30.4505 25.4763 30.7018 25.927C30.9618 26.3777 31.0918 26.9063 31.0918 27.513C31.0918 28.111 30.9618 28.6353 30.7018 29.086C30.4505 29.5367 30.0952 29.8833 29.6358 30.126C29.1852 30.36 28.6738 30.477 28.1018 30.477C27.5212 30.477 27.0055 30.36 26.5548 30.126C26.1042 29.8833 25.7488 29.541 25.4888 29.099C25.2375 28.6483 25.1118 28.1197 25.1118 27.513ZM30.0388 27.786V27.24C30.0388 26.668 29.8568 26.213 29.4928 25.875C29.1375 25.5283 28.6738 25.355 28.1018 25.355C27.5212 25.355 27.0488 25.5283 26.6848 25.875C26.3295 26.2217 26.1518 26.6767 26.1518 27.24V27.786C26.1518 28.3493 26.3338 28.8043 26.6978 29.151C27.0618 29.489 27.5298 29.658 28.1018 29.658C28.6738 29.658 29.1375 29.489 29.4928 29.151C29.8568 28.8043 30.0388 28.3493 30.0388 27.786ZM27.2438 34.871V31.634H28.2448V34.715H34.7058V35.534H27.8938C27.6858 35.534 27.5255 35.4777 27.4128 35.365C27.3002 35.2523 27.2438 35.0877 27.2438 34.871ZM51.6439 29.281H49.7719V35.313H48.7839V24.029H49.7719V28.449H51.6439V29.281ZM41.2569 24.926H46.3139V26.733C46.3139 27.695 46.1709 28.5097 45.8849 29.177C45.5989 29.8443 45.1136 30.4683 44.4289 31.049C43.7529 31.621 42.7822 32.2493 41.5169 32.934L40.9319 32.193C42.1106 31.569 43.0119 31.0013 43.6359 30.49C44.2599 29.9787 44.6976 29.437 44.9489 28.865C45.2002 28.293 45.3259 27.5867 45.3259 26.746V25.771H41.2569V24.926ZM62.0387 28.137H54.5637V24.315H55.5387V27.331H62.0387V28.137ZM63.5467 29.476V30.334H52.9387V29.476H63.5467ZM62.0907 33.714C62.0907 34.3987 61.7614 34.949 61.1027 35.365C60.4441 35.781 59.4907 35.989 58.2427 35.989C56.9947 35.989 56.0414 35.781 55.3827 35.365C54.7241 34.949 54.3947 34.3987 54.3947 33.714C54.3947 33.2807 54.5377 32.895 54.8237 32.557C55.1184 32.219 55.5517 31.9547 56.1237 31.764C56.7044 31.5733 57.4107 31.478 58.2427 31.478C59.0747 31.478 59.7767 31.5733 60.3487 31.764C60.9294 31.9547 61.3627 32.219 61.6487 32.557C61.9434 32.895 62.0907 33.2807 62.0907 33.714ZM61.0507 33.636C61.0507 33.246 60.8167 32.921 60.3487 32.661C59.8894 32.3923 59.1874 32.258 58.2427 32.258C57.3067 32.258 56.6004 32.3923 56.1237 32.661C55.6557 32.921 55.4217 33.246 55.4217 33.636V33.818C55.4217 34.208 55.6557 34.533 56.1237 34.793C56.6004 35.0617 57.3067 35.196 58.2427 35.196C59.1874 35.196 59.8894 35.0617 60.3487 34.793C60.8167 34.533 61.0507 34.208 61.0507 33.818V33.636Z" fill="white"/>
<rect y="4" width="2" height="10" fill="white"/>
</svg>
