<svg width="238" height="20" viewBox="0 0 238 20" fill="none" xmlns="http://www.w3.org/2000/svg">
<path d="M21.308 10.633V4.003H22.283V13.103H21.308V11.387H18.461V10.633H21.308ZM15.679 9.58C14.5697 9.62333 13.5557 9.645 12.637 9.645L12.546 8.839C14.3747 8.839 16.082 8.787 17.668 8.683C17.9193 7.721 18.0493 6.71567 18.058 5.667V5.42H13.508V4.627H18.994V5.511C18.994 6.499 18.877 7.53033 18.643 8.605C19.241 8.553 19.7827 8.488 20.268 8.41L20.359 9.177C19.241 9.34167 18.0017 9.463 16.641 9.541V11.998H15.679V9.58ZM22.517 14.728V15.534H15.575C15.367 15.534 15.2067 15.4777 15.094 15.365C14.9813 15.2523 14.925 15.0877 14.925 14.871V12.557H15.9V14.728H22.517ZM34.4718 4.003V10.776H33.4838V8.956H31.1698V8.15H33.4838V6.486H31.1698V5.68H33.4838V4.003H34.4718ZM27.9848 10.217C27.4128 10.217 26.9058 10.1 26.4638 9.866C26.0218 9.632 25.6752 9.29833 25.4238 8.865C25.1725 8.43167 25.0468 7.92033 25.0468 7.331C25.0468 6.74167 25.1725 6.23033 25.4238 5.797C25.6752 5.36367 26.0218 5.03433 26.4638 4.809C26.9058 4.575 27.4128 4.458 27.9848 4.458C28.5568 4.458 29.0638 4.575 29.5058 4.809C29.9478 5.03433 30.2945 5.36367 30.5458 5.797C30.7972 6.23033 30.9228 6.74167 30.9228 7.331C30.9228 7.92033 30.7972 8.43167 30.5458 8.865C30.2945 9.29833 29.9478 9.632 29.5058 9.866C29.0638 10.1 28.5568 10.217 27.9848 10.217ZM27.9848 9.424C28.5482 9.424 29.0032 9.25933 29.3498 8.93C29.7052 8.592 29.8828 8.14567 29.8828 7.591V7.084C29.8828 6.52933 29.7095 6.08733 29.3628 5.758C29.0162 5.42 28.5568 5.251 27.9848 5.251C27.4128 5.251 26.9492 5.42 26.5938 5.758C26.2472 6.08733 26.0738 6.52933 26.0738 7.084V7.591C26.0738 8.137 26.2472 8.579 26.5938 8.917C26.9492 9.255 27.4128 9.424 27.9848 9.424ZM27.0228 11.478H34.4718V15.859H33.4968V12.31H27.0228V11.478ZM45.7246 8.514H43.1766V7.734H45.7246V6.226H43.1766V5.446H45.7246V4.003H46.7126V9.957H45.7246V8.514ZM42.7736 9.541H37.5476V4.406H38.4836V6.148H41.8376V4.393H42.7736V9.541ZM41.8376 6.941H38.4836V8.748H41.8376V6.941ZM47.0246 14.975V15.82H40.1216C39.9136 15.82 39.7533 15.7637 39.6406 15.651C39.528 15.5383 39.4716 15.3737 39.4716 15.157V12.817H45.7116V11.504H39.3936V10.659H46.7126V13.649H40.4726V14.975H47.0246ZM57.7747 5.16H54.2387V4.367H62.2467V5.16H58.7497C58.7324 5.76667 58.5461 6.278 58.1907 6.694L58.2557 6.72L58.5287 6.525C58.6501 6.447 58.7627 6.408 58.8667 6.408C58.9534 6.408 59.0574 6.434 59.1787 6.486L62.7277 8.137L62.2077 8.852L58.4897 7.058C58.3771 6.99733 58.2644 6.967 58.1517 6.967C58.0304 6.967 57.9221 6.99733 57.8267 7.058C57.4887 7.344 57.0337 7.63433 56.4617 7.929C55.8897 8.215 55.1574 8.53133 54.2647 8.878L53.7577 8.176C54.7891 7.786 55.5864 7.43933 56.1497 7.136C56.7131 6.824 57.1161 6.51633 57.3587 6.213C57.6101 5.90967 57.7487 5.55867 57.7747 5.16ZM58.7367 10.542V11.582C59.8287 11.6427 60.6607 11.868 61.2327 12.258C61.8047 12.648 62.0907 13.1507 62.0907 13.766C62.0907 14.1993 61.9434 14.5807 61.6487 14.91C61.3627 15.248 60.9294 15.5123 60.3487 15.703C59.7767 15.8937 59.0747 15.989 58.2427 15.989C57.4107 15.989 56.7044 15.8937 56.1237 15.703C55.5517 15.5123 55.1184 15.248 54.8237 14.91C54.5377 14.5807 54.3947 14.1993 54.3947 13.766C54.3947 13.1507 54.6807 12.648 55.2527 12.258C55.8247 11.868 56.6567 11.6427 57.7487 11.582V10.542H52.9387V9.71H63.5467V10.542H58.7367ZM58.2427 12.336C57.2981 12.336 56.5874 12.466 56.1107 12.726C55.6427 12.986 55.4087 13.3067 55.4087 13.688V13.87C55.4087 14.2427 55.6427 14.559 56.1107 14.819C56.5874 15.079 57.2981 15.209 58.2427 15.209C59.1874 15.209 59.8937 15.079 60.3617 14.819C60.8297 14.559 61.0637 14.2427 61.0637 13.87V13.688C61.0637 13.298 60.8297 12.9773 60.3617 12.726C59.9024 12.466 59.1961 12.336 58.2427 12.336ZM73.3695 5.784H66.5055V4.939H74.3445V5.862C74.3445 7.786 74.1582 9.619 73.7855 11.361L72.8235 11.205C73.1875 9.44567 73.3695 7.67767 73.3695 5.901V5.784ZM75.7875 13.168V14H65.1795V13.168H69.3395V8.995H70.3145V13.168H75.7875ZM87.4434 4.003V15.287H86.4814V9.229H84.7654V14.975H83.8164V4.198H84.7654V8.41H86.4814V4.003H87.4434ZM77.8624 5.134H82.4774V12.115H77.8624V5.134ZM78.8244 11.296H81.5154V5.953H78.8244V11.296ZM100.62 6.915V7.747H98.8132V10.789H97.8252V4.003H98.8132V6.915H100.62ZM90.4412 10.386L89.7132 9.762C90.4412 9.19 91.0045 8.696 91.4032 8.28C91.8019 7.85533 92.0879 7.43933 92.2612 7.032C92.4432 6.62467 92.5342 6.161 92.5342 5.641V5.524H90.0512V4.705H95.9922V5.524H93.5222V5.693C93.5222 6.40367 93.3705 7.04067 93.0672 7.604L93.1452 7.656L93.3402 7.5C93.4355 7.43067 93.5265 7.396 93.6132 7.396C93.7172 7.396 93.8212 7.43933 93.9252 7.526L96.3562 9.541L95.6282 10.178L93.1582 8.072C93.0975 8.02 93.0325 7.994 92.9632 7.994C92.9112 7.994 92.8549 8.01567 92.7942 8.059C92.5515 8.397 92.2439 8.748 91.8712 9.112C91.4985 9.476 91.0219 9.90067 90.4412 10.386ZM98.9042 13.48C98.9042 13.948 98.7699 14.364 98.5012 14.728C98.2325 15.1007 97.8295 15.391 97.2922 15.599C96.7549 15.8157 96.0962 15.924 95.3162 15.924C94.5449 15.924 93.8862 15.8157 93.3402 15.599C92.8029 15.391 92.3955 15.1007 92.1182 14.728C91.8495 14.364 91.7152 13.948 91.7152 13.48C91.7152 13.012 91.8495 12.596 92.1182 12.232C92.3955 11.8593 92.8029 11.569 93.3402 11.361C93.8862 11.1443 94.5449 11.036 95.3162 11.036C96.0962 11.036 96.7549 11.1443 97.2922 11.361C97.8295 11.569 98.2325 11.8593 98.5012 12.232C98.7699 12.596 98.9042 13.012 98.9042 13.48ZM97.8772 13.376C97.8772 12.934 97.6649 12.5657 97.2402 12.271C96.8155 11.9677 96.1742 11.816 95.3162 11.816C94.4582 11.816 93.8169 11.9677 93.3922 12.271C92.9675 12.5657 92.7552 12.934 92.7552 13.376V13.597C92.7552 14.0303 92.9675 14.3943 93.3922 14.689C93.8169 14.9923 94.4582 15.144 95.3162 15.144C96.1742 15.144 96.8155 14.9923 97.2402 14.689C97.6649 14.3943 97.8772 14.0303 97.8772 13.597V13.376ZM116.57 8.462H114.854V11.764H113.879V4.003H114.854V7.63H116.57V8.462ZM110.876 4.861H107.457V4.094H110.876V4.861ZM113.021 11.114C112.059 11.27 110.902 11.3913 109.55 11.478C108.207 11.556 106.82 11.595 105.39 11.595L105.312 10.789C106.621 10.789 107.726 10.7673 108.627 10.724V9.814C107.951 9.75333 107.418 9.58 107.028 9.294C106.638 8.99933 106.443 8.631 106.443 8.189C106.443 7.54767 106.781 7.10133 107.457 6.85V6.772H105.663V6.031H112.436V6.772H110.72V6.85C111.396 7.11867 111.734 7.565 111.734 8.189C111.734 8.62233 111.539 8.98633 111.149 9.281C110.759 9.567 110.231 9.74033 109.563 9.801V10.685C110.898 10.6157 112.02 10.5117 112.93 10.373L113.021 11.114ZM108.9 9.06H109.277C109.737 9.06 110.109 8.96467 110.395 8.774C110.69 8.57467 110.837 8.29733 110.837 7.942C110.837 7.58667 110.694 7.31367 110.408 7.123C110.122 6.92367 109.745 6.824 109.277 6.824H108.9C108.432 6.824 108.051 6.92367 107.756 7.123C107.47 7.31367 107.327 7.58667 107.327 7.942C107.327 8.29733 107.47 8.57467 107.756 8.774C108.051 8.96467 108.432 9.06 108.9 9.06ZM107.353 12.453H114.854V15.885H113.892V13.22H107.353V12.453ZM127.602 4.003V12.57H126.601V4.003H127.602ZM118.242 7.513C118.242 6.90633 118.368 6.37767 118.619 5.927C118.879 5.47633 119.234 5.134 119.685 4.9C120.136 4.65733 120.651 4.536 121.232 4.536C121.804 4.536 122.315 4.65733 122.766 4.9C123.225 5.134 123.581 5.47633 123.832 5.927C124.092 6.37767 124.222 6.90633 124.222 7.513C124.222 8.111 124.092 8.63533 123.832 9.086C123.581 9.53667 123.225 9.88333 122.766 10.126C122.315 10.36 121.804 10.477 121.232 10.477C120.651 10.477 120.136 10.36 119.685 10.126C119.234 9.88333 118.879 9.541 118.619 9.099C118.368 8.64833 118.242 8.11967 118.242 7.513ZM123.169 7.786V7.24C123.169 6.668 122.987 6.213 122.623 5.875C122.268 5.52833 121.804 5.355 121.232 5.355C120.651 5.355 120.179 5.52833 119.815 5.875C119.46 6.22167 119.282 6.67667 119.282 7.24V7.786C119.282 8.34933 119.464 8.80433 119.828 9.151C120.192 9.489 120.66 9.658 121.232 9.658C121.804 9.658 122.268 9.489 122.623 9.151C122.987 8.80433 123.169 8.34933 123.169 7.786ZM120.374 14.871V11.634H121.375V14.715H127.836V15.534H121.024C120.816 15.534 120.656 15.4777 120.543 15.365C120.43 15.2523 120.374 15.0877 120.374 14.871ZM144.774 9.281H142.902V15.313H141.914V4.029H142.902V8.449H144.774V9.281ZM134.387 4.926H139.444V6.733C139.444 7.695 139.301 8.50967 139.015 9.177C138.729 9.84433 138.244 10.4683 137.559 11.049C136.883 11.621 135.913 12.2493 134.647 12.934L134.062 12.193C135.241 11.569 136.142 11.0013 136.766 10.49C137.39 9.97867 137.828 9.437 138.079 8.865C138.331 8.293 138.456 7.58667 138.456 6.746V5.771H134.387V4.926ZM155.169 8.137H147.694V4.315H148.669V7.331H155.169V8.137ZM156.677 9.476V10.334H146.069V9.476H156.677ZM155.221 13.714C155.221 14.3987 154.892 14.949 154.233 15.365C153.574 15.781 152.621 15.989 151.373 15.989C150.125 15.989 149.172 15.781 148.513 15.365C147.854 14.949 147.525 14.3987 147.525 13.714C147.525 13.2807 147.668 12.895 147.954 12.557C148.249 12.219 148.682 11.9547 149.254 11.764C149.835 11.5733 150.541 11.478 151.373 11.478C152.205 11.478 152.907 11.5733 153.479 11.764C154.06 11.9547 154.493 12.219 154.779 12.557C155.074 12.895 155.221 13.2807 155.221 13.714ZM154.181 13.636C154.181 13.246 153.947 12.921 153.479 12.661C153.02 12.3923 152.318 12.258 151.373 12.258C150.437 12.258 149.731 12.3923 149.254 12.661C148.786 12.921 148.552 13.246 148.552 13.636V13.818C148.552 14.208 148.786 14.533 149.254 14.793C149.731 15.0617 150.437 15.196 151.373 15.196C152.318 15.196 153.02 15.0617 153.479 14.793C153.947 14.533 154.181 14.208 154.181 13.818V13.636Z" fill="white"/>
<rect y="4" width="2" height="10" fill="white"/>
</svg>
