<svg width="238" height="40" viewBox="0 0 238 40" fill="none" xmlns="http://www.w3.org/2000/svg">
<path d="M22.517 4.003V15.287H21.568V9.229H19.813V14.975H18.864V4.198H19.813V8.41H21.568V4.003H22.517ZM16.459 4.965H17.395V12.167H12.91V4.991H13.833V7.721H16.459V4.965ZM16.459 8.527H13.833V11.348H16.459V8.527ZM33.4838 8.943H30.9228V8.15H33.4838V6.473H30.9228V5.667H33.4838V4.003H34.4718V10.724H33.4838V8.943ZM25.7098 10.607L25.1768 9.853C26.3382 9.39367 27.2178 8.98633 27.8158 8.631C28.4225 8.267 28.8472 7.88567 29.0898 7.487C29.3325 7.08833 29.4538 6.59867 29.4538 6.018V5.511H25.5018V4.679H30.4418V5.901C30.4418 6.66367 30.3032 7.29633 30.0258 7.799C29.7485 8.30167 29.2762 8.76967 28.6088 9.203C27.9415 9.62767 26.9752 10.0957 25.7098 10.607ZM34.5368 13.428C34.5368 13.9047 34.3982 14.3293 34.1208 14.702C33.8522 15.0833 33.4448 15.3823 32.8988 15.599C32.3528 15.8157 31.6855 15.924 30.8968 15.924C30.1082 15.924 29.4365 15.8157 28.8818 15.599C28.3358 15.3823 27.9242 15.0833 27.6468 14.702C27.3782 14.3293 27.2438 13.9047 27.2438 13.428C27.2438 12.9513 27.3782 12.5267 27.6468 12.154C27.9242 11.7727 28.3358 11.4737 28.8818 11.257C29.4365 11.0403 30.1082 10.932 30.8968 10.932C31.6855 10.932 32.3528 11.0403 32.8988 11.257C33.4448 11.4737 33.8522 11.7727 34.1208 12.154C34.3982 12.5267 34.5368 12.9513 34.5368 13.428ZM33.4838 13.324C33.4838 12.8733 33.2672 12.4963 32.8338 12.193C32.4092 11.8897 31.7635 11.738 30.8968 11.738C30.0302 11.738 29.3802 11.894 28.9468 12.206C28.5135 12.5093 28.2968 12.882 28.2968 13.324V13.545C28.2968 13.987 28.5135 14.3597 28.9468 14.663C29.3802 14.975 30.0302 15.131 30.8968 15.131C31.7635 15.131 32.4092 14.975 32.8338 14.663C33.2672 14.3597 33.4838 13.987 33.4838 13.545V13.324ZM53.158 4.003V10.789H52.196V7.786H50.454V10.646H49.505V4.185H50.454V6.98H52.196V4.003H53.158ZM45.982 8.033C45.9127 8.033 45.8607 8.059 45.826 8.111C45.6267 8.48367 45.3667 8.86933 45.046 9.268C44.7253 9.658 44.3137 10.1087 43.811 10.62L43.122 10.022C43.7633 9.35467 44.2487 8.787 44.578 8.319C44.916 7.84233 45.1543 7.37867 45.293 6.928C45.4403 6.47733 45.514 5.95733 45.514 5.368V4.653H46.463V5.394C46.463 6.20867 46.3373 6.93233 46.086 7.565L46.138 7.591L46.294 7.461C46.3893 7.39167 46.476 7.357 46.554 7.357C46.6407 7.357 46.7273 7.40033 46.814 7.487L48.894 9.749L48.218 10.399L46.151 8.111C46.099 8.059 46.0427 8.033 45.982 8.033ZM45.514 11.504H53.158V15.859H52.183V12.349H45.514V11.504ZM66.3348 6.915V7.747H64.5278V10.724H63.5398V4.003H64.5278V6.915H66.3348ZM58.6128 7.695C58.5522 7.695 58.4958 7.72533 58.4438 7.786C58.2185 8.15867 57.9195 8.54433 57.5468 8.943C57.1828 9.333 56.6888 9.81833 56.0648 10.399L55.3368 9.762C56.0735 9.10333 56.6412 8.54 57.0398 8.072C57.4385 7.604 57.7245 7.14033 57.8978 6.681C58.0712 6.22167 58.1578 5.70167 58.1578 5.121V4.419H59.1458V5.173C59.1458 5.96167 58.9942 6.681 58.6908 7.331L58.7558 7.383L58.9638 7.201C59.0592 7.123 59.1545 7.084 59.2498 7.084C59.3452 7.084 59.4318 7.123 59.5098 7.201L61.9798 9.489L61.2778 10.165L58.7818 7.773C58.7298 7.721 58.6735 7.695 58.6128 7.695ZM64.6188 13.428C64.6188 13.9047 64.4845 14.3293 64.2158 14.702C63.9472 15.0833 63.5442 15.3823 63.0068 15.599C62.4695 15.8157 61.8108 15.924 61.0308 15.924C60.2595 15.924 59.6008 15.8157 59.0548 15.599C58.5175 15.3823 58.1102 15.0833 57.8328 14.702C57.5642 14.3293 57.4298 13.9047 57.4298 13.428C57.4298 12.9513 57.5642 12.5267 57.8328 12.154C58.1102 11.7727 58.5175 11.4737 59.0548 11.257C59.6008 11.0403 60.2595 10.932 61.0308 10.932C61.8108 10.932 62.4695 11.0403 63.0068 11.257C63.5442 11.4737 63.9472 11.7727 64.2158 12.154C64.4845 12.5267 64.6188 12.9513 64.6188 13.428ZM63.5788 13.324C63.5788 12.8733 63.3665 12.4963 62.9418 12.193C62.5258 11.8897 61.8888 11.738 61.0308 11.738C60.1815 11.738 59.5445 11.894 59.1198 12.206C58.6952 12.5093 58.4828 12.882 58.4828 13.324V13.545C58.4828 13.987 58.6952 14.3597 59.1198 14.663C59.5445 14.975 60.1815 15.131 61.0308 15.131C61.8888 15.131 62.5258 14.975 62.9418 14.663C63.3665 14.3597 63.5788 13.987 63.5788 13.545V13.324ZM69.0207 6.083C69.0207 5.45033 69.3457 4.94767 69.9957 4.575C70.6457 4.19367 71.6207 4.003 72.9207 4.003C74.2207 4.003 75.1957 4.19367 75.8457 4.575C76.4957 4.94767 76.8207 5.45033 76.8207 6.083C76.8207 6.71567 76.4957 7.22267 75.8457 7.604C75.1957 7.98533 74.2207 8.176 72.9207 8.176C71.6207 8.176 70.6457 7.98533 69.9957 7.604C69.3457 7.22267 69.0207 6.71567 69.0207 6.083ZM75.7677 6.148V6.005C75.7677 5.63233 75.5293 5.329 75.0527 5.095C74.5847 4.85233 73.874 4.731 72.9207 4.731C71.9673 4.731 71.2523 4.85233 70.7757 5.095C70.3077 5.329 70.0737 5.63233 70.0737 6.005V6.148C70.0737 6.52067 70.3077 6.82833 70.7757 7.071C71.2523 7.305 71.9673 7.422 72.9207 7.422C73.874 7.422 74.5847 7.305 75.0527 7.071C75.5293 6.82833 75.7677 6.52067 75.7677 6.148ZM78.2247 9.073V9.905H67.6167V9.073H78.2247ZM69.2677 15.157V13.025H75.6767V11.803H69.1897V10.997H76.6257V13.779H70.2167V15.014H76.9637V15.82H69.9177C69.7097 15.82 69.5493 15.7637 69.4367 15.651C69.324 15.5383 69.2677 15.3737 69.2677 15.157ZM96.9629 9.281H95.0909V15.313H94.1029V4.029H95.0909V8.449H96.9629V9.281ZM89.8519 8.553C89.9645 8.553 90.0599 8.60067 90.1379 8.696L92.6729 11.946L91.9189 12.609L89.3709 9.268C89.3449 9.216 89.3015 9.19 89.2409 9.19C89.1975 9.19 89.1542 9.216 89.1109 9.268C88.8855 9.77067 88.5822 10.2907 88.2009 10.828C87.8195 11.3567 87.3039 12.0067 86.6539 12.778L85.8999 12.141C86.6539 11.283 87.2302 10.5507 87.6289 9.944C88.0362 9.32867 88.3265 8.71333 88.4999 8.098C88.6819 7.48267 88.7729 6.77633 88.7729 5.979V4.757H89.7739V5.966C89.7739 6.99733 89.6222 7.93333 89.3189 8.774L89.3839 8.813L89.5789 8.657C89.6742 8.58767 89.7652 8.553 89.8519 8.553ZM108.866 9.71V10.542H98.2577V9.71H101.079V8.176C100.602 7.97667 100.242 7.71667 99.9997 7.396C99.7657 7.07533 99.6487 6.71133 99.6487 6.304C99.6487 5.628 99.978 5.082 100.637 4.666C101.295 4.24133 102.27 4.029 103.562 4.029C104.853 4.029 105.828 4.24133 106.487 4.666C107.145 5.082 107.475 5.628 107.475 6.304C107.475 6.71133 107.353 7.07533 107.111 7.396C106.877 7.71667 106.521 7.97667 106.045 8.176V9.71H108.866ZM103.562 7.812C104.524 7.812 105.243 7.67767 105.72 7.409C106.196 7.14033 106.435 6.798 106.435 6.382V6.2C106.435 5.79267 106.192 5.45467 105.707 5.186C105.23 4.91733 104.515 4.783 103.562 4.783C102.608 4.783 101.893 4.91733 101.417 5.186C100.94 5.45467 100.702 5.79267 100.702 6.2V6.382C100.702 6.798 100.936 7.14033 101.404 7.409C101.88 7.67767 102.6 7.812 103.562 7.812ZM102.028 9.71H105.096V8.449C104.671 8.53567 104.16 8.579 103.562 8.579C102.964 8.579 102.452 8.53567 102.028 8.449V9.71ZM107.41 13.727C107.41 14.169 107.262 14.559 106.968 14.897C106.682 15.235 106.248 15.4993 105.668 15.69C105.096 15.8893 104.394 15.989 103.562 15.989C102.73 15.989 102.023 15.8893 101.443 15.69C100.871 15.4993 100.437 15.235 100.143 14.897C99.8567 14.559 99.7137 14.169 99.7137 13.727C99.7137 13.2937 99.8567 12.9123 100.143 12.583C100.437 12.245 100.871 11.9807 101.443 11.79C102.023 11.5993 102.73 11.504 103.562 11.504C104.394 11.504 105.096 11.5993 105.668 11.79C106.248 11.9807 106.682 12.245 106.968 12.583C107.262 12.9123 107.41 13.2937 107.41 13.727ZM106.37 13.649C106.37 13.2677 106.136 12.947 105.668 12.687C105.208 12.4183 104.506 12.284 103.562 12.284C102.929 12.284 102.4 12.349 101.976 12.479C101.551 12.6003 101.239 12.765 101.04 12.973C100.84 13.181 100.741 13.4063 100.741 13.649V13.831C100.741 14.0737 100.84 14.299 101.04 14.507C101.239 14.715 101.551 14.8797 101.976 15.001C102.4 15.131 102.929 15.196 103.562 15.196C104.506 15.196 105.208 15.0617 105.668 14.793C106.136 14.533 106.37 14.2123 106.37 13.831V13.649ZM121.444 9.489H119.611V15.313H118.623V4.029H119.611V8.657H121.444V9.489ZM115.854 5.485H112.162V4.64H115.854V5.485ZM110.433 7.045H117.388V7.851H115.464V7.929C116.253 8.319 116.647 9.06867 116.647 10.178C116.647 10.7413 116.53 11.231 116.296 11.647C116.062 12.0543 115.737 12.3663 115.321 12.583C114.914 12.7997 114.459 12.908 113.956 12.908C113.454 12.908 112.994 12.7997 112.578 12.583C112.171 12.3663 111.85 12.0543 111.616 11.647C111.382 11.231 111.265 10.7413 111.265 10.178C111.265 9.06867 111.66 8.319 112.448 7.929V7.851H110.433V7.045ZM115.685 9.749C115.685 9.16833 115.529 8.72633 115.217 8.423C114.905 8.111 114.485 7.955 113.956 7.955C113.436 7.955 113.016 8.111 112.695 8.423C112.383 8.735 112.227 9.177 112.227 9.749V10.282C112.227 10.8453 112.388 11.2873 112.708 11.608C113.029 11.92 113.445 12.076 113.956 12.076C114.468 12.076 114.884 11.92 115.204 11.608C115.525 11.2873 115.685 10.8453 115.685 10.282V9.749ZM132.437 4.003V15.287H131.462V10.542H129.252V9.736H131.462V7.292H129.252V6.486H131.462V4.003H132.437ZM128.979 8.566C128.979 9.83133 128.706 10.789 128.16 11.439C127.614 12.089 126.895 12.414 126.002 12.414C125.101 12.414 124.377 12.089 123.831 11.439C123.285 10.789 123.012 9.83133 123.012 8.566C123.012 7.30067 123.285 6.343 123.831 5.693C124.377 5.043 125.101 4.718 126.002 4.718C126.895 4.718 127.614 5.043 128.16 5.693C128.706 6.343 128.979 7.30067 128.979 8.566ZM127.939 8.046C127.939 7.23133 127.762 6.61167 127.406 6.187C127.051 5.75367 126.583 5.537 126.002 5.537C125.413 5.537 124.941 5.75367 124.585 6.187C124.23 6.61167 124.052 7.23133 124.052 8.046V9.086C124.052 9.90067 124.23 10.5247 124.585 10.958C124.941 11.3827 125.413 11.595 126.002 11.595C126.583 11.595 127.051 11.3827 127.406 10.958C127.762 10.5247 127.939 9.90067 127.939 9.086V8.046ZM151.163 4.003V10.789H150.201V4.003H151.163ZM147.679 7.448H145.963V6.629H147.679V4.185H148.615V10.646H147.679V7.448ZM143.961 8.033C143.909 8.033 143.861 8.059 143.818 8.111C143.618 8.48367 143.358 8.86933 143.038 9.268C142.726 9.658 142.318 10.1087 141.816 10.62L141.127 10.022C141.759 9.35467 142.24 8.787 142.57 8.319C142.908 7.84233 143.146 7.37867 143.285 6.928C143.432 6.46867 143.506 5.94867 143.506 5.368V4.653H144.455V5.394C144.455 6.226 144.325 6.94533 144.065 7.552L144.13 7.591L144.286 7.461C144.381 7.39167 144.468 7.357 144.546 7.357C144.641 7.357 144.728 7.40033 144.806 7.487L146.86 9.749L146.184 10.399L144.143 8.111C144.091 8.059 144.03 8.033 143.961 8.033ZM143.519 11.504H151.163V15.859H150.188V12.349H143.519V11.504ZM162.129 8.696H159.763V7.89H162.129V6.304H159.763V5.498H162.129V4.003H163.117V12.57H162.129V8.696ZM156.76 8.085C156.7 8.085 156.648 8.111 156.604 8.163C156.379 8.56167 156.084 8.969 155.72 9.385C155.365 9.801 154.871 10.3253 154.238 10.958L153.51 10.321C154.238 9.619 154.797 9.021 155.187 8.527C155.586 8.033 155.872 7.54333 156.045 7.058C156.219 6.564 156.305 6.00067 156.305 5.368V4.549H157.293V5.407C157.293 6.28233 157.142 7.05367 156.838 7.721L156.89 7.747L157.098 7.578C157.202 7.5 157.298 7.461 157.384 7.461C157.488 7.461 157.579 7.50433 157.657 7.591L160.114 10.074L159.399 10.75L156.916 8.163C156.873 8.111 156.821 8.085 156.76 8.085ZM163.351 14.715V15.534H156.539C156.331 15.534 156.171 15.4777 156.058 15.365C155.946 15.2523 155.889 15.0877 155.889 14.871V11.699H156.89V14.715H163.351ZM182.389 10.594H177.566V15.703H176.578V10.594H171.781V9.762H179.386C179.698 8.40133 179.858 6.94967 179.867 5.407V5.342H173.185V4.51H180.829V5.342C180.829 6.84133 180.681 8.31467 180.387 9.762H182.389V10.594ZM193.056 8.93H185.594V4.224H186.569V5.771H192.094V4.224H193.056V8.93ZM192.094 6.577H186.569V8.111H192.094V6.577ZM194.629 10.113V10.971H189.884V13.272H188.896V10.971H184.021V10.113H194.629ZM186.491 14.754H193.238V15.573H186.166C185.958 15.573 185.798 15.5167 185.685 15.404C185.573 15.2913 185.516 15.1267 185.516 14.91V12.232H186.491V14.754ZM197.666 6.083C197.666 5.45033 197.991 4.94767 198.641 4.575C199.291 4.19367 200.266 4.003 201.566 4.003C202.866 4.003 203.841 4.19367 204.491 4.575C205.141 4.94767 205.466 5.45033 205.466 6.083C205.466 6.71567 205.141 7.22267 204.491 7.604C203.841 7.98533 202.866 8.176 201.566 8.176C200.266 8.176 199.291 7.98533 198.641 7.604C197.991 7.22267 197.666 6.71567 197.666 6.083ZM204.413 6.148V6.005C204.413 5.63233 204.175 5.329 203.698 5.095C203.23 4.85233 202.52 4.731 201.566 4.731C200.613 4.731 199.898 4.85233 199.421 5.095C198.953 5.329 198.719 5.63233 198.719 6.005V6.148C198.719 6.52067 198.953 6.82833 199.421 7.071C199.898 7.305 200.613 7.422 201.566 7.422C202.52 7.422 203.23 7.305 203.698 7.071C204.175 6.82833 204.413 6.52067 204.413 6.148ZM206.87 9.073V9.905H196.262V9.073H206.87ZM197.913 15.157V13.025H204.322V11.803H197.835V10.997H205.271V13.779H198.862V15.014H205.609V15.82H198.563C198.355 15.82 198.195 15.7637 198.082 15.651C197.97 15.5383 197.913 15.3737 197.913 15.157ZM223.411 8.826H221.019V8.033H223.411V6.408H221.019V5.615H223.411V4.003H224.399V10.724H223.411V8.826ZM220.577 9.749H215.26V4.575H220.577V9.749ZM219.602 5.381H216.235V8.943H219.602V5.381ZM224.464 13.428C224.464 13.9047 224.326 14.3293 224.048 14.702C223.78 15.0833 223.372 15.3823 222.826 15.599C222.28 15.8157 221.613 15.924 220.824 15.924C220.036 15.924 219.364 15.8157 218.809 15.599C218.263 15.3823 217.852 15.0833 217.574 14.702C217.306 14.3293 217.171 13.9047 217.171 13.428C217.171 12.9513 217.306 12.5267 217.574 12.154C217.852 11.7727 218.263 11.4737 218.809 11.257C219.364 11.0403 220.036 10.932 220.824 10.932C221.613 10.932 222.28 11.0403 222.826 11.257C223.372 11.4737 223.78 11.7727 224.048 12.154C224.326 12.5267 224.464 12.9513 224.464 13.428ZM223.411 13.324C223.411 12.8733 223.195 12.4963 222.761 12.193C222.337 11.8897 221.691 11.738 220.824 11.738C219.958 11.738 219.308 11.894 218.874 12.206C218.441 12.5093 218.224 12.882 218.224 13.324V13.545C218.224 13.987 218.441 14.3597 218.874 14.663C219.308 14.975 219.958 15.131 220.824 15.131C221.691 15.131 222.337 14.975 222.761 14.663C223.195 14.3597 223.411 13.987 223.411 13.545V13.324ZM237.849 8.462H236.133V11.764H235.158V4.003H236.133V7.63H237.849V8.462ZM232.155 4.861H228.736V4.094H232.155V4.861ZM234.3 11.114C233.338 11.27 232.181 11.3913 230.829 11.478C229.486 11.556 228.099 11.595 226.669 11.595L226.591 10.789C227.9 10.789 229.005 10.7673 229.906 10.724V9.814C229.23 9.75333 228.697 9.58 228.307 9.294C227.917 8.99933 227.722 8.631 227.722 8.189C227.722 7.54767 228.06 7.10133 228.736 6.85V6.772H226.942V6.031H233.715V6.772H231.999V6.85C232.675 7.11867 233.013 7.565 233.013 8.189C233.013 8.62233 232.818 8.98633 232.428 9.281C232.038 9.567 231.51 9.74033 230.842 9.801V10.685C232.177 10.6157 233.299 10.5117 234.209 10.373L234.3 11.114ZM230.179 9.06H230.556C231.016 9.06 231.388 8.96467 231.674 8.774C231.969 8.57467 232.116 8.29733 232.116 7.942C232.116 7.58667 231.973 7.31367 231.687 7.123C231.401 6.92367 231.024 6.824 230.556 6.824H230.179C229.711 6.824 229.33 6.92367 229.035 7.123C228.749 7.31367 228.606 7.58667 228.606 7.942C228.606 8.29733 228.749 8.57467 229.035 8.774C229.33 8.96467 229.711 9.06 230.179 9.06ZM228.632 12.453H236.133V15.885H235.171V13.22H228.632V12.453ZM22.166 24.003V35.287H21.178V24.003H22.166ZM18.149 25.485H14.392V24.64H18.149V25.485ZM12.624 27.045H19.696V27.851H17.746V27.929C18.136 28.1197 18.435 28.4057 18.643 28.787C18.851 29.1597 18.955 29.6233 18.955 30.178C18.955 30.7413 18.8337 31.231 18.591 31.647C18.357 32.0543 18.032 32.3663 17.616 32.583C17.2 32.7997 16.732 32.908 16.212 32.908C15.692 32.908 15.224 32.7997 14.808 32.583C14.392 32.3663 14.0627 32.0543 13.82 31.647C13.586 31.231 13.469 30.7413 13.469 30.178C13.469 29.6233 13.573 29.1597 13.781 28.787C13.989 28.4057 14.288 28.1197 14.678 27.929V27.851H12.624V27.045ZM17.993 29.762C17.993 29.1813 17.8283 28.735 17.499 28.423C17.1783 28.111 16.7493 27.955 16.212 27.955C15.6747 27.955 15.2413 28.111 14.912 28.423C14.5913 28.735 14.431 29.1813 14.431 29.762V30.256C14.431 30.828 14.5957 31.2743 14.925 31.595C15.2543 31.9157 15.6833 32.076 16.212 32.076C16.7407 32.076 17.1697 31.9157 17.499 31.595C17.8283 31.2743 17.993 30.828 17.993 30.256V29.762ZM39.4161 28.046H37.6091V31.14H36.6211V24.003H37.6091V27.214H39.4161V28.046ZM33.6441 25.095H30.1731V24.276H33.6441V25.095ZM31.8241 30.867C31.2868 30.867 30.8144 30.7847 30.4071 30.62C29.9998 30.4553 29.6834 30.2257 29.4581 29.931C29.2414 29.6363 29.1331 29.3027 29.1331 28.93C29.1331 28.5573 29.2241 28.2367 29.4061 27.968C29.5968 27.6907 29.8784 27.474 30.2511 27.318V27.24H28.2751V26.447H35.3211V27.24H33.3971V27.318C33.7698 27.474 34.0471 27.6907 34.2291 27.968C34.4198 28.2367 34.5151 28.5573 34.5151 28.93C34.5151 29.3027 34.4024 29.6363 34.1771 29.931C33.9604 30.2257 33.6484 30.4553 33.2411 30.62C32.8338 30.7847 32.3614 30.867 31.8241 30.867ZM31.6941 30.048H31.9541C32.4394 30.048 32.8338 29.931 33.1371 29.697C33.4404 29.4543 33.5921 29.1207 33.5921 28.696C33.5921 28.2627 33.4404 27.929 33.1371 27.695C32.8338 27.4523 32.4394 27.331 31.9541 27.331H31.6941C31.2088 27.331 30.8144 27.4523 30.5111 27.695C30.2078 27.929 30.0561 28.2627 30.0561 28.696C30.0561 29.1207 30.2078 29.4543 30.5111 29.697C30.8144 29.931 31.2088 30.048 31.6941 30.048ZM30.5891 31.816H37.6091V35.755H31.2391C31.0311 35.755 30.8708 35.6987 30.7581 35.586C30.6454 35.4733 30.5891 35.3087 30.5891 35.092V31.816ZM31.5771 34.936H36.6211V32.635H31.5771V34.936Z" fill="white"/>
<rect y="4" width="2" height="10" fill="white"/>
</svg>
