<svg width="809" height="61" viewBox="0 0 809 61" fill="none" xmlns="http://www.w3.org/2000/svg">
<path d="M13.2 6.555H11.04V13.515H9.9V0.495H11.04V5.595H13.2V6.555ZM4.995 5.715C5.125 5.715 5.235 5.77 5.325 5.88L8.25 9.63L7.38 10.395L4.44 6.54C4.41 6.48 4.36 6.45 4.29 6.45C4.24 6.45 4.19 6.48 4.14 6.54C3.88 7.12 3.53 7.72 3.09 8.34C2.65 8.95 2.055 9.7 1.305 10.59L0.435 9.855C1.305 8.865 1.97 8.02 2.43 7.32C2.9 6.61 3.235 5.9 3.435 5.19C3.645 4.48 3.75 3.665 3.75 2.745V1.335H4.905V2.73C4.905 3.92 4.73 5 4.38 5.97L4.455 6.015L4.68 5.835C4.79 5.755 4.895 5.715 4.995 5.715ZM25.014 0.464999H26.154V13.485H25.014V0.464999ZM15.384 5.73C15.384 4.27 15.704 3.165 16.344 2.415C16.994 1.665 17.849 1.29 18.909 1.29C19.959 1.29 20.804 1.665 21.444 2.415C22.094 3.165 22.419 4.27 22.419 5.73C22.419 6.71 22.269 7.535 21.969 8.205C21.669 8.865 21.254 9.36 20.724 9.69C20.194 10.01 19.589 10.17 18.909 10.17C17.849 10.17 16.994 9.795 16.344 9.045C15.704 8.295 15.384 7.19 15.384 5.73ZM21.204 6.315V5.145C21.204 4.215 20.989 3.5 20.559 3C20.139 2.5 19.589 2.25 18.909 2.25C18.219 2.25 17.659 2.5 17.229 3C16.809 3.49 16.599 4.205 16.599 5.145V6.315C16.599 7.255 16.809 7.975 17.229 8.475C17.659 8.965 18.219 9.21 18.909 9.21C19.589 9.21 20.139 8.96 20.559 8.46C20.989 7.96 21.204 7.245 21.204 6.315ZM34.968 2.37H30.798V1.41H40.293V2.37H36.138C36.138 2.87 36.083 3.32 35.973 3.72C35.863 4.12 35.678 4.5 35.418 4.86L35.463 4.89L35.748 4.665C35.898 4.545 36.038 4.485 36.168 4.485C36.268 4.485 36.378 4.52 36.498 4.59L40.893 7.14L40.248 8.025L35.733 5.325C35.593 5.245 35.468 5.205 35.358 5.205C35.258 5.205 35.163 5.235 35.073 5.295C34.673 5.725 34.128 6.165 33.438 6.615C32.748 7.065 31.868 7.555 30.798 8.085L30.183 7.23C31.433 6.62 32.398 6.065 33.078 5.565C33.768 5.065 34.253 4.57 34.533 4.08C34.813 3.58 34.958 3.01 34.968 2.37ZM41.658 11.025V12H29.418V11.025H41.658ZM56.4721 6.555H54.3121V13.515H53.1721V0.495H54.3121V5.595H56.4721V6.555ZM44.2921 1.5H50.4721V9.855H44.2921V1.5ZM45.4021 8.91H49.3621V2.445H45.4021V8.91ZM70.8961 6.555H68.7361V13.515H67.5961V0.495H68.7361V5.595H70.8961V6.555ZM66.0211 8.685L66.1711 9.6C64.6411 9.91 62.7311 10.065 60.4411 10.065H58.8511V1.53H64.8361V2.49H59.9911V9.12H60.4261C62.6261 9.12 64.4911 8.975 66.0211 8.685ZM88.5017 0.464999V13.485H87.3617V0.464999H88.5017ZM85.4867 8.685L85.6367 9.6C84.0867 9.91 82.1567 10.065 79.8467 10.065H78.2417V1.53H84.2867V2.49H79.3967V9.105H79.8167C82.1067 9.105 83.9967 8.965 85.4867 8.685ZM104.396 6.555H102.236V13.515H101.096V0.495H102.236V5.595H104.396V6.555ZM96.2657 5.97C96.3857 5.97 96.5007 6.025 96.6107 6.135L99.5357 9.6L98.6807 10.335L95.7407 6.75C95.6807 6.69 95.6157 6.66 95.5457 6.66C95.4757 6.66 95.4257 6.69 95.3957 6.75C95.1257 7.29 94.7707 7.845 94.3307 8.415C93.9007 8.975 93.3107 9.68 92.5607 10.53L91.7207 9.825C92.5907 8.905 93.2557 8.11 93.7157 7.44C94.1857 6.77 94.5257 6.105 94.7357 5.445C94.9457 4.775 95.0507 4.015 95.0507 3.165V2.595H92.1107V1.635H99.1007V2.595H96.1757V3.195C96.1757 4.315 95.9957 5.32 95.6357 6.21L95.7107 6.27L95.9507 6.09C96.0507 6.01 96.1557 5.97 96.2657 5.97ZM117.425 0.464999V10.35H116.27V0.464999H117.425ZM106.625 4.515C106.625 3.815 106.77 3.205 107.06 2.685C107.36 2.165 107.77 1.77 108.29 1.5C108.81 1.22 109.405 1.08 110.075 1.08C110.735 1.08 111.325 1.22 111.845 1.5C112.375 1.77 112.785 2.165 113.075 2.685C113.375 3.205 113.525 3.815 113.525 4.515C113.525 5.205 113.375 5.81 113.075 6.33C112.785 6.85 112.375 7.25 111.845 7.53C111.325 7.8 110.735 7.935 110.075 7.935C109.405 7.935 108.81 7.8 108.29 7.53C107.77 7.25 107.36 6.855 107.06 6.345C106.77 5.825 106.625 5.215 106.625 4.515ZM112.31 4.83V4.2C112.31 3.54 112.1 3.015 111.68 2.625C111.27 2.225 110.735 2.025 110.075 2.025C109.405 2.025 108.86 2.225 108.44 2.625C108.03 3.025 107.825 3.55 107.825 4.2V4.83C107.825 5.48 108.035 6.005 108.455 6.405C108.875 6.795 109.415 6.99 110.075 6.99C110.735 6.99 111.27 6.795 111.68 6.405C112.1 6.005 112.31 5.48 112.31 4.83ZM109.085 13.005V9.27H110.24V12.825H117.695V13.77H109.835C109.595 13.77 109.41 13.705 109.28 13.575C109.15 13.445 109.085 13.255 109.085 13.005ZM137.505 8.07H131.94V13.965H130.8V8.07H125.265V7.11H134.04C134.4 5.54 134.585 3.865 134.595 2.085V2.01H126.885V1.05H135.705V2.01C135.705 3.74 135.535 5.44 135.195 7.11H137.505V8.07ZM145.254 2.31H141.069V1.35H150.564V2.31H146.409C146.409 2.8 146.354 3.24 146.244 3.63C146.134 4.02 145.949 4.39 145.689 4.74L145.734 4.755L146.019 4.545C146.139 4.435 146.279 4.38 146.439 4.38C146.539 4.38 146.649 4.41 146.769 4.47L151.164 6.945L150.534 7.83L146.019 5.19C145.859 5.11 145.719 5.07 145.599 5.07C145.499 5.07 145.409 5.095 145.329 5.145C144.939 5.565 144.404 5.995 143.724 6.435C143.044 6.875 142.159 7.355 141.069 7.875L140.454 7.035C141.704 6.445 142.669 5.91 143.349 5.43C144.039 4.94 144.524 4.455 144.804 3.975C145.094 3.485 145.244 2.93 145.254 2.31ZM151.929 11.04V12H139.689V11.04H145.239V7.8H146.379V11.04H151.929ZM163.278 2.805V1.515H155.958V0.674999H164.373V3.63H157.143V4.905H164.748V5.76H156.033V2.805H163.278ZM166.353 6.885V7.77H154.113V6.885H166.353ZM155.988 13.38V11.115H163.458V9.855H155.898V8.97H164.523V11.955H157.053V13.245H164.913V14.145H156.738C156.498 14.145 156.313 14.08 156.183 13.95C156.053 13.82 155.988 13.63 155.988 13.38ZM183.284 6.45H180.344V5.52H183.284V3.48H180.344V2.55H183.284V0.464999H184.424V10.35H183.284V6.45ZM179.894 7.875H173.849V1.245H174.944V3.585H178.784V1.215H179.894V7.875ZM178.784 4.515H174.944V6.945H178.784V4.515ZM184.694 12.825V13.77H176.834C176.594 13.77 176.409 13.705 176.279 13.575C176.149 13.445 176.084 13.255 176.084 13.005V9.45H177.239V12.825H184.694ZM197.708 6.165H194.753V5.25H197.708V3.315H194.753V2.385H197.708V0.464999H198.848V8.22H197.708V6.165ZM188.738 8.085L188.123 7.215C189.463 6.685 190.478 6.215 191.168 5.805C191.868 5.385 192.358 4.945 192.638 4.485C192.918 4.025 193.058 3.46 193.058 2.79V2.205H188.498V1.245H194.198V2.655C194.198 3.535 194.038 4.265 193.718 4.845C193.398 5.425 192.853 5.965 192.083 6.465C191.313 6.955 190.198 7.495 188.738 8.085ZM198.923 11.34C198.923 11.89 198.763 12.38 198.443 12.81C198.133 13.25 197.663 13.595 197.033 13.845C196.403 14.095 195.633 14.22 194.723 14.22C193.813 14.22 193.038 14.095 192.398 13.845C191.768 13.595 191.293 13.25 190.973 12.81C190.663 12.38 190.508 11.89 190.508 11.34C190.508 10.79 190.663 10.3 190.973 9.87C191.293 9.43 191.768 9.085 192.398 8.835C193.038 8.585 193.813 8.46 194.723 8.46C195.633 8.46 196.403 8.585 197.033 8.835C197.663 9.085 198.133 9.43 198.443 9.87C198.763 10.3 198.923 10.79 198.923 11.34ZM197.708 11.22C197.708 10.7 197.458 10.265 196.958 9.915C196.468 9.565 195.723 9.39 194.723 9.39C193.723 9.39 192.973 9.57 192.473 9.93C191.973 10.28 191.723 10.71 191.723 11.22V11.475C191.723 11.985 191.973 12.415 192.473 12.765C192.973 13.125 193.723 13.305 194.723 13.305C195.723 13.305 196.468 13.125 196.958 12.765C197.458 12.415 197.708 11.985 197.708 11.475V11.22ZM214.667 6.795H212.552V13.515H211.412V0.495H212.552V5.835H214.667V6.795ZM208.217 2.175H203.957V1.2H208.217V2.175ZM201.962 3.975H209.987V4.905H207.767V4.995C208.677 5.445 209.132 6.31 209.132 7.59C209.132 8.24 208.997 8.805 208.727 9.285C208.457 9.755 208.082 10.115 207.602 10.365C207.132 10.615 206.607 10.74 206.027 10.74C205.447 10.74 204.917 10.615 204.437 10.365C203.967 10.115 203.597 9.755 203.327 9.285C203.057 8.805 202.922 8.24 202.922 7.59C202.922 6.31 203.377 5.445 204.287 4.995V4.905H201.962V3.975ZM208.022 7.095C208.022 6.425 207.842 5.915 207.482 5.565C207.122 5.205 206.637 5.025 206.027 5.025C205.427 5.025 204.942 5.205 204.572 5.565C204.212 5.925 204.032 6.435 204.032 7.095V7.71C204.032 8.36 204.217 8.87 204.587 9.24C204.957 9.6 205.437 9.78 206.027 9.78C206.617 9.78 207.097 9.6 207.467 9.24C207.837 8.87 208.022 8.36 208.022 7.71V7.095ZM225.911 2.52H217.991V1.545H227.036V2.61C227.036 4.83 226.821 6.945 226.391 8.955L225.281 8.775C225.701 6.745 225.911 4.705 225.911 2.655V2.52ZM228.701 11.04V12H216.461V11.04H221.261V6.225H222.386V11.04H228.701ZM237.382 0.794999H245.902V1.695H238.492V3.21H245.677V4.08H238.507V5.595H246.142V6.51H237.382V0.794999ZM235.537 7.83H247.777V8.79H235.537V7.83ZM245.962 14.1H244.837V11.04H237.232V10.11H245.962V14.1ZM261.121 0.464999V13.485H259.981V0.464999H261.121ZM256.486 2.175H252.151V1.2H256.486V2.175ZM250.111 3.975H258.271V4.905H256.021V4.995C256.471 5.215 256.816 5.545 257.056 5.985C257.296 6.415 257.416 6.95 257.416 7.59C257.416 8.24 257.276 8.805 256.996 9.285C256.726 9.755 256.351 10.115 255.871 10.365C255.391 10.615 254.851 10.74 254.251 10.74C253.651 10.74 253.111 10.615 252.631 10.365C252.151 10.115 251.771 9.755 251.491 9.285C251.221 8.805 251.086 8.24 251.086 7.59C251.086 6.95 251.206 6.415 251.446 5.985C251.686 5.545 252.031 5.215 252.481 4.995V4.905H250.111V3.975ZM256.306 7.11C256.306 6.44 256.116 5.925 255.736 5.565C255.366 5.205 254.871 5.025 254.251 5.025C253.631 5.025 253.131 5.205 252.751 5.565C252.381 5.925 252.196 6.44 252.196 7.11V7.68C252.196 8.34 252.386 8.855 252.766 9.225C253.146 9.595 253.641 9.78 254.251 9.78C254.861 9.78 255.356 9.595 255.736 9.225C256.116 8.855 256.306 8.34 256.306 7.68V7.11ZM281.666 6.555H279.506V13.515H278.366V0.495H279.506V5.595H281.666V6.555ZM273.461 5.715C273.591 5.715 273.701 5.77 273.791 5.88L276.716 9.63L275.846 10.395L272.906 6.54C272.876 6.48 272.826 6.45 272.756 6.45C272.706 6.45 272.656 6.48 272.606 6.54C272.346 7.12 271.996 7.72 271.556 8.34C271.116 8.95 270.521 9.7 269.771 10.59L268.901 9.855C269.771 8.865 270.436 8.02 270.896 7.32C271.366 6.61 271.701 5.9 271.901 5.19C272.111 4.48 272.216 3.665 272.216 2.745V1.335H273.371V2.73C273.371 3.92 273.196 5 272.846 5.97L272.921 6.015L273.146 5.835C273.256 5.755 273.361 5.715 273.461 5.715ZM293.48 0.464999H294.62V13.485H293.48V0.464999ZM283.85 5.73C283.85 4.27 284.17 3.165 284.81 2.415C285.46 1.665 286.315 1.29 287.375 1.29C288.425 1.29 289.27 1.665 289.91 2.415C290.56 3.165 290.885 4.27 290.885 5.73C290.885 6.71 290.735 7.535 290.435 8.205C290.135 8.865 289.72 9.36 289.19 9.69C288.66 10.01 288.055 10.17 287.375 10.17C286.315 10.17 285.46 9.795 284.81 9.045C284.17 8.295 283.85 7.19 283.85 5.73ZM289.67 6.315V5.145C289.67 4.215 289.455 3.5 289.025 3C288.605 2.5 288.055 2.25 287.375 2.25C286.685 2.25 286.125 2.5 285.695 3C285.275 3.49 285.065 4.205 285.065 5.145V6.315C285.065 7.255 285.275 7.975 285.695 8.475C286.125 8.965 286.685 9.21 287.375 9.21C288.055 9.21 288.605 8.96 289.025 8.46C289.455 7.96 289.67 7.245 289.67 6.315ZM303.434 2.37H299.264V1.41H308.759V2.37H304.604C304.604 2.87 304.549 3.32 304.439 3.72C304.329 4.12 304.144 4.5 303.884 4.86L303.929 4.89L304.214 4.665C304.364 4.545 304.504 4.485 304.634 4.485C304.734 4.485 304.844 4.52 304.964 4.59L309.359 7.14L308.714 8.025L304.199 5.325C304.059 5.245 303.934 5.205 303.824 5.205C303.724 5.205 303.629 5.235 303.539 5.295C303.139 5.725 302.594 6.165 301.904 6.615C301.214 7.065 300.334 7.555 299.264 8.085L298.649 7.23C299.899 6.62 300.864 6.065 301.544 5.565C302.234 5.065 302.719 4.57 302.999 4.08C303.279 3.58 303.424 3.01 303.434 2.37ZM310.124 11.025V12H297.884V11.025H310.124ZM321.473 2.805V1.515H314.153V0.674999H322.568V3.63H315.338V4.905H322.943V5.76H314.228V2.805H321.473ZM324.548 6.885V7.77H312.308V6.885H324.548ZM314.183 13.38V11.115H321.653V9.855H314.093V8.97H322.718V11.955H315.248V13.245H323.108V14.145H314.933C314.693 14.145 314.508 14.08 314.378 13.95C314.248 13.82 314.183 13.63 314.183 13.38ZM336.949 2.31H332.764V1.35H342.259V2.31H338.104C338.104 2.8 338.049 3.24 337.939 3.63C337.829 4.02 337.644 4.39 337.384 4.74L337.429 4.755L337.714 4.545C337.834 4.435 337.974 4.38 338.134 4.38C338.234 4.38 338.344 4.41 338.464 4.47L342.859 6.945L342.229 7.83L337.714 5.19C337.554 5.11 337.414 5.07 337.294 5.07C337.194 5.07 337.104 5.095 337.024 5.145C336.634 5.565 336.099 5.995 335.419 6.435C334.739 6.875 333.854 7.355 332.764 7.875L332.149 7.035C333.399 6.445 334.364 5.91 335.044 5.43C335.734 4.94 336.219 4.455 336.499 3.975C336.789 3.485 336.939 2.93 336.949 2.31ZM343.624 11.04V12H331.384V11.04H336.934V7.8H338.074V11.04H343.624ZM355.903 3.405V0.464999H357.043V7.365H355.903V4.32H353.203V3.405H355.903ZM346.963 7.365L346.138 6.645C346.978 6.005 347.628 5.455 348.088 4.995C348.548 4.535 348.878 4.08 349.078 3.63C349.288 3.18 349.393 2.67 349.393 2.1V2.07H346.528V1.14H353.368V2.07H350.518V2.145C350.518 2.965 350.343 3.68 349.993 4.29L350.083 4.335L350.323 4.17C350.433 4.08 350.543 4.035 350.653 4.035C350.763 4.035 350.878 4.08 350.998 4.17L353.803 6.39L352.963 7.125L350.128 4.8C350.058 4.73 349.978 4.695 349.888 4.695C349.808 4.695 349.738 4.725 349.678 4.785C349.418 5.155 349.078 5.535 348.658 5.925C348.238 6.315 347.673 6.795 346.963 7.365ZM357.403 13.215V14.1H349.438C349.198 14.1 349.013 14.035 348.883 13.905C348.753 13.775 348.688 13.585 348.688 13.335V10.71H355.918V9.06H348.598V8.175H357.043V11.535H349.813V13.215H357.403ZM372.862 6.795H370.747V13.515H369.607V0.495H370.747V5.835H372.862V6.795ZM366.412 2.175H362.152V1.2H366.412V2.175ZM360.157 3.975H368.182V4.905H365.962V4.995C366.872 5.445 367.327 6.31 367.327 7.59C367.327 8.24 367.192 8.805 366.922 9.285C366.652 9.755 366.277 10.115 365.797 10.365C365.327 10.615 364.802 10.74 364.222 10.74C363.642 10.74 363.112 10.615 362.632 10.365C362.162 10.115 361.792 9.755 361.522 9.285C361.252 8.805 361.117 8.24 361.117 7.59C361.117 6.31 361.572 5.445 362.482 4.995V4.905H360.157V3.975ZM366.217 7.095C366.217 6.425 366.037 5.915 365.677 5.565C365.317 5.205 364.832 5.025 364.222 5.025C363.622 5.025 363.137 5.205 362.767 5.565C362.407 5.925 362.227 6.435 362.227 7.095V7.71C362.227 8.36 362.412 8.87 362.782 9.24C363.152 9.6 363.632 9.78 364.222 9.78C364.812 9.78 365.292 9.6 365.662 9.24C366.032 8.87 366.217 8.36 366.217 7.71V7.095ZM385.156 5.655H376.531V0.944999H377.656V4.71H385.156V5.655ZM386.896 7.32V8.295H374.656V7.32H386.896ZM377.551 12.795H385.321V13.755H377.161C376.921 13.755 376.736 13.69 376.606 13.56C376.476 13.43 376.411 13.24 376.411 12.99V9.705H377.551V12.795ZM405.296 0.464999V13.485H404.186V0.464999H405.296ZM401.141 0.69H402.236V13.125H401.141V6.135H398.591V5.19H401.141V0.69ZM399.866 8.715L400.001 9.63C398.791 9.94 397.301 10.095 395.531 10.095H394.286V1.8H399.146V2.76H395.396V9.15H395.786C397.436 9.15 398.796 9.005 399.866 8.715ZM419.72 0.464999V13.485H418.625V0.464999H419.72ZM415.67 0.69H416.735V13.125H415.67V6.3H414.23C414.18 7.6 413.89 8.58 413.36 9.24C412.83 9.89 412.13 10.215 411.26 10.215C410.33 10.215 409.595 9.855 409.055 9.135C408.515 8.405 408.245 7.32 408.245 5.88C408.245 4.44 408.515 3.36 409.055 2.64C409.595 1.91 410.33 1.545 411.26 1.545C412.12 1.545 412.81 1.865 413.33 2.505C413.86 3.145 414.16 4.095 414.23 5.355H415.67V0.69ZM413.09 5.16C413.09 4.28 412.92 3.61 412.58 3.15C412.25 2.69 411.81 2.46 411.26 2.46C410.7 2.46 410.25 2.69 409.91 3.15C409.58 3.61 409.415 4.28 409.415 5.16V6.615C409.415 7.485 409.58 8.155 409.91 8.625C410.25 9.085 410.7 9.315 411.26 9.315C411.81 9.315 412.25 9.085 412.58 8.625C412.92 8.155 413.09 7.485 413.09 6.615V5.16ZM439.471 6.03V6.99H427.231V6.03H436.141C436.281 5.41 436.386 4.78 436.456 4.14L428.596 4.44L428.476 3.525L436.531 3.3C436.561 2.79 436.576 2.26 436.576 1.71H428.911V0.794999H437.701V1.83C437.701 3.32 437.551 4.72 437.251 6.03H439.471ZM430.231 13.17H438.016V14.1H429.886C429.646 14.1 429.461 14.035 429.331 13.905C429.201 13.775 429.136 13.585 429.136 13.335V10.845H436.531V9.42H429.046V8.49H437.626V11.73H430.231V13.17ZM453.895 8.235V9.195H441.655V8.235H447.22V6.765H443.56V3.345H450.835V1.8H443.485V0.855H451.945V4.275H444.67V5.82H452.32V6.765H448.345V8.235H453.895ZM444.565 12.945H452.32V13.89H444.175C443.935 13.89 443.75 13.825 443.62 13.695C443.49 13.565 443.425 13.375 443.425 13.125V10.32H444.565V12.945ZM465.559 2.52V2.445H457.669V1.485H466.699V2.85C466.699 4.04 466.649 5.145 466.549 6.165C466.449 7.185 466.294 8.195 466.084 9.195L464.989 9.03C465.219 7.93 465.369 6.86 465.439 5.82L457.354 6.18L457.219 5.205L465.499 4.905C465.539 4.235 465.559 3.44 465.559 2.52ZM468.319 11.04V12H456.079V11.04H460.909V7.695H462.049V11.04H468.319ZM481.738 8.22H480.583V0.464999H481.738V8.22ZM478.858 6.825C478.118 6.975 477.233 7.095 476.203 7.185C475.183 7.265 474.088 7.305 472.918 7.305H471.358V1.2H477.418V2.16H472.513V6.36H472.903C474.023 6.36 475.088 6.325 476.098 6.255C477.108 6.175 477.978 6.065 478.708 5.925L478.858 6.825ZM481.813 11.34C481.813 11.89 481.653 12.38 481.333 12.81C481.023 13.25 480.553 13.595 479.923 13.845C479.293 14.095 478.523 14.22 477.613 14.22C476.703 14.22 475.928 14.095 475.288 13.845C474.658 13.595 474.183 13.25 473.863 12.81C473.553 12.38 473.398 11.89 473.398 11.34C473.398 10.79 473.553 10.3 473.863 9.87C474.183 9.43 474.658 9.085 475.288 8.835C475.928 8.585 476.703 8.46 477.613 8.46C478.523 8.46 479.293 8.585 479.923 8.835C480.553 9.085 481.023 9.43 481.333 9.87C481.653 10.3 481.813 10.79 481.813 11.34ZM480.598 11.22C480.598 10.7 480.348 10.265 479.848 9.915C479.358 9.565 478.613 9.39 477.613 9.39C476.613 9.39 475.863 9.57 475.363 9.93C474.863 10.28 474.613 10.71 474.613 11.22V11.475C474.613 11.985 474.863 12.415 475.363 12.765C475.863 13.125 476.613 13.305 477.613 13.305C478.613 13.305 479.358 13.125 479.848 12.765C480.348 12.415 480.598 11.985 480.598 11.475V11.22ZM486.547 2.865C486.547 2.135 486.922 1.555 487.672 1.125C488.422 0.684999 489.547 0.464999 491.047 0.464999C492.547 0.464999 493.672 0.684999 494.422 1.125C495.172 1.555 495.547 2.135 495.547 2.865C495.547 3.595 495.172 4.18 494.422 4.62C493.672 5.06 492.547 5.28 491.047 5.28C489.547 5.28 488.422 5.06 487.672 4.62C486.922 4.18 486.547 3.595 486.547 2.865ZM494.332 2.94V2.775C494.332 2.345 494.057 1.995 493.507 1.725C492.967 1.445 492.147 1.305 491.047 1.305C489.947 1.305 489.122 1.445 488.572 1.725C488.032 1.995 487.762 2.345 487.762 2.775V2.94C487.762 3.37 488.032 3.725 488.572 4.005C489.122 4.275 489.947 4.41 491.047 4.41C492.147 4.41 492.967 4.275 493.507 4.005C494.057 3.725 494.332 3.37 494.332 2.94ZM497.167 6.315V7.275H484.927V6.315H497.167ZM486.832 13.335V10.875H494.227V9.465H486.742V8.535H495.322V11.745H487.927V13.17H495.712V14.1H487.582C487.342 14.1 487.157 14.035 487.027 13.905C486.897 13.775 486.832 13.585 486.832 13.335ZM516.633 6.795H514.518V13.515H513.378V0.495H514.518V5.835H516.633V6.795ZM510.183 2.175H505.923V1.2H510.183V2.175ZM503.928 3.975H511.953V4.905H509.733V4.995C510.643 5.445 511.098 6.31 511.098 7.59C511.098 8.24 510.963 8.805 510.693 9.285C510.423 9.755 510.048 10.115 509.568 10.365C509.098 10.615 508.573 10.74 507.993 10.74C507.413 10.74 506.883 10.615 506.403 10.365C505.933 10.115 505.563 9.755 505.293 9.285C505.023 8.805 504.888 8.24 504.888 7.59C504.888 6.31 505.343 5.445 506.253 4.995V4.905H503.928V3.975ZM509.988 7.095C509.988 6.425 509.808 5.915 509.448 5.565C509.088 5.205 508.603 5.025 507.993 5.025C507.393 5.025 506.908 5.205 506.538 5.565C506.178 5.925 505.998 6.435 505.998 7.095V7.71C505.998 8.36 506.183 8.87 506.553 9.24C506.923 9.6 507.403 9.78 507.993 9.78C508.583 9.78 509.063 9.6 509.433 9.24C509.803 8.87 509.988 8.36 509.988 7.71V7.095ZM529.617 0.464999V13.485H528.492V7.935H525.222V9.855H519.117V1.5H525.222V3.345H528.492V0.464999H529.617ZM524.127 2.43H520.212V8.925H524.127V2.43ZM528.492 6.99V4.275H525.222V6.99H528.492ZM550.147 4.41V5.37H548.062V10.35H546.922V0.464999H548.062V4.41H550.147ZM544.042 7.875H537.952V1.245H539.047V3.585H542.932V1.215H544.042V7.875ZM542.932 4.515H539.047V6.945H542.932V4.515ZM541.027 12.825H548.362V13.77H540.637C540.397 13.77 540.212 13.705 540.082 13.575C539.952 13.445 539.887 13.255 539.887 13.005V9.45H541.027V12.825ZM553.531 3.135C553.531 2.355 553.911 1.725 554.671 1.245C555.431 0.755 556.556 0.51 558.046 0.51C559.536 0.51 560.661 0.755 561.421 1.245C562.181 1.725 562.561 2.355 562.561 3.135C562.561 3.925 562.181 4.565 561.421 5.055C560.671 5.535 559.546 5.775 558.046 5.775C556.546 5.775 555.416 5.535 554.656 5.055C553.906 4.565 553.531 3.925 553.531 3.135ZM561.346 3.24V3.03C561.346 2.56 561.071 2.17 560.521 1.86C559.971 1.55 559.146 1.395 558.046 1.395C556.946 1.395 556.121 1.55 555.571 1.86C555.021 2.17 554.746 2.56 554.746 3.03V3.24C554.746 3.71 555.021 4.1 555.571 4.41C556.121 4.72 556.946 4.875 558.046 4.875C559.146 4.875 559.971 4.72 560.521 4.41C561.071 4.1 561.346 3.71 561.346 3.24ZM551.926 6.915H564.166V7.89H551.926V6.915ZM553.606 11.67C553.606 11.17 553.771 10.725 554.101 10.335C554.441 9.945 554.941 9.64 555.601 9.42C556.271 9.2 557.086 9.09 558.046 9.09C559.006 9.09 559.816 9.2 560.476 9.42C561.146 9.64 561.646 9.945 561.976 10.335C562.316 10.725 562.486 11.17 562.486 11.67C562.486 12.46 562.106 13.095 561.346 13.575C560.586 14.055 559.486 14.295 558.046 14.295C556.606 14.295 555.506 14.055 554.746 13.575C553.986 13.095 553.606 12.46 553.606 11.67ZM561.286 11.79V11.58C561.286 11.13 561.016 10.755 560.476 10.455C559.946 10.145 559.136 9.99 558.046 9.99C556.966 9.99 556.151 10.145 555.601 10.455C555.061 10.755 554.791 11.13 554.791 11.58V11.79C554.791 12.24 555.061 12.615 555.601 12.915C556.151 13.225 556.966 13.38 558.046 13.38C559.136 13.38 559.946 13.225 560.476 12.915C561.016 12.615 561.286 12.24 561.286 11.79ZM576.43 6.855H574.435V5.925H576.43V4.245H574.435V3.33H576.43V0.464999H577.57V8.895H576.43V6.855ZM572.41 1.725H568.39V0.78H572.41V1.725ZM570.295 8.385C569.685 8.385 569.15 8.29 568.69 8.1C568.23 7.91 567.875 7.645 567.625 7.305C567.375 6.965 567.25 6.58 567.25 6.15C567.25 5.72 567.355 5.35 567.565 5.04C567.775 4.72 568.09 4.47 568.51 4.29V4.2H566.44V3.285H573.955V4.2H572.095V4.29C572.515 4.47 572.83 4.72 573.04 5.04C573.25 5.35 573.355 5.72 573.355 6.15C573.355 6.58 573.23 6.965 572.98 7.305C572.73 7.645 572.37 7.91 571.9 8.1C571.44 8.29 570.905 8.385 570.295 8.385ZM570.16 7.44H570.445C570.985 7.44 571.43 7.305 571.78 7.035C572.13 6.755 572.305 6.37 572.305 5.88C572.305 5.38 572.13 4.995 571.78 4.725C571.44 4.445 570.995 4.305 570.445 4.305H570.16C569.61 4.305 569.16 4.445 568.81 4.725C568.47 4.995 568.3 5.38 568.3 5.88C568.3 6.37 568.475 6.755 568.825 7.035C569.175 7.305 569.62 7.44 570.16 7.44ZM577.66 11.7C577.66 12.47 577.295 13.09 576.565 13.56C575.845 14.03 574.805 14.265 573.445 14.265C572.075 14.265 571.025 14.03 570.295 13.56C569.575 13.09 569.215 12.47 569.215 11.7C569.215 11.21 569.37 10.775 569.68 10.395C570 10.015 570.475 9.715 571.105 9.495C571.745 9.275 572.525 9.165 573.445 9.165C574.355 9.165 575.125 9.275 575.755 9.495C576.395 9.715 576.87 10.015 577.18 10.395C577.5 10.775 577.66 11.21 577.66 11.7ZM576.445 11.61C576.445 11.18 576.195 10.82 575.695 10.53C575.195 10.23 574.445 10.08 573.445 10.08C572.435 10.08 571.675 10.23 571.165 10.53C570.665 10.82 570.415 11.18 570.415 11.61V11.82C570.415 12.25 570.665 12.61 571.165 12.9C571.675 13.2 572.435 13.35 573.445 13.35C574.445 13.35 575.195 13.2 575.695 12.9C576.195 12.61 576.445 12.25 576.445 11.82V11.61ZM595.521 6.45H592.851V5.52H595.521V3.48H592.851V2.55H595.521V0.464999H596.661V10.35H595.521V6.45ZM589.176 7.95C588.516 7.95 587.931 7.815 587.421 7.545C586.911 7.265 586.511 6.865 586.221 6.345C585.931 5.825 585.786 5.215 585.786 4.515C585.786 3.815 585.931 3.205 586.221 2.685C586.511 2.165 586.911 1.77 587.421 1.5C587.931 1.22 588.516 1.08 589.176 1.08C589.836 1.08 590.421 1.22 590.931 1.5C591.441 1.77 591.841 2.165 592.131 2.685C592.421 3.205 592.566 3.815 592.566 4.515C592.566 5.215 592.421 5.825 592.131 6.345C591.841 6.865 591.441 7.265 590.931 7.545C590.421 7.815 589.836 7.95 589.176 7.95ZM589.176 7.02C589.826 7.02 590.351 6.825 590.751 6.435C591.161 6.035 591.366 5.505 591.366 4.845V4.2C591.366 3.54 591.161 3.01 590.751 2.61C590.351 2.21 589.826 2.01 589.176 2.01C588.516 2.01 587.981 2.21 587.571 2.61C587.171 3.01 586.971 3.54 586.971 4.2V4.845C586.971 5.505 587.171 6.035 587.571 6.435C587.981 6.825 588.516 7.02 589.176 7.02ZM596.931 12.825V13.77H589.071C588.831 13.77 588.646 13.705 588.516 13.575C588.386 13.445 588.321 13.255 588.321 13.005V9.27H589.476V12.825H596.931ZM601.23 5.715L600.615 4.875C601.915 4.385 602.915 3.94 603.615 3.54C604.315 3.13 604.8 2.725 605.07 2.325C605.35 1.925 605.49 1.46 605.49 0.929999V0.584999H606.63V0.99C606.63 1.42 606.57 1.81 606.45 2.16C606.33 2.5 606.14 2.82 605.88 3.12L605.985 3.15L606.36 2.895C606.5 2.785 606.645 2.73 606.795 2.73C606.895 2.73 607.005 2.755 607.125 2.805L611.325 4.83L610.695 5.685L606.315 3.51C606.155 3.43 606.01 3.39 605.88 3.39C605.75 3.39 605.62 3.425 605.49 3.495C605.09 3.845 604.55 4.195 603.87 4.545C603.2 4.885 602.32 5.275 601.23 5.715ZM612.09 6.795V7.755H599.85V6.795H612.09ZM609.165 8.805H610.275V13.995H602.415C602.175 13.995 601.99 13.93 601.86 13.8C601.73 13.67 601.665 13.48 601.665 13.23V8.805H602.775V10.425H609.165V8.805ZM609.165 11.37H602.775V13.05H609.165V11.37ZM615.894 2.865C615.894 2.135 616.269 1.555 617.019 1.125C617.769 0.684999 618.894 0.464999 620.394 0.464999C621.894 0.464999 623.019 0.684999 623.769 1.125C624.519 1.555 624.894 2.135 624.894 2.865C624.894 3.595 624.519 4.18 623.769 4.62C623.019 5.06 621.894 5.28 620.394 5.28C618.894 5.28 617.769 5.06 617.019 4.62C616.269 4.18 615.894 3.595 615.894 2.865ZM623.679 2.94V2.775C623.679 2.345 623.404 1.995 622.854 1.725C622.314 1.445 621.494 1.305 620.394 1.305C619.294 1.305 618.469 1.445 617.919 1.725C617.379 1.995 617.109 2.345 617.109 2.775V2.94C617.109 3.37 617.379 3.725 617.919 4.005C618.469 4.275 619.294 4.41 620.394 4.41C621.494 4.41 622.314 4.275 622.854 4.005C623.404 3.725 623.679 3.37 623.679 2.94ZM626.514 6.315V7.275H614.274V6.315H626.514ZM616.179 13.335V10.875H623.574V9.465H616.089V8.535H624.669V11.745H617.274V13.17H625.059V14.1H616.929C616.689 14.1 616.504 14.035 616.374 13.905C616.244 13.775 616.179 13.585 616.179 13.335ZM645.995 4.92V5.88H643.91V10.5H642.77V0.464999H643.91V4.92H645.995ZM639.335 1.83H635.33V0.869999H639.335V1.83ZM637.235 8.94C636.615 8.94 636.07 8.835 635.6 8.625C635.13 8.415 634.765 8.125 634.505 7.755C634.255 7.385 634.13 6.965 634.13 6.495C634.13 6.025 634.24 5.615 634.46 5.265C634.69 4.905 635.03 4.63 635.48 4.44V4.365H633.14V3.42H641.27V4.365H638.99V4.44C639.44 4.63 639.775 4.905 639.995 5.265C640.225 5.615 640.34 6.025 640.34 6.495C640.34 6.965 640.21 7.385 639.95 7.755C639.7 8.125 639.34 8.415 638.87 8.625C638.4 8.835 637.855 8.94 637.235 8.94ZM637.115 7.98H637.37C637.93 7.98 638.385 7.83 638.735 7.53C639.095 7.22 639.275 6.79 639.275 6.24C639.275 5.69 639.1 5.26 638.75 4.95C638.4 4.64 637.94 4.485 637.37 4.485H637.115C636.545 4.485 636.085 4.64 635.735 4.95C635.385 5.25 635.21 5.68 635.21 6.24C635.21 6.79 635.385 7.22 635.735 7.53C636.095 7.83 636.555 7.98 637.115 7.98ZM636.875 12.9H644.21V13.845H636.485C636.245 13.845 636.06 13.78 635.93 13.65C635.8 13.52 635.735 13.33 635.735 13.08V10.08H636.875V12.9ZM662.52 6.165H659.565V5.25H662.52V3.315H659.565V2.385H662.52V0.464999H663.66V8.22H662.52V6.165ZM653.55 8.085L652.935 7.215C654.275 6.685 655.29 6.215 655.98 5.805C656.68 5.385 657.17 4.945 657.45 4.485C657.73 4.025 657.87 3.46 657.87 2.79V2.205H653.31V1.245H659.01V2.655C659.01 3.535 658.85 4.265 658.53 4.845C658.21 5.425 657.665 5.965 656.895 6.465C656.125 6.955 655.01 7.495 653.55 8.085ZM663.735 11.34C663.735 11.89 663.575 12.38 663.255 12.81C662.945 13.25 662.475 13.595 661.845 13.845C661.215 14.095 660.445 14.22 659.535 14.22C658.625 14.22 657.85 14.095 657.21 13.845C656.58 13.595 656.105 13.25 655.785 12.81C655.475 12.38 655.32 11.89 655.32 11.34C655.32 10.79 655.475 10.3 655.785 9.87C656.105 9.43 656.58 9.085 657.21 8.835C657.85 8.585 658.625 8.46 659.535 8.46C660.445 8.46 661.215 8.585 661.845 8.835C662.475 9.085 662.945 9.43 663.255 9.87C663.575 10.3 663.735 10.79 663.735 11.34ZM662.52 11.22C662.52 10.7 662.27 10.265 661.77 9.915C661.28 9.565 660.535 9.39 659.535 9.39C658.535 9.39 657.785 9.57 657.285 9.93C656.785 10.28 656.535 10.71 656.535 11.22V11.475C656.535 11.985 656.785 12.415 657.285 12.765C657.785 13.125 658.535 13.305 659.535 13.305C660.535 13.305 661.28 13.125 661.77 12.765C662.27 12.415 662.52 11.985 662.52 11.475V11.22ZM676.929 5.34V0.464999H678.069V8.7H676.929V6.285H674.724V5.34H676.929ZM673.134 1.725H669.084V0.78H673.134V1.725ZM670.944 8.385C670.324 8.385 669.779 8.29 669.309 8.1C668.839 7.91 668.474 7.645 668.214 7.305C667.964 6.965 667.839 6.58 667.839 6.15C667.839 5.72 667.944 5.35 668.154 5.04C668.374 4.72 668.694 4.47 669.114 4.29V4.2H666.864V3.285H674.949V4.2H672.759V4.29C673.179 4.47 673.494 4.72 673.704 5.04C673.924 5.35 674.034 5.72 674.034 6.15C674.034 6.58 673.904 6.965 673.644 7.305C673.394 7.645 673.034 7.91 672.564 8.1C672.104 8.29 671.564 8.385 670.944 8.385ZM670.794 7.44H671.094C671.644 7.44 672.094 7.305 672.444 7.035C672.804 6.755 672.984 6.37 672.984 5.88C672.984 5.38 672.809 4.995 672.459 4.725C672.109 4.445 671.654 4.305 671.094 4.305H670.794C670.234 4.305 669.774 4.445 669.414 4.725C669.064 4.995 668.889 5.38 668.889 5.88C668.889 6.37 669.064 6.755 669.414 7.035C669.774 7.305 670.234 7.44 670.794 7.44ZM678.084 9.48V14.025H670.584C670.344 14.025 670.159 13.96 670.029 13.83C669.899 13.7 669.834 13.51 669.834 13.26V9.48H678.084ZM676.929 10.425H670.974V13.08H676.929V10.425ZM691.293 0.464999H692.433V13.485H691.293V0.464999ZM681.663 5.73C681.663 4.27 681.983 3.165 682.623 2.415C683.273 1.665 684.128 1.29 685.188 1.29C686.238 1.29 687.083 1.665 687.723 2.415C688.373 3.165 688.698 4.27 688.698 5.73C688.698 6.71 688.548 7.535 688.248 8.205C687.948 8.865 687.533 9.36 687.003 9.69C686.473 10.01 685.868 10.17 685.188 10.17C684.128 10.17 683.273 9.795 682.623 9.045C681.983 8.295 681.663 7.19 681.663 5.73ZM687.483 6.315V5.145C687.483 4.215 687.268 3.5 686.838 3C686.418 2.5 685.868 2.25 685.188 2.25C684.498 2.25 683.938 2.5 683.508 3C683.088 3.49 682.878 4.205 682.878 5.145V6.315C682.878 7.255 683.088 7.975 683.508 8.475C683.938 8.965 684.498 9.21 685.188 9.21C685.868 9.21 686.418 8.96 686.838 8.46C687.268 7.96 687.483 7.245 687.483 6.315ZM712.589 7.17V8.145H700.349V7.17H709.199C709.369 6.45 709.499 5.665 709.589 4.815L701.714 5.145L701.594 4.2L709.649 3.945C709.689 3.395 709.709 2.745 709.709 1.995V1.98H702.044V1.035H710.819V2.19C710.819 3.96 710.654 5.62 710.324 7.17H712.589ZM703.244 12.795H711.014V13.755H702.854C702.614 13.755 702.429 13.69 702.299 13.56C702.169 13.43 702.104 13.24 702.104 12.99V9.66H703.244V12.795ZM731.664 11.04V12H719.424V11.04H724.974V7.575H721.194V1.35H729.939V2.325H722.334V6.6H730.074V7.575H726.114V11.04H731.664ZM735.453 3.135C735.453 2.355 735.833 1.725 736.593 1.245C737.353 0.755 738.478 0.51 739.968 0.51C741.458 0.51 742.583 0.755 743.343 1.245C744.103 1.725 744.483 2.355 744.483 3.135C744.483 3.925 744.103 4.565 743.343 5.055C742.593 5.535 741.468 5.775 739.968 5.775C738.468 5.775 737.338 5.535 736.578 5.055C735.828 4.565 735.453 3.925 735.453 3.135ZM736.668 3.24C736.668 3.71 736.943 4.1 737.493 4.41C738.043 4.72 738.868 4.875 739.968 4.875C741.068 4.875 741.893 4.72 742.443 4.41C742.993 4.1 743.268 3.71 743.268 3.24V3.03C743.268 2.56 742.993 2.17 742.443 1.86C741.893 1.55 741.068 1.395 739.968 1.395C738.868 1.395 738.043 1.55 737.493 1.86C736.943 2.17 736.668 2.56 736.668 3.03V3.24ZM740.538 7.83V9.36H744.273V14.025H736.413C736.173 14.025 735.988 13.96 735.858 13.83C735.728 13.7 735.663 13.51 735.663 13.26V9.36H739.413V7.83H733.848V6.855H746.088V7.83H740.538ZM743.148 10.275H736.788V13.095H743.148V10.275ZM758.292 0.464999H759.432V13.485H758.292V0.464999ZM748.662 5.73C748.662 4.27 748.982 3.165 749.622 2.415C750.272 1.665 751.127 1.29 752.187 1.29C753.237 1.29 754.082 1.665 754.722 2.415C755.372 3.165 755.697 4.27 755.697 5.73C755.697 6.71 755.547 7.535 755.247 8.205C754.947 8.865 754.532 9.36 754.002 9.69C753.472 10.01 752.867 10.17 752.187 10.17C751.127 10.17 750.272 9.795 749.622 9.045C748.982 8.295 748.662 7.19 748.662 5.73ZM754.482 6.315V5.145C754.482 4.215 754.267 3.5 753.837 3C753.417 2.5 752.867 2.25 752.187 2.25C751.497 2.25 750.937 2.5 750.507 3C750.087 3.49 749.877 4.205 749.877 5.145V6.315C749.877 7.255 750.087 7.975 750.507 8.475C750.937 8.965 751.497 9.21 752.187 9.21C752.867 9.21 753.417 8.96 753.837 8.46C754.267 7.96 754.482 7.245 754.482 6.315ZM778.523 0.464999V13.485H777.398V0.464999H778.523ZM776.318 9.45L776.423 10.365C775.293 10.545 773.938 10.685 772.358 10.785C770.778 10.875 769.148 10.92 767.468 10.92L767.378 9.945C768.838 9.945 770.083 9.92 771.113 9.87V6.96H768.488V1.47H774.953V2.415H769.613V6.015H775.073V6.96H772.208V9.825C773.728 9.755 775.098 9.63 776.318 9.45ZM782.177 4.2C782.177 3.54 782.322 2.965 782.612 2.475C782.902 1.985 783.302 1.61 783.812 1.35C784.332 1.08 784.922 0.944999 785.582 0.944999C786.502 0.944999 787.267 1.19 787.877 1.68C788.497 2.17 788.862 2.84 788.972 3.69H791.867V0.464999H793.007V7.98H791.867V4.65H788.972C788.872 5.51 788.512 6.195 787.892 6.705C787.272 7.205 786.502 7.455 785.582 7.455C784.932 7.455 784.347 7.325 783.827 7.065C783.307 6.795 782.902 6.415 782.612 5.925C782.322 5.435 782.177 4.86 782.177 4.2ZM783.377 4.47C783.377 5.09 783.577 5.59 783.977 5.97C784.387 6.34 784.922 6.525 785.582 6.525C786.242 6.525 786.772 6.34 787.172 5.97C787.582 5.59 787.787 5.09 787.787 4.47V3.93C787.787 3.31 787.582 2.815 787.172 2.445C786.772 2.065 786.242 1.875 785.582 1.875C784.922 1.875 784.387 2.065 783.977 2.445C783.577 2.815 783.377 3.31 783.377 3.93V4.47ZM794.237 13.275L793.502 14.055L791.282 11.88C791.222 11.81 791.152 11.775 791.072 11.775C791.032 11.775 790.987 11.79 790.937 11.82C790.707 12.16 790.412 12.51 790.052 12.87C789.692 13.24 789.212 13.685 788.612 14.205L786.332 11.835C786.262 11.765 786.192 11.73 786.122 11.73C786.082 11.73 786.027 11.755 785.957 11.805C785.517 12.465 784.767 13.25 783.707 14.16L782.987 13.395C783.657 12.835 784.182 12.335 784.562 11.895C784.942 11.455 785.212 11.02 785.372 10.59C785.542 10.16 785.627 9.675 785.627 9.135V8.655H786.707V9.165C786.707 9.985 786.552 10.7 786.242 11.31L786.302 11.34L786.497 11.19C786.577 11.12 786.672 11.085 786.782 11.085C786.902 11.085 787.007 11.13 787.097 11.22L788.687 12.81C789.407 12.16 789.902 11.575 790.172 11.055C790.442 10.535 790.577 9.9 790.577 9.15V8.655H791.657V9.21C791.657 9.65 791.622 10.04 791.552 10.38C791.482 10.72 791.367 11.045 791.207 11.355L791.267 11.4L791.462 11.235C791.572 11.155 791.677 11.115 791.777 11.115C791.877 11.115 791.977 11.155 792.077 11.235L794.237 13.275ZM797.576 5.715L796.961 4.875C798.261 4.385 799.261 3.94 799.961 3.54C800.661 3.13 801.146 2.725 801.416 2.325C801.696 1.925 801.836 1.46 801.836 0.929999V0.584999H802.976V0.99C802.976 1.42 802.916 1.81 802.796 2.16C802.676 2.5 802.486 2.82 802.226 3.12L802.331 3.15L802.706 2.895C802.846 2.785 802.991 2.73 803.141 2.73C803.241 2.73 803.351 2.755 803.471 2.805L807.671 4.83L807.041 5.685L802.661 3.51C802.501 3.43 802.356 3.39 802.226 3.39C802.096 3.39 801.966 3.425 801.836 3.495C801.436 3.845 800.896 4.195 800.216 4.545C799.546 4.885 798.666 5.275 797.576 5.715ZM808.436 6.795V7.755H796.196V6.795H808.436ZM805.511 8.805H806.621V13.995H798.761C798.521 13.995 798.336 13.93 798.206 13.8C798.076 13.67 798.011 13.48 798.011 13.23V8.805H799.121V10.425H805.511V8.805ZM805.511 11.37H799.121V13.05H805.511V11.37ZM11.73 23.465V36.485H10.59V23.465H11.73ZM8.775 31.49L8.925 32.435C7.295 32.755 5.32 32.915 3 32.915H1.365V24.515H2.505V31.94H2.955C5.285 31.94 7.225 31.79 8.775 31.49ZM27.624 29.555H25.464V36.515H24.324V23.495H25.464V28.595H27.624V29.555ZM22.749 31.685L22.899 32.6C21.369 32.91 19.459 33.065 17.169 33.065H15.579V24.53H21.564V25.49H16.719V32.12H17.154C19.354 32.12 21.219 31.975 22.749 31.685ZM30.888 35.18C30.568 35.18 30.333 35.1 30.183 34.94C30.043 34.78 29.973 34.57 29.973 34.31V34.115C29.973 33.855 30.043 33.645 30.183 33.485C30.333 33.325 30.568 33.245 30.888 33.245C31.208 33.245 31.438 33.325 31.578 33.485C31.728 33.645 31.803 33.855 31.803 34.115V34.31C31.803 34.57 31.728 34.78 31.578 34.94C31.438 35.1 31.208 35.18 30.888 35.18ZM42.1833 30.395H40.8633V24.395H45.3183V25.355H42.0033V29.45H42.2433C43.4533 29.45 44.5133 29.35 45.4233 29.15L45.5583 30.065C44.6783 30.285 43.5533 30.395 42.1833 30.395ZM50.9283 30.35H46.3083V24.395H50.7783V25.355H47.4483V29.39H50.9283V30.35ZM51.9633 34.04V35H39.7233V34.04H45.2733V31.1H46.4133V34.04H51.9633ZM66.7923 27.92V28.88H64.7073V33.5H63.5673V23.465H64.7073V27.92H66.7923ZM60.1323 24.83H56.1273V23.87H60.1323V24.83ZM58.0323 31.94C57.4123 31.94 56.8673 31.835 56.3973 31.625C55.9273 31.415 55.5623 31.125 55.3023 30.755C55.0523 30.385 54.9273 29.965 54.9273 29.495C54.9273 29.025 55.0373 28.615 55.2573 28.265C55.4873 27.905 55.8273 27.63 56.2773 27.44V27.365H53.9373V26.42H62.0673V27.365H59.7873V27.44C60.2373 27.63 60.5723 27.905 60.7923 28.265C61.0223 28.615 61.1373 29.025 61.1373 29.495C61.1373 29.965 61.0073 30.385 60.7473 30.755C60.4973 31.125 60.1373 31.415 59.6673 31.625C59.1973 31.835 58.6523 31.94 58.0323 31.94ZM57.9123 30.98H58.1673C58.7273 30.98 59.1823 30.83 59.5323 30.53C59.8923 30.22 60.0723 29.79 60.0723 29.24C60.0723 28.69 59.8973 28.26 59.5473 27.95C59.1973 27.64 58.7373 27.485 58.1673 27.485H57.9123C57.3423 27.485 56.8823 27.64 56.5323 27.95C56.1823 28.25 56.0073 28.68 56.0073 29.24C56.0073 29.79 56.1823 30.22 56.5323 30.53C56.8923 30.83 57.3523 30.98 57.9123 30.98ZM57.6723 35.9H65.0073V36.845H57.2823C57.0423 36.845 56.8573 36.78 56.7273 36.65C56.5973 36.52 56.5323 36.33 56.5323 36.08V33.08H57.6723V35.9ZM84.8997 23.465V36.485H83.7597V23.465H84.8997ZM81.8847 31.685L82.0347 32.6C80.4847 32.91 78.5547 33.065 76.2447 33.065H74.6397V24.53H80.6847V25.49H75.7947V32.105H76.2147C78.5047 32.105 80.3947 31.965 81.8847 31.685ZM100.794 29.555H98.6337V36.515H97.4937V23.495H98.6337V28.595H100.794V29.555ZM92.6637 28.97C92.7837 28.97 92.8987 29.025 93.0087 29.135L95.9337 32.6L95.0787 33.335L92.1387 29.75C92.0787 29.69 92.0137 29.66 91.9437 29.66C91.8737 29.66 91.8237 29.69 91.7937 29.75C91.5237 30.29 91.1687 30.845 90.7287 31.415C90.2987 31.975 89.7087 32.68 88.9587 33.53L88.1187 32.825C88.9887 31.905 89.6537 31.11 90.1137 30.44C90.5837 29.77 90.9237 29.105 91.1337 28.445C91.3437 27.775 91.4487 27.015 91.4487 26.165V25.595H88.5087V24.635H95.4987V25.595H92.5737V26.195C92.5737 27.315 92.3937 28.32 92.0337 29.21L92.1087 29.27L92.3487 29.09C92.4487 29.01 92.5537 28.97 92.6637 28.97ZM113.823 23.465V33.35H112.668V23.465H113.823ZM103.023 27.515C103.023 26.815 103.168 26.205 103.458 25.685C103.758 25.165 104.168 24.77 104.688 24.5C105.208 24.22 105.803 24.08 106.473 24.08C107.133 24.08 107.723 24.22 108.243 24.5C108.773 24.77 109.183 25.165 109.473 25.685C109.773 26.205 109.923 26.815 109.923 27.515C109.923 28.205 109.773 28.81 109.473 29.33C109.183 29.85 108.773 30.25 108.243 30.53C107.723 30.8 107.133 30.935 106.473 30.935C105.803 30.935 105.208 30.8 104.688 30.53C104.168 30.25 103.758 29.855 103.458 29.345C103.168 28.825 103.023 28.215 103.023 27.515ZM108.708 27.83V27.2C108.708 26.54 108.498 26.015 108.078 25.625C107.668 25.225 107.133 25.025 106.473 25.025C105.803 25.025 105.258 25.225 104.838 25.625C104.428 26.025 104.223 26.55 104.223 27.2V27.83C104.223 28.48 104.433 29.005 104.853 29.405C105.273 29.795 105.813 29.99 106.473 29.99C107.133 29.99 107.668 29.795 108.078 29.405C108.498 29.005 108.708 28.48 108.708 27.83ZM105.483 36.005V32.27H106.638V35.825H114.093V36.77H106.233C105.993 36.77 105.808 36.705 105.678 36.575C105.548 36.445 105.483 36.255 105.483 36.005ZM118.632 25.865C118.632 25.135 119.007 24.555 119.757 24.125C120.507 23.685 121.632 23.465 123.132 23.465C124.632 23.465 125.757 23.685 126.507 24.125C127.257 24.555 127.632 25.135 127.632 25.865C127.632 26.595 127.257 27.18 126.507 27.62C125.757 28.06 124.632 28.28 123.132 28.28C121.632 28.28 120.507 28.06 119.757 27.62C119.007 27.18 118.632 26.595 118.632 25.865ZM126.417 25.94V25.775C126.417 25.345 126.142 24.995 125.592 24.725C125.052 24.445 124.232 24.305 123.132 24.305C122.032 24.305 121.207 24.445 120.657 24.725C120.117 24.995 119.847 25.345 119.847 25.775V25.94C119.847 26.37 120.117 26.725 120.657 27.005C121.207 27.275 122.032 27.41 123.132 27.41C124.232 27.41 125.052 27.275 125.592 27.005C126.142 26.725 126.417 26.37 126.417 25.94ZM129.252 29.315V30.275H117.012V29.315H129.252ZM118.917 36.335V33.875H126.312V32.465H118.827V31.535H127.407V34.745H120.012V36.17H127.797V37.1H119.667C119.427 37.1 119.242 37.035 119.112 36.905C118.982 36.775 118.917 36.585 118.917 36.335ZM149.234 29.795H147.119V36.515H145.979V23.495H147.119V28.835H149.234V29.795ZM142.784 25.175H138.524V24.2H142.784V25.175ZM136.529 26.975H144.554V27.905H142.334V27.995C143.244 28.445 143.699 29.31 143.699 30.59C143.699 31.24 143.564 31.805 143.294 32.285C143.024 32.755 142.649 33.115 142.169 33.365C141.699 33.615 141.174 33.74 140.594 33.74C140.014 33.74 139.484 33.615 139.004 33.365C138.534 33.115 138.164 32.755 137.894 32.285C137.624 31.805 137.489 31.24 137.489 30.59C137.489 29.31 137.944 28.445 138.854 27.995V27.905H136.529V26.975ZM142.589 30.095C142.589 29.425 142.409 28.915 142.049 28.565C141.689 28.205 141.204 28.025 140.594 28.025C139.994 28.025 139.509 28.205 139.139 28.565C138.779 28.925 138.599 29.435 138.599 30.095V30.71C138.599 31.36 138.784 31.87 139.154 32.24C139.524 32.6 140.004 32.78 140.594 32.78C141.184 32.78 141.664 32.6 142.034 32.24C142.404 31.87 142.589 31.36 142.589 30.71V30.095ZM161.123 29.45H158.363V28.52H161.123V26.48H158.363V25.55H161.123V23.465H162.263V33.35H161.123V29.45ZM157.853 30.695H151.718V24.305H157.853V30.695ZM156.728 25.25H152.843V29.75H156.728V25.25ZM162.533 35.825V36.77H154.673C154.433 36.77 154.248 36.705 154.118 36.575C153.988 36.445 153.923 36.255 153.923 36.005V32.27H155.078V35.825H162.533ZM176.627 23.465V36.485H175.502V28.79H172.727V27.83H175.502V23.465H176.627ZM170.132 28.715C170.252 28.715 170.357 28.77 170.447 28.88L173.387 32.63L172.517 33.395L169.577 29.525C169.537 29.475 169.487 29.45 169.427 29.45C169.367 29.45 169.317 29.475 169.277 29.525C169.027 30.105 168.682 30.7 168.242 31.31C167.802 31.92 167.202 32.68 166.442 33.59L165.572 32.855C166.442 31.865 167.107 31.02 167.567 30.32C168.037 29.61 168.372 28.9 168.572 28.19C168.782 27.48 168.887 26.665 168.887 25.745V24.335H170.027V25.73C170.027 26.94 169.862 28.02 169.532 28.97L169.592 29.015L169.802 28.835C169.912 28.755 170.022 28.715 170.132 28.715ZM190.376 28.655H181.751V23.945H182.876V27.71H190.376V28.655ZM192.116 30.32V31.295H179.876V30.32H192.116ZM182.771 35.795H190.541V36.755H182.381C182.141 36.755 181.956 36.69 181.826 36.56C181.696 36.43 181.631 36.24 181.631 35.99V32.705H182.771V35.795ZM210.629 23.465V36.485H209.489V23.465H210.629ZM207.614 31.685L207.764 32.6C206.214 32.91 204.284 33.065 201.974 33.065H200.369V24.53H206.414V25.49H201.524V32.105H201.944C204.234 32.105 206.124 31.965 207.614 31.685ZM226.523 29.555H224.363V36.515H223.223V23.495H224.363V28.595H226.523V29.555ZM218.393 28.97C218.513 28.97 218.628 29.025 218.738 29.135L221.663 32.6L220.808 33.335L217.868 29.75C217.808 29.69 217.743 29.66 217.673 29.66C217.603 29.66 217.553 29.69 217.523 29.75C217.253 30.29 216.898 30.845 216.458 31.415C216.028 31.975 215.438 32.68 214.688 33.53L213.848 32.825C214.718 31.905 215.383 31.11 215.843 30.44C216.313 29.77 216.653 29.105 216.863 28.445C217.073 27.775 217.178 27.015 217.178 26.165V25.595H214.238V24.635H221.228V25.595H218.303V26.195C218.303 27.315 218.123 28.32 217.763 29.21L217.838 29.27L218.078 29.09C218.178 29.01 218.283 28.97 218.393 28.97ZM239.552 23.465V33.35H238.397V23.465H239.552ZM228.752 27.515C228.752 26.815 228.897 26.205 229.187 25.685C229.487 25.165 229.897 24.77 230.417 24.5C230.937 24.22 231.532 24.08 232.202 24.08C232.862 24.08 233.452 24.22 233.972 24.5C234.502 24.77 234.912 25.165 235.202 25.685C235.502 26.205 235.652 26.815 235.652 27.515C235.652 28.205 235.502 28.81 235.202 29.33C234.912 29.85 234.502 30.25 233.972 30.53C233.452 30.8 232.862 30.935 232.202 30.935C231.532 30.935 230.937 30.8 230.417 30.53C229.897 30.25 229.487 29.855 229.187 29.345C228.897 28.825 228.752 28.215 228.752 27.515ZM234.437 27.83V27.2C234.437 26.54 234.227 26.015 233.807 25.625C233.397 25.225 232.862 25.025 232.202 25.025C231.532 25.025 230.987 25.225 230.567 25.625C230.157 26.025 229.952 26.55 229.952 27.2V27.83C229.952 28.48 230.162 29.005 230.582 29.405C231.002 29.795 231.542 29.99 232.202 29.99C232.862 29.99 233.397 29.795 233.807 29.405C234.227 29.005 234.437 28.48 234.437 27.83ZM231.212 36.005V32.27H232.367V35.825H239.822V36.77H231.962C231.722 36.77 231.537 36.705 231.407 36.575C231.277 36.445 231.212 36.255 231.212 36.005ZM255.371 29.78H253.331V36.485H252.206V23.465H253.331V28.82H255.371V29.78ZM249.011 25.595H243.371V24.65H250.121V25.805C250.121 27.395 249.941 28.98 249.581 30.56L248.486 30.395C248.836 28.945 249.011 27.46 249.011 25.94V25.595ZM251.126 32.21L251.231 33.125C250.131 33.305 248.816 33.44 247.286 33.53C245.766 33.62 244.201 33.665 242.591 33.665L242.486 32.705C243.486 32.705 244.481 32.69 245.471 32.66V28.595H246.581V32.615C248.391 32.535 249.906 32.4 251.126 32.21ZM274.963 29.555H272.803V36.515H271.663V23.495H272.803V28.595H274.963V29.555ZM266.758 28.715C266.888 28.715 266.998 28.77 267.088 28.88L270.013 32.63L269.143 33.395L266.203 29.54C266.173 29.48 266.123 29.45 266.053 29.45C266.003 29.45 265.953 29.48 265.903 29.54C265.643 30.12 265.293 30.72 264.853 31.34C264.413 31.95 263.818 32.7 263.068 33.59L262.198 32.855C263.068 31.865 263.733 31.02 264.193 30.32C264.663 29.61 264.998 28.9 265.198 28.19C265.408 27.48 265.513 26.665 265.513 25.745V24.335H266.668V25.73C266.668 26.92 266.493 28 266.143 28.97L266.218 29.015L266.443 28.835C266.553 28.755 266.658 28.715 266.758 28.715ZM288.997 30.05V31.01H276.757V30.05H280.012V28.28C279.462 28.05 279.047 27.75 278.767 27.38C278.497 27.01 278.362 26.59 278.362 26.12C278.362 25.34 278.742 24.71 279.502 24.23C280.262 23.74 281.387 23.495 282.877 23.495C284.367 23.495 285.492 23.74 286.252 24.23C287.012 24.71 287.392 25.34 287.392 26.12C287.392 26.59 287.252 27.01 286.972 27.38C286.702 27.75 286.292 28.05 285.742 28.28V30.05H288.997ZM282.877 27.86C283.987 27.86 284.817 27.705 285.367 27.395C285.917 27.085 286.192 26.69 286.192 26.21V26C286.192 25.53 285.912 25.14 285.352 24.83C284.802 24.52 283.977 24.365 282.877 24.365C281.777 24.365 280.952 24.52 280.402 24.83C279.852 25.14 279.577 25.53 279.577 26V26.21C279.577 26.69 279.847 27.085 280.387 27.395C280.937 27.705 281.767 27.86 282.877 27.86ZM281.107 30.05H284.647V28.595C284.157 28.695 283.567 28.745 282.877 28.745C282.187 28.745 281.597 28.695 281.107 28.595V30.05ZM287.317 34.685C287.317 35.195 287.147 35.645 286.807 36.035C286.477 36.425 285.977 36.73 285.307 36.95C284.647 37.18 283.837 37.295 282.877 37.295C281.917 37.295 281.102 37.18 280.432 36.95C279.772 36.73 279.272 36.425 278.932 36.035C278.602 35.645 278.437 35.195 278.437 34.685C278.437 34.185 278.602 33.745 278.932 33.365C279.272 32.975 279.772 32.67 280.432 32.45C281.102 32.23 281.917 32.12 282.877 32.12C283.837 32.12 284.647 32.23 285.307 32.45C285.977 32.67 286.477 32.975 286.807 33.365C287.147 33.745 287.317 34.185 287.317 34.685ZM286.117 34.595C286.117 34.155 285.847 33.785 285.307 33.485C284.777 33.175 283.967 33.02 282.877 33.02C282.147 33.02 281.537 33.095 281.047 33.245C280.557 33.385 280.197 33.575 279.967 33.815C279.737 34.055 279.622 34.315 279.622 34.595V34.805C279.622 35.085 279.737 35.345 279.967 35.585C280.197 35.825 280.557 36.015 281.047 36.155C281.537 36.305 282.147 36.38 282.877 36.38C283.967 36.38 284.777 36.225 285.307 35.915C285.847 35.615 286.117 35.245 286.117 34.805V34.595ZM303.811 29.555H301.651V36.515H300.511V23.495H301.651V28.595H303.811V29.555ZM295.681 28.97C295.801 28.97 295.916 29.025 296.026 29.135L298.951 32.6L298.096 33.335L295.156 29.75C295.096 29.69 295.031 29.66 294.961 29.66C294.891 29.66 294.841 29.69 294.811 29.75C294.541 30.29 294.186 30.845 293.746 31.415C293.316 31.975 292.726 32.68 291.976 33.53L291.136 32.825C292.006 31.905 292.671 31.11 293.131 30.44C293.601 29.77 293.941 29.105 294.151 28.445C294.361 27.775 294.466 27.015 294.466 26.165V25.595H291.526V24.635H298.516V25.595H295.591V26.195C295.591 27.315 295.411 28.32 295.051 29.21L295.126 29.27L295.366 29.09C295.466 29.01 295.571 28.97 295.681 28.97ZM320.853 29.36H318.438V28.43H320.853V26.57H318.438V25.625H320.853V23.465H322.008V33.425H320.853V29.36ZM317.928 25.415H311.133V24.47H317.928V25.415ZM318.528 30.98C317.598 31.12 316.453 31.23 315.093 31.31C313.743 31.38 312.343 31.415 310.893 31.415L310.788 30.485C311.178 30.485 311.773 30.475 312.573 30.455L312.213 26.48L313.323 26.39L313.593 30.44C313.993 30.43 314.608 30.405 315.438 30.365L315.768 26.36L316.863 26.465L316.458 30.29C317.078 30.25 317.728 30.185 318.408 30.095L318.528 30.98ZM322.278 35.825V36.77H314.388C314.148 36.77 313.963 36.705 313.833 36.575C313.703 36.445 313.638 36.255 313.638 36.005V32.645H314.778V35.825H322.278ZM335.247 23.465H336.372V36.485H335.247V23.465ZM325.887 27.365C325.887 26.745 326.042 26.2 326.352 25.73C326.662 25.25 327.087 24.885 327.627 24.635C328.167 24.375 328.777 24.245 329.457 24.245C330.137 24.245 330.747 24.375 331.287 24.635C331.827 24.885 332.252 25.25 332.562 25.73C332.872 26.2 333.027 26.745 333.027 27.365C333.027 27.985 332.872 28.53 332.562 29C332.252 29.47 331.827 29.835 331.287 30.095C330.747 30.345 330.137 30.47 329.457 30.47C328.777 30.47 328.167 30.345 327.627 30.095C327.087 29.835 326.662 29.47 326.352 29C326.042 28.53 325.887 27.985 325.887 27.365ZM331.827 27.545V27.185C331.827 26.585 331.607 26.1 331.167 25.73C330.727 25.36 330.157 25.175 329.457 25.175C328.757 25.175 328.187 25.36 327.747 25.73C327.307 26.1 327.087 26.585 327.087 27.185V27.545C327.087 28.145 327.307 28.63 327.747 29C328.187 29.37 328.757 29.555 329.457 29.555C330.157 29.555 330.727 29.37 331.167 29C331.607 28.63 331.827 28.145 331.827 27.545ZM325.257 32.78C326.957 32.78 328.597 32.74 330.177 32.66C331.757 32.58 333.097 32.455 334.197 32.285L334.317 33.2C333.187 33.38 331.827 33.52 330.237 33.62C328.657 33.71 327.032 33.755 325.362 33.755L325.257 32.78ZM357.435 27.41V28.37H355.35V33.35H354.21V23.465H355.35V27.41H357.435ZM345.675 31.52L345.06 30.65C346.42 30.09 347.455 29.59 348.165 29.15C348.875 28.71 349.375 28.245 349.665 27.755C349.955 27.265 350.1 26.665 350.1 25.955V25.325H345.435V24.35H351.24V25.85C351.24 26.77 351.075 27.535 350.745 28.145C350.425 28.755 349.87 29.315 349.08 29.825C348.3 30.335 347.165 30.9 345.675 31.52ZM348.315 35.825H355.65V36.77H347.925C347.685 36.77 347.5 36.705 347.37 36.575C347.24 36.445 347.175 36.255 347.175 36.005V32.27H348.315V35.825ZM369.264 23.465H370.389V36.485H369.264V23.465ZM359.904 27.365C359.904 26.745 360.059 26.2 360.369 25.73C360.679 25.25 361.104 24.885 361.644 24.635C362.184 24.375 362.794 24.245 363.474 24.245C364.154 24.245 364.764 24.375 365.304 24.635C365.844 24.885 366.269 25.25 366.579 25.73C366.889 26.2 367.044 26.745 367.044 27.365C367.044 27.985 366.889 28.53 366.579 29C366.269 29.47 365.844 29.835 365.304 30.095C364.764 30.345 364.154 30.47 363.474 30.47C362.794 30.47 362.184 30.345 361.644 30.095C361.104 29.835 360.679 29.47 360.369 29C360.059 28.53 359.904 27.985 359.904 27.365ZM365.844 27.545V27.185C365.844 26.585 365.624 26.1 365.184 25.73C364.744 25.36 364.174 25.175 363.474 25.175C362.774 25.175 362.204 25.36 361.764 25.73C361.324 26.1 361.104 26.585 361.104 27.185V27.545C361.104 28.145 361.324 28.63 361.764 29C362.204 29.37 362.774 29.555 363.474 29.555C364.174 29.555 364.744 29.37 365.184 29C365.624 28.63 365.844 28.145 365.844 27.545ZM359.274 32.78C360.974 32.78 362.614 32.74 364.194 32.66C365.774 32.58 367.114 32.455 368.214 32.285L368.334 33.2C367.204 33.38 365.844 33.52 364.254 33.62C362.674 33.71 361.049 33.755 359.379 33.755L359.274 32.78ZM384.386 24.8H380.306V23.885H389.546V24.8H385.511C385.491 25.5 385.276 26.09 384.866 26.57L384.941 26.6L385.256 26.375C385.396 26.285 385.526 26.24 385.646 26.24C385.746 26.24 385.866 26.27 386.006 26.33L390.101 28.235L389.501 29.06L385.211 26.99C385.081 26.92 384.951 26.885 384.821 26.885C384.681 26.885 384.556 26.92 384.446 26.99C384.056 27.32 383.531 27.655 382.871 27.995C382.211 28.325 381.366 28.69 380.336 29.09L379.751 28.28C380.941 27.83 381.861 27.43 382.511 27.08C383.161 26.72 383.626 26.365 383.906 26.015C384.196 25.665 384.356 25.26 384.386 24.8ZM385.496 31.01V32.21C386.756 32.28 387.716 32.54 388.376 32.99C389.036 33.44 389.366 34.02 389.366 34.73C389.366 35.23 389.196 35.67 388.856 36.05C388.526 36.44 388.026 36.745 387.356 36.965C386.696 37.185 385.886 37.295 384.926 37.295C383.966 37.295 383.151 37.185 382.481 36.965C381.821 36.745 381.321 36.44 380.981 36.05C380.651 35.67 380.486 35.23 380.486 34.73C380.486 34.02 380.816 33.44 381.476 32.99C382.136 32.54 383.096 32.28 384.356 32.21V31.01H378.806V30.05H391.046V31.01H385.496ZM384.926 33.08C383.836 33.08 383.016 33.23 382.466 33.53C381.926 33.83 381.656 34.2 381.656 34.64V34.85C381.656 35.28 381.926 35.645 382.466 35.945C383.016 36.245 383.836 36.395 384.926 36.395C386.016 36.395 386.831 36.245 387.371 35.945C387.911 35.645 388.181 35.28 388.181 34.85V34.64C388.181 34.19 387.911 33.82 387.371 33.53C386.841 33.23 386.026 33.08 384.926 33.08ZM405.875 27.41V28.37H403.79V33.35H402.65V23.465H403.79V27.41H405.875ZM394.115 31.52L393.5 30.65C394.86 30.09 395.895 29.59 396.605 29.15C397.315 28.71 397.815 28.245 398.105 27.755C398.395 27.265 398.54 26.665 398.54 25.955V25.325H393.875V24.35H399.68V25.85C399.68 26.77 399.515 27.535 399.185 28.145C398.865 28.755 398.31 29.315 397.52 29.825C396.74 30.335 395.605 30.9 394.115 31.52ZM396.755 35.825H404.09V36.77H396.365C396.125 36.77 395.94 36.705 395.81 36.575C395.68 36.445 395.615 36.255 395.615 36.005V32.27H396.755V35.825ZM423.983 23.465V36.485H422.843V23.465H423.983ZM417.713 28.97C417.853 28.97 417.968 29.025 418.058 29.135L420.998 32.585L420.143 33.32L417.173 29.75C417.123 29.69 417.063 29.66 416.993 29.66C416.933 29.66 416.878 29.69 416.828 29.75C416.558 30.3 416.203 30.86 415.763 31.43C415.323 32 414.723 32.7 413.963 33.53L413.108 32.81C413.978 31.9 414.648 31.11 415.118 30.44C415.598 29.77 415.943 29.105 416.153 28.445C416.363 27.775 416.468 27.015 416.468 26.165V25.595H413.513V24.635H420.548V25.595H417.608V26.21C417.608 27.34 417.433 28.345 417.083 29.225L417.158 29.27L417.383 29.09C417.493 29.01 417.603 28.97 417.713 28.97ZM438.482 23.465V31.055H437.342V27.62H434.612V26.69H437.342V23.465H438.482ZM431.342 28.07C431.262 28.07 431.192 28.1 431.132 28.16C430.862 28.55 430.517 28.95 430.097 29.36C429.677 29.77 429.122 30.265 428.432 30.845L427.577 30.125C428.417 29.465 429.067 28.895 429.527 28.415C429.987 27.925 430.317 27.445 430.517 26.975C430.727 26.495 430.832 25.96 430.832 25.37V25.22H427.967V24.26H434.807V25.22H431.972V25.415C431.972 26.265 431.797 27.01 431.447 27.65L431.537 27.695L431.777 27.515C431.887 27.435 431.997 27.395 432.107 27.395C432.237 27.395 432.352 27.44 432.452 27.53L435.242 29.87L434.402 30.62L431.567 28.16C431.487 28.1 431.412 28.07 431.342 28.07ZM430.232 31.925H438.482V37.025H430.982C430.742 37.025 430.557 36.96 430.427 36.83C430.297 36.7 430.232 36.51 430.232 36.26V31.925ZM431.342 36.095H437.357V32.855H431.342V36.095ZM443.291 25.865C443.291 25.135 443.666 24.555 444.416 24.125C445.166 23.685 446.291 23.465 447.791 23.465C449.291 23.465 450.416 23.685 451.166 24.125C451.916 24.555 452.291 25.135 452.291 25.865C452.291 26.595 451.916 27.18 451.166 27.62C450.416 28.06 449.291 28.28 447.791 28.28C446.291 28.28 445.166 28.06 444.416 27.62C443.666 27.18 443.291 26.595 443.291 25.865ZM451.076 25.94V25.775C451.076 25.345 450.801 24.995 450.251 24.725C449.711 24.445 448.891 24.305 447.791 24.305C446.691 24.305 445.866 24.445 445.316 24.725C444.776 24.995 444.506 25.345 444.506 25.775V25.94C444.506 26.37 444.776 26.725 445.316 27.005C445.866 27.275 446.691 27.41 447.791 27.41C448.891 27.41 449.711 27.275 450.251 27.005C450.801 26.725 451.076 26.37 451.076 25.94ZM453.911 29.315V30.275H441.671V29.315H453.911ZM443.576 36.335V33.875H450.971V32.465H443.486V31.535H452.066V34.745H444.671V36.17H452.456V37.1H444.326C444.086 37.1 443.901 37.035 443.771 36.905C443.641 36.775 443.576 36.585 443.576 36.335ZM473.908 27.02V27.965H471.823V31.205H470.683V23.465H471.823V27.02H473.908ZM467.203 24.635H463.123V23.705H467.203V24.635ZM462.133 31.43L461.338 30.74C462.168 30.19 462.813 29.715 463.273 29.315C463.733 28.915 464.068 28.525 464.278 28.145C464.488 27.755 464.603 27.325 464.623 26.855H461.713V25.955H468.643V26.855H465.703C465.693 27.525 465.513 28.14 465.163 28.7L465.253 28.73L465.493 28.55C465.603 28.47 465.713 28.43 465.823 28.43C465.923 28.43 466.038 28.47 466.168 28.55L468.973 30.485L468.193 31.19L465.343 29.15C465.253 29.09 465.163 29.06 465.073 29.06C464.993 29.06 464.913 29.09 464.833 29.15C464.563 29.48 464.218 29.82 463.798 30.17C463.388 30.51 462.833 30.93 462.133 31.43ZM468.298 34.4C468.378 34.4 468.478 34.425 468.598 34.475L472.408 36.275L471.838 37.13L467.863 35.15C467.743 35.09 467.623 35.06 467.503 35.06C467.393 35.06 467.283 35.09 467.173 35.15C466.813 35.46 466.318 35.775 465.688 36.095C465.058 36.425 464.243 36.785 463.243 37.175L462.688 36.32C463.818 35.9 464.688 35.52 465.298 35.18C465.918 34.85 466.358 34.52 466.618 34.19C466.878 33.86 467.023 33.48 467.053 33.05H463.168V32.105H471.928V33.05H468.178C468.158 33.71 467.958 34.275 467.578 34.745L467.653 34.76L467.908 34.58C468.058 34.46 468.188 34.4 468.298 34.4ZM488.317 29.555H486.157V36.515H485.017V23.495H486.157V28.595H488.317V29.555ZM482.722 28.73C482.722 30.19 482.402 31.295 481.762 32.045C481.132 32.795 480.292 33.17 479.242 33.17C478.192 33.17 477.347 32.795 476.707 32.045C476.077 31.295 475.762 30.19 475.762 28.73C475.762 27.27 476.077 26.165 476.707 25.415C477.347 24.665 478.192 24.29 479.242 24.29C480.292 24.29 481.132 24.665 481.762 25.415C482.402 26.165 482.722 27.27 482.722 28.73ZM481.507 28.13C481.507 27.2 481.297 26.49 480.877 26C480.467 25.5 479.922 25.25 479.242 25.25C478.562 25.25 478.012 25.5 477.592 26C477.172 26.49 476.962 27.2 476.962 28.13V29.33C476.962 30.26 477.172 30.975 477.592 31.475C478.012 31.965 478.562 32.21 479.242 32.21C479.922 32.21 480.467 31.965 480.877 31.475C481.297 30.975 481.507 30.26 481.507 29.33V28.13ZM502.741 29.555H500.581V36.515H499.441V23.495H500.581V28.595H502.741V29.555ZM490.756 24.53H496.591V26.615C496.591 27.725 496.426 28.665 496.096 29.435C495.766 30.205 495.206 30.925 494.416 31.595C493.636 32.255 492.516 32.98 491.056 33.77L490.381 32.915C491.741 32.195 492.781 31.54 493.501 30.95C494.221 30.36 494.726 29.735 495.016 29.075C495.306 28.415 495.451 27.6 495.451 26.63V25.505H490.756V24.53ZM515.035 28.655H506.41V23.945H507.535V27.71H515.035V28.655ZM516.775 30.32V31.295H504.535V30.32H516.775ZM507.43 35.795H515.2V36.755H507.04C506.8 36.755 506.615 36.69 506.485 36.56C506.355 36.43 506.29 36.24 506.29 35.99V32.705H507.43V35.795ZM536.757 29.78H534.717V36.485H533.592V23.465H534.717V28.82H536.757V29.78ZM530.397 25.595H524.757V24.65H531.507V25.805C531.507 27.395 531.327 28.98 530.967 30.56L529.872 30.395C530.222 28.945 530.397 27.46 530.397 25.94V25.595ZM532.512 32.21L532.617 33.125C531.517 33.305 530.202 33.44 528.672 33.53C527.152 33.62 525.587 33.665 523.977 33.665L523.872 32.705C524.872 32.705 525.867 32.69 526.857 32.66V28.595H527.967V32.615C529.777 32.535 531.292 32.4 532.512 32.21ZM548.646 26.69V23.465H549.786V31.295H548.646V27.62H545.916V26.69H548.646ZM539.736 30.845L538.881 30.125C539.721 29.465 540.371 28.895 540.831 28.415C541.291 27.925 541.621 27.445 541.821 26.975C542.031 26.495 542.136 25.96 542.136 25.37V25.22H539.271V24.26H546.111V25.22H543.276V25.415C543.276 26.265 543.101 27.01 542.751 27.65L542.841 27.695L543.081 27.515C543.191 27.435 543.301 27.395 543.411 27.395C543.541 27.395 543.656 27.44 543.756 27.53L546.546 29.87L545.706 30.62L542.871 28.16C542.791 28.1 542.716 28.07 542.646 28.07C542.566 28.07 542.496 28.1 542.436 28.16C542.166 28.55 541.821 28.95 541.401 29.36C540.981 29.77 540.426 30.265 539.736 30.845ZM549.861 34.4C549.861 34.94 549.701 35.42 549.381 35.84C549.071 36.27 548.596 36.605 547.956 36.845C547.326 37.095 546.556 37.22 545.646 37.22C544.726 37.22 543.946 37.095 543.306 36.845C542.676 36.605 542.201 36.27 541.881 35.84C541.571 35.42 541.416 34.94 541.416 34.4C541.416 33.86 541.571 33.38 541.881 32.96C542.201 32.53 542.676 32.195 543.306 31.955C543.946 31.705 544.726 31.58 545.646 31.58C546.556 31.58 547.326 31.705 547.956 31.955C548.596 32.195 549.071 32.53 549.381 32.96C549.701 33.38 549.861 33.86 549.861 34.4ZM548.661 34.28C548.661 33.77 548.411 33.345 547.911 33.005C547.411 32.655 546.656 32.48 545.646 32.48C544.626 32.48 543.861 32.655 543.351 33.005C542.851 33.345 542.601 33.77 542.601 34.28V34.535C542.601 35.035 542.851 35.455 543.351 35.795C543.861 36.145 544.626 36.32 545.646 36.32C546.656 36.32 547.411 36.145 547.911 35.795C548.411 35.455 548.661 35.035 548.661 34.535V34.28ZM562.995 23.465H564.135V36.485H562.995V23.465ZM553.365 28.73C553.365 27.27 553.685 26.165 554.325 25.415C554.975 24.665 555.83 24.29 556.89 24.29C557.94 24.29 558.785 24.665 559.425 25.415C560.075 26.165 560.4 27.27 560.4 28.73C560.4 29.71 560.25 30.535 559.95 31.205C559.65 31.865 559.235 32.36 558.705 32.69C558.175 33.01 557.57 33.17 556.89 33.17C555.83 33.17 554.975 32.795 554.325 32.045C553.685 31.295 553.365 30.19 553.365 28.73ZM559.185 29.315V28.145C559.185 27.215 558.97 26.5 558.54 26C558.12 25.5 557.57 25.25 556.89 25.25C556.2 25.25 555.64 25.5 555.21 26C554.79 26.49 554.58 27.205 554.58 28.145V29.315C554.58 30.255 554.79 30.975 555.21 31.475C555.64 31.965 556.2 32.21 556.89 32.21C557.57 32.21 558.12 31.96 558.54 31.46C558.97 30.96 559.185 30.245 559.185 29.315ZM581.058 24.41H576.318V23.51H581.058V24.41ZM576.153 26.645H573.393V25.775H583.983V26.645H581.223V26.735C582.113 27.005 582.558 27.5 582.558 28.22C582.558 28.78 582.243 29.24 581.613 29.6C580.983 29.96 580.008 30.14 578.688 30.14C577.368 30.14 576.393 29.96 575.763 29.6C575.133 29.24 574.818 28.78 574.818 28.22C574.818 27.51 575.263 27.015 576.153 26.735V26.645ZM581.433 27.95C581.433 27.56 581.233 27.25 580.833 27.02C580.443 26.79 579.843 26.675 579.033 26.675H578.343C577.533 26.675 576.928 26.79 576.528 27.02C576.138 27.25 575.943 27.56 575.943 27.95C575.943 28.34 576.138 28.65 576.528 28.88C576.928 29.11 577.533 29.225 578.343 29.225H579.033C579.843 29.225 580.443 29.11 580.833 28.88C581.233 28.65 581.433 28.34 581.433 27.95ZM584.808 31.01V31.955H572.568V31.01H584.808ZM583.083 35.09C583.083 35.77 582.708 36.31 581.958 36.71C581.208 37.12 580.118 37.325 578.688 37.325C577.258 37.325 576.163 37.12 575.403 36.71C574.653 36.31 574.278 35.77 574.278 35.09C574.278 34.42 574.653 33.885 575.403 33.485C576.163 33.075 577.258 32.87 578.688 32.87C580.118 32.87 581.208 33.07 581.958 33.47C582.708 33.87 583.083 34.41 583.083 35.09ZM581.898 35.015C581.898 34.655 581.628 34.35 581.088 34.1C580.558 33.85 579.758 33.725 578.688 33.725C577.618 33.725 576.813 33.85 576.273 34.1C575.743 34.35 575.478 34.655 575.478 35.015V35.18C575.478 35.54 575.743 35.84 576.273 36.08C576.803 36.33 577.608 36.455 578.688 36.455C579.768 36.455 580.573 36.33 581.103 36.08C581.633 35.84 581.898 35.54 581.898 35.18V35.015ZM597.012 23.465H598.152V36.485H597.012V23.465ZM587.757 24.5H594.012V32.855H587.757V24.5ZM592.887 31.91V25.445H588.867V31.91H592.887ZM613.656 34.04V35H601.416V34.04H606.966V31.475H603.216V27.41H610.716V25.205H603.141V24.26H611.856V28.325H604.356V30.53H612.246V31.475H608.106V34.04H613.656ZM626.01 30.53V23.465H627.135V32.165H626.01V31.355H622.725V30.53H626.01ZM616.74 25.79C616.74 25.1 617.05 24.555 617.67 24.155C618.3 23.755 619.125 23.555 620.145 23.555C621.155 23.555 621.975 23.755 622.605 24.155C623.235 24.555 623.55 25.1 623.55 25.79C623.55 26.49 623.235 27.04 622.605 27.44C621.975 27.84 621.155 28.04 620.145 28.04C619.125 28.04 618.3 27.84 617.67 27.44C617.05 27.04 616.74 26.49 616.74 25.79ZM617.88 25.88C617.88 26.3 618.085 26.63 618.495 26.87C618.905 27.1 619.455 27.215 620.145 27.215C620.825 27.215 621.37 27.095 621.78 26.855C622.2 26.615 622.41 26.29 622.41 25.88V25.715C622.41 25.305 622.2 24.98 621.78 24.74C621.37 24.5 620.825 24.38 620.145 24.38C619.455 24.38 618.905 24.5 618.495 24.74C618.085 24.97 617.88 25.295 617.88 25.715V25.88ZM619.515 29.885C618.235 29.935 617.06 29.96 615.99 29.96L615.9 29.045C617.59 29.045 619.22 29.005 620.79 28.925C622.37 28.845 623.71 28.725 624.81 28.565L624.915 29.42C623.625 29.61 622.195 29.75 620.625 29.84V32.165H619.515V29.885ZM628.305 36.365L627.585 37.13L625.335 35.375C625.275 35.315 625.205 35.285 625.125 35.285C625.075 35.285 625.025 35.3 624.975 35.33C624.745 35.61 624.45 35.9 624.09 36.2C623.73 36.5 623.26 36.855 622.68 37.265L620.4 35.345C620.33 35.285 620.25 35.255 620.16 35.255C620.11 35.255 620.055 35.27 619.995 35.3C619.775 35.59 619.485 35.885 619.125 36.185C618.765 36.485 618.31 36.83 617.76 37.22L617.055 36.47C617.735 36.02 618.265 35.615 618.645 35.255C619.025 34.905 619.295 34.555 619.455 34.205C619.625 33.845 619.71 33.45 619.71 33.02V32.66H620.76V33.08C620.76 33.74 620.615 34.33 620.325 34.85L620.385 34.895L620.565 34.745C620.675 34.665 620.78 34.625 620.88 34.625C620.97 34.625 621.065 34.66 621.165 34.73L622.755 36.005C623.475 35.485 623.97 35.015 624.24 34.595C624.51 34.165 624.645 33.65 624.645 33.05V32.66H625.71V33.11C625.71 33.83 625.565 34.43 625.275 34.91L625.335 34.94L625.53 34.79C625.65 34.7 625.765 34.655 625.875 34.655C625.965 34.655 626.055 34.685 626.145 34.745L628.305 36.365ZM639.714 25.52H631.794V24.545H640.839V25.61C640.839 27.83 640.624 29.945 640.194 31.955L639.084 31.775C639.504 29.745 639.714 27.705 639.714 25.655V25.52ZM642.504 34.04V35H630.264V34.04H635.064V29.225H636.189V34.04H642.504ZM646.158 33.245C646.478 33.245 646.708 33.33 646.848 33.5C646.998 33.66 647.073 33.87 647.073 34.13V34.34C647.073 34.75 646.953 35.2 646.713 35.69C646.473 36.19 646.138 36.625 645.708 36.995H644.703C645.003 36.675 645.243 36.37 645.423 36.08C645.613 35.8 645.748 35.485 645.828 35.135C645.628 35.085 645.478 34.99 645.378 34.85C645.288 34.71 645.243 34.54 645.243 34.34V34.13C645.243 33.87 645.313 33.66 645.453 33.5C645.603 33.33 645.838 33.245 646.158 33.245ZM664.473 25.52V25.445H656.583V24.485H665.613V25.85C665.613 27.04 665.563 28.145 665.463 29.165C665.363 30.185 665.208 31.195 664.998 32.195L663.903 32.03C664.133 30.93 664.283 29.86 664.353 28.82L656.268 29.18L656.133 28.205L664.413 27.905C664.453 27.235 664.473 26.44 664.473 25.52ZM667.233 34.04V35H654.993V34.04H659.823V30.695H660.963V34.04H667.233ZM680.652 31.22H679.497V23.465H680.652V31.22ZM677.772 29.825C677.032 29.975 676.147 30.095 675.117 30.185C674.097 30.265 673.002 30.305 671.832 30.305H670.272V24.2H676.332V25.16H671.427V29.36H671.817C672.937 29.36 674.002 29.325 675.012 29.255C676.022 29.175 676.892 29.065 677.622 28.925L677.772 29.825ZM680.727 34.34C680.727 34.89 680.567 35.38 680.247 35.81C679.937 36.25 679.467 36.595 678.837 36.845C678.207 37.095 677.437 37.22 676.527 37.22C675.617 37.22 674.842 37.095 674.202 36.845C673.572 36.595 673.097 36.25 672.777 35.81C672.467 35.38 672.312 34.89 672.312 34.34C672.312 33.79 672.467 33.3 672.777 32.87C673.097 32.43 673.572 32.085 674.202 31.835C674.842 31.585 675.617 31.46 676.527 31.46C677.437 31.46 678.207 31.585 678.837 31.835C679.467 32.085 679.937 32.43 680.247 32.87C680.567 33.3 680.727 33.79 680.727 34.34ZM679.512 34.22C679.512 33.7 679.262 33.265 678.762 32.915C678.272 32.565 677.527 32.39 676.527 32.39C675.527 32.39 674.777 32.57 674.277 32.93C673.777 33.28 673.527 33.71 673.527 34.22V34.475C673.527 34.985 673.777 35.415 674.277 35.765C674.777 36.125 675.527 36.305 676.527 36.305C677.527 36.305 678.272 36.125 678.762 35.765C679.262 35.415 679.512 34.985 679.512 34.475V34.22ZM685.461 25.865C685.461 25.135 685.836 24.555 686.586 24.125C687.336 23.685 688.461 23.465 689.961 23.465C691.461 23.465 692.586 23.685 693.336 24.125C694.086 24.555 694.461 25.135 694.461 25.865C694.461 26.595 694.086 27.18 693.336 27.62C692.586 28.06 691.461 28.28 689.961 28.28C688.461 28.28 687.336 28.06 686.586 27.62C685.836 27.18 685.461 26.595 685.461 25.865ZM693.246 25.94V25.775C693.246 25.345 692.971 24.995 692.421 24.725C691.881 24.445 691.061 24.305 689.961 24.305C688.861 24.305 688.036 24.445 687.486 24.725C686.946 24.995 686.676 25.345 686.676 25.775V25.94C686.676 26.37 686.946 26.725 687.486 27.005C688.036 27.275 688.861 27.41 689.961 27.41C691.061 27.41 691.881 27.275 692.421 27.005C692.971 26.725 693.246 26.37 693.246 25.94ZM696.081 29.315V30.275H683.841V29.315H696.081ZM685.746 36.335V33.875H693.141V32.465H685.656V31.535H694.236V34.745H686.841V36.17H694.626V37.1H686.496C686.256 37.1 686.071 37.035 685.941 36.905C685.811 36.775 685.746 36.585 685.746 36.335ZM716.064 29.795H713.949V36.515H712.809V23.495H713.949V28.835H716.064V29.795ZM709.614 25.175H705.354V24.2H709.614V25.175ZM703.359 26.975H711.384V27.905H709.164V27.995C710.074 28.445 710.529 29.31 710.529 30.59C710.529 31.24 710.394 31.805 710.124 32.285C709.854 32.755 709.479 33.115 708.999 33.365C708.529 33.615 708.004 33.74 707.424 33.74C706.844 33.74 706.314 33.615 705.834 33.365C705.364 33.115 704.994 32.755 704.724 32.285C704.454 31.805 704.319 31.24 704.319 30.59C704.319 29.31 704.774 28.445 705.684 27.995V27.905H703.359V26.975ZM709.419 30.095C709.419 29.425 709.239 28.915 708.879 28.565C708.519 28.205 708.034 28.025 707.424 28.025C706.824 28.025 706.339 28.205 705.969 28.565C705.609 28.925 705.429 29.435 705.429 30.095V30.71C705.429 31.36 705.614 31.87 705.984 32.24C706.354 32.6 706.834 32.78 707.424 32.78C708.014 32.78 708.494 32.6 708.864 32.24C709.234 31.87 709.419 31.36 709.419 30.71V30.095ZM727.953 29.45H725.193V28.52H727.953V26.48H725.193V25.55H727.953V23.465H729.093V33.35H727.953V29.45ZM724.683 30.695H718.548V24.305H724.683V30.695ZM723.558 25.25H719.673V29.75H723.558V25.25ZM729.363 35.825V36.77H721.503C721.263 36.77 721.078 36.705 720.948 36.575C720.818 36.445 720.753 36.255 720.753 36.005V32.27H721.908V35.825H729.363ZM743.457 23.465V36.485H742.332V28.79H739.557V27.83H742.332V23.465H743.457ZM736.962 28.715C737.082 28.715 737.187 28.77 737.277 28.88L740.217 32.63L739.347 33.395L736.407 29.525C736.367 29.475 736.317 29.45 736.257 29.45C736.197 29.45 736.147 29.475 736.107 29.525C735.857 30.105 735.512 30.7 735.072 31.31C734.632 31.92 734.032 32.68 733.272 33.59L732.402 32.855C733.272 31.865 733.937 31.02 734.397 30.32C734.867 29.61 735.202 28.9 735.402 28.19C735.612 27.48 735.717 26.665 735.717 25.745V24.335H736.857V25.73C736.857 26.94 736.692 28.02 736.362 28.97L736.422 29.015L736.632 28.835C736.742 28.755 736.852 28.715 736.962 28.715ZM757.206 28.655H748.581V23.945H749.706V27.71H757.206V28.655ZM758.946 30.32V31.295H746.706V30.32H758.946ZM749.601 35.795H757.371V36.755H749.211C748.971 36.755 748.786 36.69 748.656 36.56C748.526 36.43 748.461 36.24 748.461 35.99V32.705H749.601V35.795ZM777.458 23.465V36.485H776.318V23.465H777.458ZM774.443 31.685L774.593 32.6C773.043 32.91 771.113 33.065 768.803 33.065H767.198V24.53H773.243V25.49H768.353V32.105H768.773C771.063 32.105 772.953 31.965 774.443 31.685ZM793.352 29.555H791.192V36.515H790.052V23.495H791.192V28.595H793.352V29.555ZM785.222 28.97C785.342 28.97 785.457 29.025 785.567 29.135L788.492 32.6L787.637 33.335L784.697 29.75C784.637 29.69 784.572 29.66 784.502 29.66C784.432 29.66 784.382 29.69 784.352 29.75C784.082 30.29 783.727 30.845 783.287 31.415C782.857 31.975 782.267 32.68 781.517 33.53L780.677 32.825C781.547 31.905 782.212 31.11 782.672 30.44C783.142 29.77 783.482 29.105 783.692 28.445C783.902 27.775 784.007 27.015 784.007 26.165V25.595H781.067V24.635H788.057V25.595H785.132V26.195C785.132 27.315 784.952 28.32 784.592 29.21L784.667 29.27L784.907 29.09C785.007 29.01 785.112 28.97 785.222 28.97ZM806.381 23.465V33.35H805.226V23.465H806.381ZM795.581 27.515C795.581 26.815 795.726 26.205 796.016 25.685C796.316 25.165 796.726 24.77 797.246 24.5C797.766 24.22 798.361 24.08 799.031 24.08C799.691 24.08 800.281 24.22 800.801 24.5C801.331 24.77 801.741 25.165 802.031 25.685C802.331 26.205 802.481 26.815 802.481 27.515C802.481 28.205 802.331 28.81 802.031 29.33C801.741 29.85 801.331 30.25 800.801 30.53C800.281 30.8 799.691 30.935 799.031 30.935C798.361 30.935 797.766 30.8 797.246 30.53C796.726 30.25 796.316 29.855 796.016 29.345C795.726 28.825 795.581 28.215 795.581 27.515ZM801.266 27.83V27.2C801.266 26.54 801.056 26.015 800.636 25.625C800.226 25.225 799.691 25.025 799.031 25.025C798.361 25.025 797.816 25.225 797.396 25.625C796.986 26.025 796.781 26.55 796.781 27.2V27.83C796.781 28.48 796.991 29.005 797.411 29.405C797.831 29.795 798.371 29.99 799.031 29.99C799.691 29.99 800.226 29.795 800.636 29.405C801.056 29.005 801.266 28.48 801.266 27.83ZM798.041 36.005V32.27H799.196V35.825H806.651V36.77H798.791C798.551 36.77 798.366 36.705 798.236 36.575C798.106 36.445 798.041 36.255 798.041 36.005ZM9.96 48.52H2.115V47.545H11.085V48.655C11.085 51.035 10.86 53.24 10.41 55.27L9.315 55.09C9.745 53.07 9.96 50.925 9.96 48.655V48.52ZM12.81 57.025V58H0.57V57.025H12.81ZM26.559 46.465V59.485H25.449V52.495H23.394V59.125H22.299V46.69H23.394V51.55H25.449V46.465H26.559ZM21.159 54.7L21.309 55.6C20.099 55.91 18.604 56.065 16.824 56.065H15.594V47.8H20.439V48.76H16.689V55.12H17.094C18.734 55.12 20.089 54.98 21.159 54.7ZM41.658 57.04V58H29.418V57.04H34.968V54.475H31.218V50.41H38.718V48.205H31.143V47.26H39.858V51.325H32.358V53.53H40.248V54.475H36.108V57.04H41.658ZM60.677 54.07H55.112V59.965H53.972V54.07H48.437V53.11H57.212C57.572 51.54 57.757 49.865 57.767 48.085V48.01H50.057V47.05H58.877V48.01C58.877 49.74 58.707 51.44 58.367 53.11H60.677V54.07ZM72.941 53.275H70.946V52.345H72.941V50.47H70.946V49.54H72.941V46.465H74.096V56.5H72.941V53.275ZM68.891 47.83H64.916V46.87H68.891V47.83ZM66.806 54.955C66.196 54.955 65.661 54.85 65.201 54.64C64.741 54.43 64.386 54.14 64.136 53.77C63.886 53.4 63.761 52.98 63.761 52.51C63.761 52.03 63.871 51.615 64.091 51.265C64.311 50.905 64.641 50.63 65.081 50.44V50.365H62.951V49.435H70.466V50.365H68.546V50.455C68.986 50.645 69.316 50.915 69.536 51.265C69.756 51.615 69.866 52.03 69.866 52.51C69.866 52.98 69.741 53.4 69.491 53.77C69.241 54.14 68.881 54.43 68.411 54.64C67.951 54.85 67.416 54.955 66.806 54.955ZM66.686 53.995H66.941C67.491 53.995 67.936 53.84 68.276 53.53C68.626 53.22 68.801 52.79 68.801 52.24C68.801 51.69 68.626 51.265 68.276 50.965C67.936 50.655 67.491 50.5 66.941 50.5H66.686C66.126 50.5 65.676 50.655 65.336 50.965C64.996 51.265 64.826 51.69 64.826 52.24C64.826 52.79 64.996 53.22 65.336 53.53C65.686 53.84 66.136 53.995 66.686 53.995ZM74.366 58.9V59.845H66.476C66.236 59.845 66.051 59.78 65.921 59.65C65.791 59.52 65.726 59.33 65.726 59.08V56.08H66.866V58.9H74.366ZM89.915 52.795H87.8V59.515H86.66V46.495H87.8V51.835H89.915V52.795ZM83.465 48.175H79.205V47.2H83.465V48.175ZM77.21 49.975H85.235V50.905H83.015V50.995C83.925 51.445 84.38 52.31 84.38 53.59C84.38 54.24 84.245 54.805 83.975 55.285C83.705 55.755 83.33 56.115 82.85 56.365C82.38 56.615 81.855 56.74 81.275 56.74C80.695 56.74 80.165 56.615 79.685 56.365C79.215 56.115 78.845 55.755 78.575 55.285C78.305 54.805 78.17 54.24 78.17 53.59C78.17 52.31 78.625 51.445 79.535 50.995V50.905H77.21V49.975ZM83.27 53.095C83.27 52.425 83.09 51.915 82.73 51.565C82.37 51.205 81.885 51.025 81.275 51.025C80.675 51.025 80.19 51.205 79.82 51.565C79.46 51.925 79.28 52.435 79.28 53.095V53.71C79.28 54.36 79.465 54.87 79.835 55.24C80.205 55.6 80.685 55.78 81.275 55.78C81.865 55.78 82.345 55.6 82.715 55.24C83.085 54.87 83.27 54.36 83.27 53.71V53.095ZM101.729 46.465H102.869V59.485H101.729V46.465ZM92.2941 55.9C93.6741 55.19 94.7291 54.54 95.4591 53.95C96.1891 53.36 96.6991 52.735 96.9891 52.075C97.2891 51.415 97.4391 50.6 97.4391 49.63V48.505H92.6691V47.53H98.5791V49.615C98.5791 50.725 98.4091 51.665 98.0691 52.435C97.7391 53.205 97.1741 53.925 96.3741 54.595C95.5841 55.255 94.4491 55.98 92.9691 56.77L92.2941 55.9ZM121.903 46.465V59.485H120.778V46.465H121.903ZM111.508 49.645C111.508 49.095 111.658 48.615 111.958 48.205C112.268 47.785 112.693 47.465 113.233 47.245C113.773 47.015 114.383 46.9 115.063 46.9C115.743 46.9 116.348 47.015 116.878 47.245C117.418 47.465 117.838 47.785 118.138 48.205C118.448 48.615 118.603 49.095 118.603 49.645C118.603 50.205 118.448 50.695 118.138 51.115C117.838 51.525 117.418 51.845 116.878 52.075C116.348 52.295 115.743 52.405 115.063 52.405C114.373 52.405 113.758 52.295 113.218 52.075C112.688 51.845 112.268 51.525 111.958 51.115C111.658 50.695 111.508 50.205 111.508 49.645ZM112.678 49.795C112.678 50.305 112.898 50.715 113.338 51.025C113.778 51.335 114.353 51.49 115.063 51.49C115.763 51.49 116.328 51.335 116.758 51.025C117.198 50.715 117.418 50.305 117.418 49.795V49.525C117.418 49.005 117.198 48.59 116.758 48.28C116.328 47.97 115.763 47.815 115.063 47.815C114.353 47.815 113.778 47.97 113.338 48.28C112.898 48.59 112.678 49.005 112.678 49.525V49.795ZM119.803 54.235C118.563 54.425 117.188 54.565 115.678 54.655V59.365H114.538V54.715C113.208 54.765 111.978 54.79 110.848 54.79L110.758 53.83C112.458 53.83 114.098 53.79 115.678 53.71C117.258 53.63 118.598 53.505 119.698 53.335L119.803 54.235ZM137.797 50.92V51.88H135.712V56.5H134.572V46.465H135.712V50.92H137.797ZM131.137 47.83H127.132V46.87H131.137V47.83ZM129.037 54.94C128.417 54.94 127.872 54.835 127.402 54.625C126.932 54.415 126.567 54.125 126.307 53.755C126.057 53.385 125.932 52.965 125.932 52.495C125.932 52.025 126.042 51.615 126.262 51.265C126.492 50.905 126.832 50.63 127.282 50.44V50.365H124.942V49.42H133.072V50.365H130.792V50.44C131.242 50.63 131.577 50.905 131.797 51.265C132.027 51.615 132.142 52.025 132.142 52.495C132.142 52.965 132.012 53.385 131.752 53.755C131.502 54.125 131.142 54.415 130.672 54.625C130.202 54.835 129.657 54.94 129.037 54.94ZM128.917 53.98H129.172C129.732 53.98 130.187 53.83 130.537 53.53C130.897 53.22 131.077 52.79 131.077 52.24C131.077 51.69 130.902 51.26 130.552 50.95C130.202 50.64 129.742 50.485 129.172 50.485H128.917C128.347 50.485 127.887 50.64 127.537 50.95C127.187 51.25 127.012 51.68 127.012 52.24C127.012 52.79 127.187 53.22 127.537 53.53C127.897 53.83 128.357 53.98 128.917 53.98ZM128.677 58.9H136.012V59.845H128.287C128.047 59.845 127.862 59.78 127.732 59.65C127.602 59.52 127.537 59.33 127.537 59.08V56.08H128.677V58.9ZM156.411 54.07H150.846V59.965H149.706V54.07H144.171V53.11H152.946C153.306 51.54 153.491 49.865 153.501 48.085V48.01H145.791V47.05H154.611V48.01C154.611 49.74 154.441 51.44 154.101 53.11H156.411V54.07ZM164.16 48.31H159.975V47.35H169.47V48.31H165.315C165.315 48.8 165.26 49.24 165.15 49.63C165.04 50.02 164.855 50.39 164.595 50.74L164.64 50.755L164.925 50.545C165.045 50.435 165.185 50.38 165.345 50.38C165.445 50.38 165.555 50.41 165.675 50.47L170.07 52.945L169.44 53.83L164.925 51.19C164.765 51.11 164.625 51.07 164.505 51.07C164.405 51.07 164.315 51.095 164.235 51.145C163.845 51.565 163.31 51.995 162.63 52.435C161.95 52.875 161.065 53.355 159.975 53.875L159.36 53.035C160.61 52.445 161.575 51.91 162.255 51.43C162.945 50.94 163.43 50.455 163.71 49.975C164 49.485 164.15 48.93 164.16 48.31ZM170.835 57.04V58H158.595V57.04H164.145V53.8H165.285V57.04H170.835ZM184.584 46.465V59.485H183.489V46.465H184.584ZM180.534 46.69H181.599V59.125H180.534V52.3H179.094C179.044 53.6 178.754 54.58 178.224 55.24C177.694 55.89 176.994 56.215 176.124 56.215C175.194 56.215 174.459 55.855 173.919 55.135C173.379 54.405 173.109 53.32 173.109 51.88C173.109 50.44 173.379 49.36 173.919 48.64C174.459 47.91 175.194 47.545 176.124 47.545C176.984 47.545 177.674 47.865 178.194 48.505C178.724 49.145 179.024 50.095 179.094 51.355H180.534V46.69ZM177.954 51.16C177.954 50.28 177.784 49.61 177.444 49.15C177.114 48.69 176.674 48.46 176.124 48.46C175.564 48.46 175.114 48.69 174.774 49.15C174.444 49.61 174.279 50.28 174.279 51.16V52.615C174.279 53.485 174.444 54.155 174.774 54.625C175.114 55.085 175.564 55.315 176.124 55.315C176.674 55.315 177.114 55.085 177.444 54.625C177.784 54.155 177.954 53.485 177.954 52.615V51.16ZM203.603 46.465V59.485H202.493V52.495H200.438V59.125H199.343V46.69H200.438V51.55H202.493V46.465H203.603ZM198.203 54.7L198.353 55.6C197.143 55.91 195.648 56.065 193.868 56.065H192.638V47.8H197.483V48.76H193.733V55.12H194.138C195.778 55.12 197.133 54.98 198.203 54.7ZM219.107 50.92V51.88H217.022V56.5H215.882V46.465H217.022V50.92H219.107ZM212.447 47.83H208.442V46.87H212.447V47.83ZM210.347 54.94C209.727 54.94 209.182 54.835 208.712 54.625C208.242 54.415 207.877 54.125 207.617 53.755C207.367 53.385 207.242 52.965 207.242 52.495C207.242 52.025 207.352 51.615 207.572 51.265C207.802 50.905 208.142 50.63 208.592 50.44V50.365H206.252V49.42H214.382V50.365H212.102V50.44C212.552 50.63 212.887 50.905 213.107 51.265C213.337 51.615 213.452 52.025 213.452 52.495C213.452 52.965 213.322 53.385 213.062 53.755C212.812 54.125 212.452 54.415 211.982 54.625C211.512 54.835 210.967 54.94 210.347 54.94ZM210.227 53.98H210.482C211.042 53.98 211.497 53.83 211.847 53.53C212.207 53.22 212.387 52.79 212.387 52.24C212.387 51.69 212.212 51.26 211.862 50.95C211.512 50.64 211.052 50.485 210.482 50.485H210.227C209.657 50.485 209.197 50.64 208.847 50.95C208.497 51.25 208.322 51.68 208.322 52.24C208.322 52.79 208.497 53.22 208.847 53.53C209.207 53.83 209.667 53.98 210.227 53.98ZM209.987 58.9H217.322V59.845H209.597C209.357 59.845 209.172 59.78 209.042 59.65C208.912 59.52 208.847 59.33 208.847 59.08V56.08H209.987V58.9ZM234.931 48.52H227.011V47.545H236.056V48.61C236.056 50.83 235.841 52.945 235.411 54.955L234.301 54.775C234.721 52.745 234.931 50.705 234.931 48.655V48.52ZM237.721 57.04V58H225.481V57.04H230.281V52.225H231.406V57.04H237.721ZM251.14 46.465V56.35H249.985V46.465H251.14ZM246.925 47.305V53.68H240.67V47.305H246.925ZM245.785 48.25H241.825V52.735H245.785V48.25ZM242.8 59.005V55.27H243.955V58.825H251.41V59.77H243.55C243.31 59.77 243.125 59.705 242.995 59.575C242.865 59.445 242.8 59.255 242.8 59.005ZM266.959 52.78H264.919V59.485H263.794V46.465H264.919V51.82H266.959V52.78ZM260.599 48.595H254.959V47.65H261.709V48.805C261.709 50.395 261.529 51.98 261.169 53.56L260.074 53.395C260.424 51.945 260.599 50.46 260.599 48.94V48.595ZM262.714 55.21L262.819 56.125C261.719 56.305 260.404 56.44 258.874 56.53C257.354 56.62 255.789 56.665 254.179 56.665L254.074 55.705C255.074 55.705 256.069 55.69 257.059 55.66V51.595H258.169V55.615C259.979 55.535 261.494 55.4 262.714 55.21ZM282.648 47.845H274.983V46.885H283.758V47.62C283.758 48.93 283.603 50.27 283.293 51.64L282.213 51.49C282.493 50.31 282.638 49.095 282.648 47.845ZM285.588 52.69V53.68H273.348V52.69H278.373V50.095H279.498V52.69H285.588ZM283.908 57.61C283.908 58.13 283.738 58.59 283.398 58.99C283.068 59.4 282.568 59.72 281.898 59.95C281.238 60.18 280.428 60.295 279.468 60.295C278.508 60.295 277.693 60.18 277.023 59.95C276.363 59.72 275.863 59.4 275.523 58.99C275.193 58.59 275.028 58.13 275.028 57.61C275.028 57.09 275.193 56.63 275.523 56.23C275.863 55.83 276.363 55.515 277.023 55.285C277.693 55.055 278.508 54.94 279.468 54.94C280.428 54.94 281.238 55.055 281.898 55.285C282.568 55.515 283.068 55.83 283.398 56.23C283.738 56.63 283.908 57.09 283.908 57.61ZM282.708 57.505C282.708 57.035 282.438 56.64 281.898 56.32C281.368 56 280.558 55.84 279.468 55.84C278.388 55.84 277.573 56 277.023 56.32C276.483 56.64 276.213 57.035 276.213 57.505V57.73C276.213 58.19 276.483 58.58 277.023 58.9C277.573 59.22 278.388 59.38 279.468 59.38C280.558 59.38 281.368 59.22 281.898 58.9C282.438 58.58 282.708 58.19 282.708 57.73V57.505ZM298.227 52.66H289.557V46.795H290.682V48.775H297.102V46.795H298.227V52.66ZM297.102 49.72H290.682V51.715H297.102V49.72ZM300.012 55.255H294.462V60.01H293.322V55.255H287.772V54.28H300.012V55.255ZM314.826 52.555H312.666V59.515H311.526V46.495H312.666V51.595H314.826V52.555ZM302.841 47.53H308.676V49.615C308.676 50.725 308.511 51.665 308.181 52.435C307.851 53.205 307.291 53.925 306.501 54.595C305.721 55.255 304.601 55.98 303.141 56.77L302.466 55.915C303.826 55.195 304.866 54.54 305.586 53.95C306.306 53.36 306.811 52.735 307.101 52.075C307.391 51.415 307.536 50.6 307.536 49.63V48.505H302.841V47.53ZM332.39 46.465V59.485H331.265V52H327.665V51.04H331.265V46.465H332.39ZM329.21 54.685L329.375 55.6C327.845 55.91 325.94 56.065 323.66 56.065H322.085V47.53H328.025V48.49H323.21V55.12H323.63C325.82 55.12 327.68 54.975 329.21 54.685ZM351.469 46.465V53.41H350.314V46.465H351.469ZM348.094 47.155V48.055H340.744V47.155H348.094ZM342.289 52.165L341.944 48.985L343.009 48.895L343.279 52.15C343.979 52.13 344.489 52.11 344.809 52.09L345.469 52.06L345.829 48.88L346.894 48.97L346.474 52.015C347.224 51.965 347.974 51.895 348.724 51.805L348.844 52.645C347.824 52.785 346.569 52.895 345.079 52.975C343.589 53.045 342.049 53.08 340.459 53.08L340.354 52.18C341.214 52.18 341.859 52.175 342.289 52.165ZM343.114 59.335V56.65H350.329V55.15H343.024V54.19H351.469V57.61H344.269V59.125H351.829V60.1H343.864C343.624 60.1 343.439 60.035 343.309 59.905C343.179 59.775 343.114 59.585 343.114 59.335ZM356.053 50.47C356.053 49.8 356.223 49.2 356.563 48.67C356.913 48.14 357.443 47.72 358.153 47.41C358.863 47.1 359.738 46.945 360.778 46.945C361.818 46.945 362.693 47.1 363.403 47.41C364.113 47.72 364.638 48.14 364.978 48.67C365.328 49.2 365.503 49.8 365.503 50.47C365.503 51.13 365.328 51.725 364.978 52.255C364.638 52.785 364.113 53.21 363.403 53.53C362.693 53.84 361.818 53.995 360.778 53.995C359.738 53.995 358.863 53.84 358.153 53.53C357.443 53.21 356.913 52.785 356.563 52.255C356.223 51.725 356.053 51.13 356.053 50.47ZM357.283 50.635C357.283 51.335 357.573 51.915 358.153 52.375C358.733 52.835 359.608 53.065 360.778 53.065C361.948 53.065 362.823 52.835 363.403 52.375C363.983 51.915 364.273 51.335 364.273 50.635V50.305C364.273 49.605 363.983 49.025 363.403 48.565C362.823 48.095 361.948 47.86 360.778 47.86C359.608 47.86 358.733 48.095 358.153 48.565C357.573 49.025 357.283 49.605 357.283 50.305V50.635ZM366.898 57.04V58H354.658V57.04H357.793V54.445H358.918V57.04H362.638V54.445H363.748V57.04H366.898ZM381.727 51.13H379.642V54.7H378.502V46.465H379.642V50.17H381.727V51.13ZM375.067 47.725H371.062V46.78H375.067V47.725ZM372.967 54.385C372.347 54.385 371.802 54.29 371.332 54.1C370.862 53.91 370.497 53.645 370.237 53.305C369.987 52.965 369.862 52.58 369.862 52.15C369.862 51.72 369.967 51.35 370.177 51.04C370.397 50.72 370.722 50.47 371.152 50.29V50.2H368.872V49.285H377.002V50.2H374.782V50.29C375.212 50.47 375.532 50.72 375.742 51.04C375.962 51.35 376.072 51.72 376.072 52.15C376.072 52.58 375.942 52.965 375.682 53.305C375.432 53.645 375.072 53.91 374.602 54.1C374.132 54.29 373.587 54.385 372.967 54.385ZM372.817 53.44H373.117C373.677 53.44 374.132 53.305 374.482 53.035C374.832 52.755 375.007 52.37 375.007 51.88C375.007 51.38 374.832 50.995 374.482 50.725C374.132 50.445 373.677 50.305 373.117 50.305H372.817C372.257 50.305 371.802 50.445 371.452 50.725C371.102 50.995 370.927 51.38 370.927 51.88C370.927 52.37 371.102 52.755 371.452 53.035C371.802 53.305 372.257 53.44 372.817 53.44ZM371.542 55.48H379.642V60.025H372.292C372.052 60.025 371.867 59.96 371.737 59.83C371.607 59.7 371.542 59.51 371.542 59.26V55.48ZM372.682 59.08H378.502V56.425H372.682V59.08ZM385.126 48.865C385.126 48.135 385.501 47.555 386.251 47.125C387.001 46.685 388.126 46.465 389.626 46.465C391.126 46.465 392.251 46.685 393.001 47.125C393.751 47.555 394.126 48.135 394.126 48.865C394.126 49.595 393.751 50.18 393.001 50.62C392.251 51.06 391.126 51.28 389.626 51.28C388.126 51.28 387.001 51.06 386.251 50.62C385.501 50.18 385.126 49.595 385.126 48.865ZM392.911 48.94V48.775C392.911 48.345 392.636 47.995 392.086 47.725C391.546 47.445 390.726 47.305 389.626 47.305C388.526 47.305 387.701 47.445 387.151 47.725C386.611 47.995 386.341 48.345 386.341 48.775V48.94C386.341 49.37 386.611 49.725 387.151 50.005C387.701 50.275 388.526 50.41 389.626 50.41C390.726 50.41 391.546 50.275 392.086 50.005C392.636 49.725 392.911 49.37 392.911 48.94ZM395.746 52.315V53.275H383.506V52.315H395.746ZM385.411 59.335V56.875H392.806V55.465H385.321V54.535H393.901V57.745H386.506V59.17H394.291V60.1H386.161C385.921 60.1 385.736 60.035 385.606 59.905C385.476 59.775 385.411 59.585 385.411 59.335ZM413.175 53.47H404.28V47.32H405.42V52.495H413.175V53.47ZM414.765 57.025V58H402.525V57.025H414.765ZM427.179 51.895H425.169V50.98H427.179V49.255H425.169V48.325H427.179V46.465H428.289V53.98H427.179V51.895ZM417.714 53.23L416.919 52.57C417.649 52.06 418.214 51.61 418.614 51.22C419.024 50.83 419.319 50.435 419.499 50.035C419.679 49.625 419.769 49.165 419.769 48.655V48.1H417.399V47.17H420.834V48.52C420.834 49.19 420.729 49.775 420.519 50.275C420.319 50.775 419.999 51.25 419.559 51.7C419.119 52.15 418.504 52.66 417.714 53.23ZM423.594 48.1H421.494V47.17H424.659V48.715C424.659 49.475 424.559 50.13 424.359 50.68C424.169 51.23 423.864 51.745 423.444 52.225C423.024 52.695 422.424 53.235 421.644 53.845L420.834 53.185C421.544 52.645 422.094 52.165 422.484 51.745C422.874 51.315 423.154 50.875 423.324 50.425C423.504 49.965 423.594 49.435 423.594 48.835V48.1ZM429.489 59.275L428.739 60.055L426.534 57.895C426.464 57.825 426.394 57.79 426.324 57.79C426.284 57.79 426.239 57.805 426.189 57.835C425.959 58.175 425.659 58.53 425.289 58.9C424.919 59.28 424.444 59.715 423.864 60.205L421.569 57.85C421.499 57.78 421.429 57.745 421.359 57.745C421.299 57.745 421.244 57.775 421.194 57.835C420.964 58.175 420.669 58.525 420.309 58.885C419.959 59.255 419.509 59.68 418.959 60.16L418.224 59.395C418.894 58.835 419.419 58.34 419.799 57.91C420.179 57.48 420.454 57.05 420.624 56.62C420.794 56.18 420.879 55.695 420.879 55.165V54.685H421.944V55.21C421.944 56.02 421.794 56.725 421.494 57.325L421.554 57.355L421.734 57.22C421.844 57.14 421.944 57.1 422.034 57.1C422.154 57.1 422.259 57.145 422.349 57.235L423.939 58.825C424.659 58.175 425.154 57.595 425.424 57.085C425.694 56.565 425.829 55.93 425.829 55.18V54.685H426.894V55.24C426.894 55.68 426.859 56.07 426.789 56.41C426.719 56.75 426.609 57.075 426.459 57.385L426.519 57.415L426.699 57.265C426.789 57.185 426.899 57.145 427.029 57.145C427.149 57.145 427.249 57.18 427.329 57.25L429.489 59.275ZM432.753 51.715L432.138 50.875C433.438 50.385 434.438 49.94 435.138 49.54C435.838 49.13 436.323 48.725 436.593 48.325C436.873 47.925 437.013 47.46 437.013 46.93V46.585H438.153V46.99C438.153 47.42 438.093 47.81 437.973 48.16C437.853 48.5 437.663 48.82 437.403 49.12L437.508 49.15L437.883 48.895C438.023 48.785 438.168 48.73 438.318 48.73C438.418 48.73 438.528 48.755 438.648 48.805L442.848 50.83L442.218 51.685L437.838 49.51C437.678 49.43 437.533 49.39 437.403 49.39C437.273 49.39 437.143 49.425 437.013 49.495C436.613 49.845 436.073 50.195 435.393 50.545C434.723 50.885 433.843 51.275 432.753 51.715ZM443.613 52.795V53.755H431.373V52.795H443.613ZM440.688 54.805H441.798V59.995H433.938C433.698 59.995 433.513 59.93 433.383 59.8C433.253 59.67 433.188 59.48 433.188 59.23V54.805H434.298V56.425H440.688V54.805ZM440.688 57.37H434.298V59.05H440.688V57.37ZM456.957 46.465V59.485H455.817V46.465H456.957ZM454.002 54.49L454.152 55.435C452.522 55.755 450.547 55.915 448.227 55.915H446.592V47.515H447.732V54.94H448.182C450.512 54.94 452.452 54.79 454.002 54.49ZM472.851 52.555H470.691V59.515H469.551V46.495H470.691V51.595H472.851V52.555ZM467.976 54.685L468.126 55.6C466.596 55.91 464.686 56.065 462.396 56.065H460.806V47.53H466.791V48.49H461.946V55.12H462.381C464.581 55.12 466.446 54.975 467.976 54.685ZM476.115 58.18C475.795 58.18 475.56 58.1 475.41 57.94C475.27 57.78 475.2 57.57 475.2 57.31V57.115C475.2 56.855 475.27 56.645 475.41 56.485C475.56 56.325 475.795 56.245 476.115 56.245C476.435 56.245 476.665 56.325 476.805 56.485C476.955 56.645 477.03 56.855 477.03 57.115V57.31C477.03 57.57 476.955 57.78 476.805 57.94C476.665 58.1 476.435 58.18 476.115 58.18Z" fill="white"/>
</svg>
