<svg width="76" height="61" viewBox="0 0 76 61" fill="none" xmlns="http://www.w3.org/2000/svg">
<path d="M0.978693 13V12.169L4.09943 8.75284C4.46567 8.35275 4.76728 8.00497 5.00426 7.70952C5.24124 7.41098 5.41667 7.13092 5.53054 6.86932C5.64749 6.60464 5.70597 6.32765 5.70597 6.03835C5.70597 5.70597 5.62595 5.41821 5.46591 5.17507C5.30895 4.93194 5.09351 4.7442 4.8196 4.61186C4.54569 4.47952 4.23793 4.41335 3.89631 4.41335C3.53314 4.41335 3.21615 4.48875 2.94531 4.63956C2.67756 4.78729 2.46982 4.99503 2.32209 5.26278C2.17744 5.53054 2.10511 5.84446 2.10511 6.20454H1.01562C1.01562 5.65057 1.14335 5.1643 1.39879 4.74574C1.65424 4.32718 2.00201 4.00095 2.44212 3.76704C2.8853 3.53314 3.38234 3.41619 3.93324 3.41619C4.48722 3.41619 4.9781 3.53314 5.4059 3.76704C5.83369 4.00095 6.16915 4.31641 6.41229 4.71342C6.65542 5.11044 6.77699 5.55208 6.77699 6.03835C6.77699 6.38613 6.7139 6.72621 6.58771 7.05859C6.46461 7.3879 6.24917 7.75568 5.94141 8.16193C5.63672 8.5651 5.21354 9.05753 4.67188 9.6392L2.5483 11.9105V11.9844H6.94318V13H0.978693ZM9.49979 13V12.169L12.6205 8.75284C12.9868 8.35275 13.2884 8.00497 13.5254 7.70952C13.7623 7.41098 13.9378 7.13092 14.0516 6.86932C14.1686 6.60464 14.2271 6.32765 14.2271 6.03835C14.2271 5.70597 14.147 5.41821 13.987 5.17507C13.83 4.93194 13.6146 4.7442 13.3407 4.61186C13.0668 4.47952 12.759 4.41335 12.4174 4.41335C12.0542 4.41335 11.7372 4.48875 11.4664 4.63956C11.1987 4.78729 10.9909 4.99503 10.8432 5.26278C10.6985 5.53054 10.6262 5.84446 10.6262 6.20454H9.53672C9.53672 5.65057 9.66444 5.1643 9.91989 4.74574C10.1753 4.32718 10.5231 4.00095 10.9632 3.76704C11.4064 3.53314 11.9034 3.41619 12.4543 3.41619C13.0083 3.41619 13.4992 3.53314 13.927 3.76704C14.3548 4.00095 14.6902 4.31641 14.9334 4.71342C15.1765 5.11044 15.2981 5.55208 15.2981 6.03835C15.2981 6.38613 15.235 6.72621 15.1088 7.05859C14.9857 7.3879 14.7703 7.75568 14.4625 8.16193C14.1578 8.5651 13.7346 9.05753 13.193 9.6392L11.0694 11.9105V11.9844H15.4643V13H9.49979ZM18.8334 13.0739C18.6056 13.0739 18.4102 12.9923 18.2471 12.8292C18.084 12.6661 18.0024 12.4706 18.0024 12.2429C18.0024 12.0152 18.084 11.8197 18.2471 11.6566C18.4102 11.4935 18.6056 11.4119 18.8334 11.4119C19.0611 11.4119 19.2566 11.4935 19.4197 11.6566C19.5828 11.8197 19.6643 12.0152 19.6643 12.2429C19.6643 12.3937 19.6259 12.5322 19.5489 12.6584C19.4751 12.7846 19.375 12.8861 19.2489 12.9631C19.1258 13.0369 18.9873 13.0739 18.8334 13.0739ZM25.0047 13.1293C24.3091 13.1293 23.7167 12.94 23.2273 12.5614C22.738 12.1798 22.3641 11.6274 22.1055 10.9041C21.847 10.1778 21.7178 9.30066 21.7178 8.27273C21.7178 7.25095 21.847 6.37843 22.1055 5.65518C22.3671 4.92886 22.7426 4.37488 23.232 3.99325C23.7244 3.60855 24.3153 3.41619 25.0047 3.41619C25.6941 3.41619 26.2835 3.60855 26.7728 3.99325C27.2652 4.37488 27.6407 4.92886 27.8992 5.65518C28.1608 6.37843 28.2916 7.25095 28.2916 8.27273C28.2916 9.30066 28.1624 10.1778 27.9038 10.9041C27.6453 11.6274 27.2714 12.1798 26.782 12.5614C26.2927 12.94 25.7002 13.1293 25.0047 13.1293ZM25.0047 12.1136C25.6941 12.1136 26.2296 11.7812 26.6112 11.1165C26.9929 10.4517 27.1837 9.50379 27.1837 8.27273C27.1837 7.45407 27.096 6.75698 26.9205 6.18146C26.7482 5.60594 26.4989 5.16738 26.1727 4.86577C25.8495 4.56416 25.4602 4.41335 25.0047 4.41335C24.3214 4.41335 23.7875 4.75035 23.4028 5.42436C23.0181 6.09529 22.8257 7.04474 22.8257 8.27273C22.8257 9.09138 22.9119 9.78693 23.0842 10.3594C23.2566 10.9318 23.5043 11.3673 23.8275 11.6658C24.1537 11.9644 24.5461 12.1136 25.0047 12.1136ZM30.4743 11.0611V10.1193L34.6291 3.54545H35.3124V5.00426H34.8507L31.7115 9.97159V10.0455H37.3067V11.0611H30.4743ZM34.9246 13V10.7749V10.3363V3.54545H36.0141V13H34.9246ZM40.0549 13.0739C39.8271 13.0739 39.6317 12.9923 39.4686 12.8292C39.3055 12.6661 39.2239 12.4706 39.2239 12.2429C39.2239 12.0152 39.3055 11.8197 39.4686 11.6566C39.6317 11.4935 39.8271 11.4119 40.0549 11.4119C40.2826 11.4119 40.478 11.4935 40.6412 11.6566C40.8043 11.8197 40.8858 12.0152 40.8858 12.2429C40.8858 12.3937 40.8474 12.5322 40.7704 12.6584C40.6966 12.7846 40.5965 12.8861 40.4703 12.9631C40.3472 13.0369 40.2087 13.0739 40.0549 13.0739ZM45.6664 3.54545V13H44.5215V4.74574H44.4661L42.1579 6.27841V5.11506L44.5215 3.54545H45.6664ZM49.331 13L53.5597 4.63494V4.56108H48.6847V3.54545H54.7415V4.61648L50.5313 13H49.331ZM56.2998 13.0739C56.072 13.0739 55.8766 12.9923 55.7135 12.8292C55.5504 12.6661 55.4688 12.4706 55.4688 12.2429C55.4688 12.0152 55.5504 11.8197 55.7135 11.6566C55.8766 11.4935 56.072 11.4119 56.2998 11.4119C56.5275 11.4119 56.723 11.4935 56.8861 11.6566C57.0492 11.8197 57.1308 12.0152 57.1308 12.2429C57.1308 12.3937 57.0923 12.5322 57.0153 12.6584C56.9415 12.7846 56.8415 12.8861 56.7153 12.9631C56.5922 13.0369 56.4537 13.0739 56.2998 13.0739ZM5.05966 24.4389V25.4545H0.923295V24.4389H5.05966ZM7.16385 29V28.169L10.2846 24.7528C10.6508 24.3527 10.9524 24.005 11.1894 23.7095C11.4264 23.411 11.6018 23.1309 11.7157 22.8693C11.8326 22.6046 11.8911 22.3277 11.8911 22.0384C11.8911 21.706 11.8111 21.4182 11.6511 21.1751C11.4941 20.9319 11.2787 20.7442 11.0048 20.6119C10.7308 20.4795 10.4231 20.4134 10.0815 20.4134C9.7183 20.4134 9.4013 20.4888 9.13047 20.6396C8.86271 20.7873 8.65497 20.995 8.50724 21.2628C8.36259 21.5305 8.29027 21.8445 8.29027 22.2045H7.20078C7.20078 21.6506 7.3285 21.1643 7.58395 20.7457C7.83939 20.3272 8.18717 20.0009 8.62727 19.767C9.07045 19.5331 9.5675 19.4162 10.1184 19.4162C10.6724 19.4162 11.1633 19.5331 11.5911 19.767C12.0188 20.0009 12.3543 20.3164 12.5974 20.7134C12.8406 21.1104 12.9621 21.5521 12.9621 22.0384C12.9621 22.3861 12.8991 22.7262 12.7729 23.0586C12.6498 23.3879 12.4343 23.7557 12.1266 24.1619C11.8219 24.5651 11.3987 25.0575 10.857 25.6392L8.73345 27.9105V27.9844H13.1283V29H7.16385ZM15.6849 29V28.169L18.8057 24.7528C19.1719 24.3527 19.4735 24.005 19.7105 23.7095C19.9475 23.411 20.1229 23.1309 20.2368 22.8693C20.3537 22.6046 20.4122 22.3277 20.4122 22.0384C20.4122 21.706 20.3322 21.4182 20.1722 21.1751C20.0152 20.9319 19.7998 20.7442 19.5259 20.6119C19.2519 20.4795 18.9442 20.4134 18.6026 20.4134C18.2394 20.4134 17.9224 20.4888 17.6516 20.6396C17.3838 20.7873 17.1761 20.995 17.0283 21.2628C16.8837 21.5305 16.8114 21.8445 16.8114 22.2045H15.7219C15.7219 21.6506 15.8496 21.1643 16.105 20.7457C16.3605 20.3272 16.7083 20.0009 17.1484 19.767C17.5915 19.5331 18.0886 19.4162 18.6395 19.4162C19.1935 19.4162 19.6844 19.5331 20.1121 19.767C20.5399 20.0009 20.8754 20.3164 21.1185 20.7134C21.3617 21.1104 21.4832 21.5521 21.4832 22.0384C21.4832 22.3861 21.4201 22.7262 21.294 23.0586C21.1709 23.3879 20.9554 23.7557 20.6477 24.1619C20.343 24.5651 19.9198 25.0575 19.3781 25.6392L17.2545 27.9105V27.9844H21.6494V29H15.6849ZM25.0185 29.0739C24.7908 29.0739 24.5954 28.9923 24.4322 28.8292C24.2691 28.6661 24.1876 28.4706 24.1876 28.2429C24.1876 28.0152 24.2691 27.8197 24.4322 27.6566C24.5954 27.4935 24.7908 27.4119 25.0185 27.4119C25.2463 27.4119 25.4417 27.4935 25.6048 27.6566C25.7679 27.8197 25.8495 28.0152 25.8495 28.2429C25.8495 28.3937 25.811 28.5322 25.7341 28.6584C25.6602 28.7846 25.5602 28.8861 25.434 28.9631C25.3109 29.0369 25.1724 29.0739 25.0185 29.0739ZM31.1898 29.1293C30.4943 29.1293 29.9018 28.94 29.4125 28.5614C28.9232 28.1798 28.5492 27.6274 28.2907 26.9041C28.0322 26.1778 27.9029 25.3007 27.9029 24.2727C27.9029 23.2509 28.0322 22.3784 28.2907 21.6552C28.5523 20.9289 28.9278 20.3749 29.4171 19.9933C29.9095 19.6085 30.5005 19.4162 31.1898 19.4162C31.8792 19.4162 32.4686 19.6085 32.958 19.9933C33.4504 20.3749 33.8259 20.9289 34.0844 21.6552C34.346 22.3784 34.4768 23.2509 34.4768 24.2727C34.4768 25.3007 34.3475 26.1778 34.089 26.9041C33.8305 27.6274 33.4565 28.1798 32.9672 28.5614C32.4778 28.94 31.8854 29.1293 31.1898 29.1293ZM31.1898 28.1136C31.8792 28.1136 32.4147 27.7812 32.7964 27.1165C33.178 26.4517 33.3688 25.5038 33.3688 24.2727C33.3688 23.4541 33.2811 22.757 33.1057 22.1815C32.9333 21.6059 32.684 21.1674 32.3578 20.8658C32.0347 20.5642 31.6453 20.4134 31.1898 20.4134C30.5066 20.4134 29.9726 20.7504 29.5879 21.4244C29.2032 22.0953 29.0109 23.0447 29.0109 24.2727C29.0109 25.0914 29.097 25.7869 29.2694 26.3594C29.4417 26.9318 29.6895 27.3673 30.0126 27.6658C30.3389 27.9644 30.7313 28.1136 31.1898 28.1136ZM36.6594 27.0611V26.1193L40.8143 19.5455H41.4975V21.0043H41.0359L37.8967 25.9716V26.0455H43.4918V27.0611H36.6594ZM41.1097 29V26.7749V26.3363V19.5455H42.1992V29H41.1097ZM46.24 29.0739C46.0123 29.0739 45.8168 28.9923 45.6537 28.8292C45.4906 28.6661 45.4091 28.4706 45.4091 28.2429C45.4091 28.0152 45.4906 27.8197 45.6537 27.6566C45.8168 27.4935 46.0123 27.4119 46.24 27.4119C46.4678 27.4119 46.6632 27.4935 46.8263 27.6566C46.9894 27.8197 47.071 28.0152 47.071 28.2429C47.071 28.3937 47.0325 28.5322 46.9556 28.6584C46.8817 28.7846 46.7817 28.8861 46.6555 28.9631C46.5324 29.0369 46.3939 29.0739 46.24 29.0739ZM49.6576 29V28.169L52.7783 24.7528C53.1446 24.3527 53.4462 24.005 53.6832 23.7095C53.9201 23.411 54.0956 23.1309 54.2094 22.8693C54.3264 22.6046 54.3849 22.3277 54.3849 22.0384C54.3849 21.706 54.3049 21.4182 54.1448 21.1751C53.9879 20.9319 53.7724 20.7442 53.4985 20.6119C53.2246 20.4795 52.9168 20.4134 52.5752 20.4134C52.212 20.4134 51.8951 20.4888 51.6242 20.6396C51.3565 20.7873 51.1487 20.995 51.001 21.2628C50.8563 21.5305 50.784 21.8445 50.784 22.2045H49.6945C49.6945 21.6506 49.8223 21.1643 50.0777 20.7457C50.3331 20.3272 50.6809 20.0009 51.121 19.767C51.5642 19.5331 52.0612 19.4162 52.6121 19.4162C53.1661 19.4162 53.657 19.5331 54.0848 19.767C54.5126 20.0009 54.8481 20.3164 55.0912 20.7134C55.3343 21.1104 55.4559 21.5521 55.4559 22.0384C55.4559 22.3861 55.3928 22.7262 55.2666 23.0586C55.1435 23.3879 54.9281 23.7557 54.6203 24.1619C54.3156 24.5651 53.8924 25.0575 53.3508 25.6392L51.2272 27.9105V27.9844H55.6221V29H49.6576ZM61.2625 29.1293C60.567 29.1293 59.9745 28.94 59.4852 28.5614C58.9958 28.1798 58.6219 27.6274 58.3634 26.9041C58.1048 26.1778 57.9756 25.3007 57.9756 24.2727C57.9756 23.2509 58.1048 22.3784 58.3634 21.6552C58.625 20.9289 59.0004 20.3749 59.4898 19.9933C59.9822 19.6085 60.5731 19.4162 61.2625 19.4162C61.9519 19.4162 62.5413 19.6085 63.0306 19.9933C63.523 20.3749 63.8985 20.9289 64.157 21.6552C64.4186 22.3784 64.5494 23.2509 64.5494 24.2727C64.5494 25.3007 64.4202 26.1778 64.1616 26.9041C63.9031 27.6274 63.5292 28.1798 63.0398 28.5614C62.5505 28.94 61.9581 29.1293 61.2625 29.1293ZM61.2625 28.1136C61.9519 28.1136 62.4874 27.7812 62.869 27.1165C63.2507 26.4517 63.4415 25.5038 63.4415 24.2727C63.4415 23.4541 63.3538 22.757 63.1783 22.1815C63.006 21.6059 62.7567 21.1674 62.4305 20.8658C62.1073 20.5642 61.718 20.4134 61.2625 20.4134C60.5793 20.4134 60.0453 20.7504 59.6606 21.4244C59.2759 22.0953 59.0835 23.0447 59.0835 24.2727C59.0835 25.0914 59.1697 25.7869 59.342 26.3594C59.5144 26.9318 59.7621 27.3673 60.0853 27.6658C60.4115 27.9644 60.8039 28.1136 61.2625 28.1136ZM67.4361 29.0739C67.2084 29.0739 67.0129 28.9923 66.8498 28.8292C66.6867 28.6661 66.6051 28.4706 66.6051 28.2429C66.6051 28.0152 66.6867 27.8197 66.8498 27.6566C67.0129 27.4935 67.2084 27.4119 67.4361 27.4119C67.6639 27.4119 67.8593 27.4935 68.0224 27.6566C68.1855 27.8197 68.2671 28.0152 68.2671 28.2429C68.2671 28.3937 68.2286 28.5322 68.1517 28.6584C68.0778 28.7846 67.9778 28.8861 67.8516 28.9631C67.7285 29.0369 67.59 29.0739 67.4361 29.0739Z" fill="white"/>
<path d="M11.73 43.465V56.485H10.59V43.465H11.73ZM8.715 51.685L8.865 52.6C7.315 52.91 5.385 53.065 3.075 53.065H1.47V44.53H7.515V45.49H2.625V52.105H3.045C5.335 52.105 7.225 51.965 8.715 51.685ZM27.624 49.555H25.464V56.515H24.324V43.495H25.464V48.595H27.624V49.555ZM19.494 48.97C19.614 48.97 19.729 49.025 19.839 49.135L22.764 52.6L21.909 53.335L18.969 49.75C18.909 49.69 18.844 49.66 18.774 49.66C18.704 49.66 18.654 49.69 18.624 49.75C18.354 50.29 17.999 50.845 17.559 51.415C17.129 51.975 16.539 52.68 15.789 53.53L14.949 52.825C15.819 51.905 16.484 51.11 16.944 50.44C17.414 49.77 17.754 49.105 17.964 48.445C18.174 47.775 18.279 47.015 18.279 46.165V45.595H15.339V44.635H22.329V45.595H19.404V46.195C19.404 47.315 19.224 48.32 18.864 49.21L18.939 49.27L19.179 49.09C19.279 49.01 19.384 48.97 19.494 48.97ZM40.653 43.465V53.35H39.498V43.465H40.653ZM29.853 47.515C29.853 46.815 29.998 46.205 30.288 45.685C30.588 45.165 30.998 44.77 31.518 44.5C32.038 44.22 32.633 44.08 33.303 44.08C33.963 44.08 34.553 44.22 35.073 44.5C35.603 44.77 36.013 45.165 36.303 45.685C36.603 46.205 36.753 46.815 36.753 47.515C36.753 48.205 36.603 48.81 36.303 49.33C36.013 49.85 35.603 50.25 35.073 50.53C34.553 50.8 33.963 50.935 33.303 50.935C32.633 50.935 32.038 50.8 31.518 50.53C30.998 50.25 30.588 49.855 30.288 49.345C29.998 48.825 29.853 48.215 29.853 47.515ZM35.538 47.83V47.2C35.538 46.54 35.328 46.015 34.908 45.625C34.498 45.225 33.963 45.025 33.303 45.025C32.633 45.025 32.088 45.225 31.668 45.625C31.258 46.025 31.053 46.55 31.053 47.2V47.83C31.053 48.48 31.263 49.005 31.683 49.405C32.103 49.795 32.643 49.99 33.303 49.99C33.963 49.99 34.498 49.795 34.908 49.405C35.328 49.005 35.538 48.48 35.538 47.83ZM32.313 56.005V52.27H33.468V55.825H40.923V56.77H33.063C32.823 56.77 32.638 56.705 32.508 56.575C32.378 56.445 32.313 56.255 32.313 56.005ZM61.082 47.815H58.997V51.355H57.857V43.465H58.997V46.855H61.082V47.815ZM49.337 50.995L48.497 50.275C49.337 49.595 49.987 49.01 50.447 48.52C50.907 48.03 51.237 47.545 51.437 47.065C51.647 46.575 51.752 46.03 51.752 45.43V45.28H48.887V44.32H55.742V45.28H52.892V45.475C52.892 46.305 52.717 47.06 52.367 47.74L52.457 47.785L52.682 47.62C52.792 47.53 52.902 47.485 53.012 47.485C53.122 47.485 53.237 47.535 53.357 47.635L56.162 50.02L55.322 50.77L52.472 48.265C52.412 48.205 52.342 48.175 52.262 48.175C52.182 48.175 52.112 48.205 52.052 48.265C51.792 48.655 51.452 49.055 51.032 49.465C50.612 49.875 50.047 50.385 49.337 50.995ZM50.552 52.165H58.997V57.145H57.872V53.125H50.552V52.165ZM74.096 43.465V50.695H72.956V47.53H70.061C69.961 48.38 69.601 49.055 68.981 49.555C68.361 50.045 67.591 50.29 66.671 50.29C66.011 50.29 65.421 50.16 64.901 49.9C64.391 49.64 63.991 49.27 63.701 48.79C63.411 48.3 63.266 47.73 63.266 47.08C63.266 46.43 63.411 45.865 63.701 45.385C63.991 44.895 64.391 44.52 64.901 44.26C65.421 44 66.011 43.87 66.671 43.87C67.591 43.87 68.356 44.115 68.966 44.605C69.586 45.085 69.951 45.745 70.061 46.585H72.956V43.465H74.096ZM68.891 46.825C68.891 46.215 68.686 45.725 68.276 45.355C67.866 44.985 67.331 44.8 66.671 44.8C66.011 44.8 65.476 44.985 65.066 45.355C64.666 45.725 64.466 46.215 64.466 46.825V47.32C64.466 47.94 64.666 48.435 65.066 48.805C65.476 49.175 66.011 49.36 66.671 49.36C67.331 49.36 67.866 49.175 68.276 48.805C68.686 48.435 68.891 47.94 68.891 47.32V46.825ZM72.956 51.535H74.096V57.025H66.611C66.371 57.025 66.186 56.96 66.056 56.83C65.926 56.7 65.861 56.51 65.861 56.26V51.535H66.971V53.26H72.956V51.535ZM72.956 54.235H66.971V56.05H72.956V54.235Z" fill="white"/>
</svg>
