<svg width="995" height="331" viewBox="0 0 995 331" fill="none" xmlns="http://www.w3.org/2000/svg">
<path d="M102.531 69.2756C102.455 68.6032 102.143 68.0824 101.594 67.7131C101.045 67.339 100.353 67.152 99.5199 67.152C98.9233 67.152 98.4072 67.2467 97.9716 67.4361C97.536 67.6207 97.1974 67.8764 96.956 68.2031C96.7192 68.5251 96.6009 68.892 96.6009 69.304C96.6009 69.6496 96.6813 69.9479 96.8423 70.1989C97.008 70.4498 97.2235 70.6605 97.4886 70.831C97.7585 70.9967 98.0473 71.1364 98.3551 71.25C98.6629 71.3589 98.9588 71.4489 99.2429 71.5199L100.663 71.8892C101.127 72.0028 101.603 72.1567 102.091 72.3509C102.579 72.545 103.031 72.8007 103.447 73.1179C103.864 73.4351 104.2 73.8281 104.456 74.2969C104.716 74.7656 104.847 75.3267 104.847 75.9801C104.847 76.804 104.634 77.5355 104.207 78.1747C103.786 78.8139 103.173 79.3182 102.368 79.6875C101.568 80.0568 100.599 80.2415 99.4631 80.2415C98.3741 80.2415 97.4318 80.0687 96.6364 79.723C95.8409 79.3774 95.2183 78.8873 94.7685 78.2528C94.3187 77.6136 94.0701 76.8561 94.0227 75.9801H96.2244C96.267 76.5057 96.4375 76.9437 96.7358 77.294C97.0388 77.6397 97.4247 77.8977 97.8935 78.0682C98.367 78.2339 98.8854 78.3168 99.4489 78.3168C100.069 78.3168 100.621 78.2197 101.104 78.0256C101.591 77.8267 101.975 77.5521 102.254 77.2017C102.534 76.8466 102.673 76.4323 102.673 75.9588C102.673 75.5279 102.55 75.1752 102.304 74.9006C102.063 74.6259 101.733 74.3987 101.317 74.2188C100.905 74.0388 100.438 73.8802 99.9176 73.7429L98.1989 73.2741C97.0341 72.9569 96.1108 72.4905 95.429 71.875C94.7519 71.2595 94.4134 70.4451 94.4134 69.4318C94.4134 68.5937 94.6406 67.8622 95.0952 67.2372C95.5497 66.6122 96.1652 66.1269 96.9418 65.7812C97.7183 65.4309 98.5942 65.2557 99.5696 65.2557C100.554 65.2557 101.423 65.4285 102.176 65.7741C102.934 66.1198 103.53 66.5956 103.966 67.2017C104.402 67.803 104.629 68.4943 104.648 69.2756H102.531ZM120.95 70.1847H118.734C118.649 69.7112 118.49 69.2945 118.258 68.9347C118.026 68.5748 117.742 68.2694 117.406 68.0185C117.07 67.7675 116.693 67.5781 116.277 67.4503C115.865 67.3224 115.427 67.2585 114.963 67.2585C114.125 67.2585 113.374 67.4692 112.711 67.8906C112.053 68.312 111.532 68.9299 111.149 69.7443C110.77 70.5587 110.581 71.553 110.581 72.7273C110.581 73.911 110.77 74.91 111.149 75.7244C111.532 76.5388 112.056 77.1544 112.719 77.571C113.381 77.9877 114.127 78.196 114.956 78.196C115.415 78.196 115.851 78.1345 116.263 78.0114C116.679 77.8835 117.056 77.6965 117.392 77.4503C117.728 77.2041 118.012 76.9034 118.244 76.5483C118.481 76.1884 118.644 75.7765 118.734 75.3125L120.95 75.3196C120.832 76.0346 120.602 76.6927 120.261 77.294C119.925 77.8906 119.492 78.4067 118.961 78.8423C118.436 79.2732 117.835 79.607 117.157 79.8438C116.48 80.0805 115.742 80.1989 114.942 80.1989C113.682 80.1989 112.56 79.9006 111.575 79.304C110.59 78.7027 109.814 77.8433 109.246 76.7259C108.682 75.6084 108.4 74.2756 108.4 72.7273C108.4 71.1742 108.684 69.8414 109.253 68.7287C109.821 67.6113 110.597 66.7543 111.582 66.1577C112.567 65.5563 113.687 65.2557 114.942 65.2557C115.713 65.2557 116.433 65.367 117.101 65.5895C117.773 65.8073 118.377 66.1293 118.912 66.5554C119.447 66.9768 119.889 67.4929 120.24 68.1037C120.59 68.7098 120.827 69.4034 120.95 70.1847ZM124.976 80V65.4545H127.171V71.7756H134.422V65.4545H136.624V80H134.422V73.6577H127.171V80H124.976ZM141.22 80V65.4545H150.339V67.3438H143.414V71.7756H149.863V73.6577H143.414V78.1108H150.424V80H141.22ZM159.379 80H154.671V65.4545H159.529C160.954 65.4545 162.178 65.7457 163.2 66.3281C164.223 66.9058 165.007 67.7367 165.551 68.821C166.101 69.9006 166.375 71.1955 166.375 72.706C166.375 74.2211 166.098 75.5232 165.544 76.6122C164.995 77.7012 164.2 78.5393 163.158 79.1264C162.116 79.7088 160.857 80 159.379 80ZM156.865 78.0824H159.259C160.367 78.0824 161.288 77.8741 162.022 77.4574C162.755 77.036 163.305 76.4276 163.669 75.6321C164.034 74.8319 164.216 73.8565 164.216 72.706C164.216 71.5649 164.034 70.5966 163.669 69.8011C163.309 69.0057 162.772 68.402 162.057 67.9901C161.342 67.5781 160.454 67.3722 159.394 67.3722H156.865V78.0824ZM179.858 65.4545H182.06V75.0213C182.06 76.0393 181.821 76.9413 181.342 77.7273C180.864 78.5085 180.192 79.1241 179.325 79.5739C178.459 80.0189 177.443 80.2415 176.278 80.2415C175.118 80.2415 174.105 80.0189 173.239 79.5739C172.372 79.1241 171.7 78.5085 171.222 77.7273C170.743 76.9413 170.504 76.0393 170.504 75.0213V65.4545H172.699V74.8438C172.699 75.5019 172.843 76.0866 173.132 76.598C173.426 77.1094 173.84 77.5118 174.375 77.8054C174.91 78.0942 175.545 78.2386 176.278 78.2386C177.017 78.2386 177.654 78.0942 178.189 77.8054C178.729 77.5118 179.141 77.1094 179.425 76.598C179.714 76.0866 179.858 75.5019 179.858 74.8438V65.4545ZM186.65 80V65.4545H188.845V78.1108H195.436V80H186.65ZM199.339 80V65.4545H208.459V67.3438H201.534V71.7756H207.983V73.6577H201.534V78.1108H208.544V80H199.339Z" fill="white"/>
<path d="M92 260L-5 330.5H995V0L801.5 63.5L615 130L442.5 181.5L256 232.5L92 260Z" fill="url(#paint0_linear_247_237)"/>
<path d="M93 255.667C90.0545 255.667 87.6667 258.054 87.6667 261C87.6667 263.946 90.0545 266.333 93 266.333C95.9455 266.333 98.3333 263.946 98.3333 261C98.3333 258.054 95.9455 255.667 93 255.667ZM92 261L92 330L94 330L94 261L92 261Z" fill="white"/>
<path d="M443 175.667C440.054 175.667 437.667 178.054 437.667 181C437.667 183.946 440.054 186.333 443 186.333C445.946 186.333 448.333 183.946 448.333 181C448.333 178.054 445.946 175.667 443 175.667ZM442 181L442 330L444 330L444 181L442 181Z" fill="white"/>
<path d="M803 57.6667C800.054 57.6667 797.667 60.0545 797.667 63C797.667 65.9455 800.054 68.3333 803 68.3333C805.946 68.3333 808.333 65.9455 808.333 63C808.333 60.0545 805.946 57.6667 803 57.6667ZM802 63L802 330L804 330L804 63L802 63Z" fill="white"/>
<path d="M259 225.667C256.054 225.667 253.667 228.054 253.667 231C253.667 233.946 256.054 236.333 259 236.333C261.946 236.333 264.333 233.946 264.333 231C264.333 228.054 261.946 225.667 259 225.667ZM258 231L258 330L260 330L260 231L258 231Z" fill="white"/>
<path d="M616 124.667C613.054 124.667 610.667 127.054 610.667 130C610.667 132.946 613.054 135.333 616 135.333C618.946 135.333 621.333 132.946 621.333 130C621.333 127.054 618.946 124.667 616 124.667ZM615 130L615 330L617 330L617 130L615 130Z" fill="white"/>
<defs>
<linearGradient id="paint0_linear_247_237" x1="519" y1="-21" x2="519" y2="318.5" gradientUnits="userSpaceOnUse">
<stop stop-color="#F8D554"/>
<stop offset="0.938383" stop-color="white" stop-opacity="0"/>
</linearGradient>
</defs>
</svg>
