<svg width="238" height="40" viewBox="0 0 238 40" fill="none" xmlns="http://www.w3.org/2000/svg">
<path d="M22.179 4.003V15.287H21.204V4.003H22.179ZM18.136 5.238H14.652V4.445H18.136V5.238ZM15.9 7.188H13.339V6.395H19.41V7.188H16.875C16.849 7.74267 16.6887 8.23667 16.394 8.67L16.459 8.709L16.706 8.54C16.81 8.462 16.914 8.423 17.018 8.423C17.122 8.423 17.2173 8.45333 17.304 8.514L19.67 9.983L18.981 10.62L16.524 9.034C16.472 8.99067 16.3983 8.969 16.303 8.969C16.2077 8.969 16.134 8.99067 16.082 9.034C15.848 9.28533 15.5447 9.54967 15.172 9.827C14.7993 10.0957 14.314 10.4077 13.716 10.763L13.027 10.152C13.7463 9.75333 14.3053 9.40233 14.704 9.099C15.1027 8.787 15.393 8.48367 15.575 8.189C15.7657 7.88567 15.874 7.552 15.9 7.188ZM20.268 11.92L20.359 12.7C19.3797 12.856 18.201 12.9773 16.823 13.064C15.4537 13.142 14.0453 13.181 12.598 13.181L12.507 12.349C13.5297 12.349 14.6563 12.3273 15.887 12.284V10.438H16.836V12.245C18.24 12.1583 19.384 12.05 20.268 11.92ZM34.4718 12.57H33.4708V4.003H34.4718V12.57ZM28.2448 8.033C28.1842 8.033 28.1322 8.059 28.0888 8.111C27.8635 8.501 27.5645 8.904 27.1918 9.32C26.8192 9.736 26.3165 10.243 25.6838 10.841L24.9428 10.204C25.6882 9.528 26.2602 8.94733 26.6588 8.462C27.0575 7.968 27.3435 7.48267 27.5168 7.006C27.6988 6.52067 27.7898 5.97033 27.7898 5.355V4.575H28.7908V5.407C28.7908 6.24767 28.6392 7.00167 28.3358 7.669L28.4008 7.708L28.6088 7.526C28.7042 7.448 28.7952 7.409 28.8818 7.409C28.9858 7.409 29.0768 7.45233 29.1548 7.539L31.6638 9.957L30.9488 10.646L28.4138 8.111C28.3618 8.059 28.3055 8.033 28.2448 8.033ZM34.7058 14.715V15.534H27.8938C27.6858 15.534 27.5255 15.4777 27.4128 15.365C27.3002 15.2523 27.2438 15.0877 27.2438 14.871V11.634H28.2448V14.715H34.7058ZM38.1846 9.008L37.6386 8.254C38.7653 7.79467 39.6276 7.37867 40.2256 7.006C40.8323 6.62467 41.2526 6.24767 41.4866 5.875C41.7293 5.50233 41.8506 5.07333 41.8506 4.588V4.237H42.8646V4.627C42.8646 5.03433 42.8126 5.39833 42.7086 5.719C42.6046 6.031 42.4356 6.32567 42.2016 6.603L42.2926 6.642L42.6176 6.395C42.739 6.30833 42.8603 6.265 42.9816 6.265C43.077 6.265 43.1766 6.291 43.2806 6.343L46.9206 8.215L46.3616 8.982L42.5526 6.954C42.44 6.89333 42.323 6.863 42.2016 6.863C42.0716 6.863 41.9546 6.89767 41.8506 6.967C41.504 7.279 41.036 7.59533 40.4466 7.916C39.866 8.23667 39.112 8.60067 38.1846 9.008ZM47.5836 10.074V10.919H42.8386V13.259H41.8506V10.919H36.9756V10.074H47.5836ZM39.4456 14.754H46.1926V15.573H39.1206C38.9126 15.573 38.7523 15.5167 38.6396 15.404C38.527 15.2913 38.4706 15.1267 38.4706 14.91V12.167H39.4456V14.754ZM50.4255 7.539C50.4255 6.95833 50.5728 6.43833 50.8675 5.979C51.1708 5.511 51.6301 5.13833 52.2455 4.861C52.8608 4.58367 53.6191 4.445 54.5205 4.445C55.4218 4.445 56.1801 4.58367 56.7955 4.861C57.4108 5.13833 57.8658 5.511 58.1605 5.979C58.4638 6.43833 58.6155 6.95833 58.6155 7.539C58.6155 8.11967 58.4638 8.644 58.1605 9.112C57.8658 9.58 57.4108 9.95267 56.7955 10.23C56.1801 10.5073 55.4218 10.646 54.5205 10.646C53.6191 10.646 52.8608 10.5073 52.2455 10.23C51.6301 9.95267 51.1708 9.58 50.8675 9.112C50.5728 8.644 50.4255 8.11967 50.4255 7.539ZM57.5495 7.695V7.396C57.5495 6.99733 57.4411 6.63767 57.2245 6.317C57.0165 5.98767 56.6828 5.72767 56.2235 5.537C55.7728 5.33767 55.2051 5.238 54.5205 5.238C53.8358 5.238 53.2638 5.33767 52.8045 5.537C52.3538 5.72767 52.0201 5.98767 51.8035 6.317C51.5955 6.63767 51.4915 6.99733 51.4915 7.396V7.695C51.4915 8.31033 51.7428 8.82167 52.2455 9.229C52.7481 9.63633 53.5065 9.84 54.5205 9.84C55.5345 9.84 56.2928 9.63633 56.7955 9.229C57.2981 8.82167 57.5495 8.31033 57.5495 7.695ZM49.2165 13.155H59.8245V14H49.2165V13.155ZM72.0653 13.168V14H61.4573V13.168H66.2673V10.945H63.0173V7.422H69.5173V5.511H62.9523V4.692H70.5053V8.215H64.0053V10.126H70.8433V10.945H67.2553V13.168H72.0653ZM85.5298 14V12.219H81.1488V11.257L84.9448 4.926H86.5698V11.309H87.8828V12.219H86.5698V14H85.5298ZM82.1758 11.309H85.5298V5.771H85.4648L82.1758 11.309ZM99.6167 4.003V15.287H98.6547V9.229H96.9127V14.975H95.9507V4.198H96.9127V8.41H98.6547V4.003H99.6167ZM90.2047 5.16H94.5207V6.928C94.5207 7.84667 94.3993 8.62233 94.1567 9.255C93.9227 9.88767 93.524 10.4857 92.9607 11.049C92.3973 11.6037 91.5913 12.2277 90.5427 12.921L89.9057 12.245C90.885 11.621 91.6303 11.062 92.1417 10.568C92.6617 10.0653 93.0257 9.541 93.2337 8.995C93.4417 8.44033 93.5457 7.76 93.5457 6.954V5.966H90.2047V5.16ZM110.544 4.003H111.519V15.287H110.544V4.003ZM102.432 7.383C102.432 6.84567 102.567 6.37333 102.835 5.966C103.104 5.55 103.472 5.23367 103.94 5.017C104.408 4.79167 104.937 4.679 105.526 4.679C106.116 4.679 106.644 4.79167 107.112 5.017C107.58 5.23367 107.949 5.55 108.217 5.966C108.486 6.37333 108.62 6.84567 108.62 7.383C108.62 7.92033 108.486 8.39267 108.217 8.8C107.949 9.20733 107.58 9.52367 107.112 9.749C106.644 9.96567 106.116 10.074 105.526 10.074C104.937 10.074 104.408 9.96567 103.94 9.749C103.472 9.52367 103.104 9.20733 102.835 8.8C102.567 8.39267 102.432 7.92033 102.432 7.383ZM107.58 7.539V7.227C107.58 6.707 107.39 6.28667 107.008 5.966C106.627 5.64533 106.133 5.485 105.526 5.485C104.92 5.485 104.426 5.64533 104.044 5.966C103.663 6.28667 103.472 6.707 103.472 7.227V7.539C103.472 8.059 103.663 8.47933 104.044 8.8C104.426 9.12067 104.92 9.281 105.526 9.281C106.133 9.281 106.627 9.12067 107.008 8.8C107.39 8.47933 107.58 8.059 107.58 7.539ZM101.886 12.076C103.36 12.076 104.781 12.0413 106.15 11.972C107.52 11.9027 108.681 11.7943 109.634 11.647L109.738 12.44C108.759 12.596 107.58 12.7173 106.202 12.804C104.833 12.882 103.425 12.921 101.977 12.921L101.886 12.076ZM129.586 5.199H122.943V4.367H130.548V5.004C130.548 6.13933 130.414 7.30067 130.145 8.488L129.209 8.358C129.452 7.33533 129.577 6.28233 129.586 5.199ZM132.134 9.398V10.256H121.526V9.398H125.881V7.149H126.856V9.398H132.134ZM130.678 13.662C130.678 14.1127 130.531 14.5113 130.236 14.858C129.95 15.2133 129.517 15.4907 128.936 15.69C128.364 15.8893 127.662 15.989 126.83 15.989C125.998 15.989 125.292 15.8893 124.711 15.69C124.139 15.4907 123.706 15.2133 123.411 14.858C123.125 14.5113 122.982 14.1127 122.982 13.662C122.982 13.2113 123.125 12.8127 123.411 12.466C123.706 12.1193 124.139 11.8463 124.711 11.647C125.292 11.4477 125.998 11.348 126.83 11.348C127.662 11.348 128.364 11.4477 128.936 11.647C129.517 11.8463 129.95 12.1193 130.236 12.466C130.531 12.8127 130.678 13.2113 130.678 13.662ZM129.638 13.571C129.638 13.1637 129.404 12.8213 128.936 12.544C128.477 12.2667 127.775 12.128 126.83 12.128C125.894 12.128 125.188 12.2667 124.711 12.544C124.243 12.8213 124.009 13.1637 124.009 13.571V13.766C124.009 14.1647 124.243 14.5027 124.711 14.78C125.188 15.0573 125.894 15.196 126.83 15.196C127.775 15.196 128.477 15.0573 128.936 14.78C129.404 14.5027 129.638 14.1647 129.638 13.766V13.571ZM143.439 4.003V15.287H142.451V4.003H143.439ZM138.005 8.774C138.126 8.774 138.226 8.82167 138.304 8.917L140.852 11.907L140.111 12.544L137.537 9.45C137.493 9.398 137.441 9.372 137.381 9.372C137.329 9.372 137.281 9.398 137.238 9.45C137.004 9.92667 136.696 10.412 136.315 10.906C135.933 11.4 135.413 12.0067 134.755 12.726L134.014 12.102C134.768 11.3133 135.348 10.6287 135.756 10.048C136.172 9.46733 136.471 8.891 136.653 8.319C136.835 7.73833 136.926 7.07967 136.926 6.343V5.849H134.365V5.017H140.462V5.849H137.914V6.382C137.914 7.36133 137.762 8.23233 137.459 8.995L137.524 9.034L137.719 8.878C137.814 8.80867 137.909 8.774 138.005 8.774ZM156.954 9.281H155.082V15.313H154.094V4.029H155.082V8.449H156.954V9.281ZM149.843 8.553C149.955 8.553 150.051 8.60067 150.129 8.696L152.664 11.946L151.91 12.609L149.362 9.268C149.336 9.216 149.292 9.19 149.232 9.19C149.188 9.19 149.145 9.216 149.102 9.268C148.876 9.77067 148.573 10.2907 148.192 10.828C147.81 11.3567 147.295 12.0067 146.645 12.778L145.891 12.141C146.645 11.283 147.221 10.5507 147.62 9.944C148.027 9.32867 148.317 8.71333 148.491 8.098C148.673 7.48267 148.764 6.77633 148.764 5.979V4.757H149.765V5.966C149.765 6.99733 149.613 7.93333 149.31 8.774L149.375 8.813L149.57 8.657C149.665 8.58767 149.756 8.553 149.843 8.553ZM169.207 7.123V7.955H167.4V11.309H166.412V4.003H167.4V7.123H169.207ZM163.435 5.095H159.964V4.276H163.435V5.095ZM161.615 10.867C161.078 10.867 160.606 10.7847 160.198 10.62C159.791 10.4553 159.475 10.2257 159.249 9.931C159.033 9.63633 158.924 9.30267 158.924 8.93C158.924 8.55733 159.015 8.23667 159.197 7.968C159.388 7.69067 159.67 7.474 160.042 7.318V7.24H158.066V6.447H165.112V7.24H163.188V7.318C163.561 7.474 163.838 7.69067 164.02 7.968C164.211 8.23667 164.306 8.55733 164.306 8.93C164.306 9.30267 164.194 9.63633 163.968 9.931C163.752 10.2257 163.44 10.4553 163.032 10.62C162.625 10.7847 162.153 10.867 161.615 10.867ZM161.485 10.048H161.745C162.231 10.048 162.625 9.931 162.928 9.697C163.232 9.45433 163.383 9.12067 163.383 8.696C163.383 8.26267 163.232 7.929 162.928 7.695C162.625 7.45233 162.231 7.331 161.745 7.331H161.485C161 7.331 160.606 7.45233 160.302 7.695C159.999 7.929 159.847 8.26267 159.847 8.696C159.847 9.12067 159.999 9.45433 160.302 9.697C160.606 9.931 161 10.048 161.485 10.048ZM167.491 13.74C167.491 14.4073 167.184 14.9447 166.568 15.352C165.953 15.7593 165.065 15.963 163.903 15.963C162.742 15.963 161.849 15.7593 161.225 15.352C160.61 14.9447 160.302 14.4073 160.302 13.74C160.302 13.3153 160.437 12.9383 160.705 12.609C160.974 12.2797 161.377 12.0197 161.914 11.829C162.46 11.6383 163.123 11.543 163.903 11.543C164.683 11.543 165.342 11.6383 165.879 11.829C166.417 12.0197 166.82 12.2797 167.088 12.609C167.357 12.9383 167.491 13.3153 167.491 13.74ZM166.451 13.662C166.451 13.2893 166.239 12.9773 165.814 12.726C165.398 12.466 164.761 12.336 163.903 12.336C163.054 12.336 162.417 12.466 161.992 12.726C161.568 12.9773 161.355 13.2893 161.355 13.662V13.844C161.355 14.2167 161.568 14.5287 161.992 14.78C162.417 15.04 163.054 15.17 163.903 15.17C164.761 15.17 165.398 15.04 165.814 14.78C166.239 14.5287 166.451 14.2167 166.451 13.844V13.662ZM171.893 6.083C171.893 5.45033 172.218 4.94767 172.868 4.575C173.518 4.19367 174.493 4.003 175.793 4.003C177.093 4.003 178.068 4.19367 178.718 4.575C179.368 4.94767 179.693 5.45033 179.693 6.083C179.693 6.71567 179.368 7.22267 178.718 7.604C178.068 7.98533 177.093 8.176 175.793 8.176C174.493 8.176 173.518 7.98533 172.868 7.604C172.218 7.22267 171.893 6.71567 171.893 6.083ZM178.64 6.148V6.005C178.64 5.63233 178.402 5.329 177.925 5.095C177.457 4.85233 176.747 4.731 175.793 4.731C174.84 4.731 174.125 4.85233 173.648 5.095C173.18 5.329 172.946 5.63233 172.946 6.005V6.148C172.946 6.52067 173.18 6.82833 173.648 7.071C174.125 7.305 174.84 7.422 175.793 7.422C176.747 7.422 177.457 7.305 177.925 7.071C178.402 6.82833 178.64 6.52067 178.64 6.148ZM181.097 9.073V9.905H170.489V9.073H181.097ZM172.14 15.157V13.025H178.549V11.803H172.062V10.997H179.498V13.779H173.089V15.014H179.836V15.82H172.79C172.582 15.82 172.422 15.7637 172.309 15.651C172.197 15.5383 172.14 15.3737 172.14 15.157ZM191.364 8.267L190.844 7.552C191.97 7.14467 192.837 6.78067 193.444 6.46C194.05 6.13067 194.475 5.80567 194.718 5.485C194.96 5.15567 195.082 4.77867 195.082 4.354V4.081H196.057V4.393C196.057 4.74833 196.005 5.069 195.901 5.355C195.797 5.641 195.632 5.90533 195.407 6.148L195.498 6.174L195.823 5.953C195.953 5.849 196.083 5.797 196.213 5.797C196.308 5.797 196.399 5.823 196.486 5.875L200.126 7.513L199.593 8.241L195.784 6.46C195.645 6.39933 195.528 6.369 195.433 6.369C195.32 6.369 195.194 6.40367 195.056 6.473C194.7 6.759 194.228 7.045 193.639 7.331C193.058 7.60833 192.3 7.92033 191.364 8.267ZM200.789 9.125V9.944H190.181V9.125H200.789ZM192.768 15.014H199.528V15.82H192.482C192.274 15.82 192.113 15.7637 192.001 15.651C191.888 15.5383 191.832 15.3737 191.832 15.157V13.038H198.241V11.829H191.754V11.023H199.19V13.792H192.768V15.014ZM213.368 9.281H211.496V15.313H210.508V4.029H211.496V8.449H213.368V9.281ZM209.221 11.335L209.351 12.128C208.033 12.388 206.361 12.518 204.333 12.518H202.955V8.163H206.998V5.693H202.903V4.861H207.973V8.982H203.93V11.712H204.359C206.257 11.712 207.877 11.5863 209.221 11.335ZM223.346 4.003H224.334V15.287H223.346V4.003ZM215 8.566C215 7.30067 215.278 6.343 215.832 5.693C216.396 5.043 217.137 4.718 218.055 4.718C218.965 4.718 219.698 5.043 220.252 5.693C220.816 6.343 221.097 7.30067 221.097 8.566C221.097 9.41533 220.967 10.1303 220.707 10.711C220.447 11.283 220.088 11.712 219.628 11.998C219.169 12.2753 218.645 12.414 218.055 12.414C217.137 12.414 216.396 12.089 215.832 11.439C215.278 10.789 215 9.83133 215 8.566ZM220.044 9.073V8.059C220.044 7.253 219.858 6.63333 219.485 6.2C219.121 5.76667 218.645 5.55 218.055 5.55C217.457 5.55 216.972 5.76667 216.599 6.2C216.235 6.62467 216.053 7.24433 216.053 8.059V9.073C216.053 9.88767 216.235 10.5117 216.599 10.945C216.972 11.3697 217.457 11.582 218.055 11.582C218.645 11.582 219.121 11.3653 219.485 10.932C219.858 10.4987 220.044 9.879 220.044 9.073ZM236.133 10.23H228.437V4.783H236.016V5.628H229.425V9.385H236.133V10.23ZM237.511 13.155V14H226.903V13.155H237.511ZM20.437 26.031V24.913H14.093V24.185H21.386V26.746H15.12V27.851H21.711V28.592H14.158V26.031H20.437ZM23.102 29.567V30.334H12.494V29.567H23.102ZM14.119 35.196V33.233H20.593V32.141H14.041V31.374H21.516V33.961H15.042V35.079H21.854V35.859H14.769C14.561 35.859 14.4007 35.8027 14.288 35.69C14.1753 35.5773 14.119 35.4127 14.119 35.196ZM39.0651 30.321V31.127H28.4571V30.321H33.2801V29.099H30.0691V24.237H37.4401V25.017H31.0181V26.291H37.2451V27.045H31.0311V28.319H37.6481V29.099H34.2551V30.321H39.0651ZM37.6091 34C37.6091 34.6153 37.2798 35.105 36.6211 35.469C35.9624 35.833 35.0091 36.015 33.7611 36.015C32.5131 36.015 31.5598 35.833 30.9011 35.469C30.2424 35.105 29.9131 34.6153 29.9131 34C29.9131 33.3933 30.2424 32.908 30.9011 32.544C31.5598 32.1713 32.5131 31.985 33.7611 31.985C35.0091 31.985 35.9624 32.1713 36.6211 32.544C37.2798 32.908 37.6091 33.3933 37.6091 34ZM36.5691 33.922C36.5691 33.584 36.3351 33.3023 35.8671 33.077C35.4078 32.8517 34.7058 32.739 33.7611 32.739C32.8251 32.739 32.1188 32.8517 31.6421 33.077C31.1741 33.3023 30.9401 33.584 30.9401 33.922V34.078C30.9401 34.416 31.1741 34.6977 31.6421 34.923C32.1188 35.1483 32.8251 35.261 33.7611 35.261C34.7058 35.261 35.4078 35.1483 35.8671 34.923C36.3351 34.6977 36.5691 34.416 36.5691 34.078V33.922ZM50.7209 24.003V35.287H49.7589V29.398H48.0689V34.975H47.1199V24.198H48.0689V28.579H49.7589V24.003H50.7209ZM45.3259 25.693H41.9849V24.887H45.3259V25.693ZM40.6199 27.149H46.4959V27.929H44.9489V27.994C45.6336 28.3667 45.9759 29.073 45.9759 30.113C45.9759 30.9277 45.7549 31.5647 45.3129 32.024C44.8796 32.4747 44.3076 32.7 43.5969 32.7C42.8949 32.7 42.3229 32.4747 41.8809 32.024C41.4476 31.5647 41.2309 30.9277 41.2309 30.113C41.2309 29.073 41.5689 28.3667 42.2449 27.994V27.929H40.6199V27.149ZM45.0399 29.645C45.0399 29.125 44.9099 28.7263 44.6499 28.449C44.3899 28.1717 44.0389 28.033 43.5969 28.033C43.1549 28.033 42.8039 28.1717 42.5439 28.449C42.2926 28.7263 42.1669 29.125 42.1669 29.645V30.269C42.1669 30.7803 42.2969 31.179 42.5569 31.465C42.8256 31.751 43.1722 31.894 43.5969 31.894C44.0216 31.894 44.3682 31.751 44.6369 31.465C44.9056 31.179 45.0399 30.7803 45.0399 30.269V29.645ZM67.607 28.462H65.891V31.764H64.916V24.003H65.891V27.63H67.607V28.462ZM61.913 24.861H58.494V24.094H61.913V24.861ZM64.058 31.114C63.096 31.27 61.939 31.3913 60.587 31.478C59.2437 31.556 57.857 31.595 56.427 31.595L56.349 30.789C57.6577 30.789 58.7627 30.7673 59.664 30.724V29.814C58.988 29.7533 58.455 29.58 58.065 29.294C57.675 28.9993 57.48 28.631 57.48 28.189C57.48 27.5477 57.818 27.1013 58.494 26.85V26.772H56.7V26.031H63.473V26.772H61.757V26.85C62.433 27.1187 62.771 27.565 62.771 28.189C62.771 28.6223 62.576 28.9863 62.186 29.281C61.796 29.567 61.2673 29.7403 60.6 29.801V30.685C61.9347 30.6157 63.057 30.5117 63.967 30.373L64.058 31.114ZM59.937 29.06H60.314C60.7733 29.06 61.146 28.9647 61.432 28.774C61.7267 28.5747 61.874 28.2973 61.874 27.942C61.874 27.5867 61.731 27.3137 61.445 27.123C61.159 26.9237 60.782 26.824 60.314 26.824H59.937C59.469 26.824 59.0877 26.9237 58.793 27.123C58.507 27.3137 58.364 27.5867 58.364 27.942C58.364 28.2973 58.507 28.5747 58.793 28.774C59.0877 28.9647 59.469 29.06 59.937 29.06ZM58.39 32.453H65.891V35.885H64.929V33.22H58.39V32.453ZM78.6388 24.003V32.57H77.6378V24.003H78.6388ZM69.2788 27.513C69.2788 26.9063 69.4045 26.3777 69.6558 25.927C69.9158 25.4763 70.2711 25.134 70.7218 24.9C71.1725 24.6573 71.6881 24.536 72.2688 24.536C72.8408 24.536 73.3521 24.6573 73.8028 24.9C74.2621 25.134 74.6175 25.4763 74.8688 25.927C75.1288 26.3777 75.2588 26.9063 75.2588 27.513C75.2588 28.111 75.1288 28.6353 74.8688 29.086C74.6175 29.5367 74.2621 29.8833 73.8028 30.126C73.3521 30.36 72.8408 30.477 72.2688 30.477C71.6881 30.477 71.1725 30.36 70.7218 30.126C70.2711 29.8833 69.9158 29.541 69.6558 29.099C69.4045 28.6483 69.2788 28.1197 69.2788 27.513ZM74.2058 27.786V27.24C74.2058 26.668 74.0238 26.213 73.6598 25.875C73.3045 25.5283 72.8408 25.355 72.2688 25.355C71.6881 25.355 71.2158 25.5283 70.8518 25.875C70.4965 26.2217 70.3188 26.6767 70.3188 27.24V27.786C70.3188 28.3493 70.5008 28.8043 70.8648 29.151C71.2288 29.489 71.6968 29.658 72.2688 29.658C72.8408 29.658 73.3045 29.489 73.6598 29.151C74.0238 28.8043 74.2058 28.3493 74.2058 27.786ZM71.4108 34.871V31.634H72.4118V34.715H78.8728V35.534H72.0608C71.8528 35.534 71.6925 35.4777 71.5798 35.365C71.4671 35.2523 71.4108 35.0877 71.4108 34.871ZM95.8109 29.281H93.9389V35.313H92.9509V24.029H93.9389V28.449H95.8109V29.281ZM85.4239 24.926H90.4809V26.733C90.4809 27.695 90.3379 28.5097 90.0519 29.177C89.7659 29.8443 89.2806 30.4683 88.5959 31.049C87.9199 31.621 86.9492 32.2493 85.6839 32.934L85.0989 32.193C86.2776 31.569 87.1789 31.0013 87.8029 30.49C88.4269 29.9787 88.8646 29.437 89.1159 28.865C89.3672 28.293 89.4929 27.5867 89.4929 26.746V25.771H85.4239V24.926ZM106.206 28.137H98.7307V24.315H99.7057V27.331H106.206V28.137ZM107.714 29.476V30.334H97.1057V29.476H107.714ZM106.258 33.714C106.258 34.3987 105.928 34.949 105.27 35.365C104.611 35.781 103.658 35.989 102.41 35.989C101.162 35.989 100.208 35.781 99.5497 35.365C98.8911 34.949 98.5617 34.3987 98.5617 33.714C98.5617 33.2807 98.7047 32.895 98.9907 32.557C99.2854 32.219 99.7187 31.9547 100.291 31.764C100.871 31.5733 101.578 31.478 102.41 31.478C103.242 31.478 103.944 31.5733 104.516 31.764C105.096 31.9547 105.53 32.219 105.816 32.557C106.11 32.895 106.258 33.2807 106.258 33.714ZM105.218 33.636C105.218 33.246 104.984 32.921 104.516 32.661C104.056 32.3923 103.354 32.258 102.41 32.258C101.474 32.258 100.767 32.3923 100.291 32.661C99.8227 32.921 99.5887 33.246 99.5887 33.636V33.818C99.5887 34.208 99.8227 34.533 100.291 34.793C100.767 35.0617 101.474 35.196 102.41 35.196C103.354 35.196 104.056 35.0617 104.516 34.793C104.984 34.533 105.218 34.208 105.218 33.818V33.636Z" fill="white"/>
<rect y="4" width="2" height="10" fill="white"/>
</svg>
