<svg width="238" height="40" viewBox="0 0 238 40" fill="none" xmlns="http://www.w3.org/2000/svg">
<path d="M22.166 4.003V15.287H21.178V4.003H22.166ZM16.732 8.774C16.8533 8.774 16.953 8.82167 17.031 8.917L19.579 11.907L18.838 12.544L16.264 9.45C16.2207 9.398 16.1687 9.372 16.108 9.372C16.056 9.372 16.0083 9.398 15.965 9.45C15.731 9.92667 15.4233 10.412 15.042 10.906C14.6607 11.4 14.1407 12.0067 13.482 12.726L12.741 12.102C13.495 11.3133 14.0757 10.6287 14.483 10.048C14.899 9.46733 15.198 8.891 15.38 8.319C15.562 7.73833 15.653 7.07967 15.653 6.343V5.849H13.092V5.017H19.189V5.849H16.641V6.382C16.641 7.36133 16.4893 8.23233 16.186 8.995L16.251 9.034L16.446 8.878C16.5413 8.80867 16.6367 8.774 16.732 8.774ZM35.3428 13.168V14H24.7348V13.168H29.5448V10.165H26.2688V4.77H33.8478V5.615H27.2568V9.32H33.9648V10.165H30.5328V13.168H35.3428ZM45.6856 4.003H46.6606V15.287H45.6856V4.003ZM37.5736 7.383C37.5736 6.84567 37.708 6.37333 37.9766 5.966C38.2453 5.55 38.6136 5.23367 39.0816 5.017C39.5496 4.79167 40.0783 4.679 40.6676 4.679C41.257 4.679 41.7856 4.79167 42.2536 5.017C42.7216 5.23367 43.09 5.55 43.3586 5.966C43.6273 6.37333 43.7616 6.84567 43.7616 7.383C43.7616 7.92033 43.6273 8.39267 43.3586 8.8C43.09 9.20733 42.7216 9.52367 42.2536 9.749C41.7856 9.96567 41.257 10.074 40.6676 10.074C40.0783 10.074 39.5496 9.96567 39.0816 9.749C38.6136 9.52367 38.2453 9.20733 37.9766 8.8C37.708 8.39267 37.5736 7.92033 37.5736 7.383ZM42.7216 7.539V7.227C42.7216 6.707 42.531 6.28667 42.1496 5.966C41.7683 5.64533 41.2743 5.485 40.6676 5.485C40.061 5.485 39.567 5.64533 39.1856 5.966C38.8043 6.28667 38.6136 6.707 38.6136 7.227V7.539C38.6136 8.059 38.8043 8.47933 39.1856 8.8C39.567 9.12067 40.061 9.281 40.6676 9.281C41.2743 9.281 41.7683 9.12067 42.1496 8.8C42.531 8.47933 42.7216 8.059 42.7216 7.539ZM37.0276 12.076C38.501 12.076 39.9223 12.0413 41.2916 11.972C42.661 11.9027 43.8223 11.7943 44.7756 11.647L44.8796 12.44C43.9003 12.596 42.7216 12.7173 41.3436 12.804C39.9743 12.882 38.566 12.921 37.1186 12.921L37.0276 12.076ZM66.2042 5.537H57.8972V4.705H66.2042V5.537ZM67.3612 13.168V14H56.7532V13.168H61.5632V10.438H57.7932V9.619H59.8602L59.4182 6.629L60.4192 6.525L60.7702 9.619H63.3312L63.6822 6.525L64.6962 6.629L64.2542 9.619H66.3212V10.438H62.5512V13.168H67.3612ZM78.731 4.003V12.57H77.73V4.003H78.731ZM69.371 7.513C69.371 6.90633 69.4967 6.37767 69.748 5.927C70.008 5.47633 70.3633 5.134 70.814 4.9C71.2647 4.65733 71.7803 4.536 72.361 4.536C72.933 4.536 73.4443 4.65733 73.895 4.9C74.3543 5.134 74.7097 5.47633 74.961 5.927C75.221 6.37767 75.351 6.90633 75.351 7.513C75.351 8.111 75.221 8.63533 74.961 9.086C74.7097 9.53667 74.3543 9.88333 73.895 10.126C73.4443 10.36 72.933 10.477 72.361 10.477C71.7803 10.477 71.2647 10.36 70.814 10.126C70.3633 9.88333 70.008 9.541 69.748 9.099C69.4967 8.64833 69.371 8.11967 69.371 7.513ZM74.298 7.786V7.24C74.298 6.668 74.116 6.213 73.752 5.875C73.3967 5.52833 72.933 5.355 72.361 5.355C71.7803 5.355 71.308 5.52833 70.944 5.875C70.5887 6.22167 70.411 6.67667 70.411 7.24V7.786C70.411 8.34933 70.593 8.80433 70.957 9.151C71.321 9.489 71.789 9.658 72.361 9.658C72.933 9.658 73.3967 9.489 73.752 9.151C74.116 8.80433 74.298 8.34933 74.298 7.786ZM71.503 14.871V11.634H72.504V14.715H78.965V15.534H72.153C71.945 15.534 71.7847 15.4777 71.672 15.365C71.5593 15.2523 71.503 15.0877 71.503 14.871ZM82.7558 4.705H90.3738V5.537H83.7438V7.448H90.1918V8.241H83.7568V10.152H90.5948V10.984H82.7558V4.705ZM81.2348 13.155H91.8428V14H81.2348V13.155ZM101.419 6.031V4.913H95.0746V4.185H102.368V6.746H96.1016V7.851H102.693V8.592H95.1396V6.031H101.419ZM104.084 9.567V10.334H93.4756V9.567H104.084ZM95.1006 15.196V13.233H101.575V12.141H95.0226V11.374H102.498V13.961H96.0236V15.079H102.836V15.859H95.7506C95.5426 15.859 95.3823 15.8027 95.2696 15.69C95.157 15.5773 95.1006 15.4127 95.1006 15.196ZM123.861 8.826V9.658H113.253V8.826H120.975C121.097 8.28867 121.188 7.74267 121.248 7.188L114.436 7.448L114.332 6.655L121.313 6.46C121.339 6.018 121.352 5.55867 121.352 5.082H114.709V4.289H122.327V5.186C122.327 6.47733 122.197 7.69067 121.937 8.826H123.861ZM115.853 15.014H122.6V15.82H115.554C115.346 15.82 115.186 15.7637 115.073 15.651C114.961 15.5383 114.904 15.3737 114.904 15.157V12.999H121.313V11.764H114.826V10.958H122.262V13.766H115.853V15.014ZM135.231 4.003V11.075H134.23V4.003H135.231ZM132.904 10.217C131.474 10.4943 129.728 10.633 127.665 10.633H126.313V7.175H130.343V5.433H126.261V4.627H131.318V7.968H127.275V9.827H127.665C129.658 9.827 131.361 9.697 132.774 9.437L132.904 10.217ZM127.782 11.764H135.231V15.859H134.256V12.596H127.782V11.764ZM148.681 9.489H146.848V15.313H145.86V4.029H146.848V8.657H148.681V9.489ZM143.091 5.485H139.399V4.64H143.091V5.485ZM137.67 7.045H144.625V7.851H142.701V7.929C143.489 8.319 143.884 9.06867 143.884 10.178C143.884 10.7413 143.767 11.231 143.533 11.647C143.299 12.0543 142.974 12.3663 142.558 12.583C142.15 12.7997 141.695 12.908 141.193 12.908C140.69 12.908 140.231 12.7997 139.815 12.583C139.407 12.3663 139.087 12.0543 138.853 11.647C138.619 11.231 138.502 10.7413 138.502 10.178C138.502 9.06867 138.896 8.319 139.685 7.929V7.851H137.67V7.045ZM142.922 9.749C142.922 9.16833 142.766 8.72633 142.454 8.423C142.142 8.111 141.721 7.955 141.193 7.955C140.673 7.955 140.252 8.111 139.932 8.423C139.62 8.735 139.464 9.177 139.464 9.749V10.282C139.464 10.8453 139.624 11.2873 139.945 11.608C140.265 11.92 140.681 12.076 141.193 12.076C141.704 12.076 142.12 11.92 142.441 11.608C142.761 11.2873 142.922 10.8453 142.922 10.282V9.749ZM158.725 9.19H156.333V8.384H158.725V6.616H156.333V5.81H158.725V4.003H159.713V12.57H158.725V9.19ZM155.891 10.269H150.574V4.731H155.891V10.269ZM154.916 5.55H151.549V9.45H154.916V5.55ZM159.947 14.715V15.534H153.135C152.927 15.534 152.766 15.4777 152.654 15.365C152.541 15.2523 152.485 15.0877 152.485 14.871V11.634H153.486V14.715H159.947ZM171.131 6.785C171.131 6.28233 171.274 5.83167 171.56 5.433C171.846 5.03433 172.284 4.718 172.873 4.484C173.463 4.25 174.191 4.133 175.057 4.133C175.924 4.133 176.652 4.25 177.241 4.484C177.831 4.718 178.268 5.03433 178.554 5.433C178.84 5.83167 178.983 6.28233 178.983 6.785C178.983 7.28767 178.84 7.74267 178.554 8.15C178.268 8.54867 177.831 8.865 177.241 9.099C176.652 9.333 175.924 9.45 175.057 9.45C174.191 9.45 173.463 9.333 172.873 9.099C172.284 8.865 171.846 8.54867 171.56 8.15C171.274 7.74267 171.131 7.28767 171.131 6.785ZM172.197 6.915C172.197 7.409 172.436 7.82067 172.912 8.15C173.389 8.47933 174.104 8.644 175.057 8.644C176.011 8.644 176.726 8.47933 177.202 8.15C177.679 7.82067 177.917 7.409 177.917 6.915V6.655C177.917 6.161 177.679 5.74933 177.202 5.42C176.726 5.082 176.011 4.913 175.057 4.913C174.113 4.913 173.398 5.082 172.912 5.42C172.436 5.74933 172.197 6.161 172.197 6.655V6.915ZM180.361 11.504H175.551V15.742H174.563V11.504H169.753V10.672H180.361V11.504ZM189.274 4.939H185.335V4.133H189.274V4.939ZM186.83 6.798H183.229V6.005H191.367V6.798H187.792C187.766 7.24867 187.584 7.63 187.246 7.942L187.324 7.968L187.623 7.773C187.744 7.68633 187.874 7.643 188.013 7.643C188.056 7.643 188.147 7.66033 188.286 7.695L191.809 9.021L191.289 9.736L187.558 8.241C187.445 8.19767 187.333 8.176 187.22 8.176C187.107 8.176 186.99 8.202 186.869 8.254C186.54 8.47933 186.089 8.71333 185.517 8.956C184.945 9.19 184.2 9.45867 183.281 9.762L182.774 9.073C183.771 8.76967 184.551 8.501 185.114 8.267C185.677 8.02433 186.089 7.79033 186.349 7.565C186.618 7.331 186.778 7.07533 186.83 6.798ZM192.602 10.425V11.257H181.994V10.425H192.602ZM183.463 12.362H191.029V15.82H190.054V13.168H183.463V12.362ZM211.444 4.003V15.287H210.456V4.003H211.444ZM208.974 11.335L209.104 12.128C207.76 12.388 206.053 12.518 203.982 12.518H202.578V8.163H206.673V5.693H202.526V4.861H207.661V8.982H203.553V11.712H203.969C205.936 11.712 207.604 11.5863 208.974 11.335ZM215.104 10.503L214.545 9.736C215.724 9.12933 216.625 8.592 217.249 8.124C217.882 7.64733 218.32 7.175 218.562 6.707C218.805 6.23033 218.926 5.68433 218.926 5.069V4.627H219.94V5.095C219.94 5.59767 219.884 6.04833 219.771 6.447C219.667 6.837 219.49 7.20533 219.238 7.552L219.303 7.591L219.628 7.344C219.741 7.25733 219.854 7.214 219.966 7.214C220.079 7.214 220.192 7.253 220.304 7.331L224.087 9.684L223.515 10.464L219.602 7.942C219.49 7.864 219.368 7.825 219.238 7.825C219.126 7.825 219.013 7.86833 218.9 7.955C218.545 8.33633 218.064 8.73067 217.457 9.138C216.851 9.53667 216.066 9.99167 215.104 10.503ZM224.62 13.155V14H214.012V13.155H224.62ZM227.774 4.705H235.392V5.537H228.762V7.448H235.21V8.241H228.775V10.152H235.613V10.984H227.774V4.705ZM226.253 13.155H236.861V14H226.253V13.155ZM17.33 25.16H13.794V24.367H21.802V25.16H18.305C18.2877 25.7667 18.1013 26.278 17.746 26.694L17.811 26.72L18.084 26.525C18.2053 26.447 18.318 26.408 18.422 26.408C18.5087 26.408 18.6127 26.434 18.734 26.486L22.283 28.137L21.763 28.852L18.045 27.058C17.9323 26.9973 17.8197 26.967 17.707 26.967C17.5857 26.967 17.4773 26.9973 17.382 27.058C17.044 27.344 16.589 27.6343 16.017 27.929C15.445 28.215 14.7127 28.5313 13.82 28.878L13.313 28.176C14.3443 27.786 15.1417 27.4393 15.705 27.136C16.2683 26.824 16.6713 26.5163 16.914 26.213C17.1653 25.9097 17.304 25.5587 17.33 25.16ZM18.292 30.542V31.582C19.384 31.6427 20.216 31.868 20.788 32.258C21.36 32.648 21.646 33.1507 21.646 33.766C21.646 34.1993 21.4987 34.5807 21.204 34.91C20.918 35.248 20.4847 35.5123 19.904 35.703C19.332 35.8937 18.63 35.989 17.798 35.989C16.966 35.989 16.2597 35.8937 15.679 35.703C15.107 35.5123 14.6737 35.248 14.379 34.91C14.093 34.5807 13.95 34.1993 13.95 33.766C13.95 33.1507 14.236 32.648 14.808 32.258C15.38 31.868 16.212 31.6427 17.304 31.582V30.542H12.494V29.71H23.102V30.542H18.292ZM17.798 32.336C16.8533 32.336 16.1427 32.466 15.666 32.726C15.198 32.986 14.964 33.3067 14.964 33.688V33.87C14.964 34.2427 15.198 34.559 15.666 34.819C16.1427 35.079 16.8533 35.209 17.798 35.209C18.7427 35.209 19.449 35.079 19.917 34.819C20.385 34.559 20.619 34.2427 20.619 33.87V33.688C20.619 33.298 20.385 32.9773 19.917 32.726C19.4577 32.466 18.7513 32.336 17.798 32.336ZM38.4801 24.003V35.287H37.5181V29.398H35.8281V34.975H34.8791V24.198H35.8281V28.579H37.5181V24.003H38.4801ZM33.0851 25.693H29.7441V24.887H33.0851V25.693ZM28.3791 27.149H34.2551V27.929H32.7081V27.994C33.3928 28.3667 33.7351 29.073 33.7351 30.113C33.7351 30.9277 33.5141 31.5647 33.0721 32.024C32.6388 32.4747 32.0668 32.7 31.3561 32.7C30.6541 32.7 30.0821 32.4747 29.6401 32.024C29.2068 31.5647 28.9901 30.9277 28.9901 30.113C28.9901 29.073 29.3281 28.3667 30.0041 27.994V27.929H28.3791V27.149ZM32.7991 29.645C32.7991 29.125 32.6691 28.7263 32.4091 28.449C32.1491 28.1717 31.7981 28.033 31.3561 28.033C30.9141 28.033 30.5631 28.1717 30.3031 28.449C30.0518 28.7263 29.9261 29.125 29.9261 29.645V30.269C29.9261 30.7803 30.0561 31.179 30.3161 31.465C30.5848 31.751 30.9314 31.894 31.3561 31.894C31.7808 31.894 32.1274 31.751 32.3961 31.465C32.6648 31.179 32.7991 30.7803 32.7991 30.269V29.645ZM51.6569 26.915V27.747H49.8499V30.724H48.8619V24.003H49.8499V26.915H51.6569ZM47.5489 29.476C46.9249 29.606 46.1709 29.71 45.2869 29.788C44.4116 29.8573 43.4756 29.892 42.4789 29.892H41.1529V24.614H46.3009V25.446H42.1409V29.086H42.4919C43.4279 29.086 44.3249 29.0513 45.1829 28.982C46.0496 28.9127 46.7949 28.8173 47.4189 28.696L47.5489 29.476ZM49.9409 33.428C49.9409 33.9047 49.8066 34.3293 49.5379 34.702C49.2692 35.0833 48.8662 35.3823 48.3289 35.599C47.7916 35.8157 47.1329 35.924 46.3529 35.924C45.5816 35.924 44.9229 35.8157 44.3769 35.599C43.8396 35.3823 43.4322 35.0833 43.1549 34.702C42.8862 34.3293 42.7519 33.9047 42.7519 33.428C42.7519 32.9513 42.8862 32.5267 43.1549 32.154C43.4322 31.7727 43.8396 31.4737 44.3769 31.257C44.9229 31.0403 45.5816 30.932 46.3529 30.932C47.1329 30.932 47.7916 31.0403 48.3289 31.257C48.8662 31.4737 49.2692 31.7727 49.5379 32.154C49.8066 32.5267 49.9409 32.9513 49.9409 33.428ZM48.9009 33.324C48.9009 32.8733 48.6886 32.4963 48.2639 32.193C47.8479 31.8897 47.2109 31.738 46.3529 31.738C45.5036 31.738 44.8666 31.894 44.4419 32.206C44.0172 32.5093 43.8049 32.882 43.8049 33.324V33.545C43.8049 33.987 44.0172 34.3597 44.4419 34.663C44.8666 34.975 45.5036 35.131 46.3529 35.131C47.2109 35.131 47.8479 34.975 48.2639 34.663C48.6886 34.3597 48.9009 33.987 48.9009 33.545V33.324ZM63.8847 29.489H62.0517V35.313H61.0637V24.029H62.0517V28.657H63.8847V29.489ZM58.2947 25.485H54.6027V24.64H58.2947V25.485ZM52.8737 27.045H59.8287V27.851H57.9047V27.929C58.6934 28.319 59.0877 29.0687 59.0877 30.178C59.0877 30.7413 58.9707 31.231 58.7367 31.647C58.5027 32.0543 58.1777 32.3663 57.7617 32.583C57.3544 32.7997 56.8994 32.908 56.3967 32.908C55.8941 32.908 55.4347 32.7997 55.0187 32.583C54.6114 32.3663 54.2907 32.0543 54.0567 31.647C53.8227 31.231 53.7057 30.7413 53.7057 30.178C53.7057 29.0687 54.1001 28.319 54.8887 27.929V27.851H52.8737V27.045ZM58.1257 29.749C58.1257 29.1683 57.9697 28.7263 57.6577 28.423C57.3457 28.111 56.9254 27.955 56.3967 27.955C55.8767 27.955 55.4564 28.111 55.1357 28.423C54.8237 28.735 54.6677 29.177 54.6677 29.749V30.282C54.6677 30.8453 54.8281 31.2873 55.1487 31.608C55.4694 31.92 55.8854 32.076 56.3967 32.076C56.9081 32.076 57.3241 31.92 57.6447 31.608C57.9654 31.2873 58.1257 30.8453 58.1257 30.282V29.749ZM74.2795 28.501H66.8045V24.419H67.7795V27.682H74.2795V28.501ZM75.7875 29.944V30.789H65.1795V29.944H75.7875ZM67.6885 34.689H74.4225V35.521H67.3505C67.1425 35.521 66.9822 35.4647 66.8695 35.352C66.7569 35.2393 66.7005 35.0747 66.7005 34.858V32.011H67.6885V34.689ZM89.9566 30.633V24.003H90.9316V33.103H89.9566V31.387H87.1096V30.633H89.9566ZM84.3276 29.58C83.2183 29.6233 82.2043 29.645 81.2856 29.645L81.1946 28.839C83.0233 28.839 84.7306 28.787 86.3166 28.683C86.568 27.721 86.698 26.7157 86.7066 25.667V25.42H82.1566V24.627H87.6426V25.511C87.6426 26.499 87.5256 27.5303 87.2916 28.605C87.8896 28.553 88.4313 28.488 88.9166 28.41L89.0076 29.177C87.8896 29.3417 86.6503 29.463 85.2896 29.541V31.998H84.3276V29.58ZM91.1656 34.728V35.534H84.2236C84.0156 35.534 83.8553 35.4777 83.7426 35.365C83.63 35.2523 83.5736 35.0877 83.5736 34.871V32.557H84.5486V34.728H91.1656ZM103.12 24.003V30.776H102.132V28.956H99.8185V28.15H102.132V26.486H99.8185V25.68H102.132V24.003H103.12ZM96.6335 30.217C96.0615 30.217 95.5545 30.1 95.1125 29.866C94.6705 29.632 94.3238 29.2983 94.0725 28.865C93.8211 28.4317 93.6955 27.9203 93.6955 27.331C93.6955 26.7417 93.8211 26.2303 94.0725 25.797C94.3238 25.3637 94.6705 25.0343 95.1125 24.809C95.5545 24.575 96.0615 24.458 96.6335 24.458C97.2055 24.458 97.7125 24.575 98.1545 24.809C98.5965 25.0343 98.9431 25.3637 99.1945 25.797C99.4458 26.2303 99.5715 26.7417 99.5715 27.331C99.5715 27.9203 99.4458 28.4317 99.1945 28.865C98.9431 29.2983 98.5965 29.632 98.1545 29.866C97.7125 30.1 97.2055 30.217 96.6335 30.217ZM96.6335 29.424C97.1968 29.424 97.6518 29.2593 97.9985 28.93C98.3538 28.592 98.5315 28.1457 98.5315 27.591V27.084C98.5315 26.5293 98.3581 26.0873 98.0115 25.758C97.6648 25.42 97.2055 25.251 96.6335 25.251C96.0615 25.251 95.5978 25.42 95.2425 25.758C94.8958 26.0873 94.7225 26.5293 94.7225 27.084V27.591C94.7225 28.137 94.8958 28.579 95.2425 28.917C95.5978 29.255 96.0615 29.424 96.6335 29.424ZM95.6715 31.478H103.12V35.859H102.145V32.31H95.6715V31.478ZM114.373 28.514H111.825V27.734H114.373V26.226H111.825V25.446H114.373V24.003H115.361V29.957H114.373V28.514ZM111.422 29.541H106.196V24.406H107.132V26.148H110.486V24.393H111.422V29.541ZM110.486 26.941H107.132V28.748H110.486V26.941ZM115.673 34.975V35.82H108.77C108.562 35.82 108.402 35.7637 108.289 35.651C108.177 35.5383 108.12 35.3737 108.12 35.157V32.817H114.36V31.504H108.042V30.659H115.361V33.649H109.121V34.975H115.673ZM131.61 24.003V35.287H130.648V29.229H128.932V34.975H127.983V24.198H128.932V28.41H130.648V24.003H131.61ZM122.029 25.134H126.644V32.115H122.029V25.134ZM122.991 31.296H125.682V25.953H122.991V31.296ZM144.787 26.915V27.747H142.98V30.789H141.992V24.003H142.98V26.915H144.787ZM134.608 30.386L133.88 29.762C134.608 29.19 135.172 28.696 135.57 28.28C135.969 27.8553 136.255 27.4393 136.428 27.032C136.61 26.6247 136.701 26.161 136.701 25.641V25.524H134.218V24.705H140.159V25.524H137.689V25.693C137.689 26.4037 137.538 27.0407 137.234 27.604L137.312 27.656L137.507 27.5C137.603 27.4307 137.694 27.396 137.78 27.396C137.884 27.396 137.988 27.4393 138.092 27.526L140.523 29.541L139.795 30.178L137.325 28.072C137.265 28.02 137.2 27.994 137.13 27.994C137.078 27.994 137.022 28.0157 136.961 28.059C136.719 28.397 136.411 28.748 136.038 29.112C135.666 29.476 135.189 29.9007 134.608 30.386ZM143.071 33.48C143.071 33.948 142.937 34.364 142.668 34.728C142.4 35.1007 141.997 35.391 141.459 35.599C140.922 35.8157 140.263 35.924 139.483 35.924C138.712 35.924 138.053 35.8157 137.507 35.599C136.97 35.391 136.563 35.1007 136.285 34.728C136.017 34.364 135.882 33.948 135.882 33.48C135.882 33.012 136.017 32.596 136.285 32.232C136.563 31.8593 136.97 31.569 137.507 31.361C138.053 31.1443 138.712 31.036 139.483 31.036C140.263 31.036 140.922 31.1443 141.459 31.361C141.997 31.569 142.4 31.8593 142.668 32.232C142.937 32.596 143.071 33.012 143.071 33.48ZM142.044 33.376C142.044 32.934 141.832 32.5657 141.407 32.271C140.983 31.9677 140.341 31.816 139.483 31.816C138.625 31.816 137.984 31.9677 137.559 32.271C137.135 32.5657 136.922 32.934 136.922 33.376V33.597C136.922 34.0303 137.135 34.3943 137.559 34.689C137.984 34.9923 138.625 35.144 139.483 35.144C140.341 35.144 140.983 34.9923 141.407 34.689C141.832 34.3943 142.044 34.0303 142.044 33.597V33.376ZM154.818 28.826H152.426V28.033H154.818V26.408H152.426V25.615H154.818V24.003H155.806V30.724H154.818V28.826ZM151.984 29.749H146.667V24.575H151.984V29.749ZM151.009 25.381H147.642V28.943H151.009V25.381ZM155.871 33.428C155.871 33.9047 155.732 34.3293 155.455 34.702C155.186 35.0833 154.779 35.3823 154.233 35.599C153.687 35.8157 153.02 35.924 152.231 35.924C151.442 35.924 150.771 35.8157 150.216 35.599C149.67 35.3823 149.258 35.0833 148.981 34.702C148.712 34.3293 148.578 33.9047 148.578 33.428C148.578 32.9513 148.712 32.5267 148.981 32.154C149.258 31.7727 149.67 31.4737 150.216 31.257C150.771 31.0403 151.442 30.932 152.231 30.932C153.02 30.932 153.687 31.0403 154.233 31.257C154.779 31.4737 155.186 31.7727 155.455 32.154C155.732 32.5267 155.871 32.9513 155.871 33.428ZM154.818 33.324C154.818 32.8733 154.601 32.4963 154.168 32.193C153.743 31.8897 153.098 31.738 152.231 31.738C151.364 31.738 150.714 31.894 150.281 32.206C149.848 32.5093 149.631 32.882 149.631 33.324V33.545C149.631 33.987 149.848 34.3597 150.281 34.663C150.714 34.975 151.364 35.131 152.231 35.131C153.098 35.131 153.743 34.975 154.168 34.663C154.601 34.3597 154.818 33.987 154.818 33.545V33.324ZM166.994 24.003H167.982V35.287H166.994V24.003ZM158.648 28.566C158.648 27.3007 158.925 26.343 159.48 25.693C160.043 25.043 160.784 24.718 161.703 24.718C162.613 24.718 163.345 25.043 163.9 25.693C164.463 26.343 164.745 27.3007 164.745 28.566C164.745 29.4153 164.615 30.1303 164.355 30.711C164.095 31.283 163.735 31.712 163.276 31.998C162.816 32.2753 162.292 32.414 161.703 32.414C160.784 32.414 160.043 32.089 159.48 31.439C158.925 30.789 158.648 29.8313 158.648 28.566ZM163.692 29.073V28.059C163.692 27.253 163.505 26.6333 163.133 26.2C162.769 25.7667 162.292 25.55 161.703 25.55C161.105 25.55 160.619 25.7667 160.247 26.2C159.883 26.6247 159.701 27.2443 159.701 28.059V29.073C159.701 29.8877 159.883 30.5117 160.247 30.945C160.619 31.3697 161.105 31.582 161.703 31.582C162.292 31.582 162.769 31.3653 163.133 30.932C163.505 30.4987 163.692 29.879 163.692 29.073ZM185.219 27.344V28.15H183.503V30.919H182.528V24.003H183.503V27.344H185.219ZM179.525 24.783H176.106V24.029H179.525V24.783ZM181.93 30.36C180.959 30.516 179.794 30.6373 178.433 30.724C177.081 30.802 175.681 30.841 174.234 30.841L174.169 30.087C175.339 30.087 176.375 30.0697 177.276 30.035V29.203C176.6 29.151 176.067 28.9993 175.677 28.748C175.287 28.4967 175.092 28.176 175.092 27.786C175.092 27.2573 175.4 26.876 176.015 26.642V26.551H174.312V25.836H181.085V26.551H179.447V26.642C180.071 26.876 180.383 27.2573 180.383 27.786C180.383 28.1673 180.188 28.488 179.798 28.748C179.408 28.9993 178.879 29.151 178.212 29.203V29.996C179.711 29.9093 180.925 29.801 181.852 29.671L181.93 30.36ZM177.523 28.475H177.952C178.42 28.475 178.797 28.397 179.083 28.241C179.369 28.0763 179.512 27.838 179.512 27.526C179.512 27.214 179.369 26.98 179.083 26.824C178.797 26.6593 178.42 26.577 177.952 26.577H177.523C177.055 26.577 176.678 26.6593 176.392 26.824C176.106 26.98 175.963 27.214 175.963 27.526C175.963 27.838 176.106 28.0763 176.392 28.241C176.678 28.397 177.055 28.475 177.523 28.475ZM177.133 35.144H183.815V35.898H176.86C176.652 35.898 176.492 35.8417 176.379 35.729C176.266 35.6163 176.21 35.4517 176.21 35.235V33.35H182.58V32.297H176.132V31.556H183.503V34.091H177.133V35.144ZM195.263 27.292H192.78V26.46H195.263V24.003H196.251V30.724H195.263V27.292ZM189.972 27.682C189.911 27.682 189.859 27.708 189.816 27.76C189.582 28.15 189.274 28.553 188.893 28.969C188.52 29.3763 188.026 29.866 187.411 30.438L186.683 29.788C187.419 29.1293 187.987 28.566 188.386 28.098C188.784 27.6213 189.07 27.1533 189.244 26.694C189.426 26.226 189.517 25.6973 189.517 25.108V24.393H190.505V25.16C190.505 25.966 190.357 26.694 190.063 27.344L190.115 27.37L190.336 27.188C190.431 27.11 190.526 27.071 190.622 27.071C190.717 27.071 190.804 27.11 190.882 27.188L193.365 29.489L192.65 30.178L190.141 27.76C190.089 27.708 190.032 27.682 189.972 27.682ZM196.316 33.428C196.316 33.9047 196.177 34.3293 195.9 34.702C195.631 35.0833 195.224 35.3823 194.678 35.599C194.132 35.8157 193.464 35.924 192.676 35.924C191.887 35.924 191.215 35.8157 190.661 35.599C190.115 35.3823 189.703 35.0833 189.426 34.702C189.157 34.3293 189.023 33.9047 189.023 33.428C189.023 32.9513 189.157 32.5267 189.426 32.154C189.703 31.7727 190.115 31.4737 190.661 31.257C191.215 31.0403 191.887 30.932 192.676 30.932C193.464 30.932 194.132 31.0403 194.678 31.257C195.224 31.4737 195.631 31.7727 195.9 32.154C196.177 32.5267 196.316 32.9513 196.316 33.428ZM195.263 33.324C195.263 32.8733 195.046 32.4963 194.613 32.193C194.188 31.8897 193.542 31.738 192.676 31.738C191.809 31.738 191.159 31.894 190.726 32.206C190.292 32.5093 190.076 32.882 190.076 33.324V33.545C190.076 33.987 190.292 34.3597 190.726 34.663C191.159 34.975 191.809 35.131 192.676 35.131C193.542 35.131 194.188 34.975 194.613 34.663C195.046 34.3597 195.263 33.987 195.263 33.545V33.324ZM209.701 29.606H207.933V35.287H206.958V24.003H207.933V28.774H209.701V29.606ZM204.033 25.329H200.562V24.523H204.033V25.329ZM206.035 32.232L206.126 33.025C205.172 33.181 204.033 33.3023 202.707 33.389C201.389 33.467 200.029 33.506 198.625 33.506L198.534 32.674C199.504 32.674 200.575 32.6523 201.745 32.609V31.062C201.06 30.9927 200.518 30.7847 200.12 30.438C199.721 30.0827 199.522 29.6493 199.522 29.138C199.522 28.7653 199.613 28.4447 199.795 28.176C199.985 27.8987 200.271 27.682 200.653 27.526V27.448H198.716V26.668H205.71V27.448H203.838V27.526C204.21 27.682 204.492 27.8987 204.683 28.176C204.873 28.4533 204.969 28.774 204.969 29.138C204.969 29.658 204.765 30.0957 204.358 30.451C203.95 30.7977 203.396 31.0013 202.694 31.062V32.557C204.046 32.4877 205.159 32.3793 206.035 32.232ZM202.109 30.282H202.382C202.876 30.282 203.279 30.165 203.591 29.931C203.903 29.6883 204.059 29.3503 204.059 28.917C204.059 28.4837 203.903 28.15 203.591 27.916C203.279 27.6733 202.876 27.552 202.382 27.552H202.109C201.615 27.552 201.212 27.6733 200.9 27.916C200.588 28.15 200.432 28.4837 200.432 28.917C200.432 29.3503 200.588 29.6883 200.9 29.931C201.212 30.165 201.615 30.282 202.109 30.282ZM224.442 30.997H223.454V24.003H224.442V30.997ZM222.583 30.269C221.595 30.425 220.416 30.542 219.047 30.62C217.686 30.698 216.291 30.737 214.861 30.737L214.77 29.918C215.966 29.918 217.027 29.9007 217.955 29.866V28.397H215.758V24.536H221.205V25.329H216.72V27.604H221.322V28.397H218.917V29.814C220.321 29.7447 221.512 29.6407 222.492 29.502L222.583 30.269ZM224.455 31.647V35.755H217.812C217.604 35.755 217.443 35.6987 217.331 35.586C217.218 35.4733 217.162 35.3087 217.162 35.092V31.647H224.455ZM223.454 32.466H218.163V34.936H223.454V32.466Z" fill="white"/>
<rect y="4" width="2" height="10" fill="white"/>
</svg>
