<svg width="574" height="300" viewBox="0 0 574 300" fill="none" xmlns="http://www.w3.org/2000/svg">
<path d="M-9.5 0.5H573.131L399.362 299.5H-9.5V0.5Z" stroke="#F8D554"/>
<path d="M40.8267 62H38.4972L43.7315 47.4545H46.267L51.5014 62H49.1719L45.0597 50.0966H44.946L40.8267 62ZM41.2173 56.304H48.7741V58.1506H41.2173V56.304ZM62.818 51.2756C62.7422 50.6032 62.4297 50.0824 61.8805 49.7131C61.3312 49.339 60.6399 49.152 59.8066 49.152C59.21 49.152 58.6939 49.2467 58.2583 49.4361C57.8227 49.6207 57.4842 49.8764 57.2427 50.2031C57.0059 50.5251 56.8876 50.892 56.8876 51.304C56.8876 51.6496 56.9681 51.9479 57.129 52.1989C57.2948 52.4498 57.5102 52.6605 57.7754 52.831C58.0452 52.9967 58.3341 53.1364 58.6418 53.25C58.9496 53.3589 59.2455 53.4489 59.5296 53.5199L60.9501 53.8892C61.4141 54.0028 61.8899 54.1567 62.3776 54.3509C62.8653 54.545 63.3175 54.8007 63.7342 55.1179C64.1508 55.4351 64.487 55.8281 64.7427 56.2969C65.0031 56.7656 65.1333 57.3267 65.1333 57.9801C65.1333 58.804 64.9202 59.5355 64.4941 60.1747C64.0727 60.8139 63.4595 61.3182 62.6546 61.6875C61.8544 62.0568 60.8862 62.2415 59.7498 62.2415C58.6608 62.2415 57.7185 62.0687 56.9231 61.723C56.1276 61.3774 55.505 60.8873 55.0552 60.2528C54.6054 59.6136 54.3568 58.8561 54.3094 57.9801H56.5112C56.5538 58.5057 56.7242 58.9437 57.0225 59.294C57.3255 59.6397 57.7114 59.8977 58.1802 60.0682C58.6537 60.2339 59.1721 60.3168 59.7356 60.3168C60.3558 60.3168 60.9075 60.2197 61.3904 60.0256C61.8781 59.8267 62.2616 59.5521 62.541 59.2017C62.8203 58.8466 62.96 58.4323 62.96 57.9588C62.96 57.5279 62.8369 57.1752 62.5907 56.9006C62.3492 56.6259 62.0201 56.3987 61.6035 56.2188C61.1915 56.0388 60.7252 55.8802 60.2043 55.7429L58.4856 55.2741C57.3208 54.9569 56.3975 54.4905 55.7157 53.875C55.0386 53.2595 54.7001 52.4451 54.7001 51.4318C54.7001 50.5937 54.9273 49.8622 55.3819 49.2372C55.8364 48.6122 56.452 48.1269 57.2285 47.7812C58.005 47.4309 58.8809 47.2557 59.8563 47.2557C60.8412 47.2557 61.71 47.4285 62.4629 47.7741C63.2204 48.1198 63.817 48.5956 64.2526 49.2017C64.6882 49.803 64.9155 50.4943 64.9344 51.2756H62.818ZM78.0434 47.4545V62H75.8488V47.4545H78.0434ZM90.5727 51.2756C90.4969 50.6032 90.1844 50.0824 89.6352 49.7131C89.0859 49.339 88.3946 49.152 87.5613 49.152C86.9647 49.152 86.4486 49.2467 86.013 49.4361C85.5774 49.6207 85.2388 49.8764 84.9974 50.2031C84.7606 50.5251 84.6423 50.892 84.6423 51.304C84.6423 51.6496 84.7227 51.9479 84.8837 52.1989C85.0495 52.4498 85.2649 52.6605 85.53 52.831C85.7999 52.9967 86.0888 53.1364 86.3965 53.25C86.7043 53.3589 87.0002 53.4489 87.2843 53.5199L88.7048 53.8892C89.1688 54.0028 89.6446 54.1567 90.1323 54.3509C90.62 54.545 91.0722 54.8007 91.4888 55.1179C91.9055 55.4351 92.2417 55.8281 92.4974 56.2969C92.7578 56.7656 92.888 57.3267 92.888 57.9801C92.888 58.804 92.6749 59.5355 92.2488 60.1747C91.8274 60.8139 91.2142 61.3182 90.4093 61.6875C89.6091 62.0568 88.6408 62.2415 87.5045 62.2415C86.4155 62.2415 85.4732 62.0687 84.6778 61.723C83.8823 61.3774 83.2597 60.8873 82.8099 60.2528C82.3601 59.6136 82.1115 58.8561 82.0641 57.9801H84.2658C84.3085 58.5057 84.4789 58.9437 84.7772 59.294C85.0802 59.6397 85.4661 59.8977 85.9349 60.0682C86.4084 60.2339 86.9268 60.3168 87.4903 60.3168C88.1105 60.3168 88.6621 60.2197 89.1451 60.0256C89.6328 59.8267 90.0163 59.5521 90.2957 59.2017C90.575 58.8466 90.7147 58.4323 90.7147 57.9588C90.7147 57.5279 90.5916 57.1752 90.3454 56.9006C90.1039 56.6259 89.7748 56.3987 89.3582 56.2188C88.9462 56.0388 88.4799 55.8802 87.959 55.7429L86.2403 55.2741C85.0755 54.9569 84.1522 54.4905 83.4704 53.875C82.7933 53.2595 82.4548 52.4451 82.4548 51.4318C82.4548 50.5937 82.682 49.8622 83.1366 49.2372C83.5911 48.6122 84.2067 48.1269 84.9832 47.7812C85.7597 47.4309 86.6356 47.2557 87.611 47.2557C88.5959 47.2557 89.4647 47.4285 90.2175 47.7741C90.9751 48.1198 91.5717 48.5956 92.0073 49.2017C92.4429 49.803 92.6702 50.4943 92.6891 51.2756H90.5727Z" fill="#F8D554"/>
<path d="M49.73 87.465V100.485H48.59V87.465H49.73ZM46.715 95.685L46.865 96.6C45.315 96.91 43.385 97.065 41.075 97.065H39.47V88.53H45.515V89.49H40.625V96.105H41.045C43.335 96.105 45.225 95.965 46.715 95.685ZM65.624 93.555H63.464V100.515H62.324V87.495H63.464V92.595H65.624V93.555ZM57.494 92.97C57.614 92.97 57.729 93.025 57.839 93.135L60.764 96.6L59.909 97.335L56.969 93.75C56.909 93.69 56.844 93.66 56.774 93.66C56.704 93.66 56.654 93.69 56.624 93.75C56.354 94.29 55.999 94.845 55.559 95.415C55.129 95.975 54.539 96.68 53.789 97.53L52.949 96.825C53.819 95.905 54.484 95.11 54.944 94.44C55.414 93.77 55.754 93.105 55.964 92.445C56.174 91.775 56.279 91.015 56.279 90.165V89.595H53.339V88.635H60.329V89.595H57.404V90.195C57.404 91.315 57.224 92.32 56.864 93.21L56.939 93.27L57.179 93.09C57.279 93.01 57.384 92.97 57.494 92.97ZM78.653 87.465V97.35H77.498V87.465H78.653ZM67.853 91.515C67.853 90.815 67.998 90.205 68.288 89.685C68.588 89.165 68.998 88.77 69.518 88.5C70.038 88.22 70.633 88.08 71.303 88.08C71.963 88.08 72.553 88.22 73.073 88.5C73.603 88.77 74.013 89.165 74.303 89.685C74.603 90.205 74.753 90.815 74.753 91.515C74.753 92.205 74.603 92.81 74.303 93.33C74.013 93.85 73.603 94.25 73.073 94.53C72.553 94.8 71.963 94.935 71.303 94.935C70.633 94.935 70.038 94.8 69.518 94.53C68.998 94.25 68.588 93.855 68.288 93.345C67.998 92.825 67.853 92.215 67.853 91.515ZM73.538 91.83V91.2C73.538 90.54 73.328 90.015 72.908 89.625C72.498 89.225 71.963 89.025 71.303 89.025C70.633 89.025 70.088 89.225 69.668 89.625C69.258 90.025 69.053 90.55 69.053 91.2V91.83C69.053 92.48 69.263 93.005 69.683 93.405C70.103 93.795 70.643 93.99 71.303 93.99C71.963 93.99 72.498 93.795 72.908 93.405C73.328 93.005 73.538 92.48 73.538 91.83ZM70.313 100.005V96.27H71.468V99.825H78.923V100.77H71.063C70.823 100.77 70.638 100.705 70.508 100.575C70.378 100.445 70.313 100.255 70.313 100.005ZM88.282 87.795H96.802V88.695H89.392V90.21H96.577V91.08H89.407V92.595H97.042V93.51H88.282V87.795ZM86.437 94.83H98.677V95.79H86.437V94.83ZM96.862 101.1H95.737V98.04H88.132V97.11H96.862V101.1ZM112.426 87.465V95.295H111.316V91.83H109.306V95.13H108.211V87.675H109.306V90.9H111.316V87.465H112.426ZM104.146 92.115C104.066 92.115 104.006 92.145 103.966 92.205C103.736 92.635 103.436 93.08 103.066 93.54C102.696 93.99 102.221 94.51 101.641 95.1L100.846 94.41C101.586 93.64 102.146 92.985 102.526 92.445C102.916 91.895 103.191 91.36 103.351 90.84C103.521 90.32 103.606 89.72 103.606 89.04V88.215H104.701V89.07C104.701 90.01 104.556 90.845 104.266 91.575L104.326 91.605L104.506 91.455C104.616 91.375 104.716 91.335 104.806 91.335C104.906 91.335 105.006 91.385 105.106 91.485L107.506 94.095L106.726 94.845L104.341 92.205C104.281 92.145 104.216 92.115 104.146 92.115ZM103.606 96.12H112.426V101.145H111.301V97.095H103.606V96.12ZM125.305 87.465H126.445V100.485H125.305V87.465ZM115.675 92.73C115.675 91.27 115.995 90.165 116.635 89.415C117.285 88.665 118.14 88.29 119.2 88.29C120.25 88.29 121.095 88.665 121.735 89.415C122.385 90.165 122.71 91.27 122.71 92.73C122.71 93.71 122.56 94.535 122.26 95.205C121.96 95.865 121.545 96.36 121.015 96.69C120.485 97.01 119.88 97.17 119.2 97.17C118.14 97.17 117.285 96.795 116.635 96.045C115.995 95.295 115.675 94.19 115.675 92.73ZM121.495 93.315V92.145C121.495 91.215 121.28 90.5 120.85 90C120.43 89.5 119.88 89.25 119.2 89.25C118.51 89.25 117.95 89.5 117.52 90C117.1 90.49 116.89 91.205 116.89 92.145V93.315C116.89 94.255 117.1 94.975 117.52 95.475C117.95 95.965 118.51 96.21 119.2 96.21C119.88 96.21 120.43 95.96 120.85 95.46C121.28 94.96 121.495 94.245 121.495 93.315ZM138.114 94.335C137.464 94.335 136.879 94.205 136.359 93.945C135.839 93.675 135.434 93.295 135.144 92.805C134.854 92.315 134.709 91.745 134.709 91.095C134.709 90.435 134.854 89.86 135.144 89.37C135.434 88.88 135.834 88.505 136.344 88.245C136.864 87.985 137.454 87.855 138.114 87.855C139.024 87.855 139.789 88.1 140.409 88.59C141.029 89.08 141.394 89.745 141.504 90.585H144.399V87.465H145.539V94.695H144.399V91.53H141.504C141.404 92.39 141.044 93.075 140.424 93.585C139.804 94.085 139.034 94.335 138.114 94.335ZM138.114 93.42C138.774 93.42 139.309 93.23 139.719 92.85C140.129 92.47 140.334 91.97 140.334 91.35V90.84C140.334 90.22 140.129 89.72 139.719 89.34C139.309 88.96 138.774 88.77 138.114 88.77C137.454 88.77 136.919 88.96 136.509 89.34C136.109 89.71 135.909 90.21 135.909 90.84V91.35C135.909 91.98 136.109 92.485 136.509 92.865C136.919 93.235 137.454 93.42 138.114 93.42ZM140.019 95.46H141.039V101.025H137.004C136.764 101.025 136.579 100.96 136.449 100.83C136.319 100.7 136.254 100.51 136.254 100.26V95.46H137.274V97.32H140.019V95.46ZM146.889 100.44L146.109 101.13L144.114 98.85C144.054 98.79 143.999 98.76 143.949 98.76C143.899 98.76 143.859 98.775 143.829 98.805C143.629 99.145 143.369 99.505 143.049 99.885C142.739 100.275 142.334 100.74 141.834 101.28L141.069 100.605C141.719 99.915 142.209 99.34 142.539 98.88C142.879 98.42 143.119 97.965 143.259 97.515C143.409 97.065 143.484 96.535 143.484 95.925V95.46H144.519V95.97C144.519 96.87 144.374 97.645 144.084 98.295L144.129 98.34L144.279 98.205C144.389 98.125 144.489 98.085 144.579 98.085C144.679 98.085 144.774 98.13 144.864 98.22L146.889 100.44ZM140.019 98.175H137.274V100.155H140.019V98.175ZM159.903 87.465V100.485H158.778V93.105H155.988C155.938 94.445 155.598 95.46 154.968 96.15C154.338 96.83 153.528 97.17 152.538 97.17C151.498 97.17 150.658 96.795 150.018 96.045C149.388 95.295 149.073 94.19 149.073 92.73C149.073 91.26 149.388 90.155 150.018 89.415C150.648 88.665 151.488 88.29 152.538 88.29C153.508 88.29 154.303 88.615 154.923 89.265C155.543 89.915 155.898 90.875 155.988 92.145H158.778V87.465H159.903ZM154.803 92.13C154.803 91.2 154.593 90.49 154.173 90C153.763 89.5 153.218 89.25 152.538 89.25C151.858 89.25 151.313 89.5 150.903 90C150.493 90.49 150.288 91.2 150.288 92.13V93.33C150.288 94.26 150.493 94.975 150.903 95.475C151.313 95.965 151.858 96.21 152.538 96.21C153.218 96.21 153.763 95.965 154.173 95.475C154.593 94.975 154.803 94.26 154.803 93.33V92.13ZM178.982 87.465V94.98H177.827V87.465H178.982ZM171.812 91.725C171.742 91.725 171.677 91.76 171.617 91.83C171.357 92.26 171.017 92.7 170.597 93.15C170.177 93.59 169.592 94.155 168.842 94.845L167.987 94.11C168.847 93.35 169.507 92.7 169.967 92.16C170.427 91.62 170.757 91.085 170.957 90.555C171.167 90.025 171.272 89.425 171.272 88.755V87.945H172.427V88.83C172.427 89.76 172.252 90.59 171.902 91.32L171.977 91.365L172.217 91.155C172.327 91.065 172.437 91.02 172.547 91.02C172.657 91.02 172.762 91.065 172.862 91.155L175.742 93.78L174.917 94.575L172.007 91.815C171.947 91.755 171.882 91.725 171.812 91.725ZM170.732 95.79H178.982V101.025H171.482C171.242 101.025 171.057 100.96 170.927 100.83C170.797 100.7 170.732 100.51 170.732 100.26V95.79ZM171.872 100.065H177.827V96.735H171.872V100.065ZM193.406 87.465V94.98H192.251V87.465H193.406ZM186.236 91.725C186.166 91.725 186.101 91.76 186.041 91.83C185.781 92.26 185.441 92.7 185.021 93.15C184.601 93.59 184.016 94.155 183.266 94.845L182.411 94.11C183.271 93.35 183.931 92.7 184.391 92.16C184.851 91.62 185.181 91.085 185.381 90.555C185.591 90.025 185.696 89.425 185.696 88.755V87.945H186.851V88.83C186.851 89.76 186.676 90.59 186.326 91.32L186.401 91.365L186.641 91.155C186.751 91.065 186.861 91.02 186.971 91.02C187.081 91.02 187.186 91.065 187.286 91.155L190.166 93.78L189.341 94.575L186.431 91.815C186.371 91.755 186.306 91.725 186.236 91.725ZM185.156 95.79H193.406V101.025H185.906C185.666 101.025 185.481 100.96 185.351 100.83C185.221 100.7 185.156 100.51 185.156 100.26V95.79ZM186.296 100.065H192.251V96.735H186.296V100.065ZM209.225 93.795H207.11V100.515H205.97V87.495H207.11V92.835H209.225V93.795ZM202.775 89.175H198.515V88.2H202.775V89.175ZM196.52 90.975H204.545V91.905H202.325V91.995C203.235 92.445 203.69 93.31 203.69 94.59C203.69 95.24 203.555 95.805 203.285 96.285C203.015 96.755 202.64 97.115 202.16 97.365C201.69 97.615 201.165 97.74 200.585 97.74C200.005 97.74 199.475 97.615 198.995 97.365C198.525 97.115 198.155 96.755 197.885 96.285C197.615 95.805 197.48 95.24 197.48 94.59C197.48 93.31 197.935 92.445 198.845 91.995V91.905H196.52V90.975ZM202.58 94.095C202.58 93.425 202.4 92.915 202.04 92.565C201.68 92.205 201.195 92.025 200.585 92.025C199.985 92.025 199.5 92.205 199.13 92.565C198.77 92.925 198.59 93.435 198.59 94.095V94.71C198.59 95.36 198.775 95.87 199.145 96.24C199.515 96.6 199.995 96.78 200.585 96.78C201.175 96.78 201.655 96.6 202.025 96.24C202.395 95.87 202.58 95.36 202.58 94.71V94.095ZM220.469 89.52H212.549V88.545H221.594V89.61C221.594 91.83 221.379 93.945 220.949 95.955L219.839 95.775C220.259 93.745 220.469 91.705 220.469 89.655V89.52ZM223.259 98.04V99H211.019V98.04H215.819V93.225H216.944V98.04H223.259ZM241.603 87.465V95.295H240.493V87.465H241.603ZM237.583 91.44H235.603V90.495H237.583V87.675H238.663V95.13H237.583V91.44ZM233.293 92.115C233.233 92.115 233.178 92.145 233.128 92.205C232.898 92.635 232.598 93.08 232.228 93.54C231.868 93.99 231.398 94.51 230.818 95.1L230.023 94.41C230.753 93.64 231.308 92.985 231.688 92.445C232.078 91.895 232.353 91.36 232.513 90.84C232.683 90.31 232.768 89.71 232.768 89.04V88.215H233.863V89.07C233.863 90.03 233.713 90.86 233.413 91.56L233.488 91.605L233.668 91.455C233.778 91.375 233.878 91.335 233.968 91.335C234.078 91.335 234.178 91.385 234.268 91.485L236.638 94.095L235.858 94.845L233.503 92.205C233.443 92.145 233.373 92.115 233.293 92.115ZM232.783 96.12H241.603V101.145H240.478V97.095H232.783V96.12ZM254.557 92.88H251.827V91.95H254.557V90.12H251.827V89.19H254.557V87.465H255.697V97.35H254.557V92.88ZM248.362 92.175C248.292 92.175 248.232 92.205 248.182 92.265C247.922 92.725 247.582 93.195 247.162 93.675C246.752 94.155 246.182 94.76 245.452 95.49L244.612 94.755C245.452 93.945 246.097 93.255 246.547 92.685C247.007 92.115 247.337 91.55 247.537 90.99C247.737 90.42 247.837 89.77 247.837 89.04V88.095H248.977V89.085C248.977 90.095 248.802 90.985 248.452 91.755L248.512 91.785L248.752 91.59C248.872 91.5 248.982 91.455 249.082 91.455C249.202 91.455 249.307 91.505 249.397 91.605L252.232 94.47L251.407 95.25L248.542 92.265C248.492 92.205 248.432 92.175 248.362 92.175ZM255.967 99.825V100.77H248.107C247.867 100.77 247.682 100.705 247.552 100.575C247.422 100.445 247.357 100.255 247.357 100.005V96.345H248.512V99.825H255.967ZM275.721 95.07H270.156V100.965H269.016V95.07H263.481V94.11H272.256C272.616 92.54 272.801 90.865 272.811 89.085V89.01H265.101V88.05H273.921V89.01C273.921 90.74 273.751 92.44 273.411 94.11H275.721V95.07ZM288.33 93.15H279.72V87.72H280.845V89.505H287.22V87.72H288.33V93.15ZM287.22 90.435H280.845V92.205H287.22V90.435ZM290.145 94.515V95.505H284.67V98.16H283.53V95.505H277.905V94.515H290.145ZM280.755 99.87H288.54V100.815H280.38C280.14 100.815 279.955 100.75 279.825 100.62C279.695 100.49 279.63 100.3 279.63 100.05V96.96H280.755V99.87ZM302.349 87.465H303.489V100.485H302.349V87.465ZM292.719 92.73C292.719 91.27 293.039 90.165 293.679 89.415C294.329 88.665 295.184 88.29 296.244 88.29C297.294 88.29 298.139 88.665 298.779 89.415C299.429 90.165 299.754 91.27 299.754 92.73C299.754 93.71 299.604 94.535 299.304 95.205C299.004 95.865 298.589 96.36 298.059 96.69C297.529 97.01 296.924 97.17 296.244 97.17C295.184 97.17 294.329 96.795 293.679 96.045C293.039 95.295 292.719 94.19 292.719 92.73ZM298.539 93.315V92.145C298.539 91.215 298.324 90.5 297.894 90C297.474 89.5 296.924 89.25 296.244 89.25C295.554 89.25 294.994 89.5 294.564 90C294.144 90.49 293.934 91.205 293.934 92.145V93.315C293.934 94.255 294.144 94.975 294.564 95.475C294.994 95.965 295.554 96.21 296.244 96.21C296.924 96.21 297.474 95.96 297.894 95.46C298.324 94.96 298.539 94.245 298.539 93.315ZM323.993 90.45V91.41H321.908V94.335H320.768V87.465H321.908V90.45H323.993ZM312.233 94.32L311.408 93.615C312.248 92.985 312.898 92.44 313.358 91.98C313.818 91.52 314.148 91.065 314.348 90.615C314.558 90.165 314.663 89.655 314.663 89.085V89.07H311.798V88.14H318.653V89.07H315.788V89.145C315.788 89.925 315.613 90.635 315.263 91.275L315.353 91.32L315.578 91.155C315.688 91.065 315.798 91.02 315.908 91.02C316.038 91.02 316.153 91.065 316.253 91.155L319.058 93.36L318.233 94.11L315.398 91.785C315.308 91.715 315.223 91.68 315.143 91.68C315.073 91.68 315.008 91.71 314.948 91.77C314.668 92.14 314.313 92.525 313.883 92.925C313.463 93.315 312.913 93.78 312.233 94.32ZM314.798 100.2H322.268V101.1H314.423C314.183 101.1 313.998 101.035 313.868 100.905C313.738 100.775 313.673 100.585 313.673 100.335V97.695H320.783V96.045H313.583V95.145H321.908V98.535H314.798V100.2ZM343.012 91.41V92.37H340.927V97.35H339.787V87.465H340.927V91.41H343.012ZM333.907 94.935C333.247 94.935 332.657 94.8 332.137 94.53C331.617 94.25 331.212 93.855 330.922 93.345C330.632 92.825 330.487 92.215 330.487 91.515C330.487 90.815 330.632 90.205 330.922 89.685C331.212 89.165 331.617 88.77 332.137 88.5C332.657 88.22 333.247 88.08 333.907 88.08C334.567 88.08 335.152 88.22 335.662 88.5C336.182 88.77 336.587 89.165 336.877 89.685C337.177 90.205 337.327 90.815 337.327 91.515C337.327 92.215 337.177 92.825 336.877 93.345C336.587 93.855 336.182 94.25 335.662 94.53C335.152 94.8 334.567 94.935 333.907 94.935ZM333.907 94.005C334.567 94.005 335.102 93.81 335.512 93.42C335.922 93.02 336.127 92.49 336.127 91.83V91.2C336.127 90.54 335.922 90.015 335.512 89.625C335.102 89.225 334.567 89.025 333.907 89.025C333.237 89.025 332.697 89.225 332.287 89.625C331.887 90.015 331.687 90.54 331.687 91.2V91.83C331.687 92.49 331.892 93.02 332.302 93.42C332.712 93.81 333.247 94.005 333.907 94.005ZM333.892 99.825H341.227V100.77H333.502C333.262 100.77 333.077 100.705 332.947 100.575C332.817 100.445 332.752 100.255 332.752 100.005V96.27H333.892V99.825ZM356.011 95.535H354.871V87.465H356.011V95.535ZM353.866 94.695C352.726 94.875 351.366 95.01 349.786 95.1C348.216 95.19 346.606 95.235 344.956 95.235L344.851 94.29C346.231 94.29 347.456 94.27 348.526 94.23V92.535H345.991V88.08H352.276V88.995H347.101V91.62H352.411V92.535H349.636V94.17C351.256 94.09 352.631 93.97 353.761 93.81L353.866 94.695ZM356.026 96.285V101.025H348.361C348.121 101.025 347.936 100.96 347.806 100.83C347.676 100.7 347.611 100.51 347.611 100.26V96.285H356.026ZM354.871 97.23H348.766V100.08H354.871V97.23Z" fill="white"/>
<path d="M44.135 126.725H40.025V125.81H49.355V126.725H45.275C45.255 127.375 45.045 127.935 44.645 128.405L44.705 128.435L45.02 128.21C45.16 128.11 45.3 128.06 45.44 128.06C45.53 128.06 45.64 128.085 45.77 128.135L49.91 129.98L49.31 130.805L44.975 128.81C44.835 128.75 44.7 128.72 44.57 128.72C44.47 128.72 44.36 128.745 44.24 128.795C43.85 129.115 43.32 129.44 42.65 129.77C41.98 130.1 41.115 130.455 40.055 130.835L39.47 130.01C40.66 129.59 41.58 129.215 42.23 128.885C42.89 128.545 43.365 128.21 43.655 127.88C43.945 127.54 44.105 127.155 44.135 126.725ZM50.81 131.93V132.89H38.57V131.93H44.12V130.28H45.26V131.93H50.81ZM47.885 133.895H48.995V138.995H41.135C40.895 138.995 40.71 138.93 40.58 138.8C40.45 138.67 40.385 138.48 40.385 138.23V133.895H41.48V135.53H47.885V133.895ZM47.885 136.4H41.48V138.11H47.885V136.4ZM54.599 128.48C54.599 127.94 54.764 127.46 55.094 127.04C55.424 126.61 55.924 126.275 56.594 126.035C57.274 125.785 58.114 125.66 59.114 125.66C60.114 125.66 60.949 125.785 61.619 126.035C62.299 126.275 62.804 126.61 63.134 127.04C63.464 127.46 63.629 127.94 63.629 128.48C63.629 129.32 63.249 130 62.489 130.52C61.729 131.04 60.604 131.3 59.114 131.3C57.624 131.3 56.499 131.04 55.739 130.52C54.979 130 54.599 129.32 54.599 128.48ZM62.414 128.6V128.345C62.414 127.825 62.139 127.395 61.589 127.055C61.039 126.715 60.214 126.545 59.114 126.545C58.014 126.545 57.189 126.715 56.639 127.055C56.089 127.395 55.814 127.825 55.814 128.345V128.6C55.814 129.12 56.089 129.55 56.639 129.89C57.189 130.23 58.014 130.4 59.114 130.4C60.214 130.4 61.039 130.23 61.589 129.89C62.139 129.55 62.414 129.12 62.414 128.6ZM65.234 132.575V133.565H52.994V132.575H65.234ZM54.749 137.99V134.825H55.889V137.795H63.659V138.755H55.499C55.259 138.755 55.074 138.69 54.944 138.56C54.814 138.43 54.749 138.24 54.749 137.99ZM84.643 131.93H82.603V138.485H81.478V125.465H82.603V130.97H84.643V131.93ZM78.103 126.995H74.098V126.065H78.103V126.995ZM80.413 134.96L80.518 135.875C79.418 136.055 78.103 136.195 76.573 136.295C75.053 136.385 73.483 136.43 71.863 136.43L71.758 135.47C72.878 135.47 74.113 135.445 75.463 135.395V133.61C74.673 133.53 74.048 133.29 73.588 132.89C73.128 132.48 72.898 131.98 72.898 131.39C72.898 130.96 73.003 130.59 73.213 130.28C73.433 129.96 73.763 129.71 74.203 129.53V129.44H71.968V128.54H80.038V129.44H77.878V129.53C78.308 129.71 78.633 129.96 78.853 130.28C79.073 130.6 79.183 130.97 79.183 131.39C79.183 131.99 78.948 132.495 78.478 132.905C78.008 133.305 77.368 133.54 76.558 133.61V135.335C78.118 135.255 79.403 135.13 80.413 134.96ZM75.883 132.71H76.198C76.768 132.71 77.233 132.575 77.593 132.305C77.953 132.025 78.133 131.635 78.133 131.135C78.133 130.635 77.953 130.25 77.593 129.98C77.233 129.7 76.768 129.56 76.198 129.56H75.883C75.313 129.56 74.848 129.7 74.488 129.98C74.128 130.25 73.948 130.635 73.948 131.135C73.948 131.635 74.128 132.025 74.488 132.305C74.848 132.575 75.313 132.71 75.883 132.71ZM96.532 131.45H93.772V130.52H96.532V128.48H93.772V127.55H96.532V125.465H97.672V135.35H96.532V131.45ZM93.262 132.695H87.127V126.305H93.262V132.695ZM92.137 127.25H88.252V131.75H92.137V127.25ZM97.942 137.825V138.77H90.082C89.842 138.77 89.657 138.705 89.527 138.575C89.397 138.445 89.332 138.255 89.332 138.005V134.27H90.487V137.825H97.942ZM115.476 125.465H116.616V138.485H115.476V125.465ZM106.221 126.395H107.346V129.68H111.291V126.38H112.401V134.975H106.221V126.395ZM111.291 134.015V130.64H107.346V134.015H111.291ZM121.5 127.85C121.5 127.13 121.875 126.55 122.625 126.11C123.385 125.67 124.51 125.45 126 125.45C127.49 125.45 128.61 125.67 129.36 126.11C130.12 126.55 130.5 127.13 130.5 127.85C130.5 128.58 130.125 129.165 129.375 129.605C128.625 130.045 127.5 130.265 126 130.265C124.5 130.265 123.375 130.045 122.625 129.605C121.875 129.165 121.5 128.58 121.5 127.85ZM122.715 127.94C122.715 128.37 122.985 128.72 123.525 128.99C124.075 129.26 124.9 129.395 126 129.395C127.1 129.395 127.92 129.26 128.46 128.99C129.01 128.72 129.285 128.37 129.285 127.94V127.76C129.285 127.33 129.01 126.98 128.46 126.71C127.92 126.44 127.1 126.305 126 126.305C124.9 126.305 124.075 126.44 123.525 126.71C122.985 126.98 122.715 127.33 122.715 127.76V127.94ZM128.79 132.155V133.565H130.275V136.79H122.88V138.2H130.665V139.145H122.535C122.295 139.145 122.11 139.08 121.98 138.95C121.85 138.82 121.785 138.63 121.785 138.38V135.905H129.18V134.495H121.695V133.565H123.21V132.155H119.88V131.225H132.12V132.155H128.79ZM127.71 132.155H124.29V133.565H127.71V132.155ZM145.869 125.465V138.485H144.774V125.465H145.869ZM141.819 125.69H142.884V138.125H141.819V131.3H140.379C140.329 132.6 140.039 133.58 139.509 134.24C138.979 134.89 138.279 135.215 137.409 135.215C136.479 135.215 135.744 134.855 135.204 134.135C134.664 133.405 134.394 132.32 134.394 130.88C134.394 129.44 134.664 128.36 135.204 127.64C135.744 126.91 136.479 126.545 137.409 126.545C138.269 126.545 138.959 126.865 139.479 127.505C140.009 128.145 140.309 129.095 140.379 130.355H141.819V125.69ZM139.239 130.16C139.239 129.28 139.069 128.61 138.729 128.15C138.399 127.69 137.959 127.46 137.409 127.46C136.849 127.46 136.399 127.69 136.059 128.15C135.729 128.61 135.564 129.28 135.564 130.16V131.615C135.564 132.485 135.729 133.155 136.059 133.625C136.399 134.085 136.849 134.315 137.409 134.315C137.959 134.315 138.399 134.085 138.729 133.625C139.069 133.155 139.239 132.485 139.239 131.615V130.16ZM163.343 125.465H164.483V138.485H163.343V125.465ZM154.088 126.395H155.213V129.68H159.158V126.38H160.268V134.975H154.088V126.395ZM159.158 134.015V130.64H155.213V134.015H159.158ZM179.312 125.465V138.485H178.202V131.69H176.252V138.125H175.157V125.69H176.252V130.745H178.202V125.465H179.312ZM173.087 127.415H169.232V126.485H173.087V127.415ZM167.657 129.095H174.437V129.995H172.652V130.07C173.442 130.5 173.837 131.315 173.837 132.515C173.837 133.455 173.582 134.19 173.072 134.72C172.572 135.24 171.912 135.5 171.092 135.5C170.282 135.5 169.622 135.24 169.112 134.72C168.612 134.19 168.362 133.455 168.362 132.515C168.362 131.315 168.752 130.5 169.532 130.07V129.995H167.657V129.095ZM172.757 131.975C172.757 131.375 172.607 130.915 172.307 130.595C172.007 130.275 171.602 130.115 171.092 130.115C170.582 130.115 170.177 130.275 169.877 130.595C169.587 130.915 169.442 131.375 169.442 131.975V132.695C169.442 133.285 169.592 133.745 169.892 134.075C170.202 134.405 170.602 134.57 171.092 134.57C171.582 134.57 171.982 134.405 172.292 134.075C172.602 133.745 172.757 133.285 172.757 132.695V131.975ZM198.331 125.465V138.485H197.221V131.495H195.091V138.125H193.996V125.69H195.091V130.55H197.221V125.465H198.331ZM193.051 133.505L193.201 134.435C191.971 134.735 190.456 134.885 188.656 134.885H187.396V126.785H188.491V133.94H188.926C189.706 133.94 190.451 133.905 191.161 133.835C191.881 133.755 192.511 133.645 193.051 133.505ZM213.43 132.05V133.01H201.19V132.05H204.445V130.28C203.895 130.05 203.48 129.75 203.2 129.38C202.93 129.01 202.795 128.59 202.795 128.12C202.795 127.34 203.175 126.71 203.935 126.23C204.695 125.74 205.82 125.495 207.31 125.495C208.8 125.495 209.925 125.74 210.685 126.23C211.445 126.71 211.825 127.34 211.825 128.12C211.825 128.59 211.685 129.01 211.405 129.38C211.135 129.75 210.725 130.05 210.175 130.28V132.05H213.43ZM207.31 129.86C208.42 129.86 209.25 129.705 209.8 129.395C210.35 129.085 210.625 128.69 210.625 128.21V128C210.625 127.53 210.345 127.14 209.785 126.83C209.235 126.52 208.41 126.365 207.31 126.365C206.21 126.365 205.385 126.52 204.835 126.83C204.285 127.14 204.01 127.53 204.01 128V128.21C204.01 128.69 204.28 129.085 204.82 129.395C205.37 129.705 206.2 129.86 207.31 129.86ZM205.54 132.05H209.08V130.595C208.59 130.695 208 130.745 207.31 130.745C206.62 130.745 206.03 130.695 205.54 130.595V132.05ZM211.75 136.685C211.75 137.195 211.58 137.645 211.24 138.035C210.91 138.425 210.41 138.73 209.74 138.95C209.08 139.18 208.27 139.295 207.31 139.295C206.35 139.295 205.535 139.18 204.865 138.95C204.205 138.73 203.705 138.425 203.365 138.035C203.035 137.645 202.87 137.195 202.87 136.685C202.87 136.185 203.035 135.745 203.365 135.365C203.705 134.975 204.205 134.67 204.865 134.45C205.535 134.23 206.35 134.12 207.31 134.12C208.27 134.12 209.08 134.23 209.74 134.45C210.41 134.67 210.91 134.975 211.24 135.365C211.58 135.745 211.75 136.185 211.75 136.685ZM210.55 136.595C210.55 136.155 210.28 135.785 209.74 135.485C209.21 135.175 208.4 135.02 207.31 135.02C206.58 135.02 205.97 135.095 205.48 135.245C204.99 135.385 204.63 135.575 204.4 135.815C204.17 136.055 204.055 136.315 204.055 136.595V136.805C204.055 137.085 204.17 137.345 204.4 137.585C204.63 137.825 204.99 138.015 205.48 138.155C205.97 138.305 206.58 138.38 207.31 138.38C208.4 138.38 209.21 138.225 209.74 137.915C210.28 137.615 210.55 137.245 210.55 136.805V136.595ZM225.634 125.465H226.774V138.485H225.634V125.465ZM216.004 130.73C216.004 129.27 216.324 128.165 216.964 127.415C217.614 126.665 218.469 126.29 219.529 126.29C220.579 126.29 221.424 126.665 222.064 127.415C222.714 128.165 223.039 129.27 223.039 130.73C223.039 131.71 222.889 132.535 222.589 133.205C222.289 133.865 221.874 134.36 221.344 134.69C220.814 135.01 220.209 135.17 219.529 135.17C218.469 135.17 217.614 134.795 216.964 134.045C216.324 133.295 216.004 132.19 216.004 130.73ZM221.824 131.315V130.145C221.824 129.215 221.609 128.5 221.179 128C220.759 127.5 220.209 127.25 219.529 127.25C218.839 127.25 218.279 127.5 217.849 128C217.429 128.49 217.219 129.205 217.219 130.145V131.315C217.219 132.255 217.429 132.975 217.849 133.475C218.279 133.965 218.839 134.21 219.529 134.21C220.209 134.21 220.759 133.96 221.179 133.46C221.609 132.96 221.824 132.245 221.824 131.315ZM247.278 128.42V129.38H245.193V132.245H244.053V125.465H245.193V128.42H247.278ZM241.233 131.945H235.083V126.095H241.233V131.945ZM240.108 127.025H236.208V131.015H240.108V127.025ZM244.698 133.91H241.548V132.995H244.698V133.91ZM239.898 137.3L240.183 138.245C239.793 138.415 239.328 138.555 238.788 138.665C238.248 138.785 237.683 138.845 237.093 138.845H236.823C236.583 138.845 236.398 138.78 236.268 138.65C236.138 138.52 236.073 138.33 236.073 138.08V133.505H237.138V137.825H237.333C237.803 137.825 238.263 137.77 238.713 137.66C239.173 137.56 239.568 137.44 239.898 137.3ZM239.928 135.095H246.303V135.95H244.593V136.04C244.913 136.19 245.153 136.39 245.313 136.64C245.473 136.89 245.553 137.175 245.553 137.495C245.553 138.015 245.333 138.45 244.893 138.8C244.453 139.16 243.863 139.34 243.123 139.34C242.373 139.34 241.778 139.16 241.338 138.8C240.898 138.45 240.678 138.015 240.678 137.495C240.678 137.165 240.758 136.875 240.918 136.625C241.078 136.375 241.323 136.175 241.653 136.025V135.95H239.928V135.095ZM244.593 137.24C244.593 136.86 244.463 136.56 244.203 136.34C243.953 136.12 243.623 136.01 243.213 136.01H243.018C242.608 136.01 242.273 136.12 242.013 136.34C241.763 136.56 241.638 136.86 241.638 137.24C241.638 137.62 241.763 137.92 242.013 138.14C242.273 138.36 242.608 138.47 243.018 138.47H243.213C243.623 138.47 243.953 138.36 244.203 138.14C244.463 137.92 244.593 137.62 244.593 137.24ZM261.687 131.555H259.527V138.515H258.387V125.495H259.527V130.595H261.687V131.555ZM256.092 130.73C256.092 132.19 255.772 133.295 255.132 134.045C254.502 134.795 253.662 135.17 252.612 135.17C251.562 135.17 250.717 134.795 250.077 134.045C249.447 133.295 249.132 132.19 249.132 130.73C249.132 129.27 249.447 128.165 250.077 127.415C250.717 126.665 251.562 126.29 252.612 126.29C253.662 126.29 254.502 126.665 255.132 127.415C255.772 128.165 256.092 129.27 256.092 130.73ZM254.877 130.13C254.877 129.2 254.667 128.49 254.247 128C253.837 127.5 253.292 127.25 252.612 127.25C251.932 127.25 251.382 127.5 250.962 128C250.542 128.49 250.332 129.2 250.332 130.13V131.33C250.332 132.26 250.542 132.975 250.962 133.475C251.382 133.965 251.932 134.21 252.612 134.21C253.292 134.21 253.837 133.965 254.247 133.475C254.667 132.975 254.877 132.26 254.877 131.33V130.13ZM280.721 129.56H278.636V132.695H277.496V125.465H278.636V128.6H280.721V129.56ZM275.981 131.69C275.261 131.84 274.391 131.96 273.371 132.05C272.361 132.13 271.281 132.17 270.131 132.17H268.601V126.14H274.541V127.1H269.726V131.24H270.146C271.226 131.24 272.261 131.2 273.251 131.12C274.251 131.04 275.111 130.93 275.831 130.79L275.981 131.69ZM277.511 133.535H278.636V139.025H271.286C271.046 139.025 270.861 138.96 270.731 138.83C270.601 138.7 270.536 138.51 270.536 138.26V133.535H271.661V135.26H277.511V133.535ZM277.511 136.235H271.661V138.05H277.511V136.235ZM295.145 129.56H293.06V132.695H291.92V125.465H293.06V128.6H295.145V129.56ZM290.405 131.69C289.685 131.84 288.815 131.96 287.795 132.05C286.785 132.13 285.705 132.17 284.555 132.17H283.025V126.14H288.965V127.1H284.15V131.24H284.57C285.65 131.24 286.685 131.2 287.675 131.12C288.675 131.04 289.535 130.93 290.255 130.79L290.405 131.69ZM291.935 133.535H293.06V139.025H285.71C285.47 139.025 285.285 138.96 285.155 138.83C285.025 138.7 284.96 138.51 284.96 138.26V133.535H286.085V135.26H291.935V133.535ZM291.935 136.235H286.085V138.05H291.935V136.235ZM309.554 131.795H307.439V138.515H306.299V125.495H307.439V130.835H309.554V131.795ZM303.104 127.175H298.844V126.2H303.104V127.175ZM296.849 128.975H304.874V129.905H302.654V129.995C303.564 130.445 304.019 131.31 304.019 132.59C304.019 133.24 303.884 133.805 303.614 134.285C303.344 134.755 302.969 135.115 302.489 135.365C302.019 135.615 301.494 135.74 300.914 135.74C300.334 135.74 299.804 135.615 299.324 135.365C298.854 135.115 298.484 134.755 298.214 134.285C297.944 133.805 297.809 133.24 297.809 132.59C297.809 131.31 298.264 130.445 299.174 129.995V129.905H296.849V128.975ZM302.909 132.095C302.909 131.425 302.729 130.915 302.369 130.565C302.009 130.205 301.524 130.025 300.914 130.025C300.314 130.025 299.829 130.205 299.459 130.565C299.099 130.925 298.919 131.435 298.919 132.095V132.71C298.919 133.36 299.104 133.87 299.474 134.24C299.844 134.6 300.324 134.78 300.914 134.78C301.504 134.78 301.984 134.6 302.354 134.24C302.724 133.87 302.909 133.36 302.909 132.71V132.095ZM322.913 125.465V138.485H321.803V125.465H322.913ZM318.788 125.69H319.883V138.125H318.788V131.51H316.523C316.243 132.25 315.783 132.945 315.143 133.595C314.513 134.235 313.598 134.955 312.398 135.755L311.648 134.99C312.778 134.26 313.638 133.61 314.228 133.04C314.818 132.46 315.233 131.855 315.473 131.225C315.713 130.585 315.833 129.8 315.833 128.87V127.715H311.993V126.8H316.928V128.84C316.928 129.49 316.878 130.065 316.778 130.565H318.788V125.69ZM341.017 132.47H332.122V126.32H333.262V131.495H341.017V132.47ZM342.607 136.025V137H330.367V136.025H342.607ZM356.026 125.465V138.485H354.901V133.31H352.921V132.395H354.901V129.755H352.981V128.84H354.901V125.465H356.026ZM345.376 126.65H348.826V128.555C348.826 129.495 348.726 130.315 348.526 131.015C348.326 131.705 348.006 132.365 347.566 132.995C347.136 133.625 346.526 134.36 345.736 135.2L344.911 134.54C345.651 133.77 346.221 133.1 346.621 132.53C347.021 131.96 347.306 131.37 347.476 130.76C347.656 130.14 347.746 129.41 347.746 128.57V127.595H345.376V126.65ZM349.501 126.65H352.681V128.84C352.681 129.87 352.581 130.765 352.381 131.525C352.191 132.285 351.886 133.01 351.466 133.7C351.046 134.38 350.451 135.165 349.681 136.055L348.841 135.41C349.551 134.59 350.096 133.87 350.476 133.25C350.866 132.62 351.146 131.965 351.316 131.285C351.496 130.605 351.586 129.795 351.586 128.855V127.595H349.501V126.65ZM370.45 125.465V133.13H369.295V125.465H370.45ZM360.46 132.83L359.62 132.11C360.47 131.44 361.125 130.865 361.585 130.385C362.055 129.905 362.395 129.43 362.605 128.96C362.815 128.49 362.92 127.955 362.92 127.355V127.22H360.04V126.275H366.955V127.22H364.06V127.415C364.06 128.255 363.885 128.995 363.535 129.635L363.625 129.68L363.865 129.5C363.975 129.42 364.08 129.38 364.18 129.38C364.3 129.38 364.42 129.425 364.54 129.515L367.39 131.855L366.535 132.59L363.655 130.145C363.585 130.085 363.505 130.055 363.415 130.055C363.335 130.055 363.265 130.085 363.205 130.145C362.945 130.525 362.605 130.915 362.185 131.315C361.765 131.715 361.19 132.22 360.46 132.83ZM362.2 133.925H370.45V139.025H362.95C362.71 139.025 362.525 138.96 362.395 138.83C362.265 138.7 362.2 138.51 362.2 138.26V133.925ZM363.31 138.095H369.325V134.855H363.31V138.095Z" fill="white"/>
<path d="M44.15 164.8H40.07V163.885H49.31V164.8H45.275C45.255 165.5 45.04 166.09 44.63 166.57L44.705 166.6L45.02 166.375C45.16 166.285 45.29 166.24 45.41 166.24C45.51 166.24 45.63 166.27 45.77 166.33L49.865 168.235L49.265 169.06L44.975 166.99C44.845 166.92 44.715 166.885 44.585 166.885C44.445 166.885 44.32 166.92 44.21 166.99C43.82 167.32 43.295 167.655 42.635 167.995C41.975 168.325 41.13 168.69 40.1 169.09L39.515 168.28C40.705 167.83 41.625 167.43 42.275 167.08C42.925 166.72 43.39 166.365 43.67 166.015C43.96 165.665 44.12 165.26 44.15 164.8ZM45.26 171.01V172.21C46.52 172.28 47.48 172.54 48.14 172.99C48.8 173.44 49.13 174.02 49.13 174.73C49.13 175.23 48.96 175.67 48.62 176.05C48.29 176.44 47.79 176.745 47.12 176.965C46.46 177.185 45.65 177.295 44.69 177.295C43.73 177.295 42.915 177.185 42.245 176.965C41.585 176.745 41.085 176.44 40.745 176.05C40.415 175.67 40.25 175.23 40.25 174.73C40.25 174.02 40.58 173.44 41.24 172.99C41.9 172.54 42.86 172.28 44.12 172.21V171.01H38.57V170.05H50.81V171.01H45.26ZM44.69 173.08C43.6 173.08 42.78 173.23 42.23 173.53C41.69 173.83 41.42 174.2 41.42 174.64V174.85C41.42 175.28 41.69 175.645 42.23 175.945C42.78 176.245 43.6 176.395 44.69 176.395C45.78 176.395 46.595 176.245 47.135 175.945C47.675 175.645 47.945 175.28 47.945 174.85V174.64C47.945 174.19 47.675 173.82 47.135 173.53C46.605 173.23 45.79 173.08 44.69 173.08ZM65.234 170.35V171.34H52.994V170.35H58.544V168.925H54.809V163.66H55.934V165.37H62.309V163.66H63.419V168.925H59.684V170.35H65.234ZM55.934 168.01H62.309V166.3H55.934V168.01ZM54.689 172.645H63.419V177.085H62.279V173.575H54.689V172.645ZM78.653 173.47H77.513V163.465H78.653V173.47ZM76.493 171.265C75.353 171.445 73.993 171.58 72.413 171.67C70.843 171.76 69.233 171.805 67.583 171.805L67.478 170.86C68.858 170.86 70.083 170.84 71.153 170.8V168.91H68.618V164.305H74.903V165.22H69.728V167.995H75.038V168.91H72.263V170.74C73.923 170.66 75.298 170.535 76.388 170.365L76.493 171.265ZM78.923 175.825V176.77H70.958C70.718 176.77 70.533 176.705 70.403 176.575C70.273 176.445 70.208 176.255 70.208 176.005V172.84H71.348V175.825H78.923ZM98.002 163.465V176.485H96.892V169.495H94.762V176.125H93.667V163.69H94.762V168.55H96.892V163.465H98.002ZM92.722 171.505L92.872 172.435C91.642 172.735 90.127 172.885 88.327 172.885H87.067V164.785H88.162V171.94H88.597C89.377 171.94 90.122 171.905 90.832 171.835C91.552 171.755 92.182 171.645 92.722 171.505ZM113.101 170.05V171.01H100.861V170.05H104.116V168.28C103.566 168.05 103.151 167.75 102.871 167.38C102.601 167.01 102.466 166.59 102.466 166.12C102.466 165.34 102.846 164.71 103.606 164.23C104.366 163.74 105.491 163.495 106.981 163.495C108.471 163.495 109.596 163.74 110.356 164.23C111.116 164.71 111.496 165.34 111.496 166.12C111.496 166.59 111.356 167.01 111.076 167.38C110.806 167.75 110.396 168.05 109.846 168.28V170.05H113.101ZM106.981 167.86C108.091 167.86 108.921 167.705 109.471 167.395C110.021 167.085 110.296 166.69 110.296 166.21V166C110.296 165.53 110.016 165.14 109.456 164.83C108.906 164.52 108.081 164.365 106.981 164.365C105.881 164.365 105.056 164.52 104.506 164.83C103.956 165.14 103.681 165.53 103.681 166V166.21C103.681 166.69 103.951 167.085 104.491 167.395C105.041 167.705 105.871 167.86 106.981 167.86ZM105.211 170.05H108.751V168.595C108.261 168.695 107.671 168.745 106.981 168.745C106.291 168.745 105.701 168.695 105.211 168.595V170.05ZM111.421 174.685C111.421 175.195 111.251 175.645 110.911 176.035C110.581 176.425 110.081 176.73 109.411 176.95C108.751 177.18 107.941 177.295 106.981 177.295C106.021 177.295 105.206 177.18 104.536 176.95C103.876 176.73 103.376 176.425 103.036 176.035C102.706 175.645 102.541 175.195 102.541 174.685C102.541 174.185 102.706 173.745 103.036 173.365C103.376 172.975 103.876 172.67 104.536 172.45C105.206 172.23 106.021 172.12 106.981 172.12C107.941 172.12 108.751 172.23 109.411 172.45C110.081 172.67 110.581 172.975 110.911 173.365C111.251 173.745 111.421 174.185 111.421 174.685ZM110.221 174.595C110.221 174.155 109.951 173.785 109.411 173.485C108.881 173.175 108.071 173.02 106.981 173.02C106.251 173.02 105.641 173.095 105.151 173.245C104.661 173.385 104.301 173.575 104.071 173.815C103.841 174.055 103.726 174.315 103.726 174.595V174.805C103.726 175.085 103.841 175.345 104.071 175.585C104.301 175.825 104.661 176.015 105.151 176.155C105.641 176.305 106.251 176.38 106.981 176.38C108.071 176.38 108.881 176.225 109.411 175.915C109.951 175.615 110.221 175.245 110.221 174.805V174.595ZM125.305 163.465H126.445V176.485H125.305V163.465ZM115.675 168.73C115.675 167.27 115.995 166.165 116.635 165.415C117.285 164.665 118.14 164.29 119.2 164.29C120.25 164.29 121.095 164.665 121.735 165.415C122.385 166.165 122.71 167.27 122.71 168.73C122.71 169.71 122.56 170.535 122.26 171.205C121.96 171.865 121.545 172.36 121.015 172.69C120.485 173.01 119.88 173.17 119.2 173.17C118.14 173.17 117.285 172.795 116.635 172.045C115.995 171.295 115.675 170.19 115.675 168.73ZM121.495 169.315V168.145C121.495 167.215 121.28 166.5 120.85 166C120.43 165.5 119.88 165.25 119.2 165.25C118.51 165.25 117.95 165.5 117.52 166C117.1 166.49 116.89 167.205 116.89 168.145V169.315C116.89 170.255 117.1 170.975 117.52 171.475C117.95 171.965 118.51 172.21 119.2 172.21C119.88 172.21 120.43 171.96 120.85 171.46C121.28 170.96 121.495 170.245 121.495 169.315ZM146.949 166.42V167.38H144.864V170.245H143.724V163.465H144.864V166.42H146.949ZM140.904 169.945H134.754V164.095H140.904V169.945ZM139.779 165.025H135.879V169.015H139.779V165.025ZM144.369 171.91H141.219V170.995H144.369V171.91ZM139.569 175.3L139.854 176.245C139.464 176.415 138.999 176.555 138.459 176.665C137.919 176.785 137.354 176.845 136.764 176.845H136.494C136.254 176.845 136.069 176.78 135.939 176.65C135.809 176.52 135.744 176.33 135.744 176.08V171.505H136.809V175.825H137.004C137.474 175.825 137.934 175.77 138.384 175.66C138.844 175.56 139.239 175.44 139.569 175.3ZM139.599 173.095H145.974V173.95H144.264V174.04C144.584 174.19 144.824 174.39 144.984 174.64C145.144 174.89 145.224 175.175 145.224 175.495C145.224 176.015 145.004 176.45 144.564 176.8C144.124 177.16 143.534 177.34 142.794 177.34C142.044 177.34 141.449 177.16 141.009 176.8C140.569 176.45 140.349 176.015 140.349 175.495C140.349 175.165 140.429 174.875 140.589 174.625C140.749 174.375 140.994 174.175 141.324 174.025V173.95H139.599V173.095ZM144.264 175.24C144.264 174.86 144.134 174.56 143.874 174.34C143.624 174.12 143.294 174.01 142.884 174.01H142.689C142.279 174.01 141.944 174.12 141.684 174.34C141.434 174.56 141.309 174.86 141.309 175.24C141.309 175.62 141.434 175.92 141.684 176.14C141.944 176.36 142.279 176.47 142.689 176.47H142.884C143.294 176.47 143.624 176.36 143.874 176.14C144.134 175.92 144.264 175.62 144.264 175.24ZM158.178 165.52H150.258V164.545H159.303V165.61C159.303 167.83 159.088 169.945 158.658 171.955L157.548 171.775C157.968 169.745 158.178 167.705 158.178 165.655V165.52ZM160.968 174.04V175H148.728V174.04H153.528V169.225H154.653V174.04H160.968ZM178.307 166.345V168.325H180.377V169.27H178.307V171.22H177.182V163.465H178.307V165.4H180.377V166.345H178.307ZM171.272 170.38C170.612 170.38 170.022 170.25 169.502 169.99C168.992 169.73 168.592 169.355 168.302 168.865C168.012 168.375 167.867 167.8 167.867 167.14C167.867 166.48 168.012 165.905 168.302 165.415C168.592 164.925 168.992 164.55 169.502 164.29C170.022 164.03 170.612 163.9 171.272 163.9C171.932 163.9 172.517 164.03 173.027 164.29C173.537 164.55 173.937 164.925 174.227 165.415C174.517 165.905 174.662 166.48 174.662 167.14C174.662 167.8 174.517 168.375 174.227 168.865C173.937 169.355 173.537 169.73 173.027 169.99C172.517 170.25 171.932 170.38 171.272 170.38ZM171.272 169.45C171.922 169.45 172.447 169.265 172.847 168.895C173.257 168.525 173.462 168.03 173.462 167.41V166.87C173.462 166.25 173.257 165.755 172.847 165.385C172.447 165.015 171.922 164.83 171.272 164.83C170.612 164.83 170.077 165.015 169.667 165.385C169.267 165.755 169.067 166.25 169.067 166.87V167.41C169.067 168.03 169.267 168.525 169.667 168.895C170.077 169.265 170.612 169.45 171.272 169.45ZM178.412 174.34C178.412 174.89 178.257 175.38 177.947 175.81C177.637 176.25 177.172 176.595 176.552 176.845C175.932 177.095 175.172 177.22 174.272 177.22C173.382 177.22 172.622 177.095 171.992 176.845C171.372 176.595 170.902 176.25 170.582 175.81C170.272 175.38 170.117 174.89 170.117 174.34C170.117 173.79 170.272 173.3 170.582 172.87C170.902 172.43 171.372 172.085 171.992 171.835C172.622 171.585 173.382 171.46 174.272 171.46C175.172 171.46 175.932 171.585 176.552 171.835C177.172 172.085 177.637 172.43 177.947 172.87C178.257 173.3 178.412 173.79 178.412 174.34ZM177.212 174.22C177.212 173.7 176.967 173.265 176.477 172.915C175.997 172.565 175.262 172.39 174.272 172.39C173.292 172.39 172.557 172.57 172.067 172.93C171.577 173.28 171.332 173.71 171.332 174.22V174.475C171.332 174.985 171.577 175.415 172.067 175.765C172.557 176.125 173.292 176.305 174.272 176.305C175.262 176.305 175.997 176.125 176.477 175.765C176.967 175.415 177.212 174.985 177.212 174.475V174.22ZM193.406 163.465V171.355H192.266V167.74H189.536V166.81H192.266V163.465H193.406ZM183.356 171.025L182.501 170.305C183.341 169.615 183.991 169.025 184.451 168.535C184.911 168.035 185.241 167.545 185.441 167.065C185.651 166.585 185.756 166.04 185.756 165.43V165.265H182.891V164.305H189.731V165.265H186.896V165.49C186.896 166.34 186.721 167.095 186.371 167.755L186.461 167.8L186.701 167.635C186.811 167.545 186.921 167.5 187.031 167.5C187.161 167.5 187.276 167.545 187.376 167.635L190.166 170.035L189.326 170.785L186.491 168.28C186.411 168.22 186.336 168.19 186.266 168.19C186.186 168.19 186.116 168.22 186.056 168.28C185.796 168.67 185.461 169.07 185.051 169.48C184.641 169.88 184.076 170.395 183.356 171.025ZM184.811 172.165H193.406V177.145H192.281V173.125H184.811V172.165ZM197.99 167.545C197.99 166.875 198.16 166.275 198.5 165.745C198.85 165.205 199.38 164.775 200.09 164.455C200.8 164.135 201.675 163.975 202.715 163.975C203.755 163.975 204.63 164.135 205.34 164.455C206.05 164.775 206.575 165.205 206.915 165.745C207.265 166.275 207.44 166.875 207.44 167.545C207.44 168.215 207.265 168.82 206.915 169.36C206.575 169.9 206.05 170.33 205.34 170.65C204.63 170.97 203.755 171.13 202.715 171.13C201.675 171.13 200.8 170.97 200.09 170.65C199.38 170.33 198.85 169.9 198.5 169.36C198.16 168.82 197.99 168.215 197.99 167.545ZM206.21 167.725V167.38C206.21 166.92 206.085 166.505 205.835 166.135C205.595 165.755 205.21 165.455 204.68 165.235C204.16 165.005 203.505 164.89 202.715 164.89C201.925 164.89 201.265 165.005 200.735 165.235C200.215 165.455 199.83 165.755 199.58 166.135C199.34 166.505 199.22 166.92 199.22 167.38V167.725C199.22 168.435 199.51 169.025 200.09 169.495C200.67 169.965 201.545 170.2 202.715 170.2C203.885 170.2 204.76 169.965 205.34 169.495C205.92 169.025 206.21 168.435 206.21 167.725ZM196.595 174.025H208.835V175H196.595V174.025ZM223.259 174.04V175H211.019V174.04H216.569V171.475H212.819V167.41H220.319V165.205H212.744V164.26H221.459V168.325H213.959V170.53H221.849V171.475H217.709V174.04H223.259ZM242.683 166.42V167.38H240.598V170.245H239.458V163.465H240.598V166.42H242.683ZM236.638 169.945H230.488V164.095H236.638V169.945ZM235.513 165.025H231.613V169.015H235.513V165.025ZM240.103 171.91H236.953V170.995H240.103V171.91ZM235.303 175.3L235.588 176.245C235.198 176.415 234.733 176.555 234.193 176.665C233.653 176.785 233.088 176.845 232.498 176.845H232.228C231.988 176.845 231.803 176.78 231.673 176.65C231.543 176.52 231.478 176.33 231.478 176.08V171.505H232.543V175.825H232.738C233.208 175.825 233.668 175.77 234.118 175.66C234.578 175.56 234.973 175.44 235.303 175.3ZM235.333 173.095H241.708V173.95H239.998V174.04C240.318 174.19 240.558 174.39 240.718 174.64C240.878 174.89 240.958 175.175 240.958 175.495C240.958 176.015 240.738 176.45 240.298 176.8C239.858 177.16 239.268 177.34 238.528 177.34C237.778 177.34 237.183 177.16 236.743 176.8C236.303 176.45 236.083 176.015 236.083 175.495C236.083 175.165 236.163 174.875 236.323 174.625C236.483 174.375 236.728 174.175 237.058 174.025V173.95H235.333V173.095ZM239.998 175.24C239.998 174.86 239.868 174.56 239.608 174.34C239.358 174.12 239.028 174.01 238.618 174.01H238.423C238.013 174.01 237.678 174.12 237.418 174.34C237.168 174.56 237.043 174.86 237.043 175.24C237.043 175.62 237.168 175.92 237.418 176.14C237.678 176.36 238.013 176.47 238.423 176.47H238.618C239.028 176.47 239.358 176.36 239.608 176.14C239.868 175.92 239.998 175.62 239.998 175.24ZM257.092 169.555H254.932V176.515H253.792V163.495H254.932V168.595H257.092V169.555ZM251.497 168.73C251.497 170.19 251.177 171.295 250.537 172.045C249.907 172.795 249.067 173.17 248.017 173.17C246.967 173.17 246.122 172.795 245.482 172.045C244.852 171.295 244.537 170.19 244.537 168.73C244.537 167.27 244.852 166.165 245.482 165.415C246.122 164.665 246.967 164.29 248.017 164.29C249.067 164.29 249.907 164.665 250.537 165.415C251.177 166.165 251.497 167.27 251.497 168.73ZM250.282 168.13C250.282 167.2 250.072 166.49 249.652 166C249.242 165.5 248.697 165.25 248.017 165.25C247.337 165.25 246.787 165.5 246.367 166C245.947 166.49 245.737 167.2 245.737 168.13V169.33C245.737 170.26 245.947 170.975 246.367 171.475C246.787 171.965 247.337 172.21 248.017 172.21C248.697 172.21 249.242 171.965 249.652 171.475C250.072 170.975 250.282 170.26 250.282 169.33V168.13ZM273.936 169.66H265.266V163.795H266.391V165.775H272.811V163.795H273.936V169.66ZM272.811 166.72H266.391V168.715H272.811V166.72ZM275.721 172.255H270.171V177.01H269.031V172.255H263.481V171.28H275.721V172.255ZM290.55 167.725H288.465V170.98H287.325V163.465H288.465V166.765H290.55V167.725ZM285.81 169.78C285.09 169.93 284.22 170.05 283.2 170.14C282.19 170.22 281.11 170.26 279.96 170.26H278.43V164.17H284.37V165.13H279.57V169.33H279.975C281.055 169.33 282.09 169.29 283.08 169.21C284.08 169.13 284.94 169.02 285.66 168.88L285.81 169.78ZM280.35 171.79H288.465V177.025H281.1C280.86 177.025 280.675 176.96 280.545 176.83C280.415 176.7 280.35 176.51 280.35 176.26V171.79ZM281.49 176.065H287.325V172.735H281.49V176.065ZM293.589 170.965L292.944 170.08C294.304 169.38 295.344 168.76 296.064 168.22C296.794 167.67 297.299 167.125 297.579 166.585C297.859 166.035 297.999 165.405 297.999 164.695V164.185H299.169V164.725C299.169 165.305 299.104 165.825 298.974 166.285C298.854 166.735 298.649 167.16 298.359 167.56L298.434 167.605L298.809 167.32C298.939 167.22 299.069 167.17 299.199 167.17C299.329 167.17 299.459 167.215 299.589 167.305L303.954 170.02L303.294 170.92L298.779 168.01C298.649 167.92 298.509 167.875 298.359 167.875C298.229 167.875 298.099 167.925 297.969 168.025C297.559 168.465 297.004 168.92 296.304 169.39C295.604 169.85 294.699 170.375 293.589 170.965ZM304.569 174.025V175H292.329V174.025H304.569ZM317.928 163.465V176.485H316.803V169.075H314.148V168.115H316.803V163.465H317.928ZM314.733 171.925L314.868 172.84C313.398 173.14 311.503 173.29 309.183 173.29H307.608V168.28H312.138V165.415H307.563V164.455H313.263V169.21H308.733V172.36H309.228C311.388 172.36 313.223 172.215 314.733 171.925ZM322.782 166.135C322.782 165.355 323.162 164.725 323.922 164.245C324.682 163.755 325.807 163.51 327.297 163.51C328.787 163.51 329.912 163.755 330.672 164.245C331.432 164.725 331.812 165.355 331.812 166.135C331.812 166.925 331.432 167.565 330.672 168.055C329.922 168.535 328.797 168.775 327.297 168.775C325.797 168.775 324.667 168.535 323.907 168.055C323.157 167.565 322.782 166.925 322.782 166.135ZM323.997 166.24C323.997 166.71 324.272 167.1 324.822 167.41C325.372 167.72 326.197 167.875 327.297 167.875C328.397 167.875 329.222 167.72 329.772 167.41C330.322 167.1 330.597 166.71 330.597 166.24V166.03C330.597 165.56 330.322 165.17 329.772 164.86C329.222 164.55 328.397 164.395 327.297 164.395C326.197 164.395 325.372 164.55 324.822 164.86C324.272 165.17 323.997 165.56 323.997 166.03V166.24ZM327.867 170.83V172.36H331.602V177.025H323.742C323.502 177.025 323.317 176.96 323.187 176.83C323.057 176.7 322.992 176.51 322.992 176.26V172.36H326.742V170.83H321.177V169.855H333.417V170.83H327.867ZM330.477 173.275H324.117V176.095H330.477V173.275Z" fill="white"/>
</svg>
