<svg width="575" height="300" viewBox="0 0 575 300" fill="none" xmlns="http://www.w3.org/2000/svg">
<path d="M583.5 299.5L0.868897 299.5L174.638 0.500029L583.5 0.500061L583.5 299.5Z" stroke="white"/>
<path d="M474.078 126.344V124.455H485.335V126.344H480.796V139H478.609V126.344H474.078ZM501.232 131.727C501.232 133.28 500.948 134.616 500.38 135.733C499.812 136.846 499.033 137.703 498.043 138.304C497.058 138.901 495.939 139.199 494.684 139.199C493.424 139.199 492.3 138.901 491.31 138.304C490.325 137.703 489.549 136.843 488.981 135.726C488.413 134.608 488.128 133.276 488.128 131.727C488.128 130.174 488.413 128.841 488.981 127.729C489.549 126.611 490.325 125.754 491.31 125.158C492.3 124.556 493.424 124.256 494.684 124.256C495.939 124.256 497.058 124.556 498.043 125.158C499.033 125.754 499.812 126.611 500.38 127.729C500.948 128.841 501.232 130.174 501.232 131.727ZM499.059 131.727C499.059 130.544 498.867 129.547 498.484 128.737C498.105 127.923 497.584 127.307 496.921 126.891C496.263 126.469 495.517 126.259 494.684 126.259C493.846 126.259 493.098 126.469 492.44 126.891C491.781 127.307 491.261 127.923 490.877 128.737C490.498 129.547 490.309 130.544 490.309 131.727C490.309 132.911 490.498 133.91 490.877 134.724C491.261 135.534 491.781 136.15 492.44 136.571C493.098 136.988 493.846 137.196 494.684 137.196C495.517 137.196 496.263 136.988 496.921 136.571C497.584 136.15 498.105 135.534 498.484 134.724C498.867 133.91 499.059 132.911 499.059 131.727ZM512.061 139V124.455H517.388C518.42 124.455 519.275 124.625 519.952 124.966C520.629 125.302 521.136 125.759 521.472 126.337C521.808 126.91 521.976 127.556 521.976 128.276C521.976 128.882 521.865 129.393 521.642 129.81C521.42 130.222 521.121 130.553 520.747 130.804C520.378 131.05 519.971 131.23 519.526 131.344V131.486C520.009 131.509 520.48 131.666 520.939 131.955C521.403 132.239 521.787 132.643 522.09 133.169C522.393 133.695 522.544 134.334 522.544 135.087C522.544 135.83 522.369 136.498 522.019 137.089C521.673 137.677 521.138 138.143 520.414 138.489C519.689 138.83 518.763 139 517.637 139H512.061ZM514.256 137.118H517.424C518.475 137.118 519.227 136.914 519.682 136.507C520.137 136.1 520.364 135.591 520.364 134.98C520.364 134.521 520.248 134.099 520.016 133.716C519.784 133.332 519.452 133.027 519.022 132.8C518.595 132.572 518.089 132.459 517.502 132.459H514.256V137.118ZM514.256 130.747H517.196C517.689 130.747 518.131 130.652 518.524 130.463C518.922 130.274 519.237 130.009 519.469 129.668C519.706 129.322 519.824 128.915 519.824 128.446C519.824 127.845 519.613 127.34 519.192 126.933C518.771 126.526 518.124 126.322 517.253 126.322H514.256V130.747ZM526.547 139V124.455H535.667V126.344H528.742V130.776H535.191V132.658H528.742V137.111H535.752V139H526.547Z" fill="#F8D554"/>
<path d="M334.464 164.465V172.295H333.354V164.465H334.464ZM330.444 168.44H328.464V167.495H330.444V164.675H331.524V172.13H330.444V168.44ZM326.154 169.115C326.094 169.115 326.039 169.145 325.989 169.205C325.759 169.635 325.459 170.08 325.089 170.54C324.729 170.99 324.259 171.51 323.679 172.1L322.884 171.41C323.614 170.64 324.169 169.985 324.549 169.445C324.939 168.895 325.214 168.36 325.374 167.84C325.544 167.31 325.629 166.71 325.629 166.04V165.215H326.724V166.07C326.724 167.03 326.574 167.86 326.274 168.56L326.349 168.605L326.529 168.455C326.639 168.375 326.739 168.335 326.829 168.335C326.939 168.335 327.039 168.385 327.129 168.485L329.499 171.095L328.719 171.845L326.364 169.205C326.304 169.145 326.234 169.115 326.154 169.115ZM325.644 173.12H334.464V178.145H333.339V174.095H325.644V173.12ZM347.418 169.88H344.688V168.95H347.418V167.12H344.688V166.19H347.418V164.465H348.558V174.35H347.418V169.88ZM341.223 169.175C341.153 169.175 341.093 169.205 341.043 169.265C340.783 169.725 340.443 170.195 340.023 170.675C339.613 171.155 339.043 171.76 338.313 172.49L337.473 171.755C338.313 170.945 338.958 170.255 339.408 169.685C339.868 169.115 340.198 168.55 340.398 167.99C340.598 167.42 340.698 166.77 340.698 166.04V165.095H341.838V166.085C341.838 167.095 341.663 167.985 341.313 168.755L341.373 168.785L341.613 168.59C341.733 168.5 341.843 168.455 341.943 168.455C342.063 168.455 342.168 168.505 342.258 168.605L345.093 171.47L344.268 172.25L341.403 169.265C341.353 169.205 341.293 169.175 341.223 169.175ZM348.828 176.825V177.77H340.968C340.728 177.77 340.543 177.705 340.413 177.575C340.283 177.445 340.218 177.255 340.218 177.005V173.345H341.373V176.825H348.828ZM364.377 170.555H362.217V177.515H361.077V164.495H362.217V169.595H364.377V170.555ZM352.197 165.5H358.377V173.855H352.197V165.5ZM353.307 172.91H357.267V166.445H353.307V172.91ZM378.801 170.555H376.641V177.515H375.501V164.495H376.641V169.595H378.801V170.555ZM373.926 172.685L374.076 173.6C372.546 173.91 370.636 174.065 368.346 174.065H366.756V165.53H372.741V166.49H367.896V173.12H368.331C370.531 173.12 372.396 172.975 373.926 172.685ZM396.365 164.465V177.485H395.24V170.105H392.45C392.4 171.445 392.06 172.46 391.43 173.15C390.8 173.83 389.99 174.17 389 174.17C387.96 174.17 387.12 173.795 386.48 173.045C385.85 172.295 385.535 171.19 385.535 169.73C385.535 168.26 385.85 167.155 386.48 166.415C387.11 165.665 387.95 165.29 389 165.29C389.97 165.29 390.765 165.615 391.385 166.265C392.005 166.915 392.36 167.875 392.45 169.145H395.24V164.465H396.365ZM391.265 169.13C391.265 168.2 391.055 167.49 390.635 167C390.225 166.5 389.68 166.25 389 166.25C388.32 166.25 387.775 166.5 387.365 167C386.955 167.49 386.75 168.2 386.75 169.13V170.33C386.75 171.26 386.955 171.975 387.365 172.475C387.775 172.965 388.32 173.21 389 173.21C389.68 173.21 390.225 172.965 390.635 172.475C391.055 171.975 391.265 171.26 391.265 170.33V169.13ZM401.234 166.85C401.234 166.13 401.609 165.55 402.359 165.11C403.119 164.67 404.244 164.45 405.734 164.45C407.224 164.45 408.344 164.67 409.094 165.11C409.854 165.55 410.234 166.13 410.234 166.85C410.234 167.58 409.859 168.165 409.109 168.605C408.359 169.045 407.234 169.265 405.734 169.265C404.234 169.265 403.109 169.045 402.359 168.605C401.609 168.165 401.234 167.58 401.234 166.85ZM402.449 166.94C402.449 167.37 402.719 167.72 403.259 167.99C403.809 168.26 404.634 168.395 405.734 168.395C406.834 168.395 407.654 168.26 408.194 167.99C408.744 167.72 409.019 167.37 409.019 166.94V166.76C409.019 166.33 408.744 165.98 408.194 165.71C407.654 165.44 406.834 165.305 405.734 165.305C404.634 165.305 403.809 165.44 403.259 165.71C402.719 165.98 402.449 166.33 402.449 166.76V166.94ZM406.304 171.2V172.565H410.009V175.79H402.614V177.2H410.399V178.145H402.269C402.029 178.145 401.844 178.08 401.714 177.95C401.584 177.82 401.519 177.63 401.519 177.38V174.905H408.914V173.495H401.429V172.565H405.179V171.2H399.614V170.27H411.854V171.2H406.304ZM425.198 164.465V177.485H424.058V164.465H425.198ZM422.348 172.925L422.498 173.84C420.948 174.14 418.978 174.29 416.588 174.29H414.968V169.265H419.693V166.415H414.908V165.455H420.833V170.21H416.093V173.36H416.573C418.843 173.36 420.768 173.215 422.348 172.925ZM438.962 169.655H430.337V164.945H431.462V168.71H438.962V169.655ZM440.702 171.32V172.295H428.462V171.32H440.702ZM431.357 176.795H439.127V177.755H430.967C430.727 177.755 430.542 177.69 430.412 177.56C430.282 177.43 430.217 177.24 430.217 176.99V173.705H431.357V176.795ZM459.721 172.07H454.156V177.965H453.016V172.07H447.481V171.11H456.256C456.616 169.54 456.801 167.865 456.811 166.085V166.01H449.101V165.05H457.921V166.01C457.921 167.74 457.751 169.44 457.411 171.11H459.721V172.07ZM472 168.26H469.135V167.3H472V164.465H473.14V172.22H472V168.26ZM465.895 168.71C465.825 168.71 465.765 168.74 465.715 168.8C465.445 169.25 465.09 169.715 464.65 170.195C464.22 170.665 463.65 171.23 462.94 171.89L462.1 171.14C462.95 170.38 463.605 169.73 464.065 169.19C464.525 168.64 464.855 168.1 465.055 167.57C465.265 167.03 465.37 166.42 465.37 165.74V164.915H466.51V165.8C466.51 166.73 466.34 167.57 466 168.32L466.06 168.35L466.315 168.14C466.425 168.05 466.535 168.005 466.645 168.005C466.755 168.005 466.855 168.05 466.945 168.14L469.81 170.795L468.985 171.59L466.09 168.8C466.03 168.74 465.965 168.71 465.895 168.71ZM473.215 175.34C473.215 175.89 473.055 176.38 472.735 176.81C472.425 177.25 471.955 177.595 471.325 177.845C470.695 178.095 469.925 178.22 469.015 178.22C468.105 178.22 467.33 178.095 466.69 177.845C466.06 177.595 465.585 177.25 465.265 176.81C464.955 176.38 464.8 175.89 464.8 175.34C464.8 174.79 464.955 174.3 465.265 173.87C465.585 173.43 466.06 173.085 466.69 172.835C467.33 172.585 468.105 172.46 469.015 172.46C469.925 172.46 470.695 172.585 471.325 172.835C471.955 173.085 472.425 173.43 472.735 173.87C473.055 174.3 473.215 174.79 473.215 175.34ZM472 175.22C472 174.7 471.75 174.265 471.25 173.915C470.76 173.565 470.015 173.39 469.015 173.39C468.015 173.39 467.265 173.57 466.765 173.93C466.265 174.28 466.015 174.71 466.015 175.22V175.475C466.015 175.985 466.265 176.415 466.765 176.765C467.265 177.125 468.015 177.305 469.015 177.305C470.015 177.305 470.76 177.125 471.25 176.765C471.75 176.415 472 175.985 472 175.475V175.22ZM488.959 170.78H486.919V177.485H485.794V164.465H486.919V169.82H488.959V170.78ZM482.599 166.595H476.959V165.65H483.709V166.805C483.709 168.395 483.529 169.98 483.169 171.56L482.074 171.395C482.424 169.945 482.599 168.46 482.599 166.94V166.595ZM484.714 173.21L484.819 174.125C483.719 174.305 482.404 174.44 480.874 174.53C479.354 174.62 477.789 174.665 476.179 174.665L476.074 173.705C477.074 173.705 478.069 173.69 479.059 173.66V169.595H480.169V173.615C481.979 173.535 483.494 173.4 484.714 173.21ZM506.508 164.465V177.485H505.368V164.465H506.508ZM503.493 172.685L503.643 173.6C502.093 173.91 500.163 174.065 497.853 174.065H496.248V165.53H502.293V166.49H497.403V173.105H497.823C500.113 173.105 502.003 172.965 503.493 172.685ZM522.402 170.555H520.242V177.515H519.102V164.495H520.242V169.595H522.402V170.555ZM514.272 169.97C514.392 169.97 514.507 170.025 514.617 170.135L517.542 173.6L516.687 174.335L513.747 170.75C513.687 170.69 513.622 170.66 513.552 170.66C513.482 170.66 513.432 170.69 513.402 170.75C513.132 171.29 512.777 171.845 512.337 172.415C511.907 172.975 511.317 173.68 510.567 174.53L509.727 173.825C510.597 172.905 511.262 172.11 511.722 171.44C512.192 170.77 512.532 170.105 512.742 169.445C512.952 168.775 513.057 168.015 513.057 167.165V166.595H510.117V165.635H517.107V166.595H514.182V167.195C514.182 168.315 514.002 169.32 513.642 170.21L513.717 170.27L513.957 170.09C514.057 170.01 514.162 169.97 514.272 169.97ZM535.431 164.465V174.35H534.276V164.465H535.431ZM524.631 168.515C524.631 167.815 524.776 167.205 525.066 166.685C525.366 166.165 525.776 165.77 526.296 165.5C526.816 165.22 527.411 165.08 528.081 165.08C528.741 165.08 529.331 165.22 529.851 165.5C530.381 165.77 530.791 166.165 531.081 166.685C531.381 167.205 531.531 167.815 531.531 168.515C531.531 169.205 531.381 169.81 531.081 170.33C530.791 170.85 530.381 171.25 529.851 171.53C529.331 171.8 528.741 171.935 528.081 171.935C527.411 171.935 526.816 171.8 526.296 171.53C525.776 171.25 525.366 170.855 525.066 170.345C524.776 169.825 524.631 169.215 524.631 168.515ZM530.316 168.83V168.2C530.316 167.54 530.106 167.015 529.686 166.625C529.276 166.225 528.741 166.025 528.081 166.025C527.411 166.025 526.866 166.225 526.446 166.625C526.036 167.025 525.831 167.55 525.831 168.2V168.83C525.831 169.48 526.041 170.005 526.461 170.405C526.881 170.795 527.421 170.99 528.081 170.99C528.741 170.99 529.276 170.795 529.686 170.405C530.106 170.005 530.316 169.48 530.316 168.83ZM527.091 177.005V173.27H528.246V176.825H535.701V177.77H527.841C527.601 177.77 527.416 177.705 527.286 177.575C527.156 177.445 527.091 177.255 527.091 177.005Z" fill="white"/>
<path d="M249.639 206.56H247.554V209.695H246.414V202.465H247.554V205.6H249.639V206.56ZM244.899 208.69C244.179 208.84 243.309 208.96 242.289 209.05C241.279 209.13 240.199 209.17 239.049 209.17H237.519V203.14H243.459V204.1H238.644V208.24H239.064C240.144 208.24 241.179 208.2 242.169 208.12C243.169 208.04 244.029 207.93 244.749 207.79L244.899 208.69ZM246.429 210.535H247.554V216.025H240.204C239.964 216.025 239.779 215.96 239.649 215.83C239.519 215.7 239.454 215.51 239.454 215.26V210.535H240.579V212.26H246.429V210.535ZM246.429 213.235H240.579V215.05H246.429V213.235ZM264.063 206.56H261.978V209.695H260.838V202.465H261.978V205.6H264.063V206.56ZM259.323 208.69C258.603 208.84 257.733 208.96 256.713 209.05C255.703 209.13 254.623 209.17 253.473 209.17H251.943V203.14H257.883V204.1H253.068V208.24H253.488C254.568 208.24 255.603 208.2 256.593 208.12C257.593 208.04 258.453 207.93 259.173 207.79L259.323 208.69ZM260.853 210.535H261.978V216.025H254.628C254.388 216.025 254.203 215.96 254.073 215.83C253.943 215.7 253.878 215.51 253.878 215.26V210.535H255.003V212.26H260.853V210.535ZM260.853 213.235H255.003V215.05H260.853V213.235ZM278.487 207.13H276.402V210.7H275.262V202.465H276.402V206.17H278.487V207.13ZM271.827 203.725H267.822V202.78H271.827V203.725ZM269.727 210.385C269.107 210.385 268.562 210.29 268.092 210.1C267.622 209.91 267.257 209.645 266.997 209.305C266.747 208.965 266.622 208.58 266.622 208.15C266.622 207.72 266.727 207.35 266.937 207.04C267.157 206.72 267.482 206.47 267.912 206.29V206.2H265.632V205.285H273.762V206.2H271.542V206.29C271.972 206.47 272.292 206.72 272.502 207.04C272.722 207.35 272.832 207.72 272.832 208.15C272.832 208.58 272.702 208.965 272.442 209.305C272.192 209.645 271.832 209.91 271.362 210.1C270.892 210.29 270.347 210.385 269.727 210.385ZM269.577 209.44H269.877C270.437 209.44 270.892 209.305 271.242 209.035C271.592 208.755 271.767 208.37 271.767 207.88C271.767 207.38 271.592 206.995 271.242 206.725C270.892 206.445 270.437 206.305 269.877 206.305H269.577C269.017 206.305 268.562 206.445 268.212 206.725C267.862 206.995 267.687 207.38 267.687 207.88C267.687 208.37 267.862 208.755 268.212 209.035C268.562 209.305 269.017 209.44 269.577 209.44ZM268.302 211.48H276.402V216.025H269.052C268.812 216.025 268.627 215.96 268.497 215.83C268.367 215.7 268.302 215.51 268.302 215.26V211.48ZM269.442 215.08H275.262V212.425H269.442V215.08ZM281.886 204.865C281.886 204.135 282.261 203.555 283.011 203.125C283.761 202.685 284.886 202.465 286.386 202.465C287.886 202.465 289.011 202.685 289.761 203.125C290.511 203.555 290.886 204.135 290.886 204.865C290.886 205.595 290.511 206.18 289.761 206.62C289.011 207.06 287.886 207.28 286.386 207.28C284.886 207.28 283.761 207.06 283.011 206.62C282.261 206.18 281.886 205.595 281.886 204.865ZM289.671 204.94V204.775C289.671 204.345 289.396 203.995 288.846 203.725C288.306 203.445 287.486 203.305 286.386 203.305C285.286 203.305 284.461 203.445 283.911 203.725C283.371 203.995 283.101 204.345 283.101 204.775V204.94C283.101 205.37 283.371 205.725 283.911 206.005C284.461 206.275 285.286 206.41 286.386 206.41C287.486 206.41 288.306 206.275 288.846 206.005C289.396 205.725 289.671 205.37 289.671 204.94ZM292.506 208.315V209.275H280.266V208.315H292.506ZM282.171 215.335V212.875H289.566V211.465H282.081V210.535H290.661V213.745H283.266V215.17H291.051V216.1H282.921C282.681 216.1 282.496 216.035 282.366 215.905C282.236 215.775 282.171 215.585 282.171 215.335ZM304.865 203.68H300.8V202.78H310.025V203.68H305.99C305.97 203.98 305.91 204.25 305.81 204.49C305.72 204.73 305.575 204.965 305.375 205.195L305.435 205.225L305.765 205C305.905 204.91 306.035 204.865 306.155 204.865C306.255 204.865 306.37 204.89 306.5 204.94L310.565 206.62L309.98 207.43L305.72 205.585C305.59 205.525 305.455 205.495 305.315 205.495C305.195 205.495 305.075 205.52 304.955 205.57C304.565 205.87 304.035 206.175 303.365 206.485C302.705 206.785 301.855 207.11 300.815 207.46L300.23 206.65C301.4 206.26 302.305 205.915 302.945 205.615C303.595 205.315 304.065 205.015 304.355 204.715C304.645 204.415 304.815 204.07 304.865 203.68ZM305.975 209.29V210.61H309.68V213.745H302.27V215.245H310.07V216.1H301.94C301.7 216.1 301.515 216.035 301.385 215.905C301.255 215.775 301.19 215.585 301.19 215.335V212.95H308.585V211.45H301.1V210.61H304.835V209.29H299.285V208.345H311.525V209.29H305.975ZM324.899 202.465V215.485H323.774V210.01H321.224V209.08H323.774V206.26H321.224V205.33H323.774V202.465H324.899ZM320.909 207.73C320.909 209.19 320.594 210.295 319.964 211.045C319.334 211.795 318.504 212.17 317.474 212.17C316.434 212.17 315.599 211.795 314.969 211.045C314.339 210.295 314.024 209.19 314.024 207.73C314.024 206.27 314.339 205.165 314.969 204.415C315.599 203.665 316.434 203.29 317.474 203.29C318.504 203.29 319.334 203.665 319.964 204.415C320.594 205.165 320.909 206.27 320.909 207.73ZM319.709 207.13C319.709 206.19 319.504 205.475 319.094 204.985C318.684 204.485 318.144 204.235 317.474 204.235C316.794 204.235 316.249 204.485 315.839 204.985C315.429 205.475 315.224 206.19 315.224 207.13V208.33C315.224 209.27 315.429 209.99 315.839 210.49C316.249 210.98 316.794 211.225 317.474 211.225C318.144 211.225 318.684 210.98 319.094 210.49C319.504 209.99 319.709 209.27 319.709 208.33V207.13ZM333.698 203.95H329.543V202.99H338.963V203.95H334.853C334.843 204.36 334.783 204.73 334.673 205.06C334.573 205.39 334.403 205.705 334.163 206.005L334.223 206.035L334.523 205.81C334.663 205.71 334.803 205.66 334.943 205.66C335.073 205.66 335.183 205.685 335.273 205.735L339.518 207.955L338.888 208.81L334.478 206.44C334.348 206.37 334.218 206.335 334.088 206.335C333.988 206.335 333.898 206.355 333.818 206.395C333.428 206.775 332.898 207.16 332.228 207.55C331.558 207.94 330.683 208.375 329.603 208.855L328.988 208C330.188 207.49 331.123 207.025 331.793 206.605C332.463 206.185 332.938 205.77 333.218 205.36C333.508 204.95 333.668 204.48 333.698 203.95ZM340.373 211.135H334.823V216.01H333.683V211.135H328.133V210.175H340.373V211.135ZM353.057 207.655H344.432V202.945H345.557V206.71H353.057V207.655ZM354.797 209.32V210.295H342.557V209.32H354.797ZM345.452 214.795H353.222V215.755H345.062C344.822 215.755 344.637 215.69 344.507 215.56C344.377 215.43 344.312 215.24 344.312 214.99V211.705H345.452V214.795ZM373.141 202.465V215.485H372.031V208.495H369.901V215.125H368.806V202.69H369.901V207.55H372.031V202.465H373.141ZM367.861 210.505L368.011 211.435C366.781 211.735 365.266 211.885 363.466 211.885H362.206V203.785H363.301V210.94H363.736C364.516 210.94 365.261 210.905 365.971 210.835C366.691 210.755 367.321 210.645 367.861 210.505ZM388.24 209.05V210.01H376V209.05H379.255V207.28C378.705 207.05 378.29 206.75 378.01 206.38C377.74 206.01 377.605 205.59 377.605 205.12C377.605 204.34 377.985 203.71 378.745 203.23C379.505 202.74 380.63 202.495 382.12 202.495C383.61 202.495 384.735 202.74 385.495 203.23C386.255 203.71 386.635 204.34 386.635 205.12C386.635 205.59 386.495 206.01 386.215 206.38C385.945 206.75 385.535 207.05 384.985 207.28V209.05H388.24ZM382.12 206.86C383.23 206.86 384.06 206.705 384.61 206.395C385.16 206.085 385.435 205.69 385.435 205.21V205C385.435 204.53 385.155 204.14 384.595 203.83C384.045 203.52 383.22 203.365 382.12 203.365C381.02 203.365 380.195 203.52 379.645 203.83C379.095 204.14 378.82 204.53 378.82 205V205.21C378.82 205.69 379.09 206.085 379.63 206.395C380.18 206.705 381.01 206.86 382.12 206.86ZM380.35 209.05H383.89V207.595C383.4 207.695 382.81 207.745 382.12 207.745C381.43 207.745 380.84 207.695 380.35 207.595V209.05ZM386.56 213.685C386.56 214.195 386.39 214.645 386.05 215.035C385.72 215.425 385.22 215.73 384.55 215.95C383.89 216.18 383.08 216.295 382.12 216.295C381.16 216.295 380.345 216.18 379.675 215.95C379.015 215.73 378.515 215.425 378.175 215.035C377.845 214.645 377.68 214.195 377.68 213.685C377.68 213.185 377.845 212.745 378.175 212.365C378.515 211.975 379.015 211.67 379.675 211.45C380.345 211.23 381.16 211.12 382.12 211.12C383.08 211.12 383.89 211.23 384.55 211.45C385.22 211.67 385.72 211.975 386.05 212.365C386.39 212.745 386.56 213.185 386.56 213.685ZM385.36 213.595C385.36 213.155 385.09 212.785 384.55 212.485C384.02 212.175 383.21 212.02 382.12 212.02C381.39 212.02 380.78 212.095 380.29 212.245C379.8 212.385 379.44 212.575 379.21 212.815C378.98 213.055 378.865 213.315 378.865 213.595V213.805C378.865 214.085 378.98 214.345 379.21 214.585C379.44 214.825 379.8 215.015 380.29 215.155C380.78 215.305 381.39 215.38 382.12 215.38C383.21 215.38 384.02 215.225 384.55 214.915C385.09 214.615 385.36 214.245 385.36 213.805V213.595ZM407.259 210.07H401.694V215.965H400.554V210.07H395.019V209.11H403.794C404.154 207.54 404.339 205.865 404.349 204.085V204.01H396.639V203.05H405.459V204.01C405.459 205.74 405.289 207.44 404.949 209.11H407.259V210.07ZM419.538 206.26H416.673V205.3H419.538V202.465H420.678V210.22H419.538V206.26ZM413.433 206.71C413.363 206.71 413.303 206.74 413.253 206.8C412.983 207.25 412.628 207.715 412.188 208.195C411.758 208.665 411.188 209.23 410.478 209.89L409.638 209.14C410.488 208.38 411.143 207.73 411.603 207.19C412.063 206.64 412.393 206.1 412.593 205.57C412.803 205.03 412.908 204.42 412.908 203.74V202.915H414.048V203.8C414.048 204.73 413.878 205.57 413.538 206.32L413.598 206.35L413.853 206.14C413.963 206.05 414.073 206.005 414.183 206.005C414.293 206.005 414.393 206.05 414.483 206.14L417.348 208.795L416.523 209.59L413.628 206.8C413.568 206.74 413.503 206.71 413.433 206.71ZM420.753 213.34C420.753 213.89 420.593 214.38 420.273 214.81C419.963 215.25 419.493 215.595 418.863 215.845C418.233 216.095 417.463 216.22 416.553 216.22C415.643 216.22 414.868 216.095 414.228 215.845C413.598 215.595 413.123 215.25 412.803 214.81C412.493 214.38 412.338 213.89 412.338 213.34C412.338 212.79 412.493 212.3 412.803 211.87C413.123 211.43 413.598 211.085 414.228 210.835C414.868 210.585 415.643 210.46 416.553 210.46C417.463 210.46 418.233 210.585 418.863 210.835C419.493 211.085 419.963 211.43 420.273 211.87C420.593 212.3 420.753 212.79 420.753 213.34ZM419.538 213.22C419.538 212.7 419.288 212.265 418.788 211.915C418.298 211.565 417.553 211.39 416.553 211.39C415.553 211.39 414.803 211.57 414.303 211.93C413.803 212.28 413.553 212.71 413.553 213.22V213.475C413.553 213.985 413.803 214.415 414.303 214.765C414.803 215.125 415.553 215.305 416.553 215.305C417.553 215.305 418.298 215.125 418.788 214.765C419.288 214.415 419.538 213.985 419.538 213.475V213.22ZM436.497 208.78H434.457V215.485H433.332V202.465H434.457V207.82H436.497V208.78ZM430.137 204.595H424.497V203.65H431.247V204.805C431.247 206.395 431.067 207.98 430.707 209.56L429.612 209.395C429.962 207.945 430.137 206.46 430.137 204.94V204.595ZM432.252 211.21L432.357 212.125C431.257 212.305 429.942 212.44 428.412 212.53C426.892 212.62 425.327 212.665 423.717 212.665L423.612 211.705C424.612 211.705 425.607 211.69 426.597 211.66V207.595H427.707V211.615C429.517 211.535 431.032 211.4 432.252 211.21ZM455.516 208.93H453.476V215.485H452.351V202.465H453.476V207.97H455.516V208.93ZM448.976 203.995H444.971V203.065H448.976V203.995ZM451.286 211.96L451.391 212.875C450.291 213.055 448.976 213.195 447.446 213.295C445.926 213.385 444.356 213.43 442.736 213.43L442.631 212.47C443.751 212.47 444.986 212.445 446.336 212.395V210.61C445.546 210.53 444.921 210.29 444.461 209.89C444.001 209.48 443.771 208.98 443.771 208.39C443.771 207.96 443.876 207.59 444.086 207.28C444.306 206.96 444.636 206.71 445.076 206.53V206.44H442.841V205.54H450.911V206.44H448.751V206.53C449.181 206.71 449.506 206.96 449.726 207.28C449.946 207.6 450.056 207.97 450.056 208.39C450.056 208.99 449.821 209.495 449.351 209.905C448.881 210.305 448.241 210.54 447.431 210.61V212.335C448.991 212.255 450.276 212.13 451.286 211.96ZM446.756 209.71H447.071C447.641 209.71 448.106 209.575 448.466 209.305C448.826 209.025 449.006 208.635 449.006 208.135C449.006 207.635 448.826 207.25 448.466 206.98C448.106 206.7 447.641 206.56 447.071 206.56H446.756C446.186 206.56 445.721 206.7 445.361 206.98C445.001 207.25 444.821 207.635 444.821 208.135C444.821 208.635 445.001 209.025 445.361 209.305C445.721 209.575 446.186 209.71 446.756 209.71ZM467.405 208.45H464.645V207.52H467.405V205.48H464.645V204.55H467.405V202.465H468.545V212.35H467.405V208.45ZM464.135 209.695H458V203.305H464.135V209.695ZM463.01 204.25H459.125V208.75H463.01V204.25ZM468.815 214.825V215.77H460.955C460.715 215.77 460.53 215.705 460.4 215.575C460.27 215.445 460.205 215.255 460.205 215.005V211.27H461.36V214.825H468.815ZM486.349 202.465H487.489V215.485H486.349V202.465ZM477.094 203.395H478.219V206.68H482.164V203.38H483.274V211.975H477.094V203.395ZM482.164 211.015V207.64H478.219V211.015H482.164ZM492.373 204.85C492.373 204.13 492.748 203.55 493.498 203.11C494.258 202.67 495.383 202.45 496.873 202.45C498.363 202.45 499.483 202.67 500.233 203.11C500.993 203.55 501.373 204.13 501.373 204.85C501.373 205.58 500.998 206.165 500.248 206.605C499.498 207.045 498.373 207.265 496.873 207.265C495.373 207.265 494.248 207.045 493.498 206.605C492.748 206.165 492.373 205.58 492.373 204.85ZM493.588 204.94C493.588 205.37 493.858 205.72 494.398 205.99C494.948 206.26 495.773 206.395 496.873 206.395C497.973 206.395 498.793 206.26 499.333 205.99C499.883 205.72 500.158 205.37 500.158 204.94V204.76C500.158 204.33 499.883 203.98 499.333 203.71C498.793 203.44 497.973 203.305 496.873 203.305C495.773 203.305 494.948 203.44 494.398 203.71C493.858 203.98 493.588 204.33 493.588 204.76V204.94ZM499.663 209.155V210.565H501.148V213.79H493.753V215.2H501.538V216.145H493.408C493.168 216.145 492.983 216.08 492.853 215.95C492.723 215.82 492.658 215.63 492.658 215.38V212.905H500.053V211.495H492.568V210.565H494.083V209.155H490.753V208.225H502.993V209.155H499.663ZM498.583 209.155H495.163V210.565H498.583V209.155ZM515.337 204.31H511.152V203.35H520.647V204.31H516.492C516.492 204.8 516.437 205.24 516.327 205.63C516.217 206.02 516.032 206.39 515.772 206.74L515.817 206.755L516.102 206.545C516.222 206.435 516.362 206.38 516.522 206.38C516.622 206.38 516.732 206.41 516.852 206.47L521.247 208.945L520.617 209.83L516.102 207.19C515.942 207.11 515.802 207.07 515.682 207.07C515.582 207.07 515.492 207.095 515.412 207.145C515.022 207.565 514.487 207.995 513.807 208.435C513.127 208.875 512.242 209.355 511.152 209.875L510.537 209.035C511.787 208.445 512.752 207.91 513.432 207.43C514.122 206.94 514.607 206.455 514.887 205.975C515.177 205.485 515.327 204.93 515.337 204.31ZM522.012 213.04V214H509.772V213.04H515.322V209.8H516.462V213.04H522.012ZM534.291 205.69V202.465H535.431V210.295H534.291V206.62H531.561V205.69H534.291ZM525.381 209.845L524.526 209.125C525.366 208.465 526.016 207.895 526.476 207.415C526.936 206.925 527.266 206.445 527.466 205.975C527.676 205.495 527.781 204.96 527.781 204.37V204.22H524.916V203.26H531.756V204.22H528.921V204.415C528.921 205.265 528.746 206.01 528.396 206.65L528.486 206.695L528.726 206.515C528.836 206.435 528.946 206.395 529.056 206.395C529.186 206.395 529.301 206.44 529.401 206.53L532.191 208.87L531.351 209.62L528.516 207.16C528.436 207.1 528.361 207.07 528.291 207.07C528.211 207.07 528.141 207.1 528.081 207.16C527.811 207.55 527.466 207.95 527.046 208.36C526.626 208.77 526.071 209.265 525.381 209.845ZM535.506 213.4C535.506 213.94 535.346 214.42 535.026 214.84C534.716 215.27 534.241 215.605 533.601 215.845C532.971 216.095 532.201 216.22 531.291 216.22C530.371 216.22 529.591 216.095 528.951 215.845C528.321 215.605 527.846 215.27 527.526 214.84C527.216 214.42 527.061 213.94 527.061 213.4C527.061 212.86 527.216 212.38 527.526 211.96C527.846 211.53 528.321 211.195 528.951 210.955C529.591 210.705 530.371 210.58 531.291 210.58C532.201 210.58 532.971 210.705 533.601 210.955C534.241 211.195 534.716 211.53 535.026 211.96C535.346 212.38 535.506 212.86 535.506 213.4ZM534.306 213.28C534.306 212.77 534.056 212.345 533.556 212.005C533.056 211.655 532.301 211.48 531.291 211.48C530.271 211.48 529.506 211.655 528.996 212.005C528.496 212.345 528.246 212.77 528.246 213.28V213.535C528.246 214.035 528.496 214.455 528.996 214.795C529.506 215.145 530.271 215.32 531.291 215.32C532.301 215.32 533.056 215.145 533.556 214.795C534.056 214.455 534.306 214.035 534.306 213.535V213.28Z" fill="white"/>
<path d="M122.507 244.005V240.465H123.647V250.35H122.507V244.965H119.777V244.005H122.507ZM116.507 245.415C116.437 245.415 116.372 245.445 116.312 245.505C116.042 245.925 115.697 246.36 115.277 246.81C114.857 247.25 114.297 247.79 113.597 248.43L112.742 247.695C113.582 246.975 114.232 246.355 114.692 245.835C115.152 245.305 115.482 244.785 115.682 244.275C115.892 243.755 115.997 243.175 115.997 242.535V242.385H113.132V241.44H119.972V242.385H117.137V242.595C117.137 243.485 116.962 244.28 116.612 244.98L116.702 245.025L116.927 244.845C117.037 244.765 117.142 244.725 117.242 244.725C117.362 244.725 117.482 244.775 117.602 244.875L120.407 247.425L119.567 248.16L116.732 245.505C116.672 245.445 116.597 245.415 116.507 245.415ZM123.917 252.825V253.77H116.057C115.817 253.77 115.632 253.705 115.502 253.575C115.372 253.445 115.307 253.255 115.307 253.005V249.45H116.462V252.825H123.917ZM138.401 240.465V253.485H137.321V240.465H138.401ZM134.321 240.69H135.371V253.125H134.321V247.02H132.446V246.09H134.321V240.69ZM131.831 242.265H128.381V241.335H131.831V242.265ZM130.646 247.08C130.766 247.08 130.881 247.135 130.991 247.245L133.406 249.93L132.626 250.605L130.196 247.8C130.146 247.75 130.096 247.725 130.046 247.725C129.986 247.725 129.936 247.755 129.896 247.815C129.666 248.245 129.361 248.7 128.981 249.18C128.611 249.65 128.131 250.195 127.541 250.815L126.776 250.155C127.506 249.395 128.066 248.74 128.456 248.19C128.856 247.63 129.141 247.08 129.311 246.54C129.481 246 129.566 245.385 129.566 244.695H127.091V243.78H133.076V244.695H130.616C130.616 245.635 130.466 246.48 130.166 247.23L130.226 247.275L130.361 247.17C130.451 247.11 130.546 247.08 130.646 247.08ZM152.495 240.465V248.355H151.355V244.74H148.625V243.81H151.355V240.465H152.495ZM142.445 248.025L141.59 247.305C142.43 246.615 143.08 246.025 143.54 245.535C144 245.035 144.33 244.545 144.53 244.065C144.74 243.585 144.845 243.04 144.845 242.43V242.265H141.98V241.305H148.82V242.265H145.985V242.49C145.985 243.34 145.81 244.095 145.46 244.755L145.55 244.8L145.79 244.635C145.9 244.545 146.01 244.5 146.12 244.5C146.25 244.5 146.365 244.545 146.465 244.635L149.255 247.035L148.415 247.785L145.58 245.28C145.5 245.22 145.425 245.19 145.355 245.19C145.275 245.19 145.205 245.22 145.145 245.28C144.885 245.67 144.55 246.07 144.14 246.48C143.73 246.88 143.165 247.395 142.445 248.025ZM143.9 249.165H152.495V254.145H151.37V250.125H143.9V249.165ZM157.079 244.545C157.079 243.875 157.249 243.275 157.589 242.745C157.939 242.205 158.469 241.775 159.179 241.455C159.889 241.135 160.764 240.975 161.804 240.975C162.844 240.975 163.719 241.135 164.429 241.455C165.139 241.775 165.664 242.205 166.004 242.745C166.354 243.275 166.529 243.875 166.529 244.545C166.529 245.215 166.354 245.82 166.004 246.36C165.664 246.9 165.139 247.33 164.429 247.65C163.719 247.97 162.844 248.13 161.804 248.13C160.764 248.13 159.889 247.97 159.179 247.65C158.469 247.33 157.939 246.9 157.589 246.36C157.249 245.82 157.079 245.215 157.079 244.545ZM165.299 244.725V244.38C165.299 243.92 165.174 243.505 164.924 243.135C164.684 242.755 164.299 242.455 163.769 242.235C163.249 242.005 162.594 241.89 161.804 241.89C161.014 241.89 160.354 242.005 159.824 242.235C159.304 242.455 158.919 242.755 158.669 243.135C158.429 243.505 158.309 243.92 158.309 244.38V244.725C158.309 245.435 158.599 246.025 159.179 246.495C159.759 246.965 160.634 247.2 161.804 247.2C162.974 247.2 163.849 246.965 164.429 246.495C165.009 246.025 165.299 245.435 165.299 244.725ZM155.684 251.025H167.924V252H155.684V251.025ZM182.348 251.04V252H170.108V251.04H175.658V248.475H171.908V244.41H179.408V242.205H171.833V241.26H180.548V245.325H173.048V247.53H180.938V248.475H176.798V251.04H182.348ZM200.692 240.465V253.485H199.597V240.465H200.692ZM196.612 240.69H197.677V253.125H196.612V245.955H194.527V245.01H196.612V240.69ZM192.967 246.12C193.087 246.12 193.202 246.19 193.312 246.33L195.697 249.675L194.887 250.365L192.487 246.915C192.437 246.855 192.387 246.825 192.337 246.825C192.287 246.825 192.247 246.855 192.217 246.915C192.007 247.435 191.717 247.975 191.347 248.535C190.987 249.085 190.497 249.765 189.877 250.575L189.082 249.9C189.812 248.97 190.372 248.17 190.762 247.5C191.152 246.82 191.432 246.15 191.602 245.49C191.772 244.82 191.857 244.06 191.857 243.21V242.775H189.397V241.815H195.352V242.775H192.937V243.21C192.937 244.37 192.777 245.4 192.457 246.3L192.532 246.345L192.682 246.225C192.792 246.155 192.887 246.12 192.967 246.12ZM212.851 241.845H205.186V240.885H213.961V241.62C213.961 242.93 213.806 244.27 213.496 245.64L212.416 245.49C212.696 244.31 212.841 243.095 212.851 241.845ZM215.791 246.69V247.68H203.551V246.69H208.576V244.095H209.701V246.69H215.791ZM214.111 251.61C214.111 252.13 213.941 252.59 213.601 252.99C213.271 253.4 212.771 253.72 212.101 253.95C211.441 254.18 210.631 254.295 209.671 254.295C208.711 254.295 207.896 254.18 207.226 253.95C206.566 253.72 206.066 253.4 205.726 252.99C205.396 252.59 205.231 252.13 205.231 251.61C205.231 251.09 205.396 250.63 205.726 250.23C206.066 249.83 206.566 249.515 207.226 249.285C207.896 249.055 208.711 248.94 209.671 248.94C210.631 248.94 211.441 249.055 212.101 249.285C212.771 249.515 213.271 249.83 213.601 250.23C213.941 250.63 214.111 251.09 214.111 251.61ZM212.911 251.505C212.911 251.035 212.641 250.64 212.101 250.32C211.571 250 210.761 249.84 209.671 249.84C208.591 249.84 207.776 250 207.226 250.32C206.686 250.64 206.416 251.035 206.416 251.505V251.73C206.416 252.19 206.686 252.58 207.226 252.9C207.776 253.22 208.591 253.38 209.671 253.38C210.761 253.38 211.571 253.22 212.101 252.9C212.641 252.58 212.911 252.19 212.911 251.73V251.505ZM230.605 246.795H228.49V253.515H227.35V240.495H228.49V245.835H230.605V246.795ZM224.155 242.175H219.895V241.2H224.155V242.175ZM217.9 243.975H225.925V244.905H223.705V244.995C224.615 245.445 225.07 246.31 225.07 247.59C225.07 248.24 224.935 248.805 224.665 249.285C224.395 249.755 224.02 250.115 223.54 250.365C223.07 250.615 222.545 250.74 221.965 250.74C221.385 250.74 220.855 250.615 220.375 250.365C219.905 250.115 219.535 249.755 219.265 249.285C218.995 248.805 218.86 248.24 218.86 247.59C218.86 246.31 219.315 245.445 220.225 244.995V244.905H217.9V243.975ZM223.96 247.095C223.96 246.425 223.78 245.915 223.42 245.565C223.06 245.205 222.575 245.025 221.965 245.025C221.365 245.025 220.88 245.205 220.51 245.565C220.15 245.925 219.97 246.435 219.97 247.095V247.71C219.97 248.36 220.155 248.87 220.525 249.24C220.895 249.6 221.375 249.78 221.965 249.78C222.555 249.78 223.035 249.6 223.405 249.24C223.775 248.87 223.96 248.36 223.96 247.71V247.095ZM242.899 245.655H234.274V240.945H235.399V244.71H242.899V245.655ZM244.639 247.32V248.295H232.399V247.32H244.639ZM235.294 252.795H243.064V253.755H234.904C234.664 253.755 234.479 253.69 234.349 253.56C234.219 253.43 234.154 253.24 234.154 252.99V249.705H235.294V252.795ZM262.983 240.465V253.485H261.873V246.495H259.743V253.125H258.648V240.69H259.743V245.55H261.873V240.465H262.983ZM257.703 248.505L257.853 249.435C256.623 249.735 255.108 249.885 253.308 249.885H252.048V241.785H253.143V248.94H253.578C254.358 248.94 255.103 248.905 255.813 248.835C256.533 248.755 257.163 248.645 257.703 248.505ZM278.082 247.05V248.01H265.842V247.05H269.097V245.28C268.547 245.05 268.132 244.75 267.852 244.38C267.582 244.01 267.447 243.59 267.447 243.12C267.447 242.34 267.827 241.71 268.587 241.23C269.347 240.74 270.472 240.495 271.962 240.495C273.452 240.495 274.577 240.74 275.337 241.23C276.097 241.71 276.477 242.34 276.477 243.12C276.477 243.59 276.337 244.01 276.057 244.38C275.787 244.75 275.377 245.05 274.827 245.28V247.05H278.082ZM271.962 244.86C273.072 244.86 273.902 244.705 274.452 244.395C275.002 244.085 275.277 243.69 275.277 243.21V243C275.277 242.53 274.997 242.14 274.437 241.83C273.887 241.52 273.062 241.365 271.962 241.365C270.862 241.365 270.037 241.52 269.487 241.83C268.937 242.14 268.662 242.53 268.662 243V243.21C268.662 243.69 268.932 244.085 269.472 244.395C270.022 244.705 270.852 244.86 271.962 244.86ZM270.192 247.05H273.732V245.595C273.242 245.695 272.652 245.745 271.962 245.745C271.272 245.745 270.682 245.695 270.192 245.595V247.05ZM276.402 251.685C276.402 252.195 276.232 252.645 275.892 253.035C275.562 253.425 275.062 253.73 274.392 253.95C273.732 254.18 272.922 254.295 271.962 254.295C271.002 254.295 270.187 254.18 269.517 253.95C268.857 253.73 268.357 253.425 268.017 253.035C267.687 252.645 267.522 252.195 267.522 251.685C267.522 251.185 267.687 250.745 268.017 250.365C268.357 249.975 268.857 249.67 269.517 249.45C270.187 249.23 271.002 249.12 271.962 249.12C272.922 249.12 273.732 249.23 274.392 249.45C275.062 249.67 275.562 249.975 275.892 250.365C276.232 250.745 276.402 251.185 276.402 251.685ZM275.202 251.595C275.202 251.155 274.932 250.785 274.392 250.485C273.862 250.175 273.052 250.02 271.962 250.02C271.232 250.02 270.622 250.095 270.132 250.245C269.642 250.385 269.282 250.575 269.052 250.815C268.822 251.055 268.707 251.315 268.707 251.595V251.805C268.707 252.085 268.822 252.345 269.052 252.585C269.282 252.825 269.642 253.015 270.132 253.155C270.622 253.305 271.232 253.38 271.962 253.38C273.052 253.38 273.862 253.225 274.392 252.915C274.932 252.615 275.202 252.245 275.202 251.805V251.595ZM290.316 240.465H291.441V253.485H290.316V240.465ZM280.956 244.365C280.956 243.745 281.111 243.2 281.421 242.73C281.731 242.25 282.156 241.885 282.696 241.635C283.236 241.375 283.846 241.245 284.526 241.245C285.206 241.245 285.816 241.375 286.356 241.635C286.896 241.885 287.321 242.25 287.631 242.73C287.941 243.2 288.096 243.745 288.096 244.365C288.096 244.985 287.941 245.53 287.631 246C287.321 246.47 286.896 246.835 286.356 247.095C285.816 247.345 285.206 247.47 284.526 247.47C283.846 247.47 283.236 247.345 282.696 247.095C282.156 246.835 281.731 246.47 281.421 246C281.111 245.53 280.956 244.985 280.956 244.365ZM286.896 244.545V244.185C286.896 243.585 286.676 243.1 286.236 242.73C285.796 242.36 285.226 242.175 284.526 242.175C283.826 242.175 283.256 242.36 282.816 242.73C282.376 243.1 282.156 243.585 282.156 244.185V244.545C282.156 245.145 282.376 245.63 282.816 246C283.256 246.37 283.826 246.555 284.526 246.555C285.226 246.555 285.796 246.37 286.236 246C286.676 245.63 286.896 245.145 286.896 244.545ZM280.326 249.78C282.026 249.78 283.666 249.74 285.246 249.66C286.826 249.58 288.166 249.455 289.266 249.285L289.386 250.2C288.256 250.38 286.896 250.52 285.306 250.62C283.726 250.71 282.101 250.755 280.431 250.755L280.326 249.78ZM309.845 243.345V245.325H311.915V246.27H309.845V248.22H308.72V240.465H309.845V242.4H311.915V243.345H309.845ZM302.81 247.38C302.15 247.38 301.56 247.25 301.04 246.99C300.53 246.73 300.13 246.355 299.84 245.865C299.55 245.375 299.405 244.8 299.405 244.14C299.405 243.48 299.55 242.905 299.84 242.415C300.13 241.925 300.53 241.55 301.04 241.29C301.56 241.03 302.15 240.9 302.81 240.9C303.47 240.9 304.055 241.03 304.565 241.29C305.075 241.55 305.475 241.925 305.765 242.415C306.055 242.905 306.2 243.48 306.2 244.14C306.2 244.8 306.055 245.375 305.765 245.865C305.475 246.355 305.075 246.73 304.565 246.99C304.055 247.25 303.47 247.38 302.81 247.38ZM302.81 246.45C303.46 246.45 303.985 246.265 304.385 245.895C304.795 245.525 305 245.03 305 244.41V243.87C305 243.25 304.795 242.755 304.385 242.385C303.985 242.015 303.46 241.83 302.81 241.83C302.15 241.83 301.615 242.015 301.205 242.385C300.805 242.755 300.605 243.25 300.605 243.87V244.41C300.605 245.03 300.805 245.525 301.205 245.895C301.615 246.265 302.15 246.45 302.81 246.45ZM309.95 251.34C309.95 251.89 309.795 252.38 309.485 252.81C309.175 253.25 308.71 253.595 308.09 253.845C307.47 254.095 306.71 254.22 305.81 254.22C304.92 254.22 304.16 254.095 303.53 253.845C302.91 253.595 302.44 253.25 302.12 252.81C301.81 252.38 301.655 251.89 301.655 251.34C301.655 250.79 301.81 250.3 302.12 249.87C302.44 249.43 302.91 249.085 303.53 248.835C304.16 248.585 304.92 248.46 305.81 248.46C306.71 248.46 307.47 248.585 308.09 248.835C308.71 249.085 309.175 249.43 309.485 249.87C309.795 250.3 309.95 250.79 309.95 251.34ZM308.75 251.22C308.75 250.7 308.505 250.265 308.015 249.915C307.535 249.565 306.8 249.39 305.81 249.39C304.83 249.39 304.095 249.57 303.605 249.93C303.115 250.28 302.87 250.71 302.87 251.22V251.475C302.87 251.985 303.115 252.415 303.605 252.765C304.095 253.125 304.83 253.305 305.81 253.305C306.8 253.305 307.535 253.125 308.015 252.765C308.505 252.415 308.75 251.985 308.75 251.475V251.22ZM315.329 242.865C315.329 242.135 315.704 241.555 316.454 241.125C317.204 240.685 318.329 240.465 319.829 240.465C321.329 240.465 322.454 240.685 323.204 241.125C323.954 241.555 324.329 242.135 324.329 242.865C324.329 243.595 323.954 244.18 323.204 244.62C322.454 245.06 321.329 245.28 319.829 245.28C318.329 245.28 317.204 245.06 316.454 244.62C315.704 244.18 315.329 243.595 315.329 242.865ZM323.114 242.94V242.775C323.114 242.345 322.839 241.995 322.289 241.725C321.749 241.445 320.929 241.305 319.829 241.305C318.729 241.305 317.904 241.445 317.354 241.725C316.814 241.995 316.544 242.345 316.544 242.775V242.94C316.544 243.37 316.814 243.725 317.354 244.005C317.904 244.275 318.729 244.41 319.829 244.41C320.929 244.41 321.749 244.275 322.289 244.005C322.839 243.725 323.114 243.37 323.114 242.94ZM325.949 246.315V247.275H313.709V246.315H325.949ZM315.614 253.335V250.875H323.009V249.465H315.524V248.535H324.104V251.745H316.709V253.17H324.494V254.1H316.364C316.124 254.1 315.939 254.035 315.809 253.905C315.679 253.775 315.614 253.585 315.614 253.335ZM338.308 241.68H334.243V240.78H343.468V241.68H339.433C339.413 241.98 339.353 242.25 339.253 242.49C339.163 242.73 339.018 242.965 338.818 243.195L338.878 243.225L339.208 243C339.348 242.91 339.478 242.865 339.598 242.865C339.698 242.865 339.813 242.89 339.943 242.94L344.008 244.62L343.423 245.43L339.163 243.585C339.033 243.525 338.898 243.495 338.758 243.495C338.638 243.495 338.518 243.52 338.398 243.57C338.008 243.87 337.478 244.175 336.808 244.485C336.148 244.785 335.298 245.11 334.258 245.46L333.673 244.65C334.843 244.26 335.748 243.915 336.388 243.615C337.038 243.315 337.508 243.015 337.798 242.715C338.088 242.415 338.258 242.07 338.308 241.68ZM339.418 247.29V248.61H343.123V251.745H335.713V253.245H343.513V254.1H335.383C335.143 254.1 334.958 254.035 334.828 253.905C334.698 253.775 334.633 253.585 334.633 253.335V250.95H342.028V249.45H334.543V248.61H338.278V247.29H332.728V246.345H344.968V247.29H339.418ZM358.342 240.465V253.485H357.217V248.01H354.667V247.08H357.217V244.26H354.667V243.33H357.217V240.465H358.342ZM354.352 245.73C354.352 247.19 354.037 248.295 353.407 249.045C352.777 249.795 351.947 250.17 350.917 250.17C349.877 250.17 349.042 249.795 348.412 249.045C347.782 248.295 347.467 247.19 347.467 245.73C347.467 244.27 347.782 243.165 348.412 242.415C349.042 241.665 349.877 241.29 350.917 241.29C351.947 241.29 352.777 241.665 353.407 242.415C354.037 243.165 354.352 244.27 354.352 245.73ZM353.152 245.13C353.152 244.19 352.947 243.475 352.537 242.985C352.127 242.485 351.587 242.235 350.917 242.235C350.237 242.235 349.692 242.485 349.282 242.985C348.872 243.475 348.667 244.19 348.667 245.13V246.33C348.667 247.27 348.872 247.99 349.282 248.49C349.692 248.98 350.237 249.225 350.917 249.225C351.587 249.225 352.127 248.98 352.537 248.49C352.947 247.99 353.152 247.27 353.152 246.33V245.13ZM377.406 240.465V247.98H376.251V240.465H377.406ZM370.236 244.725C370.166 244.725 370.101 244.76 370.041 244.83C369.781 245.26 369.441 245.7 369.021 246.15C368.601 246.59 368.016 247.155 367.266 247.845L366.411 247.11C367.271 246.35 367.931 245.7 368.391 245.16C368.851 244.62 369.181 244.085 369.381 243.555C369.591 243.025 369.696 242.425 369.696 241.755V240.945H370.851V241.83C370.851 242.76 370.676 243.59 370.326 244.32L370.401 244.365L370.641 244.155C370.751 244.065 370.861 244.02 370.971 244.02C371.081 244.02 371.186 244.065 371.286 244.155L374.166 246.78L373.341 247.575L370.431 244.815C370.371 244.755 370.306 244.725 370.236 244.725ZM369.156 248.79H377.406V254.025H369.906C369.666 254.025 369.481 253.96 369.351 253.83C369.221 253.7 369.156 253.51 369.156 253.26V248.79ZM370.296 253.065H376.251V249.735H370.296V253.065ZM391.41 241.635H382.02V240.75H391.41V241.635ZM391.545 245.19H381.885V244.32H384.09L383.7 242.325L384.84 242.205L385.155 244.32H388.26L388.575 242.205L389.715 242.325L389.325 244.32H391.545V245.19ZM392.835 246.45V247.395H380.595V246.45H392.835ZM383.58 253.17H391.38V254.1H383.25C383.01 254.1 382.825 254.035 382.695 253.905C382.565 253.775 382.5 253.585 382.5 253.335V250.905H389.895V249.525H382.41V248.61H390.99V251.775H383.58V253.17ZM407.649 246.795H405.534V253.515H404.394V240.495H405.534V245.835H407.649V246.795ZM401.199 242.175H396.939V241.2H401.199V242.175ZM394.944 243.975H402.969V244.905H400.749V244.995C401.659 245.445 402.114 246.31 402.114 247.59C402.114 248.24 401.979 248.805 401.709 249.285C401.439 249.755 401.064 250.115 400.584 250.365C400.114 250.615 399.589 250.74 399.009 250.74C398.429 250.74 397.899 250.615 397.419 250.365C396.949 250.115 396.579 249.755 396.309 249.285C396.039 248.805 395.904 248.24 395.904 247.59C395.904 246.31 396.359 245.445 397.269 244.995V244.905H394.944V243.975ZM401.004 247.095C401.004 246.425 400.824 245.915 400.464 245.565C400.104 245.205 399.619 245.025 399.009 245.025C398.409 245.025 397.924 245.205 397.554 245.565C397.194 245.925 397.014 246.435 397.014 247.095V247.71C397.014 248.36 397.199 248.87 397.569 249.24C397.939 249.6 398.419 249.78 399.009 249.78C399.599 249.78 400.079 249.6 400.449 249.24C400.819 248.87 401.004 248.36 401.004 247.71V247.095ZM418.893 242.52H410.973V241.545H420.018V242.61C420.018 244.83 419.803 246.945 419.373 248.955L418.263 248.775C418.683 246.745 418.893 244.705 418.893 242.655V242.52ZM421.683 251.04V252H409.443V251.04H414.243V246.225H415.368V251.04H421.683ZM441.107 244.41V245.37H439.022V250.35H437.882V240.465H439.022V244.41H441.107ZM429.347 248.52L428.732 247.65C430.092 247.09 431.127 246.59 431.837 246.15C432.547 245.71 433.047 245.245 433.337 244.755C433.627 244.265 433.772 243.665 433.772 242.955V242.325H429.107V241.35H434.912V242.85C434.912 243.77 434.747 244.535 434.417 245.145C434.097 245.755 433.542 246.315 432.752 246.825C431.972 247.335 430.837 247.9 429.347 248.52ZM431.987 252.825H439.322V253.77H431.597C431.357 253.77 431.172 253.705 431.042 253.575C430.912 253.445 430.847 253.255 430.847 253.005V249.27H431.987V252.825ZM452.981 245.79H450.026V244.875H452.981V243.12H450.026V242.205H452.981V240.465H454.121V247.29H452.981V245.79ZM443.996 247.53L443.396 246.675C444.716 246.185 445.726 245.74 446.426 245.34C447.126 244.94 447.616 244.525 447.896 244.095C448.176 243.665 448.316 243.145 448.316 242.535V242.01H443.771V241.05H449.456V242.4C449.456 243.23 449.296 243.925 448.976 244.485C448.656 245.035 448.111 245.545 447.341 246.015C446.571 246.475 445.456 246.98 443.996 247.53ZM454.481 253.125V254.1H446.516C446.276 254.1 446.091 254.035 445.961 253.905C445.831 253.775 445.766 253.585 445.766 253.335V250.62H452.966V249.075H445.676V248.115H454.121V251.58H446.921V253.125H454.481ZM469.955 244.92V245.88H467.87V250.5H466.73V240.465H467.87V244.92H469.955ZM463.295 241.83H459.29V240.87H463.295V241.83ZM461.195 248.94C460.575 248.94 460.03 248.835 459.56 248.625C459.09 248.415 458.725 248.125 458.465 247.755C458.215 247.385 458.09 246.965 458.09 246.495C458.09 246.025 458.2 245.615 458.42 245.265C458.65 244.905 458.99 244.63 459.44 244.44V244.365H457.1V243.42H465.23V244.365H462.95V244.44C463.4 244.63 463.735 244.905 463.955 245.265C464.185 245.615 464.3 246.025 464.3 246.495C464.3 246.965 464.17 247.385 463.91 247.755C463.66 248.125 463.3 248.415 462.83 248.625C462.36 248.835 461.815 248.94 461.195 248.94ZM461.075 247.98H461.33C461.89 247.98 462.345 247.83 462.695 247.53C463.055 247.22 463.235 246.79 463.235 246.24C463.235 245.69 463.06 245.26 462.71 244.95C462.36 244.64 461.9 244.485 461.33 244.485H461.075C460.505 244.485 460.045 244.64 459.695 244.95C459.345 245.25 459.17 245.68 459.17 246.24C459.17 246.79 459.345 247.22 459.695 247.53C460.055 247.83 460.515 247.98 461.075 247.98ZM460.835 252.9H468.17V253.845H460.445C460.205 253.845 460.02 253.78 459.89 253.65C459.76 253.52 459.695 253.33 459.695 253.08V250.08H460.835V252.9ZM486.424 243.69V240.465H487.564V248.295H486.424V244.62H483.694V243.69H486.424ZM477.514 247.845L476.659 247.125C477.499 246.465 478.149 245.895 478.609 245.415C479.069 244.925 479.399 244.445 479.599 243.975C479.809 243.495 479.914 242.96 479.914 242.37V242.22H477.049V241.26H483.889V242.22H481.054V242.415C481.054 243.265 480.879 244.01 480.529 244.65L480.619 244.695L480.859 244.515C480.969 244.435 481.079 244.395 481.189 244.395C481.319 244.395 481.434 244.44 481.534 244.53L484.324 246.87L483.484 247.62L480.649 245.16C480.569 245.1 480.494 245.07 480.424 245.07C480.344 245.07 480.274 245.1 480.214 245.16C479.944 245.55 479.599 245.95 479.179 246.36C478.759 246.77 478.204 247.265 477.514 247.845ZM487.639 251.4C487.639 251.94 487.479 252.42 487.159 252.84C486.849 253.27 486.374 253.605 485.734 253.845C485.104 254.095 484.334 254.22 483.424 254.22C482.504 254.22 481.724 254.095 481.084 253.845C480.454 253.605 479.979 253.27 479.659 252.84C479.349 252.42 479.194 251.94 479.194 251.4C479.194 250.86 479.349 250.38 479.659 249.96C479.979 249.53 480.454 249.195 481.084 248.955C481.724 248.705 482.504 248.58 483.424 248.58C484.334 248.58 485.104 248.705 485.734 248.955C486.374 249.195 486.849 249.53 487.159 249.96C487.479 250.38 487.639 250.86 487.639 251.4ZM486.439 251.28C486.439 250.77 486.189 250.345 485.689 250.005C485.189 249.655 484.434 249.48 483.424 249.48C482.404 249.48 481.639 249.655 481.129 250.005C480.629 250.345 480.379 250.77 480.379 251.28V251.535C480.379 252.035 480.629 252.455 481.129 252.795C481.639 253.145 482.404 253.32 483.424 253.32C484.434 253.32 485.189 253.145 485.689 252.795C486.189 252.455 486.439 252.035 486.439 251.535V251.28ZM502.993 251.04V252H490.753V251.04H496.303V247.98H492.433V241.155H493.573V243.63H500.158V241.155H501.283V247.98H497.443V251.04H502.993ZM493.573 247.035H500.158V244.575H493.573V247.035ZM519.867 244.005V240.465H521.007V250.35H519.867V244.965H517.137V244.005H519.867ZM513.867 245.415C513.797 245.415 513.732 245.445 513.672 245.505C513.402 245.925 513.057 246.36 512.637 246.81C512.217 247.25 511.657 247.79 510.957 248.43L510.102 247.695C510.942 246.975 511.592 246.355 512.052 245.835C512.512 245.305 512.842 244.785 513.042 244.275C513.252 243.755 513.357 243.175 513.357 242.535V242.385H510.492V241.44H517.332V242.385H514.497V242.595C514.497 243.485 514.322 244.28 513.972 244.98L514.062 245.025L514.287 244.845C514.397 244.765 514.502 244.725 514.602 244.725C514.722 244.725 514.842 244.775 514.962 244.875L517.767 247.425L516.927 248.16L514.092 245.505C514.032 245.445 513.957 245.415 513.867 245.415ZM521.277 252.825V253.77H513.417C513.177 253.77 512.992 253.705 512.862 253.575C512.732 253.445 512.667 253.255 512.667 253.005V249.45H513.822V252.825H521.277ZM536.841 243.45V244.41H534.756V247.335H533.616V240.465H534.756V243.45H536.841ZM532.101 246.345C531.381 246.495 530.516 246.615 529.506 246.705C528.496 246.785 527.416 246.825 526.266 246.825H524.721V241.05H530.676V242.01H525.861V245.895H526.266C527.346 245.895 528.381 245.855 529.371 245.775C530.371 245.695 531.231 245.585 531.951 245.445L532.101 246.345ZM527.676 253.125H535.116V254.1H527.271C527.031 254.1 526.846 254.035 526.716 253.905C526.586 253.775 526.521 253.585 526.521 253.335V250.62H533.616V249.075H526.431V248.115H534.756V251.58H527.676V253.125Z" fill="white"/>
</svg>
