<svg width="238" height="20" viewBox="0 0 238 20" fill="none" xmlns="http://www.w3.org/2000/svg">
<path d="M16.875 14V12.219H12.494V11.257L16.29 4.926H17.915V11.309H19.228V12.219H17.915V14H16.875ZM13.521 11.309H16.875V5.771H16.81L13.521 11.309ZM31.8849 9.281H30.0129V15.313H29.0249V4.029H30.0129V8.449H31.8849V9.281ZM21.4979 4.926H26.5549V6.733C26.5549 7.695 26.4119 8.50967 26.1259 9.177C25.8399 9.84433 25.3546 10.4683 24.6699 11.049C23.9939 11.621 23.0233 12.2493 21.7579 12.934L21.1729 12.193C22.3516 11.569 23.2529 11.0013 23.8769 10.49C24.5009 9.97867 24.9386 9.437 25.1899 8.865C25.4413 8.293 25.5669 7.58667 25.5669 6.746V5.771H21.4979V4.926ZM42.8517 4.003V15.287H41.8637V4.003H42.8517ZM37.4177 8.774C37.5391 8.774 37.6387 8.82167 37.7167 8.917L40.2647 11.907L39.5237 12.544L36.9497 9.45C36.9064 9.398 36.8544 9.372 36.7937 9.372C36.7417 9.372 36.6941 9.398 36.6507 9.45C36.4167 9.92667 36.1091 10.412 35.7277 10.906C35.3464 11.4 34.8264 12.0067 34.1677 12.726L33.4267 12.102C34.1807 11.3133 34.7614 10.6287 35.1687 10.048C35.5847 9.46733 35.8837 8.891 36.0657 8.319C36.2477 7.73833 36.3387 7.07967 36.3387 6.343V5.849H33.7777V5.017H39.8747V5.849H37.3267V6.382C37.3267 7.36133 37.1751 8.23233 36.8717 8.995L36.9367 9.034L37.1317 8.878C37.2271 8.80867 37.3224 8.774 37.4177 8.774ZM60.0888 9.281H58.2168V15.313H57.2288V4.029H58.2168V8.449H60.0888V9.281ZM49.8708 4.952H54.9148V6.954C54.9148 7.88133 54.7588 8.67867 54.4468 9.346C54.1348 10.0133 53.6278 10.6373 52.9258 11.218C52.2325 11.7987 51.2532 12.4443 49.9878 13.155L49.4158 12.427C50.7505 11.6903 51.7428 11.036 52.3928 10.464C53.0515 9.892 53.4978 9.255 53.7318 8.553L49.5198 8.878L49.3768 8.046L53.9008 7.773C53.9355 7.539 53.9528 7.266 53.9528 6.954V5.771H49.8708V4.952ZM71.4066 4.003V15.287H70.4576V4.003H71.4066ZM67.8576 4.198H68.7936V14.975H67.8576V9.099H66.2586V8.28H67.8576V4.198ZM66.6746 11.335L66.7916 12.128C65.7516 12.388 64.4733 12.518 62.9566 12.518H61.9036V5.095H66.0506V5.901H62.8526V8.306H65.6996V9.112H62.8526V11.712H63.2036C64.5556 11.712 65.7126 11.5863 66.6746 11.335ZM81.8145 5.784H74.9505V4.939H82.7895V5.862C82.7895 7.786 82.6031 9.619 82.2305 11.361L81.2685 11.205C81.6325 9.44567 81.8145 7.67767 81.8145 5.901V5.784ZM84.2325 13.168V14H73.6245V13.168H77.7845V8.995H78.7595V13.168H84.2325ZM95.5373 4.003V15.287H94.5493V4.003H95.5373ZM93.0673 11.335L93.1973 12.128C91.854 12.388 90.1466 12.518 88.0753 12.518H86.6713V8.163H90.7663V5.693H86.6193V4.861H91.7543V8.982H87.6463V11.712H88.0623C90.0296 11.712 91.698 11.5863 93.0673 11.335ZM106.816 4.003H107.791V15.287H106.816V4.003ZM98.7041 7.383C98.7041 6.84567 98.8384 6.37333 99.1071 5.966C99.3758 5.55 99.7441 5.23367 100.212 5.017C100.68 4.79167 101.209 4.679 101.798 4.679C102.387 4.679 102.916 4.79167 103.384 5.017C103.852 5.23367 104.22 5.55 104.489 5.966C104.758 6.37333 104.892 6.84567 104.892 7.383C104.892 7.92033 104.758 8.39267 104.489 8.8C104.22 9.20733 103.852 9.52367 103.384 9.749C102.916 9.96567 102.387 10.074 101.798 10.074C101.209 10.074 100.68 9.96567 100.212 9.749C99.7441 9.52367 99.3758 9.20733 99.1071 8.8C98.8384 8.39267 98.7041 7.92033 98.7041 7.383ZM103.852 7.539V7.227C103.852 6.707 103.661 6.28667 103.28 5.966C102.899 5.64533 102.405 5.485 101.798 5.485C101.191 5.485 100.697 5.64533 100.316 5.966C99.9348 6.28667 99.7441 6.707 99.7441 7.227V7.539C99.7441 8.059 99.9348 8.47933 100.316 8.8C100.697 9.12067 101.191 9.281 101.798 9.281C102.405 9.281 102.899 9.12067 103.28 8.8C103.661 8.47933 103.852 8.059 103.852 7.539ZM98.1581 12.076C99.6314 12.076 101.053 12.0413 102.422 11.972C103.791 11.9027 104.953 11.7943 105.906 11.647L106.01 12.44C105.031 12.596 103.852 12.7173 102.474 12.804C101.105 12.882 99.6964 12.921 98.2491 12.921L98.1581 12.076ZM121.349 4.926H117.397V4.12H121.349V4.926ZM118.879 6.915H115.304V6.109H123.455V6.915H119.88C119.837 7.42633 119.651 7.85967 119.321 8.215L119.412 8.241L119.659 8.072C119.781 7.98533 119.906 7.942 120.036 7.942C120.123 7.942 120.223 7.96367 120.335 8.007L123.91 9.528L123.377 10.256L119.607 8.566C119.503 8.514 119.395 8.488 119.282 8.488C119.152 8.488 119.04 8.51833 118.944 8.579L118.905 8.592C118.567 8.852 118.112 9.12067 117.54 9.398C116.977 9.66667 116.249 9.96567 115.356 10.295L114.836 9.58C115.824 9.23333 116.6 8.92133 117.163 8.644C117.735 8.36667 118.151 8.09367 118.411 7.825C118.671 7.54767 118.827 7.24433 118.879 6.915ZM124.677 11.933H119.867V15.742H118.879V11.933H114.069V11.114H124.677V11.933ZM135.046 8.956H132.849V8.124H135.046V4.003H136.047V12.7H135.046V8.956ZM131.601 5.225H128.143V4.406H131.601V5.225ZM127.285 11.517L126.596 10.919C127.315 10.4077 127.87 9.96567 128.26 9.593C128.659 9.22033 128.945 8.852 129.118 8.488C129.291 8.124 129.382 7.71233 129.391 7.253H126.908V6.434H132.836V7.253H130.34C130.34 7.92033 130.188 8.50533 129.885 9.008L129.963 9.047L130.158 8.904C130.253 8.83467 130.349 8.8 130.444 8.8C130.548 8.8 130.648 8.83467 130.743 8.904L133.135 10.724L132.446 11.335L130.015 9.424C129.946 9.372 129.872 9.346 129.794 9.346C129.716 9.346 129.651 9.372 129.599 9.424C129.374 9.736 129.079 10.0523 128.715 10.373C128.351 10.6937 127.874 11.075 127.285 11.517ZM136.281 14.78V15.599H129.443C129.235 15.599 129.075 15.5427 128.962 15.43C128.849 15.3173 128.793 15.1527 128.793 14.936V12.31H129.781V14.78H136.281ZM152.881 13.168V14H142.273V13.168H147.083V10.165H143.807V4.77H151.386V5.615H144.795V9.32H151.503V10.165H148.071V13.168H152.881ZM164.199 4.003V15.287H163.224V8.618H160.819V7.786H163.224V4.003H164.199ZM158.57 8.553C158.674 8.553 158.765 8.60067 158.843 8.696L161.391 11.946L160.637 12.609L158.089 9.255C158.054 9.21167 158.011 9.19 157.959 9.19C157.907 9.19 157.864 9.21167 157.829 9.255C157.612 9.75767 157.313 10.2733 156.932 10.802C156.551 11.3307 156.031 11.9893 155.372 12.778L154.618 12.141C155.372 11.283 155.948 10.5507 156.347 9.944C156.754 9.32867 157.045 8.71333 157.218 8.098C157.4 7.48267 157.491 6.77633 157.491 5.979V4.757H158.479V5.966C158.479 7.01467 158.336 7.95067 158.05 8.774L158.102 8.813L158.284 8.657C158.379 8.58767 158.475 8.553 158.57 8.553ZM180.5 4.003V15.287H179.551V4.003H180.5ZM176.964 4.198H177.887V14.975H176.964V8.761H175.157V7.942H176.964V4.198ZM173.805 8.904C173.909 8.904 174.009 8.96467 174.104 9.086L176.171 11.985L175.469 12.583L173.389 9.593C173.346 9.541 173.302 9.515 173.259 9.515C173.216 9.515 173.181 9.541 173.155 9.593C172.973 10.0437 172.722 10.5117 172.401 10.997C172.089 11.4737 171.664 12.063 171.127 12.765L170.438 12.18C171.071 11.374 171.556 10.6807 171.894 10.1C172.232 9.51067 172.475 8.93 172.622 8.358C172.769 7.77733 172.843 7.11867 172.843 6.382V6.005H170.711V5.173H175.872V6.005H173.779V6.382C173.779 7.38733 173.64 8.28 173.363 9.06L173.428 9.099L173.558 8.995C173.653 8.93433 173.736 8.904 173.805 8.904ZM190.778 5.199H184.135V4.367H191.74V5.004C191.74 6.13933 191.605 7.30067 191.337 8.488L190.401 8.358C190.643 7.33533 190.769 6.28233 190.778 5.199ZM193.326 9.398V10.256H182.718V9.398H187.073V7.149H188.048V9.398H193.326ZM191.87 13.662C191.87 14.1127 191.722 14.5113 191.428 14.858C191.142 15.2133 190.708 15.4907 190.128 15.69C189.556 15.8893 188.854 15.989 188.022 15.989C187.19 15.989 186.483 15.8893 185.903 15.69C185.331 15.4907 184.897 15.2133 184.603 14.858C184.317 14.5113 184.174 14.1127 184.174 13.662C184.174 13.2113 184.317 12.8127 184.603 12.466C184.897 12.1193 185.331 11.8463 185.903 11.647C186.483 11.4477 187.19 11.348 188.022 11.348C188.854 11.348 189.556 11.4477 190.128 11.647C190.708 11.8463 191.142 12.1193 191.428 12.466C191.722 12.8127 191.87 13.2113 191.87 13.662ZM190.83 13.571C190.83 13.1637 190.596 12.8213 190.128 12.544C189.668 12.2667 188.966 12.128 188.022 12.128C187.086 12.128 186.379 12.2667 185.903 12.544C185.435 12.8213 185.201 13.1637 185.201 13.571V13.766C185.201 14.1647 185.435 14.5027 185.903 14.78C186.379 15.0573 187.086 15.196 188.022 15.196C188.966 15.196 189.668 15.0573 190.128 14.78C190.596 14.5027 190.83 14.1647 190.83 13.766V13.571Z" fill="white"/>
<rect y="4" width="2" height="10" fill="white"/>
</svg>
