<svg width="238" height="40" viewBox="0 0 238 40" fill="none" xmlns="http://www.w3.org/2000/svg">
<path d="M21.308 9.671V4.003H22.283V10.893H21.308V10.36H18.461V9.671H21.308ZM13.3 5.862C13.3 5.29 13.5687 4.84367 14.106 4.523C14.6433 4.19367 15.3497 4.029 16.225 4.029C17.0917 4.029 17.7937 4.19367 18.331 4.523C18.8683 4.84367 19.137 5.29 19.137 5.862C19.137 6.434 18.8683 6.88467 18.331 7.214C17.7937 7.54333 17.0917 7.708 16.225 7.708C15.3497 7.708 14.6433 7.54333 14.106 7.214C13.5687 6.88467 13.3 6.434 13.3 5.862ZM14.288 5.914C14.288 6.26933 14.4613 6.54667 14.808 6.746C15.1633 6.93667 15.6357 7.032 16.225 7.032C16.8143 7.032 17.2823 6.93667 17.629 6.746C17.9757 6.54667 18.149 6.26933 18.149 5.914V5.81C18.149 5.45467 17.9757 5.18167 17.629 4.991C17.2823 4.79167 16.8143 4.692 16.225 4.692C15.6357 4.692 15.1633 4.79167 14.808 4.991C14.4613 5.18167 14.288 5.45467 14.288 5.81V5.914ZM15.666 9.19C14.5567 9.23333 13.5427 9.255 12.624 9.255L12.546 8.488C14.0193 8.488 15.4363 8.45333 16.797 8.384C18.1663 8.31467 19.3233 8.20633 20.268 8.059L20.359 8.787C19.241 8.95167 17.9973 9.073 16.628 9.151V10.945H15.666V9.19ZM22.595 15.079V15.859H15.536C15.328 15.859 15.1677 15.8027 15.055 15.69C14.9423 15.5773 14.886 15.4127 14.886 15.196V13.246H21.347V12.167H14.808V11.413H22.283V14H15.822V15.079H22.595ZM33.4838 8.514H30.9358V7.734H33.4838V6.226H30.9358V5.446H33.4838V4.003H34.4718V9.957H33.4838V8.514ZM30.5328 9.541H25.3068V4.406H26.2428V6.148H29.5968V4.393H30.5328V9.541ZM29.5968 6.941H26.2428V8.748H29.5968V6.941ZM34.7838 14.975V15.82H27.8808C27.6728 15.82 27.5125 15.7637 27.3998 15.651C27.2872 15.5383 27.2308 15.3737 27.2308 15.157V12.817H33.4708V11.504H27.1528V10.659H34.4718V13.649H28.2318V14.975H34.7838ZM47.5836 13.168V14H36.9756V13.168H41.7856V10.945H38.5356V7.422H45.0356V5.511H38.4706V4.692H46.0236V8.215H39.5236V10.126H46.3616V10.945H42.7736V13.168H47.5836ZM66.4902 12.57H65.4892V4.003H66.4902V12.57ZM60.3932 8.293C60.3325 8.293 60.2762 8.319 60.2242 8.371C59.9902 8.735 59.6912 9.10767 59.3272 9.489C58.9632 9.87033 58.4648 10.3427 57.8322 10.906L57.1042 10.269C57.8408 9.645 58.4085 9.10767 58.8072 8.657C59.2145 8.19767 59.5092 7.747 59.6912 7.305C59.8732 6.863 59.9642 6.36033 59.9642 5.797V5.667H57.4682V4.848H63.4612V5.667H60.9522V5.849C60.9522 6.629 60.8005 7.318 60.4972 7.916L60.5622 7.955L60.7702 7.799C60.8655 7.72967 60.9608 7.695 61.0562 7.695C61.1688 7.695 61.2685 7.734 61.3552 7.812L63.8382 10.035L63.0972 10.672L60.5882 8.371C60.5275 8.319 60.4625 8.293 60.3932 8.293ZM66.7242 14.715V15.534H59.9122C59.7042 15.534 59.5438 15.4777 59.4312 15.365C59.3185 15.2523 59.2622 15.0877 59.2622 14.871V11.79H60.2632V14.715H66.7242ZM76.352 10.867H75.377V4.185H76.352V7.253H78.042V4.003H79.017V11.231H78.042V8.059H76.352V10.867ZM73.661 5.225H70.268V4.419H73.661V5.225ZM71.958 10.971C71.2733 10.971 70.71 10.789 70.268 10.425C69.8347 10.0523 69.618 9.567 69.618 8.969C69.618 8.19767 69.9387 7.656 70.58 7.344V7.279H68.994V6.499H74.74V7.279H73.336V7.344C73.9773 7.656 74.298 8.19767 74.298 8.969C74.298 9.567 74.077 10.0523 73.635 10.425C73.2017 10.789 72.6427 10.971 71.958 10.971ZM71.958 10.165C72.374 10.165 72.7163 10.0567 72.985 9.84C73.2623 9.61467 73.401 9.29833 73.401 8.891V8.657C73.401 8.241 73.2623 7.92467 72.985 7.708C72.7163 7.48267 72.374 7.37 71.958 7.37C71.542 7.37 71.1997 7.48267 70.931 7.708C70.6623 7.92467 70.528 8.241 70.528 8.657V8.891C70.528 9.29833 70.6623 9.61467 70.931 9.84C71.1997 10.0567 71.542 10.165 71.958 10.165ZM79.069 13.727C79.069 14.1603 78.9303 14.546 78.653 14.884C78.3757 15.222 77.9597 15.4863 77.405 15.677C76.859 15.8677 76.1873 15.963 75.39 15.963C74.5927 15.963 73.9123 15.8677 73.349 15.677C72.7943 15.4863 72.3783 15.222 72.101 14.884C71.8237 14.546 71.685 14.1603 71.685 13.727C71.685 13.2937 71.8237 12.908 72.101 12.57C72.3783 12.232 72.7943 11.9677 73.349 11.777C73.9123 11.5863 74.5927 11.491 75.39 11.491C76.1873 11.491 76.859 11.5863 77.405 11.777C77.9597 11.9677 78.3757 12.232 78.653 12.57C78.9303 12.908 79.069 13.2937 79.069 13.727ZM78.029 13.636C78.029 13.2547 77.808 12.934 77.366 12.674C76.9327 12.414 76.274 12.284 75.39 12.284C74.506 12.284 73.843 12.414 73.401 12.674C72.959 12.934 72.738 13.2547 72.738 13.636V13.818C72.738 14.1993 72.959 14.52 73.401 14.78C73.843 15.04 74.506 15.17 75.39 15.17C76.274 15.17 76.9327 15.04 77.366 14.78C77.808 14.52 78.029 14.1993 78.029 13.818V13.636ZM92.1808 9.489H90.3478V15.313H89.3598V4.029H90.3478V8.657H92.1808V9.489ZM86.5908 5.485H82.8988V4.64H86.5908V5.485ZM81.1698 7.045H88.1248V7.851H86.2008V7.929C86.9895 8.319 87.3838 9.06867 87.3838 10.178C87.3838 10.7413 87.2668 11.231 87.0328 11.647C86.7988 12.0543 86.4738 12.3663 86.0578 12.583C85.6505 12.7997 85.1955 12.908 84.6928 12.908C84.1902 12.908 83.7308 12.7997 83.3148 12.583C82.9075 12.3663 82.5868 12.0543 82.3528 11.647C82.1188 11.231 82.0018 10.7413 82.0018 10.178C82.0018 9.06867 82.3962 8.319 83.1848 7.929V7.851H81.1698V7.045ZM86.4218 9.749C86.4218 9.16833 86.2658 8.72633 85.9538 8.423C85.6418 8.111 85.2215 7.955 84.6928 7.955C84.1728 7.955 83.7525 8.111 83.4318 8.423C83.1198 8.735 82.9638 9.177 82.9638 9.749V10.282C82.9638 10.8453 83.1242 11.2873 83.4448 11.608C83.7655 11.92 84.1815 12.076 84.6928 12.076C85.2042 12.076 85.6202 11.92 85.9408 11.608C86.2615 11.2873 86.4218 10.8453 86.4218 10.282V9.749ZM102.576 8.501H95.1006V4.419H96.0756V7.682H102.576V8.501ZM104.084 9.944V10.789H93.4756V9.944H104.084ZM95.9846 14.689H102.719V15.521H95.6466C95.4386 15.521 95.2783 15.4647 95.1656 15.352C95.053 15.2393 94.9966 15.0747 94.9966 14.858V12.011H95.9846V14.689ZM124.199 9.281H122.327V15.313H121.339V4.029H122.327V8.449H124.199V9.281ZM119.974 11.127L120.104 11.92C118.778 12.1887 117.123 12.323 115.138 12.323H113.76V4.926H118.947V5.758H114.748V11.504H115.125C117.032 11.504 118.648 11.3783 119.974 11.127ZM134.646 6.499V8.215H136.44V9.034H134.646V10.724H133.671V4.003H134.646V5.68H136.44V6.499H134.646ZM128.549 9.996C127.977 9.996 127.466 9.88333 127.015 9.658C126.573 9.43267 126.226 9.10767 125.975 8.683C125.724 8.25833 125.598 7.76 125.598 7.188C125.598 6.616 125.724 6.11767 125.975 5.693C126.226 5.26833 126.573 4.94333 127.015 4.718C127.466 4.49267 127.977 4.38 128.549 4.38C129.121 4.38 129.628 4.49267 130.07 4.718C130.512 4.94333 130.859 5.26833 131.11 5.693C131.361 6.11767 131.487 6.616 131.487 7.188C131.487 7.76 131.361 8.25833 131.11 8.683C130.859 9.10767 130.512 9.43267 130.07 9.658C129.628 9.88333 129.121 9.996 128.549 9.996ZM128.549 9.19C129.112 9.19 129.567 9.02967 129.914 8.709C130.269 8.38833 130.447 7.95933 130.447 7.422V6.954C130.447 6.41667 130.269 5.98767 129.914 5.667C129.567 5.34633 129.112 5.186 128.549 5.186C127.977 5.186 127.513 5.34633 127.158 5.667C126.811 5.98767 126.638 6.41667 126.638 6.954V7.422C126.638 7.95933 126.811 8.38833 127.158 8.709C127.513 9.02967 127.977 9.19 128.549 9.19ZM134.737 13.428C134.737 13.9047 134.603 14.3293 134.334 14.702C134.065 15.0833 133.662 15.3823 133.125 15.599C132.588 15.8157 131.929 15.924 131.149 15.924C130.378 15.924 129.719 15.8157 129.173 15.599C128.636 15.3823 128.228 15.0833 127.951 14.702C127.682 14.3293 127.548 13.9047 127.548 13.428C127.548 12.9513 127.682 12.5267 127.951 12.154C128.228 11.7727 128.636 11.4737 129.173 11.257C129.719 11.0403 130.378 10.932 131.149 10.932C131.929 10.932 132.588 11.0403 133.125 11.257C133.662 11.4737 134.065 11.7727 134.334 12.154C134.603 12.5267 134.737 12.9513 134.737 13.428ZM133.697 13.324C133.697 12.8733 133.485 12.4963 133.06 12.193C132.644 11.8897 132.007 11.738 131.149 11.738C130.3 11.738 129.663 11.894 129.238 12.206C128.813 12.5093 128.601 12.882 128.601 13.324V13.545C128.601 13.987 128.813 14.3597 129.238 14.663C129.663 14.975 130.3 15.131 131.149 15.131C132.007 15.131 132.644 14.975 133.06 14.663C133.485 14.3597 133.697 13.987 133.697 13.545V13.324ZM148.694 7.864V8.696H146.887V12.7H145.899V4.003H146.887V7.864H148.694ZM142.922 5.186H139.451V4.354H142.922V5.186ZM141.102 11.348C140.564 11.348 140.092 11.257 139.685 11.075C139.277 10.893 138.961 10.6417 138.736 10.321C138.519 10.0003 138.411 9.63633 138.411 9.229C138.411 8.82167 138.506 8.46633 138.697 8.163C138.896 7.851 139.191 7.61267 139.581 7.448V7.383H137.553V6.564H144.599V7.383H142.623V7.448C143.013 7.61267 143.303 7.851 143.494 8.163C143.693 8.46633 143.793 8.82167 143.793 9.229C143.793 9.63633 143.68 10.0003 143.455 10.321C143.238 10.6417 142.926 10.893 142.519 11.075C142.111 11.257 141.639 11.348 141.102 11.348ZM140.998 10.516H141.219C141.704 10.516 142.098 10.386 142.402 10.126C142.714 9.85733 142.87 9.48467 142.87 9.008C142.87 8.53133 142.718 8.15867 142.415 7.89C142.111 7.62133 141.713 7.487 141.219 7.487H140.998C140.504 7.487 140.105 7.62133 139.802 7.89C139.498 8.15 139.347 8.52267 139.347 9.008C139.347 9.48467 139.498 9.85733 139.802 10.126C140.114 10.386 140.512 10.516 140.998 10.516ZM140.79 14.78H147.147V15.599H140.452C140.244 15.599 140.083 15.5427 139.971 15.43C139.858 15.3173 139.802 15.1527 139.802 14.936V12.336H140.79V14.78ZM166.196 4.003H167.184V15.287H166.196V4.003ZM157.85 8.566C157.85 7.30067 158.128 6.343 158.682 5.693C159.246 5.043 159.987 4.718 160.905 4.718C161.815 4.718 162.548 5.043 163.102 5.693C163.666 6.343 163.947 7.30067 163.947 8.566C163.947 9.41533 163.817 10.1303 163.557 10.711C163.297 11.283 162.938 11.712 162.478 11.998C162.019 12.2753 161.495 12.414 160.905 12.414C159.987 12.414 159.246 12.089 158.682 11.439C158.128 10.789 157.85 9.83133 157.85 8.566ZM162.894 9.073V8.059C162.894 7.253 162.708 6.63333 162.335 6.2C161.971 5.76667 161.495 5.55 160.905 5.55C160.307 5.55 159.822 5.76667 159.449 6.2C159.085 6.62467 158.903 7.24433 158.903 8.059V9.073C158.903 9.88767 159.085 10.5117 159.449 10.945C159.822 11.3697 160.307 11.582 160.905 11.582C161.495 11.582 161.971 11.3653 162.335 10.932C162.708 10.4987 162.894 9.879 162.894 9.073ZM179.776 12.648H178.827V4.003H179.776V12.648ZM174.628 10.386H170.169V4.796H171.079V6.772H173.718V4.783H174.628V7.136H176.292V4.185H177.215V12.323H176.292V7.955H174.628V10.386ZM173.718 7.565H171.079V9.606H173.718V7.565ZM180.023 14.715V15.534H172.912C172.704 15.534 172.544 15.4777 172.431 15.365C172.319 15.2523 172.262 15.0877 172.262 14.871V11.79H173.25V14.715H180.023ZM183.515 4.705H191.133V5.537H184.503V7.448H190.951V8.241H184.516V10.152H191.354V10.984H183.515V4.705ZM181.994 13.155H192.602V14H181.994V13.155ZM210.521 6.798V4.003H211.509V10.789H210.521V7.604H208.155V6.798H210.521ZM202.799 10.399L202.058 9.775C202.786 9.203 203.349 8.709 203.748 8.293C204.146 7.86833 204.432 7.45233 204.606 7.045C204.788 6.629 204.879 6.16533 204.879 5.654V5.524H202.396V4.692H208.324V5.524H205.867V5.693C205.867 6.42967 205.715 7.07533 205.412 7.63L205.49 7.669L205.698 7.513C205.793 7.44367 205.888 7.409 205.984 7.409C206.096 7.409 206.196 7.448 206.283 7.526L208.701 9.554L207.973 10.204L205.516 8.072C205.446 8.02 205.381 7.994 205.321 7.994C205.251 7.994 205.191 8.02 205.139 8.072C204.905 8.41 204.606 8.75667 204.242 9.112C203.878 9.46733 203.397 9.89633 202.799 10.399ZM211.574 13.48C211.574 13.948 211.435 14.364 211.158 14.728C210.889 15.1007 210.477 15.391 209.923 15.599C209.377 15.8157 208.709 15.924 207.921 15.924C207.123 15.924 206.447 15.8157 205.893 15.599C205.347 15.391 204.935 15.1007 204.658 14.728C204.389 14.364 204.255 13.948 204.255 13.48C204.255 13.012 204.389 12.596 204.658 12.232C204.935 11.8593 205.347 11.569 205.893 11.361C206.447 11.1443 207.123 11.036 207.921 11.036C208.709 11.036 209.377 11.1443 209.923 11.361C210.477 11.569 210.889 11.8593 211.158 12.232C211.435 12.596 211.574 13.012 211.574 13.48ZM210.534 13.376C210.534 12.934 210.317 12.5657 209.884 12.271C209.45 11.9677 208.796 11.816 207.921 11.816C207.037 11.816 206.374 11.9677 205.932 12.271C205.498 12.5657 205.282 12.934 205.282 13.376V13.597C205.282 14.0303 205.498 14.3943 205.932 14.689C206.374 14.9923 207.037 15.144 207.921 15.144C208.796 15.144 209.45 14.9923 209.884 14.689C210.317 14.3943 210.534 14.0303 210.534 13.597V13.376ZM224.62 13.168V14H214.012V13.168H218.822V10.516H215.468V4.601H216.456V6.746H222.163V4.601H223.138V10.516H219.81V13.168H224.62ZM216.456 9.697H222.163V7.565H216.456V9.697ZM234.196 6.031V4.913H227.852V4.185H235.145V6.746H228.879V7.851H235.47V8.592H227.917V6.031H234.196ZM236.861 9.567V10.334H226.253V9.567H236.861ZM227.878 15.196V13.233H234.352V12.141H227.8V11.374H235.275V13.961H228.801V15.079H235.613V15.859H228.528C228.32 15.859 228.16 15.8027 228.047 15.69C227.935 15.5773 227.878 15.4127 227.878 15.196ZM22.517 24.003V35.287H21.568V24.003H22.517ZM18.981 24.198H19.904V34.975H18.981V28.761H17.174V27.942H18.981V24.198ZM15.822 28.904C15.926 28.904 16.0257 28.9647 16.121 29.086L18.188 31.985L17.486 32.583L15.406 29.593C15.3627 29.541 15.3193 29.515 15.276 29.515C15.2327 29.515 15.198 29.541 15.172 29.593C14.99 30.0437 14.7387 30.5117 14.418 30.997C14.106 31.4737 13.6813 32.063 13.144 32.765L12.455 32.18C13.0877 31.374 13.573 30.6807 13.911 30.1C14.249 29.5107 14.4917 28.93 14.639 28.358C14.7863 27.7773 14.86 27.1187 14.86 26.382V26.005H12.728V25.173H17.889V26.005H15.796V26.382C15.796 27.3873 15.6573 28.28 15.38 29.06L15.445 29.099L15.575 28.995C15.6703 28.9343 15.7527 28.904 15.822 28.904ZM32.7948 25.199H26.1518V24.367H33.7568V25.004C33.7568 26.1393 33.6225 27.3007 33.3538 28.488L32.4178 28.358C32.6605 27.3353 32.7862 26.2823 32.7948 25.199ZM35.3428 29.398V30.256H24.7348V29.398H29.0898V27.149H30.0648V29.398H35.3428ZM33.8868 33.662C33.8868 34.1127 33.7395 34.5113 33.4448 34.858C33.1588 35.2133 32.7255 35.4907 32.1448 35.69C31.5728 35.8893 30.8708 35.989 30.0388 35.989C29.2068 35.989 28.5005 35.8893 27.9198 35.69C27.3478 35.4907 26.9145 35.2133 26.6198 34.858C26.3338 34.5113 26.1908 34.1127 26.1908 33.662C26.1908 33.2113 26.3338 32.8127 26.6198 32.466C26.9145 32.1193 27.3478 31.8463 27.9198 31.647C28.5005 31.4477 29.2068 31.348 30.0388 31.348C30.8708 31.348 31.5728 31.4477 32.1448 31.647C32.7255 31.8463 33.1588 32.1193 33.4448 32.466C33.7395 32.8127 33.8868 33.2113 33.8868 33.662ZM32.8468 33.571C32.8468 33.1637 32.6128 32.8213 32.1448 32.544C31.6855 32.2667 30.9835 32.128 30.0388 32.128C29.1028 32.128 28.3965 32.2667 27.9198 32.544C27.4518 32.8213 27.2178 33.1637 27.2178 33.571V33.766C27.2178 34.1647 27.4518 34.5027 27.9198 34.78C28.3965 35.0573 29.1028 35.196 30.0388 35.196C30.9835 35.196 31.6855 35.0573 32.1448 34.78C32.6128 34.5027 32.8468 34.1647 32.8468 33.766V33.571Z" fill="white"/>
<rect y="4" width="2" height="10" fill="white"/>
</svg>
