<svg width="238" height="20" viewBox="0 0 238 20" fill="none" xmlns="http://www.w3.org/2000/svg">
<path d="M15.393 8.774C16.0083 8.774 16.4677 8.63533 16.771 8.358C17.083 8.072 17.239 7.708 17.239 7.266V7.175C17.239 6.69833 17.0873 6.343 16.784 6.109C16.4893 5.86633 16.0993 5.745 15.614 5.745C15.146 5.745 14.7647 5.849 14.47 6.057C14.1753 6.25633 13.9327 6.52933 13.742 6.876L12.936 6.252C13.0487 6.07 13.183 5.89233 13.339 5.719C13.5037 5.537 13.6943 5.37667 13.911 5.238C14.1277 5.09933 14.379 4.98667 14.665 4.9C14.951 4.81333 15.276 4.77 15.64 4.77C16.0213 4.77 16.381 4.822 16.719 4.926C17.057 5.02133 17.3473 5.16867 17.59 5.368C17.8413 5.55867 18.0363 5.797 18.175 6.083C18.3223 6.369 18.396 6.694 18.396 7.058C18.396 7.35267 18.3483 7.617 18.253 7.851C18.1663 8.085 18.045 8.28867 17.889 8.462C17.733 8.63533 17.5467 8.78267 17.33 8.904C17.122 9.02533 16.8967 9.11633 16.654 9.177V9.229C16.8967 9.281 17.1307 9.36767 17.356 9.489C17.59 9.60167 17.7937 9.75333 17.967 9.944C18.149 10.126 18.292 10.3513 18.396 10.62C18.5087 10.88 18.565 11.179 18.565 11.517C18.565 11.907 18.4913 12.2667 18.344 12.596C18.1967 12.9167 17.9887 13.194 17.72 13.428C17.4513 13.6533 17.1263 13.831 16.745 13.961C16.3637 14.091 15.9433 14.156 15.484 14.156C15.094 14.156 14.7473 14.1127 14.444 14.026C14.1407 13.9393 13.872 13.8223 13.638 13.675C13.404 13.5277 13.196 13.363 13.014 13.181C12.8407 12.999 12.6847 12.8083 12.546 12.609L13.365 11.985C13.4777 12.167 13.599 12.3317 13.729 12.479C13.8677 12.6263 14.0193 12.752 14.184 12.856C14.3487 12.96 14.535 13.0423 14.743 13.103C14.951 13.155 15.1937 13.181 15.471 13.181C16.1123 13.181 16.5977 13.038 16.927 12.752C17.2563 12.4573 17.421 12.0413 17.421 11.504V11.4C17.421 10.8627 17.2563 10.451 16.927 10.165C16.5977 9.87033 16.1123 9.723 15.471 9.723H14.405V8.774H15.393ZM31.8849 9.281H30.0129V15.313H29.0249V4.029H30.0129V8.449H31.8849V9.281ZM21.4979 4.926H26.5549V6.733C26.5549 7.695 26.4119 8.50967 26.1259 9.177C25.8399 9.84433 25.3546 10.4683 24.6699 11.049C23.9939 11.621 23.0233 12.2493 21.7579 12.934L21.1729 12.193C22.3516 11.569 23.2529 11.0013 23.8769 10.49C24.5009 9.97867 24.9386 9.437 25.1899 8.865C25.4413 8.293 25.5669 7.58667 25.5669 6.746V5.771H21.4979V4.926ZM42.8517 4.003V15.287H41.8637V4.003H42.8517ZM37.4177 8.774C37.5391 8.774 37.6387 8.82167 37.7167 8.917L40.2647 11.907L39.5237 12.544L36.9497 9.45C36.9064 9.398 36.8544 9.372 36.7937 9.372C36.7417 9.372 36.6941 9.398 36.6507 9.45C36.4167 9.92667 36.1091 10.412 35.7277 10.906C35.3464 11.4 34.8264 12.0067 34.1677 12.726L33.4267 12.102C34.1807 11.3133 34.7614 10.6287 35.1687 10.048C35.5847 9.46733 35.8837 8.891 36.0657 8.319C36.2477 7.73833 36.3387 7.07967 36.3387 6.343V5.849H33.7777V5.017H39.8747V5.849H37.3267V6.382C37.3267 7.36133 37.1751 8.23233 36.8717 8.995L36.9367 9.034L37.1317 8.878C37.2271 8.80867 37.3224 8.774 37.4177 8.774ZM60.0888 9.281H58.2168V15.313H57.2288V4.029H58.2168V8.449H60.0888V9.281ZM49.8708 4.952H54.9148V6.954C54.9148 7.88133 54.7588 8.67867 54.4468 9.346C54.1348 10.0133 53.6278 10.6373 52.9258 11.218C52.2325 11.7987 51.2532 12.4443 49.9878 13.155L49.4158 12.427C50.7505 11.6903 51.7428 11.036 52.3928 10.464C53.0515 9.892 53.4978 9.255 53.7318 8.553L49.5198 8.878L49.3768 8.046L53.9008 7.773C53.9355 7.539 53.9528 7.266 53.9528 6.954V5.771H49.8708V4.952ZM71.4066 4.003V15.287H70.4576V4.003H71.4066ZM67.8576 4.198H68.7936V14.975H67.8576V9.099H66.2586V8.28H67.8576V4.198ZM66.6746 11.335L66.7916 12.128C65.7516 12.388 64.4733 12.518 62.9566 12.518H61.9036V5.095H66.0506V5.901H62.8526V8.306H65.6996V9.112H62.8526V11.712H63.2036C64.5556 11.712 65.7126 11.5863 66.6746 11.335ZM81.8145 5.784H74.9505V4.939H82.7895V5.862C82.7895 7.786 82.6031 9.619 82.2305 11.361L81.2685 11.205C81.6325 9.44567 81.8145 7.67767 81.8145 5.901V5.784ZM84.2325 13.168V14H73.6245V13.168H77.7845V8.995H78.7595V13.168H84.2325ZM95.5373 4.003V15.287H94.5493V4.003H95.5373ZM93.0673 11.335L93.1973 12.128C91.854 12.388 90.1466 12.518 88.0753 12.518H86.6713V8.163H90.7663V5.693H86.6193V4.861H91.7543V8.982H87.6463V11.712H88.0623C90.0296 11.712 91.698 11.5863 93.0673 11.335ZM110.577 8.514H108.029V7.734H110.577V6.226H108.029V5.446H110.577V4.003H111.565V9.957H110.577V8.514ZM107.626 9.541H102.4V4.406H103.336V6.148H106.69V4.393H107.626V9.541ZM106.69 6.941H103.336V8.748H106.69V6.941ZM111.877 14.975V15.82H104.974C104.766 15.82 104.606 15.7637 104.493 15.651C104.381 15.5383 104.324 15.3737 104.324 15.157V12.817H110.564V11.504H104.246V10.659H111.565V13.649H105.325V14.975H111.877ZM125.071 4.926H121.119V4.12H125.071V4.926ZM122.601 6.915H119.026V6.109H127.177V6.915H123.602C123.559 7.42633 123.373 7.85967 123.043 8.215L123.134 8.241L123.381 8.072C123.503 7.98533 123.628 7.942 123.758 7.942C123.845 7.942 123.945 7.96367 124.057 8.007L127.632 9.528L127.099 10.256L123.329 8.566C123.225 8.514 123.117 8.488 123.004 8.488C122.874 8.488 122.762 8.51833 122.666 8.579L122.627 8.592C122.289 8.852 121.834 9.12067 121.262 9.398C120.699 9.66667 119.971 9.96567 119.078 10.295L118.558 9.58C119.546 9.23333 120.322 8.92133 120.885 8.644C121.457 8.36667 121.873 8.09367 122.133 7.825C122.393 7.54767 122.549 7.24433 122.601 6.915ZM128.399 11.933H123.589V15.742H122.601V11.933H117.791V11.114H128.399V11.933ZM138.768 8.956H136.571V8.124H138.768V4.003H139.769V12.7H138.768V8.956ZM135.323 5.225H131.865V4.406H135.323V5.225ZM131.007 11.517L130.318 10.919C131.038 10.4077 131.592 9.96567 131.982 9.593C132.381 9.22033 132.667 8.852 132.84 8.488C133.014 8.124 133.105 7.71233 133.113 7.253H130.63V6.434H136.558V7.253H134.062C134.062 7.92033 133.911 8.50533 133.607 9.008L133.685 9.047L133.88 8.904C133.976 8.83467 134.071 8.8 134.166 8.8C134.27 8.8 134.37 8.83467 134.465 8.904L136.857 10.724L136.168 11.335L133.737 9.424C133.668 9.372 133.594 9.346 133.516 9.346C133.438 9.346 133.373 9.372 133.321 9.424C133.096 9.736 132.801 10.0523 132.437 10.373C132.073 10.6937 131.597 11.075 131.007 11.517ZM140.003 14.78V15.599H133.165C132.957 15.599 132.797 15.5427 132.684 15.43C132.572 15.3173 132.515 15.1527 132.515 14.936V12.31H133.503V14.78H140.003ZM147.386 6.33C147.386 5.64533 147.711 5.095 148.361 4.679C149.02 4.25433 149.999 4.042 151.299 4.042C152.599 4.042 153.574 4.25433 154.224 4.679C154.883 5.095 155.212 5.64533 155.212 6.33C155.212 7.01467 154.883 7.56933 154.224 7.994C153.574 8.41 152.599 8.618 151.299 8.618C149.999 8.618 149.02 8.41 148.361 7.994C147.711 7.56933 147.386 7.01467 147.386 6.33ZM154.159 6.421V6.239C154.159 5.823 153.921 5.48067 153.444 5.212C152.976 4.94333 152.261 4.809 151.299 4.809C150.337 4.809 149.618 4.94333 149.141 5.212C148.673 5.48067 148.439 5.823 148.439 6.239V6.421C148.439 6.82833 148.678 7.16633 149.154 7.435C149.631 7.70367 150.346 7.838 151.299 7.838C152.253 7.838 152.968 7.70367 153.444 7.435C153.921 7.16633 154.159 6.82833 154.159 6.421ZM156.603 9.593V10.438H145.995V9.593H156.603ZM147.568 15.066V11.66H155.03V15.729H148.218C148.01 15.729 147.85 15.6727 147.737 15.56C147.625 15.4473 147.568 15.2827 147.568 15.066ZM154.055 12.466H148.543V14.91H154.055V12.466ZM169.195 7.422V8.254H167.388V12.57H166.4V4.003H167.388V7.422H169.195ZM163.904 10.425H158.626V4.679H159.575V6.707H162.942V4.653H163.904V10.425ZM162.942 7.513H159.575V9.619H162.942V7.513ZM161.291 14.715H167.648V15.534H160.953C160.745 15.534 160.585 15.4777 160.472 15.365C160.36 15.2523 160.303 15.0877 160.303 14.871V11.79H161.291V14.715ZM184.807 9.814V10.633H174.199V9.814H179.009V8.41H175.785V4.276H183.221V8.41H179.997V9.814H184.807ZM176.76 7.617H182.246V5.069H176.76V7.617ZM175.668 11.881H183.221V15.807H182.233V12.7H175.668V11.881ZM197.048 10.438V11.27H186.44V10.438H191.263V9.203H188.091V6.343H194.396V5.056H188.026V4.263H195.358V7.11H189.053V8.41H195.683V9.203H192.238V10.438H197.048ZM187.909 12.375H195.475V15.82H194.5V13.181H187.909V12.375ZM212.426 4.003V15.287H211.477V4.003H212.426ZM208.89 4.198H209.813V14.975H208.89V8.761H207.083V7.942H208.89V4.198ZM205.731 8.904C205.835 8.904 205.935 8.96467 206.03 9.086L208.097 11.985L207.395 12.583L205.315 9.593C205.272 9.541 205.229 9.515 205.185 9.515C205.142 9.515 205.107 9.541 205.081 9.593C204.899 10.0437 204.648 10.5117 204.327 10.997C204.015 11.4737 203.591 12.063 203.053 12.765L202.364 12.18C202.997 11.374 203.482 10.6807 203.82 10.1C204.158 9.51067 204.401 8.93 204.548 8.358C204.696 7.77733 204.769 7.11867 204.769 6.382V6.005H202.637V5.173H207.798V6.005H205.705V6.382C205.705 7.38733 205.567 8.28 205.289 9.06L205.354 9.099L205.484 8.995C205.58 8.93433 205.662 8.904 205.731 8.904ZM222.704 5.199H216.061V4.367H223.666V5.004C223.666 6.13933 223.532 7.30067 223.263 8.488L222.327 8.358C222.57 7.33533 222.695 6.28233 222.704 5.199ZM225.252 9.398V10.256H214.644V9.398H218.999V7.149H219.974V9.398H225.252ZM223.796 13.662C223.796 14.1127 223.649 14.5113 223.354 14.858C223.068 15.2133 222.635 15.4907 222.054 15.69C221.482 15.8893 220.78 15.989 219.948 15.989C219.116 15.989 218.41 15.8893 217.829 15.69C217.257 15.4907 216.824 15.2133 216.529 14.858C216.243 14.5113 216.1 14.1127 216.1 13.662C216.1 13.2113 216.243 12.8127 216.529 12.466C216.824 12.1193 217.257 11.8463 217.829 11.647C218.41 11.4477 219.116 11.348 219.948 11.348C220.78 11.348 221.482 11.4477 222.054 11.647C222.635 11.8463 223.068 12.1193 223.354 12.466C223.649 12.8127 223.796 13.2113 223.796 13.662ZM222.756 13.571C222.756 13.1637 222.522 12.8213 222.054 12.544C221.595 12.2667 220.893 12.128 219.948 12.128C219.012 12.128 218.306 12.2667 217.829 12.544C217.361 12.8213 217.127 13.1637 217.127 13.571V13.766C217.127 14.1647 217.361 14.5027 217.829 14.78C218.306 15.0573 219.012 15.196 219.948 15.196C220.893 15.196 221.595 15.0573 222.054 14.78C222.522 14.5027 222.756 14.1647 222.756 13.766V13.571Z" fill="white"/>
<rect y="4" width="2" height="10" fill="white"/>
</svg>
