<svg width="246" height="80" viewBox="0 0 246 80" fill="none" xmlns="http://www.w3.org/2000/svg">
<path d="M3.85195 63L3.85195 28.1L27.602 28.1V34.85H11.452L11.452 42H25.302L25.302 48.7L11.452 48.7L11.452 56.25L27.602 56.25V63L3.85195 63ZM34.223 63L34.223 28.1H50.723C52.3564 28.1 53.823 28.3833 55.123 28.95C56.423 29.4833 57.523 30.2333 58.423 31.2C59.3564 32.1667 60.073 33.35 60.573 34.75C61.073 36.1167 61.323 37.6167 61.323 39.25C61.323 40.9167 61.073 42.4333 60.573 43.8C60.073 45.1667 59.3564 46.3333 58.423 47.3C57.523 48.2667 56.423 49.0333 55.123 49.6C53.823 50.1333 52.3564 50.4 50.723 50.4H41.823V63H34.223ZM41.823 43.8H49.823C50.9564 43.8 51.8397 43.5167 52.473 42.95C53.1397 42.35 53.473 41.4833 53.473 40.35V38.15C53.473 37.0167 53.1397 36.1667 52.473 35.6C51.8397 35 50.9564 34.7 49.823 34.7H41.823V43.8ZM65.6855 63V56.95L70.1855 56.95L70.1855 34.15H65.6855V28.1L82.2855 28.1V34.15H77.7855L77.7855 56.95H82.2855V63L65.6855 63ZM88.6176 63L88.6176 28.1H96.2176L96.2176 56.25H109.518V63H88.6176ZM127.129 63.6C124.829 63.6 122.729 63.2167 120.829 62.45C118.929 61.6833 117.313 60.55 115.979 59.05C114.646 57.5167 113.613 55.6333 112.879 53.4C112.146 51.1333 111.779 48.5167 111.779 45.55C111.779 42.5833 112.146 39.9833 112.879 37.75C113.613 35.4833 114.646 33.6 115.979 32.1C117.313 30.5667 118.929 29.4167 120.829 28.65C122.729 27.8833 124.829 27.5 127.129 27.5C129.429 27.5 131.529 27.8833 133.429 28.65C135.329 29.4167 136.946 30.5667 138.279 32.1C139.613 33.6 140.646 35.4833 141.379 37.75C142.113 39.9833 142.479 42.5833 142.479 45.55C142.479 48.5167 142.113 51.1333 141.379 53.4C140.646 55.6333 139.613 57.5167 138.279 59.05C136.946 60.55 135.329 61.6833 133.429 62.45C131.529 63.2167 129.429 63.6 127.129 63.6ZM127.129 56.85C129.429 56.85 131.213 56.1 132.479 54.6C133.779 53.1 134.429 50.95 134.429 48.15V42.95C134.429 40.15 133.779 38 132.479 36.5C131.213 35 129.429 34.25 127.129 34.25C124.829 34.25 123.029 35 121.729 36.5C120.463 38 119.829 40.15 119.829 42.95V48.15C119.829 50.95 120.463 53.1 121.729 54.6C123.029 56.1 124.829 56.85 127.129 56.85ZM170.973 57.45H170.723C170.456 59.2167 169.556 60.6833 168.023 61.85C166.489 63.0167 164.406 63.6 161.773 63.6C159.773 63.6 157.906 63.2167 156.173 62.45C154.439 61.6833 152.923 60.55 151.623 59.05C150.323 57.55 149.306 55.6833 148.573 53.45C147.839 51.2167 147.473 48.6333 147.473 45.7C147.473 42.7667 147.856 40.1667 148.623 37.9C149.389 35.6333 150.456 33.7333 151.823 32.2C153.223 30.6667 154.889 29.5 156.823 28.7C158.756 27.9 160.906 27.5 163.273 27.5C166.406 27.5 169.106 28.1833 171.373 29.55C173.639 30.8833 175.423 32.9 176.723 35.6L170.523 39.15C169.989 37.7833 169.156 36.6333 168.023 35.7C166.889 34.7333 165.306 34.25 163.273 34.25C160.906 34.25 159.023 34.9333 157.623 36.3C156.223 37.6667 155.523 39.8167 155.523 42.75V48.35C155.523 51.25 156.223 53.4 157.623 54.8C159.023 56.1667 160.906 56.85 163.273 56.85C164.206 56.85 165.089 56.75 165.923 56.55C166.756 56.3167 167.489 55.9833 168.123 55.55C168.756 55.0833 169.239 54.5333 169.573 53.9C169.939 53.2667 170.123 52.5167 170.123 51.65V49.9H163.623V43.55H177.373V63H170.973V57.45ZM191.96 28.1V49.5C191.96 51.9667 192.443 53.8167 193.41 55.05C194.377 56.25 195.993 56.85 198.26 56.85C200.527 56.85 202.143 56.25 203.11 55.05C204.077 53.8167 204.56 51.9667 204.56 49.5V28.1L211.96 28.1V48.7C211.96 51.2667 211.71 53.5 211.21 55.4C210.743 57.2667 209.96 58.8167 208.86 60.05C207.76 61.25 206.343 62.15 204.61 62.75C202.877 63.3167 200.76 63.6 198.26 63.6C195.76 63.6 193.643 63.3167 191.91 62.75C190.177 62.15 188.76 61.25 187.66 60.05C186.56 58.8167 185.76 57.2667 185.26 55.4C184.793 53.5 184.56 51.2667 184.56 48.7V28.1L191.96 28.1ZM219.477 63V28.1L243.227 28.1V34.85L227.077 34.85V42L240.927 42V48.7H227.077V56.25L243.227 56.25V63L219.477 63Z" fill="white"/>
<line x1="100" y1="2.5" x2="146" y2="2.5" stroke="white" stroke-width="5"/>
</svg>
