<svg width="620" height="143" viewBox="0 0 620 143" fill="none" xmlns="http://www.w3.org/2000/svg">
<path d="M290.004 51V16.1L297.604 16.1V44.25L310.904 44.25V51L290.004 51ZM328.516 51.6C326.216 51.6 324.116 51.2167 322.216 50.45C320.316 49.6833 318.699 48.55 317.366 47.05C316.033 45.5167 314.999 43.6333 314.266 41.4C313.533 39.1333 313.166 36.5167 313.166 33.55C313.166 30.5833 313.533 27.9833 314.266 25.75C314.999 23.4833 316.033 21.6 317.366 20.1C318.699 18.5667 320.316 17.4167 322.216 16.65C324.116 15.8833 326.216 15.5 328.516 15.5C330.816 15.5 332.916 15.8833 334.816 16.65C336.716 17.4167 338.333 18.5667 339.666 20.1C340.999 21.6 342.033 23.4833 342.766 25.75C343.499 27.9833 343.866 30.5833 343.866 33.55C343.866 36.5167 343.499 39.1333 342.766 41.4C342.033 43.6333 340.999 45.5167 339.666 47.05C338.333 48.55 336.716 49.6833 334.816 50.45C332.916 51.2167 330.816 51.6 328.516 51.6ZM328.516 44.85C330.816 44.85 332.599 44.1 333.866 42.6C335.166 41.1 335.816 38.95 335.816 36.15V30.95C335.816 28.15 335.166 26 333.866 24.5C332.599 23 330.816 22.25 328.516 22.25C326.216 22.25 324.416 23 323.116 24.5C321.849 26 321.216 28.15 321.216 30.95V36.15C321.216 38.95 321.849 41.1 323.116 42.6C324.416 44.1 326.216 44.85 328.516 44.85ZM372.359 45.45H372.109C371.843 47.2167 370.943 48.6833 369.409 49.85C367.876 51.0167 365.793 51.6 363.159 51.6C361.159 51.6 359.293 51.2167 357.559 50.45C355.826 49.6833 354.309 48.55 353.009 47.05C351.709 45.55 350.693 43.6833 349.959 41.45C349.226 39.2167 348.859 36.6333 348.859 33.7C348.859 30.7667 349.243 28.1667 350.009 25.9C350.776 23.6333 351.843 21.7333 353.209 20.2C354.609 18.6667 356.276 17.5 358.209 16.7C360.143 15.9 362.293 15.5 364.659 15.5C367.793 15.5 370.493 16.1833 372.759 17.55C375.026 18.8833 376.809 20.9 378.109 23.6L371.909 27.15C371.376 25.7833 370.543 24.6333 369.409 23.7C368.276 22.7333 366.693 22.25 364.659 22.25C362.293 22.25 360.409 22.9333 359.009 24.3C357.609 25.6667 356.909 27.8167 356.909 30.75V36.35C356.909 39.25 357.609 41.4 359.009 42.8C360.409 44.1667 362.293 44.85 364.659 44.85C365.593 44.85 366.476 44.75 367.309 44.55C368.143 44.3167 368.876 43.9833 369.509 43.55C370.143 43.0833 370.626 42.5333 370.959 41.9C371.326 41.2667 371.509 40.5167 371.509 39.65V37.9H365.009V31.55H378.759V51H372.359V45.45ZM400.147 51.6C397.847 51.6 395.747 51.2167 393.847 50.45C391.947 49.6833 390.33 48.55 388.997 47.05C387.664 45.5167 386.63 43.6333 385.897 41.4C385.164 39.1333 384.797 36.5167 384.797 33.55C384.797 30.5833 385.164 27.9833 385.897 25.75C386.63 23.4833 387.664 21.6 388.997 20.1C390.33 18.5667 391.947 17.4167 393.847 16.65C395.747 15.8833 397.847 15.5 400.147 15.5C402.447 15.5 404.547 15.8833 406.447 16.65C408.347 17.4167 409.964 18.5667 411.297 20.1C412.63 21.6 413.664 23.4833 414.397 25.75C415.13 27.9833 415.497 30.5833 415.497 33.55C415.497 36.5167 415.13 39.1333 414.397 41.4C413.664 43.6333 412.63 45.5167 411.297 47.05C409.964 48.55 408.347 49.6833 406.447 50.45C404.547 51.2167 402.447 51.6 400.147 51.6ZM400.147 44.85C402.447 44.85 404.23 44.1 405.497 42.6C406.797 41.1 407.447 38.95 407.447 36.15V30.95C407.447 28.15 406.797 26 405.497 24.5C404.23 23 402.447 22.25 400.147 22.25C397.847 22.25 396.047 23 394.747 24.5C393.48 26 392.847 28.15 392.847 30.95V36.15C392.847 38.95 393.48 41.1 394.747 42.6C396.047 44.1 397.847 44.85 400.147 44.85ZM444.957 51.6C441.89 51.6 439.29 51.0833 437.157 50.05C435.023 48.9833 433.207 47.6167 431.707 45.95L436.707 40.9C439.073 43.5667 441.99 44.9 445.457 44.9C447.323 44.9 448.707 44.5167 449.607 43.75C450.507 42.9833 450.957 41.9667 450.957 40.7C450.957 39.7333 450.69 38.9333 450.157 38.3C449.623 37.6333 448.54 37.1833 446.907 36.95L443.457 36.5C439.757 36.0333 437.04 34.9167 435.307 33.15C433.607 31.3833 432.757 29.0333 432.757 26.1C432.757 24.5333 433.057 23.1 433.657 21.8C434.257 20.5 435.107 19.3833 436.207 18.45C437.34 17.5167 438.707 16.8 440.307 16.3C441.94 15.7667 443.79 15.5 445.857 15.5C448.49 15.5 450.807 15.9167 452.807 16.75C454.807 17.5833 456.523 18.8 457.957 20.4L452.907 25.5C452.073 24.5333 451.057 23.75 449.857 23.15C448.69 22.5167 447.207 22.2 445.407 22.2C443.707 22.2 442.44 22.5 441.607 23.1C440.773 23.7 440.357 24.5333 440.357 25.6C440.357 26.8 440.673 27.6667 441.307 28.2C441.973 28.7333 443.04 29.1167 444.507 29.35L447.957 29.9C451.557 30.4667 454.223 31.5833 455.957 33.25C457.69 34.8833 458.557 37.2167 458.557 40.25C458.557 41.9167 458.257 43.45 457.657 44.85C457.057 46.25 456.173 47.45 455.007 48.45C453.873 49.45 452.457 50.2333 450.757 50.8C449.057 51.3333 447.123 51.6 444.957 51.6ZM471.406 51V37.35L459.456 16.1H467.956L475.456 30H475.556L482.756 16.1H491.006L479.056 37.3V51H471.406ZM504.429 51.6C501.363 51.6 498.763 51.0833 496.629 50.05C494.496 48.9833 492.679 47.6167 491.179 45.95L496.179 40.9C498.546 43.5667 501.463 44.9 504.929 44.9C506.796 44.9 508.179 44.5167 509.079 43.75C509.979 42.9833 510.429 41.9667 510.429 40.7C510.429 39.7333 510.163 38.9333 509.629 38.3C509.096 37.6333 508.013 37.1833 506.379 36.95L502.929 36.5C499.229 36.0333 496.513 34.9167 494.779 33.15C493.079 31.3833 492.229 29.0333 492.229 26.1C492.229 24.5333 492.529 23.1 493.129 21.8C493.729 20.5 494.579 19.3833 495.679 18.45C496.813 17.5167 498.179 16.8 499.779 16.3C501.413 15.7667 503.263 15.5 505.329 15.5C507.963 15.5 510.279 15.9167 512.279 16.75C514.279 17.5833 515.996 18.8 517.429 20.4L512.379 25.5C511.546 24.5333 510.529 23.75 509.329 23.15C508.163 22.5167 506.679 22.2 504.879 22.2C503.179 22.2 501.913 22.5 501.079 23.1C500.246 23.7 499.829 24.5333 499.829 25.6C499.829 26.8 500.146 27.6667 500.779 28.2C501.446 28.7333 502.513 29.1167 503.979 29.35L507.429 29.9C511.029 30.4667 513.696 31.5833 515.429 33.25C517.163 34.8833 518.029 37.2167 518.029 40.25C518.029 41.9167 517.729 43.45 517.129 44.85C516.529 46.25 515.646 47.45 514.479 48.45C513.346 49.45 511.929 50.2333 510.229 50.8C508.529 51.3333 506.596 51.6 504.429 51.6ZM537.709 22.85V51H530.109V22.85H520.659V16.1L547.159 16.1V22.85L537.709 22.85ZM552.358 51V16.1L576.108 16.1V22.85L559.958 22.85V30L573.808 30V36.7L559.958 36.7V44.25L576.108 44.25V51L552.358 51ZM608.829 28.1H608.679L606.129 33.2L599.329 45.55L592.679 33.25L590.029 27.75H589.879V51H582.729V16.1L590.779 16.1L599.329 32.45H599.429L607.879 16.1H615.979V51H608.829V28.1Z" fill="#EDE6DB" fill-opacity="0.5"/>
<path d="M12.81 81.605V82.58H0.57V81.605H6.12V80.255C4.82 80.195 3.835 79.91 3.165 79.4C2.505 78.88 2.175 78.23 2.175 77.45C2.175 76.91 2.34 76.43 2.67 76.01C3 75.59 3.5 75.26 4.17 75.02C4.85 74.77 5.69 74.645 6.69 74.645C7.69 74.645 8.525 74.77 9.195 75.02C9.875 75.26 10.38 75.59 10.71 76.01C11.04 76.43 11.205 76.91 11.205 77.45C11.205 78.23 10.87 78.88 10.2 79.4C9.54 79.91 8.56 80.195 7.26 80.255V81.605H12.81ZM6.69 79.37C7.79 79.37 8.615 79.2 9.165 78.86C9.715 78.52 9.99 78.09 9.99 77.57V77.33C9.99 76.81 9.715 76.38 9.165 76.04C8.615 75.7 7.79 75.53 6.69 75.53C5.59 75.53 4.765 75.7 4.215 76.04C3.665 76.38 3.39 76.81 3.39 77.33V77.57C3.39 78.09 3.665 78.52 4.215 78.86C4.765 79.2 5.59 79.37 6.69 79.37ZM3.465 86.795H11.235V87.755H3.09C2.85 87.755 2.665 87.69 2.535 87.56C2.405 87.43 2.34 87.24 2.34 86.99V83.78H3.465V86.795ZM26.184 81.755V82.685H13.944V81.755H19.509V80.345H15.804V74.735H24.309V75.635H16.899V77.105H24.084V77.975H16.914V79.445H24.549V80.345H20.634V81.755H26.184ZM24.504 86C24.504 86.71 24.124 87.275 23.364 87.695C22.604 88.115 21.504 88.325 20.064 88.325C18.624 88.325 17.524 88.115 16.764 87.695C16.004 87.275 15.624 86.71 15.624 86C15.624 85.3 16.004 84.74 16.764 84.32C17.524 83.89 18.624 83.675 20.064 83.675C21.504 83.675 22.604 83.89 23.364 84.32C24.124 84.74 24.504 85.3 24.504 86ZM23.304 85.91C23.304 85.52 23.034 85.195 22.494 84.935C21.964 84.675 21.154 84.545 20.064 84.545C18.984 84.545 18.169 84.675 17.619 84.935C17.079 85.195 16.809 85.52 16.809 85.91V86.09C16.809 86.48 17.079 86.805 17.619 87.065C18.169 87.325 18.984 87.455 20.064 87.455C21.154 87.455 21.964 87.325 22.494 87.065C23.034 86.805 23.304 86.48 23.304 86.09V85.91ZM38.883 74.465V87.485H37.773V80.495H35.718V87.125H34.623V74.69H35.718V79.55H37.773V74.465H38.883ZM33.483 82.7L33.633 83.6C32.423 83.91 30.928 84.065 29.148 84.065H27.918V75.8H32.763V76.76H29.013V83.12H29.418C31.058 83.12 32.413 82.98 33.483 82.7ZM50.7871 78.005V74.465H51.9271V84.35H50.7871V78.965H48.0571V78.005H50.7871ZM44.7871 79.415C44.7171 79.415 44.6521 79.445 44.5921 79.505C44.3221 79.925 43.9771 80.36 43.5571 80.81C43.1371 81.25 42.5771 81.79 41.8771 82.43L41.0221 81.695C41.8621 80.975 42.5121 80.355 42.9721 79.835C43.4321 79.305 43.7621 78.785 43.9621 78.275C44.1721 77.755 44.2771 77.175 44.2771 76.535V76.385H41.4121V75.44H48.2521V76.385H45.4171V76.595C45.4171 77.485 45.2421 78.28 44.8921 78.98L44.9821 79.025L45.2071 78.845C45.3171 78.765 45.4221 78.725 45.5221 78.725C45.6421 78.725 45.7621 78.775 45.8821 78.875L48.6871 81.425L47.8471 82.16L45.0121 79.505C44.9521 79.445 44.8771 79.415 44.7871 79.415ZM52.1971 86.825V87.77H44.3371C44.0971 87.77 43.9121 87.705 43.7821 87.575C43.6521 87.445 43.5871 87.255 43.5871 87.005V83.45H44.7421V86.825H52.1971ZM58.046 80.42V79.4H65.036V80.42H58.046ZM58.046 83.42V82.4H65.036V83.42H58.046ZM74.8901 86.18C74.2101 86.18 73.5951 86.065 73.0451 85.835C72.5051 85.595 72.0401 85.25 71.6501 84.8C71.2701 84.34 70.9751 83.775 70.7651 83.105C70.5551 82.425 70.4501 81.645 70.4501 80.765C70.4501 79.885 70.5551 79.11 70.7651 78.44C70.9751 77.77 71.2701 77.205 71.6501 76.745C72.0401 76.285 72.5051 75.94 73.0451 75.71C73.5951 75.47 74.2101 75.35 74.8901 75.35C75.5601 75.35 76.1701 75.47 76.7201 75.71C77.2701 75.94 77.7351 76.285 78.1151 76.745C78.5051 77.205 78.8051 77.77 79.0151 78.44C79.2251 79.11 79.3301 79.885 79.3301 80.765C79.3301 81.645 79.2251 82.425 79.0151 83.105C78.8051 83.775 78.5051 84.34 78.1151 84.8C77.7351 85.25 77.2701 85.595 76.7201 85.835C76.1701 86.065 75.5601 86.18 74.8901 86.18ZM74.8901 85.055C75.3401 85.055 75.7551 84.975 76.1351 84.815C76.5151 84.655 76.8401 84.425 77.1101 84.125C77.3901 83.825 77.6051 83.465 77.7551 83.045C77.9051 82.625 77.9801 82.155 77.9801 81.635V79.895C77.9801 79.375 77.9051 78.905 77.7551 78.485C77.6051 78.065 77.3901 77.705 77.1101 77.405C76.8401 77.105 76.5151 76.875 76.1351 76.715C75.7551 76.555 75.3401 76.475 74.8901 76.475C74.4401 76.475 74.0251 76.555 73.6451 76.715C73.2651 76.875 72.9351 77.105 72.6551 77.405C72.3851 77.705 72.1751 78.065 72.0251 78.485C71.8751 78.905 71.8001 79.375 71.8001 79.895V81.635C71.8001 82.155 71.8751 82.625 72.0251 83.045C72.1751 83.465 72.3851 83.825 72.6551 84.125C72.9351 84.425 73.2651 84.655 73.6451 84.815C74.0251 84.975 74.4401 85.055 74.8901 85.055ZM84.1302 79.61L82.8702 77.285H82.8252V86H81.5952V75.53H83.0502L86.8752 81.92L88.1352 84.245H88.1802V75.53H89.4102V86H87.9552L84.1302 79.61ZM94.6757 79.325H91.4207V80.375H93.6107V84.635H94.6757V79.325ZM94.6757 84.185H93.7007C92.9057 84.83 91.9757 85.505 91.2257 85.97L91.7807 87.08C92.6357 86.435 93.4457 85.775 94.2107 85.13C95.1407 86.315 96.5057 86.84 98.4707 86.915C100.151 86.99 103.361 86.96 105.026 86.885C105.086 86.555 105.251 86.03 105.386 85.775C103.586 85.895 100.121 85.94 98.4707 85.865C96.7007 85.805 95.4107 85.295 94.6757 84.185ZM91.6757 74.45C92.6207 75.155 93.7157 76.22 94.1807 76.955L95.0357 76.175C94.5407 75.44 93.4157 74.42 92.4557 73.745L91.6757 74.45ZM97.6757 75.92C99.1307 76.475 100.991 77.33 101.936 77.915L102.701 77.21C101.696 76.61 99.8057 75.785 98.3957 75.29L97.6757 75.92ZM96.2507 77.18V84.95H97.3157V78.05H104.006V77.18H96.2507ZM103.466 77.18V83.81C103.466 84.005 103.421 84.065 103.226 84.065C103.031 84.065 102.401 84.08 101.696 84.05C101.831 84.305 101.966 84.695 102.011 84.98C103.016 84.98 103.646 84.98 104.036 84.8C104.441 84.635 104.546 84.38 104.546 83.825V77.18H103.466ZM96.2507 74.03V74.93H103.736V74.03H96.2507ZM96.8357 79.37V80.21H103.901V79.37H96.8357ZM96.8357 81.575V82.445H103.901V81.575H96.8357ZM99.8357 77.54V84.89H100.856V77.54H99.8357ZM103.361 74.03V74.24C102.686 74.945 101.291 75.815 100.061 76.295C100.226 76.46 100.511 76.76 100.661 76.955C102.026 76.385 103.541 75.455 104.546 74.51L103.856 73.97L103.616 74.03H103.361ZM107.051 81.32C107.051 80.6 107.121 79.905 107.261 79.235C107.401 78.565 107.591 77.945 107.831 77.375C108.081 76.795 108.371 76.27 108.701 75.8C109.031 75.33 109.386 74.93 109.766 74.6H110.906C110.486 74.98 110.106 75.41 109.766 75.89C109.436 76.37 109.151 76.88 108.911 77.42C108.681 77.96 108.501 78.51 108.371 79.07C108.241 79.63 108.176 80.17 108.176 80.69V81.98C108.176 82.51 108.241 83.055 108.371 83.615C108.501 84.175 108.686 84.725 108.926 85.265C109.166 85.805 109.451 86.315 109.781 86.795C110.121 87.275 110.496 87.695 110.906 88.055H109.766C109.396 87.745 109.046 87.355 108.716 86.885C108.386 86.415 108.096 85.89 107.846 85.31C107.606 84.73 107.411 84.105 107.261 83.435C107.121 82.755 107.051 82.05 107.051 81.32ZM123.64 81.755V82.685H111.4V81.755H116.965V80.345H113.26V74.735H121.765V75.635H114.355V77.105H121.54V77.975H114.37V79.445H122.005V80.345H118.09V81.755H123.64ZM121.96 86C121.96 86.71 121.58 87.275 120.82 87.695C120.06 88.115 118.96 88.325 117.52 88.325C116.08 88.325 114.98 88.115 114.22 87.695C113.46 87.275 113.08 86.71 113.08 86C113.08 85.3 113.46 84.74 114.22 84.32C114.98 83.89 116.08 83.675 117.52 83.675C118.96 83.675 120.06 83.89 120.82 84.32C121.58 84.74 121.96 85.3 121.96 86ZM120.76 85.91C120.76 85.52 120.49 85.195 119.95 84.935C119.42 84.675 118.61 84.545 117.52 84.545C116.44 84.545 115.625 84.675 115.075 84.935C114.535 85.195 114.265 85.52 114.265 85.91V86.09C114.265 86.48 114.535 86.805 115.075 87.065C115.625 87.325 116.44 87.455 117.52 87.455C118.61 87.455 119.42 87.325 119.95 87.065C120.49 86.805 120.76 86.48 120.76 86.09V85.91ZM137.419 77.825V78.785H135.334V81.815H134.194V74.465H135.334V77.825H137.419ZM130.759 75.62H126.754V74.705H130.759V75.62ZM128.659 81.605C127.719 81.605 126.964 81.425 126.394 81.065C125.834 80.695 125.554 80.21 125.554 79.61C125.554 78.83 125.964 78.285 126.784 77.975V77.885H124.564V77H132.694V77.885H130.534V77.975C131.354 78.285 131.764 78.83 131.764 79.61C131.764 80.21 131.479 80.695 130.909 81.065C130.349 81.425 129.599 81.605 128.659 81.605ZM128.479 80.69H128.839C129.389 80.69 129.839 80.57 130.189 80.33C130.539 80.09 130.714 79.755 130.714 79.325C130.714 78.895 130.539 78.56 130.189 78.32C129.849 78.08 129.399 77.96 128.839 77.96H128.479C127.919 77.96 127.464 78.08 127.114 78.32C126.774 78.56 126.604 78.895 126.604 79.325C126.604 79.755 126.779 80.09 127.129 80.33C127.479 80.57 127.929 80.69 128.479 80.69ZM128.179 87.17H135.694V88.1H127.819C127.579 88.1 127.394 88.035 127.264 87.905C127.134 87.775 127.069 87.585 127.069 87.335V84.89H134.224V83.51H126.979V82.595H135.334V85.79H128.179V87.17ZM153.933 81.755V82.685H141.693V81.755H147.258V80.345H143.553V74.735H152.058V75.635H144.648V77.105H151.833V77.975H144.663V79.445H152.298V80.345H148.383V81.755H153.933ZM152.253 86C152.253 86.71 151.873 87.275 151.113 87.695C150.353 88.115 149.253 88.325 147.813 88.325C146.373 88.325 145.273 88.115 144.513 87.695C143.753 87.275 143.373 86.71 143.373 86C143.373 85.3 143.753 84.74 144.513 84.32C145.273 83.89 146.373 83.675 147.813 83.675C149.253 83.675 150.353 83.89 151.113 84.32C151.873 84.74 152.253 85.3 152.253 86ZM151.053 85.91C151.053 85.52 150.783 85.195 150.243 84.935C149.713 84.675 148.903 84.545 147.813 84.545C146.733 84.545 145.918 84.675 145.368 84.935C144.828 85.195 144.558 85.52 144.558 85.91V86.09C144.558 86.48 144.828 86.805 145.368 87.065C145.918 87.325 146.733 87.455 147.813 87.455C148.903 87.455 149.713 87.325 150.243 87.065C150.783 86.805 151.053 86.48 151.053 86.09V85.91ZM158.277 81.32C158.277 82.05 158.202 82.755 158.052 83.435C157.912 84.105 157.717 84.73 157.467 85.31C157.227 85.89 156.942 86.415 156.612 86.885C156.282 87.355 155.932 87.745 155.562 88.055H154.422C154.832 87.695 155.202 87.275 155.532 86.795C155.872 86.315 156.162 85.805 156.402 85.265C156.642 84.725 156.827 84.175 156.957 83.615C157.087 83.055 157.152 82.51 157.152 81.98V80.69C157.152 80.17 157.087 79.63 156.957 79.07C156.827 78.51 156.642 77.96 156.402 77.42C156.172 76.88 155.887 76.37 155.547 75.89C155.217 75.41 154.842 74.98 154.422 74.6H155.562C155.942 74.93 156.297 75.33 156.627 75.8C156.957 76.27 157.242 76.795 157.482 77.375C157.732 77.945 157.927 78.565 158.067 79.235C158.207 79.905 158.277 80.6 158.277 81.32ZM171.656 74.465V87.485H170.546V80.495H168.491V87.125H167.396V74.69H168.491V79.55H170.546V74.465H171.656ZM166.256 82.7L166.406 83.6C165.196 83.91 163.701 84.065 161.921 84.065H160.691V75.8H165.536V76.76H161.786V83.12H162.191C163.831 83.12 165.186 82.98 166.256 82.7ZM183.561 78.005V74.465H184.701V84.35H183.561V78.965H180.831V78.005H183.561ZM177.561 79.415C177.491 79.415 177.426 79.445 177.366 79.505C177.096 79.925 176.751 80.36 176.331 80.81C175.911 81.25 175.351 81.79 174.651 82.43L173.796 81.695C174.636 80.975 175.286 80.355 175.746 79.835C176.206 79.305 176.536 78.785 176.736 78.275C176.946 77.755 177.051 77.175 177.051 76.535V76.385H174.186V75.44H181.026V76.385H178.191V76.595C178.191 77.485 178.016 78.28 177.666 78.98L177.756 79.025L177.981 78.845C178.091 78.765 178.196 78.725 178.296 78.725C178.416 78.725 178.536 78.775 178.656 78.875L181.461 81.425L180.621 82.16L177.786 79.505C177.726 79.445 177.651 79.415 177.561 79.415ZM184.971 86.825V87.77H177.111C176.871 87.77 176.686 87.705 176.556 87.575C176.426 87.445 176.361 87.255 176.361 87.005V83.45H177.516V86.825H184.971Z" fill="#999999"/>
<path d="M1.98 103.65C1.66 103.65 1.425 103.57 1.275 103.41C1.135 103.24 1.065 103.025 1.065 102.765V102.555C1.065 102.145 1.185 101.695 1.425 101.205C1.665 100.705 2 100.27 2.43 99.9H3.435C3.135 100.22 2.89 100.525 2.7 100.815C2.52 101.095 2.39 101.41 2.31 101.76C2.51 101.81 2.655 101.905 2.745 102.045C2.845 102.185 2.895 102.355 2.895 102.555V102.765C2.895 103.025 2.82 103.24 2.67 103.41C2.53 103.57 2.3 103.65 1.98 103.65ZM16.9116 106.605V107.58H4.67156V106.605H10.2216V105.255C8.92156 105.195 7.93656 104.91 7.26656 104.4C6.60656 103.88 6.27656 103.23 6.27656 102.45C6.27656 101.91 6.44156 101.43 6.77156 101.01C7.10156 100.59 7.60156 100.26 8.27156 100.02C8.95156 99.77 9.79156 99.645 10.7916 99.645C11.7916 99.645 12.6266 99.77 13.2966 100.02C13.9766 100.26 14.4816 100.59 14.8116 101.01C15.1416 101.43 15.3066 101.91 15.3066 102.45C15.3066 103.23 14.9716 103.88 14.3016 104.4C13.6416 104.91 12.6616 105.195 11.3616 105.255V106.605H16.9116ZM10.7916 104.37C11.8916 104.37 12.7166 104.2 13.2666 103.86C13.8166 103.52 14.0916 103.09 14.0916 102.57V102.33C14.0916 101.81 13.8166 101.38 13.2666 101.04C12.7166 100.7 11.8916 100.53 10.7916 100.53C9.69156 100.53 8.86656 100.7 8.31656 101.04C7.76656 101.38 7.49156 101.81 7.49156 102.33V102.57C7.49156 103.09 7.76656 103.52 8.31656 103.86C8.86656 104.2 9.69156 104.37 10.7916 104.37ZM7.56656 111.795H15.3366V112.755H7.19156C6.95156 112.755 6.76656 112.69 6.63656 112.56C6.50656 112.43 6.44156 112.24 6.44156 111.99V108.78H7.56656V111.795ZM30.2856 106.755V107.685H18.0456V106.755H23.6106V105.345H19.9056V99.735H28.4106V100.635H21.0006V102.105H28.1856V102.975H21.0156V104.445H28.6506V105.345H24.7356V106.755H30.2856ZM28.6056 111C28.6056 111.71 28.2256 112.275 27.4656 112.695C26.7056 113.115 25.6056 113.325 24.1656 113.325C22.7256 113.325 21.6256 113.115 20.8656 112.695C20.1056 112.275 19.7256 111.71 19.7256 111C19.7256 110.3 20.1056 109.74 20.8656 109.32C21.6256 108.89 22.7256 108.675 24.1656 108.675C25.6056 108.675 26.7056 108.89 27.4656 109.32C28.2256 109.74 28.6056 110.3 28.6056 111ZM27.4056 110.91C27.4056 110.52 27.1356 110.195 26.5956 109.935C26.0656 109.675 25.2556 109.545 24.1656 109.545C23.0856 109.545 22.2706 109.675 21.7206 109.935C21.1806 110.195 20.9106 110.52 20.9106 110.91V111.09C20.9106 111.48 21.1806 111.805 21.7206 112.065C22.2706 112.325 23.0856 112.455 24.1656 112.455C25.2556 112.455 26.0656 112.325 26.5956 112.065C27.1356 111.805 27.4056 111.48 27.4056 111.09V110.91ZM42.9846 99.465V112.485H41.8746V105.495H39.8196V112.125H38.7246V99.69H39.8196V104.55H41.8746V99.465H42.9846ZM37.5846 107.7L37.7346 108.6C36.5246 108.91 35.0296 109.065 33.2496 109.065H32.0196V100.8H36.8646V101.76H33.1146V108.12H33.5196C35.1596 108.12 36.5146 107.98 37.5846 107.7ZM54.8886 103.005V99.465H56.0286V109.35H54.8886V103.965H52.1586V103.005H54.8886ZM48.8886 104.415C48.8186 104.415 48.7536 104.445 48.6936 104.505C48.4236 104.925 48.0786 105.36 47.6586 105.81C47.2386 106.25 46.6786 106.79 45.9786 107.43L45.1236 106.695C45.9636 105.975 46.6136 105.355 47.0736 104.835C47.5336 104.305 47.8636 103.785 48.0636 103.275C48.2736 102.755 48.3786 102.175 48.3786 101.535V101.385H45.5136V100.44H52.3536V101.385H49.5186V101.595C49.5186 102.485 49.3436 103.28 48.9936 103.98L49.0836 104.025L49.3086 103.845C49.4186 103.765 49.5236 103.725 49.6236 103.725C49.7436 103.725 49.8636 103.775 49.9836 103.875L52.7886 106.425L51.9486 107.16L49.1136 104.505C49.0536 104.445 48.9786 104.415 48.8886 104.415ZM56.2986 111.825V112.77H48.4386C48.1986 112.77 48.0136 112.705 47.8836 112.575C47.7536 112.445 47.6886 112.255 47.6886 112.005V108.45H48.8436V111.825H56.2986ZM59.7127 99.75C60.0327 99.75 60.2627 99.835 60.4027 100.005C60.5527 100.165 60.6277 100.375 60.6277 100.635V100.845C60.6277 101.255 60.5077 101.71 60.2677 102.21C60.0277 102.7 59.6927 103.13 59.2627 103.5H58.2577C58.5577 103.18 58.7977 102.88 58.9777 102.6C59.1677 102.31 59.3027 101.99 59.3827 101.64C59.1827 101.59 59.0327 101.495 58.9327 101.355C58.8427 101.215 58.7977 101.045 58.7977 100.845V100.635C58.7977 100.375 58.8677 100.165 59.0077 100.005C59.1577 99.835 59.3927 99.75 59.7127 99.75ZM72.3192 99.465H73.4442V112.485H72.3192V99.465ZM62.9592 103.365C62.9592 102.745 63.1142 102.2 63.4242 101.73C63.7342 101.25 64.1592 100.885 64.6992 100.635C65.2392 100.375 65.8492 100.245 66.5292 100.245C67.2092 100.245 67.8192 100.375 68.3592 100.635C68.8992 100.885 69.3242 101.25 69.6342 101.73C69.9442 102.2 70.0992 102.745 70.0992 103.365C70.0992 103.985 69.9442 104.53 69.6342 105C69.3242 105.47 68.8992 105.835 68.3592 106.095C67.8192 106.345 67.2092 106.47 66.5292 106.47C65.8492 106.47 65.2392 106.345 64.6992 106.095C64.1592 105.835 63.7342 105.47 63.4242 105C63.1142 104.53 62.9592 103.985 62.9592 103.365ZM68.8992 103.545V103.185C68.8992 102.585 68.6792 102.1 68.2392 101.73C67.7992 101.36 67.2292 101.175 66.5292 101.175C65.8292 101.175 65.2592 101.36 64.8192 101.73C64.3792 102.1 64.1592 102.585 64.1592 103.185V103.545C64.1592 104.145 64.3792 104.63 64.8192 105C65.2592 105.37 65.8292 105.555 66.5292 105.555C67.2292 105.555 67.7992 105.37 68.2392 105C68.6792 104.63 68.8992 104.145 68.8992 103.545ZM62.3292 108.78C64.0292 108.78 65.6692 108.74 67.2492 108.66C68.8292 108.58 70.1692 108.455 71.2692 108.285L71.3892 109.2C70.2592 109.38 68.8992 109.52 67.3092 109.62C65.7292 109.71 64.1042 109.755 62.4342 109.755L62.3292 108.78ZM80.5982 103.65C80.2782 103.65 80.0432 103.57 79.8932 103.41C79.7532 103.24 79.6832 103.025 79.6832 102.765V102.555C79.6832 102.145 79.8032 101.695 80.0432 101.205C80.2832 100.705 80.6182 100.27 81.0482 99.9H82.0532C81.7532 100.22 81.5082 100.525 81.3182 100.815C81.1382 101.095 81.0082 101.41 80.9282 101.76C81.1282 101.81 81.2732 101.905 81.3632 102.045C81.4632 102.185 81.5132 102.355 81.5132 102.555V102.765C81.5132 103.025 81.4382 103.24 81.2882 103.41C81.1482 103.57 80.9182 103.65 80.5982 103.65ZM95.5297 106.605V107.58H83.2897V106.605H88.8397V105.255C87.5397 105.195 86.5547 104.91 85.8847 104.4C85.2247 103.88 84.8947 103.23 84.8947 102.45C84.8947 101.91 85.0597 101.43 85.3897 101.01C85.7197 100.59 86.2197 100.26 86.8897 100.02C87.5697 99.77 88.4097 99.645 89.4097 99.645C90.4097 99.645 91.2447 99.77 91.9147 100.02C92.5947 100.26 93.0997 100.59 93.4297 101.01C93.7597 101.43 93.9247 101.91 93.9247 102.45C93.9247 103.23 93.5897 103.88 92.9197 104.4C92.2597 104.91 91.2797 105.195 89.9797 105.255V106.605H95.5297ZM89.4097 104.37C90.5097 104.37 91.3347 104.2 91.8847 103.86C92.4347 103.52 92.7097 103.09 92.7097 102.57V102.33C92.7097 101.81 92.4347 101.38 91.8847 101.04C91.3347 100.7 90.5097 100.53 89.4097 100.53C88.3097 100.53 87.4847 100.7 86.9347 101.04C86.3847 101.38 86.1097 101.81 86.1097 102.33V102.57C86.1097 103.09 86.3847 103.52 86.9347 103.86C87.4847 104.2 88.3097 104.37 89.4097 104.37ZM86.1847 111.795H93.9547V112.755H85.8097C85.5697 112.755 85.3847 112.69 85.2547 112.56C85.1247 112.43 85.0597 112.24 85.0597 111.99V108.78H86.1847V111.795ZM98.2088 99.75C98.5288 99.75 98.7588 99.835 98.8988 100.005C99.0488 100.165 99.1238 100.375 99.1238 100.635V100.845C99.1238 101.255 99.0038 101.71 98.7638 102.21C98.5238 102.7 98.1888 103.13 97.7588 103.5H96.7538C97.0538 103.18 97.2938 102.88 97.4738 102.6C97.6638 102.31 97.7988 101.99 97.8788 101.64C97.6788 101.59 97.5288 101.495 97.4288 101.355C97.3388 101.215 97.2938 101.045 97.2938 100.845V100.635C97.2938 100.375 97.3638 100.165 97.5038 100.005C97.6538 99.835 97.8888 99.75 98.2088 99.75ZM102.385 101.865C102.385 101.135 102.76 100.555 103.51 100.125C104.26 99.685 105.385 99.465 106.885 99.465C108.385 99.465 109.51 99.685 110.26 100.125C111.01 100.555 111.385 101.135 111.385 101.865C111.385 102.595 111.01 103.18 110.26 103.62C109.51 104.06 108.385 104.28 106.885 104.28C105.385 104.28 104.26 104.06 103.51 103.62C102.76 103.18 102.385 102.595 102.385 101.865ZM110.17 101.94V101.775C110.17 101.345 109.895 100.995 109.345 100.725C108.805 100.445 107.985 100.305 106.885 100.305C105.785 100.305 104.96 100.445 104.41 100.725C103.87 100.995 103.6 101.345 103.6 101.775V101.94C103.6 102.37 103.87 102.725 104.41 103.005C104.96 103.275 105.785 103.41 106.885 103.41C107.985 103.41 108.805 103.275 109.345 103.005C109.895 102.725 110.17 102.37 110.17 101.94ZM113.005 105.315V106.275H100.765V105.315H113.005ZM102.67 112.335V109.875H110.065V108.465H102.58V107.535H111.16V110.745H103.765V112.17H111.55V113.1H103.42C103.18 113.1 102.995 113.035 102.865 112.905C102.735 112.775 102.67 112.585 102.67 112.335ZM118.944 106.965L118.299 106.08C119.659 105.38 120.699 104.76 121.419 104.22C122.149 103.67 122.654 103.125 122.934 102.585C123.214 102.035 123.354 101.405 123.354 100.695V100.185H124.524V100.725C124.524 101.305 124.459 101.825 124.329 102.285C124.209 102.735 124.004 103.16 123.714 103.56L123.789 103.605L124.164 103.32C124.294 103.22 124.424 103.17 124.554 103.17C124.684 103.17 124.814 103.215 124.944 103.305L129.309 106.02L128.649 106.92L124.134 104.01C124.004 103.92 123.864 103.875 123.714 103.875C123.584 103.875 123.454 103.925 123.324 104.025C122.914 104.465 122.359 104.92 121.659 105.39C120.959 105.85 120.054 106.375 118.944 106.965ZM129.924 110.025V111H117.684V110.025H129.924ZM142.233 99.465V112.485H141.108V99.465H142.233ZM131.838 102.645C131.838 102.095 131.988 101.615 132.288 101.205C132.598 100.785 133.023 100.465 133.563 100.245C134.103 100.015 134.713 99.9 135.393 99.9C136.073 99.9 136.678 100.015 137.208 100.245C137.748 100.465 138.168 100.785 138.468 101.205C138.778 101.615 138.933 102.095 138.933 102.645C138.933 103.205 138.778 103.695 138.468 104.115C138.168 104.525 137.748 104.845 137.208 105.075C136.678 105.295 136.073 105.405 135.393 105.405C134.703 105.405 134.088 105.295 133.548 105.075C133.018 104.845 132.598 104.525 132.288 104.115C131.988 103.695 131.838 103.205 131.838 102.645ZM133.008 102.795C133.008 103.305 133.228 103.715 133.668 104.025C134.108 104.335 134.683 104.49 135.393 104.49C136.093 104.49 136.658 104.335 137.088 104.025C137.528 103.715 137.748 103.305 137.748 102.795V102.525C137.748 102.005 137.528 101.59 137.088 101.28C136.658 100.97 136.093 100.815 135.393 100.815C134.683 100.815 134.108 100.97 133.668 101.28C133.228 101.59 133.008 102.005 133.008 102.525V102.795ZM140.133 107.235C138.893 107.425 137.518 107.565 136.008 107.655V112.365H134.868V107.715C133.538 107.765 132.308 107.79 131.178 107.79L131.088 106.83C132.788 106.83 134.428 106.79 136.008 106.71C137.588 106.63 138.928 106.505 140.028 106.335L140.133 107.235ZM155.592 99.465V112.485H154.452V99.465H155.592ZM150.702 101.055H146.637V100.11H150.702V101.055ZM149.292 105.99C149.402 105.99 149.522 106.04 149.652 106.14L152.607 108.96L151.767 109.695L148.782 106.74C148.722 106.68 148.652 106.65 148.572 106.65C148.502 106.65 148.442 106.68 148.392 106.74C148.122 107.2 147.762 107.675 147.312 108.165C146.862 108.645 146.272 109.215 145.542 109.875L144.717 109.17C145.597 108.41 146.272 107.755 146.742 107.205C147.222 106.645 147.567 106.09 147.777 105.54C147.987 104.99 148.092 104.36 148.092 103.65V103.575H145.107V102.63H152.232V103.575H149.202V103.68C149.202 104.67 149.022 105.525 148.662 106.245L148.737 106.29L148.977 106.11C149.067 106.03 149.172 105.99 149.292 105.99ZM162.761 103.65C162.441 103.65 162.206 103.57 162.056 103.41C161.916 103.24 161.846 103.025 161.846 102.765V102.555C161.846 102.145 161.966 101.695 162.206 101.205C162.446 100.705 162.781 100.27 163.211 99.9H164.216C163.916 100.22 163.671 100.525 163.481 100.815C163.301 101.095 163.171 101.41 163.091 101.76C163.291 101.81 163.436 101.905 163.526 102.045C163.626 102.185 163.676 102.355 163.676 102.555V102.765C163.676 103.025 163.601 103.24 163.451 103.41C163.311 103.57 163.081 103.65 162.761 103.65ZM170.046 111.18C169.366 111.18 168.751 111.065 168.201 110.835C167.661 110.595 167.196 110.25 166.806 109.8C166.426 109.34 166.131 108.775 165.921 108.105C165.711 107.425 165.606 106.645 165.606 105.765C165.606 104.885 165.711 104.11 165.921 103.44C166.131 102.77 166.426 102.205 166.806 101.745C167.196 101.285 167.661 100.94 168.201 100.71C168.751 100.47 169.366 100.35 170.046 100.35C170.716 100.35 171.326 100.47 171.876 100.71C172.426 100.94 172.891 101.285 173.271 101.745C173.661 102.205 173.961 102.77 174.171 103.44C174.381 104.11 174.486 104.885 174.486 105.765C174.486 106.645 174.381 107.425 174.171 108.105C173.961 108.775 173.661 109.34 173.271 109.8C172.891 110.25 172.426 110.595 171.876 110.835C171.326 111.065 170.716 111.18 170.046 111.18ZM170.046 110.055C170.496 110.055 170.911 109.975 171.291 109.815C171.671 109.655 171.996 109.425 172.266 109.125C172.546 108.825 172.761 108.465 172.911 108.045C173.061 107.625 173.136 107.155 173.136 106.635V104.895C173.136 104.375 173.061 103.905 172.911 103.485C172.761 103.065 172.546 102.705 172.266 102.405C171.996 102.105 171.671 101.875 171.291 101.715C170.911 101.555 170.496 101.475 170.046 101.475C169.596 101.475 169.181 101.555 168.801 101.715C168.421 101.875 168.091 102.105 167.811 102.405C167.541 102.705 167.331 103.065 167.181 103.485C167.031 103.905 166.956 104.375 166.956 104.895V106.635C166.956 107.155 167.031 107.625 167.181 108.045C167.331 108.465 167.541 108.825 167.811 109.125C168.091 109.425 168.421 109.655 168.801 109.815C169.181 109.975 169.596 110.055 170.046 110.055ZM179.286 104.61L178.026 102.285H177.981V111H176.751V100.53H178.206L182.031 106.92L183.291 109.245H183.336V100.53H184.566V111H183.111L179.286 104.61ZM188.077 99.75C188.397 99.75 188.627 99.835 188.767 100.005C188.917 100.165 188.992 100.375 188.992 100.635V100.845C188.992 101.255 188.872 101.71 188.632 102.21C188.392 102.7 188.057 103.13 187.627 103.5H186.622C186.922 103.18 187.162 102.88 187.342 102.6C187.532 102.31 187.667 101.99 187.747 101.64C187.547 101.59 187.397 101.495 187.297 101.355C187.207 101.215 187.162 101.045 187.162 100.845V100.635C187.162 100.375 187.232 100.165 187.372 100.005C187.522 99.835 187.757 99.75 188.077 99.75ZM192.028 103.545C192.028 102.875 192.198 102.275 192.538 101.745C192.888 101.205 193.418 100.775 194.128 100.455C194.838 100.135 195.713 99.975 196.753 99.975C197.793 99.975 198.668 100.135 199.378 100.455C200.088 100.775 200.613 101.205 200.953 101.745C201.303 102.275 201.478 102.875 201.478 103.545C201.478 104.215 201.303 104.82 200.953 105.36C200.613 105.9 200.088 106.33 199.378 106.65C198.668 106.97 197.793 107.13 196.753 107.13C195.713 107.13 194.838 106.97 194.128 106.65C193.418 106.33 192.888 105.9 192.538 105.36C192.198 104.82 192.028 104.215 192.028 103.545ZM200.248 103.725V103.38C200.248 102.92 200.123 102.505 199.873 102.135C199.633 101.755 199.248 101.455 198.718 101.235C198.198 101.005 197.543 100.89 196.753 100.89C195.963 100.89 195.303 101.005 194.773 101.235C194.253 101.455 193.868 101.755 193.618 102.135C193.378 102.505 193.258 102.92 193.258 103.38V103.725C193.258 104.435 193.548 105.025 194.128 105.495C194.708 105.965 195.583 106.2 196.753 106.2C197.923 106.2 198.798 105.965 199.378 105.495C199.958 105.025 200.248 104.435 200.248 103.725ZM190.633 110.025H202.873V111H190.633V110.025ZM216.248 110.04V111H204.008V110.04H209.558V107.475H205.808V103.41H213.308V101.205H205.733V100.26H214.448V104.325H206.948V106.53H214.838V107.475H210.698V110.04H216.248ZM231.006 105.855H229.011V104.925H231.006V103.245H229.011V102.33H231.006V99.465H232.146V107.895H231.006V105.855ZM226.986 100.725H222.966V99.78H226.986V100.725ZM224.871 107.385C224.261 107.385 223.726 107.29 223.266 107.1C222.806 106.91 222.451 106.645 222.201 106.305C221.951 105.965 221.826 105.58 221.826 105.15C221.826 104.72 221.931 104.35 222.141 104.04C222.351 103.72 222.666 103.47 223.086 103.29V103.2H221.016V102.285H228.531V103.2H226.671V103.29C227.091 103.47 227.406 103.72 227.616 104.04C227.826 104.35 227.931 104.72 227.931 105.15C227.931 105.58 227.806 105.965 227.556 106.305C227.306 106.645 226.946 106.91 226.476 107.1C226.016 107.29 225.481 107.385 224.871 107.385ZM224.736 106.44H225.021C225.561 106.44 226.006 106.305 226.356 106.035C226.706 105.755 226.881 105.37 226.881 104.88C226.881 104.38 226.706 103.995 226.356 103.725C226.016 103.445 225.571 103.305 225.021 103.305H224.736C224.186 103.305 223.736 103.445 223.386 103.725C223.046 103.995 222.876 104.38 222.876 104.88C222.876 105.37 223.051 105.755 223.401 106.035C223.751 106.305 224.196 106.44 224.736 106.44ZM232.236 110.7C232.236 111.47 231.871 112.09 231.141 112.56C230.421 113.03 229.381 113.265 228.021 113.265C226.651 113.265 225.601 113.03 224.871 112.56C224.151 112.09 223.791 111.47 223.791 110.7C223.791 110.21 223.946 109.775 224.256 109.395C224.576 109.015 225.051 108.715 225.681 108.495C226.321 108.275 227.101 108.165 228.021 108.165C228.931 108.165 229.701 108.275 230.331 108.495C230.971 108.715 231.446 109.015 231.756 109.395C232.076 109.775 232.236 110.21 232.236 110.7ZM231.021 110.61C231.021 110.18 230.771 109.82 230.271 109.53C229.771 109.23 229.021 109.08 228.021 109.08C227.011 109.08 226.251 109.23 225.741 109.53C225.241 109.82 224.991 110.18 224.991 110.61V110.82C224.991 111.25 225.241 111.61 225.741 111.9C226.251 112.2 227.011 112.35 228.021 112.35C229.021 112.35 229.771 112.2 230.271 111.9C230.771 111.61 231.021 111.25 231.021 110.82V110.61ZM246.945 102.825V103.785H244.86V107.22H243.72V99.465H244.86V102.825H246.945ZM238.035 103.725C237.965 103.725 237.9 103.76 237.84 103.83C237.58 104.26 237.235 104.705 236.805 105.165C236.385 105.615 235.815 106.175 235.095 106.845L234.255 106.11C235.105 105.35 235.76 104.7 236.22 104.16C236.68 103.62 237.01 103.085 237.21 102.555C237.41 102.025 237.51 101.425 237.51 100.755V99.945H238.65V100.815C238.65 101.725 238.475 102.555 238.125 103.305L238.2 103.365L238.44 103.155C238.55 103.065 238.66 103.02 238.77 103.02C238.88 103.02 238.98 103.065 239.07 103.155L241.92 105.795L241.11 106.575L238.23 103.815C238.17 103.755 238.105 103.725 238.035 103.725ZM244.965 110.34C244.965 110.89 244.81 111.38 244.5 111.81C244.19 112.25 243.725 112.595 243.105 112.845C242.485 113.095 241.725 113.22 240.825 113.22C239.935 113.22 239.175 113.095 238.545 112.845C237.925 112.595 237.455 112.25 237.135 111.81C236.825 111.38 236.67 110.89 236.67 110.34C236.67 109.79 236.825 109.3 237.135 108.87C237.455 108.43 237.925 108.085 238.545 107.835C239.175 107.585 239.935 107.46 240.825 107.46C241.725 107.46 242.485 107.585 243.105 107.835C243.725 108.085 244.19 108.43 244.5 108.87C244.81 109.3 244.965 109.79 244.965 110.34ZM243.765 110.22C243.765 109.7 243.52 109.265 243.03 108.915C242.55 108.565 241.815 108.39 240.825 108.39C239.845 108.39 239.11 108.57 238.62 108.93C238.13 109.28 237.885 109.71 237.885 110.22V110.475C237.885 110.985 238.13 111.415 238.62 111.765C239.11 112.125 239.845 112.305 240.825 112.305C241.815 112.305 242.55 112.125 243.03 111.765C243.52 111.415 243.765 110.985 243.765 110.475V110.22ZM260.304 105.93H258.264V112.485H257.139V99.465H258.264V104.97H260.304V105.93ZM253.764 100.995H249.759V100.065H253.764V100.995ZM256.074 108.96L256.179 109.875C255.079 110.055 253.764 110.195 252.234 110.295C250.714 110.385 249.144 110.43 247.524 110.43L247.419 109.47C248.539 109.47 249.774 109.445 251.124 109.395V107.61C250.334 107.53 249.709 107.29 249.249 106.89C248.789 106.48 248.559 105.98 248.559 105.39C248.559 104.96 248.664 104.59 248.874 104.28C249.094 103.96 249.424 103.71 249.864 103.53V103.44H247.629V102.54H255.699V103.44H253.539V103.53C253.969 103.71 254.294 103.96 254.514 104.28C254.734 104.6 254.844 104.97 254.844 105.39C254.844 105.99 254.609 106.495 254.139 106.905C253.669 107.305 253.029 107.54 252.219 107.61V109.335C253.779 109.255 255.064 109.13 256.074 108.96ZM251.544 106.71H251.859C252.429 106.71 252.894 106.575 253.254 106.305C253.614 106.025 253.794 105.635 253.794 105.135C253.794 104.635 253.614 104.25 253.254 103.98C252.894 103.7 252.429 103.56 251.859 103.56H251.544C250.974 103.56 250.509 103.7 250.149 103.98C249.789 104.25 249.609 104.635 249.609 105.135C249.609 105.635 249.789 106.025 250.149 106.305C250.509 106.575 250.974 106.71 251.544 106.71ZM273.679 105.795H271.564V112.515H270.424V99.495H271.564V104.835H273.679V105.795ZM267.229 101.175H262.969V100.2H267.229V101.175ZM260.974 102.975H268.999V103.905H266.779V103.995C267.689 104.445 268.144 105.31 268.144 106.59C268.144 107.24 268.009 107.805 267.739 108.285C267.469 108.755 267.094 109.115 266.614 109.365C266.144 109.615 265.619 109.74 265.039 109.74C264.459 109.74 263.929 109.615 263.449 109.365C262.979 109.115 262.609 108.755 262.339 108.285C262.069 107.805 261.934 107.24 261.934 106.59C261.934 105.31 262.389 104.445 263.299 103.995V103.905H260.974V102.975ZM267.034 106.095C267.034 105.425 266.854 104.915 266.494 104.565C266.134 104.205 265.649 104.025 265.039 104.025C264.439 104.025 263.954 104.205 263.584 104.565C263.224 104.925 263.044 105.435 263.044 106.095V106.71C263.044 107.36 263.229 107.87 263.599 108.24C263.969 108.6 264.449 108.78 265.039 108.78C265.629 108.78 266.109 108.6 266.479 108.24C266.849 107.87 267.034 107.36 267.034 106.71V106.095ZM285.613 99.465V112.485H284.488V107.01H281.938V106.08H284.488V103.26H281.938V102.33H284.488V99.465H285.613ZM281.623 104.73C281.623 106.19 281.308 107.295 280.678 108.045C280.048 108.795 279.218 109.17 278.188 109.17C277.148 109.17 276.313 108.795 275.683 108.045C275.053 107.295 274.738 106.19 274.738 104.73C274.738 103.27 275.053 102.165 275.683 101.415C276.313 100.665 277.148 100.29 278.188 100.29C279.218 100.29 280.048 100.665 280.678 101.415C281.308 102.165 281.623 103.27 281.623 104.73ZM280.423 104.13C280.423 103.19 280.218 102.475 279.808 101.985C279.398 101.485 278.858 101.235 278.188 101.235C277.508 101.235 276.963 101.485 276.553 101.985C276.143 102.475 275.938 103.19 275.938 104.13V105.33C275.938 106.27 276.143 106.99 276.553 107.49C276.963 107.98 277.508 108.225 278.188 108.225C278.858 108.225 279.398 107.98 279.808 107.49C280.218 106.99 280.423 106.27 280.423 105.33V104.13ZM302.516 99.465V112.485H301.391V105.105H298.601C298.551 106.445 298.211 107.46 297.581 108.15C296.951 108.83 296.141 109.17 295.151 109.17C294.111 109.17 293.271 108.795 292.631 108.045C292.001 107.295 291.686 106.19 291.686 104.73C291.686 103.26 292.001 102.155 292.631 101.415C293.261 100.665 294.101 100.29 295.151 100.29C296.121 100.29 296.916 100.615 297.536 101.265C298.156 101.915 298.511 102.875 298.601 104.145H301.391V99.465H302.516ZM297.416 104.13C297.416 103.2 297.206 102.49 296.786 102C296.376 101.5 295.831 101.25 295.151 101.25C294.471 101.25 293.926 101.5 293.516 102C293.106 102.49 292.901 103.2 292.901 104.13V105.33C292.901 106.26 293.106 106.975 293.516 107.475C293.926 107.965 294.471 108.21 295.151 108.21C295.831 108.21 296.376 107.965 296.786 107.475C297.206 106.975 297.416 106.26 297.416 105.33V104.13ZM315.876 99.465V112.485H314.736V99.465H315.876ZM312.861 107.685L313.011 108.6C311.461 108.91 309.531 109.065 307.221 109.065H305.616V100.53H311.661V101.49H306.771V108.105H307.191C309.481 108.105 311.371 107.965 312.861 107.685ZM329.265 99.465V112.485H328.14V104.79H325.365V103.83H328.14V99.465H329.265ZM322.77 104.715C322.89 104.715 322.995 104.77 323.085 104.88L326.025 108.63L325.155 109.395L322.215 105.525C322.175 105.475 322.125 105.45 322.065 105.45C322.005 105.45 321.955 105.475 321.915 105.525C321.665 106.105 321.32 106.7 320.88 107.31C320.44 107.92 319.84 108.68 319.08 109.59L318.21 108.855C319.08 107.865 319.745 107.02 320.205 106.32C320.675 105.61 321.01 104.9 321.21 104.19C321.42 103.48 321.525 102.665 321.525 101.745V100.335H322.665V101.73C322.665 102.94 322.5 104.02 322.17 104.97L322.23 105.015L322.44 104.835C322.55 104.755 322.66 104.715 322.77 104.715ZM341.979 104.97H333.324V99.975H341.859V100.935H334.449V104.01H341.979V104.97ZM343.704 106.575V107.565H331.464V106.575H343.704ZM334.359 111.795H342.129V112.755H333.969C333.729 112.755 333.544 112.69 333.414 112.56C333.284 112.43 333.219 112.24 333.219 111.99V108.825H334.359V111.795ZM361.013 105.555H358.853V112.515H357.713V99.495H358.853V104.595H361.013V105.555ZM352.808 104.715C352.938 104.715 353.048 104.77 353.138 104.88L356.063 108.63L355.193 109.395L352.253 105.54C352.223 105.48 352.173 105.45 352.103 105.45C352.053 105.45 352.003 105.48 351.953 105.54C351.693 106.12 351.343 106.72 350.903 107.34C350.463 107.95 349.868 108.7 349.118 109.59L348.248 108.855C349.118 107.865 349.783 107.02 350.243 106.32C350.713 105.61 351.048 104.9 351.248 104.19C351.458 103.48 351.562 102.665 351.562 101.745V100.335H352.718V101.73C352.718 102.92 352.543 104 352.193 104.97L352.268 105.015L352.493 104.835C352.603 104.755 352.708 104.715 352.808 104.715ZM373.997 106.05V107.01H361.757V106.05H365.012V104.28C364.462 104.05 364.047 103.75 363.767 103.38C363.497 103.01 363.362 102.59 363.362 102.12C363.362 101.34 363.742 100.71 364.502 100.23C365.262 99.74 366.387 99.495 367.877 99.495C369.367 99.495 370.492 99.74 371.252 100.23C372.012 100.71 372.392 101.34 372.392 102.12C372.392 102.59 372.252 103.01 371.972 103.38C371.702 103.75 371.292 104.05 370.742 104.28V106.05H373.997ZM367.877 103.86C368.987 103.86 369.817 103.705 370.367 103.395C370.917 103.085 371.192 102.69 371.192 102.21V102C371.192 101.53 370.912 101.14 370.352 100.83C369.802 100.52 368.977 100.365 367.877 100.365C366.777 100.365 365.952 100.52 365.402 100.83C364.852 101.14 364.577 101.53 364.577 102V102.21C364.577 102.69 364.847 103.085 365.387 103.395C365.937 103.705 366.767 103.86 367.877 103.86ZM366.107 106.05H369.647V104.595C369.157 104.695 368.567 104.745 367.877 104.745C367.187 104.745 366.597 104.695 366.107 104.595V106.05ZM372.317 110.685C372.317 111.195 372.147 111.645 371.807 112.035C371.477 112.425 370.977 112.73 370.307 112.95C369.647 113.18 368.837 113.295 367.877 113.295C366.917 113.295 366.102 113.18 365.432 112.95C364.772 112.73 364.272 112.425 363.932 112.035C363.602 111.645 363.437 111.195 363.437 110.685C363.437 110.185 363.602 109.745 363.932 109.365C364.272 108.975 364.772 108.67 365.432 108.45C366.102 108.23 366.917 108.12 367.877 108.12C368.837 108.12 369.647 108.23 370.307 108.45C370.977 108.67 371.477 108.975 371.807 109.365C372.147 109.745 372.317 110.185 372.317 110.685ZM371.117 110.595C371.117 110.155 370.847 109.785 370.307 109.485C369.777 109.175 368.967 109.02 367.877 109.02C367.147 109.02 366.537 109.095 366.047 109.245C365.557 109.385 365.197 109.575 364.967 109.815C364.737 110.055 364.622 110.315 364.622 110.595V110.805C364.622 111.085 364.737 111.345 364.967 111.585C365.197 111.825 365.557 112.015 366.047 112.155C366.537 112.305 367.147 112.38 367.877 112.38C368.967 112.38 369.777 112.225 370.307 111.915C370.847 111.615 371.117 111.245 371.117 110.805V110.595ZM387.776 102.825V103.785H385.691V106.815H384.551V99.465H385.691V102.825H387.776ZM381.116 100.62H377.111V99.705H381.116V100.62ZM379.016 106.605C378.076 106.605 377.321 106.425 376.751 106.065C376.191 105.695 375.911 105.21 375.911 104.61C375.911 103.83 376.321 103.285 377.141 102.975V102.885H374.921V102H383.051V102.885H380.891V102.975C381.711 103.285 382.121 103.83 382.121 104.61C382.121 105.21 381.836 105.695 381.266 106.065C380.706 106.425 379.956 106.605 379.016 106.605ZM378.836 105.69H379.196C379.746 105.69 380.196 105.57 380.546 105.33C380.896 105.09 381.071 104.755 381.071 104.325C381.071 103.895 380.896 103.56 380.546 103.32C380.206 103.08 379.756 102.96 379.196 102.96H378.836C378.276 102.96 377.821 103.08 377.471 103.32C377.131 103.56 376.961 103.895 376.961 104.325C376.961 104.755 377.136 105.09 377.486 105.33C377.836 105.57 378.286 105.69 378.836 105.69ZM378.536 112.17H386.051V113.1H378.176C377.936 113.1 377.751 113.035 377.621 112.905C377.491 112.775 377.426 112.585 377.426 112.335V109.89H384.581V108.51H377.336V107.595H385.691V110.79H378.536V112.17ZM397.614 100.92H393.549V100.005H402.789V100.92H398.769C398.759 101.3 398.704 101.645 398.604 101.955C398.504 102.255 398.339 102.54 398.109 102.81L398.184 102.84L398.499 102.63C398.629 102.53 398.759 102.48 398.889 102.48C398.999 102.48 399.114 102.51 399.234 102.57L403.344 104.58L402.714 105.42L398.439 103.245C398.309 103.175 398.184 103.14 398.064 103.14C397.934 103.14 397.819 103.17 397.719 103.23C397.329 103.58 396.799 103.935 396.129 104.295C395.469 104.645 394.624 105.03 393.594 105.45L392.994 104.625C394.184 104.155 395.104 103.73 395.754 103.35C396.404 102.97 396.869 102.59 397.149 102.21C397.429 101.83 397.584 101.4 397.614 100.92ZM404.289 106.515V107.505H398.814V110.16H397.674V107.505H392.049V106.515H404.289ZM394.899 111.87H402.684V112.815H394.524C394.284 112.815 394.099 112.75 393.969 112.62C393.839 112.49 393.774 112.3 393.774 112.05V108.96H394.899V111.87ZM415.444 99.465H416.584V112.485H415.444V99.465ZM406.189 100.395H407.314V103.68H411.259V100.38H412.369V108.975H406.189V100.395ZM411.259 108.015V104.64H407.314V108.015H411.259ZM431.428 105.555H429.268V112.515H428.128V99.495H429.268V104.595H431.428V105.555ZM419.443 100.53H425.278V102.615C425.278 103.725 425.113 104.665 424.783 105.435C424.453 106.205 423.893 106.925 423.103 107.595C422.323 108.255 421.203 108.98 419.743 109.77L419.068 108.915C420.428 108.195 421.468 107.54 422.188 106.95C422.908 106.36 423.413 105.735 423.703 105.075C423.993 104.415 424.138 103.6 424.138 102.63V101.505H419.443V100.53ZM446.891 99.465V112.485H445.766V99.465H446.891ZM444.686 108.45L444.791 109.365C443.661 109.545 442.306 109.685 440.726 109.785C439.146 109.875 437.516 109.92 435.836 109.92L435.746 108.945C437.206 108.945 438.451 108.92 439.481 108.87V105.96H436.856V100.47H443.321V101.415H437.981V105.015H443.441V105.96H440.576V108.825C442.096 108.755 443.466 108.63 444.686 108.45ZM460.266 99.465V112.485H459.141V105.105H456.351C456.301 106.445 455.961 107.46 455.331 108.15C454.701 108.83 453.891 109.17 452.901 109.17C451.861 109.17 451.021 108.795 450.381 108.045C449.751 107.295 449.436 106.19 449.436 104.73C449.436 103.26 449.751 102.155 450.381 101.415C451.011 100.665 451.851 100.29 452.901 100.29C453.871 100.29 454.666 100.615 455.286 101.265C455.906 101.915 456.261 102.875 456.351 104.145H459.141V99.465H460.266ZM455.166 104.13C455.166 103.2 454.956 102.49 454.536 102C454.126 101.5 453.581 101.25 452.901 101.25C452.221 101.25 451.676 101.5 451.266 102C450.856 102.49 450.651 103.2 450.651 104.13V105.33C450.651 106.26 450.856 106.975 451.266 107.475C451.676 107.965 452.221 108.21 452.901 108.21C453.581 108.21 454.126 107.965 454.536 107.475C454.956 106.975 455.166 106.26 455.166 105.33V104.13ZM473.7 106.98H472.545V99.465H473.7V106.98ZM462.9 103.2C462.9 102.54 463.045 101.965 463.335 101.475C463.635 100.985 464.045 100.61 464.565 100.35C465.085 100.08 465.68 99.945 466.35 99.945C467.02 99.945 467.615 100.08 468.135 100.35C468.655 100.61 469.06 100.985 469.35 101.475C469.65 101.965 469.8 102.54 469.8 103.2C469.8 103.86 469.65 104.435 469.35 104.925C469.06 105.415 468.65 105.795 468.12 106.065C467.6 106.325 467.01 106.455 466.35 106.455C465.69 106.455 465.095 106.325 464.565 106.065C464.045 105.795 463.635 105.415 463.335 104.925C463.045 104.435 462.9 103.86 462.9 103.2ZM464.1 103.455C464.1 104.075 464.305 104.575 464.715 104.955C465.135 105.325 465.68 105.51 466.35 105.51C467.02 105.51 467.56 105.325 467.97 104.955C468.38 104.575 468.585 104.075 468.585 103.455V102.93C468.585 102.31 468.38 101.815 467.97 101.445C467.56 101.075 467.02 100.89 466.35 100.89C465.68 100.89 465.135 101.075 464.715 101.445C464.305 101.815 464.1 102.31 464.1 102.93V103.455ZM474.93 112.275L474.195 113.055L471.975 110.88C471.915 110.81 471.845 110.775 471.765 110.775C471.725 110.775 471.68 110.79 471.63 110.82C471.4 111.16 471.105 111.51 470.745 111.87C470.385 112.24 469.905 112.685 469.305 113.205L467.025 110.835C466.955 110.765 466.885 110.73 466.815 110.73C466.775 110.73 466.72 110.755 466.65 110.805C466.21 111.465 465.46 112.25 464.4 113.16L463.68 112.395C464.35 111.835 464.875 111.335 465.255 110.895C465.635 110.455 465.905 110.02 466.065 109.59C466.235 109.16 466.32 108.675 466.32 108.135V107.655H467.4V108.165C467.4 108.985 467.245 109.7 466.935 110.31L466.995 110.34L467.19 110.19C467.27 110.12 467.365 110.085 467.475 110.085C467.595 110.085 467.7 110.13 467.79 110.22L469.38 111.81C470.1 111.16 470.595 110.575 470.865 110.055C471.135 109.535 471.27 108.9 471.27 108.15V107.655H472.35V108.21C472.35 108.65 472.315 109.04 472.245 109.38C472.175 109.72 472.06 110.045 471.9 110.355L471.96 110.4L472.155 110.235C472.265 110.155 472.37 110.115 472.47 110.115C472.57 110.115 472.67 110.155 472.77 110.235L474.93 112.275ZM488.469 105.555H486.309V112.515H485.169V99.495H486.309V104.595H488.469V105.555ZM483.594 107.685L483.744 108.6C482.214 108.91 480.304 109.065 478.014 109.065H476.424V100.53H482.409V101.49H477.564V108.12H477.999C480.199 108.12 482.064 107.975 483.594 107.685ZM499.713 104.655H491.088V99.945H492.213V103.71H499.713V104.655ZM501.453 106.32V107.295H489.213V106.32H501.453ZM492.108 111.795H499.878V112.755H491.718C491.478 112.755 491.293 112.69 491.163 112.56C491.033 112.43 490.968 112.24 490.968 111.99V108.705H492.108V111.795ZM516.227 103.965H513.317V103.005H516.227V99.465H517.367V108.255H516.227V103.965ZM507.257 107.325L506.642 106.455C507.982 105.915 509.002 105.43 509.702 105C510.402 104.56 510.892 104.1 511.172 103.62C511.462 103.14 511.607 102.555 511.607 101.865V101.25H507.017V100.275H512.762V101.745C512.762 102.645 512.597 103.395 512.267 103.995C511.947 104.595 511.397 105.15 510.617 105.66C509.847 106.16 508.727 106.715 507.257 107.325ZM517.997 112.245L517.337 113.13L513.362 110.775C513.252 110.705 513.137 110.67 513.017 110.67C512.887 110.67 512.777 110.71 512.687 110.79H512.672C512.312 111.15 511.817 111.52 511.187 111.9C510.567 112.29 509.767 112.715 508.787 113.175L508.157 112.305C509.357 111.765 510.272 111.28 510.902 110.85C511.532 110.41 511.967 109.975 512.207 109.545C512.447 109.115 512.567 108.615 512.567 108.045V107.61H513.752V108.09C513.752 108.56 513.697 108.98 513.587 109.35C513.487 109.71 513.307 110.055 513.047 110.385L513.107 110.4L513.467 110.145C513.627 110.035 513.752 109.98 513.842 109.98C513.922 109.98 514.032 110.015 514.172 110.085L517.997 112.245ZM521.126 101.865C521.126 101.135 521.501 100.555 522.251 100.125C523.001 99.685 524.126 99.465 525.626 99.465C527.126 99.465 528.251 99.685 529.001 100.125C529.751 100.555 530.126 101.135 530.126 101.865C530.126 102.595 529.751 103.18 529.001 103.62C528.251 104.06 527.126 104.28 525.626 104.28C524.126 104.28 523.001 104.06 522.251 103.62C521.501 103.18 521.126 102.595 521.126 101.865ZM528.911 101.94V101.775C528.911 101.345 528.636 100.995 528.086 100.725C527.546 100.445 526.726 100.305 525.626 100.305C524.526 100.305 523.701 100.445 523.151 100.725C522.611 100.995 522.341 101.345 522.341 101.775V101.94C522.341 102.37 522.611 102.725 523.151 103.005C523.701 103.275 524.526 103.41 525.626 103.41C526.726 103.41 527.546 103.275 528.086 103.005C528.636 102.725 528.911 102.37 528.911 101.94ZM531.746 105.315V106.275H519.506V105.315H531.746ZM521.411 112.335V109.875H528.806V108.465H521.321V107.535H529.901V110.745H522.506V112.17H530.291V113.1H522.161C521.921 113.1 521.736 113.035 521.606 112.905C521.476 112.775 521.411 112.585 521.411 112.335ZM547.329 101.235H537.744V100.275H547.329V101.235ZM547.464 106.74H537.624V105.795H539.994L539.499 102.465L540.654 102.345L541.059 105.795H544.014L544.419 102.345L545.589 102.465L545.079 105.795H547.464V106.74ZM548.664 110.04V111H536.424V110.04H539.754V107.505H540.864V110.04H544.224V107.505H545.334V110.04H548.664ZM559.879 106.275H557.884V105.345H559.879V103.47H557.884V102.54H559.879V99.465H561.034V109.5H559.879V106.275ZM555.829 100.83H551.854V99.87H555.829V100.83ZM553.744 107.955C553.134 107.955 552.599 107.85 552.139 107.64C551.679 107.43 551.324 107.14 551.074 106.77C550.824 106.4 550.699 105.98 550.699 105.51C550.699 105.03 550.809 104.615 551.029 104.265C551.249 103.905 551.579 103.63 552.019 103.44V103.365H549.889V102.435H557.404V103.365H555.484V103.455C555.924 103.645 556.254 103.915 556.474 104.265C556.694 104.615 556.804 105.03 556.804 105.51C556.804 105.98 556.679 106.4 556.429 106.77C556.179 107.14 555.819 107.43 555.349 107.64C554.889 107.85 554.354 107.955 553.744 107.955ZM553.624 106.995H553.879C554.429 106.995 554.874 106.84 555.214 106.53C555.564 106.22 555.739 105.79 555.739 105.24C555.739 104.69 555.564 104.265 555.214 103.965C554.874 103.655 554.429 103.5 553.879 103.5H553.624C553.064 103.5 552.614 103.655 552.274 103.965C551.934 104.265 551.764 104.69 551.764 105.24C551.764 105.79 551.934 106.22 552.274 106.53C552.624 106.84 553.074 106.995 553.624 106.995ZM561.304 111.9V112.845H553.414C553.174 112.845 552.989 112.78 552.859 112.65C552.729 112.52 552.664 112.33 552.664 112.08V109.08H553.804V111.9H561.304Z" fill="#333333"/>
<path d="M12.81 135.04V136H0.57V135.04H6.12V132.475H2.37V128.41H9.87V126.205H2.295V125.26H11.01V129.325H3.51V131.53H11.4V132.475H7.26V135.04H12.81ZM23.394 126.52H15.474V125.545H24.519V126.61C24.519 128.83 24.304 130.945 23.874 132.955L22.764 132.775C23.184 130.745 23.394 128.705 23.394 126.655V126.52ZM26.184 135.04V136H13.944V135.04H18.744V130.225H19.869V135.04H26.184ZM37.368 124.465H38.493V137.485H37.368V124.465ZM28.008 128.365C28.008 127.745 28.163 127.2 28.473 126.73C28.783 126.25 29.208 125.885 29.748 125.635C30.288 125.375 30.898 125.245 31.578 125.245C32.258 125.245 32.868 125.375 33.408 125.635C33.948 125.885 34.373 126.25 34.683 126.73C34.993 127.2 35.148 127.745 35.148 128.365C35.148 128.985 34.993 129.53 34.683 130C34.373 130.47 33.948 130.835 33.408 131.095C32.868 131.345 32.258 131.47 31.578 131.47C30.898 131.47 30.288 131.345 29.748 131.095C29.208 130.835 28.783 130.47 28.473 130C28.163 129.53 28.008 128.985 28.008 128.365ZM33.948 128.545V128.185C33.948 127.585 33.728 127.1 33.288 126.73C32.848 126.36 32.278 126.175 31.578 126.175C30.878 126.175 30.308 126.36 29.868 126.73C29.428 127.1 29.208 127.585 29.208 128.185V128.545C29.208 129.145 29.428 129.63 29.868 130C30.308 130.37 30.878 130.555 31.578 130.555C32.278 130.555 32.848 130.37 33.288 130C33.728 129.63 33.948 129.145 33.948 128.545ZM27.378 133.78C29.078 133.78 30.718 133.74 32.298 133.66C33.878 133.58 35.218 133.455 36.318 133.285L36.438 134.2C35.308 134.38 33.948 134.52 32.358 134.62C30.778 134.71 29.153 134.755 27.483 134.755L27.378 133.78ZM45.647 128.65C45.327 128.65 45.092 128.57 44.942 128.41C44.802 128.24 44.732 128.025 44.732 127.765V127.555C44.732 127.145 44.852 126.695 45.092 126.205C45.332 125.705 45.667 125.27 46.097 124.9H47.102C46.802 125.22 46.557 125.525 46.367 125.815C46.187 126.095 46.057 126.41 45.977 126.76C46.177 126.81 46.322 126.905 46.412 127.045C46.512 127.185 46.562 127.355 46.562 127.555V127.765C46.562 128.025 46.487 128.24 46.337 128.41C46.197 128.57 45.967 128.65 45.647 128.65ZM52.9321 136.18C52.2521 136.18 51.6371 136.065 51.0871 135.835C50.5471 135.595 50.0821 135.25 49.6921 134.8C49.3121 134.34 49.0171 133.775 48.8071 133.105C48.5971 132.425 48.4921 131.645 48.4921 130.765C48.4921 129.885 48.5971 129.11 48.8071 128.44C49.0171 127.77 49.3121 127.205 49.6921 126.745C50.0821 126.285 50.5471 125.94 51.0871 125.71C51.6371 125.47 52.2521 125.35 52.9321 125.35C53.6021 125.35 54.2121 125.47 54.7621 125.71C55.3121 125.94 55.7771 126.285 56.1571 126.745C56.5471 127.205 56.8471 127.77 57.0571 128.44C57.2671 129.11 57.3721 129.885 57.3721 130.765C57.3721 131.645 57.2671 132.425 57.0571 133.105C56.8471 133.775 56.5471 134.34 56.1571 134.8C55.7771 135.25 55.3121 135.595 54.7621 135.835C54.2121 136.065 53.6021 136.18 52.9321 136.18ZM52.9321 135.055C53.3821 135.055 53.7971 134.975 54.1771 134.815C54.5571 134.655 54.8821 134.425 55.1521 134.125C55.4321 133.825 55.6471 133.465 55.7971 133.045C55.9471 132.625 56.0221 132.155 56.0221 131.635V129.895C56.0221 129.375 55.9471 128.905 55.7971 128.485C55.6471 128.065 55.4321 127.705 55.1521 127.405C54.8821 127.105 54.5571 126.875 54.1771 126.715C53.7971 126.555 53.3821 126.475 52.9321 126.475C52.4821 126.475 52.0671 126.555 51.6871 126.715C51.3071 126.875 50.9771 127.105 50.6971 127.405C50.4271 127.705 50.2171 128.065 50.0671 128.485C49.9171 128.905 49.8421 129.375 49.8421 129.895V131.635C49.8421 132.155 49.9171 132.625 50.0671 133.045C50.2171 133.465 50.4271 133.825 50.6971 134.125C50.9771 134.425 51.3071 134.655 51.6871 134.815C52.0671 134.975 52.4821 135.055 52.9321 135.055ZM62.1722 129.61L60.9122 127.285H60.8672V136H59.6372V125.53H61.0922L64.9172 131.92L66.1772 134.245H66.2222V125.53H67.4522V136H65.9972L62.1722 129.61ZM70.9627 124.75C71.2827 124.75 71.5127 124.835 71.6527 125.005C71.8027 125.165 71.8777 125.375 71.8777 125.635V125.845C71.8777 126.255 71.7577 126.71 71.5177 127.21C71.2777 127.7 70.9427 128.13 70.5127 128.5H69.5077C69.8077 128.18 70.0477 127.88 70.2277 127.6C70.4177 127.31 70.5527 126.99 70.6327 126.64C70.4327 126.59 70.2827 126.495 70.1827 126.355C70.0927 126.215 70.0477 126.045 70.0477 125.845V125.635C70.0477 125.375 70.1177 125.165 70.2577 125.005C70.4077 124.835 70.6427 124.75 70.9627 124.75ZM75.1392 126.865C75.1392 126.135 75.5142 125.555 76.2642 125.125C77.0142 124.685 78.1392 124.465 79.6392 124.465C81.1392 124.465 82.2642 124.685 83.0142 125.125C83.7642 125.555 84.1392 126.135 84.1392 126.865C84.1392 127.595 83.7642 128.18 83.0142 128.62C82.2642 129.06 81.1392 129.28 79.6392 129.28C78.1392 129.28 77.0142 129.06 76.2642 128.62C75.5142 128.18 75.1392 127.595 75.1392 126.865ZM82.9242 126.94V126.775C82.9242 126.345 82.6492 125.995 82.0992 125.725C81.5592 125.445 80.7392 125.305 79.6392 125.305C78.5392 125.305 77.7142 125.445 77.1642 125.725C76.6242 125.995 76.3542 126.345 76.3542 126.775V126.94C76.3542 127.37 76.6242 127.725 77.1642 128.005C77.7142 128.275 78.5392 128.41 79.6392 128.41C80.7392 128.41 81.5592 128.275 82.0992 128.005C82.6492 127.725 82.9242 127.37 82.9242 126.94ZM85.7592 130.315V131.275H73.5192V130.315H85.7592ZM75.4242 137.335V134.875H82.8192V133.465H75.3342V132.535H83.9142V135.745H76.5192V137.17H84.3042V138.1H76.1742C75.9342 138.1 75.7492 138.035 75.6192 137.905C75.4892 137.775 75.4242 137.585 75.4242 137.335ZM103.068 130.555H100.908V137.515H99.7682V124.495H100.908V129.595H103.068V130.555ZM97.4732 129.73C97.4732 131.19 97.1532 132.295 96.5132 133.045C95.8832 133.795 95.0432 134.17 93.9932 134.17C92.9432 134.17 92.0982 133.795 91.4582 133.045C90.8282 132.295 90.5132 131.19 90.5132 129.73C90.5132 128.27 90.8282 127.165 91.4582 126.415C92.0982 125.665 92.9432 125.29 93.9932 125.29C95.0432 125.29 95.8832 125.665 96.5132 126.415C97.1532 127.165 97.4732 128.27 97.4732 129.73ZM96.2582 129.13C96.2582 128.2 96.0482 127.49 95.6282 127C95.2182 126.5 94.6732 126.25 93.9932 126.25C93.3132 126.25 92.7632 126.5 92.3432 127C91.9232 127.49 91.7132 128.2 91.7132 129.13V130.33C91.7132 131.26 91.9232 131.975 92.3432 132.475C92.7632 132.965 93.3132 133.21 93.9932 133.21C94.6732 133.21 95.2182 132.965 95.6282 132.475C96.0482 131.975 96.2582 131.26 96.2582 130.33V129.13ZM113.832 124.465H114.972V137.485H113.832V124.465ZM104.202 129.73C104.202 128.27 104.522 127.165 105.162 126.415C105.812 125.665 106.667 125.29 107.727 125.29C108.777 125.29 109.622 125.665 110.262 126.415C110.912 127.165 111.237 128.27 111.237 129.73C111.237 130.71 111.087 131.535 110.787 132.205C110.487 132.865 110.072 133.36 109.542 133.69C109.012 134.01 108.407 134.17 107.727 134.17C106.667 134.17 105.812 133.795 105.162 133.045C104.522 132.295 104.202 131.19 104.202 129.73ZM110.022 130.315V129.145C110.022 128.215 109.807 127.5 109.377 127C108.957 126.5 108.407 126.25 107.727 126.25C107.037 126.25 106.477 126.5 106.047 127C105.627 127.49 105.417 128.205 105.417 129.145V130.315C105.417 131.255 105.627 131.975 106.047 132.475C106.477 132.965 107.037 133.21 107.727 133.21C108.407 133.21 108.957 132.96 109.377 132.46C109.807 131.96 110.022 131.245 110.022 130.315ZM126.546 127.525C126.576 126.995 126.591 126.45 126.591 125.89H118.851V124.945H127.701V125.95C127.701 127.55 127.531 129.1 127.191 130.6L126.111 130.45C126.261 129.83 126.376 129.15 126.456 128.41L118.521 128.725L118.401 127.78L126.546 127.525ZM129.426 131.59V132.565H117.186V131.59H122.196V129.595H123.336V131.59H129.426ZM120.081 136.855H127.851V137.8H119.691C119.451 137.8 119.266 137.735 119.136 137.605C119.006 137.475 118.941 137.285 118.941 137.035V133.84H120.081V136.855ZM131.955 128.545C131.955 127.875 132.125 127.275 132.465 126.745C132.815 126.205 133.345 125.775 134.055 125.455C134.765 125.135 135.64 124.975 136.68 124.975C137.72 124.975 138.595 125.135 139.305 125.455C140.015 125.775 140.54 126.205 140.88 126.745C141.23 127.275 141.405 127.875 141.405 128.545C141.405 129.215 141.23 129.82 140.88 130.36C140.54 130.9 140.015 131.33 139.305 131.65C138.595 131.97 137.72 132.13 136.68 132.13C135.64 132.13 134.765 131.97 134.055 131.65C133.345 131.33 132.815 130.9 132.465 130.36C132.125 129.82 131.955 129.215 131.955 128.545ZM140.175 128.725V128.38C140.175 127.92 140.05 127.505 139.8 127.135C139.56 126.755 139.175 126.455 138.645 126.235C138.125 126.005 137.47 125.89 136.68 125.89C135.89 125.89 135.23 126.005 134.7 126.235C134.18 126.455 133.795 126.755 133.545 127.135C133.305 127.505 133.185 127.92 133.185 128.38V128.725C133.185 129.435 133.475 130.025 134.055 130.495C134.635 130.965 135.51 131.2 136.68 131.2C137.85 131.2 138.725 130.965 139.305 130.495C139.885 130.025 140.175 129.435 140.175 128.725ZM130.56 135.025H142.8V136H130.56V135.025ZM156.174 135.04V136H143.934V135.04H149.484V132.475H145.734V128.41H153.234V126.205H145.659V125.26H154.374V129.325H146.874V131.53H154.764V132.475H150.624V135.04H156.174ZM173.483 128.32V129.25H171.503V132.445H170.378V124.465H171.503V128.32H173.483ZM166.913 125.365H162.968V124.495H166.913V125.365ZM169.688 131.8C168.568 131.98 167.223 132.12 165.653 132.22C164.093 132.31 162.478 132.355 160.808 132.355L160.733 131.485C162.083 131.485 163.278 131.465 164.318 131.425V130.465C163.538 130.405 162.923 130.23 162.473 129.94C162.023 129.65 161.798 129.28 161.798 128.83C161.798 128.22 162.153 127.78 162.863 127.51V127.405H160.898V126.58H168.713V127.405H166.823V127.51C167.543 127.78 167.903 128.22 167.903 128.83C167.903 129.27 167.678 129.64 167.228 129.94C166.778 130.23 166.168 130.405 165.398 130.465V131.38C167.128 131.28 168.528 131.155 169.598 131.005L169.688 131.8ZM164.603 129.625H165.098C165.638 129.625 166.073 129.535 166.403 129.355C166.733 129.165 166.898 128.89 166.898 128.53C166.898 128.17 166.733 127.9 166.403 127.72C166.073 127.53 165.638 127.435 165.098 127.435H164.603C164.063 127.435 163.628 127.53 163.298 127.72C162.968 127.9 162.803 128.17 162.803 128.53C162.803 128.89 162.968 129.165 163.298 129.355C163.628 129.535 164.063 129.625 164.603 129.625ZM164.153 137.32H171.863V138.19H163.838C163.598 138.19 163.413 138.125 163.283 137.995C163.153 137.865 163.088 137.675 163.088 137.425V135.25H170.438V134.035H162.998V133.18H171.503V136.105H164.153V137.32ZM186.467 131.05V132.01H174.227V131.05H177.482V129.28C176.932 129.05 176.517 128.75 176.237 128.38C175.967 128.01 175.832 127.59 175.832 127.12C175.832 126.34 176.212 125.71 176.972 125.23C177.732 124.74 178.857 124.495 180.347 124.495C181.837 124.495 182.962 124.74 183.722 125.23C184.482 125.71 184.862 126.34 184.862 127.12C184.862 127.59 184.722 128.01 184.442 128.38C184.172 128.75 183.762 129.05 183.212 129.28V131.05H186.467ZM180.347 128.86C181.457 128.86 182.287 128.705 182.837 128.395C183.387 128.085 183.662 127.69 183.662 127.21V127C183.662 126.53 183.382 126.14 182.822 125.83C182.272 125.52 181.447 125.365 180.347 125.365C179.247 125.365 178.422 125.52 177.872 125.83C177.322 126.14 177.047 126.53 177.047 127V127.21C177.047 127.69 177.317 128.085 177.857 128.395C178.407 128.705 179.237 128.86 180.347 128.86ZM178.577 131.05H182.117V129.595C181.627 129.695 181.037 129.745 180.347 129.745C179.657 129.745 179.067 129.695 178.577 129.595V131.05ZM184.787 135.685C184.787 136.195 184.617 136.645 184.277 137.035C183.947 137.425 183.447 137.73 182.777 137.95C182.117 138.18 181.307 138.295 180.347 138.295C179.387 138.295 178.572 138.18 177.902 137.95C177.242 137.73 176.742 137.425 176.402 137.035C176.072 136.645 175.907 136.195 175.907 135.685C175.907 135.185 176.072 134.745 176.402 134.365C176.742 133.975 177.242 133.67 177.902 133.45C178.572 133.23 179.387 133.12 180.347 133.12C181.307 133.12 182.117 133.23 182.777 133.45C183.447 133.67 183.947 133.975 184.277 134.365C184.617 134.745 184.787 135.185 184.787 135.685ZM183.587 135.595C183.587 135.155 183.317 134.785 182.777 134.485C182.247 134.175 181.437 134.02 180.347 134.02C179.617 134.02 179.007 134.095 178.517 134.245C178.027 134.385 177.667 134.575 177.437 134.815C177.207 135.055 177.092 135.315 177.092 135.595V135.805C177.092 136.085 177.207 136.345 177.437 136.585C177.667 136.825 178.027 137.015 178.517 137.155C179.007 137.305 179.617 137.38 180.347 137.38C181.437 137.38 182.247 137.225 182.777 136.915C183.317 136.615 183.587 136.245 183.587 135.805V135.595ZM200.246 127.825V128.785H198.161V131.815H197.021V124.465H198.161V127.825H200.246ZM193.586 125.62H189.581V124.705H193.586V125.62ZM191.486 131.605C190.546 131.605 189.791 131.425 189.221 131.065C188.661 130.695 188.381 130.21 188.381 129.61C188.381 128.83 188.791 128.285 189.611 127.975V127.885H187.391V127H195.521V127.885H193.361V127.975C194.181 128.285 194.591 128.83 194.591 129.61C194.591 130.21 194.306 130.695 193.736 131.065C193.176 131.425 192.426 131.605 191.486 131.605ZM191.306 130.69H191.666C192.216 130.69 192.666 130.57 193.016 130.33C193.366 130.09 193.541 129.755 193.541 129.325C193.541 128.895 193.366 128.56 193.016 128.32C192.676 128.08 192.226 127.96 191.666 127.96H191.306C190.746 127.96 190.291 128.08 189.941 128.32C189.601 128.56 189.431 128.895 189.431 129.325C189.431 129.755 189.606 130.09 189.956 130.33C190.306 130.57 190.756 130.69 191.306 130.69ZM191.006 137.17H198.521V138.1H190.646C190.406 138.1 190.221 138.035 190.091 137.905C189.961 137.775 189.896 137.585 189.896 137.335V134.89H197.051V133.51H189.806V132.595H198.161V135.79H191.006V137.17ZM205.87 130.735L205.24 129.865C206.56 129.265 207.57 128.725 208.27 128.245C208.97 127.765 209.455 127.29 209.725 126.82C210.005 126.35 210.145 125.805 210.145 125.185V124.72H211.315V125.215C211.315 125.725 211.25 126.18 211.12 126.58C211 126.98 210.805 127.36 210.535 127.72L210.61 127.75L211 127.465C211.13 127.365 211.265 127.315 211.405 127.315C211.535 127.315 211.655 127.35 211.765 127.42L216.055 129.805L215.41 130.69L210.955 128.125C210.815 128.045 210.68 128.005 210.55 128.005C210.41 128.005 210.275 128.055 210.145 128.155L210.13 128.17C209.73 128.56 209.19 128.955 208.51 129.355C207.84 129.755 206.96 130.215 205.87 130.735ZM216.76 133.135H211.21V138.01H210.07V133.135H204.52V132.175H216.76V133.135ZM232.674 131.98H231.519V124.465H232.674V131.98ZM221.874 128.2C221.874 127.54 222.019 126.965 222.309 126.475C222.609 125.985 223.019 125.61 223.539 125.35C224.059 125.08 224.654 124.945 225.324 124.945C225.994 124.945 226.589 125.08 227.109 125.35C227.629 125.61 228.034 125.985 228.324 126.475C228.624 126.965 228.774 127.54 228.774 128.2C228.774 128.86 228.624 129.435 228.324 129.925C228.034 130.415 227.624 130.795 227.094 131.065C226.574 131.325 225.984 131.455 225.324 131.455C224.664 131.455 224.069 131.325 223.539 131.065C223.019 130.795 222.609 130.415 222.309 129.925C222.019 129.435 221.874 128.86 221.874 128.2ZM223.074 128.455C223.074 129.075 223.279 129.575 223.689 129.955C224.109 130.325 224.654 130.51 225.324 130.51C225.994 130.51 226.534 130.325 226.944 129.955C227.354 129.575 227.559 129.075 227.559 128.455V127.93C227.559 127.31 227.354 126.815 226.944 126.445C226.534 126.075 225.994 125.89 225.324 125.89C224.654 125.89 224.109 126.075 223.689 126.445C223.279 126.815 223.074 127.31 223.074 127.93V128.455ZM233.904 137.275L233.169 138.055L230.949 135.88C230.889 135.81 230.819 135.775 230.739 135.775C230.699 135.775 230.654 135.79 230.604 135.82C230.374 136.16 230.079 136.51 229.719 136.87C229.359 137.24 228.879 137.685 228.279 138.205L225.999 135.835C225.929 135.765 225.859 135.73 225.789 135.73C225.749 135.73 225.694 135.755 225.624 135.805C225.184 136.465 224.434 137.25 223.374 138.16L222.654 137.395C223.324 136.835 223.849 136.335 224.229 135.895C224.609 135.455 224.879 135.02 225.039 134.59C225.209 134.16 225.294 133.675 225.294 133.135V132.655H226.374V133.165C226.374 133.985 226.219 134.7 225.909 135.31L225.969 135.34L226.164 135.19C226.244 135.12 226.339 135.085 226.449 135.085C226.569 135.085 226.674 135.13 226.764 135.22L228.354 136.81C229.074 136.16 229.569 135.575 229.839 135.055C230.109 134.535 230.244 133.9 230.244 133.15V132.655H231.324V133.21C231.324 133.65 231.289 134.04 231.219 134.38C231.149 134.72 231.034 135.045 230.874 135.355L230.934 135.4L231.129 135.235C231.239 135.155 231.344 135.115 231.444 135.115C231.544 135.115 231.644 135.155 231.744 135.235L233.904 137.275ZM244.263 126.52H236.343V125.545H245.388V126.61C245.388 128.83 245.173 130.945 244.743 132.955L243.633 132.775C244.053 130.745 244.263 128.705 244.263 126.655V126.52ZM247.053 135.04V136H234.813V135.04H239.613V130.225H240.738V135.04H247.053ZM249.657 134.245C249.977 134.245 250.207 134.33 250.347 134.5C250.497 134.66 250.572 134.87 250.572 135.13V135.34C250.572 135.75 250.452 136.2 250.212 136.69C249.972 137.19 249.637 137.625 249.207 137.995H248.202C248.502 137.675 248.742 137.37 248.922 137.08C249.112 136.8 249.247 136.485 249.327 136.135C249.127 136.085 248.977 135.99 248.877 135.85C248.787 135.71 248.742 135.54 248.742 135.34V135.13C248.742 134.87 248.812 134.66 248.952 134.5C249.102 134.33 249.337 134.245 249.657 134.245ZM268.539 127.45V128.41H266.529V131.335H265.404V124.465H266.529V127.45H268.539ZM256.419 130.765L255.654 130.09C256.394 129.62 256.969 129.205 257.379 128.845C257.799 128.475 258.099 128.105 258.279 127.735C258.469 127.365 258.564 126.945 258.564 126.475V125.995H256.119V125.065H259.629V126.325C259.629 126.955 259.524 127.505 259.314 127.975C259.104 128.445 258.769 128.895 258.309 129.325C257.859 129.745 257.229 130.225 256.419 130.765ZM262.464 126.655V125.995H260.304V125.065H263.529V126.52C263.529 127.24 263.429 127.86 263.229 128.38C263.029 128.89 262.714 129.37 262.284 129.82C261.854 130.27 261.244 130.775 260.454 131.335L259.644 130.675C260.374 130.175 260.939 129.73 261.339 129.34C261.739 128.94 262.024 128.53 262.194 128.11C262.374 127.69 262.464 127.205 262.464 126.655ZM259.299 137.125H266.889V138.1H258.909C258.669 138.1 258.484 138.035 258.354 137.905C258.224 137.775 258.159 137.585 258.159 137.335V134.62H265.389V133.075H258.069V132.115H266.544V135.58H259.299V137.125ZM281.433 130.135V131.11H269.193V130.135H272.853C273.083 129.455 273.258 128.77 273.378 128.08C273.508 127.39 273.568 126.645 273.558 125.845V125.815H270.393V124.885H274.638V125.845C274.638 127.335 274.418 128.765 273.978 130.135H278.268C278.638 128.745 278.818 127.315 278.808 125.845V125.815H275.568V124.885H279.903V125.89C279.903 127.31 279.733 128.725 279.393 130.135H281.433ZM271.008 132.97H279.618V137.995H271.758C271.518 137.995 271.333 137.93 271.203 137.8C271.073 137.67 271.008 137.48 271.008 137.23V132.97ZM272.133 137.05H278.493V133.9H272.133V137.05ZM295.197 130.795H293.082V137.515H291.942V124.495H293.082V129.835H295.197V130.795ZM288.747 126.175H284.487V125.2H288.747V126.175ZM282.492 127.975H290.517V128.905H288.297V128.995C289.207 129.445 289.662 130.31 289.662 131.59C289.662 132.24 289.527 132.805 289.257 133.285C288.987 133.755 288.612 134.115 288.132 134.365C287.662 134.615 287.137 134.74 286.557 134.74C285.977 134.74 285.447 134.615 284.967 134.365C284.497 134.115 284.127 133.755 283.857 133.285C283.587 132.805 283.452 132.24 283.452 131.59C283.452 130.31 283.907 129.445 284.817 128.995V128.905H282.492V127.975ZM288.552 131.095C288.552 130.425 288.372 129.915 288.012 129.565C287.652 129.205 287.167 129.025 286.557 129.025C285.957 129.025 285.472 129.205 285.102 129.565C284.742 129.925 284.562 130.435 284.562 131.095V131.71C284.562 132.36 284.747 132.87 285.117 133.24C285.487 133.6 285.967 133.78 286.557 133.78C287.147 133.78 287.627 133.6 287.997 133.24C288.367 132.87 288.552 132.36 288.552 131.71V131.095ZM305.391 126.52H297.471V125.545H306.516V126.61C306.516 128.83 306.301 130.945 305.871 132.955L304.761 132.775C305.181 130.745 305.391 128.705 305.391 126.655V126.52ZM308.181 135.04V136H295.941V135.04H300.741V130.225H301.866V135.04H308.181ZM324.095 124.465V132.355H322.94V124.465H324.095ZM314.105 131.995L313.265 131.275C314.115 130.595 314.77 130.01 315.23 129.52C315.7 129.03 316.04 128.545 316.25 128.065C316.46 127.585 316.565 127.04 316.565 126.43V126.28H313.685V125.32H320.6V126.28H317.705V126.475C317.705 127.325 317.53 128.08 317.18 128.74L317.27 128.8L317.51 128.62C317.62 128.53 317.73 128.485 317.84 128.485C317.95 128.485 318.065 128.53 318.185 128.62L321.035 131.02L320.18 131.77L317.3 129.25C317.23 129.19 317.15 129.16 317.06 129.16C316.98 129.16 316.91 129.19 316.85 129.25C316.58 129.65 316.23 130.065 315.8 130.495C315.37 130.915 314.805 131.415 314.105 131.995ZM315.515 133.165H324.095V138.145H322.97V134.125H315.515V133.165ZM338.864 128.86V129.82H336.884V134.47H335.759V124.465H336.884V128.86H338.864ZM332.504 126.31H326.954V125.365H333.614V126.325C333.614 127.595 333.454 128.89 333.134 130.21L332.054 130.045C332.344 128.965 332.494 127.795 332.504 126.535V126.31ZM334.724 131.995C333.614 132.175 332.289 132.315 330.749 132.415C329.209 132.505 327.619 132.55 325.979 132.55L325.874 131.59C326.934 131.59 327.989 131.575 329.039 131.545V128.62H330.149V131.5C332.019 131.42 333.509 131.29 334.619 131.11L334.724 131.995ZM329.669 136.825H337.154V137.77H329.279C329.039 137.77 328.854 137.705 328.724 137.575C328.594 137.445 328.529 137.255 328.529 137.005V133.84H329.669V136.825ZM350.843 124.465V132.355H349.703V128.74H346.973V127.81H349.703V124.465H350.843ZM340.793 132.025L339.938 131.305C340.778 130.615 341.428 130.025 341.888 129.535C342.348 129.035 342.678 128.545 342.878 128.065C343.088 127.585 343.193 127.04 343.193 126.43V126.265H340.328V125.305H347.168V126.265H344.333V126.49C344.333 127.34 344.158 128.095 343.808 128.755L343.898 128.8L344.138 128.635C344.248 128.545 344.358 128.5 344.468 128.5C344.598 128.5 344.713 128.545 344.813 128.635L347.603 131.035L346.763 131.785L343.928 129.28C343.848 129.22 343.773 129.19 343.703 129.19C343.623 129.19 343.553 129.22 343.493 129.28C343.233 129.67 342.898 130.07 342.488 130.48C342.078 130.88 341.513 131.395 340.793 132.025ZM342.248 133.165H350.843V138.145H349.718V134.125H342.248V133.165ZM364.217 124.465V134.35H363.062V124.465H364.217ZM353.417 128.515C353.417 127.815 353.562 127.205 353.852 126.685C354.152 126.165 354.562 125.77 355.082 125.5C355.602 125.22 356.197 125.08 356.867 125.08C357.527 125.08 358.117 125.22 358.637 125.5C359.167 125.77 359.577 126.165 359.867 126.685C360.167 127.205 360.317 127.815 360.317 128.515C360.317 129.205 360.167 129.81 359.867 130.33C359.577 130.85 359.167 131.25 358.637 131.53C358.117 131.8 357.527 131.935 356.867 131.935C356.197 131.935 355.602 131.8 355.082 131.53C354.562 131.25 354.152 130.855 353.852 130.345C353.562 129.825 353.417 129.215 353.417 128.515ZM359.102 128.83V128.2C359.102 127.54 358.892 127.015 358.472 126.625C358.062 126.225 357.527 126.025 356.867 126.025C356.197 126.025 355.652 126.225 355.232 126.625C354.822 127.025 354.617 127.55 354.617 128.2V128.83C354.617 129.48 354.827 130.005 355.247 130.405C355.667 130.795 356.207 130.99 356.867 130.99C357.527 130.99 358.062 130.795 358.472 130.405C358.892 130.005 359.102 129.48 359.102 128.83ZM355.877 137.005V133.27H357.032V136.825H364.487V137.77H356.627C356.387 137.77 356.202 137.705 356.072 137.575C355.942 137.445 355.877 137.255 355.877 137.005ZM382.546 128.92V129.88H380.461V134.5H379.321V124.465H380.461V128.92H382.546ZM375.886 125.83H371.881V124.87H375.886V125.83ZM373.786 132.94C373.166 132.94 372.621 132.835 372.151 132.625C371.681 132.415 371.316 132.125 371.056 131.755C370.806 131.385 370.681 130.965 370.681 130.495C370.681 130.025 370.791 129.615 371.011 129.265C371.241 128.905 371.581 128.63 372.031 128.44V128.365H369.691V127.42H377.821V128.365H375.541V128.44C375.991 128.63 376.326 128.905 376.546 129.265C376.776 129.615 376.891 130.025 376.891 130.495C376.891 130.965 376.761 131.385 376.501 131.755C376.251 132.125 375.891 132.415 375.421 132.625C374.951 132.835 374.406 132.94 373.786 132.94ZM373.666 131.98H373.921C374.481 131.98 374.936 131.83 375.286 131.53C375.646 131.22 375.826 130.79 375.826 130.24C375.826 129.69 375.651 129.26 375.301 128.95C374.951 128.64 374.491 128.485 373.921 128.485H373.666C373.096 128.485 372.636 128.64 372.286 128.95C371.936 129.25 371.761 129.68 371.761 130.24C371.761 130.79 371.936 131.22 372.286 131.53C372.646 131.83 373.106 131.98 373.666 131.98ZM373.426 136.9H380.761V137.845H373.036C372.796 137.845 372.611 137.78 372.481 137.65C372.351 137.52 372.286 137.33 372.286 137.08V134.08H373.426V136.9ZM395.515 129.595V130.585H383.275V129.595H392.035C392.355 128.395 392.52 127.145 392.53 125.845V125.83H384.97V124.87H393.64V125.68C393.64 126.9 393.485 128.205 393.175 129.595H395.515ZM386.305 137.08H394.06V138.07H385.93C385.69 138.07 385.505 138.005 385.375 137.875C385.245 137.745 385.18 137.555 385.18 137.305V134.635H392.545V133.12H385.09V132.16H393.67V135.55H386.305V137.08ZM412.824 130.555H410.664V137.515H409.524V124.495H410.664V129.595H412.824V130.555ZM408.039 132.91L408.189 133.825C406.669 134.125 404.739 134.275 402.399 134.275H400.809V125.455H406.839V126.4H401.934V129.295H406.644V130.225H401.934V133.345H402.429C404.619 133.345 406.489 133.2 408.039 132.91ZM424.803 124.465V131.71H423.648V124.465H424.803ZM414.003 128.08C414.003 127.43 414.148 126.865 414.438 126.385C414.738 125.895 415.148 125.52 415.668 125.26C416.198 125 416.793 124.87 417.453 124.87C418.113 124.87 418.703 125 419.223 125.26C419.753 125.52 420.163 125.895 420.453 126.385C420.753 126.865 420.903 127.43 420.903 128.08C420.903 128.73 420.753 129.3 420.453 129.79C420.163 130.27 419.753 130.64 419.223 130.9C418.703 131.16 418.113 131.29 417.453 131.29C416.793 131.29 416.198 131.16 415.668 130.9C415.148 130.64 414.738 130.27 414.438 129.79C414.148 129.3 414.003 128.73 414.003 128.08ZM419.688 128.32V127.825C419.688 127.215 419.483 126.73 419.073 126.37C418.663 126 418.123 125.815 417.453 125.815C416.783 125.815 416.238 126 415.818 126.37C415.408 126.73 415.203 127.215 415.203 127.825V128.32C415.203 128.93 415.408 129.42 415.818 129.79C416.238 130.16 416.783 130.345 417.453 130.345C418.113 130.345 418.648 130.16 419.058 129.79C419.478 129.42 419.688 128.93 419.688 128.32ZM416.568 137.26V132.535H417.678V134.26H423.663V132.535H424.803V138.025H417.318C417.078 138.025 416.893 137.96 416.763 137.83C416.633 137.7 416.568 137.51 416.568 137.26ZM423.663 135.235H417.678V137.05H423.663V135.235ZM436.992 124.465H438.117V137.485H436.992V124.465ZM427.632 128.365C427.632 127.745 427.787 127.2 428.097 126.73C428.407 126.25 428.832 125.885 429.372 125.635C429.912 125.375 430.522 125.245 431.202 125.245C431.882 125.245 432.492 125.375 433.032 125.635C433.572 125.885 433.997 126.25 434.307 126.73C434.617 127.2 434.772 127.745 434.772 128.365C434.772 128.985 434.617 129.53 434.307 130C433.997 130.47 433.572 130.835 433.032 131.095C432.492 131.345 431.882 131.47 431.202 131.47C430.522 131.47 429.912 131.345 429.372 131.095C428.832 130.835 428.407 130.47 428.097 130C427.787 129.53 427.632 128.985 427.632 128.365ZM433.572 128.545V128.185C433.572 127.585 433.352 127.1 432.912 126.73C432.472 126.36 431.902 126.175 431.202 126.175C430.502 126.175 429.932 126.36 429.492 126.73C429.052 127.1 428.832 127.585 428.832 128.185V128.545C428.832 129.145 429.052 129.63 429.492 130C429.932 130.37 430.502 130.555 431.202 130.555C431.902 130.555 432.472 130.37 432.912 130C433.352 129.63 433.572 129.145 433.572 128.545ZM427.002 133.78C428.702 133.78 430.342 133.74 431.922 133.66C433.502 133.58 434.842 133.455 435.942 133.285L436.062 134.2C434.932 134.38 433.572 134.52 431.982 134.62C430.402 134.71 428.777 134.755 427.107 134.755L427.002 133.78ZM456.101 135.04V136H443.861V135.04H449.411V132.475H445.661V128.41H453.161V126.205H445.586V125.26H454.301V129.325H446.801V131.53H454.691V132.475H450.551V135.04H456.101ZM466.685 126.52H458.765V125.545H467.81V126.61C467.81 128.83 467.595 130.945 467.165 132.955L466.055 132.775C466.475 130.745 466.685 128.705 466.685 126.655V126.52ZM469.475 135.04V136H457.235V135.04H462.035V130.225H463.16V135.04H469.475ZM476.614 131.395H475.294V125.395H479.749V126.355H476.434V130.45H476.674C477.884 130.45 478.944 130.35 479.854 130.15L479.989 131.065C479.109 131.285 477.984 131.395 476.614 131.395ZM485.359 131.35H480.739V125.395H485.209V126.355H481.879V130.39H485.359V131.35ZM486.394 135.04V136H474.154V135.04H479.704V132.1H480.844V135.04H486.394ZM500.173 128.92V129.88H498.088V134.5H496.948V124.465H498.088V128.92H500.173ZM493.513 125.83H489.508V124.87H493.513V125.83ZM491.413 132.94C490.793 132.94 490.248 132.835 489.778 132.625C489.308 132.415 488.943 132.125 488.683 131.755C488.433 131.385 488.308 130.965 488.308 130.495C488.308 130.025 488.418 129.615 488.638 129.265C488.868 128.905 489.208 128.63 489.658 128.44V128.365H487.318V127.42H495.448V128.365H493.168V128.44C493.618 128.63 493.953 128.905 494.173 129.265C494.403 129.615 494.518 130.025 494.518 130.495C494.518 130.965 494.388 131.385 494.128 131.755C493.878 132.125 493.518 132.415 493.048 132.625C492.578 132.835 492.033 132.94 491.413 132.94ZM491.293 131.98H491.548C492.108 131.98 492.563 131.83 492.913 131.53C493.273 131.22 493.453 130.79 493.453 130.24C493.453 129.69 493.278 129.26 492.928 128.95C492.578 128.64 492.118 128.485 491.548 128.485H491.293C490.723 128.485 490.263 128.64 489.913 128.95C489.563 129.25 489.388 129.68 489.388 130.24C489.388 130.79 489.563 131.22 489.913 131.53C490.273 131.83 490.733 131.98 491.293 131.98ZM491.053 136.9H498.388V137.845H490.663C490.423 137.845 490.238 137.78 490.108 137.65C489.978 137.52 489.913 137.33 489.913 137.08V134.08H491.053V136.9ZM517.077 130.555H514.917V137.515H513.777V124.495H514.917V129.595H517.077V130.555ZM508.872 129.715C509.002 129.715 509.112 129.77 509.202 129.88L512.127 133.63L511.257 134.395L508.317 130.54C508.287 130.48 508.237 130.45 508.167 130.45C508.117 130.45 508.067 130.48 508.017 130.54C507.757 131.12 507.407 131.72 506.967 132.34C506.527 132.95 505.932 133.7 505.182 134.59L504.312 133.855C505.182 132.865 505.847 132.02 506.307 131.32C506.777 130.61 507.112 129.9 507.312 129.19C507.522 128.48 507.627 127.665 507.627 126.745V125.335H508.782V126.73C508.782 127.92 508.607 129 508.257 129.97L508.332 130.015L508.557 129.835C508.667 129.755 508.772 129.715 508.872 129.715ZM530.061 131.05V132.01H517.821V131.05H521.076V129.28C520.526 129.05 520.111 128.75 519.831 128.38C519.561 128.01 519.426 127.59 519.426 127.12C519.426 126.34 519.806 125.71 520.566 125.23C521.326 124.74 522.451 124.495 523.941 124.495C525.431 124.495 526.556 124.74 527.316 125.23C528.076 125.71 528.456 126.34 528.456 127.12C528.456 127.59 528.316 128.01 528.036 128.38C527.766 128.75 527.356 129.05 526.806 129.28V131.05H530.061ZM523.941 128.86C525.051 128.86 525.881 128.705 526.431 128.395C526.981 128.085 527.256 127.69 527.256 127.21V127C527.256 126.53 526.976 126.14 526.416 125.83C525.866 125.52 525.041 125.365 523.941 125.365C522.841 125.365 522.016 125.52 521.466 125.83C520.916 126.14 520.641 126.53 520.641 127V127.21C520.641 127.69 520.911 128.085 521.451 128.395C522.001 128.705 522.831 128.86 523.941 128.86ZM522.171 131.05H525.711V129.595C525.221 129.695 524.631 129.745 523.941 129.745C523.251 129.745 522.661 129.695 522.171 129.595V131.05ZM528.381 135.685C528.381 136.195 528.211 136.645 527.871 137.035C527.541 137.425 527.041 137.73 526.371 137.95C525.711 138.18 524.901 138.295 523.941 138.295C522.981 138.295 522.166 138.18 521.496 137.95C520.836 137.73 520.336 137.425 519.996 137.035C519.666 136.645 519.501 136.195 519.501 135.685C519.501 135.185 519.666 134.745 519.996 134.365C520.336 133.975 520.836 133.67 521.496 133.45C522.166 133.23 522.981 133.12 523.941 133.12C524.901 133.12 525.711 133.23 526.371 133.45C527.041 133.67 527.541 133.975 527.871 134.365C528.211 134.745 528.381 135.185 528.381 135.685ZM527.181 135.595C527.181 135.155 526.911 134.785 526.371 134.485C525.841 134.175 525.031 134.02 523.941 134.02C523.211 134.02 522.601 134.095 522.111 134.245C521.621 134.385 521.261 134.575 521.031 134.815C520.801 135.055 520.686 135.315 520.686 135.595V135.805C520.686 136.085 520.801 136.345 521.031 136.585C521.261 136.825 521.621 137.015 522.111 137.155C522.601 137.305 523.211 137.38 523.941 137.38C525.031 137.38 525.841 137.225 526.371 136.915C526.911 136.615 527.181 136.245 527.181 135.805V135.595ZM543.84 127.825V128.785H541.755V131.815H540.615V124.465H541.755V127.825H543.84ZM537.18 125.62H533.175V124.705H537.18V125.62ZM535.08 131.605C534.14 131.605 533.385 131.425 532.815 131.065C532.255 130.695 531.975 130.21 531.975 129.61C531.975 128.83 532.385 128.285 533.205 127.975V127.885H530.985V127H539.115V127.885H536.955V127.975C537.775 128.285 538.185 128.83 538.185 129.61C538.185 130.21 537.9 130.695 537.33 131.065C536.77 131.425 536.02 131.605 535.08 131.605ZM534.9 130.69H535.26C535.81 130.69 536.26 130.57 536.61 130.33C536.96 130.09 537.135 129.755 537.135 129.325C537.135 128.895 536.96 128.56 536.61 128.32C536.27 128.08 535.82 127.96 535.26 127.96H534.9C534.34 127.96 533.885 128.08 533.535 128.32C533.195 128.56 533.025 128.895 533.025 129.325C533.025 129.755 533.2 130.09 533.55 130.33C533.9 130.57 534.35 130.69 534.9 130.69ZM534.6 137.17H542.115V138.1H534.24C534 138.1 533.815 138.035 533.685 137.905C533.555 137.775 533.49 137.585 533.49 137.335V134.89H540.645V133.51H533.4V132.595H541.755V135.79H534.6V137.17ZM549.464 130.735L548.834 129.865C550.154 129.265 551.164 128.725 551.864 128.245C552.564 127.765 553.049 127.29 553.319 126.82C553.599 126.35 553.739 125.805 553.739 125.185V124.72H554.909V125.215C554.909 125.725 554.844 126.18 554.714 126.58C554.594 126.98 554.399 127.36 554.129 127.72L554.204 127.75L554.594 127.465C554.724 127.365 554.859 127.315 554.999 127.315C555.129 127.315 555.249 127.35 555.359 127.42L559.649 129.805L559.004 130.69L554.549 128.125C554.409 128.045 554.274 128.005 554.144 128.005C554.004 128.005 553.869 128.055 553.739 128.155L553.724 128.17C553.324 128.56 552.784 128.955 552.104 129.355C551.434 129.755 550.554 130.215 549.464 130.735ZM560.354 133.135H554.804V138.01H553.664V133.135H548.114V132.175H560.354V133.135ZM576.268 131.98H575.113V124.465H576.268V131.98ZM565.468 128.2C565.468 127.54 565.613 126.965 565.903 126.475C566.203 125.985 566.613 125.61 567.133 125.35C567.653 125.08 568.248 124.945 568.918 124.945C569.588 124.945 570.183 125.08 570.703 125.35C571.223 125.61 571.628 125.985 571.918 126.475C572.218 126.965 572.368 127.54 572.368 128.2C572.368 128.86 572.218 129.435 571.918 129.925C571.628 130.415 571.218 130.795 570.688 131.065C570.168 131.325 569.578 131.455 568.918 131.455C568.258 131.455 567.663 131.325 567.133 131.065C566.613 130.795 566.203 130.415 565.903 129.925C565.613 129.435 565.468 128.86 565.468 128.2ZM566.668 128.455C566.668 129.075 566.873 129.575 567.283 129.955C567.703 130.325 568.248 130.51 568.918 130.51C569.588 130.51 570.128 130.325 570.538 129.955C570.948 129.575 571.153 129.075 571.153 128.455V127.93C571.153 127.31 570.948 126.815 570.538 126.445C570.128 126.075 569.588 125.89 568.918 125.89C568.248 125.89 567.703 126.075 567.283 126.445C566.873 126.815 566.668 127.31 566.668 127.93V128.455ZM577.498 137.275L576.763 138.055L574.543 135.88C574.483 135.81 574.413 135.775 574.333 135.775C574.293 135.775 574.248 135.79 574.198 135.82C573.968 136.16 573.673 136.51 573.313 136.87C572.953 137.24 572.473 137.685 571.873 138.205L569.593 135.835C569.523 135.765 569.453 135.73 569.383 135.73C569.343 135.73 569.288 135.755 569.218 135.805C568.778 136.465 568.028 137.25 566.968 138.16L566.248 137.395C566.918 136.835 567.443 136.335 567.823 135.895C568.203 135.455 568.473 135.02 568.633 134.59C568.803 134.16 568.888 133.675 568.888 133.135V132.655H569.968V133.165C569.968 133.985 569.813 134.7 569.503 135.31L569.563 135.34L569.758 135.19C569.838 135.12 569.933 135.085 570.043 135.085C570.163 135.085 570.268 135.13 570.358 135.22L571.948 136.81C572.668 136.16 573.163 135.575 573.433 135.055C573.703 134.535 573.838 133.9 573.838 133.15V132.655H574.918V133.21C574.918 133.65 574.883 134.04 574.813 134.38C574.743 134.72 574.628 135.045 574.468 135.355L574.528 135.4L574.723 135.235C574.833 135.155 574.938 135.115 575.038 135.115C575.138 135.115 575.238 135.155 575.338 135.235L577.498 137.275ZM580.012 127.15C580.012 126.36 580.387 125.725 581.137 125.245C581.897 124.755 583.027 124.51 584.527 124.51C586.027 124.51 587.152 124.755 587.902 125.245C588.662 125.725 589.042 126.36 589.042 127.15C589.042 127.94 588.662 128.58 587.902 129.07C587.152 129.55 586.027 129.79 584.527 129.79C583.027 129.79 581.897 129.55 581.137 129.07C580.387 128.58 580.012 127.94 580.012 127.15ZM587.827 127.255V127.045C587.827 126.565 587.552 126.17 587.002 125.86C586.462 125.55 585.637 125.395 584.527 125.395C583.417 125.395 582.587 125.55 582.037 125.86C581.497 126.17 581.227 126.565 581.227 127.045V127.255C581.227 127.725 581.502 128.115 582.052 128.425C582.602 128.735 583.427 128.89 584.527 128.89C585.627 128.89 586.452 128.735 587.002 128.425C587.552 128.115 587.827 127.725 587.827 127.255ZM590.647 130.915V131.89H578.407V130.915H590.647ZM580.222 137.23V133.3H588.832V137.995H580.972C580.732 137.995 580.547 137.93 580.417 137.8C580.287 137.67 580.222 137.48 580.222 137.23ZM587.707 134.23H581.347V137.05H587.707V134.23Z" fill="#333333"/>
</svg>
