<svg width="37" height="323" viewBox="0 0 37 323" fill="none" xmlns="http://www.w3.org/2000/svg">
<path d="M6.55 24L6.55 23.75C4.78333 23.4833 3.31667 22.5833 2.15 21.05C0.983332 19.5167 0.399999 17.4333 0.399999 14.8C0.399999 12.8 0.783333 10.9333 1.55 9.2C2.31667 7.46666 3.45 5.95 4.95 4.65C6.45 3.35 8.31667 2.33333 10.55 1.6C12.7833 0.866665 15.3667 0.499998 18.3 0.499999C21.2333 0.499999 23.8333 0.883332 26.1 1.65C28.3667 2.41667 30.2667 3.48333 31.8 4.85C33.3333 6.25 34.5 7.91667 35.3 9.85C36.1 11.7833 36.5 13.9333 36.5 16.3C36.5 19.4333 35.8167 22.1333 34.45 24.4C33.1167 26.6667 31.1 28.45 28.4 29.75L24.85 23.55C26.2167 23.0167 27.3667 22.1833 28.3 21.05C29.2667 19.9167 29.75 18.3333 29.75 16.3C29.75 13.9333 29.0667 12.05 27.7 10.65C26.3333 9.25 24.1833 8.55 21.25 8.55L15.65 8.55C12.75 8.55 10.6 9.25 9.2 10.65C7.83333 12.05 7.15 13.9333 7.15 16.3C7.15 17.2333 7.25 18.1167 7.45 18.95C7.68333 19.7833 8.01667 20.5167 8.45 21.15C8.91667 21.7833 9.46667 22.2667 10.1 22.6C10.7333 22.9667 11.4833 23.15 12.35 23.15L14.1 23.15L14.1 16.65L20.45 16.65L20.45 30.4L0.999999 30.4L0.999999 24L6.55 24ZM0.999998 45.3875L0.999998 37.7875L35.9 37.7875L35.9 54.3375C35.9 55.9375 35.6333 57.3875 35.1 58.6875C34.5667 59.9875 33.8 61.0875 32.8 61.9875C31.8333 62.9208 30.6667 63.6375 29.3 64.1375C27.9333 64.6375 26.4167 64.8875 24.75 64.8875C22.3833 64.8875 20.3167 64.3542 18.55 63.2875C16.7833 62.2542 15.5 60.6708 14.7 58.5375L0.999997 65.3875L0.999997 56.9375L13.8 50.8375L13.8 45.3875L0.999998 45.3875ZM20.2 53.3875C20.2 54.5208 20.4833 55.4042 21.05 56.0375C21.65 56.7042 22.5167 57.0375 23.65 57.0375L25.85 57.0375C26.9833 57.0375 27.8333 56.7042 28.4 56.0375C29 55.4042 29.3 54.5208 29.3 53.3875L29.3 45.3875L20.2 45.3875L20.2 53.3875ZM0.999997 70.1289L7.05 70.1289L7.05 74.6289L29.85 74.6289L29.85 70.1289L35.9 70.1289L35.9 86.7289L29.85 86.7289L29.85 82.2289L7.05 82.2289L7.05 86.7289L0.999996 86.7289L0.999997 70.1289ZM35.9 93.0609L35.9 106.211C35.9 108.511 35.5333 110.611 34.8 112.511C34.0667 114.411 32.9667 116.028 31.5 117.361C30.0667 118.694 28.25 119.728 26.05 120.461C23.8833 121.194 21.35 121.561 18.45 121.561C15.55 121.561 13 121.194 10.8 120.461C8.63333 119.728 6.81666 118.694 5.35 117.361C3.91666 116.028 2.83333 114.411 2.1 112.511C1.36666 110.611 0.999995 108.511 0.999995 106.211L0.999996 93.0609L35.9 93.0609ZM7.75 106.211C7.75 108.478 8.38333 110.261 9.65 111.561C10.9167 112.861 12.95 113.511 15.75 113.511L21.15 113.511C23.95 113.511 25.9833 112.861 27.25 111.561C28.5167 110.261 29.15 108.478 29.15 106.211L29.15 100.661L7.75 100.661L7.75 106.211ZM0.399993 151.041C0.399993 147.974 0.91666 145.374 1.94999 143.241C3.01666 141.107 4.38333 139.291 6.04999 137.791L11.1 142.791C8.43333 145.157 7.09999 148.074 7.09999 151.541C7.09999 153.407 7.48333 154.791 8.24999 155.691C9.01666 156.591 10.0333 157.041 11.3 157.041C12.2667 157.041 13.0667 156.774 13.7 156.241C14.3667 155.707 14.8167 154.624 15.05 152.991L15.5 149.541C15.9667 145.841 17.0833 143.124 18.85 141.391C20.6167 139.691 22.9667 138.841 25.9 138.841C27.4667 138.841 28.9 139.141 30.2 139.741C31.5 140.341 32.6167 141.191 33.55 142.291C34.4833 143.424 35.2 144.791 35.7 146.391C36.2333 148.024 36.5 149.874 36.5 151.941C36.5 154.574 36.0833 156.891 35.25 158.891C34.4167 160.891 33.2 162.607 31.6 164.041L26.5 158.991C27.4667 158.157 28.25 157.141 28.85 155.941C29.4833 154.774 29.8 153.291 29.8 151.491C29.8 149.791 29.5 148.524 28.9 147.691C28.3 146.857 27.4667 146.441 26.4 146.441C25.2 146.441 24.3333 146.757 23.8 147.391C23.2667 148.057 22.8833 149.124 22.65 150.591L22.1 154.041C21.5333 157.641 20.4167 160.307 18.75 162.041C17.1167 163.774 14.7833 164.641 11.75 164.641C10.0833 164.641 8.54999 164.341 7.14999 163.741C5.74999 163.141 4.54999 162.257 3.54999 161.091C2.54999 159.957 1.76666 158.541 1.19999 156.841C0.66666 155.141 0.399993 153.207 0.399993 151.041ZM0.999992 177.49L14.65 177.49L35.9 165.54L35.9 174.04L22 181.54L22 181.64L35.9 188.84L35.9 197.09L14.7 185.14L0.999992 185.14L0.999992 177.49ZM0.399991 210.513C0.399991 207.447 0.916658 204.847 1.94999 202.713C3.01666 200.58 4.38332 198.763 6.04999 197.263L11.1 202.263C8.43332 204.63 7.09999 207.547 7.09999 211.013C7.09999 212.88 7.48332 214.263 8.24999 215.163C9.01666 216.063 10.0333 216.513 11.3 216.513C12.2667 216.513 13.0667 216.247 13.7 215.713C14.3667 215.18 14.8167 214.097 15.05 212.463L15.5 209.013C15.9667 205.313 17.0833 202.597 18.85 200.863C20.6167 199.163 22.9667 198.313 25.9 198.313C27.4667 198.313 28.9 198.613 30.2 199.213C31.5 199.813 32.6167 200.663 33.55 201.763C34.4833 202.897 35.2 204.263 35.7 205.863C36.2333 207.497 36.5 209.347 36.5 211.413C36.5 214.047 36.0833 216.363 35.25 218.363C34.4167 220.363 33.2 222.08 31.6 223.513L26.5 218.463C27.4667 217.63 28.25 216.613 28.85 215.413C29.4833 214.247 29.8 212.763 29.8 210.963C29.8 209.263 29.5 207.997 28.9 207.163C28.3 206.33 27.4667 205.913 26.4 205.913C25.2 205.913 24.3333 206.23 23.8 206.863C23.2667 207.53 22.8833 208.597 22.65 210.063L22.1 213.513C21.5333 217.113 20.4167 219.78 18.75 221.513C17.1167 223.247 14.7833 224.113 11.75 224.113C10.0833 224.113 8.54999 223.813 7.14999 223.213C5.74999 222.613 4.54999 221.73 3.54999 220.563C2.54999 219.43 1.76666 218.013 1.19999 216.313C0.666657 214.613 0.399991 212.68 0.399991 210.513ZM29.15 243.793L0.999989 243.793L0.99999 236.193L29.15 236.193L29.15 226.743L35.9 226.743L35.9 253.243L29.15 253.243L29.15 243.793ZM0.999989 258.442L35.9 258.442L35.9 282.192L29.15 282.192L29.15 266.042L22 266.042L22 279.892L15.3 279.892L15.3 266.042L7.74999 266.042L7.74999 282.192L0.999988 282.192L0.999989 258.442ZM23.9 314.913L23.9 314.763L18.8 312.213L6.44999 305.413L18.75 298.763L24.25 296.113L24.25 295.963L0.999987 295.963L0.999987 288.813L35.9 288.813L35.9 296.863L19.55 305.413L19.55 305.513L35.9 313.963L35.9 322.063L0.999986 322.063L0.999986 314.913L23.9 314.913Z" fill="#EDE6DB" fill-opacity="0.5"/>
</svg>
