<svg width="995" height="708" viewBox="0 0 995 708" fill="none" xmlns="http://www.w3.org/2000/svg">
<rect width="995" height="708" fill="url(#paint0_linear_237_240)"/>
<path d="M139.2 347.93H137.16V354.485H136.035V341.465H137.16V346.97H139.2V347.93ZM132.66 342.995H128.655V342.065H132.66V342.995ZM134.97 350.96L135.075 351.875C133.975 352.055 132.66 352.195 131.13 352.295C129.61 352.385 128.04 352.43 126.42 352.43L126.315 351.47C127.435 351.47 128.67 351.445 130.02 351.395V349.61C129.23 349.53 128.605 349.29 128.145 348.89C127.685 348.48 127.455 347.98 127.455 347.39C127.455 346.96 127.56 346.59 127.77 346.28C127.99 345.96 128.32 345.71 128.76 345.53V345.44H126.525V344.54H134.595V345.44H132.435V345.53C132.865 345.71 133.19 345.96 133.41 346.28C133.63 346.6 133.74 346.97 133.74 347.39C133.74 347.99 133.505 348.495 133.035 348.905C132.565 349.305 131.925 349.54 131.115 349.61V351.335C132.675 351.255 133.96 351.13 134.97 350.96ZM130.44 348.71H130.755C131.325 348.71 131.79 348.575 132.15 348.305C132.51 348.025 132.69 347.635 132.69 347.135C132.69 346.635 132.51 346.25 132.15 345.98C131.79 345.7 131.325 345.56 130.755 345.56H130.44C129.87 345.56 129.405 345.7 129.045 345.98C128.685 346.25 128.505 346.635 128.505 347.135C128.505 347.635 128.685 348.025 129.045 348.305C129.405 348.575 129.87 348.71 130.44 348.71ZM150.039 347.45H147.279V346.52H150.039V344.48H147.279V343.55H150.039V341.465H151.179V351.35H150.039V347.45ZM146.769 348.695H140.634V342.305H146.769V348.695ZM145.644 343.25H141.759V347.75H145.644V343.25ZM151.449 353.825V354.77H143.589C143.349 354.77 143.164 354.705 143.034 354.575C142.904 354.445 142.839 354.255 142.839 354.005V350.27H143.994V353.825H151.449ZM166.883 341.465H168.023V354.485H166.883V341.465ZM157.253 346.73C157.253 345.27 157.573 344.165 158.213 343.415C158.863 342.665 159.718 342.29 160.778 342.29C161.828 342.29 162.673 342.665 163.313 343.415C163.963 344.165 164.288 345.27 164.288 346.73C164.288 347.71 164.138 348.535 163.838 349.205C163.538 349.865 163.123 350.36 162.593 350.69C162.063 351.01 161.458 351.17 160.778 351.17C159.718 351.17 158.863 350.795 158.213 350.045C157.573 349.295 157.253 348.19 157.253 346.73ZM163.073 347.315V346.145C163.073 345.215 162.858 344.5 162.428 344C162.008 343.5 161.458 343.25 160.778 343.25C160.088 343.25 159.528 343.5 159.098 344C158.678 344.49 158.468 345.205 158.468 346.145V347.315C158.468 348.255 158.678 348.975 159.098 349.475C159.528 349.965 160.088 350.21 160.778 350.21C161.458 350.21 162.008 349.96 162.428 349.46C162.858 348.96 163.073 348.245 163.073 347.315ZM182.477 347.975V348.95H170.237V347.975H175.802V346.415H172.097V341.825H180.632V342.755H173.222V345.47H180.752V346.415H176.927V347.975H182.477ZM180.782 352.685C180.782 353.195 180.617 353.645 180.287 354.035C179.957 354.425 179.457 354.73 178.787 354.95C178.127 355.18 177.317 355.295 176.357 355.295C175.397 355.295 174.582 355.18 173.912 354.95C173.252 354.73 172.757 354.425 172.427 354.035C172.097 353.645 171.932 353.195 171.932 352.685C171.932 352.185 172.097 351.745 172.427 351.365C172.767 350.975 173.267 350.67 173.927 350.45C174.587 350.23 175.397 350.12 176.357 350.12C177.317 350.12 178.127 350.23 178.787 350.45C179.447 350.67 179.942 350.975 180.272 351.365C180.612 351.745 180.782 352.185 180.782 352.685ZM179.582 352.595C179.582 352.155 179.312 351.785 178.772 351.485C178.242 351.175 177.437 351.02 176.357 351.02C175.277 351.02 174.467 351.175 173.927 351.485C173.387 351.785 173.117 352.155 173.117 352.595V352.805C173.117 353.245 173.387 353.615 173.927 353.915C174.467 354.225 175.277 354.38 176.357 354.38C177.437 354.38 178.242 354.225 178.772 353.915C179.312 353.615 179.582 353.245 179.582 352.805V352.595ZM193.631 341.465H194.771V354.485H193.631V341.465ZM184.001 346.73C184.001 345.27 184.321 344.165 184.961 343.415C185.611 342.665 186.466 342.29 187.526 342.29C188.576 342.29 189.421 342.665 190.061 343.415C190.711 344.165 191.036 345.27 191.036 346.73C191.036 347.71 190.886 348.535 190.586 349.205C190.286 349.865 189.871 350.36 189.341 350.69C188.811 351.01 188.206 351.17 187.526 351.17C186.466 351.17 185.611 350.795 184.961 350.045C184.321 349.295 184.001 348.19 184.001 346.73ZM189.821 347.315V346.145C189.821 345.215 189.606 344.5 189.176 344C188.756 343.5 188.206 343.25 187.526 343.25C186.836 343.25 186.276 343.5 185.846 344C185.426 344.49 185.216 345.205 185.216 346.145V347.315C185.216 348.255 185.426 348.975 185.846 349.475C186.276 349.965 186.836 350.21 187.526 350.21C188.206 350.21 188.756 349.96 189.176 349.46C189.606 348.96 189.821 348.245 189.821 347.315ZM212.77 348.35V349.34H200.53V348.35H206.08V346.925H202.345V341.66H203.47V343.37H209.845V341.66H210.955V346.925H207.22V348.35H212.77ZM203.47 346.01H209.845V344.3H203.47V346.01ZM202.225 350.645H210.955V355.085H209.815V351.575H202.225V350.645ZM226.549 345.56H224.464V348.74H223.324V341.465H224.464V344.6H226.549V345.56ZM214.804 348.68L213.964 347.96C214.804 347.31 215.454 346.75 215.914 346.28C216.374 345.8 216.704 345.325 216.904 344.855C217.114 344.385 217.219 343.86 217.219 343.28V343.145H214.354V342.2H221.209V343.145H218.359V343.325C218.359 344.115 218.184 344.845 217.834 345.515L217.909 345.56L218.149 345.395C218.259 345.315 218.369 345.275 218.479 345.275C218.609 345.275 218.724 345.32 218.824 345.41L221.629 347.705L220.789 348.455L217.954 346.04C217.874 345.98 217.794 345.95 217.714 345.95C217.634 345.95 217.564 345.98 217.504 346.04C217.234 346.42 216.884 346.815 216.454 347.225C216.034 347.635 215.484 348.12 214.804 348.68ZM223.339 349.535H224.464V355.025H217.114C216.874 355.025 216.689 354.96 216.559 354.83C216.429 354.7 216.364 354.51 216.364 354.26V349.535H217.489V351.32H223.339V349.535ZM223.339 352.235H217.489V354.11H223.339V352.235ZM239.908 347.795H237.793V354.515H236.653V341.495H237.793V346.835H239.908V347.795ZM233.458 343.175H229.198V342.2H233.458V343.175ZM227.203 344.975H235.228V345.905H233.008V345.995C233.918 346.445 234.373 347.31 234.373 348.59C234.373 349.24 234.238 349.805 233.968 350.285C233.698 350.755 233.323 351.115 232.843 351.365C232.373 351.615 231.848 351.74 231.268 351.74C230.688 351.74 230.158 351.615 229.678 351.365C229.208 351.115 228.838 350.755 228.568 350.285C228.298 349.805 228.163 349.24 228.163 348.59C228.163 347.31 228.618 346.445 229.528 345.995V345.905H227.203V344.975ZM233.263 348.095C233.263 347.425 233.083 346.915 232.723 346.565C232.363 346.205 231.878 346.025 231.268 346.025C230.668 346.025 230.183 346.205 229.813 346.565C229.453 346.925 229.273 347.435 229.273 348.095V348.71C229.273 349.36 229.458 349.87 229.828 350.24C230.198 350.6 230.678 350.78 231.268 350.78C231.858 350.78 232.338 350.6 232.708 350.24C233.078 349.87 233.263 349.36 233.263 348.71V348.095ZM251.827 341.465V354.485H250.702V347.6H247.792V346.64H250.702V341.465H251.827ZM241.537 342.53H247.312V344.615C247.312 345.725 247.147 346.665 246.817 347.435C246.487 348.205 245.932 348.925 245.152 349.595C244.382 350.255 243.277 350.98 241.837 351.77L241.162 350.915C242.502 350.195 243.527 349.54 244.237 348.95C244.947 348.36 245.442 347.735 245.722 347.075C246.012 346.405 246.157 345.59 246.157 344.63V343.505H241.537V342.53ZM266.656 347.555H264.496V354.515H263.356V341.495H264.496V346.595H266.656V347.555ZM261.766 349.505L261.916 350.435C260.336 350.755 258.416 350.915 256.156 350.915H254.581V342.515H255.706V349.955H256.156C258.316 349.955 260.186 349.805 261.766 349.505ZM272.205 348.965L271.56 348.08C272.92 347.38 273.96 346.76 274.68 346.22C275.41 345.67 275.915 345.125 276.195 344.585C276.475 344.035 276.615 343.405 276.615 342.695V342.185H277.785V342.725C277.785 343.305 277.72 343.825 277.59 344.285C277.47 344.735 277.265 345.16 276.975 345.56L277.05 345.605L277.425 345.32C277.555 345.22 277.685 345.17 277.815 345.17C277.945 345.17 278.075 345.215 278.205 345.305L282.57 348.02L281.91 348.92L277.395 346.01C277.265 345.92 277.125 345.875 276.975 345.875C276.845 345.875 276.715 345.925 276.585 346.025C276.175 346.465 275.62 346.92 274.92 347.39C274.22 347.85 273.315 348.375 272.205 348.965ZM283.185 352.025V353H270.945V352.025H283.185ZM293.769 343.595V343.49H285.909V342.53H294.909V343.97C294.909 346.27 294.699 348.455 294.279 350.525L293.169 350.345C293.389 349.295 293.544 348.21 293.634 347.09L285.609 347.495L285.459 346.52L293.709 346.19C293.749 345.46 293.769 344.595 293.769 343.595ZM296.559 352.025V353H284.319V352.025H296.559ZM309.933 347.945V348.815H297.693V347.945H303.258V346.73H299.613V343.775H306.858V342.515H299.538V341.66H307.953V344.6H300.723V345.875H308.328V346.73H304.368V347.945H309.933ZM300.633 354.245H308.493V355.145H300.318C300.078 355.145 299.893 355.08 299.763 354.95C299.633 354.82 299.568 354.63 299.568 354.38V352.13H307.038V350.87H299.478V349.985H308.103V352.97H300.633V354.245ZM321.087 341.465H322.227V354.485H321.087V341.465ZM311.457 346.73C311.457 345.27 311.777 344.165 312.417 343.415C313.067 342.665 313.922 342.29 314.982 342.29C316.032 342.29 316.877 342.665 317.517 343.415C318.167 344.165 318.492 345.27 318.492 346.73C318.492 347.71 318.342 348.535 318.042 349.205C317.742 349.865 317.327 350.36 316.797 350.69C316.267 351.01 315.662 351.17 314.982 351.17C313.922 351.17 313.067 350.795 312.417 350.045C311.777 349.295 311.457 348.19 311.457 346.73ZM317.277 347.315V346.145C317.277 345.215 317.062 344.5 316.632 344C316.212 343.5 315.662 343.25 314.982 343.25C314.292 343.25 313.732 343.5 313.302 344C312.882 344.49 312.672 345.205 312.672 346.145V347.315C312.672 348.255 312.882 348.975 313.302 349.475C313.732 349.965 314.292 350.21 314.982 350.21C315.662 350.21 316.212 349.96 316.632 349.46C317.062 348.96 317.277 348.245 317.277 347.315ZM339.221 341.465V351.35H338.066V341.465H339.221ZM333.671 343.955V343.325H328.961V342.35H334.826V343.85C334.826 344.77 334.661 345.535 334.331 346.145C334.001 346.755 333.436 347.315 332.636 347.825C331.846 348.335 330.696 348.9 329.186 349.52L328.586 348.65C329.966 348.09 331.011 347.59 331.721 347.15C332.441 346.71 332.946 346.245 333.236 345.755C333.526 345.265 333.671 344.665 333.671 343.955ZM330.881 354.005V350.27H332.036V353.825H339.491V354.77H331.631C331.391 354.77 331.206 354.705 331.076 354.575C330.946 354.445 330.881 354.255 330.881 354.005ZM355 347.165H352.045V346.25H355V344.315H352.045V343.385H355V341.465H356.14V349.22H355V347.165ZM346.03 349.085L345.415 348.215C346.755 347.685 347.77 347.215 348.46 346.805C349.16 346.385 349.65 345.945 349.93 345.485C350.21 345.025 350.35 344.46 350.35 343.79V343.205H345.79V342.245H351.49V343.655C351.49 344.535 351.33 345.265 351.01 345.845C350.69 346.425 350.145 346.965 349.375 347.465C348.605 347.955 347.49 348.495 346.03 349.085ZM356.215 352.34C356.215 352.89 356.055 353.38 355.735 353.81C355.425 354.25 354.955 354.595 354.325 354.845C353.695 355.095 352.925 355.22 352.015 355.22C351.105 355.22 350.33 355.095 349.69 354.845C349.06 354.595 348.585 354.25 348.265 353.81C347.955 353.38 347.8 352.89 347.8 352.34C347.8 351.79 347.955 351.3 348.265 350.87C348.585 350.43 349.06 350.085 349.69 349.835C350.33 349.585 351.105 349.46 352.015 349.46C352.925 349.46 353.695 349.585 354.325 349.835C354.955 350.085 355.425 350.43 355.735 350.87C356.055 351.3 356.215 351.79 356.215 352.34ZM355 352.22C355 351.7 354.75 351.265 354.25 350.915C353.76 350.565 353.015 350.39 352.015 350.39C351.015 350.39 350.265 350.57 349.765 350.93C349.265 351.28 349.015 351.71 349.015 352.22V352.475C349.015 352.985 349.265 353.415 349.765 353.765C350.265 354.125 351.015 354.305 352.015 354.305C353.015 354.305 353.76 354.125 354.25 353.765C354.75 353.415 355 352.985 355 352.475V352.22ZM359.869 344.675C359.869 344.095 360.034 343.575 360.364 343.115C360.694 342.655 361.199 342.29 361.879 342.02C362.559 341.75 363.399 341.615 364.399 341.615C365.399 341.615 366.239 341.75 366.919 342.02C367.599 342.29 368.104 342.655 368.434 343.115C368.764 343.575 368.929 344.095 368.929 344.675C368.929 345.255 368.764 345.78 368.434 346.25C368.104 346.71 367.599 347.075 366.919 347.345C366.239 347.615 365.399 347.75 364.399 347.75C363.399 347.75 362.559 347.615 361.879 347.345C361.199 347.075 360.694 346.71 360.364 346.25C360.034 345.78 359.869 345.255 359.869 344.675ZM361.099 344.825C361.099 345.395 361.374 345.87 361.924 346.25C362.474 346.63 363.299 346.82 364.399 346.82C365.499 346.82 366.324 346.63 366.874 346.25C367.424 345.87 367.699 345.395 367.699 344.825V344.525C367.699 343.955 367.424 343.48 366.874 343.1C366.324 342.71 365.499 342.515 364.399 342.515C363.309 342.515 362.484 342.71 361.924 343.1C361.374 343.48 361.099 343.955 361.099 344.525V344.825ZM370.519 350.12H364.969V355.01H363.829V350.12H358.279V349.16H370.519V350.12ZM383.218 341.465V354.485H382.123V341.465H383.218ZM379.168 341.69H380.233V354.125H379.168V347.3H377.728C377.678 348.6 377.388 349.58 376.858 350.24C376.328 350.89 375.628 351.215 374.758 351.215C373.828 351.215 373.093 350.855 372.553 350.135C372.013 349.405 371.743 348.32 371.743 346.88C371.743 345.44 372.013 344.36 372.553 343.64C373.093 342.91 373.828 342.545 374.758 342.545C375.618 342.545 376.308 342.865 376.828 343.505C377.358 344.145 377.658 345.095 377.728 346.355H379.168V341.69ZM376.588 346.16C376.588 345.28 376.418 344.61 376.078 344.15C375.748 343.69 375.308 343.46 374.758 343.46C374.198 343.46 373.748 343.69 373.408 344.15C373.078 344.61 372.913 345.28 372.913 346.16V347.615C372.913 348.485 373.078 349.155 373.408 349.625C373.748 350.085 374.198 350.315 374.758 350.315C375.308 350.315 375.748 350.085 376.078 349.625C376.418 349.155 376.588 348.485 376.588 347.615V346.16ZM394.152 342.755H390.027V341.84H399.357V342.755H395.277C395.257 343.445 395.042 344.03 394.632 344.51L394.707 344.54L395.022 344.315C395.152 344.215 395.282 344.165 395.412 344.165C395.522 344.165 395.637 344.195 395.757 344.255L399.912 346.145L399.312 346.985L394.962 344.93C394.832 344.86 394.697 344.825 394.557 344.825C394.427 344.825 394.307 344.86 394.197 344.93C393.817 345.25 393.297 345.575 392.637 345.905C391.977 346.235 391.117 346.605 390.057 347.015L389.472 346.19C390.662 345.75 391.587 345.355 392.247 345.005C392.907 344.655 393.382 344.305 393.672 343.955C393.962 343.605 394.122 343.205 394.152 342.755ZM400.812 348.185V349.16H388.572V348.185H394.122V346.46H395.262V348.185H400.812ZM399.132 352.73C399.132 353.23 398.962 353.67 398.622 354.05C398.292 354.44 397.792 354.745 397.122 354.965C396.462 355.185 395.652 355.295 394.692 355.295C393.732 355.295 392.917 355.185 392.247 354.965C391.587 354.745 391.087 354.44 390.747 354.05C390.417 353.67 390.252 353.23 390.252 352.73C390.252 352.24 390.417 351.805 390.747 351.425C391.087 351.035 391.587 350.735 392.247 350.525C392.917 350.305 393.732 350.195 394.692 350.195C395.652 350.195 396.462 350.305 397.122 350.525C397.792 350.735 398.292 351.035 398.622 351.425C398.962 351.805 399.132 352.24 399.132 352.73ZM397.947 352.64C397.947 352.19 397.677 351.82 397.137 351.53C396.607 351.23 395.792 351.08 394.692 351.08C393.602 351.08 392.782 351.23 392.232 351.53C391.692 351.83 391.422 352.2 391.422 352.64V352.85C391.422 353.28 391.692 353.645 392.232 353.945C392.782 354.245 393.602 354.395 394.692 354.395C395.782 354.395 396.597 354.245 397.137 353.945C397.677 353.645 397.947 353.28 397.947 352.85V352.64ZM407.526 342.755H403.401V341.84H412.731V342.755H408.651C408.631 343.445 408.416 344.03 408.006 344.51L408.081 344.54L408.396 344.315C408.526 344.215 408.656 344.165 408.786 344.165C408.896 344.165 409.011 344.195 409.131 344.255L413.286 346.145L412.686 346.985L408.336 344.93C408.206 344.86 408.071 344.825 407.931 344.825C407.801 344.825 407.681 344.86 407.571 344.93C407.191 345.25 406.671 345.575 406.011 345.905C405.351 346.235 404.491 346.605 403.431 347.015L402.846 346.19C404.036 345.75 404.961 345.355 405.621 345.005C406.281 344.655 406.756 344.305 407.046 343.955C407.336 343.605 407.496 343.205 407.526 342.755ZM414.186 348.185V349.16H401.946V348.185H407.496V346.46H408.636V348.185H414.186ZM412.506 352.73C412.506 353.23 412.336 353.67 411.996 354.05C411.666 354.44 411.166 354.745 410.496 354.965C409.836 355.185 409.026 355.295 408.066 355.295C407.106 355.295 406.291 355.185 405.621 354.965C404.961 354.745 404.461 354.44 404.121 354.05C403.791 353.67 403.626 353.23 403.626 352.73C403.626 352.24 403.791 351.805 404.121 351.425C404.461 351.035 404.961 350.735 405.621 350.525C406.291 350.305 407.106 350.195 408.066 350.195C409.026 350.195 409.836 350.305 410.496 350.525C411.166 350.735 411.666 351.035 411.996 351.425C412.336 351.805 412.506 352.24 412.506 352.73ZM411.321 352.64C411.321 352.19 411.051 351.82 410.511 351.53C409.981 351.23 409.166 351.08 408.066 351.08C406.976 351.08 406.156 351.23 405.606 351.53C405.066 351.83 404.796 352.2 404.796 352.64V352.85C404.796 353.28 405.066 353.645 405.606 353.945C406.156 354.245 406.976 354.395 408.066 354.395C409.156 354.395 409.971 354.245 410.511 353.945C411.051 353.645 411.321 353.28 411.321 352.85V352.64ZM429.29 346.16H420.68V341.525H421.805V342.98H428.18V341.525H429.29V346.16ZM428.18 343.85H421.805V345.29H428.18V343.85ZM425.555 348.29V349.61H429.26V352.775H421.85V354.17H429.65V355.1H421.52C421.28 355.1 421.095 355.035 420.965 354.905C420.835 354.775 420.77 354.585 420.77 354.335V351.905H428.165V350.525H420.68V349.61H424.415V348.29H418.865V347.345H431.105V348.29H425.555ZM442.319 347.36H439.904V346.43H442.319V344.57H439.904V343.625H442.319V341.465H443.474V351.425H442.319V347.36ZM439.394 343.415H432.599V342.47H439.394V343.415ZM439.994 348.98C439.064 349.12 437.919 349.23 436.559 349.31C435.209 349.38 433.809 349.415 432.359 349.415L432.254 348.485C432.644 348.485 433.239 348.475 434.039 348.455L433.679 344.48L434.789 344.39L435.059 348.44C435.459 348.43 436.074 348.405 436.904 348.365L437.234 344.36L438.329 344.465L437.924 348.29C438.544 348.25 439.194 348.185 439.874 348.095L439.994 348.98ZM443.744 353.825V354.77H435.854C435.614 354.77 435.429 354.705 435.299 354.575C435.169 354.445 435.104 354.255 435.104 354.005V350.645H436.244V353.825H443.744ZM458.258 346.13H456.173V349.7H455.033V341.465H456.173V345.17H458.258V346.13ZM451.598 342.725H447.593V341.78H451.598V342.725ZM449.498 349.385C448.878 349.385 448.333 349.29 447.863 349.1C447.393 348.91 447.028 348.645 446.768 348.305C446.518 347.965 446.393 347.58 446.393 347.15C446.393 346.72 446.498 346.35 446.708 346.04C446.928 345.72 447.253 345.47 447.683 345.29V345.2H445.403V344.285H453.533V345.2H451.313V345.29C451.743 345.47 452.063 345.72 452.273 346.04C452.493 346.35 452.603 346.72 452.603 347.15C452.603 347.58 452.473 347.965 452.213 348.305C451.963 348.645 451.603 348.91 451.133 349.1C450.663 349.29 450.118 349.385 449.498 349.385ZM449.348 348.44H449.648C450.208 348.44 450.663 348.305 451.013 348.035C451.363 347.755 451.538 347.37 451.538 346.88C451.538 346.38 451.363 345.995 451.013 345.725C450.663 345.445 450.208 345.305 449.648 345.305H449.348C448.788 345.305 448.333 345.445 447.983 345.725C447.633 345.995 447.458 346.38 447.458 346.88C447.458 347.37 447.633 347.755 447.983 348.035C448.333 348.305 448.788 348.44 449.348 348.44ZM448.073 350.48H456.173V355.025H448.823C448.583 355.025 448.398 354.96 448.268 354.83C448.138 354.7 448.073 354.51 448.073 354.26V350.48ZM449.213 354.08H455.033V351.425H449.213V354.08ZM460.607 343.865C460.607 343.135 460.982 342.555 461.732 342.125C462.482 341.685 463.607 341.465 465.107 341.465C466.607 341.465 467.732 341.685 468.482 342.125C469.232 342.555 469.607 343.135 469.607 343.865C469.607 344.595 469.232 345.18 468.482 345.62C467.732 346.06 466.607 346.28 465.107 346.28C463.607 346.28 462.482 346.06 461.732 345.62C460.982 345.18 460.607 344.595 460.607 343.865ZM468.392 343.94V343.775C468.392 343.345 468.117 342.995 467.567 342.725C467.027 342.445 466.207 342.305 465.107 342.305C464.007 342.305 463.182 342.445 462.632 342.725C462.092 342.995 461.822 343.345 461.822 343.775V343.94C461.822 344.37 462.092 344.725 462.632 345.005C463.182 345.275 464.007 345.41 465.107 345.41C466.207 345.41 467.027 345.275 467.567 345.005C468.117 344.725 468.392 344.37 468.392 343.94ZM471.227 347.315V348.275H458.987V347.315H471.227ZM460.892 354.335V351.875H468.287V350.465H460.802V349.535H469.382V352.745H461.987V354.17H469.772V355.1H461.642C461.402 355.1 461.217 355.035 461.087 354.905C460.957 354.775 460.892 354.585 460.892 354.335ZM486.556 348.47H477.661V342.32H478.801V347.495H486.556V348.47ZM488.146 352.025V353H475.906V352.025H488.146ZM500.515 341.465V354.485H499.39V349.31H497.41V348.395H499.39V345.755H497.47V344.84H499.39V341.465H500.515ZM489.865 342.65H493.315V344.555C493.315 345.495 493.215 346.315 493.015 347.015C492.815 347.705 492.495 348.365 492.055 348.995C491.625 349.625 491.015 350.36 490.225 351.2L489.4 350.54C490.14 349.77 490.71 349.1 491.11 348.53C491.51 347.96 491.795 347.37 491.965 346.76C492.145 346.14 492.235 345.41 492.235 344.57V343.595H489.865V342.65ZM493.99 342.65H497.17V344.84C497.17 345.87 497.07 346.765 496.87 347.525C496.68 348.285 496.375 349.01 495.955 349.7C495.535 350.38 494.94 351.165 494.17 352.055L493.33 351.41C494.04 350.59 494.585 349.87 494.965 349.25C495.355 348.62 495.635 347.965 495.805 347.285C495.985 346.605 496.075 345.795 496.075 344.855V343.595H493.99V342.65ZM517.434 341.465V349.355H516.294V345.74H513.564V344.81H516.294V341.465H517.434ZM507.384 349.025L506.529 348.305C507.369 347.615 508.019 347.025 508.479 346.535C508.939 346.035 509.269 345.545 509.469 345.065C509.679 344.585 509.784 344.04 509.784 343.43V343.265H506.919V342.305H513.759V343.265H510.924V343.49C510.924 344.34 510.749 345.095 510.399 345.755L510.489 345.8L510.729 345.635C510.839 345.545 510.949 345.5 511.059 345.5C511.189 345.5 511.304 345.545 511.404 345.635L514.194 348.035L513.354 348.785L510.519 346.28C510.439 346.22 510.364 346.19 510.294 346.19C510.214 346.19 510.144 346.22 510.084 346.28C509.824 346.67 509.489 347.07 509.079 347.48C508.669 347.88 508.104 348.395 507.384 349.025ZM508.839 350.165H517.434V355.145H516.309V351.125H508.839V350.165ZM529.668 344.69V341.465H530.808V349.295H529.668V345.62H526.938V344.69H529.668ZM520.758 348.845L519.903 348.125C520.743 347.465 521.393 346.895 521.853 346.415C522.313 345.925 522.643 345.445 522.843 344.975C523.053 344.495 523.158 343.96 523.158 343.37V343.22H520.293V342.26H527.133V343.22H524.298V343.415C524.298 344.265 524.123 345.01 523.773 345.65L523.863 345.695L524.103 345.515C524.213 345.435 524.323 345.395 524.433 345.395C524.563 345.395 524.678 345.44 524.778 345.53L527.568 347.87L526.728 348.62L523.893 346.16C523.813 346.1 523.738 346.07 523.668 346.07C523.588 346.07 523.518 346.1 523.458 346.16C523.188 346.55 522.843 346.95 522.423 347.36C522.003 347.77 521.448 348.265 520.758 348.845ZM530.883 352.4C530.883 352.94 530.723 353.42 530.403 353.84C530.093 354.27 529.618 354.605 528.978 354.845C528.348 355.095 527.578 355.22 526.668 355.22C525.748 355.22 524.968 355.095 524.328 354.845C523.698 354.605 523.223 354.27 522.903 353.84C522.593 353.42 522.438 352.94 522.438 352.4C522.438 351.86 522.593 351.38 522.903 350.96C523.223 350.53 523.698 350.195 524.328 349.955C524.968 349.705 525.748 349.58 526.668 349.58C527.578 349.58 528.348 349.705 528.978 349.955C529.618 350.195 530.093 350.53 530.403 350.96C530.723 351.38 530.883 351.86 530.883 352.4ZM529.683 352.28C529.683 351.77 529.433 351.345 528.933 351.005C528.433 350.655 527.678 350.48 526.668 350.48C525.648 350.48 524.883 350.655 524.373 351.005C523.873 351.345 523.623 351.77 523.623 352.28V352.535C523.623 353.035 523.873 353.455 524.373 353.795C524.883 354.145 525.648 354.32 526.668 354.32C527.678 354.32 528.433 354.145 528.933 353.795C529.433 353.455 529.683 353.035 529.683 352.535V352.28ZM545.592 345.92V346.88H543.507V351.5H542.367V341.465H543.507V345.92H545.592ZM538.932 342.83H534.927V341.87H538.932V342.83ZM536.832 349.94C536.212 349.94 535.667 349.835 535.197 349.625C534.727 349.415 534.362 349.125 534.102 348.755C533.852 348.385 533.727 347.965 533.727 347.495C533.727 347.025 533.837 346.615 534.057 346.265C534.287 345.905 534.627 345.63 535.077 345.44V345.365H532.737V344.42H540.867V345.365H538.587V345.44C539.037 345.63 539.372 345.905 539.592 346.265C539.822 346.615 539.937 347.025 539.937 347.495C539.937 347.965 539.807 348.385 539.547 348.755C539.297 349.125 538.937 349.415 538.467 349.625C537.997 349.835 537.452 349.94 536.832 349.94ZM536.712 348.98H536.967C537.527 348.98 537.982 348.83 538.332 348.53C538.692 348.22 538.872 347.79 538.872 347.24C538.872 346.69 538.697 346.26 538.347 345.95C537.997 345.64 537.537 345.485 536.967 345.485H536.712C536.142 345.485 535.682 345.64 535.332 345.95C534.982 346.25 534.807 346.68 534.807 347.24C534.807 347.79 534.982 348.22 535.332 348.53C535.692 348.83 536.152 348.98 536.712 348.98ZM536.472 353.9H543.807V354.845H536.082C535.842 354.845 535.657 354.78 535.527 354.65C535.397 354.52 535.332 354.33 535.332 354.08V351.08H536.472V353.9ZM561.431 341.465V354.485H560.321V347.69H558.371V354.125H557.276V341.69H558.371V346.745H560.321V341.465H561.431ZM555.206 343.415H551.351V342.485H555.206V343.415ZM549.776 345.095H556.556V345.995H554.771V346.07C555.561 346.5 555.956 347.315 555.956 348.515C555.956 349.455 555.701 350.19 555.191 350.72C554.691 351.24 554.031 351.5 553.211 351.5C552.401 351.5 551.741 351.24 551.231 350.72C550.731 350.19 550.481 349.455 550.481 348.515C550.481 347.315 550.871 346.5 551.651 346.07V345.995H549.776V345.095ZM554.876 347.975C554.876 347.375 554.726 346.915 554.426 346.595C554.126 346.275 553.721 346.115 553.211 346.115C552.701 346.115 552.296 346.275 551.996 346.595C551.706 346.915 551.561 347.375 551.561 347.975V348.695C551.561 349.285 551.711 349.745 552.011 350.075C552.321 350.405 552.721 350.57 553.211 350.57C553.701 350.57 554.101 350.405 554.411 350.075C554.721 349.745 554.876 349.285 554.876 348.695V347.975ZM573.335 346.79H570.38V345.875H573.335V344.12H570.38V343.205H573.335V341.465H574.475V348.29H573.335V346.79ZM564.35 348.53L563.75 347.675C565.07 347.185 566.08 346.74 566.78 346.34C567.48 345.94 567.97 345.525 568.25 345.095C568.53 344.665 568.67 344.145 568.67 343.535V343.01H564.125V342.05H569.81V343.4C569.81 344.23 569.65 344.925 569.33 345.485C569.01 346.035 568.465 346.545 567.695 347.015C566.925 347.475 565.81 347.98 564.35 348.53ZM574.835 354.125V355.1H566.87C566.63 355.1 566.445 355.035 566.315 354.905C566.185 354.775 566.12 354.585 566.12 354.335V351.62H573.32V350.075H566.03V349.115H574.475V352.58H567.275V354.125H574.835ZM587.849 341.465V349.055H586.709V345.62H583.979V344.69H586.709V341.465H587.849ZM580.709 346.07C580.629 346.07 580.559 346.1 580.499 346.16C580.229 346.55 579.884 346.95 579.464 347.36C579.044 347.77 578.489 348.265 577.799 348.845L576.944 348.125C577.784 347.465 578.434 346.895 578.894 346.415C579.354 345.925 579.684 345.445 579.884 344.975C580.094 344.495 580.199 343.96 580.199 343.37V343.22H577.334V342.26H584.174V343.22H581.339V343.415C581.339 344.265 581.164 345.01 580.814 345.65L580.904 345.695L581.144 345.515C581.254 345.435 581.364 345.395 581.474 345.395C581.604 345.395 581.719 345.44 581.819 345.53L584.609 347.87L583.769 348.62L580.934 346.16C580.854 346.1 580.779 346.07 580.709 346.07ZM579.599 349.925H587.849V355.025H580.349C580.109 355.025 579.924 354.96 579.794 354.83C579.664 354.7 579.599 354.51 579.599 354.26V349.925ZM580.709 354.095H586.724V350.855H580.709V354.095ZM591.608 343.865C591.608 343.135 591.983 342.555 592.733 342.125C593.483 341.685 594.608 341.465 596.108 341.465C597.608 341.465 598.733 341.685 599.483 342.125C600.233 342.555 600.608 343.135 600.608 343.865C600.608 344.595 600.233 345.18 599.483 345.62C598.733 346.06 597.608 346.28 596.108 346.28C594.608 346.28 593.483 346.06 592.733 345.62C591.983 345.18 591.608 344.595 591.608 343.865ZM599.393 343.94V343.775C599.393 343.345 599.118 342.995 598.568 342.725C598.028 342.445 597.208 342.305 596.108 342.305C595.008 342.305 594.183 342.445 593.633 342.725C593.093 342.995 592.823 343.345 592.823 343.775V343.94C592.823 344.37 593.093 344.725 593.633 345.005C594.183 345.275 595.008 345.41 596.108 345.41C597.208 345.41 598.028 345.275 598.568 345.005C599.118 344.725 599.393 344.37 599.393 343.94ZM602.228 347.315V348.275H589.988V347.315H602.228ZM591.893 354.335V351.875H599.288V350.465H591.803V349.535H600.383V352.745H592.988V354.17H600.773V355.1H592.643C592.403 355.1 592.218 355.035 592.088 354.905C591.958 354.775 591.893 354.585 591.893 354.335ZM619.552 345.02V345.965H617.467V349.205H616.327V341.465H617.467V345.02H619.552ZM612.847 342.635H608.767V341.705H612.847V342.635ZM607.777 349.43L606.982 348.74C607.812 348.19 608.457 347.715 608.917 347.315C609.377 346.915 609.712 346.525 609.922 346.145C610.132 345.755 610.247 345.325 610.267 344.855H607.357V343.955H614.287V344.855H611.347C611.337 345.525 611.157 346.14 610.807 346.7L610.897 346.73L611.137 346.55C611.247 346.47 611.357 346.43 611.467 346.43C611.567 346.43 611.682 346.47 611.812 346.55L614.617 348.485L613.837 349.19L610.987 347.15C610.897 347.09 610.807 347.06 610.717 347.06C610.637 347.06 610.557 347.09 610.477 347.15C610.207 347.48 609.862 347.82 609.442 348.17C609.032 348.51 608.477 348.93 607.777 349.43ZM613.942 352.4C614.022 352.4 614.122 352.425 614.242 352.475L618.052 354.275L617.482 355.13L613.507 353.15C613.387 353.09 613.267 353.06 613.147 353.06C613.037 353.06 612.927 353.09 612.817 353.15C612.457 353.46 611.962 353.775 611.332 354.095C610.702 354.425 609.887 354.785 608.887 355.175L608.332 354.32C609.462 353.9 610.332 353.52 610.942 353.18C611.562 352.85 612.002 352.52 612.262 352.19C612.522 351.86 612.667 351.48 612.697 351.05H608.812V350.105H617.572V351.05H613.822C613.802 351.71 613.602 352.275 613.222 352.745L613.297 352.76L613.552 352.58C613.702 352.46 613.832 352.4 613.942 352.4ZM621.676 345.545C621.676 344.875 621.846 344.275 622.186 343.745C622.536 343.205 623.066 342.775 623.776 342.455C624.486 342.135 625.361 341.975 626.401 341.975C627.441 341.975 628.316 342.135 629.026 342.455C629.736 342.775 630.261 343.205 630.601 343.745C630.951 344.275 631.126 344.875 631.126 345.545C631.126 346.215 630.951 346.82 630.601 347.36C630.261 347.9 629.736 348.33 629.026 348.65C628.316 348.97 627.441 349.13 626.401 349.13C625.361 349.13 624.486 348.97 623.776 348.65C623.066 348.33 622.536 347.9 622.186 347.36C621.846 346.82 621.676 346.215 621.676 345.545ZM629.896 345.725V345.38C629.896 344.92 629.771 344.505 629.521 344.135C629.281 343.755 628.896 343.455 628.366 343.235C627.846 343.005 627.191 342.89 626.401 342.89C625.611 342.89 624.951 343.005 624.421 343.235C623.901 343.455 623.516 343.755 623.266 344.135C623.026 344.505 622.906 344.92 622.906 345.38V345.725C622.906 346.435 623.196 347.025 623.776 347.495C624.356 347.965 625.231 348.2 626.401 348.2C627.571 348.2 628.446 347.965 629.026 347.495C629.606 347.025 629.896 346.435 629.896 345.725ZM620.281 352.025H632.521V353H620.281V352.025ZM644.845 341.465V354.485H643.72V348.935H640.45V350.855H634.345V342.5H640.45V344.345H643.72V341.465H644.845ZM639.355 343.43H635.44V349.925H639.355V343.43ZM643.72 347.99V345.275H640.45V347.99H643.72ZM662.814 349.07H657.249V354.965H656.109V349.07H650.574V348.11H659.349C659.709 346.54 659.894 344.865 659.904 343.085V343.01H652.194V342.05H661.014V343.01C661.014 344.74 660.844 346.44 660.504 348.11H662.814V349.07ZM669.513 343.31H665.328V342.35H674.823V343.31H670.668C670.668 343.8 670.613 344.24 670.503 344.63C670.393 345.02 670.208 345.39 669.948 345.74L669.993 345.755L670.278 345.545C670.398 345.435 670.538 345.38 670.698 345.38C670.798 345.38 670.908 345.41 671.028 345.47L675.423 347.945L674.793 348.83L670.278 346.19C670.118 346.11 669.978 346.07 669.858 346.07C669.758 346.07 669.668 346.095 669.588 346.145C669.198 346.565 668.663 346.995 667.983 347.435C667.303 347.875 666.418 348.355 665.328 348.875L664.713 348.035C665.963 347.445 666.928 346.91 667.608 346.43C668.298 345.94 668.783 345.455 669.063 344.975C669.353 344.485 669.503 343.93 669.513 343.31ZM676.188 352.04V353H663.948V352.04H669.498V348.8H670.638V352.04H676.188ZM686.487 343.805V342.515H679.167V341.675H687.582V344.63H680.352V345.905H687.957V346.76H679.242V343.805H686.487ZM689.562 347.885V348.77H677.322V347.885H689.562ZM679.197 354.38V352.115H686.667V350.855H679.107V349.97H687.732V352.955H680.262V354.245H688.122V355.145H679.947C679.707 355.145 679.522 355.08 679.392 354.95C679.262 354.82 679.197 354.63 679.197 354.38ZM706.916 347.555H704.951V354.515H703.841V341.495H704.951V346.595H706.916V347.555ZM700.901 347.435C701.031 347.435 701.136 347.5 701.216 347.63L703.046 350.48L702.266 351.2L700.391 348.155C700.371 348.115 700.346 348.095 700.316 348.095C700.286 348.095 700.261 348.115 700.241 348.155C700.051 348.595 699.821 349.04 699.551 349.49C699.291 349.93 698.931 350.495 698.471 351.185L696.626 348.125C696.606 348.085 696.581 348.065 696.551 348.065C696.521 348.065 696.496 348.08 696.476 348.11C696.336 348.49 696.156 348.87 695.936 349.25C695.726 349.62 695.426 350.12 695.036 350.75C694.896 350.99 694.786 351.17 694.706 351.29L693.926 350.57C694.486 349.71 694.906 349 695.186 348.44C695.466 347.87 695.671 347.27 695.801 346.64C695.931 346 695.996 345.225 695.996 344.315V343.64H694.301V342.695H698.186V343.64H697.091V344.285C697.091 345.555 696.956 346.64 696.686 347.54L696.731 347.585L696.821 347.51C696.931 347.44 697.021 347.405 697.091 347.405C697.231 347.405 697.336 347.465 697.406 347.585L698.471 349.295C698.991 348.475 699.356 347.71 699.566 347C699.786 346.28 699.896 345.405 699.896 344.375V343.64H698.741V342.695H702.626V343.64H700.976V344.345C700.976 345.605 700.816 346.68 700.496 347.57L700.541 347.615L700.646 347.54C700.726 347.47 700.811 347.435 700.901 347.435ZM718.115 346.655H709.49V341.945H710.615V345.71H718.115V346.655ZM719.855 348.32V349.295H707.615V348.32H719.855ZM710.51 353.795H718.28V354.755H710.12C709.88 354.755 709.695 354.69 709.565 354.56C709.435 354.43 709.37 354.24 709.37 353.99V350.705H710.51V353.795ZM732.554 341.465V354.485H731.444V341.465H732.554ZM728.429 341.69H729.524V354.125H728.429V347.51H726.164C725.884 348.25 725.424 348.945 724.784 349.595C724.154 350.235 723.239 350.955 722.039 351.755L721.289 350.99C722.419 350.26 723.279 349.61 723.869 349.04C724.459 348.46 724.874 347.855 725.114 347.225C725.354 346.585 725.474 345.8 725.474 344.87V343.715H721.634V342.8H726.569V344.84C726.569 345.49 726.519 346.065 726.419 346.565H728.429V341.69ZM749.128 349.46H747.988V341.465H749.128V349.46ZM739.363 346.295L738.568 345.56C739.418 345.09 740.073 344.675 740.533 344.315C741.003 343.945 741.338 343.585 741.538 343.235C741.748 342.875 741.853 342.475 741.853 342.035V341.585H742.963V342.11C742.963 342.74 742.798 343.32 742.468 343.85L742.543 343.88L742.798 343.685C742.948 343.585 743.073 343.535 743.173 343.535C743.263 343.535 743.363 343.565 743.473 343.625L746.113 345.29L745.303 346.055L742.588 344.24C742.528 344.19 742.448 344.165 742.348 344.165C742.268 344.165 742.198 344.19 742.138 344.24C741.868 344.56 741.513 344.88 741.073 345.2C740.633 345.52 740.063 345.885 739.363 346.295ZM741.658 347.975C740.338 348.025 739.138 348.05 738.058 348.05L737.968 347.135C739.668 347.135 741.303 347.095 742.873 347.015C744.453 346.935 745.788 346.81 746.878 346.64L746.983 347.51C745.833 347.69 744.428 347.825 742.768 347.915V349.595H741.658V347.975ZM749.143 350.075V355.025H741.493C741.253 355.025 741.068 354.96 740.938 354.83C740.808 354.7 740.743 354.51 740.743 354.26V350.075H741.853V351.65H748.033V350.075H749.143ZM748.033 352.505H741.853V354.155H748.033V352.505ZM762.442 341.465V354.485H761.302V341.465H762.442ZM756.172 346.97C756.312 346.97 756.427 347.025 756.517 347.135L759.457 350.585L758.602 351.32L755.632 347.75C755.582 347.69 755.522 347.66 755.452 347.66C755.392 347.66 755.337 347.69 755.287 347.75C755.017 348.3 754.662 348.86 754.222 349.43C753.782 350 753.182 350.7 752.422 351.53L751.567 350.81C752.437 349.9 753.107 349.11 753.577 348.44C754.057 347.77 754.402 347.105 754.612 346.445C754.822 345.775 754.927 345.015 754.927 344.165V343.595H751.972V342.635H759.007V343.595H756.067V344.21C756.067 345.34 755.892 346.345 755.542 347.225L755.617 347.27L755.842 347.09C755.952 347.01 756.062 346.97 756.172 346.97ZM780.846 344.42V345.38H778.761V348.245H777.621V341.465H778.761V344.42H780.846ZM771.726 348.245C771.066 348.245 770.476 348.115 769.956 347.855C769.446 347.595 769.046 347.225 768.756 346.745C768.466 346.255 768.321 345.69 768.321 345.05C768.321 344.41 768.466 343.85 768.756 343.37C769.046 342.89 769.446 342.52 769.956 342.26C770.476 342 771.066 341.87 771.726 341.87C772.376 341.87 772.956 342 773.466 342.26C773.986 342.52 774.391 342.89 774.681 343.37C774.971 343.85 775.116 344.41 775.116 345.05C775.116 345.69 774.971 346.255 774.681 346.745C774.391 347.225 773.986 347.595 773.466 347.855C772.956 348.115 772.376 348.245 771.726 348.245ZM771.726 347.33C772.376 347.33 772.906 347.145 773.316 346.775C773.726 346.405 773.931 345.915 773.931 345.305V344.81C773.931 344.2 773.726 343.715 773.316 343.355C772.906 342.985 772.376 342.8 771.726 342.8C771.066 342.8 770.531 342.985 770.121 343.355C769.711 343.715 769.506 344.2 769.506 344.81V345.305C769.506 345.915 769.711 346.405 770.121 346.775C770.531 347.145 771.066 347.33 771.726 347.33ZM775.101 349.91V348.995H778.266V349.91H775.101ZM773.466 353.3L773.751 354.245C773.361 354.415 772.896 354.555 772.356 354.665C771.816 354.785 771.251 354.845 770.661 354.845H770.391C770.151 354.845 769.966 354.78 769.836 354.65C769.706 354.52 769.641 354.33 769.641 354.08V349.505H770.706V353.825H770.901C771.371 353.825 771.831 353.77 772.281 353.66C772.741 353.56 773.136 353.44 773.466 353.3ZM773.496 351.095H779.871V351.95H778.161V352.04C778.481 352.19 778.721 352.39 778.881 352.64C779.041 352.89 779.121 353.175 779.121 353.495C779.121 354.015 778.901 354.45 778.461 354.8C778.021 355.16 777.431 355.34 776.691 355.34C775.941 355.34 775.346 355.16 774.906 354.8C774.466 354.45 774.246 354.015 774.246 353.495C774.246 353.165 774.326 352.875 774.486 352.625C774.646 352.375 774.891 352.175 775.221 352.025V351.95H773.496V351.095ZM778.161 353.24C778.161 352.86 778.031 352.56 777.771 352.34C777.521 352.12 777.191 352.01 776.781 352.01H776.586C776.176 352.01 775.841 352.12 775.581 352.34C775.331 352.56 775.206 352.86 775.206 353.24C775.206 353.62 775.331 353.92 775.581 354.14C775.841 354.36 776.176 354.47 776.586 354.47H776.781C777.191 354.47 777.521 354.36 777.771 354.14C778.031 353.92 778.161 353.62 778.161 353.24ZM783.18 344.48C783.18 343.94 783.345 343.46 783.675 343.04C784.005 342.61 784.505 342.275 785.175 342.035C785.855 341.785 786.695 341.66 787.695 341.66C788.695 341.66 789.53 341.785 790.2 342.035C790.88 342.275 791.385 342.61 791.715 343.04C792.045 343.46 792.21 343.94 792.21 344.48C792.21 345.32 791.83 346 791.07 346.52C790.31 347.04 789.185 347.3 787.695 347.3C786.205 347.3 785.08 347.04 784.32 346.52C783.56 346 783.18 345.32 783.18 344.48ZM790.995 344.6V344.345C790.995 343.825 790.72 343.395 790.17 343.055C789.62 342.715 788.795 342.545 787.695 342.545C786.595 342.545 785.77 342.715 785.22 343.055C784.67 343.395 784.395 343.825 784.395 344.345V344.6C784.395 345.12 784.67 345.55 785.22 345.89C785.77 346.23 786.595 346.4 787.695 346.4C788.795 346.4 789.62 346.23 790.17 345.89C790.72 345.55 790.995 345.12 790.995 344.6ZM793.815 348.575V349.565H781.575V348.575H793.815ZM783.33 353.99V350.825H784.47V353.795H792.24V354.755H784.08C783.84 354.755 783.655 354.69 783.525 354.56C783.395 354.43 783.33 354.24 783.33 353.99ZM811.124 347.78H809.084V354.485H807.959V341.465H809.084V346.82H811.124V347.78ZM804.764 343.595H799.124V342.65H805.874V343.805C805.874 345.395 805.694 346.98 805.334 348.56L804.239 348.395C804.589 346.945 804.764 345.46 804.764 343.94V343.595ZM806.879 350.21L806.984 351.125C805.884 351.305 804.569 351.44 803.039 351.53C801.519 351.62 799.954 351.665 798.344 351.665L798.239 350.705C799.239 350.705 800.234 350.69 801.224 350.66V346.595H802.334V350.615C804.144 350.535 805.659 350.4 806.879 350.21ZM821.963 344.69V341.465H823.103V349.295H821.963V345.62H819.233V344.69H821.963ZM813.053 348.845L812.198 348.125C813.038 347.465 813.688 346.895 814.148 346.415C814.608 345.925 814.938 345.445 815.138 344.975C815.348 344.495 815.453 343.96 815.453 343.37V343.22H812.588V342.26H819.428V343.22H816.593V343.415C816.593 344.265 816.418 345.01 816.068 345.65L816.158 345.695L816.398 345.515C816.508 345.435 816.618 345.395 816.728 345.395C816.858 345.395 816.973 345.44 817.073 345.53L819.863 347.87L819.023 348.62L816.188 346.16C816.108 346.1 816.033 346.07 815.963 346.07C815.883 346.07 815.813 346.1 815.753 346.16C815.483 346.55 815.138 346.95 814.718 347.36C814.298 347.77 813.743 348.265 813.053 348.845ZM823.178 352.4C823.178 352.94 823.018 353.42 822.698 353.84C822.388 354.27 821.913 354.605 821.273 354.845C820.643 355.095 819.873 355.22 818.963 355.22C818.043 355.22 817.263 355.095 816.623 354.845C815.993 354.605 815.518 354.27 815.198 353.84C814.888 353.42 814.733 352.94 814.733 352.4C814.733 351.86 814.888 351.38 815.198 350.96C815.518 350.53 815.993 350.195 816.623 349.955C817.263 349.705 818.043 349.58 818.963 349.58C819.873 349.58 820.643 349.705 821.273 349.955C821.913 350.195 822.388 350.53 822.698 350.96C823.018 351.38 823.178 351.86 823.178 352.4ZM821.978 352.28C821.978 351.77 821.728 351.345 821.228 351.005C820.728 350.655 819.973 350.48 818.963 350.48C817.943 350.48 817.178 350.655 816.668 351.005C816.168 351.345 815.918 351.77 815.918 352.28V352.535C815.918 353.035 816.168 353.455 816.668 353.795C817.178 354.145 817.943 354.32 818.963 354.32C819.973 354.32 820.728 354.145 821.228 353.795C821.728 353.455 821.978 353.035 821.978 352.535V352.28ZM835.262 341.465H836.402V354.485H835.262V341.465ZM825.632 346.73C825.632 345.27 825.952 344.165 826.592 343.415C827.242 342.665 828.097 342.29 829.157 342.29C830.207 342.29 831.052 342.665 831.692 343.415C832.342 344.165 832.667 345.27 832.667 346.73C832.667 347.71 832.517 348.535 832.217 349.205C831.917 349.865 831.502 350.36 830.972 350.69C830.442 351.01 829.837 351.17 829.157 351.17C828.097 351.17 827.242 350.795 826.592 350.045C825.952 349.295 825.632 348.19 825.632 346.73ZM831.452 347.315V346.145C831.452 345.215 831.237 344.5 830.807 344C830.387 343.5 829.837 343.25 829.157 343.25C828.467 343.25 827.907 343.5 827.477 344C827.057 344.49 826.847 345.205 826.847 346.145V347.315C826.847 348.255 827.057 348.975 827.477 349.475C827.907 349.965 828.467 350.21 829.157 350.21C829.837 350.21 830.387 349.96 830.807 349.46C831.237 348.96 831.452 348.245 831.452 347.315ZM839.021 345.2C839.021 344.54 839.166 343.965 839.456 343.475C839.746 342.985 840.146 342.61 840.656 342.35C841.176 342.08 841.766 341.945 842.426 341.945C843.346 341.945 844.111 342.19 844.721 342.68C845.341 343.17 845.706 343.84 845.816 344.69H848.711V341.465H849.851V348.98H848.711V345.65H845.816C845.716 346.51 845.356 347.195 844.736 347.705C844.116 348.205 843.346 348.455 842.426 348.455C841.776 348.455 841.191 348.325 840.671 348.065C840.151 347.795 839.746 347.415 839.456 346.925C839.166 346.435 839.021 345.86 839.021 345.2ZM840.221 345.47C840.221 346.09 840.421 346.59 840.821 346.97C841.231 347.34 841.766 347.525 842.426 347.525C843.086 347.525 843.616 347.34 844.016 346.97C844.426 346.59 844.631 346.09 844.631 345.47V344.93C844.631 344.31 844.426 343.815 844.016 343.445C843.616 343.065 843.086 342.875 842.426 342.875C841.766 342.875 841.231 343.065 840.821 343.445C840.421 343.815 840.221 344.31 840.221 344.93V345.47ZM851.081 354.275L850.346 355.055L848.126 352.88C848.066 352.81 847.996 352.775 847.916 352.775C847.876 352.775 847.831 352.79 847.781 352.82C847.551 353.16 847.256 353.51 846.896 353.87C846.536 354.24 846.056 354.685 845.456 355.205L843.176 352.835C843.106 352.765 843.036 352.73 842.966 352.73C842.926 352.73 842.871 352.755 842.801 352.805C842.361 353.465 841.611 354.25 840.551 355.16L839.831 354.395C840.501 353.835 841.026 353.335 841.406 352.895C841.786 352.455 842.056 352.02 842.216 351.59C842.386 351.16 842.471 350.675 842.471 350.135V349.655H843.551V350.165C843.551 350.985 843.396 351.7 843.086 352.31L843.146 352.34L843.341 352.19C843.421 352.12 843.516 352.085 843.626 352.085C843.746 352.085 843.851 352.13 843.941 352.22L845.531 353.81C846.251 353.16 846.746 352.575 847.016 352.055C847.286 351.535 847.421 350.9 847.421 350.15V349.655H848.501V350.21C848.501 350.65 848.466 351.04 848.396 351.38C848.326 351.72 848.211 352.045 848.051 352.355L848.111 352.4L848.306 352.235C848.416 352.155 848.521 352.115 848.621 352.115C848.721 352.115 848.821 352.155 848.921 352.235L851.081 354.275ZM864.62 347.555H862.46V354.515H861.32V341.495H862.46V346.595H864.62V347.555ZM859.745 349.685L859.895 350.6C858.365 350.91 856.455 351.065 854.165 351.065H852.575V342.53H858.56V343.49H853.715V350.12H854.15C856.35 350.12 858.215 349.975 859.745 349.685ZM866.834 353.18C866.514 353.18 866.279 353.1 866.129 352.94C865.989 352.78 865.919 352.57 865.919 352.31V352.115C865.919 351.855 865.989 351.645 866.129 351.485C866.279 351.325 866.514 351.245 866.834 351.245C867.154 351.245 867.384 351.325 867.524 351.485C867.674 351.645 867.749 351.855 867.749 352.115V352.31C867.749 352.57 867.674 352.78 867.524 352.94C867.384 353.1 867.154 353.18 866.834 353.18Z" fill="black"/>
<path d="M139.2 380.93H137.16V387.485H136.035V374.465H137.16V379.97H139.2V380.93ZM132.66 375.995H128.655V375.065H132.66V375.995ZM134.97 383.96L135.075 384.875C133.975 385.055 132.66 385.195 131.13 385.295C129.61 385.385 128.04 385.43 126.42 385.43L126.315 384.47C127.435 384.47 128.67 384.445 130.02 384.395V382.61C129.23 382.53 128.605 382.29 128.145 381.89C127.685 381.48 127.455 380.98 127.455 380.39C127.455 379.96 127.56 379.59 127.77 379.28C127.99 378.96 128.32 378.71 128.76 378.53V378.44H126.525V377.54H134.595V378.44H132.435V378.53C132.865 378.71 133.19 378.96 133.41 379.28C133.63 379.6 133.74 379.97 133.74 380.39C133.74 380.99 133.505 381.495 133.035 381.905C132.565 382.305 131.925 382.54 131.115 382.61V384.335C132.675 384.255 133.96 384.13 134.97 383.96ZM130.44 381.71H130.755C131.325 381.71 131.79 381.575 132.15 381.305C132.51 381.025 132.69 380.635 132.69 380.135C132.69 379.635 132.51 379.25 132.15 378.98C131.79 378.7 131.325 378.56 130.755 378.56H130.44C129.87 378.56 129.405 378.7 129.045 378.98C128.685 379.25 128.505 379.635 128.505 380.135C128.505 380.635 128.685 381.025 129.045 381.305C129.405 381.575 129.87 381.71 130.44 381.71ZM150.039 380.45H147.279V379.52H150.039V377.48H147.279V376.55H150.039V374.465H151.179V384.35H150.039V380.45ZM146.769 381.695H140.634V375.305H146.769V381.695ZM145.644 376.25H141.759V380.75H145.644V376.25ZM151.449 386.825V387.77H143.589C143.349 387.77 143.164 387.705 143.034 387.575C142.904 387.445 142.839 387.255 142.839 387.005V383.27H143.994V386.825H151.449ZM163.338 374.465H164.478V387.485H163.338V374.465ZM153.708 379.73C153.708 378.27 154.028 377.165 154.668 376.415C155.318 375.665 156.173 375.29 157.233 375.29C158.283 375.29 159.128 375.665 159.768 376.415C160.418 377.165 160.743 378.27 160.743 379.73C160.743 380.71 160.593 381.535 160.293 382.205C159.993 382.865 159.578 383.36 159.048 383.69C158.518 384.01 157.913 384.17 157.233 384.17C156.173 384.17 155.318 383.795 154.668 383.045C154.028 382.295 153.708 381.19 153.708 379.73ZM159.528 380.315V379.145C159.528 378.215 159.313 377.5 158.883 377C158.463 376.5 157.913 376.25 157.233 376.25C156.543 376.25 155.983 376.5 155.553 377C155.133 377.49 154.923 378.205 154.923 379.145V380.315C154.923 381.255 155.133 381.975 155.553 382.475C155.983 382.965 156.543 383.21 157.233 383.21C157.913 383.21 158.463 382.96 158.883 382.46C159.313 381.96 159.528 381.245 159.528 380.315ZM182.882 378.815H180.797V382.355H179.657V374.465H180.797V377.855H182.882V378.815ZM171.137 381.995L170.297 381.275C171.137 380.595 171.787 380.01 172.247 379.52C172.707 379.03 173.037 378.545 173.237 378.065C173.447 377.575 173.552 377.03 173.552 376.43V376.28H170.687V375.32H177.542V376.28H174.692V376.475C174.692 377.305 174.517 378.06 174.167 378.74L174.257 378.785L174.482 378.62C174.592 378.53 174.702 378.485 174.812 378.485C174.922 378.485 175.037 378.535 175.157 378.635L177.962 381.02L177.122 381.77L174.272 379.265C174.212 379.205 174.142 379.175 174.062 379.175C173.982 379.175 173.912 379.205 173.852 379.265C173.592 379.655 173.252 380.055 172.832 380.465C172.412 380.875 171.847 381.385 171.137 381.995ZM172.352 383.165H180.797V388.145H179.672V384.125H172.352V383.165ZM193.631 374.465H194.771V387.485H193.631V374.465ZM184.196 383.9C185.576 383.19 186.631 382.54 187.361 381.95C188.091 381.36 188.601 380.735 188.891 380.075C189.191 379.415 189.341 378.6 189.341 377.63V376.505H184.571V375.53H190.481V377.615C190.481 378.725 190.311 379.665 189.971 380.435C189.641 381.205 189.076 381.925 188.276 382.595C187.486 383.255 186.351 383.98 184.871 384.77L184.196 383.9ZM212.245 374.465V387.485H211.165V380.495H209.275V387.125H208.21V374.69H209.275V379.55H211.165V374.465H212.245ZM203.74 382.895L203.875 383.75C203.255 383.95 202.49 384.05 201.58 384.05H200.8V375.785H203.605V376.7H201.865V383.12C202.625 383.11 203.25 383.035 203.74 382.895ZM207.43 382.91L207.55 383.795C207.28 383.875 206.93 383.945 206.5 384.005C206.08 384.055 205.62 384.08 205.12 384.08H204.22V375.785H207.175V376.7H205.285V383.165H205.3C206.16 383.165 206.87 383.08 207.43 382.91ZM224.314 379.91H215.734V374.87H224.314V379.91ZM223.189 375.8H216.859V378.98H223.189V375.8ZM226.144 381.41V382.385H220.669V385.13H219.529V382.385H213.904V381.41H226.144ZM216.754 386.9H224.554V387.845H216.379C216.139 387.845 215.954 387.78 215.824 387.65C215.694 387.52 215.629 387.33 215.629 387.08V383.885H216.754V386.9ZM238.843 374.465V387.485H237.748V374.465H238.843ZM234.793 374.69H235.858V387.125H234.793V380.3H233.353C233.303 381.6 233.013 382.58 232.483 383.24C231.953 383.89 231.253 384.215 230.383 384.215C229.453 384.215 228.718 383.855 228.178 383.135C227.638 382.405 227.368 381.32 227.368 379.88C227.368 378.44 227.638 377.36 228.178 376.64C228.718 375.91 229.453 375.545 230.383 375.545C231.243 375.545 231.933 375.865 232.453 376.505C232.983 377.145 233.283 378.095 233.353 379.355H234.793V374.69ZM232.213 379.16C232.213 378.28 232.043 377.61 231.703 377.15C231.373 376.69 230.933 376.46 230.383 376.46C229.823 376.46 229.373 376.69 229.033 377.15C228.703 377.61 228.538 378.28 228.538 379.16V380.615C228.538 381.485 228.703 382.155 229.033 382.625C229.373 383.085 229.823 383.315 230.383 383.315C230.933 383.315 231.373 383.085 231.703 382.625C232.043 382.155 232.213 381.485 232.213 380.615V379.16ZM255.762 374.465V387.485H254.652V380.495H252.522V387.125H251.427V374.69H252.522V379.55H254.652V374.465H255.762ZM250.482 382.505L250.632 383.435C249.402 383.735 247.887 383.885 246.087 383.885H244.827V375.785H245.922V382.94H246.357C247.137 382.94 247.882 382.905 248.592 382.835C249.312 382.755 249.942 382.645 250.482 382.505ZM269.811 381.05V382.01H257.571V381.05H260.826V379.28C260.276 379.05 259.861 378.75 259.581 378.38C259.311 378.01 259.176 377.59 259.176 377.12C259.176 376.34 259.556 375.71 260.316 375.23C261.076 374.74 262.201 374.495 263.691 374.495C265.181 374.495 266.306 374.74 267.066 375.23C267.826 375.71 268.206 376.34 268.206 377.12C268.206 377.59 268.066 378.01 267.786 378.38C267.516 378.75 267.106 379.05 266.556 379.28V381.05H269.811ZM263.691 378.86C264.801 378.86 265.631 378.705 266.181 378.395C266.731 378.085 267.006 377.69 267.006 377.21V377C267.006 376.53 266.726 376.14 266.166 375.83C265.616 375.52 264.791 375.365 263.691 375.365C262.591 375.365 261.766 375.52 261.216 375.83C260.666 376.14 260.391 376.53 260.391 377V377.21C260.391 377.69 260.661 378.085 261.201 378.395C261.751 378.705 262.581 378.86 263.691 378.86ZM261.921 381.05H265.461V379.595C264.971 379.695 264.381 379.745 263.691 379.745C263.001 379.745 262.411 379.695 261.921 379.595V381.05ZM268.131 385.685C268.131 386.195 267.961 386.645 267.621 387.035C267.291 387.425 266.791 387.73 266.121 387.95C265.461 388.18 264.651 388.295 263.691 388.295C262.731 388.295 261.916 388.18 261.246 387.95C260.586 387.73 260.086 387.425 259.746 387.035C259.416 386.645 259.251 386.195 259.251 385.685C259.251 385.185 259.416 384.745 259.746 384.365C260.086 383.975 260.586 383.67 261.246 383.45C261.916 383.23 262.731 383.12 263.691 383.12C264.651 383.12 265.461 383.23 266.121 383.45C266.791 383.67 267.291 383.975 267.621 384.365C267.961 384.745 268.131 385.185 268.131 385.685ZM266.931 385.595C266.931 385.155 266.661 384.785 266.121 384.485C265.591 384.175 264.781 384.02 263.691 384.02C262.961 384.02 262.351 384.095 261.861 384.245C261.371 384.385 261.011 384.575 260.781 384.815C260.551 385.055 260.436 385.315 260.436 385.595V385.805C260.436 386.085 260.551 386.345 260.781 386.585C261.011 386.825 261.371 387.015 261.861 387.155C262.351 387.305 262.961 387.38 263.691 387.38C264.781 387.38 265.591 387.225 266.121 386.915C266.661 386.615 266.931 386.245 266.931 385.805V385.595ZM280.995 374.465H282.12V387.485H280.995V374.465ZM271.635 378.365C271.635 377.745 271.79 377.2 272.1 376.73C272.41 376.25 272.835 375.885 273.375 375.635C273.915 375.375 274.525 375.245 275.205 375.245C275.885 375.245 276.495 375.375 277.035 375.635C277.575 375.885 278 376.25 278.31 376.73C278.62 377.2 278.775 377.745 278.775 378.365C278.775 378.985 278.62 379.53 278.31 380C278 380.47 277.575 380.835 277.035 381.095C276.495 381.345 275.885 381.47 275.205 381.47C274.525 381.47 273.915 381.345 273.375 381.095C272.835 380.835 272.41 380.47 272.1 380C271.79 379.53 271.635 378.985 271.635 378.365ZM277.575 378.545V378.185C277.575 377.585 277.355 377.1 276.915 376.73C276.475 376.36 275.905 376.175 275.205 376.175C274.505 376.175 273.935 376.36 273.495 376.73C273.055 377.1 272.835 377.585 272.835 378.185V378.545C272.835 379.145 273.055 379.63 273.495 380C273.935 380.37 274.505 380.555 275.205 380.555C275.905 380.555 276.475 380.37 276.915 380C277.355 379.63 277.575 379.145 277.575 378.545ZM271.005 383.78C272.705 383.78 274.345 383.74 275.925 383.66C277.505 383.58 278.845 383.455 279.945 383.285L280.065 384.2C278.935 384.38 277.575 384.52 275.985 384.62C274.405 384.71 272.78 384.755 271.11 384.755L271.005 383.78ZM298.424 377.345V379.325H300.494V380.27H298.424V382.22H297.299V374.465H298.424V376.4H300.494V377.345H298.424ZM291.389 381.38C290.729 381.38 290.139 381.25 289.619 380.99C289.109 380.73 288.709 380.355 288.419 379.865C288.129 379.375 287.984 378.8 287.984 378.14C287.984 377.48 288.129 376.905 288.419 376.415C288.709 375.925 289.109 375.55 289.619 375.29C290.139 375.03 290.729 374.9 291.389 374.9C292.049 374.9 292.634 375.03 293.144 375.29C293.654 375.55 294.054 375.925 294.344 376.415C294.634 376.905 294.779 377.48 294.779 378.14C294.779 378.8 294.634 379.375 294.344 379.865C294.054 380.355 293.654 380.73 293.144 380.99C292.634 381.25 292.049 381.38 291.389 381.38ZM291.389 380.45C292.039 380.45 292.564 380.265 292.964 379.895C293.374 379.525 293.579 379.03 293.579 378.41V377.87C293.579 377.25 293.374 376.755 292.964 376.385C292.564 376.015 292.039 375.83 291.389 375.83C290.729 375.83 290.194 376.015 289.784 376.385C289.384 376.755 289.184 377.25 289.184 377.87V378.41C289.184 379.03 289.384 379.525 289.784 379.895C290.194 380.265 290.729 380.45 291.389 380.45ZM298.529 385.34C298.529 385.89 298.374 386.38 298.064 386.81C297.754 387.25 297.289 387.595 296.669 387.845C296.049 388.095 295.289 388.22 294.389 388.22C293.499 388.22 292.739 388.095 292.109 387.845C291.489 387.595 291.019 387.25 290.699 386.81C290.389 386.38 290.234 385.89 290.234 385.34C290.234 384.79 290.389 384.3 290.699 383.87C291.019 383.43 291.489 383.085 292.109 382.835C292.739 382.585 293.499 382.46 294.389 382.46C295.289 382.46 296.049 382.585 296.669 382.835C297.289 383.085 297.754 383.43 298.064 383.87C298.374 384.3 298.529 384.79 298.529 385.34ZM297.329 385.22C297.329 384.7 297.084 384.265 296.594 383.915C296.114 383.565 295.379 383.39 294.389 383.39C293.409 383.39 292.674 383.57 292.184 383.93C291.694 384.28 291.449 384.71 291.449 385.22V385.475C291.449 385.985 291.694 386.415 292.184 386.765C292.674 387.125 293.409 387.305 294.389 387.305C295.379 387.305 296.114 387.125 296.594 386.765C297.084 386.415 297.329 385.985 297.329 385.475V385.22ZM302.858 376.865C302.858 376.135 303.233 375.555 303.983 375.125C304.733 374.685 305.858 374.465 307.358 374.465C308.858 374.465 309.983 374.685 310.733 375.125C311.483 375.555 311.858 376.135 311.858 376.865C311.858 377.595 311.483 378.18 310.733 378.62C309.983 379.06 308.858 379.28 307.358 379.28C305.858 379.28 304.733 379.06 303.983 378.62C303.233 378.18 302.858 377.595 302.858 376.865ZM310.643 376.94V376.775C310.643 376.345 310.368 375.995 309.818 375.725C309.278 375.445 308.458 375.305 307.358 375.305C306.258 375.305 305.433 375.445 304.883 375.725C304.343 375.995 304.073 376.345 304.073 376.775V376.94C304.073 377.37 304.343 377.725 304.883 378.005C305.433 378.275 306.258 378.41 307.358 378.41C308.458 378.41 309.278 378.275 309.818 378.005C310.368 377.725 310.643 377.37 310.643 376.94ZM313.478 380.315V381.275H301.238V380.315H313.478ZM303.143 387.335V384.875H310.538V383.465H303.053V382.535H311.633V385.745H304.238V387.17H312.023V388.1H303.893C303.653 388.1 303.468 388.035 303.338 387.905C303.208 387.775 303.143 387.585 303.143 387.335ZM330.802 377.675V378.635H328.717V381.89H327.577V374.465H328.717V377.675H330.802ZM324.757 381.125H318.607V375.125H324.757V381.125ZM323.632 376.055H319.747V380.18H323.632V376.055ZM325.252 385.265C325.322 385.265 325.422 385.29 325.552 385.34L329.377 387.275L328.792 388.13L324.817 386.03C324.697 385.97 324.582 385.94 324.472 385.94C324.352 385.94 324.237 385.975 324.127 386.045C323.767 386.365 323.272 386.695 322.642 387.035C322.022 387.375 321.217 387.755 320.227 388.175L319.657 387.305C320.807 386.855 321.692 386.445 322.312 386.075C322.942 385.705 323.382 385.34 323.632 384.98C323.882 384.61 324.012 384.19 324.022 383.72H320.137V382.76H328.897V383.72H325.147C325.137 384.11 325.087 384.455 324.997 384.755C324.907 385.055 324.752 385.34 324.532 385.61L324.592 385.64L324.862 385.43C325.002 385.32 325.132 385.265 325.252 385.265ZM339.931 375.53H335.371V374.6H339.931V375.53ZM337.081 377.825H332.956V376.895H342.361V377.825H338.236C338.186 378.415 337.971 378.915 337.591 379.325L337.696 379.355L337.981 379.16C338.121 379.06 338.266 379.01 338.416 379.01C338.516 379.01 338.631 379.035 338.761 379.085L342.886 380.84L342.271 381.68L337.921 379.73C337.801 379.67 337.676 379.64 337.546 379.64C337.396 379.64 337.266 379.675 337.156 379.745L337.111 379.76C336.721 380.06 336.196 380.37 335.536 380.69C334.886 381 334.046 381.345 333.016 381.725L332.416 380.9C333.556 380.5 334.451 380.14 335.101 379.82C335.761 379.5 336.241 379.185 336.541 378.875C336.841 378.555 337.021 378.205 337.081 377.825ZM343.771 383.615H338.221V388.01H337.081V383.615H331.531V382.67H343.771V383.615ZM356.08 374.465V387.485H354.955V380.6H352.045V379.64H354.955V374.465H356.08ZM345.79 375.53H351.565V377.615C351.565 378.725 351.4 379.665 351.07 380.435C350.74 381.205 350.185 381.925 349.405 382.595C348.635 383.255 347.53 383.98 346.09 384.77L345.415 383.915C346.755 383.195 347.78 382.54 348.49 381.95C349.2 381.36 349.695 380.735 349.975 380.075C350.265 379.405 350.41 378.59 350.41 377.63V376.505H345.79V375.53ZM370.909 380.555H368.749V387.515H367.609V374.495H368.749V379.595H370.909V380.555ZM366.019 382.505L366.169 383.435C364.589 383.755 362.669 383.915 360.409 383.915H358.834V375.515H359.959V382.955H360.409C362.569 382.955 364.439 382.805 366.019 382.505ZM384.648 376.595V376.49H376.788V375.53H385.788V376.97C385.788 379.27 385.578 381.455 385.158 383.525L384.048 383.345C384.268 382.295 384.423 381.21 384.513 380.09L376.488 380.495L376.338 379.52L384.588 379.19C384.628 378.46 384.648 377.595 384.648 376.595ZM387.438 385.025V386H375.198V385.025H387.438ZM398.592 374.465H399.732V387.485H398.592V374.465ZM389.157 383.9C390.537 383.19 391.592 382.54 392.322 381.95C393.052 381.36 393.562 380.735 393.852 380.075C394.152 379.415 394.302 378.6 394.302 377.63V376.505H389.532V375.53H395.442V377.615C395.442 378.725 395.272 379.665 394.932 380.435C394.602 381.205 394.037 381.925 393.237 382.595C392.447 383.255 391.312 383.98 389.832 384.77L389.157 383.9ZM411.056 376.31H406.871V375.35H416.366V376.31H412.211C412.211 376.8 412.156 377.24 412.046 377.63C411.936 378.02 411.751 378.39 411.491 378.74L411.536 378.755L411.821 378.545C411.941 378.435 412.081 378.38 412.241 378.38C412.341 378.38 412.451 378.41 412.571 378.47L416.966 380.945L416.336 381.83L411.821 379.19C411.661 379.11 411.521 379.07 411.401 379.07C411.301 379.07 411.211 379.095 411.131 379.145C410.741 379.565 410.206 379.995 409.526 380.435C408.846 380.875 407.961 381.355 406.871 381.875L406.256 381.035C407.506 380.445 408.471 379.91 409.151 379.43C409.841 378.94 410.326 378.455 410.606 377.975C410.896 377.485 411.046 376.93 411.056 376.31ZM417.731 385.04V386H405.491V385.04H411.041V381.8H412.181V385.04H417.731ZM428.96 377.405V374.465H430.1V381.365H428.96V378.32H426.26V377.405H428.96ZM420.02 381.365L419.195 380.645C420.035 380.005 420.685 379.455 421.145 378.995C421.605 378.535 421.935 378.08 422.135 377.63C422.345 377.18 422.45 376.67 422.45 376.1V376.07H419.585V375.14H426.425V376.07H423.575V376.145C423.575 376.965 423.4 377.68 423.05 378.29L423.14 378.335L423.38 378.17C423.49 378.08 423.6 378.035 423.71 378.035C423.82 378.035 423.935 378.08 424.055 378.17L426.86 380.39L426.02 381.125L423.185 378.8C423.115 378.73 423.035 378.695 422.945 378.695C422.865 378.695 422.795 378.725 422.735 378.785C422.475 379.155 422.135 379.535 421.715 379.925C421.295 380.315 420.73 380.795 420.02 381.365ZM430.46 387.215V388.1H422.495C422.255 388.1 422.07 388.035 421.94 387.905C421.81 387.775 421.745 387.585 421.745 387.335V384.71H428.975V383.06H421.655V382.175H430.1V385.535H422.87V387.215H430.46ZM433.859 376.865C433.859 376.135 434.234 375.555 434.984 375.125C435.734 374.685 436.859 374.465 438.359 374.465C439.859 374.465 440.984 374.685 441.734 375.125C442.484 375.555 442.859 376.135 442.859 376.865C442.859 377.595 442.484 378.18 441.734 378.62C440.984 379.06 439.859 379.28 438.359 379.28C436.859 379.28 435.734 379.06 434.984 378.62C434.234 378.18 433.859 377.595 433.859 376.865ZM441.644 376.94V376.775C441.644 376.345 441.369 375.995 440.819 375.725C440.279 375.445 439.459 375.305 438.359 375.305C437.259 375.305 436.434 375.445 435.884 375.725C435.344 375.995 435.074 376.345 435.074 376.775V376.94C435.074 377.37 435.344 377.725 435.884 378.005C436.434 378.275 437.259 378.41 438.359 378.41C439.459 378.41 440.279 378.275 440.819 378.005C441.369 377.725 441.644 377.37 441.644 376.94ZM444.479 380.315V381.275H432.239V380.315H444.479ZM434.144 387.335V384.875H441.539V383.465H434.054V382.535H442.634V385.745H435.239V387.17H443.024V388.1H434.894C434.654 388.1 434.469 388.035 434.339 387.905C434.209 387.775 434.144 387.585 434.144 387.335ZM461.788 380.795H459.673V387.515H458.533V374.495H459.673V379.835H461.788V380.795ZM455.338 376.175H451.078V375.2H455.338V376.175ZM449.083 377.975H457.108V378.905H454.888V378.995C455.798 379.445 456.253 380.31 456.253 381.59C456.253 382.24 456.118 382.805 455.848 383.285C455.578 383.755 455.203 384.115 454.723 384.365C454.253 384.615 453.728 384.74 453.148 384.74C452.568 384.74 452.038 384.615 451.558 384.365C451.088 384.115 450.718 383.755 450.448 383.285C450.178 382.805 450.043 382.24 450.043 381.59C450.043 380.31 450.498 379.445 451.408 378.995V378.905H449.083V377.975ZM455.143 381.095C455.143 380.425 454.963 379.915 454.603 379.565C454.243 379.205 453.758 379.025 453.148 379.025C452.548 379.025 452.063 379.205 451.693 379.565C451.333 379.925 451.153 380.435 451.153 381.095V381.71C451.153 382.36 451.338 382.87 451.708 383.24C452.078 383.6 452.558 383.78 453.148 383.78C453.738 383.78 454.218 383.6 454.588 383.24C454.958 382.87 455.143 382.36 455.143 381.71V381.095ZM473.032 379.655H464.407V374.945H465.532V378.71H473.032V379.655ZM474.772 381.32V382.295H462.532V381.32H474.772ZM465.427 386.795H473.197V387.755H465.037C464.797 387.755 464.612 387.69 464.482 387.56C464.352 387.43 464.287 387.24 464.287 386.99V383.705H465.427V386.795ZM491.016 374.465V387.485H489.906V374.465H491.016ZM486.861 374.69H487.956V387.125H486.861V380.135H484.311V379.19H486.861V374.69ZM485.586 382.715L485.721 383.63C484.511 383.94 483.021 384.095 481.251 384.095H480.006V375.8H484.866V376.76H481.116V383.15H481.506C483.156 383.15 484.516 383.005 485.586 382.715ZM504.39 374.465V387.485H503.295V374.465H504.39ZM500.34 374.69H501.405V387.125H500.34V380.3H498.9C498.85 381.6 498.56 382.58 498.03 383.24C497.5 383.89 496.8 384.215 495.93 384.215C495 384.215 494.265 383.855 493.725 383.135C493.185 382.405 492.915 381.32 492.915 379.88C492.915 378.44 493.185 377.36 493.725 376.64C494.265 375.91 495 375.545 495.93 375.545C496.79 375.545 497.48 375.865 498 376.505C498.53 377.145 498.83 378.095 498.9 379.355H500.34V374.69ZM497.76 379.16C497.76 378.28 497.59 377.61 497.25 377.15C496.92 376.69 496.48 376.46 495.93 376.46C495.37 376.46 494.92 376.69 494.58 377.15C494.25 377.61 494.085 378.28 494.085 379.16V380.615C494.085 381.485 494.25 382.155 494.58 382.625C494.92 383.085 495.37 383.315 495.93 383.315C496.48 383.315 496.92 383.085 497.25 382.625C497.59 382.155 497.76 381.485 497.76 380.615V379.16ZM519.839 380.45H517.169V379.52H519.839V377.48H517.169V376.55H519.839V374.465H520.979V384.35H519.839V380.45ZM513.494 381.95C512.834 381.95 512.249 381.815 511.739 381.545C511.229 381.265 510.829 380.865 510.539 380.345C510.249 379.825 510.104 379.215 510.104 378.515C510.104 377.815 510.249 377.205 510.539 376.685C510.829 376.165 511.229 375.77 511.739 375.5C512.249 375.22 512.834 375.08 513.494 375.08C514.154 375.08 514.739 375.22 515.249 375.5C515.759 375.77 516.159 376.165 516.449 376.685C516.739 377.205 516.884 377.815 516.884 378.515C516.884 379.215 516.739 379.825 516.449 380.345C516.159 380.865 515.759 381.265 515.249 381.545C514.739 381.815 514.154 381.95 513.494 381.95ZM513.494 381.02C514.144 381.02 514.669 380.825 515.069 380.435C515.479 380.035 515.684 379.505 515.684 378.845V378.2C515.684 377.54 515.479 377.01 515.069 376.61C514.669 376.21 514.144 376.01 513.494 376.01C512.834 376.01 512.299 376.21 511.889 376.61C511.489 377.01 511.289 377.54 511.289 378.2V378.845C511.289 379.505 511.489 380.035 511.889 380.435C512.299 380.825 512.834 381.02 513.494 381.02ZM521.249 386.825V387.77H513.389C513.149 387.77 512.964 387.705 512.834 387.575C512.704 387.445 512.639 387.255 512.639 387.005V383.27H513.794V386.825H521.249ZM524.498 379.715L523.883 378.875C525.183 378.385 526.183 377.94 526.883 377.54C527.583 377.13 528.068 376.725 528.338 376.325C528.618 375.925 528.758 375.46 528.758 374.93V374.585H529.898V374.99C529.898 375.42 529.838 375.81 529.718 376.16C529.598 376.5 529.408 376.82 529.148 377.12L529.253 377.15L529.628 376.895C529.768 376.785 529.913 376.73 530.063 376.73C530.163 376.73 530.273 376.755 530.393 376.805L534.593 378.83L533.963 379.685L529.583 377.51C529.423 377.43 529.278 377.39 529.148 377.39C529.018 377.39 528.888 377.425 528.758 377.495C528.358 377.845 527.818 378.195 527.138 378.545C526.468 378.885 525.588 379.275 524.498 379.715ZM535.358 380.795V381.755H523.118V380.795H535.358ZM532.433 382.805H533.543V387.995H525.683C525.443 387.995 525.258 387.93 525.128 387.8C524.998 387.67 524.933 387.48 524.933 387.23V382.805H526.043V384.425H532.433V382.805ZM532.433 385.37H526.043V387.05H532.433V385.37ZM546.512 374.465H547.652V387.485H546.512V374.465ZM536.882 379.73C536.882 378.27 537.202 377.165 537.842 376.415C538.492 375.665 539.347 375.29 540.407 375.29C541.457 375.29 542.302 375.665 542.942 376.415C543.592 377.165 543.917 378.27 543.917 379.73C543.917 380.71 543.767 381.535 543.467 382.205C543.167 382.865 542.752 383.36 542.222 383.69C541.692 384.01 541.087 384.17 540.407 384.17C539.347 384.17 538.492 383.795 537.842 383.045C537.202 382.295 536.882 381.19 536.882 379.73ZM542.702 380.315V379.145C542.702 378.215 542.487 377.5 542.057 377C541.637 376.5 541.087 376.25 540.407 376.25C539.717 376.25 539.157 376.5 538.727 377C538.307 377.49 538.097 378.205 538.097 379.145V380.315C538.097 381.255 538.307 381.975 538.727 382.475C539.157 382.965 539.717 383.21 540.407 383.21C541.087 383.21 541.637 382.96 542.057 382.46C542.487 381.96 542.702 381.245 542.702 380.315ZM566.056 377.42V378.38H563.971V381.245H562.831V374.465H563.971V377.42H566.056ZM560.011 380.945H553.861V375.095H560.011V380.945ZM558.886 376.025H554.986V380.015H558.886V376.025ZM563.476 382.91H560.326V381.995H563.476V382.91ZM558.676 386.3L558.961 387.245C558.571 387.415 558.106 387.555 557.566 387.665C557.026 387.785 556.461 387.845 555.871 387.845H555.601C555.361 387.845 555.176 387.78 555.046 387.65C554.916 387.52 554.851 387.33 554.851 387.08V382.505H555.916V386.825H556.111C556.581 386.825 557.041 386.77 557.491 386.66C557.951 386.56 558.346 386.44 558.676 386.3ZM558.706 384.095H565.081V384.95H563.371V385.04C563.691 385.19 563.931 385.39 564.091 385.64C564.251 385.89 564.331 386.175 564.331 386.495C564.331 387.015 564.111 387.45 563.671 387.8C563.231 388.16 562.641 388.34 561.901 388.34C561.151 388.34 560.556 388.16 560.116 387.8C559.676 387.45 559.456 387.015 559.456 386.495C559.456 386.165 559.536 385.875 559.696 385.625C559.856 385.375 560.101 385.175 560.431 385.025V384.95H558.706V384.095ZM563.371 386.24C563.371 385.86 563.241 385.56 562.981 385.34C562.731 385.12 562.401 385.01 561.991 385.01H561.796C561.386 385.01 561.051 385.12 560.791 385.34C560.541 385.56 560.416 385.86 560.416 386.24C560.416 386.62 560.541 386.92 560.791 387.14C561.051 387.36 561.386 387.47 561.796 387.47H561.991C562.401 387.47 562.731 387.36 562.981 387.14C563.241 386.92 563.371 386.62 563.371 386.24ZM576.805 374.465H577.945V387.485H576.805V374.465ZM567.175 379.73C567.175 378.27 567.495 377.165 568.135 376.415C568.785 375.665 569.64 375.29 570.7 375.29C571.75 375.29 572.595 375.665 573.235 376.415C573.885 377.165 574.21 378.27 574.21 379.73C574.21 380.71 574.06 381.535 573.76 382.205C573.46 382.865 573.045 383.36 572.515 383.69C571.985 384.01 571.38 384.17 570.7 384.17C569.64 384.17 568.785 383.795 568.135 383.045C567.495 382.295 567.175 381.19 567.175 379.73ZM572.995 380.315V379.145C572.995 378.215 572.78 377.5 572.35 377C571.93 376.5 571.38 376.25 570.7 376.25C570.01 376.25 569.45 376.5 569.02 377C568.6 377.49 568.39 378.205 568.39 379.145V380.315C568.39 381.255 568.6 381.975 569.02 382.475C569.45 382.965 570.01 383.21 570.7 383.21C571.38 383.21 571.93 382.96 572.35 382.46C572.78 381.96 572.995 381.245 572.995 380.315ZM594.939 374.465V381.41H593.784V374.465H594.939ZM591.564 375.155V376.055H584.214V375.155H591.564ZM585.759 380.165L585.414 376.985L586.479 376.895L586.749 380.15C587.449 380.13 587.959 380.11 588.279 380.09L588.939 380.06L589.299 376.88L590.364 376.97L589.944 380.015C590.694 379.965 591.444 379.895 592.194 379.805L592.314 380.645C591.294 380.785 590.039 380.895 588.549 380.975C587.059 381.045 585.519 381.08 583.929 381.08L583.824 380.18C584.684 380.18 585.329 380.175 585.759 380.165ZM586.584 387.335V384.65H593.799V383.15H586.494V382.19H594.939V385.61H587.739V387.125H595.299V388.1H587.334C587.094 388.1 586.909 388.035 586.779 387.905C586.649 387.775 586.584 387.585 586.584 387.335ZM598.473 378.47C598.473 377.8 598.643 377.2 598.983 376.67C599.333 376.14 599.863 375.72 600.573 375.41C601.283 375.1 602.158 374.945 603.198 374.945C604.238 374.945 605.113 375.1 605.823 375.41C606.533 375.72 607.058 376.14 607.398 376.67C607.748 377.2 607.923 377.8 607.923 378.47C607.923 379.13 607.748 379.725 607.398 380.255C607.058 380.785 606.533 381.21 605.823 381.53C605.113 381.84 604.238 381.995 603.198 381.995C602.158 381.995 601.283 381.84 600.573 381.53C599.863 381.21 599.333 380.785 598.983 380.255C598.643 379.725 598.473 379.13 598.473 378.47ZM599.703 378.635C599.703 379.335 599.993 379.915 600.573 380.375C601.153 380.835 602.028 381.065 603.198 381.065C604.368 381.065 605.243 380.835 605.823 380.375C606.403 379.915 606.693 379.335 606.693 378.635V378.305C606.693 377.605 606.403 377.025 605.823 376.565C605.243 376.095 604.368 375.86 603.198 375.86C602.028 375.86 601.153 376.095 600.573 376.565C599.993 377.025 599.703 377.605 599.703 378.305V378.635ZM609.318 385.04V386H597.078V385.04H600.213V382.445H601.338V385.04H605.058V382.445H606.168V385.04H609.318ZM623.082 380.795H620.967V387.515H619.827V374.495H620.967V379.835H623.082V380.795ZM616.632 376.175H612.372V375.2H616.632V376.175ZM610.377 377.975H618.402V378.905H616.182V378.995C617.092 379.445 617.547 380.31 617.547 381.59C617.547 382.24 617.412 382.805 617.142 383.285C616.872 383.755 616.497 384.115 616.017 384.365C615.547 384.615 615.022 384.74 614.442 384.74C613.862 384.74 613.332 384.615 612.852 384.365C612.382 384.115 612.012 383.755 611.742 383.285C611.472 382.805 611.337 382.24 611.337 381.59C611.337 380.31 611.792 379.445 612.702 378.995V378.905H610.377V377.975ZM616.437 381.095C616.437 380.425 616.257 379.915 615.897 379.565C615.537 379.205 615.052 379.025 614.442 379.025C613.842 379.025 613.357 379.205 612.987 379.565C612.627 379.925 612.447 380.435 612.447 381.095V381.71C612.447 382.36 612.632 382.87 613.002 383.24C613.372 383.6 613.852 383.78 614.442 383.78C615.032 383.78 615.512 383.6 615.882 383.24C616.252 382.87 616.437 382.36 616.437 381.71V381.095ZM636.456 380.555H634.296V387.515H633.156V374.495H634.296V379.595H636.456V380.555ZM631.581 382.685L631.731 383.6C630.201 383.91 628.291 384.065 626.001 384.065H624.411V375.53H630.396V376.49H625.551V383.12H625.986C628.186 383.12 630.051 382.975 631.581 382.685ZM646.65 376.52H638.73V375.545H647.775V376.61C647.775 378.83 647.56 380.945 647.13 382.955L646.02 382.775C646.44 380.745 646.65 378.705 646.65 376.655V376.52ZM649.44 385.04V386H637.2V385.04H642V380.225H643.125V385.04H649.44ZM664.769 381.47H655.874V375.32H657.014V380.495H664.769V381.47ZM666.359 385.025V386H654.119V385.025H666.359ZM677.723 379.895H675.713V378.98H677.723V377.255H675.713V376.325H677.723V374.465H678.833V381.98H677.723V379.895ZM668.258 381.23L667.463 380.57C668.193 380.06 668.758 379.61 669.158 379.22C669.568 378.83 669.863 378.435 670.043 378.035C670.223 377.625 670.313 377.165 670.313 376.655V376.1H667.943V375.17H671.378V376.52C671.378 377.19 671.273 377.775 671.063 378.275C670.863 378.775 670.543 379.25 670.103 379.7C669.663 380.15 669.048 380.66 668.258 381.23ZM674.138 376.1H672.038V375.17H675.203V376.715C675.203 377.475 675.103 378.13 674.903 378.68C674.713 379.23 674.408 379.745 673.988 380.225C673.568 380.695 672.968 381.235 672.188 381.845L671.378 381.185C672.088 380.645 672.638 380.165 673.028 379.745C673.418 379.315 673.698 378.875 673.868 378.425C674.048 377.965 674.138 377.435 674.138 376.835V376.1ZM680.033 387.275L679.283 388.055L677.078 385.895C677.008 385.825 676.938 385.79 676.868 385.79C676.828 385.79 676.783 385.805 676.733 385.835C676.503 386.175 676.203 386.53 675.833 386.9C675.463 387.28 674.988 387.715 674.408 388.205L672.113 385.85C672.043 385.78 671.973 385.745 671.903 385.745C671.843 385.745 671.788 385.775 671.738 385.835C671.508 386.175 671.213 386.525 670.853 386.885C670.503 387.255 670.053 387.68 669.503 388.16L668.768 387.395C669.438 386.835 669.963 386.34 670.343 385.91C670.723 385.48 670.998 385.05 671.168 384.62C671.338 384.18 671.423 383.695 671.423 383.165V382.685H672.488V383.21C672.488 384.02 672.338 384.725 672.038 385.325L672.098 385.355L672.278 385.22C672.388 385.14 672.488 385.1 672.578 385.1C672.698 385.1 672.803 385.145 672.893 385.235L674.483 386.825C675.203 386.175 675.698 385.595 675.968 385.085C676.238 384.565 676.373 383.93 676.373 383.18V382.685H677.438V383.24C677.438 383.68 677.403 384.07 677.333 384.41C677.263 384.75 677.153 385.075 677.003 385.385L677.063 385.415L677.243 385.265C677.333 385.185 677.443 385.145 677.573 385.145C677.693 385.145 677.793 385.18 677.873 385.25L680.033 387.275ZM693.497 380.555H691.337V387.515H690.197V374.495H691.337V379.595H693.497V380.555ZM688.622 382.685L688.772 383.6C687.242 383.91 685.332 384.065 683.042 384.065H681.452V375.53H687.437V376.49H682.592V383.12H683.027C685.227 383.12 687.092 382.975 688.622 382.685ZM695.711 386.18C695.391 386.18 695.156 386.1 695.006 385.94C694.866 385.78 694.796 385.57 694.796 385.31V385.115C694.796 384.855 694.866 384.645 695.006 384.485C695.156 384.325 695.391 384.245 695.711 384.245C696.031 384.245 696.261 384.325 696.401 384.485C696.551 384.645 696.626 384.855 696.626 385.115V385.31C696.626 385.57 696.551 385.78 696.401 385.94C696.261 386.1 696.031 386.18 695.711 386.18Z" fill="black"/>
<defs>
<linearGradient id="paint0_linear_237_240" x1="498" y1="1.16893e-07" x2="496.626" y2="707.998" gradientUnits="userSpaceOnUse">
<stop stop-color="#EDE6DB" stop-opacity="0"/>
<stop offset="0.61157" stop-color="#EDE6DB"/>
</linearGradient>
</defs>
</svg>
