<svg width="88" height="436" viewBox="0 0 88 436" fill="none" xmlns="http://www.w3.org/2000/svg">
<path d="M17 125.85L51.9 125.85L51.9 149L45.15 149L45.15 133.45L38 133.45L38 146.7L31.3 146.7L31.3 133.45L17 133.45L17 125.85ZM17 155.098L51.9 155.098L51.9 162.698L23.75 162.698L23.75 175.998L17 175.998L17 155.098ZM16.4 193.61C16.4 191.31 16.7833 189.21 17.55 187.31C18.3167 185.41 19.45 183.793 20.95 182.46C22.4833 181.126 24.3667 180.093 26.6 179.36C28.8667 178.626 31.4833 178.26 34.45 178.26C37.4167 178.26 40.0167 178.626 42.25 179.36C44.5167 180.093 46.4 181.126 47.9 182.46C49.4333 183.793 50.5833 185.41 51.35 187.31C52.1167 189.21 52.5 191.31 52.5 193.61C52.5 195.91 52.1167 198.01 51.35 199.91C50.5833 201.81 49.4333 203.426 47.9 204.76C46.4 206.093 44.5167 207.126 42.25 207.86C40.0167 208.593 37.4167 208.96 34.45 208.96C31.4833 208.96 28.8667 208.593 26.6 207.86C24.3667 207.126 22.4833 206.093 20.95 204.76C19.45 203.426 18.3167 201.81 17.55 199.91C16.7833 198.01 16.4 195.91 16.4 193.61ZM23.15 193.61C23.15 195.91 23.9 197.693 25.4 198.96C26.9 200.26 29.05 200.91 31.85 200.91L37.05 200.91C39.85 200.91 42 200.26 43.5 198.96C45 197.693 45.75 195.91 45.75 193.61C45.75 191.31 45 189.51 43.5 188.21C42 186.943 39.85 186.31 37.05 186.31L31.85 186.31C29.05 186.31 26.9 186.943 25.4 188.21C23.9 189.51 23.15 191.31 23.15 193.61ZM17 219.631L51.9 211.731L51.9 219.231L35.15 222.531L25.45 224.381L25.45 224.531L35.15 226.731L51.9 230.581L51.9 238.881L35.15 242.781L25.45 244.931L25.45 245.081L35.15 246.931L51.9 250.281L51.9 257.481L17 249.381L17 240.731L35.9 236.331L43.55 234.631L43.55 234.481L35.9 232.731L17 228.331L17 219.631ZM16.4 288.68C16.4 286.314 16.7667 284.18 17.5 282.28C18.2667 280.38 19.3833 278.764 20.85 277.43C22.35 276.097 24.2 275.064 26.4 274.33C28.6333 273.597 31.2333 273.23 34.2 273.23C37.1333 273.23 39.7333 273.597 42 274.33C44.3 275.064 46.2167 276.097 47.75 277.43C49.3167 278.764 50.5 280.38 51.3 282.28C52.1 284.18 52.5 286.314 52.5 288.68C52.5 291.914 51.8333 294.58 50.5 296.68C49.2 298.78 47.1333 300.464 44.3 301.73L40.9 295.18C42.3667 294.714 43.5333 293.98 44.4 292.98C45.3 292.014 45.75 290.58 45.75 288.68C45.75 286.447 45.0167 284.647 43.55 283.28C42.1167 281.947 40.0167 281.28 37.25 281.28L31.65 281.28C28.8833 281.28 26.7667 281.947 25.3 283.28C23.8667 284.647 23.15 286.447 23.15 288.68C23.15 290.547 23.65 292.03 24.65 293.13C25.6833 294.264 26.9167 295.097 28.35 295.63L24.75 301.83C22.0833 300.53 20.0167 298.814 18.55 296.68C17.1167 294.58 16.4 291.914 16.4 288.68ZM31.3 328.049L31.3 314.749L17 314.749L17 307.149L51.9 307.149L51.9 314.749L38 314.749L38 328.049L51.9 328.049L51.9 335.649L17 335.649L17 328.049L31.3 328.049ZM17 364.83L25.3 362.33L25.3 350.68L17 348.18L17 340.48L51.9 351.98L51.9 361.38L17 372.73L17 364.83ZM45 356.58L45 356.33L31.75 352.48L31.75 360.48L45 356.58ZM17 385.159L17 377.559L51.9 377.559L51.9 394.109C51.9 395.709 51.6333 397.159 51.1 398.459C50.5667 399.759 49.8 400.859 48.8 401.759C47.8333 402.692 46.6667 403.409 45.3 403.909C43.9333 404.409 42.4167 404.659 40.75 404.659C38.3833 404.659 36.3167 404.126 34.55 403.059C32.7833 402.026 31.5 400.442 30.7 398.309L17 405.159L17 396.709L29.8 390.609L29.8 385.159L17 385.159ZM36.2 393.159C36.2 394.292 36.4833 395.176 37.05 395.809C37.65 396.476 38.5167 396.809 39.65 396.809L41.85 396.809C42.9833 396.809 43.8333 396.476 44.4 395.809C45 395.176 45.3 394.292 45.3 393.159L45.3 385.159L36.2 385.159L36.2 393.159ZM45.15 424.58L17 424.58L17 416.98L45.15 416.98L45.15 407.53L51.9 407.53L51.9 434.03L45.15 434.03L45.15 424.58Z" fill="white"/>
<rect x="88" width="167" height="20" transform="rotate(90 88 0)" fill="white"/>
</svg>
