<svg width="620" height="143" viewBox="0 0 620 143" fill="none" xmlns="http://www.w3.org/2000/svg">
<path d="M290.004 51V16.1L297.604 16.1V44.25L310.904 44.25V51L290.004 51ZM328.516 51.6C326.216 51.6 324.116 51.2167 322.216 50.45C320.316 49.6833 318.699 48.55 317.366 47.05C316.033 45.5167 314.999 43.6333 314.266 41.4C313.533 39.1333 313.166 36.5167 313.166 33.55C313.166 30.5833 313.533 27.9833 314.266 25.75C314.999 23.4833 316.033 21.6 317.366 20.1C318.699 18.5667 320.316 17.4167 322.216 16.65C324.116 15.8833 326.216 15.5 328.516 15.5C330.816 15.5 332.916 15.8833 334.816 16.65C336.716 17.4167 338.333 18.5667 339.666 20.1C340.999 21.6 342.033 23.4833 342.766 25.75C343.499 27.9833 343.866 30.5833 343.866 33.55C343.866 36.5167 343.499 39.1333 342.766 41.4C342.033 43.6333 340.999 45.5167 339.666 47.05C338.333 48.55 336.716 49.6833 334.816 50.45C332.916 51.2167 330.816 51.6 328.516 51.6ZM328.516 44.85C330.816 44.85 332.599 44.1 333.866 42.6C335.166 41.1 335.816 38.95 335.816 36.15V30.95C335.816 28.15 335.166 26 333.866 24.5C332.599 23 330.816 22.25 328.516 22.25C326.216 22.25 324.416 23 323.116 24.5C321.849 26 321.216 28.15 321.216 30.95V36.15C321.216 38.95 321.849 41.1 323.116 42.6C324.416 44.1 326.216 44.85 328.516 44.85ZM372.359 45.45H372.109C371.843 47.2167 370.943 48.6833 369.409 49.85C367.876 51.0167 365.793 51.6 363.159 51.6C361.159 51.6 359.293 51.2167 357.559 50.45C355.826 49.6833 354.309 48.55 353.009 47.05C351.709 45.55 350.693 43.6833 349.959 41.45C349.226 39.2167 348.859 36.6333 348.859 33.7C348.859 30.7667 349.243 28.1667 350.009 25.9C350.776 23.6333 351.843 21.7333 353.209 20.2C354.609 18.6667 356.276 17.5 358.209 16.7C360.143 15.9 362.293 15.5 364.659 15.5C367.793 15.5 370.493 16.1833 372.759 17.55C375.026 18.8833 376.809 20.9 378.109 23.6L371.909 27.15C371.376 25.7833 370.543 24.6333 369.409 23.7C368.276 22.7333 366.693 22.25 364.659 22.25C362.293 22.25 360.409 22.9333 359.009 24.3C357.609 25.6667 356.909 27.8167 356.909 30.75V36.35C356.909 39.25 357.609 41.4 359.009 42.8C360.409 44.1667 362.293 44.85 364.659 44.85C365.593 44.85 366.476 44.75 367.309 44.55C368.143 44.3167 368.876 43.9833 369.509 43.55C370.143 43.0833 370.626 42.5333 370.959 41.9C371.326 41.2667 371.509 40.5167 371.509 39.65V37.9H365.009V31.55H378.759V51H372.359V45.45ZM400.147 51.6C397.847 51.6 395.747 51.2167 393.847 50.45C391.947 49.6833 390.33 48.55 388.997 47.05C387.664 45.5167 386.63 43.6333 385.897 41.4C385.164 39.1333 384.797 36.5167 384.797 33.55C384.797 30.5833 385.164 27.9833 385.897 25.75C386.63 23.4833 387.664 21.6 388.997 20.1C390.33 18.5667 391.947 17.4167 393.847 16.65C395.747 15.8833 397.847 15.5 400.147 15.5C402.447 15.5 404.547 15.8833 406.447 16.65C408.347 17.4167 409.964 18.5667 411.297 20.1C412.63 21.6 413.664 23.4833 414.397 25.75C415.13 27.9833 415.497 30.5833 415.497 33.55C415.497 36.5167 415.13 39.1333 414.397 41.4C413.664 43.6333 412.63 45.5167 411.297 47.05C409.964 48.55 408.347 49.6833 406.447 50.45C404.547 51.2167 402.447 51.6 400.147 51.6ZM400.147 44.85C402.447 44.85 404.23 44.1 405.497 42.6C406.797 41.1 407.447 38.95 407.447 36.15V30.95C407.447 28.15 406.797 26 405.497 24.5C404.23 23 402.447 22.25 400.147 22.25C397.847 22.25 396.047 23 394.747 24.5C393.48 26 392.847 28.15 392.847 30.95V36.15C392.847 38.95 393.48 41.1 394.747 42.6C396.047 44.1 397.847 44.85 400.147 44.85ZM444.957 51.6C441.89 51.6 439.29 51.0833 437.157 50.05C435.023 48.9833 433.207 47.6167 431.707 45.95L436.707 40.9C439.073 43.5667 441.99 44.9 445.457 44.9C447.323 44.9 448.707 44.5167 449.607 43.75C450.507 42.9833 450.957 41.9667 450.957 40.7C450.957 39.7333 450.69 38.9333 450.157 38.3C449.623 37.6333 448.54 37.1833 446.907 36.95L443.457 36.5C439.757 36.0333 437.04 34.9167 435.307 33.15C433.607 31.3833 432.757 29.0333 432.757 26.1C432.757 24.5333 433.057 23.1 433.657 21.8C434.257 20.5 435.107 19.3833 436.207 18.45C437.34 17.5167 438.707 16.8 440.307 16.3C441.94 15.7667 443.79 15.5 445.857 15.5C448.49 15.5 450.807 15.9167 452.807 16.75C454.807 17.5833 456.523 18.8 457.957 20.4L452.907 25.5C452.073 24.5333 451.057 23.75 449.857 23.15C448.69 22.5167 447.207 22.2 445.407 22.2C443.707 22.2 442.44 22.5 441.607 23.1C440.773 23.7 440.357 24.5333 440.357 25.6C440.357 26.8 440.673 27.6667 441.307 28.2C441.973 28.7333 443.04 29.1167 444.507 29.35L447.957 29.9C451.557 30.4667 454.223 31.5833 455.957 33.25C457.69 34.8833 458.557 37.2167 458.557 40.25C458.557 41.9167 458.257 43.45 457.657 44.85C457.057 46.25 456.173 47.45 455.007 48.45C453.873 49.45 452.457 50.2333 450.757 50.8C449.057 51.3333 447.123 51.6 444.957 51.6ZM471.406 51V37.35L459.456 16.1H467.956L475.456 30H475.556L482.756 16.1H491.006L479.056 37.3V51H471.406ZM504.429 51.6C501.363 51.6 498.763 51.0833 496.629 50.05C494.496 48.9833 492.679 47.6167 491.179 45.95L496.179 40.9C498.546 43.5667 501.463 44.9 504.929 44.9C506.796 44.9 508.179 44.5167 509.079 43.75C509.979 42.9833 510.429 41.9667 510.429 40.7C510.429 39.7333 510.163 38.9333 509.629 38.3C509.096 37.6333 508.013 37.1833 506.379 36.95L502.929 36.5C499.229 36.0333 496.513 34.9167 494.779 33.15C493.079 31.3833 492.229 29.0333 492.229 26.1C492.229 24.5333 492.529 23.1 493.129 21.8C493.729 20.5 494.579 19.3833 495.679 18.45C496.813 17.5167 498.179 16.8 499.779 16.3C501.413 15.7667 503.263 15.5 505.329 15.5C507.963 15.5 510.279 15.9167 512.279 16.75C514.279 17.5833 515.996 18.8 517.429 20.4L512.379 25.5C511.546 24.5333 510.529 23.75 509.329 23.15C508.163 22.5167 506.679 22.2 504.879 22.2C503.179 22.2 501.913 22.5 501.079 23.1C500.246 23.7 499.829 24.5333 499.829 25.6C499.829 26.8 500.146 27.6667 500.779 28.2C501.446 28.7333 502.513 29.1167 503.979 29.35L507.429 29.9C511.029 30.4667 513.696 31.5833 515.429 33.25C517.163 34.8833 518.029 37.2167 518.029 40.25C518.029 41.9167 517.729 43.45 517.129 44.85C516.529 46.25 515.646 47.45 514.479 48.45C513.346 49.45 511.929 50.2333 510.229 50.8C508.529 51.3333 506.596 51.6 504.429 51.6ZM537.709 22.85V51H530.109V22.85H520.659V16.1L547.159 16.1V22.85L537.709 22.85ZM552.358 51V16.1L576.108 16.1V22.85L559.958 22.85V30L573.808 30V36.7L559.958 36.7V44.25L576.108 44.25V51L552.358 51ZM608.829 28.1H608.679L606.129 33.2L599.329 45.55L592.679 33.25L590.029 27.75H589.879V51H582.729V16.1L590.779 16.1L599.329 32.45H599.429L607.879 16.1H615.979V51H608.829V28.1Z" fill="#EDE6DB" fill-opacity="0.5"/>
<path d="M12.81 81.605V82.58H0.57V81.605H6.12V80.255C4.82 80.195 3.835 79.91 3.165 79.4C2.505 78.88 2.175 78.23 2.175 77.45C2.175 76.91 2.34 76.43 2.67 76.01C3 75.59 3.5 75.26 4.17 75.02C4.85 74.77 5.69 74.645 6.69 74.645C7.69 74.645 8.525 74.77 9.195 75.02C9.875 75.26 10.38 75.59 10.71 76.01C11.04 76.43 11.205 76.91 11.205 77.45C11.205 78.23 10.87 78.88 10.2 79.4C9.54 79.91 8.56 80.195 7.26 80.255V81.605H12.81ZM6.69 79.37C7.79 79.37 8.615 79.2 9.165 78.86C9.715 78.52 9.99 78.09 9.99 77.57V77.33C9.99 76.81 9.715 76.38 9.165 76.04C8.615 75.7 7.79 75.53 6.69 75.53C5.59 75.53 4.765 75.7 4.215 76.04C3.665 76.38 3.39 76.81 3.39 77.33V77.57C3.39 78.09 3.665 78.52 4.215 78.86C4.765 79.2 5.59 79.37 6.69 79.37ZM3.465 86.795H11.235V87.755H3.09C2.85 87.755 2.665 87.69 2.535 87.56C2.405 87.43 2.34 87.24 2.34 86.99V83.78H3.465V86.795ZM26.184 81.755V82.685H13.944V81.755H19.509V80.345H15.804V74.735H24.309V75.635H16.899V77.105H24.084V77.975H16.914V79.445H24.549V80.345H20.634V81.755H26.184ZM24.504 86C24.504 86.71 24.124 87.275 23.364 87.695C22.604 88.115 21.504 88.325 20.064 88.325C18.624 88.325 17.524 88.115 16.764 87.695C16.004 87.275 15.624 86.71 15.624 86C15.624 85.3 16.004 84.74 16.764 84.32C17.524 83.89 18.624 83.675 20.064 83.675C21.504 83.675 22.604 83.89 23.364 84.32C24.124 84.74 24.504 85.3 24.504 86ZM23.304 85.91C23.304 85.52 23.034 85.195 22.494 84.935C21.964 84.675 21.154 84.545 20.064 84.545C18.984 84.545 18.169 84.675 17.619 84.935C17.079 85.195 16.809 85.52 16.809 85.91V86.09C16.809 86.48 17.079 86.805 17.619 87.065C18.169 87.325 18.984 87.455 20.064 87.455C21.154 87.455 21.964 87.325 22.494 87.065C23.034 86.805 23.304 86.48 23.304 86.09V85.91ZM38.883 74.465V87.485H37.773V80.495H35.718V87.125H34.623V74.69H35.718V79.55H37.773V74.465H38.883ZM33.483 82.7L33.633 83.6C32.423 83.91 30.928 84.065 29.148 84.065H27.918V75.8H32.763V76.76H29.013V83.12H29.418C31.058 83.12 32.413 82.98 33.483 82.7ZM50.7871 78.005V74.465H51.9271V84.35H50.7871V78.965H48.0571V78.005H50.7871ZM44.7871 79.415C44.7171 79.415 44.6521 79.445 44.5921 79.505C44.3221 79.925 43.9771 80.36 43.5571 80.81C43.1371 81.25 42.5771 81.79 41.8771 82.43L41.0221 81.695C41.8621 80.975 42.5121 80.355 42.9721 79.835C43.4321 79.305 43.7621 78.785 43.9621 78.275C44.1721 77.755 44.2771 77.175 44.2771 76.535V76.385H41.4121V75.44H48.2521V76.385H45.4171V76.595C45.4171 77.485 45.2421 78.28 44.8921 78.98L44.9821 79.025L45.2071 78.845C45.3171 78.765 45.4221 78.725 45.5221 78.725C45.6421 78.725 45.7621 78.775 45.8821 78.875L48.6871 81.425L47.8471 82.16L45.0121 79.505C44.9521 79.445 44.8771 79.415 44.7871 79.415ZM52.1971 86.825V87.77H44.3371C44.0971 87.77 43.9121 87.705 43.7821 87.575C43.6521 87.445 43.5871 87.255 43.5871 87.005V83.45H44.7421V86.825H52.1971ZM58.046 80.42V79.4H65.036V80.42H58.046ZM58.046 83.42V82.4H65.036V83.42H58.046ZM74.8901 86.18C74.2101 86.18 73.5951 86.065 73.0451 85.835C72.5051 85.595 72.0401 85.25 71.6501 84.8C71.2701 84.34 70.9751 83.775 70.7651 83.105C70.5551 82.425 70.4501 81.645 70.4501 80.765C70.4501 79.885 70.5551 79.11 70.7651 78.44C70.9751 77.77 71.2701 77.205 71.6501 76.745C72.0401 76.285 72.5051 75.94 73.0451 75.71C73.5951 75.47 74.2101 75.35 74.8901 75.35C75.5601 75.35 76.1701 75.47 76.7201 75.71C77.2701 75.94 77.7351 76.285 78.1151 76.745C78.5051 77.205 78.8051 77.77 79.0151 78.44C79.2251 79.11 79.3301 79.885 79.3301 80.765C79.3301 81.645 79.2251 82.425 79.0151 83.105C78.8051 83.775 78.5051 84.34 78.1151 84.8C77.7351 85.25 77.2701 85.595 76.7201 85.835C76.1701 86.065 75.5601 86.18 74.8901 86.18ZM74.8901 85.055C75.3401 85.055 75.7551 84.975 76.1351 84.815C76.5151 84.655 76.8401 84.425 77.1101 84.125C77.3901 83.825 77.6051 83.465 77.7551 83.045C77.9051 82.625 77.9801 82.155 77.9801 81.635V79.895C77.9801 79.375 77.9051 78.905 77.7551 78.485C77.6051 78.065 77.3901 77.705 77.1101 77.405C76.8401 77.105 76.5151 76.875 76.1351 76.715C75.7551 76.555 75.3401 76.475 74.8901 76.475C74.4401 76.475 74.0251 76.555 73.6451 76.715C73.2651 76.875 72.9351 77.105 72.6551 77.405C72.3851 77.705 72.1751 78.065 72.0251 78.485C71.8751 78.905 71.8001 79.375 71.8001 79.895V81.635C71.8001 82.155 71.8751 82.625 72.0251 83.045C72.1751 83.465 72.3851 83.825 72.6551 84.125C72.9351 84.425 73.2651 84.655 73.6451 84.815C74.0251 84.975 74.4401 85.055 74.8901 85.055ZM84.1302 79.61L82.8702 77.285H82.8252V86H81.5952V75.53H83.0502L86.8752 81.92L88.1352 84.245H88.1802V75.53H89.4102V86H87.9552L84.1302 79.61ZM94.6757 79.325H91.4207V80.375H93.6107V84.635H94.6757V79.325ZM94.6757 84.185H93.7007C92.9057 84.83 91.9757 85.505 91.2257 85.97L91.7807 87.08C92.6357 86.435 93.4457 85.775 94.2107 85.13C95.1407 86.315 96.5057 86.84 98.4707 86.915C100.151 86.99 103.361 86.96 105.026 86.885C105.086 86.555 105.251 86.03 105.386 85.775C103.586 85.895 100.121 85.94 98.4707 85.865C96.7007 85.805 95.4107 85.295 94.6757 84.185ZM91.6757 74.45C92.6207 75.155 93.7157 76.22 94.1807 76.955L95.0357 76.175C94.5407 75.44 93.4157 74.42 92.4557 73.745L91.6757 74.45ZM97.6757 75.92C99.1307 76.475 100.991 77.33 101.936 77.915L102.701 77.21C101.696 76.61 99.8057 75.785 98.3957 75.29L97.6757 75.92ZM96.2507 77.18V84.95H97.3157V78.05H104.006V77.18H96.2507ZM103.466 77.18V83.81C103.466 84.005 103.421 84.065 103.226 84.065C103.031 84.065 102.401 84.08 101.696 84.05C101.831 84.305 101.966 84.695 102.011 84.98C103.016 84.98 103.646 84.98 104.036 84.8C104.441 84.635 104.546 84.38 104.546 83.825V77.18H103.466ZM96.2507 74.03V74.93H103.736V74.03H96.2507ZM96.8357 79.37V80.21H103.901V79.37H96.8357ZM96.8357 81.575V82.445H103.901V81.575H96.8357ZM99.8357 77.54V84.89H100.856V77.54H99.8357ZM103.361 74.03V74.24C102.686 74.945 101.291 75.815 100.061 76.295C100.226 76.46 100.511 76.76 100.661 76.955C102.026 76.385 103.541 75.455 104.546 74.51L103.856 73.97L103.616 74.03H103.361ZM107.051 81.32C107.051 80.6 107.121 79.905 107.261 79.235C107.401 78.565 107.591 77.945 107.831 77.375C108.081 76.795 108.371 76.27 108.701 75.8C109.031 75.33 109.386 74.93 109.766 74.6H110.906C110.486 74.98 110.106 75.41 109.766 75.89C109.436 76.37 109.151 76.88 108.911 77.42C108.681 77.96 108.501 78.51 108.371 79.07C108.241 79.63 108.176 80.17 108.176 80.69V81.98C108.176 82.51 108.241 83.055 108.371 83.615C108.501 84.175 108.686 84.725 108.926 85.265C109.166 85.805 109.451 86.315 109.781 86.795C110.121 87.275 110.496 87.695 110.906 88.055H109.766C109.396 87.745 109.046 87.355 108.716 86.885C108.386 86.415 108.096 85.89 107.846 85.31C107.606 84.73 107.411 84.105 107.261 83.435C107.121 82.755 107.051 82.05 107.051 81.32ZM123.64 81.755V82.685H111.4V81.755H116.965V80.345H113.26V74.735H121.765V75.635H114.355V77.105H121.54V77.975H114.37V79.445H122.005V80.345H118.09V81.755H123.64ZM121.96 86C121.96 86.71 121.58 87.275 120.82 87.695C120.06 88.115 118.96 88.325 117.52 88.325C116.08 88.325 114.98 88.115 114.22 87.695C113.46 87.275 113.08 86.71 113.08 86C113.08 85.3 113.46 84.74 114.22 84.32C114.98 83.89 116.08 83.675 117.52 83.675C118.96 83.675 120.06 83.89 120.82 84.32C121.58 84.74 121.96 85.3 121.96 86ZM120.76 85.91C120.76 85.52 120.49 85.195 119.95 84.935C119.42 84.675 118.61 84.545 117.52 84.545C116.44 84.545 115.625 84.675 115.075 84.935C114.535 85.195 114.265 85.52 114.265 85.91V86.09C114.265 86.48 114.535 86.805 115.075 87.065C115.625 87.325 116.44 87.455 117.52 87.455C118.61 87.455 119.42 87.325 119.95 87.065C120.49 86.805 120.76 86.48 120.76 86.09V85.91ZM137.419 77.825V78.785H135.334V81.815H134.194V74.465H135.334V77.825H137.419ZM130.759 75.62H126.754V74.705H130.759V75.62ZM128.659 81.605C127.719 81.605 126.964 81.425 126.394 81.065C125.834 80.695 125.554 80.21 125.554 79.61C125.554 78.83 125.964 78.285 126.784 77.975V77.885H124.564V77H132.694V77.885H130.534V77.975C131.354 78.285 131.764 78.83 131.764 79.61C131.764 80.21 131.479 80.695 130.909 81.065C130.349 81.425 129.599 81.605 128.659 81.605ZM128.479 80.69H128.839C129.389 80.69 129.839 80.57 130.189 80.33C130.539 80.09 130.714 79.755 130.714 79.325C130.714 78.895 130.539 78.56 130.189 78.32C129.849 78.08 129.399 77.96 128.839 77.96H128.479C127.919 77.96 127.464 78.08 127.114 78.32C126.774 78.56 126.604 78.895 126.604 79.325C126.604 79.755 126.779 80.09 127.129 80.33C127.479 80.57 127.929 80.69 128.479 80.69ZM128.179 87.17H135.694V88.1H127.819C127.579 88.1 127.394 88.035 127.264 87.905C127.134 87.775 127.069 87.585 127.069 87.335V84.89H134.224V83.51H126.979V82.595H135.334V85.79H128.179V87.17ZM153.933 81.755V82.685H141.693V81.755H147.258V80.345H143.553V74.735H152.058V75.635H144.648V77.105H151.833V77.975H144.663V79.445H152.298V80.345H148.383V81.755H153.933ZM152.253 86C152.253 86.71 151.873 87.275 151.113 87.695C150.353 88.115 149.253 88.325 147.813 88.325C146.373 88.325 145.273 88.115 144.513 87.695C143.753 87.275 143.373 86.71 143.373 86C143.373 85.3 143.753 84.74 144.513 84.32C145.273 83.89 146.373 83.675 147.813 83.675C149.253 83.675 150.353 83.89 151.113 84.32C151.873 84.74 152.253 85.3 152.253 86ZM151.053 85.91C151.053 85.52 150.783 85.195 150.243 84.935C149.713 84.675 148.903 84.545 147.813 84.545C146.733 84.545 145.918 84.675 145.368 84.935C144.828 85.195 144.558 85.52 144.558 85.91V86.09C144.558 86.48 144.828 86.805 145.368 87.065C145.918 87.325 146.733 87.455 147.813 87.455C148.903 87.455 149.713 87.325 150.243 87.065C150.783 86.805 151.053 86.48 151.053 86.09V85.91ZM158.277 81.32C158.277 82.05 158.202 82.755 158.052 83.435C157.912 84.105 157.717 84.73 157.467 85.31C157.227 85.89 156.942 86.415 156.612 86.885C156.282 87.355 155.932 87.745 155.562 88.055H154.422C154.832 87.695 155.202 87.275 155.532 86.795C155.872 86.315 156.162 85.805 156.402 85.265C156.642 84.725 156.827 84.175 156.957 83.615C157.087 83.055 157.152 82.51 157.152 81.98V80.69C157.152 80.17 157.087 79.63 156.957 79.07C156.827 78.51 156.642 77.96 156.402 77.42C156.172 76.88 155.887 76.37 155.547 75.89C155.217 75.41 154.842 74.98 154.422 74.6H155.562C155.942 74.93 156.297 75.33 156.627 75.8C156.957 76.27 157.242 76.795 157.482 77.375C157.732 77.945 157.927 78.565 158.067 79.235C158.207 79.905 158.277 80.6 158.277 81.32ZM171.656 74.465V87.485H170.546V80.495H168.491V87.125H167.396V74.69H168.491V79.55H170.546V74.465H171.656ZM166.256 82.7L166.406 83.6C165.196 83.91 163.701 84.065 161.921 84.065H160.691V75.8H165.536V76.76H161.786V83.12H162.191C163.831 83.12 165.186 82.98 166.256 82.7ZM183.561 78.005V74.465H184.701V84.35H183.561V78.965H180.831V78.005H183.561ZM177.561 79.415C177.491 79.415 177.426 79.445 177.366 79.505C177.096 79.925 176.751 80.36 176.331 80.81C175.911 81.25 175.351 81.79 174.651 82.43L173.796 81.695C174.636 80.975 175.286 80.355 175.746 79.835C176.206 79.305 176.536 78.785 176.736 78.275C176.946 77.755 177.051 77.175 177.051 76.535V76.385H174.186V75.44H181.026V76.385H178.191V76.595C178.191 77.485 178.016 78.28 177.666 78.98L177.756 79.025L177.981 78.845C178.091 78.765 178.196 78.725 178.296 78.725C178.416 78.725 178.536 78.775 178.656 78.875L181.461 81.425L180.621 82.16L177.786 79.505C177.726 79.445 177.651 79.415 177.561 79.415ZM184.971 86.825V87.77H177.111C176.871 87.77 176.686 87.705 176.556 87.575C176.426 87.445 176.361 87.255 176.361 87.005V83.45H177.516V86.825H184.971Z" fill="#999999"/>
<path d="M2.15822 103.65C1.83822 103.65 1.60322 103.57 1.45322 103.41C1.31322 103.24 1.24322 103.025 1.24322 102.765V102.555C1.24322 102.145 1.36322 101.695 1.60322 101.205C1.84322 100.705 2.17822 100.27 2.60822 99.9H3.61322C3.31322 100.22 3.06822 100.525 2.87822 100.815C2.69822 101.095 2.56822 101.41 2.48822 101.76C2.68822 101.81 2.83322 101.905 2.92322 102.045C3.02322 102.185 3.07322 102.355 3.07322 102.555V102.765C3.07322 103.025 2.99822 103.24 2.84822 103.41C2.70822 103.57 2.47822 103.65 2.15822 103.65ZM17.0898 106.605V107.58H4.84979V106.605H10.3998V105.255C9.09979 105.195 8.11479 104.91 7.44479 104.4C6.78479 103.88 6.45479 103.23 6.45479 102.45C6.45479 101.91 6.61979 101.43 6.94979 101.01C7.27979 100.59 7.77979 100.26 8.44979 100.02C9.12979 99.77 9.96979 99.645 10.9698 99.645C11.9698 99.645 12.8048 99.77 13.4748 100.02C14.1548 100.26 14.6598 100.59 14.9898 101.01C15.3198 101.43 15.4848 101.91 15.4848 102.45C15.4848 103.23 15.1498 103.88 14.4798 104.4C13.8198 104.91 12.8398 105.195 11.5398 105.255V106.605H17.0898ZM10.9698 104.37C12.0698 104.37 12.8948 104.2 13.4448 103.86C13.9948 103.52 14.2698 103.09 14.2698 102.57V102.33C14.2698 101.81 13.9948 101.38 13.4448 101.04C12.8948 100.7 12.0698 100.53 10.9698 100.53C9.86979 100.53 9.04479 100.7 8.49479 101.04C7.94479 101.38 7.66979 101.81 7.66979 102.33V102.57C7.66979 103.09 7.94479 103.52 8.49479 103.86C9.04479 104.2 9.86979 104.37 10.9698 104.37ZM7.74479 111.795H15.5148V112.755H7.36979C7.12979 112.755 6.94479 112.69 6.81479 112.56C6.68479 112.43 6.61979 112.24 6.61979 111.99V108.78H7.74479V111.795ZM30.4638 106.755V107.685H18.2238V106.755H23.7888V105.345H20.0838V99.735H28.5888V100.635H21.1788V102.105H28.3638V102.975H21.1938V104.445H28.8288V105.345H24.9138V106.755H30.4638ZM28.7838 111C28.7838 111.71 28.4038 112.275 27.6438 112.695C26.8838 113.115 25.7838 113.325 24.3438 113.325C22.9038 113.325 21.8038 113.115 21.0438 112.695C20.2838 112.275 19.9038 111.71 19.9038 111C19.9038 110.3 20.2838 109.74 21.0438 109.32C21.8038 108.89 22.9038 108.675 24.3438 108.675C25.7838 108.675 26.8838 108.89 27.6438 109.32C28.4038 109.74 28.7838 110.3 28.7838 111ZM27.5838 110.91C27.5838 110.52 27.3138 110.195 26.7738 109.935C26.2438 109.675 25.4338 109.545 24.3438 109.545C23.2638 109.545 22.4488 109.675 21.8988 109.935C21.3588 110.195 21.0888 110.52 21.0888 110.91V111.09C21.0888 111.48 21.3588 111.805 21.8988 112.065C22.4488 112.325 23.2638 112.455 24.3438 112.455C25.4338 112.455 26.2438 112.325 26.7738 112.065C27.3138 111.805 27.5838 111.48 27.5838 111.09V110.91ZM43.1628 99.465V112.485H42.0528V105.495H39.9978V112.125H38.9028V99.69H39.9978V104.55H42.0528V99.465H43.1628ZM37.7628 107.7L37.9128 108.6C36.7028 108.91 35.2078 109.065 33.4278 109.065H32.1978V100.8H37.0428V101.76H33.2928V108.12H33.6978C35.3378 108.12 36.6928 107.98 37.7628 107.7ZM55.0669 103.005V99.465H56.2069V109.35H55.0669V103.965H52.3369V103.005H55.0669ZM49.0669 104.415C48.9969 104.415 48.9319 104.445 48.8719 104.505C48.6019 104.925 48.2569 105.36 47.8369 105.81C47.4169 106.25 46.8569 106.79 46.1569 107.43L45.3019 106.695C46.1419 105.975 46.7919 105.355 47.2519 104.835C47.7119 104.305 48.0419 103.785 48.2419 103.275C48.4519 102.755 48.5569 102.175 48.5569 101.535V101.385H45.6919V100.44H52.5319V101.385H49.6969V101.595C49.6969 102.485 49.5219 103.28 49.1719 103.98L49.2619 104.025L49.4869 103.845C49.5969 103.765 49.7019 103.725 49.8019 103.725C49.9219 103.725 50.0419 103.775 50.1619 103.875L52.9669 106.425L52.1269 107.16L49.2919 104.505C49.2319 104.445 49.1569 104.415 49.0669 104.415ZM56.4769 111.825V112.77H48.6169C48.3769 112.77 48.1919 112.705 48.0619 112.575C47.9319 112.445 47.8669 112.255 47.8669 112.005V108.45H49.0219V111.825H56.4769ZM59.8909 99.75C60.2109 99.75 60.4409 99.835 60.5809 100.005C60.7309 100.165 60.8059 100.375 60.8059 100.635V100.845C60.8059 101.255 60.6859 101.71 60.4459 102.21C60.2059 102.7 59.8709 103.13 59.4409 103.5H58.4359C58.7359 103.18 58.9759 102.88 59.1559 102.6C59.3459 102.31 59.4809 101.99 59.5609 101.64C59.3609 101.59 59.2109 101.495 59.1109 101.355C59.0209 101.215 58.9759 101.045 58.9759 100.845V100.635C58.9759 100.375 59.0459 100.165 59.1859 100.005C59.3359 99.835 59.5709 99.75 59.8909 99.75ZM72.4974 99.465H73.6224V112.485H72.4974V99.465ZM63.1374 103.365C63.1374 102.745 63.2924 102.2 63.6024 101.73C63.9124 101.25 64.3374 100.885 64.8774 100.635C65.4174 100.375 66.0274 100.245 66.7074 100.245C67.3874 100.245 67.9974 100.375 68.5374 100.635C69.0774 100.885 69.5024 101.25 69.8124 101.73C70.1224 102.2 70.2774 102.745 70.2774 103.365C70.2774 103.985 70.1224 104.53 69.8124 105C69.5024 105.47 69.0774 105.835 68.5374 106.095C67.9974 106.345 67.3874 106.47 66.7074 106.47C66.0274 106.47 65.4174 106.345 64.8774 106.095C64.3374 105.835 63.9124 105.47 63.6024 105C63.2924 104.53 63.1374 103.985 63.1374 103.365ZM69.0774 103.545V103.185C69.0774 102.585 68.8574 102.1 68.4174 101.73C67.9774 101.36 67.4074 101.175 66.7074 101.175C66.0074 101.175 65.4374 101.36 64.9974 101.73C64.5574 102.1 64.3374 102.585 64.3374 103.185V103.545C64.3374 104.145 64.5574 104.63 64.9974 105C65.4374 105.37 66.0074 105.555 66.7074 105.555C67.4074 105.555 67.9774 105.37 68.4174 105C68.8574 104.63 69.0774 104.145 69.0774 103.545ZM62.5074 108.78C64.2074 108.78 65.8474 108.74 67.4274 108.66C69.0074 108.58 70.3474 108.455 71.4474 108.285L71.5674 109.2C70.4374 109.38 69.0774 109.52 67.4874 109.62C65.9074 109.71 64.2824 109.755 62.6124 109.755L62.5074 108.78ZM80.7764 103.65C80.4564 103.65 80.2214 103.57 80.0714 103.41C79.9314 103.24 79.8614 103.025 79.8614 102.765V102.555C79.8614 102.145 79.9814 101.695 80.2214 101.205C80.4614 100.705 80.7964 100.27 81.2264 99.9H82.2314C81.9314 100.22 81.6864 100.525 81.4964 100.815C81.3164 101.095 81.1864 101.41 81.1064 101.76C81.3064 101.81 81.4514 101.905 81.5414 102.045C81.6414 102.185 81.6914 102.355 81.6914 102.555V102.765C81.6914 103.025 81.6164 103.24 81.4664 103.41C81.3264 103.57 81.0964 103.65 80.7764 103.65ZM95.7079 106.605V107.58H83.4679V106.605H89.0179V105.255C87.7179 105.195 86.7329 104.91 86.0629 104.4C85.4029 103.88 85.0729 103.23 85.0729 102.45C85.0729 101.91 85.2379 101.43 85.5679 101.01C85.8979 100.59 86.3979 100.26 87.0679 100.02C87.7479 99.77 88.5879 99.645 89.5879 99.645C90.5879 99.645 91.4229 99.77 92.0929 100.02C92.7729 100.26 93.2779 100.59 93.6079 101.01C93.9379 101.43 94.1029 101.91 94.1029 102.45C94.1029 103.23 93.7679 103.88 93.0979 104.4C92.4379 104.91 91.4579 105.195 90.1579 105.255V106.605H95.7079ZM89.5879 104.37C90.6879 104.37 91.5129 104.2 92.0629 103.86C92.6129 103.52 92.8879 103.09 92.8879 102.57V102.33C92.8879 101.81 92.6129 101.38 92.0629 101.04C91.5129 100.7 90.6879 100.53 89.5879 100.53C88.4879 100.53 87.6629 100.7 87.1129 101.04C86.5629 101.38 86.2879 101.81 86.2879 102.33V102.57C86.2879 103.09 86.5629 103.52 87.1129 103.86C87.6629 104.2 88.4879 104.37 89.5879 104.37ZM86.3629 111.795H94.1329V112.755H85.9879C85.7479 112.755 85.5629 112.69 85.4329 112.56C85.3029 112.43 85.2379 112.24 85.2379 111.99V108.78H86.3629V111.795ZM98.387 99.75C98.707 99.75 98.937 99.835 99.077 100.005C99.227 100.165 99.302 100.375 99.302 100.635V100.845C99.302 101.255 99.182 101.71 98.942 102.21C98.702 102.7 98.367 103.13 97.937 103.5H96.932C97.232 103.18 97.472 102.88 97.652 102.6C97.842 102.31 97.977 101.99 98.057 101.64C97.857 101.59 97.707 101.495 97.607 101.355C97.517 101.215 97.472 101.045 97.472 100.845V100.635C97.472 100.375 97.542 100.165 97.682 100.005C97.832 99.835 98.067 99.75 98.387 99.75ZM102.564 101.865C102.564 101.135 102.939 100.555 103.689 100.125C104.439 99.685 105.564 99.465 107.064 99.465C108.564 99.465 109.689 99.685 110.439 100.125C111.189 100.555 111.564 101.135 111.564 101.865C111.564 102.595 111.189 103.18 110.439 103.62C109.689 104.06 108.564 104.28 107.064 104.28C105.564 104.28 104.439 104.06 103.689 103.62C102.939 103.18 102.564 102.595 102.564 101.865ZM110.349 101.94V101.775C110.349 101.345 110.074 100.995 109.524 100.725C108.984 100.445 108.164 100.305 107.064 100.305C105.964 100.305 105.139 100.445 104.589 100.725C104.049 100.995 103.779 101.345 103.779 101.775V101.94C103.779 102.37 104.049 102.725 104.589 103.005C105.139 103.275 105.964 103.41 107.064 103.41C108.164 103.41 108.984 103.275 109.524 103.005C110.074 102.725 110.349 102.37 110.349 101.94ZM113.184 105.315V106.275H100.944V105.315H113.184ZM102.849 112.335V109.875H110.244V108.465H102.759V107.535H111.339V110.745H103.944V112.17H111.729V113.1H103.599C103.359 113.1 103.174 113.035 103.044 112.905C102.914 112.775 102.849 112.585 102.849 112.335ZM119.122 106.965L118.477 106.08C119.837 105.38 120.877 104.76 121.597 104.22C122.327 103.67 122.832 103.125 123.112 102.585C123.392 102.035 123.532 101.405 123.532 100.695V100.185H124.702V100.725C124.702 101.305 124.637 101.825 124.507 102.285C124.387 102.735 124.182 103.16 123.892 103.56L123.967 103.605L124.342 103.32C124.472 103.22 124.602 103.17 124.732 103.17C124.862 103.17 124.992 103.215 125.122 103.305L129.487 106.02L128.827 106.92L124.312 104.01C124.182 103.92 124.042 103.875 123.892 103.875C123.762 103.875 123.632 103.925 123.502 104.025C123.092 104.465 122.537 104.92 121.837 105.39C121.137 105.85 120.232 106.375 119.122 106.965ZM130.102 110.025V111H117.862V110.025H130.102ZM142.412 99.465V112.485H141.287V99.465H142.412ZM132.017 102.645C132.017 102.095 132.167 101.615 132.467 101.205C132.777 100.785 133.202 100.465 133.742 100.245C134.282 100.015 134.892 99.9 135.572 99.9C136.252 99.9 136.857 100.015 137.387 100.245C137.927 100.465 138.347 100.785 138.647 101.205C138.957 101.615 139.112 102.095 139.112 102.645C139.112 103.205 138.957 103.695 138.647 104.115C138.347 104.525 137.927 104.845 137.387 105.075C136.857 105.295 136.252 105.405 135.572 105.405C134.882 105.405 134.267 105.295 133.727 105.075C133.197 104.845 132.777 104.525 132.467 104.115C132.167 103.695 132.017 103.205 132.017 102.645ZM133.187 102.795C133.187 103.305 133.407 103.715 133.847 104.025C134.287 104.335 134.862 104.49 135.572 104.49C136.272 104.49 136.837 104.335 137.267 104.025C137.707 103.715 137.927 103.305 137.927 102.795V102.525C137.927 102.005 137.707 101.59 137.267 101.28C136.837 100.97 136.272 100.815 135.572 100.815C134.862 100.815 134.287 100.97 133.847 101.28C133.407 101.59 133.187 102.005 133.187 102.525V102.795ZM140.312 107.235C139.072 107.425 137.697 107.565 136.187 107.655V112.365H135.047V107.715C133.717 107.765 132.487 107.79 131.357 107.79L131.267 106.83C132.967 106.83 134.607 106.79 136.187 106.71C137.767 106.63 139.107 106.505 140.207 106.335L140.312 107.235ZM155.771 99.465V112.485H154.631V99.465H155.771ZM150.881 101.055H146.816V100.11H150.881V101.055ZM149.471 105.99C149.581 105.99 149.701 106.04 149.831 106.14L152.786 108.96L151.946 109.695L148.961 106.74C148.901 106.68 148.831 106.65 148.751 106.65C148.681 106.65 148.621 106.68 148.571 106.74C148.301 107.2 147.941 107.675 147.491 108.165C147.041 108.645 146.451 109.215 145.721 109.875L144.896 109.17C145.776 108.41 146.451 107.755 146.921 107.205C147.401 106.645 147.746 106.09 147.956 105.54C148.166 104.99 148.271 104.36 148.271 103.65V103.575H145.286V102.63H152.411V103.575H149.381V103.68C149.381 104.67 149.201 105.525 148.841 106.245L148.916 106.29L149.156 106.11C149.246 106.03 149.351 105.99 149.471 105.99ZM162.939 103.65C162.619 103.65 162.384 103.57 162.234 103.41C162.094 103.24 162.024 103.025 162.024 102.765V102.555C162.024 102.145 162.144 101.695 162.384 101.205C162.624 100.705 162.959 100.27 163.389 99.9H164.394C164.094 100.22 163.849 100.525 163.659 100.815C163.479 101.095 163.349 101.41 163.269 101.76C163.469 101.81 163.614 101.905 163.704 102.045C163.804 102.185 163.854 102.355 163.854 102.555V102.765C163.854 103.025 163.779 103.24 163.629 103.41C163.489 103.57 163.259 103.65 162.939 103.65ZM170.225 111.18C169.545 111.18 168.93 111.065 168.38 110.835C167.84 110.595 167.375 110.25 166.985 109.8C166.605 109.34 166.31 108.775 166.1 108.105C165.89 107.425 165.785 106.645 165.785 105.765C165.785 104.885 165.89 104.11 166.1 103.44C166.31 102.77 166.605 102.205 166.985 101.745C167.375 101.285 167.84 100.94 168.38 100.71C168.93 100.47 169.545 100.35 170.225 100.35C170.895 100.35 171.505 100.47 172.055 100.71C172.605 100.94 173.07 101.285 173.45 101.745C173.84 102.205 174.14 102.77 174.35 103.44C174.56 104.11 174.665 104.885 174.665 105.765C174.665 106.645 174.56 107.425 174.35 108.105C174.14 108.775 173.84 109.34 173.45 109.8C173.07 110.25 172.605 110.595 172.055 110.835C171.505 111.065 170.895 111.18 170.225 111.18ZM170.225 110.055C170.675 110.055 171.09 109.975 171.47 109.815C171.85 109.655 172.175 109.425 172.445 109.125C172.725 108.825 172.94 108.465 173.09 108.045C173.24 107.625 173.315 107.155 173.315 106.635V104.895C173.315 104.375 173.24 103.905 173.09 103.485C172.94 103.065 172.725 102.705 172.445 102.405C172.175 102.105 171.85 101.875 171.47 101.715C171.09 101.555 170.675 101.475 170.225 101.475C169.775 101.475 169.36 101.555 168.98 101.715C168.6 101.875 168.27 102.105 167.99 102.405C167.72 102.705 167.51 103.065 167.36 103.485C167.21 103.905 167.135 104.375 167.135 104.895V106.635C167.135 107.155 167.21 107.625 167.36 108.045C167.51 108.465 167.72 108.825 167.99 109.125C168.27 109.425 168.6 109.655 168.98 109.815C169.36 109.975 169.775 110.055 170.225 110.055ZM179.465 104.61L178.205 102.285H178.16V111H176.93V100.53H178.385L182.21 106.92L183.47 109.245H183.515V100.53H184.745V111H183.29L179.465 104.61ZM188.255 99.75C188.575 99.75 188.805 99.835 188.945 100.005C189.095 100.165 189.17 100.375 189.17 100.635V100.845C189.17 101.255 189.05 101.71 188.81 102.21C188.57 102.7 188.235 103.13 187.805 103.5H186.8C187.1 103.18 187.34 102.88 187.52 102.6C187.71 102.31 187.845 101.99 187.925 101.64C187.725 101.59 187.575 101.495 187.475 101.355C187.385 101.215 187.34 101.045 187.34 100.845V100.635C187.34 100.375 187.41 100.165 187.55 100.005C187.7 99.835 187.935 99.75 188.255 99.75ZM192.207 103.545C192.207 102.875 192.377 102.275 192.717 101.745C193.067 101.205 193.597 100.775 194.307 100.455C195.017 100.135 195.892 99.975 196.932 99.975C197.972 99.975 198.847 100.135 199.557 100.455C200.267 100.775 200.792 101.205 201.132 101.745C201.482 102.275 201.657 102.875 201.657 103.545C201.657 104.215 201.482 104.82 201.132 105.36C200.792 105.9 200.267 106.33 199.557 106.65C198.847 106.97 197.972 107.13 196.932 107.13C195.892 107.13 195.017 106.97 194.307 106.65C193.597 106.33 193.067 105.9 192.717 105.36C192.377 104.82 192.207 104.215 192.207 103.545ZM200.427 103.725V103.38C200.427 102.92 200.302 102.505 200.052 102.135C199.812 101.755 199.427 101.455 198.897 101.235C198.377 101.005 197.722 100.89 196.932 100.89C196.142 100.89 195.482 101.005 194.952 101.235C194.432 101.455 194.047 101.755 193.797 102.135C193.557 102.505 193.437 102.92 193.437 103.38V103.725C193.437 104.435 193.727 105.025 194.307 105.495C194.887 105.965 195.762 106.2 196.932 106.2C198.102 106.2 198.977 105.965 199.557 105.495C200.137 105.025 200.427 104.435 200.427 103.725ZM190.812 110.025H203.052V111H190.812V110.025ZM216.426 110.04V111H204.186V110.04H209.736V107.475H205.986V103.41H213.486V101.205H205.911V100.26H214.626V104.325H207.126V106.53H215.016V107.475H210.876V110.04H216.426ZM231.185 105.855H229.19V104.925H231.185V103.245H229.19V102.33H231.185V99.465H232.325V107.895H231.185V105.855ZM227.165 100.725H223.145V99.78H227.165V100.725ZM225.05 107.385C224.44 107.385 223.905 107.29 223.445 107.1C222.985 106.91 222.63 106.645 222.38 106.305C222.13 105.965 222.005 105.58 222.005 105.15C222.005 104.72 222.11 104.35 222.32 104.04C222.53 103.72 222.845 103.47 223.265 103.29V103.2H221.195V102.285H228.71V103.2H226.85V103.29C227.27 103.47 227.585 103.72 227.795 104.04C228.005 104.35 228.11 104.72 228.11 105.15C228.11 105.58 227.985 105.965 227.735 106.305C227.485 106.645 227.125 106.91 226.655 107.1C226.195 107.29 225.66 107.385 225.05 107.385ZM224.915 106.44H225.2C225.74 106.44 226.185 106.305 226.535 106.035C226.885 105.755 227.06 105.37 227.06 104.88C227.06 104.38 226.885 103.995 226.535 103.725C226.195 103.445 225.75 103.305 225.2 103.305H224.915C224.365 103.305 223.915 103.445 223.565 103.725C223.225 103.995 223.055 104.38 223.055 104.88C223.055 105.37 223.23 105.755 223.58 106.035C223.93 106.305 224.375 106.44 224.915 106.44ZM232.415 110.7C232.415 111.47 232.05 112.09 231.32 112.56C230.6 113.03 229.56 113.265 228.2 113.265C226.83 113.265 225.78 113.03 225.05 112.56C224.33 112.09 223.97 111.47 223.97 110.7C223.97 110.21 224.125 109.775 224.435 109.395C224.755 109.015 225.23 108.715 225.86 108.495C226.5 108.275 227.28 108.165 228.2 108.165C229.11 108.165 229.88 108.275 230.51 108.495C231.15 108.715 231.625 109.015 231.935 109.395C232.255 109.775 232.415 110.21 232.415 110.7ZM231.2 110.61C231.2 110.18 230.95 109.82 230.45 109.53C229.95 109.23 229.2 109.08 228.2 109.08C227.19 109.08 226.43 109.23 225.92 109.53C225.42 109.82 225.17 110.18 225.17 110.61V110.82C225.17 111.25 225.42 111.61 225.92 111.9C226.43 112.2 227.19 112.35 228.2 112.35C229.2 112.35 229.95 112.2 230.45 111.9C230.95 111.61 231.2 111.25 231.2 110.82V110.61ZM247.124 102.825V103.785H245.039V107.22H243.899V99.465H245.039V102.825H247.124ZM238.214 103.725C238.144 103.725 238.079 103.76 238.019 103.83C237.759 104.26 237.414 104.705 236.984 105.165C236.564 105.615 235.994 106.175 235.274 106.845L234.434 106.11C235.284 105.35 235.939 104.7 236.399 104.16C236.859 103.62 237.189 103.085 237.389 102.555C237.589 102.025 237.689 101.425 237.689 100.755V99.945H238.829V100.815C238.829 101.725 238.654 102.555 238.304 103.305L238.379 103.365L238.619 103.155C238.729 103.065 238.839 103.02 238.949 103.02C239.059 103.02 239.159 103.065 239.249 103.155L242.099 105.795L241.289 106.575L238.409 103.815C238.349 103.755 238.284 103.725 238.214 103.725ZM245.144 110.34C245.144 110.89 244.989 111.38 244.679 111.81C244.369 112.25 243.904 112.595 243.284 112.845C242.664 113.095 241.904 113.22 241.004 113.22C240.114 113.22 239.354 113.095 238.724 112.845C238.104 112.595 237.634 112.25 237.314 111.81C237.004 111.38 236.849 110.89 236.849 110.34C236.849 109.79 237.004 109.3 237.314 108.87C237.634 108.43 238.104 108.085 238.724 107.835C239.354 107.585 240.114 107.46 241.004 107.46C241.904 107.46 242.664 107.585 243.284 107.835C243.904 108.085 244.369 108.43 244.679 108.87C244.989 109.3 245.144 109.79 245.144 110.34ZM243.944 110.22C243.944 109.7 243.699 109.265 243.209 108.915C242.729 108.565 241.994 108.39 241.004 108.39C240.024 108.39 239.289 108.57 238.799 108.93C238.309 109.28 238.064 109.71 238.064 110.22V110.475C238.064 110.985 238.309 111.415 238.799 111.765C239.289 112.125 240.024 112.305 241.004 112.305C241.994 112.305 242.729 112.125 243.209 111.765C243.699 111.415 243.944 110.985 243.944 110.475V110.22ZM260.483 105.93H258.443V112.485H257.318V99.465H258.443V104.97H260.483V105.93ZM253.943 100.995H249.938V100.065H253.943V100.995ZM256.253 108.96L256.358 109.875C255.258 110.055 253.943 110.195 252.413 110.295C250.893 110.385 249.323 110.43 247.703 110.43L247.598 109.47C248.718 109.47 249.953 109.445 251.303 109.395V107.61C250.513 107.53 249.888 107.29 249.428 106.89C248.968 106.48 248.738 105.98 248.738 105.39C248.738 104.96 248.843 104.59 249.053 104.28C249.273 103.96 249.603 103.71 250.043 103.53V103.44H247.808V102.54H255.878V103.44H253.718V103.53C254.148 103.71 254.473 103.96 254.693 104.28C254.913 104.6 255.023 104.97 255.023 105.39C255.023 105.99 254.788 106.495 254.318 106.905C253.848 107.305 253.208 107.54 252.398 107.61V109.335C253.958 109.255 255.243 109.13 256.253 108.96ZM251.723 106.71H252.038C252.608 106.71 253.073 106.575 253.433 106.305C253.793 106.025 253.973 105.635 253.973 105.135C253.973 104.635 253.793 104.25 253.433 103.98C253.073 103.7 252.608 103.56 252.038 103.56H251.723C251.153 103.56 250.688 103.7 250.328 103.98C249.968 104.25 249.788 104.635 249.788 105.135C249.788 105.635 249.968 106.025 250.328 106.305C250.688 106.575 251.153 106.71 251.723 106.71ZM273.857 105.795H271.742V112.515H270.602V99.495H271.742V104.835H273.857V105.795ZM267.407 101.175H263.147V100.2H267.407V101.175ZM261.152 102.975H269.177V103.905H266.957V103.995C267.867 104.445 268.322 105.31 268.322 106.59C268.322 107.24 268.187 107.805 267.917 108.285C267.647 108.755 267.272 109.115 266.792 109.365C266.322 109.615 265.797 109.74 265.217 109.74C264.637 109.74 264.107 109.615 263.627 109.365C263.157 109.115 262.787 108.755 262.517 108.285C262.247 107.805 262.112 107.24 262.112 106.59C262.112 105.31 262.567 104.445 263.477 103.995V103.905H261.152V102.975ZM267.212 106.095C267.212 105.425 267.032 104.915 266.672 104.565C266.312 104.205 265.827 104.025 265.217 104.025C264.617 104.025 264.132 104.205 263.762 104.565C263.402 104.925 263.222 105.435 263.222 106.095V106.71C263.222 107.36 263.407 107.87 263.777 108.24C264.147 108.6 264.627 108.78 265.217 108.78C265.807 108.78 266.287 108.6 266.657 108.24C267.027 107.87 267.212 107.36 267.212 106.71V106.095ZM285.791 99.465V112.485H284.666V107.01H282.116V106.08H284.666V103.26H282.116V102.33H284.666V99.465H285.791ZM281.801 104.73C281.801 106.19 281.486 107.295 280.856 108.045C280.226 108.795 279.396 109.17 278.366 109.17C277.326 109.17 276.491 108.795 275.861 108.045C275.231 107.295 274.916 106.19 274.916 104.73C274.916 103.27 275.231 102.165 275.861 101.415C276.491 100.665 277.326 100.29 278.366 100.29C279.396 100.29 280.226 100.665 280.856 101.415C281.486 102.165 281.801 103.27 281.801 104.73ZM280.601 104.13C280.601 103.19 280.396 102.475 279.986 101.985C279.576 101.485 279.036 101.235 278.366 101.235C277.686 101.235 277.141 101.485 276.731 101.985C276.321 102.475 276.116 103.19 276.116 104.13V105.33C276.116 106.27 276.321 106.99 276.731 107.49C277.141 107.98 277.686 108.225 278.366 108.225C279.036 108.225 279.576 107.98 279.986 107.49C280.396 106.99 280.601 106.27 280.601 105.33V104.13ZM302.695 99.465V112.485H301.57V105.105H298.78C298.73 106.445 298.39 107.46 297.76 108.15C297.13 108.83 296.32 109.17 295.33 109.17C294.29 109.17 293.45 108.795 292.81 108.045C292.18 107.295 291.865 106.19 291.865 104.73C291.865 103.26 292.18 102.155 292.81 101.415C293.44 100.665 294.28 100.29 295.33 100.29C296.3 100.29 297.095 100.615 297.715 101.265C298.335 101.915 298.69 102.875 298.78 104.145H301.57V99.465H302.695ZM297.595 104.13C297.595 103.2 297.385 102.49 296.965 102C296.555 101.5 296.01 101.25 295.33 101.25C294.65 101.25 294.105 101.5 293.695 102C293.285 102.49 293.08 103.2 293.08 104.13V105.33C293.08 106.26 293.285 106.975 293.695 107.475C294.105 107.965 294.65 108.21 295.33 108.21C296.01 108.21 296.555 107.965 296.965 107.475C297.385 106.975 297.595 106.26 297.595 105.33V104.13ZM316.054 99.465V112.485H314.914V99.465H316.054ZM313.039 107.685L313.189 108.6C311.639 108.91 309.709 109.065 307.399 109.065H305.794V100.53H311.839V101.49H306.949V108.105H307.369C309.659 108.105 311.549 107.965 313.039 107.685ZM329.443 99.465V112.485H328.318V104.79H325.543V103.83H328.318V99.465H329.443ZM322.948 104.715C323.068 104.715 323.173 104.77 323.263 104.88L326.203 108.63L325.333 109.395L322.393 105.525C322.353 105.475 322.303 105.45 322.243 105.45C322.183 105.45 322.133 105.475 322.093 105.525C321.843 106.105 321.498 106.7 321.058 107.31C320.618 107.92 320.018 108.68 319.258 109.59L318.388 108.855C319.258 107.865 319.923 107.02 320.383 106.32C320.853 105.61 321.188 104.9 321.388 104.19C321.598 103.48 321.703 102.665 321.703 101.745V100.335H322.843V101.73C322.843 102.94 322.678 104.02 322.348 104.97L322.408 105.015L322.618 104.835C322.728 104.755 322.838 104.715 322.948 104.715ZM342.157 104.97H333.502V99.975H342.037V100.935H334.627V104.01H342.157V104.97ZM343.882 106.575V107.565H331.642V106.575H343.882ZM334.537 111.795H342.307V112.755H334.147C333.907 112.755 333.722 112.69 333.592 112.56C333.462 112.43 333.397 112.24 333.397 111.99V108.825H334.537V111.795ZM361.191 105.555H359.031V112.515H357.891V99.495H359.031V104.595H361.191V105.555ZM352.986 104.715C353.116 104.715 353.226 104.77 353.316 104.88L356.241 108.63L355.371 109.395L352.431 105.54C352.401 105.48 352.351 105.45 352.281 105.45C352.231 105.45 352.181 105.48 352.131 105.54C351.871 106.12 351.521 106.72 351.081 107.34C350.641 107.95 350.046 108.7 349.296 109.59L348.426 108.855C349.296 107.865 349.961 107.02 350.421 106.32C350.891 105.61 351.226 104.9 351.426 104.19C351.636 103.48 351.741 102.665 351.741 101.745V100.335H352.896V101.73C352.896 102.92 352.721 104 352.371 104.97L352.446 105.015L352.671 104.835C352.781 104.755 352.886 104.715 352.986 104.715ZM374.175 106.05V107.01H361.935V106.05H365.19V104.28C364.64 104.05 364.225 103.75 363.945 103.38C363.675 103.01 363.54 102.59 363.54 102.12C363.54 101.34 363.92 100.71 364.68 100.23C365.44 99.74 366.565 99.495 368.055 99.495C369.545 99.495 370.67 99.74 371.43 100.23C372.19 100.71 372.57 101.34 372.57 102.12C372.57 102.59 372.43 103.01 372.15 103.38C371.88 103.75 371.47 104.05 370.92 104.28V106.05H374.175ZM368.055 103.86C369.165 103.86 369.995 103.705 370.545 103.395C371.095 103.085 371.37 102.69 371.37 102.21V102C371.37 101.53 371.09 101.14 370.53 100.83C369.98 100.52 369.155 100.365 368.055 100.365C366.955 100.365 366.13 100.52 365.58 100.83C365.03 101.14 364.755 101.53 364.755 102V102.21C364.755 102.69 365.025 103.085 365.565 103.395C366.115 103.705 366.945 103.86 368.055 103.86ZM366.285 106.05H369.825V104.595C369.335 104.695 368.745 104.745 368.055 104.745C367.365 104.745 366.775 104.695 366.285 104.595V106.05ZM372.495 110.685C372.495 111.195 372.325 111.645 371.985 112.035C371.655 112.425 371.155 112.73 370.485 112.95C369.825 113.18 369.015 113.295 368.055 113.295C367.095 113.295 366.28 113.18 365.61 112.95C364.95 112.73 364.45 112.425 364.11 112.035C363.78 111.645 363.615 111.195 363.615 110.685C363.615 110.185 363.78 109.745 364.11 109.365C364.45 108.975 364.95 108.67 365.61 108.45C366.28 108.23 367.095 108.12 368.055 108.12C369.015 108.12 369.825 108.23 370.485 108.45C371.155 108.67 371.655 108.975 371.985 109.365C372.325 109.745 372.495 110.185 372.495 110.685ZM371.295 110.595C371.295 110.155 371.025 109.785 370.485 109.485C369.955 109.175 369.145 109.02 368.055 109.02C367.325 109.02 366.715 109.095 366.225 109.245C365.735 109.385 365.375 109.575 365.145 109.815C364.915 110.055 364.8 110.315 364.8 110.595V110.805C364.8 111.085 364.915 111.345 365.145 111.585C365.375 111.825 365.735 112.015 366.225 112.155C366.715 112.305 367.325 112.38 368.055 112.38C369.145 112.38 369.955 112.225 370.485 111.915C371.025 111.615 371.295 111.245 371.295 110.805V110.595ZM387.954 102.825V103.785H385.869V106.815H384.729V99.465H385.869V102.825H387.954ZM381.294 100.62H377.289V99.705H381.294V100.62ZM379.194 106.605C378.254 106.605 377.499 106.425 376.929 106.065C376.369 105.695 376.089 105.21 376.089 104.61C376.089 103.83 376.499 103.285 377.319 102.975V102.885H375.099V102H383.229V102.885H381.069V102.975C381.889 103.285 382.299 103.83 382.299 104.61C382.299 105.21 382.014 105.695 381.444 106.065C380.884 106.425 380.134 106.605 379.194 106.605ZM379.014 105.69H379.374C379.924 105.69 380.374 105.57 380.724 105.33C381.074 105.09 381.249 104.755 381.249 104.325C381.249 103.895 381.074 103.56 380.724 103.32C380.384 103.08 379.934 102.96 379.374 102.96H379.014C378.454 102.96 377.999 103.08 377.649 103.32C377.309 103.56 377.139 103.895 377.139 104.325C377.139 104.755 377.314 105.09 377.664 105.33C378.014 105.57 378.464 105.69 379.014 105.69ZM378.714 112.17H386.229V113.1H378.354C378.114 113.1 377.929 113.035 377.799 112.905C377.669 112.775 377.604 112.585 377.604 112.335V109.89H384.759V108.51H377.514V107.595H385.869V110.79H378.714V112.17ZM397.793 100.92H393.728V100.005H402.968V100.92H398.948C398.938 101.3 398.883 101.645 398.783 101.955C398.683 102.255 398.518 102.54 398.288 102.81L398.363 102.84L398.678 102.63C398.808 102.53 398.938 102.48 399.068 102.48C399.178 102.48 399.293 102.51 399.413 102.57L403.523 104.58L402.893 105.42L398.618 103.245C398.488 103.175 398.363 103.14 398.243 103.14C398.113 103.14 397.998 103.17 397.898 103.23C397.508 103.58 396.978 103.935 396.308 104.295C395.648 104.645 394.803 105.03 393.773 105.45L393.173 104.625C394.363 104.155 395.283 103.73 395.933 103.35C396.583 102.97 397.048 102.59 397.328 102.21C397.608 101.83 397.763 101.4 397.793 100.92ZM404.468 106.515V107.505H398.993V110.16H397.853V107.505H392.228V106.515H404.468ZM395.078 111.87H402.863V112.815H394.703C394.463 112.815 394.278 112.75 394.148 112.62C394.018 112.49 393.953 112.3 393.953 112.05V108.96H395.078V111.87ZM415.622 99.465H416.762V112.485H415.622V99.465ZM406.367 100.395H407.492V103.68H411.437V100.38H412.547V108.975H406.367V100.395ZM411.437 108.015V104.64H407.492V108.015H411.437ZM431.606 105.555H429.446V112.515H428.306V99.495H429.446V104.595H431.606V105.555ZM419.621 100.53H425.456V102.615C425.456 103.725 425.291 104.665 424.961 105.435C424.631 106.205 424.071 106.925 423.281 107.595C422.501 108.255 421.381 108.98 419.921 109.77L419.246 108.915C420.606 108.195 421.646 107.54 422.366 106.95C423.086 106.36 423.591 105.735 423.881 105.075C424.171 104.415 424.316 103.6 424.316 102.63V101.505H419.621V100.53ZM447.07 99.465V112.485H445.945V99.465H447.07ZM444.865 108.45L444.97 109.365C443.84 109.545 442.485 109.685 440.905 109.785C439.325 109.875 437.695 109.92 436.015 109.92L435.925 108.945C437.385 108.945 438.63 108.92 439.66 108.87V105.96H437.035V100.47H443.5V101.415H438.16V105.015H443.62V105.96H440.755V108.825C442.275 108.755 443.645 108.63 444.865 108.45ZM460.444 99.465V112.485H459.319V105.105H456.529C456.479 106.445 456.139 107.46 455.509 108.15C454.879 108.83 454.069 109.17 453.079 109.17C452.039 109.17 451.199 108.795 450.559 108.045C449.929 107.295 449.614 106.19 449.614 104.73C449.614 103.26 449.929 102.155 450.559 101.415C451.189 100.665 452.029 100.29 453.079 100.29C454.049 100.29 454.844 100.615 455.464 101.265C456.084 101.915 456.439 102.875 456.529 104.145H459.319V99.465H460.444ZM455.344 104.13C455.344 103.2 455.134 102.49 454.714 102C454.304 101.5 453.759 101.25 453.079 101.25C452.399 101.25 451.854 101.5 451.444 102C451.034 102.49 450.829 103.2 450.829 104.13V105.33C450.829 106.26 451.034 106.975 451.444 107.475C451.854 107.965 452.399 108.21 453.079 108.21C453.759 108.21 454.304 107.965 454.714 107.475C455.134 106.975 455.344 106.26 455.344 105.33V104.13ZM473.878 106.98H472.723V99.465H473.878V106.98ZM463.078 103.2C463.078 102.54 463.223 101.965 463.513 101.475C463.813 100.985 464.223 100.61 464.743 100.35C465.263 100.08 465.858 99.945 466.528 99.945C467.198 99.945 467.793 100.08 468.313 100.35C468.833 100.61 469.238 100.985 469.528 101.475C469.828 101.965 469.978 102.54 469.978 103.2C469.978 103.86 469.828 104.435 469.528 104.925C469.238 105.415 468.828 105.795 468.298 106.065C467.778 106.325 467.188 106.455 466.528 106.455C465.868 106.455 465.273 106.325 464.743 106.065C464.223 105.795 463.813 105.415 463.513 104.925C463.223 104.435 463.078 103.86 463.078 103.2ZM464.278 103.455C464.278 104.075 464.483 104.575 464.893 104.955C465.313 105.325 465.858 105.51 466.528 105.51C467.198 105.51 467.738 105.325 468.148 104.955C468.558 104.575 468.763 104.075 468.763 103.455V102.93C468.763 102.31 468.558 101.815 468.148 101.445C467.738 101.075 467.198 100.89 466.528 100.89C465.858 100.89 465.313 101.075 464.893 101.445C464.483 101.815 464.278 102.31 464.278 102.93V103.455ZM475.108 112.275L474.373 113.055L472.153 110.88C472.093 110.81 472.023 110.775 471.943 110.775C471.903 110.775 471.858 110.79 471.808 110.82C471.578 111.16 471.283 111.51 470.923 111.87C470.563 112.24 470.083 112.685 469.483 113.205L467.203 110.835C467.133 110.765 467.063 110.73 466.993 110.73C466.953 110.73 466.898 110.755 466.828 110.805C466.388 111.465 465.638 112.25 464.578 113.16L463.858 112.395C464.528 111.835 465.053 111.335 465.433 110.895C465.813 110.455 466.083 110.02 466.243 109.59C466.413 109.16 466.498 108.675 466.498 108.135V107.655H467.578V108.165C467.578 108.985 467.423 109.7 467.113 110.31L467.173 110.34L467.368 110.19C467.448 110.12 467.543 110.085 467.653 110.085C467.773 110.085 467.878 110.13 467.968 110.22L469.558 111.81C470.278 111.16 470.773 110.575 471.043 110.055C471.313 109.535 471.448 108.9 471.448 108.15V107.655H472.528V108.21C472.528 108.65 472.493 109.04 472.423 109.38C472.353 109.72 472.238 110.045 472.078 110.355L472.138 110.4L472.333 110.235C472.443 110.155 472.548 110.115 472.648 110.115C472.748 110.115 472.848 110.155 472.948 110.235L475.108 112.275ZM488.647 105.555H486.487V112.515H485.347V99.495H486.487V104.595H488.647V105.555ZM483.772 107.685L483.922 108.6C482.392 108.91 480.482 109.065 478.192 109.065H476.602V100.53H482.587V101.49H477.742V108.12H478.177C480.377 108.12 482.242 107.975 483.772 107.685ZM499.891 104.655H491.266V99.945H492.391V103.71H499.891V104.655ZM501.631 106.32V107.295H489.391V106.32H501.631ZM492.286 111.795H500.056V112.755H491.896C491.656 112.755 491.471 112.69 491.341 112.56C491.211 112.43 491.146 112.24 491.146 111.99V108.705H492.286V111.795ZM516.405 103.965H513.495V103.005H516.405V99.465H517.545V108.255H516.405V103.965ZM507.435 107.325L506.82 106.455C508.16 105.915 509.18 105.43 509.88 105C510.58 104.56 511.07 104.1 511.35 103.62C511.64 103.14 511.785 102.555 511.785 101.865V101.25H507.195V100.275H512.94V101.745C512.94 102.645 512.775 103.395 512.445 103.995C512.125 104.595 511.575 105.15 510.795 105.66C510.025 106.16 508.905 106.715 507.435 107.325ZM518.175 112.245L517.515 113.13L513.54 110.775C513.43 110.705 513.315 110.67 513.195 110.67C513.065 110.67 512.955 110.71 512.865 110.79H512.85C512.49 111.15 511.995 111.52 511.365 111.9C510.745 112.29 509.945 112.715 508.965 113.175L508.335 112.305C509.535 111.765 510.45 111.28 511.08 110.85C511.71 110.41 512.145 109.975 512.385 109.545C512.625 109.115 512.745 108.615 512.745 108.045V107.61H513.93V108.09C513.93 108.56 513.875 108.98 513.765 109.35C513.665 109.71 513.485 110.055 513.225 110.385L513.285 110.4L513.645 110.145C513.805 110.035 513.93 109.98 514.02 109.98C514.1 109.98 514.21 110.015 514.35 110.085L518.175 112.245ZM521.304 101.865C521.304 101.135 521.679 100.555 522.429 100.125C523.179 99.685 524.304 99.465 525.804 99.465C527.304 99.465 528.429 99.685 529.179 100.125C529.929 100.555 530.304 101.135 530.304 101.865C530.304 102.595 529.929 103.18 529.179 103.62C528.429 104.06 527.304 104.28 525.804 104.28C524.304 104.28 523.179 104.06 522.429 103.62C521.679 103.18 521.304 102.595 521.304 101.865ZM529.089 101.94V101.775C529.089 101.345 528.814 100.995 528.264 100.725C527.724 100.445 526.904 100.305 525.804 100.305C524.704 100.305 523.879 100.445 523.329 100.725C522.789 100.995 522.519 101.345 522.519 101.775V101.94C522.519 102.37 522.789 102.725 523.329 103.005C523.879 103.275 524.704 103.41 525.804 103.41C526.904 103.41 527.724 103.275 528.264 103.005C528.814 102.725 529.089 102.37 529.089 101.94ZM531.924 105.315V106.275H519.684V105.315H531.924ZM521.589 112.335V109.875H528.984V108.465H521.499V107.535H530.079V110.745H522.684V112.17H530.469V113.1H522.339C522.099 113.1 521.914 113.035 521.784 112.905C521.654 112.775 521.589 112.585 521.589 112.335ZM547.838 99.465V106.98H546.683V99.465H547.838ZM540.668 103.725C540.598 103.725 540.533 103.76 540.473 103.83C540.213 104.26 539.873 104.7 539.453 105.15C539.033 105.59 538.448 106.155 537.698 106.845L536.843 106.11C537.703 105.35 538.363 104.7 538.823 104.16C539.283 103.62 539.613 103.085 539.813 102.555C540.023 102.025 540.128 101.425 540.128 100.755V99.945H541.283V100.83C541.283 101.76 541.108 102.59 540.758 103.32L540.833 103.365L541.073 103.155C541.183 103.065 541.293 103.02 541.403 103.02C541.513 103.02 541.618 103.065 541.718 103.155L544.598 105.78L543.773 106.575L540.863 103.815C540.803 103.755 540.738 103.725 540.668 103.725ZM539.588 107.79H547.838V113.025H540.338C540.098 113.025 539.913 112.96 539.783 112.83C539.653 112.7 539.588 112.51 539.588 112.26V107.79ZM540.728 112.065H546.683V108.735H540.728V112.065ZM560.792 100.635H551.402V99.75H560.792V100.635ZM560.927 104.19H551.267V103.32H553.472L553.082 101.325L554.222 101.205L554.537 103.32H557.642L557.957 101.205L559.097 101.325L558.707 103.32H560.927V104.19ZM562.217 105.45V106.395H549.977V105.45H562.217ZM552.962 112.17H560.762V113.1H552.632C552.392 113.1 552.207 113.035 552.077 112.905C551.947 112.775 551.882 112.585 551.882 112.335V109.905H559.277V108.525H551.792V107.61H560.372V110.775H552.962V112.17ZM575.981 105.795H573.866V112.515H572.726V99.495H573.866V104.835H575.981V105.795ZM569.531 101.175H565.271V100.2H569.531V101.175ZM563.276 102.975H571.301V103.905H569.081V103.995C569.991 104.445 570.446 105.31 570.446 106.59C570.446 107.24 570.311 107.805 570.041 108.285C569.771 108.755 569.396 109.115 568.916 109.365C568.446 109.615 567.921 109.74 567.341 109.74C566.761 109.74 566.231 109.615 565.751 109.365C565.281 109.115 564.911 108.755 564.641 108.285C564.371 107.805 564.236 107.24 564.236 106.59C564.236 105.31 564.691 104.445 565.601 103.995V103.905H563.276V102.975ZM569.336 106.095C569.336 105.425 569.156 104.915 568.796 104.565C568.436 104.205 567.951 104.025 567.341 104.025C566.741 104.025 566.256 104.205 565.886 104.565C565.526 104.925 565.346 105.435 565.346 106.095V106.71C565.346 107.36 565.531 107.87 565.901 108.24C566.271 108.6 566.751 108.78 567.341 108.78C567.931 108.78 568.411 108.6 568.781 108.24C569.151 107.87 569.336 107.36 569.336 106.71V106.095ZM588.29 99.465V112.485H587.18V99.465H588.29ZM584.165 99.69H585.26V112.125H584.165V105.51H581.9C581.62 106.25 581.16 106.945 580.52 107.595C579.89 108.235 578.975 108.955 577.775 109.755L577.025 108.99C578.155 108.26 579.015 107.61 579.605 107.04C580.195 106.46 580.61 105.855 580.85 105.225C581.09 104.585 581.21 103.8 581.21 102.87V101.715H577.37V100.8H582.305V102.84C582.305 103.49 582.255 104.065 582.155 104.565H584.165V99.69ZM604.549 101.235H594.964V100.275H604.549V101.235ZM604.684 106.74H594.844V105.795H597.214L596.719 102.465L597.874 102.345L598.279 105.795H601.234L601.639 102.345L602.809 102.465L602.299 105.795H604.684V106.74ZM605.884 110.04V111H593.644V110.04H596.974V107.505H598.084V110.04H601.444V107.505H602.554V110.04H605.884ZM617.098 106.275H615.103V105.345H617.098V103.47H615.103V102.54H617.098V99.465H618.253V109.5H617.098V106.275ZM613.048 100.83H609.073V99.87H613.048V100.83ZM610.963 107.955C610.353 107.955 609.818 107.85 609.358 107.64C608.898 107.43 608.543 107.14 608.293 106.77C608.043 106.4 607.918 105.98 607.918 105.51C607.918 105.03 608.028 104.615 608.248 104.265C608.468 103.905 608.798 103.63 609.238 103.44V103.365H607.108V102.435H614.623V103.365H612.703V103.455C613.143 103.645 613.473 103.915 613.693 104.265C613.913 104.615 614.023 105.03 614.023 105.51C614.023 105.98 613.898 106.4 613.648 106.77C613.398 107.14 613.038 107.43 612.568 107.64C612.108 107.85 611.573 107.955 610.963 107.955ZM610.843 106.995H611.098C611.648 106.995 612.093 106.84 612.433 106.53C612.783 106.22 612.958 105.79 612.958 105.24C612.958 104.69 612.783 104.265 612.433 103.965C612.093 103.655 611.648 103.5 611.098 103.5H610.843C610.283 103.5 609.833 103.655 609.493 103.965C609.153 104.265 608.983 104.69 608.983 105.24C608.983 105.79 609.153 106.22 609.493 106.53C609.843 106.84 610.293 106.995 610.843 106.995ZM618.523 111.9V112.845H610.633C610.393 112.845 610.208 112.78 610.078 112.65C609.948 112.52 609.883 112.33 609.883 112.08V109.08H611.023V111.9H618.523Z" fill="#333333"/>
<path d="M3.00051 128.65C2.68051 128.65 2.44551 128.57 2.29551 128.41C2.15551 128.24 2.08551 128.025 2.08551 127.765V127.555C2.08551 127.145 2.20551 126.695 2.44551 126.205C2.68551 125.705 3.02051 125.27 3.45051 124.9H4.45551C4.15551 125.22 3.91051 125.525 3.72051 125.815C3.54051 126.095 3.41051 126.41 3.33051 126.76C3.53051 126.81 3.67551 126.905 3.76551 127.045C3.86551 127.185 3.91551 127.355 3.91551 127.555V127.765C3.91551 128.025 3.84051 128.24 3.69051 128.41C3.55051 128.57 3.32051 128.65 3.00051 128.65ZM10.2856 136.18C9.60559 136.18 8.99059 136.065 8.44059 135.835C7.90059 135.595 7.43559 135.25 7.04559 134.8C6.66559 134.34 6.37059 133.775 6.16059 133.105C5.95059 132.425 5.84559 131.645 5.84559 130.765C5.84559 129.885 5.95059 129.11 6.16059 128.44C6.37059 127.77 6.66559 127.205 7.04559 126.745C7.43559 126.285 7.90059 125.94 8.44059 125.71C8.99059 125.47 9.60559 125.35 10.2856 125.35C10.9556 125.35 11.5656 125.47 12.1156 125.71C12.6656 125.94 13.1306 126.285 13.5106 126.745C13.9006 127.205 14.2006 127.77 14.4106 128.44C14.6206 129.11 14.7256 129.885 14.7256 130.765C14.7256 131.645 14.6206 132.425 14.4106 133.105C14.2006 133.775 13.9006 134.34 13.5106 134.8C13.1306 135.25 12.6656 135.595 12.1156 135.835C11.5656 136.065 10.9556 136.18 10.2856 136.18ZM10.2856 135.055C10.7356 135.055 11.1506 134.975 11.5306 134.815C11.9106 134.655 12.2356 134.425 12.5056 134.125C12.7856 133.825 13.0006 133.465 13.1506 133.045C13.3006 132.625 13.3756 132.155 13.3756 131.635V129.895C13.3756 129.375 13.3006 128.905 13.1506 128.485C13.0006 128.065 12.7856 127.705 12.5056 127.405C12.2356 127.105 11.9106 126.875 11.5306 126.715C11.1506 126.555 10.7356 126.475 10.2856 126.475C9.83559 126.475 9.42059 126.555 9.04059 126.715C8.66059 126.875 8.33059 127.105 8.05059 127.405C7.78059 127.705 7.57059 128.065 7.42059 128.485C7.27059 128.905 7.19559 129.375 7.19559 129.895V131.635C7.19559 132.155 7.27059 132.625 7.42059 133.045C7.57059 133.465 7.78059 133.825 8.05059 134.125C8.33059 134.425 8.66059 134.655 9.04059 134.815C9.42059 134.975 9.83559 135.055 10.2856 135.055ZM19.5257 129.61L18.2657 127.285H18.2207V136H16.9907V125.53H18.4457L22.2707 131.92L23.5307 134.245H23.5757V125.53H24.8057V136H23.3507L19.5257 129.61ZM28.3162 124.75C28.6362 124.75 28.8662 124.835 29.0062 125.005C29.1562 125.165 29.2312 125.375 29.2312 125.635V125.845C29.2312 126.255 29.1112 126.71 28.8712 127.21C28.6312 127.7 28.2962 128.13 27.8662 128.5H26.8612C27.1612 128.18 27.4012 127.88 27.5812 127.6C27.7712 127.31 27.9062 126.99 27.9862 126.64C27.7862 126.59 27.6362 126.495 27.5362 126.355C27.4462 126.215 27.4012 126.045 27.4012 125.845V125.635C27.4012 125.375 27.4712 125.165 27.6112 125.005C27.7612 124.835 27.9962 124.75 28.3162 124.75ZM32.4927 126.865C32.4927 126.135 32.8677 125.555 33.6177 125.125C34.3677 124.685 35.4927 124.465 36.9927 124.465C38.4927 124.465 39.6177 124.685 40.3677 125.125C41.1177 125.555 41.4927 126.135 41.4927 126.865C41.4927 127.595 41.1177 128.18 40.3677 128.62C39.6177 129.06 38.4927 129.28 36.9927 129.28C35.4927 129.28 34.3677 129.06 33.6177 128.62C32.8677 128.18 32.4927 127.595 32.4927 126.865ZM40.2777 126.94V126.775C40.2777 126.345 40.0027 125.995 39.4527 125.725C38.9127 125.445 38.0927 125.305 36.9927 125.305C35.8927 125.305 35.0677 125.445 34.5177 125.725C33.9777 125.995 33.7077 126.345 33.7077 126.775V126.94C33.7077 127.37 33.9777 127.725 34.5177 128.005C35.0677 128.275 35.8927 128.41 36.9927 128.41C38.0927 128.41 38.9127 128.275 39.4527 128.005C40.0027 127.725 40.2777 127.37 40.2777 126.94ZM43.1127 130.315V131.275H30.8727V130.315H43.1127ZM32.7777 137.335V134.875H40.1727V133.465H32.6877V132.535H41.2677V135.745H33.8727V137.17H41.6577V138.1H33.5277C33.2877 138.1 33.1027 138.035 32.9727 137.905C32.8427 137.775 32.7777 137.585 32.7777 137.335ZM57.8717 130.855H55.8767V129.925H57.8717V128.245H55.8767V127.33H57.8717V124.465H59.0117V132.895H57.8717V130.855ZM53.8517 125.725H49.8317V124.78H53.8517V125.725ZM51.7367 132.385C51.1267 132.385 50.5917 132.29 50.1317 132.1C49.6717 131.91 49.3167 131.645 49.0667 131.305C48.8167 130.965 48.6917 130.58 48.6917 130.15C48.6917 129.72 48.7967 129.35 49.0067 129.04C49.2167 128.72 49.5317 128.47 49.9517 128.29V128.2H47.8817V127.285H55.3967V128.2H53.5367V128.29C53.9567 128.47 54.2717 128.72 54.4817 129.04C54.6917 129.35 54.7967 129.72 54.7967 130.15C54.7967 130.58 54.6717 130.965 54.4217 131.305C54.1717 131.645 53.8117 131.91 53.3417 132.1C52.8817 132.29 52.3467 132.385 51.7367 132.385ZM51.6017 131.44H51.8867C52.4267 131.44 52.8717 131.305 53.2217 131.035C53.5717 130.755 53.7467 130.37 53.7467 129.88C53.7467 129.38 53.5717 128.995 53.2217 128.725C52.8817 128.445 52.4367 128.305 51.8867 128.305H51.6017C51.0517 128.305 50.6017 128.445 50.2517 128.725C49.9117 128.995 49.7417 129.38 49.7417 129.88C49.7417 130.37 49.9167 130.755 50.2667 131.035C50.6167 131.305 51.0617 131.44 51.6017 131.44ZM59.1017 135.7C59.1017 136.47 58.7367 137.09 58.0067 137.56C57.2867 138.03 56.2467 138.265 54.8867 138.265C53.5167 138.265 52.4667 138.03 51.7367 137.56C51.0167 137.09 50.6567 136.47 50.6567 135.7C50.6567 135.21 50.8117 134.775 51.1217 134.395C51.4417 134.015 51.9167 133.715 52.5467 133.495C53.1867 133.275 53.9667 133.165 54.8867 133.165C55.7967 133.165 56.5667 133.275 57.1967 133.495C57.8367 133.715 58.3117 134.015 58.6217 134.395C58.9417 134.775 59.1017 135.21 59.1017 135.7ZM57.8867 135.61C57.8867 135.18 57.6367 134.82 57.1367 134.53C56.6367 134.23 55.8867 134.08 54.8867 134.08C53.8767 134.08 53.1167 134.23 52.6067 134.53C52.1067 134.82 51.8567 135.18 51.8567 135.61V135.82C51.8567 136.25 52.1067 136.61 52.6067 136.9C53.1167 137.2 53.8767 137.35 54.8867 137.35C55.8867 137.35 56.6367 137.2 57.1367 136.9C57.6367 136.61 57.8867 136.25 57.8867 135.82V135.61ZM73.8107 127.825V128.785H71.7257V132.22H70.5857V124.465H71.7257V127.825H73.8107ZM64.9007 128.725C64.8307 128.725 64.7657 128.76 64.7057 128.83C64.4457 129.26 64.1007 129.705 63.6707 130.165C63.2507 130.615 62.6807 131.175 61.9607 131.845L61.1207 131.11C61.9707 130.35 62.6257 129.7 63.0857 129.16C63.5457 128.62 63.8757 128.085 64.0757 127.555C64.2757 127.025 64.3757 126.425 64.3757 125.755V124.945H65.5157V125.815C65.5157 126.725 65.3407 127.555 64.9907 128.305L65.0657 128.365L65.3057 128.155C65.4157 128.065 65.5257 128.02 65.6357 128.02C65.7457 128.02 65.8457 128.065 65.9357 128.155L68.7857 130.795L67.9757 131.575L65.0957 128.815C65.0357 128.755 64.9707 128.725 64.9007 128.725ZM71.8307 135.34C71.8307 135.89 71.6757 136.38 71.3657 136.81C71.0557 137.25 70.5907 137.595 69.9707 137.845C69.3507 138.095 68.5907 138.22 67.6907 138.22C66.8007 138.22 66.0407 138.095 65.4107 137.845C64.7907 137.595 64.3207 137.25 64.0007 136.81C63.6907 136.38 63.5357 135.89 63.5357 135.34C63.5357 134.79 63.6907 134.3 64.0007 133.87C64.3207 133.43 64.7907 133.085 65.4107 132.835C66.0407 132.585 66.8007 132.46 67.6907 132.46C68.5907 132.46 69.3507 132.585 69.9707 132.835C70.5907 133.085 71.0557 133.43 71.3657 133.87C71.6757 134.3 71.8307 134.79 71.8307 135.34ZM70.6307 135.22C70.6307 134.7 70.3857 134.265 69.8957 133.915C69.4157 133.565 68.6807 133.39 67.6907 133.39C66.7107 133.39 65.9757 133.57 65.4857 133.93C64.9957 134.28 64.7507 134.71 64.7507 135.22V135.475C64.7507 135.985 64.9957 136.415 65.4857 136.765C65.9757 137.125 66.7107 137.305 67.6907 137.305C68.6807 137.305 69.4157 137.125 69.8957 136.765C70.3857 136.415 70.6307 135.985 70.6307 135.475V135.22ZM87.1697 130.93H85.1297V137.485H84.0047V124.465H85.1297V129.97H87.1697V130.93ZM80.6297 125.995H76.6247V125.065H80.6297V125.995ZM82.9397 133.96L83.0447 134.875C81.9447 135.055 80.6297 135.195 79.0997 135.295C77.5797 135.385 76.0097 135.43 74.3897 135.43L74.2847 134.47C75.4047 134.47 76.6397 134.445 77.9897 134.395V132.61C77.1997 132.53 76.5747 132.29 76.1147 131.89C75.6547 131.48 75.4247 130.98 75.4247 130.39C75.4247 129.96 75.5297 129.59 75.7397 129.28C75.9597 128.96 76.2897 128.71 76.7297 128.53V128.44H74.4947V127.54H82.5647V128.44H80.4047V128.53C80.8347 128.71 81.1597 128.96 81.3797 129.28C81.5997 129.6 81.7097 129.97 81.7097 130.39C81.7097 130.99 81.4747 131.495 81.0047 131.905C80.5347 132.305 79.8947 132.54 79.0847 132.61V134.335C80.6447 134.255 81.9297 134.13 82.9397 133.96ZM78.4097 131.71H78.7247C79.2947 131.71 79.7597 131.575 80.1197 131.305C80.4797 131.025 80.6597 130.635 80.6597 130.135C80.6597 129.635 80.4797 129.25 80.1197 128.98C79.7597 128.7 79.2947 128.56 78.7247 128.56H78.4097C77.8397 128.56 77.3747 128.7 77.0147 128.98C76.6547 129.25 76.4747 129.635 76.4747 130.135C76.4747 130.635 76.6547 131.025 77.0147 131.305C77.3747 131.575 77.8397 131.71 78.4097 131.71ZM100.559 128.92V129.88H98.4738V134.5H97.3338V124.465H98.4738V128.92H100.559ZM93.8988 125.83H89.8938V124.87H93.8988V125.83ZM91.7988 132.94C91.1788 132.94 90.6338 132.835 90.1638 132.625C89.6938 132.415 89.3288 132.125 89.0688 131.755C88.8188 131.385 88.6938 130.965 88.6938 130.495C88.6938 130.025 88.8038 129.615 89.0238 129.265C89.2538 128.905 89.5938 128.63 90.0438 128.44V128.365H87.7038V127.42H95.8338V128.365H93.5538V128.44C94.0038 128.63 94.3388 128.905 94.5588 129.265C94.7888 129.615 94.9038 130.025 94.9038 130.495C94.9038 130.965 94.7738 131.385 94.5138 131.755C94.2638 132.125 93.9038 132.415 93.4338 132.625C92.9638 132.835 92.4188 132.94 91.7988 132.94ZM91.6788 131.98H91.9338C92.4938 131.98 92.9488 131.83 93.2988 131.53C93.6588 131.22 93.8388 130.79 93.8388 130.24C93.8388 129.69 93.6638 129.26 93.3138 128.95C92.9638 128.64 92.5038 128.485 91.9338 128.485H91.6788C91.1088 128.485 90.6488 128.64 90.2988 128.95C89.9488 129.25 89.7738 129.68 89.7738 130.24C89.7738 130.79 89.9488 131.22 90.2988 131.53C90.6588 131.83 91.1188 131.98 91.6788 131.98ZM91.4388 136.9H98.7738V137.845H91.0488C90.8088 137.845 90.6238 137.78 90.4938 137.65C90.3638 137.52 90.2988 137.33 90.2988 137.08V134.08H91.4388V136.9ZM114.928 128.965H112.018V128.005H114.928V124.465H116.068V133.255H114.928V128.965ZM105.958 132.325L105.343 131.455C106.683 130.915 107.703 130.43 108.403 130C109.103 129.56 109.593 129.1 109.873 128.62C110.163 128.14 110.308 127.555 110.308 126.865V126.25H105.718V125.275H111.463V126.745C111.463 127.645 111.298 128.395 110.968 128.995C110.648 129.595 110.098 130.15 109.318 130.66C108.548 131.16 107.428 131.715 105.958 132.325ZM116.698 137.245L116.038 138.13L112.063 135.775C111.953 135.705 111.838 135.67 111.718 135.67C111.588 135.67 111.478 135.71 111.388 135.79H111.373C111.013 136.15 110.518 136.52 109.888 136.9C109.268 137.29 108.468 137.715 107.488 138.175L106.858 137.305C108.058 136.765 108.973 136.28 109.603 135.85C110.233 135.41 110.668 134.975 110.908 134.545C111.148 134.115 111.268 133.615 111.268 133.045V132.61H112.453V133.09C112.453 133.56 112.398 133.98 112.288 134.35C112.188 134.71 112.008 135.055 111.748 135.385L111.808 135.4L112.168 135.145C112.328 135.035 112.453 134.98 112.543 134.98C112.623 134.98 112.733 135.015 112.873 135.085L116.698 137.245ZM119.827 126.865C119.827 126.135 120.202 125.555 120.952 125.125C121.702 124.685 122.827 124.465 124.327 124.465C125.827 124.465 126.952 124.685 127.702 125.125C128.452 125.555 128.827 126.135 128.827 126.865C128.827 127.595 128.452 128.18 127.702 128.62C126.952 129.06 125.827 129.28 124.327 129.28C122.827 129.28 121.702 129.06 120.952 128.62C120.202 128.18 119.827 127.595 119.827 126.865ZM127.612 126.94V126.775C127.612 126.345 127.337 125.995 126.787 125.725C126.247 125.445 125.427 125.305 124.327 125.305C123.227 125.305 122.402 125.445 121.852 125.725C121.312 125.995 121.042 126.345 121.042 126.775V126.94C121.042 127.37 121.312 127.725 121.852 128.005C122.402 128.275 123.227 128.41 124.327 128.41C125.427 128.41 126.247 128.275 126.787 128.005C127.337 127.725 127.612 127.37 127.612 126.94ZM130.447 130.315V131.275H118.207V130.315H130.447ZM120.112 137.335V134.875H127.507V133.465H120.022V132.535H128.602V135.745H121.207V137.17H128.992V138.1H120.862C120.622 138.1 120.437 138.035 120.307 137.905C120.177 137.775 120.112 137.585 120.112 137.335ZM147.756 130.555H145.596V137.515H144.456V124.495H145.596V129.595H147.756V130.555ZM142.161 129.73C142.161 131.19 141.841 132.295 141.201 133.045C140.571 133.795 139.731 134.17 138.681 134.17C137.631 134.17 136.786 133.795 136.146 133.045C135.516 132.295 135.201 131.19 135.201 129.73C135.201 128.27 135.516 127.165 136.146 126.415C136.786 125.665 137.631 125.29 138.681 125.29C139.731 125.29 140.571 125.665 141.201 126.415C141.841 127.165 142.161 128.27 142.161 129.73ZM140.946 129.13C140.946 128.2 140.736 127.49 140.316 127C139.906 126.5 139.361 126.25 138.681 126.25C138.001 126.25 137.451 126.5 137.031 127C136.611 127.49 136.401 128.2 136.401 129.13V130.33C136.401 131.26 136.611 131.975 137.031 132.475C137.451 132.965 138.001 133.21 138.681 133.21C139.361 133.21 139.906 132.965 140.316 132.475C140.736 131.975 140.946 131.26 140.946 130.33V129.13ZM158.52 124.465H159.66V137.485H158.52V124.465ZM148.89 129.73C148.89 128.27 149.21 127.165 149.85 126.415C150.5 125.665 151.355 125.29 152.415 125.29C153.465 125.29 154.31 125.665 154.95 126.415C155.6 127.165 155.925 128.27 155.925 129.73C155.925 130.71 155.775 131.535 155.475 132.205C155.175 132.865 154.76 133.36 154.23 133.69C153.7 134.01 153.095 134.17 152.415 134.17C151.355 134.17 150.5 133.795 149.85 133.045C149.21 132.295 148.89 131.19 148.89 129.73ZM154.71 130.315V129.145C154.71 128.215 154.495 127.5 154.065 127C153.645 126.5 153.095 126.25 152.415 126.25C151.725 126.25 151.165 126.5 150.735 127C150.315 127.49 150.105 128.205 150.105 129.145V130.315C150.105 131.255 150.315 131.975 150.735 132.475C151.165 132.965 151.725 133.21 152.415 133.21C153.095 133.21 153.645 132.96 154.065 132.46C154.495 131.96 154.71 131.245 154.71 130.315ZM171.234 127.525C171.264 126.995 171.279 126.45 171.279 125.89H163.539V124.945H172.389V125.95C172.389 127.55 172.219 129.1 171.879 130.6L170.799 130.45C170.949 129.83 171.064 129.15 171.144 128.41L163.209 128.725L163.089 127.78L171.234 127.525ZM174.114 131.59V132.565H161.874V131.59H166.884V129.595H168.024V131.59H174.114ZM164.769 136.855H172.539V137.8H164.379C164.139 137.8 163.954 137.735 163.824 137.605C163.694 137.475 163.629 137.285 163.629 137.035V133.84H164.769V136.855ZM176.643 128.545C176.643 127.875 176.813 127.275 177.153 126.745C177.503 126.205 178.033 125.775 178.743 125.455C179.453 125.135 180.328 124.975 181.368 124.975C182.408 124.975 183.283 125.135 183.993 125.455C184.703 125.775 185.228 126.205 185.568 126.745C185.918 127.275 186.093 127.875 186.093 128.545C186.093 129.215 185.918 129.82 185.568 130.36C185.228 130.9 184.703 131.33 183.993 131.65C183.283 131.97 182.408 132.13 181.368 132.13C180.328 132.13 179.453 131.97 178.743 131.65C178.033 131.33 177.503 130.9 177.153 130.36C176.813 129.82 176.643 129.215 176.643 128.545ZM184.863 128.725V128.38C184.863 127.92 184.738 127.505 184.488 127.135C184.248 126.755 183.863 126.455 183.333 126.235C182.813 126.005 182.158 125.89 181.368 125.89C180.578 125.89 179.918 126.005 179.388 126.235C178.868 126.455 178.483 126.755 178.233 127.135C177.993 127.505 177.873 127.92 177.873 128.38V128.725C177.873 129.435 178.163 130.025 178.743 130.495C179.323 130.965 180.198 131.2 181.368 131.2C182.538 131.2 183.413 130.965 183.993 130.495C184.573 130.025 184.863 129.435 184.863 128.725ZM175.248 135.025H187.488V136H175.248V135.025ZM200.862 135.04V136H188.622V135.04H194.172V132.475H190.422V128.41H197.922V126.205H190.347V125.26H199.062V129.325H191.562V131.53H199.452V132.475H195.312V135.04H200.862ZM218.186 128.41V129.37H216.101V134.35H214.961V124.465H216.101V128.41H218.186ZM206.426 132.52L205.811 131.65C207.171 131.09 208.206 130.59 208.916 130.15C209.626 129.71 210.126 129.245 210.416 128.755C210.706 128.265 210.851 127.665 210.851 126.955V126.325H206.186V125.35H211.991V126.85C211.991 127.77 211.826 128.535 211.496 129.145C211.176 129.755 210.621 130.315 209.831 130.825C209.051 131.335 207.916 131.9 206.426 132.52ZM209.066 136.825H216.401V137.77H208.676C208.436 137.77 208.251 137.705 208.121 137.575C207.991 137.445 207.926 137.255 207.926 137.005V133.27H209.066V136.825ZM231.56 128.41V129.37H229.475V134.35H228.335V124.465H229.475V128.41H231.56ZM226.85 131.38C226.12 131.53 225.25 131.65 224.24 131.74C223.23 131.82 222.145 131.86 220.985 131.86H219.44V125.35H225.425V126.31H220.58V130.915H220.97C222.07 130.915 223.115 130.875 224.105 130.795C225.105 130.715 225.97 130.605 226.7 130.465L226.85 131.38ZM222.44 136.825H229.775V137.77H222.05C221.81 137.77 221.625 137.705 221.495 137.575C221.365 137.445 221.3 137.255 221.3 137.005V133.27H222.44V136.825ZM243.449 124.465V137.485H242.309V124.465H243.449ZM238.814 126.175H234.479V125.2H238.814V126.175ZM232.439 127.975H240.599V128.905H238.349V128.995C238.799 129.215 239.144 129.545 239.384 129.985C239.624 130.415 239.744 130.95 239.744 131.59C239.744 132.24 239.604 132.805 239.324 133.285C239.054 133.755 238.679 134.115 238.199 134.365C237.719 134.615 237.179 134.74 236.579 134.74C235.979 134.74 235.439 134.615 234.959 134.365C234.479 134.115 234.099 133.755 233.819 133.285C233.549 132.805 233.414 132.24 233.414 131.59C233.414 130.95 233.534 130.415 233.774 129.985C234.014 129.545 234.359 129.215 234.809 128.995V128.905H232.439V127.975ZM238.634 131.11C238.634 130.44 238.444 129.925 238.064 129.565C237.694 129.205 237.199 129.025 236.579 129.025C235.959 129.025 235.459 129.205 235.079 129.565C234.709 129.925 234.524 130.44 234.524 131.11V131.68C234.524 132.34 234.714 132.855 235.094 133.225C235.474 133.595 235.969 133.78 236.579 133.78C237.189 133.78 237.684 133.595 238.064 133.225C238.444 132.855 238.634 132.34 238.634 131.68V131.11ZM261.838 128.32V129.25H259.858V132.445H258.733V124.465H259.858V128.32H261.838ZM255.268 125.365H251.323V124.495H255.268V125.365ZM258.043 131.8C256.923 131.98 255.578 132.12 254.008 132.22C252.448 132.31 250.833 132.355 249.163 132.355L249.088 131.485C250.438 131.485 251.633 131.465 252.673 131.425V130.465C251.893 130.405 251.278 130.23 250.828 129.94C250.378 129.65 250.153 129.28 250.153 128.83C250.153 128.22 250.508 127.78 251.218 127.51V127.405H249.253V126.58H257.068V127.405H255.178V127.51C255.898 127.78 256.258 128.22 256.258 128.83C256.258 129.27 256.033 129.64 255.583 129.94C255.133 130.23 254.523 130.405 253.753 130.465V131.38C255.483 131.28 256.883 131.155 257.953 131.005L258.043 131.8ZM252.958 129.625H253.453C253.993 129.625 254.428 129.535 254.758 129.355C255.088 129.165 255.253 128.89 255.253 128.53C255.253 128.17 255.088 127.9 254.758 127.72C254.428 127.53 253.993 127.435 253.453 127.435H252.958C252.418 127.435 251.983 127.53 251.653 127.72C251.323 127.9 251.158 128.17 251.158 128.53C251.158 128.89 251.323 129.165 251.653 129.355C251.983 129.535 252.418 129.625 252.958 129.625ZM252.508 137.32H260.218V138.19H252.193C251.953 138.19 251.768 138.125 251.638 137.995C251.508 137.865 251.443 137.675 251.443 137.425V135.25H258.793V134.035H251.353V133.18H259.858V136.105H252.508V137.32ZM274.822 131.05V132.01H262.582V131.05H265.837V129.28C265.287 129.05 264.872 128.75 264.592 128.38C264.322 128.01 264.187 127.59 264.187 127.12C264.187 126.34 264.567 125.71 265.327 125.23C266.087 124.74 267.212 124.495 268.702 124.495C270.192 124.495 271.317 124.74 272.077 125.23C272.837 125.71 273.217 126.34 273.217 127.12C273.217 127.59 273.077 128.01 272.797 128.38C272.527 128.75 272.117 129.05 271.567 129.28V131.05H274.822ZM268.702 128.86C269.812 128.86 270.642 128.705 271.192 128.395C271.742 128.085 272.017 127.69 272.017 127.21V127C272.017 126.53 271.737 126.14 271.177 125.83C270.627 125.52 269.802 125.365 268.702 125.365C267.602 125.365 266.777 125.52 266.227 125.83C265.677 126.14 265.402 126.53 265.402 127V127.21C265.402 127.69 265.672 128.085 266.212 128.395C266.762 128.705 267.592 128.86 268.702 128.86ZM266.932 131.05H270.472V129.595C269.982 129.695 269.392 129.745 268.702 129.745C268.012 129.745 267.422 129.695 266.932 129.595V131.05ZM273.142 135.685C273.142 136.195 272.972 136.645 272.632 137.035C272.302 137.425 271.802 137.73 271.132 137.95C270.472 138.18 269.662 138.295 268.702 138.295C267.742 138.295 266.927 138.18 266.257 137.95C265.597 137.73 265.097 137.425 264.757 137.035C264.427 136.645 264.262 136.195 264.262 135.685C264.262 135.185 264.427 134.745 264.757 134.365C265.097 133.975 265.597 133.67 266.257 133.45C266.927 133.23 267.742 133.12 268.702 133.12C269.662 133.12 270.472 133.23 271.132 133.45C271.802 133.67 272.302 133.975 272.632 134.365C272.972 134.745 273.142 135.185 273.142 135.685ZM271.942 135.595C271.942 135.155 271.672 134.785 271.132 134.485C270.602 134.175 269.792 134.02 268.702 134.02C267.972 134.02 267.362 134.095 266.872 134.245C266.382 134.385 266.022 134.575 265.792 134.815C265.562 135.055 265.447 135.315 265.447 135.595V135.805C265.447 136.085 265.562 136.345 265.792 136.585C266.022 136.825 266.382 137.015 266.872 137.155C267.362 137.305 267.972 137.38 268.702 137.38C269.792 137.38 270.602 137.225 271.132 136.915C271.672 136.615 271.942 136.245 271.942 135.805V135.595ZM288.601 127.825V128.785H286.516V131.815H285.376V124.465H286.516V127.825H288.601ZM281.941 125.62H277.936V124.705H281.941V125.62ZM279.841 131.605C278.901 131.605 278.146 131.425 277.576 131.065C277.016 130.695 276.736 130.21 276.736 129.61C276.736 128.83 277.146 128.285 277.966 127.975V127.885H275.746V127H283.876V127.885H281.716V127.975C282.536 128.285 282.946 128.83 282.946 129.61C282.946 130.21 282.661 130.695 282.091 131.065C281.531 131.425 280.781 131.605 279.841 131.605ZM279.661 130.69H280.021C280.571 130.69 281.021 130.57 281.371 130.33C281.721 130.09 281.896 129.755 281.896 129.325C281.896 128.895 281.721 128.56 281.371 128.32C281.031 128.08 280.581 127.96 280.021 127.96H279.661C279.101 127.96 278.646 128.08 278.296 128.32C277.956 128.56 277.786 128.895 277.786 129.325C277.786 129.755 277.961 130.09 278.311 130.33C278.661 130.57 279.111 130.69 279.661 130.69ZM279.361 137.17H286.876V138.1H279.001C278.761 138.1 278.576 138.035 278.446 137.905C278.316 137.775 278.251 137.585 278.251 137.335V134.89H285.406V133.51H278.161V132.595H286.516V135.79H279.361V137.17ZM294.225 130.735L293.595 129.865C294.915 129.265 295.925 128.725 296.625 128.245C297.325 127.765 297.81 127.29 298.08 126.82C298.36 126.35 298.5 125.805 298.5 125.185V124.72H299.67V125.215C299.67 125.725 299.605 126.18 299.475 126.58C299.355 126.98 299.16 127.36 298.89 127.72L298.965 127.75L299.355 127.465C299.485 127.365 299.62 127.315 299.76 127.315C299.89 127.315 300.01 127.35 300.12 127.42L304.41 129.805L303.765 130.69L299.31 128.125C299.17 128.045 299.035 128.005 298.905 128.005C298.765 128.005 298.63 128.055 298.5 128.155L298.485 128.17C298.085 128.56 297.545 128.955 296.865 129.355C296.195 129.755 295.315 130.215 294.225 130.735ZM305.115 133.135H299.565V138.01H298.425V133.135H292.875V132.175H305.115V133.135ZM321.029 131.98H319.874V124.465H321.029V131.98ZM310.229 128.2C310.229 127.54 310.374 126.965 310.664 126.475C310.964 125.985 311.374 125.61 311.894 125.35C312.414 125.08 313.009 124.945 313.679 124.945C314.349 124.945 314.944 125.08 315.464 125.35C315.984 125.61 316.389 125.985 316.679 126.475C316.979 126.965 317.129 127.54 317.129 128.2C317.129 128.86 316.979 129.435 316.679 129.925C316.389 130.415 315.979 130.795 315.449 131.065C314.929 131.325 314.339 131.455 313.679 131.455C313.019 131.455 312.424 131.325 311.894 131.065C311.374 130.795 310.964 130.415 310.664 129.925C310.374 129.435 310.229 128.86 310.229 128.2ZM311.429 128.455C311.429 129.075 311.634 129.575 312.044 129.955C312.464 130.325 313.009 130.51 313.679 130.51C314.349 130.51 314.889 130.325 315.299 129.955C315.709 129.575 315.914 129.075 315.914 128.455V127.93C315.914 127.31 315.709 126.815 315.299 126.445C314.889 126.075 314.349 125.89 313.679 125.89C313.009 125.89 312.464 126.075 312.044 126.445C311.634 126.815 311.429 127.31 311.429 127.93V128.455ZM322.259 137.275L321.524 138.055L319.304 135.88C319.244 135.81 319.174 135.775 319.094 135.775C319.054 135.775 319.009 135.79 318.959 135.82C318.729 136.16 318.434 136.51 318.074 136.87C317.714 137.24 317.234 137.685 316.634 138.205L314.354 135.835C314.284 135.765 314.214 135.73 314.144 135.73C314.104 135.73 314.049 135.755 313.979 135.805C313.539 136.465 312.789 137.25 311.729 138.16L311.009 137.395C311.679 136.835 312.204 136.335 312.584 135.895C312.964 135.455 313.234 135.02 313.394 134.59C313.564 134.16 313.649 133.675 313.649 133.135V132.655H314.729V133.165C314.729 133.985 314.574 134.7 314.264 135.31L314.324 135.34L314.519 135.19C314.599 135.12 314.694 135.085 314.804 135.085C314.924 135.085 315.029 135.13 315.119 135.22L316.709 136.81C317.429 136.16 317.924 135.575 318.194 135.055C318.464 134.535 318.599 133.9 318.599 133.15V132.655H319.679V133.21C319.679 133.65 319.644 134.04 319.574 134.38C319.504 134.72 319.389 135.045 319.229 135.355L319.289 135.4L319.484 135.235C319.594 135.155 319.699 135.115 319.799 135.115C319.899 135.115 319.999 135.155 320.099 135.235L322.259 137.275ZM332.618 126.52H324.698V125.545H333.743V126.61C333.743 128.83 333.528 130.945 333.098 132.955L331.988 132.775C332.408 130.745 332.618 128.705 332.618 126.655V126.52ZM335.408 135.04V136H323.168V135.04H327.968V130.225H329.093V135.04H335.408ZM338.012 134.245C338.332 134.245 338.562 134.33 338.702 134.5C338.852 134.66 338.927 134.87 338.927 135.13V135.34C338.927 135.75 338.807 136.2 338.567 136.69C338.327 137.19 337.992 137.625 337.562 137.995H336.557C336.857 137.675 337.097 137.37 337.277 137.08C337.467 136.8 337.602 136.485 337.682 136.135C337.482 136.085 337.332 135.99 337.232 135.85C337.142 135.71 337.097 135.54 337.097 135.34V135.13C337.097 134.87 337.167 134.66 337.307 134.5C337.457 134.33 337.692 134.245 338.012 134.245ZM356.819 128.41V129.37H354.734V134.35H353.594V124.465H354.734V128.41H356.819ZM352.109 131.38C351.379 131.53 350.509 131.65 349.499 131.74C348.489 131.82 347.404 131.86 346.244 131.86H344.699V125.35H350.684V126.31H345.839V130.915H346.229C347.329 130.915 348.374 130.875 349.364 130.795C350.364 130.715 351.229 130.605 351.959 130.465L352.109 131.38ZM347.699 136.825H355.034V137.77H347.309C347.069 137.77 346.884 137.705 346.754 137.575C346.624 137.445 346.559 137.255 346.559 137.005V133.27H347.699V136.825ZM358.943 130.24L358.313 129.37C359.613 128.84 360.608 128.36 361.298 127.93C361.998 127.49 362.483 127.055 362.753 126.625C363.033 126.195 363.173 125.7 363.173 125.14V124.735H364.343V125.185C364.343 125.655 364.283 126.075 364.163 126.445C364.043 126.805 363.848 127.145 363.578 127.465L363.683 127.51L364.058 127.225C364.198 127.125 364.338 127.075 364.478 127.075C364.588 127.075 364.703 127.105 364.823 127.165L369.023 129.325L368.378 130.21L363.983 127.87C363.853 127.8 363.718 127.765 363.578 127.765C363.428 127.765 363.293 127.805 363.173 127.885C362.773 128.245 362.233 128.61 361.553 128.98C360.883 129.35 360.013 129.77 358.943 130.24ZM369.788 131.47V132.445H364.313V135.145H363.173V132.445H357.548V131.47H369.788ZM360.398 136.87H368.183V137.815H360.023C359.783 137.815 359.598 137.75 359.468 137.62C359.338 137.49 359.273 137.3 359.273 137.05V133.885H360.398V136.87ZM382.082 124.465V137.485H380.942V124.465H382.082ZM377.447 126.175H373.112V125.2H377.447V126.175ZM371.072 127.975H379.232V128.905H376.982V128.995C377.432 129.215 377.777 129.545 378.017 129.985C378.257 130.415 378.377 130.95 378.377 131.59C378.377 132.24 378.237 132.805 377.957 133.285C377.687 133.755 377.312 134.115 376.832 134.365C376.352 134.615 375.812 134.74 375.212 134.74C374.612 134.74 374.072 134.615 373.592 134.365C373.112 134.115 372.732 133.755 372.452 133.285C372.182 132.805 372.047 132.24 372.047 131.59C372.047 130.95 372.167 130.415 372.407 129.985C372.647 129.545 372.992 129.215 373.442 128.995V128.905H371.072V127.975ZM377.267 131.11C377.267 130.44 377.077 129.925 376.697 129.565C376.327 129.205 375.832 129.025 375.212 129.025C374.592 129.025 374.092 129.205 373.712 129.565C373.342 129.925 373.157 130.44 373.157 131.11V131.68C373.157 132.34 373.347 132.855 373.727 133.225C374.107 133.595 374.602 133.78 375.212 133.78C375.822 133.78 376.317 133.595 376.697 133.225C377.077 132.855 377.267 132.34 377.267 131.68V131.11ZM399.406 124.465V132.625H398.311V124.465H399.406ZM395.386 128.995H393.751V128.05H395.386V124.675H396.451V132.49H395.386V128.995ZM394.141 131.65C392.951 131.96 391.446 132.115 389.626 132.115H388.441V125.32H393.391V126.25H389.506V128.215H393.211V129.13H389.506V131.215H389.911C391.501 131.215 392.861 131.065 393.991 130.765L394.141 131.65ZM390.586 133.42H399.406V138.145H398.281V134.38H390.586V133.42ZM402.475 131.965L401.83 131.08C403.19 130.38 404.23 129.76 404.95 129.22C405.68 128.67 406.185 128.125 406.465 127.585C406.745 127.035 406.885 126.405 406.885 125.695V125.185H408.055V125.725C408.055 126.305 407.99 126.825 407.86 127.285C407.74 127.735 407.535 128.16 407.245 128.56L407.32 128.605L407.695 128.32C407.825 128.22 407.955 128.17 408.085 128.17C408.215 128.17 408.345 128.215 408.475 128.305L412.84 131.02L412.18 131.92L407.665 129.01C407.535 128.92 407.395 128.875 407.245 128.875C407.115 128.875 406.985 128.925 406.855 129.025C406.445 129.465 405.89 129.92 405.19 130.39C404.49 130.85 403.585 131.375 402.475 131.965ZM413.455 135.025V136H401.215V135.025H413.455ZM416.344 125.275H425.134V126.235H417.484V128.44H424.924V129.355H417.499V131.56H425.389V132.52H416.344V125.275ZM414.589 135.025H426.829V136H414.589V135.025ZM444.138 130.555H441.978V137.515H440.838V124.495H441.978V129.595H444.138V130.555ZM439.353 132.91L439.503 133.825C437.983 134.125 436.053 134.275 433.713 134.275H432.123V125.455H438.153V126.4H433.248V129.295H437.958V130.225H433.248V133.345H433.743C435.933 133.345 437.803 133.2 439.353 132.91ZM456.117 124.465V131.71H454.962V124.465H456.117ZM445.317 128.08C445.317 127.43 445.462 126.865 445.752 126.385C446.052 125.895 446.462 125.52 446.982 125.26C447.512 125 448.107 124.87 448.767 124.87C449.427 124.87 450.017 125 450.537 125.26C451.067 125.52 451.477 125.895 451.767 126.385C452.067 126.865 452.217 127.43 452.217 128.08C452.217 128.73 452.067 129.3 451.767 129.79C451.477 130.27 451.067 130.64 450.537 130.9C450.017 131.16 449.427 131.29 448.767 131.29C448.107 131.29 447.512 131.16 446.982 130.9C446.462 130.64 446.052 130.27 445.752 129.79C445.462 129.3 445.317 128.73 445.317 128.08ZM451.002 128.32V127.825C451.002 127.215 450.797 126.73 450.387 126.37C449.977 126 449.437 125.815 448.767 125.815C448.097 125.815 447.552 126 447.132 126.37C446.722 126.73 446.517 127.215 446.517 127.825V128.32C446.517 128.93 446.722 129.42 447.132 129.79C447.552 130.16 448.097 130.345 448.767 130.345C449.427 130.345 449.962 130.16 450.372 129.79C450.792 129.42 451.002 128.93 451.002 128.32ZM447.882 137.26V132.535H448.992V134.26H454.977V132.535H456.117V138.025H448.632C448.392 138.025 448.207 137.96 448.077 137.83C447.947 137.7 447.882 137.51 447.882 137.26ZM454.977 135.235H448.992V137.05H454.977V135.235ZM468.306 124.465H469.431V137.485H468.306V124.465ZM458.946 128.365C458.946 127.745 459.101 127.2 459.411 126.73C459.721 126.25 460.146 125.885 460.686 125.635C461.226 125.375 461.836 125.245 462.516 125.245C463.196 125.245 463.806 125.375 464.346 125.635C464.886 125.885 465.311 126.25 465.621 126.73C465.931 127.2 466.086 127.745 466.086 128.365C466.086 128.985 465.931 129.53 465.621 130C465.311 130.47 464.886 130.835 464.346 131.095C463.806 131.345 463.196 131.47 462.516 131.47C461.836 131.47 461.226 131.345 460.686 131.095C460.146 130.835 459.721 130.47 459.411 130C459.101 129.53 458.946 128.985 458.946 128.365ZM464.886 128.545V128.185C464.886 127.585 464.666 127.1 464.226 126.73C463.786 126.36 463.216 126.175 462.516 126.175C461.816 126.175 461.246 126.36 460.806 126.73C460.366 127.1 460.146 127.585 460.146 128.185V128.545C460.146 129.145 460.366 129.63 460.806 130C461.246 130.37 461.816 130.555 462.516 130.555C463.216 130.555 463.786 130.37 464.226 130C464.666 129.63 464.886 129.145 464.886 128.545ZM458.316 133.78C460.016 133.78 461.656 133.74 463.236 133.66C464.816 133.58 466.156 133.455 467.256 133.285L467.376 134.2C466.246 134.38 464.886 134.52 463.296 134.62C461.716 134.71 460.091 134.755 458.421 134.755L458.316 133.78ZM487.414 135.04V136H475.174V135.04H480.724V132.475H476.974V128.41H484.474V126.205H476.899V125.26H485.614V129.325H478.114V131.53H486.004V132.475H481.864V135.04H487.414ZM497.999 126.52H490.079V125.545H499.124V126.61C499.124 128.83 498.909 130.945 498.479 132.955L497.369 132.775C497.789 130.745 497.999 128.705 497.999 126.655V126.52ZM500.789 135.04V136H488.549V135.04H493.349V130.225H494.474V135.04H500.789ZM511.088 126.805V125.515H503.768V124.675H512.183V127.63H504.953V128.905H512.558V129.76H503.843V126.805H511.088ZM514.163 130.885V131.77H501.923V130.885H514.163ZM503.798 137.38V135.115H511.268V133.855H503.708V132.97H512.333V135.955H504.863V137.245H512.723V138.145H504.548C504.308 138.145 504.123 138.08 503.993 137.95C503.863 137.82 503.798 137.63 503.798 137.38ZM531.471 130.555H529.311V137.515H528.171V124.495H529.311V129.595H531.471V130.555ZM523.266 129.715C523.396 129.715 523.506 129.77 523.596 129.88L526.521 133.63L525.651 134.395L522.711 130.54C522.681 130.48 522.631 130.45 522.561 130.45C522.511 130.45 522.461 130.48 522.411 130.54C522.151 131.12 521.801 131.72 521.361 132.34C520.921 132.95 520.326 133.7 519.576 134.59L518.706 133.855C519.576 132.865 520.241 132.02 520.701 131.32C521.171 130.61 521.506 129.9 521.706 129.19C521.916 128.48 522.021 127.665 522.021 126.745V125.335H523.176V126.73C523.176 127.92 523.001 129 522.651 129.97L522.726 130.015L522.951 129.835C523.061 129.755 523.166 129.715 523.266 129.715ZM544.456 131.05V132.01H532.216V131.05H535.471V129.28C534.921 129.05 534.506 128.75 534.226 128.38C533.956 128.01 533.821 127.59 533.821 127.12C533.821 126.34 534.201 125.71 534.961 125.23C535.721 124.74 536.846 124.495 538.336 124.495C539.826 124.495 540.951 124.74 541.711 125.23C542.471 125.71 542.851 126.34 542.851 127.12C542.851 127.59 542.711 128.01 542.431 128.38C542.161 128.75 541.751 129.05 541.201 129.28V131.05H544.456ZM538.336 128.86C539.446 128.86 540.276 128.705 540.826 128.395C541.376 128.085 541.651 127.69 541.651 127.21V127C541.651 126.53 541.371 126.14 540.811 125.83C540.261 125.52 539.436 125.365 538.336 125.365C537.236 125.365 536.411 125.52 535.861 125.83C535.311 126.14 535.036 126.53 535.036 127V127.21C535.036 127.69 535.306 128.085 535.846 128.395C536.396 128.705 537.226 128.86 538.336 128.86ZM536.566 131.05H540.106V129.595C539.616 129.695 539.026 129.745 538.336 129.745C537.646 129.745 537.056 129.695 536.566 129.595V131.05ZM542.776 135.685C542.776 136.195 542.606 136.645 542.266 137.035C541.936 137.425 541.436 137.73 540.766 137.95C540.106 138.18 539.296 138.295 538.336 138.295C537.376 138.295 536.561 138.18 535.891 137.95C535.231 137.73 534.731 137.425 534.391 137.035C534.061 136.645 533.896 136.195 533.896 135.685C533.896 135.185 534.061 134.745 534.391 134.365C534.731 133.975 535.231 133.67 535.891 133.45C536.561 133.23 537.376 133.12 538.336 133.12C539.296 133.12 540.106 133.23 540.766 133.45C541.436 133.67 541.936 133.975 542.266 134.365C542.606 134.745 542.776 135.185 542.776 135.685ZM541.576 135.595C541.576 135.155 541.306 134.785 540.766 134.485C540.236 134.175 539.426 134.02 538.336 134.02C537.606 134.02 536.996 134.095 536.506 134.245C536.016 134.385 535.656 134.575 535.426 134.815C535.196 135.055 535.081 135.315 535.081 135.595V135.805C535.081 136.085 535.196 136.345 535.426 136.585C535.656 136.825 536.016 137.015 536.506 137.155C536.996 137.305 537.606 137.38 538.336 137.38C539.426 137.38 540.236 137.225 540.766 136.915C541.306 136.615 541.576 136.245 541.576 135.805V135.595ZM558.235 127.825V128.785H556.15V131.815H555.01V124.465H556.15V127.825H558.235ZM551.575 125.62H547.57V124.705H551.575V125.62ZM549.475 131.605C548.535 131.605 547.78 131.425 547.21 131.065C546.65 130.695 546.37 130.21 546.37 129.61C546.37 128.83 546.78 128.285 547.6 127.975V127.885H545.38V127H553.51V127.885H551.35V127.975C552.17 128.285 552.58 128.83 552.58 129.61C552.58 130.21 552.295 130.695 551.725 131.065C551.165 131.425 550.415 131.605 549.475 131.605ZM549.295 130.69H549.655C550.205 130.69 550.655 130.57 551.005 130.33C551.355 130.09 551.53 129.755 551.53 129.325C551.53 128.895 551.355 128.56 551.005 128.32C550.665 128.08 550.215 127.96 549.655 127.96H549.295C548.735 127.96 548.28 128.08 547.93 128.32C547.59 128.56 547.42 128.895 547.42 129.325C547.42 129.755 547.595 130.09 547.945 130.33C548.295 130.57 548.745 130.69 549.295 130.69ZM548.995 137.17H556.51V138.1H548.635C548.395 138.1 548.21 138.035 548.08 137.905C547.95 137.775 547.885 137.585 547.885 137.335V134.89H555.04V133.51H547.795V132.595H556.15V135.79H548.995V137.17ZM563.858 130.735L563.228 129.865C564.548 129.265 565.558 128.725 566.258 128.245C566.958 127.765 567.443 127.29 567.713 126.82C567.993 126.35 568.133 125.805 568.133 125.185V124.72H569.303V125.215C569.303 125.725 569.238 126.18 569.108 126.58C568.988 126.98 568.793 127.36 568.523 127.72L568.598 127.75L568.988 127.465C569.118 127.365 569.253 127.315 569.393 127.315C569.523 127.315 569.643 127.35 569.753 127.42L574.043 129.805L573.398 130.69L568.943 128.125C568.803 128.045 568.668 128.005 568.538 128.005C568.398 128.005 568.263 128.055 568.133 128.155L568.118 128.17C567.718 128.56 567.178 128.955 566.498 129.355C565.828 129.755 564.948 130.215 563.858 130.735ZM574.748 133.135H569.198V138.01H568.058V133.135H562.508V132.175H574.748V133.135ZM588.123 135.04V136H575.883V135.04H581.433V131.575H577.653V125.35H586.398V126.325H578.793V130.6H586.533V131.575H582.573V135.04H588.123ZM604.036 131.98H602.881V124.465H604.036V131.98ZM593.236 128.2C593.236 127.54 593.381 126.965 593.671 126.475C593.971 125.985 594.381 125.61 594.901 125.35C595.421 125.08 596.016 124.945 596.686 124.945C597.356 124.945 597.951 125.08 598.471 125.35C598.991 125.61 599.396 125.985 599.686 126.475C599.986 126.965 600.136 127.54 600.136 128.2C600.136 128.86 599.986 129.435 599.686 129.925C599.396 130.415 598.986 130.795 598.456 131.065C597.936 131.325 597.346 131.455 596.686 131.455C596.026 131.455 595.431 131.325 594.901 131.065C594.381 130.795 593.971 130.415 593.671 129.925C593.381 129.435 593.236 128.86 593.236 128.2ZM594.436 128.455C594.436 129.075 594.641 129.575 595.051 129.955C595.471 130.325 596.016 130.51 596.686 130.51C597.356 130.51 597.896 130.325 598.306 129.955C598.716 129.575 598.921 129.075 598.921 128.455V127.93C598.921 127.31 598.716 126.815 598.306 126.445C597.896 126.075 597.356 125.89 596.686 125.89C596.016 125.89 595.471 126.075 595.051 126.445C594.641 126.815 594.436 127.31 594.436 127.93V128.455ZM605.266 137.275L604.531 138.055L602.311 135.88C602.251 135.81 602.181 135.775 602.101 135.775C602.061 135.775 602.016 135.79 601.966 135.82C601.736 136.16 601.441 136.51 601.081 136.87C600.721 137.24 600.241 137.685 599.641 138.205L597.361 135.835C597.291 135.765 597.221 135.73 597.151 135.73C597.111 135.73 597.056 135.755 596.986 135.805C596.546 136.465 595.796 137.25 594.736 138.16L594.016 137.395C594.686 136.835 595.211 136.335 595.591 135.895C595.971 135.455 596.241 135.02 596.401 134.59C596.571 134.16 596.656 133.675 596.656 133.135V132.655H597.736V133.165C597.736 133.985 597.581 134.7 597.271 135.31L597.331 135.34L597.526 135.19C597.606 135.12 597.701 135.085 597.811 135.085C597.931 135.085 598.036 135.13 598.126 135.22L599.716 136.81C600.436 136.16 600.931 135.575 601.201 135.055C601.471 134.535 601.606 133.9 601.606 133.15V132.655H602.686V133.21C602.686 133.65 602.651 134.04 602.581 134.38C602.511 134.72 602.396 135.045 602.236 135.355L602.296 135.4L602.491 135.235C602.601 135.155 602.706 135.115 602.806 135.115C602.906 135.115 603.006 135.155 603.106 135.235L605.266 137.275ZM607.78 127.15C607.78 126.36 608.155 125.725 608.905 125.245C609.665 124.755 610.795 124.51 612.295 124.51C613.795 124.51 614.92 124.755 615.67 125.245C616.43 125.725 616.81 126.36 616.81 127.15C616.81 127.94 616.43 128.58 615.67 129.07C614.92 129.55 613.795 129.79 612.295 129.79C610.795 129.79 609.665 129.55 608.905 129.07C608.155 128.58 607.78 127.94 607.78 127.15ZM615.595 127.255V127.045C615.595 126.565 615.32 126.17 614.77 125.86C614.23 125.55 613.405 125.395 612.295 125.395C611.185 125.395 610.355 125.55 609.805 125.86C609.265 126.17 608.995 126.565 608.995 127.045V127.255C608.995 127.725 609.27 128.115 609.82 128.425C610.37 128.735 611.195 128.89 612.295 128.89C613.395 128.89 614.22 128.735 614.77 128.425C615.32 128.115 615.595 127.725 615.595 127.255ZM618.415 130.915V131.89H606.175V130.915H618.415ZM607.99 137.23V133.3H616.6V137.995H608.74C608.5 137.995 608.315 137.93 608.185 137.8C608.055 137.67 607.99 137.48 607.99 137.23ZM615.475 134.23H609.115V137.05H615.475V134.23Z" fill="#333333"/>
</svg>
