<svg width="257" height="83" viewBox="0 0 257 83" fill="none" xmlns="http://www.w3.org/2000/svg">
<path d="M15.3629 66.6C12.2962 66.6 9.69622 66.0833 7.56289 65.05C5.42956 63.9833 3.61289 62.6167 2.11289 60.95L7.11289 55.9C9.47956 58.5667 12.3962 59.9 15.8629 59.9C17.7296 59.9 19.1129 59.5167 20.0129 58.75C20.9129 57.9833 21.3629 56.9667 21.3629 55.7C21.3629 54.7333 21.0962 53.9333 20.5629 53.3C20.0296 52.6333 18.9462 52.1833 17.3129 51.95L13.8629 51.5C10.1629 51.0333 7.44622 49.9167 5.71289 48.15C4.01289 46.3833 3.16289 44.0333 3.16289 41.1C3.16289 39.5333 3.46289 38.1 4.06289 36.8C4.66289 35.5 5.51289 34.3833 6.61289 33.45C7.74622 32.5167 9.11289 31.8 10.7129 31.3C12.3462 30.7667 14.1962 30.5 16.2629 30.5C18.8962 30.5 21.2129 30.9167 23.2129 31.75C25.2129 32.5833 26.9296 33.8 28.3629 35.4L23.3129 40.5C22.4796 39.5333 21.4629 38.75 20.2629 38.15C19.0962 37.5167 17.6129 37.2 15.8129 37.2C14.1129 37.2 12.8462 37.5 12.0129 38.1C11.1796 38.7 10.7629 39.5333 10.7629 40.6C10.7629 41.8 11.0796 42.6667 11.7129 43.2C12.3796 43.7333 13.4462 44.1167 14.9129 44.35L18.3629 44.9C21.9629 45.4667 24.6296 46.5833 26.3629 48.25C28.0962 49.8833 28.9629 52.2167 28.9629 55.25C28.9629 56.9167 28.6629 58.45 28.0629 59.85C27.4629 61.25 26.5796 62.45 25.4129 63.45C24.2796 64.45 22.8629 65.2333 21.1629 65.8C19.4629 66.3333 17.5296 66.6 15.3629 66.6ZM49.3641 66.6C46.9974 66.6 44.8641 66.2333 42.9641 65.5C41.0641 64.7333 39.4474 63.6167 38.1141 62.15C36.7807 60.65 35.7474 58.8 35.0141 56.6C34.2807 54.3667 33.9141 51.7667 33.9141 48.8C33.9141 45.8667 34.2807 43.2667 35.0141 41C35.7474 38.7 36.7807 36.7833 38.1141 35.25C39.4474 33.6833 41.0641 32.5 42.9641 31.7C44.8641 30.9 46.9974 30.5 49.3641 30.5C52.5974 30.5 55.2641 31.1667 57.3641 32.5C59.4641 33.8 61.1474 35.8667 62.4141 38.7L55.8641 42.1C55.3974 40.6333 54.6641 39.4667 53.6641 38.6C52.6974 37.7 51.2641 37.25 49.3641 37.25C47.1307 37.25 45.3307 37.9833 43.9641 39.45C42.6307 40.8833 41.9641 42.9833 41.9641 45.75V51.35C41.9641 54.1167 42.6307 56.2333 43.9641 57.7C45.3307 59.1333 47.1307 59.85 49.3641 59.85C51.2307 59.85 52.7141 59.35 53.8141 58.35C54.9474 57.3167 55.7807 56.0833 56.3141 54.65L62.5141 58.25C61.2141 60.9167 59.4974 62.9833 57.3641 64.45C55.2641 65.8833 52.5974 66.6 49.3641 66.6ZM88.7324 51.7H75.4324L75.4324 66H67.8324L67.8324 31.1H75.4324V45H88.7324V31.1H96.3324L96.3324 66H88.7324L88.7324 51.7ZM104.014 66L104.014 31.1L127.764 31.1V37.85L111.614 37.85V45L125.464 45V51.7H111.614L111.614 59.25H127.764V66L104.014 66ZM134.385 31.1L147.535 31.1C149.835 31.1 151.935 31.4667 153.835 32.2C155.735 32.9333 157.352 34.0333 158.685 35.5C160.018 36.9333 161.052 38.75 161.785 40.95C162.518 43.1167 162.885 45.65 162.885 48.55C162.885 51.45 162.518 54 161.785 56.2C161.052 58.3667 160.018 60.1833 158.685 61.65C157.352 63.0833 155.735 64.1667 153.835 64.9C151.935 65.6333 149.835 66 147.535 66H134.385V31.1ZM147.535 59.25C149.802 59.25 151.585 58.6167 152.885 57.35C154.185 56.0833 154.835 54.05 154.835 51.25V45.85C154.835 43.05 154.185 41.0167 152.885 39.75C151.585 38.4833 149.802 37.85 147.535 37.85L141.985 37.85V59.25H147.535ZM176.448 31.1V52.5C176.448 54.9667 176.932 56.8167 177.898 58.05C178.865 59.25 180.482 59.85 182.748 59.85C185.015 59.85 186.632 59.25 187.598 58.05C188.565 56.8167 189.048 54.9667 189.048 52.5V31.1H196.448V51.7C196.448 54.2667 196.198 56.5 195.698 58.4C195.232 60.2667 194.448 61.8167 193.348 63.05C192.248 64.25 190.832 65.15 189.098 65.75C187.365 66.3167 185.248 66.6 182.748 66.6C180.248 66.6 178.132 66.3167 176.398 65.75C174.665 65.15 173.248 64.25 172.148 63.05C171.048 61.8167 170.248 60.2667 169.748 58.4C169.282 56.5 169.048 54.2667 169.048 51.7V31.1H176.448ZM203.965 66V31.1L211.565 31.1V59.25H224.865V66H203.965ZM230.479 66V31.1L254.229 31.1V37.85H238.079V45H251.929V51.7L238.079 51.7V59.25L254.229 59.25V66L230.479 66Z" fill="#EDE6DB" fill-opacity="0.5"/>
<line x1="94" y1="2.5" x2="162" y2="2.5" stroke="#F5F2EC" stroke-width="5"/>
</svg>
