<svg width="690" height="159" viewBox="0 0 690 159" fill="none" xmlns="http://www.w3.org/2000/svg">
<path d="M10.6935 6.465H11.8335V19.485H10.6935V6.465ZM1.25852 15.9C2.63852 15.19 3.69352 14.54 4.42352 13.95C5.15352 13.36 5.66352 12.735 5.95352 12.075C6.25352 11.415 6.40352 10.6 6.40352 9.63V8.505H1.63352V7.53H7.54352V9.615C7.54352 10.725 7.37352 11.665 7.03352 12.435C6.70352 13.205 6.13852 13.925 5.33852 14.595C4.54852 15.255 3.41352 15.98 1.93352 16.77L1.25852 15.9ZM19.6125 7.905H15.5025V6.975H24.8325V7.905H20.7675C20.7475 8.635 20.5275 9.255 20.1075 9.765L20.1675 9.795L20.4825 9.57C20.6125 9.47 20.7475 9.42 20.8875 9.42C20.9875 9.42 21.1025 9.445 21.2325 9.495L25.3875 11.505L24.7725 12.345L20.4225 10.185C20.2825 10.115 20.1575 10.08 20.0475 10.08C19.9475 10.08 19.8475 10.105 19.7475 10.155C19.3575 10.505 18.8225 10.86 18.1425 11.22C17.4725 11.57 16.6075 11.955 15.5475 12.375L14.9475 11.55C16.1475 11.08 17.0775 10.66 17.7375 10.29C18.3975 9.92 18.8675 9.55 19.1475 9.18C19.4275 8.81 19.5825 8.385 19.6125 7.905ZM26.2875 13.785V14.76H14.0475V13.785H19.5975V11.805H20.7375V13.785H26.2875ZM16.9425 18.855H24.7125V19.8H16.5525C16.3125 19.8 16.1275 19.735 15.9975 19.605C15.8675 19.475 15.8025 19.285 15.8025 19.035V15.945H16.9425V18.855ZM43.5965 12.555H41.4365V19.515H40.2965V6.495H41.4365V11.595H43.5965V12.555ZM35.3915 11.715C35.5215 11.715 35.6315 11.77 35.7215 11.88L38.6465 15.63L37.7765 16.395L34.8365 12.54C34.8065 12.48 34.7565 12.45 34.6865 12.45C34.6365 12.45 34.5865 12.48 34.5365 12.54C34.2765 13.12 33.9265 13.72 33.4865 14.34C33.0465 14.95 32.4515 15.7 31.7015 16.59L30.8315 15.855C31.7015 14.865 32.3665 14.02 32.8265 13.32C33.2965 12.61 33.6315 11.9 33.8315 11.19C34.0415 10.48 34.1465 9.665 34.1465 8.745V7.335H35.3015V8.73C35.3015 9.92 35.1265 11 34.7765 11.97L34.8515 12.015L35.0765 11.835C35.1865 11.755 35.2915 11.715 35.3915 11.715ZM54.3605 6.465H55.5005V19.485H54.3605V6.465ZM44.7305 11.73C44.7305 10.27 45.0505 9.165 45.6905 8.415C46.3405 7.665 47.1955 7.29 48.2555 7.29C49.3055 7.29 50.1505 7.665 50.7905 8.415C51.4405 9.165 51.7655 10.27 51.7655 11.73C51.7655 12.71 51.6155 13.535 51.3155 14.205C51.0155 14.865 50.6005 15.36 50.0705 15.69C49.5405 16.01 48.9355 16.17 48.2555 16.17C47.1955 16.17 46.3405 15.795 45.6905 15.045C45.0505 14.295 44.7305 13.19 44.7305 11.73ZM50.5505 12.315V11.145C50.5505 10.215 50.3355 9.5 49.9055 9C49.4855 8.5 48.9355 8.25 48.2555 8.25C47.5655 8.25 47.0055 8.5 46.5755 9C46.1555 9.49 45.9455 10.205 45.9455 11.145V12.315C45.9455 13.255 46.1555 13.975 46.5755 14.475C47.0055 14.965 47.5655 15.21 48.2555 15.21C48.9355 15.21 49.4855 14.96 49.9055 14.46C50.3355 13.96 50.5505 13.245 50.5505 12.315ZM59.4695 7.275H68.2595V8.235H60.6095V10.44H68.0495V11.355H60.6245V13.56H68.5145V14.52H59.4695V7.275ZM57.7145 17.025H69.9545V18H57.7145V17.025ZM81.1386 6.465H82.2636V19.485H81.1386V6.465ZM71.7786 10.365C71.7786 9.745 71.9336 9.2 72.2436 8.73C72.5536 8.25 72.9786 7.885 73.5186 7.635C74.0586 7.375 74.6686 7.245 75.3486 7.245C76.0286 7.245 76.6386 7.375 77.1786 7.635C77.7186 7.885 78.1436 8.25 78.4536 8.73C78.7636 9.2 78.9186 9.745 78.9186 10.365C78.9186 10.985 78.7636 11.53 78.4536 12C78.1436 12.47 77.7186 12.835 77.1786 13.095C76.6386 13.345 76.0286 13.47 75.3486 13.47C74.6686 13.47 74.0586 13.345 73.5186 13.095C72.9786 12.835 72.5536 12.47 72.2436 12C71.9336 11.53 71.7786 10.985 71.7786 10.365ZM77.7186 10.545V10.185C77.7186 9.585 77.4986 9.1 77.0586 8.73C76.6186 8.36 76.0486 8.175 75.3486 8.175C74.6486 8.175 74.0786 8.36 73.6386 8.73C73.1986 9.1 72.9786 9.585 72.9786 10.185V10.545C72.9786 11.145 73.1986 11.63 73.6386 12C74.0786 12.37 74.6486 12.555 75.3486 12.555C76.0486 12.555 76.6186 12.37 77.0586 12C77.4986 11.63 77.7186 11.145 77.7186 10.545ZM71.1486 15.78C72.8486 15.78 74.4886 15.74 76.0686 15.66C77.6486 15.58 78.9886 15.455 80.0886 15.285L80.2086 16.2C79.0786 16.38 77.7186 16.52 76.1286 16.62C74.5486 16.71 72.9236 16.755 71.2536 16.755L71.1486 15.78ZM99.5725 6.465V19.485H98.4625V6.465H99.5725ZM95.5375 6.69H96.6325V19.125H95.5375V12.12H93.7375V15.825H88.4725V7.77H93.7375V11.175H95.5375V6.69ZM92.6575 8.7H89.5675V14.895H92.6575V8.7ZM112.617 6.465V16.35H111.462V6.465H112.617ZM101.817 10.515C101.817 9.815 101.962 9.205 102.252 8.685C102.552 8.165 102.962 7.77 103.482 7.5C104.002 7.22 104.597 7.08 105.267 7.08C105.927 7.08 106.517 7.22 107.037 7.5C107.567 7.77 107.977 8.165 108.267 8.685C108.567 9.205 108.717 9.815 108.717 10.515C108.717 11.205 108.567 11.81 108.267 12.33C107.977 12.85 107.567 13.25 107.037 13.53C106.517 13.8 105.927 13.935 105.267 13.935C104.597 13.935 104.002 13.8 103.482 13.53C102.962 13.25 102.552 12.855 102.252 12.345C101.962 11.825 101.817 11.215 101.817 10.515ZM107.502 10.83V10.2C107.502 9.54 107.292 9.015 106.872 8.625C106.462 8.225 105.927 8.025 105.267 8.025C104.597 8.025 104.052 8.225 103.632 8.625C103.222 9.025 103.017 9.55 103.017 10.2V10.83C103.017 11.48 103.227 12.005 103.647 12.405C104.067 12.795 104.607 12.99 105.267 12.99C105.927 12.99 106.462 12.795 106.872 12.405C107.292 12.005 107.502 11.48 107.502 10.83ZM104.277 19.005V15.27H105.432V18.825H112.887V19.77H105.027C104.787 19.77 104.602 19.705 104.472 19.575C104.342 19.445 104.277 19.255 104.277 19.005ZM128.395 10.35H125.695V9.405H128.395V6.465H129.535V13.365H128.395V10.35ZM119.455 13.89L118.855 13.05C120.275 12.57 121.365 12.11 122.125 11.67C122.895 11.22 123.435 10.74 123.745 10.23L118.975 10.605L118.825 9.66L124.045 9.405C124.075 9.235 124.09 9.055 124.09 8.865V7.965H119.38V7.035H125.155V8.775C125.155 9.555 124.97 10.23 124.6 10.8C124.24 11.37 123.65 11.9 122.83 12.39C122.01 12.88 120.885 13.38 119.455 13.89ZM129.895 19.125V20.1H121.93C121.69 20.1 121.505 20.035 121.375 19.905C121.245 19.775 121.18 19.585 121.18 19.335V16.65H128.395V15.135H121.09V14.175H129.535V17.595H122.335V19.125H129.895ZM142.849 6.465V19.485H141.724V12.075H139.069V11.115H141.724V6.465H142.849ZM139.654 14.925L139.789 15.84C138.319 16.14 136.424 16.29 134.104 16.29H132.529V11.28H137.059V8.415H132.484V7.455H138.184V12.21H133.654V15.36H134.149C136.309 15.36 138.144 15.215 139.654 14.925ZM154.214 8.805V7.515H146.894V6.675H155.309V9.63H148.079V10.905H155.684V11.76H146.969V8.805H154.214ZM157.289 12.885V13.77H145.049V12.885H157.289ZM146.924 19.38V17.115H154.394V15.855H146.834V14.97H155.459V17.955H147.989V19.245H155.849V20.145H147.674C147.434 20.145 147.249 20.08 147.119 19.95C146.989 19.82 146.924 19.63 146.924 19.38ZM173.532 6.465V19.485H172.437V12.495H170.412V19.125H169.317V6.69H170.412V11.55H172.437V6.465H173.532ZM167.052 8.265H163.587V7.335H167.052V8.265ZM165.837 13.08C165.957 13.08 166.072 13.135 166.182 13.245L168.642 15.93L167.862 16.605L165.387 13.8C165.337 13.75 165.282 13.725 165.222 13.725C165.162 13.725 165.112 13.75 165.072 13.8C164.842 14.24 164.537 14.7 164.157 15.18C163.777 15.66 163.287 16.205 162.687 16.815L161.922 16.155C162.672 15.395 163.247 14.74 163.647 14.19C164.047 13.63 164.332 13.08 164.502 12.54C164.682 12 164.772 11.385 164.772 10.695H162.267V9.78H168.327V10.695H165.822C165.822 11.625 165.662 12.47 165.342 13.23L165.417 13.275L165.552 13.17C165.642 13.11 165.737 13.08 165.837 13.08ZM187.581 17.04V18H175.341V17.04H180.891V13.575H177.111V7.35H185.856V8.325H178.251V12.6H185.991V13.575H182.031V17.04H187.581ZM201.346 12.78H199.306V19.485H198.181V6.465H199.306V11.82H201.346V12.78ZM197.101 15.45L197.206 16.365C196.116 16.545 194.806 16.685 193.276 16.785C191.756 16.875 190.186 16.92 188.566 16.92L188.461 15.945C189.871 15.945 191.071 15.92 192.061 15.87V13.29C191.171 13.19 190.446 12.865 189.886 12.315C189.326 11.765 189.046 11.065 189.046 10.215C189.046 9.605 189.201 9.07 189.511 8.61C189.821 8.14 190.246 7.78 190.786 7.53C191.326 7.27 191.936 7.14 192.616 7.14C193.296 7.14 193.906 7.27 194.446 7.53C194.986 7.78 195.406 8.14 195.706 8.61C196.016 9.07 196.171 9.605 196.171 10.215C196.171 11.065 195.891 11.765 195.331 12.315C194.781 12.865 194.056 13.19 193.156 13.29V15.825C194.616 15.755 195.931 15.63 197.101 15.45ZM192.616 12.39C193.316 12.39 193.886 12.21 194.326 11.85C194.766 11.48 194.986 10.995 194.986 10.395V10.05C194.986 9.45 194.766 8.97 194.326 8.61C193.886 8.24 193.316 8.055 192.616 8.055C191.916 8.055 191.346 8.24 190.906 8.61C190.466 8.97 190.246 9.45 190.246 10.05V10.395C190.246 10.995 190.466 11.48 190.906 11.85C191.346 12.21 191.916 12.39 192.616 12.39ZM215.729 12.03H212.969V11.115H215.729V9.24H212.969V8.325H215.729V6.465H216.869V14.22H215.729V12.03ZM212.459 13.095H206.324V7.125H212.459V13.095ZM211.334 8.055H207.449V12.165H211.334V8.055ZM216.944 17.34C216.944 17.89 216.784 18.38 216.464 18.81C216.154 19.25 215.684 19.595 215.054 19.845C214.424 20.095 213.654 20.22 212.744 20.22C211.834 20.22 211.059 20.095 210.419 19.845C209.789 19.595 209.314 19.25 208.994 18.81C208.684 18.38 208.529 17.89 208.529 17.34C208.529 16.79 208.684 16.3 208.994 15.87C209.314 15.43 209.789 15.085 210.419 14.835C211.059 14.585 211.834 14.46 212.744 14.46C213.654 14.46 214.424 14.585 215.054 14.835C215.684 15.085 216.154 15.43 216.464 15.87C216.784 16.3 216.944 16.79 216.944 17.34ZM215.729 17.22C215.729 16.7 215.479 16.265 214.979 15.915C214.489 15.565 213.744 15.39 212.744 15.39C211.744 15.39 210.994 15.57 210.494 15.93C209.994 16.28 209.744 16.71 209.744 17.22V17.475C209.744 17.985 209.994 18.415 210.494 18.765C210.994 19.125 211.744 19.305 212.744 19.305C213.744 19.305 214.489 19.125 214.979 18.765C215.479 18.415 215.729 17.985 215.729 17.475V17.22ZM231.248 17.04V18H219.008V17.04H224.558V13.575H220.778V7.35H229.523V8.325H221.918V12.6H229.658V13.575H225.698V17.04H231.248ZM241.548 8.805V7.515H234.228V6.675H242.643V9.63H235.413V10.905H243.018V11.76H234.303V8.805H241.548ZM244.623 12.885V13.77H232.383V12.885H244.623ZM234.258 19.38V17.115H241.728V15.855H234.168V14.97H242.793V17.955H235.323V19.245H243.183V20.145H235.008C234.768 20.145 234.583 20.08 234.453 19.95C234.323 19.82 234.258 19.63 234.258 19.38ZM261.946 9.675V10.635H259.861V13.89H258.721V6.465H259.861V9.675H261.946ZM251.371 13.14H249.871V7.17H250.996V12.195H251.386C252.466 12.195 253.496 12.155 254.476 12.075C255.456 11.985 256.301 11.87 257.011 11.73L257.161 12.645C256.451 12.795 255.596 12.915 254.596 13.005C253.596 13.095 252.521 13.14 251.371 13.14ZM256.396 17.265C256.466 17.265 256.566 17.29 256.696 17.34L260.521 19.275L259.936 20.13L255.961 18.03C255.841 17.97 255.726 17.94 255.616 17.94C255.496 17.94 255.381 17.975 255.271 18.045C254.911 18.365 254.416 18.695 253.786 19.035C253.166 19.375 252.361 19.755 251.371 20.175L250.801 19.305C251.951 18.855 252.836 18.445 253.456 18.075C254.086 17.705 254.526 17.34 254.776 16.98C255.026 16.61 255.156 16.19 255.166 15.72H251.281V14.76H260.041V15.72H256.291C256.281 16.11 256.231 16.455 256.141 16.755C256.051 17.055 255.896 17.34 255.676 17.61L255.736 17.64L256.006 17.43C256.146 17.32 256.276 17.265 256.396 17.265ZM271.075 7.53H266.515V6.6H271.075V7.53ZM268.225 9.825H264.1V8.895H273.505V9.825H269.38C269.33 10.415 269.115 10.915 268.735 11.325L268.84 11.355L269.125 11.16C269.265 11.06 269.41 11.01 269.56 11.01C269.66 11.01 269.775 11.035 269.905 11.085L274.03 12.84L273.415 13.68L269.065 11.73C268.945 11.67 268.82 11.64 268.69 11.64C268.54 11.64 268.41 11.675 268.3 11.745L268.255 11.76C267.865 12.06 267.34 12.37 266.68 12.69C266.03 13 265.19 13.345 264.16 13.725L263.56 12.9C264.7 12.5 265.595 12.14 266.245 11.82C266.905 11.5 267.385 11.185 267.685 10.875C267.985 10.555 268.165 10.205 268.225 9.825ZM274.915 15.615H269.365V20.01H268.225V15.615H262.675V14.67H274.915V15.615ZM285.499 8.52H277.579V7.545H286.624V8.61C286.624 10.83 286.409 12.945 285.979 14.955L284.869 14.775C285.289 12.745 285.499 10.705 285.499 8.655V8.52ZM288.289 17.04V18H276.049V17.04H280.849V12.225H281.974V17.04H288.289ZM302.988 6.465H304.128V19.485H302.988V6.465ZM293.358 11.73C293.358 10.27 293.678 9.165 294.318 8.415C294.968 7.665 295.823 7.29 296.883 7.29C297.933 7.29 298.778 7.665 299.418 8.415C300.068 9.165 300.393 10.27 300.393 11.73C300.393 12.71 300.243 13.535 299.943 14.205C299.643 14.865 299.228 15.36 298.698 15.69C298.168 16.01 297.563 16.17 296.883 16.17C295.823 16.17 294.968 15.795 294.318 15.045C293.678 14.295 293.358 13.19 293.358 11.73ZM299.178 12.315V11.145C299.178 10.215 298.963 9.5 298.533 9C298.113 8.5 297.563 8.25 296.883 8.25C296.193 8.25 295.633 8.5 295.203 9C294.783 9.49 294.573 10.205 294.573 11.145V12.315C294.573 13.255 294.783 13.975 295.203 14.475C295.633 14.965 296.193 15.21 296.883 15.21C297.563 15.21 298.113 14.96 298.533 14.46C298.963 13.96 299.178 13.245 299.178 12.315ZM315.507 8.805V7.515H308.187V6.675H316.602V9.63H309.372V10.905H316.977V11.76H308.262V8.805H315.507ZM318.582 12.885V13.77H306.342V12.885H318.582ZM308.217 19.38V17.115H315.687V15.855H308.127V14.97H316.752V17.955H309.282V19.245H317.142V20.145H308.967C308.727 20.145 308.542 20.08 308.412 19.95C308.282 19.82 308.217 19.63 308.217 19.38ZM333.281 6.465H334.421V19.485H333.281V6.465ZM323.846 15.9C325.226 15.19 326.281 14.54 327.011 13.95C327.741 13.36 328.251 12.735 328.541 12.075C328.841 11.415 328.991 10.6 328.991 9.63V8.505H324.221V7.53H330.131V9.615C330.131 10.725 329.961 11.665 329.621 12.435C329.291 13.205 328.726 13.925 327.926 14.595C327.136 15.255 326.001 15.98 324.521 16.77L323.846 15.9ZM342.2 7.92H338.135V7.005H347.375V7.92H343.355C343.345 8.3 343.29 8.645 343.19 8.955C343.09 9.255 342.925 9.54 342.695 9.81L342.77 9.84L343.085 9.63C343.215 9.53 343.345 9.48 343.475 9.48C343.585 9.48 343.7 9.51 343.82 9.57L347.93 11.58L347.3 12.42L343.025 10.245C342.895 10.175 342.77 10.14 342.65 10.14C342.52 10.14 342.405 10.17 342.305 10.23C341.915 10.58 341.385 10.935 340.715 11.295C340.055 11.645 339.21 12.03 338.18 12.45L337.58 11.625C338.77 11.155 339.69 10.73 340.34 10.35C340.99 9.97 341.455 9.59 341.735 9.21C342.015 8.83 342.17 8.4 342.2 7.92ZM348.875 13.515V14.505H343.4V17.16H342.26V14.505H336.635V13.515H348.875ZM339.485 18.87H347.27V19.815H339.11C338.87 19.815 338.685 19.75 338.555 19.62C338.425 19.49 338.36 19.3 338.36 19.05V15.96H339.485V18.87ZM351.404 10.545C351.404 9.875 351.574 9.275 351.914 8.745C352.264 8.205 352.794 7.775 353.504 7.455C354.214 7.135 355.089 6.975 356.129 6.975C357.169 6.975 358.044 7.135 358.754 7.455C359.464 7.775 359.989 8.205 360.329 8.745C360.679 9.275 360.854 9.875 360.854 10.545C360.854 11.215 360.679 11.82 360.329 12.36C359.989 12.9 359.464 13.33 358.754 13.65C358.044 13.97 357.169 14.13 356.129 14.13C355.089 14.13 354.214 13.97 353.504 13.65C352.794 13.33 352.264 12.9 351.914 12.36C351.574 11.82 351.404 11.215 351.404 10.545ZM359.624 10.725V10.38C359.624 9.92 359.499 9.505 359.249 9.135C359.009 8.755 358.624 8.455 358.094 8.235C357.574 8.005 356.919 7.89 356.129 7.89C355.339 7.89 354.679 8.005 354.149 8.235C353.629 8.455 353.244 8.755 352.994 9.135C352.754 9.505 352.634 9.92 352.634 10.38V10.725C352.634 11.435 352.924 12.025 353.504 12.495C354.084 12.965 354.959 13.2 356.129 13.2C357.299 13.2 358.174 12.965 358.754 12.495C359.334 12.025 359.624 11.435 359.624 10.725ZM350.009 17.025H362.249V18H350.009V17.025ZM375.623 17.04V18H363.383V17.04H368.933V14.475H365.183V10.41H372.683V8.205H365.108V7.26H373.823V11.325H366.323V13.53H374.213V14.475H370.073V17.04H375.623ZM392.932 12.555H390.772V19.515H389.632V6.495H390.772V11.595H392.932V12.555ZM384.802 11.97C384.922 11.97 385.037 12.025 385.147 12.135L388.072 15.6L387.217 16.335L384.277 12.75C384.217 12.69 384.152 12.66 384.082 12.66C384.012 12.66 383.962 12.69 383.932 12.75C383.662 13.29 383.307 13.845 382.867 14.415C382.437 14.975 381.847 15.68 381.097 16.53L380.257 15.825C381.127 14.905 381.792 14.11 382.252 13.44C382.722 12.77 383.062 12.105 383.272 11.445C383.482 10.775 383.587 10.015 383.587 9.165V8.595H380.647V7.635H387.637V8.595H384.712V9.195C384.712 10.315 384.532 11.32 384.172 12.21L384.247 12.27L384.487 12.09C384.587 12.01 384.692 11.97 384.802 11.97ZM403.771 12.45H401.101V11.52H403.771V9.48H401.101V8.55H403.771V6.465H404.911V16.35H403.771V12.45ZM397.426 13.95C396.766 13.95 396.181 13.815 395.671 13.545C395.161 13.265 394.761 12.865 394.471 12.345C394.181 11.825 394.036 11.215 394.036 10.515C394.036 9.815 394.181 9.205 394.471 8.685C394.761 8.165 395.161 7.77 395.671 7.5C396.181 7.22 396.766 7.08 397.426 7.08C398.086 7.08 398.671 7.22 399.181 7.5C399.691 7.77 400.091 8.165 400.381 8.685C400.671 9.205 400.816 9.815 400.816 10.515C400.816 11.215 400.671 11.825 400.381 12.345C400.091 12.865 399.691 13.265 399.181 13.545C398.671 13.815 398.086 13.95 397.426 13.95ZM397.426 13.02C398.076 13.02 398.601 12.825 399.001 12.435C399.411 12.035 399.616 11.505 399.616 10.845V10.2C399.616 9.54 399.411 9.01 399.001 8.61C398.601 8.21 398.076 8.01 397.426 8.01C396.766 8.01 396.231 8.21 395.821 8.61C395.421 9.01 395.221 9.54 395.221 10.2V10.845C395.221 11.505 395.421 12.035 395.821 12.435C396.231 12.825 396.766 13.02 397.426 13.02ZM405.181 18.825V19.77H397.321C397.081 19.77 396.896 19.705 396.766 19.575C396.636 19.445 396.571 19.255 396.571 19.005V15.27H397.726V18.825H405.181ZM408.31 13.965L407.665 13.08C409.025 12.38 410.065 11.76 410.785 11.22C411.515 10.67 412.02 10.125 412.3 9.585C412.58 9.035 412.72 8.405 412.72 7.695V7.185H413.89V7.725C413.89 8.305 413.825 8.825 413.695 9.285C413.575 9.735 413.37 10.16 413.08 10.56L413.155 10.605L413.53 10.32C413.66 10.22 413.79 10.17 413.92 10.17C414.05 10.17 414.18 10.215 414.31 10.305L418.675 13.02L418.015 13.92L413.5 11.01C413.37 10.92 413.23 10.875 413.08 10.875C412.95 10.875 412.82 10.925 412.69 11.025C412.28 11.465 411.725 11.92 411.025 12.39C410.325 12.85 409.42 13.375 408.31 13.965ZM419.29 17.025V18H407.05V17.025H419.29ZM430.504 10.56H427.804V9.615H430.504V6.465H431.644V14.01H430.504V10.56ZM428.524 13.305C427.004 13.615 425.094 13.77 422.794 13.77H421.324V9.9H425.704V7.98H421.264V7.065H426.799V10.8H422.419V12.855H422.884C424.974 12.855 426.804 12.71 428.374 12.42L428.524 13.305ZM431.659 14.775V20.025H424.174C423.934 20.025 423.749 19.96 423.619 19.83C423.489 19.7 423.424 19.51 423.424 19.26V14.775H424.534V16.41H430.534V14.775H431.659ZM430.534 17.355H424.534V19.065H430.534V17.355ZM445.364 6.465V19.485H444.254V6.465H445.364ZM441.239 6.69H442.334V19.125H441.239V12.51H438.974C438.694 13.25 438.234 13.945 437.594 14.595C436.964 15.235 436.049 15.955 434.849 16.755L434.099 15.99C435.229 15.26 436.089 14.61 436.679 14.04C437.269 13.46 437.684 12.855 437.924 12.225C438.164 11.585 438.284 10.8 438.284 9.87V8.715H434.444V7.8H439.379V9.84C439.379 10.49 439.329 11.065 439.229 11.565H441.239V6.69ZM460.812 12.45H458.142V11.52H460.812V9.48H458.142V8.55H460.812V6.465H461.952V16.35H460.812V12.45ZM454.467 13.95C453.807 13.95 453.222 13.815 452.712 13.545C452.202 13.265 451.802 12.865 451.512 12.345C451.222 11.825 451.077 11.215 451.077 10.515C451.077 9.815 451.222 9.205 451.512 8.685C451.802 8.165 452.202 7.77 452.712 7.5C453.222 7.22 453.807 7.08 454.467 7.08C455.127 7.08 455.712 7.22 456.222 7.5C456.732 7.77 457.132 8.165 457.422 8.685C457.712 9.205 457.857 9.815 457.857 10.515C457.857 11.215 457.712 11.825 457.422 12.345C457.132 12.865 456.732 13.265 456.222 13.545C455.712 13.815 455.127 13.95 454.467 13.95ZM454.467 13.02C455.117 13.02 455.642 12.825 456.042 12.435C456.452 12.035 456.657 11.505 456.657 10.845V10.2C456.657 9.54 456.452 9.01 456.042 8.61C455.642 8.21 455.117 8.01 454.467 8.01C453.807 8.01 453.272 8.21 452.862 8.61C452.462 9.01 452.262 9.54 452.262 10.2V10.845C452.262 11.505 452.462 12.035 452.862 12.435C453.272 12.825 453.807 13.02 454.467 13.02ZM462.222 18.825V19.77H454.362C454.122 19.77 453.937 19.705 453.807 19.575C453.677 19.445 453.612 19.255 453.612 19.005V15.27H454.767V18.825H462.222ZM474.186 11.79H471.231V10.875H474.186V9.12H471.231V8.205H474.186V6.465H475.326V13.29H474.186V11.79ZM465.201 13.53L464.601 12.675C465.921 12.185 466.931 11.74 467.631 11.34C468.331 10.94 468.821 10.525 469.101 10.095C469.381 9.665 469.521 9.145 469.521 8.535V8.01H464.976V7.05H470.661V8.4C470.661 9.23 470.501 9.925 470.181 10.485C469.861 11.035 469.316 11.545 468.546 12.015C467.776 12.475 466.661 12.98 465.201 13.53ZM475.686 19.125V20.1H467.721C467.481 20.1 467.296 20.035 467.166 19.905C467.036 19.775 466.971 19.585 466.971 19.335V16.62H474.171V15.075H466.881V14.115H475.326V17.58H468.126V19.125H475.686ZM488.641 6.465V19.485H487.516V6.465H488.641ZM486.436 15.45L486.541 16.365C485.411 16.545 484.056 16.685 482.476 16.785C480.896 16.875 479.266 16.92 477.586 16.92L477.496 15.945C478.956 15.945 480.201 15.92 481.231 15.87V12.96H478.606V7.47H485.071V8.415H479.731V12.015H485.191V12.96H482.326V15.825C483.846 15.755 485.216 15.63 486.436 15.45ZM501.34 11.655H492.715V6.945H493.84V10.71H501.34V11.655ZM503.08 13.32V14.295H490.84V13.32H503.08ZM493.735 18.795H501.505V19.755H493.345C493.105 19.755 492.92 19.69 492.79 19.56C492.66 19.43 492.595 19.24 492.595 18.99V15.705H493.735V18.795ZM518.933 6.465V19.485H517.808V11.79H515.033V10.83H517.808V6.465H518.933ZM512.438 11.715C512.558 11.715 512.663 11.77 512.753 11.88L515.693 15.63L514.823 16.395L511.883 12.525C511.843 12.475 511.793 12.45 511.733 12.45C511.673 12.45 511.623 12.475 511.583 12.525C511.333 13.105 510.988 13.7 510.548 14.31C510.108 14.92 509.508 15.68 508.748 16.59L507.878 15.855C508.748 14.865 509.413 14.02 509.873 13.32C510.343 12.61 510.678 11.9 510.878 11.19C511.088 10.48 511.193 9.665 511.193 8.745V7.335H512.333V8.73C512.333 9.94 512.168 11.02 511.838 11.97L511.898 12.015L512.108 11.835C512.218 11.755 512.328 11.715 512.438 11.715ZM522.828 7.17H523.953V9.66H530.553V7.17H531.678V14.07H522.828V7.17ZM530.553 13.11V10.62H523.953V13.11H530.553ZM521.133 17.025H533.373V18H521.133V17.025ZM548.146 10.35H545.446V9.405H548.146V6.465H549.286V13.365H548.146V10.35ZM539.206 13.89L538.606 13.05C540.026 12.57 541.116 12.11 541.876 11.67C542.646 11.22 543.186 10.74 543.496 10.23L538.726 10.605L538.576 9.66L543.796 9.405C543.826 9.235 543.841 9.055 543.841 8.865V7.965H539.131V7.035H544.906V8.775C544.906 9.555 544.721 10.23 544.351 10.8C543.991 11.37 543.401 11.9 542.581 12.39C541.761 12.88 540.636 13.38 539.206 13.89ZM549.646 19.125V20.1H541.681C541.441 20.1 541.256 20.035 541.126 19.905C540.996 19.775 540.931 19.585 540.931 19.335V16.65H548.146V15.135H540.841V14.175H549.286V17.595H542.086V19.125H549.646ZM562.6 6.465V19.485H561.475V12.075H558.82V11.115H561.475V6.465H562.6ZM559.405 14.925L559.54 15.84C558.07 16.14 556.175 16.29 553.855 16.29H552.28V11.28H556.81V8.415H552.235V7.455H557.935V12.21H553.405V15.36H553.9C556.06 15.36 557.895 15.215 559.405 14.925ZM573.964 8.805V7.515H566.644V6.675H575.059V9.63H567.829V10.905H575.434V11.76H566.719V8.805H573.964ZM577.039 12.885V13.77H564.799V12.885H577.039ZM566.674 19.38V17.115H574.144V15.855H566.584V14.97H575.209V17.955H567.739V19.245H575.599V20.145H567.424C567.184 20.145 566.999 20.08 566.869 19.95C566.739 19.82 566.674 19.63 566.674 19.38ZM591.813 9.93H588.948V8.985H591.813V6.465H592.953V13.35H591.813V9.93ZM585.708 10.41C585.638 10.41 585.573 10.445 585.513 10.515C585.243 10.925 584.893 11.355 584.463 11.805C584.033 12.245 583.463 12.78 582.753 13.41L581.913 12.675C582.763 11.945 583.418 11.325 583.878 10.815C584.338 10.295 584.668 9.785 584.868 9.285C585.068 8.775 585.168 8.2 585.168 7.56V6.78H586.323V7.62C586.323 8.49 586.148 9.29 585.798 10.02L585.858 10.065L586.113 9.84C586.233 9.75 586.343 9.705 586.443 9.705C586.553 9.705 586.658 9.75 586.758 9.84L589.593 12.345L588.798 13.155L585.903 10.5C585.843 10.44 585.778 10.41 585.708 10.41ZM593.313 19.125V20.1H585.348C585.108 20.1 584.923 20.035 584.793 19.905C584.663 19.775 584.598 19.585 584.598 19.335V16.62H591.798V15.09H584.508V14.115H592.953V17.58H585.753V19.125H593.313ZM605.187 9.69V6.465H606.327V14.295H605.187V10.62H602.457V9.69H605.187ZM596.277 13.845L595.422 13.125C596.262 12.465 596.912 11.895 597.372 11.415C597.832 10.925 598.162 10.445 598.362 9.975C598.572 9.495 598.677 8.96 598.677 8.37V8.22H595.812V7.26H602.652V8.22H599.817V8.415C599.817 9.265 599.642 10.01 599.292 10.65L599.382 10.695L599.622 10.515C599.732 10.435 599.842 10.395 599.952 10.395C600.082 10.395 600.197 10.44 600.297 10.53L603.087 12.87L602.247 13.62L599.412 11.16C599.332 11.1 599.257 11.07 599.187 11.07C599.107 11.07 599.037 11.1 598.977 11.16C598.707 11.55 598.362 11.95 597.942 12.36C597.522 12.77 596.967 13.265 596.277 13.845ZM606.402 17.4C606.402 17.94 606.242 18.42 605.922 18.84C605.612 19.27 605.137 19.605 604.497 19.845C603.867 20.095 603.097 20.22 602.187 20.22C601.267 20.22 600.487 20.095 599.847 19.845C599.217 19.605 598.742 19.27 598.422 18.84C598.112 18.42 597.957 17.94 597.957 17.4C597.957 16.86 598.112 16.38 598.422 15.96C598.742 15.53 599.217 15.195 599.847 14.955C600.487 14.705 601.267 14.58 602.187 14.58C603.097 14.58 603.867 14.705 604.497 14.955C605.137 15.195 605.612 15.53 605.922 15.96C606.242 16.38 606.402 16.86 606.402 17.4ZM605.202 17.28C605.202 16.77 604.952 16.345 604.452 16.005C603.952 15.655 603.197 15.48 602.187 15.48C601.167 15.48 600.402 15.655 599.892 16.005C599.392 16.345 599.142 16.77 599.142 17.28V17.535C599.142 18.035 599.392 18.455 599.892 18.795C600.402 19.145 601.167 19.32 602.187 19.32C603.197 19.32 603.952 19.145 604.452 18.795C604.952 18.455 605.202 18.035 605.202 17.535V17.28Z" fill="#333333"/>
<rect y="48" width="114" height="49" rx="24.5" fill="#EDE6DB"/>
<rect x="72" y="55" width="35.4273" height="35.4273" rx="17.7137" fill="white"/>
<path d="M10.29 78V67.53H16.995V69.03H11.985V71.94H16.53V73.44H11.985V76.5H16.995V78H10.29ZM19.1816 67.53H22.8866C23.5566 67.53 24.1616 67.64 24.7016 67.86C25.2516 68.08 25.7166 68.41 26.0966 68.85C26.4866 69.28 26.7866 69.825 26.9966 70.485C27.2066 71.135 27.3116 71.895 27.3116 72.765C27.3116 73.635 27.2066 74.4 26.9966 75.06C26.7866 75.71 26.4866 76.255 26.0966 76.695C25.7166 77.125 25.2516 77.45 24.7016 77.67C24.1616 77.89 23.5566 78 22.8866 78H19.1816V67.53ZM22.8866 76.5C23.6666 76.5 24.2966 76.255 24.7766 75.765C25.2566 75.275 25.4966 74.555 25.4966 73.605V71.925C25.4966 70.975 25.2566 70.255 24.7766 69.765C24.2966 69.275 23.6666 69.03 22.8866 69.03H20.8766V76.5H22.8866ZM29.4209 78V67.53H36.1259V69.03H31.1159V71.94H35.6609V73.44H31.1159V76.5H36.1259V78H29.4209ZM41.5525 78.18C40.9725 78.18 40.4525 78.085 39.9925 77.895C39.5425 77.705 39.1575 77.435 38.8375 77.085C38.5275 76.725 38.2875 76.295 38.1175 75.795C37.9475 75.295 37.8625 74.73 37.8625 74.1C37.8625 73.34 37.9775 72.625 38.2075 71.955C38.4375 71.285 38.7325 70.67 39.0925 70.11C39.4525 69.55 39.8525 69.055 40.2925 68.625C40.7425 68.185 41.1825 67.82 41.6125 67.53H43.8625C43.2725 67.96 42.7425 68.375 42.2725 68.775C41.8025 69.175 41.3925 69.585 41.0425 70.005C40.6925 70.425 40.3975 70.87 40.1575 71.34C39.9275 71.81 39.7475 72.325 39.6175 72.885L39.7225 72.915C39.8325 72.705 39.9575 72.51 40.0975 72.33C40.2475 72.14 40.4175 71.975 40.6075 71.835C40.8075 71.695 41.0325 71.585 41.2825 71.505C41.5325 71.425 41.8225 71.385 42.1525 71.385C42.5925 71.385 42.9975 71.46 43.3675 71.61C43.7475 71.76 44.0725 71.98 44.3425 72.27C44.6225 72.55 44.8375 72.89 44.9875 73.29C45.1475 73.69 45.2275 74.135 45.2275 74.625C45.2275 75.155 45.1375 75.64 44.9575 76.08C44.7875 76.51 44.5425 76.88 44.2225 77.19C43.9025 77.5 43.5125 77.745 43.0525 77.925C42.6025 78.095 42.1025 78.18 41.5525 78.18ZM41.5525 76.8C42.1625 76.8 42.6375 76.64 42.9775 76.32C43.3175 75.99 43.4875 75.51 43.4875 74.88V74.67C43.4875 74.04 43.3175 73.565 42.9775 73.245C42.6375 72.915 42.1625 72.75 41.5525 72.75C40.9425 72.75 40.4675 72.915 40.1275 73.245C39.7875 73.565 39.6175 74.04 39.6175 74.67V74.88C39.6175 75.51 39.7875 75.99 40.1275 76.32C40.4675 76.64 40.9425 76.8 41.5525 76.8ZM47.3066 67.53H51.0116C51.6816 67.53 52.2866 67.64 52.8266 67.86C53.3766 68.08 53.8416 68.41 54.2216 68.85C54.6116 69.28 54.9116 69.825 55.1216 70.485C55.3316 71.135 55.4366 71.895 55.4366 72.765C55.4366 73.635 55.3316 74.4 55.1216 75.06C54.9116 75.71 54.6116 76.255 54.2216 76.695C53.8416 77.125 53.3766 77.45 52.8266 77.67C52.2866 77.89 51.6816 78 51.0116 78H47.3066V67.53ZM51.0116 76.5C51.7916 76.5 52.4216 76.255 52.9016 75.765C53.3816 75.275 53.6216 74.555 53.6216 73.605V71.925C53.6216 70.975 53.3816 70.255 52.9016 69.765C52.4216 69.275 51.7916 69.03 51.0116 69.03H49.0016V76.5H51.0116ZM57.5459 67.53H62.1809C63.0509 67.53 63.7309 67.775 64.2209 68.265C64.7209 68.755 64.9709 69.41 64.9709 70.23C64.9709 70.62 64.9159 70.955 64.8059 71.235C64.6959 71.505 64.5559 71.73 64.3859 71.91C64.2159 72.08 64.0209 72.21 63.8009 72.3C63.5809 72.38 63.3659 72.43 63.1559 72.45V72.54C63.3659 72.55 63.5959 72.6 63.8459 72.69C64.1059 72.78 64.3459 72.925 64.5659 73.125C64.7859 73.315 64.9709 73.565 65.1209 73.875C65.2709 74.175 65.3459 74.545 65.3459 74.985C65.3459 75.405 65.2759 75.8 65.1359 76.17C65.0059 76.54 64.8209 76.86 64.5809 77.13C64.3409 77.4 64.0559 77.615 63.7259 77.775C63.3959 77.925 63.0359 78 62.6459 78H57.5459V67.53ZM59.2409 76.545H62.1509C62.5909 76.545 62.9359 76.43 63.1859 76.2C63.4359 75.97 63.5609 75.64 63.5609 75.21V74.7C63.5609 74.27 63.4359 73.94 63.1859 73.71C62.9359 73.48 62.5909 73.365 62.1509 73.365H59.2409V76.545ZM59.2409 71.955H61.8659C62.2859 71.955 62.6109 71.85 62.8409 71.64C63.0709 71.42 63.1859 71.11 63.1859 70.71V70.23C63.1859 69.83 63.0709 69.525 62.8409 69.315C62.6109 69.095 62.2859 68.985 61.8659 68.985H59.2409V71.955Z" fill="#333333"/>
<rect x="288" y="48" width="114" height="49" rx="24.5" fill="#1D5C63"/>
<rect x="360" y="55" width="35.4273" height="35.4273" rx="17.7137" fill="white"/>
<path d="M298.32 78V76.59H301.26V68.76H301.14L298.71 71.355L297.675 70.425L300.345 67.53H302.925V76.59H305.475V78H298.32ZM307.284 67.53H310.989C311.659 67.53 312.264 67.64 312.804 67.86C313.354 68.08 313.819 68.41 314.199 68.85C314.589 69.28 314.889 69.825 315.099 70.485C315.309 71.135 315.414 71.895 315.414 72.765C315.414 73.635 315.309 74.4 315.099 75.06C314.889 75.71 314.589 76.255 314.199 76.695C313.819 77.125 313.354 77.45 312.804 77.67C312.264 77.89 311.659 78 310.989 78H307.284V67.53ZM310.989 76.5C311.769 76.5 312.399 76.255 312.879 75.765C313.359 75.275 313.599 74.555 313.599 73.605V71.925C313.599 70.975 313.359 70.255 312.879 69.765C312.399 69.275 311.769 69.03 310.989 69.03H308.979V76.5H310.989ZM323.853 69H319.203L318.933 72.705H319.038C319.158 72.495 319.283 72.31 319.413 72.15C319.543 71.98 319.693 71.835 319.863 71.715C320.033 71.595 320.228 71.505 320.448 71.445C320.668 71.375 320.928 71.34 321.228 71.34C321.678 71.34 322.093 71.415 322.473 71.565C322.863 71.715 323.198 71.93 323.478 72.21C323.768 72.49 323.993 72.835 324.153 73.245C324.313 73.645 324.393 74.1 324.393 74.61C324.393 75.13 324.308 75.61 324.138 76.05C323.978 76.49 323.738 76.87 323.418 77.19C323.098 77.5 322.703 77.745 322.233 77.925C321.773 78.095 321.248 78.18 320.658 78.18C320.188 78.18 319.773 78.125 319.413 78.015C319.053 77.915 318.733 77.78 318.453 77.61C318.183 77.43 317.943 77.23 317.733 77.01C317.533 76.78 317.353 76.545 317.193 76.305L318.423 75.33C318.553 75.54 318.688 75.73 318.828 75.9C318.968 76.07 319.128 76.22 319.308 76.35C319.488 76.48 319.688 76.58 319.908 76.65C320.138 76.72 320.398 76.755 320.688 76.755C321.308 76.755 321.783 76.585 322.113 76.245C322.453 75.905 322.623 75.435 322.623 74.835V74.655C322.623 74.055 322.453 73.585 322.113 73.245C321.783 72.905 321.308 72.735 320.688 72.735C320.238 72.735 319.878 72.82 319.608 72.99C319.338 73.16 319.108 73.35 318.918 73.56L317.523 73.365L317.913 67.53H323.853V69ZM330.448 78.18C329.078 78.18 328.003 77.72 327.223 76.8C326.443 75.87 326.053 74.525 326.053 72.765C326.053 71.885 326.153 71.11 326.353 70.44C326.553 69.77 326.843 69.205 327.223 68.745C327.603 68.285 328.063 67.94 328.603 67.71C329.153 67.47 329.768 67.35 330.448 67.35C331.358 67.35 332.118 67.55 332.728 67.95C333.348 68.35 333.833 68.94 334.183 69.72L332.758 70.5C332.578 70 332.298 69.605 331.918 69.315C331.548 69.015 331.058 68.865 330.448 68.865C329.638 68.865 329.003 69.14 328.543 69.69C328.083 70.24 327.853 71 327.853 71.97V73.56C327.853 74.53 328.083 75.29 328.543 75.84C329.003 76.39 329.638 76.665 330.448 76.665C331.078 76.665 331.588 76.505 331.978 76.185C332.378 75.855 332.673 75.435 332.863 74.925L334.228 75.75C333.878 76.51 333.388 77.105 332.758 77.535C332.128 77.965 331.358 78.18 330.448 78.18ZM339.264 78.18C338.684 78.18 338.164 78.085 337.704 77.895C337.254 77.705 336.869 77.435 336.549 77.085C336.239 76.725 335.999 76.295 335.829 75.795C335.659 75.295 335.574 74.73 335.574 74.1C335.574 73.34 335.689 72.625 335.919 71.955C336.149 71.285 336.444 70.67 336.804 70.11C337.164 69.55 337.564 69.055 338.004 68.625C338.454 68.185 338.894 67.82 339.324 67.53H341.574C340.984 67.96 340.454 68.375 339.984 68.775C339.514 69.175 339.104 69.585 338.754 70.005C338.404 70.425 338.109 70.87 337.869 71.34C337.639 71.81 337.459 72.325 337.329 72.885L337.434 72.915C337.544 72.705 337.669 72.51 337.809 72.33C337.959 72.14 338.129 71.975 338.319 71.835C338.519 71.695 338.744 71.585 338.994 71.505C339.244 71.425 339.534 71.385 339.864 71.385C340.304 71.385 340.709 71.46 341.079 71.61C341.459 71.76 341.784 71.98 342.054 72.27C342.334 72.55 342.549 72.89 342.699 73.29C342.859 73.69 342.939 74.135 342.939 74.625C342.939 75.155 342.849 75.64 342.669 76.08C342.499 76.51 342.254 76.88 341.934 77.19C341.614 77.5 341.224 77.745 340.764 77.925C340.314 78.095 339.814 78.18 339.264 78.18ZM339.264 76.8C339.874 76.8 340.349 76.64 340.689 76.32C341.029 75.99 341.199 75.51 341.199 74.88V74.67C341.199 74.04 341.029 73.565 340.689 73.245C340.349 72.915 339.874 72.75 339.264 72.75C338.654 72.75 338.179 72.915 337.839 73.245C337.499 73.565 337.329 74.04 337.329 74.67V74.88C337.329 75.51 337.499 75.99 337.839 76.32C338.179 76.64 338.654 76.8 339.264 76.8ZM347.659 71.835C348.309 71.835 348.789 71.7 349.099 71.43C349.409 71.15 349.564 70.795 349.564 70.365V70.26C349.564 69.78 349.414 69.415 349.114 69.165C348.814 68.905 348.409 68.775 347.899 68.775C347.399 68.775 346.974 68.89 346.624 69.12C346.274 69.34 345.979 69.65 345.739 70.05L344.614 69.075C344.774 68.845 344.954 68.625 345.154 68.415C345.354 68.205 345.589 68.025 345.859 67.875C346.129 67.715 346.434 67.59 346.774 67.5C347.114 67.4 347.504 67.35 347.944 67.35C348.434 67.35 348.889 67.41 349.309 67.53C349.729 67.65 350.089 67.83 350.389 68.07C350.689 68.3 350.924 68.585 351.094 68.925C351.264 69.255 351.349 69.63 351.349 70.05C351.349 70.38 351.294 70.68 351.184 70.95C351.084 71.22 350.939 71.46 350.749 71.67C350.569 71.87 350.354 72.035 350.104 72.165C349.864 72.295 349.609 72.39 349.339 72.45V72.525C349.639 72.585 349.919 72.685 350.179 72.825C350.449 72.955 350.684 73.13 350.884 73.35C351.084 73.56 351.239 73.815 351.349 74.115C351.469 74.405 351.529 74.74 351.529 75.12C351.529 75.58 351.439 76 351.259 76.38C351.079 76.75 350.824 77.07 350.494 77.34C350.174 77.61 349.784 77.82 349.324 77.97C348.864 78.11 348.354 78.18 347.794 78.18C347.304 78.18 346.874 78.125 346.504 78.015C346.134 77.915 345.804 77.78 345.514 77.61C345.234 77.43 344.984 77.23 344.764 77.01C344.554 76.78 344.369 76.545 344.209 76.305L345.454 75.33C345.584 75.54 345.719 75.735 345.859 75.915C346.009 76.085 346.174 76.235 346.354 76.365C346.544 76.485 346.754 76.58 346.984 76.65C347.224 76.72 347.494 76.755 347.794 76.755C348.434 76.755 348.924 76.605 349.264 76.305C349.604 75.995 349.774 75.57 349.774 75.03V74.925C349.774 74.385 349.594 73.975 349.234 73.695C348.874 73.415 348.364 73.275 347.704 73.275H346.594V71.835H347.659Z" fill="white"/>
<rect x="144" y="48" width="114" height="49" rx="24.5" fill="#417D7A"/>
<rect x="216" y="55" width="35.4273" height="35.4273" rx="17.7137" fill="white"/>
<path d="M158.385 78V75.96H153.525V74.505L157.77 67.53H159.99V74.625H161.415V75.96H159.99V78H158.385ZM154.965 74.625H158.385V69.075H158.28L154.965 74.625ZM163.314 78V76.59H166.254V68.76H166.134L163.704 71.355L162.669 70.425L165.339 67.53H167.919V76.59H170.469V78H163.314ZM173.553 78L177.348 68.925H173.388V70.86H171.933V67.53H179.028V69L175.338 78H173.553ZM181.272 67.53H184.977C185.647 67.53 186.252 67.64 186.792 67.86C187.342 68.08 187.807 68.41 188.187 68.85C188.577 69.28 188.877 69.825 189.087 70.485C189.297 71.135 189.402 71.895 189.402 72.765C189.402 73.635 189.297 74.4 189.087 75.06C188.877 75.71 188.577 76.255 188.187 76.695C187.807 77.125 187.342 77.45 186.792 77.67C186.252 77.89 185.647 78 184.977 78H181.272V67.53ZM184.977 76.5C185.757 76.5 186.387 76.255 186.867 75.765C187.347 75.275 187.587 74.555 187.587 73.605V71.925C187.587 70.975 187.347 70.255 186.867 69.765C186.387 69.275 185.757 69.03 184.977 69.03H182.967V76.5H184.977ZM192.787 78L196.582 68.925H192.622V70.86H191.167V67.53H198.262V69L194.572 78H192.787ZM207.046 78L206.101 75.165H202.186L201.271 78H199.546L203.116 67.53H205.246L208.816 78H207.046ZM204.181 69.09H204.106L202.591 73.71H205.681L204.181 69.09Z" fill="#333333"/>
<rect x="432.5" y="48.5" width="113" height="48.0078" rx="24.0039" fill="#1A3C40" stroke="#1A3C40"/>
<rect x="504" y="55" width="35.4273" height="35.4273" rx="17.7137" fill="white"/>
<path d="M442.32 78V76.59H445.26V68.76H445.14L442.71 71.355L441.675 70.425L444.345 67.53H446.925V76.59H449.475V78H442.32ZM457.824 78L456.879 75.165H452.964L452.049 78H450.324L453.894 67.53H456.024L459.594 78H457.824ZM454.959 69.09H454.884L453.369 73.71H456.459L454.959 69.09ZM463.856 71.835C464.506 71.835 464.986 71.7 465.296 71.43C465.606 71.15 465.761 70.795 465.761 70.365V70.26C465.761 69.78 465.611 69.415 465.311 69.165C465.011 68.905 464.606 68.775 464.096 68.775C463.596 68.775 463.171 68.89 462.821 69.12C462.471 69.34 462.176 69.65 461.936 70.05L460.811 69.075C460.971 68.845 461.151 68.625 461.351 68.415C461.551 68.205 461.786 68.025 462.056 67.875C462.326 67.715 462.631 67.59 462.971 67.5C463.311 67.4 463.701 67.35 464.141 67.35C464.631 67.35 465.086 67.41 465.506 67.53C465.926 67.65 466.286 67.83 466.586 68.07C466.886 68.3 467.121 68.585 467.291 68.925C467.461 69.255 467.546 69.63 467.546 70.05C467.546 70.38 467.491 70.68 467.381 70.95C467.281 71.22 467.136 71.46 466.946 71.67C466.766 71.87 466.551 72.035 466.301 72.165C466.061 72.295 465.806 72.39 465.536 72.45V72.525C465.836 72.585 466.116 72.685 466.376 72.825C466.646 72.955 466.881 73.13 467.081 73.35C467.281 73.56 467.436 73.815 467.546 74.115C467.666 74.405 467.726 74.74 467.726 75.12C467.726 75.58 467.636 76 467.456 76.38C467.276 76.75 467.021 77.07 466.691 77.34C466.371 77.61 465.981 77.82 465.521 77.97C465.061 78.11 464.551 78.18 463.991 78.18C463.501 78.18 463.071 78.125 462.701 78.015C462.331 77.915 462.001 77.78 461.711 77.61C461.431 77.43 461.181 77.23 460.961 77.01C460.751 76.78 460.566 76.545 460.406 76.305L461.651 75.33C461.781 75.54 461.916 75.735 462.056 75.915C462.206 76.085 462.371 76.235 462.551 76.365C462.741 76.485 462.951 76.58 463.181 76.65C463.421 76.72 463.691 76.755 463.991 76.755C464.631 76.755 465.121 76.605 465.461 76.305C465.801 75.995 465.971 75.57 465.971 75.03V74.925C465.971 74.385 465.791 73.975 465.431 73.695C465.071 73.415 464.561 73.275 463.901 73.275H462.791V71.835H463.856ZM474.14 78.18C472.77 78.18 471.695 77.72 470.915 76.8C470.135 75.87 469.745 74.525 469.745 72.765C469.745 71.885 469.845 71.11 470.045 70.44C470.245 69.77 470.535 69.205 470.915 68.745C471.295 68.285 471.755 67.94 472.295 67.71C472.845 67.47 473.46 67.35 474.14 67.35C475.05 67.35 475.81 67.55 476.42 67.95C477.04 68.35 477.525 68.94 477.875 69.72L476.45 70.5C476.27 70 475.99 69.605 475.61 69.315C475.24 69.015 474.75 68.865 474.14 68.865C473.33 68.865 472.695 69.14 472.235 69.69C471.775 70.24 471.545 71 471.545 71.97V73.56C471.545 74.53 471.775 75.29 472.235 75.84C472.695 76.39 473.33 76.665 474.14 76.665C474.77 76.665 475.28 76.505 475.67 76.185C476.07 75.855 476.365 75.435 476.555 74.925L477.92 75.75C477.57 76.51 477.08 77.105 476.45 77.535C475.82 77.965 475.05 78.18 474.14 78.18ZM483.812 78V75.96H478.952V74.505L483.197 67.53H485.417V74.625H486.842V75.96H485.417V78H483.812ZM480.392 74.625H483.812V69.075H483.707L480.392 74.625ZM491.921 78.18C491.271 78.18 490.706 78.06 490.226 77.82C489.746 77.57 489.351 77.215 489.041 76.755C488.731 76.295 488.501 75.73 488.351 75.06C488.201 74.39 488.126 73.625 488.126 72.765C488.126 71.915 488.201 71.155 488.351 70.485C488.501 69.805 488.731 69.235 489.041 68.775C489.351 68.315 489.746 67.965 490.226 67.725C490.706 67.475 491.271 67.35 491.921 67.35C493.221 67.35 494.176 67.825 494.786 68.775C495.406 69.725 495.716 71.055 495.716 72.765C495.716 74.475 495.406 75.805 494.786 76.755C494.176 77.705 493.221 78.18 491.921 78.18ZM491.921 76.74C492.281 76.74 492.586 76.67 492.836 76.53C493.096 76.38 493.306 76.17 493.466 75.9C493.626 75.63 493.741 75.31 493.811 74.94C493.881 74.56 493.916 74.14 493.916 73.68V71.85C493.916 71.39 493.881 70.975 493.811 70.605C493.741 70.225 493.626 69.9 493.466 69.63C493.306 69.36 493.096 69.155 492.836 69.015C492.586 68.865 492.281 68.79 491.921 68.79C491.561 68.79 491.251 68.865 490.991 69.015C490.741 69.155 490.536 69.36 490.376 69.63C490.216 69.9 490.101 70.225 490.031 70.605C489.961 70.975 489.926 71.39 489.926 71.85V73.68C489.926 74.14 489.961 74.56 490.031 74.94C490.101 75.31 490.216 75.63 490.376 75.9C490.536 76.17 490.741 76.38 490.991 76.53C491.251 76.67 491.561 76.74 491.921 76.74Z" fill="white"/>
<path d="M455.392 153V145.26H456.592V146.52H456.652C456.742 146.32 456.842 146.135 456.952 145.965C457.072 145.785 457.212 145.63 457.372 145.5C457.542 145.37 457.737 145.27 457.957 145.2C458.177 145.12 458.437 145.08 458.737 145.08C459.247 145.08 459.717 145.205 460.147 145.455C460.577 145.695 460.897 146.095 461.107 146.655H461.137C461.277 146.235 461.537 145.87 461.917 145.56C462.307 145.24 462.832 145.08 463.492 145.08C464.282 145.08 464.897 145.34 465.337 145.86C465.787 146.37 466.012 147.095 466.012 148.035V153H464.812V148.245C464.812 147.555 464.677 147.035 464.407 146.685C464.137 146.335 463.707 146.16 463.117 146.16C462.877 146.16 462.647 146.19 462.427 146.25C462.217 146.31 462.027 146.4 461.857 146.52C461.687 146.64 461.552 146.795 461.452 146.985C461.352 147.165 461.302 147.38 461.302 147.63V153H460.102V148.245C460.102 147.555 459.967 147.035 459.697 146.685C459.427 146.335 459.007 146.16 458.437 146.16C458.197 146.16 457.967 146.19 457.747 146.25C457.527 146.31 457.332 146.4 457.162 146.52C456.992 146.64 456.852 146.795 456.742 146.985C456.642 147.165 456.592 147.38 456.592 147.63V153H455.392ZM474.112 153C473.662 153 473.337 152.88 473.137 152.64C472.947 152.4 472.827 152.1 472.777 151.74H472.702C472.532 152.22 472.252 152.58 471.862 152.82C471.472 153.06 471.007 153.18 470.467 153.18C469.647 153.18 469.007 152.97 468.547 152.55C468.097 152.13 467.872 151.56 467.872 150.84C467.872 150.11 468.137 149.55 468.667 149.16C469.207 148.77 470.042 148.575 471.172 148.575H472.702V147.81C472.702 147.26 472.552 146.84 472.252 146.55C471.952 146.26 471.492 146.115 470.872 146.115C470.402 146.115 470.007 146.22 469.687 146.43C469.377 146.64 469.117 146.92 468.907 147.27L468.187 146.595C468.397 146.175 468.732 145.82 469.192 145.53C469.652 145.23 470.232 145.08 470.932 145.08C471.872 145.08 472.602 145.31 473.122 145.77C473.642 146.23 473.902 146.87 473.902 147.69V151.95H474.787V153H474.112ZM470.662 152.16C470.962 152.16 471.237 152.125 471.487 152.055C471.737 151.985 471.952 151.885 472.132 151.755C472.312 151.625 472.452 151.475 472.552 151.305C472.652 151.135 472.702 150.95 472.702 150.75V149.475H471.112C470.422 149.475 469.917 149.575 469.597 149.775C469.287 149.975 469.132 150.265 469.132 150.645V150.96C469.132 151.34 469.267 151.635 469.537 151.845C469.817 152.055 470.192 152.16 470.662 152.16ZM477.1 143.445C476.84 143.445 476.65 143.385 476.53 143.265C476.42 143.135 476.365 142.97 476.365 142.77V142.575C476.365 142.375 476.42 142.215 476.53 142.095C476.65 141.965 476.84 141.9 477.1 141.9C477.36 141.9 477.545 141.965 477.655 142.095C477.775 142.215 477.835 142.375 477.835 142.575V142.77C477.835 142.97 477.775 143.135 477.655 143.265C477.545 143.385 477.36 143.445 477.1 143.445ZM476.5 145.26H477.7V153H476.5V145.26ZM480.25 153V145.26H481.45V146.52H481.51C481.7 146.08 481.965 145.73 482.305 145.47C482.655 145.21 483.12 145.08 483.7 145.08C484.5 145.08 485.13 145.34 485.59 145.86C486.06 146.37 486.295 147.095 486.295 148.035V153H485.095V148.245C485.095 146.855 484.51 146.16 483.34 146.16C483.1 146.16 482.865 146.19 482.635 146.25C482.415 146.31 482.215 146.4 482.035 146.52C481.855 146.64 481.71 146.795 481.6 146.985C481.5 147.165 481.45 147.38 481.45 147.63V153H480.25ZM495.2 153.18C494.66 153.18 494.175 153.085 493.745 152.895C493.315 152.705 492.95 152.435 492.65 152.085C492.36 151.735 492.135 151.31 491.975 150.81C491.825 150.31 491.75 149.75 491.75 149.13C491.75 148.51 491.825 147.95 491.975 147.45C492.135 146.95 492.36 146.525 492.65 146.175C492.95 145.825 493.315 145.555 493.745 145.365C494.175 145.175 494.66 145.08 495.2 145.08C495.97 145.08 496.585 145.25 497.045 145.59C497.515 145.92 497.865 146.355 498.095 146.895L497.09 147.405C496.95 147.005 496.72 146.695 496.4 146.475C496.08 146.255 495.68 146.145 495.2 146.145C494.84 146.145 494.525 146.205 494.255 146.325C493.985 146.435 493.76 146.595 493.58 146.805C493.4 147.005 493.265 147.25 493.175 147.54C493.085 147.82 493.04 148.13 493.04 148.47V149.79C493.04 150.47 493.22 151.03 493.58 151.47C493.95 151.9 494.49 152.115 495.2 152.115C496.17 152.115 496.87 151.665 497.3 150.765L498.17 151.35C497.92 151.91 497.545 152.355 497.045 152.685C496.555 153.015 495.94 153.18 495.2 153.18ZM502.701 153.18C502.181 153.18 501.706 153.085 501.276 152.895C500.846 152.705 500.476 152.435 500.166 152.085C499.866 151.725 499.631 151.3 499.461 150.81C499.291 150.31 499.206 149.75 499.206 149.13C499.206 148.52 499.291 147.965 499.461 147.465C499.631 146.965 499.866 146.54 500.166 146.19C500.476 145.83 500.846 145.555 501.276 145.365C501.706 145.175 502.181 145.08 502.701 145.08C503.221 145.08 503.691 145.175 504.111 145.365C504.541 145.555 504.911 145.83 505.221 146.19C505.531 146.54 505.771 146.965 505.941 147.465C506.111 147.965 506.196 148.52 506.196 149.13C506.196 149.75 506.111 150.31 505.941 150.81C505.771 151.3 505.531 151.725 505.221 152.085C504.911 152.435 504.541 152.705 504.111 152.895C503.691 153.085 503.221 153.18 502.701 153.18ZM502.701 152.115C503.351 152.115 503.881 151.915 504.291 151.515C504.701 151.115 504.906 150.505 504.906 149.685V148.575C504.906 147.755 504.701 147.145 504.291 146.745C503.881 146.345 503.351 146.145 502.701 146.145C502.051 146.145 501.521 146.345 501.111 146.745C500.701 147.145 500.496 147.755 500.496 148.575V149.685C500.496 150.505 500.701 151.115 501.111 151.515C501.521 151.915 502.051 152.115 502.701 152.115ZM509.445 153C509.025 153 508.705 152.885 508.485 152.655C508.275 152.415 508.17 152.115 508.17 151.755V141.9H509.37V151.95H510.51V153H509.445ZM515.182 153.18C514.662 153.18 514.187 153.085 513.757 152.895C513.327 152.705 512.957 152.435 512.647 152.085C512.347 151.725 512.112 151.3 511.942 150.81C511.772 150.31 511.687 149.75 511.687 149.13C511.687 148.52 511.772 147.965 511.942 147.465C512.112 146.965 512.347 146.54 512.647 146.19C512.957 145.83 513.327 145.555 513.757 145.365C514.187 145.175 514.662 145.08 515.182 145.08C515.702 145.08 516.172 145.175 516.592 145.365C517.022 145.555 517.392 145.83 517.702 146.19C518.012 146.54 518.252 146.965 518.422 147.465C518.592 147.965 518.677 148.52 518.677 149.13C518.677 149.75 518.592 150.31 518.422 150.81C518.252 151.3 518.012 151.725 517.702 152.085C517.392 152.435 517.022 152.705 516.592 152.895C516.172 153.085 515.702 153.18 515.182 153.18ZM515.182 152.115C515.832 152.115 516.362 151.915 516.772 151.515C517.182 151.115 517.387 150.505 517.387 149.685V148.575C517.387 147.755 517.182 147.145 516.772 146.745C516.362 146.345 515.832 146.145 515.182 146.145C514.532 146.145 514.002 146.345 513.592 146.745C513.182 147.145 512.977 147.755 512.977 148.575V149.685C512.977 150.505 513.182 151.115 513.592 151.515C514.002 151.915 514.532 152.115 515.182 152.115ZM520.65 153V145.26H521.85V146.685H521.925C522.065 146.315 522.315 145.985 522.675 145.695C523.035 145.405 523.53 145.26 524.16 145.26H524.625V146.46H523.92C523.27 146.46 522.76 146.585 522.39 146.835C522.03 147.075 521.85 147.38 521.85 147.75V153H520.65Z" fill="#1A3C40"/>
<path d="M489 119.667C486.054 119.667 483.667 122.054 483.667 125C483.667 127.946 486.054 130.333 489 130.333C491.946 130.333 494.333 127.946 494.333 125C494.333 122.054 491.946 119.667 489 119.667ZM488 97V125H490V97H488Z" fill="#1A3C40"/>
<rect x="576" y="48" width="114" height="49.0078" rx="24.5039" fill="#333333"/>
<rect x="648" y="55" width="35.4273" height="35.4273" rx="17.7137" fill="white"/>
<path d="M588.93 71.835C589.58 71.835 590.06 71.7 590.37 71.43C590.68 71.15 590.835 70.795 590.835 70.365V70.26C590.835 69.78 590.685 69.415 590.385 69.165C590.085 68.905 589.68 68.775 589.17 68.775C588.67 68.775 588.245 68.89 587.895 69.12C587.545 69.34 587.25 69.65 587.01 70.05L585.885 69.075C586.045 68.845 586.225 68.625 586.425 68.415C586.625 68.205 586.86 68.025 587.13 67.875C587.4 67.715 587.705 67.59 588.045 67.5C588.385 67.4 588.775 67.35 589.215 67.35C589.705 67.35 590.16 67.41 590.58 67.53C591 67.65 591.36 67.83 591.66 68.07C591.96 68.3 592.195 68.585 592.365 68.925C592.535 69.255 592.62 69.63 592.62 70.05C592.62 70.38 592.565 70.68 592.455 70.95C592.355 71.22 592.21 71.46 592.02 71.67C591.84 71.87 591.625 72.035 591.375 72.165C591.135 72.295 590.88 72.39 590.61 72.45V72.525C590.91 72.585 591.19 72.685 591.45 72.825C591.72 72.955 591.955 73.13 592.155 73.35C592.355 73.56 592.51 73.815 592.62 74.115C592.74 74.405 592.8 74.74 592.8 75.12C592.8 75.58 592.71 76 592.53 76.38C592.35 76.75 592.095 77.07 591.765 77.34C591.445 77.61 591.055 77.82 590.595 77.97C590.135 78.11 589.625 78.18 589.065 78.18C588.575 78.18 588.145 78.125 587.775 78.015C587.405 77.915 587.075 77.78 586.785 77.61C586.505 77.43 586.255 77.23 586.035 77.01C585.825 76.78 585.64 76.545 585.48 76.305L586.725 75.33C586.855 75.54 586.99 75.735 587.13 75.915C587.28 76.085 587.445 76.235 587.625 76.365C587.815 76.485 588.025 76.58 588.255 76.65C588.495 76.72 588.765 76.755 589.065 76.755C589.705 76.755 590.195 76.605 590.535 76.305C590.875 75.995 591.045 75.57 591.045 75.03V74.925C591.045 74.385 590.865 73.975 590.505 73.695C590.145 73.415 589.635 73.275 588.975 73.275H587.865V71.835H588.93ZM597.924 71.835C598.574 71.835 599.054 71.7 599.364 71.43C599.674 71.15 599.829 70.795 599.829 70.365V70.26C599.829 69.78 599.679 69.415 599.379 69.165C599.079 68.905 598.674 68.775 598.164 68.775C597.664 68.775 597.239 68.89 596.889 69.12C596.539 69.34 596.244 69.65 596.004 70.05L594.879 69.075C595.039 68.845 595.219 68.625 595.419 68.415C595.619 68.205 595.854 68.025 596.124 67.875C596.394 67.715 596.699 67.59 597.039 67.5C597.379 67.4 597.769 67.35 598.209 67.35C598.699 67.35 599.154 67.41 599.574 67.53C599.994 67.65 600.354 67.83 600.654 68.07C600.954 68.3 601.189 68.585 601.359 68.925C601.529 69.255 601.614 69.63 601.614 70.05C601.614 70.38 601.559 70.68 601.449 70.95C601.349 71.22 601.204 71.46 601.014 71.67C600.834 71.87 600.619 72.035 600.369 72.165C600.129 72.295 599.874 72.39 599.604 72.45V72.525C599.904 72.585 600.184 72.685 600.444 72.825C600.714 72.955 600.949 73.13 601.149 73.35C601.349 73.56 601.504 73.815 601.614 74.115C601.734 74.405 601.794 74.74 601.794 75.12C601.794 75.58 601.704 76 601.524 76.38C601.344 76.75 601.089 77.07 600.759 77.34C600.439 77.61 600.049 77.82 599.589 77.97C599.129 78.11 598.619 78.18 598.059 78.18C597.569 78.18 597.139 78.125 596.769 78.015C596.399 77.915 596.069 77.78 595.779 77.61C595.499 77.43 595.249 77.23 595.029 77.01C594.819 76.78 594.634 76.545 594.474 76.305L595.719 75.33C595.849 75.54 595.984 75.735 596.124 75.915C596.274 76.085 596.439 76.235 596.619 76.365C596.809 76.485 597.019 76.58 597.249 76.65C597.489 76.72 597.759 76.755 598.059 76.755C598.699 76.755 599.189 76.605 599.529 76.305C599.869 75.995 600.039 75.57 600.039 75.03V74.925C600.039 74.385 599.859 73.975 599.499 73.695C599.139 73.415 598.629 73.275 597.969 73.275H596.859V71.835H597.924ZM606.918 71.835C607.568 71.835 608.048 71.7 608.358 71.43C608.668 71.15 608.823 70.795 608.823 70.365V70.26C608.823 69.78 608.673 69.415 608.373 69.165C608.073 68.905 607.668 68.775 607.158 68.775C606.658 68.775 606.233 68.89 605.883 69.12C605.533 69.34 605.238 69.65 604.998 70.05L603.873 69.075C604.033 68.845 604.213 68.625 604.413 68.415C604.613 68.205 604.848 68.025 605.118 67.875C605.388 67.715 605.693 67.59 606.033 67.5C606.373 67.4 606.763 67.35 607.203 67.35C607.693 67.35 608.148 67.41 608.568 67.53C608.988 67.65 609.348 67.83 609.648 68.07C609.948 68.3 610.183 68.585 610.353 68.925C610.523 69.255 610.608 69.63 610.608 70.05C610.608 70.38 610.553 70.68 610.443 70.95C610.343 71.22 610.198 71.46 610.008 71.67C609.828 71.87 609.613 72.035 609.363 72.165C609.123 72.295 608.868 72.39 608.598 72.45V72.525C608.898 72.585 609.178 72.685 609.438 72.825C609.708 72.955 609.943 73.13 610.143 73.35C610.343 73.56 610.498 73.815 610.608 74.115C610.728 74.405 610.788 74.74 610.788 75.12C610.788 75.58 610.698 76 610.518 76.38C610.338 76.75 610.083 77.07 609.753 77.34C609.433 77.61 609.043 77.82 608.583 77.97C608.123 78.11 607.613 78.18 607.053 78.18C606.563 78.18 606.133 78.125 605.763 78.015C605.393 77.915 605.063 77.78 604.773 77.61C604.493 77.43 604.243 77.23 604.023 77.01C603.813 76.78 603.628 76.545 603.468 76.305L604.713 75.33C604.843 75.54 604.978 75.735 605.118 75.915C605.268 76.085 605.433 76.235 605.613 76.365C605.803 76.485 606.013 76.58 606.243 76.65C606.483 76.72 606.753 76.755 607.053 76.755C607.693 76.755 608.183 76.605 608.523 76.305C608.863 75.995 609.033 75.57 609.033 75.03V74.925C609.033 74.385 608.853 73.975 608.493 73.695C608.133 73.415 607.623 73.275 606.963 73.275H605.853V71.835H606.918ZM615.912 71.835C616.562 71.835 617.042 71.7 617.352 71.43C617.662 71.15 617.817 70.795 617.817 70.365V70.26C617.817 69.78 617.667 69.415 617.367 69.165C617.067 68.905 616.662 68.775 616.152 68.775C615.652 68.775 615.227 68.89 614.877 69.12C614.527 69.34 614.232 69.65 613.992 70.05L612.867 69.075C613.027 68.845 613.207 68.625 613.407 68.415C613.607 68.205 613.842 68.025 614.112 67.875C614.382 67.715 614.687 67.59 615.027 67.5C615.367 67.4 615.757 67.35 616.197 67.35C616.687 67.35 617.142 67.41 617.562 67.53C617.982 67.65 618.342 67.83 618.642 68.07C618.942 68.3 619.177 68.585 619.347 68.925C619.517 69.255 619.602 69.63 619.602 70.05C619.602 70.38 619.547 70.68 619.437 70.95C619.337 71.22 619.192 71.46 619.002 71.67C618.822 71.87 618.607 72.035 618.357 72.165C618.117 72.295 617.862 72.39 617.592 72.45V72.525C617.892 72.585 618.172 72.685 618.432 72.825C618.702 72.955 618.937 73.13 619.137 73.35C619.337 73.56 619.492 73.815 619.602 74.115C619.722 74.405 619.782 74.74 619.782 75.12C619.782 75.58 619.692 76 619.512 76.38C619.332 76.75 619.077 77.07 618.747 77.34C618.427 77.61 618.037 77.82 617.577 77.97C617.117 78.11 616.607 78.18 616.047 78.18C615.557 78.18 615.127 78.125 614.757 78.015C614.387 77.915 614.057 77.78 613.767 77.61C613.487 77.43 613.237 77.23 613.017 77.01C612.807 76.78 612.622 76.545 612.462 76.305L613.707 75.33C613.837 75.54 613.972 75.735 614.112 75.915C614.262 76.085 614.427 76.235 614.607 76.365C614.797 76.485 615.007 76.58 615.237 76.65C615.477 76.72 615.747 76.755 616.047 76.755C616.687 76.755 617.177 76.605 617.517 76.305C617.857 75.995 618.027 75.57 618.027 75.03V74.925C618.027 74.385 617.847 73.975 617.487 73.695C617.127 73.415 616.617 73.275 615.957 73.275H614.847V71.835H615.912ZM624.907 71.835C625.557 71.835 626.037 71.7 626.347 71.43C626.657 71.15 626.812 70.795 626.812 70.365V70.26C626.812 69.78 626.662 69.415 626.362 69.165C626.062 68.905 625.657 68.775 625.147 68.775C624.647 68.775 624.222 68.89 623.872 69.12C623.522 69.34 623.227 69.65 622.987 70.05L621.862 69.075C622.022 68.845 622.202 68.625 622.402 68.415C622.602 68.205 622.837 68.025 623.107 67.875C623.377 67.715 623.682 67.59 624.022 67.5C624.362 67.4 624.752 67.35 625.192 67.35C625.682 67.35 626.137 67.41 626.557 67.53C626.977 67.65 627.337 67.83 627.637 68.07C627.937 68.3 628.172 68.585 628.342 68.925C628.512 69.255 628.597 69.63 628.597 70.05C628.597 70.38 628.542 70.68 628.432 70.95C628.332 71.22 628.187 71.46 627.997 71.67C627.817 71.87 627.602 72.035 627.352 72.165C627.112 72.295 626.857 72.39 626.587 72.45V72.525C626.887 72.585 627.167 72.685 627.427 72.825C627.697 72.955 627.932 73.13 628.132 73.35C628.332 73.56 628.487 73.815 628.597 74.115C628.717 74.405 628.777 74.74 628.777 75.12C628.777 75.58 628.687 76 628.507 76.38C628.327 76.75 628.072 77.07 627.742 77.34C627.422 77.61 627.032 77.82 626.572 77.97C626.112 78.11 625.602 78.18 625.042 78.18C624.552 78.18 624.122 78.125 623.752 78.015C623.382 77.915 623.052 77.78 622.762 77.61C622.482 77.43 622.232 77.23 622.012 77.01C621.802 76.78 621.617 76.545 621.457 76.305L622.702 75.33C622.832 75.54 622.967 75.735 623.107 75.915C623.257 76.085 623.422 76.235 623.602 76.365C623.792 76.485 624.002 76.58 624.232 76.65C624.472 76.72 624.742 76.755 625.042 76.755C625.682 76.755 626.172 76.605 626.512 76.305C626.852 75.995 627.022 75.57 627.022 75.03V74.925C627.022 74.385 626.842 73.975 626.482 73.695C626.122 73.415 625.612 73.275 624.952 73.275H623.842V71.835H624.907ZM633.901 71.835C634.551 71.835 635.031 71.7 635.341 71.43C635.651 71.15 635.806 70.795 635.806 70.365V70.26C635.806 69.78 635.656 69.415 635.356 69.165C635.056 68.905 634.651 68.775 634.141 68.775C633.641 68.775 633.216 68.89 632.866 69.12C632.516 69.34 632.221 69.65 631.981 70.05L630.856 69.075C631.016 68.845 631.196 68.625 631.396 68.415C631.596 68.205 631.831 68.025 632.101 67.875C632.371 67.715 632.676 67.59 633.016 67.5C633.356 67.4 633.746 67.35 634.186 67.35C634.676 67.35 635.131 67.41 635.551 67.53C635.971 67.65 636.331 67.83 636.631 68.07C636.931 68.3 637.166 68.585 637.336 68.925C637.506 69.255 637.591 69.63 637.591 70.05C637.591 70.38 637.536 70.68 637.426 70.95C637.326 71.22 637.181 71.46 636.991 71.67C636.811 71.87 636.596 72.035 636.346 72.165C636.106 72.295 635.851 72.39 635.581 72.45V72.525C635.881 72.585 636.161 72.685 636.421 72.825C636.691 72.955 636.926 73.13 637.126 73.35C637.326 73.56 637.481 73.815 637.591 74.115C637.711 74.405 637.771 74.74 637.771 75.12C637.771 75.58 637.681 76 637.501 76.38C637.321 76.75 637.066 77.07 636.736 77.34C636.416 77.61 636.026 77.82 635.566 77.97C635.106 78.11 634.596 78.18 634.036 78.18C633.546 78.18 633.116 78.125 632.746 78.015C632.376 77.915 632.046 77.78 631.756 77.61C631.476 77.43 631.226 77.23 631.006 77.01C630.796 76.78 630.611 76.545 630.451 76.305L631.696 75.33C631.826 75.54 631.961 75.735 632.101 75.915C632.251 76.085 632.416 76.235 632.596 76.365C632.786 76.485 632.996 76.58 633.226 76.65C633.466 76.72 633.736 76.755 634.036 76.755C634.676 76.755 635.166 76.605 635.506 76.305C635.846 75.995 636.016 75.57 636.016 75.03V74.925C636.016 74.385 635.836 73.975 635.476 73.695C635.116 73.415 634.606 73.275 633.946 73.275H632.836V71.835H633.901Z" fill="white"/>
<path d="M584.56 153V145.26H585.76V146.52H585.82C585.91 146.32 586.01 146.135 586.12 145.965C586.24 145.785 586.38 145.63 586.54 145.5C586.71 145.37 586.905 145.27 587.125 145.2C587.345 145.12 587.605 145.08 587.905 145.08C588.415 145.08 588.885 145.205 589.315 145.455C589.745 145.695 590.065 146.095 590.275 146.655H590.305C590.445 146.235 590.705 145.87 591.085 145.56C591.475 145.24 592 145.08 592.66 145.08C593.45 145.08 594.065 145.34 594.505 145.86C594.955 146.37 595.18 147.095 595.18 148.035V153H593.98V148.245C593.98 147.555 593.845 147.035 593.575 146.685C593.305 146.335 592.875 146.16 592.285 146.16C592.045 146.16 591.815 146.19 591.595 146.25C591.385 146.31 591.195 146.4 591.025 146.52C590.855 146.64 590.72 146.795 590.62 146.985C590.52 147.165 590.47 147.38 590.47 147.63V153H589.27V148.245C589.27 147.555 589.135 147.035 588.865 146.685C588.595 146.335 588.175 146.16 587.605 146.16C587.365 146.16 587.135 146.19 586.915 146.25C586.695 146.31 586.5 146.4 586.33 146.52C586.16 146.64 586.02 146.795 585.91 146.985C585.81 147.165 585.76 147.38 585.76 147.63V153H584.56ZM603.281 153C602.831 153 602.506 152.88 602.306 152.64C602.116 152.4 601.996 152.1 601.946 151.74H601.871C601.701 152.22 601.421 152.58 601.031 152.82C600.641 153.06 600.176 153.18 599.636 153.18C598.816 153.18 598.176 152.97 597.716 152.55C597.266 152.13 597.041 151.56 597.041 150.84C597.041 150.11 597.306 149.55 597.836 149.16C598.376 148.77 599.211 148.575 600.341 148.575H601.871V147.81C601.871 147.26 601.721 146.84 601.421 146.55C601.121 146.26 600.661 146.115 600.041 146.115C599.571 146.115 599.176 146.22 598.856 146.43C598.546 146.64 598.286 146.92 598.076 147.27L597.356 146.595C597.566 146.175 597.901 145.82 598.361 145.53C598.821 145.23 599.401 145.08 600.101 145.08C601.041 145.08 601.771 145.31 602.291 145.77C602.811 146.23 603.071 146.87 603.071 147.69V151.95H603.956V153H603.281ZM599.831 152.16C600.131 152.16 600.406 152.125 600.656 152.055C600.906 151.985 601.121 151.885 601.301 151.755C601.481 151.625 601.621 151.475 601.721 151.305C601.821 151.135 601.871 150.95 601.871 150.75V149.475H600.281C599.591 149.475 599.086 149.575 598.766 149.775C598.456 149.975 598.301 150.265 598.301 150.645V150.96C598.301 151.34 598.436 151.635 598.706 151.845C598.986 152.055 599.361 152.16 599.831 152.16ZM606.269 143.445C606.009 143.445 605.819 143.385 605.699 143.265C605.589 143.135 605.534 142.97 605.534 142.77V142.575C605.534 142.375 605.589 142.215 605.699 142.095C605.819 141.965 606.009 141.9 606.269 141.9C606.529 141.9 606.714 141.965 606.824 142.095C606.944 142.215 607.004 142.375 607.004 142.575V142.77C607.004 142.97 606.944 143.135 606.824 143.265C606.714 143.385 606.529 143.445 606.269 143.445ZM605.669 145.26H606.869V153H605.669V145.26ZM609.419 153V145.26H610.619V146.52H610.679C610.869 146.08 611.134 145.73 611.474 145.47C611.824 145.21 612.289 145.08 612.869 145.08C613.669 145.08 614.299 145.34 614.759 145.86C615.229 146.37 615.464 147.095 615.464 148.035V153H614.264V148.245C614.264 146.855 613.679 146.16 612.509 146.16C612.269 146.16 612.034 146.19 611.804 146.25C611.584 146.31 611.384 146.4 611.204 146.52C611.024 146.64 610.879 146.795 610.769 146.985C610.669 147.165 610.619 147.38 610.619 147.63V153H609.419ZM623.199 153C622.779 153 622.459 152.885 622.239 152.655C622.029 152.415 621.924 152.105 621.924 151.725V146.31H620.649V145.26H621.369C621.629 145.26 621.804 145.21 621.894 145.11C621.994 145 622.044 144.815 622.044 144.555V143.115H623.124V145.26H624.819V146.31H623.124V151.95H624.699V153H623.199ZM629.599 153.18C629.069 153.18 628.589 153.085 628.159 152.895C627.739 152.705 627.374 152.435 627.064 152.085C626.764 151.725 626.529 151.3 626.359 150.81C626.199 150.31 626.119 149.75 626.119 149.13C626.119 148.52 626.199 147.965 626.359 147.465C626.529 146.965 626.764 146.54 627.064 146.19C627.374 145.83 627.739 145.555 628.159 145.365C628.589 145.175 629.069 145.08 629.599 145.08C630.119 145.08 630.584 145.175 630.994 145.365C631.404 145.555 631.754 145.82 632.044 146.16C632.334 146.49 632.554 146.885 632.704 147.345C632.864 147.805 632.944 148.31 632.944 148.86V149.43H627.379V149.79C627.379 150.12 627.429 150.43 627.529 150.72C627.639 151 627.789 151.245 627.979 151.455C628.179 151.665 628.419 151.83 628.699 151.95C628.989 152.07 629.314 152.13 629.674 152.13C630.164 152.13 630.589 152.015 630.949 151.785C631.319 151.555 631.604 151.225 631.804 150.795L632.659 151.41C632.409 151.94 632.019 152.37 631.489 152.7C630.959 153.02 630.329 153.18 629.599 153.18ZM629.599 146.085C629.269 146.085 628.969 146.145 628.699 146.265C628.429 146.375 628.194 146.535 627.994 146.745C627.804 146.955 627.654 147.205 627.544 147.495C627.434 147.775 627.379 148.085 627.379 148.425V148.53H631.654V148.365C631.654 147.675 631.464 147.125 631.084 146.715C630.714 146.295 630.219 146.085 629.599 146.085ZM633.786 153L636.651 149.1L633.906 145.26H635.316L637.281 148.14H637.326L639.366 145.26H640.701L637.971 149.01L640.761 153H639.351L637.341 149.97H637.296L635.121 153H633.786ZM644.058 153C643.638 153 643.318 152.885 643.098 152.655C642.888 152.415 642.783 152.105 642.783 151.725V146.31H641.508V145.26H642.228C642.488 145.26 642.663 145.21 642.753 145.11C642.853 145 642.903 144.815 642.903 144.555V143.115H643.983V145.26H645.678V146.31H643.983V151.95H645.558V153H644.058ZM654.032 153.18C653.492 153.18 653.007 153.085 652.577 152.895C652.147 152.705 651.782 152.435 651.482 152.085C651.192 151.735 650.967 151.31 650.807 150.81C650.657 150.31 650.582 149.75 650.582 149.13C650.582 148.51 650.657 147.95 650.807 147.45C650.967 146.95 651.192 146.525 651.482 146.175C651.782 145.825 652.147 145.555 652.577 145.365C653.007 145.175 653.492 145.08 654.032 145.08C654.802 145.08 655.417 145.25 655.877 145.59C656.347 145.92 656.697 146.355 656.927 146.895L655.922 147.405C655.782 147.005 655.552 146.695 655.232 146.475C654.912 146.255 654.512 146.145 654.032 146.145C653.672 146.145 653.357 146.205 653.087 146.325C652.817 146.435 652.592 146.595 652.412 146.805C652.232 147.005 652.097 147.25 652.007 147.54C651.917 147.82 651.872 148.13 651.872 148.47V149.79C651.872 150.47 652.052 151.03 652.412 151.47C652.782 151.9 653.322 152.115 654.032 152.115C655.002 152.115 655.702 151.665 656.132 150.765L657.002 151.35C656.752 151.91 656.377 152.355 655.877 152.685C655.387 153.015 654.772 153.18 654.032 153.18ZM661.533 153.18C661.013 153.18 660.538 153.085 660.108 152.895C659.678 152.705 659.308 152.435 658.998 152.085C658.698 151.725 658.463 151.3 658.293 150.81C658.123 150.31 658.038 149.75 658.038 149.13C658.038 148.52 658.123 147.965 658.293 147.465C658.463 146.965 658.698 146.54 658.998 146.19C659.308 145.83 659.678 145.555 660.108 145.365C660.538 145.175 661.013 145.08 661.533 145.08C662.053 145.08 662.523 145.175 662.943 145.365C663.373 145.555 663.743 145.83 664.053 146.19C664.363 146.54 664.603 146.965 664.773 147.465C664.943 147.965 665.028 148.52 665.028 149.13C665.028 149.75 664.943 150.31 664.773 150.81C664.603 151.3 664.363 151.725 664.053 152.085C663.743 152.435 663.373 152.705 662.943 152.895C662.523 153.085 662.053 153.18 661.533 153.18ZM661.533 152.115C662.183 152.115 662.713 151.915 663.123 151.515C663.533 151.115 663.738 150.505 663.738 149.685V148.575C663.738 147.755 663.533 147.145 663.123 146.745C662.713 146.345 662.183 146.145 661.533 146.145C660.883 146.145 660.353 146.345 659.943 146.745C659.533 147.145 659.328 147.755 659.328 148.575V149.685C659.328 150.505 659.533 151.115 659.943 151.515C660.353 151.915 660.883 152.115 661.533 152.115ZM668.277 153C667.857 153 667.537 152.885 667.317 152.655C667.107 152.415 667.002 152.115 667.002 151.755V141.9H668.202V151.95H669.342V153H668.277ZM674.013 153.18C673.493 153.18 673.018 153.085 672.588 152.895C672.158 152.705 671.788 152.435 671.478 152.085C671.178 151.725 670.943 151.3 670.773 150.81C670.603 150.31 670.518 149.75 670.518 149.13C670.518 148.52 670.603 147.965 670.773 147.465C670.943 146.965 671.178 146.54 671.478 146.19C671.788 145.83 672.158 145.555 672.588 145.365C673.018 145.175 673.493 145.08 674.013 145.08C674.533 145.08 675.003 145.175 675.423 145.365C675.853 145.555 676.223 145.83 676.533 146.19C676.843 146.54 677.083 146.965 677.253 147.465C677.423 147.965 677.508 148.52 677.508 149.13C677.508 149.75 677.423 150.31 677.253 150.81C677.083 151.3 676.843 151.725 676.533 152.085C676.223 152.435 675.853 152.705 675.423 152.895C675.003 153.085 674.533 153.18 674.013 153.18ZM674.013 152.115C674.663 152.115 675.193 151.915 675.603 151.515C676.013 151.115 676.218 150.505 676.218 149.685V148.575C676.218 147.755 676.013 147.145 675.603 146.745C675.193 146.345 674.663 146.145 674.013 146.145C673.363 146.145 672.833 146.345 672.423 146.745C672.013 147.145 671.808 147.755 671.808 148.575V149.685C671.808 150.505 672.013 151.115 672.423 151.515C672.833 151.915 673.363 152.115 674.013 152.115ZM679.482 153V145.26H680.682V146.685H680.757C680.897 146.315 681.147 145.985 681.507 145.695C681.867 145.405 682.362 145.26 682.992 145.26H683.457V146.46H682.752C682.102 146.46 681.592 146.585 681.222 146.835C680.862 147.075 680.682 147.38 680.682 147.75V153H679.482Z" fill="#333333"/>
<path d="M633 119.667C630.054 119.667 627.667 122.054 627.667 125C627.667 127.946 630.054 130.333 633 130.333C635.946 130.333 638.333 127.946 638.333 125C638.333 122.054 635.946 119.667 633 119.667ZM632 97V125H634V97H632Z" fill="#333333"/>
</svg>
