<svg width="317" height="898" viewBox="0 0 317 898" fill="none" xmlns="http://www.w3.org/2000/svg">
<path d="M260.584 324.386C320.017 264.123 332.1 160.916 330.713 116.845L528.42 -0.000126688C498.713 93.8705 448.323 213.432 315.647 307.556C182.971 401.679 211.139 506.236 270.058 617.309C317.193 706.167 327.346 778.725 326.531 803.896C322.53 808.505 312.608 817.511 304.932 816.661C331.621 729.063 285.277 673.405 250.121 629.091C114.274 482.68 186.294 399.715 260.584 324.386Z" fill="#417D7A"/>
<path d="M412.604 394.738C474.131 285.546 462.49 213.476 448.978 191.09L378.806 136.001C377.532 180.431 375.022 288.505 375.179 365.357C375.376 461.422 186.948 598.701 214.439 698.526C236.431 778.386 289.6 842.506 313.435 864.583L355.538 897.637C340.618 867.415 307.707 788.406 295.428 714.153C280.079 621.336 335.696 531.229 412.604 394.738Z" fill="#EDE6DB"/>
</svg>
