<svg width="370" height="37" viewBox="0 0 370 37" fill="none" xmlns="http://www.w3.org/2000/svg">
<path d="M0.130274 1.1L13.2803 1.1C15.5803 1.1 17.6803 1.46667 19.5803 2.2C21.4803 2.93333 23.0969 4.03333 24.4303 5.5C25.7636 6.93333 26.7969 8.75 27.5303 10.95C28.2636 13.1167 28.6303 15.65 28.6303 18.55C28.6303 21.45 28.2636 24 27.5303 26.2C26.7969 28.3667 25.7636 30.1833 24.4303 31.65C23.0969 33.0833 21.4803 34.1667 19.5803 34.9C17.6803 35.6333 15.5803 36 13.2803 36H0.130274L0.130274 1.1ZM13.2803 29.25C15.5469 29.25 17.3303 28.6167 18.6303 27.35C19.9303 26.0833 20.5803 24.05 20.5803 21.25L20.5803 15.85C20.5803 13.05 19.9303 11.0167 18.6303 9.75C17.3303 8.48333 15.5469 7.85 13.2803 7.85H7.73027L7.73027 29.25H13.2803ZM34.9936 36L34.9936 1.1L58.7436 1.1L58.7436 7.85L42.5936 7.85V15L56.4436 15V21.7H42.5936V29.25H58.7436V36H34.9936ZM76.6646 36.6C73.598 36.6 70.998 36.0833 68.8646 35.05C66.7313 33.9833 64.9146 32.6167 63.4146 30.95L68.4146 25.9C70.7813 28.5667 73.698 29.9 77.1646 29.9C79.0313 29.9 80.4146 29.5167 81.3146 28.75C82.2146 27.9833 82.6646 26.9667 82.6646 25.7C82.6646 24.7333 82.398 23.9333 81.8646 23.3C81.3313 22.6333 80.248 22.1833 78.6146 21.95L75.1646 21.5C71.4646 21.0333 68.748 19.9167 67.0146 18.15C65.3146 16.3833 64.4646 14.0333 64.4646 11.1C64.4646 9.53333 64.7646 8.1 65.3646 6.8C65.9646 5.5 66.8146 4.38333 67.9146 3.45C69.048 2.51667 70.4146 1.8 72.0146 1.3C73.648 0.766665 75.498 0.499998 77.5646 0.499998C80.198 0.499998 82.5146 0.916664 84.5146 1.75C86.5146 2.58333 88.2313 3.8 89.6646 5.4L84.6146 10.5C83.7813 9.53333 82.7646 8.75 81.5646 8.15C80.398 7.51666 78.9146 7.2 77.1146 7.2C75.4146 7.2 74.148 7.5 73.3146 8.1C72.4813 8.7 72.0646 9.53333 72.0646 10.6C72.0646 11.8 72.3813 12.6667 73.0146 13.2C73.6813 13.7333 74.748 14.1167 76.2146 14.35L79.6646 14.9C83.2646 15.4667 85.9313 16.5833 87.6646 18.25C89.398 19.8833 90.2647 22.2167 90.2647 25.25C90.2647 26.9167 89.9647 28.45 89.3647 29.85C88.7647 31.25 87.8813 32.45 86.7146 33.45C85.5813 34.45 84.1646 35.2333 82.4646 35.8C80.7646 36.3333 78.8313 36.6 76.6646 36.6ZM95.2158 36V29.95H99.7158L99.7158 7.15L95.2158 7.15V1.1L111.816 1.1V7.15H107.316L107.316 29.95H111.816V36L95.2158 36ZM140.298 30.45H140.048C139.781 32.2167 138.881 33.6833 137.348 34.85C135.815 36.0167 133.731 36.6 131.098 36.6C129.098 36.6 127.231 36.2167 125.498 35.45C123.765 34.6833 122.248 33.55 120.948 32.05C119.648 30.55 118.631 28.6833 117.898 26.45C117.165 24.2167 116.798 21.6333 116.798 18.7C116.798 15.7667 117.181 13.1667 117.948 10.9C118.715 8.63333 119.781 6.73333 121.148 5.2C122.548 3.66666 124.215 2.5 126.148 1.7C128.081 0.899998 130.231 0.499998 132.598 0.499998C135.731 0.499998 138.431 1.18333 140.698 2.55C142.965 3.88333 144.748 5.9 146.048 8.6L139.848 12.15C139.315 10.7833 138.481 9.63333 137.348 8.7C136.215 7.73333 134.631 7.25 132.598 7.25C130.231 7.25 128.348 7.93333 126.948 9.3C125.548 10.6667 124.848 12.8167 124.848 15.75V21.35C124.848 24.25 125.548 26.4 126.948 27.8C128.348 29.1667 130.231 29.85 132.598 29.85C133.531 29.85 134.415 29.75 135.248 29.55C136.081 29.3167 136.815 28.9833 137.448 28.55C138.081 28.0833 138.565 27.5333 138.898 26.9C139.265 26.2667 139.448 25.5167 139.448 24.65V22.9H132.948V16.55L146.698 16.55V36H140.298V30.45ZM164.735 19.5L161.385 12.5H161.235V36H154.085V1.1L162.385 1.1L171.935 17.6L175.285 24.6H175.435V1.1H182.585V36H174.285L164.735 19.5ZM202.083 1.1L215.233 1.1C217.533 1.1 219.633 1.46667 221.533 2.2C223.433 2.93333 225.05 4.03333 226.383 5.5C227.717 6.93333 228.75 8.75 229.483 10.95C230.217 13.1167 230.583 15.65 230.583 18.55C230.583 21.45 230.217 24 229.483 26.2C228.75 28.3667 227.717 30.1833 226.383 31.65C225.05 33.0833 223.433 34.1667 221.533 34.9C219.633 35.6333 217.533 36 215.233 36H202.083V1.1ZM215.233 29.25C217.5 29.25 219.283 28.6167 220.583 27.35C221.883 26.0833 222.533 24.05 222.533 21.25V15.85C222.533 13.05 221.883 11.0167 220.583 9.75C219.283 8.48333 217.5 7.85 215.233 7.85H209.683V29.25H215.233ZM236.947 36V1.1L260.697 1.1V7.85L244.547 7.85V15L258.397 15V21.7H244.547V29.25H260.697V36L236.947 36ZM281.868 7.85V36H274.268V7.85L264.818 7.85V1.1L291.318 1.1V7.85H281.868ZM314.746 36L312.246 27.7H300.596L298.096 36H290.396L301.896 1.1H311.296L322.646 36H314.746ZM306.496 8H306.246L302.396 21.25H310.396L306.496 8ZM326.124 36V29.95L330.624 29.95V7.15H326.124V1.1L342.724 1.1V7.15L338.224 7.15V29.95H342.724V36L326.124 36ZM349.056 36V1.1H356.656V29.25H369.956V36H349.056Z" fill="#EDE6DB" fill-opacity="0.5"/>
</svg>
