<svg width="216" height="105" viewBox="0 0 216 105" fill="none" xmlns="http://www.w3.org/2000/svg">
<path d="M0.586328 36L0.586328 1.1L17.0863 1.1C18.7197 1.1 20.1863 1.38333 21.4863 1.95C22.7863 2.48333 23.8863 3.23333 24.7863 4.2C25.7197 5.16666 26.4363 6.35 26.9363 7.75C27.4363 9.11667 27.6863 10.6167 27.6863 12.25C27.6863 13.9167 27.4363 15.4333 26.9363 16.8C26.4363 18.1667 25.7197 19.3333 24.7863 20.3C23.8863 21.2667 22.7863 22.0333 21.4863 22.6C20.1863 23.1333 18.7197 23.4 17.0863 23.4H8.18633L8.18633 36H0.586328ZM8.18633 16.8H16.1863C17.3197 16.8 18.203 16.5167 18.8363 15.95C19.503 15.35 19.8363 14.4833 19.8363 13.35V11.15C19.8363 10.0167 19.503 9.16667 18.8363 8.6C18.203 8 17.3197 7.7 16.1863 7.7H8.18633L8.18633 16.8ZM40.9988 36H33.3988L33.3988 1.1H49.9488C51.5488 1.1 52.9988 1.36667 54.2988 1.9C55.5988 2.43333 56.6988 3.2 57.5988 4.2C58.5322 5.16666 59.2488 6.33333 59.7488 7.7C60.2488 9.06666 60.4988 10.5833 60.4988 12.25C60.4988 14.6167 59.9655 16.6833 58.8988 18.45C57.8655 20.2167 56.2822 21.5 54.1488 22.3L60.9988 36H52.5488L46.4488 23.2H40.9988V36ZM48.9988 16.8C50.1322 16.8 51.0155 16.5167 51.6488 15.95C52.3155 15.35 52.6488 14.4833 52.6488 13.35V11.15C52.6488 10.0167 52.3155 9.16667 51.6488 8.6C51.0155 8 50.1322 7.7 48.9988 7.7H40.9988V16.8H48.9988ZM80.602 36.6C78.302 36.6 76.202 36.2167 74.302 35.45C72.402 34.6833 70.7853 33.55 69.452 32.05C68.1186 30.5167 67.0853 28.6333 66.352 26.4C65.6186 24.1333 65.252 21.5167 65.252 18.55C65.252 15.5833 65.6186 12.9833 66.352 10.75C67.0853 8.48333 68.1186 6.6 69.452 5.1C70.7853 3.56667 72.402 2.41666 74.302 1.65C76.202 0.883331 78.302 0.499998 80.602 0.499998C82.902 0.499998 85.002 0.883331 86.902 1.65C88.802 2.41666 90.4186 3.56667 91.752 5.1C93.0853 6.6 94.1186 8.48333 94.852 10.75C95.5853 12.9833 95.952 15.5833 95.952 18.55C95.952 21.5167 95.5853 24.1333 94.852 26.4C94.1186 28.6333 93.0853 30.5167 91.752 32.05C90.4186 33.55 88.802 34.6833 86.902 35.45C85.002 36.2167 82.902 36.6 80.602 36.6ZM80.602 29.85C82.902 29.85 84.6853 29.1 85.952 27.6C87.252 26.1 87.902 23.95 87.902 21.15V15.95C87.902 13.15 87.252 11 85.952 9.5C84.6853 8 82.902 7.25 80.602 7.25C78.302 7.25 76.502 8 75.202 9.5C73.9353 11 73.302 13.15 73.302 15.95V21.15C73.302 23.95 73.9353 26.1 75.202 27.6C76.502 29.1 78.302 29.85 80.602 29.85ZM121.232 1.1V25.9C121.232 27.5 120.965 28.9667 120.432 30.3C119.932 31.6 119.182 32.7167 118.182 33.65C117.182 34.55 115.965 35.2667 114.532 35.8C113.132 36.3 111.532 36.55 109.732 36.55C107.998 36.55 106.465 36.3167 105.132 35.85C103.832 35.3833 102.698 34.7167 101.732 33.85C100.798 32.9833 100.032 31.95 99.4316 30.75C98.8316 29.55 98.415 28.2167 98.1816 26.75L105.282 25.35C105.848 28.3833 107.298 29.9 109.632 29.9C110.732 29.9 111.665 29.55 112.432 28.85C113.232 28.15 113.632 27.05 113.632 25.55V7.2H103.032V1.1L121.232 1.1ZM128.711 36V1.1L152.461 1.1V7.85L136.311 7.85V15L150.161 15V21.7H136.311V29.25L152.461 29.25V36L128.711 36ZM173.182 36.6C170.816 36.6 168.682 36.2333 166.782 35.5C164.882 34.7333 163.266 33.6167 161.932 32.15C160.599 30.65 159.566 28.8 158.832 26.6C158.099 24.3667 157.732 21.7667 157.732 18.8C157.732 15.8667 158.099 13.2667 158.832 11C159.566 8.7 160.599 6.78333 161.932 5.25C163.266 3.68333 164.882 2.5 166.782 1.7C168.682 0.899998 170.816 0.499998 173.182 0.499998C176.416 0.499998 179.082 1.16667 181.182 2.5C183.282 3.8 184.966 5.86667 186.232 8.7L179.682 12.1C179.216 10.6333 178.482 9.46667 177.482 8.6C176.516 7.7 175.082 7.25 173.182 7.25C170.949 7.25 169.149 7.98333 167.782 9.45C166.449 10.8833 165.782 12.9833 165.782 15.75V21.35C165.782 24.1167 166.449 26.2333 167.782 27.7C169.149 29.1333 170.949 29.85 173.182 29.85C175.049 29.85 176.532 29.35 177.632 28.35C178.766 27.3167 179.599 26.0833 180.132 24.65L186.332 28.25C185.032 30.9167 183.316 32.9833 181.182 34.45C179.082 35.8833 176.416 36.6 173.182 36.6ZM206.201 7.85V36H198.601V7.85H189.151V1.1L215.651 1.1V7.85H206.201ZM112.141 98.45H111.891C111.624 100.217 110.724 101.683 109.191 102.85C107.657 104.017 105.574 104.6 102.941 104.6C100.941 104.6 99.074 104.217 97.3406 103.45C95.6073 102.683 94.0906 101.55 92.7906 100.05C91.4906 98.55 90.474 96.6833 89.7406 94.45C89.0073 92.2167 88.6406 89.6333 88.6406 86.7C88.6406 83.7667 89.024 81.1667 89.7906 78.9C90.5573 76.6333 91.624 74.7333 92.9906 73.2C94.3906 71.6667 96.0573 70.5 97.9906 69.7C99.924 68.9 102.074 68.5 104.441 68.5C107.574 68.5 110.274 69.1833 112.541 70.55C114.807 71.8833 116.591 73.9 117.891 76.6L111.691 80.15C111.157 78.7833 110.324 77.6333 109.191 76.7C108.057 75.7333 106.474 75.25 104.441 75.25C102.074 75.25 100.191 75.9333 98.7906 77.3C97.3906 78.6667 96.6906 80.8167 96.6906 83.75V89.35C96.6906 92.25 97.3906 94.4 98.7906 95.8C100.191 97.1667 102.074 97.85 104.441 97.85C105.374 97.85 106.257 97.75 107.091 97.55C107.924 97.3167 108.657 96.9833 109.291 96.55C109.924 96.0833 110.407 95.5333 110.741 94.9C111.107 94.2667 111.291 93.5167 111.291 92.65V90.9H104.791V84.55H118.541V104H112.141V98.45ZM139.928 104.6C137.628 104.6 135.528 104.217 133.628 103.45C131.728 102.683 130.111 101.55 128.778 100.05C127.445 98.5167 126.411 96.6333 125.678 94.4C124.945 92.1333 124.578 89.5167 124.578 86.55C124.578 83.5833 124.945 80.9833 125.678 78.75C126.411 76.4833 127.445 74.6 128.778 73.1C130.111 71.5667 131.728 70.4167 133.628 69.65C135.528 68.8833 137.628 68.5 139.928 68.5C142.228 68.5 144.328 68.8833 146.228 69.65C148.128 70.4167 149.745 71.5667 151.078 73.1C152.411 74.6 153.445 76.4833 154.178 78.75C154.911 80.9833 155.278 83.5833 155.278 86.55C155.278 89.5167 154.911 92.1333 154.178 94.4C153.445 96.6333 152.411 98.5167 151.078 100.05C149.745 101.55 148.128 102.683 146.228 103.45C144.328 104.217 142.228 104.6 139.928 104.6ZM139.928 97.85C142.228 97.85 144.011 97.1 145.278 95.6C146.578 94.1 147.228 91.95 147.228 89.15V83.95C147.228 81.15 146.578 79 145.278 77.5C144.011 76 142.228 75.25 139.928 75.25C137.628 75.25 135.828 76 134.528 77.5C133.261 79 132.628 81.15 132.628 83.95V89.15C132.628 91.95 133.261 94.1 134.528 95.6C135.828 97.1 137.628 97.85 139.928 97.85ZM181.608 104L179.108 95.7H167.458L164.958 104H157.258L168.758 69.1H178.158L189.508 104H181.608ZM173.358 76H173.108L169.258 89.25H177.258L173.358 76ZM194.336 104L194.336 69.1H201.936L201.936 97.25H215.236V104H194.336Z" fill="#EDE6DB" fill-opacity="0.5"/>
</svg>
