<svg width="137" height="37" viewBox="0 0 137 37" fill="none" xmlns="http://www.w3.org/2000/svg">
<path d="M8.29544 18.468L5.60949 13.0547H5.49757V31.8333H0.834473V5.77467H6.24367L14.0777 19.14L16.7636 24.5533H16.8755V5.77467H21.5386V31.8333H16.1294L8.29544 18.468ZM38.5403 14.6973H29.5125V18.8413H34.2876V28.436H38.5403V14.6973ZM38.5403 26.6813H34.6606C32.87 28.0627 30.7809 29.4067 29.0276 30.4147L31.0794 34.8573C33.2057 33.2893 34.959 31.8333 36.6751 30.3773C38.9134 33.252 41.8977 34.3347 46.3743 34.5213C50.9628 34.7453 58.9087 34.6707 63.5345 34.4467C63.7584 33.14 64.4299 31.0867 64.9148 30.0787C59.7668 30.4893 50.8882 30.6013 46.4489 30.3773C42.6065 30.228 40.0325 29.1827 38.5403 26.6813ZM30.0348 3.796C32.3477 5.51333 35.1456 8.12667 36.3393 9.91867L39.6968 6.708C38.3538 4.916 35.444 2.48933 33.1311 0.921333L30.0348 3.796ZM45.1433 7.38C48.5753 8.724 53.2011 10.852 55.4767 12.2707L58.5357 9.62C55.999 8.164 51.2986 6.148 47.9784 4.99067L45.1433 7.38ZM41.7485 9.508V28.8467H45.964V12.756H60.7367V9.508H41.7485ZM58.6476 9.508V24.9267C58.6476 25.3373 58.5357 25.4867 58.088 25.4867C57.715 25.4867 56.4093 25.4867 55.2156 25.4493C55.7005 26.42 56.1855 27.876 56.3347 28.9587C58.573 28.9587 60.2144 28.9587 61.3709 28.324C62.6019 27.7267 62.9004 26.7933 62.9004 24.964V9.508H58.6476ZM42.0843 1.36933V4.76667H59.8787V1.36933H42.0843ZM44.0987 14.772V17.8707H60.1025V14.772H44.0987ZM44.0987 19.9987V23.2467H60.1025V19.9987H44.0987ZM50.254 11.0387V28.6973H54.2456V11.0387H50.254ZM58.2746 1.36933V2.15333C56.857 3.87067 53.6115 6.22267 50.8136 7.56667C51.4478 8.164 52.5296 9.32133 53.0519 10.068C56.4839 8.42533 60.1771 5.77467 62.8257 3.31067L60.1771 1.14533L59.2818 1.36933H58.2746ZM99.7948 2.86267V35.7907H95.5421V18.6547H92.4831V34.8947H88.2303V3.348H92.4831V14.996H95.5421V2.86267H99.7948ZM85.7309 22.7987L86.2905 26.3453C83.0321 27.1168 79.1408 27.5027 74.6141 27.5027H71.8162V6.18533H84.3879V9.91867H76.1063V23.844C80.1352 23.8192 83.3434 23.4707 85.7309 22.7987ZM131.675 11.3V2.86267H136.115V27.5773H131.675V15.0333H125.856V11.3H131.675ZM117.984 16.6387C117.786 16.6387 117.624 16.7133 117.499 16.8627C116.753 17.8831 115.871 18.9285 114.851 19.9987C113.832 21.044 112.575 22.2387 111.083 23.5827L107.763 20.7453C110.523 18.5302 112.513 16.5142 113.732 14.6973C114.951 12.8805 115.585 10.9267 115.634 8.836H108.957V5.17733H126.639V8.836H120.073C120.073 11.0013 119.589 13.0547 118.619 14.996L118.842 15.108L119.738 14.4733C120.111 14.1995 120.509 14.0627 120.931 14.0627C121.405 14.0627 121.815 14.2245 122.163 14.548L128.094 19.9613L124.774 22.836L118.581 16.8627C118.408 16.7133 118.208 16.6387 117.984 16.6387ZM136.749 32.8413V36.5H117.425C115.535 36.5 114.59 35.5542 114.59 33.6627V25.1133H119.066V32.8413H136.749Z" fill="#EDE6DB"/>
</svg>
