<svg width="690" height="159" viewBox="0 0 690 159" fill="none" xmlns="http://www.w3.org/2000/svg">
<path d="M10.9425 6.465H12.0825V19.485H10.9425V6.465ZM1.50754 15.9C2.88754 15.19 3.94254 14.54 4.67254 13.95C5.40254 13.36 5.91254 12.735 6.20254 12.075C6.50254 11.415 6.65254 10.6 6.65254 9.63V8.505H1.88254V7.53H7.79254V9.615C7.79254 10.725 7.62254 11.665 7.28254 12.435C6.95254 13.205 6.38754 13.925 5.58754 14.595C4.79754 15.255 3.66254 15.98 2.18254 16.77L1.50754 15.9ZM19.8616 7.905H15.7516V6.975H25.0816V7.905H21.0166C20.9966 8.635 20.7766 9.255 20.3566 9.765L20.4166 9.795L20.7316 9.57C20.8616 9.47 20.9966 9.42 21.1366 9.42C21.2366 9.42 21.3516 9.445 21.4816 9.495L25.6366 11.505L25.0216 12.345L20.6716 10.185C20.5316 10.115 20.4066 10.08 20.2966 10.08C20.1966 10.08 20.0966 10.105 19.9966 10.155C19.6066 10.505 19.0716 10.86 18.3916 11.22C17.7216 11.57 16.8566 11.955 15.7966 12.375L15.1966 11.55C16.3966 11.08 17.3266 10.66 17.9866 10.29C18.6466 9.92 19.1166 9.55 19.3966 9.18C19.6766 8.81 19.8316 8.385 19.8616 7.905ZM26.5366 13.785V14.76H14.2966V13.785H19.8466V11.805H20.9866V13.785H26.5366ZM17.1916 18.855H24.9616V19.8H16.8016C16.5616 19.8 16.3766 19.735 16.2466 19.605C16.1166 19.475 16.0516 19.285 16.0516 19.035V15.945H17.1916V18.855ZM43.8455 12.555H41.6855V19.515H40.5455V6.495H41.6855V11.595H43.8455V12.555ZM35.6405 11.715C35.7705 11.715 35.8805 11.77 35.9705 11.88L38.8955 15.63L38.0255 16.395L35.0855 12.54C35.0555 12.48 35.0055 12.45 34.9355 12.45C34.8855 12.45 34.8355 12.48 34.7855 12.54C34.5255 13.12 34.1755 13.72 33.7355 14.34C33.2955 14.95 32.7005 15.7 31.9505 16.59L31.0805 15.855C31.9505 14.865 32.6155 14.02 33.0755 13.32C33.5455 12.61 33.8805 11.9 34.0805 11.19C34.2905 10.48 34.3955 9.665 34.3955 8.745V7.335H35.5505V8.73C35.5505 9.92 35.3755 11 35.0255 11.97L35.1005 12.015L35.3255 11.835C35.4355 11.755 35.5405 11.715 35.6405 11.715ZM54.6095 6.465H55.7495V19.485H54.6095V6.465ZM44.9795 11.73C44.9795 10.27 45.2995 9.165 45.9395 8.415C46.5895 7.665 47.4445 7.29 48.5045 7.29C49.5545 7.29 50.3995 7.665 51.0395 8.415C51.6895 9.165 52.0145 10.27 52.0145 11.73C52.0145 12.71 51.8645 13.535 51.5645 14.205C51.2645 14.865 50.8495 15.36 50.3195 15.69C49.7895 16.01 49.1845 16.17 48.5045 16.17C47.4445 16.17 46.5895 15.795 45.9395 15.045C45.2995 14.295 44.9795 13.19 44.9795 11.73ZM50.7995 12.315V11.145C50.7995 10.215 50.5845 9.5 50.1545 9C49.7345 8.5 49.1845 8.25 48.5045 8.25C47.8145 8.25 47.2545 8.5 46.8245 9C46.4045 9.49 46.1945 10.205 46.1945 11.145V12.315C46.1945 13.255 46.4045 13.975 46.8245 14.475C47.2545 14.965 47.8145 15.21 48.5045 15.21C49.1845 15.21 49.7345 14.96 50.1545 14.46C50.5845 13.96 50.7995 13.245 50.7995 12.315ZM59.7186 7.275H68.5086V8.235H60.8586V10.44H68.2986V11.355H60.8736V13.56H68.7636V14.52H59.7186V7.275ZM57.9636 17.025H70.2036V18H57.9636V17.025ZM81.3876 6.465H82.5126V19.485H81.3876V6.465ZM72.0276 10.365C72.0276 9.745 72.1826 9.2 72.4926 8.73C72.8026 8.25 73.2276 7.885 73.7676 7.635C74.3076 7.375 74.9176 7.245 75.5976 7.245C76.2776 7.245 76.8876 7.375 77.4276 7.635C77.9676 7.885 78.3926 8.25 78.7026 8.73C79.0126 9.2 79.1676 9.745 79.1676 10.365C79.1676 10.985 79.0126 11.53 78.7026 12C78.3926 12.47 77.9676 12.835 77.4276 13.095C76.8876 13.345 76.2776 13.47 75.5976 13.47C74.9176 13.47 74.3076 13.345 73.7676 13.095C73.2276 12.835 72.8026 12.47 72.4926 12C72.1826 11.53 72.0276 10.985 72.0276 10.365ZM77.9676 10.545V10.185C77.9676 9.585 77.7476 9.1 77.3076 8.73C76.8676 8.36 76.2976 8.175 75.5976 8.175C74.8976 8.175 74.3276 8.36 73.8876 8.73C73.4476 9.1 73.2276 9.585 73.2276 10.185V10.545C73.2276 11.145 73.4476 11.63 73.8876 12C74.3276 12.37 74.8976 12.555 75.5976 12.555C76.2976 12.555 76.8676 12.37 77.3076 12C77.7476 11.63 77.9676 11.145 77.9676 10.545ZM71.3976 15.78C73.0976 15.78 74.7376 15.74 76.3176 15.66C77.8976 15.58 79.2376 15.455 80.3376 15.285L80.4576 16.2C79.3276 16.38 77.9676 16.52 76.3776 16.62C74.7976 16.71 73.1726 16.755 71.5026 16.755L71.3976 15.78ZM99.8215 6.465V19.485H98.7115V6.465H99.8215ZM95.7865 6.69H96.8815V19.125H95.7865V12.12H93.9865V15.825H88.7215V7.77H93.9865V11.175H95.7865V6.69ZM92.9065 8.7H89.8165V14.895H92.9065V8.7ZM112.866 6.465V16.35H111.711V6.465H112.866ZM102.066 10.515C102.066 9.815 102.211 9.205 102.501 8.685C102.801 8.165 103.211 7.77 103.731 7.5C104.251 7.22 104.846 7.08 105.516 7.08C106.176 7.08 106.766 7.22 107.286 7.5C107.816 7.77 108.226 8.165 108.516 8.685C108.816 9.205 108.966 9.815 108.966 10.515C108.966 11.205 108.816 11.81 108.516 12.33C108.226 12.85 107.816 13.25 107.286 13.53C106.766 13.8 106.176 13.935 105.516 13.935C104.846 13.935 104.251 13.8 103.731 13.53C103.211 13.25 102.801 12.855 102.501 12.345C102.211 11.825 102.066 11.215 102.066 10.515ZM107.751 10.83V10.2C107.751 9.54 107.541 9.015 107.121 8.625C106.711 8.225 106.176 8.025 105.516 8.025C104.846 8.025 104.301 8.225 103.881 8.625C103.471 9.025 103.266 9.55 103.266 10.2V10.83C103.266 11.48 103.476 12.005 103.896 12.405C104.316 12.795 104.856 12.99 105.516 12.99C106.176 12.99 106.711 12.795 107.121 12.405C107.541 12.005 107.751 11.48 107.751 10.83ZM104.526 19.005V15.27H105.681V18.825H113.136V19.77H105.276C105.036 19.77 104.851 19.705 104.721 19.575C104.591 19.445 104.526 19.255 104.526 19.005ZM128.644 10.35H125.944V9.405H128.644V6.465H129.784V13.365H128.644V10.35ZM119.704 13.89L119.104 13.05C120.524 12.57 121.614 12.11 122.374 11.67C123.144 11.22 123.684 10.74 123.994 10.23L119.224 10.605L119.074 9.66L124.294 9.405C124.324 9.235 124.339 9.055 124.339 8.865V7.965H119.629V7.035H125.404V8.775C125.404 9.555 125.219 10.23 124.849 10.8C124.489 11.37 123.899 11.9 123.079 12.39C122.259 12.88 121.134 13.38 119.704 13.89ZM130.144 19.125V20.1H122.179C121.939 20.1 121.754 20.035 121.624 19.905C121.494 19.775 121.429 19.585 121.429 19.335V16.65H128.644V15.135H121.339V14.175H129.784V17.595H122.584V19.125H130.144ZM143.099 6.465V19.485H141.974V12.075H139.319V11.115H141.974V6.465H143.099ZM139.904 14.925L140.039 15.84C138.569 16.14 136.674 16.29 134.354 16.29H132.779V11.28H137.309V8.415H132.734V7.455H138.434V12.21H133.904V15.36H134.399C136.559 15.36 138.394 15.215 139.904 14.925ZM154.463 8.805V7.515H147.143V6.675H155.558V9.63H148.328V10.905H155.933V11.76H147.218V8.805H154.463ZM157.538 12.885V13.77H145.298V12.885H157.538ZM147.173 19.38V17.115H154.643V15.855H147.083V14.97H155.708V17.955H148.238V19.245H156.098V20.145H147.923C147.683 20.145 147.498 20.08 147.368 19.95C147.238 19.82 147.173 19.63 147.173 19.38ZM173.781 6.465V19.485H172.686V12.495H170.661V19.125H169.566V6.69H170.661V11.55H172.686V6.465H173.781ZM167.301 8.265H163.836V7.335H167.301V8.265ZM166.086 13.08C166.206 13.08 166.321 13.135 166.431 13.245L168.891 15.93L168.111 16.605L165.636 13.8C165.586 13.75 165.531 13.725 165.471 13.725C165.411 13.725 165.361 13.75 165.321 13.8C165.091 14.24 164.786 14.7 164.406 15.18C164.026 15.66 163.536 16.205 162.936 16.815L162.171 16.155C162.921 15.395 163.496 14.74 163.896 14.19C164.296 13.63 164.581 13.08 164.751 12.54C164.931 12 165.021 11.385 165.021 10.695H162.516V9.78H168.576V10.695H166.071C166.071 11.625 165.911 12.47 165.591 13.23L165.666 13.275L165.801 13.17C165.891 13.11 165.986 13.08 166.086 13.08ZM187.831 17.04V18H175.591V17.04H181.141V13.575H177.361V7.35H186.106V8.325H178.501V12.6H186.241V13.575H182.281V17.04H187.831ZM201.595 12.78H199.555V19.485H198.43V6.465H199.555V11.82H201.595V12.78ZM197.35 15.45L197.455 16.365C196.365 16.545 195.055 16.685 193.525 16.785C192.005 16.875 190.435 16.92 188.815 16.92L188.71 15.945C190.12 15.945 191.32 15.92 192.31 15.87V13.29C191.42 13.19 190.695 12.865 190.135 12.315C189.575 11.765 189.295 11.065 189.295 10.215C189.295 9.605 189.45 9.07 189.76 8.61C190.07 8.14 190.495 7.78 191.035 7.53C191.575 7.27 192.185 7.14 192.865 7.14C193.545 7.14 194.155 7.27 194.695 7.53C195.235 7.78 195.655 8.14 195.955 8.61C196.265 9.07 196.42 9.605 196.42 10.215C196.42 11.065 196.14 11.765 195.58 12.315C195.03 12.865 194.305 13.19 193.405 13.29V15.825C194.865 15.755 196.18 15.63 197.35 15.45ZM192.865 12.39C193.565 12.39 194.135 12.21 194.575 11.85C195.015 11.48 195.235 10.995 195.235 10.395V10.05C195.235 9.45 195.015 8.97 194.575 8.61C194.135 8.24 193.565 8.055 192.865 8.055C192.165 8.055 191.595 8.24 191.155 8.61C190.715 8.97 190.495 9.45 190.495 10.05V10.395C190.495 10.995 190.715 11.48 191.155 11.85C191.595 12.21 192.165 12.39 192.865 12.39ZM215.978 12.03H213.218V11.115H215.978V9.24H213.218V8.325H215.978V6.465H217.118V14.22H215.978V12.03ZM212.708 13.095H206.573V7.125H212.708V13.095ZM211.583 8.055H207.698V12.165H211.583V8.055ZM217.193 17.34C217.193 17.89 217.033 18.38 216.713 18.81C216.403 19.25 215.933 19.595 215.303 19.845C214.673 20.095 213.903 20.22 212.993 20.22C212.083 20.22 211.308 20.095 210.668 19.845C210.038 19.595 209.563 19.25 209.243 18.81C208.933 18.38 208.778 17.89 208.778 17.34C208.778 16.79 208.933 16.3 209.243 15.87C209.563 15.43 210.038 15.085 210.668 14.835C211.308 14.585 212.083 14.46 212.993 14.46C213.903 14.46 214.673 14.585 215.303 14.835C215.933 15.085 216.403 15.43 216.713 15.87C217.033 16.3 217.193 16.79 217.193 17.34ZM215.978 17.22C215.978 16.7 215.728 16.265 215.228 15.915C214.738 15.565 213.993 15.39 212.993 15.39C211.993 15.39 211.243 15.57 210.743 15.93C210.243 16.28 209.993 16.71 209.993 17.22V17.475C209.993 17.985 210.243 18.415 210.743 18.765C211.243 19.125 211.993 19.305 212.993 19.305C213.993 19.305 214.738 19.125 215.228 18.765C215.728 18.415 215.978 17.985 215.978 17.475V17.22ZM231.498 17.04V18H219.258V17.04H224.808V13.575H221.028V7.35H229.773V8.325H222.168V12.6H229.908V13.575H225.948V17.04H231.498ZM241.797 8.805V7.515H234.477V6.675H242.892V9.63H235.662V10.905H243.267V11.76H234.552V8.805H241.797ZM244.872 12.885V13.77H232.632V12.885H244.872ZM234.507 19.38V17.115H241.977V15.855H234.417V14.97H243.042V17.955H235.572V19.245H243.432V20.145H235.257C235.017 20.145 234.832 20.08 234.702 19.95C234.572 19.82 234.507 19.63 234.507 19.38ZM262.195 9.675V10.635H260.11V13.89H258.97V6.465H260.11V9.675H262.195ZM251.62 13.14H250.12V7.17H251.245V12.195H251.635C252.715 12.195 253.745 12.155 254.725 12.075C255.705 11.985 256.55 11.87 257.26 11.73L257.41 12.645C256.7 12.795 255.845 12.915 254.845 13.005C253.845 13.095 252.77 13.14 251.62 13.14ZM256.645 17.265C256.715 17.265 256.815 17.29 256.945 17.34L260.77 19.275L260.185 20.13L256.21 18.03C256.09 17.97 255.975 17.94 255.865 17.94C255.745 17.94 255.63 17.975 255.52 18.045C255.16 18.365 254.665 18.695 254.035 19.035C253.415 19.375 252.61 19.755 251.62 20.175L251.05 19.305C252.2 18.855 253.085 18.445 253.705 18.075C254.335 17.705 254.775 17.34 255.025 16.98C255.275 16.61 255.405 16.19 255.415 15.72H251.53V14.76H260.29V15.72H256.54C256.53 16.11 256.48 16.455 256.39 16.755C256.3 17.055 256.145 17.34 255.925 17.61L255.985 17.64L256.255 17.43C256.395 17.32 256.525 17.265 256.645 17.265ZM271.324 7.53H266.764V6.6H271.324V7.53ZM268.474 9.825H264.349V8.895H273.754V9.825H269.629C269.579 10.415 269.364 10.915 268.984 11.325L269.089 11.355L269.374 11.16C269.514 11.06 269.659 11.01 269.809 11.01C269.909 11.01 270.024 11.035 270.154 11.085L274.279 12.84L273.664 13.68L269.314 11.73C269.194 11.67 269.069 11.64 268.939 11.64C268.789 11.64 268.659 11.675 268.549 11.745L268.504 11.76C268.114 12.06 267.589 12.37 266.929 12.69C266.279 13 265.439 13.345 264.409 13.725L263.809 12.9C264.949 12.5 265.844 12.14 266.494 11.82C267.154 11.5 267.634 11.185 267.934 10.875C268.234 10.555 268.414 10.205 268.474 9.825ZM275.164 15.615H269.614V20.01H268.474V15.615H262.924V14.67H275.164V15.615ZM287.474 6.465V19.485H286.349V12.105H283.559C283.509 13.445 283.169 14.46 282.539 15.15C281.909 15.83 281.099 16.17 280.109 16.17C279.069 16.17 278.229 15.795 277.589 15.045C276.959 14.295 276.644 13.19 276.644 11.73C276.644 10.26 276.959 9.155 277.589 8.415C278.219 7.665 279.059 7.29 280.109 7.29C281.079 7.29 281.874 7.615 282.494 8.265C283.114 8.915 283.469 9.875 283.559 11.145H286.349V6.465H287.474ZM282.374 11.13C282.374 10.2 282.164 9.49 281.744 9C281.334 8.5 280.789 8.25 280.109 8.25C279.429 8.25 278.884 8.5 278.474 9C278.064 9.49 277.859 10.2 277.859 11.13V12.33C277.859 13.26 278.064 13.975 278.474 14.475C278.884 14.965 279.429 15.21 280.109 15.21C280.789 15.21 281.334 14.965 281.744 14.475C282.164 13.975 282.374 13.26 282.374 12.33V11.13ZM305.847 12.555H303.687V19.515H302.547V6.495H303.687V11.595H305.847V12.555ZM297.642 11.715C297.772 11.715 297.882 11.77 297.972 11.88L300.897 15.63L300.027 16.395L297.087 12.54C297.057 12.48 297.007 12.45 296.937 12.45C296.887 12.45 296.837 12.48 296.787 12.54C296.527 13.12 296.177 13.72 295.737 14.34C295.297 14.95 294.702 15.7 293.952 16.59L293.082 15.855C293.952 14.865 294.617 14.02 295.077 13.32C295.547 12.61 295.882 11.9 296.082 11.19C296.292 10.48 296.397 9.665 296.397 8.745V7.335H297.552V8.73C297.552 9.92 297.377 11 297.027 11.97L297.102 12.015L297.327 11.835C297.437 11.755 297.542 11.715 297.642 11.715ZM318.831 13.05V14.01H306.591V13.05H309.846V11.28C309.296 11.05 308.881 10.75 308.601 10.38C308.331 10.01 308.196 9.59 308.196 9.12C308.196 8.34 308.576 7.71 309.336 7.23C310.096 6.74 311.221 6.495 312.711 6.495C314.201 6.495 315.326 6.74 316.086 7.23C316.846 7.71 317.226 8.34 317.226 9.12C317.226 9.59 317.086 10.01 316.806 10.38C316.536 10.75 316.126 11.05 315.576 11.28V13.05H318.831ZM312.711 10.86C313.821 10.86 314.651 10.705 315.201 10.395C315.751 10.085 316.026 9.69 316.026 9.21V9C316.026 8.53 315.746 8.14 315.186 7.83C314.636 7.52 313.811 7.365 312.711 7.365C311.611 7.365 310.786 7.52 310.236 7.83C309.686 8.14 309.411 8.53 309.411 9V9.21C309.411 9.69 309.681 10.085 310.221 10.395C310.771 10.705 311.601 10.86 312.711 10.86ZM310.941 13.05H314.481V11.595C313.991 11.695 313.401 11.745 312.711 11.745C312.021 11.745 311.431 11.695 310.941 11.595V13.05ZM317.151 17.685C317.151 18.195 316.981 18.645 316.641 19.035C316.311 19.425 315.811 19.73 315.141 19.95C314.481 20.18 313.671 20.295 312.711 20.295C311.751 20.295 310.936 20.18 310.266 19.95C309.606 19.73 309.106 19.425 308.766 19.035C308.436 18.645 308.271 18.195 308.271 17.685C308.271 17.185 308.436 16.745 308.766 16.365C309.106 15.975 309.606 15.67 310.266 15.45C310.936 15.23 311.751 15.12 312.711 15.12C313.671 15.12 314.481 15.23 315.141 15.45C315.811 15.67 316.311 15.975 316.641 16.365C316.981 16.745 317.151 17.185 317.151 17.685ZM315.951 17.595C315.951 17.155 315.681 16.785 315.141 16.485C314.611 16.175 313.801 16.02 312.711 16.02C311.981 16.02 311.371 16.095 310.881 16.245C310.391 16.385 310.031 16.575 309.801 16.815C309.571 17.055 309.456 17.315 309.456 17.595V17.805C309.456 18.085 309.571 18.345 309.801 18.585C310.031 18.825 310.391 19.015 310.881 19.155C311.371 19.305 311.981 19.38 312.711 19.38C313.801 19.38 314.611 19.225 315.141 18.915C315.681 18.615 315.951 18.245 315.951 17.805V17.595ZM332.596 12.795H330.481V19.515H329.341V6.495H330.481V11.835H332.596V12.795ZM326.146 8.175H321.886V7.2H326.146V8.175ZM319.891 9.975H327.916V10.905H325.696V10.995C326.606 11.445 327.061 12.31 327.061 13.59C327.061 14.24 326.926 14.805 326.656 15.285C326.386 15.755 326.011 16.115 325.531 16.365C325.061 16.615 324.536 16.74 323.956 16.74C323.376 16.74 322.846 16.615 322.366 16.365C321.896 16.115 321.526 15.755 321.256 15.285C320.986 14.805 320.851 14.24 320.851 13.59C320.851 12.31 321.306 11.445 322.216 10.995V10.905H319.891V9.975ZM325.951 13.095C325.951 12.425 325.771 11.915 325.411 11.565C325.051 11.205 324.566 11.025 323.956 11.025C323.356 11.025 322.871 11.205 322.501 11.565C322.141 11.925 321.961 12.435 321.961 13.095V13.71C321.961 14.36 322.146 14.87 322.516 15.24C322.886 15.6 323.366 15.78 323.956 15.78C324.546 15.78 325.026 15.6 325.396 15.24C325.766 14.87 325.951 14.36 325.951 13.71V13.095ZM343.435 12.03H340.765V11.115H343.435V9.24H340.765V8.325H343.435V6.465H344.575V13.98H343.435V12.03ZM333.7 10.185C333.7 9.525 333.845 8.95 334.135 8.46C334.425 7.97 334.825 7.595 335.335 7.335C335.845 7.065 336.43 6.93 337.09 6.93C337.75 6.93 338.335 7.065 338.845 7.335C339.355 7.595 339.755 7.97 340.045 8.46C340.335 8.95 340.48 9.525 340.48 10.185C340.48 10.845 340.335 11.42 340.045 11.91C339.755 12.4 339.35 12.78 338.83 13.05C338.32 13.31 337.74 13.44 337.09 13.44C336.44 13.44 335.855 13.31 335.335 13.05C334.825 12.78 334.425 12.4 334.135 11.91C333.845 11.42 333.7 10.845 333.7 10.185ZM334.885 10.455C334.885 11.085 335.085 11.59 335.485 11.97C335.895 12.34 336.43 12.525 337.09 12.525C337.75 12.525 338.28 12.34 338.68 11.97C339.09 11.59 339.295 11.085 339.295 10.455V9.915C339.295 9.285 339.09 8.785 338.68 8.415C338.28 8.035 337.75 7.845 337.09 7.845C336.43 7.845 335.895 8.035 335.485 8.415C335.085 8.785 334.885 9.285 334.885 9.915V10.455ZM345.805 19.275L345.07 20.055L342.85 17.88C342.79 17.81 342.72 17.775 342.64 17.775C342.6 17.775 342.555 17.79 342.505 17.82C342.275 18.16 341.98 18.51 341.62 18.87C341.26 19.24 340.78 19.685 340.18 20.205L337.9 17.835C337.83 17.765 337.76 17.73 337.69 17.73C337.65 17.73 337.595 17.755 337.525 17.805C337.085 18.465 336.335 19.25 335.275 20.16L334.555 19.395C335.225 18.835 335.75 18.335 336.13 17.895C336.51 17.455 336.78 17.02 336.94 16.59C337.11 16.16 337.195 15.675 337.195 15.135V14.655H338.275V15.165C338.275 15.985 338.12 16.7 337.81 17.31L337.87 17.34L338.065 17.19C338.145 17.12 338.24 17.085 338.35 17.085C338.47 17.085 338.575 17.13 338.665 17.22L340.255 18.81C340.975 18.16 341.47 17.575 341.74 17.055C342.01 16.535 342.145 15.9 342.145 15.15V14.655H343.225V15.21C343.225 15.65 343.19 16.04 343.12 16.38C343.05 16.72 342.935 17.045 342.775 17.355L342.835 17.4L343.03 17.235C343.14 17.155 343.245 17.115 343.345 17.115C343.445 17.115 343.545 17.155 343.645 17.235L345.805 19.275ZM356.164 8.52H348.244V7.545H357.289V8.61C357.289 10.83 357.074 12.945 356.644 14.955L355.534 14.775C355.954 12.745 356.164 10.705 356.164 8.655V8.52ZM358.954 17.04V18H346.714V17.04H351.514V12.225H352.639V17.04H358.954ZM361.558 16.245C361.878 16.245 362.108 16.33 362.248 16.5C362.398 16.66 362.473 16.87 362.473 17.13V17.34C362.473 17.75 362.353 18.2 362.113 18.69C361.873 19.19 361.538 19.625 361.108 19.995H360.103C360.403 19.675 360.643 19.37 360.823 19.08C361.013 18.8 361.148 18.485 361.228 18.135C361.028 18.085 360.878 17.99 360.778 17.85C360.688 17.71 360.643 17.54 360.643 17.34V17.13C360.643 16.87 360.713 16.66 360.853 16.5C361.003 16.33 361.238 16.245 361.558 16.245ZM377.739 6.465H378.879V19.485H377.739V6.465ZM368.109 11.73C368.109 10.27 368.429 9.165 369.069 8.415C369.719 7.665 370.574 7.29 371.634 7.29C372.684 7.29 373.529 7.665 374.169 8.415C374.819 9.165 375.144 10.27 375.144 11.73C375.144 12.71 374.994 13.535 374.694 14.205C374.394 14.865 373.979 15.36 373.449 15.69C372.919 16.01 372.314 16.17 371.634 16.17C370.574 16.17 369.719 15.795 369.069 15.045C368.429 14.295 368.109 13.19 368.109 11.73ZM373.929 12.315V11.145C373.929 10.215 373.714 9.5 373.284 9C372.864 8.5 372.314 8.25 371.634 8.25C370.944 8.25 370.384 8.5 369.954 9C369.534 9.49 369.324 10.205 369.324 11.145V12.315C369.324 13.255 369.534 13.975 369.954 14.475C370.384 14.965 370.944 15.21 371.634 15.21C372.314 15.21 372.864 14.96 373.284 14.46C373.714 13.96 373.929 13.245 373.929 12.315ZM390.258 8.805V7.515H382.938V6.675H391.353V9.63H384.123V10.905H391.728V11.76H383.013V8.805H390.258ZM393.333 12.885V13.77H381.093V12.885H393.333ZM382.968 19.38V17.115H390.438V15.855H382.878V14.97H391.503V17.955H384.033V19.245H391.893V20.145H383.718C383.478 20.145 383.293 20.08 383.163 19.95C383.033 19.82 382.968 19.63 382.968 19.38ZM408.032 6.465H409.172V19.485H408.032V6.465ZM398.597 15.9C399.977 15.19 401.032 14.54 401.762 13.95C402.492 13.36 403.002 12.735 403.292 12.075C403.592 11.415 403.742 10.6 403.742 9.63V8.505H398.972V7.53H404.882V9.615C404.882 10.725 404.712 11.665 404.372 12.435C404.042 13.205 403.477 13.925 402.677 14.595C401.887 15.255 400.752 15.98 399.272 16.77L398.597 15.9ZM416.951 7.92H412.886V7.005H422.126V7.92H418.106C418.096 8.3 418.041 8.645 417.941 8.955C417.841 9.255 417.676 9.54 417.446 9.81L417.521 9.84L417.836 9.63C417.966 9.53 418.096 9.48 418.226 9.48C418.336 9.48 418.451 9.51 418.571 9.57L422.681 11.58L422.051 12.42L417.776 10.245C417.646 10.175 417.521 10.14 417.401 10.14C417.271 10.14 417.156 10.17 417.056 10.23C416.666 10.58 416.136 10.935 415.466 11.295C414.806 11.645 413.961 12.03 412.931 12.45L412.331 11.625C413.521 11.155 414.441 10.73 415.091 10.35C415.741 9.97 416.206 9.59 416.486 9.21C416.766 8.83 416.921 8.4 416.951 7.92ZM423.626 13.515V14.505H418.151V17.16H417.011V14.505H411.386V13.515H423.626ZM414.236 18.87H422.021V19.815H413.861C413.621 19.815 413.436 19.75 413.306 19.62C413.176 19.49 413.111 19.3 413.111 19.05V15.96H414.236V18.87ZM426.155 10.545C426.155 9.875 426.325 9.275 426.665 8.745C427.015 8.205 427.545 7.775 428.255 7.455C428.965 7.135 429.84 6.975 430.88 6.975C431.92 6.975 432.795 7.135 433.505 7.455C434.215 7.775 434.74 8.205 435.08 8.745C435.43 9.275 435.605 9.875 435.605 10.545C435.605 11.215 435.43 11.82 435.08 12.36C434.74 12.9 434.215 13.33 433.505 13.65C432.795 13.97 431.92 14.13 430.88 14.13C429.84 14.13 428.965 13.97 428.255 13.65C427.545 13.33 427.015 12.9 426.665 12.36C426.325 11.82 426.155 11.215 426.155 10.545ZM434.375 10.725V10.38C434.375 9.92 434.25 9.505 434 9.135C433.76 8.755 433.375 8.455 432.845 8.235C432.325 8.005 431.67 7.89 430.88 7.89C430.09 7.89 429.43 8.005 428.9 8.235C428.38 8.455 427.995 8.755 427.745 9.135C427.505 9.505 427.385 9.92 427.385 10.38V10.725C427.385 11.435 427.675 12.025 428.255 12.495C428.835 12.965 429.71 13.2 430.88 13.2C432.05 13.2 432.925 12.965 433.505 12.495C434.085 12.025 434.375 11.435 434.375 10.725ZM424.76 17.025H437V18H424.76V17.025ZM450.374 17.04V18H438.134V17.04H443.684V14.475H439.934V10.41H447.434V8.205H439.859V7.26H448.574V11.325H441.074V13.53H448.964V14.475H444.824V17.04H450.374ZM467.683 12.555H465.523V19.515H464.383V6.495H465.523V11.595H467.683V12.555ZM459.553 11.97C459.673 11.97 459.788 12.025 459.898 12.135L462.823 15.6L461.968 16.335L459.028 12.75C458.968 12.69 458.903 12.66 458.833 12.66C458.763 12.66 458.713 12.69 458.683 12.75C458.413 13.29 458.058 13.845 457.618 14.415C457.188 14.975 456.598 15.68 455.848 16.53L455.008 15.825C455.878 14.905 456.543 14.11 457.003 13.44C457.473 12.77 457.813 12.105 458.023 11.445C458.233 10.775 458.338 10.015 458.338 9.165V8.595H455.398V7.635H462.388V8.595H459.463V9.195C459.463 10.315 459.283 11.32 458.923 12.21L458.998 12.27L459.238 12.09C459.338 12.01 459.443 11.97 459.553 11.97ZM478.522 12.45H475.852V11.52H478.522V9.48H475.852V8.55H478.522V6.465H479.662V16.35H478.522V12.45ZM472.177 13.95C471.517 13.95 470.932 13.815 470.422 13.545C469.912 13.265 469.512 12.865 469.222 12.345C468.932 11.825 468.787 11.215 468.787 10.515C468.787 9.815 468.932 9.205 469.222 8.685C469.512 8.165 469.912 7.77 470.422 7.5C470.932 7.22 471.517 7.08 472.177 7.08C472.837 7.08 473.422 7.22 473.932 7.5C474.442 7.77 474.842 8.165 475.132 8.685C475.422 9.205 475.567 9.815 475.567 10.515C475.567 11.215 475.422 11.825 475.132 12.345C474.842 12.865 474.442 13.265 473.932 13.545C473.422 13.815 472.837 13.95 472.177 13.95ZM472.177 13.02C472.827 13.02 473.352 12.825 473.752 12.435C474.162 12.035 474.367 11.505 474.367 10.845V10.2C474.367 9.54 474.162 9.01 473.752 8.61C473.352 8.21 472.827 8.01 472.177 8.01C471.517 8.01 470.982 8.21 470.572 8.61C470.172 9.01 469.972 9.54 469.972 10.2V10.845C469.972 11.505 470.172 12.035 470.572 12.435C470.982 12.825 471.517 13.02 472.177 13.02ZM479.932 18.825V19.77H472.072C471.832 19.77 471.647 19.705 471.517 19.575C471.387 19.445 471.322 19.255 471.322 19.005V15.27H472.477V18.825H479.932ZM483.061 13.965L482.416 13.08C483.776 12.38 484.816 11.76 485.536 11.22C486.266 10.67 486.771 10.125 487.051 9.585C487.331 9.035 487.471 8.405 487.471 7.695V7.185H488.641V7.725C488.641 8.305 488.576 8.825 488.446 9.285C488.326 9.735 488.121 10.16 487.831 10.56L487.906 10.605L488.281 10.32C488.411 10.22 488.541 10.17 488.671 10.17C488.801 10.17 488.931 10.215 489.061 10.305L493.426 13.02L492.766 13.92L488.251 11.01C488.121 10.92 487.981 10.875 487.831 10.875C487.701 10.875 487.571 10.925 487.441 11.025C487.031 11.465 486.476 11.92 485.776 12.39C485.076 12.85 484.171 13.375 483.061 13.965ZM494.041 17.025V18H481.801V17.025H494.041ZM505.255 10.56H502.555V9.615H505.255V6.465H506.395V14.01H505.255V10.56ZM503.275 13.305C501.755 13.615 499.845 13.77 497.545 13.77H496.075V9.9H500.455V7.98H496.015V7.065H501.55V10.8H497.17V12.855H497.635C499.725 12.855 501.555 12.71 503.125 12.42L503.275 13.305ZM506.41 14.775V20.025H498.925C498.685 20.025 498.5 19.96 498.37 19.83C498.24 19.7 498.175 19.51 498.175 19.26V14.775H499.285V16.41H505.285V14.775H506.41ZM505.285 17.355H499.285V19.065H505.285V17.355ZM520.114 6.465V19.485H519.004V6.465H520.114ZM515.989 6.69H517.084V19.125H515.989V12.51H513.724C513.444 13.25 512.984 13.945 512.344 14.595C511.714 15.235 510.799 15.955 509.599 16.755L508.849 15.99C509.979 15.26 510.839 14.61 511.429 14.04C512.019 13.46 512.434 12.855 512.674 12.225C512.914 11.585 513.034 10.8 513.034 9.87V8.715H509.194V7.8H514.129V9.84C514.129 10.49 514.079 11.065 513.979 11.565H515.989V6.69ZM535.563 12.45H532.893V11.52H535.563V9.48H532.893V8.55H535.563V6.465H536.703V16.35H535.563V12.45ZM529.218 13.95C528.558 13.95 527.973 13.815 527.463 13.545C526.953 13.265 526.553 12.865 526.263 12.345C525.973 11.825 525.828 11.215 525.828 10.515C525.828 9.815 525.973 9.205 526.263 8.685C526.553 8.165 526.953 7.77 527.463 7.5C527.973 7.22 528.558 7.08 529.218 7.08C529.878 7.08 530.463 7.22 530.973 7.5C531.483 7.77 531.883 8.165 532.173 8.685C532.463 9.205 532.608 9.815 532.608 10.515C532.608 11.215 532.463 11.825 532.173 12.345C531.883 12.865 531.483 13.265 530.973 13.545C530.463 13.815 529.878 13.95 529.218 13.95ZM529.218 13.02C529.868 13.02 530.393 12.825 530.793 12.435C531.203 12.035 531.408 11.505 531.408 10.845V10.2C531.408 9.54 531.203 9.01 530.793 8.61C530.393 8.21 529.868 8.01 529.218 8.01C528.558 8.01 528.023 8.21 527.613 8.61C527.213 9.01 527.013 9.54 527.013 10.2V10.845C527.013 11.505 527.213 12.035 527.613 12.435C528.023 12.825 528.558 13.02 529.218 13.02ZM536.973 18.825V19.77H529.113C528.873 19.77 528.688 19.705 528.558 19.575C528.428 19.445 528.363 19.255 528.363 19.005V15.27H529.518V18.825H536.973ZM548.937 11.79H545.982V10.875H548.937V9.12H545.982V8.205H548.937V6.465H550.077V13.29H548.937V11.79ZM539.952 13.53L539.352 12.675C540.672 12.185 541.682 11.74 542.382 11.34C543.082 10.94 543.572 10.525 543.852 10.095C544.132 9.665 544.272 9.145 544.272 8.535V8.01H539.727V7.05H545.412V8.4C545.412 9.23 545.252 9.925 544.932 10.485C544.612 11.035 544.067 11.545 543.297 12.015C542.527 12.475 541.412 12.98 539.952 13.53ZM550.437 19.125V20.1H542.472C542.232 20.1 542.047 20.035 541.917 19.905C541.787 19.775 541.722 19.585 541.722 19.335V16.62H548.922V15.075H541.632V14.115H550.077V17.58H542.877V19.125H550.437ZM563.391 6.465V19.485H562.266V6.465H563.391ZM561.186 15.45L561.291 16.365C560.161 16.545 558.806 16.685 557.226 16.785C555.646 16.875 554.016 16.92 552.336 16.92L552.246 15.945C553.706 15.945 554.951 15.92 555.981 15.87V12.96H553.356V7.47H559.821V8.415H554.481V12.015H559.941V12.96H557.076V15.825C558.596 15.755 559.966 15.63 561.186 15.45ZM576.091 11.655H567.466V6.945H568.591V10.71H576.091V11.655ZM577.831 13.32V14.295H565.591V13.32H577.831ZM568.486 18.795H576.256V19.755H568.096C567.856 19.755 567.671 19.69 567.541 19.56C567.411 19.43 567.346 19.24 567.346 18.99V15.705H568.486V18.795ZM593.684 6.465V19.485H592.559V11.79H589.784V10.83H592.559V6.465H593.684ZM587.189 11.715C587.309 11.715 587.414 11.77 587.504 11.88L590.444 15.63L589.574 16.395L586.634 12.525C586.594 12.475 586.544 12.45 586.484 12.45C586.424 12.45 586.374 12.475 586.334 12.525C586.084 13.105 585.739 13.7 585.299 14.31C584.859 14.92 584.259 15.68 583.499 16.59L582.629 15.855C583.499 14.865 584.164 14.02 584.624 13.32C585.094 12.61 585.429 11.9 585.629 11.19C585.839 10.48 585.944 9.665 585.944 8.745V7.335H587.084V8.73C587.084 9.94 586.919 11.02 586.589 11.97L586.649 12.015L586.859 11.835C586.969 11.755 587.079 11.715 587.189 11.715ZM597.578 7.17H598.703V9.66H605.303V7.17H606.428V14.07H597.578V7.17ZM605.303 13.11V10.62H598.703V13.11H605.303ZM595.883 17.025H608.123V18H595.883V17.025ZM622.897 10.35H620.197V9.405H622.897V6.465H624.037V13.365H622.897V10.35ZM613.957 13.89L613.357 13.05C614.777 12.57 615.867 12.11 616.627 11.67C617.397 11.22 617.937 10.74 618.247 10.23L613.477 10.605L613.327 9.66L618.547 9.405C618.577 9.235 618.592 9.055 618.592 8.865V7.965H613.882V7.035H619.657V8.775C619.657 9.555 619.472 10.23 619.102 10.8C618.742 11.37 618.152 11.9 617.332 12.39C616.512 12.88 615.387 13.38 613.957 13.89ZM624.397 19.125V20.1H616.432C616.192 20.1 616.007 20.035 615.877 19.905C615.747 19.775 615.682 19.585 615.682 19.335V16.65H622.897V15.135H615.592V14.175H624.037V17.595H616.837V19.125H624.397ZM637.351 6.465V19.485H636.226V12.075H633.571V11.115H636.226V6.465H637.351ZM634.156 14.925L634.291 15.84C632.821 16.14 630.926 16.29 628.606 16.29H627.031V11.28H631.561V8.415H626.986V7.455H632.686V12.21H628.156V15.36H628.651C630.811 15.36 632.646 15.215 634.156 14.925ZM648.715 8.805V7.515H641.395V6.675H649.81V9.63H642.58V10.905H650.185V11.76H641.47V8.805H648.715ZM651.79 12.885V13.77H639.55V12.885H651.79ZM641.425 19.38V17.115H648.895V15.855H641.335V14.97H649.96V17.955H642.49V19.245H650.35V20.145H642.175C641.935 20.145 641.75 20.08 641.62 19.95C641.49 19.82 641.425 19.63 641.425 19.38ZM666.564 9.93H663.699V8.985H666.564V6.465H667.704V13.35H666.564V9.93ZM660.459 10.41C660.389 10.41 660.324 10.445 660.264 10.515C659.994 10.925 659.644 11.355 659.214 11.805C658.784 12.245 658.214 12.78 657.504 13.41L656.664 12.675C657.514 11.945 658.169 11.325 658.629 10.815C659.089 10.295 659.419 9.785 659.619 9.285C659.819 8.775 659.919 8.2 659.919 7.56V6.78H661.074V7.62C661.074 8.49 660.899 9.29 660.549 10.02L660.609 10.065L660.864 9.84C660.984 9.75 661.094 9.705 661.194 9.705C661.304 9.705 661.409 9.75 661.509 9.84L664.344 12.345L663.549 13.155L660.654 10.5C660.594 10.44 660.529 10.41 660.459 10.41ZM668.064 19.125V20.1H660.099C659.859 20.1 659.674 20.035 659.544 19.905C659.414 19.775 659.349 19.585 659.349 19.335V16.62H666.549V15.09H659.259V14.115H667.704V17.58H660.504V19.125H668.064ZM679.938 9.69V6.465H681.078V14.295H679.938V10.62H677.208V9.69H679.938ZM671.028 13.845L670.173 13.125C671.013 12.465 671.663 11.895 672.123 11.415C672.583 10.925 672.913 10.445 673.113 9.975C673.323 9.495 673.428 8.96 673.428 8.37V8.22H670.563V7.26H677.403V8.22H674.568V8.415C674.568 9.265 674.393 10.01 674.043 10.65L674.133 10.695L674.373 10.515C674.483 10.435 674.593 10.395 674.703 10.395C674.833 10.395 674.948 10.44 675.048 10.53L677.838 12.87L676.998 13.62L674.163 11.16C674.083 11.1 674.008 11.07 673.938 11.07C673.858 11.07 673.788 11.1 673.728 11.16C673.458 11.55 673.113 11.95 672.693 12.36C672.273 12.77 671.718 13.265 671.028 13.845ZM681.153 17.4C681.153 17.94 680.993 18.42 680.673 18.84C680.363 19.27 679.888 19.605 679.248 19.845C678.618 20.095 677.848 20.22 676.938 20.22C676.018 20.22 675.238 20.095 674.598 19.845C673.968 19.605 673.493 19.27 673.173 18.84C672.863 18.42 672.708 17.94 672.708 17.4C672.708 16.86 672.863 16.38 673.173 15.96C673.493 15.53 673.968 15.195 674.598 14.955C675.238 14.705 676.018 14.58 676.938 14.58C677.848 14.58 678.618 14.705 679.248 14.955C679.888 15.195 680.363 15.53 680.673 15.96C680.993 16.38 681.153 16.86 681.153 17.4ZM679.953 17.28C679.953 16.77 679.703 16.345 679.203 16.005C678.703 15.655 677.948 15.48 676.938 15.48C675.918 15.48 675.153 15.655 674.643 16.005C674.143 16.345 673.893 16.77 673.893 17.28V17.535C673.893 18.035 674.143 18.455 674.643 18.795C675.153 19.145 675.918 19.32 676.938 19.32C677.948 19.32 678.703 19.145 679.203 18.795C679.703 18.455 679.953 18.035 679.953 17.535V17.28Z" fill="#333333"/>
<rect y="48" width="114" height="49" rx="24.5" fill="#EDE6DB"/>
<rect x="72" y="55" width="35.4273" height="35.4273" rx="17.7137" fill="white"/>
<path d="M10.29 78V67.53H16.995V69.03H11.985V71.94H16.53V73.44H11.985V76.5H16.995V78H10.29ZM19.1816 67.53H22.8866C23.5566 67.53 24.1616 67.64 24.7016 67.86C25.2516 68.08 25.7166 68.41 26.0966 68.85C26.4866 69.28 26.7866 69.825 26.9966 70.485C27.2066 71.135 27.3116 71.895 27.3116 72.765C27.3116 73.635 27.2066 74.4 26.9966 75.06C26.7866 75.71 26.4866 76.255 26.0966 76.695C25.7166 77.125 25.2516 77.45 24.7016 77.67C24.1616 77.89 23.5566 78 22.8866 78H19.1816V67.53ZM22.8866 76.5C23.6666 76.5 24.2966 76.255 24.7766 75.765C25.2566 75.275 25.4966 74.555 25.4966 73.605V71.925C25.4966 70.975 25.2566 70.255 24.7766 69.765C24.2966 69.275 23.6666 69.03 22.8866 69.03H20.8766V76.5H22.8866ZM29.4209 78V67.53H36.1259V69.03H31.1159V71.94H35.6609V73.44H31.1159V76.5H36.1259V78H29.4209ZM41.5525 78.18C40.9725 78.18 40.4525 78.085 39.9925 77.895C39.5425 77.705 39.1575 77.435 38.8375 77.085C38.5275 76.725 38.2875 76.295 38.1175 75.795C37.9475 75.295 37.8625 74.73 37.8625 74.1C37.8625 73.34 37.9775 72.625 38.2075 71.955C38.4375 71.285 38.7325 70.67 39.0925 70.11C39.4525 69.55 39.8525 69.055 40.2925 68.625C40.7425 68.185 41.1825 67.82 41.6125 67.53H43.8625C43.2725 67.96 42.7425 68.375 42.2725 68.775C41.8025 69.175 41.3925 69.585 41.0425 70.005C40.6925 70.425 40.3975 70.87 40.1575 71.34C39.9275 71.81 39.7475 72.325 39.6175 72.885L39.7225 72.915C39.8325 72.705 39.9575 72.51 40.0975 72.33C40.2475 72.14 40.4175 71.975 40.6075 71.835C40.8075 71.695 41.0325 71.585 41.2825 71.505C41.5325 71.425 41.8225 71.385 42.1525 71.385C42.5925 71.385 42.9975 71.46 43.3675 71.61C43.7475 71.76 44.0725 71.98 44.3425 72.27C44.6225 72.55 44.8375 72.89 44.9875 73.29C45.1475 73.69 45.2275 74.135 45.2275 74.625C45.2275 75.155 45.1375 75.64 44.9575 76.08C44.7875 76.51 44.5425 76.88 44.2225 77.19C43.9025 77.5 43.5125 77.745 43.0525 77.925C42.6025 78.095 42.1025 78.18 41.5525 78.18ZM41.5525 76.8C42.1625 76.8 42.6375 76.64 42.9775 76.32C43.3175 75.99 43.4875 75.51 43.4875 74.88V74.67C43.4875 74.04 43.3175 73.565 42.9775 73.245C42.6375 72.915 42.1625 72.75 41.5525 72.75C40.9425 72.75 40.4675 72.915 40.1275 73.245C39.7875 73.565 39.6175 74.04 39.6175 74.67V74.88C39.6175 75.51 39.7875 75.99 40.1275 76.32C40.4675 76.64 40.9425 76.8 41.5525 76.8ZM47.3066 67.53H51.0116C51.6816 67.53 52.2866 67.64 52.8266 67.86C53.3766 68.08 53.8416 68.41 54.2216 68.85C54.6116 69.28 54.9116 69.825 55.1216 70.485C55.3316 71.135 55.4366 71.895 55.4366 72.765C55.4366 73.635 55.3316 74.4 55.1216 75.06C54.9116 75.71 54.6116 76.255 54.2216 76.695C53.8416 77.125 53.3766 77.45 52.8266 77.67C52.2866 77.89 51.6816 78 51.0116 78H47.3066V67.53ZM51.0116 76.5C51.7916 76.5 52.4216 76.255 52.9016 75.765C53.3816 75.275 53.6216 74.555 53.6216 73.605V71.925C53.6216 70.975 53.3816 70.255 52.9016 69.765C52.4216 69.275 51.7916 69.03 51.0116 69.03H49.0016V76.5H51.0116ZM57.5459 67.53H62.1809C63.0509 67.53 63.7309 67.775 64.2209 68.265C64.7209 68.755 64.9709 69.41 64.9709 70.23C64.9709 70.62 64.9159 70.955 64.8059 71.235C64.6959 71.505 64.5559 71.73 64.3859 71.91C64.2159 72.08 64.0209 72.21 63.8009 72.3C63.5809 72.38 63.3659 72.43 63.1559 72.45V72.54C63.3659 72.55 63.5959 72.6 63.8459 72.69C64.1059 72.78 64.3459 72.925 64.5659 73.125C64.7859 73.315 64.9709 73.565 65.1209 73.875C65.2709 74.175 65.3459 74.545 65.3459 74.985C65.3459 75.405 65.2759 75.8 65.1359 76.17C65.0059 76.54 64.8209 76.86 64.5809 77.13C64.3409 77.4 64.0559 77.615 63.7259 77.775C63.3959 77.925 63.0359 78 62.6459 78H57.5459V67.53ZM59.2409 76.545H62.1509C62.5909 76.545 62.9359 76.43 63.1859 76.2C63.4359 75.97 63.5609 75.64 63.5609 75.21V74.7C63.5609 74.27 63.4359 73.94 63.1859 73.71C62.9359 73.48 62.5909 73.365 62.1509 73.365H59.2409V76.545ZM59.2409 71.955H61.8659C62.2859 71.955 62.6109 71.85 62.8409 71.64C63.0709 71.42 63.1859 71.11 63.1859 70.71V70.23C63.1859 69.83 63.0709 69.525 62.8409 69.315C62.6109 69.095 62.2859 68.985 61.8659 68.985H59.2409V71.955Z" fill="#333333"/>
<rect x="288" y="48" width="114" height="49" rx="24.5" fill="#1D5C63"/>
<rect x="360" y="55" width="35.4273" height="35.4273" rx="17.7137" fill="white"/>
<path d="M298.32 78V76.59H301.26V68.76H301.14L298.71 71.355L297.675 70.425L300.345 67.53H302.925V76.59H305.475V78H298.32ZM307.284 67.53H310.989C311.659 67.53 312.264 67.64 312.804 67.86C313.354 68.08 313.819 68.41 314.199 68.85C314.589 69.28 314.889 69.825 315.099 70.485C315.309 71.135 315.414 71.895 315.414 72.765C315.414 73.635 315.309 74.4 315.099 75.06C314.889 75.71 314.589 76.255 314.199 76.695C313.819 77.125 313.354 77.45 312.804 77.67C312.264 77.89 311.659 78 310.989 78H307.284V67.53ZM310.989 76.5C311.769 76.5 312.399 76.255 312.879 75.765C313.359 75.275 313.599 74.555 313.599 73.605V71.925C313.599 70.975 313.359 70.255 312.879 69.765C312.399 69.275 311.769 69.03 310.989 69.03H308.979V76.5H310.989ZM323.853 69H319.203L318.933 72.705H319.038C319.158 72.495 319.283 72.31 319.413 72.15C319.543 71.98 319.693 71.835 319.863 71.715C320.033 71.595 320.228 71.505 320.448 71.445C320.668 71.375 320.928 71.34 321.228 71.34C321.678 71.34 322.093 71.415 322.473 71.565C322.863 71.715 323.198 71.93 323.478 72.21C323.768 72.49 323.993 72.835 324.153 73.245C324.313 73.645 324.393 74.1 324.393 74.61C324.393 75.13 324.308 75.61 324.138 76.05C323.978 76.49 323.738 76.87 323.418 77.19C323.098 77.5 322.703 77.745 322.233 77.925C321.773 78.095 321.248 78.18 320.658 78.18C320.188 78.18 319.773 78.125 319.413 78.015C319.053 77.915 318.733 77.78 318.453 77.61C318.183 77.43 317.943 77.23 317.733 77.01C317.533 76.78 317.353 76.545 317.193 76.305L318.423 75.33C318.553 75.54 318.688 75.73 318.828 75.9C318.968 76.07 319.128 76.22 319.308 76.35C319.488 76.48 319.688 76.58 319.908 76.65C320.138 76.72 320.398 76.755 320.688 76.755C321.308 76.755 321.783 76.585 322.113 76.245C322.453 75.905 322.623 75.435 322.623 74.835V74.655C322.623 74.055 322.453 73.585 322.113 73.245C321.783 72.905 321.308 72.735 320.688 72.735C320.238 72.735 319.878 72.82 319.608 72.99C319.338 73.16 319.108 73.35 318.918 73.56L317.523 73.365L317.913 67.53H323.853V69ZM330.448 78.18C329.078 78.18 328.003 77.72 327.223 76.8C326.443 75.87 326.053 74.525 326.053 72.765C326.053 71.885 326.153 71.11 326.353 70.44C326.553 69.77 326.843 69.205 327.223 68.745C327.603 68.285 328.063 67.94 328.603 67.71C329.153 67.47 329.768 67.35 330.448 67.35C331.358 67.35 332.118 67.55 332.728 67.95C333.348 68.35 333.833 68.94 334.183 69.72L332.758 70.5C332.578 70 332.298 69.605 331.918 69.315C331.548 69.015 331.058 68.865 330.448 68.865C329.638 68.865 329.003 69.14 328.543 69.69C328.083 70.24 327.853 71 327.853 71.97V73.56C327.853 74.53 328.083 75.29 328.543 75.84C329.003 76.39 329.638 76.665 330.448 76.665C331.078 76.665 331.588 76.505 331.978 76.185C332.378 75.855 332.673 75.435 332.863 74.925L334.228 75.75C333.878 76.51 333.388 77.105 332.758 77.535C332.128 77.965 331.358 78.18 330.448 78.18ZM339.264 78.18C338.684 78.18 338.164 78.085 337.704 77.895C337.254 77.705 336.869 77.435 336.549 77.085C336.239 76.725 335.999 76.295 335.829 75.795C335.659 75.295 335.574 74.73 335.574 74.1C335.574 73.34 335.689 72.625 335.919 71.955C336.149 71.285 336.444 70.67 336.804 70.11C337.164 69.55 337.564 69.055 338.004 68.625C338.454 68.185 338.894 67.82 339.324 67.53H341.574C340.984 67.96 340.454 68.375 339.984 68.775C339.514 69.175 339.104 69.585 338.754 70.005C338.404 70.425 338.109 70.87 337.869 71.34C337.639 71.81 337.459 72.325 337.329 72.885L337.434 72.915C337.544 72.705 337.669 72.51 337.809 72.33C337.959 72.14 338.129 71.975 338.319 71.835C338.519 71.695 338.744 71.585 338.994 71.505C339.244 71.425 339.534 71.385 339.864 71.385C340.304 71.385 340.709 71.46 341.079 71.61C341.459 71.76 341.784 71.98 342.054 72.27C342.334 72.55 342.549 72.89 342.699 73.29C342.859 73.69 342.939 74.135 342.939 74.625C342.939 75.155 342.849 75.64 342.669 76.08C342.499 76.51 342.254 76.88 341.934 77.19C341.614 77.5 341.224 77.745 340.764 77.925C340.314 78.095 339.814 78.18 339.264 78.18ZM339.264 76.8C339.874 76.8 340.349 76.64 340.689 76.32C341.029 75.99 341.199 75.51 341.199 74.88V74.67C341.199 74.04 341.029 73.565 340.689 73.245C340.349 72.915 339.874 72.75 339.264 72.75C338.654 72.75 338.179 72.915 337.839 73.245C337.499 73.565 337.329 74.04 337.329 74.67V74.88C337.329 75.51 337.499 75.99 337.839 76.32C338.179 76.64 338.654 76.8 339.264 76.8ZM347.659 71.835C348.309 71.835 348.789 71.7 349.099 71.43C349.409 71.15 349.564 70.795 349.564 70.365V70.26C349.564 69.78 349.414 69.415 349.114 69.165C348.814 68.905 348.409 68.775 347.899 68.775C347.399 68.775 346.974 68.89 346.624 69.12C346.274 69.34 345.979 69.65 345.739 70.05L344.614 69.075C344.774 68.845 344.954 68.625 345.154 68.415C345.354 68.205 345.589 68.025 345.859 67.875C346.129 67.715 346.434 67.59 346.774 67.5C347.114 67.4 347.504 67.35 347.944 67.35C348.434 67.35 348.889 67.41 349.309 67.53C349.729 67.65 350.089 67.83 350.389 68.07C350.689 68.3 350.924 68.585 351.094 68.925C351.264 69.255 351.349 69.63 351.349 70.05C351.349 70.38 351.294 70.68 351.184 70.95C351.084 71.22 350.939 71.46 350.749 71.67C350.569 71.87 350.354 72.035 350.104 72.165C349.864 72.295 349.609 72.39 349.339 72.45V72.525C349.639 72.585 349.919 72.685 350.179 72.825C350.449 72.955 350.684 73.13 350.884 73.35C351.084 73.56 351.239 73.815 351.349 74.115C351.469 74.405 351.529 74.74 351.529 75.12C351.529 75.58 351.439 76 351.259 76.38C351.079 76.75 350.824 77.07 350.494 77.34C350.174 77.61 349.784 77.82 349.324 77.97C348.864 78.11 348.354 78.18 347.794 78.18C347.304 78.18 346.874 78.125 346.504 78.015C346.134 77.915 345.804 77.78 345.514 77.61C345.234 77.43 344.984 77.23 344.764 77.01C344.554 76.78 344.369 76.545 344.209 76.305L345.454 75.33C345.584 75.54 345.719 75.735 345.859 75.915C346.009 76.085 346.174 76.235 346.354 76.365C346.544 76.485 346.754 76.58 346.984 76.65C347.224 76.72 347.494 76.755 347.794 76.755C348.434 76.755 348.924 76.605 349.264 76.305C349.604 75.995 349.774 75.57 349.774 75.03V74.925C349.774 74.385 349.594 73.975 349.234 73.695C348.874 73.415 348.364 73.275 347.704 73.275H346.594V71.835H347.659Z" fill="white"/>
<rect x="144" y="48" width="114" height="49" rx="24.5" fill="#417D7A"/>
<rect x="216" y="55" width="35.4273" height="35.4273" rx="17.7137" fill="white"/>
<path d="M158.385 78V75.96H153.525V74.505L157.77 67.53H159.99V74.625H161.415V75.96H159.99V78H158.385ZM154.965 74.625H158.385V69.075H158.28L154.965 74.625ZM163.314 78V76.59H166.254V68.76H166.134L163.704 71.355L162.669 70.425L165.339 67.53H167.919V76.59H170.469V78H163.314ZM173.553 78L177.348 68.925H173.388V70.86H171.933V67.53H179.028V69L175.338 78H173.553ZM181.272 67.53H184.977C185.647 67.53 186.252 67.64 186.792 67.86C187.342 68.08 187.807 68.41 188.187 68.85C188.577 69.28 188.877 69.825 189.087 70.485C189.297 71.135 189.402 71.895 189.402 72.765C189.402 73.635 189.297 74.4 189.087 75.06C188.877 75.71 188.577 76.255 188.187 76.695C187.807 77.125 187.342 77.45 186.792 77.67C186.252 77.89 185.647 78 184.977 78H181.272V67.53ZM184.977 76.5C185.757 76.5 186.387 76.255 186.867 75.765C187.347 75.275 187.587 74.555 187.587 73.605V71.925C187.587 70.975 187.347 70.255 186.867 69.765C186.387 69.275 185.757 69.03 184.977 69.03H182.967V76.5H184.977ZM192.787 78L196.582 68.925H192.622V70.86H191.167V67.53H198.262V69L194.572 78H192.787ZM207.046 78L206.101 75.165H202.186L201.271 78H199.546L203.116 67.53H205.246L208.816 78H207.046ZM204.181 69.09H204.106L202.591 73.71H205.681L204.181 69.09Z" fill="#333333"/>
<rect x="432.5" y="48.5" width="113" height="48.0078" rx="24.0039" fill="#1A3C40" stroke="#1A3C40"/>
<rect x="504" y="55" width="35.4273" height="35.4273" rx="17.7137" fill="white"/>
<path d="M442.32 78V76.59H445.26V68.76H445.14L442.71 71.355L441.675 70.425L444.345 67.53H446.925V76.59H449.475V78H442.32ZM457.824 78L456.879 75.165H452.964L452.049 78H450.324L453.894 67.53H456.024L459.594 78H457.824ZM454.959 69.09H454.884L453.369 73.71H456.459L454.959 69.09ZM463.856 71.835C464.506 71.835 464.986 71.7 465.296 71.43C465.606 71.15 465.761 70.795 465.761 70.365V70.26C465.761 69.78 465.611 69.415 465.311 69.165C465.011 68.905 464.606 68.775 464.096 68.775C463.596 68.775 463.171 68.89 462.821 69.12C462.471 69.34 462.176 69.65 461.936 70.05L460.811 69.075C460.971 68.845 461.151 68.625 461.351 68.415C461.551 68.205 461.786 68.025 462.056 67.875C462.326 67.715 462.631 67.59 462.971 67.5C463.311 67.4 463.701 67.35 464.141 67.35C464.631 67.35 465.086 67.41 465.506 67.53C465.926 67.65 466.286 67.83 466.586 68.07C466.886 68.3 467.121 68.585 467.291 68.925C467.461 69.255 467.546 69.63 467.546 70.05C467.546 70.38 467.491 70.68 467.381 70.95C467.281 71.22 467.136 71.46 466.946 71.67C466.766 71.87 466.551 72.035 466.301 72.165C466.061 72.295 465.806 72.39 465.536 72.45V72.525C465.836 72.585 466.116 72.685 466.376 72.825C466.646 72.955 466.881 73.13 467.081 73.35C467.281 73.56 467.436 73.815 467.546 74.115C467.666 74.405 467.726 74.74 467.726 75.12C467.726 75.58 467.636 76 467.456 76.38C467.276 76.75 467.021 77.07 466.691 77.34C466.371 77.61 465.981 77.82 465.521 77.97C465.061 78.11 464.551 78.18 463.991 78.18C463.501 78.18 463.071 78.125 462.701 78.015C462.331 77.915 462.001 77.78 461.711 77.61C461.431 77.43 461.181 77.23 460.961 77.01C460.751 76.78 460.566 76.545 460.406 76.305L461.651 75.33C461.781 75.54 461.916 75.735 462.056 75.915C462.206 76.085 462.371 76.235 462.551 76.365C462.741 76.485 462.951 76.58 463.181 76.65C463.421 76.72 463.691 76.755 463.991 76.755C464.631 76.755 465.121 76.605 465.461 76.305C465.801 75.995 465.971 75.57 465.971 75.03V74.925C465.971 74.385 465.791 73.975 465.431 73.695C465.071 73.415 464.561 73.275 463.901 73.275H462.791V71.835H463.856ZM474.14 78.18C472.77 78.18 471.695 77.72 470.915 76.8C470.135 75.87 469.745 74.525 469.745 72.765C469.745 71.885 469.845 71.11 470.045 70.44C470.245 69.77 470.535 69.205 470.915 68.745C471.295 68.285 471.755 67.94 472.295 67.71C472.845 67.47 473.46 67.35 474.14 67.35C475.05 67.35 475.81 67.55 476.42 67.95C477.04 68.35 477.525 68.94 477.875 69.72L476.45 70.5C476.27 70 475.99 69.605 475.61 69.315C475.24 69.015 474.75 68.865 474.14 68.865C473.33 68.865 472.695 69.14 472.235 69.69C471.775 70.24 471.545 71 471.545 71.97V73.56C471.545 74.53 471.775 75.29 472.235 75.84C472.695 76.39 473.33 76.665 474.14 76.665C474.77 76.665 475.28 76.505 475.67 76.185C476.07 75.855 476.365 75.435 476.555 74.925L477.92 75.75C477.57 76.51 477.08 77.105 476.45 77.535C475.82 77.965 475.05 78.18 474.14 78.18ZM483.812 78V75.96H478.952V74.505L483.197 67.53H485.417V74.625H486.842V75.96H485.417V78H483.812ZM480.392 74.625H483.812V69.075H483.707L480.392 74.625ZM491.921 78.18C491.271 78.18 490.706 78.06 490.226 77.82C489.746 77.57 489.351 77.215 489.041 76.755C488.731 76.295 488.501 75.73 488.351 75.06C488.201 74.39 488.126 73.625 488.126 72.765C488.126 71.915 488.201 71.155 488.351 70.485C488.501 69.805 488.731 69.235 489.041 68.775C489.351 68.315 489.746 67.965 490.226 67.725C490.706 67.475 491.271 67.35 491.921 67.35C493.221 67.35 494.176 67.825 494.786 68.775C495.406 69.725 495.716 71.055 495.716 72.765C495.716 74.475 495.406 75.805 494.786 76.755C494.176 77.705 493.221 78.18 491.921 78.18ZM491.921 76.74C492.281 76.74 492.586 76.67 492.836 76.53C493.096 76.38 493.306 76.17 493.466 75.9C493.626 75.63 493.741 75.31 493.811 74.94C493.881 74.56 493.916 74.14 493.916 73.68V71.85C493.916 71.39 493.881 70.975 493.811 70.605C493.741 70.225 493.626 69.9 493.466 69.63C493.306 69.36 493.096 69.155 492.836 69.015C492.586 68.865 492.281 68.79 491.921 68.79C491.561 68.79 491.251 68.865 490.991 69.015C490.741 69.155 490.536 69.36 490.376 69.63C490.216 69.9 490.101 70.225 490.031 70.605C489.961 70.975 489.926 71.39 489.926 71.85V73.68C489.926 74.14 489.961 74.56 490.031 74.94C490.101 75.31 490.216 75.63 490.376 75.9C490.536 76.17 490.741 76.38 490.991 76.53C491.251 76.67 491.561 76.74 491.921 76.74Z" fill="white"/>
<path d="M455.392 153V145.26H456.592V146.52H456.652C456.742 146.32 456.842 146.135 456.952 145.965C457.072 145.785 457.212 145.63 457.372 145.5C457.542 145.37 457.737 145.27 457.957 145.2C458.177 145.12 458.437 145.08 458.737 145.08C459.247 145.08 459.717 145.205 460.147 145.455C460.577 145.695 460.897 146.095 461.107 146.655H461.137C461.277 146.235 461.537 145.87 461.917 145.56C462.307 145.24 462.832 145.08 463.492 145.08C464.282 145.08 464.897 145.34 465.337 145.86C465.787 146.37 466.012 147.095 466.012 148.035V153H464.812V148.245C464.812 147.555 464.677 147.035 464.407 146.685C464.137 146.335 463.707 146.16 463.117 146.16C462.877 146.16 462.647 146.19 462.427 146.25C462.217 146.31 462.027 146.4 461.857 146.52C461.687 146.64 461.552 146.795 461.452 146.985C461.352 147.165 461.302 147.38 461.302 147.63V153H460.102V148.245C460.102 147.555 459.967 147.035 459.697 146.685C459.427 146.335 459.007 146.16 458.437 146.16C458.197 146.16 457.967 146.19 457.747 146.25C457.527 146.31 457.332 146.4 457.162 146.52C456.992 146.64 456.852 146.795 456.742 146.985C456.642 147.165 456.592 147.38 456.592 147.63V153H455.392ZM474.112 153C473.662 153 473.337 152.88 473.137 152.64C472.947 152.4 472.827 152.1 472.777 151.74H472.702C472.532 152.22 472.252 152.58 471.862 152.82C471.472 153.06 471.007 153.18 470.467 153.18C469.647 153.18 469.007 152.97 468.547 152.55C468.097 152.13 467.872 151.56 467.872 150.84C467.872 150.11 468.137 149.55 468.667 149.16C469.207 148.77 470.042 148.575 471.172 148.575H472.702V147.81C472.702 147.26 472.552 146.84 472.252 146.55C471.952 146.26 471.492 146.115 470.872 146.115C470.402 146.115 470.007 146.22 469.687 146.43C469.377 146.64 469.117 146.92 468.907 147.27L468.187 146.595C468.397 146.175 468.732 145.82 469.192 145.53C469.652 145.23 470.232 145.08 470.932 145.08C471.872 145.08 472.602 145.31 473.122 145.77C473.642 146.23 473.902 146.87 473.902 147.69V151.95H474.787V153H474.112ZM470.662 152.16C470.962 152.16 471.237 152.125 471.487 152.055C471.737 151.985 471.952 151.885 472.132 151.755C472.312 151.625 472.452 151.475 472.552 151.305C472.652 151.135 472.702 150.95 472.702 150.75V149.475H471.112C470.422 149.475 469.917 149.575 469.597 149.775C469.287 149.975 469.132 150.265 469.132 150.645V150.96C469.132 151.34 469.267 151.635 469.537 151.845C469.817 152.055 470.192 152.16 470.662 152.16ZM477.1 143.445C476.84 143.445 476.65 143.385 476.53 143.265C476.42 143.135 476.365 142.97 476.365 142.77V142.575C476.365 142.375 476.42 142.215 476.53 142.095C476.65 141.965 476.84 141.9 477.1 141.9C477.36 141.9 477.545 141.965 477.655 142.095C477.775 142.215 477.835 142.375 477.835 142.575V142.77C477.835 142.97 477.775 143.135 477.655 143.265C477.545 143.385 477.36 143.445 477.1 143.445ZM476.5 145.26H477.7V153H476.5V145.26ZM480.25 153V145.26H481.45V146.52H481.51C481.7 146.08 481.965 145.73 482.305 145.47C482.655 145.21 483.12 145.08 483.7 145.08C484.5 145.08 485.13 145.34 485.59 145.86C486.06 146.37 486.295 147.095 486.295 148.035V153H485.095V148.245C485.095 146.855 484.51 146.16 483.34 146.16C483.1 146.16 482.865 146.19 482.635 146.25C482.415 146.31 482.215 146.4 482.035 146.52C481.855 146.64 481.71 146.795 481.6 146.985C481.5 147.165 481.45 147.38 481.45 147.63V153H480.25ZM495.2 153.18C494.66 153.18 494.175 153.085 493.745 152.895C493.315 152.705 492.95 152.435 492.65 152.085C492.36 151.735 492.135 151.31 491.975 150.81C491.825 150.31 491.75 149.75 491.75 149.13C491.75 148.51 491.825 147.95 491.975 147.45C492.135 146.95 492.36 146.525 492.65 146.175C492.95 145.825 493.315 145.555 493.745 145.365C494.175 145.175 494.66 145.08 495.2 145.08C495.97 145.08 496.585 145.25 497.045 145.59C497.515 145.92 497.865 146.355 498.095 146.895L497.09 147.405C496.95 147.005 496.72 146.695 496.4 146.475C496.08 146.255 495.68 146.145 495.2 146.145C494.84 146.145 494.525 146.205 494.255 146.325C493.985 146.435 493.76 146.595 493.58 146.805C493.4 147.005 493.265 147.25 493.175 147.54C493.085 147.82 493.04 148.13 493.04 148.47V149.79C493.04 150.47 493.22 151.03 493.58 151.47C493.95 151.9 494.49 152.115 495.2 152.115C496.17 152.115 496.87 151.665 497.3 150.765L498.17 151.35C497.92 151.91 497.545 152.355 497.045 152.685C496.555 153.015 495.94 153.18 495.2 153.18ZM502.701 153.18C502.181 153.18 501.706 153.085 501.276 152.895C500.846 152.705 500.476 152.435 500.166 152.085C499.866 151.725 499.631 151.3 499.461 150.81C499.291 150.31 499.206 149.75 499.206 149.13C499.206 148.52 499.291 147.965 499.461 147.465C499.631 146.965 499.866 146.54 500.166 146.19C500.476 145.83 500.846 145.555 501.276 145.365C501.706 145.175 502.181 145.08 502.701 145.08C503.221 145.08 503.691 145.175 504.111 145.365C504.541 145.555 504.911 145.83 505.221 146.19C505.531 146.54 505.771 146.965 505.941 147.465C506.111 147.965 506.196 148.52 506.196 149.13C506.196 149.75 506.111 150.31 505.941 150.81C505.771 151.3 505.531 151.725 505.221 152.085C504.911 152.435 504.541 152.705 504.111 152.895C503.691 153.085 503.221 153.18 502.701 153.18ZM502.701 152.115C503.351 152.115 503.881 151.915 504.291 151.515C504.701 151.115 504.906 150.505 504.906 149.685V148.575C504.906 147.755 504.701 147.145 504.291 146.745C503.881 146.345 503.351 146.145 502.701 146.145C502.051 146.145 501.521 146.345 501.111 146.745C500.701 147.145 500.496 147.755 500.496 148.575V149.685C500.496 150.505 500.701 151.115 501.111 151.515C501.521 151.915 502.051 152.115 502.701 152.115ZM509.445 153C509.025 153 508.705 152.885 508.485 152.655C508.275 152.415 508.17 152.115 508.17 151.755V141.9H509.37V151.95H510.51V153H509.445ZM515.182 153.18C514.662 153.18 514.187 153.085 513.757 152.895C513.327 152.705 512.957 152.435 512.647 152.085C512.347 151.725 512.112 151.3 511.942 150.81C511.772 150.31 511.687 149.75 511.687 149.13C511.687 148.52 511.772 147.965 511.942 147.465C512.112 146.965 512.347 146.54 512.647 146.19C512.957 145.83 513.327 145.555 513.757 145.365C514.187 145.175 514.662 145.08 515.182 145.08C515.702 145.08 516.172 145.175 516.592 145.365C517.022 145.555 517.392 145.83 517.702 146.19C518.012 146.54 518.252 146.965 518.422 147.465C518.592 147.965 518.677 148.52 518.677 149.13C518.677 149.75 518.592 150.31 518.422 150.81C518.252 151.3 518.012 151.725 517.702 152.085C517.392 152.435 517.022 152.705 516.592 152.895C516.172 153.085 515.702 153.18 515.182 153.18ZM515.182 152.115C515.832 152.115 516.362 151.915 516.772 151.515C517.182 151.115 517.387 150.505 517.387 149.685V148.575C517.387 147.755 517.182 147.145 516.772 146.745C516.362 146.345 515.832 146.145 515.182 146.145C514.532 146.145 514.002 146.345 513.592 146.745C513.182 147.145 512.977 147.755 512.977 148.575V149.685C512.977 150.505 513.182 151.115 513.592 151.515C514.002 151.915 514.532 152.115 515.182 152.115ZM520.65 153V145.26H521.85V146.685H521.925C522.065 146.315 522.315 145.985 522.675 145.695C523.035 145.405 523.53 145.26 524.16 145.26H524.625V146.46H523.92C523.27 146.46 522.76 146.585 522.39 146.835C522.03 147.075 521.85 147.38 521.85 147.75V153H520.65Z" fill="#1A3C40"/>
<path d="M489 119.667C486.054 119.667 483.667 122.054 483.667 125C483.667 127.946 486.054 130.333 489 130.333C491.946 130.333 494.333 127.946 494.333 125C494.333 122.054 491.946 119.667 489 119.667ZM488 97V125H490V97H488Z" fill="#1A3C40"/>
<rect x="576" y="48" width="114" height="49.0078" rx="24.5039" fill="#333333"/>
<rect x="648" y="55" width="35.4273" height="35.4273" rx="17.7137" fill="white"/>
<path d="M588.93 71.835C589.58 71.835 590.06 71.7 590.37 71.43C590.68 71.15 590.835 70.795 590.835 70.365V70.26C590.835 69.78 590.685 69.415 590.385 69.165C590.085 68.905 589.68 68.775 589.17 68.775C588.67 68.775 588.245 68.89 587.895 69.12C587.545 69.34 587.25 69.65 587.01 70.05L585.885 69.075C586.045 68.845 586.225 68.625 586.425 68.415C586.625 68.205 586.86 68.025 587.13 67.875C587.4 67.715 587.705 67.59 588.045 67.5C588.385 67.4 588.775 67.35 589.215 67.35C589.705 67.35 590.16 67.41 590.58 67.53C591 67.65 591.36 67.83 591.66 68.07C591.96 68.3 592.195 68.585 592.365 68.925C592.535 69.255 592.62 69.63 592.62 70.05C592.62 70.38 592.565 70.68 592.455 70.95C592.355 71.22 592.21 71.46 592.02 71.67C591.84 71.87 591.625 72.035 591.375 72.165C591.135 72.295 590.88 72.39 590.61 72.45V72.525C590.91 72.585 591.19 72.685 591.45 72.825C591.72 72.955 591.955 73.13 592.155 73.35C592.355 73.56 592.51 73.815 592.62 74.115C592.74 74.405 592.8 74.74 592.8 75.12C592.8 75.58 592.71 76 592.53 76.38C592.35 76.75 592.095 77.07 591.765 77.34C591.445 77.61 591.055 77.82 590.595 77.97C590.135 78.11 589.625 78.18 589.065 78.18C588.575 78.18 588.145 78.125 587.775 78.015C587.405 77.915 587.075 77.78 586.785 77.61C586.505 77.43 586.255 77.23 586.035 77.01C585.825 76.78 585.64 76.545 585.48 76.305L586.725 75.33C586.855 75.54 586.99 75.735 587.13 75.915C587.28 76.085 587.445 76.235 587.625 76.365C587.815 76.485 588.025 76.58 588.255 76.65C588.495 76.72 588.765 76.755 589.065 76.755C589.705 76.755 590.195 76.605 590.535 76.305C590.875 75.995 591.045 75.57 591.045 75.03V74.925C591.045 74.385 590.865 73.975 590.505 73.695C590.145 73.415 589.635 73.275 588.975 73.275H587.865V71.835H588.93ZM597.924 71.835C598.574 71.835 599.054 71.7 599.364 71.43C599.674 71.15 599.829 70.795 599.829 70.365V70.26C599.829 69.78 599.679 69.415 599.379 69.165C599.079 68.905 598.674 68.775 598.164 68.775C597.664 68.775 597.239 68.89 596.889 69.12C596.539 69.34 596.244 69.65 596.004 70.05L594.879 69.075C595.039 68.845 595.219 68.625 595.419 68.415C595.619 68.205 595.854 68.025 596.124 67.875C596.394 67.715 596.699 67.59 597.039 67.5C597.379 67.4 597.769 67.35 598.209 67.35C598.699 67.35 599.154 67.41 599.574 67.53C599.994 67.65 600.354 67.83 600.654 68.07C600.954 68.3 601.189 68.585 601.359 68.925C601.529 69.255 601.614 69.63 601.614 70.05C601.614 70.38 601.559 70.68 601.449 70.95C601.349 71.22 601.204 71.46 601.014 71.67C600.834 71.87 600.619 72.035 600.369 72.165C600.129 72.295 599.874 72.39 599.604 72.45V72.525C599.904 72.585 600.184 72.685 600.444 72.825C600.714 72.955 600.949 73.13 601.149 73.35C601.349 73.56 601.504 73.815 601.614 74.115C601.734 74.405 601.794 74.74 601.794 75.12C601.794 75.58 601.704 76 601.524 76.38C601.344 76.75 601.089 77.07 600.759 77.34C600.439 77.61 600.049 77.82 599.589 77.97C599.129 78.11 598.619 78.18 598.059 78.18C597.569 78.18 597.139 78.125 596.769 78.015C596.399 77.915 596.069 77.78 595.779 77.61C595.499 77.43 595.249 77.23 595.029 77.01C594.819 76.78 594.634 76.545 594.474 76.305L595.719 75.33C595.849 75.54 595.984 75.735 596.124 75.915C596.274 76.085 596.439 76.235 596.619 76.365C596.809 76.485 597.019 76.58 597.249 76.65C597.489 76.72 597.759 76.755 598.059 76.755C598.699 76.755 599.189 76.605 599.529 76.305C599.869 75.995 600.039 75.57 600.039 75.03V74.925C600.039 74.385 599.859 73.975 599.499 73.695C599.139 73.415 598.629 73.275 597.969 73.275H596.859V71.835H597.924ZM606.918 71.835C607.568 71.835 608.048 71.7 608.358 71.43C608.668 71.15 608.823 70.795 608.823 70.365V70.26C608.823 69.78 608.673 69.415 608.373 69.165C608.073 68.905 607.668 68.775 607.158 68.775C606.658 68.775 606.233 68.89 605.883 69.12C605.533 69.34 605.238 69.65 604.998 70.05L603.873 69.075C604.033 68.845 604.213 68.625 604.413 68.415C604.613 68.205 604.848 68.025 605.118 67.875C605.388 67.715 605.693 67.59 606.033 67.5C606.373 67.4 606.763 67.35 607.203 67.35C607.693 67.35 608.148 67.41 608.568 67.53C608.988 67.65 609.348 67.83 609.648 68.07C609.948 68.3 610.183 68.585 610.353 68.925C610.523 69.255 610.608 69.63 610.608 70.05C610.608 70.38 610.553 70.68 610.443 70.95C610.343 71.22 610.198 71.46 610.008 71.67C609.828 71.87 609.613 72.035 609.363 72.165C609.123 72.295 608.868 72.39 608.598 72.45V72.525C608.898 72.585 609.178 72.685 609.438 72.825C609.708 72.955 609.943 73.13 610.143 73.35C610.343 73.56 610.498 73.815 610.608 74.115C610.728 74.405 610.788 74.74 610.788 75.12C610.788 75.58 610.698 76 610.518 76.38C610.338 76.75 610.083 77.07 609.753 77.34C609.433 77.61 609.043 77.82 608.583 77.97C608.123 78.11 607.613 78.18 607.053 78.18C606.563 78.18 606.133 78.125 605.763 78.015C605.393 77.915 605.063 77.78 604.773 77.61C604.493 77.43 604.243 77.23 604.023 77.01C603.813 76.78 603.628 76.545 603.468 76.305L604.713 75.33C604.843 75.54 604.978 75.735 605.118 75.915C605.268 76.085 605.433 76.235 605.613 76.365C605.803 76.485 606.013 76.58 606.243 76.65C606.483 76.72 606.753 76.755 607.053 76.755C607.693 76.755 608.183 76.605 608.523 76.305C608.863 75.995 609.033 75.57 609.033 75.03V74.925C609.033 74.385 608.853 73.975 608.493 73.695C608.133 73.415 607.623 73.275 606.963 73.275H605.853V71.835H606.918ZM615.912 71.835C616.562 71.835 617.042 71.7 617.352 71.43C617.662 71.15 617.817 70.795 617.817 70.365V70.26C617.817 69.78 617.667 69.415 617.367 69.165C617.067 68.905 616.662 68.775 616.152 68.775C615.652 68.775 615.227 68.89 614.877 69.12C614.527 69.34 614.232 69.65 613.992 70.05L612.867 69.075C613.027 68.845 613.207 68.625 613.407 68.415C613.607 68.205 613.842 68.025 614.112 67.875C614.382 67.715 614.687 67.59 615.027 67.5C615.367 67.4 615.757 67.35 616.197 67.35C616.687 67.35 617.142 67.41 617.562 67.53C617.982 67.65 618.342 67.83 618.642 68.07C618.942 68.3 619.177 68.585 619.347 68.925C619.517 69.255 619.602 69.63 619.602 70.05C619.602 70.38 619.547 70.68 619.437 70.95C619.337 71.22 619.192 71.46 619.002 71.67C618.822 71.87 618.607 72.035 618.357 72.165C618.117 72.295 617.862 72.39 617.592 72.45V72.525C617.892 72.585 618.172 72.685 618.432 72.825C618.702 72.955 618.937 73.13 619.137 73.35C619.337 73.56 619.492 73.815 619.602 74.115C619.722 74.405 619.782 74.74 619.782 75.12C619.782 75.58 619.692 76 619.512 76.38C619.332 76.75 619.077 77.07 618.747 77.34C618.427 77.61 618.037 77.82 617.577 77.97C617.117 78.11 616.607 78.18 616.047 78.18C615.557 78.18 615.127 78.125 614.757 78.015C614.387 77.915 614.057 77.78 613.767 77.61C613.487 77.43 613.237 77.23 613.017 77.01C612.807 76.78 612.622 76.545 612.462 76.305L613.707 75.33C613.837 75.54 613.972 75.735 614.112 75.915C614.262 76.085 614.427 76.235 614.607 76.365C614.797 76.485 615.007 76.58 615.237 76.65C615.477 76.72 615.747 76.755 616.047 76.755C616.687 76.755 617.177 76.605 617.517 76.305C617.857 75.995 618.027 75.57 618.027 75.03V74.925C618.027 74.385 617.847 73.975 617.487 73.695C617.127 73.415 616.617 73.275 615.957 73.275H614.847V71.835H615.912ZM624.907 71.835C625.557 71.835 626.037 71.7 626.347 71.43C626.657 71.15 626.812 70.795 626.812 70.365V70.26C626.812 69.78 626.662 69.415 626.362 69.165C626.062 68.905 625.657 68.775 625.147 68.775C624.647 68.775 624.222 68.89 623.872 69.12C623.522 69.34 623.227 69.65 622.987 70.05L621.862 69.075C622.022 68.845 622.202 68.625 622.402 68.415C622.602 68.205 622.837 68.025 623.107 67.875C623.377 67.715 623.682 67.59 624.022 67.5C624.362 67.4 624.752 67.35 625.192 67.35C625.682 67.35 626.137 67.41 626.557 67.53C626.977 67.65 627.337 67.83 627.637 68.07C627.937 68.3 628.172 68.585 628.342 68.925C628.512 69.255 628.597 69.63 628.597 70.05C628.597 70.38 628.542 70.68 628.432 70.95C628.332 71.22 628.187 71.46 627.997 71.67C627.817 71.87 627.602 72.035 627.352 72.165C627.112 72.295 626.857 72.39 626.587 72.45V72.525C626.887 72.585 627.167 72.685 627.427 72.825C627.697 72.955 627.932 73.13 628.132 73.35C628.332 73.56 628.487 73.815 628.597 74.115C628.717 74.405 628.777 74.74 628.777 75.12C628.777 75.58 628.687 76 628.507 76.38C628.327 76.75 628.072 77.07 627.742 77.34C627.422 77.61 627.032 77.82 626.572 77.97C626.112 78.11 625.602 78.18 625.042 78.18C624.552 78.18 624.122 78.125 623.752 78.015C623.382 77.915 623.052 77.78 622.762 77.61C622.482 77.43 622.232 77.23 622.012 77.01C621.802 76.78 621.617 76.545 621.457 76.305L622.702 75.33C622.832 75.54 622.967 75.735 623.107 75.915C623.257 76.085 623.422 76.235 623.602 76.365C623.792 76.485 624.002 76.58 624.232 76.65C624.472 76.72 624.742 76.755 625.042 76.755C625.682 76.755 626.172 76.605 626.512 76.305C626.852 75.995 627.022 75.57 627.022 75.03V74.925C627.022 74.385 626.842 73.975 626.482 73.695C626.122 73.415 625.612 73.275 624.952 73.275H623.842V71.835H624.907ZM633.901 71.835C634.551 71.835 635.031 71.7 635.341 71.43C635.651 71.15 635.806 70.795 635.806 70.365V70.26C635.806 69.78 635.656 69.415 635.356 69.165C635.056 68.905 634.651 68.775 634.141 68.775C633.641 68.775 633.216 68.89 632.866 69.12C632.516 69.34 632.221 69.65 631.981 70.05L630.856 69.075C631.016 68.845 631.196 68.625 631.396 68.415C631.596 68.205 631.831 68.025 632.101 67.875C632.371 67.715 632.676 67.59 633.016 67.5C633.356 67.4 633.746 67.35 634.186 67.35C634.676 67.35 635.131 67.41 635.551 67.53C635.971 67.65 636.331 67.83 636.631 68.07C636.931 68.3 637.166 68.585 637.336 68.925C637.506 69.255 637.591 69.63 637.591 70.05C637.591 70.38 637.536 70.68 637.426 70.95C637.326 71.22 637.181 71.46 636.991 71.67C636.811 71.87 636.596 72.035 636.346 72.165C636.106 72.295 635.851 72.39 635.581 72.45V72.525C635.881 72.585 636.161 72.685 636.421 72.825C636.691 72.955 636.926 73.13 637.126 73.35C637.326 73.56 637.481 73.815 637.591 74.115C637.711 74.405 637.771 74.74 637.771 75.12C637.771 75.58 637.681 76 637.501 76.38C637.321 76.75 637.066 77.07 636.736 77.34C636.416 77.61 636.026 77.82 635.566 77.97C635.106 78.11 634.596 78.18 634.036 78.18C633.546 78.18 633.116 78.125 632.746 78.015C632.376 77.915 632.046 77.78 631.756 77.61C631.476 77.43 631.226 77.23 631.006 77.01C630.796 76.78 630.611 76.545 630.451 76.305L631.696 75.33C631.826 75.54 631.961 75.735 632.101 75.915C632.251 76.085 632.416 76.235 632.596 76.365C632.786 76.485 632.996 76.58 633.226 76.65C633.466 76.72 633.736 76.755 634.036 76.755C634.676 76.755 635.166 76.605 635.506 76.305C635.846 75.995 636.016 75.57 636.016 75.03V74.925C636.016 74.385 635.836 73.975 635.476 73.695C635.116 73.415 634.606 73.275 633.946 73.275H632.836V71.835H633.901Z" fill="white"/>
<path d="M584.56 153V145.26H585.76V146.52H585.82C585.91 146.32 586.01 146.135 586.12 145.965C586.24 145.785 586.38 145.63 586.54 145.5C586.71 145.37 586.905 145.27 587.125 145.2C587.345 145.12 587.605 145.08 587.905 145.08C588.415 145.08 588.885 145.205 589.315 145.455C589.745 145.695 590.065 146.095 590.275 146.655H590.305C590.445 146.235 590.705 145.87 591.085 145.56C591.475 145.24 592 145.08 592.66 145.08C593.45 145.08 594.065 145.34 594.505 145.86C594.955 146.37 595.18 147.095 595.18 148.035V153H593.98V148.245C593.98 147.555 593.845 147.035 593.575 146.685C593.305 146.335 592.875 146.16 592.285 146.16C592.045 146.16 591.815 146.19 591.595 146.25C591.385 146.31 591.195 146.4 591.025 146.52C590.855 146.64 590.72 146.795 590.62 146.985C590.52 147.165 590.47 147.38 590.47 147.63V153H589.27V148.245C589.27 147.555 589.135 147.035 588.865 146.685C588.595 146.335 588.175 146.16 587.605 146.16C587.365 146.16 587.135 146.19 586.915 146.25C586.695 146.31 586.5 146.4 586.33 146.52C586.16 146.64 586.02 146.795 585.91 146.985C585.81 147.165 585.76 147.38 585.76 147.63V153H584.56ZM603.281 153C602.831 153 602.506 152.88 602.306 152.64C602.116 152.4 601.996 152.1 601.946 151.74H601.871C601.701 152.22 601.421 152.58 601.031 152.82C600.641 153.06 600.176 153.18 599.636 153.18C598.816 153.18 598.176 152.97 597.716 152.55C597.266 152.13 597.041 151.56 597.041 150.84C597.041 150.11 597.306 149.55 597.836 149.16C598.376 148.77 599.211 148.575 600.341 148.575H601.871V147.81C601.871 147.26 601.721 146.84 601.421 146.55C601.121 146.26 600.661 146.115 600.041 146.115C599.571 146.115 599.176 146.22 598.856 146.43C598.546 146.64 598.286 146.92 598.076 147.27L597.356 146.595C597.566 146.175 597.901 145.82 598.361 145.53C598.821 145.23 599.401 145.08 600.101 145.08C601.041 145.08 601.771 145.31 602.291 145.77C602.811 146.23 603.071 146.87 603.071 147.69V151.95H603.956V153H603.281ZM599.831 152.16C600.131 152.16 600.406 152.125 600.656 152.055C600.906 151.985 601.121 151.885 601.301 151.755C601.481 151.625 601.621 151.475 601.721 151.305C601.821 151.135 601.871 150.95 601.871 150.75V149.475H600.281C599.591 149.475 599.086 149.575 598.766 149.775C598.456 149.975 598.301 150.265 598.301 150.645V150.96C598.301 151.34 598.436 151.635 598.706 151.845C598.986 152.055 599.361 152.16 599.831 152.16ZM606.269 143.445C606.009 143.445 605.819 143.385 605.699 143.265C605.589 143.135 605.534 142.97 605.534 142.77V142.575C605.534 142.375 605.589 142.215 605.699 142.095C605.819 141.965 606.009 141.9 606.269 141.9C606.529 141.9 606.714 141.965 606.824 142.095C606.944 142.215 607.004 142.375 607.004 142.575V142.77C607.004 142.97 606.944 143.135 606.824 143.265C606.714 143.385 606.529 143.445 606.269 143.445ZM605.669 145.26H606.869V153H605.669V145.26ZM609.419 153V145.26H610.619V146.52H610.679C610.869 146.08 611.134 145.73 611.474 145.47C611.824 145.21 612.289 145.08 612.869 145.08C613.669 145.08 614.299 145.34 614.759 145.86C615.229 146.37 615.464 147.095 615.464 148.035V153H614.264V148.245C614.264 146.855 613.679 146.16 612.509 146.16C612.269 146.16 612.034 146.19 611.804 146.25C611.584 146.31 611.384 146.4 611.204 146.52C611.024 146.64 610.879 146.795 610.769 146.985C610.669 147.165 610.619 147.38 610.619 147.63V153H609.419ZM623.199 153C622.779 153 622.459 152.885 622.239 152.655C622.029 152.415 621.924 152.105 621.924 151.725V146.31H620.649V145.26H621.369C621.629 145.26 621.804 145.21 621.894 145.11C621.994 145 622.044 144.815 622.044 144.555V143.115H623.124V145.26H624.819V146.31H623.124V151.95H624.699V153H623.199ZM629.599 153.18C629.069 153.18 628.589 153.085 628.159 152.895C627.739 152.705 627.374 152.435 627.064 152.085C626.764 151.725 626.529 151.3 626.359 150.81C626.199 150.31 626.119 149.75 626.119 149.13C626.119 148.52 626.199 147.965 626.359 147.465C626.529 146.965 626.764 146.54 627.064 146.19C627.374 145.83 627.739 145.555 628.159 145.365C628.589 145.175 629.069 145.08 629.599 145.08C630.119 145.08 630.584 145.175 630.994 145.365C631.404 145.555 631.754 145.82 632.044 146.16C632.334 146.49 632.554 146.885 632.704 147.345C632.864 147.805 632.944 148.31 632.944 148.86V149.43H627.379V149.79C627.379 150.12 627.429 150.43 627.529 150.72C627.639 151 627.789 151.245 627.979 151.455C628.179 151.665 628.419 151.83 628.699 151.95C628.989 152.07 629.314 152.13 629.674 152.13C630.164 152.13 630.589 152.015 630.949 151.785C631.319 151.555 631.604 151.225 631.804 150.795L632.659 151.41C632.409 151.94 632.019 152.37 631.489 152.7C630.959 153.02 630.329 153.18 629.599 153.18ZM629.599 146.085C629.269 146.085 628.969 146.145 628.699 146.265C628.429 146.375 628.194 146.535 627.994 146.745C627.804 146.955 627.654 147.205 627.544 147.495C627.434 147.775 627.379 148.085 627.379 148.425V148.53H631.654V148.365C631.654 147.675 631.464 147.125 631.084 146.715C630.714 146.295 630.219 146.085 629.599 146.085ZM633.786 153L636.651 149.1L633.906 145.26H635.316L637.281 148.14H637.326L639.366 145.26H640.701L637.971 149.01L640.761 153H639.351L637.341 149.97H637.296L635.121 153H633.786ZM644.058 153C643.638 153 643.318 152.885 643.098 152.655C642.888 152.415 642.783 152.105 642.783 151.725V146.31H641.508V145.26H642.228C642.488 145.26 642.663 145.21 642.753 145.11C642.853 145 642.903 144.815 642.903 144.555V143.115H643.983V145.26H645.678V146.31H643.983V151.95H645.558V153H644.058ZM654.032 153.18C653.492 153.18 653.007 153.085 652.577 152.895C652.147 152.705 651.782 152.435 651.482 152.085C651.192 151.735 650.967 151.31 650.807 150.81C650.657 150.31 650.582 149.75 650.582 149.13C650.582 148.51 650.657 147.95 650.807 147.45C650.967 146.95 651.192 146.525 651.482 146.175C651.782 145.825 652.147 145.555 652.577 145.365C653.007 145.175 653.492 145.08 654.032 145.08C654.802 145.08 655.417 145.25 655.877 145.59C656.347 145.92 656.697 146.355 656.927 146.895L655.922 147.405C655.782 147.005 655.552 146.695 655.232 146.475C654.912 146.255 654.512 146.145 654.032 146.145C653.672 146.145 653.357 146.205 653.087 146.325C652.817 146.435 652.592 146.595 652.412 146.805C652.232 147.005 652.097 147.25 652.007 147.54C651.917 147.82 651.872 148.13 651.872 148.47V149.79C651.872 150.47 652.052 151.03 652.412 151.47C652.782 151.9 653.322 152.115 654.032 152.115C655.002 152.115 655.702 151.665 656.132 150.765L657.002 151.35C656.752 151.91 656.377 152.355 655.877 152.685C655.387 153.015 654.772 153.18 654.032 153.18ZM661.533 153.18C661.013 153.18 660.538 153.085 660.108 152.895C659.678 152.705 659.308 152.435 658.998 152.085C658.698 151.725 658.463 151.3 658.293 150.81C658.123 150.31 658.038 149.75 658.038 149.13C658.038 148.52 658.123 147.965 658.293 147.465C658.463 146.965 658.698 146.54 658.998 146.19C659.308 145.83 659.678 145.555 660.108 145.365C660.538 145.175 661.013 145.08 661.533 145.08C662.053 145.08 662.523 145.175 662.943 145.365C663.373 145.555 663.743 145.83 664.053 146.19C664.363 146.54 664.603 146.965 664.773 147.465C664.943 147.965 665.028 148.52 665.028 149.13C665.028 149.75 664.943 150.31 664.773 150.81C664.603 151.3 664.363 151.725 664.053 152.085C663.743 152.435 663.373 152.705 662.943 152.895C662.523 153.085 662.053 153.18 661.533 153.18ZM661.533 152.115C662.183 152.115 662.713 151.915 663.123 151.515C663.533 151.115 663.738 150.505 663.738 149.685V148.575C663.738 147.755 663.533 147.145 663.123 146.745C662.713 146.345 662.183 146.145 661.533 146.145C660.883 146.145 660.353 146.345 659.943 146.745C659.533 147.145 659.328 147.755 659.328 148.575V149.685C659.328 150.505 659.533 151.115 659.943 151.515C660.353 151.915 660.883 152.115 661.533 152.115ZM668.277 153C667.857 153 667.537 152.885 667.317 152.655C667.107 152.415 667.002 152.115 667.002 151.755V141.9H668.202V151.95H669.342V153H668.277ZM674.013 153.18C673.493 153.18 673.018 153.085 672.588 152.895C672.158 152.705 671.788 152.435 671.478 152.085C671.178 151.725 670.943 151.3 670.773 150.81C670.603 150.31 670.518 149.75 670.518 149.13C670.518 148.52 670.603 147.965 670.773 147.465C670.943 146.965 671.178 146.54 671.478 146.19C671.788 145.83 672.158 145.555 672.588 145.365C673.018 145.175 673.493 145.08 674.013 145.08C674.533 145.08 675.003 145.175 675.423 145.365C675.853 145.555 676.223 145.83 676.533 146.19C676.843 146.54 677.083 146.965 677.253 147.465C677.423 147.965 677.508 148.52 677.508 149.13C677.508 149.75 677.423 150.31 677.253 150.81C677.083 151.3 676.843 151.725 676.533 152.085C676.223 152.435 675.853 152.705 675.423 152.895C675.003 153.085 674.533 153.18 674.013 153.18ZM674.013 152.115C674.663 152.115 675.193 151.915 675.603 151.515C676.013 151.115 676.218 150.505 676.218 149.685V148.575C676.218 147.755 676.013 147.145 675.603 146.745C675.193 146.345 674.663 146.145 674.013 146.145C673.363 146.145 672.833 146.345 672.423 146.745C672.013 147.145 671.808 147.755 671.808 148.575V149.685C671.808 150.505 672.013 151.115 672.423 151.515C672.833 151.915 673.363 152.115 674.013 152.115ZM679.482 153V145.26H680.682V146.685H680.757C680.897 146.315 681.147 145.985 681.507 145.695C681.867 145.405 682.362 145.26 682.992 145.26H683.457V146.46H682.752C682.102 146.46 681.592 146.585 681.222 146.835C680.862 147.075 680.682 147.38 680.682 147.75V153H679.482Z" fill="#333333"/>
<path d="M633 119.667C630.054 119.667 627.667 122.054 627.667 125C627.667 127.946 630.054 130.333 633 130.333C635.946 130.333 638.333 127.946 638.333 125C638.333 122.054 635.946 119.667 633 119.667ZM632 97V125H634V97H632Z" fill="#333333"/>
</svg>
