<svg width="536" height="224" viewBox="0 0 536 224" fill="none" xmlns="http://www.w3.org/2000/svg">
<path d="M172.19 51.6C169.824 51.6 167.69 51.2333 165.79 50.5C163.89 49.7333 162.274 48.6167 160.94 47.15C159.607 45.65 158.574 43.8 157.84 41.6C157.107 39.3667 156.74 36.7667 156.74 33.8C156.74 30.8667 157.107 28.2667 157.84 26C158.574 23.7 159.607 21.7833 160.94 20.25C162.274 18.6833 163.89 17.5 165.79 16.7C167.69 15.9 169.824 15.5 172.19 15.5C175.424 15.5 178.09 16.1667 180.19 17.5C182.29 18.8 183.974 20.8667 185.24 23.7L178.69 27.1C178.224 25.6333 177.49 24.4667 176.49 23.6C175.524 22.7 174.09 22.25 172.19 22.25C169.957 22.25 168.157 22.9833 166.79 24.45C165.457 25.8833 164.79 27.9833 164.79 30.75V36.35C164.79 39.1167 165.457 41.2333 166.79 42.7C168.157 44.1333 169.957 44.85 172.19 44.85C174.057 44.85 175.54 44.35 176.64 43.35C177.774 42.3167 178.607 41.0833 179.14 39.65L185.34 43.25C184.04 45.9167 182.324 47.9833 180.19 49.45C178.09 50.8833 175.424 51.6 172.19 51.6ZM204.024 51.6C201.724 51.6 199.624 51.2167 197.724 50.45C195.824 49.6833 194.207 48.55 192.874 47.05C191.54 45.5167 190.507 43.6333 189.774 41.4C189.04 39.1333 188.674 36.5167 188.674 33.55C188.674 30.5833 189.04 27.9833 189.774 25.75C190.507 23.4833 191.54 21.6 192.874 20.1C194.207 18.5667 195.824 17.4167 197.724 16.65C199.624 15.8833 201.724 15.5 204.024 15.5C206.324 15.5 208.424 15.8833 210.324 16.65C212.224 17.4167 213.84 18.5667 215.174 20.1C216.507 21.6 217.54 23.4833 218.274 25.75C219.007 27.9833 219.374 30.5833 219.374 33.55C219.374 36.5167 219.007 39.1333 218.274 41.4C217.54 43.6333 216.507 45.5167 215.174 47.05C213.84 48.55 212.224 49.6833 210.324 50.45C208.424 51.2167 206.324 51.6 204.024 51.6ZM204.024 44.85C206.324 44.85 208.107 44.1 209.374 42.6C210.674 41.1 211.324 38.95 211.324 36.15V30.95C211.324 28.15 210.674 26 209.374 24.5C208.107 23 206.324 22.25 204.024 22.25C201.724 22.25 199.924 23 198.624 24.5C197.357 26 196.724 28.15 196.724 30.95V36.15C196.724 38.95 197.357 41.1 198.624 42.6C199.924 44.1 201.724 44.85 204.024 44.85ZM236.367 34.5L233.017 27.5H232.867V51H225.717V16.1L234.017 16.1L243.567 32.6L246.917 39.6H247.067V16.1L254.217 16.1V51H245.917L236.367 34.5ZM275.999 51.6C273.632 51.6 271.499 51.2333 269.599 50.5C267.699 49.7333 266.082 48.6167 264.749 47.15C263.415 45.65 262.382 43.8 261.649 41.6C260.915 39.3667 260.549 36.7667 260.549 33.8C260.549 30.8667 260.915 28.2667 261.649 26C262.382 23.7 263.415 21.7833 264.749 20.25C266.082 18.6833 267.699 17.5 269.599 16.7C271.499 15.9 273.632 15.5 275.999 15.5C279.232 15.5 281.899 16.1667 283.999 17.5C286.099 18.8 287.782 20.8667 289.049 23.7L282.499 27.1C282.032 25.6333 281.299 24.4667 280.299 23.6C279.332 22.7 277.899 22.25 275.999 22.25C273.765 22.25 271.965 22.9833 270.599 24.45C269.265 25.8833 268.599 27.9833 268.599 30.75V36.35C268.599 39.1167 269.265 41.2333 270.599 42.7C271.965 44.1333 273.765 44.85 275.999 44.85C277.865 44.85 279.349 44.35 280.449 43.35C281.582 42.3167 282.415 41.0833 282.949 39.65L289.149 43.25C287.849 45.9167 286.132 47.9833 283.999 49.45C281.899 50.8833 279.232 51.6 275.999 51.6ZM294.467 51V16.1L318.217 16.1V22.85H302.067V30H315.917V36.7L302.067 36.7V44.25L318.217 44.25V51L294.467 51ZM324.838 51V16.1H341.338C342.972 16.1 344.438 16.3833 345.738 16.95C347.038 17.4833 348.138 18.2333 349.038 19.2C349.972 20.1667 350.688 21.35 351.188 22.75C351.688 24.1167 351.938 25.6167 351.938 27.25C351.938 28.9167 351.688 30.4333 351.188 31.8C350.688 33.1667 349.972 34.3333 349.038 35.3C348.138 36.2667 347.038 37.0333 345.738 37.6C344.438 38.1333 342.972 38.4 341.338 38.4H332.438V51H324.838ZM332.438 31.8H340.438C341.572 31.8 342.455 31.5167 343.088 30.95C343.755 30.35 344.088 29.4833 344.088 28.35V26.15C344.088 25.0167 343.755 24.1667 343.088 23.6C342.455 23 341.572 22.7 340.438 22.7H332.438V31.8ZM372.201 22.85V51H364.601V22.85L355.151 22.85V16.1L381.651 16.1V22.85H372.201Z" fill="#EDE6DB" fill-opacity="0.5"/>
<line x1="234" y1="75.5" x2="302" y2="75.5" stroke="#F5F2EC" stroke-width="5"/>
<path d="M198.849 112.54V130.06H196.829V120.28H193.549C193.456 122.053 192.983 123.393 192.129 124.3C191.289 125.193 190.196 125.64 188.849 125.64C187.423 125.64 186.276 125.133 185.409 124.12C184.543 123.107 184.109 121.613 184.109 119.64C184.109 117.653 184.536 116.16 185.389 115.16C186.256 114.147 187.409 113.64 188.849 113.64C190.143 113.64 191.203 114.053 192.029 114.88C192.869 115.707 193.369 116.94 193.529 118.58H196.829V112.54H198.849ZM191.449 118.64C191.449 117.573 191.209 116.76 190.729 116.2C190.263 115.627 189.636 115.34 188.849 115.34C188.063 115.34 187.429 115.627 186.949 116.2C186.483 116.76 186.249 117.573 186.249 118.64V120.64C186.249 121.707 186.483 122.527 186.949 123.1C187.429 123.66 188.063 123.94 188.849 123.94C189.636 123.94 190.263 123.66 190.729 123.1C191.209 122.527 191.449 121.707 191.449 120.64V118.64ZM216.661 112.54V130.06H214.621V112.54H216.661ZM212.421 123.32L212.661 124.96C210.568 125.373 207.928 125.58 204.741 125.58H202.721V113.96H210.961V115.66H204.761V123.9C207.761 123.9 210.315 123.707 212.421 123.32ZM235.813 126.42V128.12H219.413V126.42H226.613V123.46H221.753V117.7H231.433V115.26H221.693V113.58H233.473V119.32H223.793V121.78H233.953V123.46H228.633V126.42H235.813ZM251.385 120.04H239.685V113.26H251.245V114.94H241.705V118.36H251.385V120.04ZM253.645 121.9V123.64H237.245V121.9H253.645ZM241.585 128.72H251.565V130.4H240.845C240.419 130.4 240.092 130.287 239.865 130.06C239.652 129.833 239.545 129.507 239.545 129.08V125.02H241.585V128.72ZM276.204 122.18V123.82H259.804V122.18H267.004V120.64H262.224V112.92H273.764V114.5H264.164V116.02H273.444V117.54H264.204V119.04H274.084V120.64H269.004V122.18H276.204ZM274.004 128.02C274.004 128.993 273.484 129.767 272.444 130.34C271.404 130.913 269.924 131.2 268.004 131.2C266.084 131.2 264.604 130.913 263.564 130.34C262.524 129.767 262.004 128.993 262.004 128.02C262.004 127.047 262.524 126.273 263.564 125.7C264.604 125.127 266.084 124.84 268.004 124.84C269.924 124.84 271.404 125.127 272.444 125.7C273.484 126.273 274.004 127.047 274.004 128.02ZM271.884 127.92C271.884 127.48 271.564 127.113 270.924 126.82C270.284 126.527 269.311 126.38 268.004 126.38C266.697 126.38 265.717 126.527 265.064 126.82C264.424 127.113 264.104 127.48 264.104 127.92V128.14C264.104 128.58 264.431 128.947 265.084 129.24C265.737 129.533 266.711 129.68 268.004 129.68C269.297 129.68 270.264 129.533 270.904 129.24C271.557 128.947 271.884 128.58 271.884 128.14V127.92ZM294.556 121.26H291.856V130.08H289.836V112.56H291.856V119.56H294.556V121.26ZM285.916 115.24H280.076V113.52H285.916V115.24ZM277.496 117.22H288.196V118.88H285.496V119C286.629 119.627 287.196 120.74 287.196 122.34C287.196 123.193 287.009 123.94 286.636 124.58C286.276 125.207 285.769 125.693 285.116 126.04C284.476 126.387 283.749 126.56 282.936 126.56C282.123 126.56 281.389 126.387 280.736 126.04C280.096 125.693 279.589 125.207 279.216 124.58C278.843 123.94 278.656 123.193 278.656 122.34C278.656 120.74 279.223 119.633 280.356 119.02V118.88H277.496V117.22ZM285.236 121.52C285.236 120.747 285.029 120.153 284.616 119.74C284.203 119.313 283.643 119.1 282.936 119.1C282.229 119.1 281.663 119.313 281.236 119.74C280.823 120.167 280.616 120.76 280.616 121.52V122.44C280.616 123.2 280.829 123.793 281.256 124.22C281.683 124.647 282.243 124.86 282.936 124.86C283.629 124.86 284.183 124.647 284.596 124.22C285.023 123.793 285.236 123.2 285.236 122.44V121.52ZM309.588 119.62H297.928V113.2H299.948V117.96H309.588V119.62ZM311.868 121.52V123.26H295.468V121.52H311.868ZM299.808 128.72H309.788V130.4H299.068C298.641 130.4 298.315 130.287 298.088 130.06C297.875 129.833 297.768 129.507 297.768 129.08V124.84H299.808V128.72ZM334.947 120.9H332.147V130.08H330.127V112.56H332.147V119.2H334.947V120.9ZM325.007 113.74H326.987V125.42H318.547V113.76H320.507V117.94H325.007V113.74ZM325.007 119.62H320.507V123.74H325.007V119.62ZM352.779 116.96V118.66H350.039V123.26H348.019V112.54H350.039V116.96H352.779ZM346.399 122.14C344.265 122.54 341.625 122.74 338.479 122.74H336.539V117.16H342.519V115.06H336.479V113.42H344.459V118.78H338.459V121.12H338.599C341.465 121.12 343.979 120.927 346.139 120.54L346.399 122.14ZM338.959 124.18H350.059V130.78H340.259C339.832 130.78 339.505 130.667 339.279 130.44C339.065 130.213 338.959 129.887 338.959 129.46V124.18ZM340.999 129.12H348.019V125.86H340.999V129.12Z" fill="black"/>
<path d="M17.6 178.74H14.72V188.02H13.2V170.66H14.72V177.46H17.6V178.74ZM8.06 171.84H9.52V183.3H1.36V171.86H2.84V176.24H8.06V171.84ZM8.06 177.52H2.84V182.02H8.06V177.52ZM35.452 175.18V176.46H32.652V181.24H31.152V170.62H32.652V175.18H35.452ZM29.232 179.96C27.1654 180.373 24.5587 180.58 21.412 180.58H19.392V175.34H25.572V172.72H19.312V171.48H27.032V176.56H20.832V179.36H21.472C24.4054 179.36 26.9254 179.16 29.032 178.76L29.232 179.96ZM21.872 182.28H32.672V188.7H22.872C22.552 188.7 22.3054 188.613 22.132 188.44C21.9587 188.267 21.872 188.013 21.872 187.68V182.28ZM23.392 187.44H31.152V183.54H23.392V187.44ZM38.5841 173.82C38.5841 172.847 39.0841 172.073 40.0841 171.5C41.0841 170.913 42.5841 170.62 44.5841 170.62C46.5841 170.62 48.0841 170.913 49.0841 171.5C50.0841 172.073 50.5841 172.847 50.5841 173.82C50.5841 174.793 50.0841 175.573 49.0841 176.16C48.0841 176.747 46.5841 177.04 44.5841 177.04C42.5841 177.04 41.0841 176.747 40.0841 176.16C39.0841 175.573 38.5841 174.793 38.5841 173.82ZM48.9641 173.92V173.7C48.9641 173.127 48.5974 172.66 47.8641 172.3C47.1441 171.927 46.0507 171.74 44.5841 171.74C43.1174 171.74 42.0174 171.927 41.2841 172.3C40.5641 172.66 40.2041 173.127 40.2041 173.7V173.92C40.2041 174.493 40.5641 174.967 41.2841 175.34C42.0174 175.7 43.1174 175.88 44.5841 175.88C46.0507 175.88 47.1441 175.7 47.8641 175.34C48.5974 174.967 48.9641 174.493 48.9641 173.92ZM52.7441 178.42V179.7H36.4241V178.42H52.7441ZM38.9641 187.78V184.5H48.8241V182.62H38.8441V181.38H50.2841V185.66H40.4241V187.56H50.8041V188.8H39.9641C39.6441 188.8 39.3974 188.713 39.2241 188.54C39.0507 188.367 38.9641 188.113 38.9641 187.78ZM76.5868 172.98H63.8068V171.7H76.5868V172.98ZM76.7668 180.32H63.6468V179.06H66.8068L66.1468 174.62L67.6868 174.46L68.2268 179.06H72.1668L72.7068 174.46L74.2668 174.62L73.5868 179.06H76.7668V180.32ZM78.3668 184.72V186H62.0468V184.72H66.4868V181.34H67.9668V184.72H72.4468V181.34H73.9268V184.72H78.3668ZM93.3189 179.7H90.6589V178.46H93.3189V175.96H90.6589V174.72H93.3189V170.62H94.8589V184H93.3189V179.7ZM87.9189 172.44H82.6189V171.16H87.9189V172.44ZM85.1389 181.94C84.3255 181.94 83.6122 181.8 82.9989 181.52C82.3855 181.24 81.9122 180.853 81.5789 180.36C81.2455 179.867 81.0789 179.307 81.0789 178.68C81.0789 178.04 81.2255 177.487 81.5189 177.02C81.8122 176.54 82.2522 176.173 82.8389 175.92V175.82H79.9989V174.58H90.0189V175.82H87.4589V175.94C88.0455 176.193 88.4855 176.553 88.7789 177.02C89.0722 177.487 89.2189 178.04 89.2189 178.68C89.2189 179.307 89.0522 179.867 88.7189 180.36C88.3855 180.853 87.9055 181.24 87.2789 181.52C86.6655 181.8 85.9522 181.94 85.1389 181.94ZM84.9789 180.66H85.3189C86.0522 180.66 86.6455 180.453 87.0989 180.04C87.5655 179.627 87.7989 179.053 87.7989 178.32C87.7989 177.587 87.5655 177.02 87.0989 176.62C86.6455 176.207 86.0522 176 85.3189 176H84.9789C84.2322 176 83.6322 176.207 83.1789 176.62C82.7255 177.02 82.4989 177.587 82.4989 178.32C82.4989 179.053 82.7255 179.627 83.1789 180.04C83.6455 180.453 84.2455 180.66 84.9789 180.66ZM95.2189 187.2V188.46H84.6989C84.3789 188.46 84.1322 188.373 83.9589 188.2C83.7855 188.027 83.6989 187.773 83.6989 187.44V183.44H85.2189V187.2H95.2189ZM114.571 176.56V177.84H111.791V184H110.271V170.62H111.791V176.56H114.571ZM105.691 172.44H100.351V171.16H105.691V172.44ZM102.891 181.92C102.064 181.92 101.338 181.78 100.711 181.5C100.084 181.22 99.5976 180.833 99.2509 180.34C98.9176 179.847 98.7509 179.287 98.7509 178.66C98.7509 178.033 98.8976 177.487 99.1909 177.02C99.4976 176.54 99.9509 176.173 100.551 175.92V175.82H97.4309V174.56H108.271V175.82H105.231V175.92C105.831 176.173 106.278 176.54 106.571 177.02C106.878 177.487 107.031 178.033 107.031 178.66C107.031 179.287 106.858 179.847 106.511 180.34C106.178 180.833 105.698 181.22 105.071 181.5C104.444 181.78 103.718 181.92 102.891 181.92ZM102.731 180.64H103.071C103.818 180.64 104.424 180.44 104.891 180.04C105.371 179.627 105.611 179.053 105.611 178.32C105.611 177.587 105.378 177.013 104.911 176.6C104.444 176.187 103.831 175.98 103.071 175.98H102.731C101.971 175.98 101.358 176.187 100.891 176.6C100.424 177 100.191 177.573 100.191 178.32C100.191 179.053 100.424 179.627 100.891 180.04C101.371 180.44 101.984 180.64 102.731 180.64ZM102.411 187.2H112.191V188.46H101.891C101.571 188.46 101.324 188.373 101.151 188.2C100.978 188.027 100.891 187.773 100.891 187.44V183.44H102.411V187.2ZM135.734 172.54H125.514V171.26H137.214V172.24C137.214 174.027 137.007 175.847 136.594 177.7L135.154 177.5C135.527 175.887 135.72 174.233 135.734 172.54ZM139.654 179.2V180.5H123.334V179.2H130.034V175.6H131.534V179.2H139.654ZM125.594 182.6H137.214V188.78H135.694V183.88H125.594V182.6ZM154.626 176.12H150.806V174.84H154.626V170.62H156.146V183.8H154.626V176.12ZM146.446 176.88C146.352 176.88 146.272 176.92 146.206 177C145.872 177.613 145.419 178.247 144.846 178.9C144.272 179.553 143.506 180.353 142.546 181.3L141.426 180.3C142.559 179.233 143.426 178.32 144.026 177.56C144.626 176.8 145.059 176.047 145.326 175.3C145.606 174.54 145.746 173.68 145.746 172.72V171.46H147.286V172.78C147.286 174.113 147.052 175.287 146.586 176.3L146.686 176.38L147.006 176.1C147.152 175.98 147.292 175.92 147.426 175.92C147.572 175.92 147.712 175.987 147.846 176.12L151.646 179.94L150.546 180.98L146.706 177C146.626 176.92 146.539 176.88 146.446 176.88ZM156.506 187.1V188.36H146.026C145.706 188.36 145.459 188.273 145.286 188.1C145.112 187.927 145.026 187.673 145.026 187.34V182.38H146.566V187.1H156.506ZM175.838 179.04H173.118V187.98H171.618V170.62H173.118V177.76H175.838V179.04ZM167.358 173.46H159.838V172.2H168.838V173.74C168.838 175.86 168.598 177.973 168.118 180.08L166.658 179.86C167.124 177.927 167.358 175.947 167.358 173.92V173.46ZM170.178 182.28L170.318 183.5C168.851 183.74 167.098 183.92 165.058 184.04C163.031 184.16 160.944 184.22 158.798 184.22L158.658 182.94C159.991 182.94 161.318 182.92 162.638 182.88V177.46H164.118V182.82C166.531 182.713 168.551 182.533 170.178 182.28ZM199.04 172.18H186.52V171H199.04V172.18ZM199.22 176.92H186.34V175.76H189.28L188.76 173.1L190.28 172.94L190.7 175.76H194.84L195.26 172.94L196.78 173.1L196.26 175.76H199.22V176.92ZM200.94 178.6V179.86H184.62V178.6H200.94ZM188.6 187.56H199V188.8H188.16C187.84 188.8 187.594 188.713 187.42 188.54C187.247 188.367 187.16 188.113 187.16 187.78V184.54H197.02V182.7H187.04V181.48H198.48V185.7H188.6V187.56ZM218.773 184.72V186H202.453V184.72H209.853V181.3H204.853V175.88H214.853V172.94H204.753V171.68H216.373V177.1H206.373V180.04H216.893V181.3H211.373V184.72H218.773ZM222.405 174.9C222.405 174.127 222.625 173.433 223.065 172.82C223.505 172.207 224.178 171.72 225.085 171.36C225.991 171 227.111 170.82 228.445 170.82C229.778 170.82 230.898 171 231.805 171.36C232.711 171.72 233.385 172.207 233.825 172.82C234.265 173.433 234.485 174.127 234.485 174.9C234.485 175.673 234.265 176.373 233.825 177C233.385 177.613 232.711 178.1 231.805 178.46C230.898 178.82 229.778 179 228.445 179C227.111 179 225.991 178.82 225.085 178.46C224.178 178.1 223.505 177.613 223.065 177C222.625 176.373 222.405 175.673 222.405 174.9ZM224.045 175.1C224.045 175.86 224.411 176.493 225.145 177C225.878 177.507 226.978 177.76 228.445 177.76C229.911 177.76 231.011 177.507 231.745 177C232.478 176.493 232.845 175.86 232.845 175.1V174.7C232.845 173.94 232.478 173.307 231.745 172.8C231.011 172.28 229.911 172.02 228.445 172.02C226.991 172.02 225.891 172.28 225.145 172.8C224.411 173.307 224.045 173.94 224.045 174.7V175.1ZM236.605 182.16H229.205V188.68H227.685V182.16H220.285V180.88H236.605V182.16ZM250.337 173.74V172.02H240.577V170.9H251.797V174.84H242.157V176.54H252.297V177.68H240.677V173.74H250.337ZM254.437 179.18V180.36H238.117V179.18H254.437ZM240.617 187.84V184.82H250.577V183.14H240.497V181.96H251.997V185.94H242.037V187.66H252.517V188.86H241.617C241.297 188.86 241.05 188.773 240.877 188.6C240.703 188.427 240.617 188.173 240.617 187.84ZM280.059 180.34V181.58H263.739V180.34H271.159V178.46H266.219V170.98H277.559V172.18H267.679V174.14H277.259V175.3H267.699V177.26H277.879V178.46H272.659V180.34H280.059ZM277.819 186C277.819 186.947 277.313 187.7 276.299 188.26C275.286 188.82 273.819 189.1 271.899 189.1C269.979 189.1 268.513 188.82 267.499 188.26C266.486 187.7 265.979 186.947 265.979 186C265.979 185.067 266.486 184.32 267.499 183.76C268.513 183.187 269.979 182.9 271.899 182.9C273.819 182.9 275.286 183.187 276.299 183.76C277.313 184.32 277.819 185.067 277.819 186ZM276.219 185.88C276.219 185.36 275.859 184.927 275.139 184.58C274.433 184.233 273.353 184.06 271.899 184.06C270.459 184.06 269.373 184.233 268.639 184.58C267.919 184.927 267.559 185.36 267.559 185.88V186.12C267.559 186.64 267.919 187.073 268.639 187.42C269.373 187.767 270.459 187.94 271.899 187.94C273.353 187.94 274.433 187.767 275.139 187.42C275.859 187.073 276.219 186.64 276.219 186.12V185.88ZM296.991 170.62V187.98H295.511V178.92H292.911V187.5H291.451V170.92H292.911V177.66H295.511V170.62H296.991ZM288.691 173.22H283.551V171.98H288.691V173.22ZM281.451 175.46H290.491V176.66H288.111V176.76C289.165 177.333 289.691 178.42 289.691 180.02C289.691 181.273 289.351 182.253 288.671 182.96C288.005 183.653 287.125 184 286.031 184C284.951 184 284.071 183.653 283.391 182.96C282.725 182.253 282.391 181.273 282.391 180.02C282.391 178.42 282.911 177.333 283.951 176.76V176.66H281.451V175.46ZM288.251 179.3C288.251 178.5 288.051 177.887 287.651 177.46C287.251 177.033 286.711 176.82 286.031 176.82C285.351 176.82 284.811 177.033 284.411 177.46C284.025 177.887 283.831 178.5 283.831 179.3V180.26C283.831 181.047 284.031 181.66 284.431 182.1C284.845 182.54 285.378 182.76 286.031 182.76C286.685 182.76 287.218 182.54 287.631 182.1C288.045 181.66 288.251 181.047 288.251 180.26V179.3ZM322.094 170.62V187.98H320.594V178.14H316.874C316.807 179.927 316.354 181.28 315.514 182.2C314.674 183.107 313.594 183.56 312.274 183.56C310.887 183.56 309.767 183.06 308.914 182.06C308.074 181.06 307.654 179.587 307.654 177.64C307.654 175.68 308.074 174.207 308.914 173.22C309.754 172.22 310.874 171.72 312.274 171.72C313.567 171.72 314.627 172.153 315.454 173.02C316.281 173.887 316.754 175.167 316.874 176.86H320.594V170.62H322.094ZM315.294 176.84C315.294 175.6 315.014 174.653 314.454 174C313.907 173.333 313.181 173 312.274 173C311.367 173 310.641 173.333 310.094 174C309.547 174.653 309.274 175.6 309.274 176.84V178.44C309.274 179.68 309.547 180.633 310.094 181.3C310.641 181.953 311.367 182.28 312.274 182.28C313.181 182.28 313.907 181.953 314.454 181.3C315.014 180.633 315.294 179.68 315.294 178.44V176.84ZM339.906 170.62V187.98H338.386V170.62H339.906ZM335.886 181.58L336.086 182.8C334.02 183.213 331.446 183.42 328.366 183.42H326.226V172.04H334.286V173.32H327.766V182.14H328.326C331.38 182.14 333.9 181.953 335.886 181.58ZM359.178 184.72V186H342.858V184.72H350.258V181.3H345.258V175.88H355.258V172.94H345.158V171.68H356.778V177.1H346.778V180.04H357.298V181.3H351.778V184.72H359.178ZM374.71 177.96H363.17V171.3H374.55V172.58H364.67V176.68H374.71V177.96ZM377.01 180.1V181.42H360.69V180.1H377.01ZM364.55 187.06H374.91V188.34H364.03C363.71 188.34 363.464 188.253 363.29 188.08C363.117 187.907 363.03 187.653 363.03 187.32V183.1H364.55V187.06ZM399.773 178.6H396.213V177.36H399.773V174.64H396.213V173.4H399.773V170.62H401.293V183.8H399.773V178.6ZM391.313 180.6C390.433 180.6 389.653 180.42 388.973 180.06C388.293 179.687 387.76 179.153 387.373 178.46C386.986 177.767 386.793 176.953 386.793 176.02C386.793 175.087 386.986 174.273 387.373 173.58C387.76 172.887 388.293 172.36 388.973 172C389.653 171.627 390.433 171.44 391.313 171.44C392.193 171.44 392.973 171.627 393.653 172C394.333 172.36 394.866 172.887 395.253 173.58C395.64 174.273 395.833 175.087 395.833 176.02C395.833 176.953 395.64 177.767 395.253 178.46C394.866 179.153 394.333 179.687 393.653 180.06C392.973 180.42 392.193 180.6 391.313 180.6ZM391.313 179.36C392.18 179.36 392.88 179.1 393.413 178.58C393.96 178.047 394.233 177.34 394.233 176.46V175.6C394.233 174.72 393.96 174.013 393.413 173.48C392.88 172.947 392.18 172.68 391.313 172.68C390.433 172.68 389.72 172.947 389.173 173.48C388.64 174.013 388.373 174.72 388.373 175.6V176.46C388.373 177.34 388.64 178.047 389.173 178.58C389.72 179.1 390.433 179.36 391.313 179.36ZM401.653 187.1V188.36H391.173C390.853 188.36 390.606 188.273 390.433 188.1C390.26 187.927 390.173 187.673 390.173 187.34V182.36H391.713V187.1H401.653ZM417.605 177.72H413.665V176.5H417.605V174.16H413.665V172.94H417.605V170.62H419.125V179.72H417.605V177.72ZM405.625 180.04L404.825 178.9C406.585 178.247 407.932 177.653 408.865 177.12C409.798 176.587 410.452 176.033 410.825 175.46C411.198 174.887 411.385 174.193 411.385 173.38V172.68H405.325V171.4H412.905V173.2C412.905 174.307 412.692 175.233 412.265 175.98C411.838 176.713 411.112 177.393 410.085 178.02C409.058 178.633 407.572 179.307 405.625 180.04ZM419.605 187.5V188.8H408.985C408.665 188.8 408.418 188.713 408.245 188.54C408.072 188.367 407.985 188.113 407.985 187.78V184.16H417.585V182.1H407.865V180.82H419.125V185.44H409.525V187.5H419.605ZM436.957 183.96H435.437V170.62H436.957V183.96ZM434.077 181.02C432.557 181.26 430.744 181.44 428.637 181.56C426.544 181.68 424.397 181.74 422.197 181.74L422.057 180.48C423.897 180.48 425.53 180.453 426.957 180.4V177.88H423.577V171.74H431.957V172.96H425.057V176.66H432.137V177.88H428.437V180.32C430.65 180.213 432.484 180.047 433.937 179.82L434.077 181.02ZM437.317 187.1V188.36H426.697C426.377 188.36 426.13 188.273 425.957 188.1C425.784 187.927 425.697 187.673 425.697 187.34V183.12H427.217V187.1H437.317ZM456.649 178.74H453.769V188.02H452.249V170.66H453.769V177.46H456.649V178.74ZM450.149 181.58L450.349 182.8C448.309 183.213 445.762 183.42 442.709 183.42H440.589V172.04H448.569V173.32H442.109V182.16H442.689C445.622 182.16 448.109 181.967 450.149 181.58ZM471.641 177.54H460.141V171.26H461.641V176.28H471.641V177.54ZM473.961 179.76V181.06H457.641V179.76H473.961ZM461.501 187.06H471.861V188.34H460.981C460.661 188.34 460.414 188.253 460.241 188.08C460.068 187.907 459.981 187.653 459.981 187.32V182.94H461.501V187.06ZM497.804 172.98H485.024V171.7H497.804V172.98ZM497.984 180.32H484.864V179.06H488.024L487.364 174.62L488.904 174.46L489.444 179.06H493.384L493.924 174.46L495.484 174.62L494.804 179.06H497.984V180.32ZM499.584 184.72V186H483.264V184.72H487.704V181.34H489.184V184.72H493.664V181.34H495.144V184.72H499.584ZM514.536 179.7H511.876V178.46H514.536V175.96H511.876V174.72H514.536V170.62H516.076V184H514.536V179.7ZM509.136 172.44H503.836V171.16H509.136V172.44ZM506.356 181.94C505.543 181.94 504.829 181.8 504.216 181.52C503.603 181.24 503.129 180.853 502.796 180.36C502.463 179.867 502.296 179.307 502.296 178.68C502.296 178.04 502.443 177.487 502.736 177.02C503.029 176.54 503.469 176.173 504.056 175.92V175.82H501.216V174.58H511.236V175.82H508.676V175.94C509.263 176.193 509.703 176.553 509.996 177.02C510.289 177.487 510.436 178.04 510.436 178.68C510.436 179.307 510.269 179.867 509.936 180.36C509.603 180.853 509.123 181.24 508.496 181.52C507.883 181.8 507.169 181.94 506.356 181.94ZM506.196 180.66H506.536C507.269 180.66 507.863 180.453 508.316 180.04C508.783 179.627 509.016 179.053 509.016 178.32C509.016 177.587 508.783 177.02 508.316 176.62C507.863 176.207 507.269 176 506.536 176H506.196C505.449 176 504.849 176.207 504.396 176.62C503.943 177.02 503.716 177.587 503.716 178.32C503.716 179.053 503.943 179.627 504.396 180.04C504.863 180.453 505.463 180.66 506.196 180.66ZM516.436 187.2V188.46H505.916C505.596 188.46 505.349 188.373 505.176 188.2C505.003 188.027 504.916 187.773 504.916 187.44V183.44H506.436V187.2H516.436ZM521.088 173.82C521.088 172.847 521.588 172.073 522.588 171.5C523.588 170.913 525.088 170.62 527.088 170.62C529.088 170.62 530.588 170.913 531.588 171.5C532.588 172.073 533.088 172.847 533.088 173.82C533.088 174.793 532.588 175.573 531.588 176.16C530.588 176.747 529.088 177.04 527.088 177.04C525.088 177.04 523.588 176.747 522.588 176.16C521.588 175.573 521.088 174.793 521.088 173.82ZM531.468 173.92V173.7C531.468 173.127 531.101 172.66 530.368 172.3C529.648 171.927 528.555 171.74 527.088 171.74C525.621 171.74 524.521 171.927 523.788 172.3C523.068 172.66 522.708 173.127 522.708 173.7V173.92C522.708 174.493 523.068 174.967 523.788 175.34C524.521 175.7 525.621 175.88 527.088 175.88C528.555 175.88 529.648 175.7 530.368 175.34C531.101 174.967 531.468 174.493 531.468 173.92ZM535.248 178.42V179.7H518.928V178.42H535.248ZM521.468 187.78V184.5H531.328V182.62H521.348V181.38H532.788V185.66H522.928V187.56H533.308V188.8H522.468C522.148 188.8 521.901 188.713 521.728 188.54C521.555 188.367 521.468 188.113 521.468 187.78ZM17.6 209.06H14.78V218.02H13.26V200.66H14.78V207.78H17.6V209.06ZM9 202.9H3.32V201.6H9V202.9ZM0.66 205.3H11.36V206.54H8.4V206.66C9.61333 207.26 10.22 208.413 10.22 210.12C10.22 210.987 10.04 211.74 9.68 212.38C9.32 213.007 8.82 213.487 8.18 213.82C7.55333 214.153 6.85333 214.32 6.08 214.32C5.30667 214.32 4.6 214.153 3.96 213.82C3.33333 213.487 2.84 213.007 2.48 212.38C2.12 211.74 1.94 210.987 1.94 210.12C1.94 208.413 2.54667 207.26 3.76 206.66V206.54H0.66V205.3ZM8.74 209.46C8.74 208.567 8.5 207.887 8.02 207.42C7.54 206.94 6.89333 206.7 6.08 206.7C5.28 206.7 4.63333 206.94 4.14 207.42C3.66 207.9 3.42 208.58 3.42 209.46V210.28C3.42 211.147 3.66667 211.827 4.16 212.32C4.65333 212.8 5.29333 213.04 6.08 213.04C6.86667 213.04 7.50667 212.8 8 212.32C8.49333 211.827 8.74 211.147 8.74 210.28V209.46ZM32.052 208.04H28.492V206.82H32.052V204.32H28.492V203.1H32.052V200.62H33.572V210.64H32.052V208.04ZM19.072 205.58C19.072 204.7 19.2654 203.933 19.652 203.28C20.0387 202.627 20.572 202.127 21.252 201.78C21.932 201.42 22.712 201.24 23.592 201.24C24.472 201.24 25.252 201.42 25.932 201.78C26.612 202.127 27.1454 202.627 27.532 203.28C27.9187 203.933 28.112 204.7 28.112 205.58C28.112 206.46 27.9187 207.227 27.532 207.88C27.1454 208.533 26.6054 209.04 25.912 209.4C25.232 209.747 24.4587 209.92 23.592 209.92C22.7254 209.92 21.9454 209.747 21.252 209.4C20.572 209.04 20.0387 208.533 19.652 207.88C19.2654 207.227 19.072 206.46 19.072 205.58ZM20.652 205.94C20.652 206.78 20.9187 207.453 21.452 207.96C21.9987 208.453 22.712 208.7 23.592 208.7C24.472 208.7 25.1787 208.453 25.712 207.96C26.2587 207.453 26.532 206.78 26.532 205.94V205.22C26.532 204.38 26.2587 203.713 25.712 203.22C25.1787 202.713 24.472 202.46 23.592 202.46C22.712 202.46 21.9987 202.713 21.452 203.22C20.9187 203.713 20.652 204.38 20.652 205.22V205.94ZM35.212 217.7L34.232 218.74L31.272 215.84C31.192 215.747 31.0987 215.7 30.992 215.7C30.9387 215.7 30.8787 215.72 30.812 215.76C30.5054 216.213 30.112 216.68 29.632 217.16C29.152 217.653 28.512 218.247 27.712 218.94L24.672 215.78C24.5787 215.687 24.4854 215.64 24.392 215.64C24.3387 215.64 24.2654 215.673 24.172 215.74C23.5854 216.62 22.5854 217.667 21.172 218.88L20.212 217.86C21.1054 217.113 21.8054 216.447 22.312 215.86C22.8187 215.273 23.1787 214.693 23.392 214.12C23.6187 213.547 23.732 212.9 23.732 212.18V211.54H25.172V212.22C25.172 213.313 24.9654 214.267 24.552 215.08L24.632 215.12L24.892 214.92C24.9987 214.827 25.1254 214.78 25.272 214.78C25.432 214.78 25.572 214.84 25.692 214.96L27.812 217.08C28.772 216.213 29.432 215.433 29.792 214.74C30.152 214.047 30.332 213.2 30.332 212.2V211.54H31.772V212.28C31.772 212.867 31.7254 213.387 31.632 213.84C31.5387 214.293 31.3854 214.727 31.172 215.14L31.252 215.2L31.512 214.98C31.6587 214.873 31.7987 214.82 31.932 214.82C32.0654 214.82 32.1987 214.873 32.332 214.98L35.212 217.7ZM38.2841 206.06C38.2841 205.167 38.5107 204.367 38.9641 203.66C39.4307 202.94 40.1374 202.367 41.0841 201.94C42.0307 201.513 43.1974 201.3 44.5841 201.3C45.9707 201.3 47.1374 201.513 48.0841 201.94C49.0307 202.367 49.7307 202.94 50.1841 203.66C50.6507 204.367 50.8841 205.167 50.8841 206.06C50.8841 206.953 50.6507 207.76 50.1841 208.48C49.7307 209.2 49.0307 209.773 48.0841 210.2C47.1374 210.627 45.9707 210.84 44.5841 210.84C43.1974 210.84 42.0307 210.627 41.0841 210.2C40.1374 209.773 39.4307 209.2 38.9641 208.48C38.5107 207.76 38.2841 206.953 38.2841 206.06ZM49.2441 206.3V205.84C49.2441 205.227 49.0774 204.673 48.7441 204.18C48.4241 203.673 47.9107 203.273 47.2041 202.98C46.5107 202.673 45.6374 202.52 44.5841 202.52C43.5307 202.52 42.6507 202.673 41.9441 202.98C41.2507 203.273 40.7374 203.673 40.4041 204.18C40.0841 204.673 39.9241 205.227 39.9241 205.84V206.3C39.9241 207.247 40.3107 208.033 41.0841 208.66C41.8574 209.287 43.0241 209.6 44.5841 209.6C46.1441 209.6 47.3107 209.287 48.0841 208.66C48.8574 208.033 49.2441 207.247 49.2441 206.3ZM36.4241 214.7H52.7441V216H36.4241V214.7ZM69.1761 200.62V217.98H67.6761V210.58H63.3161V213.14H55.1761V202H63.3161V204.46H67.6761V200.62H69.1761ZM61.8561 203.24H56.6361V211.9H61.8561V203.24ZM67.6761 209.32V205.7H63.3161V209.32H67.6761ZM91.7947 214.42H90.2747V200.62H91.7947V214.42ZM85.4547 202.14H80.1547V200.94H85.4547V202.14ZM80.1947 205.14H77.3347V203.98H87.9147V205.14H85.1547V205.24C86.248 205.68 86.7947 206.427 86.7947 207.48C86.7947 208.28 86.4147 208.933 85.6547 209.44C84.908 209.933 83.9147 210.18 82.6747 210.18C81.4214 210.18 80.4214 209.933 79.6747 209.44C78.928 208.933 78.5547 208.28 78.5547 207.48C78.5547 206.427 79.1014 205.68 80.1947 205.24V205.14ZM85.3947 207.1C85.3947 206.5 85.168 206.04 84.7147 205.72C84.2614 205.387 83.668 205.22 82.9347 205.22H82.3947C81.6747 205.22 81.088 205.387 80.6347 205.72C80.1814 206.04 79.9547 206.5 79.9547 207.1C79.9547 207.687 80.1814 208.147 80.6347 208.48C81.088 208.813 81.6747 208.98 82.3947 208.98H82.9347C83.6547 208.98 84.2414 208.813 84.6947 208.48C85.1614 208.147 85.3947 207.687 85.3947 207.1ZM88.9147 212.14C87.3947 212.38 85.5814 212.56 83.4747 212.68C81.3814 212.8 79.2347 212.86 77.0347 212.86L76.8947 211.62C79.1614 211.62 81.3414 211.567 83.4347 211.46C85.5414 211.353 87.3214 211.187 88.7747 210.96L88.9147 212.14ZM92.1147 217.32V218.56H81.4547C81.1347 218.56 80.888 218.473 80.7147 218.3C80.5414 218.127 80.4547 217.873 80.4547 217.54V214.06H81.9747V217.32H92.1147ZM114.793 200.62V217.98H113.333V208.66H110.633V217.5H109.173V200.92H110.633V207.4H113.333V200.62H114.793ZM105.473 202.1H106.913V213.18H100.013V202.14H101.433V206.34H105.473V202.1ZM105.473 207.58H101.433V211.92H105.473V207.58ZM130.665 208.22H126.725V207H130.665V204.42H126.725V203.18H130.665V200.62H132.185V210.96H130.665V208.22ZM118.705 210.78L117.885 209.62C119.672 208.913 121.025 208.287 121.945 207.74C122.879 207.18 123.532 206.593 123.905 205.98C124.279 205.367 124.465 204.613 124.465 203.72V202.94H118.385V201.66H125.985V203.54C125.985 204.713 125.772 205.687 125.345 206.46C124.919 207.233 124.192 207.953 123.165 208.62C122.139 209.273 120.652 209.993 118.705 210.78ZM132.285 215.12C132.285 215.853 132.072 216.507 131.645 217.08C131.232 217.667 130.605 218.127 129.765 218.46C128.925 218.793 127.899 218.96 126.685 218.96C125.472 218.96 124.439 218.793 123.585 218.46C122.745 218.127 122.112 217.667 121.685 217.08C121.272 216.507 121.065 215.853 121.065 215.12C121.065 214.387 121.272 213.733 121.685 213.16C122.112 212.573 122.745 212.113 123.585 211.78C124.439 211.447 125.472 211.28 126.685 211.28C127.899 211.28 128.925 211.447 129.765 211.78C130.605 212.113 131.232 212.573 131.645 213.16C132.072 213.733 132.285 214.387 132.285 215.12ZM130.665 214.96C130.665 214.267 130.332 213.687 129.665 213.22C129.012 212.753 128.019 212.52 126.685 212.52C125.352 212.52 124.352 212.76 123.685 213.24C123.019 213.707 122.685 214.28 122.685 214.96V215.3C122.685 215.98 123.019 216.553 123.685 217.02C124.352 217.5 125.352 217.74 126.685 217.74C128.019 217.74 129.012 217.5 129.665 217.02C130.332 216.553 130.665 215.98 130.665 215.3V214.96ZM136.897 206.06C136.897 205.167 137.124 204.367 137.577 203.66C138.044 202.94 138.751 202.367 139.697 201.94C140.644 201.513 141.811 201.3 143.197 201.3C144.584 201.3 145.751 201.513 146.697 201.94C147.644 202.367 148.344 202.94 148.797 203.66C149.264 204.367 149.497 205.167 149.497 206.06C149.497 206.953 149.264 207.76 148.797 208.48C148.344 209.2 147.644 209.773 146.697 210.2C145.751 210.627 144.584 210.84 143.197 210.84C141.811 210.84 140.644 210.627 139.697 210.2C138.751 209.773 138.044 209.2 137.577 208.48C137.124 207.76 136.897 206.953 136.897 206.06ZM147.857 206.3V205.84C147.857 205.227 147.691 204.673 147.357 204.18C147.037 203.673 146.524 203.273 145.817 202.98C145.124 202.673 144.251 202.52 143.197 202.52C142.144 202.52 141.264 202.673 140.557 202.98C139.864 203.273 139.351 203.673 139.017 204.18C138.697 204.673 138.537 205.227 138.537 205.84V206.3C138.537 207.247 138.924 208.033 139.697 208.66C140.471 209.287 141.637 209.6 143.197 209.6C144.757 209.6 145.924 209.287 146.697 208.66C147.471 208.033 147.857 207.247 147.857 206.3ZM135.037 214.7H151.357V216H135.037V214.7ZM169.189 214.72V216H152.869V214.72H160.269V211.3H155.269V205.88H165.269V202.94H155.169V201.68H166.789V207.1H156.789V210.04H167.309V211.3H161.789V214.72H169.189ZM191.048 200.62V217.98H189.628V208.66H187.208V217.5H185.788V200.92H187.208V207.4H189.628V200.62H191.048ZM179.748 204.84C179.748 206.053 179.635 207.107 179.408 208C179.195 208.88 178.841 209.727 178.348 210.54C177.868 211.34 177.188 212.267 176.308 213.32L175.208 212.5C176.035 211.54 176.668 210.693 177.108 209.96C177.548 209.227 177.861 208.473 178.048 207.7C178.248 206.913 178.348 205.98 178.348 204.9V203.66H175.788V202.46H179.748V204.84ZM180.468 202.46H184.048V205.22C184.048 206.553 183.941 207.707 183.728 208.68C183.515 209.64 183.168 210.56 182.688 211.44C182.221 212.307 181.555 213.293 180.688 214.4L179.568 213.6C180.381 212.56 181.001 211.647 181.428 210.86C181.868 210.073 182.181 209.247 182.368 208.38C182.568 207.5 182.668 206.46 182.668 205.26V203.66H180.468V202.46ZM209.58 208.42V209.72H193.26V208.42H198.12C198.44 207.46 198.68 206.513 198.84 205.58C199.013 204.633 199.093 203.613 199.08 202.52V202.46H194.86V201.22H200.52V202.52C200.52 204.493 200.22 206.46 199.62 208.42H205.34C205.847 206.473 206.093 204.507 206.08 202.52V202.46H201.76V201.22H207.54V202.6C207.54 204.573 207.307 206.513 206.84 208.42H209.58ZM202.42 214.7C202.553 214.7 202.7 214.74 202.86 214.82L208.16 217.74L207.28 218.9L201.82 215.78C201.633 215.673 201.467 215.62 201.32 215.62C201.187 215.62 201.033 215.673 200.86 215.78L200.78 215.84C200.26 216.32 199.573 216.807 198.72 217.3C197.88 217.807 196.807 218.36 195.5 218.96L194.68 217.78C196.32 217.06 197.573 216.413 198.44 215.84C199.307 215.267 199.9 214.7 200.22 214.14C200.553 213.567 200.72 212.9 200.72 212.14V211.58H202.3V212.2C202.3 212.813 202.227 213.36 202.08 213.84C201.933 214.32 201.687 214.78 201.34 215.22L201.44 215.26L201.92 214.9C202.093 214.767 202.26 214.7 202.42 214.7ZM227.932 209.06H225.112V218.02H223.592V200.66H225.112V207.78H227.932V209.06ZM219.332 202.9H213.652V201.6H219.332V202.9ZM210.992 205.3H221.692V206.54H218.732V206.66C219.945 207.26 220.552 208.413 220.552 210.12C220.552 210.987 220.372 211.74 220.012 212.38C219.652 213.007 219.152 213.487 218.512 213.82C217.885 214.153 217.185 214.32 216.412 214.32C215.639 214.32 214.932 214.153 214.292 213.82C213.665 213.487 213.172 213.007 212.812 212.38C212.452 211.74 212.272 210.987 212.272 210.12C212.272 208.413 212.879 207.26 214.092 206.66V206.54H210.992V205.3ZM219.072 209.46C219.072 208.567 218.832 207.887 218.352 207.42C217.872 206.94 217.225 206.7 216.412 206.7C215.612 206.7 214.965 206.94 214.472 207.42C213.992 207.9 213.752 208.58 213.752 209.46V210.28C213.752 211.147 213.999 211.827 214.492 212.32C214.985 212.8 215.625 213.04 216.412 213.04C217.199 213.04 217.839 212.8 218.332 212.32C218.825 211.827 219.072 211.147 219.072 210.28V209.46ZM242.384 208.6H238.704V207.36H242.384V204.64H238.704V203.4H242.384V200.62H243.904V213.8H242.384V208.6ZM238.024 210.26H229.844V201.74H238.024V210.26ZM236.524 203H231.344V209H236.524V203ZM244.264 217.1V218.36H233.784C233.464 218.36 233.217 218.273 233.044 218.1C232.871 217.927 232.784 217.673 232.784 217.34V212.36H234.324V217.1H244.264ZM261.656 200.62V217.98H260.156V207.72H256.456V206.44H260.156V200.62H261.656ZM252.996 207.62C253.156 207.62 253.296 207.693 253.416 207.84L257.336 212.84L256.176 213.86L252.256 208.7C252.203 208.633 252.136 208.6 252.056 208.6C251.976 208.6 251.909 208.633 251.856 208.7C251.523 209.473 251.063 210.267 250.476 211.08C249.889 211.893 249.089 212.907 248.076 214.12L246.916 213.14C248.076 211.82 248.963 210.693 249.576 209.76C250.203 208.813 250.649 207.867 250.916 206.92C251.196 205.973 251.336 204.887 251.336 203.66V201.78H252.856V203.64C252.856 205.253 252.636 206.693 252.196 207.96L252.276 208.02L252.556 207.78C252.703 207.673 252.849 207.62 252.996 207.62ZM280.908 214.72V216H264.588V214.72H271.988V210.1H266.948V201.8H278.608V203.1H268.468V208.8H278.788V210.1H273.508V214.72H280.908ZM304.007 206.58H301.227V211.5H299.707V200.62H301.227V205.3H304.007V206.58ZM297.727 210.16C295.66 210.573 293.053 210.78 289.907 210.78H287.867V201.6H295.887V202.84H289.347V205.52H295.607V206.74H289.347V209.56H289.987C292.907 209.56 295.42 209.36 297.527 208.96L297.727 210.16ZM289.967 212.56H301.227V218.86H299.727V213.84H289.967V212.56ZM312.045 201.7H323.765V202.98H313.565V205.92H323.485V207.14H313.585V210.08H324.105V211.36H312.045V201.7ZM309.705 214.7H326.025V216H309.705V214.7ZM342.517 200.62V213.8H340.977V200.62H342.517ZM328.117 206.02C328.117 205.087 328.311 204.273 328.697 203.58C329.097 202.887 329.644 202.36 330.337 202C331.031 201.627 331.824 201.44 332.717 201.44C333.597 201.44 334.384 201.627 335.077 202C335.784 202.36 336.331 202.887 336.717 203.58C337.117 204.273 337.317 205.087 337.317 206.02C337.317 206.94 337.117 207.747 336.717 208.44C336.331 209.133 335.784 209.667 335.077 210.04C334.384 210.4 333.597 210.58 332.717 210.58C331.824 210.58 331.031 210.4 330.337 210.04C329.644 209.667 329.097 209.14 328.697 208.46C328.311 207.767 328.117 206.953 328.117 206.02ZM335.697 206.44V205.6C335.697 204.72 335.417 204.02 334.857 203.5C334.311 202.967 333.597 202.7 332.717 202.7C331.824 202.7 331.097 202.967 330.537 203.5C329.991 204.033 329.717 204.733 329.717 205.6V206.44C329.717 207.307 329.997 208.007 330.557 208.54C331.117 209.06 331.837 209.32 332.717 209.32C333.597 209.32 334.311 209.06 334.857 208.54C335.417 208.007 335.697 207.307 335.697 206.44ZM331.397 217.34V212.36H332.937V217.1H342.877V218.36H332.397C332.077 218.36 331.831 218.273 331.657 218.1C331.484 217.927 331.397 217.673 331.397 217.34ZM364.296 209.96H352.436V201.76H353.956V208.66H364.296V209.96ZM366.416 214.7V216H350.096V214.7H366.416ZM383.048 200.62V210.64H381.548V200.62H383.048ZM371.988 203.54V202.82H368.708V201.56H373.428V203.36C373.428 204.253 373.288 205.033 373.008 205.7C372.728 206.367 372.281 207 371.668 207.6C371.068 208.2 370.221 208.88 369.128 209.64L368.068 208.74C369.068 208.06 369.848 207.46 370.408 206.94C370.968 206.42 371.368 205.893 371.608 205.36C371.861 204.827 371.988 204.22 371.988 203.54ZM377.268 203.8V202.82H374.348V201.56H378.708V203.62C378.708 204.633 378.575 205.507 378.308 206.24C378.041 206.973 377.615 207.66 377.028 208.3C376.441 208.927 375.615 209.647 374.548 210.46L373.468 209.56C374.455 208.84 375.215 208.2 375.748 207.64C376.281 207.08 376.668 206.5 376.908 205.9C377.148 205.3 377.268 204.6 377.268 203.8ZM371.908 217.68V211.72H383.048V218.7H372.908C372.588 218.7 372.341 218.613 372.168 218.44C371.995 218.267 371.908 218.013 371.908 217.68ZM381.528 212.98H373.428V217.42H381.528V212.98ZM387.92 203.82C387.92 202.847 388.42 202.073 389.42 201.5C390.42 200.913 391.92 200.62 393.92 200.62C395.92 200.62 397.42 200.913 398.42 201.5C399.42 202.073 399.92 202.847 399.92 203.82C399.92 204.793 399.42 205.573 398.42 206.16C397.42 206.747 395.92 207.04 393.92 207.04C391.92 207.04 390.42 206.747 389.42 206.16C388.42 205.573 387.92 204.793 387.92 203.82ZM398.3 203.92V203.7C398.3 203.127 397.933 202.66 397.2 202.3C396.48 201.927 395.387 201.74 393.92 201.74C392.453 201.74 391.353 201.927 390.62 202.3C389.9 202.66 389.54 203.127 389.54 203.7V203.92C389.54 204.493 389.9 204.967 390.62 205.34C391.353 205.7 392.453 205.88 393.92 205.88C395.387 205.88 396.48 205.7 397.2 205.34C397.933 204.967 398.3 204.493 398.3 203.92ZM402.08 208.42V209.7H385.76V208.42H402.08ZM388.3 217.78V214.5H398.16V212.62H388.18V211.38H399.62V215.66H389.76V217.56H400.14V218.8H389.3C388.98 218.8 388.733 218.713 388.56 218.54C388.387 218.367 388.3 218.113 388.3 217.78ZM422.259 208.88H410.699V201.06H412.199V203.7H420.759V201.06H422.259V208.88ZM420.759 204.96H412.199V207.62H420.759V204.96ZM424.639 212.34H417.239V218.68H415.719V212.34H408.319V211.04H424.639V212.34ZM441.071 200.62V217.98H439.571V210.68H436.171V209.44H439.571V205.68H436.171V204.44H439.571V200.62H441.071ZM435.751 207.64C435.751 209.587 435.331 211.06 434.491 212.06C433.651 213.06 432.544 213.56 431.171 213.56C429.784 213.56 428.671 213.06 427.831 212.06C426.991 211.06 426.571 209.587 426.571 207.64C426.571 205.693 426.991 204.22 427.831 203.22C428.671 202.22 429.784 201.72 431.171 201.72C432.544 201.72 433.651 202.22 434.491 203.22C435.331 204.22 435.751 205.693 435.751 207.64ZM434.151 206.84C434.151 205.587 433.877 204.633 433.331 203.98C432.784 203.313 432.064 202.98 431.171 202.98C430.264 202.98 429.537 203.313 428.991 203.98C428.444 204.633 428.171 205.587 428.171 206.84V208.44C428.171 209.693 428.444 210.653 428.991 211.32C429.537 211.973 430.264 212.3 431.171 212.3C432.064 212.3 432.784 211.973 433.331 211.32C433.877 210.653 434.151 209.693 434.151 208.44V206.84Z" fill="black"/>
</svg>
