<svg width="687" height="88" viewBox="0 0 687 88" fill="none" xmlns="http://www.w3.org/2000/svg">
<path d="M91.4415 57.4299L88.5954 51.6299H88.4768V71.7499H83.5356V43.8299H89.2674L97.5686 58.1499L100.415 63.9499H100.533V43.8299H105.474V71.7499H99.7427L91.4415 57.4299ZM123.49 53.3899H113.924V57.8299H118.984V68.1099H123.49V53.3899ZM123.49 66.2299H119.379C117.482 67.7099 115.268 69.1499 113.41 70.2299L115.584 74.9899C117.837 73.3099 119.695 71.7499 121.514 70.1899C123.885 73.2699 127.048 74.4299 131.791 74.6299C136.653 74.8699 145.073 74.7899 149.975 74.5499C150.212 73.1499 150.923 70.9499 151.437 69.8699C145.982 70.3099 136.574 70.4299 131.87 70.1899C127.799 70.0299 125.071 68.9099 123.49 66.2299ZM114.477 41.7099C116.928 43.5499 119.893 46.3499 121.158 48.2699L124.715 44.8299C123.292 42.9099 120.209 40.3099 117.758 38.6299L114.477 41.7099ZM130.487 45.5499C134.123 46.9899 139.025 49.2699 141.436 50.7899L144.678 47.9499C141.99 46.3899 137.009 44.2299 133.491 42.9899L130.487 45.5499ZM126.89 47.8299V68.5499H131.356V51.3099H147.01V47.8299H126.89ZM144.796 47.8299V64.3499C144.796 64.7899 144.678 64.9499 144.203 64.9499C143.808 64.9499 142.425 64.9499 141.16 64.9099C141.674 65.9499 142.187 67.5099 142.346 68.6699C144.717 68.6699 146.457 68.6699 147.682 67.9899C148.986 67.3499 149.303 66.3499 149.303 64.3899V47.8299H144.796ZM127.245 39.1099V42.7499H146.101V39.1099H127.245ZM129.38 53.4699V56.7899H146.338V53.4699H129.38ZM129.38 59.0699V62.5499H146.338V59.0699H129.38ZM135.902 49.4699V68.3899H140.132V49.4699H135.902ZM144.401 39.1099V39.9499C142.899 41.7899 139.46 44.3099 136.495 45.7499C137.167 46.3899 138.314 47.6299 138.867 48.4299C142.504 46.6699 146.417 43.8299 149.224 41.1899L146.417 38.8699L145.468 39.1099H144.401ZM188.397 40.7099V75.9899H183.891V57.6299H180.65V75.0299H176.143V41.2299H180.65V53.7099H183.891V40.7099H188.397ZM173.495 62.0699L174.088 65.8699C170.635 66.6965 166.512 67.1099 161.715 67.1099H158.75V44.2699H172.072V48.2699H163.296V63.1899C167.565 63.1633 170.965 62.7899 173.495 62.0699ZM222.179 49.7499V40.7099H226.883V67.1899H222.179V53.7499H216.012V49.7499H222.179ZM207.672 55.4699C207.462 55.4699 207.29 55.5499 207.158 55.7099C206.367 56.8033 205.432 57.9233 204.351 59.0699C203.272 60.1899 201.94 61.4699 200.359 62.9099L196.841 59.8699C199.766 57.4965 201.874 55.3365 203.165 53.3899C204.457 51.4433 205.129 49.3499 205.181 47.1099H198.105V43.1899H216.842V47.1099H209.885C209.885 49.4299 209.371 51.6299 208.344 53.7099L208.581 53.8299L209.529 53.1499C209.925 52.8565 210.347 52.7099 210.794 52.7099C211.296 52.7099 211.731 52.8833 212.099 53.2299L218.384 59.0299L214.866 62.1099L208.304 55.7099C208.12 55.5499 207.909 55.4699 207.672 55.4699ZM227.555 72.8299V76.7499H207.079C205.076 76.7499 204.074 75.7365 204.074 73.7099V64.5499H208.818V72.8299H227.555Z" fill="#1A3C40"/>
<path d="M58.0588 39.25H18.5294C8.2959 39.25 0 47.6447 0 58C0 68.3553 8.2959 76.75 18.5294 76.75H58.0588C68.2923 76.75 76.5882 68.3553 76.5882 58C76.5882 47.6447 68.2923 39.25 58.0588 39.25Z" fill="#1A3C40"/>
<path d="M71.6472 58C71.6472 50.4061 65.5635 44.25 58.0589 44.25C50.5544 44.25 44.4707 50.4061 44.4707 58C44.4707 65.5939 50.5544 71.75 58.0589 71.75C65.5635 71.75 71.6472 65.5939 71.6472 58Z" fill="white"/>
<path d="M10.32 5.405H11.85V18.545H10.32V5.405ZM1.02 14.69C2.36 14.01 3.38 13.385 4.08 12.815C4.78 12.245 5.27 11.64 5.55 11C5.84 10.36 5.985 9.57 5.985 8.63V7.745H1.425V6.455H7.53V8.615C7.53 9.745 7.355 10.705 7.005 11.495C6.665 12.275 6.095 13.005 5.295 13.685C4.505 14.355 3.375 15.08 1.905 15.86L1.02 14.69ZM26.214 12.605V13.91H13.914V12.605H19.314V11.345H15.699V5.72H17.184V7.34H22.944V5.72H24.429V11.345H20.829V12.605H26.214ZM17.184 10.115H22.944V8.585H17.184V10.115ZM17.169 17.615H24.654V18.875H16.614C16.294 18.875 16.049 18.79 15.879 18.62C15.719 18.45 15.639 18.205 15.639 17.885V14.885H17.169V17.615ZM37.128 12.065H35.358V10.85H37.128V9.44H35.358V8.21H37.128V5.405H38.643V13.865H37.128V12.065ZM33.318 6.935H29.268V5.69H33.318V6.935ZM31.203 13.505C30.563 13.505 30.003 13.41 29.523 13.22C29.053 13.02 28.688 12.755 28.428 12.425C28.178 12.085 28.053 11.705 28.053 11.285C28.053 10.445 28.453 9.85 29.253 9.5V9.395H27.378V8.18H34.863V9.395H33.153V9.5C33.943 9.84 34.338 10.435 34.338 11.285C34.338 11.705 34.213 12.085 33.963 12.425C33.713 12.755 33.348 13.02 32.868 13.22C32.398 13.41 31.843 13.505 31.203 13.505ZM31.068 12.26H31.338C31.818 12.26 32.203 12.14 32.493 11.9C32.793 11.66 32.943 11.33 32.943 10.91C32.943 10.49 32.793 10.16 32.493 9.92C32.203 9.68 31.818 9.56 31.338 9.56H31.068C30.588 9.56 30.198 9.68 29.898 9.92C29.598 10.16 29.448 10.49 29.448 10.91C29.448 11.33 29.598 11.66 29.898 11.9C30.198 12.14 30.588 12.26 31.068 12.26ZM38.688 16.715C38.688 17.505 38.313 18.135 37.563 18.605C36.823 19.085 35.763 19.325 34.383 19.325C33.003 19.325 31.938 19.085 31.188 18.605C30.438 18.135 30.063 17.505 30.063 16.715C30.063 16.205 30.228 15.755 30.558 15.365C30.888 14.975 31.378 14.67 32.028 14.45C32.678 14.23 33.463 14.12 34.383 14.12C35.303 14.12 36.083 14.23 36.723 14.45C37.373 14.67 37.863 14.975 38.193 15.365C38.523 15.755 38.688 16.205 38.688 16.715ZM37.083 16.64C37.083 16.26 36.858 15.945 36.408 15.695C35.968 15.445 35.293 15.32 34.383 15.32C33.483 15.32 32.803 15.445 32.343 15.695C31.893 15.945 31.668 16.26 31.668 16.64V16.82C31.668 17.19 31.893 17.5 32.343 17.75C32.803 18 33.483 18.125 34.383 18.125C35.293 18.125 35.968 18 36.408 17.75C36.858 17.5 37.083 17.19 37.083 16.82V16.64Z" fill="black"/>
<path d="M344.23 9.185V10.415H342.34V13.55H340.84V5.405H342.34V9.185H344.23ZM337.6 6.575H333.625V5.45H337.6V6.575ZM340.225 13.01C339.105 13.18 337.76 13.315 336.19 13.415C334.62 13.505 333.02 13.55 331.39 13.55L331.285 12.425C332.605 12.425 333.78 12.405 334.81 12.365V11.54C334.05 11.47 333.455 11.295 333.025 11.015C332.605 10.725 332.395 10.375 332.395 9.965C332.395 9.395 332.725 8.98 333.385 8.72V8.6H331.585V7.535H339.43V8.6H337.66V8.72C338.32 8.96 338.65 9.375 338.65 9.965C338.65 10.375 338.435 10.725 338.005 11.015C337.585 11.295 337 11.47 336.25 11.54V12.305C337.85 12.225 339.135 12.115 340.105 11.975L340.225 13.01ZM335.245 10.445H335.8C336.26 10.445 336.63 10.37 336.91 10.22C337.19 10.06 337.33 9.835 337.33 9.545C337.33 9.265 337.19 9.05 336.91 8.9C336.63 8.74 336.26 8.66 335.8 8.66H335.245C334.785 8.66 334.415 8.74 334.135 8.9C333.855 9.05 333.715 9.265 333.715 9.545C333.715 9.835 333.855 10.06 334.135 10.22C334.415 10.37 334.785 10.445 335.245 10.445ZM335.11 18.155H342.655V19.295H334.675C334.355 19.295 334.11 19.21 333.94 19.04C333.78 18.87 333.7 18.625 333.7 18.305V16.19H340.915V15.335H333.61V14.21H342.34V17.3H335.11V18.155ZM357.214 11.885V13.16H344.914V11.885H348.019V10.265C347.509 10.035 347.124 9.74 346.864 9.38C346.614 9.01 346.489 8.595 346.489 8.135C346.489 7.315 346.869 6.665 347.629 6.185C348.399 5.705 349.544 5.465 351.064 5.465C352.584 5.465 353.724 5.705 354.484 6.185C355.254 6.665 355.639 7.315 355.639 8.135C355.639 8.595 355.509 9.01 355.249 9.38C354.999 9.74 354.619 10.035 354.109 10.265V11.885H357.214ZM348.094 8.225C348.094 8.645 348.339 8.985 348.829 9.245C349.329 9.505 350.074 9.635 351.064 9.635C352.064 9.635 352.809 9.505 353.299 9.245C353.799 8.985 354.049 8.645 354.049 8.225V8.03C354.049 7.61 353.799 7.27 353.299 7.01C352.809 6.75 352.064 6.62 351.064 6.62C350.074 6.62 349.329 6.75 348.829 7.01C348.339 7.27 348.094 7.61 348.094 8.03V8.225ZM349.474 11.885H352.654V10.685C352.114 10.755 351.584 10.79 351.064 10.79C350.544 10.79 350.014 10.755 349.474 10.685V11.885ZM355.564 16.715C355.564 17.235 355.389 17.69 355.039 18.08C354.699 18.48 354.189 18.79 353.509 19.01C352.839 19.23 352.024 19.34 351.064 19.34C350.104 19.34 349.284 19.23 348.604 19.01C347.934 18.79 347.424 18.48 347.074 18.08C346.734 17.69 346.564 17.235 346.564 16.715C346.564 16.195 346.734 15.74 347.074 15.35C347.424 14.95 347.934 14.64 348.604 14.42C349.284 14.2 350.104 14.09 351.064 14.09C352.024 14.09 352.839 14.2 353.509 14.42C354.189 14.64 354.699 14.95 355.039 15.35C355.389 15.74 355.564 16.195 355.564 16.715ZM353.974 16.625C353.974 16.245 353.729 15.93 353.239 15.68C352.759 15.42 352.034 15.29 351.064 15.29C350.094 15.29 349.364 15.42 348.874 15.68C348.384 15.93 348.139 16.245 348.139 16.625V16.82C348.139 17.19 348.384 17.5 348.874 17.75C349.364 18.01 350.094 18.14 351.064 18.14C352.034 18.14 352.759 18.01 353.239 17.75C353.729 17.5 353.974 17.19 353.974 16.82V16.625ZM368.128 12.065H366.358V10.85H368.128V9.44H366.358V8.21H368.128V5.405H369.643V13.865H368.128V12.065ZM364.318 6.935H360.268V5.69H364.318V6.935ZM362.203 13.505C361.563 13.505 361.003 13.41 360.523 13.22C360.053 13.02 359.688 12.755 359.428 12.425C359.178 12.085 359.053 11.705 359.053 11.285C359.053 10.445 359.453 9.85 360.253 9.5V9.395H358.378V8.18H365.863V9.395H364.153V9.5C364.943 9.84 365.338 10.435 365.338 11.285C365.338 11.705 365.213 12.085 364.963 12.425C364.713 12.755 364.348 13.02 363.868 13.22C363.398 13.41 362.843 13.505 362.203 13.505ZM362.068 12.26H362.338C362.818 12.26 363.203 12.14 363.493 11.9C363.793 11.66 363.943 11.33 363.943 10.91C363.943 10.49 363.793 10.16 363.493 9.92C363.203 9.68 362.818 9.56 362.338 9.56H362.068C361.588 9.56 361.198 9.68 360.898 9.92C360.598 10.16 360.448 10.49 360.448 10.91C360.448 11.33 360.598 11.66 360.898 11.9C361.198 12.14 361.588 12.26 362.068 12.26ZM369.688 16.715C369.688 17.505 369.313 18.135 368.563 18.605C367.823 19.085 366.763 19.325 365.383 19.325C364.003 19.325 362.938 19.085 362.188 18.605C361.438 18.135 361.063 17.505 361.063 16.715C361.063 16.205 361.228 15.755 361.558 15.365C361.888 14.975 362.378 14.67 363.028 14.45C363.678 14.23 364.463 14.12 365.383 14.12C366.303 14.12 367.083 14.23 367.723 14.45C368.373 14.67 368.863 14.975 369.193 15.365C369.523 15.755 369.688 16.205 369.688 16.715ZM368.083 16.64C368.083 16.26 367.858 15.945 367.408 15.695C366.968 15.445 366.293 15.32 365.383 15.32C364.483 15.32 363.803 15.445 363.343 15.695C362.893 15.945 362.668 16.26 362.668 16.64V16.82C362.668 17.19 362.893 17.5 363.343 17.75C363.803 18 364.483 18.125 365.383 18.125C366.293 18.125 366.968 18 367.408 17.75C367.858 17.5 368.083 17.19 368.083 16.82V16.64Z" fill="black"/>
<path d="M389.085 40H349.538C339.3 40 331 48.2677 331 58.4664C331 68.6651 339.3 76.9328 349.538 76.9328H389.085C399.323 76.9328 407.623 68.6651 407.623 58.4664C407.623 48.2677 399.323 40 389.085 40Z" fill="#1A3C40"/>
<path d="M402.679 58.4663C402.679 50.9873 396.593 44.9243 389.085 44.9243C381.577 44.9243 375.491 50.9873 375.491 58.4663C375.491 65.9454 381.577 72.0084 389.085 72.0084C396.593 72.0084 402.679 65.9454 402.679 58.4663Z" fill="white"/>
<path d="M422.575 58.5156L419.728 52.8034H419.609V72.619H414.666V45.1213H420.4L428.705 59.2247L431.552 64.937H431.671V45.1213H436.614V72.619H430.88L422.575 58.5156Z" fill="#1A3C40"/>
<path d="M548.809 5.405V13.625H547.354V5.405H548.809ZM544.534 10.16H543.034V8.915H544.534V5.6H545.944V13.505H544.534V10.16ZM543.484 12.74C542.174 13.05 540.619 13.205 538.819 13.205H537.664V6.23H542.719V7.43H539.074V9.065H542.554V10.265H539.074V12.005H539.239C540.769 12.005 542.114 11.86 543.274 11.57L543.484 12.74ZM539.839 14.345H548.809V19.22H547.324V15.62H539.839V14.345ZM551.908 13.025L551.053 11.84C552.343 11.21 553.343 10.63 554.053 10.1C554.773 9.56 555.278 9.02 555.568 8.48C555.868 7.94 556.018 7.335 556.018 6.665V6.095H557.593V6.71C557.593 7.3 557.523 7.835 557.383 8.315C557.243 8.785 557.018 9.23 556.708 9.65L556.798 9.695L557.308 9.32C557.468 9.19 557.633 9.125 557.803 9.125C557.953 9.125 558.113 9.18 558.283 9.29L562.318 11.78L561.433 12.98L557.098 10.175C556.968 10.085 556.823 10.04 556.663 10.04C556.513 10.04 556.373 10.09 556.243 10.19C555.813 10.64 555.253 11.09 554.563 11.54C553.873 11.98 552.988 12.475 551.908 13.025ZM562.828 15.8V17.09H550.528V15.8H562.828ZM565.627 6.2H574.537V7.475H567.157V9.305H574.312V10.535H567.172V12.38H574.792V13.655H565.627V6.2ZM563.902 15.8H576.202V17.09H563.902V15.8ZM587.116 12.065H585.346V10.85H587.116V9.44H585.346V8.21H587.116V5.405H588.631V13.865H587.116V12.065ZM583.306 6.935H579.256V5.69H583.306V6.935ZM581.191 13.505C580.551 13.505 579.991 13.41 579.511 13.22C579.041 13.02 578.676 12.755 578.416 12.425C578.166 12.085 578.041 11.705 578.041 11.285C578.041 10.445 578.441 9.85 579.241 9.5V9.395H577.366V8.18H584.851V9.395H583.141V9.5C583.931 9.84 584.326 10.435 584.326 11.285C584.326 11.705 584.201 12.085 583.951 12.425C583.701 12.755 583.336 13.02 582.856 13.22C582.386 13.41 581.831 13.505 581.191 13.505ZM581.056 12.26H581.326C581.806 12.26 582.191 12.14 582.481 11.9C582.781 11.66 582.931 11.33 582.931 10.91C582.931 10.49 582.781 10.16 582.481 9.92C582.191 9.68 581.806 9.56 581.326 9.56H581.056C580.576 9.56 580.186 9.68 579.886 9.92C579.586 10.16 579.436 10.49 579.436 10.91C579.436 11.33 579.586 11.66 579.886 11.9C580.186 12.14 580.576 12.26 581.056 12.26ZM588.676 16.715C588.676 17.505 588.301 18.135 587.551 18.605C586.811 19.085 585.751 19.325 584.371 19.325C582.991 19.325 581.926 19.085 581.176 18.605C580.426 18.135 580.051 17.505 580.051 16.715C580.051 16.205 580.216 15.755 580.546 15.365C580.876 14.975 581.366 14.67 582.016 14.45C582.666 14.23 583.451 14.12 584.371 14.12C585.291 14.12 586.071 14.23 586.711 14.45C587.361 14.67 587.851 14.975 588.181 15.365C588.511 15.755 588.676 16.205 588.676 16.715ZM587.071 16.64C587.071 16.26 586.846 15.945 586.396 15.695C585.956 15.445 585.281 15.32 584.371 15.32C583.471 15.32 582.791 15.445 582.331 15.695C581.881 15.945 581.656 16.26 581.656 16.64V16.82C581.656 17.19 581.881 17.5 582.331 17.75C582.791 18 583.471 18.125 584.371 18.125C585.281 18.125 585.956 18 586.396 17.75C586.846 17.5 587.071 17.19 587.071 16.82V16.64Z" fill="black"/>
<path d="M569.523 58.6965V62.7029H536.614V58.6965H550.672V56.1874C547.398 55.9176 544.921 55.0948 543.244 53.7189C541.593 52.3429 540.768 50.5893 540.768 48.4579C540.768 46.0838 541.793 44.1952 543.843 42.7923C545.92 41.3624 548.995 40.6475 553.069 40.6475C557.142 40.6475 560.204 41.3624 562.255 42.7923C564.331 44.1952 565.37 46.0838 565.37 48.4579C565.37 50.5893 564.531 52.3429 562.854 53.7189C561.203 55.0948 558.74 55.9176 555.465 56.1874V58.6965H569.523ZM553.069 52.5453C555.518 52.5453 557.342 52.208 558.54 51.5335C559.738 50.8321 560.338 49.9013 560.338 48.7412V48.1342C560.338 46.9741 559.725 46.0568 558.5 45.3823C557.302 44.7078 555.492 44.3706 553.069 44.3706C550.646 44.3706 548.835 44.7078 547.637 45.3823C546.439 46.0568 545.84 46.9741 545.84 48.1342V48.7412C545.84 49.9013 546.426 50.8321 547.597 51.5335C548.795 52.208 550.619 52.5453 553.069 52.5453ZM545.96 72.3344H565.37V76.3408H544.242C542.219 76.3408 541.207 75.3156 541.207 73.2652V65.131H545.96V72.3344Z" fill="#1A3C40"/>
<path d="M609.126 59.4654V63.229H576.217V59.4654H590.315V56.754H580.97V40.8498H604.294V44.4111H585.563V47.1225H603.655V50.5218H585.602V53.1928H604.933V56.754H595.028V59.4654H609.126ZM604.773 71.4441C604.773 73.4945 603.721 75.0998 601.618 76.2599C599.514 77.4199 596.532 78 592.672 78C588.811 78 585.829 77.4199 583.725 76.2599C581.622 75.0998 580.57 73.4945 580.57 71.4441C580.57 69.4207 581.622 67.8424 583.725 66.7093C585.829 65.5492 588.811 64.9691 592.672 64.9691C596.532 64.9691 599.514 65.5492 601.618 66.7093C603.721 67.8424 604.773 69.4207 604.773 71.4441ZM599.86 71.2822C599.86 70.4459 599.261 69.7714 598.063 69.2588C596.892 68.7462 595.094 68.4899 592.672 68.4899C590.249 68.4899 588.438 68.7462 587.24 69.2588C586.042 69.7714 585.443 70.4459 585.443 71.2822V71.6869C585.443 72.4963 586.042 73.1573 587.24 73.6699C588.438 74.1825 590.249 74.4388 592.672 74.4388C595.094 74.4388 596.892 74.1825 598.063 73.6699C599.261 73.1842 599.86 72.5233 599.86 71.6869V71.2822Z" fill="#1A3C40"/>
<path d="M647.051 40V75.6933H642.498V57.1182H639.224V74.722H634.671V40.5261H639.224V53.1523H642.498V40H647.051ZM631.995 61.6102L632.594 65.4547C629.106 66.2911 624.939 66.7093 620.093 66.7093H617.098V43.6017H630.557V47.6486H621.691V62.7433C626.004 62.7164 629.439 62.3387 631.995 61.6102Z" fill="#1A3C40"/>
<path d="M681.183 49.1459V40H685.935V66.7902H681.183V53.1928H674.952V49.1459H681.183ZM666.525 54.9329C666.312 54.9329 666.139 55.0138 666.006 55.1757C665.207 56.2819 664.262 57.415 663.171 58.5751C662.079 59.7082 660.734 61.0032 659.137 62.4601L655.582 59.3845C658.538 56.9833 660.668 54.798 661.972 52.8285C663.277 50.8591 663.956 48.7412 664.009 46.475H656.86V42.5091H675.791V46.475H668.762C668.762 48.8221 668.243 51.0479 667.204 53.1523L667.444 53.2737L668.402 52.5857C668.802 52.289 669.228 52.1406 669.68 52.1406C670.186 52.1406 670.626 52.3159 670.998 52.6667L677.349 58.5346L673.794 61.6507L667.164 55.1757C666.978 55.0138 666.765 54.9329 666.525 54.9329ZM686.614 72.4963V76.4622H665.926C663.903 76.4622 662.891 75.437 662.891 73.3866V64.1193H667.684V72.4963H686.614Z" fill="#1A3C40"/>
</svg>
