<svg width="536" height="224" viewBox="0 0 536 224" fill="none" xmlns="http://www.w3.org/2000/svg">
<path d="M172.19 51.6C169.824 51.6 167.69 51.2333 165.79 50.5C163.89 49.7333 162.274 48.6167 160.94 47.15C159.607 45.65 158.574 43.8 157.84 41.6C157.107 39.3667 156.74 36.7667 156.74 33.8C156.74 30.8667 157.107 28.2667 157.84 26C158.574 23.7 159.607 21.7833 160.94 20.25C162.274 18.6833 163.89 17.5 165.79 16.7C167.69 15.9 169.824 15.5 172.19 15.5C175.424 15.5 178.09 16.1667 180.19 17.5C182.29 18.8 183.974 20.8667 185.24 23.7L178.69 27.1C178.224 25.6333 177.49 24.4667 176.49 23.6C175.524 22.7 174.09 22.25 172.19 22.25C169.957 22.25 168.157 22.9833 166.79 24.45C165.457 25.8833 164.79 27.9833 164.79 30.75V36.35C164.79 39.1167 165.457 41.2333 166.79 42.7C168.157 44.1333 169.957 44.85 172.19 44.85C174.057 44.85 175.54 44.35 176.64 43.35C177.774 42.3167 178.607 41.0833 179.14 39.65L185.34 43.25C184.04 45.9167 182.324 47.9833 180.19 49.45C178.09 50.8833 175.424 51.6 172.19 51.6ZM204.024 51.6C201.724 51.6 199.624 51.2167 197.724 50.45C195.824 49.6833 194.207 48.55 192.874 47.05C191.54 45.5167 190.507 43.6333 189.774 41.4C189.04 39.1333 188.674 36.5167 188.674 33.55C188.674 30.5833 189.04 27.9833 189.774 25.75C190.507 23.4833 191.54 21.6 192.874 20.1C194.207 18.5667 195.824 17.4167 197.724 16.65C199.624 15.8833 201.724 15.5 204.024 15.5C206.324 15.5 208.424 15.8833 210.324 16.65C212.224 17.4167 213.84 18.5667 215.174 20.1C216.507 21.6 217.54 23.4833 218.274 25.75C219.007 27.9833 219.374 30.5833 219.374 33.55C219.374 36.5167 219.007 39.1333 218.274 41.4C217.54 43.6333 216.507 45.5167 215.174 47.05C213.84 48.55 212.224 49.6833 210.324 50.45C208.424 51.2167 206.324 51.6 204.024 51.6ZM204.024 44.85C206.324 44.85 208.107 44.1 209.374 42.6C210.674 41.1 211.324 38.95 211.324 36.15V30.95C211.324 28.15 210.674 26 209.374 24.5C208.107 23 206.324 22.25 204.024 22.25C201.724 22.25 199.924 23 198.624 24.5C197.357 26 196.724 28.15 196.724 30.95V36.15C196.724 38.95 197.357 41.1 198.624 42.6C199.924 44.1 201.724 44.85 204.024 44.85ZM236.367 34.5L233.017 27.5H232.867V51H225.717V16.1L234.017 16.1L243.567 32.6L246.917 39.6H247.067V16.1L254.217 16.1V51H245.917L236.367 34.5ZM275.999 51.6C273.632 51.6 271.499 51.2333 269.599 50.5C267.699 49.7333 266.082 48.6167 264.749 47.15C263.415 45.65 262.382 43.8 261.649 41.6C260.915 39.3667 260.549 36.7667 260.549 33.8C260.549 30.8667 260.915 28.2667 261.649 26C262.382 23.7 263.415 21.7833 264.749 20.25C266.082 18.6833 267.699 17.5 269.599 16.7C271.499 15.9 273.632 15.5 275.999 15.5C279.232 15.5 281.899 16.1667 283.999 17.5C286.099 18.8 287.782 20.8667 289.049 23.7L282.499 27.1C282.032 25.6333 281.299 24.4667 280.299 23.6C279.332 22.7 277.899 22.25 275.999 22.25C273.765 22.25 271.965 22.9833 270.599 24.45C269.265 25.8833 268.599 27.9833 268.599 30.75V36.35C268.599 39.1167 269.265 41.2333 270.599 42.7C271.965 44.1333 273.765 44.85 275.999 44.85C277.865 44.85 279.349 44.35 280.449 43.35C281.582 42.3167 282.415 41.0833 282.949 39.65L289.149 43.25C287.849 45.9167 286.132 47.9833 283.999 49.45C281.899 50.8833 279.232 51.6 275.999 51.6ZM294.467 51V16.1L318.217 16.1V22.85H302.067V30H315.917V36.7L302.067 36.7V44.25L318.217 44.25V51L294.467 51ZM324.838 51V16.1H341.338C342.972 16.1 344.438 16.3833 345.738 16.95C347.038 17.4833 348.138 18.2333 349.038 19.2C349.972 20.1667 350.688 21.35 351.188 22.75C351.688 24.1167 351.938 25.6167 351.938 27.25C351.938 28.9167 351.688 30.4333 351.188 31.8C350.688 33.1667 349.972 34.3333 349.038 35.3C348.138 36.2667 347.038 37.0333 345.738 37.6C344.438 38.1333 342.972 38.4 341.338 38.4H332.438V51H324.838ZM332.438 31.8H340.438C341.572 31.8 342.455 31.5167 343.088 30.95C343.755 30.35 344.088 29.4833 344.088 28.35V26.15C344.088 25.0167 343.755 24.1667 343.088 23.6C342.455 23 341.572 22.7 340.438 22.7H332.438V31.8ZM372.201 22.85V51H364.601V22.85L355.151 22.85V16.1L381.651 16.1V22.85H372.201Z" fill="#EDE6DB" fill-opacity="0.5"/>
<line x1="234" y1="75.5" x2="302" y2="75.5" stroke="#F5F2EC" stroke-width="5"/>
<path d="M198.849 112.54V130.06H196.829V120.28H193.549C193.456 122.053 192.983 123.393 192.129 124.3C191.289 125.193 190.196 125.64 188.849 125.64C187.423 125.64 186.276 125.133 185.409 124.12C184.543 123.107 184.109 121.613 184.109 119.64C184.109 117.653 184.536 116.16 185.389 115.16C186.256 114.147 187.409 113.64 188.849 113.64C190.143 113.64 191.203 114.053 192.029 114.88C192.869 115.707 193.369 116.94 193.529 118.58H196.829V112.54H198.849ZM191.449 118.64C191.449 117.573 191.209 116.76 190.729 116.2C190.263 115.627 189.636 115.34 188.849 115.34C188.063 115.34 187.429 115.627 186.949 116.2C186.483 116.76 186.249 117.573 186.249 118.64V120.64C186.249 121.707 186.483 122.527 186.949 123.1C187.429 123.66 188.063 123.94 188.849 123.94C189.636 123.94 190.263 123.66 190.729 123.1C191.209 122.527 191.449 121.707 191.449 120.64V118.64ZM216.661 112.54V130.06H214.621V112.54H216.661ZM212.421 123.32L212.661 124.96C210.568 125.373 207.928 125.58 204.741 125.58H202.721V113.96H210.961V115.66H204.761V123.9C207.761 123.9 210.315 123.707 212.421 123.32ZM235.813 126.42V128.12H219.413V126.42H226.613V123.46H221.753V117.7H231.433V115.26H221.693V113.58H233.473V119.32H223.793V121.78H233.953V123.46H228.633V126.42H235.813ZM251.385 120.04H239.685V113.26H251.245V114.94H241.705V118.36H251.385V120.04ZM253.645 121.9V123.64H237.245V121.9H253.645ZM241.585 128.72H251.565V130.4H240.845C240.419 130.4 240.092 130.287 239.865 130.06C239.652 129.833 239.545 129.507 239.545 129.08V125.02H241.585V128.72ZM276.204 122.18V123.82H259.804V122.18H267.004V120.64H262.224V112.92H273.764V114.5H264.164V116.02H273.444V117.54H264.204V119.04H274.084V120.64H269.004V122.18H276.204ZM274.004 128.02C274.004 128.993 273.484 129.767 272.444 130.34C271.404 130.913 269.924 131.2 268.004 131.2C266.084 131.2 264.604 130.913 263.564 130.34C262.524 129.767 262.004 128.993 262.004 128.02C262.004 127.047 262.524 126.273 263.564 125.7C264.604 125.127 266.084 124.84 268.004 124.84C269.924 124.84 271.404 125.127 272.444 125.7C273.484 126.273 274.004 127.047 274.004 128.02ZM271.884 127.92C271.884 127.48 271.564 127.113 270.924 126.82C270.284 126.527 269.311 126.38 268.004 126.38C266.697 126.38 265.717 126.527 265.064 126.82C264.424 127.113 264.104 127.48 264.104 127.92V128.14C264.104 128.58 264.431 128.947 265.084 129.24C265.737 129.533 266.711 129.68 268.004 129.68C269.297 129.68 270.264 129.533 270.904 129.24C271.557 128.947 271.884 128.58 271.884 128.14V127.92ZM294.556 121.26H291.856V130.08H289.836V112.56H291.856V119.56H294.556V121.26ZM285.916 115.24H280.076V113.52H285.916V115.24ZM277.496 117.22H288.196V118.88H285.496V119C286.629 119.627 287.196 120.74 287.196 122.34C287.196 123.193 287.009 123.94 286.636 124.58C286.276 125.207 285.769 125.693 285.116 126.04C284.476 126.387 283.749 126.56 282.936 126.56C282.123 126.56 281.389 126.387 280.736 126.04C280.096 125.693 279.589 125.207 279.216 124.58C278.843 123.94 278.656 123.193 278.656 122.34C278.656 120.74 279.223 119.633 280.356 119.02V118.88H277.496V117.22ZM285.236 121.52C285.236 120.747 285.029 120.153 284.616 119.74C284.203 119.313 283.643 119.1 282.936 119.1C282.229 119.1 281.663 119.313 281.236 119.74C280.823 120.167 280.616 120.76 280.616 121.52V122.44C280.616 123.2 280.829 123.793 281.256 124.22C281.683 124.647 282.243 124.86 282.936 124.86C283.629 124.86 284.183 124.647 284.596 124.22C285.023 123.793 285.236 123.2 285.236 122.44V121.52ZM309.588 119.62H297.928V113.2H299.948V117.96H309.588V119.62ZM311.868 121.52V123.26H295.468V121.52H311.868ZM299.808 128.72H309.788V130.4H299.068C298.641 130.4 298.315 130.287 298.088 130.06C297.875 129.833 297.768 129.507 297.768 129.08V124.84H299.808V128.72ZM334.947 120.9H332.147V130.08H330.127V112.56H332.147V119.2H334.947V120.9ZM325.007 113.74H326.987V125.42H318.547V113.76H320.507V117.94H325.007V113.74ZM325.007 119.62H320.507V123.74H325.007V119.62ZM352.779 116.96V118.66H350.039V123.26H348.019V112.54H350.039V116.96H352.779ZM346.399 122.14C344.265 122.54 341.625 122.74 338.479 122.74H336.539V117.16H342.519V115.06H336.479V113.42H344.459V118.78H338.459V121.12H338.599C341.465 121.12 343.979 120.927 346.139 120.54L346.399 122.14ZM338.959 124.18H350.059V130.78H340.259C339.832 130.78 339.505 130.667 339.279 130.44C339.065 130.213 338.959 129.887 338.959 129.46V124.18ZM340.999 129.12H348.019V125.86H340.999V129.12Z" fill="black"/>
<path d="M14.22 176.12H10.4V174.84H14.22V170.62H15.74V183.8H14.22V176.12ZM6.04 176.88C5.94667 176.88 5.86667 176.92 5.8 177C5.46667 177.613 5.01333 178.247 4.44 178.9C3.86667 179.553 3.1 180.353 2.14 181.3L1.02 180.3C2.15333 179.233 3.02 178.32 3.62 177.56C4.22 176.8 4.65333 176.047 4.92 175.3C5.2 174.54 5.34 173.68 5.34 172.72V171.46H6.88V172.78C6.88 174.113 6.64667 175.287 6.18 176.3L6.28 176.38L6.6 176.1C6.74667 175.98 6.88667 175.92 7.02 175.92C7.16667 175.92 7.30667 175.987 7.44 176.12L11.24 179.94L10.14 180.98L6.3 177C6.22 176.92 6.13333 176.88 6.04 176.88ZM16.1 187.1V188.36H5.62C5.3 188.36 5.05333 188.273 4.88 188.1C4.70667 187.927 4.62 187.673 4.62 187.34V182.38H6.16V187.1H16.1ZM35.432 179.04H32.712V187.98H31.212V170.62H32.712V177.76H35.432V179.04ZM26.952 173.46H19.432V172.2H28.432V173.74C28.432 175.86 28.192 177.973 27.712 180.08L26.252 179.86C26.7187 177.927 26.952 175.947 26.952 173.92V173.46ZM29.772 182.28L29.912 183.5C28.4454 183.74 26.692 183.92 24.652 184.04C22.6254 184.16 20.5387 184.22 18.392 184.22L18.252 182.94C19.5854 182.94 20.912 182.92 22.232 182.88V177.46H23.712V182.82C26.1254 182.713 28.1454 182.533 29.772 182.28ZM56.0874 172.18H43.5674V171H56.0874V172.18ZM56.2674 176.92H43.3874V175.76H46.3274L45.8074 173.1L47.3274 172.94L47.7474 175.76H51.8874L52.3074 172.94L53.8274 173.1L53.3074 175.76H56.2674V176.92ZM57.9874 178.6V179.86H41.6674V178.6H57.9874ZM45.6474 187.56H56.0474V188.8H45.2074C44.8874 188.8 44.6407 188.713 44.4674 188.54C44.294 188.367 44.2074 188.113 44.2074 187.78V184.54H54.0674V182.7H44.0874V181.48H55.5274V185.7H45.6474V187.56ZM75.8194 184.72V186H59.4994V184.72H66.8994V181.3H61.8994V175.88H71.8994V172.94H61.7994V171.68H73.4194V177.1H63.4194V180.04H73.9394V181.3H68.4194V184.72H75.8194ZM79.4514 174.9C79.4514 174.127 79.6714 173.433 80.1114 172.82C80.5514 172.207 81.2248 171.72 82.1314 171.36C83.0381 171 84.1581 170.82 85.4914 170.82C86.8248 170.82 87.9448 171 88.8514 171.36C89.7581 171.72 90.4314 172.207 90.8714 172.82C91.3114 173.433 91.5314 174.127 91.5314 174.9C91.5314 175.673 91.3114 176.373 90.8714 177C90.4314 177.613 89.7581 178.1 88.8514 178.46C87.9448 178.82 86.8248 179 85.4914 179C84.1581 179 83.0381 178.82 82.1314 178.46C81.2248 178.1 80.5514 177.613 80.1114 177C79.6714 176.373 79.4514 175.673 79.4514 174.9ZM81.0914 175.1C81.0914 175.86 81.4581 176.493 82.1914 177C82.9248 177.507 84.0248 177.76 85.4914 177.76C86.9581 177.76 88.0581 177.507 88.7914 177C89.5248 176.493 89.8914 175.86 89.8914 175.1V174.7C89.8914 173.94 89.5248 173.307 88.7914 172.8C88.0581 172.28 86.9581 172.02 85.4914 172.02C84.0381 172.02 82.9381 172.28 82.1914 172.8C81.4581 173.307 81.0914 173.94 81.0914 174.7V175.1ZM93.6514 182.16H86.2514V188.68H84.7314V182.16H77.3314V180.88H93.6514V182.16ZM107.383 173.74V172.02H97.6235V170.9H108.843V174.84H99.2035V176.54H109.343V177.68H97.7235V173.74H107.383ZM111.483 179.18V180.36H95.1635V179.18H111.483ZM97.6635 187.84V184.82H107.623V183.14H97.5435V181.96H109.043V185.94H99.0835V187.66H109.563V188.86H98.6635C98.3435 188.86 98.0968 188.773 97.9235 188.6C97.7501 188.427 97.6635 188.173 97.6635 187.84ZM134.559 180.34V181.58H118.239V180.34H125.659V178.46H120.719V170.98H132.059V172.18H122.179V174.14H131.759V175.3H122.199V177.26H132.379V178.46H127.159V180.34H134.559ZM132.319 186C132.319 186.947 131.812 187.7 130.799 188.26C129.785 188.82 128.319 189.1 126.399 189.1C124.479 189.1 123.012 188.82 121.999 188.26C120.985 187.7 120.479 186.947 120.479 186C120.479 185.067 120.985 184.32 121.999 183.76C123.012 183.187 124.479 182.9 126.399 182.9C128.319 182.9 129.785 183.187 130.799 183.76C131.812 184.32 132.319 185.067 132.319 186ZM130.719 185.88C130.719 185.36 130.359 184.927 129.639 184.58C128.932 184.233 127.852 184.06 126.399 184.06C124.959 184.06 123.872 184.233 123.139 184.58C122.419 184.927 122.059 185.36 122.059 185.88V186.12C122.059 186.64 122.419 187.073 123.139 187.42C123.872 187.767 124.959 187.94 126.399 187.94C127.852 187.94 128.932 187.767 129.639 187.42C130.359 187.073 130.719 186.64 130.719 186.12V185.88ZM151.491 170.62V187.98H150.011V178.92H147.411V187.5H145.951V170.92H147.411V177.66H150.011V170.62H151.491ZM143.191 173.22H138.051V171.98H143.191V173.22ZM135.951 175.46H144.991V176.66H142.611V176.76C143.664 177.333 144.191 178.42 144.191 180.02C144.191 181.273 143.851 182.253 143.171 182.96C142.504 183.653 141.624 184 140.531 184C139.451 184 138.571 183.653 137.891 182.96C137.224 182.253 136.891 181.273 136.891 180.02C136.891 178.42 137.411 177.333 138.451 176.76V176.66H135.951V175.46ZM142.751 179.3C142.751 178.5 142.551 177.887 142.151 177.46C141.751 177.033 141.211 176.82 140.531 176.82C139.851 176.82 139.311 177.033 138.911 177.46C138.524 177.887 138.331 178.5 138.331 179.3V180.26C138.331 181.047 138.531 181.66 138.931 182.1C139.344 182.54 139.877 182.76 140.531 182.76C141.184 182.76 141.717 182.54 142.131 182.1C142.544 181.66 142.751 181.047 142.751 180.26V179.3ZM174.046 170.62V187.98H172.546V178.14H168.826C168.759 179.927 168.306 181.28 167.466 182.2C166.626 183.107 165.546 183.56 164.226 183.56C162.839 183.56 161.719 183.06 160.866 182.06C160.026 181.06 159.606 179.587 159.606 177.64C159.606 175.68 160.026 174.207 160.866 173.22C161.706 172.22 162.826 171.72 164.226 171.72C165.519 171.72 166.579 172.153 167.406 173.02C168.233 173.887 168.706 175.167 168.826 176.86H172.546V170.62H174.046ZM167.246 176.84C167.246 175.6 166.966 174.653 166.406 174C165.859 173.333 165.133 173 164.226 173C163.319 173 162.593 173.333 162.046 174C161.499 174.653 161.226 175.6 161.226 176.84V178.44C161.226 179.68 161.499 180.633 162.046 181.3C162.593 181.953 163.319 182.28 164.226 182.28C165.133 182.28 165.859 181.953 166.406 181.3C166.966 180.633 167.246 179.68 167.246 178.44V176.84ZM191.858 170.62V187.98H190.338V170.62H191.858ZM187.838 181.58L188.038 182.8C185.972 183.213 183.398 183.42 180.318 183.42H178.178V172.04H186.238V173.32H179.718V182.14H180.278C183.332 182.14 185.852 181.953 187.838 181.58ZM211.13 184.72V186H194.81V184.72H202.21V181.3H197.21V175.88H207.21V172.94H197.11V171.68H208.73V177.1H198.73V180.04H209.25V181.3H203.73V184.72H211.13ZM226.662 177.96H215.122V171.3H226.502V172.58H216.622V176.68H226.662V177.96ZM228.962 180.1V181.42H212.642V180.1H228.962ZM216.502 187.06H226.862V188.34H215.982C215.662 188.34 215.416 188.253 215.242 188.08C215.069 187.907 214.982 187.653 214.982 187.32V183.1H216.502V187.06ZM249.178 178.6H245.618V177.36H249.178V174.64H245.618V173.4H249.178V170.62H250.698V183.8H249.178V178.6ZM240.718 180.6C239.838 180.6 239.058 180.42 238.378 180.06C237.698 179.687 237.164 179.153 236.778 178.46C236.391 177.767 236.198 176.953 236.198 176.02C236.198 175.087 236.391 174.273 236.778 173.58C237.164 172.887 237.698 172.36 238.378 172C239.058 171.627 239.838 171.44 240.718 171.44C241.598 171.44 242.378 171.627 243.058 172C243.738 172.36 244.271 172.887 244.658 173.58C245.044 174.273 245.238 175.087 245.238 176.02C245.238 176.953 245.044 177.767 244.658 178.46C244.271 179.153 243.738 179.687 243.058 180.06C242.378 180.42 241.598 180.6 240.718 180.6ZM240.718 179.36C241.584 179.36 242.284 179.1 242.818 178.58C243.364 178.047 243.638 177.34 243.638 176.46V175.6C243.638 174.72 243.364 174.013 242.818 173.48C242.284 172.947 241.584 172.68 240.718 172.68C239.838 172.68 239.124 172.947 238.578 173.48C238.044 174.013 237.778 174.72 237.778 175.6V176.46C237.778 177.34 238.044 178.047 238.578 178.58C239.124 179.1 239.838 179.36 240.718 179.36ZM251.058 187.1V188.36H240.578C240.258 188.36 240.011 188.273 239.838 188.1C239.664 187.927 239.578 187.673 239.578 187.34V182.36H241.118V187.1H251.058ZM267.01 177.72H263.07V176.5H267.01V174.16H263.07V172.94H267.01V170.62H268.53V179.72H267.01V177.72ZM255.03 180.04L254.23 178.9C255.99 178.247 257.336 177.653 258.27 177.12C259.203 176.587 259.856 176.033 260.23 175.46C260.603 174.887 260.79 174.193 260.79 173.38V172.68H254.73V171.4H262.31V173.2C262.31 174.307 262.096 175.233 261.67 175.98C261.243 176.713 260.516 177.393 259.49 178.02C258.463 178.633 256.976 179.307 255.03 180.04ZM269.01 187.5V188.8H258.39C258.07 188.8 257.823 188.713 257.65 188.54C257.476 188.367 257.39 188.113 257.39 187.78V184.16H266.99V182.1H257.27V180.82H268.53V185.44H258.93V187.5H269.01ZM286.362 183.96H284.842V170.62H286.362V183.96ZM283.482 181.02C281.962 181.26 280.148 181.44 278.042 181.56C275.948 181.68 273.802 181.74 271.602 181.74L271.462 180.48C273.302 180.48 274.935 180.453 276.362 180.4V177.88H272.982V171.74H281.362V172.96H274.462V176.66H281.542V177.88H277.842V180.32C280.055 180.213 281.888 180.047 283.342 179.82L283.482 181.02ZM286.722 187.1V188.36H276.102C275.782 188.36 275.535 188.273 275.362 188.1C275.188 187.927 275.102 187.673 275.102 187.34V183.12H276.622V187.1H286.722ZM306.054 178.74H303.174V188.02H301.654V170.66H303.174V177.46H306.054V178.74ZM299.554 181.58L299.754 182.8C297.714 183.213 295.167 183.42 292.114 183.42H289.994V172.04H297.974V173.32H291.514V182.16H292.094C295.027 182.16 297.514 181.967 299.554 181.58ZM321.046 177.54H309.546V171.26H311.046V176.28H321.046V177.54ZM323.366 179.76V181.06H307.046V179.76H323.366ZM310.906 187.06H321.266V188.34H310.386C310.066 188.34 309.819 188.253 309.646 188.08C309.472 187.907 309.386 187.653 309.386 187.32V182.94H310.906V187.06ZM344.661 172.98H331.881V171.7H344.661V172.98ZM344.841 180.32H331.721V179.06H334.881L334.221 174.62L335.761 174.46L336.301 179.06H340.241L340.781 174.46L342.341 174.62L341.661 179.06H344.841V180.32ZM346.441 184.72V186H330.121V184.72H334.561V181.34H336.041V184.72H340.521V181.34H342.001V184.72H346.441ZM361.393 179.7H358.733V178.46H361.393V175.96H358.733V174.72H361.393V170.62H362.933V184H361.393V179.7ZM355.993 172.44H350.693V171.16H355.993V172.44ZM353.213 181.94C352.4 181.94 351.686 181.8 351.073 181.52C350.46 181.24 349.986 180.853 349.653 180.36C349.32 179.867 349.153 179.307 349.153 178.68C349.153 178.04 349.3 177.487 349.593 177.02C349.886 176.54 350.326 176.173 350.913 175.92V175.82H348.073V174.58H358.093V175.82H355.533V175.94C356.12 176.193 356.56 176.553 356.853 177.02C357.146 177.487 357.293 178.04 357.293 178.68C357.293 179.307 357.126 179.867 356.793 180.36C356.46 180.853 355.98 181.24 355.353 181.52C354.74 181.8 354.026 181.94 353.213 181.94ZM353.053 180.66H353.393C354.126 180.66 354.72 180.453 355.173 180.04C355.64 179.627 355.873 179.053 355.873 178.32C355.873 177.587 355.64 177.02 355.173 176.62C354.72 176.207 354.126 176 353.393 176H353.053C352.306 176 351.706 176.207 351.253 176.62C350.8 177.02 350.573 177.587 350.573 178.32C350.573 179.053 350.8 179.627 351.253 180.04C351.72 180.453 352.32 180.66 353.053 180.66ZM363.293 187.2V188.46H352.773C352.453 188.46 352.206 188.373 352.033 188.2C351.86 188.027 351.773 187.773 351.773 187.44V183.44H353.293V187.2H363.293ZM367.945 173.82C367.945 172.847 368.445 172.073 369.445 171.5C370.445 170.913 371.945 170.62 373.945 170.62C375.945 170.62 377.445 170.913 378.445 171.5C379.445 172.073 379.945 172.847 379.945 173.82C379.945 174.793 379.445 175.573 378.445 176.16C377.445 176.747 375.945 177.04 373.945 177.04C371.945 177.04 370.445 176.747 369.445 176.16C368.445 175.573 367.945 174.793 367.945 173.82ZM378.325 173.92V173.7C378.325 173.127 377.958 172.66 377.225 172.3C376.505 171.927 375.412 171.74 373.945 171.74C372.478 171.74 371.378 171.927 370.645 172.3C369.925 172.66 369.565 173.127 369.565 173.7V173.92C369.565 174.493 369.925 174.967 370.645 175.34C371.378 175.7 372.478 175.88 373.945 175.88C375.412 175.88 376.505 175.7 377.225 175.34C377.958 174.967 378.325 174.493 378.325 173.92ZM382.105 178.42V179.7H365.785V178.42H382.105ZM368.325 187.78V184.5H378.185V182.62H368.205V181.38H379.645V185.66H369.785V187.56H380.165V188.8H369.325C369.005 188.8 368.758 188.713 368.585 188.54C368.412 188.367 368.325 188.113 368.325 187.78ZM405.7 179.06H402.88V188.02H401.36V170.66H402.88V177.78H405.7V179.06ZM397.1 172.9H391.42V171.6H397.1V172.9ZM388.76 175.3H399.46V176.54H396.5V176.66C397.714 177.26 398.32 178.413 398.32 180.12C398.32 180.987 398.14 181.74 397.78 182.38C397.42 183.007 396.92 183.487 396.28 183.82C395.654 184.153 394.954 184.32 394.18 184.32C393.407 184.32 392.7 184.153 392.06 183.82C391.434 183.487 390.94 183.007 390.58 182.38C390.22 181.74 390.04 180.987 390.04 180.12C390.04 178.413 390.647 177.26 391.86 176.66V176.54H388.76V175.3ZM396.84 179.46C396.84 178.567 396.6 177.887 396.12 177.42C395.64 176.94 394.994 176.7 394.18 176.7C393.38 176.7 392.734 176.94 392.24 177.42C391.76 177.9 391.52 178.58 391.52 179.46V180.28C391.52 181.147 391.767 181.827 392.26 182.32C392.754 182.8 393.394 183.04 394.18 183.04C394.967 183.04 395.607 182.8 396.1 182.32C396.594 181.827 396.84 181.147 396.84 180.28V179.46ZM420.152 178.04H416.592V176.82H420.152V174.32H416.592V173.1H420.152V170.62H421.672V180.64H420.152V178.04ZM407.172 175.58C407.172 174.7 407.366 173.933 407.752 173.28C408.139 172.627 408.672 172.127 409.352 171.78C410.032 171.42 410.812 171.24 411.692 171.24C412.572 171.24 413.352 171.42 414.032 171.78C414.712 172.127 415.246 172.627 415.632 173.28C416.019 173.933 416.212 174.7 416.212 175.58C416.212 176.46 416.019 177.227 415.632 177.88C415.246 178.533 414.706 179.04 414.012 179.4C413.332 179.747 412.559 179.92 411.692 179.92C410.826 179.92 410.046 179.747 409.352 179.4C408.672 179.04 408.139 178.533 407.752 177.88C407.366 177.227 407.172 176.46 407.172 175.58ZM408.752 175.94C408.752 176.78 409.019 177.453 409.552 177.96C410.099 178.453 410.812 178.7 411.692 178.7C412.572 178.7 413.279 178.453 413.812 177.96C414.359 177.453 414.632 176.78 414.632 175.94V175.22C414.632 174.38 414.359 173.713 413.812 173.22C413.279 172.713 412.572 172.46 411.692 172.46C410.812 172.46 410.099 172.713 409.552 173.22C409.019 173.713 408.752 174.38 408.752 175.22V175.94ZM423.312 187.7L422.332 188.74L419.372 185.84C419.292 185.747 419.199 185.7 419.092 185.7C419.039 185.7 418.979 185.72 418.912 185.76C418.606 186.213 418.212 186.68 417.732 187.16C417.252 187.653 416.612 188.247 415.812 188.94L412.772 185.78C412.679 185.687 412.586 185.64 412.492 185.64C412.439 185.64 412.366 185.673 412.272 185.74C411.686 186.62 410.686 187.667 409.272 188.88L408.312 187.86C409.206 187.113 409.906 186.447 410.412 185.86C410.919 185.273 411.279 184.693 411.492 184.12C411.719 183.547 411.832 182.9 411.832 182.18V181.54H413.272V182.22C413.272 183.313 413.066 184.267 412.652 185.08L412.732 185.12L412.992 184.92C413.099 184.827 413.226 184.78 413.372 184.78C413.532 184.78 413.672 184.84 413.792 184.96L415.912 187.08C416.872 186.213 417.532 185.433 417.892 184.74C418.252 184.047 418.432 183.2 418.432 182.2V181.54H419.872V182.28C419.872 182.867 419.826 183.387 419.732 183.84C419.639 184.293 419.486 184.727 419.272 185.14L419.352 185.2L419.612 184.98C419.759 184.873 419.899 184.82 420.032 184.82C420.166 184.82 420.299 184.873 420.432 184.98L423.312 187.7ZM426.384 176.06C426.384 175.167 426.611 174.367 427.064 173.66C427.531 172.94 428.238 172.367 429.184 171.94C430.131 171.513 431.298 171.3 432.684 171.3C434.071 171.3 435.238 171.513 436.184 171.94C437.131 172.367 437.831 172.94 438.284 173.66C438.751 174.367 438.984 175.167 438.984 176.06C438.984 176.953 438.751 177.76 438.284 178.48C437.831 179.2 437.131 179.773 436.184 180.2C435.238 180.627 434.071 180.84 432.684 180.84C431.298 180.84 430.131 180.627 429.184 180.2C428.238 179.773 427.531 179.2 427.064 178.48C426.611 177.76 426.384 176.953 426.384 176.06ZM437.344 176.3V175.84C437.344 175.227 437.178 174.673 436.844 174.18C436.524 173.673 436.011 173.273 435.304 172.98C434.611 172.673 433.738 172.52 432.684 172.52C431.631 172.52 430.751 172.673 430.044 172.98C429.351 173.273 428.838 173.673 428.504 174.18C428.184 174.673 428.024 175.227 428.024 175.84V176.3C428.024 177.247 428.411 178.033 429.184 178.66C429.958 179.287 431.124 179.6 432.684 179.6C434.244 179.6 435.411 179.287 436.184 178.66C436.958 178.033 437.344 177.247 437.344 176.3ZM424.524 184.7H440.844V186H424.524V184.7ZM457.277 170.62V187.98H455.777V180.58H451.417V183.14H443.277V172H451.417V174.46H455.777V170.62H457.277ZM449.957 173.24H444.737V181.9H449.957V173.24ZM455.777 179.32V175.7H451.417V179.32H455.777ZM480.852 170.62V187.98H479.392V178.66H476.692V187.5H475.232V170.92H476.692V177.4H479.392V170.62H480.852ZM471.532 172.1H472.972V183.18H466.072V172.14H467.492V176.34H471.532V172.1ZM471.532 177.58H467.492V181.92H471.532V177.58ZM496.724 178.22H492.784V177H496.724V174.42H492.784V173.18H496.724V170.62H498.244V180.96H496.724V178.22ZM484.764 180.78L483.944 179.62C485.731 178.913 487.084 178.287 488.004 177.74C488.937 177.18 489.591 176.593 489.964 175.98C490.337 175.367 490.524 174.613 490.524 173.72V172.94H484.444V171.66H492.044V173.54C492.044 174.713 491.831 175.687 491.404 176.46C490.977 177.233 490.251 177.953 489.224 178.62C488.197 179.273 486.711 179.993 484.764 180.78ZM498.344 185.12C498.344 185.853 498.131 186.507 497.704 187.08C497.291 187.667 496.664 188.127 495.824 188.46C494.984 188.793 493.957 188.96 492.744 188.96C491.531 188.96 490.497 188.793 489.644 188.46C488.804 188.127 488.171 187.667 487.744 187.08C487.331 186.507 487.124 185.853 487.124 185.12C487.124 184.387 487.331 183.733 487.744 183.16C488.171 182.573 488.804 182.113 489.644 181.78C490.497 181.447 491.531 181.28 492.744 181.28C493.957 181.28 494.984 181.447 495.824 181.78C496.664 182.113 497.291 182.573 497.704 183.16C498.131 183.733 498.344 184.387 498.344 185.12ZM496.724 184.96C496.724 184.267 496.391 183.687 495.724 183.22C495.071 182.753 494.077 182.52 492.744 182.52C491.411 182.52 490.411 182.76 489.744 183.24C489.077 183.707 488.744 184.28 488.744 184.96V185.3C488.744 185.98 489.077 186.553 489.744 187.02C490.411 187.5 491.411 187.74 492.744 187.74C494.077 187.74 495.071 187.5 495.724 187.02C496.391 186.553 496.724 185.98 496.724 185.3V184.96ZM516.516 170.62V181.06H515.036V176.44H512.356V180.84H510.896V170.9H512.356V175.2H515.036V170.62H516.516ZM505.476 176.82C505.369 176.82 505.289 176.86 505.236 176.94C504.929 177.513 504.529 178.107 504.036 178.72C503.543 179.32 502.909 180.013 502.136 180.8L501.076 179.88C502.063 178.853 502.809 177.98 503.316 177.26C503.836 176.527 504.203 175.813 504.416 175.12C504.643 174.427 504.756 173.627 504.756 172.72V171.62H506.216V172.76C506.216 174.013 506.023 175.127 505.636 176.1L505.716 176.14L505.956 175.94C506.103 175.833 506.236 175.78 506.356 175.78C506.489 175.78 506.623 175.847 506.756 175.98L509.956 179.46L508.916 180.46L505.736 176.94C505.656 176.86 505.569 176.82 505.476 176.82ZM504.756 182.16H516.516V188.86H515.016V183.46H504.756V182.16ZM521.088 173.82C521.088 172.847 521.588 172.073 522.588 171.5C523.588 170.913 525.088 170.62 527.088 170.62C529.088 170.62 530.588 170.913 531.588 171.5C532.588 172.073 533.088 172.847 533.088 173.82C533.088 174.793 532.588 175.573 531.588 176.16C530.588 176.747 529.088 177.04 527.088 177.04C525.088 177.04 523.588 176.747 522.588 176.16C521.588 175.573 521.088 174.793 521.088 173.82ZM531.468 173.92V173.7C531.468 173.127 531.101 172.66 530.368 172.3C529.648 171.927 528.555 171.74 527.088 171.74C525.621 171.74 524.521 171.927 523.788 172.3C523.068 172.66 522.708 173.127 522.708 173.7V173.92C522.708 174.493 523.068 174.967 523.788 175.34C524.521 175.7 525.621 175.88 527.088 175.88C528.555 175.88 529.648 175.7 530.368 175.34C531.101 174.967 531.468 174.493 531.468 173.92ZM535.248 178.42V179.7H518.928V178.42H535.248ZM521.468 187.78V184.5H531.328V182.62H521.348V181.38H532.788V185.66H522.928V187.56H533.308V188.8H522.468C522.148 188.8 521.901 188.713 521.728 188.54C521.555 188.367 521.468 188.113 521.468 187.78ZM17.66 208.74H14.98V218.02H13.5V200.66H14.98V207.46H17.66V208.74ZM5.82 211.78L6 212.94C5.13333 213.22 3.94 213.36 2.42 213.36H1.2V202.14H5.58V203.38H2.66V212.12C3.92667 212.12 4.98 212.007 5.82 211.78ZM11.98 211.82L12.14 213C11.6867 213.12 11.1 213.22 10.38 213.3C9.67333 213.367 8.9 213.4 8.06 213.4H6.58V202.14H11.28V203.38H8.04V212.16H8.18C9.83333 212.16 11.1 212.047 11.98 211.82ZM34.912 214.72V216H18.592V214.72H25.992V211.3H20.992V205.88H30.992V202.94H20.892V201.68H32.512V207.1H22.512V210.04H33.032V211.3H27.512V214.72H34.912ZM56.1106 200.62V217.98H54.6106V200.62H56.1106ZM42.4306 210.14L41.4106 209.18C42.0906 208.367 42.6106 207.667 42.9706 207.08C43.344 206.48 43.6173 205.867 43.7906 205.24C43.964 204.6 44.0506 203.867 44.0506 203.04V201.82H45.5106V203.1C45.5106 204.167 45.344 205.16 45.0106 206.08L45.0906 206.14L45.2306 206.04C45.3506 205.96 45.464 205.92 45.5706 205.92C45.704 205.92 45.8306 205.987 45.9506 206.12L47.2106 207.82C47.8506 207.033 48.304 206.28 48.5706 205.56C48.8373 204.84 48.9706 203.98 48.9706 202.98V201.74H50.4506V203.08C50.4506 204.187 50.244 205.207 49.8306 206.14L49.9106 206.22L50.0906 206.08C50.1973 206.013 50.304 205.98 50.4106 205.98C50.5706 205.98 50.7106 206.047 50.8306 206.18L53.0306 209.04L51.9906 210L49.6906 206.86C49.664 206.82 49.624 206.8 49.5706 206.8C49.5306 206.787 49.504 206.8 49.4906 206.84C49.2506 207.32 48.9506 207.807 48.5906 208.3C48.2306 208.78 47.7706 209.34 47.2106 209.98L44.9106 206.8C44.844 206.707 44.7773 206.707 44.7106 206.8C44.4706 207.293 44.1706 207.8 43.8106 208.32C43.4506 208.84 42.9906 209.447 42.4306 210.14ZM53.2506 212.22L53.4106 213.46C51.8773 213.7 50.0373 213.88 47.8906 214C45.7573 214.12 43.564 214.18 41.3106 214.18L41.1906 212.9C43.4973 212.9 45.7173 212.847 47.8506 212.74C49.984 212.62 51.784 212.447 53.2506 212.22ZM61.1027 204.9C61.1027 204.127 61.3227 203.433 61.7627 202.82C62.2027 202.207 62.876 201.72 63.7827 201.36C64.6893 201 65.8093 200.82 67.1427 200.82C68.476 200.82 69.596 201 70.5027 201.36C71.4093 201.72 72.0827 202.207 72.5227 202.82C72.9627 203.433 73.1827 204.127 73.1827 204.9C73.1827 205.673 72.9627 206.373 72.5227 207C72.0827 207.613 71.4093 208.1 70.5027 208.46C69.596 208.82 68.476 209 67.1427 209C65.8093 209 64.6893 208.82 63.7827 208.46C62.876 208.1 62.2027 207.613 61.7627 207C61.3227 206.373 61.1027 205.673 61.1027 204.9ZM62.7427 205.1C62.7427 205.86 63.1093 206.493 63.8427 207C64.576 207.507 65.676 207.76 67.1427 207.76C68.6093 207.76 69.7093 207.507 70.4427 207C71.176 206.493 71.5427 205.86 71.5427 205.1V204.7C71.5427 203.94 71.176 203.307 70.4427 202.8C69.7093 202.28 68.6093 202.02 67.1427 202.02C65.6893 202.02 64.5893 202.28 63.8427 202.8C63.1093 203.307 62.7427 203.94 62.7427 204.7V205.1ZM75.3027 212.16H67.9027V218.68H66.3827V212.16H58.9827V210.88H75.3027V212.16ZM91.6947 200.62V217.98H90.1747V200.62H91.6947ZM83.3347 207.96C83.5214 207.96 83.6747 208.033 83.7947 208.18L87.7147 212.78L86.5747 213.76L82.6147 209C82.548 208.92 82.468 208.88 82.3747 208.88C82.2947 208.88 82.2214 208.92 82.1547 209C81.7947 209.733 81.3214 210.48 80.7347 211.24C80.148 212 79.348 212.933 78.3347 214.04L77.1947 213.08C78.3547 211.867 79.248 210.813 79.8747 209.92C80.5147 209.027 80.9747 208.14 81.2547 207.26C81.5347 206.367 81.6747 205.353 81.6747 204.22V203.46H77.7347V202.18H87.1147V203.46H83.1947V204.28C83.1947 205.787 82.9614 207.127 82.4947 208.3L82.5947 208.36L82.8947 208.12C83.0414 208.013 83.188 207.96 83.3347 207.96ZM116.233 204.56V205.84H113.453V209.66H111.933V200.62H113.453V204.56H116.233ZM104.073 209.66C103.193 209.66 102.407 209.487 101.713 209.14C101.033 208.793 100.5 208.3 100.113 207.66C99.7266 207.007 99.5333 206.253 99.5333 205.4C99.5333 204.547 99.7266 203.8 100.113 203.16C100.5 202.52 101.033 202.027 101.713 201.68C102.407 201.333 103.193 201.16 104.073 201.16C104.94 201.16 105.713 201.333 106.393 201.68C107.087 202.027 107.627 202.52 108.013 203.16C108.4 203.8 108.593 204.547 108.593 205.4C108.593 206.253 108.4 207.007 108.013 207.66C107.627 208.3 107.087 208.793 106.393 209.14C105.713 209.487 104.94 209.66 104.073 209.66ZM104.073 208.44C104.94 208.44 105.647 208.193 106.193 207.7C106.74 207.207 107.013 206.553 107.013 205.74V205.08C107.013 204.267 106.74 203.62 106.193 203.14C105.647 202.647 104.94 202.4 104.073 202.4C103.193 202.4 102.48 202.647 101.933 203.14C101.387 203.62 101.113 204.267 101.113 205.08V205.74C101.113 206.553 101.387 207.207 101.933 207.7C102.48 208.193 103.193 208.44 104.073 208.44ZM108.573 211.88V210.66H112.793V211.88H108.573ZM106.393 216.4L106.773 217.66C106.253 217.887 105.633 218.073 104.913 218.22C104.193 218.38 103.44 218.46 102.653 218.46H102.293C101.973 218.46 101.727 218.373 101.553 218.2C101.38 218.027 101.293 217.773 101.293 217.44V211.34H102.713V217.1H102.973C103.6 217.1 104.213 217.027 104.813 216.88C105.427 216.747 105.953 216.587 106.393 216.4ZM106.433 213.46H114.933V214.6H112.653V214.72C113.08 214.92 113.4 215.187 113.613 215.52C113.827 215.853 113.933 216.233 113.933 216.66C113.933 217.353 113.64 217.933 113.053 218.4C112.467 218.88 111.68 219.12 110.693 219.12C109.693 219.12 108.9 218.88 108.313 218.4C107.727 217.933 107.433 217.353 107.433 216.66C107.433 216.22 107.54 215.833 107.753 215.5C107.967 215.167 108.293 214.9 108.733 214.7V214.6H106.433V213.46ZM112.653 216.32C112.653 215.813 112.48 215.413 112.133 215.12C111.8 214.827 111.36 214.68 110.813 214.68H110.553C110.007 214.68 109.56 214.827 109.213 215.12C108.88 215.413 108.713 215.813 108.713 216.32C108.713 216.827 108.88 217.227 109.213 217.52C109.56 217.813 110.007 217.96 110.553 217.96H110.813C111.36 217.96 111.8 217.813 112.133 217.52C112.48 217.227 112.653 216.827 112.653 216.32ZM134.045 208.74H131.165V218.02H129.645V200.66H131.165V207.46H134.045V208.74ZM126.585 207.64C126.585 209.587 126.159 211.06 125.305 212.06C124.465 213.06 123.345 213.56 121.945 213.56C120.545 213.56 119.419 213.06 118.565 212.06C117.725 211.06 117.305 209.587 117.305 207.64C117.305 205.693 117.725 204.22 118.565 203.22C119.419 202.22 120.545 201.72 121.945 201.72C123.345 201.72 124.465 202.22 125.305 203.22C126.159 204.22 126.585 205.693 126.585 207.64ZM124.965 206.84C124.965 205.6 124.685 204.653 124.125 204C123.579 203.333 122.852 203 121.945 203C121.039 203 120.305 203.333 119.745 204C119.185 204.653 118.905 205.6 118.905 206.84V208.44C118.905 209.68 119.185 210.633 119.745 211.3C120.305 211.953 121.039 212.28 121.945 212.28C122.852 212.28 123.579 211.953 124.125 211.3C124.685 210.633 124.965 209.68 124.965 208.44V206.84ZM155.384 200.62V217.98H153.964V208.66H151.544V217.5H150.124V200.92H151.544V207.4H153.964V200.62H155.384ZM144.084 204.84C144.084 206.053 143.971 207.107 143.744 208C143.531 208.88 143.177 209.727 142.684 210.54C142.204 211.34 141.524 212.267 140.644 213.32L139.544 212.5C140.371 211.54 141.004 210.693 141.444 209.96C141.884 209.227 142.197 208.473 142.384 207.7C142.584 206.913 142.684 205.98 142.684 204.9V203.66H140.124V202.46H144.084V204.84ZM144.804 202.46H148.384V205.22C148.384 206.553 148.277 207.707 148.064 208.68C147.851 209.64 147.504 210.56 147.024 211.44C146.557 212.307 145.891 213.293 145.024 214.4L143.904 213.6C144.717 212.56 145.337 211.647 145.764 210.86C146.204 210.073 146.517 209.247 146.704 208.38C146.904 207.5 147.004 206.46 147.004 205.26V203.66H144.804V202.46ZM173.916 208.42V209.72H157.596V208.42H162.456C162.776 207.46 163.016 206.513 163.176 205.58C163.349 204.633 163.429 203.613 163.416 202.52V202.46H159.196V201.22H164.856V202.52C164.856 204.493 164.556 206.46 163.956 208.42H169.676C170.183 206.473 170.429 204.507 170.416 202.52V202.46H166.096V201.22H171.876V202.6C171.876 204.573 171.643 206.513 171.176 208.42H173.916ZM166.756 214.7C166.889 214.7 167.036 214.74 167.196 214.82L172.496 217.74L171.616 218.9L166.156 215.78C165.969 215.673 165.803 215.62 165.656 215.62C165.523 215.62 165.369 215.673 165.196 215.78L165.116 215.84C164.596 216.32 163.909 216.807 163.056 217.3C162.216 217.807 161.143 218.36 159.836 218.96L159.016 217.78C160.656 217.06 161.909 216.413 162.776 215.84C163.643 215.267 164.236 214.7 164.556 214.14C164.889 213.567 165.056 212.9 165.056 212.14V211.58H166.636V212.2C166.636 212.813 166.563 213.36 166.416 213.84C166.269 214.32 166.023 214.78 165.676 215.22L165.776 215.26L166.256 214.9C166.429 214.767 166.596 214.7 166.756 214.7ZM192.268 209.06H189.448V218.02H187.928V200.66H189.448V207.78H192.268V209.06ZM183.668 202.9H177.988V201.6H183.668V202.9ZM175.328 205.3H186.028V206.54H183.068V206.66C184.281 207.26 184.888 208.413 184.888 210.12C184.888 210.987 184.708 211.74 184.348 212.38C183.988 213.007 183.488 213.487 182.848 213.82C182.221 214.153 181.521 214.32 180.748 214.32C179.975 214.32 179.268 214.153 178.628 213.82C178.001 213.487 177.508 213.007 177.148 212.38C176.788 211.74 176.608 210.987 176.608 210.12C176.608 208.413 177.215 207.26 178.428 206.66V206.54H175.328V205.3ZM183.408 209.46C183.408 208.567 183.168 207.887 182.688 207.42C182.208 206.94 181.561 206.7 180.748 206.7C179.948 206.7 179.301 206.94 178.808 207.42C178.328 207.9 178.088 208.58 178.088 209.46V210.28C178.088 211.147 178.335 211.827 178.828 212.32C179.321 212.8 179.961 213.04 180.748 213.04C181.535 213.04 182.175 212.8 182.668 212.32C183.161 211.827 183.408 211.147 183.408 210.28V209.46ZM206.72 208.6H203.04V207.36H206.72V204.64H203.04V203.4H206.72V200.62H208.24V213.8H206.72V208.6ZM202.36 210.26H194.18V201.74H202.36V210.26ZM200.86 203H195.68V209H200.86V203ZM208.6 217.1V218.36H198.12C197.8 218.36 197.553 218.273 197.38 218.1C197.207 217.927 197.12 217.673 197.12 217.34V212.36H198.66V217.1H208.6ZM225.992 200.62V217.98H224.492V207.72H220.792V206.44H224.492V200.62H225.992ZM217.332 207.62C217.492 207.62 217.632 207.693 217.752 207.84L221.672 212.84L220.512 213.86L216.592 208.7C216.539 208.633 216.472 208.6 216.392 208.6C216.312 208.6 216.245 208.633 216.192 208.7C215.859 209.473 215.399 210.267 214.812 211.08C214.225 211.893 213.425 212.907 212.412 214.12L211.252 213.14C212.412 211.82 213.299 210.693 213.912 209.76C214.539 208.813 214.985 207.867 215.252 206.92C215.532 205.973 215.672 204.887 215.672 203.66V201.78H217.192V203.64C217.192 205.253 216.972 206.693 216.532 207.96L216.612 208.02L216.892 207.78C217.039 207.673 217.185 207.62 217.332 207.62ZM245.244 214.72V216H228.924V214.72H236.324V210.1H231.284V201.8H242.944V203.1H232.804V208.8H243.124V210.1H237.844V214.72H245.244ZM268.343 206.58H265.563V211.5H264.043V200.62H265.563V205.3H268.343V206.58ZM262.063 210.16C259.996 210.573 257.389 210.78 254.243 210.78H252.203V201.6H260.223V202.84H253.683V205.52H259.943V206.74H253.683V209.56H254.323C257.243 209.56 259.756 209.36 261.863 208.96L262.063 210.16ZM254.303 212.56H265.563V218.86H264.063V213.84H254.303V212.56ZM276.381 201.7H288.101V202.98H277.901V205.92H287.821V207.14H277.921V210.08H288.441V211.36H276.381V201.7ZM274.041 214.7H290.361V216H274.041V214.7ZM306.853 200.62V213.8H305.313V200.62H306.853ZM292.453 206.02C292.453 205.087 292.647 204.273 293.033 203.58C293.433 202.887 293.98 202.36 294.673 202C295.367 201.627 296.16 201.44 297.053 201.44C297.933 201.44 298.72 201.627 299.413 202C300.12 202.36 300.667 202.887 301.053 203.58C301.453 204.273 301.653 205.087 301.653 206.02C301.653 206.94 301.453 207.747 301.053 208.44C300.667 209.133 300.12 209.667 299.413 210.04C298.72 210.4 297.933 210.58 297.053 210.58C296.16 210.58 295.367 210.4 294.673 210.04C293.98 209.667 293.433 209.14 293.033 208.46C292.647 207.767 292.453 206.953 292.453 206.02ZM300.033 206.44V205.6C300.033 204.72 299.753 204.02 299.193 203.5C298.647 202.967 297.933 202.7 297.053 202.7C296.16 202.7 295.433 202.967 294.873 203.5C294.327 204.033 294.053 204.733 294.053 205.6V206.44C294.053 207.307 294.333 208.007 294.893 208.54C295.453 209.06 296.173 209.32 297.053 209.32C297.933 209.32 298.647 209.06 299.193 208.54C299.753 208.007 300.033 207.307 300.033 206.44ZM295.733 217.34V212.36H297.273V217.1H307.213V218.36H296.733C296.413 218.36 296.167 218.273 295.993 218.1C295.82 217.927 295.733 217.673 295.733 217.34ZM328.632 209.96H316.772V201.76H318.292V208.66H328.632V209.96ZM330.752 214.7V216H314.432V214.7H330.752ZM347.384 200.62V210.64H345.884V200.62H347.384ZM336.324 203.54V202.82H333.044V201.56H337.764V203.36C337.764 204.253 337.624 205.033 337.344 205.7C337.064 206.367 336.617 207 336.004 207.6C335.404 208.2 334.557 208.88 333.464 209.64L332.404 208.74C333.404 208.06 334.184 207.46 334.744 206.94C335.304 206.42 335.704 205.893 335.944 205.36C336.197 204.827 336.324 204.22 336.324 203.54ZM341.604 203.8V202.82H338.684V201.56H343.044V203.62C343.044 204.633 342.911 205.507 342.644 206.24C342.377 206.973 341.951 207.66 341.364 208.3C340.777 208.927 339.951 209.647 338.884 210.46L337.804 209.56C338.791 208.84 339.551 208.2 340.084 207.64C340.617 207.08 341.004 206.5 341.244 205.9C341.484 205.3 341.604 204.6 341.604 203.8ZM336.244 217.68V211.72H347.384V218.7H337.244C336.924 218.7 336.677 218.613 336.504 218.44C336.331 218.267 336.244 218.013 336.244 217.68ZM345.864 212.98H337.764V217.42H345.864V212.98ZM352.256 203.82C352.256 202.847 352.756 202.073 353.756 201.5C354.756 200.913 356.256 200.62 358.256 200.62C360.256 200.62 361.756 200.913 362.756 201.5C363.756 202.073 364.256 202.847 364.256 203.82C364.256 204.793 363.756 205.573 362.756 206.16C361.756 206.747 360.256 207.04 358.256 207.04C356.256 207.04 354.756 206.747 353.756 206.16C352.756 205.573 352.256 204.793 352.256 203.82ZM362.636 203.92V203.7C362.636 203.127 362.269 202.66 361.536 202.3C360.816 201.927 359.723 201.74 358.256 201.74C356.789 201.74 355.689 201.927 354.956 202.3C354.236 202.66 353.876 203.127 353.876 203.7V203.92C353.876 204.493 354.236 204.967 354.956 205.34C355.689 205.7 356.789 205.88 358.256 205.88C359.723 205.88 360.816 205.7 361.536 205.34C362.269 204.967 362.636 204.493 362.636 203.92ZM366.416 208.42V209.7H350.096V208.42H366.416ZM352.636 217.78V214.5H362.496V212.62H352.516V211.38H363.956V215.66H354.096V217.56H364.476V218.8H353.636C353.316 218.8 353.069 218.713 352.896 218.54C352.723 218.367 352.636 218.113 352.636 217.78ZM386.595 208.88H375.035V201.06H376.535V203.7H385.095V201.06H386.595V208.88ZM385.095 204.96H376.535V207.62H385.095V204.96ZM388.975 212.34H381.575V218.68H380.055V212.34H372.655V211.04H388.975V212.34ZM405.407 200.62V217.98H403.907V210.68H400.507V209.44H403.907V205.68H400.507V204.44H403.907V200.62H405.407ZM400.087 207.64C400.087 209.587 399.667 211.06 398.827 212.06C397.987 213.06 396.88 213.56 395.507 213.56C394.12 213.56 393.007 213.06 392.167 212.06C391.327 211.06 390.907 209.587 390.907 207.64C390.907 205.693 391.327 204.22 392.167 203.22C393.007 202.22 394.12 201.72 395.507 201.72C396.88 201.72 397.987 202.22 398.827 203.22C399.667 204.22 400.087 205.693 400.087 207.64ZM398.487 206.84C398.487 205.587 398.213 204.633 397.667 203.98C397.12 203.313 396.4 202.98 395.507 202.98C394.6 202.98 393.873 203.313 393.327 203.98C392.78 204.633 392.507 205.587 392.507 206.84V208.44C392.507 209.693 392.78 210.653 393.327 211.32C393.873 211.973 394.6 212.3 395.507 212.3C396.4 212.3 397.12 211.973 397.667 211.32C398.213 210.653 398.487 209.693 398.487 208.44V206.84Z" fill="black"/>
</svg>
