<svg width="311" height="898" viewBox="0 0 311 898" fill="none" xmlns="http://www.w3.org/2000/svg">
<path d="M49.9925 573.251C-9.43991 633.514 -21.5238 736.721 -20.1366 780.792L-217.843 897.637C-188.137 803.766 -137.746 684.204 -5.07009 590.081C127.606 495.958 99.4379 391.401 40.5188 280.328C-6.61645 191.47 -16.7695 118.912 -15.954 93.7404C-11.9529 89.1313 -2.03182 80.1255 5.64418 80.9758C-21.0448 168.574 25.2994 224.232 60.4557 268.545C196.302 414.956 124.283 497.921 49.9925 573.251Z" fill="#417D7A"/>
<path d="M-102.028 502.899C-163.554 612.091 -151.913 684.161 -138.402 706.547L-68.2298 761.637C-66.9551 717.206 -64.4451 609.132 -64.6025 532.28C-64.7993 436.215 123.629 298.936 96.138 199.111C74.1455 119.251 20.9768 55.1313 -2.85852 33.0537L-44.9617 -1.78141e-05C-30.0413 30.2225 2.86944 109.231 15.1487 183.484C30.4978 276.301 -25.1191 366.408 -102.028 502.899Z" fill="#EDE6DB"/>
</svg>
