<svg width="648" height="648" viewBox="0 0 648 648" fill="none" xmlns="http://www.w3.org/2000/svg">
<path d="M553 324C553 363.791 542.632 402.896 522.917 437.46C503.202 472.024 474.821 500.854 440.57 521.11C406.32 541.365 367.383 552.347 327.597 552.972C287.811 553.597 248.548 543.844 213.678 524.674L324 324H553Z" fill="#1D5C63"/>
<path d="M213.618 524.641C179.573 505.911 150.853 478.826 130.163 445.934C109.472 413.043 97.4916 375.428 95.3485 336.63C93.2055 297.831 100.97 259.125 117.912 224.155C134.854 189.186 160.416 159.102 192.192 136.736L324 324L213.618 524.641Z" fill="#1A3C40"/>
<path d="M493.874 170.43C531.966 212.566 553.038 267.354 553 324.155L324 324L493.874 170.43Z" fill="#417D7A"/>
<path d="M207.499 126.849C252.927 100.004 306.232 89.6719 358.4 97.5986C410.568 105.525 458.399 131.225 493.803 170.351L324 324L207.499 126.849Z" fill="#EDE6DB"/>
<path d="M285.995 173H279.125V171.71L282.545 168.56C283.035 168.11 283.445 167.635 283.775 167.135C284.105 166.625 284.27 166.115 284.27 165.605V165.425C284.27 164.845 284.11 164.375 283.79 164.015C283.47 163.655 282.985 163.475 282.335 163.475C282.015 163.475 281.735 163.52 281.495 163.61C281.255 163.7 281.045 163.825 280.865 163.985C280.695 164.145 280.55 164.335 280.43 164.555C280.32 164.765 280.23 164.995 280.16 165.245L279.035 164.81C279.135 164.5 279.27 164.2 279.44 163.91C279.62 163.61 279.84 163.345 280.1 163.115C280.37 162.885 280.69 162.7 281.06 162.56C281.44 162.42 281.885 162.35 282.395 162.35C282.905 162.35 283.36 162.425 283.76 162.575C284.16 162.725 284.495 162.935 284.765 163.205C285.035 163.475 285.24 163.795 285.38 164.165C285.53 164.535 285.605 164.945 285.605 165.395C285.605 165.805 285.545 166.185 285.425 166.535C285.315 166.885 285.16 167.22 284.96 167.54C284.76 167.85 284.515 168.155 284.225 168.455C283.945 168.755 283.64 169.055 283.31 169.355L280.49 171.89H285.995V173ZM294.989 173H288.119V171.71L291.539 168.56C292.029 168.11 292.439 167.635 292.769 167.135C293.099 166.625 293.264 166.115 293.264 165.605V165.425C293.264 164.845 293.104 164.375 292.784 164.015C292.464 163.655 291.979 163.475 291.329 163.475C291.009 163.475 290.729 163.52 290.489 163.61C290.249 163.7 290.039 163.825 289.859 163.985C289.689 164.145 289.544 164.335 289.424 164.555C289.314 164.765 289.224 164.995 289.154 165.245L288.029 164.81C288.129 164.5 288.264 164.2 288.434 163.91C288.614 163.61 288.834 163.345 289.094 163.115C289.364 162.885 289.684 162.7 290.054 162.56C290.434 162.42 290.879 162.35 291.389 162.35C291.899 162.35 292.354 162.425 292.754 162.575C293.154 162.725 293.489 162.935 293.759 163.205C294.029 163.475 294.234 163.795 294.374 164.165C294.524 164.535 294.599 164.945 294.599 165.395C294.599 165.805 294.539 166.185 294.419 166.535C294.309 166.885 294.154 167.22 293.954 167.54C293.754 167.85 293.509 168.155 293.219 168.455C292.939 168.755 292.634 169.055 292.304 169.355L289.484 171.89H294.989V173ZM298.028 173.18C297.708 173.18 297.473 173.1 297.323 172.94C297.183 172.78 297.113 172.57 297.113 172.31V172.115C297.113 171.855 297.183 171.645 297.323 171.485C297.473 171.325 297.708 171.245 298.028 171.245C298.348 171.245 298.578 171.325 298.718 171.485C298.868 171.645 298.943 171.855 298.943 172.115V172.31C298.943 172.57 298.868 172.78 298.718 172.94C298.578 173.1 298.348 173.18 298.028 173.18ZM304.575 173.18C303.325 173.18 302.41 172.705 301.83 171.755C301.26 170.805 300.975 169.475 300.975 167.765C300.975 166.055 301.26 164.725 301.83 163.775C302.41 162.825 303.325 162.35 304.575 162.35C305.825 162.35 306.735 162.825 307.305 163.775C307.885 164.725 308.175 166.055 308.175 167.765C308.175 169.475 307.885 170.805 307.305 171.755C306.735 172.705 305.825 173.18 304.575 173.18ZM304.575 172.085C304.985 172.085 305.335 172 305.625 171.83C305.915 171.66 306.15 171.42 306.33 171.11C306.51 170.8 306.64 170.435 306.72 170.015C306.81 169.595 306.855 169.13 306.855 168.62V166.91C306.855 166.4 306.81 165.935 306.72 165.515C306.64 165.095 306.51 164.73 306.33 164.42C306.15 164.11 305.915 163.87 305.625 163.7C305.335 163.53 304.985 163.445 304.575 163.445C304.165 163.445 303.815 163.53 303.525 163.7C303.235 163.87 303 164.11 302.82 164.42C302.64 164.73 302.505 165.095 302.415 165.515C302.335 165.935 302.295 166.4 302.295 166.91V168.62C302.295 169.13 302.335 169.595 302.415 170.015C302.505 170.435 302.64 170.8 302.82 171.11C303 171.42 303.235 171.66 303.525 171.83C303.815 172 304.165 172.085 304.575 172.085ZM316.539 163.64H311.949L311.649 167.63H311.754C312.004 167.28 312.284 167 312.594 166.79C312.914 166.58 313.349 166.475 313.899 166.475C314.349 166.475 314.764 166.55 315.144 166.7C315.524 166.85 315.854 167.065 316.134 167.345C316.414 167.615 316.629 167.95 316.779 168.35C316.939 168.75 317.019 169.205 317.019 169.715C317.019 170.225 316.939 170.695 316.779 171.125C316.619 171.545 316.384 171.91 316.074 172.22C315.774 172.52 315.404 172.755 314.964 172.925C314.534 173.095 314.044 173.18 313.494 173.18C313.054 173.18 312.664 173.13 312.324 173.03C311.994 172.93 311.699 172.795 311.439 172.625C311.179 172.455 310.949 172.265 310.749 172.055C310.559 171.845 310.384 171.625 310.224 171.395L311.169 170.675C311.299 170.885 311.434 171.075 311.574 171.245C311.724 171.415 311.884 171.56 312.054 171.68C312.234 171.8 312.439 171.895 312.669 171.965C312.899 172.025 313.174 172.055 313.494 172.055C314.214 172.055 314.759 171.865 315.129 171.485C315.499 171.105 315.684 170.57 315.684 169.88V169.73C315.684 169.04 315.499 168.505 315.129 168.125C314.759 167.745 314.214 167.555 313.494 167.555C313.014 167.555 312.634 167.645 312.354 167.825C312.084 167.995 311.839 168.2 311.619 168.44L310.554 168.29L310.929 162.53H316.539V163.64ZM320.103 173.18C319.783 173.18 319.548 173.1 319.398 172.94C319.258 172.78 319.188 172.57 319.188 172.31V172.115C319.188 171.855 319.258 171.645 319.398 171.485C319.548 171.325 319.783 171.245 320.103 171.245C320.423 171.245 320.653 171.325 320.793 171.485C320.943 171.645 321.018 171.855 321.018 172.115V172.31C321.018 172.57 320.943 172.78 320.793 172.94C320.653 173.1 320.423 173.18 320.103 173.18ZM326.65 173.18C325.4 173.18 324.485 172.705 323.905 171.755C323.335 170.805 323.05 169.475 323.05 167.765C323.05 166.055 323.335 164.725 323.905 163.775C324.485 162.825 325.4 162.35 326.65 162.35C327.9 162.35 328.81 162.825 329.38 163.775C329.96 164.725 330.25 166.055 330.25 167.765C330.25 169.475 329.96 170.805 329.38 171.755C328.81 172.705 327.9 173.18 326.65 173.18ZM326.65 172.085C327.06 172.085 327.41 172 327.7 171.83C327.99 171.66 328.225 171.42 328.405 171.11C328.585 170.8 328.715 170.435 328.795 170.015C328.885 169.595 328.93 169.13 328.93 168.62V166.91C328.93 166.4 328.885 165.935 328.795 165.515C328.715 165.095 328.585 164.73 328.405 164.42C328.225 164.11 327.99 163.87 327.7 163.7C327.41 163.53 327.06 163.445 326.65 163.445C326.24 163.445 325.89 163.53 325.6 163.7C325.31 163.87 325.075 164.11 324.895 164.42C324.715 164.73 324.58 165.095 324.49 165.515C324.41 165.935 324.37 166.4 324.37 166.91V168.62C324.37 169.13 324.41 169.595 324.49 170.015C324.58 170.435 324.715 170.8 324.895 171.11C325.075 171.42 325.31 171.66 325.6 171.83C325.89 172 326.24 172.085 326.65 172.085ZM332.465 173V171.89H335.39V163.46H335.285L332.645 165.92L331.91 165.125L334.685 162.53H336.65V171.89H339.35V173H332.465ZM342.179 173.18C341.859 173.18 341.624 173.1 341.474 172.94C341.334 172.78 341.264 172.57 341.264 172.31V172.115C341.264 171.855 341.334 171.645 341.474 171.485C341.624 171.325 341.859 171.245 342.179 171.245C342.499 171.245 342.729 171.325 342.869 171.485C343.019 171.645 343.094 171.855 343.094 172.115V172.31C343.094 172.57 343.019 172.78 342.869 172.94C342.729 173.1 342.499 173.18 342.179 173.18ZM345.261 169.085V167.795H349.176V169.085H345.261ZM358.212 173H351.342V171.71L354.762 168.56C355.252 168.11 355.662 167.635 355.992 167.135C356.322 166.625 356.487 166.115 356.487 165.605V165.425C356.487 164.845 356.327 164.375 356.007 164.015C355.687 163.655 355.202 163.475 354.552 163.475C354.232 163.475 353.952 163.52 353.712 163.61C353.472 163.7 353.262 163.825 353.082 163.985C352.912 164.145 352.767 164.335 352.647 164.555C352.537 164.765 352.447 164.995 352.377 165.245L351.252 164.81C351.352 164.5 351.487 164.2 351.657 163.91C351.837 163.61 352.057 163.345 352.317 163.115C352.587 162.885 352.907 162.7 353.277 162.56C353.657 162.42 354.102 162.35 354.612 162.35C355.122 162.35 355.577 162.425 355.977 162.575C356.377 162.725 356.712 162.935 356.982 163.205C357.252 163.475 357.457 163.795 357.597 164.165C357.747 164.535 357.822 164.945 357.822 165.395C357.822 165.805 357.762 166.185 357.642 166.535C357.532 166.885 357.377 167.22 357.177 167.54C356.977 167.85 356.732 168.155 356.442 168.455C356.162 168.755 355.857 169.055 355.527 169.355L352.707 171.89H358.212V173ZM367.206 173H360.336V171.71L363.756 168.56C364.246 168.11 364.656 167.635 364.986 167.135C365.316 166.625 365.481 166.115 365.481 165.605V165.425C365.481 164.845 365.321 164.375 365.001 164.015C364.681 163.655 364.196 163.475 363.546 163.475C363.226 163.475 362.946 163.52 362.706 163.61C362.466 163.7 362.256 163.825 362.076 163.985C361.906 164.145 361.761 164.335 361.641 164.555C361.531 164.765 361.441 164.995 361.371 165.245L360.246 164.81C360.346 164.5 360.481 164.2 360.651 163.91C360.831 163.61 361.051 163.345 361.311 163.115C361.581 162.885 361.901 162.7 362.271 162.56C362.651 162.42 363.096 162.35 363.606 162.35C364.116 162.35 364.571 162.425 364.971 162.575C365.371 162.725 365.706 162.935 365.976 163.205C366.246 163.475 366.451 163.795 366.591 164.165C366.741 164.535 366.816 164.945 366.816 165.395C366.816 165.805 366.756 166.185 366.636 166.535C366.526 166.885 366.371 167.22 366.171 167.54C365.971 167.85 365.726 168.155 365.436 168.455C365.156 168.755 364.851 169.055 364.521 169.355L361.701 171.89H367.206V173ZM370.245 173.18C369.925 173.18 369.69 173.1 369.54 172.94C369.4 172.78 369.33 172.57 369.33 172.31V172.115C369.33 171.855 369.4 171.645 369.54 171.485C369.69 171.325 369.925 171.245 370.245 171.245C370.565 171.245 370.795 171.325 370.935 171.485C371.085 171.645 371.16 171.855 371.16 172.115V172.31C371.16 172.57 371.085 172.78 370.935 172.94C370.795 173.1 370.565 173.18 370.245 173.18ZM376.792 173.18C375.542 173.18 374.627 172.705 374.047 171.755C373.477 170.805 373.192 169.475 373.192 167.765C373.192 166.055 373.477 164.725 374.047 163.775C374.627 162.825 375.542 162.35 376.792 162.35C378.042 162.35 378.952 162.825 379.522 163.775C380.102 164.725 380.392 166.055 380.392 167.765C380.392 169.475 380.102 170.805 379.522 171.755C378.952 172.705 378.042 173.18 376.792 173.18ZM376.792 172.085C377.202 172.085 377.552 172 377.842 171.83C378.132 171.66 378.367 171.42 378.547 171.11C378.727 170.8 378.857 170.435 378.937 170.015C379.027 169.595 379.072 169.13 379.072 168.62V166.91C379.072 166.4 379.027 165.935 378.937 165.515C378.857 165.095 378.727 164.73 378.547 164.42C378.367 164.11 378.132 163.87 377.842 163.7C377.552 163.53 377.202 163.445 376.792 163.445C376.382 163.445 376.032 163.53 375.742 163.7C375.452 163.87 375.217 164.11 375.037 164.42C374.857 164.73 374.722 165.095 374.632 165.515C374.552 165.935 374.512 166.4 374.512 166.91V168.62C374.512 169.13 374.552 169.595 374.632 170.015C374.722 170.435 374.857 170.8 375.037 171.11C375.217 171.42 375.452 171.66 375.742 171.83C376.032 172 376.382 172.085 376.792 172.085ZM388.756 163.64H384.166L383.866 167.63H383.971C384.221 167.28 384.501 167 384.811 166.79C385.131 166.58 385.566 166.475 386.116 166.475C386.566 166.475 386.981 166.55 387.361 166.7C387.741 166.85 388.071 167.065 388.351 167.345C388.631 167.615 388.846 167.95 388.996 168.35C389.156 168.75 389.236 169.205 389.236 169.715C389.236 170.225 389.156 170.695 388.996 171.125C388.836 171.545 388.601 171.91 388.291 172.22C387.991 172.52 387.621 172.755 387.181 172.925C386.751 173.095 386.261 173.18 385.711 173.18C385.271 173.18 384.881 173.13 384.541 173.03C384.211 172.93 383.916 172.795 383.656 172.625C383.396 172.455 383.166 172.265 382.966 172.055C382.776 171.845 382.601 171.625 382.441 171.395L383.386 170.675C383.516 170.885 383.651 171.075 383.791 171.245C383.941 171.415 384.101 171.56 384.271 171.68C384.451 171.8 384.656 171.895 384.886 171.965C385.116 172.025 385.391 172.055 385.711 172.055C386.431 172.055 386.976 171.865 387.346 171.485C387.716 171.105 387.901 170.57 387.901 169.88V169.73C387.901 169.04 387.716 168.505 387.346 168.125C386.976 167.745 386.431 167.555 385.711 167.555C385.231 167.555 384.851 167.645 384.571 167.825C384.301 167.995 384.056 168.2 383.836 168.44L382.771 168.29L383.146 162.53H388.756V163.64ZM392.32 173.18C392 173.18 391.765 173.1 391.615 172.94C391.475 172.78 391.405 172.57 391.405 172.31V172.115C391.405 171.855 391.475 171.645 391.615 171.485C391.765 171.325 392 171.245 392.32 171.245C392.64 171.245 392.87 171.325 393.01 171.485C393.16 171.645 393.235 171.855 393.235 172.115V172.31C393.235 172.57 393.16 172.78 393.01 172.94C392.87 173.1 392.64 173.18 392.32 173.18ZM398.867 173.18C397.617 173.18 396.702 172.705 396.122 171.755C395.552 170.805 395.267 169.475 395.267 167.765C395.267 166.055 395.552 164.725 396.122 163.775C396.702 162.825 397.617 162.35 398.867 162.35C400.117 162.35 401.027 162.825 401.597 163.775C402.177 164.725 402.467 166.055 402.467 167.765C402.467 169.475 402.177 170.805 401.597 171.755C401.027 172.705 400.117 173.18 398.867 173.18ZM398.867 172.085C399.277 172.085 399.627 172 399.917 171.83C400.207 171.66 400.442 171.42 400.622 171.11C400.802 170.8 400.932 170.435 401.012 170.015C401.102 169.595 401.147 169.13 401.147 168.62V166.91C401.147 166.4 401.102 165.935 401.012 165.515C400.932 165.095 400.802 164.73 400.622 164.42C400.442 164.11 400.207 163.87 399.917 163.7C399.627 163.53 399.277 163.445 398.867 163.445C398.457 163.445 398.107 163.53 397.817 163.7C397.527 163.87 397.292 164.11 397.112 164.42C396.932 164.73 396.797 165.095 396.707 165.515C396.627 165.935 396.587 166.4 396.587 166.91V168.62C396.587 169.13 396.627 169.595 396.707 170.015C396.797 170.435 396.932 170.8 397.112 171.11C397.292 171.42 397.527 171.66 397.817 171.83C398.107 172 398.457 172.085 398.867 172.085ZM407.276 166.97C407.986 166.97 408.516 166.81 408.866 166.49C409.226 166.16 409.406 165.74 409.406 165.23V165.125C409.406 164.575 409.231 164.165 408.881 163.895C408.541 163.615 408.091 163.475 407.531 163.475C406.991 163.475 406.551 163.595 406.211 163.835C405.871 164.065 405.591 164.38 405.371 164.78L404.441 164.06C404.571 163.85 404.726 163.645 404.906 163.445C405.096 163.235 405.316 163.05 405.566 162.89C405.816 162.73 406.106 162.6 406.436 162.5C406.766 162.4 407.141 162.35 407.561 162.35C408.001 162.35 408.416 162.41 408.806 162.53C409.196 162.64 409.531 162.81 409.811 163.04C410.101 163.26 410.326 163.535 410.486 163.865C410.656 164.195 410.741 164.57 410.741 164.99C410.741 165.33 410.686 165.635 410.576 165.905C410.476 166.175 410.336 166.41 410.156 166.61C409.976 166.81 409.761 166.98 409.511 167.12C409.271 167.26 409.011 167.365 408.731 167.435V167.495C409.011 167.555 409.281 167.655 409.541 167.795C409.811 167.925 410.046 168.1 410.246 168.32C410.456 168.53 410.621 168.79 410.741 169.1C410.871 169.4 410.936 169.745 410.936 170.135C410.936 170.585 410.851 171 410.681 171.38C410.511 171.75 410.271 172.07 409.961 172.34C409.651 172.6 409.276 172.805 408.836 172.955C408.396 173.105 407.911 173.18 407.381 173.18C406.931 173.18 406.531 173.13 406.181 173.03C405.831 172.93 405.521 172.795 405.251 172.625C404.981 172.455 404.741 172.265 404.531 172.055C404.331 171.845 404.151 171.625 403.991 171.395L404.936 170.675C405.066 170.885 405.206 171.075 405.356 171.245C405.516 171.415 405.691 171.56 405.881 171.68C406.071 171.8 406.286 171.895 406.526 171.965C406.766 172.025 407.046 172.055 407.366 172.055C408.106 172.055 408.666 171.89 409.046 171.56C409.426 171.22 409.616 170.74 409.616 170.12V170C409.616 169.38 409.426 168.905 409.046 168.575C408.666 168.235 408.106 168.065 407.366 168.065H406.136V166.97H407.276ZM414.395 173.18C414.075 173.18 413.84 173.1 413.69 172.94C413.55 172.78 413.48 172.57 413.48 172.31V172.115C413.48 171.855 413.55 171.645 413.69 171.485C413.84 171.325 414.075 171.245 414.395 171.245C414.715 171.245 414.945 171.325 415.085 171.485C415.235 171.645 415.31 171.855 415.31 172.115V172.31C415.31 172.57 415.235 172.78 415.085 172.94C414.945 173.1 414.715 173.18 414.395 173.18Z" fill="#333333"/>
<path d="M404.995 280H398.125V278.71L401.545 275.56C402.035 275.11 402.445 274.635 402.775 274.135C403.105 273.625 403.27 273.115 403.27 272.605V272.425C403.27 271.845 403.11 271.375 402.79 271.015C402.47 270.655 401.985 270.475 401.335 270.475C401.015 270.475 400.735 270.52 400.495 270.61C400.255 270.7 400.045 270.825 399.865 270.985C399.695 271.145 399.55 271.335 399.43 271.555C399.32 271.765 399.23 271.995 399.16 272.245L398.035 271.81C398.135 271.5 398.27 271.2 398.44 270.91C398.62 270.61 398.84 270.345 399.1 270.115C399.37 269.885 399.69 269.7 400.06 269.56C400.44 269.42 400.885 269.35 401.395 269.35C401.905 269.35 402.36 269.425 402.76 269.575C403.16 269.725 403.495 269.935 403.765 270.205C404.035 270.475 404.24 270.795 404.38 271.165C404.53 271.535 404.605 271.945 404.605 272.395C404.605 272.805 404.545 273.185 404.425 273.535C404.315 273.885 404.16 274.22 403.96 274.54C403.76 274.85 403.515 275.155 403.225 275.455C402.945 275.755 402.64 276.055 402.31 276.355L399.49 278.89H404.995V280ZM413.989 280H407.119V278.71L410.539 275.56C411.029 275.11 411.439 274.635 411.769 274.135C412.099 273.625 412.264 273.115 412.264 272.605V272.425C412.264 271.845 412.104 271.375 411.784 271.015C411.464 270.655 410.979 270.475 410.329 270.475C410.009 270.475 409.729 270.52 409.489 270.61C409.249 270.7 409.039 270.825 408.859 270.985C408.689 271.145 408.544 271.335 408.424 271.555C408.314 271.765 408.224 271.995 408.154 272.245L407.029 271.81C407.129 271.5 407.264 271.2 407.434 270.91C407.614 270.61 407.834 270.345 408.094 270.115C408.364 269.885 408.684 269.7 409.054 269.56C409.434 269.42 409.879 269.35 410.389 269.35C410.899 269.35 411.354 269.425 411.754 269.575C412.154 269.725 412.489 269.935 412.759 270.205C413.029 270.475 413.234 270.795 413.374 271.165C413.524 271.535 413.599 271.945 413.599 272.395C413.599 272.805 413.539 273.185 413.419 273.535C413.309 273.885 413.154 274.22 412.954 274.54C412.754 274.85 412.509 275.155 412.219 275.455C411.939 275.755 411.634 276.055 411.304 276.355L408.484 278.89H413.989V280ZM417.028 280.18C416.708 280.18 416.473 280.1 416.323 279.94C416.183 279.78 416.113 279.57 416.113 279.31V279.115C416.113 278.855 416.183 278.645 416.323 278.485C416.473 278.325 416.708 278.245 417.028 278.245C417.348 278.245 417.578 278.325 417.718 278.485C417.868 278.645 417.943 278.855 417.943 279.115V279.31C417.943 279.57 417.868 279.78 417.718 279.94C417.578 280.1 417.348 280.18 417.028 280.18ZM423.575 280.18C422.325 280.18 421.41 279.705 420.83 278.755C420.26 277.805 419.975 276.475 419.975 274.765C419.975 273.055 420.26 271.725 420.83 270.775C421.41 269.825 422.325 269.35 423.575 269.35C424.825 269.35 425.735 269.825 426.305 270.775C426.885 271.725 427.175 273.055 427.175 274.765C427.175 276.475 426.885 277.805 426.305 278.755C425.735 279.705 424.825 280.18 423.575 280.18ZM423.575 279.085C423.985 279.085 424.335 279 424.625 278.83C424.915 278.66 425.15 278.42 425.33 278.11C425.51 277.8 425.64 277.435 425.72 277.015C425.81 276.595 425.855 276.13 425.855 275.62V273.91C425.855 273.4 425.81 272.935 425.72 272.515C425.64 272.095 425.51 271.73 425.33 271.42C425.15 271.11 424.915 270.87 424.625 270.7C424.335 270.53 423.985 270.445 423.575 270.445C423.165 270.445 422.815 270.53 422.525 270.7C422.235 270.87 422 271.11 421.82 271.42C421.64 271.73 421.505 272.095 421.415 272.515C421.335 272.935 421.295 273.4 421.295 273.91V275.62C421.295 276.13 421.335 276.595 421.415 277.015C421.505 277.435 421.64 277.8 421.82 278.11C422 278.42 422.235 278.66 422.525 278.83C422.815 279 423.165 279.085 423.575 279.085ZM435.539 270.64H430.949L430.649 274.63H430.754C431.004 274.28 431.284 274 431.594 273.79C431.914 273.58 432.349 273.475 432.899 273.475C433.349 273.475 433.764 273.55 434.144 273.7C434.524 273.85 434.854 274.065 435.134 274.345C435.414 274.615 435.629 274.95 435.779 275.35C435.939 275.75 436.019 276.205 436.019 276.715C436.019 277.225 435.939 277.695 435.779 278.125C435.619 278.545 435.384 278.91 435.074 279.22C434.774 279.52 434.404 279.755 433.964 279.925C433.534 280.095 433.044 280.18 432.494 280.18C432.054 280.18 431.664 280.13 431.324 280.03C430.994 279.93 430.699 279.795 430.439 279.625C430.179 279.455 429.949 279.265 429.749 279.055C429.559 278.845 429.384 278.625 429.224 278.395L430.169 277.675C430.299 277.885 430.434 278.075 430.574 278.245C430.724 278.415 430.884 278.56 431.054 278.68C431.234 278.8 431.439 278.895 431.669 278.965C431.899 279.025 432.174 279.055 432.494 279.055C433.214 279.055 433.759 278.865 434.129 278.485C434.499 278.105 434.684 277.57 434.684 276.88V276.73C434.684 276.04 434.499 275.505 434.129 275.125C433.759 274.745 433.214 274.555 432.494 274.555C432.014 274.555 431.634 274.645 431.354 274.825C431.084 274.995 430.839 275.2 430.619 275.44L429.554 275.29L429.929 269.53H435.539V270.64ZM439.103 280.18C438.783 280.18 438.548 280.1 438.398 279.94C438.258 279.78 438.188 279.57 438.188 279.31V279.115C438.188 278.855 438.258 278.645 438.398 278.485C438.548 278.325 438.783 278.245 439.103 278.245C439.423 278.245 439.653 278.325 439.793 278.485C439.943 278.645 440.018 278.855 440.018 279.115V279.31C440.018 279.57 439.943 279.78 439.793 279.94C439.653 280.1 439.423 280.18 439.103 280.18ZM445.65 280.18C444.4 280.18 443.485 279.705 442.905 278.755C442.335 277.805 442.05 276.475 442.05 274.765C442.05 273.055 442.335 271.725 442.905 270.775C443.485 269.825 444.4 269.35 445.65 269.35C446.9 269.35 447.81 269.825 448.38 270.775C448.96 271.725 449.25 273.055 449.25 274.765C449.25 276.475 448.96 277.805 448.38 278.755C447.81 279.705 446.9 280.18 445.65 280.18ZM445.65 279.085C446.06 279.085 446.41 279 446.7 278.83C446.99 278.66 447.225 278.42 447.405 278.11C447.585 277.8 447.715 277.435 447.795 277.015C447.885 276.595 447.93 276.13 447.93 275.62V273.91C447.93 273.4 447.885 272.935 447.795 272.515C447.715 272.095 447.585 271.73 447.405 271.42C447.225 271.11 446.99 270.87 446.7 270.7C446.41 270.53 446.06 270.445 445.65 270.445C445.24 270.445 444.89 270.53 444.6 270.7C444.31 270.87 444.075 271.11 443.895 271.42C443.715 271.73 443.58 272.095 443.49 272.515C443.41 272.935 443.37 273.4 443.37 273.91V275.62C443.37 276.13 443.41 276.595 443.49 277.015C443.58 277.435 443.715 277.8 443.895 278.11C444.075 278.42 444.31 278.66 444.6 278.83C444.89 279 445.24 279.085 445.65 279.085ZM455.77 280V277.945H450.715V276.835L455.095 269.53H456.97V276.895H458.485V277.945H456.97V280H455.77ZM451.9 276.895H455.77V270.505H455.695L451.9 276.895ZM461.179 280.18C460.859 280.18 460.624 280.1 460.474 279.94C460.334 279.78 460.264 279.57 460.264 279.31V279.115C460.264 278.855 460.334 278.645 460.474 278.485C460.624 278.325 460.859 278.245 461.179 278.245C461.499 278.245 461.729 278.325 461.869 278.485C462.019 278.645 462.094 278.855 462.094 279.115V279.31C462.094 279.57 462.019 279.78 461.869 279.94C461.729 280.1 461.499 280.18 461.179 280.18ZM464.261 276.085V274.795H468.176V276.085H464.261ZM477.212 280H470.342V278.71L473.762 275.56C474.252 275.11 474.662 274.635 474.992 274.135C475.322 273.625 475.487 273.115 475.487 272.605V272.425C475.487 271.845 475.327 271.375 475.007 271.015C474.687 270.655 474.202 270.475 473.552 270.475C473.232 270.475 472.952 270.52 472.712 270.61C472.472 270.7 472.262 270.825 472.082 270.985C471.912 271.145 471.767 271.335 471.647 271.555C471.537 271.765 471.447 271.995 471.377 272.245L470.252 271.81C470.352 271.5 470.487 271.2 470.657 270.91C470.837 270.61 471.057 270.345 471.317 270.115C471.587 269.885 471.907 269.7 472.277 269.56C472.657 269.42 473.102 269.35 473.612 269.35C474.122 269.35 474.577 269.425 474.977 269.575C475.377 269.725 475.712 269.935 475.982 270.205C476.252 270.475 476.457 270.795 476.597 271.165C476.747 271.535 476.822 271.945 476.822 272.395C476.822 272.805 476.762 273.185 476.642 273.535C476.532 273.885 476.377 274.22 476.177 274.54C475.977 274.85 475.732 275.155 475.442 275.455C475.162 275.755 474.857 276.055 474.527 276.355L471.707 278.89H477.212V280ZM486.206 280H479.336V278.71L482.756 275.56C483.246 275.11 483.656 274.635 483.986 274.135C484.316 273.625 484.481 273.115 484.481 272.605V272.425C484.481 271.845 484.321 271.375 484.001 271.015C483.681 270.655 483.196 270.475 482.546 270.475C482.226 270.475 481.946 270.52 481.706 270.61C481.466 270.7 481.256 270.825 481.076 270.985C480.906 271.145 480.761 271.335 480.641 271.555C480.531 271.765 480.441 271.995 480.371 272.245L479.246 271.81C479.346 271.5 479.481 271.2 479.651 270.91C479.831 270.61 480.051 270.345 480.311 270.115C480.581 269.885 480.901 269.7 481.271 269.56C481.651 269.42 482.096 269.35 482.606 269.35C483.116 269.35 483.571 269.425 483.971 269.575C484.371 269.725 484.706 269.935 484.976 270.205C485.246 270.475 485.451 270.795 485.591 271.165C485.741 271.535 485.816 271.945 485.816 272.395C485.816 272.805 485.756 273.185 485.636 273.535C485.526 273.885 485.371 274.22 485.171 274.54C484.971 274.85 484.726 275.155 484.436 275.455C484.156 275.755 483.851 276.055 483.521 276.355L480.701 278.89H486.206V280ZM489.245 280.18C488.925 280.18 488.69 280.1 488.54 279.94C488.4 279.78 488.33 279.57 488.33 279.31V279.115C488.33 278.855 488.4 278.645 488.54 278.485C488.69 278.325 488.925 278.245 489.245 278.245C489.565 278.245 489.795 278.325 489.935 278.485C490.085 278.645 490.16 278.855 490.16 279.115V279.31C490.16 279.57 490.085 279.78 489.935 279.94C489.795 280.1 489.565 280.18 489.245 280.18ZM495.792 280.18C494.542 280.18 493.627 279.705 493.047 278.755C492.477 277.805 492.192 276.475 492.192 274.765C492.192 273.055 492.477 271.725 493.047 270.775C493.627 269.825 494.542 269.35 495.792 269.35C497.042 269.35 497.952 269.825 498.522 270.775C499.102 271.725 499.392 273.055 499.392 274.765C499.392 276.475 499.102 277.805 498.522 278.755C497.952 279.705 497.042 280.18 495.792 280.18ZM495.792 279.085C496.202 279.085 496.552 279 496.842 278.83C497.132 278.66 497.367 278.42 497.547 278.11C497.727 277.8 497.857 277.435 497.937 277.015C498.027 276.595 498.072 276.13 498.072 275.62V273.91C498.072 273.4 498.027 272.935 497.937 272.515C497.857 272.095 497.727 271.73 497.547 271.42C497.367 271.11 497.132 270.87 496.842 270.7C496.552 270.53 496.202 270.445 495.792 270.445C495.382 270.445 495.032 270.53 494.742 270.7C494.452 270.87 494.217 271.11 494.037 271.42C493.857 271.73 493.722 272.095 493.632 272.515C493.552 272.935 493.512 273.4 493.512 273.91V275.62C493.512 276.13 493.552 276.595 493.632 277.015C493.722 277.435 493.857 277.8 494.037 278.11C494.217 278.42 494.452 278.66 494.742 278.83C495.032 279 495.382 279.085 495.792 279.085ZM507.756 270.64H503.166L502.866 274.63H502.971C503.221 274.28 503.501 274 503.811 273.79C504.131 273.58 504.566 273.475 505.116 273.475C505.566 273.475 505.981 273.55 506.361 273.7C506.741 273.85 507.071 274.065 507.351 274.345C507.631 274.615 507.846 274.95 507.996 275.35C508.156 275.75 508.236 276.205 508.236 276.715C508.236 277.225 508.156 277.695 507.996 278.125C507.836 278.545 507.601 278.91 507.291 279.22C506.991 279.52 506.621 279.755 506.181 279.925C505.751 280.095 505.261 280.18 504.711 280.18C504.271 280.18 503.881 280.13 503.541 280.03C503.211 279.93 502.916 279.795 502.656 279.625C502.396 279.455 502.166 279.265 501.966 279.055C501.776 278.845 501.601 278.625 501.441 278.395L502.386 277.675C502.516 277.885 502.651 278.075 502.791 278.245C502.941 278.415 503.101 278.56 503.271 278.68C503.451 278.8 503.656 278.895 503.886 278.965C504.116 279.025 504.391 279.055 504.711 279.055C505.431 279.055 505.976 278.865 506.346 278.485C506.716 278.105 506.901 277.57 506.901 276.88V276.73C506.901 276.04 506.716 275.505 506.346 275.125C505.976 274.745 505.431 274.555 504.711 274.555C504.231 274.555 503.851 274.645 503.571 274.825C503.301 274.995 503.056 275.2 502.836 275.44L501.771 275.29L502.146 269.53H507.756V270.64ZM511.32 280.18C511 280.18 510.765 280.1 510.615 279.94C510.475 279.78 510.405 279.57 510.405 279.31V279.115C510.405 278.855 510.475 278.645 510.615 278.485C510.765 278.325 511 278.245 511.32 278.245C511.64 278.245 511.87 278.325 512.01 278.485C512.16 278.645 512.235 278.855 512.235 279.115V279.31C512.235 279.57 512.16 279.78 512.01 279.94C511.87 280.1 511.64 280.18 511.32 280.18ZM517.867 280.18C516.617 280.18 515.702 279.705 515.122 278.755C514.552 277.805 514.267 276.475 514.267 274.765C514.267 273.055 514.552 271.725 515.122 270.775C515.702 269.825 516.617 269.35 517.867 269.35C519.117 269.35 520.027 269.825 520.597 270.775C521.177 271.725 521.467 273.055 521.467 274.765C521.467 276.475 521.177 277.805 520.597 278.755C520.027 279.705 519.117 280.18 517.867 280.18ZM517.867 279.085C518.277 279.085 518.627 279 518.917 278.83C519.207 278.66 519.442 278.42 519.622 278.11C519.802 277.8 519.932 277.435 520.012 277.015C520.102 276.595 520.147 276.13 520.147 275.62V273.91C520.147 273.4 520.102 272.935 520.012 272.515C519.932 272.095 519.802 271.73 519.622 271.42C519.442 271.11 519.207 270.87 518.917 270.7C518.627 270.53 518.277 270.445 517.867 270.445C517.457 270.445 517.107 270.53 516.817 270.7C516.527 270.87 516.292 271.11 516.112 271.42C515.932 271.73 515.797 272.095 515.707 272.515C515.627 272.935 515.587 273.4 515.587 273.91V275.62C515.587 276.13 515.627 276.595 515.707 277.015C515.797 277.435 515.932 277.8 516.112 278.11C516.292 278.42 516.527 278.66 516.817 278.83C517.107 279 517.457 279.085 517.867 279.085ZM529.831 270.64H525.241L524.941 274.63H525.046C525.296 274.28 525.576 274 525.886 273.79C526.206 273.58 526.641 273.475 527.191 273.475C527.641 273.475 528.056 273.55 528.436 273.7C528.816 273.85 529.146 274.065 529.426 274.345C529.706 274.615 529.921 274.95 530.071 275.35C530.231 275.75 530.311 276.205 530.311 276.715C530.311 277.225 530.231 277.695 530.071 278.125C529.911 278.545 529.676 278.91 529.366 279.22C529.066 279.52 528.696 279.755 528.256 279.925C527.826 280.095 527.336 280.18 526.786 280.18C526.346 280.18 525.956 280.13 525.616 280.03C525.286 279.93 524.991 279.795 524.731 279.625C524.471 279.455 524.241 279.265 524.041 279.055C523.851 278.845 523.676 278.625 523.516 278.395L524.461 277.675C524.591 277.885 524.726 278.075 524.866 278.245C525.016 278.415 525.176 278.56 525.346 278.68C525.526 278.8 525.731 278.895 525.961 278.965C526.191 279.025 526.466 279.055 526.786 279.055C527.506 279.055 528.051 278.865 528.421 278.485C528.791 278.105 528.976 277.57 528.976 276.88V276.73C528.976 276.04 528.791 275.505 528.421 275.125C528.051 274.745 527.506 274.555 526.786 274.555C526.306 274.555 525.926 274.645 525.646 274.825C525.376 274.995 525.131 275.2 524.911 275.44L523.846 275.29L524.221 269.53H529.831V270.64ZM533.395 280.18C533.075 280.18 532.84 280.1 532.69 279.94C532.55 279.78 532.48 279.57 532.48 279.31V279.115C532.48 278.855 532.55 278.645 532.69 278.485C532.84 278.325 533.075 278.245 533.395 278.245C533.715 278.245 533.945 278.325 534.085 278.485C534.235 278.645 534.31 278.855 534.31 279.115V279.31C534.31 279.57 534.235 279.78 534.085 279.94C533.945 280.1 533.715 280.18 533.395 280.18Z" fill="white"/>
<path d="M333.995 432H327.125V430.71L330.545 427.56C331.035 427.11 331.445 426.635 331.775 426.135C332.105 425.625 332.27 425.115 332.27 424.605V424.425C332.27 423.845 332.11 423.375 331.79 423.015C331.47 422.655 330.985 422.475 330.335 422.475C330.015 422.475 329.735 422.52 329.495 422.61C329.255 422.7 329.045 422.825 328.865 422.985C328.695 423.145 328.55 423.335 328.43 423.555C328.32 423.765 328.23 423.995 328.16 424.245L327.035 423.81C327.135 423.5 327.27 423.2 327.44 422.91C327.62 422.61 327.84 422.345 328.1 422.115C328.37 421.885 328.69 421.7 329.06 421.56C329.44 421.42 329.885 421.35 330.395 421.35C330.905 421.35 331.36 421.425 331.76 421.575C332.16 421.725 332.495 421.935 332.765 422.205C333.035 422.475 333.24 422.795 333.38 423.165C333.53 423.535 333.605 423.945 333.605 424.395C333.605 424.805 333.545 425.185 333.425 425.535C333.315 425.885 333.16 426.22 332.96 426.54C332.76 426.85 332.515 427.155 332.225 427.455C331.945 427.755 331.64 428.055 331.31 428.355L328.49 430.89H333.995V432ZM342.989 432H336.119V430.71L339.539 427.56C340.029 427.11 340.439 426.635 340.769 426.135C341.099 425.625 341.264 425.115 341.264 424.605V424.425C341.264 423.845 341.104 423.375 340.784 423.015C340.464 422.655 339.979 422.475 339.329 422.475C339.009 422.475 338.729 422.52 338.489 422.61C338.249 422.7 338.039 422.825 337.859 422.985C337.689 423.145 337.544 423.335 337.424 423.555C337.314 423.765 337.224 423.995 337.154 424.245L336.029 423.81C336.129 423.5 336.264 423.2 336.434 422.91C336.614 422.61 336.834 422.345 337.094 422.115C337.364 421.885 337.684 421.7 338.054 421.56C338.434 421.42 338.879 421.35 339.389 421.35C339.899 421.35 340.354 421.425 340.754 421.575C341.154 421.725 341.489 421.935 341.759 422.205C342.029 422.475 342.234 422.795 342.374 423.165C342.524 423.535 342.599 423.945 342.599 424.395C342.599 424.805 342.539 425.185 342.419 425.535C342.309 425.885 342.154 426.22 341.954 426.54C341.754 426.85 341.509 427.155 341.219 427.455C340.939 427.755 340.634 428.055 340.304 428.355L337.484 430.89H342.989V432ZM346.028 432.18C345.708 432.18 345.473 432.1 345.323 431.94C345.183 431.78 345.113 431.57 345.113 431.31V431.115C345.113 430.855 345.183 430.645 345.323 430.485C345.473 430.325 345.708 430.245 346.028 430.245C346.348 430.245 346.578 430.325 346.718 430.485C346.868 430.645 346.943 430.855 346.943 431.115V431.31C346.943 431.57 346.868 431.78 346.718 431.94C346.578 432.1 346.348 432.18 346.028 432.18ZM352.575 432.18C351.325 432.18 350.41 431.705 349.83 430.755C349.26 429.805 348.975 428.475 348.975 426.765C348.975 425.055 349.26 423.725 349.83 422.775C350.41 421.825 351.325 421.35 352.575 421.35C353.825 421.35 354.735 421.825 355.305 422.775C355.885 423.725 356.175 425.055 356.175 426.765C356.175 428.475 355.885 429.805 355.305 430.755C354.735 431.705 353.825 432.18 352.575 432.18ZM352.575 431.085C352.985 431.085 353.335 431 353.625 430.83C353.915 430.66 354.15 430.42 354.33 430.11C354.51 429.8 354.64 429.435 354.72 429.015C354.81 428.595 354.855 428.13 354.855 427.62V425.91C354.855 425.4 354.81 424.935 354.72 424.515C354.64 424.095 354.51 423.73 354.33 423.42C354.15 423.11 353.915 422.87 353.625 422.7C353.335 422.53 352.985 422.445 352.575 422.445C352.165 422.445 351.815 422.53 351.525 422.7C351.235 422.87 351 423.11 350.82 423.42C350.64 423.73 350.505 424.095 350.415 424.515C350.335 424.935 350.295 425.4 350.295 425.91V427.62C350.295 428.13 350.335 428.595 350.415 429.015C350.505 429.435 350.64 429.8 350.82 430.11C351 430.42 351.235 430.66 351.525 430.83C351.815 431 352.165 431.085 352.575 431.085ZM364.539 422.64H359.949L359.649 426.63H359.754C360.004 426.28 360.284 426 360.594 425.79C360.914 425.58 361.349 425.475 361.899 425.475C362.349 425.475 362.764 425.55 363.144 425.7C363.524 425.85 363.854 426.065 364.134 426.345C364.414 426.615 364.629 426.95 364.779 427.35C364.939 427.75 365.019 428.205 365.019 428.715C365.019 429.225 364.939 429.695 364.779 430.125C364.619 430.545 364.384 430.91 364.074 431.22C363.774 431.52 363.404 431.755 362.964 431.925C362.534 432.095 362.044 432.18 361.494 432.18C361.054 432.18 360.664 432.13 360.324 432.03C359.994 431.93 359.699 431.795 359.439 431.625C359.179 431.455 358.949 431.265 358.749 431.055C358.559 430.845 358.384 430.625 358.224 430.395L359.169 429.675C359.299 429.885 359.434 430.075 359.574 430.245C359.724 430.415 359.884 430.56 360.054 430.68C360.234 430.8 360.439 430.895 360.669 430.965C360.899 431.025 361.174 431.055 361.494 431.055C362.214 431.055 362.759 430.865 363.129 430.485C363.499 430.105 363.684 429.57 363.684 428.88V428.73C363.684 428.04 363.499 427.505 363.129 427.125C362.759 426.745 362.214 426.555 361.494 426.555C361.014 426.555 360.634 426.645 360.354 426.825C360.084 426.995 359.839 427.2 359.619 427.44L358.554 427.29L358.929 421.53H364.539V422.64ZM368.103 432.18C367.783 432.18 367.548 432.1 367.398 431.94C367.258 431.78 367.188 431.57 367.188 431.31V431.115C367.188 430.855 367.258 430.645 367.398 430.485C367.548 430.325 367.783 430.245 368.103 430.245C368.423 430.245 368.653 430.325 368.793 430.485C368.943 430.645 369.018 430.855 369.018 431.115V431.31C369.018 431.57 368.943 431.78 368.793 431.94C368.653 432.1 368.423 432.18 368.103 432.18ZM374.65 432.18C373.4 432.18 372.485 431.705 371.905 430.755C371.335 429.805 371.05 428.475 371.05 426.765C371.05 425.055 371.335 423.725 371.905 422.775C372.485 421.825 373.4 421.35 374.65 421.35C375.9 421.35 376.81 421.825 377.38 422.775C377.96 423.725 378.25 425.055 378.25 426.765C378.25 428.475 377.96 429.805 377.38 430.755C376.81 431.705 375.9 432.18 374.65 432.18ZM374.65 431.085C375.06 431.085 375.41 431 375.7 430.83C375.99 430.66 376.225 430.42 376.405 430.11C376.585 429.8 376.715 429.435 376.795 429.015C376.885 428.595 376.93 428.13 376.93 427.62V425.91C376.93 425.4 376.885 424.935 376.795 424.515C376.715 424.095 376.585 423.73 376.405 423.42C376.225 423.11 375.99 422.87 375.7 422.7C375.41 422.53 375.06 422.445 374.65 422.445C374.24 422.445 373.89 422.53 373.6 422.7C373.31 422.87 373.075 423.11 372.895 423.42C372.715 423.73 372.58 424.095 372.49 424.515C372.41 424.935 372.37 425.4 372.37 425.91V427.62C372.37 428.13 372.41 428.595 372.49 429.015C372.58 429.435 372.715 429.8 372.895 430.11C373.075 430.42 373.31 430.66 373.6 430.83C373.89 431 374.24 431.085 374.65 431.085ZM383.66 432.18C383.12 432.18 382.63 432.09 382.19 431.91C381.76 431.72 381.39 431.455 381.08 431.115C380.78 430.765 380.55 430.34 380.39 429.84C380.23 429.34 380.15 428.78 380.15 428.16C380.15 427.38 380.265 426.65 380.495 425.97C380.725 425.28 381.02 424.655 381.38 424.095C381.75 423.525 382.155 423.025 382.595 422.595C383.035 422.155 383.465 421.8 383.885 421.53H385.505C384.945 421.94 384.445 422.34 384.005 422.73C383.565 423.12 383.18 423.53 382.85 423.96C382.52 424.38 382.24 424.835 382.01 425.325C381.78 425.805 381.595 426.35 381.455 426.96L381.53 426.99C381.78 426.56 382.1 426.205 382.49 425.925C382.89 425.635 383.41 425.49 384.05 425.49C384.5 425.49 384.915 425.565 385.295 425.715C385.675 425.865 386 426.08 386.27 426.36C386.54 426.64 386.75 426.98 386.9 427.38C387.06 427.78 387.14 428.225 387.14 428.715C387.14 429.225 387.055 429.695 386.885 430.125C386.725 430.545 386.49 430.91 386.18 431.22C385.88 431.52 385.515 431.755 385.085 431.925C384.655 432.095 384.18 432.18 383.66 432.18ZM383.645 431.085C384.335 431.085 384.87 430.895 385.25 430.515C385.64 430.135 385.835 429.59 385.835 428.88V428.76C385.835 428.05 385.64 427.505 385.25 427.125C384.87 426.745 384.335 426.555 383.645 426.555C382.955 426.555 382.415 426.745 382.025 427.125C381.645 427.505 381.455 428.05 381.455 428.76V428.88C381.455 429.59 381.645 430.135 382.025 430.515C382.415 430.895 382.955 431.085 383.645 431.085ZM390.179 432.18C389.859 432.18 389.624 432.1 389.474 431.94C389.334 431.78 389.264 431.57 389.264 431.31V431.115C389.264 430.855 389.334 430.645 389.474 430.485C389.624 430.325 389.859 430.245 390.179 430.245C390.499 430.245 390.729 430.325 390.869 430.485C391.019 430.645 391.094 430.855 391.094 431.115V431.31C391.094 431.57 391.019 431.78 390.869 431.94C390.729 432.1 390.499 432.18 390.179 432.18ZM393.261 428.085V426.795H397.176V428.085H393.261ZM406.212 432H399.342V430.71L402.762 427.56C403.252 427.11 403.662 426.635 403.992 426.135C404.322 425.625 404.487 425.115 404.487 424.605V424.425C404.487 423.845 404.327 423.375 404.007 423.015C403.687 422.655 403.202 422.475 402.552 422.475C402.232 422.475 401.952 422.52 401.712 422.61C401.472 422.7 401.262 422.825 401.082 422.985C400.912 423.145 400.767 423.335 400.647 423.555C400.537 423.765 400.447 423.995 400.377 424.245L399.252 423.81C399.352 423.5 399.487 423.2 399.657 422.91C399.837 422.61 400.057 422.345 400.317 422.115C400.587 421.885 400.907 421.7 401.277 421.56C401.657 421.42 402.102 421.35 402.612 421.35C403.122 421.35 403.577 421.425 403.977 421.575C404.377 421.725 404.712 421.935 404.982 422.205C405.252 422.475 405.457 422.795 405.597 423.165C405.747 423.535 405.822 423.945 405.822 424.395C405.822 424.805 405.762 425.185 405.642 425.535C405.532 425.885 405.377 426.22 405.177 426.54C404.977 426.85 404.732 427.155 404.442 427.455C404.162 427.755 403.857 428.055 403.527 428.355L400.707 430.89H406.212V432ZM415.206 432H408.336V430.71L411.756 427.56C412.246 427.11 412.656 426.635 412.986 426.135C413.316 425.625 413.481 425.115 413.481 424.605V424.425C413.481 423.845 413.321 423.375 413.001 423.015C412.681 422.655 412.196 422.475 411.546 422.475C411.226 422.475 410.946 422.52 410.706 422.61C410.466 422.7 410.256 422.825 410.076 422.985C409.906 423.145 409.761 423.335 409.641 423.555C409.531 423.765 409.441 423.995 409.371 424.245L408.246 423.81C408.346 423.5 408.481 423.2 408.651 422.91C408.831 422.61 409.051 422.345 409.311 422.115C409.581 421.885 409.901 421.7 410.271 421.56C410.651 421.42 411.096 421.35 411.606 421.35C412.116 421.35 412.571 421.425 412.971 421.575C413.371 421.725 413.706 421.935 413.976 422.205C414.246 422.475 414.451 422.795 414.591 423.165C414.741 423.535 414.816 423.945 414.816 424.395C414.816 424.805 414.756 425.185 414.636 425.535C414.526 425.885 414.371 426.22 414.171 426.54C413.971 426.85 413.726 427.155 413.436 427.455C413.156 427.755 412.851 428.055 412.521 428.355L409.701 430.89H415.206V432ZM418.245 432.18C417.925 432.18 417.69 432.1 417.54 431.94C417.4 431.78 417.33 431.57 417.33 431.31V431.115C417.33 430.855 417.4 430.645 417.54 430.485C417.69 430.325 417.925 430.245 418.245 430.245C418.565 430.245 418.795 430.325 418.935 430.485C419.085 430.645 419.16 430.855 419.16 431.115V431.31C419.16 431.57 419.085 431.78 418.935 431.94C418.795 432.1 418.565 432.18 418.245 432.18ZM424.792 432.18C423.542 432.18 422.627 431.705 422.047 430.755C421.477 429.805 421.192 428.475 421.192 426.765C421.192 425.055 421.477 423.725 422.047 422.775C422.627 421.825 423.542 421.35 424.792 421.35C426.042 421.35 426.952 421.825 427.522 422.775C428.102 423.725 428.392 425.055 428.392 426.765C428.392 428.475 428.102 429.805 427.522 430.755C426.952 431.705 426.042 432.18 424.792 432.18ZM424.792 431.085C425.202 431.085 425.552 431 425.842 430.83C426.132 430.66 426.367 430.42 426.547 430.11C426.727 429.8 426.857 429.435 426.937 429.015C427.027 428.595 427.072 428.13 427.072 427.62V425.91C427.072 425.4 427.027 424.935 426.937 424.515C426.857 424.095 426.727 423.73 426.547 423.42C426.367 423.11 426.132 422.87 425.842 422.7C425.552 422.53 425.202 422.445 424.792 422.445C424.382 422.445 424.032 422.53 423.742 422.7C423.452 422.87 423.217 423.11 423.037 423.42C422.857 423.73 422.722 424.095 422.632 424.515C422.552 424.935 422.512 425.4 422.512 425.91V427.62C422.512 428.13 422.552 428.595 422.632 429.015C422.722 429.435 422.857 429.8 423.037 430.11C423.217 430.42 423.452 430.66 423.742 430.83C424.032 431 424.382 431.085 424.792 431.085ZM436.756 422.64H432.166L431.866 426.63H431.971C432.221 426.28 432.501 426 432.811 425.79C433.131 425.58 433.566 425.475 434.116 425.475C434.566 425.475 434.981 425.55 435.361 425.7C435.741 425.85 436.071 426.065 436.351 426.345C436.631 426.615 436.846 426.95 436.996 427.35C437.156 427.75 437.236 428.205 437.236 428.715C437.236 429.225 437.156 429.695 436.996 430.125C436.836 430.545 436.601 430.91 436.291 431.22C435.991 431.52 435.621 431.755 435.181 431.925C434.751 432.095 434.261 432.18 433.711 432.18C433.271 432.18 432.881 432.13 432.541 432.03C432.211 431.93 431.916 431.795 431.656 431.625C431.396 431.455 431.166 431.265 430.966 431.055C430.776 430.845 430.601 430.625 430.441 430.395L431.386 429.675C431.516 429.885 431.651 430.075 431.791 430.245C431.941 430.415 432.101 430.56 432.271 430.68C432.451 430.8 432.656 430.895 432.886 430.965C433.116 431.025 433.391 431.055 433.711 431.055C434.431 431.055 434.976 430.865 435.346 430.485C435.716 430.105 435.901 429.57 435.901 428.88V428.73C435.901 428.04 435.716 427.505 435.346 427.125C434.976 426.745 434.431 426.555 433.711 426.555C433.231 426.555 432.851 426.645 432.571 426.825C432.301 426.995 432.056 427.2 431.836 427.44L430.771 427.29L431.146 421.53H436.756V422.64ZM440.32 432.18C440 432.18 439.765 432.1 439.615 431.94C439.475 431.78 439.405 431.57 439.405 431.31V431.115C439.405 430.855 439.475 430.645 439.615 430.485C439.765 430.325 440 430.245 440.32 430.245C440.64 430.245 440.87 430.325 441.01 430.485C441.16 430.645 441.235 430.855 441.235 431.115V431.31C441.235 431.57 441.16 431.78 441.01 431.94C440.87 432.1 440.64 432.18 440.32 432.18ZM446.867 432.18C445.617 432.18 444.702 431.705 444.122 430.755C443.552 429.805 443.267 428.475 443.267 426.765C443.267 425.055 443.552 423.725 444.122 422.775C444.702 421.825 445.617 421.35 446.867 421.35C448.117 421.35 449.027 421.825 449.597 422.775C450.177 423.725 450.467 425.055 450.467 426.765C450.467 428.475 450.177 429.805 449.597 430.755C449.027 431.705 448.117 432.18 446.867 432.18ZM446.867 431.085C447.277 431.085 447.627 431 447.917 430.83C448.207 430.66 448.442 430.42 448.622 430.11C448.802 429.8 448.932 429.435 449.012 429.015C449.102 428.595 449.147 428.13 449.147 427.62V425.91C449.147 425.4 449.102 424.935 449.012 424.515C448.932 424.095 448.802 423.73 448.622 423.42C448.442 423.11 448.207 422.87 447.917 422.7C447.627 422.53 447.277 422.445 446.867 422.445C446.457 422.445 446.107 422.53 445.817 422.7C445.527 422.87 445.292 423.11 445.112 423.42C444.932 423.73 444.797 424.095 444.707 424.515C444.627 424.935 444.587 425.4 444.587 425.91V427.62C444.587 428.13 444.627 428.595 444.707 429.015C444.797 429.435 444.932 429.8 445.112 430.11C445.292 430.42 445.527 430.66 445.817 430.83C446.107 431 446.457 431.085 446.867 431.085ZM459.356 425.37C459.356 426.15 459.241 426.885 459.011 427.575C458.781 428.255 458.481 428.88 458.111 429.45C457.751 430.01 457.351 430.51 456.911 430.95C456.471 431.38 456.041 431.73 455.621 432H454.001C454.561 431.59 455.061 431.19 455.501 430.8C455.941 430.41 456.326 430.005 456.656 429.585C456.986 429.155 457.266 428.7 457.496 428.22C457.726 427.73 457.911 427.18 458.051 426.57L457.976 426.54C457.726 426.97 457.401 427.33 457.001 427.62C456.611 427.9 456.096 428.04 455.456 428.04C455.006 428.04 454.591 427.965 454.211 427.815C453.831 427.665 453.506 427.45 453.236 427.17C452.966 426.89 452.751 426.555 452.591 426.165C452.441 425.765 452.366 425.315 452.366 424.815C452.366 424.305 452.446 423.84 452.606 423.42C452.776 422.99 453.011 422.625 453.311 422.325C453.621 422.015 453.986 421.775 454.406 421.605C454.836 421.435 455.316 421.35 455.846 421.35C456.386 421.35 456.871 421.445 457.301 421.635C457.741 421.815 458.111 422.08 458.411 422.43C458.721 422.77 458.956 423.19 459.116 423.69C459.276 424.19 459.356 424.75 459.356 425.37ZM455.861 426.975C456.551 426.975 457.086 426.785 457.466 426.405C457.856 426.025 458.051 425.48 458.051 424.77V424.65C458.051 423.94 457.856 423.395 457.466 423.015C457.086 422.635 456.551 422.445 455.861 422.445C455.171 422.445 454.631 422.635 454.241 423.015C453.861 423.395 453.671 423.94 453.671 424.65V424.77C453.671 425.48 453.861 426.025 454.241 426.405C454.631 426.785 455.171 426.975 455.861 426.975ZM462.395 432.18C462.075 432.18 461.84 432.1 461.69 431.94C461.55 431.78 461.48 431.57 461.48 431.31V431.115C461.48 430.855 461.55 430.645 461.69 430.485C461.84 430.325 462.075 430.245 462.395 430.245C462.715 430.245 462.945 430.325 463.085 430.485C463.235 430.645 463.31 430.855 463.31 431.115V431.31C463.31 431.57 463.235 431.78 463.085 431.94C462.945 432.1 462.715 432.18 462.395 432.18Z" fill="white"/>
<path d="M137.995 317H131.125V315.71L134.545 312.56C135.035 312.11 135.445 311.635 135.775 311.135C136.105 310.625 136.27 310.115 136.27 309.605V309.425C136.27 308.845 136.11 308.375 135.79 308.015C135.47 307.655 134.985 307.475 134.335 307.475C134.015 307.475 133.735 307.52 133.495 307.61C133.255 307.7 133.045 307.825 132.865 307.985C132.695 308.145 132.55 308.335 132.43 308.555C132.32 308.765 132.23 308.995 132.16 309.245L131.035 308.81C131.135 308.5 131.27 308.2 131.44 307.91C131.62 307.61 131.84 307.345 132.1 307.115C132.37 306.885 132.69 306.7 133.06 306.56C133.44 306.42 133.885 306.35 134.395 306.35C134.905 306.35 135.36 306.425 135.76 306.575C136.16 306.725 136.495 306.935 136.765 307.205C137.035 307.475 137.24 307.795 137.38 308.165C137.53 308.535 137.605 308.945 137.605 309.395C137.605 309.805 137.545 310.185 137.425 310.535C137.315 310.885 137.16 311.22 136.96 311.54C136.76 311.85 136.515 312.155 136.225 312.455C135.945 312.755 135.64 313.055 135.31 313.355L132.49 315.89H137.995V317ZM146.989 317H140.119V315.71L143.539 312.56C144.029 312.11 144.439 311.635 144.769 311.135C145.099 310.625 145.264 310.115 145.264 309.605V309.425C145.264 308.845 145.104 308.375 144.784 308.015C144.464 307.655 143.979 307.475 143.329 307.475C143.009 307.475 142.729 307.52 142.489 307.61C142.249 307.7 142.039 307.825 141.859 307.985C141.689 308.145 141.544 308.335 141.424 308.555C141.314 308.765 141.224 308.995 141.154 309.245L140.029 308.81C140.129 308.5 140.264 308.2 140.434 307.91C140.614 307.61 140.834 307.345 141.094 307.115C141.364 306.885 141.684 306.7 142.054 306.56C142.434 306.42 142.879 306.35 143.389 306.35C143.899 306.35 144.354 306.425 144.754 306.575C145.154 306.725 145.489 306.935 145.759 307.205C146.029 307.475 146.234 307.795 146.374 308.165C146.524 308.535 146.599 308.945 146.599 309.395C146.599 309.805 146.539 310.185 146.419 310.535C146.309 310.885 146.154 311.22 145.954 311.54C145.754 311.85 145.509 312.155 145.219 312.455C144.939 312.755 144.634 313.055 144.304 313.355L141.484 315.89H146.989V317ZM150.028 317.18C149.708 317.18 149.473 317.1 149.323 316.94C149.183 316.78 149.113 316.57 149.113 316.31V316.115C149.113 315.855 149.183 315.645 149.323 315.485C149.473 315.325 149.708 315.245 150.028 315.245C150.348 315.245 150.578 315.325 150.718 315.485C150.868 315.645 150.943 315.855 150.943 316.115V316.31C150.943 316.57 150.868 316.78 150.718 316.94C150.578 317.1 150.348 317.18 150.028 317.18ZM156.575 317.18C155.325 317.18 154.41 316.705 153.83 315.755C153.26 314.805 152.975 313.475 152.975 311.765C152.975 310.055 153.26 308.725 153.83 307.775C154.41 306.825 155.325 306.35 156.575 306.35C157.825 306.35 158.735 306.825 159.305 307.775C159.885 308.725 160.175 310.055 160.175 311.765C160.175 313.475 159.885 314.805 159.305 315.755C158.735 316.705 157.825 317.18 156.575 317.18ZM156.575 316.085C156.985 316.085 157.335 316 157.625 315.83C157.915 315.66 158.15 315.42 158.33 315.11C158.51 314.8 158.64 314.435 158.72 314.015C158.81 313.595 158.855 313.13 158.855 312.62V310.91C158.855 310.4 158.81 309.935 158.72 309.515C158.64 309.095 158.51 308.73 158.33 308.42C158.15 308.11 157.915 307.87 157.625 307.7C157.335 307.53 156.985 307.445 156.575 307.445C156.165 307.445 155.815 307.53 155.525 307.7C155.235 307.87 155 308.11 154.82 308.42C154.64 308.73 154.505 309.095 154.415 309.515C154.335 309.935 154.295 310.4 154.295 310.91V312.62C154.295 313.13 154.335 313.595 154.415 314.015C154.505 314.435 154.64 314.8 154.82 315.11C155 315.42 155.235 315.66 155.525 315.83C155.815 316 156.165 316.085 156.575 316.085ZM168.539 307.64H163.949L163.649 311.63H163.754C164.004 311.28 164.284 311 164.594 310.79C164.914 310.58 165.349 310.475 165.899 310.475C166.349 310.475 166.764 310.55 167.144 310.7C167.524 310.85 167.854 311.065 168.134 311.345C168.414 311.615 168.629 311.95 168.779 312.35C168.939 312.75 169.019 313.205 169.019 313.715C169.019 314.225 168.939 314.695 168.779 315.125C168.619 315.545 168.384 315.91 168.074 316.22C167.774 316.52 167.404 316.755 166.964 316.925C166.534 317.095 166.044 317.18 165.494 317.18C165.054 317.18 164.664 317.13 164.324 317.03C163.994 316.93 163.699 316.795 163.439 316.625C163.179 316.455 162.949 316.265 162.749 316.055C162.559 315.845 162.384 315.625 162.224 315.395L163.169 314.675C163.299 314.885 163.434 315.075 163.574 315.245C163.724 315.415 163.884 315.56 164.054 315.68C164.234 315.8 164.439 315.895 164.669 315.965C164.899 316.025 165.174 316.055 165.494 316.055C166.214 316.055 166.759 315.865 167.129 315.485C167.499 315.105 167.684 314.57 167.684 313.88V313.73C167.684 313.04 167.499 312.505 167.129 312.125C166.759 311.745 166.214 311.555 165.494 311.555C165.014 311.555 164.634 311.645 164.354 311.825C164.084 311.995 163.839 312.2 163.619 312.44L162.554 312.29L162.929 306.53H168.539V307.64ZM172.103 317.18C171.783 317.18 171.548 317.1 171.398 316.94C171.258 316.78 171.188 316.57 171.188 316.31V316.115C171.188 315.855 171.258 315.645 171.398 315.485C171.548 315.325 171.783 315.245 172.103 315.245C172.423 315.245 172.653 315.325 172.793 315.485C172.943 315.645 173.018 315.855 173.018 316.115V316.31C173.018 316.57 172.943 316.78 172.793 316.94C172.653 317.1 172.423 317.18 172.103 317.18ZM175.47 317V315.89H178.395V307.46H178.29L175.65 309.92L174.915 309.125L177.69 306.53H179.655V315.89H182.355V317H175.47ZM187.645 317.18C186.395 317.18 185.48 316.705 184.9 315.755C184.33 314.805 184.045 313.475 184.045 311.765C184.045 310.055 184.33 308.725 184.9 307.775C185.48 306.825 186.395 306.35 187.645 306.35C188.895 306.35 189.805 306.825 190.375 307.775C190.955 308.725 191.245 310.055 191.245 311.765C191.245 313.475 190.955 314.805 190.375 315.755C189.805 316.705 188.895 317.18 187.645 317.18ZM187.645 316.085C188.055 316.085 188.405 316 188.695 315.83C188.985 315.66 189.22 315.42 189.4 315.11C189.58 314.8 189.71 314.435 189.79 314.015C189.88 313.595 189.925 313.13 189.925 312.62V310.91C189.925 310.4 189.88 309.935 189.79 309.515C189.71 309.095 189.58 308.73 189.4 308.42C189.22 308.11 188.985 307.87 188.695 307.7C188.405 307.53 188.055 307.445 187.645 307.445C187.235 307.445 186.885 307.53 186.595 307.7C186.305 307.87 186.07 308.11 185.89 308.42C185.71 308.73 185.575 309.095 185.485 309.515C185.405 309.935 185.365 310.4 185.365 310.91V312.62C185.365 313.13 185.405 313.595 185.485 314.015C185.575 314.435 185.71 314.8 185.89 315.11C186.07 315.42 186.305 315.66 186.595 315.83C186.885 316 187.235 316.085 187.645 316.085ZM194.179 317.18C193.859 317.18 193.624 317.1 193.474 316.94C193.334 316.78 193.264 316.57 193.264 316.31V316.115C193.264 315.855 193.334 315.645 193.474 315.485C193.624 315.325 193.859 315.245 194.179 315.245C194.499 315.245 194.729 315.325 194.869 315.485C195.019 315.645 195.094 315.855 195.094 316.115V316.31C195.094 316.57 195.019 316.78 194.869 316.94C194.729 317.1 194.499 317.18 194.179 317.18ZM197.261 313.085V311.795H201.176V313.085H197.261ZM210.212 317H203.342V315.71L206.762 312.56C207.252 312.11 207.662 311.635 207.992 311.135C208.322 310.625 208.487 310.115 208.487 309.605V309.425C208.487 308.845 208.327 308.375 208.007 308.015C207.687 307.655 207.202 307.475 206.552 307.475C206.232 307.475 205.952 307.52 205.712 307.61C205.472 307.7 205.262 307.825 205.082 307.985C204.912 308.145 204.767 308.335 204.647 308.555C204.537 308.765 204.447 308.995 204.377 309.245L203.252 308.81C203.352 308.5 203.487 308.2 203.657 307.91C203.837 307.61 204.057 307.345 204.317 307.115C204.587 306.885 204.907 306.7 205.277 306.56C205.657 306.42 206.102 306.35 206.612 306.35C207.122 306.35 207.577 306.425 207.977 306.575C208.377 306.725 208.712 306.935 208.982 307.205C209.252 307.475 209.457 307.795 209.597 308.165C209.747 308.535 209.822 308.945 209.822 309.395C209.822 309.805 209.762 310.185 209.642 310.535C209.532 310.885 209.377 311.22 209.177 311.54C208.977 311.85 208.732 312.155 208.442 312.455C208.162 312.755 207.857 313.055 207.527 313.355L204.707 315.89H210.212V317ZM219.206 317H212.336V315.71L215.756 312.56C216.246 312.11 216.656 311.635 216.986 311.135C217.316 310.625 217.481 310.115 217.481 309.605V309.425C217.481 308.845 217.321 308.375 217.001 308.015C216.681 307.655 216.196 307.475 215.546 307.475C215.226 307.475 214.946 307.52 214.706 307.61C214.466 307.7 214.256 307.825 214.076 307.985C213.906 308.145 213.761 308.335 213.641 308.555C213.531 308.765 213.441 308.995 213.371 309.245L212.246 308.81C212.346 308.5 212.481 308.2 212.651 307.91C212.831 307.61 213.051 307.345 213.311 307.115C213.581 306.885 213.901 306.7 214.271 306.56C214.651 306.42 215.096 306.35 215.606 306.35C216.116 306.35 216.571 306.425 216.971 306.575C217.371 306.725 217.706 306.935 217.976 307.205C218.246 307.475 218.451 307.795 218.591 308.165C218.741 308.535 218.816 308.945 218.816 309.395C218.816 309.805 218.756 310.185 218.636 310.535C218.526 310.885 218.371 311.22 218.171 311.54C217.971 311.85 217.726 312.155 217.436 312.455C217.156 312.755 216.851 313.055 216.521 313.355L213.701 315.89H219.206V317ZM222.245 317.18C221.925 317.18 221.69 317.1 221.54 316.94C221.4 316.78 221.33 316.57 221.33 316.31V316.115C221.33 315.855 221.4 315.645 221.54 315.485C221.69 315.325 221.925 315.245 222.245 315.245C222.565 315.245 222.795 315.325 222.935 315.485C223.085 315.645 223.16 315.855 223.16 316.115V316.31C223.16 316.57 223.085 316.78 222.935 316.94C222.795 317.1 222.565 317.18 222.245 317.18ZM228.792 317.18C227.542 317.18 226.627 316.705 226.047 315.755C225.477 314.805 225.192 313.475 225.192 311.765C225.192 310.055 225.477 308.725 226.047 307.775C226.627 306.825 227.542 306.35 228.792 306.35C230.042 306.35 230.952 306.825 231.522 307.775C232.102 308.725 232.392 310.055 232.392 311.765C232.392 313.475 232.102 314.805 231.522 315.755C230.952 316.705 230.042 317.18 228.792 317.18ZM228.792 316.085C229.202 316.085 229.552 316 229.842 315.83C230.132 315.66 230.367 315.42 230.547 315.11C230.727 314.8 230.857 314.435 230.937 314.015C231.027 313.595 231.072 313.13 231.072 312.62V310.91C231.072 310.4 231.027 309.935 230.937 309.515C230.857 309.095 230.727 308.73 230.547 308.42C230.367 308.11 230.132 307.87 229.842 307.7C229.552 307.53 229.202 307.445 228.792 307.445C228.382 307.445 228.032 307.53 227.742 307.7C227.452 307.87 227.217 308.11 227.037 308.42C226.857 308.73 226.722 309.095 226.632 309.515C226.552 309.935 226.512 310.4 226.512 310.91V312.62C226.512 313.13 226.552 313.595 226.632 314.015C226.722 314.435 226.857 314.8 227.037 315.11C227.217 315.42 227.452 315.66 227.742 315.83C228.032 316 228.382 316.085 228.792 316.085ZM240.756 307.64H236.166L235.866 311.63H235.971C236.221 311.28 236.501 311 236.811 310.79C237.131 310.58 237.566 310.475 238.116 310.475C238.566 310.475 238.981 310.55 239.361 310.7C239.741 310.85 240.071 311.065 240.351 311.345C240.631 311.615 240.846 311.95 240.996 312.35C241.156 312.75 241.236 313.205 241.236 313.715C241.236 314.225 241.156 314.695 240.996 315.125C240.836 315.545 240.601 315.91 240.291 316.22C239.991 316.52 239.621 316.755 239.181 316.925C238.751 317.095 238.261 317.18 237.711 317.18C237.271 317.18 236.881 317.13 236.541 317.03C236.211 316.93 235.916 316.795 235.656 316.625C235.396 316.455 235.166 316.265 234.966 316.055C234.776 315.845 234.601 315.625 234.441 315.395L235.386 314.675C235.516 314.885 235.651 315.075 235.791 315.245C235.941 315.415 236.101 315.56 236.271 315.68C236.451 315.8 236.656 315.895 236.886 315.965C237.116 316.025 237.391 316.055 237.711 316.055C238.431 316.055 238.976 315.865 239.346 315.485C239.716 315.105 239.901 314.57 239.901 313.88V313.73C239.901 313.04 239.716 312.505 239.346 312.125C238.976 311.745 238.431 311.555 237.711 311.555C237.231 311.555 236.851 311.645 236.571 311.825C236.301 311.995 236.056 312.2 235.836 312.44L234.771 312.29L235.146 306.53H240.756V307.64ZM244.32 317.18C244 317.18 243.765 317.1 243.615 316.94C243.475 316.78 243.405 316.57 243.405 316.31V316.115C243.405 315.855 243.475 315.645 243.615 315.485C243.765 315.325 244 315.245 244.32 315.245C244.64 315.245 244.87 315.325 245.01 315.485C245.16 315.645 245.235 315.855 245.235 316.115V316.31C245.235 316.57 245.16 316.78 245.01 316.94C244.87 317.1 244.64 317.18 244.32 317.18ZM247.687 317V315.89H250.612V307.46H250.507L247.867 309.92L247.132 309.125L249.907 306.53H251.872V315.89H254.572V317H247.687ZM259.276 310.97C259.986 310.97 260.516 310.81 260.866 310.49C261.226 310.16 261.406 309.74 261.406 309.23V309.125C261.406 308.575 261.231 308.165 260.881 307.895C260.541 307.615 260.091 307.475 259.531 307.475C258.991 307.475 258.551 307.595 258.211 307.835C257.871 308.065 257.591 308.38 257.371 308.78L256.441 308.06C256.571 307.85 256.726 307.645 256.906 307.445C257.096 307.235 257.316 307.05 257.566 306.89C257.816 306.73 258.106 306.6 258.436 306.5C258.766 306.4 259.141 306.35 259.561 306.35C260.001 306.35 260.416 306.41 260.806 306.53C261.196 306.64 261.531 306.81 261.811 307.04C262.101 307.26 262.326 307.535 262.486 307.865C262.656 308.195 262.741 308.57 262.741 308.99C262.741 309.33 262.686 309.635 262.576 309.905C262.476 310.175 262.336 310.41 262.156 310.61C261.976 310.81 261.761 310.98 261.511 311.12C261.271 311.26 261.011 311.365 260.731 311.435V311.495C261.011 311.555 261.281 311.655 261.541 311.795C261.811 311.925 262.046 312.1 262.246 312.32C262.456 312.53 262.621 312.79 262.741 313.1C262.871 313.4 262.936 313.745 262.936 314.135C262.936 314.585 262.851 315 262.681 315.38C262.511 315.75 262.271 316.07 261.961 316.34C261.651 316.6 261.276 316.805 260.836 316.955C260.396 317.105 259.911 317.18 259.381 317.18C258.931 317.18 258.531 317.13 258.181 317.03C257.831 316.93 257.521 316.795 257.251 316.625C256.981 316.455 256.741 316.265 256.531 316.055C256.331 315.845 256.151 315.625 255.991 315.395L256.936 314.675C257.066 314.885 257.206 315.075 257.356 315.245C257.516 315.415 257.691 315.56 257.881 315.68C258.071 315.8 258.286 315.895 258.526 315.965C258.766 316.025 259.046 316.055 259.366 316.055C260.106 316.055 260.666 315.89 261.046 315.56C261.426 315.22 261.616 314.74 261.616 314.12V314C261.616 313.38 261.426 312.905 261.046 312.575C260.666 312.235 260.106 312.065 259.366 312.065H258.136V310.97H259.276ZM266.395 317.18C266.075 317.18 265.84 317.1 265.69 316.94C265.55 316.78 265.48 316.57 265.48 316.31V316.115C265.48 315.855 265.55 315.645 265.69 315.485C265.84 315.325 266.075 315.245 266.395 315.245C266.715 315.245 266.945 315.325 267.085 315.485C267.235 315.645 267.31 315.855 267.31 316.115V316.31C267.31 316.57 267.235 316.78 267.085 316.94C266.945 317.1 266.715 317.18 266.395 317.18Z" fill="white"/>
<path d="M405.59 293.465H406.73V306.485H405.59V293.465ZM396.02 294.53H403.355V295.49H396.02V294.53ZM395.63 302.21C396.06 302.21 396.725 302.2 397.625 302.18L397.175 296.72L398.3 296.63L398.66 302.165C399.31 302.155 399.96 302.125 400.61 302.075L401.09 296.615L402.2 296.72L401.66 302.015C402.39 301.965 403.165 301.885 403.985 301.775L404.105 302.675C403.085 302.835 401.835 302.955 400.355 303.035C398.885 303.115 397.345 303.155 395.735 303.155L395.63 302.21ZM419.594 300.65H410.714V294.365H419.459V295.34H411.854V299.675H419.594V300.65ZM421.184 304.025V305H408.944V304.025H421.184ZM433.883 293.465V301.445H432.788V297.95H430.778V301.28H429.698V293.675H430.778V297.02H432.788V293.465H433.883ZM428.033 300.5H422.813V294.275H423.863V296.45H426.968V294.26H428.033V300.5ZM426.968 297.35H423.863V299.6H426.968V297.35ZM425.063 302.27H433.883V307.145H432.758V303.245H425.063V302.27ZM450.472 300.905H449.317V293.465H450.472V300.905ZM446.257 299.72H440.002V294.005H446.257V299.72ZM445.117 294.935H441.157V298.79H445.117V294.935ZM444.172 300.845H448.312V301.745H444.172V300.845ZM451.102 306.425L450.592 307.25L446.542 305.585C446.412 305.535 446.287 305.51 446.167 305.51C446.027 305.51 445.897 305.54 445.777 305.6L445.747 305.615C445.387 305.875 444.887 306.135 444.247 306.395C443.617 306.665 442.797 306.96 441.787 307.28L441.292 306.47C442.422 306.14 443.297 305.84 443.917 305.57C444.547 305.3 444.992 305.03 445.252 304.76C445.522 304.48 445.672 304.165 445.702 303.815H441.652V302.915H450.712V303.815H446.797C446.787 304.095 446.737 304.35 446.647 304.58C446.557 304.81 446.412 305.025 446.212 305.225L446.302 305.24L446.557 305.06C446.727 304.94 446.862 304.88 446.962 304.88C447.002 304.88 447.092 304.9 447.232 304.94L451.102 306.425ZM457.506 299.735L456.876 298.865C458.196 298.265 459.206 297.725 459.906 297.245C460.606 296.765 461.091 296.29 461.361 295.82C461.641 295.35 461.781 294.805 461.781 294.185V293.72H462.951V294.215C462.951 294.725 462.886 295.18 462.756 295.58C462.636 295.98 462.441 296.36 462.171 296.72L462.246 296.75L462.636 296.465C462.766 296.365 462.901 296.315 463.041 296.315C463.171 296.315 463.291 296.35 463.401 296.42L467.691 298.805L467.046 299.69L462.591 297.125C462.451 297.045 462.316 297.005 462.186 297.005C462.046 297.005 461.911 297.055 461.781 297.155L461.766 297.17C461.366 297.56 460.826 297.955 460.146 298.355C459.476 298.755 458.596 299.215 457.506 299.735ZM468.396 302.135H462.846V307.01H461.706V302.135H456.156V301.175H468.396V302.135ZM479.625 296.69V293.465H480.765V301.295H479.625V297.62H476.895V296.69H479.625ZM470.715 300.845L469.86 300.125C470.7 299.465 471.35 298.895 471.81 298.415C472.27 297.925 472.6 297.445 472.8 296.975C473.01 296.495 473.115 295.96 473.115 295.37V295.22H470.25V294.26H477.09V295.22H474.255V295.415C474.255 296.265 474.08 297.01 473.73 297.65L473.82 297.695L474.06 297.515C474.17 297.435 474.28 297.395 474.39 297.395C474.52 297.395 474.635 297.44 474.735 297.53L477.525 299.87L476.685 300.62L473.85 298.16C473.77 298.1 473.695 298.07 473.625 298.07C473.545 298.07 473.475 298.1 473.415 298.16C473.145 298.55 472.8 298.95 472.38 299.36C471.96 299.77 471.405 300.265 470.715 300.845ZM480.84 304.4C480.84 304.94 480.68 305.42 480.36 305.84C480.05 306.27 479.575 306.605 478.935 306.845C478.305 307.095 477.535 307.22 476.625 307.22C475.705 307.22 474.925 307.095 474.285 306.845C473.655 306.605 473.18 306.27 472.86 305.84C472.55 305.42 472.395 304.94 472.395 304.4C472.395 303.86 472.55 303.38 472.86 302.96C473.18 302.53 473.655 302.195 474.285 301.955C474.925 301.705 475.705 301.58 476.625 301.58C477.535 301.58 478.305 301.705 478.935 301.955C479.575 302.195 480.05 302.53 480.36 302.96C480.68 303.38 480.84 303.86 480.84 304.4ZM479.64 304.28C479.64 303.77 479.39 303.345 478.89 303.005C478.39 302.655 477.635 302.48 476.625 302.48C475.605 302.48 474.84 302.655 474.33 303.005C473.83 303.345 473.58 303.77 473.58 304.28V304.535C473.58 305.035 473.83 305.455 474.33 305.795C474.84 306.145 475.605 306.32 476.625 306.32C477.635 306.32 478.39 306.145 478.89 305.795C479.39 305.455 479.64 305.035 479.64 304.535V304.28Z" fill="white"/>
<path d="M289.2 192.555H287.04V199.515H285.9V186.495H287.04V191.595H289.2V192.555ZM281.07 191.97C281.19 191.97 281.305 192.025 281.415 192.135L284.34 195.6L283.485 196.335L280.545 192.75C280.485 192.69 280.42 192.66 280.35 192.66C280.28 192.66 280.23 192.69 280.2 192.75C279.93 193.29 279.575 193.845 279.135 194.415C278.705 194.975 278.115 195.68 277.365 196.53L276.525 195.825C277.395 194.905 278.06 194.11 278.52 193.44C278.99 192.77 279.33 192.105 279.54 191.445C279.75 190.775 279.855 190.015 279.855 189.165V188.595H276.915V187.635H283.905V188.595H280.98V189.195C280.98 190.315 280.8 191.32 280.44 192.21L280.515 192.27L280.755 192.09C280.855 192.01 280.96 191.97 281.07 191.97ZM302.184 197.055V198H289.944V197.055H293.274V194.355H291.744V190.335H299.244V188.175H291.669V187.215H300.384V191.25H292.884V193.41H300.774V194.355H298.854V197.055H302.184ZM294.384 197.055H297.744V194.355H294.384V197.055ZM308.883 188.31H304.698V187.35H314.193V188.31H310.038C310.038 188.8 309.983 189.24 309.873 189.63C309.763 190.02 309.578 190.39 309.318 190.74L309.363 190.755L309.648 190.545C309.768 190.435 309.908 190.38 310.068 190.38C310.168 190.38 310.278 190.41 310.398 190.47L314.793 192.945L314.163 193.83L309.648 191.19C309.488 191.11 309.348 191.07 309.228 191.07C309.128 191.07 309.038 191.095 308.958 191.145C308.568 191.565 308.033 191.995 307.353 192.435C306.673 192.875 305.788 193.355 304.698 193.875L304.083 193.035C305.333 192.445 306.298 191.91 306.978 191.43C307.668 190.94 308.153 190.455 308.433 189.975C308.723 189.485 308.873 188.93 308.883 188.31ZM315.558 197.04V198H303.318V197.04H308.868V193.8H310.008V197.04H315.558ZM329.322 192.555H327.162V199.515H326.022V186.495H327.162V191.595H329.322V192.555ZM321.117 191.715C321.247 191.715 321.357 191.77 321.447 191.88L324.372 195.63L323.502 196.395L320.562 192.54C320.532 192.48 320.482 192.45 320.412 192.45C320.362 192.45 320.312 192.48 320.262 192.54C320.002 193.12 319.652 193.72 319.212 194.34C318.772 194.95 318.177 195.7 317.427 196.59L316.557 195.855C317.427 194.865 318.092 194.02 318.552 193.32C319.022 192.61 319.357 191.9 319.557 191.19C319.767 190.48 319.872 189.665 319.872 188.745V187.335H321.027V188.73C321.027 189.92 320.852 191 320.502 191.97L320.577 192.015L320.802 191.835C320.912 191.755 321.017 191.715 321.117 191.715ZM344.846 193.905H343.691V186.465H344.846V193.905ZM340.631 192.72H334.376V187.005H340.631V192.72ZM339.491 187.935H335.531V191.79H339.491V187.935ZM338.546 193.845H342.686V194.745H338.546V193.845ZM345.476 199.425L344.966 200.25L340.916 198.585C340.786 198.535 340.661 198.51 340.541 198.51C340.401 198.51 340.271 198.54 340.151 198.6L340.121 198.615C339.761 198.875 339.261 199.135 338.621 199.395C337.991 199.665 337.171 199.96 336.161 200.28L335.666 199.47C336.796 199.14 337.671 198.84 338.291 198.57C338.921 198.3 339.366 198.03 339.626 197.76C339.896 197.48 340.046 197.165 340.076 196.815H336.026V195.915H345.086V196.815H341.171C341.161 197.095 341.111 197.35 341.021 197.58C340.931 197.81 340.786 198.025 340.586 198.225L340.676 198.24L340.931 198.06C341.101 197.94 341.236 197.88 341.336 197.88C341.376 197.88 341.466 197.9 341.606 197.94L345.476 199.425ZM361.435 188.265H351.865V187.29H361.435V188.265ZM361.555 194.025H351.73V193.065H354.115L353.605 189.525L354.76 189.42L355.18 193.065H358.105L358.525 189.42L359.68 189.525L359.17 193.065H361.555V194.025ZM362.77 197.025V198H350.53V197.025H362.77ZM376.144 197.04V198H363.904V197.04H369.454V194.475H365.704V190.41H373.204V188.205H365.629V187.26H374.344V191.325H366.844V193.53H374.734V194.475H370.594V197.04H376.144ZM389.518 197.04V198H377.278V197.04H382.828V194.49H379.033V187.275H387.823V188.22H380.173V190.425H387.613V191.34H380.188V193.53H388.078V194.49H383.968V197.04H389.518ZM403.282 192.555H401.122V199.515H399.982V186.495H401.122V191.595H403.282V192.555ZM398.497 194.91L398.647 195.825C397.127 196.125 395.197 196.275 392.857 196.275H391.267V187.455H397.297V188.4H392.392V191.295H397.102V192.225H392.392V195.345H392.887C395.077 195.345 396.947 195.2 398.497 194.91ZM414.046 186.465H415.186V199.485H414.046V186.465ZM404.416 191.73C404.416 190.27 404.736 189.165 405.376 188.415C406.026 187.665 406.881 187.29 407.941 187.29C408.991 187.29 409.836 187.665 410.476 188.415C411.126 189.165 411.451 190.27 411.451 191.73C411.451 192.71 411.301 193.535 411.001 194.205C410.701 194.865 410.286 195.36 409.756 195.69C409.226 196.01 408.621 196.17 407.941 196.17C406.881 196.17 406.026 195.795 405.376 195.045C404.736 194.295 404.416 193.19 404.416 191.73ZM410.236 192.315V191.145C410.236 190.215 410.021 189.5 409.591 189C409.171 188.5 408.621 188.25 407.941 188.25C407.251 188.25 406.691 188.5 406.261 189C405.841 189.49 405.631 190.205 405.631 191.145V192.315C405.631 193.255 405.841 193.975 406.261 194.475C406.691 194.965 407.251 195.21 407.941 195.21C408.621 195.21 409.171 194.96 409.591 194.46C410.021 193.96 410.236 193.245 410.236 192.315ZM427.48 186.465H428.62V194.4H427.48V186.465ZM417.91 187.275H425.26V188.22H417.91V187.275ZM417.52 192.81C418.39 192.81 419.04 192.805 419.47 192.795L419.095 189.21L420.175 189.12L420.475 192.78C421.135 192.76 421.63 192.74 421.96 192.72L422.605 192.69L422.98 189.09L424.075 189.195L423.64 192.645C424.41 192.595 425.16 192.525 425.89 192.435L426.01 193.32C424.98 193.46 423.72 193.565 422.23 193.635C420.74 193.705 419.205 193.74 417.625 193.74L417.52 192.81ZM420.265 197.49C420.265 196.96 420.42 196.49 420.73 196.08C421.05 195.67 421.525 195.345 422.155 195.105C422.795 194.865 423.575 194.745 424.495 194.745C425.405 194.745 426.175 194.865 426.805 195.105C427.445 195.345 427.92 195.67 428.23 196.08C428.55 196.49 428.71 196.96 428.71 197.49C428.71 198.03 428.55 198.505 428.23 198.915C427.92 199.335 427.445 199.665 426.805 199.905C426.175 200.145 425.405 200.265 424.495 200.265C423.575 200.265 422.795 200.145 422.155 199.905C421.525 199.665 421.05 199.335 420.73 198.915C420.42 198.505 420.265 198.03 420.265 197.49ZM427.495 197.625V197.385C427.495 196.905 427.245 196.5 426.745 196.17C426.245 195.83 425.495 195.66 424.495 195.66C423.485 195.66 422.725 195.83 422.215 196.17C421.715 196.5 421.465 196.905 421.465 197.385V197.625C421.465 197.925 421.57 198.205 421.78 198.465C422 198.735 422.335 198.95 422.785 199.11C423.245 199.27 423.815 199.35 424.495 199.35C425.175 199.35 425.74 199.27 426.19 199.11C426.64 198.95 426.97 198.735 427.18 198.465C427.39 198.205 427.495 197.925 427.495 197.625Z" fill="#333333"/>
<path d="M335.73 445.465V458.485H334.59V445.465H335.73ZM332.715 453.685L332.865 454.6C331.315 454.91 329.385 455.065 327.075 455.065H325.47V446.53H331.515V447.49H326.625V454.105H327.045C329.335 454.105 331.225 453.965 332.715 453.685ZM350.574 451.555H348.414V458.515H347.274V445.495H348.414V450.595H350.574V451.555ZM342.444 450.97C342.564 450.97 342.679 451.025 342.789 451.135L345.714 454.6L344.859 455.335L341.919 451.75C341.859 451.69 341.794 451.66 341.724 451.66C341.654 451.66 341.604 451.69 341.574 451.75C341.304 452.29 340.949 452.845 340.509 453.415C340.079 453.975 339.489 454.68 338.739 455.53L337.899 454.825C338.769 453.905 339.434 453.11 339.894 452.44C340.364 451.77 340.704 451.105 340.914 450.445C341.124 449.775 341.229 449.015 341.229 448.165V447.595H338.289V446.635H345.279V447.595H342.354V448.195C342.354 449.315 342.174 450.32 341.814 451.21L341.889 451.27L342.129 451.09C342.229 451.01 342.334 450.97 342.444 450.97ZM362.553 445.465V455.35H361.398V445.465H362.553ZM351.753 449.515C351.753 448.815 351.898 448.205 352.188 447.685C352.488 447.165 352.898 446.77 353.418 446.5C353.938 446.22 354.533 446.08 355.203 446.08C355.863 446.08 356.453 446.22 356.973 446.5C357.503 446.77 357.913 447.165 358.203 447.685C358.503 448.205 358.653 448.815 358.653 449.515C358.653 450.205 358.503 450.81 358.203 451.33C357.913 451.85 357.503 452.25 356.973 452.53C356.453 452.8 355.863 452.935 355.203 452.935C354.533 452.935 353.938 452.8 353.418 452.53C352.898 452.25 352.488 451.855 352.188 451.345C351.898 450.825 351.753 450.215 351.753 449.515ZM357.438 449.83V449.2C357.438 448.54 357.228 448.015 356.808 447.625C356.398 447.225 355.863 447.025 355.203 447.025C354.533 447.025 353.988 447.225 353.568 447.625C353.158 448.025 352.953 448.55 352.953 449.2V449.83C352.953 450.48 353.163 451.005 353.583 451.405C354.003 451.795 354.543 451.99 355.203 451.99C355.863 451.99 356.398 451.795 356.808 451.405C357.228 451.005 357.438 450.48 357.438 449.83ZM354.213 458.005V454.27H355.368V457.825H362.823V458.77H354.963C354.723 458.77 354.538 458.705 354.408 458.575C354.278 458.445 354.213 458.255 354.213 458.005ZM380.882 449.815H378.797V453.355H377.657V445.465H378.797V448.855H380.882V449.815ZM369.137 452.995L368.297 452.275C369.137 451.595 369.787 451.01 370.247 450.52C370.707 450.03 371.037 449.545 371.237 449.065C371.447 448.575 371.552 448.03 371.552 447.43V447.28H368.687V446.32H375.542V447.28H372.692V447.475C372.692 448.305 372.517 449.06 372.167 449.74L372.257 449.785L372.482 449.62C372.592 449.53 372.702 449.485 372.812 449.485C372.922 449.485 373.037 449.535 373.157 449.635L375.962 452.02L375.122 452.77L372.272 450.265C372.212 450.205 372.142 450.175 372.062 450.175C371.982 450.175 371.912 450.205 371.852 450.265C371.592 450.655 371.252 451.055 370.832 451.465C370.412 451.875 369.847 452.385 369.137 452.995ZM370.352 454.165H378.797V459.145H377.672V455.125H370.352V454.165ZM392.846 445.465V452.695H391.706V449.53H388.811C388.711 450.38 388.351 451.055 387.731 451.555C387.111 452.045 386.341 452.29 385.421 452.29C384.761 452.29 384.171 452.16 383.651 451.9C383.141 451.64 382.741 451.27 382.451 450.79C382.161 450.3 382.016 449.73 382.016 449.08C382.016 448.43 382.161 447.865 382.451 447.385C382.741 446.895 383.141 446.52 383.651 446.26C384.171 446 384.761 445.87 385.421 445.87C386.341 445.87 387.106 446.115 387.716 446.605C388.336 447.085 388.701 447.745 388.811 448.585H391.706V445.465H392.846ZM387.641 448.825C387.641 448.215 387.436 447.725 387.026 447.355C386.616 446.985 386.081 446.8 385.421 446.8C384.761 446.8 384.226 446.985 383.816 447.355C383.416 447.725 383.216 448.215 383.216 448.825V449.32C383.216 449.94 383.416 450.435 383.816 450.805C384.226 451.175 384.761 451.36 385.421 451.36C386.081 451.36 386.616 451.175 387.026 450.805C387.436 450.435 387.641 449.94 387.641 449.32V448.825ZM391.706 453.535H392.846V459.025H385.361C385.121 459.025 384.936 458.96 384.806 458.83C384.676 458.7 384.611 458.51 384.611 458.26V453.535H385.721V455.26H391.706V453.535ZM391.706 456.235H385.721V458.05H391.706V456.235Z" fill="white"/>
<path d="M139.475 332.265H129.905V331.29H139.475V332.265ZM139.595 338.025H129.77V337.065H132.155L131.645 333.525L132.8 333.42L133.22 337.065H136.145L136.565 333.42L137.72 333.525L137.21 337.065H139.595V338.025ZM140.81 341.025V342H128.57V341.025H140.81ZM154.184 341.04V342H141.944V341.04H147.494V338.475H143.744V334.41H151.244V332.205H143.669V331.26H152.384V335.325H144.884V337.53H152.774V338.475H148.634V341.04H154.184ZM166.883 330.465V343.485H165.773V330.465H166.883ZM162.773 330.69H163.868V343.125H162.773V335.94H160.688V334.98H162.773V330.69ZM159.113 335.865C159.253 335.865 159.358 335.925 159.428 336.045L161.873 339.645L161.018 340.365L158.618 336.72C158.588 336.66 158.543 336.63 158.483 336.63C158.423 336.63 158.378 336.665 158.348 336.735C158.138 337.285 157.848 337.855 157.478 338.445C157.108 339.035 156.608 339.75 155.978 340.59L155.168 339.885C155.908 338.905 156.473 338.065 156.863 337.365C157.253 336.665 157.528 335.97 157.688 335.28C157.858 334.59 157.943 333.79 157.943 332.88V331.53H159.038V332.865C159.038 334.055 158.898 335.12 158.618 336.06L158.663 336.105L158.828 335.97C158.908 335.9 159.003 335.865 159.113 335.865ZM169.952 337.965L169.307 337.08C170.667 336.38 171.707 335.76 172.427 335.22C173.157 334.67 173.662 334.125 173.942 333.585C174.222 333.035 174.362 332.405 174.362 331.695V331.185H175.532V331.725C175.532 332.305 175.467 332.825 175.337 333.285C175.217 333.735 175.012 334.16 174.722 334.56L174.797 334.605L175.172 334.32C175.302 334.22 175.432 334.17 175.562 334.17C175.692 334.17 175.822 334.215 175.952 334.305L180.317 337.02L179.657 337.92L175.142 335.01C175.012 334.92 174.872 334.875 174.722 334.875C174.592 334.875 174.462 334.925 174.332 335.025C173.922 335.465 173.367 335.92 172.667 336.39C171.967 336.85 171.062 337.375 169.952 337.965ZM180.932 341.025V342H168.692V341.025H180.932ZM197.176 330.465V343.485H196.096V330.465H197.176ZM193.186 330.69H194.251V343.125H193.186V336.39H191.536V335.445H193.186V330.69ZM191.836 332.715H185.716V331.77H191.836V332.715ZM192.166 338.865L192.271 339.75C191.441 339.91 190.426 340.035 189.226 340.125C188.036 340.205 186.811 340.245 185.551 340.245L185.446 339.3C186.176 339.3 186.726 339.295 187.096 339.285L186.721 333.93L187.771 333.825L188.056 339.255C188.396 339.245 188.846 339.22 189.406 339.18L189.781 333.81L190.831 333.915L190.381 339.12C191.171 339.03 191.766 338.945 192.166 338.865ZM209.005 330.465H210.145V343.485H209.005V330.465ZM199.375 335.73C199.375 334.27 199.695 333.165 200.335 332.415C200.985 331.665 201.84 331.29 202.9 331.29C203.95 331.29 204.795 331.665 205.435 332.415C206.085 333.165 206.41 334.27 206.41 335.73C206.41 336.71 206.26 337.535 205.96 338.205C205.66 338.865 205.245 339.36 204.715 339.69C204.185 340.01 203.58 340.17 202.9 340.17C201.84 340.17 200.985 339.795 200.335 339.045C199.695 338.295 199.375 337.19 199.375 335.73ZM205.195 336.315V335.145C205.195 334.215 204.98 333.5 204.55 333C204.13 332.5 203.58 332.25 202.9 332.25C202.21 332.25 201.65 332.5 201.22 333C200.8 333.49 200.59 334.205 200.59 335.145V336.315C200.59 337.255 200.8 337.975 201.22 338.475C201.65 338.965 202.21 339.21 202.9 339.21C203.58 339.21 204.13 338.96 204.55 338.46C204.98 337.96 205.195 337.245 205.195 336.315ZM223.519 330.465V343.485H222.379V330.465H223.519ZM217.249 335.97C217.389 335.97 217.504 336.025 217.594 336.135L220.534 339.585L219.679 340.32L216.709 336.75C216.659 336.69 216.599 336.66 216.529 336.66C216.469 336.66 216.414 336.69 216.364 336.75C216.094 337.3 215.739 337.86 215.299 338.43C214.859 339 214.259 339.7 213.499 340.53L212.644 339.81C213.514 338.9 214.184 338.11 214.654 337.44C215.134 336.77 215.479 336.105 215.689 335.445C215.899 334.775 216.004 334.015 216.004 333.165V332.595H213.049V331.635H220.084V332.595H217.144V333.21C217.144 334.34 216.969 335.345 216.619 336.225L216.694 336.27L216.919 336.09C217.029 336.01 217.139 335.97 217.249 335.97ZM240.843 330.465V343.485H239.748V330.465H240.843ZM236.763 330.69H237.828V343.125H236.763V335.955H234.678V335.01H236.763V330.69ZM233.118 336.12C233.238 336.12 233.353 336.19 233.463 336.33L235.848 339.675L235.038 340.365L232.638 336.915C232.588 336.855 232.538 336.825 232.488 336.825C232.438 336.825 232.398 336.855 232.368 336.915C232.158 337.435 231.868 337.975 231.498 338.535C231.138 339.085 230.648 339.765 230.028 340.575L229.233 339.9C229.963 338.97 230.523 338.17 230.913 337.5C231.303 336.82 231.583 336.15 231.753 335.49C231.923 334.82 232.008 334.06 232.008 333.21V332.775H229.548V331.815H235.503V332.775H233.088V333.21C233.088 334.37 232.928 335.4 232.608 336.3L232.683 336.345L232.833 336.225C232.943 336.155 233.038 336.12 233.118 336.12ZM255.297 334.815H253.212V338.355H252.072V330.465H253.212V333.855H255.297V334.815ZM243.552 337.995L242.712 337.275C243.552 336.595 244.202 336.01 244.662 335.52C245.122 335.03 245.452 334.545 245.652 334.065C245.862 333.575 245.967 333.03 245.967 332.43V332.28H243.102V331.32H249.957V332.28H247.107V332.475C247.107 333.305 246.932 334.06 246.582 334.74L246.672 334.785L246.897 334.62C247.007 334.53 247.117 334.485 247.227 334.485C247.337 334.485 247.452 334.535 247.572 334.635L250.377 337.02L249.537 337.77L246.687 335.265C246.627 335.205 246.557 335.175 246.477 335.175C246.397 335.175 246.327 335.205 246.267 335.265C246.007 335.655 245.667 336.055 245.247 336.465C244.827 336.875 244.262 337.385 243.552 337.995ZM244.767 339.165H253.212V344.145H252.087V340.125H244.767V339.165Z" fill="white"/>
<path d="M550.235 214.197C550.725 214.453 551.329 214.264 551.585 213.775L555.759 205.801C556.015 205.312 555.826 204.708 555.337 204.451C554.847 204.195 554.243 204.384 553.987 204.874L550.277 211.961L543.189 208.251C542.7 207.995 542.096 208.184 541.84 208.674C541.583 209.163 541.772 209.767 542.262 210.023L550.235 214.197ZM444.736 98.6255C450.901 99.3179 459.301 102.799 468.806 108.732C478.286 114.648 488.778 122.948 499.112 133.168C519.785 153.615 539.758 181.683 549.745 213.61L551.654 213.013C541.546 180.7 521.362 152.362 500.518 131.746C490.094 121.436 479.487 113.04 469.865 107.035C460.268 101.046 451.565 97.3799 444.959 96.638L444.736 98.6255Z" fill="#EDE6DB"/>
</svg>
