<svg width="365" height="724" viewBox="0 0 365 724" fill="none" xmlns="http://www.w3.org/2000/svg">
<path fill-rule="evenodd" clip-rule="evenodd" d="M1 140.009V0.00540862C1.66624 0.00180441 2.33291 0 3 0C202.927 0 365 162.073 365 362C365 561.927 202.927 724 3 724C2.33291 724 1.66624 723.998 1 723.995V583.991C1.66598 583.997 2.33265 584 3.00002 584C125.607 584 225 484.607 225 362C225 239.393 125.607 140 3.00002 140C2.33265 140 1.66598 140.003 1 140.009Z" fill="#EBECF1"/>
<path fill-rule="evenodd" clip-rule="evenodd" d="M1 140.009V0.00540862C1.66624 0.00180441 2.33291 0 3 0C202.927 0 365 162.073 365 362C365 561.927 202.927 724 3 724C2.33291 724 1.66624 723.998 1 723.995V583.991C1.66598 583.997 2.33265 584 3.00002 584C125.607 584 225 484.607 225 362C225 239.393 125.607 140 3.00002 140C2.33265 140 1.66598 140.003 1 140.009Z" fill="#1B1C25"/>
<path fill-rule="evenodd" clip-rule="evenodd" d="M0.975035 140.009C1.64931 140.003 2.3243 140 3 140C51.2024 140 95.8166 155.362 132.214 181.458L214.385 68.0956C154.91 25.2438 81.9031 0 3 0C2.31747 0 1.63537 0.00188893 0.953725 0.00566185L0.975035 140.009Z" fill="#1B1C25"/>
<path d="M65.8967 89.1441V90.8441H49.4967V89.1441H56.6967V84.9441H51.8167V76.4441H63.6567V78.1641H53.8567V83.2041H63.7967V84.9441H58.7167V89.1441H65.8967ZM81.8487 79.8641V75.2641H83.8687V88.4841H81.8487V81.5641H78.5287V79.8641H81.8487ZM74.2487 82.3241C74.1421 82.3241 74.0487 82.3641 73.9687 82.4441C73.5954 82.9908 73.1287 83.5508 72.5687 84.1241C72.0221 84.6975 71.3154 85.3775 70.4487 86.1641L68.9487 84.8841C70.0021 84.0041 70.8354 83.2175 71.4487 82.5241C72.0621 81.8175 72.5087 81.1241 72.7887 80.4441C73.0821 79.7508 73.2287 79.0041 73.2287 78.2041H69.5487V76.5241H78.8887V78.2041H75.2487V78.2841C75.2487 79.4575 75.0021 80.5508 74.5087 81.5641L74.6087 81.6241L75.0287 81.3241C75.2021 81.1908 75.3821 81.1241 75.5687 81.1241C75.7954 81.1241 75.9954 81.2041 76.1687 81.3641L79.5687 84.4641L78.0687 85.7841L74.5487 82.4441C74.4554 82.3641 74.3554 82.3241 74.2487 82.3241ZM84.2287 91.5041V93.1641H73.8287C73.4021 93.1641 73.0754 93.0508 72.8487 92.8241C72.6354 92.5975 72.5287 92.2708 72.5287 91.8441V87.2241H74.5487V91.5041H84.2287ZM101.081 79.4641V75.2641H103.101V85.7441H101.081V81.1241H97.7608V79.4641H101.081ZM89.6808 85.3841L88.1808 84.0841C89.2341 83.2975 90.0674 82.5841 90.6808 81.9441C91.2941 81.3041 91.7408 80.6708 92.0208 80.0441C92.3141 79.4175 92.4608 78.7308 92.4608 77.9841H88.7808V76.3041H98.1208V77.9841H94.4808V78.1041C94.4808 79.1975 94.2341 80.2041 93.7408 81.1241L93.8608 81.2041L94.2808 80.9041C94.4674 80.7575 94.6541 80.6841 94.8408 80.6841C95.0408 80.6841 95.2341 80.7575 95.4208 80.9041L98.8008 83.7241L97.3008 85.0441L93.8008 81.9841C93.7074 81.9041 93.5941 81.8641 93.4608 81.8641C93.3674 81.8641 93.2741 81.8975 93.1808 81.9641C92.8074 82.4708 92.3474 82.9908 91.8008 83.5241C91.2541 84.0441 90.5474 84.6641 89.6808 85.3841ZM103.161 89.9041C103.161 90.6508 102.941 91.3108 102.501 91.8841C102.061 92.4708 101.407 92.9308 100.541 93.2641C99.6741 93.5975 98.6341 93.7641 97.4208 93.7641C96.1941 93.7641 95.1474 93.5975 94.2808 93.2641C93.4141 92.9308 92.7608 92.4708 92.3208 91.8841C91.8808 91.3108 91.6608 90.6508 91.6608 89.9041C91.6608 89.1575 91.8808 88.4975 92.3208 87.9241C92.7608 87.3375 93.4141 86.8841 94.2808 86.5641C95.1474 86.2308 96.1941 86.0641 97.4208 86.0641C98.6474 86.0641 99.6874 86.2308 100.541 86.5641C101.407 86.8841 102.061 87.3375 102.501 87.9241C102.941 88.4975 103.161 89.1575 103.161 89.9041ZM101.041 89.7641C101.041 89.1641 100.741 88.6641 100.141 88.2641C99.5408 87.8508 98.6341 87.6441 97.4208 87.6441C96.2074 87.6441 95.2941 87.8508 94.6808 88.2641C94.0808 88.6641 93.7808 89.1641 93.7808 89.7641V90.0641C93.7808 90.6641 94.0808 91.1641 94.6808 91.5641C95.2941 91.9641 96.2074 92.1641 97.4208 92.1641C98.6341 92.1641 99.5408 91.9641 100.141 91.5641C100.741 91.1641 101.041 90.6641 101.041 90.0641V89.7641ZM122.333 88.4841H120.313V75.2641H122.333V88.4841ZM112.673 81.8841C112.579 81.8841 112.499 81.9241 112.433 82.0041C112.046 82.6175 111.559 83.2441 110.973 83.8841C110.399 84.5108 109.679 85.2241 108.813 86.0241L107.313 84.7041C108.393 83.7575 109.239 82.9108 109.853 82.1641C110.466 81.4175 110.906 80.6775 111.173 79.9441C111.453 79.1975 111.593 78.3775 111.593 77.4841V76.1841H113.633V77.5841C113.633 78.9041 113.386 80.0975 112.893 81.1641L112.993 81.2241L113.433 80.8641C113.619 80.7041 113.799 80.6241 113.973 80.6241C114.159 80.6241 114.333 80.7108 114.493 80.8841L118.013 84.3041L116.533 85.7041L112.933 82.0041C112.853 81.9241 112.766 81.8841 112.673 81.8841ZM122.693 91.5041V93.1641H112.293C111.866 93.1641 111.539 93.0508 111.313 92.8241C111.099 92.5975 110.993 92.2708 110.993 91.8441V87.0441H113.013V91.5041H122.693Z" fill="#EBECF1"/>
<path fill-rule="evenodd" clip-rule="evenodd" d="M346.612 247.782C322.172 174.22 274.77 111.138 212.903 67.0336L130.731 180.404C168.983 207.359 198.337 246.095 213.516 291.334L346.612 247.782Z" fill="#273F65"/>
<path d="M225.959 192.359V194.059H223.219V198.659H221.199V187.939H223.219V192.359H225.959ZM219.499 197.519C217.299 197.933 214.665 198.139 211.599 198.139H209.619V188.819H217.879V190.459H211.579V192.579H217.619V194.219H211.579V196.519H211.719C214.505 196.519 217.019 196.319 219.259 195.919L219.499 197.519ZM212.139 199.579H223.239V206.179H213.439C213.012 206.179 212.685 206.066 212.459 205.839C212.245 205.613 212.139 205.286 212.139 204.859V199.579ZM214.179 204.519H221.199V201.259H214.179V204.519ZM244.671 198.439H237.471V206.119H235.451V198.439H228.271V196.719H239.711C240.124 194.706 240.351 192.599 240.391 190.399H230.411V188.699H242.391V190.039C242.391 192.293 242.164 194.519 241.711 196.719H244.671V198.439ZM262.643 187.939V198.039H260.623V187.939H262.643ZM253.003 194.019C252.896 194.019 252.803 194.066 252.723 194.159C252.363 194.733 251.896 195.319 251.323 195.919C250.763 196.519 250.029 197.226 249.123 198.039L247.623 196.719C248.703 195.799 249.549 194.979 250.163 194.259C250.776 193.539 251.216 192.826 251.483 192.119C251.763 191.413 251.903 190.633 251.903 189.779V188.599H253.943V189.899C253.943 191.153 253.696 192.293 253.203 193.319L253.303 193.399L253.743 193.019C253.929 192.859 254.109 192.779 254.283 192.779C254.456 192.779 254.636 192.859 254.823 193.019L258.323 196.239L256.863 197.659L253.263 194.139C253.183 194.059 253.096 194.019 253.003 194.019ZM251.363 199.039H262.643V206.179H252.663C252.236 206.179 251.909 206.066 251.683 205.839C251.469 205.613 251.363 205.286 251.363 204.859V199.039ZM253.383 204.499H260.623V200.719H253.383V204.499Z" fill="#EBECF1"/>
<path fill-rule="evenodd" clip-rule="evenodd" d="M346.607 247.765L213.396 290.978C220.921 313.277 225 337.162 225 362C225 386.503 221.03 410.079 213.699 432.12L346.905 475.331C358.647 439.681 365 401.582 365 362C365 322.083 358.539 283.676 346.607 247.765Z" fill="#1B1C25"/>
<path d="M270.204 353.96H258.604V347.1H270.204V353.96ZM268.204 348.74H260.604V352.32H268.204V348.74ZM272.604 355.66V357.38H265.544V360.88H263.504V357.38H256.204V355.66H272.604ZM260.484 362.9H270.484V364.58H259.764C259.337 364.58 259.011 364.467 258.784 364.24C258.571 364.013 258.464 363.687 258.464 363.26V359.14H260.484V362.9ZM290.976 346.54V364.06H289.036V346.54H290.976ZM285.156 346.82H287.076V363.58H285.156V354.1H282.636V352.44H285.156V346.82ZM280.856 354.32C281.083 354.32 281.276 354.427 281.436 354.64L284.296 358.7L282.856 359.9L279.956 355.66C279.889 355.58 279.823 355.54 279.756 355.54C279.676 355.54 279.616 355.58 279.576 355.66C279.283 356.313 278.896 357 278.416 357.72C277.936 358.44 277.336 359.267 276.616 360.2L275.196 359.02C276.116 357.86 276.829 356.833 277.336 355.94C277.856 355.033 278.229 354.14 278.456 353.26C278.696 352.38 278.816 351.407 278.816 350.34V349.98H275.696V348.28H283.736V349.98H280.716V350.32C280.716 351.84 280.483 353.267 280.016 354.6L280.116 354.66L280.376 354.48C280.523 354.373 280.683 354.32 280.856 354.32ZM316.335 346.54V364.06H314.395V355.1H312.395V363.58H310.455V346.82H312.395V353.44H314.395V346.54H316.335ZM307.895 349.54H302.635V347.9H307.895V349.54ZM300.655 351.36H309.635V352.96H307.475V353.06C308.448 353.633 308.935 354.68 308.935 356.2C308.935 357.453 308.588 358.44 307.895 359.16C307.215 359.867 306.315 360.22 305.195 360.22C304.061 360.22 303.155 359.867 302.475 359.16C301.795 358.44 301.455 357.453 301.455 356.2C301.455 354.693 301.935 353.653 302.895 353.08V352.96H300.655V351.36ZM307.035 355.32C307.035 354.64 306.868 354.113 306.535 353.74C306.215 353.367 305.768 353.18 305.195 353.18C304.621 353.18 304.168 353.367 303.835 353.74C303.515 354.113 303.355 354.64 303.355 355.32V356.44C303.355 357.107 303.521 357.633 303.855 358.02C304.201 358.393 304.648 358.58 305.195 358.58C305.741 358.58 306.181 358.393 306.515 358.02C306.861 357.633 307.035 357.107 307.035 356.44V355.32ZM333.147 354H329.507V352.4H333.147V350.38H329.507V348.76H333.147V346.54H335.167V355.68H333.147V354ZM321.627 356.2L320.567 354.68C322.233 354.08 323.52 353.527 324.427 353.02C325.333 352.5 325.967 351.973 326.327 351.44C326.687 350.893 326.867 350.26 326.867 349.54V349H321.107V347.3H328.907V349.28C328.907 350.4 328.687 351.34 328.247 352.1C327.82 352.86 327.087 353.56 326.047 354.2C325.02 354.827 323.547 355.493 321.627 356.2ZM335.607 363.16V364.9H325.087C324.66 364.9 324.333 364.787 324.107 364.56C323.893 364.333 323.787 364.007 323.787 363.58V359.94H333.127V358.42H323.687V356.7H335.187V361.62H325.847V363.16H335.607ZM292.619 383.06H280.959V377.08H282.979V381.42H292.619V383.06ZM294.899 384.82V386.56H278.499V384.82H294.899ZM292.699 391.6C292.699 392.667 292.179 393.52 291.139 394.16C290.099 394.8 288.619 395.12 286.699 395.12C284.779 395.12 283.299 394.8 282.259 394.16C281.219 393.52 280.699 392.667 280.699 391.6C280.699 390.907 280.926 390.3 281.379 389.78C281.846 389.247 282.526 388.833 283.419 388.54C284.326 388.247 285.419 388.1 286.699 388.1C287.979 388.1 289.066 388.247 289.959 388.54C290.866 388.833 291.546 389.247 291.999 389.78C292.466 390.3 292.699 390.907 292.699 391.6ZM290.579 391.48C290.579 390.973 290.253 390.553 289.599 390.22C288.959 389.873 287.993 389.7 286.699 389.7C285.406 389.7 284.433 389.873 283.779 390.22C283.126 390.553 282.799 390.973 282.799 391.48V391.76C282.799 392.253 283.126 392.667 283.779 393C284.433 393.347 285.406 393.52 286.699 393.52C287.993 393.52 288.959 393.347 289.599 393C290.253 392.667 290.579 392.253 290.579 391.76V391.48ZM312.871 376.54V387.46H310.851V384.4H307.651V382.78H310.851V380.62H307.651V379.02H310.851V376.54H312.871ZM307.531 386.32C305.585 386.733 303.245 386.94 300.511 386.94H298.771V381.32H304.271V379.16H298.711V377.52H306.231V382.92H300.731V385.3H300.891C303.278 385.3 305.405 385.113 307.271 384.74L307.531 386.32ZM301.231 388.46H312.871V394.96H310.891V390.16H301.231V388.46Z" fill="#EBECF1"/>
<path fill-rule="evenodd" clip-rule="evenodd" d="M347.426 473.739L214.332 430.188C199.571 475.969 170.348 515.255 132.045 542.663L214.213 656.029C276.13 611.472 323.403 547.841 347.426 473.739Z" fill="#273F65"/>
<path d="M198.824 521.54V539.06H196.804V529.92H193.424V528.22H196.804V521.54H198.824ZM185.004 523.02H192.944V526.3C192.944 527.727 192.697 528.96 192.204 530C191.724 531.04 190.951 532.007 189.884 532.9C188.817 533.793 187.324 534.78 185.404 535.86L184.224 534.36C186.131 533.307 187.564 532.373 188.524 531.56C189.497 530.747 190.171 529.853 190.544 528.88L184.504 529.4L184.224 527.7L190.924 527.32C190.964 526.973 190.984 526.62 190.984 526.26V524.68H185.004V523.02ZM217.016 529.6H205.296V522.1H217.016V529.6ZM214.996 523.78H207.316V527.92H214.996V523.78ZM219.356 533.4H215.296V539.62H213.296V533.4H209.016V539.62H207.016V533.4H202.956V531.7H219.356V533.4ZM237.268 521.54V539.06H235.228V521.54H237.268ZM233.068 532.02L233.308 533.68C231.081 534.12 228.388 534.34 225.228 534.34H223.188V522.94H225.208V532.62C228.248 532.62 230.868 532.42 233.068 532.02ZM256.96 521.54V539.06H255.02V521.54H256.96ZM251.12 521.82H253.02V538.58H251.12V529.74H248.62C248.233 530.78 247.593 531.76 246.7 532.68C245.807 533.6 244.567 534.62 242.98 535.74L241.7 534.4C243.207 533.347 244.36 532.42 245.16 531.62C245.973 530.807 246.54 529.94 246.86 529.02L241.9 529.46L241.68 527.82L247.2 527.52C247.24 527.2 247.26 526.86 247.26 526.5V524.86H242.32V523.26H249.14V526.52C249.14 527 249.107 527.52 249.04 528.08H251.12V521.82ZM273.692 521.54H275.732V539.06H273.692V521.54ZM261.092 528.64C261.092 526.653 261.525 525.16 262.392 524.16C263.272 523.147 264.439 522.64 265.892 522.64C267.332 522.64 268.485 523.147 269.352 524.16C270.232 525.16 270.672 526.653 270.672 528.64C270.672 530.613 270.232 532.107 269.352 533.12C268.485 534.133 267.332 534.64 265.892 534.64C264.452 534.64 263.292 534.133 262.412 533.12C261.532 532.107 261.092 530.613 261.092 528.64ZM268.512 529.62V527.66C268.512 526.58 268.272 525.76 267.792 525.2C267.312 524.627 266.679 524.34 265.892 524.34C265.092 524.34 264.452 524.627 263.972 525.2C263.492 525.76 263.252 526.58 263.252 527.66V529.62C263.252 530.687 263.492 531.507 263.972 532.08C264.452 532.653 265.092 532.94 265.892 532.94C266.679 532.94 267.312 532.653 267.792 532.08C268.272 531.507 268.512 530.687 268.512 529.62ZM293.004 528.92H289.704V527.28H293.004V525.32H289.704V523.68H293.004V521.54H295.024V534.76H293.004V528.92ZM285.124 528.3C285.044 528.3 284.971 528.34 284.904 528.42C284.544 529.033 284.077 529.66 283.504 530.3C282.944 530.927 282.224 531.673 281.344 532.54L279.844 531.24C280.911 530.24 281.744 529.36 282.344 528.6C282.957 527.84 283.397 527.08 283.664 526.32C283.944 525.547 284.084 524.693 284.084 523.76V522.38H286.124V523.86C286.124 525.22 285.871 526.447 285.364 527.54L285.464 527.6L285.864 527.26C286.064 527.1 286.251 527.02 286.424 527.02C286.611 527.02 286.784 527.107 286.944 527.28L290.424 530.84L288.944 532.22L285.384 528.42C285.304 528.34 285.217 528.3 285.124 528.3ZM295.384 537.78V539.44H284.984C284.557 539.44 284.231 539.327 284.004 539.1C283.791 538.873 283.684 538.547 283.684 538.12V533.46H285.704V537.78H295.384ZM237.328 551.54V562.04H235.308V559.46H232.128V557.82H235.308V555.66H232.128V554.02H235.308V551.54H237.328ZM227.228 561.3C226.321 561.3 225.515 561.12 224.808 560.76C224.101 560.387 223.548 559.86 223.148 559.18C222.761 558.5 222.568 557.7 222.568 556.78C222.568 555.86 222.761 555.06 223.148 554.38C223.548 553.7 224.101 553.18 224.808 552.82C225.515 552.447 226.321 552.26 227.228 552.26C228.135 552.26 228.935 552.447 229.628 552.82C230.335 553.18 230.888 553.7 231.288 554.38C231.688 555.06 231.888 555.86 231.888 556.78C231.888 557.7 231.688 558.5 231.288 559.18C230.888 559.86 230.335 560.387 229.628 560.76C228.921 561.12 228.121 561.3 227.228 561.3ZM227.228 559.68C227.988 559.68 228.601 559.46 229.068 559.02C229.535 558.58 229.768 557.98 229.768 557.22V556.36C229.768 555.6 229.535 555 229.068 554.56C228.615 554.12 228.001 553.9 227.228 553.9C226.455 553.9 225.835 554.12 225.368 554.56C224.915 555 224.688 555.6 224.688 556.36V557.22C224.688 557.98 224.921 558.58 225.388 559.02C225.855 559.46 226.468 559.68 227.228 559.68ZM225.688 563.04H237.328V569.96H235.348V564.74H225.688V563.04ZM255.62 555.7V557.94H258.34V559.6H255.62V562.34H253.62V551.54H255.62V554.02H258.34V555.7H255.62ZM251.96 561.14C249.827 561.54 247.187 561.74 244.04 561.74H242.1V556.16H248.08V554.06H242.04V552.42H250.02V557.78H244.02V560.12H244.16C247.027 560.12 249.54 559.927 251.7 559.54L251.96 561.14ZM255.76 566.44C255.76 567.16 255.54 567.793 255.1 568.34C254.673 568.9 254.033 569.333 253.18 569.64C252.34 569.947 251.32 570.1 250.12 570.1C248.907 570.1 247.873 569.947 247.02 569.64C246.167 569.333 245.52 568.9 245.08 568.34C244.653 567.793 244.44 567.16 244.44 566.44C244.44 565.72 244.653 565.087 245.08 564.54C245.52 563.993 246.167 563.567 247.02 563.26C247.873 562.953 248.907 562.8 250.12 562.8C251.32 562.8 252.34 562.953 253.18 563.26C254.033 563.567 254.673 563.993 255.1 564.54C255.54 565.087 255.76 565.72 255.76 566.44ZM253.6 566.3C253.6 565.753 253.313 565.3 252.74 564.94C252.167 564.567 251.293 564.38 250.12 564.38C248.947 564.38 248.067 564.567 247.48 564.94C246.893 565.3 246.6 565.753 246.6 566.3V566.6C246.6 567.133 246.893 567.58 247.48 567.94C248.067 568.313 248.947 568.5 250.12 568.5C251.293 568.5 252.167 568.313 252.74 567.94C253.313 567.58 253.6 567.133 253.6 566.6V566.3Z" fill="#EBECF1"/>
<path fill-rule="evenodd" clip-rule="evenodd" d="M215.69 654.96C155.979 698.385 82.4811 724 3 724C2.31733 724 1.63509 723.998 0.953308 723.994L0.974617 583.991C1.64903 583.997 2.32416 584 3 584C51.7803 584 96.886 568.267 133.52 541.598L215.69 654.96Z" fill="#1B1C25"/>
<path d="M58.7789 642.987H56.7589V633.847H58.7789V642.987ZM49.1189 639.527C49.0122 639.527 48.9255 639.567 48.8589 639.647C48.4722 640.234 47.9922 640.82 47.4189 641.407C46.8455 641.98 46.1255 642.634 45.2589 643.367L43.7589 642.067C44.8389 641.187 45.6855 640.4 46.2989 639.707C46.9122 639.014 47.3522 638.327 47.6189 637.647C47.8989 636.967 48.0389 636.214 48.0389 635.387V634.307H50.0789V635.527C50.0789 636.74 49.8322 637.84 49.3389 638.827L49.4389 638.907L49.8789 638.527C50.0789 638.367 50.2655 638.287 50.4389 638.287C50.5989 638.287 50.7722 638.36 50.9589 638.507L54.4389 641.567L53.0189 643.007L49.3989 639.647C49.3189 639.567 49.2255 639.527 49.1189 639.527ZM59.2189 650.467V652.207H48.6989C48.2722 652.207 47.9455 652.094 47.7189 651.867C47.5055 651.64 47.3989 651.314 47.3989 650.887V647.247H56.7389V645.727H47.2989V644.007H58.7989V648.927H49.4589V650.467H59.2189ZM76.9309 641.927H65.2109V634.407H76.9309V641.927ZM74.9109 636.087H67.2309V640.247H74.9109V636.087ZM79.2709 645.807H72.0909V652.067H70.0709V645.807H62.8709V644.087H79.2709V645.807ZM103.369 633.847V644.347H101.349V641.767H98.1695V640.127H101.349V637.967H98.1695V636.327H101.349V633.847H103.369ZM93.2695 643.607C92.3628 643.607 91.5562 643.427 90.8495 643.067C90.1428 642.694 89.5895 642.167 89.1895 641.487C88.8028 640.807 88.6095 640.007 88.6095 639.087C88.6095 638.167 88.8028 637.367 89.1895 636.687C89.5895 636.007 90.1428 635.487 90.8495 635.127C91.5562 634.754 92.3628 634.567 93.2695 634.567C94.1762 634.567 94.9762 634.754 95.6695 635.127C96.3762 635.487 96.9295 636.007 97.3295 636.687C97.7295 637.367 97.9295 638.167 97.9295 639.087C97.9295 640.007 97.7295 640.807 97.3295 641.487C96.9295 642.167 96.3762 642.694 95.6695 643.067C94.9628 643.427 94.1628 643.607 93.2695 643.607ZM93.2695 641.987C94.0295 641.987 94.6428 641.767 95.1095 641.327C95.5762 640.887 95.8095 640.287 95.8095 639.527V638.667C95.8095 637.907 95.5762 637.307 95.1095 636.867C94.6562 636.427 94.0428 636.207 93.2695 636.207C92.4962 636.207 91.8762 636.427 91.4095 636.867C90.9562 637.307 90.7295 637.907 90.7295 638.667V639.527C90.7295 640.287 90.9628 640.887 91.4295 641.327C91.8962 641.767 92.5095 641.987 93.2695 641.987ZM91.7295 645.347H103.369V652.267H101.389V647.047H91.7295V645.347ZM121.662 638.007V640.247H124.382V641.907H121.662V644.647H119.662V633.847H121.662V636.327H124.382V638.007H121.662ZM118.002 643.447C115.868 643.847 113.228 644.047 110.082 644.047H108.142V638.467H114.122V636.367H108.082V634.727H116.062V640.087H110.062V642.427H110.202C113.068 642.427 115.582 642.234 117.742 641.847L118.002 643.447ZM121.802 648.747C121.802 649.467 121.582 650.1 121.142 650.647C120.715 651.207 120.075 651.64 119.222 651.947C118.382 652.254 117.362 652.407 116.162 652.407C114.948 652.407 113.915 652.254 113.062 651.947C112.208 651.64 111.562 651.207 111.122 650.647C110.695 650.1 110.482 649.467 110.482 648.747C110.482 648.027 110.695 647.394 111.122 646.847C111.562 646.3 112.208 645.874 113.062 645.567C113.915 645.26 114.948 645.107 116.162 645.107C117.362 645.107 118.382 645.26 119.222 645.567C120.075 645.874 120.715 646.3 121.142 646.847C121.582 647.394 121.802 648.027 121.802 648.747ZM119.642 648.607C119.642 648.06 119.355 647.607 118.782 647.247C118.208 646.874 117.335 646.687 116.162 646.687C114.988 646.687 114.108 646.874 113.522 647.247C112.935 647.607 112.642 648.06 112.642 648.607V648.907C112.642 649.44 112.935 649.887 113.522 650.247C114.108 650.62 114.988 650.807 116.162 650.807C117.335 650.807 118.208 650.62 118.782 650.247C119.355 649.887 119.642 649.44 119.642 648.907V648.607Z" fill="#EBECF1"/>
</svg>
