<svg width="77" height="328" viewBox="0 0 77 328" fill="none" xmlns="http://www.w3.org/2000/svg">
<g clip-path="url(#clip0_5_133)">
<path d="M61.2214 298.979L61.2214 303.644C61.2214 304.325 60.8265 304.666 60.1354 304.666L18.8126 304.666C18.1305 304.666 17.7266 304.325 17.7266 303.644L17.7266 298.979C17.7266 298.297 18.1215 297.956 18.8126 297.956L60.1443 297.956C60.8265 297.956 61.2304 298.297 61.2304 298.979L61.2214 298.979Z" fill="#1B1C25"/>
<path d="M18.5791 104.917C19.0369 104.118 19.4318 104.001 20.06 104.001L22.9591 104.001C23.7579 104.001 23.9284 104.396 23.8118 105.141C23.4707 107.303 23.1296 111.403 23.1296 116.462C23.1296 127.272 28.4251 129.04 35.8298 129.04L43.4051 129.04C51.4919 129.04 55.8719 128.475 55.8719 115.664C55.8719 113.726 55.7552 111.735 55.3065 110.03C55.0821 109.178 54.741 109.124 53.9961 109.124L43.064 109.124L43.064 117.036C43.064 117.772 42.6691 118.122 41.978 118.122L38.0468 118.122C37.3108 118.122 36.9607 117.781 37.0236 116.983L37.0236 103.607C37.0236 102.925 37.3646 102.521 38.0468 102.521L58.4838 102.521C59.5698 102.467 60.1891 102.862 60.4763 103.777C61.7328 107.707 62.0739 112.999 62.0739 116.408C62.0739 130.466 57.9183 135.759 43.5128 135.759L36.6286 135.759C21.541 135.759 16.8738 129.156 16.8738 116.92C16.8738 111.968 17.5559 106.675 18.5791 104.917V104.917Z" fill="#1B1C25"/>
<path d="M17.7263 93.8194L17.7263 78.9633C17.7263 69.4002 19.5483 63.9368 29.3943 63.9368L31.333 63.9368C38.3338 63.9368 41.6368 67.579 42.9472 71.3917L60.0813 62.7975C60.8172 62.4566 61.2211 62.7975 61.2211 63.5421L61.2211 68.8888C61.2211 69.454 60.9339 69.8577 60.1979 70.1986L43.7999 78.2187L43.7999 88.1766L60.1441 88.1766C60.8262 88.1766 61.2301 88.5175 61.2301 89.1993L61.2301 93.8104C61.2301 94.4922 60.8352 94.8331 60.1441 94.8331L18.8123 94.8331C18.1302 94.8331 17.7263 94.4922 17.7263 93.8104L17.7263 93.8194ZM37.8761 88.1856L37.8761 78.9633C37.8761 70.0281 34.0616 70.6561 31.5574 70.6561L28.8827 70.6561C25.1849 70.6561 23.6501 72.8181 23.6501 78.9633L23.6501 88.1856L37.8851 88.1856L37.8761 88.1856Z" fill="#1B1C25"/>
<path d="M61.2211 50.1751L61.2211 54.8401C61.2211 55.5219 60.8262 55.8628 60.1351 55.8628L18.8123 55.8628C18.1302 55.8628 17.7263 55.5219 17.7263 54.8401L17.7263 50.1751C17.7263 49.4933 18.1212 49.1525 18.8123 49.1525L60.1441 49.1525C60.8262 49.1525 61.2301 49.4933 61.2301 50.1751L61.2211 50.1751Z" fill="#1B1C25"/>
<path d="M18.7495 10.5051L22.7346 10.5051C23.4167 10.5051 23.7578 10.8998 23.7578 11.5906L23.7578 23.7643L60.1351 23.7643C60.8172 23.7643 61.2211 24.1052 61.2211 24.787L61.2211 29.4519C61.2211 30.1337 60.8262 30.4747 60.1351 30.4747L23.7578 30.4747L23.7578 42.6484C23.7578 43.3302 23.4167 43.7339 22.7346 43.7339L18.7495 43.7339C18.0674 43.7339 17.7263 43.3392 17.7263 42.6484L17.7263 11.5816C17.7263 10.8998 18.0674 10.4961 18.7495 10.4961L18.7495 10.5051Z" fill="#1B1C25"/>
<path d="M16.8647 147.511L16.8647 284.939L60.8891 284.939L60.8891 147.511L16.8647 147.511Z" fill="#1B1C25"/>
<path d="M54 242.519L54 251.042L24.9091 241.439L24.9091 230.644L54 221.042L54 229.564L32.9205 235.928L32.9205 236.155L54 242.519ZM42.5227 244.11L42.5227 228.087L48.4318 228.087L48.4318 244.11L42.5227 244.11ZM24.9091 215.44L24.9091 205.61L41.3864 198.849L41.3864 198.508L24.9091 191.747L24.9091 181.917L54 181.917L54 189.644L37.1818 189.644L37.1818 189.872L53.7727 196.349L53.7727 201.008L37.0682 207.485L37.0682 207.713L54 207.713L54 215.44L24.9091 215.44Z" fill="#EBECF1"/>
</g>
<defs>
<clipPath id="clip0_5_133">
<rect width="328" height="77" fill="white" transform="translate(0 328) rotate(-90)"/>
</clipPath>
</defs>
</svg>
