<svg width="365" height="724" viewBox="0 0 365 724" fill="none" xmlns="http://www.w3.org/2000/svg">
<path fill-rule="evenodd" clip-rule="evenodd" d="M1 140.009V0.00540862C1.66624 0.00180441 2.33291 0 3 0C202.927 0 365 162.073 365 362C365 561.927 202.927 724 3 724C2.33291 724 1.66624 723.998 1 723.995V583.991C1.66598 583.997 2.33265 584 3.00002 584C125.607 584 225 484.607 225 362C225 239.393 125.607 140 3.00002 140C2.33265 140 1.66598 140.003 1 140.009Z" fill="#EBECF1"/>
<path fill-rule="evenodd" clip-rule="evenodd" d="M1 140.009V0.00540862C1.66624 0.00180441 2.33291 0 3 0C202.927 0 365 162.073 365 362C365 561.927 202.927 724 3 724C2.33291 724 1.66624 723.998 1 723.995V583.991C1.66598 583.997 2.33265 584 3.00002 584C125.607 584 225 484.607 225 362C225 239.393 125.607 140 3.00002 140C2.33265 140 1.66598 140.003 1 140.009Z" fill="#1B1C25"/>
<path fill-rule="evenodd" clip-rule="evenodd" d="M0.975035 140.009C1.64931 140.003 2.3243 140 3 140C51.2024 140 95.8166 155.362 132.214 181.458L214.385 68.0956C154.91 25.2438 81.9031 0 3 0C2.31747 0 1.63537 0.00188893 0.953725 0.00566185L0.975035 140.009Z" fill="#1B1C25"/>
<path d="M65.8967 89.1441V90.8441H49.4967V89.1441H56.6967V84.9441H51.8167V76.4441H63.6567V78.1641H53.8567V83.2041H63.7967V84.9441H58.7167V89.1441H65.8967ZM81.8487 79.8641V75.2641H83.8687V88.4841H81.8487V81.5641H78.5287V79.8641H81.8487ZM74.2487 82.3241C74.1421 82.3241 74.0487 82.3641 73.9687 82.4441C73.5954 82.9908 73.1287 83.5508 72.5687 84.1241C72.0221 84.6975 71.3154 85.3775 70.4487 86.1641L68.9487 84.8841C70.0021 84.0041 70.8354 83.2175 71.4487 82.5241C72.0621 81.8175 72.5087 81.1241 72.7887 80.4441C73.0821 79.7508 73.2287 79.0041 73.2287 78.2041H69.5487V76.5241H78.8887V78.2041H75.2487V78.2841C75.2487 79.4575 75.0021 80.5508 74.5087 81.5641L74.6087 81.6241L75.0287 81.3241C75.2021 81.1908 75.3821 81.1241 75.5687 81.1241C75.7954 81.1241 75.9954 81.2041 76.1687 81.3641L79.5687 84.4641L78.0687 85.7841L74.5487 82.4441C74.4554 82.3641 74.3554 82.3241 74.2487 82.3241ZM84.2287 91.5041V93.1641H73.8287C73.4021 93.1641 73.0754 93.0508 72.8487 92.8241C72.6354 92.5975 72.5287 92.2708 72.5287 91.8441V87.2241H74.5487V91.5041H84.2287ZM101.081 79.4641V75.2641H103.101V85.7441H101.081V81.1241H97.7608V79.4641H101.081ZM89.6808 85.3841L88.1808 84.0841C89.2341 83.2975 90.0674 82.5841 90.6808 81.9441C91.2941 81.3041 91.7408 80.6708 92.0208 80.0441C92.3141 79.4175 92.4608 78.7308 92.4608 77.9841H88.7808V76.3041H98.1208V77.9841H94.4808V78.1041C94.4808 79.1975 94.2341 80.2041 93.7408 81.1241L93.8608 81.2041L94.2808 80.9041C94.4674 80.7575 94.6541 80.6841 94.8408 80.6841C95.0408 80.6841 95.2341 80.7575 95.4208 80.9041L98.8008 83.7241L97.3008 85.0441L93.8008 81.9841C93.7074 81.9041 93.5941 81.8641 93.4608 81.8641C93.3674 81.8641 93.2741 81.8975 93.1808 81.9641C92.8074 82.4708 92.3474 82.9908 91.8008 83.5241C91.2541 84.0441 90.5474 84.6641 89.6808 85.3841ZM103.161 89.9041C103.161 90.6508 102.941 91.3108 102.501 91.8841C102.061 92.4708 101.407 92.9308 100.541 93.2641C99.6741 93.5975 98.6341 93.7641 97.4208 93.7641C96.1941 93.7641 95.1474 93.5975 94.2808 93.2641C93.4141 92.9308 92.7608 92.4708 92.3208 91.8841C91.8808 91.3108 91.6608 90.6508 91.6608 89.9041C91.6608 89.1575 91.8808 88.4975 92.3208 87.9241C92.7608 87.3375 93.4141 86.8841 94.2808 86.5641C95.1474 86.2308 96.1941 86.0641 97.4208 86.0641C98.6474 86.0641 99.6874 86.2308 100.541 86.5641C101.407 86.8841 102.061 87.3375 102.501 87.9241C102.941 88.4975 103.161 89.1575 103.161 89.9041ZM101.041 89.7641C101.041 89.1641 100.741 88.6641 100.141 88.2641C99.5408 87.8508 98.6341 87.6441 97.4208 87.6441C96.2074 87.6441 95.2941 87.8508 94.6808 88.2641C94.0808 88.6641 93.7808 89.1641 93.7808 89.7641V90.0641C93.7808 90.6641 94.0808 91.1641 94.6808 91.5641C95.2941 91.9641 96.2074 92.1641 97.4208 92.1641C98.6341 92.1641 99.5408 91.9641 100.141 91.5641C100.741 91.1641 101.041 90.6641 101.041 90.0641V89.7641ZM122.333 88.4841H120.313V75.2641H122.333V88.4841ZM112.673 81.8841C112.579 81.8841 112.499 81.9241 112.433 82.0041C112.046 82.6175 111.559 83.2441 110.973 83.8841C110.399 84.5108 109.679 85.2241 108.813 86.0241L107.313 84.7041C108.393 83.7575 109.239 82.9108 109.853 82.1641C110.466 81.4175 110.906 80.6775 111.173 79.9441C111.453 79.1975 111.593 78.3775 111.593 77.4841V76.1841H113.633V77.5841C113.633 78.9041 113.386 80.0975 112.893 81.1641L112.993 81.2241L113.433 80.8641C113.619 80.7041 113.799 80.6241 113.973 80.6241C114.159 80.6241 114.333 80.7108 114.493 80.8841L118.013 84.3041L116.533 85.7041L112.933 82.0041C112.853 81.9241 112.766 81.8841 112.673 81.8841ZM122.693 91.5041V93.1641H112.293C111.866 93.1641 111.539 93.0508 111.313 92.8241C111.099 92.5975 110.993 92.2708 110.993 91.8441V87.0441H113.013V91.5041H122.693Z" fill="#EBECF1"/>
<path fill-rule="evenodd" clip-rule="evenodd" d="M346.612 247.782C322.172 174.22 274.77 111.138 212.903 67.0336L130.731 180.404C168.983 207.359 198.337 246.095 213.516 291.334L346.612 247.782Z" fill="#273F65"/>
<path d="M225.959 192.359V194.059H223.219V198.659H221.199V187.939H223.219V192.359H225.959ZM219.499 197.519C217.299 197.933 214.665 198.139 211.599 198.139H209.619V188.819H217.879V190.459H211.579V192.579H217.619V194.219H211.579V196.519H211.719C214.505 196.519 217.019 196.319 219.259 195.919L219.499 197.519ZM212.139 199.579H223.239V206.179H213.439C213.012 206.179 212.685 206.066 212.459 205.839C212.245 205.613 212.139 205.286 212.139 204.859V199.579ZM214.179 204.519H221.199V201.259H214.179V204.519ZM244.671 198.439H237.471V206.119H235.451V198.439H228.271V196.719H239.711C240.124 194.706 240.351 192.599 240.391 190.399H230.411V188.699H242.391V190.039C242.391 192.293 242.164 194.519 241.711 196.719H244.671V198.439ZM262.643 187.939V198.039H260.623V187.939H262.643ZM253.003 194.019C252.896 194.019 252.803 194.066 252.723 194.159C252.363 194.733 251.896 195.319 251.323 195.919C250.763 196.519 250.029 197.226 249.123 198.039L247.623 196.719C248.703 195.799 249.549 194.979 250.163 194.259C250.776 193.539 251.216 192.826 251.483 192.119C251.763 191.413 251.903 190.633 251.903 189.779V188.599H253.943V189.899C253.943 191.153 253.696 192.293 253.203 193.319L253.303 193.399L253.743 193.019C253.929 192.859 254.109 192.779 254.283 192.779C254.456 192.779 254.636 192.859 254.823 193.019L258.323 196.239L256.863 197.659L253.263 194.139C253.183 194.059 253.096 194.019 253.003 194.019ZM251.363 199.039H262.643V206.179H252.663C252.236 206.179 251.909 206.066 251.683 205.839C251.469 205.613 251.363 205.286 251.363 204.859V199.039ZM253.383 204.499H260.623V200.719H253.383V204.499Z" fill="#EBECF1"/>
<path fill-rule="evenodd" clip-rule="evenodd" d="M346.607 247.765L213.396 290.978C220.921 313.277 225 337.162 225 362C225 386.503 221.03 410.079 213.699 432.12L346.905 475.331C358.647 439.681 365 401.582 365 362C365 322.083 358.539 283.676 346.607 247.765Z" fill="#1B1C25"/>
<path d="M270.204 365.571H258.604V358.711H270.204V365.571ZM268.204 360.351H260.604V363.931H268.204V360.351ZM272.604 367.271V368.991H265.544V372.491H263.504V368.991H256.204V367.271H272.604ZM260.484 374.511H270.484V376.191H259.764C259.337 376.191 259.011 376.078 258.784 375.851C258.571 375.625 258.464 375.298 258.464 374.871V370.751H260.484V374.511ZM290.976 358.151V375.671H289.036V358.151H290.976ZM285.156 358.431H287.076V375.191H285.156V365.711H282.636V364.051H285.156V358.431ZM280.856 365.931C281.083 365.931 281.276 366.038 281.436 366.251L284.296 370.311L282.856 371.511L279.956 367.271C279.889 367.191 279.823 367.151 279.756 367.151C279.676 367.151 279.616 367.191 279.576 367.271C279.283 367.925 278.896 368.611 278.416 369.331C277.936 370.051 277.336 370.878 276.616 371.811L275.196 370.631C276.116 369.471 276.829 368.445 277.336 367.551C277.856 366.645 278.229 365.751 278.456 364.871C278.696 363.991 278.816 363.018 278.816 361.951V361.591H275.696V359.891H283.736V361.591H280.716V361.931C280.716 363.451 280.483 364.878 280.016 366.211L280.116 366.271L280.376 366.091C280.523 365.985 280.683 365.931 280.856 365.931ZM316.335 358.151V375.671H314.395V366.711H312.395V375.191H310.455V358.431H312.395V365.051H314.395V358.151H316.335ZM307.895 361.151H302.635V359.511H307.895V361.151ZM300.655 362.971H309.635V364.571H307.475V364.671C308.448 365.245 308.935 366.291 308.935 367.811C308.935 369.065 308.588 370.051 307.895 370.771C307.215 371.478 306.315 371.831 305.195 371.831C304.061 371.831 303.155 371.478 302.475 370.771C301.795 370.051 301.455 369.065 301.455 367.811C301.455 366.305 301.935 365.265 302.895 364.691V364.571H300.655V362.971ZM307.035 366.931C307.035 366.251 306.868 365.725 306.535 365.351C306.215 364.978 305.768 364.791 305.195 364.791C304.621 364.791 304.168 364.978 303.835 365.351C303.515 365.725 303.355 366.251 303.355 366.931V368.051C303.355 368.718 303.521 369.245 303.855 369.631C304.201 370.005 304.648 370.191 305.195 370.191C305.741 370.191 306.181 370.005 306.515 369.631C306.861 369.245 307.035 368.718 307.035 368.051V366.931ZM333.147 365.611H329.507V364.011H333.147V361.991H329.507V360.371H333.147V358.151H335.167V367.291H333.147V365.611ZM321.627 367.811L320.567 366.291C322.233 365.691 323.52 365.138 324.427 364.631C325.333 364.111 325.967 363.585 326.327 363.051C326.687 362.505 326.867 361.871 326.867 361.151V360.611H321.107V358.911H328.907V360.891C328.907 362.011 328.687 362.951 328.247 363.711C327.82 364.471 327.087 365.171 326.047 365.811C325.02 366.438 323.547 367.105 321.627 367.811ZM335.607 374.771V376.511H325.087C324.66 376.511 324.333 376.398 324.107 376.171C323.893 375.945 323.787 375.618 323.787 375.191V371.551H333.127V370.031H323.687V368.311H335.187V373.231H325.847V374.771H335.607Z" fill="#EBECF1"/>
<path fill-rule="evenodd" clip-rule="evenodd" d="M347.426 473.739L214.332 430.188C199.571 475.969 170.348 515.255 132.045 542.663L214.213 656.029C276.13 611.472 323.403 547.841 347.426 473.739Z" fill="#273F65"/>
<path d="M198.612 526.765V544.285H196.592V535.145H193.212V533.445H196.592V526.765H198.612ZM184.792 528.245H192.732V531.525C192.732 532.952 192.485 534.185 191.992 535.225C191.512 536.265 190.739 537.232 189.672 538.125C188.605 539.018 187.112 540.005 185.192 541.085L184.012 539.585C185.919 538.532 187.352 537.598 188.312 536.785C189.285 535.972 189.959 535.078 190.332 534.105L184.292 534.625L184.012 532.925L190.712 532.545C190.752 532.198 190.772 531.845 190.772 531.485V529.905H184.792V528.245ZM216.804 534.825H205.084V527.325H216.804V534.825ZM214.784 529.005H207.104V533.145H214.784V529.005ZM219.144 538.625H215.084V544.845H213.084V538.625H208.804V544.845H206.804V538.625H202.744V536.925H219.144V538.625ZM237.056 526.765V544.285H235.016V526.765H237.056ZM232.856 537.245L233.096 538.905C230.869 539.345 228.176 539.565 225.016 539.565H222.976V528.165H224.996V537.845C228.036 537.845 230.656 537.645 232.856 537.245ZM256.748 526.765V544.285H254.808V526.765H256.748ZM250.908 527.045H252.808V543.805H250.908V534.965H248.408C248.021 536.005 247.381 536.985 246.488 537.905C245.595 538.825 244.355 539.845 242.768 540.965L241.488 539.625C242.995 538.572 244.148 537.645 244.948 536.845C245.761 536.032 246.328 535.165 246.648 534.245L241.688 534.685L241.468 533.045L246.988 532.745C247.028 532.425 247.048 532.085 247.048 531.725V530.085H242.108V528.485H248.928V531.745C248.928 532.225 248.895 532.745 248.828 533.305H250.908V527.045ZM273.48 526.765H275.52V544.285H273.48V526.765ZM260.88 533.865C260.88 531.878 261.313 530.385 262.18 529.385C263.06 528.372 264.227 527.865 265.68 527.865C267.12 527.865 268.273 528.372 269.14 529.385C270.02 530.385 270.46 531.878 270.46 533.865C270.46 535.838 270.02 537.332 269.14 538.345C268.273 539.358 267.12 539.865 265.68 539.865C264.24 539.865 263.08 539.358 262.2 538.345C261.32 537.332 260.88 535.838 260.88 533.865ZM268.3 534.845V532.885C268.3 531.805 268.06 530.985 267.58 530.425C267.1 529.852 266.467 529.565 265.68 529.565C264.88 529.565 264.24 529.852 263.76 530.425C263.28 530.985 263.04 531.805 263.04 532.885V534.845C263.04 535.912 263.28 536.732 263.76 537.305C264.24 537.878 264.88 538.165 265.68 538.165C266.467 538.165 267.1 537.878 267.58 537.305C268.06 536.732 268.3 535.912 268.3 534.845ZM292.792 534.145H289.492V532.505H292.792V530.545H289.492V528.905H292.792V526.765H294.812V539.985H292.792V534.145ZM284.912 533.525C284.832 533.525 284.759 533.565 284.692 533.645C284.332 534.258 283.865 534.885 283.292 535.525C282.732 536.152 282.012 536.898 281.132 537.765L279.632 536.465C280.699 535.465 281.532 534.585 282.132 533.825C282.745 533.065 283.185 532.305 283.452 531.545C283.732 530.772 283.872 529.918 283.872 528.985V527.605H285.912V529.085C285.912 530.445 285.659 531.672 285.152 532.765L285.252 532.825L285.652 532.485C285.852 532.325 286.039 532.245 286.212 532.245C286.399 532.245 286.572 532.332 286.732 532.505L290.212 536.065L288.732 537.445L285.172 533.645C285.092 533.565 285.005 533.525 284.912 533.525ZM295.172 543.005V544.665H284.772C284.345 544.665 284.019 544.552 283.792 544.325C283.579 544.098 283.472 543.772 283.472 543.345V538.685H285.492V543.005H295.172Z" fill="#EBECF1"/>
<path fill-rule="evenodd" clip-rule="evenodd" d="M215.69 654.96C155.979 698.385 82.4811 724 3 724C2.31733 724 1.63509 723.998 0.953308 723.994L0.974617 583.991C1.64903 583.997 2.32416 584 3 584C51.7803 584 96.886 568.267 133.52 541.598L215.69 654.96Z" fill="#1B1C25"/>
<path d="M58.7789 642.987H56.7589V633.847H58.7789V642.987ZM49.1189 639.527C49.0122 639.527 48.9255 639.567 48.8589 639.647C48.4722 640.234 47.9922 640.82 47.4189 641.407C46.8455 641.98 46.1255 642.634 45.2589 643.367L43.7589 642.067C44.8389 641.187 45.6855 640.4 46.2989 639.707C46.9122 639.014 47.3522 638.327 47.6189 637.647C47.8989 636.967 48.0389 636.214 48.0389 635.387V634.307H50.0789V635.527C50.0789 636.74 49.8322 637.84 49.3389 638.827L49.4389 638.907L49.8789 638.527C50.0789 638.367 50.2655 638.287 50.4389 638.287C50.5989 638.287 50.7722 638.36 50.9589 638.507L54.4389 641.567L53.0189 643.007L49.3989 639.647C49.3189 639.567 49.2255 639.527 49.1189 639.527ZM59.2189 650.467V652.207H48.6989C48.2722 652.207 47.9455 652.094 47.7189 651.867C47.5055 651.64 47.3989 651.314 47.3989 650.887V647.247H56.7389V645.727H47.2989V644.007H58.7989V648.927H49.4589V650.467H59.2189ZM76.9309 641.927H65.2109V634.407H76.9309V641.927ZM74.9109 636.087H67.2309V640.247H74.9109V636.087ZM79.2709 645.807H72.0909V652.067H70.0709V645.807H62.8709V644.087H79.2709V645.807ZM103.369 633.847V644.347H101.349V641.767H98.1695V640.127H101.349V637.967H98.1695V636.327H101.349V633.847H103.369ZM93.2695 643.607C92.3628 643.607 91.5562 643.427 90.8495 643.067C90.1428 642.694 89.5895 642.167 89.1895 641.487C88.8028 640.807 88.6095 640.007 88.6095 639.087C88.6095 638.167 88.8028 637.367 89.1895 636.687C89.5895 636.007 90.1428 635.487 90.8495 635.127C91.5562 634.754 92.3628 634.567 93.2695 634.567C94.1762 634.567 94.9762 634.754 95.6695 635.127C96.3762 635.487 96.9295 636.007 97.3295 636.687C97.7295 637.367 97.9295 638.167 97.9295 639.087C97.9295 640.007 97.7295 640.807 97.3295 641.487C96.9295 642.167 96.3762 642.694 95.6695 643.067C94.9628 643.427 94.1628 643.607 93.2695 643.607ZM93.2695 641.987C94.0295 641.987 94.6428 641.767 95.1095 641.327C95.5762 640.887 95.8095 640.287 95.8095 639.527V638.667C95.8095 637.907 95.5762 637.307 95.1095 636.867C94.6562 636.427 94.0428 636.207 93.2695 636.207C92.4962 636.207 91.8762 636.427 91.4095 636.867C90.9562 637.307 90.7295 637.907 90.7295 638.667V639.527C90.7295 640.287 90.9628 640.887 91.4295 641.327C91.8962 641.767 92.5095 641.987 93.2695 641.987ZM91.7295 645.347H103.369V652.267H101.389V647.047H91.7295V645.347ZM121.662 638.007V640.247H124.382V641.907H121.662V644.647H119.662V633.847H121.662V636.327H124.382V638.007H121.662ZM118.002 643.447C115.868 643.847 113.228 644.047 110.082 644.047H108.142V638.467H114.122V636.367H108.082V634.727H116.062V640.087H110.062V642.427H110.202C113.068 642.427 115.582 642.234 117.742 641.847L118.002 643.447ZM121.802 648.747C121.802 649.467 121.582 650.1 121.142 650.647C120.715 651.207 120.075 651.64 119.222 651.947C118.382 652.254 117.362 652.407 116.162 652.407C114.948 652.407 113.915 652.254 113.062 651.947C112.208 651.64 111.562 651.207 111.122 650.647C110.695 650.1 110.482 649.467 110.482 648.747C110.482 648.027 110.695 647.394 111.122 646.847C111.562 646.3 112.208 645.874 113.062 645.567C113.915 645.26 114.948 645.107 116.162 645.107C117.362 645.107 118.382 645.26 119.222 645.567C120.075 645.874 120.715 646.3 121.142 646.847C121.582 647.394 121.802 648.027 121.802 648.747ZM119.642 648.607C119.642 648.06 119.355 647.607 118.782 647.247C118.208 646.874 117.335 646.687 116.162 646.687C114.988 646.687 114.108 646.874 113.522 647.247C112.935 647.607 112.642 648.06 112.642 648.607V648.907C112.642 649.44 112.935 649.887 113.522 650.247C114.108 650.62 114.988 650.807 116.162 650.807C117.335 650.807 118.208 650.62 118.782 650.247C119.355 649.887 119.642 649.44 119.642 648.907V648.607Z" fill="#EBECF1"/>
</svg>
