<svg width="384" height="918" viewBox="0 0 384 918" fill="none" xmlns="http://www.w3.org/2000/svg">
<rect x="62" width="250" height="918" fill="white"/>
<rect width="384" height="443" fill="white"/>
<g clip-path="url(#clip0_310_234)">
<path d="M210.221 593.979L210.221 598.644C210.221 599.325 209.826 599.666 209.135 599.666L167.813 599.666C167.13 599.666 166.727 599.325 166.727 598.644L166.727 593.979C166.727 593.297 167.121 592.956 167.813 592.956L209.144 592.956C209.826 592.956 210.23 593.297 210.23 593.979L210.221 593.979Z" fill="#1B1C25"/>
<path d="M167.579 399.917C168.037 399.118 168.432 399.001 169.06 399.001L171.959 399.001C172.758 399.001 172.928 399.396 172.812 400.141C172.471 402.303 172.13 406.403 172.13 411.462C172.13 422.272 177.425 424.04 184.83 424.04L192.405 424.04C200.492 424.04 204.872 423.475 204.872 410.664C204.872 408.726 204.755 406.735 204.306 405.03C204.082 404.178 203.741 404.124 202.996 404.124L192.064 404.124L192.064 412.036C192.064 412.772 191.669 413.122 190.978 413.122L187.047 413.122C186.311 413.122 185.961 412.781 186.024 411.983L186.024 398.607C186.024 397.925 186.365 397.521 187.047 397.521L207.484 397.521C208.57 397.467 209.189 397.862 209.476 398.777C210.733 402.707 211.074 407.999 211.074 411.408C211.074 425.466 206.918 430.759 192.513 430.759L185.629 430.759C170.541 430.759 165.874 424.156 165.874 411.92C165.874 406.968 166.556 401.675 167.579 399.917V399.917Z" fill="#1B1C25"/>
<path d="M166.726 388.819L166.726 373.963C166.726 364.4 168.548 358.937 178.394 358.937L180.333 358.937C187.334 358.937 190.637 362.579 191.947 366.392L209.081 357.797C209.817 357.457 210.221 357.797 210.221 358.542L210.221 363.889C210.221 364.454 209.934 364.858 209.198 365.199L192.8 373.219L192.8 383.177L209.144 383.177C209.826 383.177 210.23 383.518 210.23 384.199L210.23 388.81C210.23 389.492 209.835 389.833 209.144 389.833L167.812 389.833C167.13 389.833 166.726 389.492 166.726 388.81L166.726 388.819ZM186.876 383.186L186.876 373.963C186.876 365.028 183.062 365.656 180.557 365.656L177.883 365.656C174.185 365.656 172.65 367.818 172.65 373.963L172.65 383.186L186.885 383.186L186.876 383.186Z" fill="#1B1C25"/>
<path d="M210.221 345.175L210.221 349.84C210.221 350.522 209.826 350.863 209.135 350.863L167.812 350.863C167.13 350.863 166.726 350.522 166.726 349.84L166.726 345.175C166.726 344.493 167.121 344.152 167.812 344.152L209.144 344.152C209.826 344.152 210.23 344.493 210.23 345.175L210.221 345.175Z" fill="#1B1C25"/>
<path d="M167.75 305.505L171.735 305.505C172.417 305.505 172.758 305.9 172.758 306.591L172.758 318.764L209.135 318.764C209.817 318.764 210.221 319.105 210.221 319.787L210.221 324.452C210.221 325.134 209.826 325.475 209.135 325.475L172.758 325.475L172.758 337.648C172.758 338.33 172.417 338.734 171.735 338.734L167.75 338.734C167.067 338.734 166.726 338.339 166.726 337.648L166.726 306.582C166.726 305.9 167.067 305.496 167.75 305.496L167.75 305.505Z" fill="#1B1C25"/>
<path d="M165.865 442.511L165.865 579.939L209.889 579.939L209.889 442.511L165.865 442.511Z" fill="#1B1C25"/>
<path d="M203 537.519L203 546.042L173.909 536.439L173.909 525.644L203 516.042L203 524.564L181.92 530.928L181.92 531.155L203 537.519ZM191.523 539.11L191.523 523.087L197.432 523.087L197.432 539.11L191.523 539.11ZM173.909 510.44L173.909 500.61L190.386 493.849L190.386 493.508L173.909 486.747L173.909 476.917L203 476.917L203 484.644L186.182 484.644L186.182 484.872L202.773 491.349L202.773 496.008L186.068 502.485L186.068 502.713L203 502.713L203 510.44L173.909 510.44Z" fill="#EBECF1"/>
</g>
<defs>
<clipPath id="clip0_310_234">
<rect width="328" height="77" fill="white" transform="translate(149 623) rotate(-90)"/>
</clipPath>
</defs>
</svg>
