<svg width="288" height="137" viewBox="0 0 288 137" fill="none" xmlns="http://www.w3.org/2000/svg">
<path d="M10.2592 6.63849H8.5973C8.53338 6.28338 8.41442 5.97088 8.24041 5.70099C8.06641 5.43111 7.85334 5.20206 7.60121 5.01385C7.34908 4.82564 7.06676 4.68359 6.75426 4.58771C6.44531 4.49183 6.11683 4.44389 5.76882 4.44389C5.14027 4.44389 4.57741 4.60192 4.08026 4.91797C3.58665 5.23402 3.19602 5.69744 2.90838 6.30824C2.62429 6.91903 2.48224 7.66477 2.48224 8.54545C2.48224 9.43324 2.62429 10.1825 2.90838 10.7933C3.19602 11.4041 3.58842 11.8658 4.08558 12.1783C4.58274 12.4908 5.14205 12.647 5.76349 12.647C6.10795 12.647 6.43466 12.6009 6.74361 12.5085C7.05611 12.4126 7.33842 12.2724 7.59055 12.0877C7.84268 11.9031 8.05575 11.6776 8.22976 11.4112C8.40732 11.1413 8.52983 10.8324 8.5973 10.4844L10.2592 10.4897C10.1705 11.0259 9.99822 11.5195 9.74254 11.9705C9.49041 12.418 9.16548 12.805 8.76776 13.1317C8.37358 13.4549 7.92259 13.7053 7.41477 13.8828C6.90696 14.0604 6.35298 14.1491 5.75284 14.1491C4.80824 14.1491 3.96662 13.9254 3.22798 13.478C2.48935 13.027 1.90696 12.3825 1.48082 11.5444C1.05824 10.7063 0.846946 9.70668 0.846946 8.54545C0.846946 7.38068 1.06001 6.38104 1.48615 5.54652C1.91229 4.70845 2.49467 4.0657 3.23331 3.61825C3.97195 3.16726 4.81179 2.94176 5.75284 2.94176C6.33168 2.94176 6.87145 3.02521 7.37216 3.19212C7.87642 3.35547 8.32919 3.59695 8.73047 3.91655C9.13175 4.2326 9.46378 4.61967 9.72656 5.07777C9.98935 5.53232 10.1669 6.05256 10.2592 6.63849ZM13.2788 14V3.09091H14.9247V7.83168H20.3633V3.09091H22.0146V14H20.3633V9.24325H14.9247V14H13.2788ZM26.3831 14H24.636L28.5617 3.09091H30.4634L34.3892 14H32.642L29.5578 5.07244H29.4726L26.3831 14ZM26.6761 9.72798H32.3437V11.1129H26.6761V9.72798ZM37.0145 14V3.09091H40.903C41.7482 3.09091 42.4495 3.23651 43.0071 3.5277C43.5681 3.81889 43.9872 4.22195 44.2642 4.73686C44.5412 5.24822 44.6797 5.83949 44.6797 6.51065C44.6797 7.17827 44.5394 7.76598 44.2588 8.27379C43.9819 8.77805 43.5628 9.17045 43.0017 9.45099C42.4442 9.73153 41.7429 9.8718 40.8977 9.8718H37.952V8.4549H40.7485C41.2812 8.4549 41.7145 8.37855 42.0483 8.22585C42.3856 8.07315 42.6324 7.85121 42.7887 7.56001C42.9449 7.26882 43.023 6.91903 43.023 6.51065C43.023 6.09872 42.9431 5.74183 42.7833 5.43999C42.6271 5.13814 42.3803 4.90732 42.0429 4.74751C41.7091 4.58416 41.2706 4.50249 40.7272 4.50249H38.6605V14H37.0145ZM42.3998 9.07812L45.0951 14H43.2201L40.5781 9.07812H42.3998ZM48.654 14H46.9069L50.8326 3.09091H52.7343L56.6601 14H54.9129L51.8287 5.07244H51.7435L48.654 14ZM48.947 9.72798H54.6146V11.1129H48.947V9.72798ZM67.8335 6.63849H66.1715C66.1076 6.28338 65.9886 5.97088 65.8146 5.70099C65.6406 5.43111 65.4276 5.20206 65.1754 5.01385C64.9233 4.82564 64.641 4.68359 64.3285 4.58771C64.0195 4.49183 63.6911 4.44389 63.343 4.44389C62.7145 4.44389 62.1516 4.60192 61.6545 4.91797C61.1609 5.23402 60.7702 5.69744 60.4826 6.30824C60.1985 6.91903 60.0565 7.66477 60.0565 8.54545C60.0565 9.43324 60.1985 10.1825 60.4826 10.7933C60.7702 11.4041 61.1626 11.8658 61.6598 12.1783C62.157 12.4908 62.7163 12.647 63.3377 12.647C63.6822 12.647 64.0089 12.6009 64.3178 12.5085C64.6303 12.4126 64.9126 12.2724 65.1648 12.0877C65.4169 11.9031 65.63 11.6776 65.804 11.4112C65.9815 11.1413 66.104 10.8324 66.1715 10.4844L67.8335 10.4897C67.7447 11.0259 67.5724 11.5195 67.3168 11.9705C67.0646 12.418 66.7397 12.805 66.342 13.1317C65.9478 13.4549 65.4968 13.7053 64.989 13.8828C64.4812 14.0604 63.9272 14.1491 63.3271 14.1491C62.3825 14.1491 61.5408 13.9254 60.8022 13.478C60.0636 13.027 59.4812 12.3825 59.055 11.5444C58.6325 10.7063 58.4212 9.70668 58.4212 8.54545C58.4212 7.38068 58.6342 6.38104 59.0604 5.54652C59.4865 4.70845 60.0689 4.0657 60.8075 3.61825C61.5462 3.16726 62.386 2.94176 63.3271 2.94176C63.9059 2.94176 64.4457 3.02521 64.9464 3.19212C65.4506 3.35547 65.9034 3.59695 66.3047 3.91655C66.706 4.2326 67.038 4.61967 67.3008 5.07777C67.5636 5.53232 67.7411 6.05256 67.8335 6.63849ZM70.315 4.50781V3.09091H78.7578V4.50781H75.3541V14H73.7134V4.50781H70.315ZM81.6735 14V3.09091H88.513V4.50781H83.3195V7.83168H88.1561V9.24325H83.3195V12.5831H88.5769V14H81.6735ZM91.7616 14V3.09091H95.6501C96.4953 3.09091 97.1966 3.23651 97.7541 3.5277C98.3152 3.81889 98.7343 4.22195 99.0112 4.73686C99.2882 5.24822 99.4267 5.83949 99.4267 6.51065C99.4267 7.17827 99.2865 7.76598 99.0059 8.27379C98.7289 8.77805 98.3099 9.17045 97.7488 9.45099C97.1913 9.73153 96.4899 9.8718 95.6448 9.8718H92.6991V8.4549H95.4956C96.0283 8.4549 96.4615 8.37855 96.7953 8.22585C97.1327 8.07315 97.3795 7.85121 97.5357 7.56001C97.692 7.26882 97.7701 6.91903 97.7701 6.51065C97.7701 6.09872 97.6902 5.74183 97.5304 5.43999C97.3742 5.13814 97.1274 4.90732 96.79 4.74751C96.4562 4.58416 96.0176 4.50249 95.4743 4.50249H93.4075V14H91.7616ZM97.1469 9.07812L99.8422 14H97.9672L95.3252 9.07812H97.1469Z" fill="#273F65"/>
<path d="M1.43821 53V39.9091H9.55611V41.6094H3.41335V45.598H8.97443V47.2919H3.41335V53H1.43821ZM13.2451 53V39.9091H17.9113C18.9255 39.9091 19.7671 40.0838 20.4361 40.4332C21.1094 40.7827 21.6123 41.2663 21.9447 41.8842C22.277 42.4979 22.4432 43.2074 22.4432 44.0128C22.4432 44.8139 22.2749 45.5192 21.9383 46.1286C21.6059 46.7337 21.103 47.2045 20.4297 47.5412C19.7607 47.8778 18.9191 48.0462 17.9049 48.0462H14.3701V46.3459H17.7259C18.3651 46.3459 18.885 46.2543 19.2856 46.071C19.6904 45.8878 19.9866 45.6214 20.1741 45.272C20.3616 44.9226 20.4553 44.5028 20.4553 44.0128C20.4553 43.5185 20.3594 43.0902 20.1677 42.728C19.9802 42.3658 19.684 42.0888 19.2792 41.897C18.8786 41.701 18.3523 41.603 17.7003 41.603H15.2202V53H13.2451ZM19.7074 47.0938L22.9418 53H20.6918L17.5214 47.0938H19.7074ZM37.4781 46.4545C37.4781 47.8523 37.2224 49.054 36.7111 50.0597C36.1997 51.0611 35.4987 51.8324 34.6081 52.3736C33.7217 52.9105 32.7139 53.179 31.5846 53.179C30.4511 53.179 29.439 52.9105 28.5484 52.3736C27.662 51.8324 26.9632 51.0589 26.4518 50.0533C25.9405 49.0476 25.6848 47.848 25.6848 46.4545C25.6848 45.0568 25.9405 43.8572 26.4518 42.8558C26.9632 41.8501 27.662 41.0788 28.5484 40.5419C29.439 40.0007 30.4511 39.7301 31.5846 39.7301C32.7139 39.7301 33.7217 40.0007 34.6081 40.5419C35.4987 41.0788 36.1997 41.8501 36.7111 42.8558C37.2224 43.8572 37.4781 45.0568 37.4781 46.4545ZM35.5221 46.4545C35.5221 45.3892 35.3495 44.4922 35.0044 43.7635C34.6635 43.0305 34.1947 42.4766 33.5981 42.1016C33.0058 41.7223 32.3346 41.5327 31.5846 41.5327C30.8304 41.5327 30.1571 41.7223 29.5647 42.1016C28.9724 42.4766 28.5037 43.0305 28.1585 43.7635C27.8176 44.4922 27.6471 45.3892 27.6471 46.4545C27.6471 47.5199 27.8176 48.419 28.1585 49.152C28.5037 49.8807 28.9724 50.4347 29.5647 50.8139C30.1571 51.1889 30.8304 51.3764 31.5846 51.3764C32.3346 51.3764 33.0058 51.1889 33.5981 50.8139C34.1947 50.4347 34.6635 49.8807 35.0044 49.152C35.3495 48.419 35.5221 47.5199 35.5221 46.4545ZM41.2006 39.9091H43.5976L47.7653 50.0852H47.9187L52.0863 39.9091H54.4833V53H52.604V43.527H52.4826L48.6218 52.9808H47.0621L43.2013 43.5206H43.0799V53H41.2006V39.9091ZM76.01 46.4545C76.01 47.8523 75.7544 49.054 75.243 50.0597C74.7316 51.0611 74.0306 51.8324 73.14 52.3736C72.2537 52.9105 71.2458 53.179 70.1166 53.179C68.9831 53.179 67.971 52.9105 67.0804 52.3736C66.194 51.8324 65.4951 51.0589 64.9838 50.0533C64.4724 49.0476 64.2167 47.848 64.2167 46.4545C64.2167 45.0568 64.4724 43.8572 64.9838 42.8558C65.4951 41.8501 66.194 41.0788 67.0804 40.5419C67.971 40.0007 68.9831 39.7301 70.1166 39.7301C71.2458 39.7301 72.2537 40.0007 73.14 40.5419C74.0306 41.0788 74.7316 41.8501 75.243 42.8558C75.7544 43.8572 76.01 45.0568 76.01 46.4545ZM74.0541 46.4545C74.0541 45.3892 73.8815 44.4922 73.5363 43.7635C73.1954 43.0305 72.7267 42.4766 72.1301 42.1016C71.5377 41.7223 70.8666 41.5327 70.1166 41.5327C69.3623 41.5327 68.689 41.7223 68.0967 42.1016C67.5044 42.4766 67.0356 43.0305 66.6904 43.7635C66.3495 44.4922 66.1791 45.3892 66.1791 46.4545C66.1791 47.5199 66.3495 48.419 66.6904 49.152C67.0356 49.8807 67.5044 50.4347 68.0967 50.8139C68.689 51.1889 69.3623 51.3764 70.1166 51.3764C70.8666 51.3764 71.5377 51.1889 72.1301 50.8139C72.7267 50.4347 73.1954 49.8807 73.5363 49.152C73.8815 48.419 74.0541 47.5199 74.0541 46.4545ZM88.1509 39.9091H90.1324V48.5192C90.1324 49.4354 89.9172 50.2472 89.4868 50.9545C89.0564 51.6577 88.4513 52.2116 87.6715 52.6165C86.8917 53.017 85.9776 53.2173 84.9293 53.2173C83.8853 53.2173 82.9734 53.017 82.1935 52.6165C81.4137 52.2116 80.8086 51.6577 80.3782 50.9545C79.9478 50.2472 79.7326 49.4354 79.7326 48.5192V39.9091H81.7077V48.3594C81.7077 48.9517 81.8377 49.478 82.0976 49.9382C82.3618 50.3984 82.7347 50.7607 83.2162 51.0249C83.6978 51.2848 84.2688 51.4148 84.9293 51.4148C85.5941 51.4148 86.1672 51.2848 86.6488 51.0249C87.1346 50.7607 87.5053 50.3984 87.761 49.9382C88.0209 49.478 88.1509 48.9517 88.1509 48.3594V39.9091ZM93.6185 41.6094V39.9091H103.75V41.6094H99.6653V53H97.6966V41.6094H93.6185ZM114.389 43.348C114.32 42.7429 114.039 42.2741 113.545 41.9418C113.051 41.6051 112.428 41.4368 111.678 41.4368C111.141 41.4368 110.677 41.522 110.285 41.6925C109.893 41.8587 109.588 42.0888 109.371 42.3828C109.158 42.6726 109.051 43.0028 109.051 43.3736C109.051 43.6847 109.124 43.9531 109.269 44.179C109.418 44.4048 109.612 44.5945 109.85 44.7479C110.093 44.897 110.353 45.0227 110.63 45.125C110.907 45.223 111.173 45.304 111.429 45.3679L112.707 45.7003C113.125 45.8026 113.553 45.9411 113.992 46.1158C114.431 46.2905 114.838 46.5206 115.213 46.8061C115.588 47.0916 115.891 47.4453 116.121 47.8672C116.355 48.2891 116.472 48.794 116.472 49.3821C116.472 50.1236 116.281 50.782 115.897 51.3572C115.518 51.9325 114.966 52.3864 114.242 52.7188C113.521 53.0511 112.65 53.2173 111.627 53.2173C110.647 53.2173 109.799 53.0618 109.083 52.7507C108.367 52.4396 107.807 51.9986 107.402 51.4276C106.997 50.8523 106.774 50.1705 106.731 49.3821H108.712C108.751 49.8551 108.904 50.2493 109.173 50.5646C109.445 50.8757 109.793 51.108 110.215 51.2614C110.641 51.4105 111.107 51.4851 111.614 51.4851C112.173 51.4851 112.669 51.3977 113.104 51.223C113.543 51.044 113.888 50.7969 114.139 50.4815C114.391 50.1619 114.516 49.7891 114.516 49.3629C114.516 48.9751 114.406 48.6577 114.184 48.4105C113.967 48.1634 113.671 47.9588 113.296 47.7969C112.925 47.6349 112.505 47.4922 112.036 47.3686L110.489 46.9467C109.441 46.6612 108.61 46.2415 107.997 45.6875C107.387 45.1335 107.082 44.4006 107.082 43.4886C107.082 42.7344 107.287 42.076 107.696 41.5135C108.105 40.951 108.659 40.5142 109.358 40.2031C110.057 39.8878 110.845 39.7301 111.723 39.7301C112.609 39.7301 113.391 39.8857 114.069 40.1967C114.751 40.5078 115.288 40.9361 115.68 41.4815C116.072 42.0227 116.276 42.6449 116.293 43.348H114.389ZM122.068 39.9091V53H120.093V39.9091H122.068ZM130.442 53H126.204V39.9091H130.576C131.859 39.9091 132.961 40.1712 133.881 40.6953C134.802 41.2152 135.507 41.9631 135.997 42.9389C136.491 43.9105 136.738 45.076 136.738 46.4354C136.738 47.799 136.489 48.9709 135.99 49.951C135.496 50.9311 134.78 51.6854 133.843 52.2138C132.905 52.7379 131.772 53 130.442 53ZM128.179 51.2741H130.333C131.331 51.2741 132.159 51.0866 132.82 50.7116C133.481 50.3324 133.975 49.7848 134.303 49.0689C134.631 48.3487 134.795 47.4709 134.795 46.4354C134.795 45.4084 134.631 44.5369 134.303 43.821C133.979 43.1051 133.495 42.5618 132.852 42.1911C132.208 41.8203 131.409 41.6349 130.455 41.6349H128.179V51.2741ZM140.454 53V39.9091H148.662V41.6094H142.43V45.598H148.234V47.2919H142.43V51.2997H148.739V53H140.454Z" fill="#1B1C25"/>
<path d="M12.135 83.44H11.025V73.465H12.135V83.44ZM8.115 77.695H6.135V76.75H8.115V73.675H9.195V83.065H8.115V77.695ZM3.825 78.385C3.755 78.385 3.7 78.42 3.66 78.49C3.43 78.93 3.13 79.39 2.76 79.87C2.39 80.34 1.92 80.885 1.35 81.505L0.555 80.815C1.285 80.015 1.84 79.335 2.22 78.775C2.61 78.205 2.885 77.65 3.045 77.11C3.215 76.56 3.3 75.935 3.3 75.235V74.365H4.395V75.265C4.395 76.245 4.245 77.105 3.945 77.845L4.02 77.89L4.2 77.74C4.31 77.66 4.41 77.62 4.5 77.62C4.61 77.62 4.71 77.67 4.8 77.77L7.17 80.485L6.375 81.235L4.035 78.49C3.975 78.42 3.905 78.385 3.825 78.385ZM12.42 85.825V86.77H4.215C3.975 86.77 3.79 86.705 3.66 86.575C3.53 86.445 3.465 86.255 3.465 86.005V82.315H4.605V85.825H12.42ZM15.204 80.965L14.559 80.08C15.919 79.38 16.959 78.76 17.679 78.22C18.409 77.67 18.914 77.125 19.194 76.585C19.474 76.035 19.614 75.405 19.614 74.695V74.185H20.784V74.725C20.784 75.305 20.719 75.825 20.589 76.285C20.469 76.735 20.264 77.16 19.974 77.56L20.049 77.605L20.424 77.32C20.554 77.22 20.684 77.17 20.814 77.17C20.944 77.17 21.074 77.215 21.204 77.305L25.569 80.02L24.909 80.92L20.394 78.01C20.264 77.92 20.124 77.875 19.974 77.875C19.844 77.875 19.714 77.925 19.584 78.025C19.174 78.465 18.619 78.92 17.919 79.39C17.219 79.85 16.314 80.375 15.204 80.965ZM26.184 84.025V85H13.944V84.025H26.184ZM38.553 80.98H37.398V73.465H38.553V80.98ZM27.753 77.2C27.753 76.54 27.898 75.965 28.188 75.475C28.488 74.985 28.898 74.61 29.418 74.35C29.938 74.08 30.533 73.945 31.203 73.945C31.873 73.945 32.468 74.08 32.988 74.35C33.508 74.61 33.913 74.985 34.203 75.475C34.503 75.965 34.653 76.54 34.653 77.2C34.653 77.86 34.503 78.435 34.203 78.925C33.913 79.415 33.503 79.795 32.973 80.065C32.453 80.325 31.863 80.455 31.203 80.455C30.543 80.455 29.948 80.325 29.418 80.065C28.898 79.795 28.488 79.415 28.188 78.925C27.898 78.435 27.753 77.86 27.753 77.2ZM28.953 77.455C28.953 78.075 29.158 78.575 29.568 78.955C29.988 79.325 30.533 79.51 31.203 79.51C31.873 79.51 32.413 79.325 32.823 78.955C33.233 78.575 33.438 78.075 33.438 77.455V76.93C33.438 76.31 33.233 75.815 32.823 75.445C32.413 75.075 31.873 74.89 31.203 74.89C30.533 74.89 29.988 75.075 29.568 75.445C29.158 75.815 28.953 76.31 28.953 76.93V77.455ZM39.783 86.275L39.048 87.055L36.828 84.88C36.768 84.81 36.698 84.775 36.618 84.775C36.578 84.775 36.533 84.79 36.483 84.82C36.253 85.16 35.958 85.51 35.598 85.87C35.238 86.24 34.758 86.685 34.158 87.205L31.878 84.835C31.808 84.765 31.738 84.73 31.668 84.73C31.628 84.73 31.573 84.755 31.503 84.805C31.063 85.465 30.313 86.25 29.253 87.16L28.533 86.395C29.203 85.835 29.728 85.335 30.108 84.895C30.488 84.455 30.758 84.02 30.918 83.59C31.088 83.16 31.173 82.675 31.173 82.135V81.655H32.253V82.165C32.253 82.985 32.098 83.7 31.788 84.31L31.848 84.34L32.043 84.19C32.123 84.12 32.218 84.085 32.328 84.085C32.448 84.085 32.553 84.13 32.643 84.22L34.233 85.81C34.953 85.16 35.448 84.575 35.718 84.055C35.988 83.535 36.123 82.9 36.123 82.15V81.655H37.203V82.21C37.203 82.65 37.168 83.04 37.098 83.38C37.028 83.72 36.913 84.045 36.753 84.355L36.813 84.4L37.008 84.235C37.118 84.155 37.223 84.115 37.323 84.115C37.423 84.115 37.523 84.155 37.623 84.235L39.783 86.275ZM53.3221 79.555H51.1621V86.515H50.0221V73.495H51.1621V78.595H53.3221V79.555ZM48.4471 81.685L48.5971 82.6C47.0671 82.91 45.1571 83.065 42.8671 83.065H41.2771V74.53H47.2621V75.49H42.4171V82.12H42.8521C45.0521 82.12 46.9171 81.975 48.4471 81.685ZM55.5361 85.18C55.2161 85.18 54.9811 85.1 54.8311 84.94C54.6911 84.78 54.6211 84.57 54.6211 84.31V84.115C54.6211 83.855 54.6911 83.645 54.8311 83.485C54.9811 83.325 55.2161 83.245 55.5361 83.245C55.8561 83.245 56.0861 83.325 56.2261 83.485C56.3761 83.645 56.4511 83.855 56.4511 84.115V84.31C56.4511 84.57 56.3761 84.78 56.2261 84.94C56.0861 85.1 55.8561 85.18 55.5361 85.18ZM71.7929 77.26H68.9279V76.3H71.7929V73.465H72.9329V81.22H71.7929V77.26ZM65.6879 77.71C65.6179 77.71 65.5579 77.74 65.5079 77.8C65.2379 78.25 64.8829 78.715 64.4429 79.195C64.0129 79.665 63.4429 80.23 62.7329 80.89L61.8929 80.14C62.7429 79.38 63.3979 78.73 63.8579 78.19C64.3179 77.64 64.6479 77.1 64.8479 76.57C65.0579 76.03 65.1629 75.42 65.1629 74.74V73.915H66.3029V74.8C66.3029 75.73 66.1329 76.57 65.7929 77.32L65.8529 77.35L66.1079 77.14C66.2179 77.05 66.3279 77.005 66.4379 77.005C66.5479 77.005 66.6479 77.05 66.7379 77.14L69.6029 79.795L68.7779 80.59L65.8829 77.8C65.8229 77.74 65.7579 77.71 65.6879 77.71ZM73.0079 84.34C73.0079 84.89 72.8479 85.38 72.5279 85.81C72.2179 86.25 71.7479 86.595 71.1179 86.845C70.4879 87.095 69.7179 87.22 68.8079 87.22C67.8979 87.22 67.1229 87.095 66.4829 86.845C65.8529 86.595 65.3779 86.25 65.0579 85.81C64.7479 85.38 64.5929 84.89 64.5929 84.34C64.5929 83.79 64.7479 83.3 65.0579 82.87C65.3779 82.43 65.8529 82.085 66.4829 81.835C67.1229 81.585 67.8979 81.46 68.8079 81.46C69.7179 81.46 70.4879 81.585 71.1179 81.835C71.7479 82.085 72.2179 82.43 72.5279 82.87C72.8479 83.3 73.0079 83.79 73.0079 84.34ZM71.7929 84.22C71.7929 83.7 71.5429 83.265 71.0429 82.915C70.5529 82.565 69.8079 82.39 68.8079 82.39C67.8079 82.39 67.0579 82.57 66.5579 82.93C66.0579 83.28 65.8079 83.71 65.8079 84.22V84.475C65.8079 84.985 66.0579 85.415 66.5579 85.765C67.0579 86.125 67.8079 86.305 68.8079 86.305C69.8079 86.305 70.5529 86.125 71.0429 85.765C71.5429 85.415 71.7929 84.985 71.7929 84.475V84.22ZM86.307 80.29H85.152V73.465H86.307V80.29ZM79.122 77.485C79.052 77.485 78.992 77.515 78.942 77.575C78.682 77.995 78.337 78.425 77.907 78.865C77.477 79.295 76.892 79.83 76.152 80.47L75.312 79.72C76.172 79 76.832 78.385 77.292 77.875C77.752 77.355 78.082 76.84 78.282 76.33C78.492 75.82 78.597 75.245 78.597 74.605V73.84H79.752V74.68C79.752 75.58 79.577 76.38 79.227 77.08L79.302 77.11L79.542 76.9C79.662 76.81 79.772 76.765 79.872 76.765C79.982 76.765 80.087 76.81 80.187 76.9L83.067 79.405L82.257 80.215L79.332 77.575C79.272 77.515 79.202 77.485 79.122 77.485ZM86.667 86.125V87.1H78.702C78.462 87.1 78.277 87.035 78.147 86.905C78.017 86.775 77.952 86.585 77.952 86.335V83.62H85.152V82.075H77.862V81.115H86.307V84.58H79.107V86.125H86.667ZM101.076 79.795H98.961V86.515H97.821V73.495H98.961V78.835H101.076V79.795ZM94.626 75.175H90.366V74.2H94.626V75.175ZM88.371 76.975H96.396V77.905H94.176V77.995C95.086 78.445 95.541 79.31 95.541 80.59C95.541 81.24 95.406 81.805 95.136 82.285C94.866 82.755 94.491 83.115 94.011 83.365C93.541 83.615 93.016 83.74 92.436 83.74C91.856 83.74 91.326 83.615 90.846 83.365C90.376 83.115 90.006 82.755 89.736 82.285C89.466 81.805 89.331 81.24 89.331 80.59C89.331 79.31 89.786 78.445 90.696 77.995V77.905H88.371V76.975ZM94.431 80.095C94.431 79.425 94.251 78.915 93.891 78.565C93.531 78.205 93.046 78.025 92.436 78.025C91.836 78.025 91.351 78.205 90.981 78.565C90.621 78.925 90.441 79.435 90.441 80.095V80.71C90.441 81.36 90.626 81.87 90.996 82.24C91.366 82.6 91.846 82.78 92.436 82.78C93.026 82.78 93.506 82.6 93.876 82.24C94.246 81.87 94.431 81.36 94.431 80.71V80.095ZM114.45 79.555H112.29V86.515H111.15V73.495H112.29V78.595H114.45V79.555ZM109.575 81.685L109.725 82.6C108.195 82.91 106.285 83.065 103.995 83.065H102.405V74.53H108.39V75.49H103.545V82.12H103.98C106.18 82.12 108.045 81.975 109.575 81.685ZM116.664 85.18C116.344 85.18 116.109 85.1 115.959 84.94C115.819 84.78 115.749 84.57 115.749 84.31V84.115C115.749 83.855 115.819 83.645 115.959 83.485C116.109 83.325 116.344 83.245 116.664 83.245C116.984 83.245 117.214 83.325 117.354 83.485C117.504 83.645 117.579 83.855 117.579 84.115V84.31C117.579 84.57 117.504 84.78 117.354 84.94C117.214 85.1 116.984 85.18 116.664 85.18ZM124.221 79.27L123.591 78.4C124.891 77.86 125.886 77.375 126.576 76.945C127.276 76.505 127.761 76.07 128.031 75.64C128.311 75.2 128.451 74.7 128.451 74.14V73.735H129.621V74.185C129.621 74.655 129.561 75.075 129.441 75.445C129.321 75.815 129.126 76.16 128.856 76.48L128.961 76.525L129.336 76.255C129.496 76.145 129.641 76.09 129.771 76.09C129.871 76.09 129.981 76.12 130.101 76.18L134.301 78.355L133.656 79.24L129.261 76.885C129.131 76.815 128.996 76.78 128.856 76.78C128.706 76.78 128.571 76.82 128.451 76.9C128.051 77.27 127.516 77.64 126.846 78.01C126.176 78.37 125.301 78.79 124.221 79.27ZM135.066 80.71V81.685H122.826V80.71H128.376V78.7H129.516V80.71H135.066ZM125.721 85.855H133.491V86.8H125.331C125.091 86.8 124.906 86.735 124.776 86.605C124.646 86.475 124.581 86.285 124.581 86.035V82.87H125.721V85.855ZM146.22 73.465H147.36V86.485H146.22V73.465ZM136.59 78.73C136.59 77.27 136.91 76.165 137.55 75.415C138.2 74.665 139.055 74.29 140.115 74.29C141.165 74.29 142.01 74.665 142.65 75.415C143.3 76.165 143.625 77.27 143.625 78.73C143.625 79.71 143.475 80.535 143.175 81.205C142.875 81.865 142.46 82.36 141.93 82.69C141.4 83.01 140.795 83.17 140.115 83.17C139.055 83.17 138.2 82.795 137.55 82.045C136.91 81.295 136.59 80.19 136.59 78.73ZM142.41 79.315V78.145C142.41 77.215 142.195 76.5 141.765 76C141.345 75.5 140.795 75.25 140.115 75.25C139.425 75.25 138.865 75.5 138.435 76C138.015 76.49 137.805 77.205 137.805 78.145V79.315C137.805 80.255 138.015 80.975 138.435 81.475C138.865 81.965 139.425 82.21 140.115 82.21C140.795 82.21 141.345 81.96 141.765 81.46C142.195 80.96 142.41 80.245 142.41 79.315ZM165.794 79.555H163.964V86.515H162.899V73.495H163.964V78.595H165.794V79.555ZM155.969 74.44H156.929V83.14H153.194V74.47H154.154V77.845H155.969V74.44ZM160.679 74.44H161.654V83.14H157.919V74.47H158.879V77.845H160.679V74.44ZM155.969 78.76H154.154V82.24H155.969V78.76ZM160.679 78.76H158.879V82.24H160.679V78.76ZM168.293 77.425H175.793V75.22H168.218V74.26H176.933V78.34H169.433V80.56H177.353V81.52H168.293V77.425ZM166.493 84.025H178.733V85H166.493V84.025ZM192.497 79.555H190.337V86.515H189.197V73.495H190.337V78.595H192.497V79.555ZM187.622 81.685L187.772 82.6C186.242 82.91 184.332 83.065 182.042 83.065H180.452V74.53H186.437V75.49H181.592V82.12H182.027C184.227 82.12 186.092 81.975 187.622 81.685ZM194.711 85.18C194.391 85.18 194.156 85.1 194.006 84.94C193.866 84.78 193.796 84.57 193.796 84.31V84.115C193.796 83.855 193.866 83.645 194.006 83.485C194.156 83.325 194.391 83.245 194.711 83.245C195.031 83.245 195.261 83.325 195.401 83.485C195.551 83.645 195.626 83.855 195.626 84.115V84.31C195.626 84.57 195.551 84.78 195.401 84.94C195.261 85.1 195.031 85.18 194.711 85.18ZM213.113 84.04V85H200.873V84.04H206.423V80.575H202.643V74.35H211.388V75.325H203.783V79.6H211.523V80.575H207.563V84.04H213.113ZM224.342 77.005V73.465H225.482V83.35H224.342V77.965H221.612V77.005H224.342ZM218.342 78.415C218.272 78.415 218.207 78.445 218.147 78.505C217.877 78.925 217.532 79.36 217.112 79.81C216.692 80.25 216.132 80.79 215.432 81.43L214.577 80.695C215.417 79.975 216.067 79.355 216.527 78.835C216.987 78.305 217.317 77.785 217.517 77.275C217.727 76.755 217.832 76.175 217.832 75.535V75.385H214.967V74.44H221.807V75.385H218.972V75.595C218.972 76.485 218.797 77.28 218.447 77.98L218.537 78.025L218.762 77.845C218.872 77.765 218.977 77.725 219.077 77.725C219.197 77.725 219.317 77.775 219.437 77.875L222.242 80.425L221.402 81.16L218.567 78.505C218.507 78.445 218.432 78.415 218.342 78.415ZM225.752 85.825V86.77H217.892C217.652 86.77 217.467 86.705 217.337 86.575C217.207 86.445 217.142 86.255 217.142 86.005V82.45H218.297V85.825H225.752ZM229.241 75.865C229.241 75.135 229.616 74.555 230.366 74.125C231.116 73.685 232.241 73.465 233.741 73.465C235.241 73.465 236.366 73.685 237.116 74.125C237.866 74.555 238.241 75.135 238.241 75.865C238.241 76.595 237.866 77.18 237.116 77.62C236.366 78.06 235.241 78.28 233.741 78.28C232.241 78.28 231.116 78.06 230.366 77.62C229.616 77.18 229.241 76.595 229.241 75.865ZM237.026 75.94V75.775C237.026 75.345 236.751 74.995 236.201 74.725C235.661 74.445 234.841 74.305 233.741 74.305C232.641 74.305 231.816 74.445 231.266 74.725C230.726 74.995 230.456 75.345 230.456 75.775V75.94C230.456 76.37 230.726 76.725 231.266 77.005C231.816 77.275 232.641 77.41 233.741 77.41C234.841 77.41 235.661 77.275 236.201 77.005C236.751 76.725 237.026 76.37 237.026 75.94ZM239.861 79.315V80.275H227.621V79.315H239.861ZM229.526 86.335V83.875H236.921V82.465H229.436V81.535H238.016V84.745H230.621V86.17H238.406V87.1H230.276C230.036 87.1 229.851 87.035 229.721 86.905C229.591 86.775 229.526 86.585 229.526 86.335ZM255.07 79.345H246.37V73.945H254.95V74.92H247.525V78.37H255.07V79.345ZM256.78 82.135H251.23V87.01H250.09V82.135H244.54V81.16H256.78V82.135ZM269.104 73.465V86.485H267.979V80.65H265.234V79.72H267.979V77.44H265.234V76.495H267.979V73.465H269.104ZM265.579 82.09L265.729 83.005C264.209 83.305 262.379 83.455 260.239 83.455H258.709V78.34H263.194V75.4H258.664V74.44H264.319V79.27H259.834V82.51H260.299C262.339 82.51 264.099 82.37 265.579 82.09ZM282.538 73.465V86.485H281.413V83.44H278.158V82.51H281.413V73.465H282.538ZM272.038 76.525C272.038 75.985 272.188 75.51 272.488 75.1C272.798 74.69 273.223 74.375 273.763 74.155C274.303 73.935 274.913 73.825 275.593 73.825C276.273 73.825 276.878 73.935 277.408 74.155C277.948 74.375 278.368 74.69 278.668 75.1C278.978 75.51 279.133 75.985 279.133 76.525C279.133 77.075 278.978 77.555 278.668 77.965C278.368 78.365 277.948 78.675 277.408 78.895C276.878 79.115 276.273 79.225 275.593 79.225C274.903 79.225 274.288 79.115 273.748 78.895C273.218 78.675 272.798 78.365 272.488 77.965C272.188 77.555 272.038 77.075 272.038 76.525ZM273.223 76.66C273.223 77.16 273.443 77.565 273.883 77.875C274.323 78.175 274.893 78.325 275.593 78.325C276.293 78.325 276.863 78.175 277.303 77.875C277.743 77.565 277.963 77.16 277.963 76.66V76.39C277.963 75.89 277.743 75.49 277.303 75.19C276.863 74.88 276.293 74.725 275.593 74.725C274.893 74.725 274.323 74.88 273.883 75.19C273.443 75.49 273.223 75.89 273.223 76.39V76.66ZM276.193 81.4V86.365H275.068V81.46C273.718 81.51 272.488 81.535 271.378 81.535L271.273 80.575C272.973 80.575 274.613 80.535 276.193 80.455C277.773 80.375 279.113 80.25 280.213 80.08L280.333 80.995C279.193 81.175 277.813 81.31 276.193 81.4ZM13.2 102.795H11.085V109.515H9.945V96.495H11.085V101.835H13.2V102.795ZM6.75 98.175H2.49V97.2H6.75V98.175ZM0.495 99.975H8.52V100.905H6.3V100.995C7.21 101.445 7.665 102.31 7.665 103.59C7.665 104.24 7.53 104.805 7.26 105.285C6.99 105.755 6.615 106.115 6.135 106.365C5.665 106.615 5.14 106.74 4.56 106.74C3.98 106.74 3.45 106.615 2.97 106.365C2.5 106.115 2.13 105.755 1.86 105.285C1.59 104.805 1.455 104.24 1.455 103.59C1.455 102.31 1.91 101.445 2.82 100.995V100.905H0.495V99.975ZM6.555 103.095C6.555 102.425 6.375 101.915 6.015 101.565C5.655 101.205 5.17 101.025 4.56 101.025C3.96 101.025 3.475 101.205 3.105 101.565C2.745 101.925 2.565 102.435 2.565 103.095V103.71C2.565 104.36 2.75 104.87 3.12 105.24C3.49 105.6 3.97 105.78 4.56 105.78C5.15 105.78 5.63 105.6 6 105.24C6.37 104.87 6.555 104.36 6.555 103.71V103.095ZM25.104 96.465V109.485H23.964V96.465H25.104ZM18.834 101.97C18.974 101.97 19.089 102.025 19.179 102.135L22.119 105.585L21.264 106.32L18.294 102.75C18.244 102.69 18.184 102.66 18.114 102.66C18.054 102.66 17.999 102.69 17.949 102.75C17.679 103.3 17.324 103.86 16.884 104.43C16.444 105 15.844 105.7 15.084 106.53L14.229 105.81C15.099 104.9 15.769 104.11 16.239 103.44C16.719 102.77 17.064 102.105 17.274 101.445C17.484 100.775 17.589 100.015 17.589 99.165V98.595H14.634V97.635H21.669V98.595H18.729V99.21C18.729 100.34 18.554 101.345 18.204 102.225L18.279 102.27L18.504 102.09C18.614 102.01 18.724 101.97 18.834 101.97ZM43.508 99.42V100.38H41.423V103.245H40.283V96.465H41.423V99.42H43.508ZM34.388 103.245C33.728 103.245 33.138 103.115 32.618 102.855C32.108 102.595 31.708 102.225 31.418 101.745C31.128 101.255 30.983 100.69 30.983 100.05C30.983 99.41 31.128 98.85 31.418 98.37C31.708 97.89 32.108 97.52 32.618 97.26C33.138 97 33.728 96.87 34.388 96.87C35.038 96.87 35.618 97 36.128 97.26C36.648 97.52 37.053 97.89 37.343 98.37C37.633 98.85 37.778 99.41 37.778 100.05C37.778 100.69 37.633 101.255 37.343 101.745C37.053 102.225 36.648 102.595 36.128 102.855C35.618 103.115 35.038 103.245 34.388 103.245ZM34.388 102.33C35.038 102.33 35.568 102.145 35.978 101.775C36.388 101.405 36.593 100.915 36.593 100.305V99.81C36.593 99.2 36.388 98.715 35.978 98.355C35.568 97.985 35.038 97.8 34.388 97.8C33.728 97.8 33.193 97.985 32.783 98.355C32.373 98.715 32.168 99.2 32.168 99.81V100.305C32.168 100.915 32.373 101.405 32.783 101.775C33.193 102.145 33.728 102.33 34.388 102.33ZM37.763 104.91V103.995H40.928V104.91H37.763ZM36.128 108.3L36.413 109.245C36.023 109.415 35.558 109.555 35.018 109.665C34.478 109.785 33.913 109.845 33.323 109.845H33.053C32.813 109.845 32.628 109.78 32.498 109.65C32.368 109.52 32.303 109.33 32.303 109.08V104.505H33.368V108.825H33.563C34.033 108.825 34.493 108.77 34.943 108.66C35.403 108.56 35.798 108.44 36.128 108.3ZM36.158 106.095H42.533V106.95H40.823V107.04C41.143 107.19 41.383 107.39 41.543 107.64C41.703 107.89 41.783 108.175 41.783 108.495C41.783 109.015 41.563 109.45 41.123 109.8C40.683 110.16 40.093 110.34 39.353 110.34C38.603 110.34 38.008 110.16 37.568 109.8C37.128 109.45 36.908 109.015 36.908 108.495C36.908 108.165 36.988 107.875 37.148 107.625C37.308 107.375 37.553 107.175 37.883 107.025V106.95H36.158V106.095ZM40.823 108.24C40.823 107.86 40.693 107.56 40.433 107.34C40.183 107.12 39.853 107.01 39.443 107.01H39.248C38.838 107.01 38.503 107.12 38.243 107.34C37.993 107.56 37.868 107.86 37.868 108.24C37.868 108.62 37.993 108.92 38.243 109.14C38.503 109.36 38.838 109.47 39.248 109.47H39.443C39.853 109.47 40.183 109.36 40.433 109.14C40.693 108.92 40.823 108.62 40.823 108.24ZM54.737 101.655H46.112V96.945H47.237V100.71H54.737V101.655ZM56.477 103.32V104.295H44.237V103.32H56.477ZM47.132 108.795H54.902V109.755H46.742C46.502 109.755 46.317 109.69 46.187 109.56C46.057 109.43 45.992 109.24 45.992 108.99V105.705H47.132V108.795ZM70.241 102.555H68.081V109.515H66.941V96.495H68.081V101.595H70.241V102.555ZM65.366 104.685L65.516 105.6C63.986 105.91 62.076 106.065 59.786 106.065H58.196V97.53H64.181V98.49H59.336V105.12H59.771C61.971 105.12 63.836 104.975 65.366 104.685ZM72.455 108.18C72.135 108.18 71.9 108.1 71.75 107.94C71.61 107.78 71.54 107.57 71.54 107.31V107.115C71.54 106.855 71.61 106.645 71.75 106.485C71.9 106.325 72.135 106.245 72.455 106.245C72.775 106.245 73.005 106.325 73.145 106.485C73.295 106.645 73.37 106.855 73.37 107.115V107.31C73.37 107.57 73.295 107.78 73.145 107.94C73.005 108.1 72.775 108.18 72.455 108.18ZM79.9819 101.325L79.3819 100.485C80.6819 100.035 81.6819 99.625 82.3819 99.255C83.0819 98.885 83.5719 98.515 83.8519 98.145C84.1319 97.765 84.2719 97.33 84.2719 96.84V96.525H85.3969V96.885C85.3969 97.295 85.3369 97.665 85.2169 97.995C85.0969 98.315 84.9069 98.615 84.6469 98.895L84.7519 98.925L85.1269 98.655C85.2869 98.545 85.4369 98.49 85.5769 98.49C85.6669 98.49 85.7769 98.515 85.9069 98.565L90.0919 100.44L89.4769 101.28L85.0819 99.255C84.9519 99.185 84.8119 99.15 84.6619 99.15C84.5019 99.15 84.3619 99.19 84.2419 99.27L84.2269 99.285C83.8169 99.605 83.2719 99.925 82.5919 100.245C81.9119 100.565 81.0419 100.925 79.9819 101.325ZM90.8569 102.42V103.365H78.6169V102.42H84.1669V100.74H85.3069V102.42H90.8569ZM81.6019 109.17H89.4019V110.1H81.2719C81.0319 110.1 80.8469 110.035 80.7169 109.905C80.5869 109.775 80.5219 109.585 80.5219 109.335V106.89H87.9169V105.495H80.4319V104.565H89.0119V107.76H81.6019V109.17ZM103.226 96.465V104.355H102.071V96.465H103.226ZM93.2359 103.995L92.3959 103.275C93.2459 102.595 93.9009 102.01 94.3609 101.52C94.8309 101.03 95.1709 100.545 95.3809 100.065C95.5909 99.585 95.6959 99.04 95.6959 98.43V98.28H92.8159V97.32H99.7309V98.28H96.8359V98.475C96.8359 99.325 96.6609 100.08 96.3109 100.74L96.4009 100.8L96.6409 100.62C96.7509 100.53 96.8609 100.485 96.9709 100.485C97.0809 100.485 97.1959 100.53 97.3159 100.62L100.166 103.02L99.3109 103.77L96.4309 101.25C96.3609 101.19 96.2809 101.16 96.1909 101.16C96.1109 101.16 96.0409 101.19 95.9809 101.25C95.7109 101.65 95.3609 102.065 94.9309 102.495C94.5009 102.915 93.9359 103.415 93.2359 103.995ZM94.6459 105.165H103.226V110.145H102.101V106.125H94.6459V105.165ZM117.995 102.795H115.88V109.515H114.74V96.495H115.88V101.835H117.995V102.795ZM111.545 98.175H107.285V97.2H111.545V98.175ZM105.29 99.975H113.315V100.905H111.095V100.995C112.005 101.445 112.46 102.31 112.46 103.59C112.46 104.24 112.325 104.805 112.055 105.285C111.785 105.755 111.41 106.115 110.93 106.365C110.46 106.615 109.935 106.74 109.355 106.74C108.775 106.74 108.245 106.615 107.765 106.365C107.295 106.115 106.925 105.755 106.655 105.285C106.385 104.805 106.25 104.24 106.25 103.59C106.25 102.31 106.705 101.445 107.615 100.995V100.905H105.29V99.975ZM111.35 103.095C111.35 102.425 111.17 101.915 110.81 101.565C110.45 101.205 109.965 101.025 109.355 101.025C108.755 101.025 108.27 101.205 107.9 101.565C107.54 101.925 107.36 102.435 107.36 103.095V103.71C107.36 104.36 107.545 104.87 107.915 105.24C108.285 105.6 108.765 105.78 109.355 105.78C109.945 105.78 110.425 105.6 110.795 105.24C111.165 104.87 111.35 104.36 111.35 103.71V103.095ZM131.369 102.555H129.209V109.515H128.069V96.495H129.209V101.595H131.369V102.555ZM126.494 104.685L126.644 105.6C125.114 105.91 123.204 106.065 120.914 106.065H119.324V97.53H125.309V98.49H120.464V105.12H120.899C123.099 105.12 124.964 104.975 126.494 104.685ZM133.583 108.18C133.263 108.18 133.028 108.1 132.878 107.94C132.738 107.78 132.668 107.57 132.668 107.31V107.115C132.668 106.855 132.738 106.645 132.878 106.485C133.028 106.325 133.263 106.245 133.583 106.245C133.903 106.245 134.133 106.325 134.273 106.485C134.423 106.645 134.498 106.855 134.498 107.115V107.31C134.498 107.57 134.423 107.78 134.273 107.94C134.133 108.1 133.903 108.18 133.583 108.18ZM146.435 102.93V104.565H150.14V107.79H142.745V109.2H150.53V110.145H142.4C142.16 110.145 141.975 110.08 141.845 109.95C141.715 109.82 141.65 109.63 141.65 109.38V106.905H149.045V105.495H141.56V104.565H145.31V102.93H139.745V102H148.655C148.795 101.35 148.9 100.715 148.97 100.095L141.11 100.395L140.99 99.51L149.045 99.27C149.075 98.77 149.09 98.245 149.09 97.695H141.44V96.795H150.215V97.8C150.215 99.27 150.07 100.67 149.78 102H151.985V102.93H146.435ZM165.749 102.795H163.634V109.515H162.494V96.495H163.634V101.835H165.749V102.795ZM159.299 98.175H155.039V97.2H159.299V98.175ZM153.044 99.975H161.069V100.905H158.849V100.995C159.759 101.445 160.214 102.31 160.214 103.59C160.214 104.24 160.079 104.805 159.809 105.285C159.539 105.755 159.164 106.115 158.684 106.365C158.214 106.615 157.689 106.74 157.109 106.74C156.529 106.74 155.999 106.615 155.519 106.365C155.049 106.115 154.679 105.755 154.409 105.285C154.139 104.805 154.004 104.24 154.004 103.59C154.004 102.31 154.459 101.445 155.369 100.995V100.905H153.044V99.975ZM159.104 103.095C159.104 102.425 158.924 101.915 158.564 101.565C158.204 101.205 157.719 101.025 157.109 101.025C156.509 101.025 156.024 101.205 155.654 101.565C155.294 101.925 155.114 102.435 155.114 103.095V103.71C155.114 104.36 155.299 104.87 155.669 105.24C156.039 105.6 156.519 105.78 157.109 105.78C157.699 105.78 158.179 105.6 158.549 105.24C158.919 104.87 159.104 104.36 159.104 103.71V103.095ZM179.123 102.555H176.963V109.515H175.823V96.495H176.963V101.595H179.123V102.555ZM174.248 104.685L174.398 105.6C172.868 105.91 170.958 106.065 168.668 106.065H167.078V97.53H173.063V98.49H168.218V105.12H168.653C170.853 105.12 172.718 104.975 174.248 104.685ZM181.337 108.18C181.017 108.18 180.782 108.1 180.632 107.94C180.492 107.78 180.422 107.57 180.422 107.31V107.115C180.422 106.855 180.492 106.645 180.632 106.485C180.782 106.325 181.017 106.245 181.337 106.245C181.657 106.245 181.887 106.325 182.027 106.485C182.177 106.645 182.252 106.855 182.252 107.115V107.31C182.252 107.57 182.177 107.78 182.027 107.94C181.887 108.1 181.657 108.18 181.337 108.18ZM200.144 100.725H198.059V103.98H196.919V96.465H198.059V99.765H200.144V100.725ZM195.359 102.615C194.629 102.765 193.764 102.885 192.764 102.975C191.764 103.065 190.699 103.11 189.569 103.11H188.069V97.17H189.194V102.165H189.584C190.644 102.165 191.664 102.125 192.644 102.045C193.624 101.955 194.479 101.84 195.209 101.7L195.359 102.615ZM189.944 104.79H198.059V110.025H190.694C190.454 110.025 190.269 109.96 190.139 109.83C190.009 109.7 189.944 109.51 189.944 109.26V104.79ZM191.084 109.065H196.919V105.735H191.084V109.065ZM202.493 98.865C202.493 98.135 202.868 97.555 203.618 97.125C204.368 96.685 205.493 96.465 206.993 96.465C208.493 96.465 209.618 96.685 210.368 97.125C211.118 97.555 211.493 98.135 211.493 98.865C211.493 99.595 211.118 100.18 210.368 100.62C209.618 101.06 208.493 101.28 206.993 101.28C205.493 101.28 204.368 101.06 203.618 100.62C202.868 100.18 202.493 99.595 202.493 98.865ZM210.278 98.94V98.775C210.278 98.345 210.003 97.995 209.453 97.725C208.913 97.445 208.093 97.305 206.993 97.305C205.893 97.305 205.068 97.445 204.518 97.725C203.978 97.995 203.708 98.345 203.708 98.775V98.94C203.708 99.37 203.978 99.725 204.518 100.005C205.068 100.275 205.893 100.41 206.993 100.41C208.093 100.41 208.913 100.275 209.453 100.005C210.003 99.725 210.278 99.37 210.278 98.94ZM213.113 102.315V103.275H200.873V102.315H213.113ZM202.778 109.335V106.875H210.173V105.465H202.688V104.535H211.268V107.745H203.873V109.17H211.658V110.1H203.528C203.288 110.1 203.103 110.035 202.973 109.905C202.843 109.775 202.778 109.585 202.778 109.335ZM230.437 99.45V100.41H228.352V103.335H227.212V96.465H228.352V99.45H230.437ZM218.677 103.32L217.852 102.615C218.692 101.985 219.342 101.44 219.802 100.98C220.262 100.52 220.592 100.065 220.792 99.615C221.002 99.165 221.107 98.655 221.107 98.085V98.07H218.242V97.14H225.097V98.07H222.232V98.145C222.232 98.925 222.057 99.635 221.707 100.275L221.797 100.32L222.022 100.155C222.132 100.065 222.242 100.02 222.352 100.02C222.482 100.02 222.597 100.065 222.697 100.155L225.502 102.36L224.677 103.11L221.842 100.785C221.752 100.715 221.667 100.68 221.587 100.68C221.517 100.68 221.452 100.71 221.392 100.77C221.112 101.14 220.757 101.525 220.327 101.925C219.907 102.315 219.357 102.78 218.677 103.32ZM221.242 109.2H228.712V110.1H220.867C220.627 110.1 220.442 110.035 220.312 109.905C220.182 109.775 220.117 109.585 220.117 109.335V106.695H227.227V105.045H220.027V104.145H228.352V107.535H221.242V109.2ZM243.156 104.355H242.076V96.675H243.156V100.125H245.181V96.465H246.276V104.7H245.181V101.055H243.156V104.355ZM239.841 97.89H236.361V96.975H239.841V97.89ZM238.041 102.285C237.961 102.285 237.891 102.32 237.831 102.39C237.351 103.02 236.601 103.75 235.581 104.58L234.831 103.92C235.521 103.35 236.056 102.87 236.436 102.48C236.826 102.08 237.111 101.695 237.291 101.325C237.471 100.945 237.576 100.525 237.606 100.065H235.131V99.165H241.026V100.065H238.656C238.626 100.725 238.456 101.335 238.146 101.895L238.206 101.925L238.416 101.775C238.516 101.705 238.611 101.67 238.701 101.67C238.821 101.67 238.936 101.715 239.046 101.805L241.326 103.665L240.576 104.34L238.266 102.375C238.166 102.315 238.091 102.285 238.041 102.285ZM246.336 107.64C246.336 108.15 246.176 108.6 245.856 108.99C245.536 109.39 245.056 109.7 244.416 109.92C243.786 110.15 243.011 110.265 242.091 110.265C241.171 110.265 240.386 110.15 239.736 109.92C239.096 109.7 238.616 109.39 238.296 108.99C237.976 108.59 237.816 108.14 237.816 107.64C237.816 107.14 237.976 106.695 238.296 106.305C238.616 105.915 239.096 105.61 239.736 105.39C240.386 105.16 241.171 105.045 242.091 105.045C243.011 105.045 243.786 105.16 244.416 105.39C245.056 105.61 245.536 105.915 245.856 106.305C246.176 106.695 246.336 107.14 246.336 107.64ZM245.136 107.55C245.136 107.1 244.881 106.72 244.371 106.41C243.871 106.1 243.111 105.945 242.091 105.945C241.061 105.945 240.291 106.1 239.781 106.41C239.281 106.72 239.031 107.1 239.031 107.55V107.76C239.031 108.21 239.286 108.585 239.796 108.885C240.306 109.195 241.071 109.35 242.091 109.35C243.111 109.35 243.871 109.195 244.371 108.885C244.881 108.585 245.136 108.21 245.136 107.76V107.55ZM259.32 96.465V106.35H258.165V96.465H259.32ZM253.77 98.955V98.325H249.06V97.35H254.925V98.85C254.925 99.77 254.76 100.535 254.43 101.145C254.1 101.755 253.535 102.315 252.735 102.825C251.945 103.335 250.795 103.9 249.285 104.52L248.685 103.65C250.065 103.09 251.11 102.59 251.82 102.15C252.54 101.71 253.045 101.245 253.335 100.755C253.625 100.265 253.77 99.665 253.77 98.955ZM250.98 109.005V105.27H252.135V108.825H259.59V109.77H251.73C251.49 109.77 251.305 109.705 251.175 109.575C251.045 109.445 250.98 109.255 250.98 109.005ZM274.089 102.555H271.929V109.515H270.789V96.495H271.929V101.595H274.089V102.555ZM269.214 104.685L269.364 105.6C267.834 105.91 265.924 106.065 263.634 106.065H262.044V97.53H268.029V98.49H263.184V105.12H263.619C265.819 105.12 267.684 104.975 269.214 104.685ZM276.303 108.18C275.983 108.18 275.748 108.1 275.598 107.94C275.458 107.78 275.388 107.57 275.388 107.31V107.115C275.388 106.855 275.458 106.645 275.598 106.485C275.748 106.325 275.983 106.245 276.303 106.245C276.623 106.245 276.853 106.325 276.993 106.485C277.143 106.645 277.218 106.855 277.218 107.115V107.31C277.218 107.57 277.143 107.78 276.993 107.94C276.853 108.1 276.623 108.18 276.303 108.18ZM11.805 119.465V127.28H10.665V123.965H7.755V123.005H10.665V119.465H11.805ZM1.695 127.16L1.08 126.29C2.42 125.76 3.44 125.285 4.14 124.865C4.84 124.435 5.33 123.99 5.61 123.53C5.9 123.06 6.045 122.49 6.045 121.82V121.22H1.455V120.26H7.2V121.7C7.2 122.58 7.035 123.315 6.705 123.905C6.385 124.495 5.835 125.04 5.055 125.54C4.285 126.03 3.165 126.57 1.695 127.16ZM3.21 128.09H11.805V133.145H10.68V129.05H3.21V128.09ZM24.039 122.69V119.465H25.179V127.295H24.039V123.62H21.309V122.69H24.039ZM15.129 126.845L14.274 126.125C15.114 125.465 15.764 124.895 16.224 124.415C16.684 123.925 17.014 123.445 17.214 122.975C17.424 122.495 17.529 121.96 17.529 121.37V121.22H14.664V120.26H21.504V121.22H18.669V121.415C18.669 122.265 18.494 123.01 18.144 123.65L18.234 123.695L18.474 123.515C18.584 123.435 18.694 123.395 18.804 123.395C18.934 123.395 19.049 123.44 19.149 123.53L21.939 125.87L21.099 126.62L18.264 124.16C18.184 124.1 18.109 124.07 18.039 124.07C17.959 124.07 17.889 124.1 17.829 124.16C17.559 124.55 17.214 124.95 16.794 125.36C16.374 125.77 15.819 126.265 15.129 126.845ZM25.254 130.4C25.254 130.94 25.094 131.42 24.774 131.84C24.464 132.27 23.989 132.605 23.349 132.845C22.719 133.095 21.949 133.22 21.039 133.22C20.119 133.22 19.339 133.095 18.699 132.845C18.069 132.605 17.594 132.27 17.274 131.84C16.964 131.42 16.809 130.94 16.809 130.4C16.809 129.86 16.964 129.38 17.274 128.96C17.594 128.53 18.069 128.195 18.699 127.955C19.339 127.705 20.119 127.58 21.039 127.58C21.949 127.58 22.719 127.705 23.349 127.955C23.989 128.195 24.464 128.53 24.774 128.96C25.094 129.38 25.254 129.86 25.254 130.4ZM24.054 130.28C24.054 129.77 23.804 129.345 23.304 129.005C22.804 128.655 22.049 128.48 21.039 128.48C20.019 128.48 19.254 128.655 18.744 129.005C18.244 129.345 17.994 129.77 17.994 130.28V130.535C17.994 131.035 18.244 131.455 18.744 131.795C19.254 132.145 20.019 132.32 21.039 132.32C22.049 132.32 22.804 132.145 23.304 131.795C23.804 131.455 24.054 131.035 24.054 130.535V130.28ZM37.338 119.465H38.478V132.485H37.338V119.465ZM27.708 124.73C27.708 123.27 28.028 122.165 28.668 121.415C29.318 120.665 30.173 120.29 31.233 120.29C32.283 120.29 33.128 120.665 33.768 121.415C34.418 122.165 34.743 123.27 34.743 124.73C34.743 125.71 34.593 126.535 34.293 127.205C33.993 127.865 33.578 128.36 33.048 128.69C32.518 129.01 31.913 129.17 31.233 129.17C30.173 129.17 29.318 128.795 28.668 128.045C28.028 127.295 27.708 126.19 27.708 124.73ZM33.528 125.315V124.145C33.528 123.215 33.313 122.5 32.883 122C32.463 121.5 31.913 121.25 31.233 121.25C30.543 121.25 29.983 121.5 29.553 122C29.133 122.49 28.923 123.205 28.923 124.145V125.315C28.923 126.255 29.133 126.975 29.553 127.475C29.983 127.965 30.543 128.21 31.233 128.21C31.913 128.21 32.463 127.96 32.883 127.46C33.313 126.96 33.528 126.245 33.528 125.315ZM56.882 122.42V123.38H54.797V126.245H53.657V119.465H54.797V122.42H56.882ZM50.837 125.945H44.687V120.095H50.837V125.945ZM49.712 121.025H45.812V125.015H49.712V121.025ZM54.302 127.91H51.152V126.995H54.302V127.91ZM49.502 131.3L49.787 132.245C49.397 132.415 48.932 132.555 48.392 132.665C47.852 132.785 47.287 132.845 46.697 132.845H46.427C46.187 132.845 46.002 132.78 45.872 132.65C45.742 132.52 45.677 132.33 45.677 132.08V127.505H46.742V131.825H46.937C47.407 131.825 47.867 131.77 48.317 131.66C48.777 131.56 49.172 131.44 49.502 131.3ZM49.532 129.095H55.907V129.95H54.197V130.04C54.517 130.19 54.757 130.39 54.917 130.64C55.077 130.89 55.157 131.175 55.157 131.495C55.157 132.015 54.937 132.45 54.497 132.8C54.057 133.16 53.467 133.34 52.727 133.34C51.977 133.34 51.382 133.16 50.942 132.8C50.502 132.45 50.282 132.015 50.282 131.495C50.282 131.165 50.362 130.875 50.522 130.625C50.682 130.375 50.927 130.175 51.257 130.025V129.95H49.532V129.095ZM54.197 131.24C54.197 130.86 54.067 130.56 53.807 130.34C53.557 130.12 53.227 130.01 52.817 130.01H52.622C52.212 130.01 51.877 130.12 51.617 130.34C51.367 130.56 51.242 130.86 51.242 131.24C51.242 131.62 51.367 131.92 51.617 132.14C51.877 132.36 52.212 132.47 52.622 132.47H52.817C53.227 132.47 53.557 132.36 53.807 132.14C54.067 131.92 54.197 131.62 54.197 131.24ZM70.241 125.555H68.081V132.515H66.941V119.495H68.081V124.595H70.241V125.555ZM65.366 127.685L65.516 128.6C63.986 128.91 62.076 129.065 59.786 129.065H58.196V120.53H64.181V121.49H59.336V128.12H59.771C61.971 128.12 63.836 127.975 65.366 127.685ZM72.455 131.18C72.135 131.18 71.9 131.1 71.75 130.94C71.61 130.78 71.54 130.57 71.54 130.31V130.115C71.54 129.855 71.61 129.645 71.75 129.485C71.9 129.325 72.135 129.245 72.455 129.245C72.775 129.245 73.005 129.325 73.145 129.485C73.295 129.645 73.37 129.855 73.37 130.115V130.31C73.37 130.57 73.295 130.78 73.145 130.94C73.005 131.1 72.775 131.18 72.455 131.18ZM88.7119 125.165H85.7569V124.25H88.7119V122.315H85.7569V121.385H88.7119V119.465H89.8519V127.22H88.7119V125.165ZM79.7419 127.085L79.1269 126.215C80.4669 125.685 81.4819 125.215 82.1719 124.805C82.8719 124.385 83.3619 123.945 83.6419 123.485C83.9219 123.025 84.0619 122.46 84.0619 121.79V121.205H79.5019V120.245H85.2019V121.655C85.2019 122.535 85.0419 123.265 84.7219 123.845C84.4019 124.425 83.8569 124.965 83.0869 125.465C82.3169 125.955 81.2019 126.495 79.7419 127.085ZM89.9269 130.34C89.9269 130.89 89.7669 131.38 89.4469 131.81C89.1369 132.25 88.6669 132.595 88.0369 132.845C87.4069 133.095 86.6369 133.22 85.7269 133.22C84.8169 133.22 84.0419 133.095 83.4019 132.845C82.7719 132.595 82.2969 132.25 81.9769 131.81C81.6669 131.38 81.5119 130.89 81.5119 130.34C81.5119 129.79 81.6669 129.3 81.9769 128.87C82.2969 128.43 82.7719 128.085 83.4019 127.835C84.0419 127.585 84.8169 127.46 85.7269 127.46C86.6369 127.46 87.4069 127.585 88.0369 127.835C88.6669 128.085 89.1369 128.43 89.4469 128.87C89.7669 129.3 89.9269 129.79 89.9269 130.34ZM88.7119 130.22C88.7119 129.7 88.4619 129.265 87.9619 128.915C87.4719 128.565 86.7269 128.39 85.7269 128.39C84.7269 128.39 83.9769 128.57 83.4769 128.93C82.9769 129.28 82.7269 129.71 82.7269 130.22V130.475C82.7269 130.985 82.9769 131.415 83.4769 131.765C83.9769 132.125 84.7269 132.305 85.7269 132.305C86.7269 132.305 87.4719 132.125 87.9619 131.765C88.4619 131.415 88.7119 130.985 88.7119 130.475V130.22ZM103.556 119.465V132.485H102.461V119.465H103.556ZM99.5359 119.66H100.586V132.14H99.5359V127.295H97.3309V126.38H99.5359V123.86H97.4959C97.4159 124.68 97.2209 125.4 96.9109 126.02C96.6009 126.64 96.1409 127.24 95.5309 127.82C94.9209 128.39 94.0859 129.035 93.0259 129.755L92.3059 129.02C93.4359 128.28 94.2909 127.625 94.8709 127.055C95.4509 126.475 95.8609 125.865 96.1009 125.225C96.3409 124.585 96.4609 123.795 96.4609 122.855V121.685H92.6359V120.8H97.5409V122.825V122.945H99.5359V119.66ZM116.6 119.465V126.98H115.445V119.465H116.6ZM109.43 123.725C109.36 123.725 109.295 123.76 109.235 123.83C108.975 124.26 108.635 124.7 108.215 125.15C107.795 125.59 107.21 126.155 106.46 126.845L105.605 126.11C106.465 125.35 107.125 124.7 107.585 124.16C108.045 123.62 108.375 123.085 108.575 122.555C108.785 122.025 108.89 121.425 108.89 120.755V119.945H110.045V120.83C110.045 121.76 109.87 122.59 109.52 123.32L109.595 123.365L109.835 123.155C109.945 123.065 110.055 123.02 110.165 123.02C110.275 123.02 110.38 123.065 110.48 123.155L113.36 125.78L112.535 126.575L109.625 123.815C109.565 123.755 109.5 123.725 109.43 123.725ZM108.35 127.79H116.6V133.025H109.1C108.86 133.025 108.675 132.96 108.545 132.83C108.415 132.7 108.35 132.51 108.35 132.26V127.79ZM109.49 132.065H115.445V128.735H109.49V132.065ZM128.759 119.465H129.899V132.485H128.759V119.465ZM119.129 124.73C119.129 123.27 119.449 122.165 120.089 121.415C120.739 120.665 121.594 120.29 122.654 120.29C123.704 120.29 124.549 120.665 125.189 121.415C125.839 122.165 126.164 123.27 126.164 124.73C126.164 125.71 126.014 126.535 125.714 127.205C125.414 127.865 124.999 128.36 124.469 128.69C123.939 129.01 123.334 129.17 122.654 129.17C121.594 129.17 120.739 128.795 120.089 128.045C119.449 127.295 119.129 126.19 119.129 124.73ZM124.949 125.315V124.145C124.949 123.215 124.734 122.5 124.304 122C123.884 121.5 123.334 121.25 122.654 121.25C121.964 121.25 121.404 121.5 120.974 122C120.554 122.49 120.344 123.205 120.344 124.145V125.315C120.344 126.255 120.554 126.975 120.974 127.475C121.404 127.965 121.964 128.21 122.654 128.21C123.334 128.21 123.884 127.96 124.304 127.46C124.734 126.96 124.949 126.245 124.949 125.315ZM146.893 126.98H145.738V119.465H146.893V126.98ZM136.093 123.2C136.093 122.54 136.238 121.965 136.528 121.475C136.828 120.985 137.238 120.61 137.758 120.35C138.278 120.08 138.873 119.945 139.543 119.945C140.213 119.945 140.808 120.08 141.328 120.35C141.848 120.61 142.253 120.985 142.543 121.475C142.843 121.965 142.993 122.54 142.993 123.2C142.993 123.86 142.843 124.435 142.543 124.925C142.253 125.415 141.843 125.795 141.313 126.065C140.793 126.325 140.203 126.455 139.543 126.455C138.883 126.455 138.288 126.325 137.758 126.065C137.238 125.795 136.828 125.415 136.528 124.925C136.238 124.435 136.093 123.86 136.093 123.2ZM137.293 123.455C137.293 124.075 137.498 124.575 137.908 124.955C138.328 125.325 138.873 125.51 139.543 125.51C140.213 125.51 140.753 125.325 141.163 124.955C141.573 124.575 141.778 124.075 141.778 123.455V122.93C141.778 122.31 141.573 121.815 141.163 121.445C140.753 121.075 140.213 120.89 139.543 120.89C138.873 120.89 138.328 121.075 137.908 121.445C137.498 121.815 137.293 122.31 137.293 122.93V123.455ZM148.123 132.275L147.388 133.055L145.168 130.88C145.108 130.81 145.038 130.775 144.958 130.775C144.918 130.775 144.873 130.79 144.823 130.82C144.593 131.16 144.298 131.51 143.938 131.87C143.578 132.24 143.098 132.685 142.498 133.205L140.218 130.835C140.148 130.765 140.078 130.73 140.008 130.73C139.968 130.73 139.913 130.755 139.843 130.805C139.403 131.465 138.653 132.25 137.593 133.16L136.873 132.395C137.543 131.835 138.068 131.335 138.448 130.895C138.828 130.455 139.098 130.02 139.258 129.59C139.428 129.16 139.513 128.675 139.513 128.135V127.655H140.593V128.165C140.593 128.985 140.438 129.7 140.128 130.31L140.188 130.34L140.383 130.19C140.463 130.12 140.558 130.085 140.668 130.085C140.788 130.085 140.893 130.13 140.983 130.22L142.573 131.81C143.293 131.16 143.788 130.575 144.058 130.055C144.328 129.535 144.463 128.9 144.463 128.15V127.655H145.543V128.21C145.543 128.65 145.508 129.04 145.438 129.38C145.368 129.72 145.253 130.045 145.093 130.355L145.153 130.4L145.348 130.235C145.458 130.155 145.563 130.115 145.663 130.115C145.763 130.115 145.863 130.155 145.963 130.235L148.123 132.275ZM161.662 125.555H159.502V132.515H158.362V119.495H159.502V124.595H161.662V125.555ZM156.787 127.685L156.937 128.6C155.407 128.91 153.497 129.065 151.207 129.065H149.617V120.53H155.602V121.49H150.757V128.12H151.192C153.392 128.12 155.257 127.975 156.787 127.685ZM163.876 131.18C163.556 131.18 163.321 131.1 163.171 130.94C163.031 130.78 162.961 130.57 162.961 130.31V130.115C162.961 129.855 163.031 129.645 163.171 129.485C163.321 129.325 163.556 129.245 163.876 129.245C164.196 129.245 164.426 129.325 164.566 129.485C164.716 129.645 164.791 129.855 164.791 130.115V130.31C164.791 130.57 164.716 130.78 164.566 130.94C164.426 131.1 164.196 131.18 163.876 131.18Z" fill="#1B1C25"/>
</svg>
