<svg width="1920" height="4730" viewBox="0 0 1920 4730" fill="none" xmlns="http://www.w3.org/2000/svg">
<path opacity="0.7" d="M1926 4729V137.734C1925.99 137.721 1925.97 137.707 1925.95 137.693C1925.71 137.47 1925.34 137.138 1924.86 136.704C1923.9 135.835 1922.47 134.559 1920.62 132.927C1916.91 129.663 1911.49 124.98 1904.66 119.307C1891 107.958 1871.69 92.6494 1849.12 76.8073C1803.93 45.0974 1745.79 11.3516 1693.65 2.83044C1641.72 -5.6567 1609.91 16.7538 1578.08 41.5303C1576.41 42.8345 1574.73 44.1454 1573.05 45.4587C1542.86 69.0811 1511.68 93.479 1462.64 93.479C1411.41 93.479 1364.55 104.652 1324.09 115.85C1317.06 117.794 1310.23 119.741 1303.59 121.63C1291.14 125.176 1279.4 128.518 1268.47 131.262C1251.71 135.467 1236.76 138.294 1223.91 138.294C1210.91 138.294 1196.33 132.196 1180.69 123.213C1168.21 116.048 1154.95 106.981 1141.15 97.5533C1137.63 95.1458 1134.08 92.7149 1130.49 90.2862C1112.84 78.3301 1094.43 66.4083 1075.67 57.474C1056.91 48.5395 1037.86 42.6225 1018.93 42.6225C1000.02 42.6225 981.46 49.4938 961.63 58.8291C954.877 62.0081 947.968 65.478 940.854 69.0509C927.149 75.9339 912.683 83.1992 897.105 89.5037C849.622 108.72 791.422 119.201 710.3 84.3343C670.027 67.0243 637.744 63.923 610.81 68.9309C583.868 73.9403 562.173 87.0831 543.105 102.447C533.568 110.131 524.7 118.361 516.159 126.403C515.195 127.31 514.236 128.215 513.28 129.117C505.771 136.198 498.484 143.071 491.214 149.184C474.835 162.956 458.359 173.037 439.23 173.037C406.492 173.037 389.413 160.172 369.051 144.833C365.83 142.407 362.527 139.919 359.067 137.41C333.767 119.066 299.692 99.2505 227.116 93.4759C154.266 87.6795 95.6538 74.9523 55.2461 63.671C35.0421 58.0302 19.3887 52.7508 8.78162 48.8796C3.47815 46.944 -0.563843 45.3604 -3.28223 44.2596C-4.42261 43.7979 -5.33008 43.4211 -6 43.1389V4729H1926Z" stroke="#273F65" stroke-width="2"/>
</svg>
