<svg width="424" height="100" viewBox="0 0 424 100" fill="none" xmlns="http://www.w3.org/2000/svg">
<path d="M37.5154 79.5083H31.4851C30.6038 79.5083 30.1631 78.9954 30.1631 78.0978L30.1631 24.4319C30.1631 23.546 30.6038 23.0215 31.4851 23.0215H37.5154C38.3968 23.0215 38.8374 23.5344 38.8374 24.4319L38.8374 78.1095C38.8374 78.9954 38.3968 79.5199 37.5154 79.5199V79.5083Z" fill="#EBECF1"/>
<path d="M288.376 24.1288C289.408 24.7232 289.559 25.2361 289.559 26.0521V29.8171C289.559 30.8545 289.049 31.076 288.086 30.9244C285.291 30.4815 279.992 30.0386 273.451 30.0386C259.477 30.0386 257.193 36.9158 257.193 46.5323V56.3703C257.193 66.8727 257.923 72.561 274.483 72.561C276.988 72.561 279.563 72.4095 281.766 71.8266C282.868 71.5352 282.937 71.0923 282.937 70.1248V55.9273H272.709C271.758 55.9273 271.306 55.4145 271.306 54.5169V49.4114C271.306 48.4556 271.746 48.001 272.779 48.0826L290.069 48.0826C290.951 48.0826 291.473 48.5256 291.473 49.4114V75.953C291.542 77.3634 291.032 78.1677 289.849 78.5407C284.77 80.1726 277.928 80.6155 273.521 80.6155C255.349 80.6155 248.507 75.2186 248.507 56.5102V47.5697C248.507 27.9754 257.042 21.9141 272.86 21.9141C279.261 21.9141 286.103 22.7999 288.376 24.1288Z" fill="#EBECF1"/>
<path d="M302.721 23.0215L321.926 23.0215C334.288 23.0215 341.35 25.3877 341.35 38.1748V40.6925C341.35 49.7845 336.642 54.0741 331.713 55.7759L342.823 78.0279C343.264 78.9837 342.823 79.5083 341.86 79.5083H334.949C334.218 79.5083 333.696 79.1353 333.256 78.1794L322.888 56.8832H310.016V78.1095C310.016 78.9954 309.575 79.5199 308.694 79.5199H302.733C301.852 79.5199 301.411 79.007 301.411 78.1095V24.4319C301.411 23.546 301.852 23.0215 302.733 23.0215H302.721ZM310.004 49.19H321.926C333.476 49.19 332.664 44.2361 332.664 40.984V37.5104C332.664 32.7079 329.869 30.7147 321.926 30.7147L310.004 30.7147V49.2017V49.19Z" fill="#EBECF1"/>
<path d="M359.139 79.5083H353.109C352.228 79.5083 351.787 78.9954 351.787 78.0978V24.4319C351.787 23.546 352.228 23.0215 353.109 23.0215H359.139C360.021 23.0215 360.461 23.5344 360.461 24.4319V78.1095C360.461 78.9954 360.021 79.5199 359.139 79.5199V79.5083Z" fill="#EBECF1"/>
<path d="M410.42 24.3503V29.5257C410.42 30.4116 409.91 30.8546 409.017 30.8546L393.28 30.8546V78.0978C393.28 78.9837 392.839 79.5083 391.958 79.5083H385.928C385.046 79.5083 384.606 78.9954 384.606 78.0978V30.8546L368.869 30.8546C367.988 30.8546 367.466 30.4116 367.466 29.5257V24.3503C367.466 23.4644 367.976 23.0215 368.869 23.0215L409.029 23.0215C409.91 23.0215 410.432 23.4644 410.432 24.3503H410.42Z" fill="#EBECF1"/>
<path d="M233.315 21.9023L55.6643 21.9023L55.6643 79.0768L233.315 79.0768V21.9023Z" fill="#EBECF1"/>
</svg>
