<svg width="288" height="137" viewBox="0 0 288 137" fill="none" xmlns="http://www.w3.org/2000/svg">
<path d="M198.028 6.63849H196.366C196.302 6.28338 196.183 5.97088 196.009 5.70099C195.835 5.43111 195.622 5.20206 195.37 5.01385C195.118 4.82564 194.836 4.68359 194.523 4.58771C194.214 4.49183 193.886 4.44389 193.538 4.44389C192.909 4.44389 192.346 4.60192 191.849 4.91797C191.356 5.23402 190.965 5.69744 190.677 6.30824C190.393 6.91903 190.251 7.66477 190.251 8.54545C190.251 9.43324 190.393 10.1825 190.677 10.7933C190.965 11.4041 191.357 11.8658 191.855 12.1783C192.352 12.4908 192.911 12.647 193.532 12.647C193.877 12.647 194.204 12.6009 194.513 12.5085C194.825 12.4126 195.107 12.2724 195.359 12.0877C195.612 11.9031 195.825 11.6776 195.999 11.4112C196.176 11.1413 196.299 10.8324 196.366 10.4844L198.028 10.4897C197.939 11.0259 197.767 11.5195 197.511 11.9705C197.259 12.418 196.934 12.805 196.537 13.1317C196.143 13.4549 195.692 13.7053 195.184 13.8828C194.676 14.0604 194.122 14.1491 193.522 14.1491C192.577 14.1491 191.736 13.9254 190.997 13.478C190.258 13.027 189.676 12.3825 189.25 11.5444C188.827 10.7063 188.616 9.70668 188.616 8.54545C188.616 7.38068 188.829 6.38104 189.255 5.54652C189.681 4.70845 190.264 4.0657 191.002 3.61825C191.741 3.16726 192.581 2.94176 193.522 2.94176C194.101 2.94176 194.64 3.02521 195.141 3.19212C195.645 3.35547 196.098 3.59695 196.499 3.91655C196.901 4.2326 197.233 4.61967 197.496 5.07777C197.758 5.53232 197.936 6.05256 198.028 6.63849ZM201.048 14V3.09091H202.694V7.83168H208.132V3.09091H209.784V14H208.132V9.24325H202.694V14H201.048ZM214.152 14H212.405L216.331 3.09091H218.232L222.158 14H220.411L217.327 5.07244H217.242L214.152 14ZM214.445 9.72798H220.113V11.1129H214.445V9.72798ZM224.783 14V3.09091H228.672C229.517 3.09091 230.218 3.23651 230.776 3.5277C231.337 3.81889 231.756 4.22195 232.033 4.73686C232.31 5.24822 232.449 5.83949 232.449 6.51065C232.449 7.17827 232.308 7.76598 232.028 8.27379C231.751 8.77805 231.332 9.17045 230.771 9.45099C230.213 9.73153 229.512 9.8718 228.667 9.8718H225.721V8.4549H228.517C229.05 8.4549 229.483 8.37855 229.817 8.22585C230.155 8.07315 230.401 7.85121 230.558 7.56001C230.714 7.26882 230.792 6.91903 230.792 6.51065C230.792 6.09872 230.712 5.74183 230.552 5.43999C230.396 5.13814 230.149 4.90732 229.812 4.74751C229.478 4.58416 229.04 4.50249 228.496 4.50249H226.429V14H224.783ZM230.169 9.07812L232.864 14H230.989L228.347 9.07812H230.169ZM236.423 14H234.676L238.602 3.09091H240.503L244.429 14H242.682L239.598 5.07244H239.512L236.423 14ZM236.716 9.72798H242.384V11.1129H236.716V9.72798ZM255.602 6.63849H253.94C253.877 6.28338 253.758 5.97088 253.584 5.70099C253.41 5.43111 253.197 5.20206 252.944 5.01385C252.692 4.82564 252.41 4.68359 252.097 4.58771C251.788 4.49183 251.46 4.44389 251.112 4.44389C250.483 4.44389 249.921 4.60192 249.423 4.91797C248.93 5.23402 248.539 5.69744 248.252 6.30824C247.967 6.91903 247.825 7.66477 247.825 8.54545C247.825 9.43324 247.967 10.1825 248.252 10.7933C248.539 11.4041 248.932 11.8658 249.429 12.1783C249.926 12.4908 250.485 12.647 251.107 12.647C251.451 12.647 251.778 12.6009 252.087 12.5085C252.399 12.4126 252.682 12.2724 252.934 12.0877C253.186 11.9031 253.399 11.6776 253.573 11.4112C253.75 11.1413 253.873 10.8324 253.94 10.4844L255.602 10.4897C255.514 11.0259 255.341 11.5195 255.086 11.9705C254.834 12.418 254.509 12.805 254.111 13.1317C253.717 13.4549 253.266 13.7053 252.758 13.8828C252.25 14.0604 251.696 14.1491 251.096 14.1491C250.151 14.1491 249.31 13.9254 248.571 13.478C247.833 13.027 247.25 12.3825 246.824 11.5444C246.401 10.7063 246.19 9.70668 246.19 8.54545C246.19 7.38068 246.403 6.38104 246.829 5.54652C247.255 4.70845 247.838 4.0657 248.576 3.61825C249.315 3.16726 250.155 2.94176 251.096 2.94176C251.675 2.94176 252.215 3.02521 252.715 3.19212C253.22 3.35547 253.672 3.59695 254.074 3.91655C254.475 4.2326 254.807 4.61967 255.07 5.07777C255.333 5.53232 255.51 6.05256 255.602 6.63849ZM258.084 4.50781V3.09091H266.527V4.50781H263.123V14H261.482V4.50781H258.084ZM269.442 14V3.09091H276.282V4.50781H271.088V7.83168H275.925V9.24325H271.088V12.5831H276.346V14H269.442ZM279.531 14V3.09091H283.419C284.264 3.09091 284.966 3.23651 285.523 3.5277C286.084 3.81889 286.503 4.22195 286.78 4.73686C287.057 5.24822 287.196 5.83949 287.196 6.51065C287.196 7.17827 287.055 7.76598 286.775 8.27379C286.498 8.77805 286.079 9.17045 285.518 9.45099C284.96 9.73153 284.259 9.8718 283.414 9.8718H280.468V8.4549H283.265C283.797 8.4549 284.23 8.37855 284.564 8.22585C284.902 8.07315 285.148 7.85121 285.305 7.56001C285.461 7.26882 285.539 6.91903 285.539 6.51065C285.539 6.09872 285.459 5.74183 285.299 5.43999C285.143 5.13814 284.896 4.90732 284.559 4.74751C284.225 4.58416 283.787 4.50249 283.243 4.50249H281.176V14H279.531ZM284.916 9.07812L287.611 14H285.736L283.094 9.07812H284.916Z" fill="#273F65"/>
<path d="M161.368 53V39.9091H169.485V41.6094H163.343V45.598H168.904V47.2919H163.343V53H161.368ZM173.174 53V39.9091H177.841C178.855 39.9091 179.696 40.0838 180.365 40.4332C181.039 40.7827 181.542 41.2663 181.874 41.8842C182.206 42.4979 182.373 43.2074 182.373 44.0128C182.373 44.8139 182.204 45.5192 181.868 46.1286C181.535 46.7337 181.032 47.2045 180.359 47.5412C179.69 47.8778 178.848 48.0462 177.834 48.0462H174.299V46.3459H177.655C178.294 46.3459 178.814 46.2543 179.215 46.071C179.62 45.8878 179.916 45.6214 180.103 45.272C180.291 44.9226 180.385 44.5028 180.385 44.0128C180.385 43.5185 180.289 43.0902 180.097 42.728C179.909 42.3658 179.613 42.0888 179.208 41.897C178.808 41.701 178.282 41.603 177.63 41.603H175.15V53H173.174ZM179.637 47.0938L182.871 53H180.621L177.451 47.0938H179.637ZM197.407 46.4545C197.407 47.8523 197.152 49.054 196.64 50.0597C196.129 51.0611 195.428 51.8324 194.537 52.3736C193.651 52.9105 192.643 53.179 191.514 53.179C190.38 53.179 189.368 52.9105 188.478 52.3736C187.591 51.8324 186.892 51.0589 186.381 50.0533C185.87 49.0476 185.614 47.848 185.614 46.4545C185.614 45.0568 185.87 43.8572 186.381 42.8558C186.892 41.8501 187.591 41.0788 188.478 40.5419C189.368 40.0007 190.38 39.7301 191.514 39.7301C192.643 39.7301 193.651 40.0007 194.537 40.5419C195.428 41.0788 196.129 41.8501 196.64 42.8558C197.152 43.8572 197.407 45.0568 197.407 46.4545ZM195.451 46.4545C195.451 45.3892 195.279 44.4922 194.934 43.7635C194.593 43.0305 194.124 42.4766 193.527 42.1016C192.935 41.7223 192.264 41.5327 191.514 41.5327C190.76 41.5327 190.086 41.7223 189.494 42.1016C188.902 42.4766 188.433 43.0305 188.088 43.7635C187.747 44.4922 187.576 45.3892 187.576 46.4545C187.576 47.5199 187.747 48.419 188.088 49.152C188.433 49.8807 188.902 50.4347 189.494 50.8139C190.086 51.1889 190.76 51.3764 191.514 51.3764C192.264 51.3764 192.935 51.1889 193.527 50.8139C194.124 50.4347 194.593 49.8807 194.934 49.152C195.279 48.419 195.451 47.5199 195.451 46.4545ZM201.13 39.9091H203.527L207.695 50.0852H207.848L212.016 39.9091H214.413V53H212.533V43.527H212.412L208.551 52.9808H206.991L203.131 43.5206H203.009V53H201.13V39.9091ZM226.543 39.9091V53H224.568V39.9091H226.543ZM241.246 39.9091V53H239.43L232.776 43.3991H232.655V53H230.679V39.9091H232.508L239.168 49.5227H239.29V39.9091H241.246ZM252.527 43.348C252.458 42.7429 252.177 42.2741 251.683 41.9418C251.189 41.6051 250.566 41.4368 249.816 41.4368C249.279 41.4368 248.815 41.522 248.423 41.6925C248.031 41.8587 247.726 42.0888 247.509 42.3828C247.296 42.6726 247.189 43.0028 247.189 43.3736C247.189 43.6847 247.262 43.9531 247.407 44.179C247.556 44.4048 247.75 44.5945 247.988 44.7479C248.231 44.897 248.491 45.0227 248.768 45.125C249.045 45.223 249.311 45.304 249.567 45.3679L250.846 45.7003C251.263 45.8026 251.691 45.9411 252.13 46.1158C252.569 46.2905 252.976 46.5206 253.351 46.8061C253.726 47.0916 254.029 47.4453 254.259 47.8672C254.493 48.2891 254.61 48.794 254.61 49.3821C254.61 50.1236 254.419 50.782 254.035 51.3572C253.656 51.9325 253.104 52.3864 252.38 52.7188C251.659 53.0511 250.788 53.2173 249.765 53.2173C248.785 53.2173 247.937 53.0618 247.221 52.7507C246.505 52.4396 245.945 51.9986 245.54 51.4276C245.135 50.8523 244.912 50.1705 244.869 49.3821H246.85C246.889 49.8551 247.042 50.2493 247.311 50.5646C247.583 50.8757 247.931 51.108 248.353 51.2614C248.779 51.4105 249.245 51.4851 249.752 51.4851C250.311 51.4851 250.807 51.3977 251.242 51.223C251.681 51.044 252.026 50.7969 252.277 50.4815C252.529 50.1619 252.654 49.7891 252.654 49.3629C252.654 48.9751 252.544 48.6577 252.322 48.4105C252.105 48.1634 251.809 47.9588 251.434 47.7969C251.063 47.6349 250.643 47.4922 250.174 47.3686L248.627 46.9467C247.579 46.6612 246.748 46.2415 246.135 45.6875C245.525 45.1335 245.221 44.4006 245.221 43.4886C245.221 42.7344 245.425 42.076 245.834 41.5135C246.243 40.951 246.797 40.5142 247.496 40.2031C248.195 39.8878 248.983 39.7301 249.861 39.7301C250.748 39.7301 251.529 39.8857 252.207 40.1967C252.889 40.5078 253.426 40.9361 253.818 41.4815C254.21 42.0227 254.414 42.6449 254.431 43.348H252.527ZM260.206 39.9091V53H258.231V39.9091H260.206ZM268.58 53H264.342V39.9091H268.714C269.997 39.9091 271.099 40.1712 272.019 40.6953C272.94 41.2152 273.645 41.9631 274.135 42.9389C274.629 43.9105 274.876 45.076 274.876 46.4354C274.876 47.799 274.627 48.9709 274.128 49.951C273.634 50.9311 272.918 51.6854 271.981 52.2138C271.043 52.7379 269.91 53 268.58 53ZM266.317 51.2741H268.472C269.469 51.2741 270.298 51.0866 270.958 50.7116C271.619 50.3324 272.113 49.7848 272.441 49.0689C272.769 48.3487 272.933 47.4709 272.933 46.4354C272.933 45.4084 272.769 44.5369 272.441 43.821C272.117 43.1051 271.633 42.5618 270.99 42.1911C270.347 41.8203 269.548 41.6349 268.593 41.6349H266.317V51.2741ZM278.592 53V39.9091H286.8V41.6094H280.568V45.598H286.372V47.2919H280.568V51.2997H286.877V53H278.592Z" fill="#1B1C25"/>
<path d="M8.5882 74.755H5.4982V73.84H9.6832V74.665C9.6832 76.025 9.3332 77.38 8.6332 78.73L7.5982 78.445C7.9182 77.835 8.1632 77.24 8.3332 76.66C8.5132 76.07 8.5982 75.435 8.5882 74.755ZM14.1082 74.755H10.7782V73.84H15.2032V74.74C15.2032 75.47 15.1482 76.155 15.0382 76.795C14.9382 77.425 14.7932 78.06 14.6032 78.7L13.5382 78.505C13.9282 77.295 14.1182 76.045 14.1082 74.755ZM16.7182 79.825V80.8H4.4782V79.825H10.1932V77.095H11.2882V79.825H16.7182ZM6.2932 82.3H14.9032V87.025H7.0432C6.8032 87.025 6.6182 86.96 6.4882 86.83C6.3582 86.7 6.2932 86.51 6.2932 86.26V82.3ZM7.4182 86.08H13.7782V83.23H7.4182V86.08ZM21.9622 74.755H18.8722V73.84H23.0572V74.665C23.0572 76.025 22.7072 77.38 22.0072 78.73L20.9722 78.445C21.2922 77.835 21.5372 77.24 21.7072 76.66C21.8872 76.07 21.9722 75.435 21.9622 74.755ZM27.4822 74.755H24.1522V73.84H28.5772V74.74C28.5772 75.47 28.5222 76.155 28.4122 76.795C28.3122 77.425 28.1672 78.06 27.9772 78.7L26.9122 78.505C27.3022 77.295 27.4922 76.045 27.4822 74.755ZM30.0922 79.825V80.8H17.8522V79.825H23.5672V77.095H24.6622V79.825H30.0922ZM19.6672 82.3H28.2772V87.025H20.4172C20.1772 87.025 19.9922 86.96 19.8622 86.83C19.7322 86.7 19.6672 86.51 19.6672 86.26V82.3ZM20.7922 86.08H27.1522V83.23H20.7922V86.08ZM43.8563 79.795H41.7413V86.515H40.6013V73.495H41.7413V78.835H43.8563V79.795ZM37.4063 75.175H33.1463V74.2H37.4063V75.175ZM31.1512 76.975H39.1763V77.905H36.9563V77.995C37.8663 78.445 38.3213 79.31 38.3213 80.59C38.3213 81.24 38.1863 81.805 37.9163 82.285C37.6463 82.755 37.2713 83.115 36.7913 83.365C36.3213 83.615 35.7963 83.74 35.2163 83.74C34.6363 83.74 34.1063 83.615 33.6263 83.365C33.1563 83.115 32.7863 82.755 32.5163 82.285C32.2463 81.805 32.1113 81.24 32.1113 80.59C32.1113 79.31 32.5663 78.445 33.4763 77.995V77.905H31.1512V76.975ZM37.2113 80.095C37.2113 79.425 37.0313 78.915 36.6713 78.565C36.3113 78.205 35.8263 78.025 35.2163 78.025C34.6163 78.025 34.1313 78.205 33.7613 78.565C33.4013 78.925 33.2213 79.435 33.2213 80.095V80.71C33.2213 81.36 33.4063 81.87 33.7763 82.24C34.1463 82.6 34.6263 82.78 35.2163 82.78C35.8063 82.78 36.2863 82.6 36.6563 82.24C37.0263 81.87 37.2113 81.36 37.2113 80.71V80.095ZM57.2303 79.555H55.0703V86.515H53.9303V73.495H55.0703V78.595H57.2303V79.555ZM52.3553 81.685L52.5053 82.6C50.9753 82.91 49.0653 83.065 46.7753 83.065H45.1853V74.53H51.1703V75.49H46.3253V82.12H46.7603C48.9603 82.12 50.8253 81.975 52.3553 81.685ZM59.4443 85.18C59.1243 85.18 58.8893 85.1 58.7393 84.94C58.5993 84.78 58.5293 84.57 58.5293 84.31V84.115C58.5293 83.855 58.5993 83.645 58.7393 83.485C58.8893 83.325 59.1243 83.245 59.4443 83.245C59.7643 83.245 59.9943 83.325 60.1343 83.485C60.2843 83.645 60.3593 83.855 60.3593 84.115V84.31C60.3593 84.57 60.2843 84.78 60.1343 84.94C59.9943 85.1 59.7643 85.18 59.4443 85.18ZM71.1711 74.95H67.0161V73.99H76.4361V74.95H72.3261C72.3161 75.36 72.2561 75.73 72.1461 76.06C72.0461 76.39 71.8761 76.705 71.6361 77.005L71.6961 77.035L71.9961 76.81C72.1361 76.71 72.2761 76.66 72.4161 76.66C72.5461 76.66 72.6561 76.685 72.7461 76.735L76.9911 78.955L76.3611 79.81L71.9511 77.44C71.8211 77.37 71.6911 77.335 71.5611 77.335C71.4611 77.335 71.3711 77.355 71.2911 77.395C70.9011 77.775 70.3711 78.16 69.7011 78.55C69.0311 78.94 68.1561 79.375 67.0761 79.855L66.4611 79C67.6611 78.49 68.5961 78.025 69.2661 77.605C69.9361 77.185 70.4111 76.77 70.6911 76.36C70.9811 75.95 71.1411 75.48 71.1711 74.95ZM77.8461 82.135H72.2961V87.01H71.1561V82.135H65.6061V81.175H77.8461V82.135ZM91.2202 84.04V85H78.9802V84.04H84.5302V80.575H80.7502V74.35H89.4952V75.325H81.8902V79.6H89.6302V80.575H85.6702V84.04H91.2202ZM103.589 73.465V81.355H102.449V77.74H99.7192V76.81H102.449V73.465H103.589ZM93.5392 81.025L92.6842 80.305C93.5242 79.615 94.1742 79.025 94.6342 78.535C95.0942 78.035 95.4242 77.545 95.6242 77.065C95.8342 76.585 95.9392 76.04 95.9392 75.43V75.265H93.0742V74.305H99.9142V75.265H97.0792V75.49C97.0792 76.34 96.9042 77.095 96.5542 77.755L96.6442 77.8L96.8842 77.635C96.9942 77.545 97.1042 77.5 97.2142 77.5C97.3442 77.5 97.4592 77.545 97.5592 77.635L100.349 80.035L99.5092 80.785L96.6742 78.28C96.5942 78.22 96.5192 78.19 96.4492 78.19C96.3692 78.19 96.2992 78.22 96.2392 78.28C95.9792 78.67 95.6442 79.07 95.2342 79.48C94.8242 79.88 94.2592 80.395 93.5392 81.025ZM94.9942 82.165H103.589V87.145H102.464V83.125H94.9942V82.165ZM115.748 73.465H116.888V86.485H115.748V73.465ZM106.118 78.73C106.118 77.27 106.438 76.165 107.078 75.415C107.728 74.665 108.583 74.29 109.643 74.29C110.693 74.29 111.538 74.665 112.178 75.415C112.828 76.165 113.153 77.27 113.153 78.73C113.153 79.71 113.003 80.535 112.703 81.205C112.403 81.865 111.988 82.36 111.458 82.69C110.928 83.01 110.323 83.17 109.643 83.17C108.583 83.17 107.728 82.795 107.078 82.045C106.438 81.295 106.118 80.19 106.118 78.73ZM111.938 79.315V78.145C111.938 77.215 111.723 76.5 111.293 76C110.873 75.5 110.323 75.25 109.643 75.25C108.953 75.25 108.393 75.5 107.963 76C107.543 76.49 107.333 77.205 107.333 78.145V79.315C107.333 80.255 107.543 80.975 107.963 81.475C108.393 81.965 108.953 82.21 109.643 82.21C110.323 82.21 110.873 81.96 111.293 81.46C111.723 80.96 111.938 80.245 111.938 79.315ZM131.732 79.555H129.572V86.515H128.432V73.495H129.572V78.595H131.732V79.555ZM126.857 81.685L127.007 82.6C125.477 82.91 123.567 83.065 121.277 83.065H119.687V74.53H125.672V75.49H120.827V82.12H121.262C123.462 82.12 125.327 81.975 126.857 81.685ZM133.946 85.18C133.626 85.18 133.391 85.1 133.241 84.94C133.101 84.78 133.031 84.57 133.031 84.31V84.115C133.031 83.855 133.101 83.645 133.241 83.485C133.391 83.325 133.626 83.245 133.946 83.245C134.266 83.245 134.496 83.325 134.636 83.485C134.786 83.645 134.861 83.855 134.861 84.115V84.31C134.861 84.57 134.786 84.78 134.636 84.94C134.496 85.1 134.266 85.18 133.946 85.18ZM148.553 80.845H147.458V73.675H148.553V76.825H150.563V73.465H151.673V81.25H150.563V77.755H148.553V80.845ZM143.408 78.01C143.338 78.01 143.273 78.045 143.213 78.115C142.983 78.535 142.678 78.975 142.298 79.435C141.928 79.885 141.458 80.395 140.888 80.965L140.093 80.275C140.833 79.515 141.393 78.865 141.773 78.325C142.163 77.785 142.438 77.26 142.598 76.75C142.768 76.23 142.853 75.635 142.853 74.965V74.155H143.948V74.995C143.948 75.965 143.798 76.79 143.498 77.47L143.573 77.515L143.753 77.365C143.863 77.275 143.963 77.23 144.053 77.23C144.153 77.23 144.253 77.28 144.353 77.38L146.753 79.945L145.973 80.695L143.588 78.1C143.548 78.04 143.488 78.01 143.408 78.01ZM151.733 84.4C151.733 84.94 151.573 85.42 151.253 85.84C150.933 86.27 150.453 86.605 149.813 86.845C149.173 87.095 148.393 87.22 147.473 87.22C146.553 87.22 145.773 87.095 145.133 86.845C144.493 86.605 144.013 86.27 143.693 85.84C143.373 85.42 143.213 84.94 143.213 84.4C143.213 83.86 143.373 83.38 143.693 82.96C144.013 82.53 144.493 82.195 145.133 81.955C145.773 81.705 146.553 81.58 147.473 81.58C148.393 81.58 149.173 81.705 149.813 81.955C150.453 82.195 150.933 82.53 151.253 82.96C151.573 83.38 151.733 83.86 151.733 84.4ZM150.518 84.28C150.518 83.78 150.263 83.36 149.753 83.02C149.253 82.67 148.493 82.495 147.473 82.495C146.453 82.495 145.688 82.67 145.178 83.02C144.668 83.36 144.413 83.78 144.413 84.28V84.535C144.413 84.845 144.518 85.135 144.728 85.405C144.948 85.675 145.288 85.89 145.748 86.05C146.208 86.22 146.783 86.305 147.473 86.305C148.493 86.305 149.253 86.13 149.753 85.78C150.263 85.44 150.518 85.025 150.518 84.535V84.28ZM166.127 77.815H164.042V81.28H162.902V73.465H164.042V76.855H166.127V77.815ZM154.367 81.16L153.752 80.29C155.102 79.76 156.127 79.285 156.827 78.865C157.537 78.435 158.032 77.99 158.312 77.53C158.602 77.06 158.747 76.49 158.747 75.82V75.22H154.127V74.26H159.902V75.7C159.902 76.58 159.737 77.315 159.407 77.905C159.087 78.495 158.537 79.04 157.757 79.54C156.977 80.03 155.847 80.57 154.367 81.16ZM155.597 82.09H164.042V87.145H162.917V83.05H155.597V82.09ZM176.876 73.465H178.016V86.485H176.876V73.465ZM167.246 78.73C167.246 77.27 167.566 76.165 168.206 75.415C168.856 74.665 169.711 74.29 170.771 74.29C171.821 74.29 172.666 74.665 173.306 75.415C173.956 76.165 174.281 77.27 174.281 78.73C174.281 79.71 174.131 80.535 173.831 81.205C173.531 81.865 173.116 82.36 172.586 82.69C172.056 83.01 171.451 83.17 170.771 83.17C169.711 83.17 168.856 82.795 168.206 82.045C167.566 81.295 167.246 80.19 167.246 78.73ZM173.066 79.315V78.145C173.066 77.215 172.851 76.5 172.421 76C172.001 75.5 171.451 75.25 170.771 75.25C170.081 75.25 169.521 75.5 169.091 76C168.671 76.49 168.461 77.205 168.461 78.145V79.315C168.461 80.255 168.671 80.975 169.091 81.475C169.521 81.965 170.081 82.21 170.771 82.21C171.451 82.21 172.001 81.96 172.421 81.46C172.851 80.96 173.066 80.245 173.066 79.315ZM196.42 76.42V77.38H194.335V80.245H193.195V73.465H194.335V76.42H196.42ZM190.375 79.945H184.225V74.095H190.375V79.945ZM189.25 75.025H185.35V79.015H189.25V75.025ZM193.84 81.91H190.69V80.995H193.84V81.91ZM189.04 85.3L189.325 86.245C188.935 86.415 188.47 86.555 187.93 86.665C187.39 86.785 186.825 86.845 186.235 86.845H185.965C185.725 86.845 185.54 86.78 185.41 86.65C185.28 86.52 185.215 86.33 185.215 86.08V81.505H186.28V85.825H186.475C186.945 85.825 187.405 85.77 187.855 85.66C188.315 85.56 188.71 85.44 189.04 85.3ZM189.07 83.095H195.445V83.95H193.735V84.04C194.055 84.19 194.295 84.39 194.455 84.64C194.615 84.89 194.695 85.175 194.695 85.495C194.695 86.015 194.475 86.45 194.035 86.8C193.595 87.16 193.005 87.34 192.265 87.34C191.515 87.34 190.92 87.16 190.48 86.8C190.04 86.45 189.82 86.015 189.82 85.495C189.82 85.165 189.9 84.875 190.06 84.625C190.22 84.375 190.465 84.175 190.795 84.025V83.95H189.07V83.095ZM193.735 85.24C193.735 84.86 193.605 84.56 193.345 84.34C193.095 84.12 192.765 84.01 192.355 84.01H192.16C191.75 84.01 191.415 84.12 191.155 84.34C190.905 84.56 190.78 84.86 190.78 85.24C190.78 85.62 190.905 85.92 191.155 86.14C191.415 86.36 191.75 86.47 192.16 86.47H192.355C192.765 86.47 193.095 86.36 193.345 86.14C193.605 85.92 193.735 85.62 193.735 85.24ZM209.779 79.555H207.619V86.515H206.479V73.495H207.619V78.595H209.779V79.555ZM204.904 81.685L205.054 82.6C203.524 82.91 201.614 83.065 199.324 83.065H197.734V74.53H203.719V75.49H198.874V82.12H199.309C201.509 82.12 203.374 81.975 204.904 81.685ZM211.993 85.18C211.673 85.18 211.438 85.1 211.288 84.94C211.148 84.78 211.078 84.57 211.078 84.31V84.115C211.078 83.855 211.148 83.645 211.288 83.485C211.438 83.325 211.673 83.245 211.993 83.245C212.313 83.245 212.543 83.325 212.683 83.485C212.833 83.645 212.908 83.855 212.908 84.115V84.31C212.908 84.57 212.833 84.78 212.683 84.94C212.543 85.1 212.313 85.18 211.993 85.18ZM226.645 81.385H225.52V73.675H226.645V77.215H228.595V73.465H229.72V81.805H228.595V78.145H226.645V81.385ZM223.54 74.875H219.625V73.945H223.54V74.875ZM221.575 81.505C220.785 81.505 220.135 81.295 219.625 80.875C219.125 80.445 218.875 79.885 218.875 79.195C218.875 78.305 219.245 77.68 219.985 77.32V77.245H218.155V76.345H224.785V77.245H223.165V77.32C223.905 77.68 224.275 78.305 224.275 79.195C224.275 79.885 224.02 80.445 223.51 80.875C223.01 81.295 222.365 81.505 221.575 81.505ZM221.575 80.575C222.055 80.575 222.45 80.45 222.76 80.2C223.08 79.94 223.24 79.575 223.24 79.105V78.835C223.24 78.355 223.08 77.99 222.76 77.74C222.45 77.48 222.055 77.35 221.575 77.35C221.095 77.35 220.7 77.48 220.39 77.74C220.08 77.99 219.925 78.355 219.925 78.835V79.105C219.925 79.575 220.08 79.94 220.39 80.2C220.7 80.45 221.095 80.575 221.575 80.575ZM229.78 84.685C229.78 85.185 229.62 85.63 229.3 86.02C228.98 86.41 228.5 86.715 227.86 86.935C227.23 87.155 226.455 87.265 225.535 87.265C224.615 87.265 223.83 87.155 223.18 86.935C222.54 86.715 222.06 86.41 221.74 86.02C221.42 85.63 221.26 85.185 221.26 84.685C221.26 84.185 221.42 83.74 221.74 83.35C222.06 82.96 222.54 82.655 223.18 82.435C223.83 82.215 224.615 82.105 225.535 82.105C226.455 82.105 227.23 82.215 227.86 82.435C228.5 82.655 228.98 82.96 229.3 83.35C229.62 83.74 229.78 84.185 229.78 84.685ZM228.58 84.58C228.58 84.14 228.325 83.77 227.815 83.47C227.315 83.17 226.555 83.02 225.535 83.02C224.515 83.02 223.75 83.17 223.24 83.47C222.73 83.77 222.475 84.14 222.475 84.58V84.79C222.475 85.23 222.73 85.6 223.24 85.9C223.75 86.2 224.515 86.35 225.535 86.35C226.555 86.35 227.315 86.2 227.815 85.9C228.325 85.6 228.58 85.23 228.58 84.79V84.58ZM243.769 79.975V80.95H231.529V79.975H237.094V78.415H233.389V73.825H241.924V74.755H234.514V77.47H242.044V78.415H238.219V79.975H243.769ZM242.074 84.685C242.074 85.195 241.909 85.645 241.579 86.035C241.249 86.425 240.749 86.73 240.079 86.95C239.419 87.18 238.609 87.295 237.649 87.295C236.689 87.295 235.874 87.18 235.204 86.95C234.544 86.73 234.049 86.425 233.719 86.035C233.389 85.645 233.224 85.195 233.224 84.685C233.224 84.185 233.389 83.745 233.719 83.365C234.059 82.975 234.559 82.67 235.219 82.45C235.879 82.23 236.689 82.12 237.649 82.12C238.609 82.12 239.419 82.23 240.079 82.45C240.739 82.67 241.234 82.975 241.564 83.365C241.904 83.745 242.074 84.185 242.074 84.685ZM240.874 84.595C240.874 84.155 240.604 83.785 240.064 83.485C239.534 83.175 238.729 83.02 237.649 83.02C236.569 83.02 235.759 83.175 235.219 83.485C234.679 83.785 234.409 84.155 234.409 84.595V84.805C234.409 85.245 234.679 85.615 235.219 85.915C235.759 86.225 236.569 86.38 237.649 86.38C238.729 86.38 239.534 86.225 240.064 85.915C240.604 85.615 240.874 85.245 240.874 84.805V84.595ZM254.923 73.465H256.063V86.485H254.923V73.465ZM245.293 78.73C245.293 77.27 245.613 76.165 246.253 75.415C246.903 74.665 247.758 74.29 248.818 74.29C249.868 74.29 250.713 74.665 251.353 75.415C252.003 76.165 252.328 77.27 252.328 78.73C252.328 79.71 252.178 80.535 251.878 81.205C251.578 81.865 251.163 82.36 250.633 82.69C250.103 83.01 249.498 83.17 248.818 83.17C247.758 83.17 246.903 82.795 246.253 82.045C245.613 81.295 245.293 80.19 245.293 78.73ZM251.113 79.315V78.145C251.113 77.215 250.898 76.5 250.468 76C250.048 75.5 249.498 75.25 248.818 75.25C248.128 75.25 247.568 75.5 247.138 76C246.718 76.49 246.508 77.205 246.508 78.145V79.315C246.508 80.255 246.718 80.975 247.138 81.475C247.568 81.965 248.128 82.21 248.818 82.21C249.498 82.21 250.048 81.96 250.468 81.46C250.898 80.96 251.113 80.245 251.113 79.315ZM274.497 79.555H272.667V86.515H271.602V73.495H272.667V78.595H274.497V79.555ZM264.672 74.44H265.632V83.14H261.897V74.47H262.857V77.845H264.672V74.44ZM269.382 74.44H270.357V83.14H266.622V74.47H267.582V77.845H269.382V74.44ZM264.672 78.76H262.857V82.24H264.672V78.76ZM269.382 78.76H267.582V82.24H269.382V78.76ZM276.996 77.425H284.496V75.22H276.921V74.26H285.636V78.34H278.136V80.56H286.056V81.52H276.996V77.425ZM275.196 84.025H287.436V85H275.196V84.025ZM25.8533 102.555H23.6933V109.515H22.5533V96.495H23.6933V101.595H25.8533V102.555ZM20.9783 104.685L21.1283 105.6C19.5983 105.91 17.6883 106.065 15.3983 106.065H13.8083V97.53H19.7933V98.49H14.9483V105.12H15.3833C17.5833 105.12 19.4483 104.975 20.9783 104.685ZM28.0673 108.18C27.7473 108.18 27.5123 108.1 27.3623 107.94C27.2223 107.78 27.1523 107.57 27.1523 107.31V107.115C27.1523 106.855 27.2223 106.645 27.3623 106.485C27.5123 106.325 27.7473 106.245 28.0673 106.245C28.3873 106.245 28.6173 106.325 28.7573 106.485C28.9073 106.645 28.9823 106.855 28.9823 107.115V107.31C28.9823 107.57 28.9073 107.78 28.7573 107.94C28.6173 108.1 28.3873 108.18 28.0673 108.18ZM46.4692 102.675V103.65H34.2292V102.675H37.8892C38.1192 101.925 38.2942 101.185 38.4142 100.455C38.5442 99.715 38.6042 98.91 38.5942 98.04V97.995H35.4292V97.05H39.6742V98.07C39.6742 99.64 39.4492 101.175 38.9992 102.675H43.2892C43.6692 101.125 43.8542 99.58 43.8442 98.04V97.995H40.6042V97.05H44.9392V98.13C44.9392 99.63 44.7592 101.145 44.3992 102.675H46.4692ZM37.1842 108.765H44.9392V109.71H36.7942C36.5542 109.71 36.3692 109.645 36.2392 109.515C36.1092 109.385 36.0442 109.195 36.0442 108.945V105.36H37.1842V108.765ZM57.6232 96.465H58.7632V109.485H57.6232V96.465ZM48.1882 105.9C49.5682 105.19 50.6232 104.54 51.3532 103.95C52.0832 103.36 52.5932 102.735 52.8832 102.075C53.1832 101.415 53.3332 100.6 53.3332 99.63V98.505H48.5632V97.53H54.4732V99.615C54.4732 100.725 54.3032 101.665 53.9632 102.435C53.6332 103.205 53.0682 103.925 52.2682 104.595C51.4782 105.255 50.3432 105.98 48.8632 106.77L48.1882 105.9ZM72.2122 103.98H71.0572V96.465H72.2122V103.98ZM61.4122 100.2C61.4122 99.54 61.5572 98.965 61.8472 98.475C62.1472 97.985 62.5572 97.61 63.0772 97.35C63.5972 97.08 64.1922 96.945 64.8622 96.945C65.5322 96.945 66.1272 97.08 66.6472 97.35C67.1672 97.61 67.5722 97.985 67.8622 98.475C68.1622 98.965 68.3122 99.54 68.3122 100.2C68.3122 100.86 68.1622 101.435 67.8622 101.925C67.5722 102.415 67.1622 102.795 66.6322 103.065C66.1122 103.325 65.5222 103.455 64.8622 103.455C64.2022 103.455 63.6072 103.325 63.0772 103.065C62.5572 102.795 62.1472 102.415 61.8472 101.925C61.5572 101.435 61.4122 100.86 61.4122 100.2ZM62.6122 100.455C62.6122 101.075 62.8172 101.575 63.2272 101.955C63.6472 102.325 64.1922 102.51 64.8622 102.51C65.5322 102.51 66.0722 102.325 66.4822 101.955C66.8922 101.575 67.0972 101.075 67.0972 100.455V99.93C67.0972 99.31 66.8922 98.815 66.4822 98.445C66.0722 98.075 65.5322 97.89 64.8622 97.89C64.1922 97.89 63.6472 98.075 63.2272 98.445C62.8172 98.815 62.6122 99.31 62.6122 99.93V100.455ZM73.4422 109.275L72.7072 110.055L70.4872 107.88C70.4272 107.81 70.3572 107.775 70.2772 107.775C70.2372 107.775 70.1922 107.79 70.1422 107.82C69.9122 108.16 69.6172 108.51 69.2572 108.87C68.8972 109.24 68.4172 109.685 67.8172 110.205L65.5372 107.835C65.4672 107.765 65.3972 107.73 65.3272 107.73C65.2872 107.73 65.2322 107.755 65.1622 107.805C64.7222 108.465 63.9722 109.25 62.9122 110.16L62.1922 109.395C62.8622 108.835 63.3872 108.335 63.7672 107.895C64.1472 107.455 64.4172 107.02 64.5772 106.59C64.7472 106.16 64.8322 105.675 64.8322 105.135V104.655H65.9122V105.165C65.9122 105.985 65.7572 106.7 65.4472 107.31L65.5072 107.34L65.7022 107.19C65.7822 107.12 65.8772 107.085 65.9872 107.085C66.1072 107.085 66.2122 107.13 66.3022 107.22L67.8922 108.81C68.6122 108.16 69.1072 107.575 69.3772 107.055C69.6472 106.535 69.7822 105.9 69.7822 105.15V104.655H70.8622V105.21C70.8622 105.65 70.8272 106.04 70.7572 106.38C70.6872 106.72 70.5722 107.045 70.4122 107.355L70.4722 107.4L70.6672 107.235C70.7772 107.155 70.8822 107.115 70.9822 107.115C71.0822 107.115 71.1822 107.155 71.2822 107.235L73.4422 109.275ZM86.9813 102.555H84.8213V109.515H83.6813V96.495H84.8213V101.595H86.9813V102.555ZM82.1063 104.685L82.2562 105.6C80.7263 105.91 78.8163 106.065 76.5263 106.065H74.9363V97.53H80.9213V98.49H76.0763V105.12H76.5113C78.7113 105.12 80.5763 104.975 82.1063 104.685ZM89.1953 108.18C88.8753 108.18 88.6403 108.1 88.4903 107.94C88.3503 107.78 88.2803 107.57 88.2803 107.31V107.115C88.2803 106.855 88.3503 106.645 88.4903 106.485C88.6403 106.325 88.8753 106.245 89.1953 106.245C89.5153 106.245 89.7453 106.325 89.8853 106.485C90.0353 106.645 90.1103 106.855 90.1103 107.115V107.31C90.1103 107.57 90.0353 107.78 89.8853 107.94C89.7453 108.1 89.5153 108.18 89.1953 108.18ZM106.922 96.465V104.82H105.827V101.145H103.802V104.685H102.722V96.675H103.802V100.2H105.827V96.465H106.922ZM100.487 97.92H97.0071V97.005H100.487V97.92ZM98.6721 102.42C98.6021 102.42 98.5371 102.45 98.4771 102.51C98.0571 103.1 97.3071 103.845 96.2271 104.745L95.4771 104.085C96.1771 103.505 96.7171 103.015 97.0971 102.615C97.4771 102.205 97.7571 101.81 97.9371 101.43C98.1171 101.04 98.2171 100.61 98.2371 100.14H95.7771V99.225H101.672V100.14H99.2871C99.2571 100.81 99.0871 101.435 98.7771 102.015L98.8371 102.045L99.0621 101.88C99.1421 101.81 99.2321 101.775 99.3321 101.775C99.4421 101.775 99.5621 101.825 99.6921 101.925L101.972 103.83L101.222 104.505L98.9121 102.51C98.8421 102.45 98.7621 102.42 98.6721 102.42ZM98.1021 105.615H106.922V110.145H105.797V106.575H98.1021V105.615ZM119.966 96.465V103.98H118.811V96.465H119.966ZM109.166 100.14C109.166 99.48 109.311 98.905 109.601 98.415C109.901 97.925 110.311 97.55 110.831 97.29C111.351 97.03 111.946 96.9 112.616 96.9C113.286 96.9 113.881 97.03 114.401 97.29C114.921 97.55 115.326 97.925 115.616 98.415C115.916 98.905 116.066 99.48 116.066 100.14C116.066 100.8 115.916 101.375 115.616 101.865C115.326 102.355 114.921 102.73 114.401 102.99C113.881 103.25 113.286 103.38 112.616 103.38C111.946 103.38 111.351 103.25 110.831 102.99C110.311 102.73 109.901 102.355 109.601 101.865C109.311 101.375 109.166 100.8 109.166 100.14ZM114.851 100.395V99.885C114.851 99.265 114.641 98.77 114.221 98.4C113.811 98.02 113.276 97.83 112.616 97.83C111.946 97.83 111.401 98.02 110.981 98.4C110.571 98.77 110.366 99.265 110.366 99.885V100.395C110.366 101.015 110.571 101.515 110.981 101.895C111.401 102.265 111.946 102.45 112.616 102.45C113.276 102.45 113.811 102.265 114.221 101.895C114.641 101.515 114.851 101.015 114.851 100.395ZM111.716 109.26V104.79H119.966V110.025H112.466C112.226 110.025 112.041 109.96 111.911 109.83C111.781 109.7 111.716 109.51 111.716 109.26ZM118.811 105.735H112.856V109.065H118.811V105.735ZM134.75 100.725H132.665V103.98H131.525V96.465H132.665V99.765H134.75V100.725ZM122.975 103.935L122.375 103.065C123.725 102.545 124.75 102.08 125.45 101.67C126.16 101.25 126.655 100.815 126.935 100.365C127.225 99.905 127.37 99.35 127.37 98.7V98.13H122.75V97.17H128.525V98.58C128.525 99.45 128.36 100.175 128.03 100.755C127.71 101.325 127.16 101.855 126.38 102.345C125.6 102.825 124.465 103.355 122.975 103.935ZM124.55 104.79H132.665V110.025H125.3C125.06 110.025 124.875 109.96 124.745 109.83C124.615 109.7 124.55 109.51 124.55 109.26V104.79ZM125.69 109.065H131.525V105.735H125.69V109.065ZM146.714 103.98H145.559V96.465H146.714V103.98ZM135.914 100.2C135.914 99.54 136.059 98.965 136.349 98.475C136.649 97.985 137.059 97.61 137.579 97.35C138.099 97.08 138.694 96.945 139.364 96.945C140.034 96.945 140.629 97.08 141.149 97.35C141.669 97.61 142.074 97.985 142.364 98.475C142.664 98.965 142.814 99.54 142.814 100.2C142.814 100.86 142.664 101.435 142.364 101.925C142.074 102.415 141.664 102.795 141.134 103.065C140.614 103.325 140.024 103.455 139.364 103.455C138.704 103.455 138.109 103.325 137.579 103.065C137.059 102.795 136.649 102.415 136.349 101.925C136.059 101.435 135.914 100.86 135.914 100.2ZM137.114 100.455C137.114 101.075 137.319 101.575 137.729 101.955C138.149 102.325 138.694 102.51 139.364 102.51C140.034 102.51 140.574 102.325 140.984 101.955C141.394 101.575 141.599 101.075 141.599 100.455V99.93C141.599 99.31 141.394 98.815 140.984 98.445C140.574 98.075 140.034 97.89 139.364 97.89C138.694 97.89 138.149 98.075 137.729 98.445C137.319 98.815 137.114 99.31 137.114 99.93V100.455ZM147.944 109.275L147.209 110.055L144.989 107.88C144.929 107.81 144.859 107.775 144.779 107.775C144.739 107.775 144.694 107.79 144.644 107.82C144.414 108.16 144.119 108.51 143.759 108.87C143.399 109.24 142.919 109.685 142.319 110.205L140.039 107.835C139.969 107.765 139.899 107.73 139.829 107.73C139.789 107.73 139.734 107.755 139.664 107.805C139.224 108.465 138.474 109.25 137.414 110.16L136.694 109.395C137.364 108.835 137.889 108.335 138.269 107.895C138.649 107.455 138.919 107.02 139.079 106.59C139.249 106.16 139.334 105.675 139.334 105.135V104.655H140.414V105.165C140.414 105.985 140.259 106.7 139.949 107.31L140.009 107.34L140.204 107.19C140.284 107.12 140.379 107.085 140.489 107.085C140.609 107.085 140.714 107.13 140.804 107.22L142.394 108.81C143.114 108.16 143.609 107.575 143.879 107.055C144.149 106.535 144.284 105.9 144.284 105.15V104.655H145.364V105.21C145.364 105.65 145.329 106.04 145.259 106.38C145.189 106.72 145.074 107.045 144.914 107.355L144.974 107.4L145.169 107.235C145.279 107.155 145.384 107.115 145.484 107.115C145.584 107.115 145.684 107.155 145.784 107.235L147.944 109.275ZM161.483 102.555H159.323V109.515H158.183V96.495H159.323V101.595H161.483V102.555ZM156.608 104.685L156.758 105.6C155.228 105.91 153.318 106.065 151.028 106.065H149.438V97.53H155.423V98.49H150.578V105.12H151.013C153.213 105.12 155.078 104.975 156.608 104.685ZM163.697 108.18C163.377 108.18 163.142 108.1 162.992 107.94C162.852 107.78 162.782 107.57 162.782 107.31V107.115C162.782 106.855 162.852 106.645 162.992 106.485C163.142 106.325 163.377 106.245 163.697 106.245C164.017 106.245 164.247 106.325 164.387 106.485C164.537 106.645 164.612 106.855 164.612 107.115V107.31C164.612 107.57 164.537 107.78 164.387 107.94C164.247 108.1 164.017 108.18 163.697 108.18ZM181.424 96.465V109.485H180.344V96.465H181.424ZM177.464 96.66H178.499V109.14H177.464V104.085H175.604C175.374 104.795 175.029 105.33 174.569 105.69C174.119 106.05 173.574 106.23 172.934 106.23C172.014 106.23 171.284 105.865 170.744 105.135C170.214 104.405 169.949 103.32 169.949 101.88C169.949 100.44 170.214 99.36 170.744 98.64C171.284 97.91 172.014 97.545 172.934 97.545C173.544 97.545 174.074 97.715 174.524 98.055C174.974 98.385 175.319 98.88 175.559 99.54H177.464V96.66ZM174.779 101.145C174.779 100.265 174.609 99.595 174.269 99.135C173.929 98.665 173.484 98.43 172.934 98.43C172.374 98.43 171.924 98.665 171.584 99.135C171.254 99.595 171.089 100.265 171.089 101.145V102.63C171.089 103.51 171.254 104.18 171.584 104.64C171.924 105.1 172.374 105.33 172.934 105.33C173.484 105.33 173.929 105.1 174.269 104.64C174.609 104.18 174.779 103.51 174.779 102.63V101.145ZM177.464 103.17V100.455H175.799C175.869 100.945 175.904 101.42 175.904 101.88C175.904 102.35 175.874 102.78 175.814 103.17H177.464ZM194.468 96.465V106.35H193.313V96.465H194.468ZM190.253 97.305V103.68H183.998V97.305H190.253ZM189.113 98.25H185.153V102.735H189.113V98.25ZM186.128 109.005V105.27H187.283V108.825H194.738V109.77H186.878C186.638 109.77 186.453 109.705 186.323 109.575C186.193 109.445 186.128 109.255 186.128 109.005ZM209.237 102.795H207.122V109.515H205.982V96.495H207.122V101.835H209.237V102.795ZM202.787 98.175H198.527V97.2H202.787V98.175ZM196.532 99.975H204.557V100.905H202.337V100.995C203.247 101.445 203.702 102.31 203.702 103.59C203.702 104.24 203.567 104.805 203.297 105.285C203.027 105.755 202.652 106.115 202.172 106.365C201.702 106.615 201.177 106.74 200.597 106.74C200.017 106.74 199.487 106.615 199.007 106.365C198.537 106.115 198.167 105.755 197.897 105.285C197.627 104.805 197.492 104.24 197.492 103.59C197.492 102.31 197.947 101.445 198.857 100.995V100.905H196.532V99.975ZM202.592 103.095C202.592 102.425 202.412 101.915 202.052 101.565C201.692 101.205 201.207 101.025 200.597 101.025C199.997 101.025 199.512 101.205 199.142 101.565C198.782 101.925 198.602 102.435 198.602 103.095V103.71C198.602 104.36 198.787 104.87 199.157 105.24C199.527 105.6 200.007 105.78 200.597 105.78C201.187 105.78 201.667 105.6 202.037 105.24C202.407 104.87 202.592 104.36 202.592 103.71V103.095ZM222.611 102.555H220.451V109.515H219.311V96.495H220.451V101.595H222.611V102.555ZM217.736 104.685L217.886 105.6C216.356 105.91 214.446 106.065 212.156 106.065H210.566V97.53H216.551V98.49H211.706V105.12H212.141C214.341 105.12 216.206 104.975 217.736 104.685ZM224.825 108.18C224.505 108.18 224.27 108.1 224.12 107.94C223.98 107.78 223.91 107.57 223.91 107.31V107.115C223.91 106.855 223.98 106.645 224.12 106.485C224.27 106.325 224.505 106.245 224.825 106.245C225.145 106.245 225.375 106.325 225.515 106.485C225.665 106.645 225.74 106.855 225.74 107.115V107.31C225.74 107.57 225.665 107.78 225.515 107.94C225.375 108.1 225.145 108.18 224.825 108.18ZM232.232 103.815L231.587 102.93C232.957 102.24 234.002 101.625 234.722 101.085C235.442 100.535 235.942 99.99 236.222 99.45C236.512 98.91 236.657 98.285 236.657 97.575V97.08H237.827V97.62C237.827 98.2 237.762 98.715 237.632 99.165C237.512 99.615 237.307 100.04 237.017 100.44L237.107 100.485L237.467 100.2C237.597 100.1 237.732 100.05 237.872 100.05C237.982 100.05 238.107 100.09 238.247 100.17L242.627 102.87L241.982 103.77L237.437 100.875C237.257 100.785 237.112 100.74 237.002 100.74C236.882 100.74 236.772 100.775 236.672 100.845C236.262 101.295 235.702 101.755 234.992 102.225C234.292 102.685 233.372 103.215 232.232 103.815ZM243.227 107.04V108H230.987V107.04H236.537V103.725H237.677V107.04H243.227ZM255.596 96.465V103.98H254.441V96.465H255.596ZM248.426 100.725C248.356 100.725 248.291 100.76 248.231 100.83C247.971 101.26 247.631 101.7 247.211 102.15C246.791 102.59 246.206 103.155 245.456 103.845L244.601 103.11C245.461 102.35 246.121 101.7 246.581 101.16C247.041 100.62 247.371 100.085 247.571 99.555C247.781 99.025 247.886 98.425 247.886 97.755V96.945H249.041V97.83C249.041 98.76 248.866 99.59 248.516 100.32L248.591 100.365L248.831 100.155C248.941 100.065 249.051 100.02 249.161 100.02C249.271 100.02 249.376 100.065 249.476 100.155L252.356 102.78L251.531 103.575L248.621 100.815C248.561 100.755 248.496 100.725 248.426 100.725ZM247.346 104.79H255.596V110.025H248.096C247.856 110.025 247.671 109.96 247.541 109.83C247.411 109.7 247.346 109.51 247.346 109.26V104.79ZM248.486 109.065H254.441V105.735H248.486V109.065ZM270.365 102.795H268.25V109.515H267.11V96.495H268.25V101.835H270.365V102.795ZM263.915 98.175H259.655V97.2H263.915V98.175ZM257.66 99.975H265.685V100.905H263.465V100.995C264.375 101.445 264.83 102.31 264.83 103.59C264.83 104.24 264.695 104.805 264.425 105.285C264.155 105.755 263.78 106.115 263.3 106.365C262.83 106.615 262.305 106.74 261.725 106.74C261.145 106.74 260.615 106.615 260.135 106.365C259.665 106.115 259.295 105.755 259.025 105.285C258.755 104.805 258.62 104.24 258.62 103.59C258.62 102.31 259.075 101.445 259.985 100.995V100.905H257.66V99.975ZM263.72 103.095C263.72 102.425 263.54 101.915 263.18 101.565C262.82 101.205 262.335 101.025 261.725 101.025C261.125 101.025 260.64 101.205 260.27 101.565C259.91 101.925 259.73 102.435 259.73 103.095V103.71C259.73 104.36 259.915 104.87 260.285 105.24C260.655 105.6 261.135 105.78 261.725 105.78C262.315 105.78 262.795 105.6 263.165 105.24C263.535 104.87 263.72 104.36 263.72 103.71V103.095ZM283.739 102.555H281.579V109.515H280.439V96.495H281.579V101.595H283.739V102.555ZM278.864 104.685L279.014 105.6C277.484 105.91 275.574 106.065 273.284 106.065H271.694V97.53H277.679V98.49H272.834V105.12H273.269C275.469 105.12 277.334 104.975 278.864 104.685ZM285.953 108.18C285.633 108.18 285.398 108.1 285.248 107.94C285.108 107.78 285.038 107.57 285.038 107.31V107.115C285.038 106.855 285.108 106.645 285.248 106.485C285.398 106.325 285.633 106.245 285.953 106.245C286.273 106.245 286.503 106.325 286.643 106.485C286.793 106.645 286.868 106.855 286.868 107.115V107.31C286.868 107.57 286.793 107.78 286.643 107.94C286.503 108.1 286.273 108.18 285.953 108.18ZM120.508 119.465V126.695H119.368V123.695H116.458V122.75H119.368V119.465H120.508ZM110.383 126.8L109.783 125.93C111.123 125.43 112.143 124.975 112.843 124.565C113.553 124.155 114.048 123.73 114.328 123.29C114.618 122.84 114.763 122.3 114.763 121.67V121.1H110.158V120.14H115.903V121.52C115.903 122.38 115.738 123.095 115.408 123.665C115.088 124.225 114.538 124.745 113.758 125.225C112.988 125.705 111.863 126.23 110.383 126.8ZM119.368 127.535H120.508V133.025H113.023C112.783 133.025 112.598 132.96 112.468 132.83C112.338 132.7 112.273 132.51 112.273 132.26V127.535H113.383V129.26H119.368V127.535ZM119.368 130.235H113.383V132.05H119.368V130.235ZM132.667 119.465H133.807V132.485H132.667V119.465ZM123.037 124.73C123.037 123.27 123.357 122.165 123.997 121.415C124.647 120.665 125.502 120.29 126.562 120.29C127.612 120.29 128.457 120.665 129.097 121.415C129.747 122.165 130.072 123.27 130.072 124.73C130.072 125.71 129.922 126.535 129.622 127.205C129.322 127.865 128.907 128.36 128.377 128.69C127.847 129.01 127.242 129.17 126.562 129.17C125.502 129.17 124.647 128.795 123.997 128.045C123.357 127.295 123.037 126.19 123.037 124.73ZM128.857 125.315V124.145C128.857 123.215 128.642 122.5 128.212 122C127.792 121.5 127.242 121.25 126.562 121.25C125.872 121.25 125.312 121.5 124.882 122C124.462 122.49 124.252 123.205 124.252 124.145V125.315C124.252 126.255 124.462 126.975 124.882 127.475C125.312 127.965 125.872 128.21 126.562 128.21C127.242 128.21 127.792 127.96 128.212 127.46C128.642 126.96 128.857 126.245 128.857 125.315ZM152.211 122.42V123.38H150.126V126.245H148.986V119.465H150.126V122.42H152.211ZM146.166 125.945H140.016V120.095H146.166V125.945ZM145.041 121.025H141.141V125.015H145.041V121.025ZM149.631 127.91H146.481V126.995H149.631V127.91ZM144.831 131.3L145.116 132.245C144.726 132.415 144.261 132.555 143.721 132.665C143.181 132.785 142.616 132.845 142.026 132.845H141.756C141.516 132.845 141.331 132.78 141.201 132.65C141.071 132.52 141.006 132.33 141.006 132.08V127.505H142.071V131.825H142.266C142.736 131.825 143.196 131.77 143.646 131.66C144.106 131.56 144.501 131.44 144.831 131.3ZM144.861 129.095H151.236V129.95H149.526V130.04C149.846 130.19 150.086 130.39 150.246 130.64C150.406 130.89 150.486 131.175 150.486 131.495C150.486 132.015 150.266 132.45 149.826 132.8C149.386 133.16 148.796 133.34 148.056 133.34C147.306 133.34 146.711 133.16 146.271 132.8C145.831 132.45 145.611 132.015 145.611 131.495C145.611 131.165 145.691 130.875 145.851 130.625C146.011 130.375 146.256 130.175 146.586 130.025V129.95H144.861V129.095ZM149.526 131.24C149.526 130.86 149.396 130.56 149.136 130.34C148.886 130.12 148.556 130.01 148.146 130.01H147.951C147.541 130.01 147.206 130.12 146.946 130.34C146.696 130.56 146.571 130.86 146.571 131.24C146.571 131.62 146.696 131.92 146.946 132.14C147.206 132.36 147.541 132.47 147.951 132.47H148.146C148.556 132.47 148.886 132.36 149.136 132.14C149.396 131.92 149.526 131.62 149.526 131.24ZM165.57 125.555H163.41V132.515H162.27V119.495H163.41V124.595H165.57V125.555ZM160.695 127.685L160.845 128.6C159.315 128.91 157.405 129.065 155.115 129.065H153.525V120.53H159.51V121.49H154.665V128.12H155.1C157.3 128.12 159.165 127.975 160.695 127.685ZM167.784 131.18C167.464 131.18 167.229 131.1 167.079 130.94C166.939 130.78 166.869 130.57 166.869 130.31V130.115C166.869 129.855 166.939 129.645 167.079 129.485C167.229 129.325 167.464 129.245 167.784 129.245C168.104 129.245 168.334 129.325 168.474 129.485C168.624 129.645 168.699 129.855 168.699 130.115V130.31C168.699 130.57 168.624 130.78 168.474 130.94C168.334 131.1 168.104 131.18 167.784 131.18ZM186.591 123.725H184.506V126.98H183.366V119.465H184.506V122.765H186.591V123.725ZM174.816 126.935L174.216 126.065C175.566 125.545 176.591 125.08 177.291 124.67C178.001 124.25 178.496 123.815 178.776 123.365C179.066 122.905 179.211 122.35 179.211 121.7V121.13H174.591V120.17H180.366V121.58C180.366 122.45 180.201 123.175 179.871 123.755C179.551 124.325 179.001 124.855 178.221 125.345C177.441 125.825 176.306 126.355 174.816 126.935ZM176.391 127.79H184.506V133.025H177.141C176.901 133.025 176.716 132.96 176.586 132.83C176.456 132.7 176.391 132.51 176.391 132.26V127.79ZM177.531 132.065H183.366V128.735H177.531V132.065ZM197.415 122.69V119.465H198.555V127.295H197.415V123.62H194.685V122.69H197.415ZM188.505 126.845L187.65 126.125C188.49 125.465 189.14 124.895 189.6 124.415C190.06 123.925 190.39 123.445 190.59 122.975C190.8 122.495 190.905 121.96 190.905 121.37V121.22H188.04V120.26H194.88V121.22H192.045V121.415C192.045 122.265 191.87 123.01 191.52 123.65L191.61 123.695L191.85 123.515C191.96 123.435 192.07 123.395 192.18 123.395C192.31 123.395 192.425 123.44 192.525 123.53L195.315 125.87L194.475 126.62L191.64 124.16C191.56 124.1 191.485 124.07 191.415 124.07C191.335 124.07 191.265 124.1 191.205 124.16C190.935 124.55 190.59 124.95 190.17 125.36C189.75 125.77 189.195 126.265 188.505 126.845ZM198.63 130.4C198.63 130.94 198.47 131.42 198.15 131.84C197.84 132.27 197.365 132.605 196.725 132.845C196.095 133.095 195.325 133.22 194.415 133.22C193.495 133.22 192.715 133.095 192.075 132.845C191.445 132.605 190.97 132.27 190.65 131.84C190.34 131.42 190.185 130.94 190.185 130.4C190.185 129.86 190.34 129.38 190.65 128.96C190.97 128.53 191.445 128.195 192.075 127.955C192.715 127.705 193.495 127.58 194.415 127.58C195.325 127.58 196.095 127.705 196.725 127.955C197.365 128.195 197.84 128.53 198.15 128.96C198.47 129.38 198.63 129.86 198.63 130.4ZM197.43 130.28C197.43 129.77 197.18 129.345 196.68 129.005C196.18 128.655 195.425 128.48 194.415 128.48C193.395 128.48 192.63 128.655 192.12 129.005C191.62 129.345 191.37 129.77 191.37 130.28V130.535C191.37 131.035 191.62 131.455 192.12 131.795C192.63 132.145 193.395 132.32 194.415 132.32C195.425 132.32 196.18 132.145 196.68 131.795C197.18 131.455 197.43 131.035 197.43 130.535V130.28ZM211.599 121.235H202.014V120.275H211.599V121.235ZM211.734 126.74H201.894V125.795H204.264L203.769 122.465L204.924 122.345L205.329 125.795H208.284L208.689 122.345L209.859 122.465L209.349 125.795H211.734V126.74ZM212.934 130.04V131H200.694V130.04H204.024V127.505H205.134V130.04H208.494V127.505H209.604V130.04H212.934ZM224.148 126.275H222.153V125.345H224.148V123.47H222.153V122.54H224.148V119.465H225.303V129.5H224.148V126.275ZM220.098 120.83H216.123V119.87H220.098V120.83ZM218.013 127.955C217.403 127.955 216.868 127.85 216.408 127.64C215.948 127.43 215.593 127.14 215.343 126.77C215.093 126.4 214.968 125.98 214.968 125.51C214.968 125.03 215.078 124.615 215.298 124.265C215.518 123.905 215.848 123.63 216.288 123.44V123.365H214.158V122.435H221.673V123.365H219.753V123.455C220.193 123.645 220.523 123.915 220.743 124.265C220.963 124.615 221.073 125.03 221.073 125.51C221.073 125.98 220.948 126.4 220.698 126.77C220.448 127.14 220.088 127.43 219.618 127.64C219.158 127.85 218.623 127.955 218.013 127.955ZM217.893 126.995H218.148C218.698 126.995 219.143 126.84 219.483 126.53C219.833 126.22 220.008 125.79 220.008 125.24C220.008 124.69 219.833 124.265 219.483 123.965C219.143 123.655 218.698 123.5 218.148 123.5H217.893C217.333 123.5 216.883 123.655 216.543 123.965C216.203 124.265 216.033 124.69 216.033 125.24C216.033 125.79 216.203 126.22 216.543 126.53C216.893 126.84 217.343 126.995 217.893 126.995ZM225.573 131.9V132.845H217.683C217.443 132.845 217.258 132.78 217.128 132.65C216.998 132.52 216.933 132.33 216.933 132.08V129.08H218.073V131.9H225.573ZM237.462 119.465H238.602V132.485H237.462V119.465ZM227.832 124.73C227.832 123.27 228.152 122.165 228.792 121.415C229.442 120.665 230.297 120.29 231.357 120.29C232.407 120.29 233.252 120.665 233.892 121.415C234.542 122.165 234.867 123.27 234.867 124.73C234.867 125.71 234.717 126.535 234.417 127.205C234.117 127.865 233.702 128.36 233.172 128.69C232.642 129.01 232.037 129.17 231.357 129.17C230.297 129.17 229.442 128.795 228.792 128.045C228.152 127.295 227.832 126.19 227.832 124.73ZM233.652 125.315V124.145C233.652 123.215 233.437 122.5 233.007 122C232.587 121.5 232.037 121.25 231.357 121.25C230.667 121.25 230.107 121.5 229.677 122C229.257 122.49 229.047 123.205 229.047 124.145V125.315C229.047 126.255 229.257 126.975 229.677 127.475C230.107 127.965 230.667 128.21 231.357 128.21C232.037 128.21 232.587 127.96 233.007 127.46C233.437 126.96 233.652 126.245 233.652 125.315ZM255.536 119.465V132.485H254.411V124.79H251.636V123.83H254.411V119.465H255.536ZM249.041 124.715C249.161 124.715 249.266 124.77 249.356 124.88L252.296 128.63L251.426 129.395L248.486 125.525C248.446 125.475 248.396 125.45 248.336 125.45C248.276 125.45 248.226 125.475 248.186 125.525C247.936 126.105 247.591 126.7 247.151 127.31C246.711 127.92 246.111 128.68 245.351 129.59L244.481 128.855C245.351 127.865 246.016 127.02 246.476 126.32C246.946 125.61 247.281 124.9 247.481 124.19C247.691 123.48 247.796 122.665 247.796 121.745V120.335H248.936V121.73C248.936 122.94 248.771 124.02 248.441 124.97L248.501 125.015L248.711 124.835C248.821 124.755 248.931 124.715 249.041 124.715ZM268.325 124.73H259.61V119.66H268.07V120.5H260.705V121.79H267.86V122.6H260.72V123.89H268.325V124.73ZM264.41 126.71V127.985H268.145V130.97H260.675V132.245H268.535V133.145H260.36C260.12 133.145 259.935 133.08 259.805 132.95C259.675 132.82 259.61 132.63 259.61 132.38V130.13H267.08V128.87H259.52V127.985H263.3V126.71H257.735V125.825H269.975V126.71H264.41ZM283.739 125.555H281.579V132.515H280.439V119.495H281.579V124.595H283.739V125.555ZM278.864 127.685L279.014 128.6C277.484 128.91 275.574 129.065 273.284 129.065H271.694V120.53H277.679V121.49H272.834V128.12H273.269C275.469 128.12 277.334 127.975 278.864 127.685ZM285.953 131.18C285.633 131.18 285.398 131.1 285.248 130.94C285.108 130.78 285.038 130.57 285.038 130.31V130.115C285.038 129.855 285.108 129.645 285.248 129.485C285.398 129.325 285.633 129.245 285.953 129.245C286.273 129.245 286.503 129.325 286.643 129.485C286.793 129.645 286.868 129.855 286.868 130.115V130.31C286.868 130.57 286.793 130.78 286.643 130.94C286.503 131.1 286.273 131.18 285.953 131.18Z" fill="#1B1C25"/>
</svg>
