<svg width="288" height="137" viewBox="0 0 288 137" fill="none" xmlns="http://www.w3.org/2000/svg">
<path d="M10.2592 6.63849H8.5973C8.53338 6.28338 8.41442 5.97088 8.24041 5.70099C8.06641 5.43111 7.85334 5.20206 7.60121 5.01385C7.34908 4.82564 7.06676 4.68359 6.75426 4.58771C6.44531 4.49183 6.11683 4.44389 5.76882 4.44389C5.14027 4.44389 4.57741 4.60192 4.08026 4.91797C3.58665 5.23402 3.19602 5.69744 2.90838 6.30824C2.62429 6.91903 2.48224 7.66477 2.48224 8.54545C2.48224 9.43324 2.62429 10.1825 2.90838 10.7933C3.19602 11.4041 3.58842 11.8658 4.08558 12.1783C4.58274 12.4908 5.14205 12.647 5.76349 12.647C6.10795 12.647 6.43466 12.6009 6.74361 12.5085C7.05611 12.4126 7.33842 12.2724 7.59055 12.0877C7.84268 11.9031 8.05575 11.6776 8.22976 11.4112C8.40732 11.1413 8.52983 10.8324 8.5973 10.4844L10.2592 10.4897C10.1705 11.0259 9.99822 11.5195 9.74254 11.9705C9.49041 12.418 9.16548 12.805 8.76776 13.1317C8.37358 13.4549 7.92259 13.7053 7.41477 13.8828C6.90696 14.0604 6.35298 14.1491 5.75284 14.1491C4.80824 14.1491 3.96662 13.9254 3.22798 13.478C2.48935 13.027 1.90696 12.3825 1.48082 11.5444C1.05824 10.7063 0.846946 9.70668 0.846946 8.54545C0.846946 7.38068 1.06001 6.38104 1.48615 5.54652C1.91229 4.70845 2.49467 4.0657 3.23331 3.61825C3.97195 3.16726 4.81179 2.94176 5.75284 2.94176C6.33168 2.94176 6.87145 3.02521 7.37216 3.19212C7.87642 3.35547 8.32919 3.59695 8.73047 3.91655C9.13175 4.2326 9.46378 4.61967 9.72656 5.07777C9.98935 5.53232 10.1669 6.05256 10.2592 6.63849ZM13.2788 14V3.09091H14.9247V7.83168H20.3633V3.09091H22.0146V14H20.3633V9.24325H14.9247V14H13.2788ZM26.3831 14H24.636L28.5617 3.09091H30.4634L34.3892 14H32.642L29.5578 5.07244H29.4726L26.3831 14ZM26.6761 9.72798H32.3437V11.1129H26.6761V9.72798ZM37.0145 14V3.09091H40.903C41.7482 3.09091 42.4495 3.23651 43.0071 3.5277C43.5681 3.81889 43.9872 4.22195 44.2642 4.73686C44.5412 5.24822 44.6797 5.83949 44.6797 6.51065C44.6797 7.17827 44.5394 7.76598 44.2588 8.27379C43.9819 8.77805 43.5628 9.17045 43.0017 9.45099C42.4442 9.73153 41.7429 9.8718 40.8977 9.8718H37.952V8.4549H40.7485C41.2812 8.4549 41.7145 8.37855 42.0483 8.22585C42.3856 8.07315 42.6324 7.85121 42.7887 7.56001C42.9449 7.26882 43.023 6.91903 43.023 6.51065C43.023 6.09872 42.9431 5.74183 42.7833 5.43999C42.6271 5.13814 42.3803 4.90732 42.0429 4.74751C41.7091 4.58416 41.2706 4.50249 40.7272 4.50249H38.6605V14H37.0145ZM42.3998 9.07812L45.0951 14H43.2201L40.5781 9.07812H42.3998ZM48.654 14H46.9069L50.8326 3.09091H52.7343L56.6601 14H54.9129L51.8287 5.07244H51.7435L48.654 14ZM48.947 9.72798H54.6146V11.1129H48.947V9.72798ZM67.8335 6.63849H66.1715C66.1076 6.28338 65.9886 5.97088 65.8146 5.70099C65.6406 5.43111 65.4276 5.20206 65.1754 5.01385C64.9233 4.82564 64.641 4.68359 64.3285 4.58771C64.0195 4.49183 63.6911 4.44389 63.343 4.44389C62.7145 4.44389 62.1516 4.60192 61.6545 4.91797C61.1609 5.23402 60.7702 5.69744 60.4826 6.30824C60.1985 6.91903 60.0565 7.66477 60.0565 8.54545C60.0565 9.43324 60.1985 10.1825 60.4826 10.7933C60.7702 11.4041 61.1626 11.8658 61.6598 12.1783C62.157 12.4908 62.7163 12.647 63.3377 12.647C63.6822 12.647 64.0089 12.6009 64.3178 12.5085C64.6303 12.4126 64.9126 12.2724 65.1648 12.0877C65.4169 11.9031 65.63 11.6776 65.804 11.4112C65.9815 11.1413 66.104 10.8324 66.1715 10.4844L67.8335 10.4897C67.7447 11.0259 67.5724 11.5195 67.3168 11.9705C67.0646 12.418 66.7397 12.805 66.342 13.1317C65.9478 13.4549 65.4968 13.7053 64.989 13.8828C64.4812 14.0604 63.9272 14.1491 63.3271 14.1491C62.3825 14.1491 61.5408 13.9254 60.8022 13.478C60.0636 13.027 59.4812 12.3825 59.055 11.5444C58.6325 10.7063 58.4212 9.70668 58.4212 8.54545C58.4212 7.38068 58.6342 6.38104 59.0604 5.54652C59.4865 4.70845 60.0689 4.0657 60.8075 3.61825C61.5462 3.16726 62.386 2.94176 63.3271 2.94176C63.9059 2.94176 64.4457 3.02521 64.9464 3.19212C65.4506 3.35547 65.9034 3.59695 66.3047 3.91655C66.706 4.2326 67.038 4.61967 67.3008 5.07777C67.5636 5.53232 67.7411 6.05256 67.8335 6.63849ZM70.315 4.50781V3.09091H78.7578V4.50781H75.3541V14H73.7134V4.50781H70.315ZM81.6735 14V3.09091H88.513V4.50781H83.3195V7.83168H88.1561V9.24325H83.3195V12.5831H88.5769V14H81.6735ZM91.7616 14V3.09091H95.6501C96.4953 3.09091 97.1966 3.23651 97.7541 3.5277C98.3152 3.81889 98.7343 4.22195 99.0112 4.73686C99.2882 5.24822 99.4267 5.83949 99.4267 6.51065C99.4267 7.17827 99.2865 7.76598 99.0059 8.27379C98.7289 8.77805 98.3099 9.17045 97.7488 9.45099C97.1913 9.73153 96.4899 9.8718 95.6448 9.8718H92.6991V8.4549H95.4956C96.0283 8.4549 96.4615 8.37855 96.7953 8.22585C97.1327 8.07315 97.3795 7.85121 97.5357 7.56001C97.692 7.26882 97.7701 6.91903 97.7701 6.51065C97.7701 6.09872 97.6902 5.74183 97.5304 5.43999C97.3742 5.13814 97.1274 4.90732 96.79 4.74751C96.4562 4.58416 96.0176 4.50249 95.4743 4.50249H93.4075V14H91.7616ZM97.1469 9.07812L99.8422 14H97.9672L95.3252 9.07812H97.1469Z" fill="#273F65"/>
<path d="M1.43821 53V39.9091H9.55611V41.6094H3.41335V45.598H8.97443V47.2919H3.41335V53H1.43821ZM13.2451 53V39.9091H17.9113C18.9255 39.9091 19.7671 40.0838 20.4361 40.4332C21.1094 40.7827 21.6123 41.2663 21.9447 41.8842C22.277 42.4979 22.4432 43.2074 22.4432 44.0128C22.4432 44.8139 22.2749 45.5192 21.9383 46.1286C21.6059 46.7337 21.103 47.2045 20.4297 47.5412C19.7607 47.8778 18.9191 48.0462 17.9049 48.0462H14.3701V46.3459H17.7259C18.3651 46.3459 18.885 46.2543 19.2856 46.071C19.6904 45.8878 19.9866 45.6214 20.1741 45.272C20.3616 44.9226 20.4553 44.5028 20.4553 44.0128C20.4553 43.5185 20.3594 43.0902 20.1677 42.728C19.9802 42.3658 19.684 42.0888 19.2792 41.897C18.8786 41.701 18.3523 41.603 17.7003 41.603H15.2202V53H13.2451ZM19.7074 47.0938L22.9418 53H20.6918L17.5214 47.0938H19.7074ZM37.4781 46.4545C37.4781 47.8523 37.2224 49.054 36.7111 50.0597C36.1997 51.0611 35.4987 51.8324 34.6081 52.3736C33.7217 52.9105 32.7139 53.179 31.5846 53.179C30.4511 53.179 29.439 52.9105 28.5484 52.3736C27.662 51.8324 26.9632 51.0589 26.4518 50.0533C25.9405 49.0476 25.6848 47.848 25.6848 46.4545C25.6848 45.0568 25.9405 43.8572 26.4518 42.8558C26.9632 41.8501 27.662 41.0788 28.5484 40.5419C29.439 40.0007 30.4511 39.7301 31.5846 39.7301C32.7139 39.7301 33.7217 40.0007 34.6081 40.5419C35.4987 41.0788 36.1997 41.8501 36.7111 42.8558C37.2224 43.8572 37.4781 45.0568 37.4781 46.4545ZM35.5221 46.4545C35.5221 45.3892 35.3495 44.4922 35.0044 43.7635C34.6635 43.0305 34.1947 42.4766 33.5981 42.1016C33.0058 41.7223 32.3346 41.5327 31.5846 41.5327C30.8304 41.5327 30.1571 41.7223 29.5647 42.1016C28.9724 42.4766 28.5037 43.0305 28.1585 43.7635C27.8176 44.4922 27.6471 45.3892 27.6471 46.4545C27.6471 47.5199 27.8176 48.419 28.1585 49.152C28.5037 49.8807 28.9724 50.4347 29.5647 50.8139C30.1571 51.1889 30.8304 51.3764 31.5846 51.3764C32.3346 51.3764 33.0058 51.1889 33.5981 50.8139C34.1947 50.4347 34.6635 49.8807 35.0044 49.152C35.3495 48.419 35.5221 47.5199 35.5221 46.4545ZM41.2006 39.9091H43.5976L47.7653 50.0852H47.9187L52.0863 39.9091H54.4833V53H52.604V43.527H52.4826L48.6218 52.9808H47.0621L43.2013 43.5206H43.0799V53H41.2006V39.9091ZM76.01 46.4545C76.01 47.8523 75.7544 49.054 75.243 50.0597C74.7316 51.0611 74.0306 51.8324 73.14 52.3736C72.2537 52.9105 71.2458 53.179 70.1166 53.179C68.9831 53.179 67.971 52.9105 67.0804 52.3736C66.194 51.8324 65.4951 51.0589 64.9838 50.0533C64.4724 49.0476 64.2167 47.848 64.2167 46.4545C64.2167 45.0568 64.4724 43.8572 64.9838 42.8558C65.4951 41.8501 66.194 41.0788 67.0804 40.5419C67.971 40.0007 68.9831 39.7301 70.1166 39.7301C71.2458 39.7301 72.2537 40.0007 73.14 40.5419C74.0306 41.0788 74.7316 41.8501 75.243 42.8558C75.7544 43.8572 76.01 45.0568 76.01 46.4545ZM74.0541 46.4545C74.0541 45.3892 73.8815 44.4922 73.5363 43.7635C73.1954 43.0305 72.7267 42.4766 72.1301 42.1016C71.5377 41.7223 70.8666 41.5327 70.1166 41.5327C69.3623 41.5327 68.689 41.7223 68.0967 42.1016C67.5044 42.4766 67.0356 43.0305 66.6904 43.7635C66.3495 44.4922 66.1791 45.3892 66.1791 46.4545C66.1791 47.5199 66.3495 48.419 66.6904 49.152C67.0356 49.8807 67.5044 50.4347 68.0967 50.8139C68.689 51.1889 69.3623 51.3764 70.1166 51.3764C70.8666 51.3764 71.5377 51.1889 72.1301 50.8139C72.7267 50.4347 73.1954 49.8807 73.5363 49.152C73.8815 48.419 74.0541 47.5199 74.0541 46.4545ZM88.1509 39.9091H90.1324V48.5192C90.1324 49.4354 89.9172 50.2472 89.4868 50.9545C89.0564 51.6577 88.4513 52.2116 87.6715 52.6165C86.8917 53.017 85.9776 53.2173 84.9293 53.2173C83.8853 53.2173 82.9734 53.017 82.1935 52.6165C81.4137 52.2116 80.8086 51.6577 80.3782 50.9545C79.9478 50.2472 79.7326 49.4354 79.7326 48.5192V39.9091H81.7077V48.3594C81.7077 48.9517 81.8377 49.478 82.0976 49.9382C82.3618 50.3984 82.7347 50.7607 83.2162 51.0249C83.6978 51.2848 84.2688 51.4148 84.9293 51.4148C85.5941 51.4148 86.1672 51.2848 86.6488 51.0249C87.1346 50.7607 87.5053 50.3984 87.761 49.9382C88.0209 49.478 88.1509 48.9517 88.1509 48.3594V39.9091ZM93.6185 41.6094V39.9091H103.75V41.6094H99.6653V53H97.6966V41.6094H93.6185ZM114.389 43.348C114.32 42.7429 114.039 42.2741 113.545 41.9418C113.051 41.6051 112.428 41.4368 111.678 41.4368C111.141 41.4368 110.677 41.522 110.285 41.6925C109.893 41.8587 109.588 42.0888 109.371 42.3828C109.158 42.6726 109.051 43.0028 109.051 43.3736C109.051 43.6847 109.124 43.9531 109.269 44.179C109.418 44.4048 109.612 44.5945 109.85 44.7479C110.093 44.897 110.353 45.0227 110.63 45.125C110.907 45.223 111.173 45.304 111.429 45.3679L112.707 45.7003C113.125 45.8026 113.553 45.9411 113.992 46.1158C114.431 46.2905 114.838 46.5206 115.213 46.8061C115.588 47.0916 115.891 47.4453 116.121 47.8672C116.355 48.2891 116.472 48.794 116.472 49.3821C116.472 50.1236 116.281 50.782 115.897 51.3572C115.518 51.9325 114.966 52.3864 114.242 52.7188C113.521 53.0511 112.65 53.2173 111.627 53.2173C110.647 53.2173 109.799 53.0618 109.083 52.7507C108.367 52.4396 107.807 51.9986 107.402 51.4276C106.997 50.8523 106.774 50.1705 106.731 49.3821H108.712C108.751 49.8551 108.904 50.2493 109.173 50.5646C109.445 50.8757 109.793 51.108 110.215 51.2614C110.641 51.4105 111.107 51.4851 111.614 51.4851C112.173 51.4851 112.669 51.3977 113.104 51.223C113.543 51.044 113.888 50.7969 114.139 50.4815C114.391 50.1619 114.516 49.7891 114.516 49.3629C114.516 48.9751 114.406 48.6577 114.184 48.4105C113.967 48.1634 113.671 47.9588 113.296 47.7969C112.925 47.6349 112.505 47.4922 112.036 47.3686L110.489 46.9467C109.441 46.6612 108.61 46.2415 107.997 45.6875C107.387 45.1335 107.082 44.4006 107.082 43.4886C107.082 42.7344 107.287 42.076 107.696 41.5135C108.105 40.951 108.659 40.5142 109.358 40.2031C110.057 39.8878 110.845 39.7301 111.723 39.7301C112.609 39.7301 113.391 39.8857 114.069 40.1967C114.751 40.5078 115.288 40.9361 115.68 41.4815C116.072 42.0227 116.276 42.6449 116.293 43.348H114.389ZM122.068 39.9091V53H120.093V39.9091H122.068ZM130.442 53H126.204V39.9091H130.576C131.859 39.9091 132.961 40.1712 133.881 40.6953C134.802 41.2152 135.507 41.9631 135.997 42.9389C136.491 43.9105 136.738 45.076 136.738 46.4354C136.738 47.799 136.489 48.9709 135.99 49.951C135.496 50.9311 134.78 51.6854 133.843 52.2138C132.905 52.7379 131.772 53 130.442 53ZM128.179 51.2741H130.333C131.331 51.2741 132.159 51.0866 132.82 50.7116C133.481 50.3324 133.975 49.7848 134.303 49.0689C134.631 48.3487 134.795 47.4709 134.795 46.4354C134.795 45.4084 134.631 44.5369 134.303 43.821C133.979 43.1051 133.495 42.5618 132.852 42.1911C132.208 41.8203 131.409 41.6349 130.455 41.6349H128.179V51.2741ZM140.454 53V39.9091H148.662V41.6094H142.43V45.598H148.234V47.2919H142.43V51.2997H148.739V53H140.454Z" fill="#1B1C25"/>
<path d="M12.135 83.44H11.025V73.465H12.135V83.44ZM8.115 77.695H6.135V76.75H8.115V73.675H9.195V83.065H8.115V77.695ZM3.825 78.385C3.755 78.385 3.7 78.42 3.66 78.49C3.43 78.93 3.13 79.39 2.76 79.87C2.39 80.34 1.92 80.885 1.35 81.505L0.555 80.815C1.285 80.015 1.84 79.335 2.22 78.775C2.61 78.205 2.885 77.65 3.045 77.11C3.215 76.56 3.3 75.935 3.3 75.235V74.365H4.395V75.265C4.395 76.245 4.245 77.105 3.945 77.845L4.02 77.89L4.2 77.74C4.31 77.66 4.41 77.62 4.5 77.62C4.61 77.62 4.71 77.67 4.8 77.77L7.17 80.485L6.375 81.235L4.035 78.49C3.975 78.42 3.905 78.385 3.825 78.385ZM12.42 85.825V86.77H4.215C3.975 86.77 3.79 86.705 3.66 86.575C3.53 86.445 3.465 86.255 3.465 86.005V82.315H4.605V85.825H12.42ZM15.204 80.965L14.559 80.08C15.919 79.38 16.959 78.76 17.679 78.22C18.409 77.67 18.914 77.125 19.194 76.585C19.474 76.035 19.614 75.405 19.614 74.695V74.185H20.784V74.725C20.784 75.305 20.719 75.825 20.589 76.285C20.469 76.735 20.264 77.16 19.974 77.56L20.049 77.605L20.424 77.32C20.554 77.22 20.684 77.17 20.814 77.17C20.944 77.17 21.074 77.215 21.204 77.305L25.569 80.02L24.909 80.92L20.394 78.01C20.264 77.92 20.124 77.875 19.974 77.875C19.844 77.875 19.714 77.925 19.584 78.025C19.174 78.465 18.619 78.92 17.919 79.39C17.219 79.85 16.314 80.375 15.204 80.965ZM26.184 84.025V85H13.944V84.025H26.184ZM38.553 80.98H37.398V73.465H38.553V80.98ZM27.753 77.2C27.753 76.54 27.898 75.965 28.188 75.475C28.488 74.985 28.898 74.61 29.418 74.35C29.938 74.08 30.533 73.945 31.203 73.945C31.873 73.945 32.468 74.08 32.988 74.35C33.508 74.61 33.913 74.985 34.203 75.475C34.503 75.965 34.653 76.54 34.653 77.2C34.653 77.86 34.503 78.435 34.203 78.925C33.913 79.415 33.503 79.795 32.973 80.065C32.453 80.325 31.863 80.455 31.203 80.455C30.543 80.455 29.948 80.325 29.418 80.065C28.898 79.795 28.488 79.415 28.188 78.925C27.898 78.435 27.753 77.86 27.753 77.2ZM28.953 77.455C28.953 78.075 29.158 78.575 29.568 78.955C29.988 79.325 30.533 79.51 31.203 79.51C31.873 79.51 32.413 79.325 32.823 78.955C33.233 78.575 33.438 78.075 33.438 77.455V76.93C33.438 76.31 33.233 75.815 32.823 75.445C32.413 75.075 31.873 74.89 31.203 74.89C30.533 74.89 29.988 75.075 29.568 75.445C29.158 75.815 28.953 76.31 28.953 76.93V77.455ZM39.783 86.275L39.048 87.055L36.828 84.88C36.768 84.81 36.698 84.775 36.618 84.775C36.578 84.775 36.533 84.79 36.483 84.82C36.253 85.16 35.958 85.51 35.598 85.87C35.238 86.24 34.758 86.685 34.158 87.205L31.878 84.835C31.808 84.765 31.738 84.73 31.668 84.73C31.628 84.73 31.573 84.755 31.503 84.805C31.063 85.465 30.313 86.25 29.253 87.16L28.533 86.395C29.203 85.835 29.728 85.335 30.108 84.895C30.488 84.455 30.758 84.02 30.918 83.59C31.088 83.16 31.173 82.675 31.173 82.135V81.655H32.253V82.165C32.253 82.985 32.098 83.7 31.788 84.31L31.848 84.34L32.043 84.19C32.123 84.12 32.218 84.085 32.328 84.085C32.448 84.085 32.553 84.13 32.643 84.22L34.233 85.81C34.953 85.16 35.448 84.575 35.718 84.055C35.988 83.535 36.123 82.9 36.123 82.15V81.655H37.203V82.21C37.203 82.65 37.168 83.04 37.098 83.38C37.028 83.72 36.913 84.045 36.753 84.355L36.813 84.4L37.008 84.235C37.118 84.155 37.223 84.115 37.323 84.115C37.423 84.115 37.523 84.155 37.623 84.235L39.783 86.275ZM53.3221 79.555H51.1621V86.515H50.0221V73.495H51.1621V78.595H53.3221V79.555ZM48.4471 81.685L48.5971 82.6C47.0671 82.91 45.1571 83.065 42.8671 83.065H41.2771V74.53H47.2621V75.49H42.4171V82.12H42.8521C45.0521 82.12 46.9171 81.975 48.4471 81.685ZM55.5361 85.18C55.2161 85.18 54.9811 85.1 54.8311 84.94C54.6911 84.78 54.6211 84.57 54.6211 84.31V84.115C54.6211 83.855 54.6911 83.645 54.8311 83.485C54.9811 83.325 55.2161 83.245 55.5361 83.245C55.8561 83.245 56.0861 83.325 56.2261 83.485C56.3761 83.645 56.4511 83.855 56.4511 84.115V84.31C56.4511 84.57 56.3761 84.78 56.2261 84.94C56.0861 85.1 55.8561 85.18 55.5361 85.18ZM71.7929 77.26H68.9279V76.3H71.7929V73.465H72.9329V81.22H71.7929V77.26ZM65.6879 77.71C65.6179 77.71 65.5579 77.74 65.5079 77.8C65.2379 78.25 64.8829 78.715 64.4429 79.195C64.0129 79.665 63.4429 80.23 62.7329 80.89L61.8929 80.14C62.7429 79.38 63.3979 78.73 63.8579 78.19C64.3179 77.64 64.6479 77.1 64.8479 76.57C65.0579 76.03 65.1629 75.42 65.1629 74.74V73.915H66.3029V74.8C66.3029 75.73 66.1329 76.57 65.7929 77.32L65.8529 77.35L66.1079 77.14C66.2179 77.05 66.3279 77.005 66.4379 77.005C66.5479 77.005 66.6479 77.05 66.7379 77.14L69.6029 79.795L68.7779 80.59L65.8829 77.8C65.8229 77.74 65.7579 77.71 65.6879 77.71ZM73.0079 84.34C73.0079 84.89 72.8479 85.38 72.5279 85.81C72.2179 86.25 71.7479 86.595 71.1179 86.845C70.4879 87.095 69.7179 87.22 68.8079 87.22C67.8979 87.22 67.1229 87.095 66.4829 86.845C65.8529 86.595 65.3779 86.25 65.0579 85.81C64.7479 85.38 64.5929 84.89 64.5929 84.34C64.5929 83.79 64.7479 83.3 65.0579 82.87C65.3779 82.43 65.8529 82.085 66.4829 81.835C67.1229 81.585 67.8979 81.46 68.8079 81.46C69.7179 81.46 70.4879 81.585 71.1179 81.835C71.7479 82.085 72.2179 82.43 72.5279 82.87C72.8479 83.3 73.0079 83.79 73.0079 84.34ZM71.7929 84.22C71.7929 83.7 71.5429 83.265 71.0429 82.915C70.5529 82.565 69.8079 82.39 68.8079 82.39C67.8079 82.39 67.0579 82.57 66.5579 82.93C66.0579 83.28 65.8079 83.71 65.8079 84.22V84.475C65.8079 84.985 66.0579 85.415 66.5579 85.765C67.0579 86.125 67.8079 86.305 68.8079 86.305C69.8079 86.305 70.5529 86.125 71.0429 85.765C71.5429 85.415 71.7929 84.985 71.7929 84.475V84.22ZM86.307 80.29H85.152V73.465H86.307V80.29ZM79.122 77.485C79.052 77.485 78.992 77.515 78.942 77.575C78.682 77.995 78.337 78.425 77.907 78.865C77.477 79.295 76.892 79.83 76.152 80.47L75.312 79.72C76.172 79 76.832 78.385 77.292 77.875C77.752 77.355 78.082 76.84 78.282 76.33C78.492 75.82 78.597 75.245 78.597 74.605V73.84H79.752V74.68C79.752 75.58 79.577 76.38 79.227 77.08L79.302 77.11L79.542 76.9C79.662 76.81 79.772 76.765 79.872 76.765C79.982 76.765 80.087 76.81 80.187 76.9L83.067 79.405L82.257 80.215L79.332 77.575C79.272 77.515 79.202 77.485 79.122 77.485ZM86.667 86.125V87.1H78.702C78.462 87.1 78.277 87.035 78.147 86.905C78.017 86.775 77.952 86.585 77.952 86.335V83.62H85.152V82.075H77.862V81.115H86.307V84.58H79.107V86.125H86.667ZM101.076 79.795H98.961V86.515H97.821V73.495H98.961V78.835H101.076V79.795ZM94.626 75.175H90.366V74.2H94.626V75.175ZM88.371 76.975H96.396V77.905H94.176V77.995C95.086 78.445 95.541 79.31 95.541 80.59C95.541 81.24 95.406 81.805 95.136 82.285C94.866 82.755 94.491 83.115 94.011 83.365C93.541 83.615 93.016 83.74 92.436 83.74C91.856 83.74 91.326 83.615 90.846 83.365C90.376 83.115 90.006 82.755 89.736 82.285C89.466 81.805 89.331 81.24 89.331 80.59C89.331 79.31 89.786 78.445 90.696 77.995V77.905H88.371V76.975ZM94.431 80.095C94.431 79.425 94.251 78.915 93.891 78.565C93.531 78.205 93.046 78.025 92.436 78.025C91.836 78.025 91.351 78.205 90.981 78.565C90.621 78.925 90.441 79.435 90.441 80.095V80.71C90.441 81.36 90.626 81.87 90.996 82.24C91.366 82.6 91.846 82.78 92.436 82.78C93.026 82.78 93.506 82.6 93.876 82.24C94.246 81.87 94.431 81.36 94.431 80.71V80.095ZM114.45 79.555H112.29V86.515H111.15V73.495H112.29V78.595H114.45V79.555ZM109.575 81.685L109.725 82.6C108.195 82.91 106.285 83.065 103.995 83.065H102.405V74.53H108.39V75.49H103.545V82.12H103.98C106.18 82.12 108.045 81.975 109.575 81.685ZM116.664 85.18C116.344 85.18 116.109 85.1 115.959 84.94C115.819 84.78 115.749 84.57 115.749 84.31V84.115C115.749 83.855 115.819 83.645 115.959 83.485C116.109 83.325 116.344 83.245 116.664 83.245C116.984 83.245 117.214 83.325 117.354 83.485C117.504 83.645 117.579 83.855 117.579 84.115V84.31C117.579 84.57 117.504 84.78 117.354 84.94C117.214 85.1 116.984 85.18 116.664 85.18ZM134.061 73.465V80.98H132.906V73.465H134.061ZM129.846 74.125V80.095H123.591V74.125H129.846ZM128.706 75.055H124.746V79.15H128.706V75.055ZM125.841 86.245V81.82H134.121V82.78H127.011V86.035H134.256V87.01H126.591C126.351 87.01 126.166 86.945 126.036 86.815C125.906 86.685 125.841 86.495 125.841 86.245ZM137.805 76.15C137.805 75.36 138.18 74.725 138.93 74.245C139.69 73.755 140.82 73.51 142.32 73.51C143.82 73.51 144.945 73.755 145.695 74.245C146.455 74.725 146.835 75.36 146.835 76.15C146.835 76.94 146.455 77.58 145.695 78.07C144.945 78.55 143.82 78.79 142.32 78.79C140.82 78.79 139.69 78.55 138.93 78.07C138.18 77.58 137.805 76.94 137.805 76.15ZM145.62 76.255V76.045C145.62 75.565 145.345 75.17 144.795 74.86C144.255 74.55 143.43 74.395 142.32 74.395C141.21 74.395 140.38 74.55 139.83 74.86C139.29 75.17 139.02 75.565 139.02 76.045V76.255C139.02 76.725 139.295 77.115 139.845 77.425C140.395 77.735 141.22 77.89 142.32 77.89C143.42 77.89 144.245 77.735 144.795 77.425C145.345 77.115 145.62 76.725 145.62 76.255ZM148.44 79.915V80.89H136.2V79.915H148.44ZM138.015 86.23V82.3H146.625V86.995H138.765C138.525 86.995 138.34 86.93 138.21 86.8C138.08 86.67 138.015 86.48 138.015 86.23ZM145.5 83.23H139.14V86.05H145.5V83.23ZM160.809 73.465V81.355H159.654V73.465H160.809ZM150.819 80.995L149.979 80.275C150.829 79.595 151.484 79.01 151.944 78.52C152.414 78.03 152.754 77.545 152.964 77.065C153.174 76.585 153.279 76.04 153.279 75.43V75.28H150.399V74.32H157.314V75.28H154.419V75.475C154.419 76.325 154.244 77.08 153.894 77.74L153.984 77.8L154.224 77.62C154.334 77.53 154.444 77.485 154.554 77.485C154.664 77.485 154.779 77.53 154.899 77.62L157.749 80.02L156.894 80.77L154.014 78.25C153.944 78.19 153.864 78.16 153.774 78.16C153.694 78.16 153.624 78.19 153.564 78.25C153.294 78.65 152.944 79.065 152.514 79.495C152.084 79.915 151.519 80.415 150.819 80.995ZM152.229 82.165H160.809V87.145H159.684V83.125H152.229V82.165ZM175.578 79.795H173.463V86.515H172.323V73.495H173.463V78.835H175.578V79.795ZM169.128 75.175H164.868V74.2H169.128V75.175ZM162.873 76.975H170.898V77.905H168.678V77.995C169.588 78.445 170.043 79.31 170.043 80.59C170.043 81.24 169.908 81.805 169.638 82.285C169.368 82.755 168.993 83.115 168.513 83.365C168.043 83.615 167.518 83.74 166.938 83.74C166.358 83.74 165.828 83.615 165.348 83.365C164.878 83.115 164.508 82.755 164.238 82.285C163.968 81.805 163.833 81.24 163.833 80.59C163.833 79.31 164.288 78.445 165.198 77.995V77.905H162.873V76.975ZM168.933 80.095C168.933 79.425 168.753 78.915 168.393 78.565C168.033 78.205 167.548 78.025 166.938 78.025C166.338 78.025 165.853 78.205 165.483 78.565C165.123 78.925 164.943 79.435 164.943 80.095V80.71C164.943 81.36 165.128 81.87 165.498 82.24C165.868 82.6 166.348 82.78 166.938 82.78C167.528 82.78 168.008 82.6 168.378 82.24C168.748 81.87 168.933 81.36 168.933 80.71V80.095ZM188.952 79.555H186.792V86.515H185.652V73.495H186.792V78.595H188.952V79.555ZM184.077 81.685L184.227 82.6C182.697 82.91 180.787 83.065 178.497 83.065H176.907V74.53H182.892V75.49H178.047V82.12H178.482C180.682 82.12 182.547 81.975 184.077 81.685ZM191.166 85.18C190.846 85.18 190.611 85.1 190.461 84.94C190.321 84.78 190.251 84.57 190.251 84.31V84.115C190.251 83.855 190.321 83.645 190.461 83.485C190.611 83.325 190.846 83.245 191.166 83.245C191.486 83.245 191.716 83.325 191.856 83.485C192.006 83.645 192.081 83.855 192.081 84.115V84.31C192.081 84.57 192.006 84.78 191.856 84.94C191.716 85.1 191.486 85.18 191.166 85.18ZM209.568 84.04V85H197.328V84.04H202.878V80.575H199.098V74.35H207.843V75.325H200.238V79.6H207.978V80.575H204.018V84.04H209.568ZM220.797 77.005V73.465H221.937V83.35H220.797V77.965H218.067V77.005H220.797ZM214.797 78.415C214.727 78.415 214.662 78.445 214.602 78.505C214.332 78.925 213.987 79.36 213.567 79.81C213.147 80.25 212.587 80.79 211.887 81.43L211.032 80.695C211.872 79.975 212.522 79.355 212.982 78.835C213.442 78.305 213.772 77.785 213.972 77.275C214.182 76.755 214.287 76.175 214.287 75.535V75.385H211.422V74.44H218.262V75.385H215.427V75.595C215.427 76.485 215.252 77.28 214.902 77.98L214.992 78.025L215.217 77.845C215.327 77.765 215.432 77.725 215.532 77.725C215.652 77.725 215.772 77.775 215.892 77.875L218.697 80.425L217.857 81.16L215.022 78.505C214.962 78.445 214.887 78.415 214.797 78.415ZM222.207 85.825V86.77H214.347C214.107 86.77 213.922 86.705 213.792 86.575C213.662 86.445 213.597 86.255 213.597 86.005V82.45H214.752V85.825H222.207ZM225.696 75.865C225.696 75.135 226.071 74.555 226.821 74.125C227.571 73.685 228.696 73.465 230.196 73.465C231.696 73.465 232.821 73.685 233.571 74.125C234.321 74.555 234.696 75.135 234.696 75.865C234.696 76.595 234.321 77.18 233.571 77.62C232.821 78.06 231.696 78.28 230.196 78.28C228.696 78.28 227.571 78.06 226.821 77.62C226.071 77.18 225.696 76.595 225.696 75.865ZM233.481 75.94V75.775C233.481 75.345 233.206 74.995 232.656 74.725C232.116 74.445 231.296 74.305 230.196 74.305C229.096 74.305 228.271 74.445 227.721 74.725C227.181 74.995 226.911 75.345 226.911 75.775V75.94C226.911 76.37 227.181 76.725 227.721 77.005C228.271 77.275 229.096 77.41 230.196 77.41C231.296 77.41 232.116 77.275 232.656 77.005C233.206 76.725 233.481 76.37 233.481 75.94ZM236.316 79.315V80.275H224.076V79.315H236.316ZM225.981 86.335V83.875H233.376V82.465H225.891V81.535H234.471V84.745H227.076V86.17H234.861V87.1H226.731C226.491 87.1 226.306 87.035 226.176 86.905C226.046 86.775 225.981 86.585 225.981 86.335ZM251.525 79.345H242.825V73.945H251.405V74.92H243.98V78.37H251.525V79.345ZM253.235 82.135H247.685V87.01H246.545V82.135H240.995V81.16H253.235V82.135ZM265.559 73.465V86.485H264.434V80.65H261.689V79.72H264.434V77.44H261.689V76.495H264.434V73.465H265.559ZM262.034 82.09L262.184 83.005C260.664 83.305 258.834 83.455 256.694 83.455H255.164V78.34H259.649V75.4H255.119V74.44H260.774V79.27H256.289V82.51H256.754C258.794 82.51 260.554 82.37 262.034 82.09ZM278.993 73.465V86.485H277.868V83.44H274.613V82.51H277.868V73.465H278.993ZM268.493 76.525C268.493 75.985 268.643 75.51 268.943 75.1C269.253 74.69 269.678 74.375 270.218 74.155C270.758 73.935 271.368 73.825 272.048 73.825C272.728 73.825 273.333 73.935 273.863 74.155C274.403 74.375 274.823 74.69 275.123 75.1C275.433 75.51 275.588 75.985 275.588 76.525C275.588 77.075 275.433 77.555 275.123 77.965C274.823 78.365 274.403 78.675 273.863 78.895C273.333 79.115 272.728 79.225 272.048 79.225C271.358 79.225 270.743 79.115 270.203 78.895C269.673 78.675 269.253 78.365 268.943 77.965C268.643 77.555 268.493 77.075 268.493 76.525ZM269.678 76.66C269.678 77.16 269.898 77.565 270.338 77.875C270.778 78.175 271.348 78.325 272.048 78.325C272.748 78.325 273.318 78.175 273.758 77.875C274.198 77.565 274.418 77.16 274.418 76.66V76.39C274.418 75.89 274.198 75.49 273.758 75.19C273.318 74.88 272.748 74.725 272.048 74.725C271.348 74.725 270.778 74.88 270.338 75.19C269.898 75.49 269.678 75.89 269.678 76.39V76.66ZM272.648 81.4V86.365H271.523V81.46C270.173 81.51 268.943 81.535 267.833 81.535L267.728 80.575C269.428 80.575 271.068 80.535 272.648 80.455C274.228 80.375 275.568 80.25 276.668 80.08L276.788 80.995C275.648 81.175 274.268 81.31 272.648 81.4ZM13.2 102.795H11.085V109.515H9.945V96.495H11.085V101.835H13.2V102.795ZM6.75 98.175H2.49V97.2H6.75V98.175ZM0.495 99.975H8.52V100.905H6.3V100.995C7.21 101.445 7.665 102.31 7.665 103.59C7.665 104.24 7.53 104.805 7.26 105.285C6.99 105.755 6.615 106.115 6.135 106.365C5.665 106.615 5.14 106.74 4.56 106.74C3.98 106.74 3.45 106.615 2.97 106.365C2.5 106.115 2.13 105.755 1.86 105.285C1.59 104.805 1.455 104.24 1.455 103.59C1.455 102.31 1.91 101.445 2.82 100.995V100.905H0.495V99.975ZM6.555 103.095C6.555 102.425 6.375 101.915 6.015 101.565C5.655 101.205 5.17 101.025 4.56 101.025C3.96 101.025 3.475 101.205 3.105 101.565C2.745 101.925 2.565 102.435 2.565 103.095V103.71C2.565 104.36 2.75 104.87 3.12 105.24C3.49 105.6 3.97 105.78 4.56 105.78C5.15 105.78 5.63 105.6 6 105.24C6.37 104.87 6.555 104.36 6.555 103.71V103.095ZM25.104 96.465V109.485H23.964V96.465H25.104ZM18.834 101.97C18.974 101.97 19.089 102.025 19.179 102.135L22.119 105.585L21.264 106.32L18.294 102.75C18.244 102.69 18.184 102.66 18.114 102.66C18.054 102.66 17.999 102.69 17.949 102.75C17.679 103.3 17.324 103.86 16.884 104.43C16.444 105 15.844 105.7 15.084 106.53L14.229 105.81C15.099 104.9 15.769 104.11 16.239 103.44C16.719 102.77 17.064 102.105 17.274 101.445C17.484 100.775 17.589 100.015 17.589 99.165V98.595H14.634V97.635H21.669V98.595H18.729V99.21C18.729 100.34 18.554 101.345 18.204 102.225L18.279 102.27L18.504 102.09C18.614 102.01 18.724 101.97 18.834 101.97ZM43.508 99.42V100.38H41.423V103.245H40.283V96.465H41.423V99.42H43.508ZM34.388 103.245C33.728 103.245 33.138 103.115 32.618 102.855C32.108 102.595 31.708 102.225 31.418 101.745C31.128 101.255 30.983 100.69 30.983 100.05C30.983 99.41 31.128 98.85 31.418 98.37C31.708 97.89 32.108 97.52 32.618 97.26C33.138 97 33.728 96.87 34.388 96.87C35.038 96.87 35.618 97 36.128 97.26C36.648 97.52 37.053 97.89 37.343 98.37C37.633 98.85 37.778 99.41 37.778 100.05C37.778 100.69 37.633 101.255 37.343 101.745C37.053 102.225 36.648 102.595 36.128 102.855C35.618 103.115 35.038 103.245 34.388 103.245ZM34.388 102.33C35.038 102.33 35.568 102.145 35.978 101.775C36.388 101.405 36.593 100.915 36.593 100.305V99.81C36.593 99.2 36.388 98.715 35.978 98.355C35.568 97.985 35.038 97.8 34.388 97.8C33.728 97.8 33.193 97.985 32.783 98.355C32.373 98.715 32.168 99.2 32.168 99.81V100.305C32.168 100.915 32.373 101.405 32.783 101.775C33.193 102.145 33.728 102.33 34.388 102.33ZM37.763 104.91V103.995H40.928V104.91H37.763ZM36.128 108.3L36.413 109.245C36.023 109.415 35.558 109.555 35.018 109.665C34.478 109.785 33.913 109.845 33.323 109.845H33.053C32.813 109.845 32.628 109.78 32.498 109.65C32.368 109.52 32.303 109.33 32.303 109.08V104.505H33.368V108.825H33.563C34.033 108.825 34.493 108.77 34.943 108.66C35.403 108.56 35.798 108.44 36.128 108.3ZM36.158 106.095H42.533V106.95H40.823V107.04C41.143 107.19 41.383 107.39 41.543 107.64C41.703 107.89 41.783 108.175 41.783 108.495C41.783 109.015 41.563 109.45 41.123 109.8C40.683 110.16 40.093 110.34 39.353 110.34C38.603 110.34 38.008 110.16 37.568 109.8C37.128 109.45 36.908 109.015 36.908 108.495C36.908 108.165 36.988 107.875 37.148 107.625C37.308 107.375 37.553 107.175 37.883 107.025V106.95H36.158V106.095ZM40.823 108.24C40.823 107.86 40.693 107.56 40.433 107.34C40.183 107.12 39.853 107.01 39.443 107.01H39.248C38.838 107.01 38.503 107.12 38.243 107.34C37.993 107.56 37.868 107.86 37.868 108.24C37.868 108.62 37.993 108.92 38.243 109.14C38.503 109.36 38.838 109.47 39.248 109.47H39.443C39.853 109.47 40.183 109.36 40.433 109.14C40.693 108.92 40.823 108.62 40.823 108.24ZM54.737 101.655H46.112V96.945H47.237V100.71H54.737V101.655ZM56.477 103.32V104.295H44.237V103.32H56.477ZM47.132 108.795H54.902V109.755H46.742C46.502 109.755 46.317 109.69 46.187 109.56C46.057 109.43 45.992 109.24 45.992 108.99V105.705H47.132V108.795ZM70.241 102.555H68.081V109.515H66.941V96.495H68.081V101.595H70.241V102.555ZM65.366 104.685L65.516 105.6C63.986 105.91 62.076 106.065 59.786 106.065H58.196V97.53H64.181V98.49H59.336V105.12H59.771C61.971 105.12 63.836 104.975 65.366 104.685ZM72.455 108.18C72.135 108.18 71.9 108.1 71.75 107.94C71.61 107.78 71.54 107.57 71.54 107.31V107.115C71.54 106.855 71.61 106.645 71.75 106.485C71.9 106.325 72.135 106.245 72.455 106.245C72.775 106.245 73.005 106.325 73.145 106.485C73.295 106.645 73.37 106.855 73.37 107.115V107.31C73.37 107.57 73.295 107.78 73.145 107.94C73.005 108.1 72.775 108.18 72.455 108.18ZM85.3069 102.93V104.565H89.0119V107.79H81.6169V109.2H89.4019V110.145H81.2719C81.0319 110.145 80.8469 110.08 80.7169 109.95C80.5869 109.82 80.5219 109.63 80.5219 109.38V106.905H87.9169V105.495H80.4319V104.565H84.1819V102.93H78.6169V102H87.5269C87.6669 101.35 87.7719 100.715 87.8419 100.095L79.9819 100.395L79.8619 99.51L87.9169 99.27C87.9469 98.77 87.9619 98.245 87.9619 97.695H80.3119V96.795H89.0869V97.8C89.0869 99.27 88.9419 100.67 88.6519 102H90.8569V102.93H85.3069ZM104.621 102.795H102.506V109.515H101.366V96.495H102.506V101.835H104.621V102.795ZM98.1709 98.175H93.9109V97.2H98.1709V98.175ZM91.9159 99.975H99.9409V100.905H97.7209V100.995C98.6309 101.445 99.0859 102.31 99.0859 103.59C99.0859 104.24 98.9509 104.805 98.6809 105.285C98.4109 105.755 98.0359 106.115 97.5559 106.365C97.0859 106.615 96.5609 106.74 95.9809 106.74C95.4009 106.74 94.8709 106.615 94.3909 106.365C93.9209 106.115 93.5509 105.755 93.2809 105.285C93.0109 104.805 92.8759 104.24 92.8759 103.59C92.8759 102.31 93.3309 101.445 94.2409 100.995V100.905H91.9159V99.975ZM97.9759 103.095C97.9759 102.425 97.7959 101.915 97.4359 101.565C97.0759 101.205 96.5909 101.025 95.9809 101.025C95.3809 101.025 94.8959 101.205 94.5259 101.565C94.1659 101.925 93.9859 102.435 93.9859 103.095V103.71C93.9859 104.36 94.1709 104.87 94.5409 105.24C94.9109 105.6 95.3909 105.78 95.9809 105.78C96.5709 105.78 97.0509 105.6 97.4209 105.24C97.7909 104.87 97.9759 104.36 97.9759 103.71V103.095ZM117.995 102.555H115.835V109.515H114.695V96.495H115.835V101.595H117.995V102.555ZM113.12 104.685L113.27 105.6C111.74 105.91 109.83 106.065 107.54 106.065H105.95V97.53H111.935V98.49H107.09V105.12H107.525C109.725 105.12 111.59 104.975 113.12 104.685ZM120.209 108.18C119.889 108.18 119.654 108.1 119.504 107.94C119.364 107.78 119.294 107.57 119.294 107.31V107.115C119.294 106.855 119.364 106.645 119.504 106.485C119.654 106.325 119.889 106.245 120.209 106.245C120.529 106.245 120.759 106.325 120.899 106.485C121.049 106.645 121.124 106.855 121.124 107.115V107.31C121.124 107.57 121.049 107.78 120.899 107.94C120.759 108.1 120.529 108.18 120.209 108.18ZM136.391 96.465H137.531V109.485H136.391V96.465ZM127.136 97.5H133.391V105.855H127.136V97.5ZM132.266 104.91V98.445H128.246V104.91H132.266ZM151.31 96.465V109.485H150.2V102.495H148.13V109.125H147.035V96.69H148.13V101.55H150.2V96.465H151.31ZM145.94 104.925L146.09 105.825C144.92 106.125 143.415 106.275 141.575 106.275H140.345V101.4H144.08V98.67H140.3V97.725H145.175V102.33H141.44V105.345H141.86C143.43 105.345 144.79 105.205 145.94 104.925ZM164.684 96.465V109.485H163.589V96.465H164.684ZM160.634 96.69H161.699V109.125H160.634V102.3H159.194C159.144 103.6 158.854 104.58 158.324 105.24C157.794 105.89 157.094 106.215 156.224 106.215C155.294 106.215 154.559 105.855 154.019 105.135C153.479 104.405 153.209 103.32 153.209 101.88C153.209 100.44 153.479 99.36 154.019 98.64C154.559 97.91 155.294 97.545 156.224 97.545C157.084 97.545 157.774 97.865 158.294 98.505C158.824 99.145 159.124 100.095 159.194 101.355H160.634V96.69ZM158.054 101.16C158.054 100.28 157.884 99.61 157.544 99.15C157.214 98.69 156.774 98.46 156.224 98.46C155.664 98.46 155.214 98.69 154.874 99.15C154.544 99.61 154.379 100.28 154.379 101.16V102.615C154.379 103.485 154.544 104.155 154.874 104.625C155.214 105.085 155.664 105.315 156.224 105.315C156.774 105.315 157.214 105.085 157.544 104.625C157.884 104.155 158.054 103.485 158.054 102.615V101.16ZM181.603 96.465V109.485H180.493V102.495H178.438V109.125H177.343V96.69H178.438V101.55H180.493V96.465H181.603ZM176.203 104.7L176.353 105.6C175.143 105.91 173.648 106.065 171.868 106.065H170.638V97.8H175.483V98.76H171.733V105.12H172.138C173.778 105.12 175.133 104.98 176.203 104.7ZM196.057 100.92V101.88H193.972V106.5H192.832V96.465H193.972V100.92H196.057ZM189.397 97.83H185.392V96.87H189.397V97.83ZM187.297 104.94C186.677 104.94 186.132 104.835 185.662 104.625C185.192 104.415 184.827 104.125 184.567 103.755C184.317 103.385 184.192 102.965 184.192 102.495C184.192 102.025 184.302 101.615 184.522 101.265C184.752 100.905 185.092 100.63 185.542 100.44V100.365H183.202V99.42H191.332V100.365H189.052V100.44C189.502 100.63 189.837 100.905 190.057 101.265C190.287 101.615 190.402 102.025 190.402 102.495C190.402 102.965 190.272 103.385 190.012 103.755C189.762 104.125 189.402 104.415 188.932 104.625C188.462 104.835 187.917 104.94 187.297 104.94ZM187.177 103.98H187.432C187.992 103.98 188.447 103.83 188.797 103.53C189.157 103.22 189.337 102.79 189.337 102.24C189.337 101.69 189.162 101.26 188.812 100.95C188.462 100.64 188.002 100.485 187.432 100.485H187.177C186.607 100.485 186.147 100.64 185.797 100.95C185.447 101.25 185.272 101.68 185.272 102.24C185.272 102.79 185.447 103.22 185.797 103.53C186.157 103.83 186.617 103.98 187.177 103.98ZM186.937 108.9H194.272V109.845H186.547C186.307 109.845 186.122 109.78 185.992 109.65C185.862 109.52 185.797 109.33 185.797 109.08V106.08H186.937V108.9ZM211.566 96.465V104.28H210.426V100.965H207.516V100.005H210.426V96.465H211.566ZM201.456 104.16L200.841 103.29C202.181 102.76 203.201 102.285 203.901 101.865C204.601 101.435 205.091 100.99 205.371 100.53C205.661 100.06 205.806 99.49 205.806 98.82V98.22H201.216V97.26H206.961V98.7C206.961 99.58 206.796 100.315 206.466 100.905C206.146 101.495 205.596 102.04 204.816 102.54C204.046 103.03 202.926 103.57 201.456 104.16ZM202.971 105.09H211.566V110.145H210.441V106.05H202.971V105.09ZM223.8 99.69V96.465H224.94V104.295H223.8V100.62H221.07V99.69H223.8ZM214.89 103.845L214.035 103.125C214.875 102.465 215.525 101.895 215.985 101.415C216.445 100.925 216.775 100.445 216.975 99.975C217.185 99.495 217.29 98.96 217.29 98.37V98.22H214.425V97.26H221.265V98.22H218.43V98.415C218.43 99.265 218.255 100.01 217.905 100.65L217.995 100.695L218.235 100.515C218.345 100.435 218.455 100.395 218.565 100.395C218.695 100.395 218.81 100.44 218.91 100.53L221.7 102.87L220.86 103.62L218.025 101.16C217.945 101.1 217.87 101.07 217.8 101.07C217.72 101.07 217.65 101.1 217.59 101.16C217.32 101.55 216.975 101.95 216.555 102.36C216.135 102.77 215.58 103.265 214.89 103.845ZM225.015 107.4C225.015 107.94 224.855 108.42 224.535 108.84C224.225 109.27 223.75 109.605 223.11 109.845C222.48 110.095 221.71 110.22 220.8 110.22C219.88 110.22 219.1 110.095 218.46 109.845C217.83 109.605 217.355 109.27 217.035 108.84C216.725 108.42 216.57 107.94 216.57 107.4C216.57 106.86 216.725 106.38 217.035 105.96C217.355 105.53 217.83 105.195 218.46 104.955C219.1 104.705 219.88 104.58 220.8 104.58C221.71 104.58 222.48 104.705 223.11 104.955C223.75 105.195 224.225 105.53 224.535 105.96C224.855 106.38 225.015 106.86 225.015 107.4ZM223.815 107.28C223.815 106.77 223.565 106.345 223.065 106.005C222.565 105.655 221.81 105.48 220.8 105.48C219.78 105.48 219.015 105.655 218.505 106.005C218.005 106.345 217.755 106.77 217.755 107.28V107.535C217.755 108.035 218.005 108.455 218.505 108.795C219.015 109.145 219.78 109.32 220.8 109.32C221.81 109.32 222.565 109.145 223.065 108.795C223.565 108.455 223.815 108.035 223.815 107.535V107.28ZM237.099 96.465H238.239V109.485H237.099V96.465ZM227.469 101.73C227.469 100.27 227.789 99.165 228.429 98.415C229.079 97.665 229.934 97.29 230.994 97.29C232.044 97.29 232.889 97.665 233.529 98.415C234.179 99.165 234.504 100.27 234.504 101.73C234.504 102.71 234.354 103.535 234.054 104.205C233.754 104.865 233.339 105.36 232.809 105.69C232.279 106.01 231.674 106.17 230.994 106.17C229.934 106.17 229.079 105.795 228.429 105.045C227.789 104.295 227.469 103.19 227.469 101.73ZM233.289 102.315V101.145C233.289 100.215 233.074 99.5 232.644 99C232.224 98.5 231.674 98.25 230.994 98.25C230.304 98.25 229.744 98.5 229.314 99C228.894 99.49 228.684 100.205 228.684 101.145V102.315C228.684 103.255 228.894 103.975 229.314 104.475C229.744 104.965 230.304 105.21 230.994 105.21C231.674 105.21 232.224 104.96 232.644 104.46C233.074 103.96 233.289 103.245 233.289 102.315ZM256.643 99.42V100.38H254.558V103.245H253.418V96.465H254.558V99.42H256.643ZM250.598 102.945H244.448V97.095H250.598V102.945ZM249.473 98.025H245.573V102.015H249.473V98.025ZM254.063 104.91H250.913V103.995H254.063V104.91ZM249.263 108.3L249.548 109.245C249.158 109.415 248.693 109.555 248.153 109.665C247.613 109.785 247.048 109.845 246.458 109.845H246.188C245.948 109.845 245.763 109.78 245.633 109.65C245.503 109.52 245.438 109.33 245.438 109.08V104.505H246.503V108.825H246.698C247.168 108.825 247.628 108.77 248.078 108.66C248.538 108.56 248.933 108.44 249.263 108.3ZM249.293 106.095H255.668V106.95H253.958V107.04C254.278 107.19 254.518 107.39 254.678 107.64C254.838 107.89 254.918 108.175 254.918 108.495C254.918 109.015 254.698 109.45 254.258 109.8C253.818 110.16 253.228 110.34 252.488 110.34C251.738 110.34 251.143 110.16 250.703 109.8C250.263 109.45 250.043 109.015 250.043 108.495C250.043 108.165 250.123 107.875 250.283 107.625C250.443 107.375 250.688 107.175 251.018 107.025V106.95H249.293V106.095ZM253.958 108.24C253.958 107.86 253.828 107.56 253.568 107.34C253.318 107.12 252.988 107.01 252.578 107.01H252.383C251.973 107.01 251.638 107.12 251.378 107.34C251.128 107.56 251.003 107.86 251.003 108.24C251.003 108.62 251.128 108.92 251.378 109.14C251.638 109.36 251.973 109.47 252.383 109.47H252.578C252.988 109.47 253.318 109.36 253.568 109.14C253.828 108.92 253.958 108.62 253.958 108.24ZM270.002 102.555H267.842V109.515H266.702V96.495H267.842V101.595H270.002V102.555ZM265.127 104.685L265.277 105.6C263.747 105.91 261.837 106.065 259.547 106.065H257.957V97.53H263.942V98.49H259.097V105.12H259.532C261.732 105.12 263.597 104.975 265.127 104.685ZM272.216 108.18C271.896 108.18 271.661 108.1 271.511 107.94C271.371 107.78 271.301 107.57 271.301 107.31V107.115C271.301 106.855 271.371 106.645 271.511 106.485C271.661 106.325 271.896 106.245 272.216 106.245C272.536 106.245 272.766 106.325 272.906 106.485C273.056 106.645 273.131 106.855 273.131 107.115V107.31C273.131 107.57 273.056 107.78 272.906 107.94C272.766 108.1 272.536 108.18 272.216 108.18ZM13.2 125.555H11.04V132.515H9.9V119.495H11.04V124.595H13.2V125.555ZM8.415 127.91L8.565 128.825C7.045 129.125 5.115 129.275 2.775 129.275H1.185V120.455H7.215V121.4H2.31V124.295H7.02V125.225H2.31V128.345H2.805C4.995 128.345 6.865 128.2 8.415 127.91ZM25.179 119.465V129.35H24.024V119.465H25.179ZM14.379 123.515C14.379 122.815 14.524 122.205 14.814 121.685C15.114 121.165 15.524 120.77 16.044 120.5C16.564 120.22 17.159 120.08 17.829 120.08C18.489 120.08 19.079 120.22 19.599 120.5C20.129 120.77 20.539 121.165 20.829 121.685C21.129 122.205 21.279 122.815 21.279 123.515C21.279 124.205 21.129 124.81 20.829 125.33C20.539 125.85 20.129 126.25 19.599 126.53C19.079 126.8 18.489 126.935 17.829 126.935C17.159 126.935 16.564 126.8 16.044 126.53C15.524 126.25 15.114 125.855 14.814 125.345C14.524 124.825 14.379 124.215 14.379 123.515ZM20.064 123.83V123.2C20.064 122.54 19.854 122.015 19.434 121.625C19.024 121.225 18.489 121.025 17.829 121.025C17.159 121.025 16.614 121.225 16.194 121.625C15.784 122.025 15.579 122.55 15.579 123.2V123.83C15.579 124.48 15.789 125.005 16.209 125.405C16.629 125.795 17.169 125.99 17.829 125.99C18.489 125.99 19.024 125.795 19.434 125.405C19.854 125.005 20.064 124.48 20.064 123.83ZM16.839 132.005V128.27H17.994V131.825H25.449V132.77H17.589C17.349 132.77 17.164 132.705 17.034 132.575C16.904 132.445 16.839 132.255 16.839 132.005ZM37.368 119.465H38.493V132.485H37.368V119.465ZM28.008 123.365C28.008 122.745 28.163 122.2 28.473 121.73C28.783 121.25 29.208 120.885 29.748 120.635C30.288 120.375 30.898 120.245 31.578 120.245C32.258 120.245 32.868 120.375 33.408 120.635C33.948 120.885 34.373 121.25 34.683 121.73C34.993 122.2 35.148 122.745 35.148 123.365C35.148 123.985 34.993 124.53 34.683 125C34.373 125.47 33.948 125.835 33.408 126.095C32.868 126.345 32.258 126.47 31.578 126.47C30.898 126.47 30.288 126.345 29.748 126.095C29.208 125.835 28.783 125.47 28.473 125C28.163 124.53 28.008 123.985 28.008 123.365ZM33.948 123.545V123.185C33.948 122.585 33.728 122.1 33.288 121.73C32.848 121.36 32.278 121.175 31.578 121.175C30.878 121.175 30.308 121.36 29.868 121.73C29.428 122.1 29.208 122.585 29.208 123.185V123.545C29.208 124.145 29.428 124.63 29.868 125C30.308 125.37 30.878 125.555 31.578 125.555C32.278 125.555 32.848 125.37 33.288 125C33.728 124.63 33.948 124.145 33.948 123.545ZM27.378 128.78C29.078 128.78 30.718 128.74 32.298 128.66C33.878 128.58 35.218 128.455 36.318 128.285L36.438 129.2C35.308 129.38 33.948 129.52 32.358 129.62C30.778 129.71 29.153 129.755 27.483 129.755L27.378 128.78ZM55.472 119.465V126.29H54.317V119.465H55.472ZM44.672 122.9C44.672 122.27 44.817 121.72 45.107 121.25C45.407 120.78 45.817 120.42 46.337 120.17C46.867 119.91 47.462 119.78 48.122 119.78C48.782 119.78 49.372 119.91 49.892 120.17C50.422 120.42 50.832 120.78 51.122 121.25C51.422 121.72 51.572 122.27 51.572 122.9C51.572 123.53 51.422 124.08 51.122 124.55C50.832 125.02 50.422 125.385 49.892 125.645C49.372 125.895 48.782 126.02 48.122 126.02C47.462 126.02 46.867 125.895 46.337 125.645C45.817 125.385 45.407 125.02 45.107 124.55C44.817 124.08 44.672 123.53 44.672 122.9ZM50.357 123.125V122.675C50.357 122.075 50.152 121.6 49.742 121.25C49.332 120.89 48.792 120.71 48.122 120.71C47.452 120.71 46.907 120.89 46.487 121.25C46.077 121.61 45.872 122.085 45.872 122.675V123.125C45.872 123.715 46.082 124.19 46.502 124.55C46.922 124.91 47.462 125.09 48.122 125.09C48.782 125.09 49.317 124.91 49.727 124.55C50.147 124.19 50.357 123.715 50.357 123.125ZM47.117 132.335V129.62H54.317V128.075H47.027V127.115H55.472V130.58H48.272V132.125H55.832V133.1H47.867C47.627 133.1 47.442 133.035 47.312 132.905C47.182 132.775 47.117 132.585 47.117 132.335ZM69.176 119.465V132.485H68.081V119.465H69.176ZM65.126 119.69H66.191V132.125H65.126V125.3H63.686C63.636 126.6 63.346 127.58 62.816 128.24C62.286 128.89 61.586 129.215 60.716 129.215C59.786 129.215 59.051 128.855 58.511 128.135C57.971 127.405 57.701 126.32 57.701 124.88C57.701 123.44 57.971 122.36 58.511 121.64C59.051 120.91 59.786 120.545 60.716 120.545C61.576 120.545 62.266 120.865 62.786 121.505C63.316 122.145 63.616 123.095 63.686 124.355H65.126V119.69ZM62.546 124.16C62.546 123.28 62.376 122.61 62.036 122.15C61.706 121.69 61.266 121.46 60.716 121.46C60.156 121.46 59.706 121.69 59.366 122.15C59.036 122.61 58.871 123.28 58.871 124.16V125.615C58.871 126.485 59.036 127.155 59.366 127.625C59.706 128.085 60.156 128.315 60.716 128.315C61.266 128.315 61.706 128.085 62.036 127.625C62.376 127.155 62.546 126.485 62.546 125.615V124.16ZM87.16 123.86V124.82H85.18V129.47H84.055V119.465H85.18V123.86H87.16ZM80.8 121.31H75.25V120.365H81.91V121.325C81.91 122.595 81.75 123.89 81.43 125.21L80.35 125.045C80.64 123.965 80.79 122.795 80.8 121.535V121.31ZM83.02 126.995C81.91 127.175 80.585 127.315 79.045 127.415C77.505 127.505 75.915 127.55 74.275 127.55L74.17 126.59C75.23 126.59 76.285 126.575 77.335 126.545V123.62H78.445V126.5C80.315 126.42 81.805 126.29 82.915 126.11L83.02 126.995ZM77.965 131.825H85.45V132.77H77.575C77.335 132.77 77.15 132.705 77.02 132.575C76.89 132.445 76.825 132.255 76.825 132.005V128.84H77.965V131.825ZM99.139 119.465V126.98H97.984V119.465H99.139ZM91.969 123.725C91.899 123.725 91.834 123.76 91.774 123.83C91.514 124.26 91.174 124.7 90.754 125.15C90.334 125.59 89.749 126.155 88.999 126.845L88.144 126.11C89.004 125.35 89.664 124.7 90.124 124.16C90.584 123.62 90.914 123.085 91.114 122.555C91.324 122.025 91.429 121.425 91.429 120.755V119.945H92.584V120.83C92.584 121.76 92.409 122.59 92.059 123.32L92.134 123.365L92.374 123.155C92.484 123.065 92.594 123.02 92.704 123.02C92.814 123.02 92.919 123.065 93.019 123.155L95.899 125.78L95.074 126.575L92.164 123.815C92.104 123.755 92.039 123.725 91.969 123.725ZM90.889 127.79H99.139V133.025H91.639C91.399 133.025 91.214 132.96 91.084 132.83C90.954 132.7 90.889 132.51 90.889 132.26V127.79ZM92.029 132.065H97.984V128.735H92.029V132.065ZM111.298 119.465H112.438V132.485H111.298V119.465ZM101.668 124.73C101.668 123.27 101.988 122.165 102.628 121.415C103.278 120.665 104.133 120.29 105.193 120.29C106.243 120.29 107.088 120.665 107.728 121.415C108.378 122.165 108.703 123.27 108.703 124.73C108.703 125.71 108.553 126.535 108.253 127.205C107.953 127.865 107.538 128.36 107.008 128.69C106.478 129.01 105.873 129.17 105.193 129.17C104.133 129.17 103.278 128.795 102.628 128.045C101.988 127.295 101.668 126.19 101.668 124.73ZM107.488 125.315V124.145C107.488 123.215 107.273 122.5 106.843 122C106.423 121.5 105.873 121.25 105.193 121.25C104.503 121.25 103.943 121.5 103.513 122C103.093 122.49 102.883 123.205 102.883 124.145V125.315C102.883 126.255 103.093 126.975 103.513 127.475C103.943 127.965 104.503 128.21 105.193 128.21C105.873 128.21 106.423 127.96 106.843 127.46C107.273 126.96 107.488 126.245 107.488 125.315ZM122.007 126.335C121.357 126.335 120.772 126.205 120.252 125.945C119.732 125.675 119.327 125.295 119.037 124.805C118.747 124.315 118.602 123.745 118.602 123.095C118.602 122.435 118.747 121.86 119.037 121.37C119.327 120.88 119.727 120.505 120.237 120.245C120.757 119.985 121.347 119.855 122.007 119.855C122.917 119.855 123.682 120.1 124.302 120.59C124.922 121.08 125.287 121.745 125.397 122.585H128.292V119.465H129.432V126.695H128.292V123.53H125.397C125.297 124.39 124.937 125.075 124.317 125.585C123.697 126.085 122.927 126.335 122.007 126.335ZM122.007 125.42C122.667 125.42 123.202 125.23 123.612 124.85C124.022 124.47 124.227 123.97 124.227 123.35V122.84C124.227 122.22 124.022 121.72 123.612 121.34C123.202 120.96 122.667 120.77 122.007 120.77C121.347 120.77 120.812 120.96 120.402 121.34C120.002 121.71 119.802 122.21 119.802 122.84V123.35C119.802 123.98 120.002 124.485 120.402 124.865C120.812 125.235 121.347 125.42 122.007 125.42ZM123.912 127.46H124.932V133.025H120.897C120.657 133.025 120.472 132.96 120.342 132.83C120.212 132.7 120.147 132.51 120.147 132.26V127.46H121.167V129.32H123.912V127.46ZM130.782 132.44L130.002 133.13L128.007 130.85C127.947 130.79 127.892 130.76 127.842 130.76C127.792 130.76 127.752 130.775 127.722 130.805C127.522 131.145 127.262 131.505 126.942 131.885C126.632 132.275 126.227 132.74 125.727 133.28L124.962 132.605C125.612 131.915 126.102 131.34 126.432 130.88C126.772 130.42 127.012 129.965 127.152 129.515C127.302 129.065 127.377 128.535 127.377 127.925V127.46H128.412V127.97C128.412 128.87 128.267 129.645 127.977 130.295L128.022 130.34L128.172 130.205C128.282 130.125 128.382 130.085 128.472 130.085C128.572 130.085 128.667 130.13 128.757 130.22L130.782 132.44ZM123.912 130.175H121.167V132.155H123.912V130.175ZM144.201 125.555H142.041V132.515H140.901V119.495H142.041V124.595H144.201V125.555ZM139.326 127.685L139.476 128.6C137.946 128.91 136.036 129.065 133.746 129.065H132.156V120.53H138.141V121.49H133.296V128.12H133.731C135.931 128.12 137.796 127.975 139.326 127.685ZM146.415 131.18C146.095 131.18 145.86 131.1 145.71 130.94C145.57 130.78 145.5 130.57 145.5 130.31V130.115C145.5 129.855 145.57 129.645 145.71 129.485C145.86 129.325 146.095 129.245 146.415 129.245C146.735 129.245 146.965 129.325 147.105 129.485C147.255 129.645 147.33 129.855 147.33 130.115V130.31C147.33 130.57 147.255 130.78 147.105 130.94C146.965 131.1 146.735 131.18 146.415 131.18Z" fill="#1B1C25"/>
</svg>
