<svg width="331" height="96" viewBox="0 0 331 96" fill="none" xmlns="http://www.w3.org/2000/svg">
<path d="M17.12 9.36V11.02H0.72V9.36H7.92V7.46H3.12V0.979999H14.72V7.46H9.94V9.36H17.12ZM5.12 5.84H12.72V2.6H5.12V5.84ZM2.88 12.66H14.7V18.86H12.66V14.34H2.88V12.66ZM34.592 3.3H21.692V1.6H34.592V3.3ZM34.752 10.4H21.532V8.74H24.492L23.872 4.72L25.952 4.5L26.412 8.74H29.872L30.332 4.5L32.412 4.72L31.792 8.74H34.752V10.4ZM36.352 14.42V16.12H19.952V14.42H24.232V11.32H26.212V14.42H30.092V11.32H32.072V14.42H36.352ZM51.0441 3.62V2.32H41.6041V0.84H53.0041V5.06H43.6241V6.36H53.4641V7.84H41.6841V3.62H51.0441ZM55.5841 9.06V10.6H39.1841V9.06H55.5841ZM41.6241 17.62V14.64H51.3241V13.44H41.5241V11.88H53.2041V16.12H43.5041V17.36H53.7041V18.94H42.9241C42.4974 18.94 42.1707 18.8267 41.9441 18.6C41.7307 18.3733 41.6241 18.0467 41.6241 17.62ZM78.7427 4.76V7H81.4627V8.66H78.7427V11.82H76.7427V0.539999H78.7427V3.08H81.4627V4.76H78.7427ZM72.5227 2.58H67.1827V0.92H72.5227V2.58ZM69.7427 11.34C68.8893 11.34 68.1427 11.2133 67.5027 10.96C66.8627 10.6933 66.3693 10.34 66.0227 9.9C65.6893 9.44667 65.5227 8.94 65.5227 8.38C65.5227 7.24667 66.056 6.45333 67.1227 6V5.86H64.3427V4.24H75.1027V5.86H72.3627V6C73.4427 6.46667 73.9827 7.26 73.9827 8.38C73.9827 8.94 73.8093 9.44667 73.4627 9.9C73.1293 10.34 72.636 10.6933 71.9827 10.96C71.3427 11.2133 70.596 11.34 69.7427 11.34ZM69.5627 9.68H69.9427C70.5827 9.68 71.1027 9.52 71.5027 9.2C71.916 8.88 72.1227 8.44 72.1227 7.88C72.1227 7.32 71.916 6.88 71.5027 6.56C71.1027 6.24 70.5827 6.08 69.9427 6.08H69.5627C68.9227 6.08 68.396 6.24 67.9827 6.56C67.5827 6.88 67.3827 7.32 67.3827 7.88C67.3827 8.44 67.5827 8.88 67.9827 9.2C68.396 9.52 68.9227 9.68 69.5627 9.68ZM78.8827 15.62C78.8827 16.6733 78.396 17.5133 77.4227 18.14C76.4493 18.78 75.056 19.1 73.2427 19.1C71.4293 19.1 70.0293 18.78 69.0427 18.14C68.056 17.5133 67.5627 16.6733 67.5627 15.62C67.5627 14.94 67.776 14.34 68.2027 13.82C68.6427 13.3 69.2893 12.8933 70.1427 12.6C70.996 12.3067 72.0293 12.16 73.2427 12.16C74.4427 12.16 75.4627 12.3067 76.3027 12.6C77.156 12.8933 77.796 13.3 78.2227 13.82C78.6627 14.34 78.8827 14.94 78.8827 15.62ZM76.7227 15.52C76.7227 15.0133 76.436 14.5933 75.8627 14.26C75.2893 13.9267 74.416 13.76 73.2427 13.76C72.056 13.76 71.1693 13.9267 70.5827 14.26C70.0093 14.5933 69.7227 15.0133 69.7227 15.52V15.76C69.7227 16.2533 70.0093 16.6667 70.5827 17C71.1693 17.3333 72.056 17.5 73.2427 17.5C74.416 17.5 75.2893 17.3333 75.8627 17C76.436 16.6667 76.7227 16.2533 76.7227 15.76V15.52ZM100.695 6.34V8.04H97.9747V14.04H95.9547V0.539999H97.9747V6.34H100.695ZM91.7547 2.74H86.4147V1.04H91.7547V2.74ZM88.9747 12.08C88.1214 12.08 87.3747 11.94 86.7347 11.66C86.0947 11.3667 85.6014 10.9733 85.2547 10.48C84.9214 9.98667 84.7547 9.44 84.7547 8.84C84.7547 7.58667 85.308 6.71333 86.4147 6.22V6.1H83.5747V4.44H94.3347V6.1H91.5347V6.22C92.0947 6.47333 92.5147 6.82667 92.7947 7.28C93.0747 7.72 93.2147 8.24 93.2147 8.84C93.2147 9.44 93.0414 9.98667 92.6947 10.48C92.348 10.9733 91.8547 11.3667 91.2147 11.66C90.5747 11.94 89.828 12.08 88.9747 12.08ZM88.8147 10.38H89.1347C89.7747 10.38 90.3014 10.2 90.7147 9.84C91.128 9.48 91.3347 8.98667 91.3347 8.36C91.3347 7.73333 91.128 7.24 90.7147 6.88C90.3147 6.52 89.788 6.34 89.1347 6.34H88.8147C88.1747 6.34 87.648 6.52 87.2347 6.88C86.8347 7.24 86.6347 7.73333 86.6347 8.36C86.6347 8.98667 86.8347 9.48 87.2347 9.84C87.648 10.2 88.1747 10.38 88.8147 10.38ZM88.8547 16.92H98.3947V18.58H88.1347C87.708 18.58 87.3814 18.4667 87.1547 18.24C86.9414 18.0133 86.8347 17.6867 86.8347 17.26V13.44H88.8547V16.92ZM124.213 0.539999V18.06H122.173V0.539999H124.213ZM116.073 8.08C116.3 8.08 116.493 8.17333 116.653 8.36L120.253 12.52L118.713 13.84L115.053 9.42C114.96 9.32667 114.873 9.28 114.793 9.28C114.713 9.28 114.64 9.32 114.573 9.4C114.213 10.0933 113.747 10.8067 113.173 11.54C112.6 12.26 111.847 13.12 110.913 14.12L109.373 12.86C110.467 11.7667 111.327 10.78 111.953 9.9C112.58 9.02 113.033 8.14667 113.313 7.28C113.607 6.4 113.753 5.43333 113.753 4.38V3.78H110.013V2.08H119.513V3.78H115.793V4.46C115.793 5.96667 115.533 7.32 115.013 8.52L115.113 8.6L115.533 8.28C115.733 8.14667 115.913 8.08 116.073 8.08ZM130.425 8.08L129.325 6.54C130.952 5.92667 132.225 5.35333 133.145 4.82C134.065 4.27333 134.719 3.72667 135.105 3.18C135.492 2.62 135.685 1.99333 135.685 1.3V0.76H137.725V1.38C137.725 2.62 137.352 3.66 136.605 4.5L136.745 4.56L137.445 4.08C137.712 3.89333 137.959 3.8 138.185 3.8C138.345 3.8 138.532 3.85333 138.745 3.96L143.805 6.48L142.685 8.04L137.165 5.14C136.965 5.03333 136.759 4.98 136.545 4.98C136.345 4.98 136.152 5.02667 135.965 5.12C135.405 5.6 134.685 6.07333 133.805 6.54C132.939 6.99333 131.812 7.50667 130.425 8.08ZM144.765 9.5V11.24H128.365V9.5H135.565V7.2H137.585V9.5H144.765ZM130.585 12.7H142.405V18.86H140.365V14.36H130.585V12.7ZM162.737 0.539999V11.1H160.717V6.52H157.397V4.86H160.717V0.539999H162.737ZM149.317 10.86L147.817 9.56C148.871 8.74667 149.704 8.02 150.317 7.38C150.931 6.72667 151.377 6.08 151.657 5.44C151.951 4.8 152.097 4.1 152.097 3.34V3.3H148.417V1.62H157.757V3.3H154.117V3.46C154.117 4.58 153.871 5.6 153.377 6.52L153.497 6.6L153.917 6.3C154.091 6.16667 154.277 6.1 154.477 6.1C154.691 6.1 154.884 6.16667 155.057 6.3L158.437 9.2L156.937 10.52L153.437 7.4C153.344 7.32 153.237 7.28 153.117 7.28C152.997 7.28 152.897 7.32 152.817 7.4C152.457 7.90667 152.011 8.41333 151.477 8.92C150.957 9.42667 150.237 10.0733 149.317 10.86ZM151.097 12.08H162.737V18.96H160.757V13.8H151.097V12.08ZM181.969 0.539999V13.76H179.949V0.539999H181.969ZM167.329 6.04C167.329 5.08 167.529 4.25333 167.929 3.56C168.329 2.85333 168.883 2.31333 169.589 1.94C170.296 1.56667 171.109 1.38 172.029 1.38C172.949 1.38 173.763 1.56667 174.469 1.94C175.189 2.31333 175.749 2.85333 176.149 3.56C176.549 4.25333 176.749 5.08 176.749 6.04C176.749 6.98667 176.549 7.81333 176.149 8.52C175.749 9.21333 175.189 9.74667 174.469 10.12C173.763 10.4933 172.949 10.68 172.029 10.68C171.109 10.68 170.296 10.4933 169.589 10.12C168.883 9.74667 168.329 9.21333 167.929 8.52C167.529 7.81333 167.329 6.98667 167.329 6.04ZM174.589 6.52V5.56C174.589 4.8 174.356 4.19333 173.889 3.74C173.423 3.28667 172.803 3.06 172.029 3.06C171.256 3.06 170.636 3.28667 170.169 3.74C169.703 4.19333 169.469 4.8 169.469 5.56V6.52C169.469 7.28 169.703 7.88667 170.169 8.34C170.636 8.79333 171.256 9.02 172.029 9.02C172.803 9.02 173.423 8.79333 173.889 8.34C174.356 7.88667 174.589 7.28 174.589 6.52ZM170.629 17.12V12.32H172.649V16.78H182.329V18.44H171.929C171.503 18.44 171.176 18.3267 170.949 18.1C170.736 17.8733 170.629 17.5467 170.629 17.12ZM209.108 6.28V7.98H206.588V14H204.588V0.539999H206.588V6.28H209.108ZM200.208 3.38H193.068V1.72H202.188V2.94C202.188 4.55333 201.988 6.33333 201.588 8.28L199.648 8C199.981 6.69333 200.168 5.15333 200.208 3.38ZM203.448 10.88C201.981 11.1067 200.215 11.2867 198.148 11.42C196.081 11.54 193.981 11.6 191.848 11.6L191.688 9.92C193.008 9.92 194.315 9.9 195.608 9.86V6.06H197.588V9.8C199.935 9.69333 201.828 9.52667 203.268 9.3L203.448 10.88ZM197.208 16.78H206.948V18.44H196.468C196.041 18.44 195.715 18.3267 195.488 18.1C195.275 17.8733 195.168 17.5467 195.168 17.12V13.04H197.208V16.78ZM226.56 0.539999V10.64H224.54V0.539999H226.56ZM216.92 6.62C216.813 6.62 216.72 6.66667 216.64 6.76C216.28 7.33333 215.813 7.92 215.24 8.52C214.68 9.12 213.947 9.82667 213.04 10.64L211.54 9.32C212.62 8.4 213.467 7.58 214.08 6.86C214.693 6.14 215.133 5.42667 215.4 4.72C215.68 4.01333 215.82 3.23333 215.82 2.38V1.2H217.86V2.5C217.86 3.75333 217.613 4.89333 217.12 5.92L217.22 6L217.66 5.62C217.847 5.46 218.027 5.38 218.2 5.38C218.373 5.38 218.553 5.46 218.74 5.62L222.24 8.84L220.78 10.26L217.18 6.74C217.1 6.66 217.013 6.62 216.92 6.62ZM215.28 11.64H226.56V18.78H216.58C216.153 18.78 215.827 18.6667 215.6 18.44C215.387 18.2133 215.28 17.8867 215.28 17.46V11.64ZM217.3 17.1H224.54V13.32H217.3V17.1ZM232.772 3.84C232.772 2.84 233.279 2.04667 234.292 1.46C235.305 0.873333 236.825 0.579999 238.852 0.579999C240.879 0.579999 242.399 0.873333 243.412 1.46C244.425 2.04667 244.932 2.84 244.932 3.84C244.932 4.85333 244.425 5.65333 243.412 6.24C242.399 6.82667 240.879 7.12 238.852 7.12C236.825 7.12 235.305 6.82667 234.292 6.24C233.279 5.65333 232.772 4.85333 232.772 3.84ZM242.772 3.94V3.74C242.772 3.23333 242.445 2.82667 241.792 2.52C241.152 2.21333 240.172 2.06 238.852 2.06C237.545 2.06 236.565 2.21333 235.912 2.52C235.259 2.82667 234.932 3.23333 234.932 3.74V3.94C234.932 4.44667 235.252 4.85333 235.892 5.16C236.545 5.45333 237.532 5.6 238.852 5.6C240.185 5.6 241.172 5.45333 241.812 5.16C242.452 4.86667 242.772 4.46 242.772 3.94ZM247.052 8.2V9.9H230.652V8.2H247.052ZM233.152 17.56V14.28H242.692V12.9H233.032V11.26H244.632V15.82H235.072V17.22H245.132V18.88H234.452C234.025 18.88 233.699 18.7667 233.472 18.54C233.259 18.3133 233.152 17.9867 233.152 17.56ZM272.931 8.9H270.131V18.08H268.111V0.56H270.131V7.2H272.931V8.9ZM262.991 1.74H264.971V13.42H256.531V1.76H258.491V5.94H262.991V1.74ZM262.991 7.62H258.491V11.74H262.991V7.62ZM292.163 4.98V6.68H289.423V11.34H287.403V0.539999H289.423V4.98H292.163ZM285.703 10.12C283.503 10.5333 280.869 10.74 277.803 10.74H275.823V1.42H284.083V3.06H277.783V5.18H283.823V6.82H277.783V9.12H277.923C280.709 9.12 283.223 8.92 285.463 8.52L285.703 10.12ZM289.583 15.44C289.583 16.16 289.363 16.7933 288.923 17.34C288.496 17.9 287.856 18.3333 287.003 18.64C286.163 18.9467 285.143 19.1 283.943 19.1C282.729 19.1 281.696 18.9467 280.843 18.64C279.989 18.3333 279.343 17.9 278.903 17.34C278.476 16.7933 278.263 16.16 278.263 15.44C278.263 14.72 278.476 14.0867 278.903 13.54C279.343 12.9933 279.989 12.5667 280.843 12.26C281.696 11.9533 282.729 11.8 283.943 11.8C285.143 11.8 286.163 11.9533 287.003 12.26C287.856 12.5667 288.496 12.9933 288.923 13.54C289.363 14.0867 289.583 14.72 289.583 15.44ZM287.423 15.3C287.423 14.7533 287.136 14.3 286.563 13.94C285.989 13.5667 285.116 13.38 283.943 13.38C282.769 13.38 281.889 13.5667 281.303 13.94C280.716 14.3 280.423 14.7533 280.423 15.3V15.6C280.423 16.1333 280.716 16.58 281.303 16.94C281.889 17.3133 282.769 17.5 283.943 17.5C285.116 17.5 285.989 17.3133 286.563 16.94C287.136 16.58 287.423 16.1333 287.423 15.6V15.3ZM296.295 6.08C296.295 5.17333 296.528 4.35333 296.995 3.62C297.475 2.88667 298.195 2.30667 299.155 1.88C300.115 1.44 301.288 1.22 302.675 1.22C304.061 1.22 305.235 1.44 306.195 1.88C307.155 2.30667 307.868 2.88667 308.335 3.62C308.815 4.35333 309.055 5.17333 309.055 6.08C309.055 6.98667 308.815 7.80667 308.335 8.54C307.868 9.27333 307.155 9.85333 306.195 10.28C305.235 10.7067 304.061 10.92 302.675 10.92C301.288 10.92 300.115 10.7067 299.155 10.28C298.195 9.85333 297.475 9.27333 296.995 8.54C296.528 7.80667 296.295 6.98667 296.295 6.08ZM306.875 6.32V5.82C306.875 4.95333 306.521 4.24 305.815 3.68C305.121 3.12 304.075 2.84 302.675 2.84C301.275 2.84 300.221 3.12 299.515 3.68C298.821 4.24 298.475 4.95333 298.475 5.82V6.32C298.475 7.18667 298.828 7.9 299.535 8.46C300.241 9.02 301.288 9.3 302.675 9.3C304.061 9.3 305.108 9.02 305.815 8.46C306.521 7.9 306.875 7.18667 306.875 6.32ZM294.475 14.4H310.875V16.12H294.475V14.4ZM330.107 14.42V16.12H313.707V14.42H320.907V11.46H316.047V5.7H325.727V3.26H315.987V1.58H327.767V7.32H318.087V9.78H328.247V11.46H322.927V14.42H330.107ZM13.84 43.86H10.3V42.18H13.84V38.54H15.86V48.96H13.84V43.86ZM6.12 44.62C6.04 44.62 5.96 44.66 5.88 44.74C5.52 45.3267 5.05333 45.9333 4.48 46.56C3.90667 47.1733 3.16667 47.9 2.26 48.74L0.76 47.4C1.84 46.4533 2.68667 45.6133 3.3 44.88C3.91333 44.1467 4.36 43.4267 4.64 42.72C4.92 42 5.06 41.2067 5.06 40.34V39.14H7.1V40.46C7.1 41.7133 6.84667 42.8667 6.34 43.92L6.44 43.98L6.88 43.6C7.09333 43.4533 7.28667 43.38 7.46 43.38C7.64667 43.38 7.81333 43.4533 7.96 43.6L11.48 46.86L10.02 48.28L6.38 44.74C6.3 44.66 6.21333 44.62 6.12 44.62ZM15.92 53.12C15.92 53.8667 15.7 54.5333 15.26 55.12C14.82 55.72 14.1733 56.1867 13.32 56.52C12.4667 56.8667 11.4333 57.04 10.22 57.04C9.00667 57.04 7.96667 56.8667 7.1 56.52C6.23333 56.1867 5.58 55.72 5.14 55.12C4.7 54.5333 4.48 53.8667 4.48 53.12C4.48 52.3733 4.7 51.7067 5.14 51.12C5.58 50.52 6.23333 50.0533 7.1 49.72C7.96667 49.3733 9.00667 49.2 10.22 49.2C11.4333 49.2 12.4667 49.3733 13.32 49.72C14.1733 50.0533 14.82 50.52 15.26 51.12C15.7 51.7067 15.92 52.3733 15.92 53.12ZM13.78 52.96C13.78 52.36 13.48 51.86 12.88 51.46C12.2933 51.0467 11.4067 50.84 10.22 50.84C9.02 50.84 8.12 51.0467 7.52 51.46C6.93333 51.86 6.64 52.36 6.64 52.96V53.3C6.64 53.8867 6.93333 54.38 7.52 54.78C8.12 55.1933 9.02 55.4 10.22 55.4C11.4067 55.4 12.2933 55.1933 12.88 54.78C13.48 54.38 13.78 53.8867 13.78 53.3V52.96ZM35.092 47.68H33.072V38.54H35.092V47.68ZM25.432 44.22C25.3254 44.22 25.2387 44.26 25.172 44.34C24.7854 44.9267 24.3054 45.5133 23.732 46.1C23.1587 46.6733 22.4387 47.3267 21.572 48.06L20.072 46.76C21.152 45.88 21.9987 45.0933 22.612 44.4C23.2254 43.7067 23.6654 43.02 23.932 42.34C24.212 41.66 24.352 40.9067 24.352 40.08V39H26.392V40.22C26.392 41.4333 26.1454 42.5333 25.652 43.52L25.752 43.6L26.192 43.22C26.392 43.06 26.5787 42.98 26.752 42.98C26.912 42.98 27.0854 43.0533 27.272 43.2L30.752 46.26L29.332 47.7L25.712 44.34C25.632 44.26 25.5387 44.22 25.432 44.22ZM35.532 55.16V56.9H25.012C24.5854 56.9 24.2587 56.7867 24.032 56.56C23.8187 56.3333 23.712 56.0067 23.712 55.58V51.94H33.052V50.42H23.612V48.7H35.112V53.62H25.772V55.16H35.532ZM56.1041 45H53.3841V49.62H51.3641V38.54H53.3841V43.3H56.1041V45ZM47.1641 40.58H41.8241V38.92H47.1641V40.58ZM44.3841 49.34C43.5307 49.34 42.7841 49.2133 42.1441 48.96C41.5041 48.6933 41.0107 48.34 40.6641 47.9C40.3307 47.4467 40.1641 46.94 40.1641 46.38C40.1641 45.2467 40.7041 44.4467 41.7841 43.98V43.86H38.9841V42.24H49.7441V43.86H47.0041V44C48.0841 44.4667 48.6241 45.26 48.6241 46.38C48.6241 46.94 48.4507 47.4467 48.1041 47.9C47.7707 48.34 47.2774 48.6933 46.6241 48.96C45.9841 49.2133 45.2374 49.34 44.3841 49.34ZM44.2041 47.68H44.5841C45.2241 47.68 45.7441 47.52 46.1441 47.2C46.5574 46.88 46.7641 46.44 46.7641 45.88C46.7641 45.32 46.5574 44.88 46.1441 44.56C45.7441 44.24 45.2241 44.08 44.5841 44.08H44.2041C43.5641 44.08 43.0374 44.24 42.6241 44.56C42.2241 44.88 42.0241 45.32 42.0241 45.88C42.0241 46.44 42.2241 46.88 42.6241 47.2C43.0374 47.52 43.5641 47.68 44.2041 47.68ZM42.2841 50.56H53.3841V56.78H43.5841C43.1574 56.78 42.8307 56.6667 42.6041 56.44C42.3907 56.2133 42.2841 55.8867 42.2841 55.46V50.56ZM44.3241 55.12H51.3441V52.22H44.3241V55.12ZM75.3361 47.26H72.7561V56.06H70.7561V38.54H72.7561V45.56H75.3361V47.26ZM66.4961 41.8H59.1761V40.12H68.4761V41.56C68.4761 43.7867 68.2361 45.96 67.7561 48.08L65.8361 47.78C66.2628 45.98 66.4828 43.9867 66.4961 41.8ZM69.4961 50.08L69.6761 51.68C68.2628 51.9067 66.5294 52.0867 64.4761 52.22C62.4361 52.34 60.3428 52.4 58.1961 52.4L58.0161 50.7C59.2961 50.7 60.5561 50.68 61.7961 50.64V45.42H63.7561V50.58C65.9561 50.4733 67.8694 50.3067 69.4961 50.08ZM100.175 46.72V48.46H83.7747V46.72H88.3147C88.5947 45.8267 88.808 44.9267 88.9547 44.02C89.1147 43.1 89.2014 42.0867 89.2147 40.98H85.3747V39.32H91.1547V40.76C91.1547 42.7867 90.868 44.7733 90.2947 46.72H95.5747C96.0414 44.88 96.2747 42.9667 96.2747 40.98H92.2547V39.32H98.1947V40.86C98.1947 42.82 97.9747 44.7733 97.5347 46.72H100.175ZM88.2147 54.68H98.1947V56.36H87.4747C87.048 56.36 86.7214 56.2467 86.4947 56.02C86.2814 55.7933 86.1747 55.4667 86.1747 55.04V50.42H88.2147V54.68ZM116.047 38.54H118.087V56.06H116.047V38.54ZM103.647 50.92C105.433 50.0133 106.793 49.18 107.727 48.42C108.66 47.66 109.313 46.8533 109.687 46C110.073 45.1467 110.267 44.0933 110.267 42.84V41.66H104.187V39.94H112.327V42.82C112.327 44.3267 112.093 45.6067 111.627 46.66C111.173 47.7 110.413 48.6733 109.347 49.58C108.293 50.4733 106.787 51.44 104.827 52.48L103.647 50.92ZM139.159 46.9H136.359V56.08H134.339V38.56H136.359V45.2H139.159V46.9ZM132.639 49.64L132.879 51.26C130.719 51.66 128.085 51.86 124.979 51.86H122.959V44.78H128.939V41.52H122.899V39.84H130.939V46.44H124.959V50.2H125.059C127.979 50.2 130.505 50.0133 132.639 49.64ZM155.591 45.62H143.931V39.2H145.951V43.96H155.591V45.62ZM157.871 47.52V49.26H141.471V47.52H157.871ZM145.811 54.72H155.791V56.4H145.071C144.644 56.4 144.317 56.2867 144.091 56.06C143.877 55.8333 143.771 55.5067 143.771 55.08V50.84H145.811V54.72ZM180.889 46.62H169.169V39.1H180.889V46.62ZM178.869 40.78H171.189V44.94H178.869V40.78ZM183.229 50.5H176.049V56.76H174.029V50.5H166.829V48.78H183.229V50.5ZM199.101 38.54H201.141V56.06H199.101V38.54ZM186.701 50.92C188.488 50.0133 189.848 49.18 190.781 48.42C191.715 47.66 192.368 46.8533 192.741 46C193.128 45.1467 193.321 44.0933 193.321 42.84V41.66H187.241V39.94H195.381V42.82C195.381 44.3267 195.148 45.6067 194.681 46.66C194.228 47.7 193.468 48.6733 192.401 49.58C191.348 50.4733 189.841 51.44 187.881 52.48L186.701 50.92ZM217.153 41.62V40.32H207.713V38.84H219.113V43.06H209.733V44.36H219.573V45.84H207.793V41.62H217.153ZM221.693 47.06V48.6H205.293V47.06H221.693ZM207.733 55.62V52.64H217.433V51.44H207.633V49.88H219.313V54.12H209.613V55.36H219.813V56.94H209.033C208.607 56.94 208.28 56.8267 208.053 56.6C207.84 56.3733 207.733 56.0467 207.733 55.62ZM247.572 46.9H244.772V56.08H242.752V38.56H244.772V45.2H247.572V46.9ZM231.412 39.94H239.452V42.84C239.452 44.3333 239.225 45.6067 238.772 46.66C238.319 47.7 237.565 48.6667 236.512 49.56C235.472 50.4533 233.992 51.4267 232.072 52.48L230.872 50.94C232.632 50.02 233.972 49.1867 234.892 48.44C235.812 47.68 236.459 46.8733 236.832 46.02C237.205 45.1533 237.392 44.0933 237.392 42.84V41.66H231.412V39.94ZM264.964 38.54V56.06H262.924V38.54H264.964ZM256.824 46.08C257.051 46.08 257.244 46.1733 257.404 46.36L261.004 50.52L259.464 51.84L255.804 47.42C255.711 47.3267 255.624 47.28 255.544 47.28C255.464 47.28 255.391 47.32 255.324 47.4C254.964 48.0933 254.497 48.8067 253.924 49.54C253.351 50.26 252.597 51.12 251.664 52.12L250.124 50.86C251.217 49.7667 252.077 48.78 252.704 47.9C253.331 47.02 253.784 46.1467 254.064 45.28C254.357 44.4 254.504 43.4333 254.504 42.38V41.78H250.764V40.08H260.264V41.78H256.544V42.46C256.544 43.9667 256.284 45.32 255.764 46.52L255.864 46.6L256.284 46.28C256.484 46.1467 256.664 46.08 256.824 46.08ZM281.396 41.68H271.176V39.96H283.396V41.42C283.396 44.42 283.103 47.2667 282.516 49.96L280.556 49.64C281.103 47.1467 281.383 44.4933 281.396 41.68ZM285.516 52.42V54.12H269.116V52.42H275.236V46.26H277.256V52.42H285.516ZM17.12 90.42V92.12H0.72V90.42H7.92V86.22H3.04V77.72H14.88V79.44H5.08V84.48H15.02V86.22H9.94V90.42H17.12ZM33.072 81.14V76.54H35.092V89.76H33.072V82.84H29.752V81.14H33.072ZM25.472 83.6C25.3654 83.6 25.272 83.64 25.192 83.72C24.8187 84.2667 24.352 84.8267 23.792 85.4C23.2454 85.9733 22.5387 86.6533 21.672 87.44L20.172 86.16C21.2254 85.28 22.0587 84.4933 22.672 83.8C23.2854 83.0933 23.732 82.4 24.012 81.72C24.3054 81.0267 24.452 80.28 24.452 79.48H20.772V77.8H30.112V79.48H26.472V79.56C26.472 80.7333 26.2254 81.8267 25.732 82.84L25.832 82.9L26.252 82.6C26.4254 82.4667 26.6054 82.4 26.792 82.4C27.0187 82.4 27.2187 82.48 27.392 82.64L30.792 85.74L29.292 87.06L25.772 83.72C25.6787 83.64 25.5787 83.6 25.472 83.6ZM35.452 92.78V94.44H25.052C24.6254 94.44 24.2987 94.3267 24.072 94.1C23.8587 93.8733 23.752 93.5467 23.752 93.12V88.5H25.772V92.78H35.452ZM41.3041 79.84C41.3041 78.84 41.8107 78.0467 42.8241 77.46C43.8374 76.8733 45.3574 76.58 47.3841 76.58C49.4107 76.58 50.9307 76.8733 51.9441 77.46C52.9574 78.0467 53.4641 78.84 53.4641 79.84C53.4641 80.8533 52.9574 81.6533 51.9441 82.24C50.9307 82.8267 49.4107 83.12 47.3841 83.12C45.3574 83.12 43.8374 82.8267 42.8241 82.24C41.8107 81.6533 41.3041 80.8533 41.3041 79.84ZM51.3041 79.94V79.74C51.3041 79.2333 50.9774 78.8267 50.3241 78.52C49.6841 78.2133 48.7041 78.06 47.3841 78.06C46.0774 78.06 45.0974 78.2133 44.4441 78.52C43.7907 78.8267 43.4641 79.2333 43.4641 79.74V79.94C43.4641 80.4467 43.7841 80.8533 44.4241 81.16C45.0774 81.4533 46.0641 81.6 47.3841 81.6C48.7174 81.6 49.7041 81.4533 50.3441 81.16C50.9841 80.8667 51.3041 80.46 51.3041 79.94ZM55.5841 84.2V85.9H39.1841V84.2H55.5841ZM41.6841 93.56V90.28H51.2241V88.9H41.5641V87.26H53.1641V91.82H43.6041V93.22H53.6641V94.88H42.9841C42.5574 94.88 42.2307 94.7667 42.0041 94.54C41.7907 94.3133 41.6841 93.9867 41.6841 93.56ZM78.7027 84.54H66.9627V77.18H78.5627V78.88H69.0227V82.84H78.7027V84.54ZM80.9427 88.46H73.7627V94.76H71.7427V88.46H64.5427V86.76H80.9427V88.46ZM98.9147 76.54V94.06H96.8747V86.3H93.5747V84.64H96.8747V82.02H93.5747V80.36H96.8747V76.54H98.9147ZM93.9147 87.82L94.1747 89.44C92.108 89.84 89.588 90.04 86.6147 90.04H84.6947V82.88H90.3947V79.52H84.6347V77.82H92.3947V84.52H86.6947V88.38H86.7947C89.5414 88.38 91.9147 88.1933 93.9147 87.82ZM118.247 76.54V94.06H116.227V90.18H112.207V88.54H116.227V76.54H118.247ZM103.967 80.74C103.967 79.9933 104.173 79.34 104.587 78.78C105 78.22 105.567 77.7867 106.287 77.48C107.02 77.1733 107.853 77.02 108.787 77.02C109.72 77.02 110.547 77.1733 111.267 77.48C112 77.7867 112.567 78.22 112.967 78.78C113.38 79.34 113.587 79.9933 113.587 80.74C113.587 81.4867 113.38 82.14 112.967 82.7C112.567 83.26 112 83.6933 111.267 84C110.547 84.3067 109.72 84.46 108.787 84.46C107.853 84.46 107.02 84.3067 106.287 84C105.567 83.6933 105 83.26 104.587 82.7C104.173 82.14 103.967 81.4867 103.967 80.74ZM106.067 80.9C106.067 81.5 106.313 81.98 106.807 82.34C107.313 82.6867 107.973 82.86 108.787 82.86C109.6 82.86 110.253 82.6867 110.747 82.34C111.253 81.98 111.507 81.5 111.507 80.9V80.58C111.507 79.98 111.253 79.5067 110.747 79.16C110.253 78.8 109.6 78.62 108.787 78.62C107.973 78.62 107.313 78.8 106.807 79.16C106.313 79.5067 106.067 79.98 106.067 80.58V80.9ZM109.807 87.42V93.9H107.807V87.52C106.1 87.5867 104.533 87.62 103.107 87.62L102.947 85.92C105.2 85.92 107.38 85.8667 109.487 85.76C111.593 85.6533 113.353 85.5 114.767 85.3L114.967 86.9C113.5 87.1267 111.78 87.3 109.807 87.42ZM139.159 85.26H136.459V94.08H134.439V76.56H136.459V83.56H139.159V85.26ZM130.519 79.24H124.679V77.52H130.519V79.24ZM122.099 81.22H132.799V82.88H130.099V83C131.232 83.6267 131.799 84.74 131.799 86.34C131.799 87.1933 131.612 87.94 131.239 88.58C130.879 89.2067 130.372 89.6933 129.719 90.04C129.079 90.3867 128.352 90.56 127.539 90.56C126.725 90.56 125.992 90.3867 125.339 90.04C124.699 89.6933 124.192 89.2067 123.819 88.58C123.445 87.94 123.259 87.1933 123.259 86.34C123.259 84.74 123.825 83.6333 124.959 83.02V82.88H122.099V81.22ZM129.839 85.52C129.839 84.7467 129.632 84.1533 129.219 83.74C128.805 83.3133 128.245 83.1 127.539 83.1C126.832 83.1 126.265 83.3133 125.839 83.74C125.425 84.1667 125.219 84.76 125.219 85.52V86.44C125.219 87.2 125.432 87.7933 125.859 88.22C126.285 88.6467 126.845 88.86 127.539 88.86C128.232 88.86 128.785 88.6467 129.199 88.22C129.625 87.7933 129.839 87.2 129.839 86.44V85.52ZM156.551 76.54V94.06H154.511V76.54H156.551ZM148.411 84.08C148.637 84.08 148.831 84.1733 148.991 84.36L152.591 88.52L151.051 89.84L147.391 85.42C147.297 85.3267 147.211 85.28 147.131 85.28C147.051 85.28 146.977 85.32 146.911 85.4C146.551 86.0933 146.084 86.8067 145.511 87.54C144.937 88.26 144.184 89.12 143.251 90.12L141.711 88.86C142.804 87.7667 143.664 86.78 144.291 85.9C144.917 85.02 145.371 84.1467 145.651 83.28C145.944 82.4 146.091 81.4333 146.091 80.38V79.78H142.351V78.08H151.851V79.78H148.131V80.46C148.131 81.9667 147.871 83.32 147.351 84.52L147.451 84.6L147.871 84.28C148.071 84.1467 148.251 84.08 148.411 84.08ZM183.749 80.32V82.02H181.029V85.58H179.009V76.54H181.029V80.32H183.749ZM171.529 85.76C170.636 85.76 169.836 85.5867 169.129 85.24C168.423 84.88 167.869 84.3733 167.469 83.72C167.083 83.0667 166.889 82.3067 166.889 81.44C166.889 80.5733 167.083 79.8133 167.469 79.16C167.869 78.5067 168.423 78.0067 169.129 77.66C169.836 77.3 170.636 77.12 171.529 77.12C172.436 77.12 173.236 77.3 173.929 77.66C174.636 78.0067 175.183 78.5067 175.569 79.16C175.969 79.8133 176.169 80.5733 176.169 81.44C176.169 82.3067 175.969 83.0667 175.569 83.72C175.183 84.3733 174.636 84.88 173.929 85.24C173.236 85.5867 172.436 85.76 171.529 85.76ZM171.529 84.14C172.289 84.14 172.903 83.9267 173.369 83.5C173.836 83.0733 174.069 82.5 174.069 81.78V81.08C174.069 80.36 173.836 79.7933 173.369 79.38C172.903 78.9533 172.289 78.74 171.529 78.74C170.769 78.74 170.156 78.9533 169.689 79.38C169.236 79.7933 169.009 80.36 169.009 81.08V81.78C169.009 82.5 169.236 83.0733 169.689 83.5C170.156 83.9267 170.769 84.14 171.529 84.14ZM176.029 88.12V86.54H180.289V88.12H176.029ZM173.789 92.04L174.269 93.72C173.763 93.9467 173.143 94.14 172.409 94.3C171.676 94.46 170.949 94.54 170.229 94.54H169.889C169.463 94.54 169.136 94.4267 168.909 94.2C168.696 93.9733 168.589 93.6467 168.589 93.22V87.3H170.469V92.72H170.709C171.203 92.72 171.749 92.6467 172.349 92.5C172.949 92.3533 173.429 92.2 173.789 92.04ZM173.849 89.26H182.509V90.78H180.289V90.9C181.103 91.2733 181.509 91.9 181.509 92.78C181.509 93.2067 181.376 93.6 181.109 93.96C180.843 94.3333 180.456 94.6267 179.949 94.84C179.443 95.0667 178.849 95.18 178.169 95.18C177.489 95.18 176.896 95.0667 176.389 94.84C175.883 94.6267 175.496 94.3333 175.229 93.96C174.963 93.6 174.829 93.2067 174.829 92.78C174.829 91.9 175.236 91.2733 176.049 90.9V90.78H173.849V89.26ZM179.829 92.28C179.829 91.8533 179.683 91.52 179.389 91.28C179.109 91.0267 178.736 90.9 178.269 90.9H178.069C177.603 90.9 177.223 91.0267 176.929 91.28C176.649 91.52 176.509 91.8533 176.509 92.28C176.509 92.6933 176.649 93.0267 176.929 93.28C177.223 93.5333 177.603 93.66 178.069 93.66H178.269C178.736 93.66 179.109 93.5333 179.389 93.28C179.683 93.0267 179.829 92.6933 179.829 92.28ZM200.181 83.62H188.521V77.2H190.541V81.96H200.181V83.62ZM202.461 85.52V87.26H186.061V85.52H202.461ZM190.401 92.72H200.381V94.4H189.661C189.235 94.4 188.908 94.2867 188.681 94.06C188.468 93.8333 188.361 93.5067 188.361 93.08V88.84H190.401V92.72Z" fill="white"/>
</svg>
