<svg width="109" height="92" viewBox="0 0 109 92" fill="none" xmlns="http://www.w3.org/2000/svg">
<g clip-path="url(#clip0_178_239)">
<path d="M56.9093 18.9468C56.9093 18.9468 56.8733 18.9434 56.8582 18.9424C56.8531 18.8579 56.8475 18.764 56.8393 18.691C56.7874 18.1723 56.6738 17.7231 56.5021 17.3415C56.1196 16.494 55.2735 15.8948 53.9579 15.5423C52.9756 15.2791 52.1625 15.1998 51.5251 15.3153C51.2364 15.3703 50.9828 15.4778 50.765 15.6473C50.5472 15.8167 50.4077 16.0041 50.3544 16.2146C50.3113 16.3754 50.3152 16.5334 50.368 16.6923C50.4188 16.8475 50.5049 16.9629 50.6205 17.037C51.0075 17.27 51.2379 17.4672 51.3174 17.6301C51.3969 17.793 51.4061 18.1034 51.3471 18.5647C51.3092 18.844 51.2838 19.1112 51.2703 19.3569C49.9328 19.7066 48.6155 20.2341 47.3699 20.9532C45.0172 22.3116 43.1801 24.1929 41.9434 26.3152L54.0396 29.5533L56.9093 18.9468Z" fill="#273F65"/>
<path d="M67.1478 28.3369C67.5558 28.2276 67.9588 28.0678 68.3485 27.8428C70.4718 26.6169 71.4653 23.9892 70.3676 22.0881C69.27 20.187 66.4977 19.7335 64.3744 20.9594C64.0393 21.1528 63.7441 21.3816 63.4744 21.6295C62.186 20.567 60.6495 19.7981 58.9809 19.3387L56.0727 30.0888L66.8017 32.9605C67.2127 31.4267 67.3387 29.8534 67.1494 28.3311L67.1478 28.3369Z" fill="#273F65"/>
<path d="M66.5764 41.3848C66.9894 40.889 67.3293 40.1488 67.5962 39.1644C67.9486 37.8488 67.8528 36.8165 67.3101 36.0615C67.0691 35.7198 66.7333 35.399 66.31 35.0947C66.2508 35.0511 66.1745 35.0029 66.1038 34.9563L55.5242 32.1246L52.263 44.1808C54.7156 44.173 57.2634 43.5226 59.6162 42.1643C60.8617 41.4452 61.9772 40.568 62.9488 39.5846C63.172 39.6937 63.4125 39.8074 63.6732 39.9142C64.1023 40.0938 64.3664 40.257 64.4678 40.4072C64.5691 40.5575 64.6247 40.8557 64.633 41.3074C64.6393 41.4445 64.6962 41.5768 64.8053 41.6983C64.9143 41.8199 65.0493 41.9022 65.2122 41.949C65.419 42.0044 65.6531 41.9809 65.9088 41.877C66.1644 41.7731 66.388 41.6052 66.5764 41.3848Z" fill="#273F65"/>
<path d="M47.4238 49.4414C47.4941 49.294 47.5195 49.1531 47.4887 49.0155C47.3813 48.5773 47.3555 48.2717 47.4131 48.1025C47.4708 47.9332 47.6831 47.7038 48.0522 47.4179C48.9401 46.7353 49.532 46.1119 49.8278 45.5478C50.0611 45.1023 50.1548 44.5917 50.1168 44.0213L50.1283 44.0243L53.4926 31.5833L41.0136 28.2457L41.0157 28.2493C40.5334 27.9354 40.0444 27.7612 39.5419 27.7405C38.9054 27.7147 38.0697 27.9155 37.0346 28.3432C36.6024 28.5199 36.2997 28.5927 36.1222 28.5543C35.9467 28.5197 35.6914 28.3466 35.3692 28.0324C35.2655 27.9369 35.1344 27.8864 34.9679 27.8756C34.8051 27.8628 34.653 27.9021 34.5073 27.9862C34.3215 28.0934 34.1742 28.2756 34.0653 28.5327C33.96 28.7877 33.9179 29.0597 33.9411 29.3522C33.9967 29.9951 34.2818 30.758 34.7927 31.6431C35.474 32.8231 36.2729 33.4835 37.1865 33.6359C37.5957 33.7056 38.0625 33.6983 38.5775 33.6146C38.9638 33.5519 39.4859 33.4301 40.1533 33.2487C40.2228 35.0345 40.698 36.7996 41.6316 38.4166C42.5652 40.0337 43.8542 41.3242 45.368 42.2809C44.8772 42.7682 44.5107 43.1595 44.2633 43.4626C43.9333 43.8667 43.6936 44.2674 43.5493 44.6566C43.2187 45.5224 43.397 46.5461 44.0783 47.7261C44.5871 48.6075 45.1053 49.2358 45.6364 49.609C45.8781 49.7754 46.1368 49.8786 46.4082 49.9112C46.6817 49.9476 46.9131 49.9111 47.1025 49.8017C47.2482 49.7176 47.3562 49.6019 47.4286 49.4581L47.4238 49.4414Z" fill="#273F65"/>
</g>
<path d="M4.89799 67.8182V86H2.15474V67.8182H4.89799ZM31.3139 73.5621C31.1423 73.0236 30.9115 72.5412 30.6214 72.1151C30.3374 71.683 29.997 71.3161 29.6005 71.0142C29.204 70.7064 28.7512 70.4727 28.2422 70.3129C27.7391 70.1531 27.1857 70.0732 26.582 70.0732C25.5581 70.0732 24.6348 70.3365 23.8121 70.8633C22.9895 71.39 22.3384 72.1624 21.859 73.1804C21.3855 74.1925 21.1488 75.4324 21.1488 76.9002C21.1488 78.3739 21.3885 79.6198 21.8679 80.6378C22.3473 81.6558 23.0043 82.4281 23.8388 82.9549C24.6733 83.4817 25.6232 83.745 26.6886 83.745C27.677 83.745 28.5381 83.5438 29.272 83.1413C30.0118 82.7389 30.583 82.1707 30.9854 81.4368C31.3938 80.697 31.598 79.8269 31.598 78.8267L32.3082 78.9599H27.1058V76.696H34.2525V78.7646C34.2525 80.2915 33.927 81.6173 33.2759 82.7418C32.6308 83.8604 31.7371 84.7246 30.5948 85.3342C29.4585 85.9438 28.1564 86.2486 26.6886 86.2486C25.0432 86.2486 23.5991 85.8698 22.3562 85.1122C21.1192 84.3546 20.1545 83.2804 19.462 81.8896C18.7695 80.4928 18.4233 78.8356 18.4233 76.918C18.4233 75.4679 18.6245 74.1658 19.027 73.0117C19.4295 71.8576 19.9947 70.8781 20.7227 70.0732C21.4566 69.2623 22.3177 68.6438 23.3061 68.2177C24.3004 67.7856 25.3865 67.5696 26.5643 67.5696C27.5468 67.5696 28.4612 67.7146 29.3075 68.0046C30.1598 68.2946 30.9174 68.706 31.5803 69.2386C32.2491 69.7713 32.8024 70.4046 33.2404 71.1385C33.6784 71.8665 33.9743 72.6744 34.1282 73.5621H31.3139ZM55.2785 76.9091C55.2785 78.8504 54.9234 80.5194 54.2132 81.9162C53.5029 83.3071 52.5293 84.3783 51.2923 85.13C50.0613 85.8757 48.6615 86.2486 47.0931 86.2486C45.5188 86.2486 44.1131 85.8757 42.8762 85.13C41.6451 84.3783 40.6744 83.3041 39.9642 81.9073C39.254 80.5105 38.8989 78.8445 38.8989 76.9091C38.8989 74.9678 39.254 73.3017 39.9642 71.9109C40.6744 70.5141 41.6451 69.4428 42.8762 68.6971C44.1131 67.9454 45.5188 67.5696 47.0931 67.5696C48.6615 67.5696 50.0613 67.9454 51.2923 68.6971C52.5293 69.4428 53.5029 70.5141 54.2132 71.9109C54.9234 73.3017 55.2785 74.9678 55.2785 76.9091ZM52.5619 76.9091C52.5619 75.4295 52.3222 74.1836 51.8428 73.1715C51.3693 72.1535 50.7182 71.3841 49.8896 70.8633C49.067 70.3365 48.1348 70.0732 47.0931 70.0732C46.0455 70.0732 45.1104 70.3365 44.2877 70.8633C43.4651 71.3841 42.814 72.1535 42.3346 73.1715C41.8611 74.1836 41.6244 75.4295 41.6244 76.9091C41.6244 78.3887 41.8611 79.6375 42.3346 80.6555C42.814 81.6676 43.4651 82.437 44.2877 82.9638C45.1104 83.4846 46.0455 83.745 47.0931 83.745C48.1348 83.745 49.067 83.4846 49.8896 82.9638C50.7182 82.437 51.3693 81.6676 51.8428 80.6555C52.3222 79.6375 52.5619 78.3887 52.5619 76.9091ZM58.7708 70.1797V67.8182H72.8422V70.1797H67.1692V86H64.4348V70.1797H58.7708ZM88.8111 67.8182V86H86.0678V67.8182H88.8111ZM93.6594 70.1797V67.8182H107.731V70.1797H102.058V86H99.3235V70.1797H93.6594Z" fill="#273F65"/>
<defs>
<clipPath id="clip0_178_239">
<rect width="45.5278" height="45.5531" fill="white" transform="translate(62.6265) rotate(60)"/>
</clipPath>
</defs>
</svg>
