<svg width="288" height="137" viewBox="0 0 288 137" fill="none" xmlns="http://www.w3.org/2000/svg">
<path d="M10.2592 6.63849H8.5973C8.53338 6.28338 8.41442 5.97088 8.24041 5.70099C8.06641 5.43111 7.85334 5.20206 7.60121 5.01385C7.34908 4.82564 7.06676 4.68359 6.75426 4.58771C6.44531 4.49183 6.11683 4.44389 5.76882 4.44389C5.14027 4.44389 4.57741 4.60192 4.08026 4.91797C3.58665 5.23402 3.19602 5.69744 2.90838 6.30824C2.62429 6.91903 2.48224 7.66477 2.48224 8.54545C2.48224 9.43324 2.62429 10.1825 2.90838 10.7933C3.19602 11.4041 3.58842 11.8658 4.08558 12.1783C4.58274 12.4908 5.14205 12.647 5.76349 12.647C6.10795 12.647 6.43466 12.6009 6.74361 12.5085C7.05611 12.4126 7.33842 12.2724 7.59055 12.0877C7.84268 11.9031 8.05575 11.6776 8.22976 11.4112C8.40732 11.1413 8.52983 10.8324 8.5973 10.4844L10.2592 10.4897C10.1705 11.0259 9.99822 11.5195 9.74254 11.9705C9.49041 12.418 9.16548 12.805 8.76776 13.1317C8.37358 13.4549 7.92259 13.7053 7.41477 13.8828C6.90696 14.0604 6.35298 14.1491 5.75284 14.1491C4.80824 14.1491 3.96662 13.9254 3.22798 13.478C2.48935 13.027 1.90696 12.3825 1.48082 11.5444C1.05824 10.7063 0.846946 9.70668 0.846946 8.54545C0.846946 7.38068 1.06001 6.38104 1.48615 5.54652C1.91229 4.70845 2.49467 4.0657 3.23331 3.61825C3.97195 3.16726 4.81179 2.94176 5.75284 2.94176C6.33168 2.94176 6.87145 3.02521 7.37216 3.19212C7.87642 3.35547 8.32919 3.59695 8.73047 3.91655C9.13175 4.2326 9.46378 4.61967 9.72656 5.07777C9.98935 5.53232 10.1669 6.05256 10.2592 6.63849ZM13.2788 14V3.09091H14.9247V7.83168H20.3633V3.09091H22.0146V14H20.3633V9.24325H14.9247V14H13.2788ZM26.3831 14H24.636L28.5617 3.09091H30.4634L34.3892 14H32.642L29.5578 5.07244H29.4726L26.3831 14ZM26.6761 9.72798H32.3437V11.1129H26.6761V9.72798ZM37.0145 14V3.09091H40.903C41.7482 3.09091 42.4495 3.23651 43.0071 3.5277C43.5681 3.81889 43.9872 4.22195 44.2642 4.73686C44.5412 5.24822 44.6797 5.83949 44.6797 6.51065C44.6797 7.17827 44.5394 7.76598 44.2588 8.27379C43.9819 8.77805 43.5628 9.17045 43.0017 9.45099C42.4442 9.73153 41.7429 9.8718 40.8977 9.8718H37.952V8.4549H40.7485C41.2812 8.4549 41.7145 8.37855 42.0483 8.22585C42.3856 8.07315 42.6324 7.85121 42.7887 7.56001C42.9449 7.26882 43.023 6.91903 43.023 6.51065C43.023 6.09872 42.9431 5.74183 42.7833 5.43999C42.6271 5.13814 42.3803 4.90732 42.0429 4.74751C41.7091 4.58416 41.2706 4.50249 40.7272 4.50249H38.6605V14H37.0145ZM42.3998 9.07812L45.0951 14H43.2201L40.5781 9.07812H42.3998ZM48.654 14H46.9069L50.8326 3.09091H52.7343L56.6601 14H54.9129L51.8287 5.07244H51.7435L48.654 14ZM48.947 9.72798H54.6146V11.1129H48.947V9.72798ZM67.8335 6.63849H66.1715C66.1076 6.28338 65.9886 5.97088 65.8146 5.70099C65.6406 5.43111 65.4276 5.20206 65.1754 5.01385C64.9233 4.82564 64.641 4.68359 64.3285 4.58771C64.0195 4.49183 63.6911 4.44389 63.343 4.44389C62.7145 4.44389 62.1516 4.60192 61.6545 4.91797C61.1609 5.23402 60.7702 5.69744 60.4826 6.30824C60.1985 6.91903 60.0565 7.66477 60.0565 8.54545C60.0565 9.43324 60.1985 10.1825 60.4826 10.7933C60.7702 11.4041 61.1626 11.8658 61.6598 12.1783C62.157 12.4908 62.7163 12.647 63.3377 12.647C63.6822 12.647 64.0089 12.6009 64.3178 12.5085C64.6303 12.4126 64.9126 12.2724 65.1648 12.0877C65.4169 11.9031 65.63 11.6776 65.804 11.4112C65.9815 11.1413 66.104 10.8324 66.1715 10.4844L67.8335 10.4897C67.7447 11.0259 67.5724 11.5195 67.3168 11.9705C67.0646 12.418 66.7397 12.805 66.342 13.1317C65.9478 13.4549 65.4968 13.7053 64.989 13.8828C64.4812 14.0604 63.9272 14.1491 63.3271 14.1491C62.3825 14.1491 61.5408 13.9254 60.8022 13.478C60.0636 13.027 59.4812 12.3825 59.055 11.5444C58.6325 10.7063 58.4212 9.70668 58.4212 8.54545C58.4212 7.38068 58.6342 6.38104 59.0604 5.54652C59.4865 4.70845 60.0689 4.0657 60.8075 3.61825C61.5462 3.16726 62.386 2.94176 63.3271 2.94176C63.9059 2.94176 64.4457 3.02521 64.9464 3.19212C65.4506 3.35547 65.9034 3.59695 66.3047 3.91655C66.706 4.2326 67.038 4.61967 67.3008 5.07777C67.5636 5.53232 67.7411 6.05256 67.8335 6.63849ZM70.315 4.50781V3.09091H78.7578V4.50781H75.3541V14H73.7134V4.50781H70.315ZM81.6735 14V3.09091H88.513V4.50781H83.3195V7.83168H88.1561V9.24325H83.3195V12.5831H88.5769V14H81.6735ZM91.7616 14V3.09091H95.6501C96.4953 3.09091 97.1966 3.23651 97.7541 3.5277C98.3152 3.81889 98.7343 4.22195 99.0112 4.73686C99.2882 5.24822 99.4267 5.83949 99.4267 6.51065C99.4267 7.17827 99.2865 7.76598 99.0059 8.27379C98.7289 8.77805 98.3099 9.17045 97.7488 9.45099C97.1913 9.73153 96.4899 9.8718 95.6448 9.8718H92.6991V8.4549H95.4956C96.0283 8.4549 96.4615 8.37855 96.7953 8.22585C97.1327 8.07315 97.3795 7.85121 97.5357 7.56001C97.692 7.26882 97.7701 6.91903 97.7701 6.51065C97.7701 6.09872 97.6902 5.74183 97.5304 5.43999C97.3742 5.13814 97.1274 4.90732 96.79 4.74751C96.4562 4.58416 96.0176 4.50249 95.4743 4.50249H93.4075V14H91.7616ZM97.1469 9.07812L99.8422 14H97.9672L95.3252 9.07812H97.1469Z" fill="#273F65"/>
<path d="M1.43821 53V39.9091H9.55611V41.6094H3.41335V45.598H8.97443V47.2919H3.41335V53H1.43821ZM13.2451 53V39.9091H17.9113C18.9255 39.9091 19.7671 40.0838 20.4361 40.4332C21.1094 40.7827 21.6123 41.2663 21.9447 41.8842C22.277 42.4979 22.4432 43.2074 22.4432 44.0128C22.4432 44.8139 22.2749 45.5192 21.9383 46.1286C21.6059 46.7337 21.103 47.2045 20.4297 47.5412C19.7607 47.8778 18.9191 48.0462 17.9049 48.0462H14.3701V46.3459H17.7259C18.3651 46.3459 18.885 46.2543 19.2856 46.071C19.6904 45.8878 19.9866 45.6214 20.1741 45.272C20.3616 44.9226 20.4553 44.5028 20.4553 44.0128C20.4553 43.5185 20.3594 43.0902 20.1677 42.728C19.9802 42.3658 19.684 42.0888 19.2792 41.897C18.8786 41.701 18.3523 41.603 17.7003 41.603H15.2202V53H13.2451ZM19.7074 47.0938L22.9418 53H20.6918L17.5214 47.0938H19.7074ZM37.4781 46.4545C37.4781 47.8523 37.2224 49.054 36.7111 50.0597C36.1997 51.0611 35.4987 51.8324 34.6081 52.3736C33.7217 52.9105 32.7139 53.179 31.5846 53.179C30.4511 53.179 29.439 52.9105 28.5484 52.3736C27.662 51.8324 26.9632 51.0589 26.4518 50.0533C25.9405 49.0476 25.6848 47.848 25.6848 46.4545C25.6848 45.0568 25.9405 43.8572 26.4518 42.8558C26.9632 41.8501 27.662 41.0788 28.5484 40.5419C29.439 40.0007 30.4511 39.7301 31.5846 39.7301C32.7139 39.7301 33.7217 40.0007 34.6081 40.5419C35.4987 41.0788 36.1997 41.8501 36.7111 42.8558C37.2224 43.8572 37.4781 45.0568 37.4781 46.4545ZM35.5221 46.4545C35.5221 45.3892 35.3495 44.4922 35.0044 43.7635C34.6635 43.0305 34.1947 42.4766 33.5981 42.1016C33.0058 41.7223 32.3346 41.5327 31.5846 41.5327C30.8304 41.5327 30.1571 41.7223 29.5647 42.1016C28.9724 42.4766 28.5037 43.0305 28.1585 43.7635C27.8176 44.4922 27.6471 45.3892 27.6471 46.4545C27.6471 47.5199 27.8176 48.419 28.1585 49.152C28.5037 49.8807 28.9724 50.4347 29.5647 50.8139C30.1571 51.1889 30.8304 51.3764 31.5846 51.3764C32.3346 51.3764 33.0058 51.1889 33.5981 50.8139C34.1947 50.4347 34.6635 49.8807 35.0044 49.152C35.3495 48.419 35.5221 47.5199 35.5221 46.4545ZM41.2006 39.9091H43.5976L47.7653 50.0852H47.9187L52.0863 39.9091H54.4833V53H52.604V43.527H52.4826L48.6218 52.9808H47.0621L43.2013 43.5206H43.0799V53H41.2006V39.9091ZM76.01 46.4545C76.01 47.8523 75.7544 49.054 75.243 50.0597C74.7316 51.0611 74.0306 51.8324 73.14 52.3736C72.2537 52.9105 71.2458 53.179 70.1166 53.179C68.9831 53.179 67.971 52.9105 67.0804 52.3736C66.194 51.8324 65.4951 51.0589 64.9838 50.0533C64.4724 49.0476 64.2167 47.848 64.2167 46.4545C64.2167 45.0568 64.4724 43.8572 64.9838 42.8558C65.4951 41.8501 66.194 41.0788 67.0804 40.5419C67.971 40.0007 68.9831 39.7301 70.1166 39.7301C71.2458 39.7301 72.2537 40.0007 73.14 40.5419C74.0306 41.0788 74.7316 41.8501 75.243 42.8558C75.7544 43.8572 76.01 45.0568 76.01 46.4545ZM74.0541 46.4545C74.0541 45.3892 73.8815 44.4922 73.5363 43.7635C73.1954 43.0305 72.7267 42.4766 72.1301 42.1016C71.5377 41.7223 70.8666 41.5327 70.1166 41.5327C69.3623 41.5327 68.689 41.7223 68.0967 42.1016C67.5044 42.4766 67.0356 43.0305 66.6904 43.7635C66.3495 44.4922 66.1791 45.3892 66.1791 46.4545C66.1791 47.5199 66.3495 48.419 66.6904 49.152C67.0356 49.8807 67.5044 50.4347 68.0967 50.8139C68.689 51.1889 69.3623 51.3764 70.1166 51.3764C70.8666 51.3764 71.5377 51.1889 72.1301 50.8139C72.7267 50.4347 73.1954 49.8807 73.5363 49.152C73.8815 48.419 74.0541 47.5199 74.0541 46.4545ZM88.1509 39.9091H90.1324V48.5192C90.1324 49.4354 89.9172 50.2472 89.4868 50.9545C89.0564 51.6577 88.4513 52.2116 87.6715 52.6165C86.8917 53.017 85.9776 53.2173 84.9293 53.2173C83.8853 53.2173 82.9734 53.017 82.1935 52.6165C81.4137 52.2116 80.8086 51.6577 80.3782 50.9545C79.9478 50.2472 79.7326 49.4354 79.7326 48.5192V39.9091H81.7077V48.3594C81.7077 48.9517 81.8377 49.478 82.0976 49.9382C82.3618 50.3984 82.7347 50.7607 83.2162 51.0249C83.6978 51.2848 84.2688 51.4148 84.9293 51.4148C85.5941 51.4148 86.1672 51.2848 86.6488 51.0249C87.1346 50.7607 87.5053 50.3984 87.761 49.9382C88.0209 49.478 88.1509 48.9517 88.1509 48.3594V39.9091ZM93.6185 41.6094V39.9091H103.75V41.6094H99.6653V53H97.6966V41.6094H93.6185ZM114.389 43.348C114.32 42.7429 114.039 42.2741 113.545 41.9418C113.051 41.6051 112.428 41.4368 111.678 41.4368C111.141 41.4368 110.677 41.522 110.285 41.6925C109.893 41.8587 109.588 42.0888 109.371 42.3828C109.158 42.6726 109.051 43.0028 109.051 43.3736C109.051 43.6847 109.124 43.9531 109.269 44.179C109.418 44.4048 109.612 44.5945 109.85 44.7479C110.093 44.897 110.353 45.0227 110.63 45.125C110.907 45.223 111.173 45.304 111.429 45.3679L112.707 45.7003C113.125 45.8026 113.553 45.9411 113.992 46.1158C114.431 46.2905 114.838 46.5206 115.213 46.8061C115.588 47.0916 115.891 47.4453 116.121 47.8672C116.355 48.2891 116.472 48.794 116.472 49.3821C116.472 50.1236 116.281 50.782 115.897 51.3572C115.518 51.9325 114.966 52.3864 114.242 52.7188C113.521 53.0511 112.65 53.2173 111.627 53.2173C110.647 53.2173 109.799 53.0618 109.083 52.7507C108.367 52.4396 107.807 51.9986 107.402 51.4276C106.997 50.8523 106.774 50.1705 106.731 49.3821H108.712C108.751 49.8551 108.904 50.2493 109.173 50.5646C109.445 50.8757 109.793 51.108 110.215 51.2614C110.641 51.4105 111.107 51.4851 111.614 51.4851C112.173 51.4851 112.669 51.3977 113.104 51.223C113.543 51.044 113.888 50.7969 114.139 50.4815C114.391 50.1619 114.516 49.7891 114.516 49.3629C114.516 48.9751 114.406 48.6577 114.184 48.4105C113.967 48.1634 113.671 47.9588 113.296 47.7969C112.925 47.6349 112.505 47.4922 112.036 47.3686L110.489 46.9467C109.441 46.6612 108.61 46.2415 107.997 45.6875C107.387 45.1335 107.082 44.4006 107.082 43.4886C107.082 42.7344 107.287 42.076 107.696 41.5135C108.105 40.951 108.659 40.5142 109.358 40.2031C110.057 39.8878 110.845 39.7301 111.723 39.7301C112.609 39.7301 113.391 39.8857 114.069 40.1967C114.751 40.5078 115.288 40.9361 115.68 41.4815C116.072 42.0227 116.276 42.6449 116.293 43.348H114.389ZM122.068 39.9091V53H120.093V39.9091H122.068ZM130.442 53H126.204V39.9091H130.576C131.859 39.9091 132.961 40.1712 133.881 40.6953C134.802 41.2152 135.507 41.9631 135.997 42.9389C136.491 43.9105 136.738 45.076 136.738 46.4354C136.738 47.799 136.489 48.9709 135.99 49.951C135.496 50.9311 134.78 51.6854 133.843 52.2138C132.905 52.7379 131.772 53 130.442 53ZM128.179 51.2741H130.333C131.331 51.2741 132.159 51.0866 132.82 50.7116C133.481 50.3324 133.975 49.7848 134.303 49.0689C134.631 48.3487 134.795 47.4709 134.795 46.4354C134.795 45.4084 134.631 44.5369 134.303 43.821C133.979 43.1051 133.495 42.5618 132.852 42.1911C132.208 41.8203 131.409 41.6349 130.455 41.6349H128.179V51.2741ZM140.454 53V39.9091H148.662V41.6094H142.43V45.598H148.234V47.2919H142.43V51.2997H148.739V53H140.454Z" fill="#1B1C25"/>
<path d="M12.135 83.44H11.025V73.465H12.135V83.44ZM8.115 77.695H6.135V76.75H8.115V73.675H9.195V83.065H8.115V77.695ZM3.825 78.385C3.755 78.385 3.7 78.42 3.66 78.49C3.43 78.93 3.13 79.39 2.76 79.87C2.39 80.34 1.92 80.885 1.35 81.505L0.555 80.815C1.285 80.015 1.84 79.335 2.22 78.775C2.61 78.205 2.885 77.65 3.045 77.11C3.215 76.56 3.3 75.935 3.3 75.235V74.365H4.395V75.265C4.395 76.245 4.245 77.105 3.945 77.845L4.02 77.89L4.2 77.74C4.31 77.66 4.41 77.62 4.5 77.62C4.61 77.62 4.71 77.67 4.8 77.77L7.17 80.485L6.375 81.235L4.035 78.49C3.975 78.42 3.905 78.385 3.825 78.385ZM12.42 85.825V86.77H4.215C3.975 86.77 3.79 86.705 3.66 86.575C3.53 86.445 3.465 86.255 3.465 86.005V82.315H4.605V85.825H12.42ZM15.204 80.965L14.559 80.08C15.919 79.38 16.959 78.76 17.679 78.22C18.409 77.67 18.914 77.125 19.194 76.585C19.474 76.035 19.614 75.405 19.614 74.695V74.185H20.784V74.725C20.784 75.305 20.719 75.825 20.589 76.285C20.469 76.735 20.264 77.16 19.974 77.56L20.049 77.605L20.424 77.32C20.554 77.22 20.684 77.17 20.814 77.17C20.944 77.17 21.074 77.215 21.204 77.305L25.569 80.02L24.909 80.92L20.394 78.01C20.264 77.92 20.124 77.875 19.974 77.875C19.844 77.875 19.714 77.925 19.584 78.025C19.174 78.465 18.619 78.92 17.919 79.39C17.219 79.85 16.314 80.375 15.204 80.965ZM26.184 84.025V85H13.944V84.025H26.184ZM38.553 80.98H37.398V73.465H38.553V80.98ZM27.753 77.2C27.753 76.54 27.898 75.965 28.188 75.475C28.488 74.985 28.898 74.61 29.418 74.35C29.938 74.08 30.533 73.945 31.203 73.945C31.873 73.945 32.468 74.08 32.988 74.35C33.508 74.61 33.913 74.985 34.203 75.475C34.503 75.965 34.653 76.54 34.653 77.2C34.653 77.86 34.503 78.435 34.203 78.925C33.913 79.415 33.503 79.795 32.973 80.065C32.453 80.325 31.863 80.455 31.203 80.455C30.543 80.455 29.948 80.325 29.418 80.065C28.898 79.795 28.488 79.415 28.188 78.925C27.898 78.435 27.753 77.86 27.753 77.2ZM28.953 77.455C28.953 78.075 29.158 78.575 29.568 78.955C29.988 79.325 30.533 79.51 31.203 79.51C31.873 79.51 32.413 79.325 32.823 78.955C33.233 78.575 33.438 78.075 33.438 77.455V76.93C33.438 76.31 33.233 75.815 32.823 75.445C32.413 75.075 31.873 74.89 31.203 74.89C30.533 74.89 29.988 75.075 29.568 75.445C29.158 75.815 28.953 76.31 28.953 76.93V77.455ZM39.783 86.275L39.048 87.055L36.828 84.88C36.768 84.81 36.698 84.775 36.618 84.775C36.578 84.775 36.533 84.79 36.483 84.82C36.253 85.16 35.958 85.51 35.598 85.87C35.238 86.24 34.758 86.685 34.158 87.205L31.878 84.835C31.808 84.765 31.738 84.73 31.668 84.73C31.628 84.73 31.573 84.755 31.503 84.805C31.063 85.465 30.313 86.25 29.253 87.16L28.533 86.395C29.203 85.835 29.728 85.335 30.108 84.895C30.488 84.455 30.758 84.02 30.918 83.59C31.088 83.16 31.173 82.675 31.173 82.135V81.655H32.253V82.165C32.253 82.985 32.098 83.7 31.788 84.31L31.848 84.34L32.043 84.19C32.123 84.12 32.218 84.085 32.328 84.085C32.448 84.085 32.553 84.13 32.643 84.22L34.233 85.81C34.953 85.16 35.448 84.575 35.718 84.055C35.988 83.535 36.123 82.9 36.123 82.15V81.655H37.203V82.21C37.203 82.65 37.168 83.04 37.098 83.38C37.028 83.72 36.913 84.045 36.753 84.355L36.813 84.4L37.008 84.235C37.118 84.155 37.223 84.115 37.323 84.115C37.423 84.115 37.523 84.155 37.623 84.235L39.783 86.275ZM53.3221 79.555H51.1621V86.515H50.0221V73.495H51.1621V78.595H53.3221V79.555ZM48.4471 81.685L48.5971 82.6C47.0671 82.91 45.1571 83.065 42.8671 83.065H41.2771V74.53H47.2621V75.49H42.4171V82.12H42.8521C45.0521 82.12 46.9171 81.975 48.4471 81.685ZM55.5361 85.18C55.2161 85.18 54.9811 85.1 54.8311 84.94C54.6911 84.78 54.6211 84.57 54.6211 84.31V84.115C54.6211 83.855 54.6911 83.645 54.8311 83.485C54.9811 83.325 55.2161 83.245 55.5361 83.245C55.8561 83.245 56.0861 83.325 56.2261 83.485C56.3761 83.645 56.4511 83.855 56.4511 84.115V84.31C56.4511 84.57 56.3761 84.78 56.2261 84.94C56.0861 85.1 55.8561 85.18 55.5361 85.18ZM71.7929 77.26H68.9279V76.3H71.7929V73.465H72.9329V81.22H71.7929V77.26ZM65.6879 77.71C65.6179 77.71 65.5579 77.74 65.5079 77.8C65.2379 78.25 64.8829 78.715 64.4429 79.195C64.0129 79.665 63.4429 80.23 62.7329 80.89L61.8929 80.14C62.7429 79.38 63.3979 78.73 63.8579 78.19C64.3179 77.64 64.6479 77.1 64.8479 76.57C65.0579 76.03 65.1629 75.42 65.1629 74.74V73.915H66.3029V74.8C66.3029 75.73 66.1329 76.57 65.7929 77.32L65.8529 77.35L66.1079 77.14C66.2179 77.05 66.3279 77.005 66.4379 77.005C66.5479 77.005 66.6479 77.05 66.7379 77.14L69.6029 79.795L68.7779 80.59L65.8829 77.8C65.8229 77.74 65.7579 77.71 65.6879 77.71ZM73.0079 84.34C73.0079 84.89 72.8479 85.38 72.5279 85.81C72.2179 86.25 71.7479 86.595 71.1179 86.845C70.4879 87.095 69.7179 87.22 68.8079 87.22C67.8979 87.22 67.1229 87.095 66.4829 86.845C65.8529 86.595 65.3779 86.25 65.0579 85.81C64.7479 85.38 64.5929 84.89 64.5929 84.34C64.5929 83.79 64.7479 83.3 65.0579 82.87C65.3779 82.43 65.8529 82.085 66.4829 81.835C67.1229 81.585 67.8979 81.46 68.8079 81.46C69.7179 81.46 70.4879 81.585 71.1179 81.835C71.7479 82.085 72.2179 82.43 72.5279 82.87C72.8479 83.3 73.0079 83.79 73.0079 84.34ZM71.7929 84.22C71.7929 83.7 71.5429 83.265 71.0429 82.915C70.5529 82.565 69.8079 82.39 68.8079 82.39C67.8079 82.39 67.0579 82.57 66.5579 82.93C66.0579 83.28 65.8079 83.71 65.8079 84.22V84.475C65.8079 84.985 66.0579 85.415 66.5579 85.765C67.0579 86.125 67.8079 86.305 68.8079 86.305C69.8079 86.305 70.5529 86.125 71.0429 85.765C71.5429 85.415 71.7929 84.985 71.7929 84.475V84.22ZM86.307 80.29H85.152V73.465H86.307V80.29ZM79.122 77.485C79.052 77.485 78.992 77.515 78.942 77.575C78.682 77.995 78.337 78.425 77.907 78.865C77.477 79.295 76.892 79.83 76.152 80.47L75.312 79.72C76.172 79 76.832 78.385 77.292 77.875C77.752 77.355 78.082 76.84 78.282 76.33C78.492 75.82 78.597 75.245 78.597 74.605V73.84H79.752V74.68C79.752 75.58 79.577 76.38 79.227 77.08L79.302 77.11L79.542 76.9C79.662 76.81 79.772 76.765 79.872 76.765C79.982 76.765 80.087 76.81 80.187 76.9L83.067 79.405L82.257 80.215L79.332 77.575C79.272 77.515 79.202 77.485 79.122 77.485ZM86.667 86.125V87.1H78.702C78.462 87.1 78.277 87.035 78.147 86.905C78.017 86.775 77.952 86.585 77.952 86.335V83.62H85.152V82.075H77.862V81.115H86.307V84.58H79.107V86.125H86.667ZM101.076 79.795H98.961V86.515H97.821V73.495H98.961V78.835H101.076V79.795ZM94.626 75.175H90.366V74.2H94.626V75.175ZM88.371 76.975H96.396V77.905H94.176V77.995C95.086 78.445 95.541 79.31 95.541 80.59C95.541 81.24 95.406 81.805 95.136 82.285C94.866 82.755 94.491 83.115 94.011 83.365C93.541 83.615 93.016 83.74 92.436 83.74C91.856 83.74 91.326 83.615 90.846 83.365C90.376 83.115 90.006 82.755 89.736 82.285C89.466 81.805 89.331 81.24 89.331 80.59C89.331 79.31 89.786 78.445 90.696 77.995V77.905H88.371V76.975ZM94.431 80.095C94.431 79.425 94.251 78.915 93.891 78.565C93.531 78.205 93.046 78.025 92.436 78.025C91.836 78.025 91.351 78.205 90.981 78.565C90.621 78.925 90.441 79.435 90.441 80.095V80.71C90.441 81.36 90.626 81.87 90.996 82.24C91.366 82.6 91.846 82.78 92.436 82.78C93.026 82.78 93.506 82.6 93.876 82.24C94.246 81.87 94.431 81.36 94.431 80.71V80.095ZM114.45 79.555H112.29V86.515H111.15V73.495H112.29V78.595H114.45V79.555ZM109.575 81.685L109.725 82.6C108.195 82.91 106.285 83.065 103.995 83.065H102.405V74.53H108.39V75.49H103.545V82.12H103.98C106.18 82.12 108.045 81.975 109.575 81.685ZM116.664 85.18C116.344 85.18 116.109 85.1 115.959 84.94C115.819 84.78 115.749 84.57 115.749 84.31V84.115C115.749 83.855 115.819 83.645 115.959 83.485C116.109 83.325 116.344 83.245 116.664 83.245C116.984 83.245 117.214 83.325 117.354 83.485C117.504 83.645 117.579 83.855 117.579 84.115V84.31C117.579 84.57 117.504 84.78 117.354 84.94C117.214 85.1 116.984 85.18 116.664 85.18ZM134.061 73.465V80.98H132.906V73.465H134.061ZM129.846 74.125V80.095H123.591V74.125H129.846ZM128.706 75.055H124.746V79.15H128.706V75.055ZM125.841 86.245V81.82H134.121V82.78H127.011V86.035H134.256V87.01H126.591C126.351 87.01 126.166 86.945 126.036 86.815C125.906 86.685 125.841 86.495 125.841 86.245ZM137.805 76.15C137.805 75.36 138.18 74.725 138.93 74.245C139.69 73.755 140.82 73.51 142.32 73.51C143.82 73.51 144.945 73.755 145.695 74.245C146.455 74.725 146.835 75.36 146.835 76.15C146.835 76.94 146.455 77.58 145.695 78.07C144.945 78.55 143.82 78.79 142.32 78.79C140.82 78.79 139.69 78.55 138.93 78.07C138.18 77.58 137.805 76.94 137.805 76.15ZM145.62 76.255V76.045C145.62 75.565 145.345 75.17 144.795 74.86C144.255 74.55 143.43 74.395 142.32 74.395C141.21 74.395 140.38 74.55 139.83 74.86C139.29 75.17 139.02 75.565 139.02 76.045V76.255C139.02 76.725 139.295 77.115 139.845 77.425C140.395 77.735 141.22 77.89 142.32 77.89C143.42 77.89 144.245 77.735 144.795 77.425C145.345 77.115 145.62 76.725 145.62 76.255ZM148.44 79.915V80.89H136.2V79.915H148.44ZM138.015 86.23V82.3H146.625V86.995H138.765C138.525 86.995 138.34 86.93 138.21 86.8C138.08 86.67 138.015 86.48 138.015 86.23ZM145.5 83.23H139.14V86.05H145.5V83.23ZM160.809 73.465V81.355H159.654V73.465H160.809ZM150.819 80.995L149.979 80.275C150.829 79.595 151.484 79.01 151.944 78.52C152.414 78.03 152.754 77.545 152.964 77.065C153.174 76.585 153.279 76.04 153.279 75.43V75.28H150.399V74.32H157.314V75.28H154.419V75.475C154.419 76.325 154.244 77.08 153.894 77.74L153.984 77.8L154.224 77.62C154.334 77.53 154.444 77.485 154.554 77.485C154.664 77.485 154.779 77.53 154.899 77.62L157.749 80.02L156.894 80.77L154.014 78.25C153.944 78.19 153.864 78.16 153.774 78.16C153.694 78.16 153.624 78.19 153.564 78.25C153.294 78.65 152.944 79.065 152.514 79.495C152.084 79.915 151.519 80.415 150.819 80.995ZM152.229 82.165H160.809V87.145H159.684V83.125H152.229V82.165ZM175.578 79.795H173.463V86.515H172.323V73.495H173.463V78.835H175.578V79.795ZM169.128 75.175H164.868V74.2H169.128V75.175ZM162.873 76.975H170.898V77.905H168.678V77.995C169.588 78.445 170.043 79.31 170.043 80.59C170.043 81.24 169.908 81.805 169.638 82.285C169.368 82.755 168.993 83.115 168.513 83.365C168.043 83.615 167.518 83.74 166.938 83.74C166.358 83.74 165.828 83.615 165.348 83.365C164.878 83.115 164.508 82.755 164.238 82.285C163.968 81.805 163.833 81.24 163.833 80.59C163.833 79.31 164.288 78.445 165.198 77.995V77.905H162.873V76.975ZM168.933 80.095C168.933 79.425 168.753 78.915 168.393 78.565C168.033 78.205 167.548 78.025 166.938 78.025C166.338 78.025 165.853 78.205 165.483 78.565C165.123 78.925 164.943 79.435 164.943 80.095V80.71C164.943 81.36 165.128 81.87 165.498 82.24C165.868 82.6 166.348 82.78 166.938 82.78C167.528 82.78 168.008 82.6 168.378 82.24C168.748 81.87 168.933 81.36 168.933 80.71V80.095ZM188.952 79.555H186.792V86.515H185.652V73.495H186.792V78.595H188.952V79.555ZM184.077 81.685L184.227 82.6C182.697 82.91 180.787 83.065 178.497 83.065H176.907V74.53H182.892V75.49H178.047V82.12H178.482C180.682 82.12 182.547 81.975 184.077 81.685ZM191.166 85.18C190.846 85.18 190.611 85.1 190.461 84.94C190.321 84.78 190.251 84.57 190.251 84.31V84.115C190.251 83.855 190.321 83.645 190.461 83.485C190.611 83.325 190.846 83.245 191.166 83.245C191.486 83.245 191.716 83.325 191.856 83.485C192.006 83.645 192.081 83.855 192.081 84.115V84.31C192.081 84.57 192.006 84.78 191.856 84.94C191.716 85.1 191.486 85.18 191.166 85.18ZM209.568 84.04V85H197.328V84.04H202.878V80.575H199.098V74.35H207.843V75.325H200.238V79.6H207.978V80.575H204.018V84.04H209.568ZM220.797 77.005V73.465H221.937V83.35H220.797V77.965H218.067V77.005H220.797ZM214.797 78.415C214.727 78.415 214.662 78.445 214.602 78.505C214.332 78.925 213.987 79.36 213.567 79.81C213.147 80.25 212.587 80.79 211.887 81.43L211.032 80.695C211.872 79.975 212.522 79.355 212.982 78.835C213.442 78.305 213.772 77.785 213.972 77.275C214.182 76.755 214.287 76.175 214.287 75.535V75.385H211.422V74.44H218.262V75.385H215.427V75.595C215.427 76.485 215.252 77.28 214.902 77.98L214.992 78.025L215.217 77.845C215.327 77.765 215.432 77.725 215.532 77.725C215.652 77.725 215.772 77.775 215.892 77.875L218.697 80.425L217.857 81.16L215.022 78.505C214.962 78.445 214.887 78.415 214.797 78.415ZM222.207 85.825V86.77H214.347C214.107 86.77 213.922 86.705 213.792 86.575C213.662 86.445 213.597 86.255 213.597 86.005V82.45H214.752V85.825H222.207ZM225.696 75.865C225.696 75.135 226.071 74.555 226.821 74.125C227.571 73.685 228.696 73.465 230.196 73.465C231.696 73.465 232.821 73.685 233.571 74.125C234.321 74.555 234.696 75.135 234.696 75.865C234.696 76.595 234.321 77.18 233.571 77.62C232.821 78.06 231.696 78.28 230.196 78.28C228.696 78.28 227.571 78.06 226.821 77.62C226.071 77.18 225.696 76.595 225.696 75.865ZM233.481 75.94V75.775C233.481 75.345 233.206 74.995 232.656 74.725C232.116 74.445 231.296 74.305 230.196 74.305C229.096 74.305 228.271 74.445 227.721 74.725C227.181 74.995 226.911 75.345 226.911 75.775V75.94C226.911 76.37 227.181 76.725 227.721 77.005C228.271 77.275 229.096 77.41 230.196 77.41C231.296 77.41 232.116 77.275 232.656 77.005C233.206 76.725 233.481 76.37 233.481 75.94ZM236.316 79.315V80.275H224.076V79.315H236.316ZM225.981 86.335V83.875H233.376V82.465H225.891V81.535H234.471V84.745H227.076V86.17H234.861V87.1H226.731C226.491 87.1 226.306 87.035 226.176 86.905C226.046 86.775 225.981 86.585 225.981 86.335ZM251.525 79.345H242.825V73.945H251.405V74.92H243.98V78.37H251.525V79.345ZM253.235 82.135H247.685V87.01H246.545V82.135H240.995V81.16H253.235V82.135ZM265.559 73.465V86.485H264.434V80.65H261.689V79.72H264.434V77.44H261.689V76.495H264.434V73.465H265.559ZM262.034 82.09L262.184 83.005C260.664 83.305 258.834 83.455 256.694 83.455H255.164V78.34H259.649V75.4H255.119V74.44H260.774V79.27H256.289V82.51H256.754C258.794 82.51 260.554 82.37 262.034 82.09ZM278.993 73.465V86.485H277.868V83.44H274.613V82.51H277.868V73.465H278.993ZM268.493 76.525C268.493 75.985 268.643 75.51 268.943 75.1C269.253 74.69 269.678 74.375 270.218 74.155C270.758 73.935 271.368 73.825 272.048 73.825C272.728 73.825 273.333 73.935 273.863 74.155C274.403 74.375 274.823 74.69 275.123 75.1C275.433 75.51 275.588 75.985 275.588 76.525C275.588 77.075 275.433 77.555 275.123 77.965C274.823 78.365 274.403 78.675 273.863 78.895C273.333 79.115 272.728 79.225 272.048 79.225C271.358 79.225 270.743 79.115 270.203 78.895C269.673 78.675 269.253 78.365 268.943 77.965C268.643 77.555 268.493 77.075 268.493 76.525ZM269.678 76.66C269.678 77.16 269.898 77.565 270.338 77.875C270.778 78.175 271.348 78.325 272.048 78.325C272.748 78.325 273.318 78.175 273.758 77.875C274.198 77.565 274.418 77.16 274.418 76.66V76.39C274.418 75.89 274.198 75.49 273.758 75.19C273.318 74.88 272.748 74.725 272.048 74.725C271.348 74.725 270.778 74.88 270.338 75.19C269.898 75.49 269.678 75.89 269.678 76.39V76.66ZM272.648 81.4V86.365H271.523V81.46C270.173 81.51 268.943 81.535 267.833 81.535L267.728 80.575C269.428 80.575 271.068 80.535 272.648 80.455C274.228 80.375 275.568 80.25 276.668 80.08L276.788 80.995C275.648 81.175 274.268 81.31 272.648 81.4ZM13.2 102.795H11.085V109.515H9.945V96.495H11.085V101.835H13.2V102.795ZM6.75 98.175H2.49V97.2H6.75V98.175ZM0.495 99.975H8.52V100.905H6.3V100.995C7.21 101.445 7.665 102.31 7.665 103.59C7.665 104.24 7.53 104.805 7.26 105.285C6.99 105.755 6.615 106.115 6.135 106.365C5.665 106.615 5.14 106.74 4.56 106.74C3.98 106.74 3.45 106.615 2.97 106.365C2.5 106.115 2.13 105.755 1.86 105.285C1.59 104.805 1.455 104.24 1.455 103.59C1.455 102.31 1.91 101.445 2.82 100.995V100.905H0.495V99.975ZM6.555 103.095C6.555 102.425 6.375 101.915 6.015 101.565C5.655 101.205 5.17 101.025 4.56 101.025C3.96 101.025 3.475 101.205 3.105 101.565C2.745 101.925 2.565 102.435 2.565 103.095V103.71C2.565 104.36 2.75 104.87 3.12 105.24C3.49 105.6 3.97 105.78 4.56 105.78C5.15 105.78 5.63 105.6 6 105.24C6.37 104.87 6.555 104.36 6.555 103.71V103.095ZM25.104 96.465V109.485H23.964V96.465H25.104ZM18.834 101.97C18.974 101.97 19.089 102.025 19.179 102.135L22.119 105.585L21.264 106.32L18.294 102.75C18.244 102.69 18.184 102.66 18.114 102.66C18.054 102.66 17.999 102.69 17.949 102.75C17.679 103.3 17.324 103.86 16.884 104.43C16.444 105 15.844 105.7 15.084 106.53L14.229 105.81C15.099 104.9 15.769 104.11 16.239 103.44C16.719 102.77 17.064 102.105 17.274 101.445C17.484 100.775 17.589 100.015 17.589 99.165V98.595H14.634V97.635H21.669V98.595H18.729V99.21C18.729 100.34 18.554 101.345 18.204 102.225L18.279 102.27L18.504 102.09C18.614 102.01 18.724 101.97 18.834 101.97ZM43.508 99.42V100.38H41.423V103.245H40.283V96.465H41.423V99.42H43.508ZM34.388 103.245C33.728 103.245 33.138 103.115 32.618 102.855C32.108 102.595 31.708 102.225 31.418 101.745C31.128 101.255 30.983 100.69 30.983 100.05C30.983 99.41 31.128 98.85 31.418 98.37C31.708 97.89 32.108 97.52 32.618 97.26C33.138 97 33.728 96.87 34.388 96.87C35.038 96.87 35.618 97 36.128 97.26C36.648 97.52 37.053 97.89 37.343 98.37C37.633 98.85 37.778 99.41 37.778 100.05C37.778 100.69 37.633 101.255 37.343 101.745C37.053 102.225 36.648 102.595 36.128 102.855C35.618 103.115 35.038 103.245 34.388 103.245ZM34.388 102.33C35.038 102.33 35.568 102.145 35.978 101.775C36.388 101.405 36.593 100.915 36.593 100.305V99.81C36.593 99.2 36.388 98.715 35.978 98.355C35.568 97.985 35.038 97.8 34.388 97.8C33.728 97.8 33.193 97.985 32.783 98.355C32.373 98.715 32.168 99.2 32.168 99.81V100.305C32.168 100.915 32.373 101.405 32.783 101.775C33.193 102.145 33.728 102.33 34.388 102.33ZM37.763 104.91V103.995H40.928V104.91H37.763ZM36.128 108.3L36.413 109.245C36.023 109.415 35.558 109.555 35.018 109.665C34.478 109.785 33.913 109.845 33.323 109.845H33.053C32.813 109.845 32.628 109.78 32.498 109.65C32.368 109.52 32.303 109.33 32.303 109.08V104.505H33.368V108.825H33.563C34.033 108.825 34.493 108.77 34.943 108.66C35.403 108.56 35.798 108.44 36.128 108.3ZM36.158 106.095H42.533V106.95H40.823V107.04C41.143 107.19 41.383 107.39 41.543 107.64C41.703 107.89 41.783 108.175 41.783 108.495C41.783 109.015 41.563 109.45 41.123 109.8C40.683 110.16 40.093 110.34 39.353 110.34C38.603 110.34 38.008 110.16 37.568 109.8C37.128 109.45 36.908 109.015 36.908 108.495C36.908 108.165 36.988 107.875 37.148 107.625C37.308 107.375 37.553 107.175 37.883 107.025V106.95H36.158V106.095ZM40.823 108.24C40.823 107.86 40.693 107.56 40.433 107.34C40.183 107.12 39.853 107.01 39.443 107.01H39.248C38.838 107.01 38.503 107.12 38.243 107.34C37.993 107.56 37.868 107.86 37.868 108.24C37.868 108.62 37.993 108.92 38.243 109.14C38.503 109.36 38.838 109.47 39.248 109.47H39.443C39.853 109.47 40.183 109.36 40.433 109.14C40.693 108.92 40.823 108.62 40.823 108.24ZM54.737 101.655H46.112V96.945H47.237V100.71H54.737V101.655ZM56.477 103.32V104.295H44.237V103.32H56.477ZM47.132 108.795H54.902V109.755H46.742C46.502 109.755 46.317 109.69 46.187 109.56C46.057 109.43 45.992 109.24 45.992 108.99V105.705H47.132V108.795ZM70.241 102.555H68.081V109.515H66.941V96.495H68.081V101.595H70.241V102.555ZM65.366 104.685L65.516 105.6C63.986 105.91 62.076 106.065 59.786 106.065H58.196V97.53H64.181V98.49H59.336V105.12H59.771C61.971 105.12 63.836 104.975 65.366 104.685ZM72.455 108.18C72.135 108.18 71.9 108.1 71.75 107.94C71.61 107.78 71.54 107.57 71.54 107.31V107.115C71.54 106.855 71.61 106.645 71.75 106.485C71.9 106.325 72.135 106.245 72.455 106.245C72.775 106.245 73.005 106.325 73.145 106.485C73.295 106.645 73.37 106.855 73.37 107.115V107.31C73.37 107.57 73.295 107.78 73.145 107.94C73.005 108.1 72.775 108.18 72.455 108.18ZM79.9819 101.325L79.3819 100.485C80.6819 100.035 81.6819 99.625 82.3819 99.255C83.0819 98.885 83.5719 98.515 83.8519 98.145C84.1319 97.765 84.2719 97.33 84.2719 96.84V96.525H85.3969V96.885C85.3969 97.295 85.3369 97.665 85.2169 97.995C85.0969 98.315 84.9069 98.615 84.6469 98.895L84.7519 98.925L85.1269 98.655C85.2869 98.545 85.4369 98.49 85.5769 98.49C85.6669 98.49 85.7769 98.515 85.9069 98.565L90.0919 100.44L89.4769 101.28L85.0819 99.255C84.9519 99.185 84.8119 99.15 84.6619 99.15C84.5019 99.15 84.3619 99.19 84.2419 99.27L84.2269 99.285C83.8169 99.605 83.2719 99.925 82.5919 100.245C81.9119 100.565 81.0419 100.925 79.9819 101.325ZM90.8569 102.42V103.365H78.6169V102.42H84.1669V100.74H85.3069V102.42H90.8569ZM81.6019 109.17H89.4019V110.1H81.2719C81.0319 110.1 80.8469 110.035 80.7169 109.905C80.5869 109.775 80.5219 109.585 80.5219 109.335V106.89H87.9169V105.495H80.4319V104.565H89.0119V107.76H81.6019V109.17ZM103.226 96.465V104.355H102.071V96.465H103.226ZM93.2359 103.995L92.3959 103.275C93.2459 102.595 93.9009 102.01 94.3609 101.52C94.8309 101.03 95.1709 100.545 95.3809 100.065C95.5909 99.585 95.6959 99.04 95.6959 98.43V98.28H92.8159V97.32H99.7309V98.28H96.8359V98.475C96.8359 99.325 96.6609 100.08 96.3109 100.74L96.4009 100.8L96.6409 100.62C96.7509 100.53 96.8609 100.485 96.9709 100.485C97.0809 100.485 97.1959 100.53 97.3159 100.62L100.166 103.02L99.3109 103.77L96.4309 101.25C96.3609 101.19 96.2809 101.16 96.1909 101.16C96.1109 101.16 96.0409 101.19 95.9809 101.25C95.7109 101.65 95.3609 102.065 94.9309 102.495C94.5009 102.915 93.9359 103.415 93.2359 103.995ZM94.6459 105.165H103.226V110.145H102.101V106.125H94.6459V105.165ZM117.995 102.795H115.88V109.515H114.74V96.495H115.88V101.835H117.995V102.795ZM111.545 98.175H107.285V97.2H111.545V98.175ZM105.29 99.975H113.315V100.905H111.095V100.995C112.005 101.445 112.46 102.31 112.46 103.59C112.46 104.24 112.325 104.805 112.055 105.285C111.785 105.755 111.41 106.115 110.93 106.365C110.46 106.615 109.935 106.74 109.355 106.74C108.775 106.74 108.245 106.615 107.765 106.365C107.295 106.115 106.925 105.755 106.655 105.285C106.385 104.805 106.25 104.24 106.25 103.59C106.25 102.31 106.705 101.445 107.615 100.995V100.905H105.29V99.975ZM111.35 103.095C111.35 102.425 111.17 101.915 110.81 101.565C110.45 101.205 109.965 101.025 109.355 101.025C108.755 101.025 108.27 101.205 107.9 101.565C107.54 101.925 107.36 102.435 107.36 103.095V103.71C107.36 104.36 107.545 104.87 107.915 105.24C108.285 105.6 108.765 105.78 109.355 105.78C109.945 105.78 110.425 105.6 110.795 105.24C111.165 104.87 111.35 104.36 111.35 103.71V103.095ZM131.369 102.555H129.209V109.515H128.069V96.495H129.209V101.595H131.369V102.555ZM126.494 104.685L126.644 105.6C125.114 105.91 123.204 106.065 120.914 106.065H119.324V97.53H125.309V98.49H120.464V105.12H120.899C123.099 105.12 124.964 104.975 126.494 104.685ZM133.583 108.18C133.263 108.18 133.028 108.1 132.878 107.94C132.738 107.78 132.668 107.57 132.668 107.31V107.115C132.668 106.855 132.738 106.645 132.878 106.485C133.028 106.325 133.263 106.245 133.583 106.245C133.903 106.245 134.133 106.325 134.273 106.485C134.423 106.645 134.498 106.855 134.498 107.115V107.31C134.498 107.57 134.423 107.78 134.273 107.94C134.133 108.1 133.903 108.18 133.583 108.18ZM146.435 102.93V104.565H150.14V107.79H142.745V109.2H150.53V110.145H142.4C142.16 110.145 141.975 110.08 141.845 109.95C141.715 109.82 141.65 109.63 141.65 109.38V106.905H149.045V105.495H141.56V104.565H145.31V102.93H139.745V102H148.655C148.795 101.35 148.9 100.715 148.97 100.095L141.11 100.395L140.99 99.51L149.045 99.27C149.075 98.77 149.09 98.245 149.09 97.695H141.44V96.795H150.215V97.8C150.215 99.27 150.07 100.67 149.78 102H151.985V102.93H146.435ZM165.749 102.795H163.634V109.515H162.494V96.495H163.634V101.835H165.749V102.795ZM159.299 98.175H155.039V97.2H159.299V98.175ZM153.044 99.975H161.069V100.905H158.849V100.995C159.759 101.445 160.214 102.31 160.214 103.59C160.214 104.24 160.079 104.805 159.809 105.285C159.539 105.755 159.164 106.115 158.684 106.365C158.214 106.615 157.689 106.74 157.109 106.74C156.529 106.74 155.999 106.615 155.519 106.365C155.049 106.115 154.679 105.755 154.409 105.285C154.139 104.805 154.004 104.24 154.004 103.59C154.004 102.31 154.459 101.445 155.369 100.995V100.905H153.044V99.975ZM159.104 103.095C159.104 102.425 158.924 101.915 158.564 101.565C158.204 101.205 157.719 101.025 157.109 101.025C156.509 101.025 156.024 101.205 155.654 101.565C155.294 101.925 155.114 102.435 155.114 103.095V103.71C155.114 104.36 155.299 104.87 155.669 105.24C156.039 105.6 156.519 105.78 157.109 105.78C157.699 105.78 158.179 105.6 158.549 105.24C158.919 104.87 159.104 104.36 159.104 103.71V103.095ZM179.123 102.555H176.963V109.515H175.823V96.495H176.963V101.595H179.123V102.555ZM174.248 104.685L174.398 105.6C172.868 105.91 170.958 106.065 168.668 106.065H167.078V97.53H173.063V98.49H168.218V105.12H168.653C170.853 105.12 172.718 104.975 174.248 104.685ZM181.337 108.18C181.017 108.18 180.782 108.1 180.632 107.94C180.492 107.78 180.422 107.57 180.422 107.31V107.115C180.422 106.855 180.492 106.645 180.632 106.485C180.782 106.325 181.017 106.245 181.337 106.245C181.657 106.245 181.887 106.325 182.027 106.485C182.177 106.645 182.252 106.855 182.252 107.115V107.31C182.252 107.57 182.177 107.78 182.027 107.94C181.887 108.1 181.657 108.18 181.337 108.18ZM197.519 96.465H198.659V109.485H197.519V96.465ZM188.264 97.5H194.519V105.855H188.264V97.5ZM193.394 104.91V98.445H189.374V104.91H193.394ZM212.438 96.465V109.485H211.328V102.495H209.258V109.125H208.163V96.69H209.258V101.55H211.328V96.465H212.438ZM207.068 104.925L207.218 105.825C206.048 106.125 204.543 106.275 202.703 106.275H201.473V101.4H205.208V98.67H201.428V97.725H206.303V102.33H202.568V105.345H202.988C204.558 105.345 205.918 105.205 207.068 104.925ZM225.812 96.465V109.485H224.717V96.465H225.812ZM221.762 96.69H222.827V109.125H221.762V102.3H220.322C220.272 103.6 219.982 104.58 219.452 105.24C218.922 105.89 218.222 106.215 217.352 106.215C216.422 106.215 215.687 105.855 215.147 105.135C214.607 104.405 214.337 103.32 214.337 101.88C214.337 100.44 214.607 99.36 215.147 98.64C215.687 97.91 216.422 97.545 217.352 97.545C218.212 97.545 218.902 97.865 219.422 98.505C219.952 99.145 220.252 100.095 220.322 101.355H221.762V96.69ZM219.182 101.16C219.182 100.28 219.012 99.61 218.672 99.15C218.342 98.69 217.902 98.46 217.352 98.46C216.792 98.46 216.342 98.69 216.002 99.15C215.672 99.61 215.507 100.28 215.507 101.16V102.615C215.507 103.485 215.672 104.155 216.002 104.625C216.342 105.085 216.792 105.315 217.352 105.315C217.902 105.315 218.342 105.085 218.672 104.625C219.012 104.155 219.182 103.485 219.182 102.615V101.16ZM242.731 96.465V109.485H241.621V102.495H239.566V109.125H238.471V96.69H239.566V101.55H241.621V96.465H242.731ZM237.331 104.7L237.481 105.6C236.271 105.91 234.776 106.065 232.996 106.065H231.766V97.8H236.611V98.76H232.861V105.12H233.266C234.906 105.12 236.261 104.98 237.331 104.7ZM257.185 100.92V101.88H255.1V106.5H253.96V96.465H255.1V100.92H257.185ZM250.525 97.83H246.52V96.87H250.525V97.83ZM248.425 104.94C247.805 104.94 247.26 104.835 246.79 104.625C246.32 104.415 245.955 104.125 245.695 103.755C245.445 103.385 245.32 102.965 245.32 102.495C245.32 102.025 245.43 101.615 245.65 101.265C245.88 100.905 246.22 100.63 246.67 100.44V100.365H244.33V99.42H252.46V100.365H250.18V100.44C250.63 100.63 250.965 100.905 251.185 101.265C251.415 101.615 251.53 102.025 251.53 102.495C251.53 102.965 251.4 103.385 251.14 103.755C250.89 104.125 250.53 104.415 250.06 104.625C249.59 104.835 249.045 104.94 248.425 104.94ZM248.305 103.98H248.56C249.12 103.98 249.575 103.83 249.925 103.53C250.285 103.22 250.465 102.79 250.465 102.24C250.465 101.69 250.29 101.26 249.94 100.95C249.59 100.64 249.13 100.485 248.56 100.485H248.305C247.735 100.485 247.275 100.64 246.925 100.95C246.575 101.25 246.4 101.68 246.4 102.24C246.4 102.79 246.575 103.22 246.925 103.53C247.285 103.83 247.745 103.98 248.305 103.98ZM248.065 108.9H255.4V109.845H247.675C247.435 109.845 247.25 109.78 247.12 109.65C246.99 109.52 246.925 109.33 246.925 109.08V106.08H248.065V108.9ZM272.694 96.465V104.28H271.554V100.965H268.644V100.005H271.554V96.465H272.694ZM262.584 104.16L261.969 103.29C263.309 102.76 264.329 102.285 265.029 101.865C265.729 101.435 266.219 100.99 266.499 100.53C266.789 100.06 266.934 99.49 266.934 98.82V98.22H262.344V97.26H268.089V98.7C268.089 99.58 267.924 100.315 267.594 100.905C267.274 101.495 266.724 102.04 265.944 102.54C265.174 103.03 264.054 103.57 262.584 104.16ZM264.099 105.09H272.694V110.145H271.569V106.05H264.099V105.09ZM284.928 99.69V96.465H286.068V104.295H284.928V100.62H282.198V99.69H284.928ZM276.018 103.845L275.163 103.125C276.003 102.465 276.653 101.895 277.113 101.415C277.573 100.925 277.903 100.445 278.103 99.975C278.313 99.495 278.418 98.96 278.418 98.37V98.22H275.553V97.26H282.393V98.22H279.558V98.415C279.558 99.265 279.383 100.01 279.033 100.65L279.123 100.695L279.363 100.515C279.473 100.435 279.583 100.395 279.693 100.395C279.823 100.395 279.938 100.44 280.038 100.53L282.828 102.87L281.988 103.62L279.153 101.16C279.073 101.1 278.998 101.07 278.928 101.07C278.848 101.07 278.778 101.1 278.718 101.16C278.448 101.55 278.103 101.95 277.683 102.36C277.263 102.77 276.708 103.265 276.018 103.845ZM286.143 107.4C286.143 107.94 285.983 108.42 285.663 108.84C285.353 109.27 284.878 109.605 284.238 109.845C283.608 110.095 282.838 110.22 281.928 110.22C281.008 110.22 280.228 110.095 279.588 109.845C278.958 109.605 278.483 109.27 278.163 108.84C277.853 108.42 277.698 107.94 277.698 107.4C277.698 106.86 277.853 106.38 278.163 105.96C278.483 105.53 278.958 105.195 279.588 104.955C280.228 104.705 281.008 104.58 281.928 104.58C282.838 104.58 283.608 104.705 284.238 104.955C284.878 105.195 285.353 105.53 285.663 105.96C285.983 106.38 286.143 106.86 286.143 107.4ZM284.943 107.28C284.943 106.77 284.693 106.345 284.193 106.005C283.693 105.655 282.938 105.48 281.928 105.48C280.908 105.48 280.143 105.655 279.633 106.005C279.133 106.345 278.883 106.77 278.883 107.28V107.535C278.883 108.035 279.133 108.455 279.633 108.795C280.143 109.145 280.908 109.32 281.928 109.32C282.938 109.32 283.693 109.145 284.193 108.795C284.693 108.455 284.943 108.035 284.943 107.535V107.28ZM10.59 119.465H11.73V132.485H10.59V119.465ZM0.96 124.73C0.96 123.27 1.28 122.165 1.92 121.415C2.57 120.665 3.425 120.29 4.485 120.29C5.535 120.29 6.38 120.665 7.02 121.415C7.67 122.165 7.995 123.27 7.995 124.73C7.995 125.71 7.845 126.535 7.545 127.205C7.245 127.865 6.83 128.36 6.3 128.69C5.77 129.01 5.165 129.17 4.485 129.17C3.425 129.17 2.57 128.795 1.92 128.045C1.28 127.295 0.96 126.19 0.96 124.73ZM6.78 125.315V124.145C6.78 123.215 6.565 122.5 6.135 122C5.715 121.5 5.165 121.25 4.485 121.25C3.795 121.25 3.235 121.5 2.805 122C2.385 122.49 2.175 123.205 2.175 124.145V125.315C2.175 126.255 2.385 126.975 2.805 127.475C3.235 127.965 3.795 128.21 4.485 128.21C5.165 128.21 5.715 127.96 6.135 127.46C6.565 126.96 6.78 126.245 6.78 125.315ZM30.1339 122.42V123.38H28.0489V126.245H26.9089V119.465H28.0489V122.42H30.1339ZM24.0889 125.945H17.9389V120.095H24.0889V125.945ZM22.9639 121.025H19.0639V125.015H22.9639V121.025ZM27.5539 127.91H24.4039V126.995H27.5539V127.91ZM22.7539 131.3L23.0389 132.245C22.6489 132.415 22.1839 132.555 21.6439 132.665C21.1039 132.785 20.5389 132.845 19.9489 132.845H19.6789C19.4389 132.845 19.2539 132.78 19.1239 132.65C18.9939 132.52 18.9289 132.33 18.9289 132.08V127.505H19.9939V131.825H20.1889C20.6589 131.825 21.1189 131.77 21.5689 131.66C22.0289 131.56 22.4239 131.44 22.7539 131.3ZM22.7839 129.095H29.1589V129.95H27.4489V130.04C27.7689 130.19 28.0089 130.39 28.1689 130.64C28.3289 130.89 28.4089 131.175 28.4089 131.495C28.4089 132.015 28.1889 132.45 27.7489 132.8C27.3089 133.16 26.7189 133.34 25.9789 133.34C25.2289 133.34 24.6339 133.16 24.1939 132.8C23.7539 132.45 23.5339 132.015 23.5339 131.495C23.5339 131.165 23.6139 130.875 23.7739 130.625C23.9339 130.375 24.1789 130.175 24.5089 130.025V129.95H22.7839V129.095ZM27.4489 131.24C27.4489 130.86 27.3189 130.56 27.0589 130.34C26.8089 130.12 26.4789 130.01 26.0689 130.01H25.8739C25.4639 130.01 25.1289 130.12 24.8689 130.34C24.6189 130.56 24.4939 130.86 24.4939 131.24C24.4939 131.62 24.6189 131.92 24.8689 132.14C25.1289 132.36 25.4639 132.47 25.8739 132.47H26.0689C26.4789 132.47 26.8089 132.36 27.0589 132.14C27.3189 131.92 27.4489 131.62 27.4489 131.24ZM43.493 125.555H41.333V132.515H40.193V119.495H41.333V124.595H43.493V125.555ZM38.618 127.685L38.768 128.6C37.238 128.91 35.328 129.065 33.038 129.065H31.448V120.53H37.433V121.49H32.588V128.12H33.023C35.223 128.12 37.088 127.975 38.618 127.685ZM45.707 131.18C45.387 131.18 45.152 131.1 45.002 130.94C44.862 130.78 44.792 130.57 44.792 130.31V130.115C44.792 129.855 44.862 129.645 45.002 129.485C45.152 129.325 45.387 129.245 45.707 129.245C46.027 129.245 46.257 129.325 46.397 129.485C46.547 129.645 46.622 129.855 46.622 130.115V130.31C46.622 130.57 46.547 130.78 46.397 130.94C46.257 131.1 46.027 131.18 45.707 131.18ZM64.4988 125.555H62.3388V132.515H61.1988V119.495H62.3388V124.595H64.4988V125.555ZM59.7138 127.91L59.8638 128.825C58.3438 129.125 56.4138 129.275 54.0738 129.275H52.4838V120.455H58.5138V121.4H53.6088V124.295H58.3188V125.225H53.6088V128.345H54.1038C56.2938 128.345 58.1638 128.2 59.7138 127.91ZM76.4779 119.465V129.35H75.3229V119.465H76.4779ZM65.6779 123.515C65.6779 122.815 65.8229 122.205 66.1129 121.685C66.4129 121.165 66.8229 120.77 67.3429 120.5C67.8629 120.22 68.4579 120.08 69.1279 120.08C69.7879 120.08 70.3779 120.22 70.8979 120.5C71.4279 120.77 71.8379 121.165 72.1279 121.685C72.4279 122.205 72.5779 122.815 72.5779 123.515C72.5779 124.205 72.4279 124.81 72.1279 125.33C71.8379 125.85 71.4279 126.25 70.8979 126.53C70.3779 126.8 69.7879 126.935 69.1279 126.935C68.4579 126.935 67.8629 126.8 67.3429 126.53C66.8229 126.25 66.4129 125.855 66.1129 125.345C65.8229 124.825 65.6779 124.215 65.6779 123.515ZM71.3629 123.83V123.2C71.3629 122.54 71.1529 122.015 70.7329 121.625C70.3229 121.225 69.7879 121.025 69.1279 121.025C68.4579 121.025 67.9129 121.225 67.4929 121.625C67.0829 122.025 66.8779 122.55 66.8779 123.2V123.83C66.8779 124.48 67.0879 125.005 67.5079 125.405C67.9279 125.795 68.4679 125.99 69.1279 125.99C69.7879 125.99 70.3229 125.795 70.7329 125.405C71.1529 125.005 71.3629 124.48 71.3629 123.83ZM68.1379 132.005V128.27H69.2929V131.825H76.7479V132.77H68.8879C68.6479 132.77 68.4629 132.705 68.3329 132.575C68.2029 132.445 68.1379 132.255 68.1379 132.005ZM88.6669 119.465H89.7919V132.485H88.6669V119.465ZM79.3069 123.365C79.3069 122.745 79.4619 122.2 79.7719 121.73C80.0819 121.25 80.5069 120.885 81.0469 120.635C81.5869 120.375 82.1969 120.245 82.8769 120.245C83.5569 120.245 84.1669 120.375 84.7069 120.635C85.2469 120.885 85.6719 121.25 85.9819 121.73C86.2919 122.2 86.4469 122.745 86.4469 123.365C86.4469 123.985 86.2919 124.53 85.9819 125C85.6719 125.47 85.2469 125.835 84.7069 126.095C84.1669 126.345 83.5569 126.47 82.8769 126.47C82.1969 126.47 81.5869 126.345 81.0469 126.095C80.5069 125.835 80.0819 125.47 79.7719 125C79.4619 124.53 79.3069 123.985 79.3069 123.365ZM85.2469 123.545V123.185C85.2469 122.585 85.0269 122.1 84.5869 121.73C84.1469 121.36 83.5769 121.175 82.8769 121.175C82.1769 121.175 81.6069 121.36 81.1669 121.73C80.7269 122.1 80.5069 122.585 80.5069 123.185V123.545C80.5069 124.145 80.7269 124.63 81.1669 125C81.6069 125.37 82.1769 125.555 82.8769 125.555C83.5769 125.555 84.1469 125.37 84.5869 125C85.0269 124.63 85.2469 124.145 85.2469 123.545ZM78.6769 128.78C80.3769 128.78 82.0169 128.74 83.5969 128.66C85.1769 128.58 86.5169 128.455 87.6169 128.285L87.7369 129.2C86.6069 129.38 85.2469 129.52 83.6569 129.62C82.0769 129.71 80.4519 129.755 78.7819 129.755L78.6769 128.78ZM106.771 119.465V126.29H105.616V119.465H106.771ZM95.9708 122.9C95.9708 122.27 96.1158 121.72 96.4058 121.25C96.7058 120.78 97.1158 120.42 97.6358 120.17C98.1658 119.91 98.7608 119.78 99.4208 119.78C100.081 119.78 100.671 119.91 101.191 120.17C101.721 120.42 102.131 120.78 102.421 121.25C102.721 121.72 102.871 122.27 102.871 122.9C102.871 123.53 102.721 124.08 102.421 124.55C102.131 125.02 101.721 125.385 101.191 125.645C100.671 125.895 100.081 126.02 99.4208 126.02C98.7608 126.02 98.1658 125.895 97.6358 125.645C97.1158 125.385 96.7058 125.02 96.4058 124.55C96.1158 124.08 95.9708 123.53 95.9708 122.9ZM101.656 123.125V122.675C101.656 122.075 101.451 121.6 101.041 121.25C100.631 120.89 100.091 120.71 99.4208 120.71C98.7508 120.71 98.2058 120.89 97.7858 121.25C97.3758 121.61 97.1708 122.085 97.1708 122.675V123.125C97.1708 123.715 97.3808 124.19 97.8008 124.55C98.2208 124.91 98.7608 125.09 99.4208 125.09C100.081 125.09 100.616 124.91 101.026 124.55C101.446 124.19 101.656 123.715 101.656 123.125ZM98.4158 132.335V129.62H105.616V128.075H98.3258V127.115H106.771V130.58H99.5708V132.125H107.131V133.1H99.1658C98.9258 133.1 98.7408 133.035 98.6108 132.905C98.4808 132.775 98.4158 132.585 98.4158 132.335ZM120.475 119.465V132.485H119.38V119.465H120.475ZM116.425 119.69H117.49V132.125H116.425V125.3H114.985C114.935 126.6 114.645 127.58 114.115 128.24C113.585 128.89 112.885 129.215 112.015 129.215C111.085 129.215 110.35 128.855 109.81 128.135C109.27 127.405 109 126.32 109 124.88C109 123.44 109.27 122.36 109.81 121.64C110.35 120.91 111.085 120.545 112.015 120.545C112.875 120.545 113.565 120.865 114.085 121.505C114.615 122.145 114.915 123.095 114.985 124.355H116.425V119.69ZM113.845 124.16C113.845 123.28 113.675 122.61 113.335 122.15C113.005 121.69 112.565 121.46 112.015 121.46C111.455 121.46 111.005 121.69 110.665 122.15C110.335 122.61 110.17 123.28 110.17 124.16V125.615C110.17 126.485 110.335 127.155 110.665 127.625C111.005 128.085 111.455 128.315 112.015 128.315C112.565 128.315 113.005 128.085 113.335 127.625C113.675 127.155 113.845 126.485 113.845 125.615V124.16ZM138.459 123.86V124.82H136.479V129.47H135.354V119.465H136.479V123.86H138.459ZM132.099 121.31H126.549V120.365H133.209V121.325C133.209 122.595 133.049 123.89 132.729 125.21L131.649 125.045C131.939 123.965 132.089 122.795 132.099 121.535V121.31ZM134.319 126.995C133.209 127.175 131.884 127.315 130.344 127.415C128.804 127.505 127.214 127.55 125.574 127.55L125.469 126.59C126.529 126.59 127.584 126.575 128.634 126.545V123.62H129.744V126.5C131.614 126.42 133.104 126.29 134.214 126.11L134.319 126.995ZM129.264 131.825H136.749V132.77H128.874C128.634 132.77 128.449 132.705 128.319 132.575C128.189 132.445 128.124 132.255 128.124 132.005V128.84H129.264V131.825ZM150.438 119.465V126.98H149.283V119.465H150.438ZM143.268 123.725C143.198 123.725 143.133 123.76 143.073 123.83C142.813 124.26 142.473 124.7 142.053 125.15C141.633 125.59 141.048 126.155 140.298 126.845L139.443 126.11C140.303 125.35 140.963 124.7 141.423 124.16C141.883 123.62 142.213 123.085 142.413 122.555C142.623 122.025 142.728 121.425 142.728 120.755V119.945H143.883V120.83C143.883 121.76 143.708 122.59 143.358 123.32L143.433 123.365L143.673 123.155C143.783 123.065 143.893 123.02 144.003 123.02C144.113 123.02 144.218 123.065 144.318 123.155L147.198 125.78L146.373 126.575L143.463 123.815C143.403 123.755 143.338 123.725 143.268 123.725ZM142.188 127.79H150.438V133.025H142.938C142.698 133.025 142.513 132.96 142.383 132.83C142.253 132.7 142.188 132.51 142.188 132.26V127.79ZM143.328 132.065H149.283V128.735H143.328V132.065ZM162.597 119.465H163.737V132.485H162.597V119.465ZM152.967 124.73C152.967 123.27 153.287 122.165 153.927 121.415C154.577 120.665 155.432 120.29 156.492 120.29C157.542 120.29 158.387 120.665 159.027 121.415C159.677 122.165 160.002 123.27 160.002 124.73C160.002 125.71 159.852 126.535 159.552 127.205C159.252 127.865 158.837 128.36 158.307 128.69C157.777 129.01 157.172 129.17 156.492 129.17C155.432 129.17 154.577 128.795 153.927 128.045C153.287 127.295 152.967 126.19 152.967 124.73ZM158.787 125.315V124.145C158.787 123.215 158.572 122.5 158.142 122C157.722 121.5 157.172 121.25 156.492 121.25C155.802 121.25 155.242 121.5 154.812 122C154.392 122.49 154.182 123.205 154.182 124.145V125.315C154.182 126.255 154.392 126.975 154.812 127.475C155.242 127.965 155.802 128.21 156.492 128.21C157.172 128.21 157.722 127.96 158.142 127.46C158.572 126.96 158.787 126.245 158.787 125.315ZM173.306 126.335C172.656 126.335 172.071 126.205 171.551 125.945C171.031 125.675 170.626 125.295 170.336 124.805C170.046 124.315 169.901 123.745 169.901 123.095C169.901 122.435 170.046 121.86 170.336 121.37C170.626 120.88 171.026 120.505 171.536 120.245C172.056 119.985 172.646 119.855 173.306 119.855C174.216 119.855 174.981 120.1 175.601 120.59C176.221 121.08 176.586 121.745 176.696 122.585H179.591V119.465H180.731V126.695H179.591V123.53H176.696C176.596 124.39 176.236 125.075 175.616 125.585C174.996 126.085 174.226 126.335 173.306 126.335ZM173.306 125.42C173.966 125.42 174.501 125.23 174.911 124.85C175.321 124.47 175.526 123.97 175.526 123.35V122.84C175.526 122.22 175.321 121.72 174.911 121.34C174.501 120.96 173.966 120.77 173.306 120.77C172.646 120.77 172.111 120.96 171.701 121.34C171.301 121.71 171.101 122.21 171.101 122.84V123.35C171.101 123.98 171.301 124.485 171.701 124.865C172.111 125.235 172.646 125.42 173.306 125.42ZM175.211 127.46H176.231V133.025H172.196C171.956 133.025 171.771 132.96 171.641 132.83C171.511 132.7 171.446 132.51 171.446 132.26V127.46H172.466V129.32H175.211V127.46ZM182.081 132.44L181.301 133.13L179.306 130.85C179.246 130.79 179.191 130.76 179.141 130.76C179.091 130.76 179.051 130.775 179.021 130.805C178.821 131.145 178.561 131.505 178.241 131.885C177.931 132.275 177.526 132.74 177.026 133.28L176.261 132.605C176.911 131.915 177.401 131.34 177.731 130.88C178.071 130.42 178.311 129.965 178.451 129.515C178.601 129.065 178.676 128.535 178.676 127.925V127.46H179.711V127.97C179.711 128.87 179.566 129.645 179.276 130.295L179.321 130.34L179.471 130.205C179.581 130.125 179.681 130.085 179.771 130.085C179.871 130.085 179.966 130.13 180.056 130.22L182.081 132.44ZM175.211 130.175H172.466V132.155H175.211V130.175ZM195.5 125.555H193.34V132.515H192.2V119.495H193.34V124.595H195.5V125.555ZM190.625 127.685L190.775 128.6C189.245 128.91 187.335 129.065 185.045 129.065H183.455V120.53H189.44V121.49H184.595V128.12H185.03C187.23 128.12 189.095 127.975 190.625 127.685ZM197.714 131.18C197.394 131.18 197.159 131.1 197.009 130.94C196.869 130.78 196.799 130.57 196.799 130.31V130.115C196.799 129.855 196.869 129.645 197.009 129.485C197.159 129.325 197.394 129.245 197.714 129.245C198.034 129.245 198.264 129.325 198.404 129.485C198.554 129.645 198.629 129.855 198.629 130.115V130.31C198.629 130.57 198.554 130.78 198.404 130.94C198.264 131.1 198.034 131.18 197.714 131.18Z" fill="#1B1C25"/>
</svg>
