<svg width="288" height="137" viewBox="0 0 288 137" fill="none" xmlns="http://www.w3.org/2000/svg">
<path d="M198.028 6.63849H196.366C196.302 6.28338 196.183 5.97088 196.009 5.70099C195.835 5.43111 195.622 5.20206 195.37 5.01385C195.118 4.82564 194.836 4.68359 194.523 4.58771C194.214 4.49183 193.886 4.44389 193.538 4.44389C192.909 4.44389 192.346 4.60192 191.849 4.91797C191.356 5.23402 190.965 5.69744 190.677 6.30824C190.393 6.91903 190.251 7.66477 190.251 8.54545C190.251 9.43324 190.393 10.1825 190.677 10.7933C190.965 11.4041 191.357 11.8658 191.855 12.1783C192.352 12.4908 192.911 12.647 193.532 12.647C193.877 12.647 194.204 12.6009 194.513 12.5085C194.825 12.4126 195.107 12.2724 195.359 12.0877C195.612 11.9031 195.825 11.6776 195.999 11.4112C196.176 11.1413 196.299 10.8324 196.366 10.4844L198.028 10.4897C197.939 11.0259 197.767 11.5195 197.511 11.9705C197.259 12.418 196.934 12.805 196.537 13.1317C196.143 13.4549 195.692 13.7053 195.184 13.8828C194.676 14.0604 194.122 14.1491 193.522 14.1491C192.577 14.1491 191.736 13.9254 190.997 13.478C190.258 13.027 189.676 12.3825 189.25 11.5444C188.827 10.7063 188.616 9.70668 188.616 8.54545C188.616 7.38068 188.829 6.38104 189.255 5.54652C189.681 4.70845 190.264 4.0657 191.002 3.61825C191.741 3.16726 192.581 2.94176 193.522 2.94176C194.101 2.94176 194.64 3.02521 195.141 3.19212C195.645 3.35547 196.098 3.59695 196.499 3.91655C196.901 4.2326 197.233 4.61967 197.496 5.07777C197.758 5.53232 197.936 6.05256 198.028 6.63849ZM201.048 14V3.09091H202.694V7.83168H208.132V3.09091H209.784V14H208.132V9.24325H202.694V14H201.048ZM214.152 14H212.405L216.331 3.09091H218.232L222.158 14H220.411L217.327 5.07244H217.242L214.152 14ZM214.445 9.72798H220.113V11.1129H214.445V9.72798ZM224.783 14V3.09091H228.672C229.517 3.09091 230.218 3.23651 230.776 3.5277C231.337 3.81889 231.756 4.22195 232.033 4.73686C232.31 5.24822 232.449 5.83949 232.449 6.51065C232.449 7.17827 232.308 7.76598 232.028 8.27379C231.751 8.77805 231.332 9.17045 230.771 9.45099C230.213 9.73153 229.512 9.8718 228.667 9.8718H225.721V8.4549H228.517C229.05 8.4549 229.483 8.37855 229.817 8.22585C230.155 8.07315 230.401 7.85121 230.558 7.56001C230.714 7.26882 230.792 6.91903 230.792 6.51065C230.792 6.09872 230.712 5.74183 230.552 5.43999C230.396 5.13814 230.149 4.90732 229.812 4.74751C229.478 4.58416 229.04 4.50249 228.496 4.50249H226.429V14H224.783ZM230.169 9.07812L232.864 14H230.989L228.347 9.07812H230.169ZM236.423 14H234.676L238.602 3.09091H240.503L244.429 14H242.682L239.598 5.07244H239.512L236.423 14ZM236.716 9.72798H242.384V11.1129H236.716V9.72798ZM255.602 6.63849H253.94C253.877 6.28338 253.758 5.97088 253.584 5.70099C253.41 5.43111 253.197 5.20206 252.944 5.01385C252.692 4.82564 252.41 4.68359 252.097 4.58771C251.788 4.49183 251.46 4.44389 251.112 4.44389C250.483 4.44389 249.921 4.60192 249.423 4.91797C248.93 5.23402 248.539 5.69744 248.252 6.30824C247.967 6.91903 247.825 7.66477 247.825 8.54545C247.825 9.43324 247.967 10.1825 248.252 10.7933C248.539 11.4041 248.932 11.8658 249.429 12.1783C249.926 12.4908 250.485 12.647 251.107 12.647C251.451 12.647 251.778 12.6009 252.087 12.5085C252.399 12.4126 252.682 12.2724 252.934 12.0877C253.186 11.9031 253.399 11.6776 253.573 11.4112C253.75 11.1413 253.873 10.8324 253.94 10.4844L255.602 10.4897C255.514 11.0259 255.341 11.5195 255.086 11.9705C254.834 12.418 254.509 12.805 254.111 13.1317C253.717 13.4549 253.266 13.7053 252.758 13.8828C252.25 14.0604 251.696 14.1491 251.096 14.1491C250.151 14.1491 249.31 13.9254 248.571 13.478C247.833 13.027 247.25 12.3825 246.824 11.5444C246.401 10.7063 246.19 9.70668 246.19 8.54545C246.19 7.38068 246.403 6.38104 246.829 5.54652C247.255 4.70845 247.838 4.0657 248.576 3.61825C249.315 3.16726 250.155 2.94176 251.096 2.94176C251.675 2.94176 252.215 3.02521 252.715 3.19212C253.22 3.35547 253.672 3.59695 254.074 3.91655C254.475 4.2326 254.807 4.61967 255.07 5.07777C255.333 5.53232 255.51 6.05256 255.602 6.63849ZM258.084 4.50781V3.09091H266.527V4.50781H263.123V14H261.482V4.50781H258.084ZM269.442 14V3.09091H276.282V4.50781H271.088V7.83168H275.925V9.24325H271.088V12.5831H276.346V14H269.442ZM279.531 14V3.09091H283.419C284.264 3.09091 284.966 3.23651 285.523 3.5277C286.084 3.81889 286.503 4.22195 286.78 4.73686C287.057 5.24822 287.196 5.83949 287.196 6.51065C287.196 7.17827 287.055 7.76598 286.775 8.27379C286.498 8.77805 286.079 9.17045 285.518 9.45099C284.96 9.73153 284.259 9.8718 283.414 9.8718H280.468V8.4549H283.265C283.797 8.4549 284.23 8.37855 284.564 8.22585C284.902 8.07315 285.148 7.85121 285.305 7.56001C285.461 7.26882 285.539 6.91903 285.539 6.51065C285.539 6.09872 285.459 5.74183 285.299 5.43999C285.143 5.13814 284.896 4.90732 284.559 4.74751C284.225 4.58416 283.787 4.50249 283.243 4.50249H281.176V14H279.531ZM284.916 9.07812L287.611 14H285.736L283.094 9.07812H284.916Z" fill="#273F65"/>
<path d="M161.368 53V39.9091H169.485V41.6094H163.343V45.598H168.904V47.2919H163.343V53H161.368ZM173.174 53V39.9091H177.841C178.855 39.9091 179.696 40.0838 180.365 40.4332C181.039 40.7827 181.542 41.2663 181.874 41.8842C182.206 42.4979 182.373 43.2074 182.373 44.0128C182.373 44.8139 182.204 45.5192 181.868 46.1286C181.535 46.7337 181.032 47.2045 180.359 47.5412C179.69 47.8778 178.848 48.0462 177.834 48.0462H174.299V46.3459H177.655C178.294 46.3459 178.814 46.2543 179.215 46.071C179.62 45.8878 179.916 45.6214 180.103 45.272C180.291 44.9226 180.385 44.5028 180.385 44.0128C180.385 43.5185 180.289 43.0902 180.097 42.728C179.909 42.3658 179.613 42.0888 179.208 41.897C178.808 41.701 178.282 41.603 177.63 41.603H175.15V53H173.174ZM179.637 47.0938L182.871 53H180.621L177.451 47.0938H179.637ZM197.407 46.4545C197.407 47.8523 197.152 49.054 196.64 50.0597C196.129 51.0611 195.428 51.8324 194.537 52.3736C193.651 52.9105 192.643 53.179 191.514 53.179C190.38 53.179 189.368 52.9105 188.478 52.3736C187.591 51.8324 186.892 51.0589 186.381 50.0533C185.87 49.0476 185.614 47.848 185.614 46.4545C185.614 45.0568 185.87 43.8572 186.381 42.8558C186.892 41.8501 187.591 41.0788 188.478 40.5419C189.368 40.0007 190.38 39.7301 191.514 39.7301C192.643 39.7301 193.651 40.0007 194.537 40.5419C195.428 41.0788 196.129 41.8501 196.64 42.8558C197.152 43.8572 197.407 45.0568 197.407 46.4545ZM195.451 46.4545C195.451 45.3892 195.279 44.4922 194.934 43.7635C194.593 43.0305 194.124 42.4766 193.527 42.1016C192.935 41.7223 192.264 41.5327 191.514 41.5327C190.76 41.5327 190.086 41.7223 189.494 42.1016C188.902 42.4766 188.433 43.0305 188.088 43.7635C187.747 44.4922 187.576 45.3892 187.576 46.4545C187.576 47.5199 187.747 48.419 188.088 49.152C188.433 49.8807 188.902 50.4347 189.494 50.8139C190.086 51.1889 190.76 51.3764 191.514 51.3764C192.264 51.3764 192.935 51.1889 193.527 50.8139C194.124 50.4347 194.593 49.8807 194.934 49.152C195.279 48.419 195.451 47.5199 195.451 46.4545ZM201.13 39.9091H203.527L207.695 50.0852H207.848L212.016 39.9091H214.413V53H212.533V43.527H212.412L208.551 52.9808H206.991L203.131 43.5206H203.009V53H201.13V39.9091ZM226.543 39.9091V53H224.568V39.9091H226.543ZM241.246 39.9091V53H239.43L232.776 43.3991H232.655V53H230.679V39.9091H232.508L239.168 49.5227H239.29V39.9091H241.246ZM252.527 43.348C252.458 42.7429 252.177 42.2741 251.683 41.9418C251.189 41.6051 250.566 41.4368 249.816 41.4368C249.279 41.4368 248.815 41.522 248.423 41.6925C248.031 41.8587 247.726 42.0888 247.509 42.3828C247.296 42.6726 247.189 43.0028 247.189 43.3736C247.189 43.6847 247.262 43.9531 247.407 44.179C247.556 44.4048 247.75 44.5945 247.988 44.7479C248.231 44.897 248.491 45.0227 248.768 45.125C249.045 45.223 249.311 45.304 249.567 45.3679L250.846 45.7003C251.263 45.8026 251.691 45.9411 252.13 46.1158C252.569 46.2905 252.976 46.5206 253.351 46.8061C253.726 47.0916 254.029 47.4453 254.259 47.8672C254.493 48.2891 254.61 48.794 254.61 49.3821C254.61 50.1236 254.419 50.782 254.035 51.3572C253.656 51.9325 253.104 52.3864 252.38 52.7188C251.659 53.0511 250.788 53.2173 249.765 53.2173C248.785 53.2173 247.937 53.0618 247.221 52.7507C246.505 52.4396 245.945 51.9986 245.54 51.4276C245.135 50.8523 244.912 50.1705 244.869 49.3821H246.85C246.889 49.8551 247.042 50.2493 247.311 50.5646C247.583 50.8757 247.931 51.108 248.353 51.2614C248.779 51.4105 249.245 51.4851 249.752 51.4851C250.311 51.4851 250.807 51.3977 251.242 51.223C251.681 51.044 252.026 50.7969 252.277 50.4815C252.529 50.1619 252.654 49.7891 252.654 49.3629C252.654 48.9751 252.544 48.6577 252.322 48.4105C252.105 48.1634 251.809 47.9588 251.434 47.7969C251.063 47.6349 250.643 47.4922 250.174 47.3686L248.627 46.9467C247.579 46.6612 246.748 46.2415 246.135 45.6875C245.525 45.1335 245.221 44.4006 245.221 43.4886C245.221 42.7344 245.425 42.076 245.834 41.5135C246.243 40.951 246.797 40.5142 247.496 40.2031C248.195 39.8878 248.983 39.7301 249.861 39.7301C250.748 39.7301 251.529 39.8857 252.207 40.1967C252.889 40.5078 253.426 40.9361 253.818 41.4815C254.21 42.0227 254.414 42.6449 254.431 43.348H252.527ZM260.206 39.9091V53H258.231V39.9091H260.206ZM268.58 53H264.342V39.9091H268.714C269.997 39.9091 271.099 40.1712 272.019 40.6953C272.94 41.2152 273.645 41.9631 274.135 42.9389C274.629 43.9105 274.876 45.076 274.876 46.4354C274.876 47.799 274.627 48.9709 274.128 49.951C273.634 50.9311 272.918 51.6854 271.981 52.2138C271.043 52.7379 269.91 53 268.58 53ZM266.317 51.2741H268.472C269.469 51.2741 270.298 51.0866 270.958 50.7116C271.619 50.3324 272.113 49.7848 272.441 49.0689C272.769 48.3487 272.933 47.4709 272.933 46.4354C272.933 45.4084 272.769 44.5369 272.441 43.821C272.117 43.1051 271.633 42.5618 270.99 42.1911C270.347 41.8203 269.548 41.6349 268.593 41.6349H266.317V51.2741ZM278.592 53V39.9091H286.8V41.6094H280.568V45.598H286.372V47.2919H280.568V51.2997H286.877V53H278.592Z" fill="#1B1C25"/>
<path d="M8.04621 74.755H4.95621V73.84H9.14121V74.665C9.14121 76.025 8.79121 77.38 8.09121 78.73L7.05621 78.445C7.37621 77.835 7.62121 77.24 7.79121 76.66C7.97121 76.07 8.05621 75.435 8.04621 74.755ZM13.5662 74.755H10.2362V73.84H14.6612V74.74C14.6612 75.47 14.6062 76.155 14.4962 76.795C14.3962 77.425 14.2512 78.06 14.0612 78.7L12.9962 78.505C13.3862 77.295 13.5762 76.045 13.5662 74.755ZM16.1762 79.825V80.8H3.93621V79.825H9.65121V77.095H10.7462V79.825H16.1762ZM5.75121 82.3H14.3612V87.025H6.50121C6.26121 87.025 6.07621 86.96 5.94621 86.83C5.81621 86.7 5.75121 86.51 5.75121 86.26V82.3ZM6.87621 86.08H13.2362V83.23H6.87621V86.08ZM21.4202 74.755H18.3302V73.84H22.5152V74.665C22.5152 76.025 22.1652 77.38 21.4652 78.73L20.4302 78.445C20.7502 77.835 20.9952 77.24 21.1652 76.66C21.3452 76.07 21.4302 75.435 21.4202 74.755ZM26.9402 74.755H23.6102V73.84H28.0352V74.74C28.0352 75.47 27.9802 76.155 27.8702 76.795C27.7702 77.425 27.6252 78.06 27.4352 78.7L26.3702 78.505C26.7602 77.295 26.9502 76.045 26.9402 74.755ZM29.5502 79.825V80.8H17.3102V79.825H23.0252V77.095H24.1202V79.825H29.5502ZM19.1252 82.3H27.7352V87.025H19.8752C19.6352 87.025 19.4502 86.96 19.3202 86.83C19.1902 86.7 19.1252 86.51 19.1252 86.26V82.3ZM20.2502 86.08H26.6102V83.23H20.2502V86.08ZM43.3143 79.795H41.1993V86.515H40.0593V73.495H41.1993V78.835H43.3143V79.795ZM36.8643 75.175H32.6043V74.2H36.8643V75.175ZM30.6093 76.975H38.6343V77.905H36.4143V77.995C37.3243 78.445 37.7793 79.31 37.7793 80.59C37.7793 81.24 37.6443 81.805 37.3743 82.285C37.1043 82.755 36.7293 83.115 36.2493 83.365C35.7793 83.615 35.2543 83.74 34.6743 83.74C34.0943 83.74 33.5643 83.615 33.0843 83.365C32.6143 83.115 32.2443 82.755 31.9743 82.285C31.7043 81.805 31.5693 81.24 31.5693 80.59C31.5693 79.31 32.0243 78.445 32.9343 77.995V77.905H30.6093V76.975ZM36.6693 80.095C36.6693 79.425 36.4893 78.915 36.1293 78.565C35.7693 78.205 35.2843 78.025 34.6743 78.025C34.0743 78.025 33.5893 78.205 33.2193 78.565C32.8593 78.925 32.6793 79.435 32.6793 80.095V80.71C32.6793 81.36 32.8643 81.87 33.2343 82.24C33.6043 82.6 34.0843 82.78 34.6743 82.78C35.2643 82.78 35.7443 82.6 36.1143 82.24C36.4843 81.87 36.6693 81.36 36.6693 80.71V80.095ZM56.6883 79.555H54.5283V86.515H53.3883V73.495H54.5283V78.595H56.6883V79.555ZM51.8133 81.685L51.9633 82.6C50.4333 82.91 48.5233 83.065 46.2333 83.065H44.6433V74.53H50.6283V75.49H45.7833V82.12H46.2183C48.4183 82.12 50.2833 81.975 51.8133 81.685ZM58.9023 85.18C58.5823 85.18 58.3473 85.1 58.1973 84.94C58.0573 84.78 57.9873 84.57 57.9873 84.31V84.115C57.9873 83.855 58.0573 83.645 58.1973 83.485C58.3473 83.325 58.5823 83.245 58.9023 83.245C59.2223 83.245 59.4523 83.325 59.5923 83.485C59.7423 83.645 59.8173 83.855 59.8173 84.115V84.31C59.8173 84.57 59.7423 84.78 59.5923 84.94C59.4523 85.1 59.2223 85.18 58.9023 85.18ZM70.6291 74.95H66.4741V73.99H75.8941V74.95H71.7841C71.7741 75.36 71.7141 75.73 71.6041 76.06C71.5041 76.39 71.3341 76.705 71.0941 77.005L71.1541 77.035L71.4541 76.81C71.5941 76.71 71.7341 76.66 71.8741 76.66C72.0041 76.66 72.1141 76.685 72.2041 76.735L76.4491 78.955L75.8191 79.81L71.4091 77.44C71.2791 77.37 71.1491 77.335 71.0191 77.335C70.9191 77.335 70.8291 77.355 70.7491 77.395C70.3591 77.775 69.8291 78.16 69.1591 78.55C68.4891 78.94 67.6141 79.375 66.5341 79.855L65.9191 79C67.1191 78.49 68.0541 78.025 68.7241 77.605C69.3941 77.185 69.8691 76.77 70.1491 76.36C70.4391 75.95 70.5991 75.48 70.6291 74.95ZM77.3041 82.135H71.7541V87.01H70.6141V82.135H65.0641V81.175H77.3041V82.135ZM90.6782 84.04V85H78.4382V84.04H83.9882V80.575H80.2082V74.35H88.9532V75.325H81.3482V79.6H89.0882V80.575H85.1282V84.04H90.6782ZM103.047 73.465V81.355H101.907V77.74H99.1772V76.81H101.907V73.465H103.047ZM92.9972 81.025L92.1422 80.305C92.9822 79.615 93.6322 79.025 94.0922 78.535C94.5522 78.035 94.8822 77.545 95.0822 77.065C95.2922 76.585 95.3972 76.04 95.3972 75.43V75.265H92.5322V74.305H99.3722V75.265H96.5372V75.49C96.5372 76.34 96.3622 77.095 96.0122 77.755L96.1022 77.8L96.3422 77.635C96.4522 77.545 96.5622 77.5 96.6722 77.5C96.8022 77.5 96.9172 77.545 97.0172 77.635L99.8072 80.035L98.9672 80.785L96.1322 78.28C96.0522 78.22 95.9772 78.19 95.9072 78.19C95.8272 78.19 95.7572 78.22 95.6972 78.28C95.4372 78.67 95.1022 79.07 94.6922 79.48C94.2822 79.88 93.7172 80.395 92.9972 81.025ZM94.4522 82.165H103.047V87.145H101.922V83.125H94.4522V82.165ZM115.206 73.465H116.346V86.485H115.206V73.465ZM105.576 78.73C105.576 77.27 105.896 76.165 106.536 75.415C107.186 74.665 108.041 74.29 109.101 74.29C110.151 74.29 110.996 74.665 111.636 75.415C112.286 76.165 112.611 77.27 112.611 78.73C112.611 79.71 112.461 80.535 112.161 81.205C111.861 81.865 111.446 82.36 110.916 82.69C110.386 83.01 109.781 83.17 109.101 83.17C108.041 83.17 107.186 82.795 106.536 82.045C105.896 81.295 105.576 80.19 105.576 78.73ZM111.396 79.315V78.145C111.396 77.215 111.181 76.5 110.751 76C110.331 75.5 109.781 75.25 109.101 75.25C108.411 75.25 107.851 75.5 107.421 76C107.001 76.49 106.791 77.205 106.791 78.145V79.315C106.791 80.255 107.001 80.975 107.421 81.475C107.851 81.965 108.411 82.21 109.101 82.21C109.781 82.21 110.331 81.96 110.751 81.46C111.181 80.96 111.396 80.245 111.396 79.315ZM131.19 79.555H129.03V86.515H127.89V73.495H129.03V78.595H131.19V79.555ZM126.315 81.685L126.465 82.6C124.935 82.91 123.025 83.065 120.735 83.065H119.145V74.53H125.13V75.49H120.285V82.12H120.72C122.92 82.12 124.785 81.975 126.315 81.685ZM133.404 85.18C133.084 85.18 132.849 85.1 132.699 84.94C132.559 84.78 132.489 84.57 132.489 84.31V84.115C132.489 83.855 132.559 83.645 132.699 83.485C132.849 83.325 133.084 83.245 133.404 83.245C133.724 83.245 133.954 83.325 134.094 83.485C134.244 83.645 134.319 83.855 134.319 84.115V84.31C134.319 84.57 134.244 84.78 134.094 84.94C133.954 85.1 133.724 85.18 133.404 85.18ZM148.011 80.845H146.916V73.675H148.011V76.825H150.021V73.465H151.131V81.25H150.021V77.755H148.011V80.845ZM142.866 78.01C142.796 78.01 142.731 78.045 142.671 78.115C142.441 78.535 142.136 78.975 141.756 79.435C141.386 79.885 140.916 80.395 140.346 80.965L139.551 80.275C140.291 79.515 140.851 78.865 141.231 78.325C141.621 77.785 141.896 77.26 142.056 76.75C142.226 76.23 142.311 75.635 142.311 74.965V74.155H143.406V74.995C143.406 75.965 143.256 76.79 142.956 77.47L143.031 77.515L143.211 77.365C143.321 77.275 143.421 77.23 143.511 77.23C143.611 77.23 143.711 77.28 143.811 77.38L146.211 79.945L145.431 80.695L143.046 78.1C143.006 78.04 142.946 78.01 142.866 78.01ZM151.191 84.4C151.191 84.94 151.031 85.42 150.711 85.84C150.391 86.27 149.911 86.605 149.271 86.845C148.631 87.095 147.851 87.22 146.931 87.22C146.011 87.22 145.231 87.095 144.591 86.845C143.951 86.605 143.471 86.27 143.151 85.84C142.831 85.42 142.671 84.94 142.671 84.4C142.671 83.86 142.831 83.38 143.151 82.96C143.471 82.53 143.951 82.195 144.591 81.955C145.231 81.705 146.011 81.58 146.931 81.58C147.851 81.58 148.631 81.705 149.271 81.955C149.911 82.195 150.391 82.53 150.711 82.96C151.031 83.38 151.191 83.86 151.191 84.4ZM149.976 84.28C149.976 83.78 149.721 83.36 149.211 83.02C148.711 82.67 147.951 82.495 146.931 82.495C145.911 82.495 145.146 82.67 144.636 83.02C144.126 83.36 143.871 83.78 143.871 84.28V84.535C143.871 84.845 143.976 85.135 144.186 85.405C144.406 85.675 144.746 85.89 145.206 86.05C145.666 86.22 146.241 86.305 146.931 86.305C147.951 86.305 148.711 86.13 149.211 85.78C149.721 85.44 149.976 85.025 149.976 84.535V84.28ZM165.585 77.815H163.5V81.28H162.36V73.465H163.5V76.855H165.585V77.815ZM153.825 81.16L153.21 80.29C154.56 79.76 155.585 79.285 156.285 78.865C156.995 78.435 157.49 77.99 157.77 77.53C158.06 77.06 158.205 76.49 158.205 75.82V75.22H153.585V74.26H159.36V75.7C159.36 76.58 159.195 77.315 158.865 77.905C158.545 78.495 157.995 79.04 157.215 79.54C156.435 80.03 155.305 80.57 153.825 81.16ZM155.055 82.09H163.5V87.145H162.375V83.05H155.055V82.09ZM176.334 73.465H177.474V86.485H176.334V73.465ZM166.704 78.73C166.704 77.27 167.024 76.165 167.664 75.415C168.314 74.665 169.169 74.29 170.229 74.29C171.279 74.29 172.124 74.665 172.764 75.415C173.414 76.165 173.739 77.27 173.739 78.73C173.739 79.71 173.589 80.535 173.289 81.205C172.989 81.865 172.574 82.36 172.044 82.69C171.514 83.01 170.909 83.17 170.229 83.17C169.169 83.17 168.314 82.795 167.664 82.045C167.024 81.295 166.704 80.19 166.704 78.73ZM172.524 79.315V78.145C172.524 77.215 172.309 76.5 171.879 76C171.459 75.5 170.909 75.25 170.229 75.25C169.539 75.25 168.979 75.5 168.549 76C168.129 76.49 167.919 77.205 167.919 78.145V79.315C167.919 80.255 168.129 80.975 168.549 81.475C168.979 81.965 169.539 82.21 170.229 82.21C170.909 82.21 171.459 81.96 171.879 81.46C172.309 80.96 172.524 80.245 172.524 79.315ZM195.878 76.42V77.38H193.793V80.245H192.653V73.465H193.793V76.42H195.878ZM189.833 79.945H183.683V74.095H189.833V79.945ZM188.708 75.025H184.808V79.015H188.708V75.025ZM193.298 81.91H190.148V80.995H193.298V81.91ZM188.498 85.3L188.783 86.245C188.393 86.415 187.928 86.555 187.388 86.665C186.848 86.785 186.283 86.845 185.693 86.845H185.423C185.183 86.845 184.998 86.78 184.868 86.65C184.738 86.52 184.673 86.33 184.673 86.08V81.505H185.738V85.825H185.933C186.403 85.825 186.863 85.77 187.313 85.66C187.773 85.56 188.168 85.44 188.498 85.3ZM188.528 83.095H194.903V83.95H193.193V84.04C193.513 84.19 193.753 84.39 193.913 84.64C194.073 84.89 194.153 85.175 194.153 85.495C194.153 86.015 193.933 86.45 193.493 86.8C193.053 87.16 192.463 87.34 191.723 87.34C190.973 87.34 190.378 87.16 189.938 86.8C189.498 86.45 189.278 86.015 189.278 85.495C189.278 85.165 189.358 84.875 189.518 84.625C189.678 84.375 189.923 84.175 190.253 84.025V83.95H188.528V83.095ZM193.193 85.24C193.193 84.86 193.063 84.56 192.803 84.34C192.553 84.12 192.223 84.01 191.813 84.01H191.618C191.208 84.01 190.873 84.12 190.613 84.34C190.363 84.56 190.238 84.86 190.238 85.24C190.238 85.62 190.363 85.92 190.613 86.14C190.873 86.36 191.208 86.47 191.618 86.47H191.813C192.223 86.47 192.553 86.36 192.803 86.14C193.063 85.92 193.193 85.62 193.193 85.24ZM209.237 79.555H207.077V86.515H205.937V73.495H207.077V78.595H209.237V79.555ZM204.362 81.685L204.512 82.6C202.982 82.91 201.072 83.065 198.782 83.065H197.192V74.53H203.177V75.49H198.332V82.12H198.767C200.967 82.12 202.832 81.975 204.362 81.685ZM211.451 85.18C211.131 85.18 210.896 85.1 210.746 84.94C210.606 84.78 210.536 84.57 210.536 84.31V84.115C210.536 83.855 210.606 83.645 210.746 83.485C210.896 83.325 211.131 83.245 211.451 83.245C211.771 83.245 212.001 83.325 212.141 83.485C212.291 83.645 212.366 83.855 212.366 84.115V84.31C212.366 84.57 212.291 84.78 212.141 84.94C212.001 85.1 211.771 85.18 211.451 85.18ZM229.178 73.465V86.485H228.083V73.465H229.178ZM225.158 73.66H226.208V86.14H225.158V81.295H222.953V80.38H225.158V77.86H223.118C223.038 78.68 222.843 79.4 222.533 80.02C222.223 80.64 221.763 81.24 221.153 81.82C220.543 82.39 219.708 83.035 218.648 83.755L217.928 83.02C219.058 82.28 219.913 81.625 220.493 81.055C221.073 80.475 221.483 79.865 221.723 79.225C221.963 78.585 222.083 77.795 222.083 76.855V75.685H218.258V74.8H223.163V76.825V76.945H225.158V73.66ZM242.207 73.465V82.42H241.067V73.465H242.207ZM237.512 74.455H233.537V73.57H237.512V74.455ZM240.062 81.67C238.922 81.85 237.567 81.99 235.997 82.09C234.427 82.18 232.807 82.225 231.137 82.225L231.047 81.295C232.557 81.295 233.837 81.27 234.887 81.22V80.17C234.107 80.1 233.487 79.9 233.027 79.57C232.577 79.23 232.352 78.805 232.352 78.295C232.352 77.565 232.752 77.045 233.552 76.735V76.66H231.422V75.805H239.357V76.66H237.317V76.75C238.117 77.05 238.517 77.565 238.517 78.295C238.517 78.805 238.287 79.23 237.827 79.57C237.377 79.9 236.757 80.1 235.967 80.17V81.175C237.547 81.095 238.877 80.975 239.957 80.815L240.062 81.67ZM235.202 79.3H235.652C236.192 79.3 236.632 79.19 236.972 78.97C237.322 78.74 237.497 78.42 237.497 78.01C237.497 77.6 237.327 77.285 236.987 77.065C236.647 76.835 236.202 76.72 235.652 76.72H235.202C234.652 76.72 234.207 76.835 233.867 77.065C233.537 77.285 233.372 77.6 233.372 78.01C233.372 78.42 233.542 78.74 233.882 78.97C234.222 79.19 234.662 79.3 235.202 79.3ZM233.432 83.215H242.207V87.175H241.097V84.1H233.432V83.215ZM255.596 73.465V81.355H254.456V77.74H251.726V76.81H254.456V73.465H255.596ZM245.546 81.025L244.691 80.305C245.531 79.615 246.181 79.025 246.641 78.535C247.101 78.035 247.431 77.545 247.631 77.065C247.841 76.585 247.946 76.04 247.946 75.43V75.265H245.081V74.305H251.921V75.265H249.086V75.49C249.086 76.34 248.911 77.095 248.561 77.755L248.651 77.8L248.891 77.635C249.001 77.545 249.111 77.5 249.221 77.5C249.351 77.5 249.466 77.545 249.566 77.635L252.356 80.035L251.516 80.785L248.681 78.28C248.601 78.22 248.526 78.19 248.456 78.19C248.376 78.19 248.306 78.22 248.246 78.28C247.986 78.67 247.651 79.07 247.241 79.48C246.831 79.88 246.266 80.395 245.546 81.025ZM247.001 82.165H255.596V87.145H254.471V83.125H247.001V82.165ZM267.755 73.465H268.895V86.485H267.755V73.465ZM258.125 78.73C258.125 77.27 258.445 76.165 259.085 75.415C259.735 74.665 260.59 74.29 261.65 74.29C262.7 74.29 263.545 74.665 264.185 75.415C264.835 76.165 265.16 77.27 265.16 78.73C265.16 79.71 265.01 80.535 264.71 81.205C264.41 81.865 263.995 82.36 263.465 82.69C262.935 83.01 262.33 83.17 261.65 83.17C260.59 83.17 259.735 82.795 259.085 82.045C258.445 81.295 258.125 80.19 258.125 78.73ZM263.945 79.315V78.145C263.945 77.215 263.73 76.5 263.3 76C262.88 75.5 262.33 75.25 261.65 75.25C260.96 75.25 260.4 75.5 259.97 76C259.55 76.49 259.34 77.205 259.34 78.145V79.315C259.34 80.255 259.55 80.975 259.97 81.475C260.4 81.965 260.96 82.21 261.65 82.21C262.33 82.21 262.88 81.96 263.3 81.46C263.73 80.96 263.945 80.245 263.945 79.315ZM283.739 79.555H281.579V86.515H280.439V73.495H281.579V78.595H283.739V79.555ZM278.864 81.685L279.014 82.6C277.484 82.91 275.574 83.065 273.284 83.065H271.694V74.53H277.679V75.49H272.834V82.12H273.269C275.469 82.12 277.334 81.975 278.864 81.685ZM285.953 85.18C285.633 85.18 285.398 85.1 285.248 84.94C285.108 84.78 285.038 84.57 285.038 84.31V84.115C285.038 83.855 285.108 83.645 285.248 83.485C285.398 83.325 285.633 83.245 285.953 83.245C286.273 83.245 286.503 83.325 286.643 83.485C286.793 83.645 286.868 83.855 286.868 84.115V84.31C286.868 84.57 286.793 84.78 286.643 84.94C286.503 85.1 286.273 85.18 285.953 85.18ZM12.4262 104.385H11.3012V96.675H12.4262V100.215H14.3762V96.465H15.5012V104.805H14.3762V101.145H12.4262V104.385ZM9.32121 97.875H5.40621V96.945H9.32121V97.875ZM7.35621 104.505C6.56621 104.505 5.91621 104.295 5.40621 103.875C4.90621 103.445 4.65621 102.885 4.65621 102.195C4.65621 101.305 5.02621 100.68 5.76621 100.32V100.245H3.93621V99.345H10.5662V100.245H8.94621V100.32C9.68621 100.68 10.0562 101.305 10.0562 102.195C10.0562 102.885 9.80121 103.445 9.29121 103.875C8.79121 104.295 8.14621 104.505 7.35621 104.505ZM7.35621 103.575C7.83621 103.575 8.23121 103.45 8.54121 103.2C8.86121 102.94 9.02121 102.575 9.02121 102.105V101.835C9.02121 101.355 8.86121 100.99 8.54121 100.74C8.23121 100.48 7.83621 100.35 7.35621 100.35C6.87621 100.35 6.48121 100.48 6.17121 100.74C5.86121 100.99 5.70621 101.355 5.70621 101.835V102.105C5.70621 102.575 5.86121 102.94 6.17121 103.2C6.48121 103.45 6.87621 103.575 7.35621 103.575ZM15.5612 107.685C15.5612 108.185 15.4012 108.63 15.0812 109.02C14.7612 109.41 14.2812 109.715 13.6412 109.935C13.0112 110.155 12.2362 110.265 11.3162 110.265C10.3962 110.265 9.61121 110.155 8.96121 109.935C8.32121 109.715 7.84121 109.41 7.52121 109.02C7.20121 108.63 7.04121 108.185 7.04121 107.685C7.04121 107.185 7.20121 106.74 7.52121 106.35C7.84121 105.96 8.32121 105.655 8.96121 105.435C9.61121 105.215 10.3962 105.105 11.3162 105.105C12.2362 105.105 13.0112 105.215 13.6412 105.435C14.2812 105.655 14.7612 105.96 15.0812 106.35C15.4012 106.74 15.5612 107.185 15.5612 107.685ZM14.3612 107.58C14.3612 107.14 14.1062 106.77 13.5962 106.47C13.0962 106.17 12.3362 106.02 11.3162 106.02C10.2962 106.02 9.53121 106.17 9.02121 106.47C8.51121 106.77 8.25621 107.14 8.25621 107.58V107.79C8.25621 108.23 8.51121 108.6 9.02121 108.9C9.53121 109.2 10.2962 109.35 11.3162 109.35C12.3362 109.35 13.0962 109.2 13.5962 108.9C14.1062 108.6 14.3612 108.23 14.3612 107.79V107.58ZM29.5502 102.975V103.95H17.3102V102.975H22.8752V101.415H19.1702V96.825H27.7052V97.755H20.2952V100.47H27.8252V101.415H24.0002V102.975H29.5502ZM27.8552 107.685C27.8552 108.195 27.6902 108.645 27.3602 109.035C27.0302 109.425 26.5302 109.73 25.8602 109.95C25.2002 110.18 24.3902 110.295 23.4302 110.295C22.4702 110.295 21.6552 110.18 20.9852 109.95C20.3252 109.73 19.8302 109.425 19.5002 109.035C19.1702 108.645 19.0052 108.195 19.0052 107.685C19.0052 107.185 19.1702 106.745 19.5002 106.365C19.8402 105.975 20.3402 105.67 21.0002 105.45C21.6602 105.23 22.4702 105.12 23.4302 105.12C24.3902 105.12 25.2002 105.23 25.8602 105.45C26.5202 105.67 27.0152 105.975 27.3452 106.365C27.6852 106.745 27.8552 107.185 27.8552 107.685ZM26.6552 107.595C26.6552 107.155 26.3852 106.785 25.8452 106.485C25.3152 106.175 24.5102 106.02 23.4302 106.02C22.3502 106.02 21.5402 106.175 21.0002 106.485C20.4602 106.785 20.1902 107.155 20.1902 107.595V107.805C20.1902 108.245 20.4602 108.615 21.0002 108.915C21.5402 109.225 22.3502 109.38 23.4302 109.38C24.5102 109.38 25.3152 109.225 25.8452 108.915C26.3852 108.615 26.6552 108.245 26.6552 107.805V107.595ZM40.7043 96.465H41.8443V109.485H40.7043V96.465ZM31.0743 101.73C31.0743 100.27 31.3943 99.165 32.0343 98.415C32.6843 97.665 33.5393 97.29 34.5993 97.29C35.6493 97.29 36.4943 97.665 37.1343 98.415C37.7843 99.165 38.1093 100.27 38.1093 101.73C38.1093 102.71 37.9593 103.535 37.6593 104.205C37.3593 104.865 36.9443 105.36 36.4143 105.69C35.8843 106.01 35.2793 106.17 34.5993 106.17C33.5393 106.17 32.6843 105.795 32.0343 105.045C31.3943 104.295 31.0743 103.19 31.0743 101.73ZM36.8943 102.315V101.145C36.8943 100.215 36.6793 99.5 36.2493 99C35.8293 98.5 35.2793 98.25 34.5993 98.25C33.9093 98.25 33.3493 98.5 32.9193 99C32.4993 99.49 32.2893 100.205 32.2893 101.145V102.315C32.2893 103.255 32.4993 103.975 32.9193 104.475C33.3493 104.965 33.9093 105.21 34.5993 105.21C35.2793 105.21 35.8293 104.96 36.2493 104.46C36.6793 103.96 36.8943 103.245 36.8943 102.315ZM60.2782 102.555H58.4482V109.515H57.3832V96.495H58.4482V101.595H60.2782V102.555ZM50.4532 97.44H51.4132V106.14H47.6782V97.47H48.6382V100.845H50.4532V97.44ZM55.1632 97.44H56.1382V106.14H52.4032V97.47H53.3632V100.845H55.1632V97.44ZM50.4532 101.76H48.6382V105.24H50.4532V101.76ZM55.1632 101.76H53.3632V105.24H55.1632V101.76ZM62.7772 100.425H70.2772V98.22H62.7022V97.26H71.4172V101.34H63.9172V103.56H71.8372V104.52H62.7772V100.425ZM60.9772 107.025H73.2172V108H60.9772V107.025ZM86.9813 102.555H84.8213V109.515H83.6813V96.495H84.8213V101.595H86.9813V102.555ZM82.1063 104.685L82.2562 105.6C80.7263 105.91 78.8163 106.065 76.5263 106.065H74.9363V97.53H80.9213V98.49H76.0763V105.12H76.5113C78.7113 105.12 80.5763 104.975 82.1063 104.685ZM89.1953 108.18C88.8753 108.18 88.6403 108.1 88.4903 107.94C88.3503 107.78 88.2803 107.57 88.2803 107.31V107.115C88.2803 106.855 88.3503 106.645 88.4903 106.485C88.6403 106.325 88.8753 106.245 89.1953 106.245C89.5153 106.245 89.7453 106.325 89.8853 106.485C90.0353 106.645 90.1103 106.855 90.1103 107.115V107.31C90.1103 107.57 90.0353 107.78 89.8853 107.94C89.7453 108.1 89.5153 108.18 89.1953 108.18ZM107.597 102.675V103.65H95.3571V102.675H99.0171C99.2471 101.925 99.4221 101.185 99.5421 100.455C99.6721 99.715 99.7321 98.91 99.7221 98.04V97.995H96.5571V97.05H100.802V98.07C100.802 99.64 100.577 101.175 100.127 102.675H104.417C104.797 101.125 104.982 99.58 104.972 98.04V97.995H101.732V97.05H106.067V98.13C106.067 99.63 105.887 101.145 105.527 102.675H107.597ZM98.3121 108.765H106.067V109.71H97.9221C97.6821 109.71 97.4971 109.645 97.3671 109.515C97.2371 109.385 97.1721 109.195 97.1721 108.945V105.36H98.3121V108.765ZM118.751 96.465H119.891V109.485H118.751V96.465ZM109.316 105.9C110.696 105.19 111.751 104.54 112.481 103.95C113.211 103.36 113.721 102.735 114.011 102.075C114.311 101.415 114.461 100.6 114.461 99.63V98.505H109.691V97.53H115.601V99.615C115.601 100.725 115.431 101.665 115.091 102.435C114.761 103.205 114.196 103.925 113.396 104.595C112.606 105.255 111.471 105.98 109.991 106.77L109.316 105.9ZM133.34 103.98H132.185V96.465H133.34V103.98ZM122.54 100.2C122.54 99.54 122.685 98.965 122.975 98.475C123.275 97.985 123.685 97.61 124.205 97.35C124.725 97.08 125.32 96.945 125.99 96.945C126.66 96.945 127.255 97.08 127.775 97.35C128.295 97.61 128.7 97.985 128.99 98.475C129.29 98.965 129.44 99.54 129.44 100.2C129.44 100.86 129.29 101.435 128.99 101.925C128.7 102.415 128.29 102.795 127.76 103.065C127.24 103.325 126.65 103.455 125.99 103.455C125.33 103.455 124.735 103.325 124.205 103.065C123.685 102.795 123.275 102.415 122.975 101.925C122.685 101.435 122.54 100.86 122.54 100.2ZM123.74 100.455C123.74 101.075 123.945 101.575 124.355 101.955C124.775 102.325 125.32 102.51 125.99 102.51C126.66 102.51 127.2 102.325 127.61 101.955C128.02 101.575 128.225 101.075 128.225 100.455V99.93C128.225 99.31 128.02 98.815 127.61 98.445C127.2 98.075 126.66 97.89 125.99 97.89C125.32 97.89 124.775 98.075 124.355 98.445C123.945 98.815 123.74 99.31 123.74 99.93V100.455ZM134.57 109.275L133.835 110.055L131.615 107.88C131.555 107.81 131.485 107.775 131.405 107.775C131.365 107.775 131.32 107.79 131.27 107.82C131.04 108.16 130.745 108.51 130.385 108.87C130.025 109.24 129.545 109.685 128.945 110.205L126.665 107.835C126.595 107.765 126.525 107.73 126.455 107.73C126.415 107.73 126.36 107.755 126.29 107.805C125.85 108.465 125.1 109.25 124.04 110.16L123.32 109.395C123.99 108.835 124.515 108.335 124.895 107.895C125.275 107.455 125.545 107.02 125.705 106.59C125.875 106.16 125.96 105.675 125.96 105.135V104.655H127.04V105.165C127.04 105.985 126.885 106.7 126.575 107.31L126.635 107.34L126.83 107.19C126.91 107.12 127.005 107.085 127.115 107.085C127.235 107.085 127.34 107.13 127.43 107.22L129.02 108.81C129.74 108.16 130.235 107.575 130.505 107.055C130.775 106.535 130.91 105.9 130.91 105.15V104.655H131.99V105.21C131.99 105.65 131.955 106.04 131.885 106.38C131.815 106.72 131.7 107.045 131.54 107.355L131.6 107.4L131.795 107.235C131.905 107.155 132.01 107.115 132.11 107.115C132.21 107.115 132.31 107.155 132.41 107.235L134.57 109.275ZM148.109 102.555H145.949V109.515H144.809V96.495H145.949V101.595H148.109V102.555ZM143.234 104.685L143.384 105.6C141.854 105.91 139.944 106.065 137.654 106.065H136.064V97.53H142.049V98.49H137.204V105.12H137.639C139.839 105.12 141.704 104.975 143.234 104.685ZM150.323 108.18C150.003 108.18 149.768 108.1 149.618 107.94C149.478 107.78 149.408 107.57 149.408 107.31V107.115C149.408 106.855 149.478 106.645 149.618 106.485C149.768 106.325 150.003 106.245 150.323 106.245C150.643 106.245 150.873 106.325 151.013 106.485C151.163 106.645 151.238 106.855 151.238 107.115V107.31C151.238 107.57 151.163 107.78 151.013 107.94C150.873 108.1 150.643 108.18 150.323 108.18ZM168.05 96.465V104.82H166.955V101.145H164.93V104.685H163.85V96.675H164.93V100.2H166.955V96.465H168.05ZM161.615 97.92H158.135V97.005H161.615V97.92ZM159.8 102.42C159.73 102.42 159.665 102.45 159.605 102.51C159.185 103.1 158.435 103.845 157.355 104.745L156.605 104.085C157.305 103.505 157.845 103.015 158.225 102.615C158.605 102.205 158.885 101.81 159.065 101.43C159.245 101.04 159.345 100.61 159.365 100.14H156.905V99.225H162.8V100.14H160.415C160.385 100.81 160.215 101.435 159.905 102.015L159.965 102.045L160.19 101.88C160.27 101.81 160.36 101.775 160.46 101.775C160.57 101.775 160.69 101.825 160.82 101.925L163.1 103.83L162.35 104.505L160.04 102.51C159.97 102.45 159.89 102.42 159.8 102.42ZM159.23 105.615H168.05V110.145H166.925V106.575H159.23V105.615ZM181.094 96.465V103.98H179.939V96.465H181.094ZM170.294 100.14C170.294 99.48 170.439 98.905 170.729 98.415C171.029 97.925 171.439 97.55 171.959 97.29C172.479 97.03 173.074 96.9 173.744 96.9C174.414 96.9 175.009 97.03 175.529 97.29C176.049 97.55 176.454 97.925 176.744 98.415C177.044 98.905 177.194 99.48 177.194 100.14C177.194 100.8 177.044 101.375 176.744 101.865C176.454 102.355 176.049 102.73 175.529 102.99C175.009 103.25 174.414 103.38 173.744 103.38C173.074 103.38 172.479 103.25 171.959 102.99C171.439 102.73 171.029 102.355 170.729 101.865C170.439 101.375 170.294 100.8 170.294 100.14ZM175.979 100.395V99.885C175.979 99.265 175.769 98.77 175.349 98.4C174.939 98.02 174.404 97.83 173.744 97.83C173.074 97.83 172.529 98.02 172.109 98.4C171.699 98.77 171.494 99.265 171.494 99.885V100.395C171.494 101.015 171.699 101.515 172.109 101.895C172.529 102.265 173.074 102.45 173.744 102.45C174.404 102.45 174.939 102.265 175.349 101.895C175.769 101.515 175.979 101.015 175.979 100.395ZM172.844 109.26V104.79H181.094V110.025H173.594C173.354 110.025 173.169 109.96 173.039 109.83C172.909 109.7 172.844 109.51 172.844 109.26ZM179.939 105.735H173.984V109.065H179.939V105.735ZM195.878 100.725H193.793V103.98H192.653V96.465H193.793V99.765H195.878V100.725ZM184.103 103.935L183.503 103.065C184.853 102.545 185.878 102.08 186.578 101.67C187.288 101.25 187.783 100.815 188.063 100.365C188.353 99.905 188.498 99.35 188.498 98.7V98.13H183.878V97.17H189.653V98.58C189.653 99.45 189.488 100.175 189.158 100.755C188.838 101.325 188.288 101.855 187.508 102.345C186.728 102.825 185.593 103.355 184.103 103.935ZM185.678 104.79H193.793V110.025H186.428C186.188 110.025 186.003 109.96 185.873 109.83C185.743 109.7 185.678 109.51 185.678 109.26V104.79ZM186.818 109.065H192.653V105.735H186.818V109.065ZM207.842 103.98H206.687V96.465H207.842V103.98ZM197.042 100.2C197.042 99.54 197.187 98.965 197.477 98.475C197.777 97.985 198.187 97.61 198.707 97.35C199.227 97.08 199.822 96.945 200.492 96.945C201.162 96.945 201.757 97.08 202.277 97.35C202.797 97.61 203.202 97.985 203.492 98.475C203.792 98.965 203.942 99.54 203.942 100.2C203.942 100.86 203.792 101.435 203.492 101.925C203.202 102.415 202.792 102.795 202.262 103.065C201.742 103.325 201.152 103.455 200.492 103.455C199.832 103.455 199.237 103.325 198.707 103.065C198.187 102.795 197.777 102.415 197.477 101.925C197.187 101.435 197.042 100.86 197.042 100.2ZM198.242 100.455C198.242 101.075 198.447 101.575 198.857 101.955C199.277 102.325 199.822 102.51 200.492 102.51C201.162 102.51 201.702 102.325 202.112 101.955C202.522 101.575 202.727 101.075 202.727 100.455V99.93C202.727 99.31 202.522 98.815 202.112 98.445C201.702 98.075 201.162 97.89 200.492 97.89C199.822 97.89 199.277 98.075 198.857 98.445C198.447 98.815 198.242 99.31 198.242 99.93V100.455ZM209.072 109.275L208.337 110.055L206.117 107.88C206.057 107.81 205.987 107.775 205.907 107.775C205.867 107.775 205.822 107.79 205.772 107.82C205.542 108.16 205.247 108.51 204.887 108.87C204.527 109.24 204.047 109.685 203.447 110.205L201.167 107.835C201.097 107.765 201.027 107.73 200.957 107.73C200.917 107.73 200.862 107.755 200.792 107.805C200.352 108.465 199.602 109.25 198.542 110.16L197.822 109.395C198.492 108.835 199.017 108.335 199.397 107.895C199.777 107.455 200.047 107.02 200.207 106.59C200.377 106.16 200.462 105.675 200.462 105.135V104.655H201.542V105.165C201.542 105.985 201.387 106.7 201.077 107.31L201.137 107.34L201.332 107.19C201.412 107.12 201.507 107.085 201.617 107.085C201.737 107.085 201.842 107.13 201.932 107.22L203.522 108.81C204.242 108.16 204.737 107.575 205.007 107.055C205.277 106.535 205.412 105.9 205.412 105.15V104.655H206.492V105.21C206.492 105.65 206.457 106.04 206.387 106.38C206.317 106.72 206.202 107.045 206.042 107.355L206.102 107.4L206.297 107.235C206.407 107.155 206.512 107.115 206.612 107.115C206.712 107.115 206.812 107.155 206.912 107.235L209.072 109.275ZM222.611 102.555H220.451V109.515H219.311V96.495H220.451V101.595H222.611V102.555ZM217.736 104.685L217.886 105.6C216.356 105.91 214.446 106.065 212.156 106.065H210.566V97.53H216.551V98.49H211.706V105.12H212.141C214.341 105.12 216.206 104.975 217.736 104.685ZM224.825 108.18C224.505 108.18 224.27 108.1 224.12 107.94C223.98 107.78 223.91 107.57 223.91 107.31V107.115C223.91 106.855 223.98 106.645 224.12 106.485C224.27 106.325 224.505 106.245 224.825 106.245C225.145 106.245 225.375 106.325 225.515 106.485C225.665 106.645 225.74 106.855 225.74 107.115V107.31C225.74 107.57 225.665 107.78 225.515 107.94C225.375 108.1 225.145 108.18 224.825 108.18ZM242.552 96.465V109.485H241.472V96.465H242.552ZM238.592 96.66H239.627V109.14H238.592V104.085H236.732C236.502 104.795 236.157 105.33 235.697 105.69C235.247 106.05 234.702 106.23 234.062 106.23C233.142 106.23 232.412 105.865 231.872 105.135C231.342 104.405 231.077 103.32 231.077 101.88C231.077 100.44 231.342 99.36 231.872 98.64C232.412 97.91 233.142 97.545 234.062 97.545C234.672 97.545 235.202 97.715 235.652 98.055C236.102 98.385 236.447 98.88 236.687 99.54H238.592V96.66ZM235.907 101.145C235.907 100.265 235.737 99.595 235.397 99.135C235.057 98.665 234.612 98.43 234.062 98.43C233.502 98.43 233.052 98.665 232.712 99.135C232.382 99.595 232.217 100.265 232.217 101.145V102.63C232.217 103.51 232.382 104.18 232.712 104.64C233.052 105.1 233.502 105.33 234.062 105.33C234.612 105.33 235.057 105.1 235.397 104.64C235.737 104.18 235.907 103.51 235.907 102.63V101.145ZM238.592 103.17V100.455H236.927C236.997 100.945 237.032 101.42 237.032 101.88C237.032 102.35 237.002 102.78 236.942 103.17H238.592ZM255.596 96.465V106.35H254.441V96.465H255.596ZM251.381 97.305V103.68H245.126V97.305H251.381ZM250.241 98.25H246.281V102.735H250.241V98.25ZM247.256 109.005V105.27H248.411V108.825H255.866V109.77H248.006C247.766 109.77 247.581 109.705 247.451 109.575C247.321 109.445 247.256 109.255 247.256 109.005ZM270.365 102.795H268.25V109.515H267.11V96.495H268.25V101.835H270.365V102.795ZM263.915 98.175H259.655V97.2H263.915V98.175ZM257.66 99.975H265.685V100.905H263.465V100.995C264.375 101.445 264.83 102.31 264.83 103.59C264.83 104.24 264.695 104.805 264.425 105.285C264.155 105.755 263.78 106.115 263.3 106.365C262.83 106.615 262.305 106.74 261.725 106.74C261.145 106.74 260.615 106.615 260.135 106.365C259.665 106.115 259.295 105.755 259.025 105.285C258.755 104.805 258.62 104.24 258.62 103.59C258.62 102.31 259.075 101.445 259.985 100.995V100.905H257.66V99.975ZM263.72 103.095C263.72 102.425 263.54 101.915 263.18 101.565C262.82 101.205 262.335 101.025 261.725 101.025C261.125 101.025 260.64 101.205 260.27 101.565C259.91 101.925 259.73 102.435 259.73 103.095V103.71C259.73 104.36 259.915 104.87 260.285 105.24C260.655 105.6 261.135 105.78 261.725 105.78C262.315 105.78 262.795 105.6 263.165 105.24C263.535 104.87 263.72 104.36 263.72 103.71V103.095ZM283.739 102.555H281.579V109.515H280.439V96.495H281.579V101.595H283.739V102.555ZM278.864 104.685L279.014 105.6C277.484 105.91 275.574 106.065 273.284 106.065H271.694V97.53H277.679V98.49H272.834V105.12H273.269C275.469 105.12 277.334 104.975 278.864 104.685ZM285.953 108.18C285.633 108.18 285.398 108.1 285.248 107.94C285.108 107.78 285.038 107.57 285.038 107.31V107.115C285.038 106.855 285.108 106.645 285.248 106.485C285.398 106.325 285.633 106.245 285.953 106.245C286.273 106.245 286.503 106.325 286.643 106.485C286.793 106.645 286.868 106.855 286.868 107.115V107.31C286.868 107.57 286.793 107.78 286.643 107.94C286.503 108.1 286.273 108.18 285.953 108.18ZM49.3902 126.815L48.7452 125.93C50.1152 125.24 51.1602 124.625 51.8802 124.085C52.6002 123.535 53.1002 122.99 53.3802 122.45C53.6702 121.91 53.8152 121.285 53.8152 120.575V120.08H54.9852V120.62C54.9852 121.2 54.9202 121.715 54.7902 122.165C54.6702 122.615 54.4652 123.04 54.1752 123.44L54.2652 123.485L54.6252 123.2C54.7552 123.1 54.8902 123.05 55.0302 123.05C55.1402 123.05 55.2652 123.09 55.4052 123.17L59.7852 125.87L59.1402 126.77L54.5952 123.875C54.4152 123.785 54.2702 123.74 54.1602 123.74C54.0402 123.74 53.9302 123.775 53.8302 123.845C53.4202 124.295 52.8602 124.755 52.1502 125.225C51.4502 125.685 50.5302 126.215 49.3902 126.815ZM60.3852 130.04V131H48.1452V130.04H53.6952V126.725H54.8352V130.04H60.3852ZM72.7542 119.465V126.98H71.5992V119.465H72.7542ZM65.5842 123.725C65.5142 123.725 65.4492 123.76 65.3892 123.83C65.1292 124.26 64.7892 124.7 64.3692 125.15C63.9492 125.59 63.3642 126.155 62.6142 126.845L61.7592 126.11C62.6192 125.35 63.2792 124.7 63.7392 124.16C64.1992 123.62 64.5292 123.085 64.7292 122.555C64.9392 122.025 65.0442 121.425 65.0442 120.755V119.945H66.1992V120.83C66.1992 121.76 66.0242 122.59 65.6742 123.32L65.7492 123.365L65.9892 123.155C66.0992 123.065 66.2092 123.02 66.3192 123.02C66.4292 123.02 66.5342 123.065 66.6342 123.155L69.5142 125.78L68.6892 126.575L65.7792 123.815C65.7192 123.755 65.6542 123.725 65.5842 123.725ZM64.5042 127.79H72.7542V133.025H65.2542C65.0142 133.025 64.8292 132.96 64.6992 132.83C64.5692 132.7 64.5042 132.51 64.5042 132.26V127.79ZM65.6442 132.065H71.5992V128.735H65.6442V132.065ZM87.5232 125.795H85.4082V132.515H84.2682V119.495H85.4082V124.835H87.5232V125.795ZM81.0732 121.175H76.8132V120.2H81.0732V121.175ZM74.8182 122.975H82.8432V123.905H80.6232V123.995C81.5332 124.445 81.9882 125.31 81.9882 126.59C81.9882 127.24 81.8532 127.805 81.5832 128.285C81.3132 128.755 80.9382 129.115 80.4582 129.365C79.9882 129.615 79.4632 129.74 78.8832 129.74C78.3032 129.74 77.7732 129.615 77.2932 129.365C76.8232 129.115 76.4532 128.755 76.1832 128.285C75.9132 127.805 75.7782 127.24 75.7782 126.59C75.7782 125.31 76.2332 124.445 77.1432 123.995V123.905H74.8182V122.975ZM80.8782 126.095C80.8782 125.425 80.6982 124.915 80.3382 124.565C79.9782 124.205 79.4932 124.025 78.8832 124.025C78.2832 124.025 77.7982 124.205 77.4282 124.565C77.0682 124.925 76.8882 125.435 76.8882 126.095V126.71C76.8882 127.36 77.0732 127.87 77.4432 128.24C77.8132 128.6 78.2932 128.78 78.8832 128.78C79.4732 128.78 79.9532 128.6 80.3232 128.24C80.6932 127.87 80.8782 127.36 80.8782 126.71V126.095ZM100.897 125.555H98.7373V132.515H97.5973V119.495H98.7373V124.595H100.897V125.555ZM96.0223 127.685L96.1723 128.6C94.6423 128.91 92.7323 129.065 90.4423 129.065H88.8523V120.53H94.8373V121.49H89.9923V128.12H90.4273C92.6273 128.12 94.4923 127.975 96.0223 127.685ZM103.111 131.18C102.791 131.18 102.556 131.1 102.406 130.94C102.266 130.78 102.196 130.57 102.196 130.31V130.115C102.196 129.855 102.266 129.645 102.406 129.485C102.556 129.325 102.791 129.245 103.111 129.245C103.431 129.245 103.661 129.325 103.801 129.485C103.951 129.645 104.026 129.855 104.026 130.115V130.31C104.026 130.57 103.951 130.78 103.801 130.94C103.661 131.1 103.431 131.18 103.111 131.18ZM120.508 119.465V126.695H119.368V123.695H116.458V122.75H119.368V119.465H120.508ZM110.383 126.8L109.783 125.93C111.123 125.43 112.143 124.975 112.843 124.565C113.553 124.155 114.048 123.73 114.328 123.29C114.618 122.84 114.763 122.3 114.763 121.67V121.1H110.158V120.14H115.903V121.52C115.903 122.38 115.738 123.095 115.408 123.665C115.088 124.225 114.538 124.745 113.758 125.225C112.988 125.705 111.863 126.23 110.383 126.8ZM119.368 127.535H120.508V133.025H113.023C112.783 133.025 112.598 132.96 112.468 132.83C112.338 132.7 112.273 132.51 112.273 132.26V127.535H113.383V129.26H119.368V127.535ZM119.368 130.235H113.383V132.05H119.368V130.235ZM132.667 119.465H133.807V132.485H132.667V119.465ZM123.037 124.73C123.037 123.27 123.357 122.165 123.997 121.415C124.647 120.665 125.502 120.29 126.562 120.29C127.612 120.29 128.457 120.665 129.097 121.415C129.747 122.165 130.072 123.27 130.072 124.73C130.072 125.71 129.922 126.535 129.622 127.205C129.322 127.865 128.907 128.36 128.377 128.69C127.847 129.01 127.242 129.17 126.562 129.17C125.502 129.17 124.647 128.795 123.997 128.045C123.357 127.295 123.037 126.19 123.037 124.73ZM128.857 125.315V124.145C128.857 123.215 128.642 122.5 128.212 122C127.792 121.5 127.242 121.25 126.562 121.25C125.872 121.25 125.312 121.5 124.882 122C124.462 122.49 124.252 123.205 124.252 124.145V125.315C124.252 126.255 124.462 126.975 124.882 127.475C125.312 127.965 125.872 128.21 126.562 128.21C127.242 128.21 127.792 127.96 128.212 127.46C128.642 126.96 128.857 126.245 128.857 125.315ZM152.211 122.42V123.38H150.126V126.245H148.986V119.465H150.126V122.42H152.211ZM146.166 125.945H140.016V120.095H146.166V125.945ZM145.041 121.025H141.141V125.015H145.041V121.025ZM149.631 127.91H146.481V126.995H149.631V127.91ZM144.831 131.3L145.116 132.245C144.726 132.415 144.261 132.555 143.721 132.665C143.181 132.785 142.616 132.845 142.026 132.845H141.756C141.516 132.845 141.331 132.78 141.201 132.65C141.071 132.52 141.006 132.33 141.006 132.08V127.505H142.071V131.825H142.266C142.736 131.825 143.196 131.77 143.646 131.66C144.106 131.56 144.501 131.44 144.831 131.3ZM144.861 129.095H151.236V129.95H149.526V130.04C149.846 130.19 150.086 130.39 150.246 130.64C150.406 130.89 150.486 131.175 150.486 131.495C150.486 132.015 150.266 132.45 149.826 132.8C149.386 133.16 148.796 133.34 148.056 133.34C147.306 133.34 146.711 133.16 146.271 132.8C145.831 132.45 145.611 132.015 145.611 131.495C145.611 131.165 145.691 130.875 145.851 130.625C146.011 130.375 146.256 130.175 146.586 130.025V129.95H144.861V129.095ZM149.526 131.24C149.526 130.86 149.396 130.56 149.136 130.34C148.886 130.12 148.556 130.01 148.146 130.01H147.951C147.541 130.01 147.206 130.12 146.946 130.34C146.696 130.56 146.571 130.86 146.571 131.24C146.571 131.62 146.696 131.92 146.946 132.14C147.206 132.36 147.541 132.47 147.951 132.47H148.146C148.556 132.47 148.886 132.36 149.136 132.14C149.396 131.92 149.526 131.62 149.526 131.24ZM165.57 125.555H163.41V132.515H162.27V119.495H163.41V124.595H165.57V125.555ZM160.695 127.685L160.845 128.6C159.315 128.91 157.405 129.065 155.115 129.065H153.525V120.53H159.51V121.49H154.665V128.12H155.1C157.3 128.12 159.165 127.975 160.695 127.685ZM167.784 131.18C167.464 131.18 167.229 131.1 167.079 130.94C166.939 130.78 166.869 130.57 166.869 130.31V130.115C166.869 129.855 166.939 129.645 167.079 129.485C167.229 129.325 167.464 129.245 167.784 129.245C168.104 129.245 168.334 129.325 168.474 129.485C168.624 129.645 168.699 129.855 168.699 130.115V130.31C168.699 130.57 168.624 130.78 168.474 130.94C168.334 131.1 168.104 131.18 167.784 131.18ZM186.591 123.725H184.506V126.98H183.366V119.465H184.506V122.765H186.591V123.725ZM174.816 126.935L174.216 126.065C175.566 125.545 176.591 125.08 177.291 124.67C178.001 124.25 178.496 123.815 178.776 123.365C179.066 122.905 179.211 122.35 179.211 121.7V121.13H174.591V120.17H180.366V121.58C180.366 122.45 180.201 123.175 179.871 123.755C179.551 124.325 179.001 124.855 178.221 125.345C177.441 125.825 176.306 126.355 174.816 126.935ZM176.391 127.79H184.506V133.025H177.141C176.901 133.025 176.716 132.96 176.586 132.83C176.456 132.7 176.391 132.51 176.391 132.26V127.79ZM177.531 132.065H183.366V128.735H177.531V132.065ZM197.415 122.69V119.465H198.555V127.295H197.415V123.62H194.685V122.69H197.415ZM188.505 126.845L187.65 126.125C188.49 125.465 189.14 124.895 189.6 124.415C190.06 123.925 190.39 123.445 190.59 122.975C190.8 122.495 190.905 121.96 190.905 121.37V121.22H188.04V120.26H194.88V121.22H192.045V121.415C192.045 122.265 191.87 123.01 191.52 123.65L191.61 123.695L191.85 123.515C191.96 123.435 192.07 123.395 192.18 123.395C192.31 123.395 192.425 123.44 192.525 123.53L195.315 125.87L194.475 126.62L191.64 124.16C191.56 124.1 191.485 124.07 191.415 124.07C191.335 124.07 191.265 124.1 191.205 124.16C190.935 124.55 190.59 124.95 190.17 125.36C189.75 125.77 189.195 126.265 188.505 126.845ZM198.63 130.4C198.63 130.94 198.47 131.42 198.15 131.84C197.84 132.27 197.365 132.605 196.725 132.845C196.095 133.095 195.325 133.22 194.415 133.22C193.495 133.22 192.715 133.095 192.075 132.845C191.445 132.605 190.97 132.27 190.65 131.84C190.34 131.42 190.185 130.94 190.185 130.4C190.185 129.86 190.34 129.38 190.65 128.96C190.97 128.53 191.445 128.195 192.075 127.955C192.715 127.705 193.495 127.58 194.415 127.58C195.325 127.58 196.095 127.705 196.725 127.955C197.365 128.195 197.84 128.53 198.15 128.96C198.47 129.38 198.63 129.86 198.63 130.4ZM197.43 130.28C197.43 129.77 197.18 129.345 196.68 129.005C196.18 128.655 195.425 128.48 194.415 128.48C193.395 128.48 192.63 128.655 192.12 129.005C191.62 129.345 191.37 129.77 191.37 130.28V130.535C191.37 131.035 191.62 131.455 192.12 131.795C192.63 132.145 193.395 132.32 194.415 132.32C195.425 132.32 196.18 132.145 196.68 131.795C197.18 131.455 197.43 131.035 197.43 130.535V130.28ZM211.599 121.235H202.014V120.275H211.599V121.235ZM211.734 126.74H201.894V125.795H204.264L203.769 122.465L204.924 122.345L205.329 125.795H208.284L208.689 122.345L209.859 122.465L209.349 125.795H211.734V126.74ZM212.934 130.04V131H200.694V130.04H204.024V127.505H205.134V130.04H208.494V127.505H209.604V130.04H212.934ZM224.148 126.275H222.153V125.345H224.148V123.47H222.153V122.54H224.148V119.465H225.303V129.5H224.148V126.275ZM220.098 120.83H216.123V119.87H220.098V120.83ZM218.013 127.955C217.403 127.955 216.868 127.85 216.408 127.64C215.948 127.43 215.593 127.14 215.343 126.77C215.093 126.4 214.968 125.98 214.968 125.51C214.968 125.03 215.078 124.615 215.298 124.265C215.518 123.905 215.848 123.63 216.288 123.44V123.365H214.158V122.435H221.673V123.365H219.753V123.455C220.193 123.645 220.523 123.915 220.743 124.265C220.963 124.615 221.073 125.03 221.073 125.51C221.073 125.98 220.948 126.4 220.698 126.77C220.448 127.14 220.088 127.43 219.618 127.64C219.158 127.85 218.623 127.955 218.013 127.955ZM217.893 126.995H218.148C218.698 126.995 219.143 126.84 219.483 126.53C219.833 126.22 220.008 125.79 220.008 125.24C220.008 124.69 219.833 124.265 219.483 123.965C219.143 123.655 218.698 123.5 218.148 123.5H217.893C217.333 123.5 216.883 123.655 216.543 123.965C216.203 124.265 216.033 124.69 216.033 125.24C216.033 125.79 216.203 126.22 216.543 126.53C216.893 126.84 217.343 126.995 217.893 126.995ZM225.573 131.9V132.845H217.683C217.443 132.845 217.258 132.78 217.128 132.65C216.998 132.52 216.933 132.33 216.933 132.08V129.08H218.073V131.9H225.573ZM237.462 119.465H238.602V132.485H237.462V119.465ZM227.832 124.73C227.832 123.27 228.152 122.165 228.792 121.415C229.442 120.665 230.297 120.29 231.357 120.29C232.407 120.29 233.252 120.665 233.892 121.415C234.542 122.165 234.867 123.27 234.867 124.73C234.867 125.71 234.717 126.535 234.417 127.205C234.117 127.865 233.702 128.36 233.172 128.69C232.642 129.01 232.037 129.17 231.357 129.17C230.297 129.17 229.442 128.795 228.792 128.045C228.152 127.295 227.832 126.19 227.832 124.73ZM233.652 125.315V124.145C233.652 123.215 233.437 122.5 233.007 122C232.587 121.5 232.037 121.25 231.357 121.25C230.667 121.25 230.107 121.5 229.677 122C229.257 122.49 229.047 123.205 229.047 124.145V125.315C229.047 126.255 229.257 126.975 229.677 127.475C230.107 127.965 230.667 128.21 231.357 128.21C232.037 128.21 232.587 127.96 233.007 127.46C233.437 126.96 233.652 126.245 233.652 125.315ZM255.536 119.465V132.485H254.411V124.79H251.636V123.83H254.411V119.465H255.536ZM249.041 124.715C249.161 124.715 249.266 124.77 249.356 124.88L252.296 128.63L251.426 129.395L248.486 125.525C248.446 125.475 248.396 125.45 248.336 125.45C248.276 125.45 248.226 125.475 248.186 125.525C247.936 126.105 247.591 126.7 247.151 127.31C246.711 127.92 246.111 128.68 245.351 129.59L244.481 128.855C245.351 127.865 246.016 127.02 246.476 126.32C246.946 125.61 247.281 124.9 247.481 124.19C247.691 123.48 247.796 122.665 247.796 121.745V120.335H248.936V121.73C248.936 122.94 248.771 124.02 248.441 124.97L248.501 125.015L248.711 124.835C248.821 124.755 248.931 124.715 249.041 124.715ZM268.325 124.73H259.61V119.66H268.07V120.5H260.705V121.79H267.86V122.6H260.72V123.89H268.325V124.73ZM264.41 126.71V127.985H268.145V130.97H260.675V132.245H268.535V133.145H260.36C260.12 133.145 259.935 133.08 259.805 132.95C259.675 132.82 259.61 132.63 259.61 132.38V130.13H267.08V128.87H259.52V127.985H263.3V126.71H257.735V125.825H269.975V126.71H264.41ZM283.739 125.555H281.579V132.515H280.439V119.495H281.579V124.595H283.739V125.555ZM278.864 127.685L279.014 128.6C277.484 128.91 275.574 129.065 273.284 129.065H271.694V120.53H277.679V121.49H272.834V128.12H273.269C275.469 128.12 277.334 127.975 278.864 127.685ZM285.953 131.18C285.633 131.18 285.398 131.1 285.248 130.94C285.108 130.78 285.038 130.57 285.038 130.31V130.115C285.038 129.855 285.108 129.645 285.248 129.485C285.398 129.325 285.633 129.245 285.953 129.245C286.273 129.245 286.503 129.325 286.643 129.485C286.793 129.645 286.868 129.855 286.868 130.115V130.31C286.868 130.57 286.793 130.78 286.643 130.94C286.503 131.1 286.273 131.18 285.953 131.18Z" fill="#1B1C25"/>
</svg>
