<svg width="288" height="137" viewBox="0 0 288 137" fill="none" xmlns="http://www.w3.org/2000/svg">
<path d="M198.028 6.63849H196.366C196.302 6.28338 196.183 5.97088 196.009 5.70099C195.835 5.43111 195.622 5.20206 195.37 5.01385C195.118 4.82564 194.836 4.68359 194.523 4.58771C194.214 4.49183 193.886 4.44389 193.538 4.44389C192.909 4.44389 192.346 4.60192 191.849 4.91797C191.356 5.23402 190.965 5.69744 190.677 6.30824C190.393 6.91903 190.251 7.66477 190.251 8.54545C190.251 9.43324 190.393 10.1825 190.677 10.7933C190.965 11.4041 191.357 11.8658 191.855 12.1783C192.352 12.4908 192.911 12.647 193.532 12.647C193.877 12.647 194.204 12.6009 194.513 12.5085C194.825 12.4126 195.107 12.2724 195.359 12.0877C195.612 11.9031 195.825 11.6776 195.999 11.4112C196.176 11.1413 196.299 10.8324 196.366 10.4844L198.028 10.4897C197.939 11.0259 197.767 11.5195 197.511 11.9705C197.259 12.418 196.934 12.805 196.537 13.1317C196.143 13.4549 195.692 13.7053 195.184 13.8828C194.676 14.0604 194.122 14.1491 193.522 14.1491C192.577 14.1491 191.736 13.9254 190.997 13.478C190.258 13.027 189.676 12.3825 189.25 11.5444C188.827 10.7063 188.616 9.70668 188.616 8.54545C188.616 7.38068 188.829 6.38104 189.255 5.54652C189.681 4.70845 190.264 4.0657 191.002 3.61825C191.741 3.16726 192.581 2.94176 193.522 2.94176C194.101 2.94176 194.64 3.02521 195.141 3.19212C195.645 3.35547 196.098 3.59695 196.499 3.91655C196.901 4.2326 197.233 4.61967 197.496 5.07777C197.758 5.53232 197.936 6.05256 198.028 6.63849ZM201.048 14V3.09091H202.694V7.83168H208.132V3.09091H209.784V14H208.132V9.24325H202.694V14H201.048ZM214.152 14H212.405L216.331 3.09091H218.232L222.158 14H220.411L217.327 5.07244H217.242L214.152 14ZM214.445 9.72798H220.113V11.1129H214.445V9.72798ZM224.783 14V3.09091H228.672C229.517 3.09091 230.218 3.23651 230.776 3.5277C231.337 3.81889 231.756 4.22195 232.033 4.73686C232.31 5.24822 232.449 5.83949 232.449 6.51065C232.449 7.17827 232.308 7.76598 232.028 8.27379C231.751 8.77805 231.332 9.17045 230.771 9.45099C230.213 9.73153 229.512 9.8718 228.667 9.8718H225.721V8.4549H228.517C229.05 8.4549 229.483 8.37855 229.817 8.22585C230.155 8.07315 230.401 7.85121 230.558 7.56001C230.714 7.26882 230.792 6.91903 230.792 6.51065C230.792 6.09872 230.712 5.74183 230.552 5.43999C230.396 5.13814 230.149 4.90732 229.812 4.74751C229.478 4.58416 229.04 4.50249 228.496 4.50249H226.429V14H224.783ZM230.169 9.07812L232.864 14H230.989L228.347 9.07812H230.169ZM236.423 14H234.676L238.602 3.09091H240.503L244.429 14H242.682L239.598 5.07244H239.512L236.423 14ZM236.716 9.72798H242.384V11.1129H236.716V9.72798ZM255.602 6.63849H253.94C253.877 6.28338 253.758 5.97088 253.584 5.70099C253.41 5.43111 253.197 5.20206 252.944 5.01385C252.692 4.82564 252.41 4.68359 252.097 4.58771C251.788 4.49183 251.46 4.44389 251.112 4.44389C250.483 4.44389 249.921 4.60192 249.423 4.91797C248.93 5.23402 248.539 5.69744 248.252 6.30824C247.967 6.91903 247.825 7.66477 247.825 8.54545C247.825 9.43324 247.967 10.1825 248.252 10.7933C248.539 11.4041 248.932 11.8658 249.429 12.1783C249.926 12.4908 250.485 12.647 251.107 12.647C251.451 12.647 251.778 12.6009 252.087 12.5085C252.399 12.4126 252.682 12.2724 252.934 12.0877C253.186 11.9031 253.399 11.6776 253.573 11.4112C253.75 11.1413 253.873 10.8324 253.94 10.4844L255.602 10.4897C255.514 11.0259 255.341 11.5195 255.086 11.9705C254.834 12.418 254.509 12.805 254.111 13.1317C253.717 13.4549 253.266 13.7053 252.758 13.8828C252.25 14.0604 251.696 14.1491 251.096 14.1491C250.151 14.1491 249.31 13.9254 248.571 13.478C247.833 13.027 247.25 12.3825 246.824 11.5444C246.401 10.7063 246.19 9.70668 246.19 8.54545C246.19 7.38068 246.403 6.38104 246.829 5.54652C247.255 4.70845 247.838 4.0657 248.576 3.61825C249.315 3.16726 250.155 2.94176 251.096 2.94176C251.675 2.94176 252.215 3.02521 252.715 3.19212C253.22 3.35547 253.672 3.59695 254.074 3.91655C254.475 4.2326 254.807 4.61967 255.07 5.07777C255.333 5.53232 255.51 6.05256 255.602 6.63849ZM258.084 4.50781V3.09091H266.527V4.50781H263.123V14H261.482V4.50781H258.084ZM269.442 14V3.09091H276.282V4.50781H271.088V7.83168H275.925V9.24325H271.088V12.5831H276.346V14H269.442ZM279.531 14V3.09091H283.419C284.264 3.09091 284.966 3.23651 285.523 3.5277C286.084 3.81889 286.503 4.22195 286.78 4.73686C287.057 5.24822 287.196 5.83949 287.196 6.51065C287.196 7.17827 287.055 7.76598 286.775 8.27379C286.498 8.77805 286.079 9.17045 285.518 9.45099C284.96 9.73153 284.259 9.8718 283.414 9.8718H280.468V8.4549H283.265C283.797 8.4549 284.23 8.37855 284.564 8.22585C284.902 8.07315 285.148 7.85121 285.305 7.56001C285.461 7.26882 285.539 6.91903 285.539 6.51065C285.539 6.09872 285.459 5.74183 285.299 5.43999C285.143 5.13814 284.896 4.90732 284.559 4.74751C284.225 4.58416 283.787 4.50249 283.243 4.50249H281.176V14H279.531ZM284.916 9.07812L287.611 14H285.736L283.094 9.07812H284.916Z" fill="#273F65"/>
<path d="M161.368 53V39.9091H169.485V41.6094H163.343V45.598H168.904V47.2919H163.343V53H161.368ZM173.174 53V39.9091H177.841C178.855 39.9091 179.696 40.0838 180.365 40.4332C181.039 40.7827 181.542 41.2663 181.874 41.8842C182.206 42.4979 182.373 43.2074 182.373 44.0128C182.373 44.8139 182.204 45.5192 181.868 46.1286C181.535 46.7337 181.032 47.2045 180.359 47.5412C179.69 47.8778 178.848 48.0462 177.834 48.0462H174.299V46.3459H177.655C178.294 46.3459 178.814 46.2543 179.215 46.071C179.62 45.8878 179.916 45.6214 180.103 45.272C180.291 44.9226 180.385 44.5028 180.385 44.0128C180.385 43.5185 180.289 43.0902 180.097 42.728C179.909 42.3658 179.613 42.0888 179.208 41.897C178.808 41.701 178.282 41.603 177.63 41.603H175.15V53H173.174ZM179.637 47.0938L182.871 53H180.621L177.451 47.0938H179.637ZM197.407 46.4545C197.407 47.8523 197.152 49.054 196.64 50.0597C196.129 51.0611 195.428 51.8324 194.537 52.3736C193.651 52.9105 192.643 53.179 191.514 53.179C190.38 53.179 189.368 52.9105 188.478 52.3736C187.591 51.8324 186.892 51.0589 186.381 50.0533C185.87 49.0476 185.614 47.848 185.614 46.4545C185.614 45.0568 185.87 43.8572 186.381 42.8558C186.892 41.8501 187.591 41.0788 188.478 40.5419C189.368 40.0007 190.38 39.7301 191.514 39.7301C192.643 39.7301 193.651 40.0007 194.537 40.5419C195.428 41.0788 196.129 41.8501 196.64 42.8558C197.152 43.8572 197.407 45.0568 197.407 46.4545ZM195.451 46.4545C195.451 45.3892 195.279 44.4922 194.934 43.7635C194.593 43.0305 194.124 42.4766 193.527 42.1016C192.935 41.7223 192.264 41.5327 191.514 41.5327C190.76 41.5327 190.086 41.7223 189.494 42.1016C188.902 42.4766 188.433 43.0305 188.088 43.7635C187.747 44.4922 187.576 45.3892 187.576 46.4545C187.576 47.5199 187.747 48.419 188.088 49.152C188.433 49.8807 188.902 50.4347 189.494 50.8139C190.086 51.1889 190.76 51.3764 191.514 51.3764C192.264 51.3764 192.935 51.1889 193.527 50.8139C194.124 50.4347 194.593 49.8807 194.934 49.152C195.279 48.419 195.451 47.5199 195.451 46.4545ZM201.13 39.9091H203.527L207.695 50.0852H207.848L212.016 39.9091H214.413V53H212.533V43.527H212.412L208.551 52.9808H206.991L203.131 43.5206H203.009V53H201.13V39.9091ZM226.543 39.9091V53H224.568V39.9091H226.543ZM241.246 39.9091V53H239.43L232.776 43.3991H232.655V53H230.679V39.9091H232.508L239.168 49.5227H239.29V39.9091H241.246ZM252.527 43.348C252.458 42.7429 252.177 42.2741 251.683 41.9418C251.189 41.6051 250.566 41.4368 249.816 41.4368C249.279 41.4368 248.815 41.522 248.423 41.6925C248.031 41.8587 247.726 42.0888 247.509 42.3828C247.296 42.6726 247.189 43.0028 247.189 43.3736C247.189 43.6847 247.262 43.9531 247.407 44.179C247.556 44.4048 247.75 44.5945 247.988 44.7479C248.231 44.897 248.491 45.0227 248.768 45.125C249.045 45.223 249.311 45.304 249.567 45.3679L250.846 45.7003C251.263 45.8026 251.691 45.9411 252.13 46.1158C252.569 46.2905 252.976 46.5206 253.351 46.8061C253.726 47.0916 254.029 47.4453 254.259 47.8672C254.493 48.2891 254.61 48.794 254.61 49.3821C254.61 50.1236 254.419 50.782 254.035 51.3572C253.656 51.9325 253.104 52.3864 252.38 52.7188C251.659 53.0511 250.788 53.2173 249.765 53.2173C248.785 53.2173 247.937 53.0618 247.221 52.7507C246.505 52.4396 245.945 51.9986 245.54 51.4276C245.135 50.8523 244.912 50.1705 244.869 49.3821H246.85C246.889 49.8551 247.042 50.2493 247.311 50.5646C247.583 50.8757 247.931 51.108 248.353 51.2614C248.779 51.4105 249.245 51.4851 249.752 51.4851C250.311 51.4851 250.807 51.3977 251.242 51.223C251.681 51.044 252.026 50.7969 252.277 50.4815C252.529 50.1619 252.654 49.7891 252.654 49.3629C252.654 48.9751 252.544 48.6577 252.322 48.4105C252.105 48.1634 251.809 47.9588 251.434 47.7969C251.063 47.6349 250.643 47.4922 250.174 47.3686L248.627 46.9467C247.579 46.6612 246.748 46.2415 246.135 45.6875C245.525 45.1335 245.221 44.4006 245.221 43.4886C245.221 42.7344 245.425 42.076 245.834 41.5135C246.243 40.951 246.797 40.5142 247.496 40.2031C248.195 39.8878 248.983 39.7301 249.861 39.7301C250.748 39.7301 251.529 39.8857 252.207 40.1967C252.889 40.5078 253.426 40.9361 253.818 41.4815C254.21 42.0227 254.414 42.6449 254.431 43.348H252.527ZM260.206 39.9091V53H258.231V39.9091H260.206ZM268.58 53H264.342V39.9091H268.714C269.997 39.9091 271.099 40.1712 272.019 40.6953C272.94 41.2152 273.645 41.9631 274.135 42.9389C274.629 43.9105 274.876 45.076 274.876 46.4354C274.876 47.799 274.627 48.9709 274.128 49.951C273.634 50.9311 272.918 51.6854 271.981 52.2138C271.043 52.7379 269.91 53 268.58 53ZM266.317 51.2741H268.472C269.469 51.2741 270.298 51.0866 270.958 50.7116C271.619 50.3324 272.113 49.7848 272.441 49.0689C272.769 48.3487 272.933 47.4709 272.933 46.4354C272.933 45.4084 272.769 44.5369 272.441 43.821C272.117 43.1051 271.633 42.5618 270.99 42.1911C270.347 41.8203 269.548 41.6349 268.593 41.6349H266.317V51.2741ZM278.592 53V39.9091H286.8V41.6094H280.568V45.598H286.372V47.2919H280.568V51.2997H286.877V53H278.592Z" fill="#1B1C25"/>
<path d="M8.04621 74.755H4.95621V73.84H9.14121V74.665C9.14121 76.025 8.79121 77.38 8.09121 78.73L7.05621 78.445C7.37621 77.835 7.62121 77.24 7.79121 76.66C7.97121 76.07 8.05621 75.435 8.04621 74.755ZM13.5662 74.755H10.2362V73.84H14.6612V74.74C14.6612 75.47 14.6062 76.155 14.4962 76.795C14.3962 77.425 14.2512 78.06 14.0612 78.7L12.9962 78.505C13.3862 77.295 13.5762 76.045 13.5662 74.755ZM16.1762 79.825V80.8H3.93621V79.825H9.65121V77.095H10.7462V79.825H16.1762ZM5.75121 82.3H14.3612V87.025H6.50121C6.26121 87.025 6.07621 86.96 5.94621 86.83C5.81621 86.7 5.75121 86.51 5.75121 86.26V82.3ZM6.87621 86.08H13.2362V83.23H6.87621V86.08ZM21.4202 74.755H18.3302V73.84H22.5152V74.665C22.5152 76.025 22.1652 77.38 21.4652 78.73L20.4302 78.445C20.7502 77.835 20.9952 77.24 21.1652 76.66C21.3452 76.07 21.4302 75.435 21.4202 74.755ZM26.9402 74.755H23.6102V73.84H28.0352V74.74C28.0352 75.47 27.9802 76.155 27.8702 76.795C27.7702 77.425 27.6252 78.06 27.4352 78.7L26.3702 78.505C26.7602 77.295 26.9502 76.045 26.9402 74.755ZM29.5502 79.825V80.8H17.3102V79.825H23.0252V77.095H24.1202V79.825H29.5502ZM19.1252 82.3H27.7352V87.025H19.8752C19.6352 87.025 19.4502 86.96 19.3202 86.83C19.1902 86.7 19.1252 86.51 19.1252 86.26V82.3ZM20.2502 86.08H26.6102V83.23H20.2502V86.08ZM43.3143 79.795H41.1993V86.515H40.0593V73.495H41.1993V78.835H43.3143V79.795ZM36.8643 75.175H32.6043V74.2H36.8643V75.175ZM30.6093 76.975H38.6343V77.905H36.4143V77.995C37.3243 78.445 37.7793 79.31 37.7793 80.59C37.7793 81.24 37.6443 81.805 37.3743 82.285C37.1043 82.755 36.7293 83.115 36.2493 83.365C35.7793 83.615 35.2543 83.74 34.6743 83.74C34.0943 83.74 33.5643 83.615 33.0843 83.365C32.6143 83.115 32.2443 82.755 31.9743 82.285C31.7043 81.805 31.5693 81.24 31.5693 80.59C31.5693 79.31 32.0243 78.445 32.9343 77.995V77.905H30.6093V76.975ZM36.6693 80.095C36.6693 79.425 36.4893 78.915 36.1293 78.565C35.7693 78.205 35.2843 78.025 34.6743 78.025C34.0743 78.025 33.5893 78.205 33.2193 78.565C32.8593 78.925 32.6793 79.435 32.6793 80.095V80.71C32.6793 81.36 32.8643 81.87 33.2343 82.24C33.6043 82.6 34.0843 82.78 34.6743 82.78C35.2643 82.78 35.7443 82.6 36.1143 82.24C36.4843 81.87 36.6693 81.36 36.6693 80.71V80.095ZM56.6883 79.555H54.5283V86.515H53.3883V73.495H54.5283V78.595H56.6883V79.555ZM51.8133 81.685L51.9633 82.6C50.4333 82.91 48.5233 83.065 46.2333 83.065H44.6433V74.53H50.6283V75.49H45.7833V82.12H46.2183C48.4183 82.12 50.2833 81.975 51.8133 81.685ZM58.9023 85.18C58.5823 85.18 58.3473 85.1 58.1973 84.94C58.0573 84.78 57.9873 84.57 57.9873 84.31V84.115C57.9873 83.855 58.0573 83.645 58.1973 83.485C58.3473 83.325 58.5823 83.245 58.9023 83.245C59.2223 83.245 59.4523 83.325 59.5923 83.485C59.7423 83.645 59.8173 83.855 59.8173 84.115V84.31C59.8173 84.57 59.7423 84.78 59.5923 84.94C59.4523 85.1 59.2223 85.18 58.9023 85.18ZM70.6291 74.95H66.4741V73.99H75.8941V74.95H71.7841C71.7741 75.36 71.7141 75.73 71.6041 76.06C71.5041 76.39 71.3341 76.705 71.0941 77.005L71.1541 77.035L71.4541 76.81C71.5941 76.71 71.7341 76.66 71.8741 76.66C72.0041 76.66 72.1141 76.685 72.2041 76.735L76.4491 78.955L75.8191 79.81L71.4091 77.44C71.2791 77.37 71.1491 77.335 71.0191 77.335C70.9191 77.335 70.8291 77.355 70.7491 77.395C70.3591 77.775 69.8291 78.16 69.1591 78.55C68.4891 78.94 67.6141 79.375 66.5341 79.855L65.9191 79C67.1191 78.49 68.0541 78.025 68.7241 77.605C69.3941 77.185 69.8691 76.77 70.1491 76.36C70.4391 75.95 70.5991 75.48 70.6291 74.95ZM77.3041 82.135H71.7541V87.01H70.6141V82.135H65.0641V81.175H77.3041V82.135ZM90.6782 84.04V85H78.4382V84.04H83.9882V80.575H80.2082V74.35H88.9532V75.325H81.3482V79.6H89.0882V80.575H85.1282V84.04H90.6782ZM103.047 73.465V81.355H101.907V77.74H99.1772V76.81H101.907V73.465H103.047ZM92.9972 81.025L92.1422 80.305C92.9822 79.615 93.6322 79.025 94.0922 78.535C94.5522 78.035 94.8822 77.545 95.0822 77.065C95.2922 76.585 95.3972 76.04 95.3972 75.43V75.265H92.5322V74.305H99.3722V75.265H96.5372V75.49C96.5372 76.34 96.3622 77.095 96.0122 77.755L96.1022 77.8L96.3422 77.635C96.4522 77.545 96.5622 77.5 96.6722 77.5C96.8022 77.5 96.9172 77.545 97.0172 77.635L99.8072 80.035L98.9672 80.785L96.1322 78.28C96.0522 78.22 95.9772 78.19 95.9072 78.19C95.8272 78.19 95.7572 78.22 95.6972 78.28C95.4372 78.67 95.1022 79.07 94.6922 79.48C94.2822 79.88 93.7172 80.395 92.9972 81.025ZM94.4522 82.165H103.047V87.145H101.922V83.125H94.4522V82.165ZM115.206 73.465H116.346V86.485H115.206V73.465ZM105.576 78.73C105.576 77.27 105.896 76.165 106.536 75.415C107.186 74.665 108.041 74.29 109.101 74.29C110.151 74.29 110.996 74.665 111.636 75.415C112.286 76.165 112.611 77.27 112.611 78.73C112.611 79.71 112.461 80.535 112.161 81.205C111.861 81.865 111.446 82.36 110.916 82.69C110.386 83.01 109.781 83.17 109.101 83.17C108.041 83.17 107.186 82.795 106.536 82.045C105.896 81.295 105.576 80.19 105.576 78.73ZM111.396 79.315V78.145C111.396 77.215 111.181 76.5 110.751 76C110.331 75.5 109.781 75.25 109.101 75.25C108.411 75.25 107.851 75.5 107.421 76C107.001 76.49 106.791 77.205 106.791 78.145V79.315C106.791 80.255 107.001 80.975 107.421 81.475C107.851 81.965 108.411 82.21 109.101 82.21C109.781 82.21 110.331 81.96 110.751 81.46C111.181 80.96 111.396 80.245 111.396 79.315ZM131.19 79.555H129.03V86.515H127.89V73.495H129.03V78.595H131.19V79.555ZM126.315 81.685L126.465 82.6C124.935 82.91 123.025 83.065 120.735 83.065H119.145V74.53H125.13V75.49H120.285V82.12H120.72C122.92 82.12 124.785 81.975 126.315 81.685ZM133.404 85.18C133.084 85.18 132.849 85.1 132.699 84.94C132.559 84.78 132.489 84.57 132.489 84.31V84.115C132.489 83.855 132.559 83.645 132.699 83.485C132.849 83.325 133.084 83.245 133.404 83.245C133.724 83.245 133.954 83.325 134.094 83.485C134.244 83.645 134.319 83.855 134.319 84.115V84.31C134.319 84.57 134.244 84.78 134.094 84.94C133.954 85.1 133.724 85.18 133.404 85.18ZM148.011 80.845H146.916V73.675H148.011V76.825H150.021V73.465H151.131V81.25H150.021V77.755H148.011V80.845ZM142.866 78.01C142.796 78.01 142.731 78.045 142.671 78.115C142.441 78.535 142.136 78.975 141.756 79.435C141.386 79.885 140.916 80.395 140.346 80.965L139.551 80.275C140.291 79.515 140.851 78.865 141.231 78.325C141.621 77.785 141.896 77.26 142.056 76.75C142.226 76.23 142.311 75.635 142.311 74.965V74.155H143.406V74.995C143.406 75.965 143.256 76.79 142.956 77.47L143.031 77.515L143.211 77.365C143.321 77.275 143.421 77.23 143.511 77.23C143.611 77.23 143.711 77.28 143.811 77.38L146.211 79.945L145.431 80.695L143.046 78.1C143.006 78.04 142.946 78.01 142.866 78.01ZM151.191 84.4C151.191 84.94 151.031 85.42 150.711 85.84C150.391 86.27 149.911 86.605 149.271 86.845C148.631 87.095 147.851 87.22 146.931 87.22C146.011 87.22 145.231 87.095 144.591 86.845C143.951 86.605 143.471 86.27 143.151 85.84C142.831 85.42 142.671 84.94 142.671 84.4C142.671 83.86 142.831 83.38 143.151 82.96C143.471 82.53 143.951 82.195 144.591 81.955C145.231 81.705 146.011 81.58 146.931 81.58C147.851 81.58 148.631 81.705 149.271 81.955C149.911 82.195 150.391 82.53 150.711 82.96C151.031 83.38 151.191 83.86 151.191 84.4ZM149.976 84.28C149.976 83.78 149.721 83.36 149.211 83.02C148.711 82.67 147.951 82.495 146.931 82.495C145.911 82.495 145.146 82.67 144.636 83.02C144.126 83.36 143.871 83.78 143.871 84.28V84.535C143.871 84.845 143.976 85.135 144.186 85.405C144.406 85.675 144.746 85.89 145.206 86.05C145.666 86.22 146.241 86.305 146.931 86.305C147.951 86.305 148.711 86.13 149.211 85.78C149.721 85.44 149.976 85.025 149.976 84.535V84.28ZM165.585 77.815H163.5V81.28H162.36V73.465H163.5V76.855H165.585V77.815ZM153.825 81.16L153.21 80.29C154.56 79.76 155.585 79.285 156.285 78.865C156.995 78.435 157.49 77.99 157.77 77.53C158.06 77.06 158.205 76.49 158.205 75.82V75.22H153.585V74.26H159.36V75.7C159.36 76.58 159.195 77.315 158.865 77.905C158.545 78.495 157.995 79.04 157.215 79.54C156.435 80.03 155.305 80.57 153.825 81.16ZM155.055 82.09H163.5V87.145H162.375V83.05H155.055V82.09ZM176.334 73.465H177.474V86.485H176.334V73.465ZM166.704 78.73C166.704 77.27 167.024 76.165 167.664 75.415C168.314 74.665 169.169 74.29 170.229 74.29C171.279 74.29 172.124 74.665 172.764 75.415C173.414 76.165 173.739 77.27 173.739 78.73C173.739 79.71 173.589 80.535 173.289 81.205C172.989 81.865 172.574 82.36 172.044 82.69C171.514 83.01 170.909 83.17 170.229 83.17C169.169 83.17 168.314 82.795 167.664 82.045C167.024 81.295 166.704 80.19 166.704 78.73ZM172.524 79.315V78.145C172.524 77.215 172.309 76.5 171.879 76C171.459 75.5 170.909 75.25 170.229 75.25C169.539 75.25 168.979 75.5 168.549 76C168.129 76.49 167.919 77.205 167.919 78.145V79.315C167.919 80.255 168.129 80.975 168.549 81.475C168.979 81.965 169.539 82.21 170.229 82.21C170.909 82.21 171.459 81.96 171.879 81.46C172.309 80.96 172.524 80.245 172.524 79.315ZM195.878 76.42V77.38H193.793V80.245H192.653V73.465H193.793V76.42H195.878ZM189.833 79.945H183.683V74.095H189.833V79.945ZM188.708 75.025H184.808V79.015H188.708V75.025ZM193.298 81.91H190.148V80.995H193.298V81.91ZM188.498 85.3L188.783 86.245C188.393 86.415 187.928 86.555 187.388 86.665C186.848 86.785 186.283 86.845 185.693 86.845H185.423C185.183 86.845 184.998 86.78 184.868 86.65C184.738 86.52 184.673 86.33 184.673 86.08V81.505H185.738V85.825H185.933C186.403 85.825 186.863 85.77 187.313 85.66C187.773 85.56 188.168 85.44 188.498 85.3ZM188.528 83.095H194.903V83.95H193.193V84.04C193.513 84.19 193.753 84.39 193.913 84.64C194.073 84.89 194.153 85.175 194.153 85.495C194.153 86.015 193.933 86.45 193.493 86.8C193.053 87.16 192.463 87.34 191.723 87.34C190.973 87.34 190.378 87.16 189.938 86.8C189.498 86.45 189.278 86.015 189.278 85.495C189.278 85.165 189.358 84.875 189.518 84.625C189.678 84.375 189.923 84.175 190.253 84.025V83.95H188.528V83.095ZM193.193 85.24C193.193 84.86 193.063 84.56 192.803 84.34C192.553 84.12 192.223 84.01 191.813 84.01H191.618C191.208 84.01 190.873 84.12 190.613 84.34C190.363 84.56 190.238 84.86 190.238 85.24C190.238 85.62 190.363 85.92 190.613 86.14C190.873 86.36 191.208 86.47 191.618 86.47H191.813C192.223 86.47 192.553 86.36 192.803 86.14C193.063 85.92 193.193 85.62 193.193 85.24ZM209.237 79.555H207.077V86.515H205.937V73.495H207.077V78.595H209.237V79.555ZM204.362 81.685L204.512 82.6C202.982 82.91 201.072 83.065 198.782 83.065H197.192V74.53H203.177V75.49H198.332V82.12H198.767C200.967 82.12 202.832 81.975 204.362 81.685ZM211.451 85.18C211.131 85.18 210.896 85.1 210.746 84.94C210.606 84.78 210.536 84.57 210.536 84.31V84.115C210.536 83.855 210.606 83.645 210.746 83.485C210.896 83.325 211.131 83.245 211.451 83.245C211.771 83.245 212.001 83.325 212.141 83.485C212.291 83.645 212.366 83.855 212.366 84.115V84.31C212.366 84.57 212.291 84.78 212.141 84.94C212.001 85.1 211.771 85.18 211.451 85.18ZM229.178 73.465V86.485H228.083V73.465H229.178ZM225.158 73.66H226.208V86.14H225.158V81.295H222.953V80.38H225.158V77.86H223.118C223.038 78.68 222.843 79.4 222.533 80.02C222.223 80.64 221.763 81.24 221.153 81.82C220.543 82.39 219.708 83.035 218.648 83.755L217.928 83.02C219.058 82.28 219.913 81.625 220.493 81.055C221.073 80.475 221.483 79.865 221.723 79.225C221.963 78.585 222.083 77.795 222.083 76.855V75.685H218.258V74.8H223.163V76.825V76.945H225.158V73.66ZM242.207 73.465V82.42H241.067V73.465H242.207ZM237.512 74.455H233.537V73.57H237.512V74.455ZM240.062 81.67C238.922 81.85 237.567 81.99 235.997 82.09C234.427 82.18 232.807 82.225 231.137 82.225L231.047 81.295C232.557 81.295 233.837 81.27 234.887 81.22V80.17C234.107 80.1 233.487 79.9 233.027 79.57C232.577 79.23 232.352 78.805 232.352 78.295C232.352 77.565 232.752 77.045 233.552 76.735V76.66H231.422V75.805H239.357V76.66H237.317V76.75C238.117 77.05 238.517 77.565 238.517 78.295C238.517 78.805 238.287 79.23 237.827 79.57C237.377 79.9 236.757 80.1 235.967 80.17V81.175C237.547 81.095 238.877 80.975 239.957 80.815L240.062 81.67ZM235.202 79.3H235.652C236.192 79.3 236.632 79.19 236.972 78.97C237.322 78.74 237.497 78.42 237.497 78.01C237.497 77.6 237.327 77.285 236.987 77.065C236.647 76.835 236.202 76.72 235.652 76.72H235.202C234.652 76.72 234.207 76.835 233.867 77.065C233.537 77.285 233.372 77.6 233.372 78.01C233.372 78.42 233.542 78.74 233.882 78.97C234.222 79.19 234.662 79.3 235.202 79.3ZM233.432 83.215H242.207V87.175H241.097V84.1H233.432V83.215ZM255.596 73.465V81.355H254.456V77.74H251.726V76.81H254.456V73.465H255.596ZM245.546 81.025L244.691 80.305C245.531 79.615 246.181 79.025 246.641 78.535C247.101 78.035 247.431 77.545 247.631 77.065C247.841 76.585 247.946 76.04 247.946 75.43V75.265H245.081V74.305H251.921V75.265H249.086V75.49C249.086 76.34 248.911 77.095 248.561 77.755L248.651 77.8L248.891 77.635C249.001 77.545 249.111 77.5 249.221 77.5C249.351 77.5 249.466 77.545 249.566 77.635L252.356 80.035L251.516 80.785L248.681 78.28C248.601 78.22 248.526 78.19 248.456 78.19C248.376 78.19 248.306 78.22 248.246 78.28C247.986 78.67 247.651 79.07 247.241 79.48C246.831 79.88 246.266 80.395 245.546 81.025ZM247.001 82.165H255.596V87.145H254.471V83.125H247.001V82.165ZM267.755 73.465H268.895V86.485H267.755V73.465ZM258.125 78.73C258.125 77.27 258.445 76.165 259.085 75.415C259.735 74.665 260.59 74.29 261.65 74.29C262.7 74.29 263.545 74.665 264.185 75.415C264.835 76.165 265.16 77.27 265.16 78.73C265.16 79.71 265.01 80.535 264.71 81.205C264.41 81.865 263.995 82.36 263.465 82.69C262.935 83.01 262.33 83.17 261.65 83.17C260.59 83.17 259.735 82.795 259.085 82.045C258.445 81.295 258.125 80.19 258.125 78.73ZM263.945 79.315V78.145C263.945 77.215 263.73 76.5 263.3 76C262.88 75.5 262.33 75.25 261.65 75.25C260.96 75.25 260.4 75.5 259.97 76C259.55 76.49 259.34 77.205 259.34 78.145V79.315C259.34 80.255 259.55 80.975 259.97 81.475C260.4 81.965 260.96 82.21 261.65 82.21C262.33 82.21 262.88 81.96 263.3 81.46C263.73 80.96 263.945 80.245 263.945 79.315ZM283.739 79.555H281.579V86.515H280.439V73.495H281.579V78.595H283.739V79.555ZM278.864 81.685L279.014 82.6C277.484 82.91 275.574 83.065 273.284 83.065H271.694V74.53H277.679V75.49H272.834V82.12H273.269C275.469 82.12 277.334 81.975 278.864 81.685ZM285.953 85.18C285.633 85.18 285.398 85.1 285.248 84.94C285.108 84.78 285.038 84.57 285.038 84.31V84.115C285.038 83.855 285.108 83.645 285.248 83.485C285.398 83.325 285.633 83.245 285.953 83.245C286.273 83.245 286.503 83.325 286.643 83.485C286.793 83.645 286.868 83.855 286.868 84.115V84.31C286.868 84.57 286.793 84.78 286.643 84.94C286.503 85.1 286.273 85.18 285.953 85.18ZM29.5502 102.675V103.65H17.3102V102.675H20.9702C21.2002 101.925 21.3752 101.185 21.4952 100.455C21.6252 99.715 21.6852 98.91 21.6752 98.04V97.995H18.5102V97.05H22.7552V98.07C22.7552 99.64 22.5302 101.175 22.0802 102.675H26.3702C26.7502 101.125 26.9352 99.58 26.9252 98.04V97.995H23.6852V97.05H28.0202V98.13C28.0202 99.63 27.8402 101.145 27.4802 102.675H29.5502ZM20.2652 108.765H28.0202V109.71H19.8752C19.6352 109.71 19.4502 109.645 19.3202 109.515C19.1902 109.385 19.1252 109.195 19.1252 108.945V105.36H20.2652V108.765ZM40.7043 96.465H41.8443V109.485H40.7043V96.465ZM31.2693 105.9C32.6493 105.19 33.7043 104.54 34.4343 103.95C35.1643 103.36 35.6743 102.735 35.9643 102.075C36.2643 101.415 36.4143 100.6 36.4143 99.63V98.505H31.6443V97.53H37.5543V99.615C37.5543 100.725 37.3843 101.665 37.0443 102.435C36.7143 103.205 36.1493 103.925 35.3493 104.595C34.5593 105.255 33.4243 105.98 31.9443 106.77L31.2693 105.9ZM55.2933 103.98H54.1383V96.465H55.2933V103.98ZM44.4933 100.2C44.4933 99.54 44.6383 98.965 44.9283 98.475C45.2283 97.985 45.6383 97.61 46.1583 97.35C46.6783 97.08 47.2733 96.945 47.9433 96.945C48.6133 96.945 49.2083 97.08 49.7283 97.35C50.2483 97.61 50.6533 97.985 50.9433 98.475C51.2433 98.965 51.3933 99.54 51.3933 100.2C51.3933 100.86 51.2433 101.435 50.9433 101.925C50.6533 102.415 50.2433 102.795 49.7133 103.065C49.1933 103.325 48.6033 103.455 47.9433 103.455C47.2833 103.455 46.6883 103.325 46.1583 103.065C45.6383 102.795 45.2283 102.415 44.9283 101.925C44.6383 101.435 44.4933 100.86 44.4933 100.2ZM45.6933 100.455C45.6933 101.075 45.8983 101.575 46.3083 101.955C46.7283 102.325 47.2733 102.51 47.9433 102.51C48.6133 102.51 49.1533 102.325 49.5633 101.955C49.9733 101.575 50.1783 101.075 50.1783 100.455V99.93C50.1783 99.31 49.9733 98.815 49.5633 98.445C49.1533 98.075 48.6133 97.89 47.9433 97.89C47.2733 97.89 46.7283 98.075 46.3083 98.445C45.8983 98.815 45.6933 99.31 45.6933 99.93V100.455ZM56.5233 109.275L55.7883 110.055L53.5683 107.88C53.5083 107.81 53.4383 107.775 53.3583 107.775C53.3183 107.775 53.2733 107.79 53.2233 107.82C52.9933 108.16 52.6983 108.51 52.3383 108.87C51.9783 109.24 51.4983 109.685 50.8983 110.205L48.6183 107.835C48.5483 107.765 48.4783 107.73 48.4083 107.73C48.3683 107.73 48.3133 107.755 48.2433 107.805C47.8033 108.465 47.0533 109.25 45.9933 110.16L45.2733 109.395C45.9433 108.835 46.4683 108.335 46.8483 107.895C47.2283 107.455 47.4983 107.02 47.6583 106.59C47.8283 106.16 47.9133 105.675 47.9133 105.135V104.655H48.9933V105.165C48.9933 105.985 48.8383 106.7 48.5283 107.31L48.5883 107.34L48.7833 107.19C48.8633 107.12 48.9583 107.085 49.0683 107.085C49.1883 107.085 49.2933 107.13 49.3833 107.22L50.9733 108.81C51.6933 108.16 52.1883 107.575 52.4583 107.055C52.7283 106.535 52.8633 105.9 52.8633 105.15V104.655H53.9433V105.21C53.9433 105.65 53.9083 106.04 53.8383 106.38C53.7683 106.72 53.6533 107.045 53.4933 107.355L53.5533 107.4L53.7483 107.235C53.8583 107.155 53.9633 107.115 54.0633 107.115C54.1633 107.115 54.2633 107.155 54.3633 107.235L56.5233 109.275ZM70.0623 102.555H67.9023V109.515H66.7623V96.495H67.9023V101.595H70.0623V102.555ZM65.1873 104.685L65.3373 105.6C63.8073 105.91 61.8973 106.065 59.6073 106.065H58.0173V97.53H64.0023V98.49H59.1573V105.12H59.5923C61.7923 105.12 63.6573 104.975 65.1873 104.685ZM72.2763 108.18C71.9563 108.18 71.7213 108.1 71.5713 107.94C71.4313 107.78 71.3613 107.57 71.3613 107.31V107.115C71.3613 106.855 71.4313 106.645 71.5713 106.485C71.7213 106.325 71.9563 106.245 72.2763 106.245C72.5963 106.245 72.8263 106.325 72.9663 106.485C73.1163 106.645 73.1913 106.855 73.1913 107.115V107.31C73.1913 107.57 73.1163 107.78 72.9663 107.94C72.8263 108.1 72.5963 108.18 72.2763 108.18ZM90.0032 96.465V104.82H88.9082V101.145H86.8832V104.685H85.8032V96.675H86.8832V100.2H88.9082V96.465H90.0032ZM83.5682 97.92H80.0882V97.005H83.5682V97.92ZM81.7532 102.42C81.6832 102.42 81.6182 102.45 81.5582 102.51C81.1382 103.1 80.3882 103.845 79.3082 104.745L78.5582 104.085C79.2582 103.505 79.7982 103.015 80.1782 102.615C80.5582 102.205 80.8382 101.81 81.0182 101.43C81.1982 101.04 81.2982 100.61 81.3182 100.14H78.8582V99.225H84.7532V100.14H82.3682C82.3382 100.81 82.1682 101.435 81.8582 102.015L81.9182 102.045L82.1432 101.88C82.2232 101.81 82.3132 101.775 82.4132 101.775C82.5232 101.775 82.6432 101.825 82.7732 101.925L85.0532 103.83L84.3032 104.505L81.9932 102.51C81.9232 102.45 81.8432 102.42 81.7532 102.42ZM81.1832 105.615H90.0032V110.145H88.8782V106.575H81.1832V105.615ZM103.047 96.465V103.98H101.892V96.465H103.047ZM92.2472 100.14C92.2472 99.48 92.3922 98.905 92.6822 98.415C92.9822 97.925 93.3922 97.55 93.9122 97.29C94.4322 97.03 95.0272 96.9 95.6972 96.9C96.3672 96.9 96.9622 97.03 97.4822 97.29C98.0022 97.55 98.4072 97.925 98.6972 98.415C98.9972 98.905 99.1472 99.48 99.1472 100.14C99.1472 100.8 98.9972 101.375 98.6972 101.865C98.4072 102.355 98.0022 102.73 97.4822 102.99C96.9622 103.25 96.3672 103.38 95.6972 103.38C95.0272 103.38 94.4322 103.25 93.9122 102.99C93.3922 102.73 92.9822 102.355 92.6822 101.865C92.3922 101.375 92.2472 100.8 92.2472 100.14ZM97.9322 100.395V99.885C97.9322 99.265 97.7222 98.77 97.3022 98.4C96.8922 98.02 96.3572 97.83 95.6972 97.83C95.0272 97.83 94.4822 98.02 94.0622 98.4C93.6522 98.77 93.4472 99.265 93.4472 99.885V100.395C93.4472 101.015 93.6522 101.515 94.0622 101.895C94.4822 102.265 95.0272 102.45 95.6972 102.45C96.3572 102.45 96.8922 102.265 97.3022 101.895C97.7222 101.515 97.9322 101.015 97.9322 100.395ZM94.7972 109.26V104.79H103.047V110.025H95.5472C95.3072 110.025 95.1222 109.96 94.9922 109.83C94.8622 109.7 94.7972 109.51 94.7972 109.26ZM101.892 105.735H95.9372V109.065H101.892V105.735ZM117.831 100.725H115.746V103.98H114.606V96.465H115.746V99.765H117.831V100.725ZM106.056 103.935L105.456 103.065C106.806 102.545 107.831 102.08 108.531 101.67C109.241 101.25 109.736 100.815 110.016 100.365C110.306 99.905 110.451 99.35 110.451 98.7V98.13H105.831V97.17H111.606V98.58C111.606 99.45 111.441 100.175 111.111 100.755C110.791 101.325 110.241 101.855 109.461 102.345C108.681 102.825 107.546 103.355 106.056 103.935ZM107.631 104.79H115.746V110.025H108.381C108.141 110.025 107.956 109.96 107.826 109.83C107.696 109.7 107.631 109.51 107.631 109.26V104.79ZM108.771 109.065H114.606V105.735H108.771V109.065ZM129.795 103.98H128.64V96.465H129.795V103.98ZM118.995 100.2C118.995 99.54 119.14 98.965 119.43 98.475C119.73 97.985 120.14 97.61 120.66 97.35C121.18 97.08 121.775 96.945 122.445 96.945C123.115 96.945 123.71 97.08 124.23 97.35C124.75 97.61 125.155 97.985 125.445 98.475C125.745 98.965 125.895 99.54 125.895 100.2C125.895 100.86 125.745 101.435 125.445 101.925C125.155 102.415 124.745 102.795 124.215 103.065C123.695 103.325 123.105 103.455 122.445 103.455C121.785 103.455 121.19 103.325 120.66 103.065C120.14 102.795 119.73 102.415 119.43 101.925C119.14 101.435 118.995 100.86 118.995 100.2ZM120.195 100.455C120.195 101.075 120.4 101.575 120.81 101.955C121.23 102.325 121.775 102.51 122.445 102.51C123.115 102.51 123.655 102.325 124.065 101.955C124.475 101.575 124.68 101.075 124.68 100.455V99.93C124.68 99.31 124.475 98.815 124.065 98.445C123.655 98.075 123.115 97.89 122.445 97.89C121.775 97.89 121.23 98.075 120.81 98.445C120.4 98.815 120.195 99.31 120.195 99.93V100.455ZM131.025 109.275L130.29 110.055L128.07 107.88C128.01 107.81 127.94 107.775 127.86 107.775C127.82 107.775 127.775 107.79 127.725 107.82C127.495 108.16 127.2 108.51 126.84 108.87C126.48 109.24 126 109.685 125.4 110.205L123.12 107.835C123.05 107.765 122.98 107.73 122.91 107.73C122.87 107.73 122.815 107.755 122.745 107.805C122.305 108.465 121.555 109.25 120.495 110.16L119.775 109.395C120.445 108.835 120.97 108.335 121.35 107.895C121.73 107.455 122 107.02 122.16 106.59C122.33 106.16 122.415 105.675 122.415 105.135V104.655H123.495V105.165C123.495 105.985 123.34 106.7 123.03 107.31L123.09 107.34L123.285 107.19C123.365 107.12 123.46 107.085 123.57 107.085C123.69 107.085 123.795 107.13 123.885 107.22L125.475 108.81C126.195 108.16 126.69 107.575 126.96 107.055C127.23 106.535 127.365 105.9 127.365 105.15V104.655H128.445V105.21C128.445 105.65 128.41 106.04 128.34 106.38C128.27 106.72 128.155 107.045 127.995 107.355L128.055 107.4L128.25 107.235C128.36 107.155 128.465 107.115 128.565 107.115C128.665 107.115 128.765 107.155 128.865 107.235L131.025 109.275ZM144.564 102.555H142.404V109.515H141.264V96.495H142.404V101.595H144.564V102.555ZM139.689 104.685L139.839 105.6C138.309 105.91 136.399 106.065 134.109 106.065H132.519V97.53H138.504V98.49H133.659V105.12H134.094C136.294 105.12 138.159 104.975 139.689 104.685ZM146.778 108.18C146.458 108.18 146.223 108.1 146.073 107.94C145.933 107.78 145.863 107.57 145.863 107.31V107.115C145.863 106.855 145.933 106.645 146.073 106.485C146.223 106.325 146.458 106.245 146.778 106.245C147.098 106.245 147.328 106.325 147.468 106.485C147.618 106.645 147.693 106.855 147.693 107.115V107.31C147.693 107.57 147.618 107.78 147.468 107.94C147.328 108.1 147.098 108.18 146.778 108.18ZM164.505 96.465V109.485H163.425V96.465H164.505ZM160.545 96.66H161.58V109.14H160.545V104.085H158.685C158.455 104.795 158.11 105.33 157.65 105.69C157.2 106.05 156.655 106.23 156.015 106.23C155.095 106.23 154.365 105.865 153.825 105.135C153.295 104.405 153.03 103.32 153.03 101.88C153.03 100.44 153.295 99.36 153.825 98.64C154.365 97.91 155.095 97.545 156.015 97.545C156.625 97.545 157.155 97.715 157.605 98.055C158.055 98.385 158.4 98.88 158.64 99.54H160.545V96.66ZM157.86 101.145C157.86 100.265 157.69 99.595 157.35 99.135C157.01 98.665 156.565 98.43 156.015 98.43C155.455 98.43 155.005 98.665 154.665 99.135C154.335 99.595 154.17 100.265 154.17 101.145V102.63C154.17 103.51 154.335 104.18 154.665 104.64C155.005 105.1 155.455 105.33 156.015 105.33C156.565 105.33 157.01 105.1 157.35 104.64C157.69 104.18 157.86 103.51 157.86 102.63V101.145ZM160.545 103.17V100.455H158.88C158.95 100.945 158.985 101.42 158.985 101.88C158.985 102.35 158.955 102.78 158.895 103.17H160.545ZM177.549 96.465V106.35H176.394V96.465H177.549ZM173.334 97.305V103.68H167.079V97.305H173.334ZM172.194 98.25H168.234V102.735H172.194V98.25ZM169.209 109.005V105.27H170.364V108.825H177.819V109.77H169.959C169.719 109.77 169.534 109.705 169.404 109.575C169.274 109.445 169.209 109.255 169.209 109.005ZM192.318 102.795H190.203V109.515H189.063V96.495H190.203V101.835H192.318V102.795ZM185.868 98.175H181.608V97.2H185.868V98.175ZM179.613 99.975H187.638V100.905H185.418V100.995C186.328 101.445 186.783 102.31 186.783 103.59C186.783 104.24 186.648 104.805 186.378 105.285C186.108 105.755 185.733 106.115 185.253 106.365C184.783 106.615 184.258 106.74 183.678 106.74C183.098 106.74 182.568 106.615 182.088 106.365C181.618 106.115 181.248 105.755 180.978 105.285C180.708 104.805 180.573 104.24 180.573 103.59C180.573 102.31 181.028 101.445 181.938 100.995V100.905H179.613V99.975ZM185.673 103.095C185.673 102.425 185.493 101.915 185.133 101.565C184.773 101.205 184.288 101.025 183.678 101.025C183.078 101.025 182.593 101.205 182.223 101.565C181.863 101.925 181.683 102.435 181.683 103.095V103.71C181.683 104.36 181.868 104.87 182.238 105.24C182.608 105.6 183.088 105.78 183.678 105.78C184.268 105.78 184.748 105.6 185.118 105.24C185.488 104.87 185.673 104.36 185.673 103.71V103.095ZM205.692 102.555H203.532V109.515H202.392V96.495H203.532V101.595H205.692V102.555ZM200.817 104.685L200.967 105.6C199.437 105.91 197.527 106.065 195.237 106.065H193.647V97.53H199.632V98.49H194.787V105.12H195.222C197.422 105.12 199.287 104.975 200.817 104.685ZM207.906 108.18C207.586 108.18 207.351 108.1 207.201 107.94C207.061 107.78 206.991 107.57 206.991 107.31V107.115C206.991 106.855 207.061 106.645 207.201 106.485C207.351 106.325 207.586 106.245 207.906 106.245C208.226 106.245 208.456 106.325 208.596 106.485C208.746 106.645 208.821 106.855 208.821 107.115V107.31C208.821 107.57 208.746 107.78 208.596 107.94C208.456 108.1 208.226 108.18 207.906 108.18ZM226.308 103.2V104.145H214.068V103.2H217.323V101.37C216.773 101.13 216.358 100.825 216.078 100.455C215.808 100.085 215.673 99.66 215.673 99.18C215.673 98.39 216.053 97.75 216.813 97.26C217.573 96.77 218.698 96.525 220.188 96.525C221.678 96.525 222.803 96.77 223.563 97.26C224.323 97.75 224.703 98.39 224.703 99.18C224.703 99.66 224.563 100.085 224.283 100.455C224.013 100.825 223.603 101.13 223.053 101.37V103.2H226.308ZM220.188 100.95C221.288 100.95 222.113 100.795 222.663 100.485C223.223 100.165 223.503 99.765 223.503 99.285V99.075C223.503 98.595 223.223 98.2 222.663 97.89C222.113 97.57 221.288 97.41 220.188 97.41C219.088 97.41 218.263 97.57 217.713 97.89C217.163 98.2 216.888 98.595 216.888 99.075V99.285C216.888 99.765 217.163 100.165 217.713 100.485C218.263 100.795 219.088 100.95 220.188 100.95ZM218.418 103.2H221.958V101.685C221.468 101.785 220.878 101.835 220.188 101.835C219.498 101.835 218.908 101.785 218.418 101.685V103.2ZM215.763 105.57H224.478V110.085H223.338V106.53H215.763V105.57ZM238.677 96.465V103.98H237.522V96.465H238.677ZM231.507 100.725C231.437 100.725 231.372 100.76 231.312 100.83C231.052 101.26 230.712 101.7 230.292 102.15C229.872 102.59 229.287 103.155 228.537 103.845L227.682 103.11C228.542 102.35 229.202 101.7 229.662 101.16C230.122 100.62 230.452 100.085 230.652 99.555C230.862 99.025 230.967 98.425 230.967 97.755V96.945H232.122V97.83C232.122 98.76 231.947 99.59 231.597 100.32L231.672 100.365L231.912 100.155C232.022 100.065 232.132 100.02 232.242 100.02C232.352 100.02 232.457 100.065 232.557 100.155L235.437 102.78L234.612 103.575L231.702 100.815C231.642 100.755 231.577 100.725 231.507 100.725ZM230.427 104.79H238.677V110.025H231.177C230.937 110.025 230.752 109.96 230.622 109.83C230.492 109.7 230.427 109.51 230.427 109.26V104.79ZM231.567 109.065H237.522V105.735H231.567V109.065ZM250.836 96.465H251.976V109.485H250.836V96.465ZM241.206 101.73C241.206 100.27 241.526 99.165 242.166 98.415C242.816 97.665 243.671 97.29 244.731 97.29C245.781 97.29 246.626 97.665 247.266 98.415C247.916 99.165 248.241 100.27 248.241 101.73C248.241 102.71 248.091 103.535 247.791 104.205C247.491 104.865 247.076 105.36 246.546 105.69C246.016 106.01 245.411 106.17 244.731 106.17C243.671 106.17 242.816 105.795 242.166 105.045C241.526 104.295 241.206 103.19 241.206 101.73ZM247.026 102.315V101.145C247.026 100.215 246.811 99.5 246.381 99C245.961 98.5 245.411 98.25 244.731 98.25C244.041 98.25 243.481 98.5 243.051 99C242.631 99.49 242.421 100.205 242.421 101.145V102.315C242.421 103.255 242.631 103.975 243.051 104.475C243.481 104.965 244.041 105.21 244.731 105.21C245.411 105.21 245.961 104.96 246.381 104.46C246.811 103.96 247.026 103.245 247.026 102.315ZM270.38 99.42V100.38H268.295V103.245H267.155V96.465H268.295V99.42H270.38ZM264.335 102.945H258.185V97.095H264.335V102.945ZM263.21 98.025H259.31V102.015H263.21V98.025ZM267.8 104.91H264.65V103.995H267.8V104.91ZM263 108.3L263.285 109.245C262.895 109.415 262.43 109.555 261.89 109.665C261.35 109.785 260.785 109.845 260.195 109.845H259.925C259.685 109.845 259.5 109.78 259.37 109.65C259.24 109.52 259.175 109.33 259.175 109.08V104.505H260.24V108.825H260.435C260.905 108.825 261.365 108.77 261.815 108.66C262.275 108.56 262.67 108.44 263 108.3ZM263.03 106.095H269.405V106.95H267.695V107.04C268.015 107.19 268.255 107.39 268.415 107.64C268.575 107.89 268.655 108.175 268.655 108.495C268.655 109.015 268.435 109.45 267.995 109.8C267.555 110.16 266.965 110.34 266.225 110.34C265.475 110.34 264.88 110.16 264.44 109.8C264 109.45 263.78 109.015 263.78 108.495C263.78 108.165 263.86 107.875 264.02 107.625C264.18 107.375 264.425 107.175 264.755 107.025V106.95H263.03V106.095ZM267.695 108.24C267.695 107.86 267.565 107.56 267.305 107.34C267.055 107.12 266.725 107.01 266.315 107.01H266.12C265.71 107.01 265.375 107.12 265.115 107.34C264.865 107.56 264.74 107.86 264.74 108.24C264.74 108.62 264.865 108.92 265.115 109.14C265.375 109.36 265.71 109.47 266.12 109.47H266.315C266.725 109.47 267.055 109.36 267.305 109.14C267.565 108.92 267.695 108.62 267.695 108.24ZM283.739 102.555H281.579V109.515H280.439V96.495H281.579V101.595H283.739V102.555ZM278.864 104.685L279.014 105.6C277.484 105.91 275.574 106.065 273.284 106.065H271.694V97.53H277.679V98.49H272.834V105.12H273.269C275.469 105.12 277.334 104.975 278.864 104.685ZM285.953 108.18C285.633 108.18 285.398 108.1 285.248 107.94C285.108 107.78 285.038 107.57 285.038 107.31V107.115C285.038 106.855 285.108 106.645 285.248 106.485C285.398 106.325 285.633 106.245 285.953 106.245C286.273 106.245 286.503 106.325 286.643 106.485C286.793 106.645 286.868 106.855 286.868 107.115V107.31C286.868 107.57 286.793 107.78 286.643 107.94C286.503 108.1 286.273 108.18 285.953 108.18ZM76.1382 126.815L75.4932 125.93C76.8632 125.24 77.9082 124.625 78.6282 124.085C79.3482 123.535 79.8482 122.99 80.1282 122.45C80.4182 121.91 80.5632 121.285 80.5632 120.575V120.08H81.7332V120.62C81.7332 121.2 81.6682 121.715 81.5382 122.165C81.4182 122.615 81.2132 123.04 80.9232 123.44L81.0132 123.485L81.3732 123.2C81.5032 123.1 81.6382 123.05 81.7782 123.05C81.8882 123.05 82.0132 123.09 82.1532 123.17L86.5332 125.87L85.8882 126.77L81.3432 123.875C81.1632 123.785 81.0182 123.74 80.9082 123.74C80.7882 123.74 80.6782 123.775 80.5782 123.845C80.1682 124.295 79.6082 124.755 78.8982 125.225C78.1982 125.685 77.2782 126.215 76.1382 126.815ZM87.1332 130.04V131H74.8932V130.04H80.4432V126.725H81.5832V130.04H87.1332ZM99.5023 119.465V126.98H98.3473V119.465H99.5023ZM92.3323 123.725C92.2623 123.725 92.1973 123.76 92.1373 123.83C91.8773 124.26 91.5373 124.7 91.1173 125.15C90.6973 125.59 90.1123 126.155 89.3623 126.845L88.5073 126.11C89.3673 125.35 90.0273 124.7 90.4873 124.16C90.9473 123.62 91.2773 123.085 91.4773 122.555C91.6873 122.025 91.7923 121.425 91.7923 120.755V119.945H92.9473V120.83C92.9473 121.76 92.7723 122.59 92.4223 123.32L92.4973 123.365L92.7373 123.155C92.8473 123.065 92.9573 123.02 93.0673 123.02C93.1773 123.02 93.2823 123.065 93.3823 123.155L96.2623 125.78L95.4373 126.575L92.5273 123.815C92.4673 123.755 92.4023 123.725 92.3323 123.725ZM91.2523 127.79H99.5023V133.025H92.0023C91.7623 133.025 91.5773 132.96 91.4473 132.83C91.3173 132.7 91.2523 132.51 91.2523 132.26V127.79ZM92.3923 132.065H98.3473V128.735H92.3923V132.065ZM114.271 125.795H112.156V132.515H111.016V119.495H112.156V124.835H114.271V125.795ZM107.821 121.175H103.561V120.2H107.821V121.175ZM101.566 122.975H109.591V123.905H107.371V123.995C108.281 124.445 108.736 125.31 108.736 126.59C108.736 127.24 108.601 127.805 108.331 128.285C108.061 128.755 107.686 129.115 107.206 129.365C106.736 129.615 106.211 129.74 105.631 129.74C105.051 129.74 104.521 129.615 104.041 129.365C103.571 129.115 103.201 128.755 102.931 128.285C102.661 127.805 102.526 127.24 102.526 126.59C102.526 125.31 102.981 124.445 103.891 123.995V123.905H101.566V122.975ZM107.626 126.095C107.626 125.425 107.446 124.915 107.086 124.565C106.726 124.205 106.241 124.025 105.631 124.025C105.031 124.025 104.546 124.205 104.176 124.565C103.816 124.925 103.636 125.435 103.636 126.095V126.71C103.636 127.36 103.821 127.87 104.191 128.24C104.561 128.6 105.041 128.78 105.631 128.78C106.221 128.78 106.701 128.6 107.071 128.24C107.441 127.87 107.626 127.36 107.626 126.71V126.095ZM127.645 125.555H125.485V132.515H124.345V119.495H125.485V124.595H127.645V125.555ZM122.77 127.685L122.92 128.6C121.39 128.91 119.48 129.065 117.19 129.065H115.6V120.53H121.585V121.49H116.74V128.12H117.175C119.375 128.12 121.24 127.975 122.77 127.685ZM129.859 131.18C129.539 131.18 129.304 131.1 129.154 130.94C129.014 130.78 128.944 130.57 128.944 130.31V130.115C128.944 129.855 129.014 129.645 129.154 129.485C129.304 129.325 129.539 129.245 129.859 129.245C130.179 129.245 130.409 129.325 130.549 129.485C130.699 129.645 130.774 129.855 130.774 130.115V130.31C130.774 130.57 130.699 130.78 130.549 130.94C130.409 131.1 130.179 131.18 129.859 131.18ZM147.256 119.465V126.695H146.116V123.695H143.206V122.75H146.116V119.465H147.256ZM137.131 126.8L136.531 125.93C137.871 125.43 138.891 124.975 139.591 124.565C140.301 124.155 140.796 123.73 141.076 123.29C141.366 122.84 141.511 122.3 141.511 121.67V121.1H136.906V120.14H142.651V121.52C142.651 122.38 142.486 123.095 142.156 123.665C141.836 124.225 141.286 124.745 140.506 125.225C139.736 125.705 138.611 126.23 137.131 126.8ZM146.116 127.535H147.256V133.025H139.771C139.531 133.025 139.346 132.96 139.216 132.83C139.086 132.7 139.021 132.51 139.021 132.26V127.535H140.131V129.26H146.116V127.535ZM146.116 130.235H140.131V132.05H146.116V130.235ZM159.415 119.465H160.555V132.485H159.415V119.465ZM149.785 124.73C149.785 123.27 150.105 122.165 150.745 121.415C151.395 120.665 152.25 120.29 153.31 120.29C154.36 120.29 155.205 120.665 155.845 121.415C156.495 122.165 156.82 123.27 156.82 124.73C156.82 125.71 156.67 126.535 156.37 127.205C156.07 127.865 155.655 128.36 155.125 128.69C154.595 129.01 153.99 129.17 153.31 129.17C152.25 129.17 151.395 128.795 150.745 128.045C150.105 127.295 149.785 126.19 149.785 124.73ZM155.605 125.315V124.145C155.605 123.215 155.39 122.5 154.96 122C154.54 121.5 153.99 121.25 153.31 121.25C152.62 121.25 152.06 121.5 151.63 122C151.21 122.49 151 123.205 151 124.145V125.315C151 126.255 151.21 126.975 151.63 127.475C152.06 127.965 152.62 128.21 153.31 128.21C153.99 128.21 154.54 127.96 154.96 127.46C155.39 126.96 155.605 126.245 155.605 125.315ZM178.959 122.42V123.38H176.874V126.245H175.734V119.465H176.874V122.42H178.959ZM172.914 125.945H166.764V120.095H172.914V125.945ZM171.789 121.025H167.889V125.015H171.789V121.025ZM176.379 127.91H173.229V126.995H176.379V127.91ZM171.579 131.3L171.864 132.245C171.474 132.415 171.009 132.555 170.469 132.665C169.929 132.785 169.364 132.845 168.774 132.845H168.504C168.264 132.845 168.079 132.78 167.949 132.65C167.819 132.52 167.754 132.33 167.754 132.08V127.505H168.819V131.825H169.014C169.484 131.825 169.944 131.77 170.394 131.66C170.854 131.56 171.249 131.44 171.579 131.3ZM171.609 129.095H177.984V129.95H176.274V130.04C176.594 130.19 176.834 130.39 176.994 130.64C177.154 130.89 177.234 131.175 177.234 131.495C177.234 132.015 177.014 132.45 176.574 132.8C176.134 133.16 175.544 133.34 174.804 133.34C174.054 133.34 173.459 133.16 173.019 132.8C172.579 132.45 172.359 132.015 172.359 131.495C172.359 131.165 172.439 130.875 172.599 130.625C172.759 130.375 173.004 130.175 173.334 130.025V129.95H171.609V129.095ZM176.274 131.24C176.274 130.86 176.144 130.56 175.884 130.34C175.634 130.12 175.304 130.01 174.894 130.01H174.699C174.289 130.01 173.954 130.12 173.694 130.34C173.444 130.56 173.319 130.86 173.319 131.24C173.319 131.62 173.444 131.92 173.694 132.14C173.954 132.36 174.289 132.47 174.699 132.47H174.894C175.304 132.47 175.634 132.36 175.884 132.14C176.144 131.92 176.274 131.62 176.274 131.24ZM192.318 125.555H190.158V132.515H189.018V119.495H190.158V124.595H192.318V125.555ZM187.443 127.685L187.593 128.6C186.063 128.91 184.153 129.065 181.863 129.065H180.273V120.53H186.258V121.49H181.413V128.12H181.848C184.048 128.12 185.913 127.975 187.443 127.685ZM194.532 131.18C194.212 131.18 193.977 131.1 193.827 130.94C193.687 130.78 193.617 130.57 193.617 130.31V130.115C193.617 129.855 193.687 129.645 193.827 129.485C193.977 129.325 194.212 129.245 194.532 129.245C194.852 129.245 195.082 129.325 195.222 129.485C195.372 129.645 195.447 129.855 195.447 130.115V130.31C195.447 130.57 195.372 130.78 195.222 130.94C195.082 131.1 194.852 131.18 194.532 131.18ZM211.599 121.235H202.014V120.275H211.599V121.235ZM211.734 126.74H201.894V125.795H204.264L203.769 122.465L204.924 122.345L205.329 125.795H208.284L208.689 122.345L209.859 122.465L209.349 125.795H211.734V126.74ZM212.934 130.04V131H200.694V130.04H204.024V127.505H205.134V130.04H208.494V127.505H209.604V130.04H212.934ZM224.148 126.275H222.153V125.345H224.148V123.47H222.153V122.54H224.148V119.465H225.303V129.5H224.148V126.275ZM220.098 120.83H216.123V119.87H220.098V120.83ZM218.013 127.955C217.403 127.955 216.868 127.85 216.408 127.64C215.948 127.43 215.593 127.14 215.343 126.77C215.093 126.4 214.968 125.98 214.968 125.51C214.968 125.03 215.078 124.615 215.298 124.265C215.518 123.905 215.848 123.63 216.288 123.44V123.365H214.158V122.435H221.673V123.365H219.753V123.455C220.193 123.645 220.523 123.915 220.743 124.265C220.963 124.615 221.073 125.03 221.073 125.51C221.073 125.98 220.948 126.4 220.698 126.77C220.448 127.14 220.088 127.43 219.618 127.64C219.158 127.85 218.623 127.955 218.013 127.955ZM217.893 126.995H218.148C218.698 126.995 219.143 126.84 219.483 126.53C219.833 126.22 220.008 125.79 220.008 125.24C220.008 124.69 219.833 124.265 219.483 123.965C219.143 123.655 218.698 123.5 218.148 123.5H217.893C217.333 123.5 216.883 123.655 216.543 123.965C216.203 124.265 216.033 124.69 216.033 125.24C216.033 125.79 216.203 126.22 216.543 126.53C216.893 126.84 217.343 126.995 217.893 126.995ZM225.573 131.9V132.845H217.683C217.443 132.845 217.258 132.78 217.128 132.65C216.998 132.52 216.933 132.33 216.933 132.08V129.08H218.073V131.9H225.573ZM237.462 119.465H238.602V132.485H237.462V119.465ZM227.832 124.73C227.832 123.27 228.152 122.165 228.792 121.415C229.442 120.665 230.297 120.29 231.357 120.29C232.407 120.29 233.252 120.665 233.892 121.415C234.542 122.165 234.867 123.27 234.867 124.73C234.867 125.71 234.717 126.535 234.417 127.205C234.117 127.865 233.702 128.36 233.172 128.69C232.642 129.01 232.037 129.17 231.357 129.17C230.297 129.17 229.442 128.795 228.792 128.045C228.152 127.295 227.832 126.19 227.832 124.73ZM233.652 125.315V124.145C233.652 123.215 233.437 122.5 233.007 122C232.587 121.5 232.037 121.25 231.357 121.25C230.667 121.25 230.107 121.5 229.677 122C229.257 122.49 229.047 123.205 229.047 124.145V125.315C229.047 126.255 229.257 126.975 229.677 127.475C230.107 127.965 230.667 128.21 231.357 128.21C232.037 128.21 232.587 127.96 233.007 127.46C233.437 126.96 233.652 126.245 233.652 125.315ZM255.536 119.465V132.485H254.411V124.79H251.636V123.83H254.411V119.465H255.536ZM249.041 124.715C249.161 124.715 249.266 124.77 249.356 124.88L252.296 128.63L251.426 129.395L248.486 125.525C248.446 125.475 248.396 125.45 248.336 125.45C248.276 125.45 248.226 125.475 248.186 125.525C247.936 126.105 247.591 126.7 247.151 127.31C246.711 127.92 246.111 128.68 245.351 129.59L244.481 128.855C245.351 127.865 246.016 127.02 246.476 126.32C246.946 125.61 247.281 124.9 247.481 124.19C247.691 123.48 247.796 122.665 247.796 121.745V120.335H248.936V121.73C248.936 122.94 248.771 124.02 248.441 124.97L248.501 125.015L248.711 124.835C248.821 124.755 248.931 124.715 249.041 124.715ZM268.325 124.73H259.61V119.66H268.07V120.5H260.705V121.79H267.86V122.6H260.72V123.89H268.325V124.73ZM264.41 126.71V127.985H268.145V130.97H260.675V132.245H268.535V133.145H260.36C260.12 133.145 259.935 133.08 259.805 132.95C259.675 132.82 259.61 132.63 259.61 132.38V130.13H267.08V128.87H259.52V127.985H263.3V126.71H257.735V125.825H269.975V126.71H264.41ZM283.739 125.555H281.579V132.515H280.439V119.495H281.579V124.595H283.739V125.555ZM278.864 127.685L279.014 128.6C277.484 128.91 275.574 129.065 273.284 129.065H271.694V120.53H277.679V121.49H272.834V128.12H273.269C275.469 128.12 277.334 127.975 278.864 127.685ZM285.953 131.18C285.633 131.18 285.398 131.1 285.248 130.94C285.108 130.78 285.038 130.57 285.038 130.31V130.115C285.038 129.855 285.108 129.645 285.248 129.485C285.398 129.325 285.633 129.245 285.953 129.245C286.273 129.245 286.503 129.325 286.643 129.485C286.793 129.645 286.868 129.855 286.868 130.115V130.31C286.868 130.57 286.793 130.78 286.643 130.94C286.503 131.1 286.273 131.18 285.953 131.18Z" fill="#1B1C25"/>
</svg>
