<svg width="56" height="75" viewBox="0 0 56 75" fill="none" xmlns="http://www.w3.org/2000/svg">
<path d="M10.8969 64.88H10.8169C10.6702 65.56 10.2702 66.1267 9.61687 66.58C8.97687 67.02 8.12354 67.24 7.05688 67.24C6.23021 67.24 5.46354 67.0867 4.75687 66.78C4.05021 66.46 3.43687 66 2.91687 65.4C2.41021 64.7867 2.01021 64.0333 1.71687 63.14C1.43687 62.2333 1.29687 61.1933 1.29687 60.02C1.29687 58.86 1.44354 57.8333 1.73687 56.94C2.03021 56.0333 2.44354 55.2733 2.97687 54.66C3.51021 54.0467 4.15021 53.5867 4.89687 53.28C5.64354 52.96 6.47687 52.8 7.39687 52.8C8.65021 52.8 9.71021 53.08 10.5769 53.64C11.4435 54.1867 12.1169 54.9533 12.5969 55.94L10.7569 57.02C10.4902 56.3667 10.0769 55.84 9.51688 55.44C8.95688 55.0267 8.25021 54.82 7.39687 54.82C6.29021 54.82 5.39687 55.1733 4.71687 55.88C4.05021 56.5867 3.71687 57.5867 3.71687 58.88V61.16C3.71687 62.4533 4.05021 63.4533 4.71687 64.16C5.39687 64.8667 6.29021 65.22 7.39687 65.22C7.83687 65.22 8.25687 65.1667 8.65687 65.06C9.05687 64.94 9.40354 64.7733 9.69688 64.56C10.0035 64.3333 10.2435 64.06 10.4169 63.74C10.6035 63.4067 10.6969 63.02 10.6969 62.58V61.5H7.81687V59.56H12.8769V67H10.8969V64.88ZM22.8184 67.24C21.9118 67.24 21.0851 67.0867 20.3384 66.78C19.6051 66.46 18.9718 66 18.4384 65.4C17.9184 64.7867 17.5118 64.0333 17.2184 63.14C16.9384 62.2333 16.7984 61.1933 16.7984 60.02C16.7984 58.8467 16.9384 57.8133 17.2184 56.92C17.5118 56.0133 17.9184 55.26 18.4384 54.66C18.9718 54.0467 19.6051 53.5867 20.3384 53.28C21.0851 52.96 21.9118 52.8 22.8184 52.8C23.7251 52.8 24.5451 52.96 25.2784 53.28C26.0251 53.5867 26.6584 54.0467 27.1784 54.66C27.7118 55.26 28.1184 56.0133 28.3984 56.92C28.6918 57.8133 28.8384 58.8467 28.8384 60.02C28.8384 61.1933 28.6918 62.2333 28.3984 63.14C28.1184 64.0333 27.7118 64.7867 27.1784 65.4C26.6584 66 26.0251 66.46 25.2784 66.78C24.5451 67.0867 23.7251 67.24 22.8184 67.24ZM22.8184 65.22C23.3518 65.22 23.8384 65.1267 24.2784 64.94C24.7318 64.7533 25.1118 64.4867 25.4184 64.14C25.7384 63.78 25.9851 63.3467 26.1584 62.84C26.3318 62.3333 26.4184 61.76 26.4184 61.12V58.92C26.4184 58.28 26.3318 57.7067 26.1584 57.2C25.9851 56.6933 25.7384 56.2667 25.4184 55.92C25.1118 55.56 24.7318 55.2867 24.2784 55.1C23.8384 54.9133 23.3518 54.82 22.8184 54.82C22.2718 54.82 21.7784 54.9133 21.3384 55.1C20.8984 55.2867 20.5184 55.56 20.1984 55.92C19.8918 56.2667 19.6518 56.6933 19.4784 57.2C19.3051 57.7067 19.2184 58.28 19.2184 58.92V61.12C19.2184 61.76 19.3051 62.3333 19.4784 62.84C19.6518 63.3467 19.8918 63.78 20.1984 64.14C20.5184 64.4867 20.8984 64.7533 21.3384 64.94C21.7784 65.1267 22.2718 65.22 22.8184 65.22ZM41.347 67L40.087 63.22H34.867L33.647 67H31.347L36.107 53.04H38.947L43.707 67H41.347ZM37.527 55.12H37.427L35.407 61.28H39.527L37.527 55.12ZM47.2692 67V53.04H49.5292V65H55.2092V67H47.2692Z" fill="#1B1C25"/>
<path d="M17.23 33H3.01V29.76L9.7 23.79C10.76 22.83 11.57 21.92 12.13 21.06C12.71 20.18 13 19.26 13 18.3V17.91C13 16.89 12.69 16.09 12.07 15.51C11.47 14.93 10.65 14.64 9.61 14.64C9.03 14.64 8.52 14.73 8.08 14.91C7.66 15.07 7.29 15.3 6.97 15.6C6.65 15.9 6.38 16.25 6.16 16.65C5.96 17.05 5.8 17.48 5.68 17.94L2.71 16.8C2.93 16.14 3.23 15.51 3.61 14.91C3.99 14.29 4.47 13.74 5.05 13.26C5.63 12.78 6.31 12.4 7.09 12.12C7.89 11.84 8.82 11.7 9.88 11.7C10.94 11.7 11.89 11.86 12.73 12.18C13.57 12.48 14.27 12.91 14.83 13.47C15.41 14.01 15.85 14.66 16.15 15.42C16.45 16.18 16.6 17.01 16.6 17.91C16.6 18.75 16.47 19.53 16.21 20.25C15.95 20.97 15.59 21.65 15.13 22.29C14.67 22.93 14.13 23.54 13.51 24.12C12.91 24.7 12.27 25.29 11.59 25.89L6.67 30.12H17.23V33Z" fill="#1B1C25"/>
</svg>
