<svg width="111" height="75" viewBox="0 0 111 75" fill="none" xmlns="http://www.w3.org/2000/svg">
<path d="M6.38281 67.24C5.20948 67.24 4.20948 67.0267 3.38281 66.6C2.56948 66.1733 1.86948 65.6 1.28281 64.88L2.84281 63.42C3.33614 64.02 3.87614 64.4733 4.46281 64.78C5.06281 65.0867 5.74281 65.24 6.50281 65.24C7.39614 65.24 8.06948 65.04 8.52281 64.64C8.97614 64.24 9.20281 63.7 9.20281 63.02C9.20281 62.4733 9.04281 62.04 8.72281 61.72C8.40281 61.4 7.83614 61.16 7.02281 61L5.78281 60.78C4.42281 60.5267 3.40281 60.08 2.72281 59.44C2.04281 58.8 1.70281 57.92 1.70281 56.8C1.70281 56.1867 1.81614 55.6333 2.04281 55.14C2.28281 54.6333 2.60948 54.2133 3.02281 53.88C3.44948 53.5333 3.96281 53.2667 4.56281 53.08C5.16281 52.8933 5.83614 52.8 6.58281 52.8C7.63614 52.8 8.54948 52.9867 9.32281 53.36C10.0961 53.72 10.7561 54.2467 11.3028 54.94L9.72281 56.34C9.36281 55.8733 8.92281 55.5 8.40281 55.22C7.88281 54.94 7.23614 54.8 6.46281 54.8C5.66281 54.8 5.04281 54.96 4.60281 55.28C4.16281 55.6 3.94281 56.0667 3.94281 56.68C3.94281 57.2667 4.12281 57.7067 4.48281 58C4.84281 58.28 5.40281 58.4933 6.16281 58.64L7.40281 58.9C8.80281 59.1667 9.82281 59.62 10.4628 60.26C11.1161 60.9 11.4428 61.78 11.4428 62.9C11.4428 63.5533 11.3295 64.1467 11.1028 64.68C10.8761 65.2133 10.5428 65.6733 10.1028 66.06C9.67614 66.4333 9.14948 66.7267 8.52281 66.94C7.89614 67.14 7.18281 67.24 6.38281 67.24ZM20.7959 67.24C18.9693 67.24 17.5359 66.6267 16.4959 65.4C15.4559 64.16 14.9359 62.3667 14.9359 60.02C14.9359 58.8467 15.0693 57.8133 15.3359 56.92C15.6026 56.0267 15.9893 55.2733 16.4959 54.66C17.0026 54.0467 17.6159 53.5867 18.3359 53.28C19.0693 52.96 19.8893 52.8 20.7959 52.8C22.0093 52.8 23.0226 53.0667 23.8359 53.6C24.6626 54.1333 25.3093 54.92 25.7759 55.96L23.8759 57C23.6359 56.3333 23.2626 55.8067 22.7559 55.42C22.2626 55.02 21.6093 54.82 20.7959 54.82C19.7159 54.82 18.8693 55.1867 18.2559 55.92C17.6426 56.6533 17.3359 57.6667 17.3359 58.96V61.08C17.3359 62.3733 17.6426 63.3867 18.2559 64.12C18.8693 64.8533 19.7159 65.22 20.7959 65.22C21.6359 65.22 22.3159 65.0067 22.8359 64.58C23.3693 64.14 23.7626 63.58 24.0159 62.9L25.8359 64C25.3693 65.0133 24.7159 65.8067 23.8759 66.38C23.0359 66.9533 22.0093 67.24 20.7959 67.24ZM38.2117 60.92H31.8917V67H29.6317V53.04H31.8917V58.92H38.2117V53.04H40.4717V67H38.2117V60.92ZM45.3091 67V53.04H54.2491V55.04H47.5691V58.92H53.6291V60.92H47.5691V65H54.2491V67H45.3091ZM58.5645 53.04H63.5045C64.3979 53.04 65.2045 53.1867 65.9245 53.48C66.6579 53.7733 67.2779 54.2133 67.7845 54.8C68.3045 55.3733 68.7045 56.1 68.9845 56.98C69.2645 57.8467 69.4045 58.86 69.4045 60.02C69.4045 61.18 69.2645 62.2 68.9845 63.08C68.7045 63.9467 68.3045 64.6733 67.7845 65.26C67.2779 65.8333 66.6579 66.2667 65.9245 66.56C65.2045 66.8533 64.3979 67 63.5045 67H58.5645V53.04ZM63.5045 65C64.5445 65 65.3845 64.6733 66.0245 64.02C66.6645 63.3667 66.9845 62.4067 66.9845 61.14V58.9C66.9845 57.6333 66.6645 56.6733 66.0245 56.02C65.3845 55.3667 64.5445 55.04 63.5045 55.04H60.8245V65H63.5045ZM75.7569 53.04V61.64C75.7569 62.8267 75.9835 63.72 76.4369 64.32C76.8902 64.92 77.6635 65.22 78.7569 65.22C79.8502 65.22 80.6235 64.92 81.0769 64.32C81.5302 63.72 81.7569 62.8267 81.7569 61.64V53.04H83.9769V61.28C83.9769 62.3067 83.8835 63.1933 83.6969 63.94C83.5102 64.6867 83.2102 65.3067 82.7969 65.8C82.3835 66.28 81.8435 66.64 81.1769 66.88C80.5235 67.12 79.7169 67.24 78.7569 67.24C77.7969 67.24 76.9835 67.12 76.3169 66.88C75.6635 66.64 75.1302 66.28 74.7169 65.8C74.3035 65.3067 74.0035 64.6867 73.8169 63.94C73.6302 63.1933 73.5369 62.3067 73.5369 61.28V53.04H75.7569ZM88.7278 67V53.04H90.9878V65H96.6678V67H88.7278ZM100.382 67V53.04H109.322V55.04H102.642V58.92H108.702V60.92H102.642V65H109.322V67H100.382Z" fill="#1B1C25"/>
<path d="M53.86 20.67C55.16 20.67 56.12 20.4 56.74 19.86C57.36 19.3 57.67 18.59 57.67 17.73V17.52C57.67 16.56 57.37 15.83 56.77 15.33C56.17 14.81 55.36 14.55 54.34 14.55C53.34 14.55 52.49 14.78 51.79 15.24C51.09 15.68 50.5 16.3 50.02 17.1L47.77 15.15C48.09 14.69 48.45 14.25 48.85 13.83C49.25 13.41 49.72 13.05 50.26 12.75C50.8 12.43 51.41 12.18 52.09 12C52.77 11.8 53.55 11.7 54.43 11.7C55.41 11.7 56.32 11.82 57.16 12.06C58 12.3 58.72 12.66 59.32 13.14C59.92 13.6 60.39 14.17 60.73 14.85C61.07 15.51 61.24 16.26 61.24 17.1C61.24 17.76 61.13 18.36 60.91 18.9C60.71 19.44 60.42 19.92 60.04 20.34C59.68 20.74 59.25 21.07 58.75 21.33C58.27 21.59 57.76 21.78 57.22 21.9V22.05C57.82 22.17 58.38 22.37 58.9 22.65C59.44 22.91 59.91 23.26 60.31 23.7C60.71 24.12 61.02 24.63 61.24 25.23C61.48 25.81 61.6 26.48 61.6 27.24C61.6 28.16 61.42 29 61.06 29.76C60.7 30.5 60.19 31.14 59.53 31.68C58.89 32.22 58.11 32.64 57.19 32.94C56.27 33.22 55.25 33.36 54.13 33.36C53.15 33.36 52.29 33.25 51.55 33.03C50.81 32.83 50.15 32.56 49.57 32.22C49.01 31.86 48.51 31.46 48.07 31.02C47.65 30.56 47.28 30.09 46.96 29.61L49.45 27.66C49.71 28.08 49.98 28.47 50.26 28.83C50.56 29.17 50.89 29.47 51.25 29.73C51.63 29.97 52.05 30.16 52.51 30.3C52.99 30.44 53.53 30.51 54.13 30.51C55.41 30.51 56.39 30.21 57.07 29.61C57.75 28.99 58.09 28.14 58.09 27.06V26.85C58.09 25.77 57.73 24.95 57.01 24.39C56.29 23.83 55.27 23.55 53.95 23.55H51.73V20.67H53.86Z" fill="#1B1C25"/>
</svg>
