<svg width="896" height="61" viewBox="0 0 896 61" fill="none" xmlns="http://www.w3.org/2000/svg">
<path d="M1.98 4.65C1.66 4.65 1.425 4.57 1.275 4.41C1.135 4.24 1.065 4.025 1.065 3.765V3.555C1.065 3.145 1.185 2.695 1.425 2.205C1.665 1.705 2 1.27 2.43 0.9H3.435C3.135 1.22 2.89 1.525 2.7 1.815C2.52 2.095 2.39 2.41 2.31 2.76C2.51 2.81 2.655 2.905 2.745 3.045C2.845 3.185 2.895 3.355 2.895 3.555V3.765C2.895 4.025 2.82 4.24 2.67 4.41C2.53 4.57 2.3 4.65 1.98 4.65ZM9.41332 12.18C8.56332 12.18 7.83832 12.02 7.23832 11.7C6.63832 11.37 6.12832 10.92 5.70832 10.35L6.63832 9.57C7.00832 10.06 7.41832 10.435 7.86832 10.695C8.31832 10.945 8.84832 11.07 9.45832 11.07C10.2083 11.07 10.7783 10.89 11.1683 10.53C11.5683 10.17 11.7683 9.69 11.7683 9.09C11.7683 8.59 11.6183 8.205 11.3183 7.935C11.0183 7.665 10.5233 7.45 9.83332 7.29L8.97832 7.095C8.01832 6.875 7.28332 6.545 6.77332 6.105C6.27332 5.655 6.02332 5.025 6.02332 4.215C6.02332 3.755 6.10832 3.345 6.27832 2.985C6.44832 2.625 6.68332 2.325 6.98332 2.085C7.29332 1.845 7.65832 1.665 8.07832 1.545C8.50832 1.415 8.97832 1.35 9.48832 1.35C10.2783 1.35 10.9533 1.495 11.5133 1.785C12.0833 2.075 12.5633 2.5 12.9533 3.06L12.0083 3.75C11.7183 3.35 11.3683 3.035 10.9583 2.805C10.5483 2.575 10.0383 2.46 9.42832 2.46C8.75832 2.46 8.22832 2.605 7.83832 2.895C7.45832 3.175 7.26832 3.6 7.26832 4.17C7.26832 4.67 7.42832 5.05 7.74832 5.31C8.07832 5.56 8.57332 5.76 9.23332 5.91L10.0883 6.105C11.1183 6.335 11.8633 6.685 12.3233 7.155C12.7833 7.625 13.0133 8.25 13.0133 9.03C13.0133 9.51 12.9283 9.945 12.7583 10.335C12.5983 10.725 12.3633 11.055 12.0533 11.325C11.7433 11.595 11.3633 11.805 10.9133 11.955C10.4733 12.105 9.97332 12.18 9.41332 12.18ZM16.2391 12V1.53H17.4991V10.89H21.9541V12H16.2391ZM24.3088 12V10.95H25.7788V2.58H24.3088V1.53H28.5088V2.58H27.0388V10.95H28.5088V12H24.3088ZM35.5496 12.18C34.2196 12.18 33.1846 11.73 32.4446 10.83C31.7046 9.92 31.3346 8.585 31.3346 6.825C31.3346 5.065 31.7046 3.715 32.4446 2.775C33.1846 1.825 34.2196 1.35 35.5496 1.35C36.4296 1.35 37.1646 1.55 37.7546 1.95C38.3546 2.35 38.8196 2.915 39.1497 3.645L38.1296 4.26C37.9196 3.72 37.5996 3.29 37.1696 2.97C36.7396 2.64 36.1996 2.475 35.5496 2.475C35.0996 2.475 34.6946 2.56 34.3346 2.73C33.9846 2.9 33.6846 3.145 33.4346 3.465C33.1946 3.775 33.0096 4.15 32.8796 4.59C32.7496 5.02 32.6846 5.505 32.6846 6.045V7.605C32.6846 8.685 32.9346 9.53 33.4346 10.14C33.9346 10.75 34.6396 11.055 35.5496 11.055C36.2196 11.055 36.7796 10.885 37.2296 10.545C37.6796 10.195 38.0096 9.735 38.2196 9.165L39.2246 9.795C38.8946 10.535 38.4196 11.12 37.7996 11.55C37.1796 11.97 36.4296 12.18 35.5496 12.18ZM44.9711 6.855L43.4861 8.505V12H42.2261V1.53H43.4861V7.095H43.5311L45.0311 5.28L48.1961 1.53H49.7411L45.8411 6.015L50.0111 12H48.4511L44.9711 6.855ZM60.4576 12.18C59.6076 12.18 58.8826 12.02 58.2826 11.7C57.6826 11.37 57.1726 10.92 56.7526 10.35L57.6826 9.57C58.0526 10.06 58.4626 10.435 58.9126 10.695C59.3626 10.945 59.8926 11.07 60.5026 11.07C61.2526 11.07 61.8226 10.89 62.2126 10.53C62.6126 10.17 62.8126 9.69 62.8126 9.09C62.8126 8.59 62.6626 8.205 62.3626 7.935C62.0626 7.665 61.5676 7.45 60.8776 7.29L60.0226 7.095C59.0626 6.875 58.3276 6.545 57.8176 6.105C57.3176 5.655 57.0676 5.025 57.0676 4.215C57.0676 3.755 57.1526 3.345 57.3226 2.985C57.4926 2.625 57.7276 2.325 58.0276 2.085C58.3376 1.845 58.7026 1.665 59.1226 1.545C59.5526 1.415 60.0226 1.35 60.5326 1.35C61.3226 1.35 61.9976 1.495 62.5576 1.785C63.1276 2.075 63.6076 2.5 63.9976 3.06L63.0526 3.75C62.7626 3.35 62.4126 3.035 62.0026 2.805C61.5926 2.575 61.0826 2.46 60.4726 2.46C59.8026 2.46 59.2726 2.605 58.8826 2.895C58.5026 3.175 58.3126 3.6 58.3126 4.17C58.3126 4.67 58.4726 5.05 58.7926 5.31C59.1226 5.56 59.6176 5.76 60.2776 5.91L61.1326 6.105C62.1626 6.335 62.9076 6.685 63.3676 7.155C63.8276 7.625 64.0576 8.25 64.0576 9.03C64.0576 9.51 63.9726 9.945 63.8026 10.335C63.6426 10.725 63.4076 11.055 63.0976 11.325C62.7876 11.595 62.4076 11.805 61.9576 11.955C61.5176 12.105 61.0176 12.18 60.4576 12.18ZM67.2834 12V1.53H68.5434V10.89H72.9984V12H67.2834ZM75.353 12V10.95H76.823V2.58H75.353V1.53H79.553V2.58H78.083V10.95H79.553V12H75.353ZM82.9039 1.53H86.4139C87.0639 1.53 87.6539 1.64 88.1839 1.86C88.7139 2.08 89.1639 2.41 89.5339 2.85C89.9139 3.28 90.2039 3.825 90.4039 4.485C90.6039 5.135 90.7039 5.895 90.7039 6.765C90.7039 7.635 90.6039 8.4 90.4039 9.06C90.2039 9.71 89.9139 10.255 89.5339 10.695C89.1639 11.125 88.7139 11.45 88.1839 11.67C87.6539 11.89 87.0639 12 86.4139 12H82.9039V1.53ZM86.4139 10.89C86.8439 10.89 87.2389 10.82 87.5989 10.68C87.9589 10.53 88.2689 10.315 88.5289 10.035C88.7889 9.755 88.9889 9.415 89.1289 9.015C89.2789 8.605 89.3539 8.14 89.3539 7.62V5.91C89.3539 5.39 89.2789 4.93 89.1289 4.53C88.9889 4.12 88.7889 3.775 88.5289 3.495C88.2689 3.215 87.9589 3.005 87.5989 2.865C87.2389 2.715 86.8439 2.64 86.4139 2.64H84.1639V10.89H86.4139ZM94.0174 12V1.53H100.407V2.64H95.2774V6.15H100.107V7.26H95.2774V10.89H100.407V12H94.0174ZM104.532 0.749999C104.852 0.749999 105.082 0.834999 105.222 1.005C105.372 1.165 105.447 1.375 105.447 1.635V1.845C105.447 2.255 105.327 2.71 105.087 3.21C104.847 3.7 104.512 4.13 104.082 4.5H103.077C103.377 4.18 103.617 3.88 103.797 3.6C103.987 3.31 104.122 2.99 104.202 2.64C104.002 2.59 103.852 2.495 103.752 2.355C103.662 2.215 103.617 2.045 103.617 1.845V1.635C103.617 1.375 103.687 1.165 103.827 1.005C103.977 0.834999 104.212 0.749999 104.532 0.749999ZM114.239 5.385L113.639 4.56C114.939 4.09 115.939 3.67 116.639 3.3C117.339 2.92 117.829 2.545 118.109 2.175C118.389 1.795 118.529 1.36 118.529 0.869999V0.555H119.654V0.915C119.654 1.325 119.594 1.695 119.474 2.025C119.354 2.355 119.164 2.66 118.904 2.94L119.009 2.97L119.384 2.715C119.534 2.595 119.684 2.535 119.834 2.535C119.944 2.535 120.049 2.565 120.149 2.625L124.349 4.515L123.734 5.355L119.339 3.3C119.179 3.23 119.044 3.195 118.934 3.195C118.804 3.195 118.659 3.235 118.499 3.315C118.089 3.645 117.544 3.975 116.864 4.305C116.194 4.625 115.319 4.985 114.239 5.385ZM125.114 6.375V7.32H112.874V6.375H125.114ZM115.859 13.17H123.659V14.1H115.529C115.289 14.1 115.104 14.035 114.974 13.905C114.844 13.775 114.779 13.585 114.779 13.335V10.89H122.174V9.495H114.689V8.565H123.269V11.76H115.859V13.17ZM139.928 6.555H137.768V13.515H136.628V0.495H137.768V5.595H139.928V6.555ZM135.143 8.925L135.293 9.84C133.773 10.14 131.843 10.29 129.503 10.29H127.913V5.265H132.578V2.415H127.853V1.455H133.703V6.21H129.038V9.36H129.533C131.723 9.36 133.593 9.215 135.143 8.925ZM151.742 0.464999H152.882V13.485H151.742V0.464999ZM142.112 5.73C142.112 4.27 142.432 3.165 143.072 2.415C143.722 1.665 144.577 1.29 145.637 1.29C146.687 1.29 147.532 1.665 148.172 2.415C148.822 3.165 149.147 4.27 149.147 5.73C149.147 6.71 148.997 7.535 148.697 8.205C148.397 8.865 147.982 9.36 147.452 9.69C146.922 10.01 146.317 10.17 145.637 10.17C144.577 10.17 143.722 9.795 143.072 9.045C142.432 8.295 142.112 7.19 142.112 5.73ZM147.932 6.315V5.145C147.932 4.215 147.717 3.5 147.287 3C146.867 2.5 146.317 2.25 145.637 2.25C144.947 2.25 144.387 2.5 143.957 3C143.537 3.49 143.327 4.205 143.327 5.145V6.315C143.327 7.255 143.537 7.975 143.957 8.475C144.387 8.965 144.947 9.21 145.637 9.21C146.317 9.21 146.867 8.96 147.287 8.46C147.717 7.96 147.932 7.245 147.932 6.315ZM166.796 7.65H157.916V1.365H166.661V2.34H159.056V6.675H166.796V7.65ZM168.386 11.025V12H156.146V11.025H168.386ZM187.935 6.555H185.775V13.515H184.635V0.495H185.775V5.595H187.935V6.555ZM183.15 8.925L183.3 9.84C181.78 10.14 179.85 10.29 177.51 10.29H175.92V5.265H180.585V2.415H175.86V1.455H181.71V6.21H177.045V9.36H177.54C179.73 9.36 181.6 9.215 183.15 8.925ZM199.749 0.464999H200.889V13.485H199.749V0.464999ZM190.119 5.73C190.119 4.27 190.439 3.165 191.079 2.415C191.729 1.665 192.584 1.29 193.644 1.29C194.694 1.29 195.539 1.665 196.179 2.415C196.829 3.165 197.154 4.27 197.154 5.73C197.154 6.71 197.004 7.535 196.704 8.205C196.404 8.865 195.989 9.36 195.459 9.69C194.929 10.01 194.324 10.17 193.644 10.17C192.584 10.17 191.729 9.795 191.079 9.045C190.439 8.295 190.119 7.19 190.119 5.73ZM195.939 6.315V5.145C195.939 4.215 195.724 3.5 195.294 3C194.874 2.5 194.324 2.25 193.644 2.25C192.954 2.25 192.394 2.5 191.964 3C191.544 3.49 191.334 4.205 191.334 5.145V6.315C191.334 7.255 191.544 7.975 191.964 8.475C192.394 8.965 192.954 9.21 193.644 9.21C194.324 9.21 194.874 8.96 195.294 8.46C195.724 7.96 195.939 7.245 195.939 6.315ZM205.848 1.17H206.973V3.66H213.573V1.17H214.698V8.07H205.848V1.17ZM213.573 7.11V4.62H206.973V7.11H213.573ZM204.153 11.025H216.393V12H204.153V11.025ZM229.752 0.464999V13.485H228.627V6.075H225.972V5.115H228.627V0.464999H229.752ZM226.557 8.925L226.692 9.84C225.222 10.14 223.327 10.29 221.007 10.29H219.432V5.28H223.962V2.415H219.387V1.455H225.087V6.21H220.557V9.36H221.052C223.212 9.36 225.047 9.215 226.557 8.925ZM244.161 0.464999V13.485H243.021V0.464999H244.161ZM241.311 8.925L241.461 9.84C239.911 10.14 237.941 10.29 235.551 10.29H233.931V5.265H238.656V2.415H233.871V1.455H239.796V6.21H235.056V9.36H235.536C237.806 9.36 239.731 9.215 241.311 8.925ZM256.59 2.805V1.515H249.27V0.674999H257.685V3.63H250.455V4.905H258.06V5.76H249.345V2.805H256.59ZM259.665 6.885V7.77H247.425V6.885H259.665ZM249.3 13.38V11.115H256.77V9.855H249.21V8.97H257.835V11.955H250.365V13.245H258.225V14.145H250.05C249.81 14.145 249.625 14.08 249.495 13.95C249.365 13.82 249.3 13.63 249.3 13.38ZM277.758 0.464999V13.485H276.633V7.065H273.918V6.105H276.633V0.464999H277.758ZM272.718 2.055H268.683V1.11H272.718V2.055ZM271.338 6.99C271.448 6.99 271.563 7.04 271.683 7.14L274.593 9.96L273.768 10.695L270.813 7.725C270.753 7.665 270.688 7.635 270.618 7.635C270.548 7.635 270.483 7.67 270.423 7.74C270.173 8.19 269.828 8.655 269.388 9.135C268.948 9.605 268.358 10.185 267.618 10.875L266.778 10.17C267.648 9.42 268.318 8.77 268.788 8.22C269.258 7.66 269.598 7.105 269.808 6.555C270.018 5.995 270.123 5.36 270.123 4.65V4.575H267.168V3.63H274.218V4.575H271.233V4.68C271.233 5.67 271.053 6.525 270.693 7.245L270.768 7.29L271.008 7.11C271.098 7.03 271.208 6.99 271.338 6.99ZM282.612 3.15C282.612 2.36 282.987 1.725 283.737 1.245C284.497 0.755 285.627 0.51 287.127 0.51C288.627 0.51 289.752 0.755 290.502 1.245C291.262 1.725 291.642 2.36 291.642 3.15C291.642 3.94 291.262 4.58 290.502 5.07C289.752 5.55 288.627 5.79 287.127 5.79C285.627 5.79 284.497 5.55 283.737 5.07C282.987 4.58 282.612 3.94 282.612 3.15ZM290.427 3.255V3.045C290.427 2.565 290.152 2.17 289.602 1.86C289.062 1.55 288.237 1.395 287.127 1.395C286.017 1.395 285.187 1.55 284.637 1.86C284.097 2.17 283.827 2.565 283.827 3.045V3.255C283.827 3.725 284.102 4.115 284.652 4.425C285.202 4.735 286.027 4.89 287.127 4.89C288.227 4.89 289.052 4.735 289.602 4.425C290.152 4.115 290.427 3.725 290.427 3.255ZM293.247 6.915V7.89H281.007V6.915H293.247ZM282.822 13.23V9.3H291.432V13.995H283.572C283.332 13.995 283.147 13.93 283.017 13.8C282.887 13.67 282.822 13.48 282.822 13.23ZM290.307 10.23H283.947V13.05H290.307V10.23ZM312.796 6.555H310.636V13.515H309.496V0.495H310.636V5.595H312.796V6.555ZM304.591 5.715C304.721 5.715 304.831 5.77 304.921 5.88L307.846 9.63L306.976 10.395L304.036 6.54C304.006 6.48 303.956 6.45 303.886 6.45C303.836 6.45 303.786 6.48 303.736 6.54C303.476 7.12 303.126 7.72 302.686 8.34C302.246 8.95 301.651 9.7 300.901 10.59L300.031 9.855C300.901 8.865 301.566 8.02 302.026 7.32C302.496 6.61 302.831 5.9 303.031 5.19C303.241 4.48 303.346 3.665 303.346 2.745V1.335H304.501V2.73C304.501 3.92 304.326 5 303.976 5.97L304.051 6.015L304.276 5.835C304.386 5.755 304.491 5.715 304.591 5.715ZM326.83 7.05V8.01H314.59V7.05H317.845V5.28C317.295 5.05 316.88 4.75 316.6 4.38C316.33 4.01 316.195 3.59 316.195 3.12C316.195 2.34 316.575 1.71 317.335 1.23C318.095 0.74 319.22 0.495 320.71 0.495C322.2 0.495 323.325 0.74 324.085 1.23C324.845 1.71 325.225 2.34 325.225 3.12C325.225 3.59 325.085 4.01 324.805 4.38C324.535 4.75 324.125 5.05 323.575 5.28V7.05H326.83ZM320.71 4.86C321.82 4.86 322.65 4.705 323.2 4.395C323.75 4.085 324.025 3.69 324.025 3.21V3C324.025 2.53 323.745 2.14 323.185 1.83C322.635 1.52 321.81 1.365 320.71 1.365C319.61 1.365 318.785 1.52 318.235 1.83C317.685 2.14 317.41 2.53 317.41 3V3.21C317.41 3.69 317.68 4.085 318.22 4.395C318.77 4.705 319.6 4.86 320.71 4.86ZM318.94 7.05H322.48V5.595C321.99 5.695 321.4 5.745 320.71 5.745C320.02 5.745 319.43 5.695 318.94 5.595V7.05ZM325.15 11.685C325.15 12.195 324.98 12.645 324.64 13.035C324.31 13.425 323.81 13.73 323.14 13.95C322.48 14.18 321.67 14.295 320.71 14.295C319.75 14.295 318.935 14.18 318.265 13.95C317.605 13.73 317.105 13.425 316.765 13.035C316.435 12.645 316.27 12.195 316.27 11.685C316.27 11.185 316.435 10.745 316.765 10.365C317.105 9.975 317.605 9.67 318.265 9.45C318.935 9.23 319.75 9.12 320.71 9.12C321.67 9.12 322.48 9.23 323.14 9.45C323.81 9.67 324.31 9.975 324.64 10.365C324.98 10.745 325.15 11.185 325.15 11.685ZM323.95 11.595C323.95 11.155 323.68 10.785 323.14 10.485C322.61 10.175 321.8 10.02 320.71 10.02C319.98 10.02 319.37 10.095 318.88 10.245C318.39 10.385 318.03 10.575 317.8 10.815C317.57 11.055 317.455 11.315 317.455 11.595V11.805C317.455 12.085 317.57 12.345 317.8 12.585C318.03 12.825 318.39 13.015 318.88 13.155C319.37 13.305 319.98 13.38 320.71 13.38C321.8 13.38 322.61 13.225 323.14 12.915C323.68 12.615 323.95 12.245 323.95 11.805V11.595ZM340.579 0.464999V13.485H339.469V6.69H337.519V13.125H336.424V0.69H337.519V5.745H339.469V0.464999H340.579ZM334.354 2.415H330.499V1.485H334.354V2.415ZM328.924 4.095H335.704V4.995H333.919V5.07C334.709 5.5 335.104 6.315 335.104 7.515C335.104 8.455 334.849 9.19 334.339 9.72C333.839 10.24 333.179 10.5 332.359 10.5C331.549 10.5 330.889 10.24 330.379 9.72C329.879 9.19 329.629 8.455 329.629 7.515C329.629 6.315 330.019 5.5 330.799 5.07V4.995H328.924V4.095ZM334.024 6.975C334.024 6.375 333.874 5.915 333.574 5.595C333.274 5.275 332.869 5.115 332.359 5.115C331.849 5.115 331.444 5.275 331.144 5.595C330.854 5.915 330.709 6.375 330.709 6.975V7.695C330.709 8.285 330.859 8.745 331.159 9.075C331.469 9.405 331.869 9.57 332.359 9.57C332.849 9.57 333.249 9.405 333.559 9.075C333.869 8.745 334.024 8.285 334.024 7.695V6.975ZM355.678 11.04V12H343.438V11.04H348.988V7.98H345.118V1.155H346.258V3.63H352.843V1.155H353.968V7.98H350.128V11.04H355.678ZM346.258 7.035H352.843V4.575H346.258V7.035ZM369.052 0.464999V13.485H367.927V7.935H364.657V9.855H358.552V1.5H364.657V3.345H367.927V0.464999H369.052ZM363.562 2.43H359.647V8.925H363.562V2.43ZM367.927 6.99V4.275H364.657V6.99H367.927ZM388.586 0.464999V13.485H387.491V0.464999H388.586ZM384.566 0.659999H385.616V13.14H384.566V8.295H382.361V7.38H384.566V4.86H382.526C382.446 5.68 382.251 6.4 381.941 7.02C381.631 7.64 381.171 8.24 380.561 8.82C379.951 9.39 379.116 10.035 378.056 10.755L377.336 10.02C378.466 9.28 379.321 8.625 379.901 8.055C380.481 7.475 380.891 6.865 381.131 6.225C381.371 5.585 381.491 4.795 381.491 3.855V2.685H377.666V1.8H382.571V3.825V3.945H384.566V0.659999ZM392.825 5.985L392.21 5.115C393.51 4.595 394.51 4.125 395.21 3.705C395.91 3.285 396.395 2.87 396.665 2.46C396.945 2.04 397.085 1.555 397.085 1.005V0.63H398.24V1.05C398.24 1.51 398.18 1.92 398.06 2.28C397.94 2.64 397.745 2.975 397.475 3.285L397.565 3.315L397.955 3.03C398.095 2.93 398.235 2.88 398.375 2.88C398.485 2.88 398.6 2.91 398.72 2.97L402.92 5.07L402.29 5.94L397.895 3.675C397.755 3.595 397.62 3.555 397.49 3.555C397.36 3.555 397.225 3.595 397.085 3.675C396.685 4.025 396.145 4.38 395.465 4.74C394.795 5.1 393.915 5.515 392.825 5.985ZM403.685 7.245V8.235H391.445V7.245H396.995V5.415H398.135V7.245H403.685ZM393.155 9.555H401.885V14.085H400.745V10.485H393.155V9.555ZM423.234 6.555H421.074V13.515H419.934V0.495H421.074V5.595H423.234V6.555ZM415.029 5.715C415.159 5.715 415.269 5.77 415.359 5.88L418.284 9.63L417.414 10.395L414.474 6.54C414.444 6.48 414.394 6.45 414.324 6.45C414.274 6.45 414.224 6.48 414.174 6.54C413.914 7.12 413.564 7.72 413.124 8.34C412.684 8.95 412.089 9.7 411.339 10.59L410.469 9.855C411.339 8.865 412.004 8.02 412.464 7.32C412.934 6.61 413.269 5.9 413.469 5.19C413.679 4.48 413.784 3.665 413.784 2.745V1.335H414.939V2.73C414.939 3.92 414.764 5 414.414 5.97L414.489 6.015L414.714 5.835C414.824 5.755 414.929 5.715 415.029 5.715ZM437.268 7.05V8.01H425.028V7.05H428.283V5.28C427.733 5.05 427.318 4.75 427.038 4.38C426.768 4.01 426.633 3.59 426.633 3.12C426.633 2.34 427.013 1.71 427.773 1.23C428.533 0.74 429.658 0.495 431.148 0.495C432.638 0.495 433.763 0.74 434.523 1.23C435.283 1.71 435.663 2.34 435.663 3.12C435.663 3.59 435.523 4.01 435.243 4.38C434.973 4.75 434.563 5.05 434.013 5.28V7.05H437.268ZM431.148 4.86C432.258 4.86 433.088 4.705 433.638 4.395C434.188 4.085 434.463 3.69 434.463 3.21V3C434.463 2.53 434.183 2.14 433.623 1.83C433.073 1.52 432.248 1.365 431.148 1.365C430.048 1.365 429.223 1.52 428.673 1.83C428.123 2.14 427.848 2.53 427.848 3V3.21C427.848 3.69 428.118 4.085 428.658 4.395C429.208 4.705 430.038 4.86 431.148 4.86ZM429.378 7.05H432.918V5.595C432.428 5.695 431.838 5.745 431.148 5.745C430.458 5.745 429.868 5.695 429.378 5.595V7.05ZM435.588 11.685C435.588 12.195 435.418 12.645 435.078 13.035C434.748 13.425 434.248 13.73 433.578 13.95C432.918 14.18 432.108 14.295 431.148 14.295C430.188 14.295 429.373 14.18 428.703 13.95C428.043 13.73 427.543 13.425 427.203 13.035C426.873 12.645 426.708 12.195 426.708 11.685C426.708 11.185 426.873 10.745 427.203 10.365C427.543 9.975 428.043 9.67 428.703 9.45C429.373 9.23 430.188 9.12 431.148 9.12C432.108 9.12 432.918 9.23 433.578 9.45C434.248 9.67 434.748 9.975 435.078 10.365C435.418 10.745 435.588 11.185 435.588 11.685ZM434.388 11.595C434.388 11.155 434.118 10.785 433.578 10.485C433.048 10.175 432.238 10.02 431.148 10.02C430.418 10.02 429.808 10.095 429.318 10.245C428.828 10.385 428.468 10.575 428.238 10.815C428.008 11.055 427.893 11.315 427.893 11.595V11.805C427.893 12.085 428.008 12.345 428.238 12.585C428.468 12.825 428.828 13.015 429.318 13.155C429.808 13.305 430.418 13.38 431.148 13.38C432.238 13.38 433.048 13.225 433.578 12.915C434.118 12.615 434.388 12.245 434.388 11.805V11.595ZM451.017 0.464999V13.485H449.907V6.69H447.957V13.125H446.862V0.69H447.957V5.745H449.907V0.464999H451.017ZM444.792 2.415H440.937V1.485H444.792V2.415ZM439.362 4.095H446.142V4.995H444.357V5.07C445.147 5.5 445.542 6.315 445.542 7.515C445.542 8.455 445.287 9.19 444.777 9.72C444.277 10.24 443.617 10.5 442.797 10.5C441.987 10.5 441.327 10.24 440.817 9.72C440.317 9.19 440.067 8.455 440.067 7.515C440.067 6.315 440.457 5.5 441.237 5.07V4.995H439.362V4.095ZM444.462 6.975C444.462 6.375 444.312 5.915 444.012 5.595C443.712 5.275 443.307 5.115 442.797 5.115C442.287 5.115 441.882 5.275 441.582 5.595C441.292 5.915 441.147 6.375 441.147 6.975V7.695C441.147 8.285 441.297 8.745 441.597 9.075C441.907 9.405 442.307 9.57 442.797 9.57C443.287 9.57 443.687 9.405 443.997 9.075C444.307 8.745 444.462 8.285 444.462 7.695V6.975ZM466.116 11.04V12H453.876V11.04H459.426V7.98H455.556V1.155H456.696V3.63H463.281V1.155H464.406V7.98H460.566V11.04H466.116ZM456.696 7.035H463.281V4.575H456.696V7.035ZM478.395 4.02V0.464999H479.535V10.35H478.395V4.965H474.78V4.02H478.395ZM476.34 7.485C475.63 7.635 474.78 7.755 473.79 7.845C472.8 7.925 471.745 7.965 470.625 7.965H469.11V1.335H475.02V2.295H470.25V7.02H470.67C471.72 7.02 472.725 6.98 473.685 6.9C474.655 6.82 475.49 6.71 476.19 6.57L476.34 7.485ZM479.805 12.825V13.77H471.945C471.705 13.77 471.52 13.705 471.39 13.575C471.26 13.445 471.195 13.255 471.195 13.005V9.345H472.35V12.825H479.805ZM488.868 4.65C488.548 4.65 488.313 4.57 488.163 4.41C488.023 4.24 487.953 4.025 487.953 3.765V3.555C487.953 3.145 488.073 2.695 488.313 2.205C488.553 1.705 488.888 1.27 489.318 0.9H490.323C490.023 1.22 489.778 1.525 489.588 1.815C489.408 2.095 489.278 2.41 489.198 2.76C489.398 2.81 489.543 2.905 489.633 3.045C489.733 3.185 489.783 3.355 489.783 3.555V3.765C489.783 4.025 489.708 4.24 489.558 4.41C489.418 4.57 489.188 4.65 488.868 4.65ZM496.302 12.18C495.452 12.18 494.727 12.02 494.127 11.7C493.527 11.37 493.017 10.92 492.597 10.35L493.527 9.57C493.897 10.06 494.307 10.435 494.757 10.695C495.207 10.945 495.737 11.07 496.347 11.07C497.097 11.07 497.667 10.89 498.057 10.53C498.457 10.17 498.657 9.69 498.657 9.09C498.657 8.59 498.507 8.205 498.207 7.935C497.907 7.665 497.412 7.45 496.722 7.29L495.867 7.095C494.907 6.875 494.172 6.545 493.662 6.105C493.162 5.655 492.912 5.025 492.912 4.215C492.912 3.755 492.997 3.345 493.167 2.985C493.337 2.625 493.572 2.325 493.872 2.085C494.182 1.845 494.547 1.665 494.967 1.545C495.397 1.415 495.867 1.35 496.377 1.35C497.167 1.35 497.842 1.495 498.402 1.785C498.972 2.075 499.452 2.5 499.842 3.06L498.897 3.75C498.607 3.35 498.257 3.035 497.847 2.805C497.437 2.575 496.927 2.46 496.317 2.46C495.647 2.46 495.117 2.605 494.727 2.895C494.347 3.175 494.157 3.6 494.157 4.17C494.157 4.67 494.317 5.05 494.637 5.31C494.967 5.56 495.462 5.76 496.122 5.91L496.977 6.105C498.007 6.335 498.752 6.685 499.212 7.155C499.672 7.625 499.902 8.25 499.902 9.03C499.902 9.51 499.817 9.945 499.647 10.335C499.487 10.725 499.252 11.055 498.942 11.325C498.632 11.595 498.252 11.805 497.802 11.955C497.362 12.105 496.862 12.18 496.302 12.18ZM504.627 12L502.077 1.53H503.412L504.537 6.57L505.407 10.485H505.437L506.412 6.57L507.732 1.53H509.172L510.447 6.57L511.422 10.47H511.467L512.367 6.57L513.552 1.53H514.842L512.157 12H510.762L509.397 6.78L508.437 2.94H508.407L507.417 6.78L506.022 12H504.627ZM517.086 12V10.95H518.556V2.58H517.086V1.53H521.286V2.58H519.816V10.95H521.286V12H517.086ZM524.637 12V1.53H528.807C529.747 1.53 530.467 1.8 530.967 2.34C531.477 2.87 531.732 3.6 531.732 4.53C531.732 5.46 531.477 6.195 530.967 6.735C530.467 7.265 529.747 7.53 528.807 7.53H525.897V12H524.637ZM525.897 6.42H528.807C529.307 6.42 529.692 6.29 529.962 6.03C530.242 5.77 530.382 5.4 530.382 4.92V4.14C530.382 3.66 530.242 3.29 529.962 3.03C529.692 2.77 529.307 2.64 528.807 2.64H525.897V6.42ZM534.783 12V1.53H541.173V2.64H536.043V6.15H540.873V7.26H536.043V10.89H541.173V12H534.783ZM545.839 12H544.579V1.53H548.749C549.669 1.53 550.384 1.785 550.894 2.295C551.414 2.805 551.674 3.54 551.674 4.5C551.674 5.27 551.494 5.905 551.134 6.405C550.784 6.895 550.264 7.22 549.574 7.38L551.974 12H550.549L548.284 7.5H545.839V12ZM548.749 6.42C549.249 6.42 549.634 6.29 549.904 6.03C550.184 5.77 550.324 5.4 550.324 4.92V4.14C550.324 3.66 550.184 3.29 549.904 3.03C549.634 2.77 549.249 2.64 548.749 2.64H545.839V6.42H548.749ZM562.898 12.18C562.048 12.18 561.323 12.02 560.723 11.7C560.123 11.37 559.613 10.92 559.193 10.35L560.123 9.57C560.493 10.06 560.903 10.435 561.353 10.695C561.803 10.945 562.333 11.07 562.943 11.07C563.693 11.07 564.263 10.89 564.653 10.53C565.053 10.17 565.253 9.69 565.253 9.09C565.253 8.59 565.103 8.205 564.803 7.935C564.503 7.665 564.008 7.45 563.318 7.29L562.463 7.095C561.503 6.875 560.768 6.545 560.258 6.105C559.758 5.655 559.508 5.025 559.508 4.215C559.508 3.755 559.593 3.345 559.763 2.985C559.933 2.625 560.168 2.325 560.468 2.085C560.778 1.845 561.143 1.665 561.563 1.545C561.993 1.415 562.463 1.35 562.973 1.35C563.763 1.35 564.438 1.495 564.998 1.785C565.568 2.075 566.048 2.5 566.438 3.06L565.493 3.75C565.203 3.35 564.853 3.035 564.443 2.805C564.033 2.575 563.523 2.46 562.913 2.46C562.243 2.46 561.713 2.605 561.323 2.895C560.943 3.175 560.753 3.6 560.753 4.17C560.753 4.67 560.913 5.05 561.233 5.31C561.563 5.56 562.058 5.76 562.718 5.91L563.573 6.105C564.603 6.335 565.348 6.685 565.808 7.155C566.268 7.625 566.498 8.25 566.498 9.03C566.498 9.51 566.413 9.945 566.243 10.335C566.083 10.725 565.848 11.055 565.538 11.325C565.228 11.595 564.848 11.805 564.398 11.955C563.958 12.105 563.458 12.18 562.898 12.18ZM569.724 12V1.53H570.984V10.89H575.439V12H569.724ZM577.793 12V10.95H579.263V2.58H577.793V1.53H581.993V2.58H580.523V10.95H581.993V12H577.793ZM585.344 1.53H588.854C589.504 1.53 590.094 1.64 590.624 1.86C591.154 2.08 591.604 2.41 591.974 2.85C592.354 3.28 592.644 3.825 592.844 4.485C593.044 5.135 593.144 5.895 593.144 6.765C593.144 7.635 593.044 8.4 592.844 9.06C592.644 9.71 592.354 10.255 591.974 10.695C591.604 11.125 591.154 11.45 590.624 11.67C590.094 11.89 589.504 12 588.854 12H585.344V1.53ZM588.854 10.89C589.284 10.89 589.679 10.82 590.039 10.68C590.399 10.53 590.709 10.315 590.969 10.035C591.229 9.755 591.429 9.415 591.569 9.015C591.719 8.605 591.794 8.14 591.794 7.62V5.91C591.794 5.39 591.719 4.93 591.569 4.53C591.429 4.12 591.229 3.775 590.969 3.495C590.709 3.215 590.399 3.005 590.039 2.865C589.679 2.715 589.284 2.64 588.854 2.64H586.604V10.89H588.854ZM596.458 12V1.53H602.848V2.64H597.718V6.15H602.548V7.26H597.718V10.89H602.848V12H596.458ZM606.973 0.749999C607.293 0.749999 607.523 0.834999 607.663 1.005C607.813 1.165 607.888 1.375 607.888 1.635V1.845C607.888 2.255 607.768 2.71 607.528 3.21C607.288 3.7 606.953 4.13 606.523 4.5H605.518C605.818 4.18 606.058 3.88 606.238 3.6C606.428 3.31 606.563 2.99 606.643 2.64C606.443 2.59 606.293 2.495 606.193 2.355C606.103 2.215 606.058 2.045 606.058 1.845V1.635C606.058 1.375 606.128 1.165 606.268 1.005C606.418 0.834999 606.653 0.749999 606.973 0.749999ZM623.209 6.78H621.169V13.485H620.044V0.464999H621.169V5.82H623.209V6.78ZM618.964 9.45L619.069 10.365C617.979 10.545 616.669 10.685 615.139 10.785C613.619 10.875 612.049 10.92 610.429 10.92L610.324 9.945C611.734 9.945 612.934 9.92 613.924 9.87V7.29C613.034 7.19 612.309 6.865 611.749 6.315C611.189 5.765 610.909 5.065 610.909 4.215C610.909 3.605 611.064 3.07 611.374 2.61C611.684 2.14 612.109 1.78 612.649 1.53C613.189 1.27 613.799 1.14 614.479 1.14C615.159 1.14 615.769 1.27 616.309 1.53C616.849 1.78 617.269 2.14 617.569 2.61C617.879 3.07 618.034 3.605 618.034 4.215C618.034 5.065 617.754 5.765 617.194 6.315C616.644 6.865 615.919 7.19 615.019 7.29V9.825C616.479 9.755 617.794 9.63 618.964 9.45ZM614.479 6.39C615.179 6.39 615.749 6.21 616.189 5.85C616.629 5.48 616.849 4.995 616.849 4.395V4.05C616.849 3.45 616.629 2.97 616.189 2.61C615.749 2.24 615.179 2.055 614.479 2.055C613.779 2.055 613.209 2.24 612.769 2.61C612.329 2.97 612.109 3.45 612.109 4.05V4.395C612.109 4.995 612.329 5.48 612.769 5.85C613.209 6.21 613.779 6.39 614.479 6.39ZM635.053 0.464999H636.178V13.485H635.053V0.464999ZM625.693 4.365C625.693 3.745 625.848 3.2 626.158 2.73C626.468 2.25 626.893 1.885 627.433 1.635C627.973 1.375 628.583 1.245 629.263 1.245C629.943 1.245 630.553 1.375 631.093 1.635C631.633 1.885 632.058 2.25 632.368 2.73C632.678 3.2 632.833 3.745 632.833 4.365C632.833 4.985 632.678 5.53 632.368 6C632.058 6.47 631.633 6.835 631.093 7.095C630.553 7.345 629.943 7.47 629.263 7.47C628.583 7.47 627.973 7.345 627.433 7.095C626.893 6.835 626.468 6.47 626.158 6C625.848 5.53 625.693 4.985 625.693 4.365ZM631.633 4.545V4.185C631.633 3.585 631.413 3.1 630.973 2.73C630.533 2.36 629.963 2.175 629.263 2.175C628.563 2.175 627.993 2.36 627.553 2.73C627.113 3.1 626.893 3.585 626.893 4.185V4.545C626.893 5.145 627.113 5.63 627.553 6C627.993 6.37 628.563 6.555 629.263 6.555C629.963 6.555 630.533 6.37 630.973 6C631.413 5.63 631.633 5.145 631.633 4.545ZM625.063 9.78C626.763 9.78 628.403 9.74 629.983 9.66C631.563 9.58 632.903 9.455 634.003 9.285L634.123 10.2C632.993 10.38 631.633 10.52 630.043 10.62C628.463 10.71 626.838 10.755 625.168 10.755L625.063 9.78ZM656.792 6.555H654.632V13.515H653.492V0.495H654.632V5.595H656.792V6.555ZM650.087 2.055H646.067V1.11H650.087V2.055ZM648.692 6.99C648.812 6.99 648.937 7.045 649.067 7.155L651.977 9.96L651.137 10.695L648.182 7.74C648.122 7.68 648.057 7.65 647.987 7.65C647.917 7.65 647.857 7.68 647.807 7.74C647.537 8.19 647.182 8.66 646.742 9.15C646.302 9.63 645.717 10.205 644.987 10.875L644.162 10.17C645.032 9.42 645.702 8.77 646.172 8.22C646.642 7.66 646.977 7.105 647.177 6.555C647.387 5.995 647.492 5.36 647.492 4.65V4.575H644.552V3.63H651.602V4.575H648.617V4.68C648.617 5.67 648.437 6.525 648.077 7.245L648.152 7.29L648.377 7.11C648.487 7.03 648.592 6.99 648.692 6.99ZM668.606 0.464999H669.746V13.485H668.606V0.464999ZM658.976 5.73C658.976 4.27 659.296 3.165 659.936 2.415C660.586 1.665 661.441 1.29 662.501 1.29C663.551 1.29 664.396 1.665 665.036 2.415C665.686 3.165 666.011 4.27 666.011 5.73C666.011 6.71 665.861 7.535 665.561 8.205C665.261 8.865 664.846 9.36 664.316 9.69C663.786 10.01 663.181 10.17 662.501 10.17C661.441 10.17 660.586 9.795 659.936 9.045C659.296 8.295 658.976 7.19 658.976 5.73ZM664.796 6.315V5.145C664.796 4.215 664.581 3.5 664.151 3C663.731 2.5 663.181 2.25 662.501 2.25C661.811 2.25 661.251 2.5 660.821 3C660.401 3.49 660.191 4.205 660.191 5.145V6.315C660.191 7.255 660.401 7.975 660.821 8.475C661.251 8.965 661.811 9.21 662.501 9.21C663.181 9.21 663.731 8.96 664.151 8.46C664.581 7.96 664.796 7.245 664.796 6.315ZM684.245 0.464999V8.055H683.105V4.62H680.375V3.69H683.105V0.464999H684.245ZM677.105 5.07C677.025 5.07 676.955 5.1 676.895 5.16C676.625 5.55 676.28 5.95 675.86 6.36C675.44 6.77 674.885 7.265 674.195 7.845L673.34 7.125C674.18 6.465 674.83 5.895 675.29 5.415C675.75 4.925 676.08 4.445 676.28 3.975C676.49 3.495 676.595 2.96 676.595 2.37V2.22H673.73V1.26H680.57V2.22H677.735V2.415C677.735 3.265 677.56 4.01 677.21 4.65L677.3 4.695L677.54 4.515C677.65 4.435 677.76 4.395 677.87 4.395C678 4.395 678.115 4.44 678.215 4.53L681.005 6.87L680.165 7.62L677.33 5.16C677.25 5.1 677.175 5.07 677.105 5.07ZM675.995 8.925H684.245V14.025H676.745C676.505 14.025 676.32 13.96 676.19 13.83C676.06 13.7 675.995 13.51 675.995 13.26V8.925ZM677.105 13.095H683.12V9.855H677.105V13.095ZM696.599 2.805V1.515H689.279V0.674999H697.694V3.63H690.464V4.905H698.069V5.76H689.354V2.805H696.599ZM699.674 6.885V7.77H687.434V6.885H699.674ZM689.309 13.38V11.115H696.779V9.855H689.219V8.97H697.844V11.955H690.374V13.245H698.234V14.145H690.059C689.819 14.145 689.634 14.08 689.504 13.95C689.374 13.82 689.309 13.63 689.309 13.38ZM719.238 3.45V4.41H717.153V7.29H716.013V0.464999H717.153V3.45H719.238ZM707.388 7.41L706.548 6.675C707.398 5.945 708.053 5.325 708.513 4.815C708.973 4.295 709.303 3.785 709.503 3.285C709.703 2.775 709.803 2.2 709.803 1.56V0.78H710.943V1.62C710.943 2.51 710.768 3.305 710.418 4.005L710.493 4.05L710.733 3.855C710.853 3.765 710.963 3.72 711.063 3.72C711.173 3.72 711.273 3.765 711.363 3.855L714.213 6.36L713.403 7.155L710.538 4.515C710.458 4.455 710.383 4.425 710.313 4.425C710.243 4.425 710.183 4.455 710.133 4.515C709.863 4.935 709.513 5.365 709.083 5.805C708.663 6.245 708.098 6.78 707.388 7.41ZM710.073 13.125H717.513V14.1H709.668C709.428 14.1 709.243 14.035 709.113 13.905C708.983 13.775 708.918 13.585 708.918 13.335V10.62H716.013V9.075H708.828V8.115H717.153V11.58H710.073V13.125ZM732.207 0.464999V13.485H731.082V7.635H728.727V6.69H731.082V4.695H728.727V3.75H731.082V0.464999H732.207ZM728.577 2.46H721.392V1.515H728.577V2.46ZM729.027 8.91L729.147 9.81C728.167 9.97 726.967 10.09 725.547 10.17C724.137 10.25 722.667 10.29 721.137 10.29L721.047 9.36C721.467 9.36 722.117 9.35 722.997 9.33L722.547 3.72L723.657 3.63L724.017 9.315C724.577 9.295 724.992 9.275 725.262 9.255L725.817 9.225L726.282 3.615L727.392 3.72L726.852 9.165C727.822 9.075 728.547 8.99 729.027 8.91ZM747.681 11.04V12H735.441V11.04H740.991V7.98H737.121V1.155H738.261V3.63H744.846V1.155H745.971V7.98H742.131V11.04H747.681ZM738.261 7.035H744.846V4.575H738.261V7.035ZM761.055 0.464999V13.485H759.93V7.935H756.66V9.855H750.555V1.5H756.66V3.345H759.93V0.464999H761.055ZM755.565 2.43H751.65V8.925H755.565V2.43ZM759.93 6.99V4.275H756.66V6.99H759.93ZM780.199 0.464999V13.485H779.074V5.85H776.254V4.89H779.074V0.464999H780.199ZM773.794 5.97C773.924 5.97 774.044 6.025 774.154 6.135L777.049 9.585L776.194 10.32L773.269 6.75C773.229 6.69 773.169 6.66 773.089 6.66C773.029 6.66 772.974 6.69 772.924 6.75C772.664 7.29 772.314 7.845 771.874 8.415C771.444 8.985 770.849 9.69 770.089 10.53L769.234 9.81C770.094 8.9 770.759 8.11 771.229 7.44C771.699 6.77 772.039 6.105 772.249 5.445C772.459 4.775 772.564 4.015 772.564 3.165V2.595H769.639V1.635H776.614V2.595H773.704V3.21C773.704 4.32 773.524 5.325 773.164 6.225L773.254 6.27L773.479 6.09C773.589 6.01 773.694 5.97 773.794 5.97ZM795.013 0.464999V13.485H793.918V0.464999H795.013ZM790.963 0.69H792.028V13.125H790.963V6.3H789.523C789.473 7.6 789.183 8.58 788.653 9.24C788.123 9.89 787.423 10.215 786.553 10.215C785.623 10.215 784.888 9.855 784.348 9.135C783.808 8.405 783.538 7.32 783.538 5.88C783.538 4.44 783.808 3.36 784.348 2.64C784.888 1.91 785.623 1.545 786.553 1.545C787.413 1.545 788.103 1.865 788.623 2.505C789.153 3.145 789.453 4.095 789.523 5.355H790.963V0.69ZM788.383 5.16C788.383 4.28 788.213 3.61 787.873 3.15C787.543 2.69 787.103 2.46 786.553 2.46C785.993 2.46 785.543 2.69 785.203 3.15C784.873 3.61 784.708 4.28 784.708 5.16V6.615C784.708 7.485 784.873 8.155 785.203 8.625C785.543 9.085 785.993 9.315 786.553 9.315C787.103 9.315 787.543 9.085 787.873 8.625C788.213 8.155 788.383 7.485 788.383 6.615V5.16ZM809.437 0.464999V13.485H808.327V0.464999H809.437ZM805.312 0.69H806.407V13.125H805.312V6.51H803.047C802.767 7.25 802.307 7.945 801.667 8.595C801.037 9.235 800.122 9.955 798.922 10.755L798.172 9.99C799.302 9.26 800.162 8.61 800.752 8.04C801.342 7.46 801.757 6.855 801.997 6.225C802.237 5.585 802.357 4.8 802.357 3.87V2.715H798.517V1.8H803.452V3.84C803.452 4.49 803.402 5.065 803.302 5.565H805.312V0.69ZM828.206 0.464999V13.485H827.081V6H823.481V5.04H827.081V0.464999H828.206ZM825.026 8.685L825.191 9.6C823.661 9.91 821.756 10.065 819.476 10.065H817.901V1.53H823.841V2.49H819.026V9.12H819.446C821.636 9.12 823.496 8.975 825.026 8.685ZM848.834 3.675V4.635H846.749V7.89H845.609V0.464999H846.749V3.675H848.834ZM842.789 7.125H836.639V1.125H842.789V7.125ZM841.664 2.055H837.779V6.18H841.664V2.055ZM843.284 11.265C843.354 11.265 843.454 11.29 843.584 11.34L847.409 13.275L846.824 14.13L842.849 12.03C842.729 11.97 842.614 11.94 842.504 11.94C842.384 11.94 842.269 11.975 842.159 12.045C841.799 12.365 841.304 12.695 840.674 13.035C840.054 13.375 839.249 13.755 838.259 14.175L837.689 13.305C838.839 12.855 839.724 12.445 840.344 12.075C840.974 11.705 841.414 11.34 841.664 10.98C841.914 10.61 842.044 10.19 842.054 9.72H838.169V8.76H846.929V9.72H843.179C843.169 10.11 843.119 10.455 843.029 10.755C842.939 11.055 842.784 11.34 842.564 11.61L842.624 11.64L842.894 11.43C843.034 11.32 843.164 11.265 843.284 11.265ZM861.113 5.655H852.488V0.944999H853.613V4.71H861.113V5.655ZM862.853 7.32V8.295H850.613V7.32H862.853ZM853.508 12.795H861.278V13.755H853.118C852.878 13.755 852.693 13.69 852.563 13.56C852.433 13.43 852.368 13.24 852.368 12.99V9.705H853.508V12.795ZM882.402 6.555H880.242V13.515H879.102V0.495H880.242V5.595H882.402V6.555ZM877.617 8.925L877.767 9.84C876.247 10.14 874.317 10.29 871.977 10.29H870.387V5.265H875.052V2.415H870.327V1.455H876.177V6.21H871.512V9.36H872.007C874.197 9.36 876.067 9.215 877.617 8.925ZM894.216 0.464999H895.356V13.485H894.216V0.464999ZM884.586 5.73C884.586 4.27 884.906 3.165 885.546 2.415C886.196 1.665 887.051 1.29 888.111 1.29C889.161 1.29 890.006 1.665 890.646 2.415C891.296 3.165 891.621 4.27 891.621 5.73C891.621 6.71 891.471 7.535 891.171 8.205C890.871 8.865 890.456 9.36 889.926 9.69C889.396 10.01 888.791 10.17 888.111 10.17C887.051 10.17 886.196 9.795 885.546 9.045C884.906 8.295 884.586 7.19 884.586 5.73ZM890.406 6.315V5.145C890.406 4.215 890.191 3.5 889.761 3C889.341 2.5 888.791 2.25 888.111 2.25C887.421 2.25 886.861 2.5 886.431 3C886.011 3.49 885.801 4.205 885.801 5.145V6.315C885.801 7.255 886.011 7.975 886.431 8.475C886.861 8.965 887.421 9.21 888.111 9.21C888.791 9.21 889.341 8.96 889.761 8.46C890.191 7.96 890.406 7.245 890.406 6.315ZM2.265 24.17H3.39V26.66H9.99V24.17H11.115V31.07H2.265V24.17ZM9.99 30.11V27.62H3.39V30.11H9.99ZM0.57 34.025H12.81V35H0.57V34.025ZM26.169 23.465V36.485H25.044V29.075H22.389V28.115H25.044V23.465H26.169ZM22.974 31.925L23.109 32.84C21.639 33.14 19.744 33.29 17.424 33.29H15.849V28.28H20.379V25.415H15.804V24.455H21.504V29.21H16.974V32.36H17.469C19.629 32.36 21.464 32.215 22.974 31.925ZM40.578 23.465V36.485H39.438V23.465H40.578ZM37.728 31.925L37.878 32.84C36.328 33.14 34.358 33.29 31.968 33.29H30.348V28.265H35.073V25.415H30.288V24.455H36.213V29.21H31.473V32.36H31.953C34.223 32.36 36.148 32.215 37.728 31.925ZM55.4071 23.465V36.485H54.3121V23.465H55.4071ZM51.3571 23.69H52.4221V36.125H51.3571V29.3H49.9171C49.8671 30.6 49.5771 31.58 49.0471 32.24C48.5171 32.89 47.8171 33.215 46.9471 33.215C46.0171 33.215 45.2821 32.855 44.7421 32.135C44.2021 31.405 43.9321 30.32 43.9321 28.88C43.9321 27.44 44.2021 26.36 44.7421 25.64C45.2821 24.91 46.0171 24.545 46.9471 24.545C47.8071 24.545 48.4971 24.865 49.0171 25.505C49.5471 26.145 49.8471 27.095 49.9171 28.355H51.3571V23.69ZM48.7771 28.16C48.7771 27.28 48.6071 26.61 48.2671 26.15C47.9371 25.69 47.4971 25.46 46.9471 25.46C46.3871 25.46 45.9371 25.69 45.5971 26.15C45.2671 26.61 45.1021 27.28 45.1021 28.16V29.615C45.1021 30.485 45.2671 31.155 45.5971 31.625C45.9371 32.085 46.3871 32.315 46.9471 32.315C47.4971 32.315 47.9371 32.085 48.2671 31.625C48.6071 31.155 48.7771 30.485 48.7771 29.615V28.16ZM74.2837 29.405H65.6137V23.885H74.2837V29.405ZM73.1437 24.845H66.7537V28.445H73.1437V24.845ZM76.0687 32.18H70.5187V37.01H69.3787V32.18H63.8287V31.205H76.0687V32.18ZM82.0627 30.65C81.4027 30.65 80.8127 30.515 80.2927 30.245C79.7827 29.975 79.3827 29.59 79.0927 29.09C78.8027 28.59 78.6577 28 78.6577 27.32C78.6577 26.65 78.8027 26.065 79.0927 25.565C79.3827 25.065 79.7827 24.68 80.2927 24.41C80.8127 24.14 81.4027 24.005 82.0627 24.005C82.9927 24.005 83.7677 24.265 84.3877 24.785C85.0077 25.295 85.3677 25.995 85.4677 26.885H88.3477V23.465H89.4877V32.255H88.3477V27.845H85.4527C85.3427 28.715 84.9777 29.4 84.3577 29.9C83.7377 30.4 82.9727 30.65 82.0627 30.65ZM82.0627 29.72C82.7227 29.72 83.2527 29.525 83.6527 29.135C84.0627 28.745 84.2677 28.235 84.2677 27.605V27.035C84.2677 26.405 84.0627 25.9 83.6527 25.52C83.2527 25.13 82.7227 24.935 82.0627 24.935C81.4027 24.935 80.8677 25.13 80.4577 25.52C80.0577 25.9 79.8577 26.405 79.8577 27.035V27.605C79.8577 28.235 80.0577 28.745 80.4577 29.135C80.8677 29.525 81.4027 29.72 82.0627 29.72ZM90.1177 36.245L89.4577 37.13L85.4827 34.775C85.3727 34.705 85.2577 34.67 85.1377 34.67C85.0077 34.67 84.8977 34.71 84.8077 34.79H84.7927C84.4327 35.15 83.9377 35.52 83.3077 35.9C82.6877 36.29 81.8877 36.715 80.9077 37.175L80.2777 36.305C81.4777 35.765 82.3927 35.28 83.0227 34.85C83.6527 34.41 84.0877 33.975 84.3277 33.545C84.5677 33.115 84.6877 32.615 84.6877 32.045V31.61H85.8727V32.09C85.8727 32.56 85.8177 32.98 85.7077 33.35C85.6077 33.71 85.4277 34.055 85.1677 34.385L85.2277 34.4L85.5877 34.145C85.7477 34.035 85.8727 33.98 85.9627 33.98C86.0427 33.98 86.1527 34.015 86.2927 34.085L90.1177 36.245ZM103.912 23.465V30.29H102.757V23.465H103.912ZM93.1117 26.9C93.1117 26.27 93.2567 25.72 93.5467 25.25C93.8467 24.78 94.2567 24.42 94.7767 24.17C95.3067 23.91 95.9017 23.78 96.5617 23.78C97.2217 23.78 97.8117 23.91 98.3317 24.17C98.8617 24.42 99.2717 24.78 99.5617 25.25C99.8617 25.72 100.012 26.27 100.012 26.9C100.012 27.53 99.8617 28.08 99.5617 28.55C99.2717 29.02 98.8617 29.385 98.3317 29.645C97.8117 29.895 97.2217 30.02 96.5617 30.02C95.9017 30.02 95.3067 29.895 94.7767 29.645C94.2567 29.385 93.8467 29.02 93.5467 28.55C93.2567 28.08 93.1117 27.53 93.1117 26.9ZM98.7967 27.125V26.675C98.7967 26.075 98.5917 25.6 98.1817 25.25C97.7717 24.89 97.2317 24.71 96.5617 24.71C95.8917 24.71 95.3467 24.89 94.9267 25.25C94.5167 25.61 94.3117 26.085 94.3117 26.675V27.125C94.3117 27.715 94.5217 28.19 94.9417 28.55C95.3617 28.91 95.9017 29.09 96.5617 29.09C97.2217 29.09 97.7567 28.91 98.1667 28.55C98.5867 28.19 98.7967 27.715 98.7967 27.125ZM95.5567 36.335V33.62H102.757V32.075H95.4667V31.115H103.912V34.58H96.7117V36.125H104.272V37.1H96.3067C96.0667 37.1 95.8817 37.035 95.7517 36.905C95.6217 36.775 95.5567 36.585 95.5567 36.335ZM118.261 23.465V36.485H117.121V23.465H118.261ZM111.991 28.97C112.131 28.97 112.246 29.025 112.336 29.135L115.276 32.585L114.421 33.32L111.451 29.75C111.401 29.69 111.341 29.66 111.271 29.66C111.211 29.66 111.156 29.69 111.106 29.75C110.836 30.3 110.481 30.86 110.041 31.43C109.601 32 109.001 32.7 108.241 33.53L107.386 32.81C108.256 31.9 108.926 31.11 109.396 30.44C109.876 29.77 110.221 29.105 110.431 28.445C110.641 27.775 110.746 27.015 110.746 26.165V25.595H107.791V24.635H114.826V25.595H111.886V26.21C111.886 27.34 111.711 28.345 111.361 29.225L111.436 29.27L111.661 29.09C111.771 29.01 111.881 28.97 111.991 28.97ZM136.537 25.52H128.617V24.545H137.662V25.61C137.662 27.83 137.447 29.945 137.017 31.955L135.907 31.775C136.327 29.745 136.537 27.705 136.537 25.655V25.52ZM139.327 34.04V35H127.087V34.04H131.887V29.225H133.012V34.04H139.327ZM152.746 23.465V33.35H151.591V23.465H152.746ZM148.531 24.305V30.68H142.276V24.305H148.531ZM147.391 25.25H143.431V29.735H147.391V25.25ZM144.406 36.005V32.27H145.561V35.825H153.016V36.77H145.156C144.916 36.77 144.731 36.705 144.601 36.575C144.471 36.445 144.406 36.255 144.406 36.005ZM167.5 23.465V36.485H166.39V29.69H164.44V36.125H163.345V23.69H164.44V28.745H166.39V23.465H167.5ZM161.275 25.415H157.42V24.485H161.275V25.415ZM155.845 27.095H162.625V27.995H160.84V28.07C161.63 28.5 162.025 29.315 162.025 30.515C162.025 31.455 161.77 32.19 161.26 32.72C160.76 33.24 160.1 33.5 159.28 33.5C158.47 33.5 157.81 33.24 157.3 32.72C156.8 32.19 156.55 31.455 156.55 30.515C156.55 29.315 156.94 28.5 157.72 28.07V27.995H155.845V27.095ZM160.945 29.975C160.945 29.375 160.795 28.915 160.495 28.595C160.195 28.275 159.79 28.115 159.28 28.115C158.77 28.115 158.365 28.275 158.065 28.595C157.775 28.915 157.63 29.375 157.63 29.975V30.695C157.63 31.285 157.78 31.745 158.08 32.075C158.39 32.405 158.79 32.57 159.28 32.57C159.77 32.57 160.17 32.405 160.48 32.075C160.79 31.745 160.945 31.285 160.945 30.695V29.975ZM182.599 34.04V35H170.359V34.04H175.909V30.98H172.039V24.155H173.179V26.63H179.764V24.155H180.889V30.98H177.049V34.04H182.599ZM173.179 30.035H179.764V27.575H173.179V30.035ZM197.428 26.765V27.725H195.343V30.98H194.203V23.465H195.343V26.765H197.428ZM184.903 27.2C184.903 26.54 185.048 25.965 185.338 25.475C185.628 24.985 186.028 24.61 186.538 24.35C187.058 24.08 187.648 23.945 188.308 23.945C188.968 23.945 189.553 24.08 190.063 24.35C190.573 24.61 190.973 24.985 191.263 25.475C191.553 25.965 191.698 26.54 191.698 27.2C191.698 27.86 191.553 28.435 191.263 28.925C190.973 29.415 190.568 29.795 190.048 30.065C189.538 30.325 188.958 30.455 188.308 30.455C187.648 30.455 187.058 30.325 186.538 30.065C186.028 29.795 185.628 29.415 185.338 28.925C185.048 28.435 184.903 27.86 184.903 27.2ZM186.103 27.47C186.103 28.09 186.303 28.59 186.703 28.97C187.113 29.34 187.648 29.525 188.308 29.525C188.958 29.525 189.483 29.34 189.883 28.97C190.293 28.59 190.498 28.09 190.498 27.47V26.93C190.498 26.31 190.293 25.815 189.883 25.445C189.483 25.065 188.958 24.875 188.308 24.875C187.648 24.875 187.113 25.065 186.703 25.445C186.303 25.815 186.103 26.31 186.103 26.93V27.47ZM194.293 34.115C194.393 34.115 194.493 34.155 194.593 34.235L196.723 36.275L195.988 37.055L193.798 34.88C193.728 34.81 193.658 34.775 193.588 34.775C193.528 34.775 193.478 34.795 193.438 34.835C193.218 35.165 192.928 35.51 192.568 35.87C192.218 36.24 191.743 36.685 191.143 37.205L188.863 34.835C188.793 34.765 188.728 34.73 188.668 34.73C188.628 34.73 188.573 34.755 188.503 34.805C188.283 35.145 187.993 35.5 187.633 35.87C187.273 36.25 186.818 36.68 186.268 37.16L185.548 36.395C186.218 35.835 186.738 35.335 187.108 34.895C187.488 34.455 187.758 34.02 187.918 33.59C188.088 33.16 188.173 32.675 188.173 32.135V31.655H189.238V32.165C189.238 32.985 189.088 33.695 188.788 34.295L188.848 34.34L189.028 34.19C189.128 34.12 189.228 34.085 189.328 34.085C189.448 34.085 189.553 34.13 189.643 34.22L191.218 35.825C191.928 35.165 192.413 34.58 192.673 34.07C192.943 33.55 193.078 32.91 193.078 32.15V31.655H194.158V32.21C194.158 32.65 194.123 33.04 194.053 33.38C193.983 33.72 193.873 34.045 193.723 34.355L193.783 34.385L193.963 34.235C194.073 34.155 194.183 34.115 194.293 34.115ZM200.587 28.715L199.972 27.875C201.272 27.385 202.272 26.94 202.972 26.54C203.672 26.13 204.157 25.725 204.427 25.325C204.707 24.925 204.847 24.46 204.847 23.93V23.585H205.987V23.99C205.987 24.42 205.927 24.81 205.807 25.16C205.687 25.5 205.497 25.82 205.237 26.12L205.342 26.15L205.717 25.895C205.857 25.785 206.002 25.73 206.152 25.73C206.252 25.73 206.362 25.755 206.482 25.805L210.682 27.83L210.052 28.685L205.672 26.51C205.512 26.43 205.367 26.39 205.237 26.39C205.107 26.39 204.977 26.425 204.847 26.495C204.447 26.845 203.907 27.195 203.227 27.545C202.557 27.885 201.677 28.275 200.587 28.715ZM211.447 29.795V30.755H199.207V29.795H211.447ZM208.522 31.805H209.632V36.995H201.772C201.532 36.995 201.347 36.93 201.217 36.8C201.087 36.67 201.022 36.48 201.022 36.23V31.805H202.132V33.425H208.522V31.805ZM208.522 34.37H202.132V36.05H208.522V34.37ZM224.792 23.465V36.485H223.652V23.465H224.792ZM221.837 31.49L221.987 32.435C220.357 32.755 218.382 32.915 216.062 32.915H214.427V24.515H215.567V31.94H216.017C218.347 31.94 220.287 31.79 221.837 31.49ZM240.686 29.555H238.526V36.515H237.386V23.495H238.526V28.595H240.686V29.555ZM235.811 31.685L235.961 32.6C234.431 32.91 232.521 33.065 230.231 33.065H228.641V24.53H234.626V25.49H229.781V32.12H230.216C232.416 32.12 234.281 31.975 235.811 31.685ZM243.95 35.18C243.63 35.18 243.395 35.1 243.245 34.94C243.105 34.78 243.035 34.57 243.035 34.31V34.115C243.035 33.855 243.105 33.645 243.245 33.485C243.395 33.325 243.63 33.245 243.95 33.245C244.27 33.245 244.5 33.325 244.64 33.485C244.79 33.645 244.865 33.855 244.865 34.115V34.31C244.865 34.57 244.79 34.78 244.64 34.94C244.5 35.1 244.27 35.18 243.95 35.18ZM265.824 27.41V28.37H263.739V33.35H262.599V23.465H263.739V27.41H265.824ZM259.719 30.875H253.629V24.245H254.724V26.585H258.609V24.215H259.719V30.875ZM258.609 27.515H254.724V29.945H258.609V27.515ZM256.704 35.825H264.039V36.77H256.314C256.074 36.77 255.889 36.705 255.759 36.575C255.629 36.445 255.564 36.255 255.564 36.005V32.45H256.704V35.825ZM269.208 26.135C269.208 25.355 269.588 24.725 270.348 24.245C271.108 23.755 272.233 23.51 273.723 23.51C275.213 23.51 276.338 23.755 277.098 24.245C277.858 24.725 278.238 25.355 278.238 26.135C278.238 26.925 277.858 27.565 277.098 28.055C276.348 28.535 275.223 28.775 273.723 28.775C272.223 28.775 271.093 28.535 270.333 28.055C269.583 27.565 269.208 26.925 269.208 26.135ZM277.023 26.24V26.03C277.023 25.56 276.748 25.17 276.198 24.86C275.648 24.55 274.823 24.395 273.723 24.395C272.623 24.395 271.798 24.55 271.248 24.86C270.698 25.17 270.423 25.56 270.423 26.03V26.24C270.423 26.71 270.698 27.1 271.248 27.41C271.798 27.72 272.623 27.875 273.723 27.875C274.823 27.875 275.648 27.72 276.198 27.41C276.748 27.1 277.023 26.71 277.023 26.24ZM267.603 29.915H279.843V30.89H267.603V29.915ZM269.283 34.67C269.283 34.17 269.448 33.725 269.778 33.335C270.118 32.945 270.618 32.64 271.278 32.42C271.948 32.2 272.763 32.09 273.723 32.09C274.683 32.09 275.493 32.2 276.153 32.42C276.823 32.64 277.323 32.945 277.653 33.335C277.993 33.725 278.163 34.17 278.163 34.67C278.163 35.46 277.783 36.095 277.023 36.575C276.263 37.055 275.163 37.295 273.723 37.295C272.283 37.295 271.183 37.055 270.423 36.575C269.663 36.095 269.283 35.46 269.283 34.67ZM276.963 34.79V34.58C276.963 34.13 276.693 33.755 276.153 33.455C275.623 33.145 274.813 32.99 273.723 32.99C272.643 32.99 271.828 33.145 271.278 33.455C270.738 33.755 270.468 34.13 270.468 34.58V34.79C270.468 35.24 270.738 35.615 271.278 35.915C271.828 36.225 272.643 36.38 273.723 36.38C274.813 36.38 275.623 36.225 276.153 35.915C276.693 35.615 276.963 35.24 276.963 34.79ZM292.107 29.855H290.112V28.925H292.107V27.245H290.112V26.33H292.107V23.465H293.247V31.895H292.107V29.855ZM288.087 24.725H284.067V23.78H288.087V24.725ZM285.972 31.385C285.362 31.385 284.827 31.29 284.367 31.1C283.907 30.91 283.552 30.645 283.302 30.305C283.052 29.965 282.927 29.58 282.927 29.15C282.927 28.72 283.032 28.35 283.242 28.04C283.452 27.72 283.767 27.47 284.187 27.29V27.2H282.117V26.285H289.632V27.2H287.772V27.29C288.192 27.47 288.507 27.72 288.717 28.04C288.927 28.35 289.032 28.72 289.032 29.15C289.032 29.58 288.907 29.965 288.657 30.305C288.407 30.645 288.047 30.91 287.577 31.1C287.117 31.29 286.582 31.385 285.972 31.385ZM285.837 30.44H286.122C286.662 30.44 287.107 30.305 287.457 30.035C287.807 29.755 287.982 29.37 287.982 28.88C287.982 28.38 287.807 27.995 287.457 27.725C287.117 27.445 286.672 27.305 286.122 27.305H285.837C285.287 27.305 284.837 27.445 284.487 27.725C284.147 27.995 283.977 28.38 283.977 28.88C283.977 29.37 284.152 29.755 284.502 30.035C284.852 30.305 285.297 30.44 285.837 30.44ZM293.337 34.7C293.337 35.47 292.972 36.09 292.242 36.56C291.522 37.03 290.482 37.265 289.122 37.265C287.752 37.265 286.702 37.03 285.972 36.56C285.252 36.09 284.892 35.47 284.892 34.7C284.892 34.21 285.047 33.775 285.357 33.395C285.677 33.015 286.152 32.715 286.782 32.495C287.422 32.275 288.202 32.165 289.122 32.165C290.032 32.165 290.802 32.275 291.432 32.495C292.072 32.715 292.547 33.015 292.857 33.395C293.177 33.775 293.337 34.21 293.337 34.7ZM292.122 34.61C292.122 34.18 291.872 33.82 291.372 33.53C290.872 33.23 290.122 33.08 289.122 33.08C288.112 33.08 287.352 33.23 286.842 33.53C286.342 33.82 286.092 34.18 286.092 34.61V34.82C286.092 35.25 286.342 35.61 286.842 35.9C287.352 36.2 288.112 36.35 289.122 36.35C290.122 36.35 290.872 36.2 291.372 35.9C291.872 35.61 292.122 35.25 292.122 34.82V34.61ZM314.659 27.815H312.574V31.355H311.434V23.465H312.574V26.855H314.659V27.815ZM302.914 30.995L302.074 30.275C302.914 29.595 303.564 29.01 304.024 28.52C304.484 28.03 304.814 27.545 305.014 27.065C305.224 26.575 305.329 26.03 305.329 25.43V25.28H302.464V24.32H309.319V25.28H306.469V25.475C306.469 26.305 306.294 27.06 305.944 27.74L306.034 27.785L306.259 27.62C306.369 27.53 306.479 27.485 306.589 27.485C306.699 27.485 306.814 27.535 306.934 27.635L309.739 30.02L308.899 30.77L306.049 28.265C305.989 28.205 305.919 28.175 305.839 28.175C305.759 28.175 305.689 28.205 305.629 28.265C305.369 28.655 305.029 29.055 304.609 29.465C304.189 29.875 303.624 30.385 302.914 30.995ZM304.129 32.165H312.574V37.145H311.449V33.125H304.129V32.165ZM327.673 23.465V30.695H326.533V27.53H323.638C323.538 28.38 323.178 29.055 322.558 29.555C321.938 30.045 321.168 30.29 320.248 30.29C319.588 30.29 318.998 30.16 318.478 29.9C317.968 29.64 317.568 29.27 317.278 28.79C316.988 28.3 316.843 27.73 316.843 27.08C316.843 26.43 316.988 25.865 317.278 25.385C317.568 24.895 317.968 24.52 318.478 24.26C318.998 24 319.588 23.87 320.248 23.87C321.168 23.87 321.933 24.115 322.543 24.605C323.163 25.085 323.528 25.745 323.638 26.585H326.533V23.465H327.673ZM322.468 26.825C322.468 26.215 322.263 25.725 321.853 25.355C321.443 24.985 320.908 24.8 320.248 24.8C319.588 24.8 319.053 24.985 318.643 25.355C318.243 25.725 318.043 26.215 318.043 26.825V27.32C318.043 27.94 318.243 28.435 318.643 28.805C319.053 29.175 319.588 29.36 320.248 29.36C320.908 29.36 321.443 29.175 321.853 28.805C322.263 28.435 322.468 27.94 322.468 27.32V26.825ZM326.533 31.535H327.673V37.025H320.188C319.948 37.025 319.763 36.96 319.633 36.83C319.503 36.7 319.438 36.51 319.438 36.26V31.535H320.548V33.26H326.533V31.535ZM326.533 34.235H320.548V36.05H326.533V34.235ZM332.482 25.865C332.482 25.135 332.857 24.555 333.607 24.125C334.357 23.685 335.482 23.465 336.982 23.465C338.482 23.465 339.607 23.685 340.357 24.125C341.107 24.555 341.482 25.135 341.482 25.865C341.482 26.595 341.107 27.18 340.357 27.62C339.607 28.06 338.482 28.28 336.982 28.28C335.482 28.28 334.357 28.06 333.607 27.62C332.857 27.18 332.482 26.595 332.482 25.865ZM340.267 25.94V25.775C340.267 25.345 339.992 24.995 339.442 24.725C338.902 24.445 338.082 24.305 336.982 24.305C335.882 24.305 335.057 24.445 334.507 24.725C333.967 24.995 333.697 25.345 333.697 25.775V25.94C333.697 26.37 333.967 26.725 334.507 27.005C335.057 27.275 335.882 27.41 336.982 27.41C338.082 27.41 338.902 27.275 339.442 27.005C339.992 26.725 340.267 26.37 340.267 25.94ZM343.102 29.315V30.275H330.862V29.315H343.102ZM332.767 36.335V33.875H340.162V32.465H332.677V31.535H341.257V34.745H333.862V36.17H341.647V37.1H333.517C333.277 37.1 333.092 37.035 332.962 36.905C332.832 36.775 332.767 36.585 332.767 36.335ZM363.478 29.795H361.363V36.515H360.223V23.495H361.363V28.835H363.478V29.795ZM357.028 25.175H352.768V24.2H357.028V25.175ZM350.773 26.975H358.798V27.905H356.578V27.995C357.488 28.445 357.943 29.31 357.943 30.59C357.943 31.24 357.808 31.805 357.538 32.285C357.268 32.755 356.893 33.115 356.413 33.365C355.943 33.615 355.418 33.74 354.838 33.74C354.258 33.74 353.728 33.615 353.248 33.365C352.778 33.115 352.408 32.755 352.138 32.285C351.868 31.805 351.733 31.24 351.733 30.59C351.733 29.31 352.188 28.445 353.098 27.995V27.905H350.773V26.975ZM356.833 30.095C356.833 29.425 356.653 28.915 356.293 28.565C355.933 28.205 355.448 28.025 354.838 28.025C354.238 28.025 353.753 28.205 353.383 28.565C353.023 28.925 352.843 29.435 352.843 30.095V30.71C352.843 31.36 353.028 31.87 353.398 32.24C353.768 32.6 354.248 32.78 354.838 32.78C355.428 32.78 355.908 32.6 356.278 32.24C356.648 31.87 356.833 31.36 356.833 30.71V30.095ZM376.462 23.465V36.485H375.337V30.935H372.067V32.855H365.962V24.5H372.067V26.345H375.337V23.465H376.462ZM370.972 25.43H367.057V31.925H370.972V25.43ZM375.337 29.99V27.275H372.067V29.99H375.337ZM396.419 23.465V36.485H395.279V23.465H396.419ZM393.404 31.685L393.554 32.6C392.004 32.91 390.074 33.065 387.764 33.065H386.159V24.53H392.204V25.49H387.314V32.105H387.734C390.024 32.105 391.914 31.965 393.404 31.685ZM412.313 29.555H410.153V36.515H409.013V23.495H410.153V28.595H412.313V29.555ZM404.183 28.97C404.303 28.97 404.418 29.025 404.528 29.135L407.453 32.6L406.598 33.335L403.658 29.75C403.598 29.69 403.533 29.66 403.463 29.66C403.393 29.66 403.343 29.69 403.313 29.75C403.043 30.29 402.688 30.845 402.248 31.415C401.818 31.975 401.228 32.68 400.478 33.53L399.638 32.825C400.508 31.905 401.173 31.11 401.633 30.44C402.103 29.77 402.443 29.105 402.653 28.445C402.863 27.775 402.968 27.015 402.968 26.165V25.595H400.028V24.635H407.018V25.595H404.093V26.195C404.093 27.315 403.913 28.32 403.553 29.21L403.628 29.27L403.868 29.09C403.968 29.01 404.073 28.97 404.183 28.97ZM425.342 23.465V33.35H424.187V23.465H425.342ZM414.542 27.515C414.542 26.815 414.687 26.205 414.977 25.685C415.277 25.165 415.687 24.77 416.207 24.5C416.727 24.22 417.322 24.08 417.992 24.08C418.652 24.08 419.242 24.22 419.762 24.5C420.292 24.77 420.702 25.165 420.992 25.685C421.292 26.205 421.442 26.815 421.442 27.515C421.442 28.205 421.292 28.81 420.992 29.33C420.702 29.85 420.292 30.25 419.762 30.53C419.242 30.8 418.652 30.935 417.992 30.935C417.322 30.935 416.727 30.8 416.207 30.53C415.687 30.25 415.277 29.855 414.977 29.345C414.687 28.825 414.542 28.215 414.542 27.515ZM420.227 27.83V27.2C420.227 26.54 420.017 26.015 419.597 25.625C419.187 25.225 418.652 25.025 417.992 25.025C417.322 25.025 416.777 25.225 416.357 25.625C415.947 26.025 415.742 26.55 415.742 27.2V27.83C415.742 28.48 415.952 29.005 416.372 29.405C416.792 29.795 417.332 29.99 417.992 29.99C418.652 29.99 419.187 29.795 419.597 29.405C420.017 29.005 420.227 28.48 420.227 27.83ZM417.002 36.005V32.27H418.157V35.825H425.612V36.77H417.752C417.512 36.77 417.327 36.705 417.197 36.575C417.067 36.445 417.002 36.255 417.002 36.005ZM444.189 29.45H441.249V28.52H444.189V26.48H441.249V25.55H444.189V23.465H445.329V33.35H444.189V29.45ZM440.799 30.875H434.754V24.245H435.849V26.585H439.689V24.215H440.799V30.875ZM439.689 27.515H435.849V29.945H439.689V27.515ZM445.599 35.825V36.77H437.739C437.499 36.77 437.314 36.705 437.184 36.575C437.054 36.445 436.989 36.255 436.989 36.005V32.45H438.144V35.825H445.599ZM458.598 29.855H456.603V28.925H458.598V27.245H456.603V26.33H458.598V23.465H459.738V31.895H458.598V29.855ZM454.578 24.725H450.558V23.78H454.578V24.725ZM452.463 31.385C451.853 31.385 451.318 31.29 450.858 31.1C450.398 30.91 450.043 30.645 449.793 30.305C449.543 29.965 449.418 29.58 449.418 29.15C449.418 28.72 449.523 28.35 449.733 28.04C449.943 27.72 450.258 27.47 450.678 27.29V27.2H448.608V26.285H456.123V27.2H454.263V27.29C454.683 27.47 454.998 27.72 455.208 28.04C455.418 28.35 455.523 28.72 455.523 29.15C455.523 29.58 455.398 29.965 455.148 30.305C454.898 30.645 454.538 30.91 454.068 31.1C453.608 31.29 453.073 31.385 452.463 31.385ZM452.328 30.44H452.613C453.153 30.44 453.598 30.305 453.948 30.035C454.298 29.755 454.473 29.37 454.473 28.88C454.473 28.38 454.298 27.995 453.948 27.725C453.608 27.445 453.163 27.305 452.613 27.305H452.328C451.778 27.305 451.328 27.445 450.978 27.725C450.638 27.995 450.468 28.38 450.468 28.88C450.468 29.37 450.643 29.755 450.993 30.035C451.343 30.305 451.788 30.44 452.328 30.44ZM459.828 34.7C459.828 35.47 459.463 36.09 458.733 36.56C458.013 37.03 456.973 37.265 455.613 37.265C454.243 37.265 453.193 37.03 452.463 36.56C451.743 36.09 451.383 35.47 451.383 34.7C451.383 34.21 451.538 33.775 451.848 33.395C452.168 33.015 452.643 32.715 453.273 32.495C453.913 32.275 454.693 32.165 455.613 32.165C456.523 32.165 457.293 32.275 457.923 32.495C458.563 32.715 459.038 33.015 459.348 33.395C459.668 33.775 459.828 34.21 459.828 34.7ZM458.613 34.61C458.613 34.18 458.363 33.82 457.863 33.53C457.363 33.23 456.613 33.08 455.613 33.08C454.603 33.08 453.843 33.23 453.333 33.53C452.833 33.82 452.583 34.18 452.583 34.61V34.82C452.583 35.25 452.833 35.61 453.333 35.9C453.843 36.2 454.603 36.35 455.613 36.35C456.613 36.35 457.363 36.2 457.863 35.9C458.363 35.61 458.613 35.25 458.613 34.82V34.61ZM472.962 23.465H474.102V36.485H472.962V23.465ZM463.332 28.73C463.332 27.27 463.652 26.165 464.292 25.415C464.942 24.665 465.797 24.29 466.857 24.29C467.907 24.29 468.752 24.665 469.392 25.415C470.042 26.165 470.367 27.27 470.367 28.73C470.367 29.71 470.217 30.535 469.917 31.205C469.617 31.865 469.202 32.36 468.672 32.69C468.142 33.01 467.537 33.17 466.857 33.17C465.797 33.17 464.942 32.795 464.292 32.045C463.652 31.295 463.332 30.19 463.332 28.73ZM469.152 29.315V28.145C469.152 27.215 468.937 26.5 468.507 26C468.087 25.5 467.537 25.25 466.857 25.25C466.167 25.25 465.607 25.5 465.177 26C464.757 26.49 464.547 27.205 464.547 28.145V29.315C464.547 30.255 464.757 30.975 465.177 31.475C465.607 31.965 466.167 32.21 466.857 32.21C467.537 32.21 468.087 31.96 468.507 31.46C468.937 30.96 469.152 30.245 469.152 29.315ZM495.168 30.05V31.01H482.928V30.05H486.183V28.28C485.633 28.05 485.218 27.75 484.938 27.38C484.668 27.01 484.533 26.59 484.533 26.12C484.533 25.34 484.913 24.71 485.673 24.23C486.433 23.74 487.558 23.495 489.048 23.495C490.538 23.495 491.663 23.74 492.423 24.23C493.183 24.71 493.563 25.34 493.563 26.12C493.563 26.59 493.423 27.01 493.143 27.38C492.873 27.75 492.463 28.05 491.913 28.28V30.05H495.168ZM489.048 27.86C490.158 27.86 490.988 27.705 491.538 27.395C492.088 27.085 492.363 26.69 492.363 26.21V26C492.363 25.53 492.083 25.14 491.523 24.83C490.973 24.52 490.148 24.365 489.048 24.365C487.948 24.365 487.123 24.52 486.573 24.83C486.023 25.14 485.748 25.53 485.748 26V26.21C485.748 26.69 486.018 27.085 486.558 27.395C487.108 27.705 487.938 27.86 489.048 27.86ZM487.278 30.05H490.818V28.595C490.328 28.695 489.738 28.745 489.048 28.745C488.358 28.745 487.768 28.695 487.278 28.595V30.05ZM493.488 34.685C493.488 35.195 493.318 35.645 492.978 36.035C492.648 36.425 492.148 36.73 491.478 36.95C490.818 37.18 490.008 37.295 489.048 37.295C488.088 37.295 487.273 37.18 486.603 36.95C485.943 36.73 485.443 36.425 485.103 36.035C484.773 35.645 484.608 35.195 484.608 34.685C484.608 34.185 484.773 33.745 485.103 33.365C485.443 32.975 485.943 32.67 486.603 32.45C487.273 32.23 488.088 32.12 489.048 32.12C490.008 32.12 490.818 32.23 491.478 32.45C492.148 32.67 492.648 32.975 492.978 33.365C493.318 33.745 493.488 34.185 493.488 34.685ZM492.288 34.595C492.288 34.155 492.018 33.785 491.478 33.485C490.948 33.175 490.138 33.02 489.048 33.02C488.318 33.02 487.708 33.095 487.218 33.245C486.728 33.385 486.368 33.575 486.138 33.815C485.908 34.055 485.793 34.315 485.793 34.595V34.805C485.793 35.085 485.908 35.345 486.138 35.585C486.368 35.825 486.728 36.015 487.218 36.155C487.708 36.305 488.318 36.38 489.048 36.38C490.138 36.38 490.948 36.225 491.478 35.915C492.018 35.615 492.288 35.245 492.288 34.805V34.595ZM507.372 23.465H508.512V36.485H507.372V23.465ZM497.742 28.73C497.742 27.27 498.062 26.165 498.702 25.415C499.352 24.665 500.207 24.29 501.267 24.29C502.317 24.29 503.162 24.665 503.802 25.415C504.452 26.165 504.777 27.27 504.777 28.73C504.777 29.71 504.627 30.535 504.327 31.205C504.027 31.865 503.612 32.36 503.082 32.69C502.552 33.01 501.947 33.17 501.267 33.17C500.207 33.17 499.352 32.795 498.702 32.045C498.062 31.295 497.742 30.19 497.742 28.73ZM503.562 29.315V28.145C503.562 27.215 503.347 26.5 502.917 26C502.497 25.5 501.947 25.25 501.267 25.25C500.577 25.25 500.017 25.5 499.587 26C499.167 26.49 498.957 27.205 498.957 28.145V29.315C498.957 30.255 499.167 30.975 499.587 31.475C500.017 31.965 500.577 32.21 501.267 32.21C501.947 32.21 502.497 31.96 502.917 31.46C503.347 30.96 503.562 30.245 503.562 29.315ZM524.421 27.92V28.88H522.336V33.5H521.196V23.465H522.336V27.92H524.421ZM517.761 24.83H513.756V23.87H517.761V24.83ZM515.661 31.94C515.041 31.94 514.496 31.835 514.026 31.625C513.556 31.415 513.191 31.125 512.931 30.755C512.681 30.385 512.556 29.965 512.556 29.495C512.556 29.025 512.666 28.615 512.886 28.265C513.116 27.905 513.456 27.63 513.906 27.44V27.365H511.566V26.42H519.696V27.365H517.416V27.44C517.866 27.63 518.201 27.905 518.421 28.265C518.651 28.615 518.766 29.025 518.766 29.495C518.766 29.965 518.636 30.385 518.376 30.755C518.126 31.125 517.766 31.415 517.296 31.625C516.826 31.835 516.281 31.94 515.661 31.94ZM515.541 30.98H515.796C516.356 30.98 516.811 30.83 517.161 30.53C517.521 30.22 517.701 29.79 517.701 29.24C517.701 28.69 517.526 28.26 517.176 27.95C516.826 27.64 516.366 27.485 515.796 27.485H515.541C514.971 27.485 514.511 27.64 514.161 27.95C513.811 28.25 513.636 28.68 513.636 29.24C513.636 29.79 513.811 30.22 514.161 30.53C514.521 30.83 514.981 30.98 515.541 30.98ZM515.301 35.9H522.636V36.845H514.911C514.671 36.845 514.486 36.78 514.356 36.65C514.226 36.52 514.161 36.33 514.161 36.08V33.08H515.301V35.9ZM544.003 31.07H538.438V36.965H537.298V31.07H531.763V30.11H540.538C540.898 28.54 541.083 26.865 541.093 25.085V25.01H533.383V24.05H542.203V25.01C542.203 26.74 542.033 28.44 541.693 30.11H544.003V31.07ZM551.752 25.31H547.567V24.35H557.062V25.31H552.907C552.907 25.8 552.852 26.24 552.742 26.63C552.632 27.02 552.447 27.39 552.187 27.74L552.232 27.755L552.517 27.545C552.637 27.435 552.777 27.38 552.937 27.38C553.037 27.38 553.147 27.41 553.267 27.47L557.662 29.945L557.032 30.83L552.517 28.19C552.357 28.11 552.217 28.07 552.097 28.07C551.997 28.07 551.907 28.095 551.827 28.145C551.437 28.565 550.902 28.995 550.222 29.435C549.542 29.875 548.657 30.355 547.567 30.875L546.952 30.035C548.202 29.445 549.167 28.91 549.847 28.43C550.537 27.94 551.022 27.455 551.302 26.975C551.592 26.485 551.742 25.93 551.752 25.31ZM558.427 34.04V35H546.187V34.04H551.737V30.8H552.877V34.04H558.427ZM573.241 29.555H571.081V36.515H569.941V23.495H571.081V28.595H573.241V29.555ZM561.256 24.53H567.091V26.615C567.091 27.725 566.926 28.665 566.596 29.435C566.266 30.205 565.706 30.925 564.916 31.595C564.136 32.255 563.016 32.98 561.556 33.77L560.881 32.915C562.241 32.195 563.281 31.54 564.001 30.95C564.721 30.36 565.226 29.735 565.516 29.075C565.806 28.415 565.951 27.6 565.951 26.63V25.505H561.256V24.53ZM591.053 29.405H582.383V23.885H591.053V29.405ZM589.913 24.845H583.523V28.445H589.913V24.845ZM592.838 32.18H587.288V37.01H586.148V32.18H580.598V31.205H592.838V32.18ZM598.832 30.65C598.172 30.65 597.582 30.515 597.062 30.245C596.552 29.975 596.152 29.59 595.862 29.09C595.572 28.59 595.427 28 595.427 27.32C595.427 26.65 595.572 26.065 595.862 25.565C596.152 25.065 596.552 24.68 597.062 24.41C597.582 24.14 598.172 24.005 598.832 24.005C599.762 24.005 600.537 24.265 601.157 24.785C601.777 25.295 602.137 25.995 602.237 26.885H605.117V23.465H606.257V32.255H605.117V27.845H602.222C602.112 28.715 601.747 29.4 601.127 29.9C600.507 30.4 599.742 30.65 598.832 30.65ZM598.832 29.72C599.492 29.72 600.022 29.525 600.422 29.135C600.832 28.745 601.037 28.235 601.037 27.605V27.035C601.037 26.405 600.832 25.9 600.422 25.52C600.022 25.13 599.492 24.935 598.832 24.935C598.172 24.935 597.637 25.13 597.227 25.52C596.827 25.9 596.627 26.405 596.627 27.035V27.605C596.627 28.235 596.827 28.745 597.227 29.135C597.637 29.525 598.172 29.72 598.832 29.72ZM606.887 36.245L606.227 37.13L602.252 34.775C602.142 34.705 602.027 34.67 601.907 34.67C601.777 34.67 601.667 34.71 601.577 34.79H601.562C601.202 35.15 600.707 35.52 600.077 35.9C599.457 36.29 598.657 36.715 597.677 37.175L597.047 36.305C598.247 35.765 599.162 35.28 599.792 34.85C600.422 34.41 600.857 33.975 601.097 33.545C601.337 33.115 601.457 32.615 601.457 32.045V31.61H602.642V32.09C602.642 32.56 602.587 32.98 602.477 33.35C602.377 33.71 602.197 34.055 601.937 34.385L601.997 34.4L602.357 34.145C602.517 34.035 602.642 33.98 602.732 33.98C602.812 33.98 602.922 34.015 603.062 34.085L606.887 36.245ZM620.681 23.465V33.35H619.526V23.465H620.681ZM609.881 27.515C609.881 26.815 610.026 26.205 610.316 25.685C610.616 25.165 611.026 24.77 611.546 24.5C612.066 24.22 612.661 24.08 613.331 24.08C613.991 24.08 614.581 24.22 615.101 24.5C615.631 24.77 616.041 25.165 616.331 25.685C616.631 26.205 616.781 26.815 616.781 27.515C616.781 28.205 616.631 28.81 616.331 29.33C616.041 29.85 615.631 30.25 615.101 30.53C614.581 30.8 613.991 30.935 613.331 30.935C612.661 30.935 612.066 30.8 611.546 30.53C611.026 30.25 610.616 29.855 610.316 29.345C610.026 28.825 609.881 28.215 609.881 27.515ZM615.566 27.83V27.2C615.566 26.54 615.356 26.015 614.936 25.625C614.526 25.225 613.991 25.025 613.331 25.025C612.661 25.025 612.116 25.225 611.696 25.625C611.286 26.025 611.081 26.55 611.081 27.2V27.83C611.081 28.48 611.291 29.005 611.711 29.405C612.131 29.795 612.671 29.99 613.331 29.99C613.991 29.99 614.526 29.795 614.936 29.405C615.356 29.005 615.566 28.48 615.566 27.83ZM612.341 36.005V32.27H613.496V35.825H620.951V36.77H613.091C612.851 36.77 612.666 36.705 612.536 36.575C612.406 36.445 612.341 36.255 612.341 36.005ZM635.03 23.465V36.485H633.89V23.465H635.03ZM628.76 28.97C628.9 28.97 629.015 29.025 629.105 29.135L632.045 32.585L631.19 33.32L628.22 29.75C628.17 29.69 628.11 29.66 628.04 29.66C627.98 29.66 627.925 29.69 627.875 29.75C627.605 30.3 627.25 30.86 626.81 31.43C626.37 32 625.77 32.7 625.01 33.53L624.155 32.81C625.025 31.9 625.695 31.11 626.165 30.44C626.645 29.77 626.99 29.105 627.2 28.445C627.41 27.775 627.515 27.015 627.515 26.165V25.595H624.56V24.635H631.595V25.595H628.655V26.21C628.655 27.34 628.48 28.345 628.13 29.225L628.205 29.27L628.43 29.09C628.54 29.01 628.65 28.97 628.76 28.97ZM656.501 26.885V27.845H654.401V31.43H653.276V23.465H654.401V26.885H656.501ZM651.791 30.455C650.241 30.765 648.286 30.92 645.926 30.92H644.396V24.125H650.426V25.055H645.491V27.02H650.216V27.935H645.491V30.005H645.986C648.096 30.005 649.981 29.855 651.641 29.555L651.791 30.455ZM646.316 32.21H654.416V37.025H647.066C646.826 37.025 646.641 36.96 646.511 36.83C646.381 36.7 646.316 36.51 646.316 36.26V32.21ZM647.456 36.08H653.276V33.155H647.456V36.08ZM670.521 31.07H664.956V36.965H663.816V31.07H658.281V30.11H667.056C667.416 28.54 667.601 26.865 667.611 25.085V25.01H659.901V24.05H668.721V25.01C668.721 26.74 668.551 28.44 668.211 30.11H670.521V31.07ZM684.27 23.465V36.485H683.16V29.69H681.21V36.125H680.115V23.69H681.21V28.745H683.16V23.465H684.27ZM678.045 25.415H674.19V24.485H678.045V25.415ZM672.615 27.095H679.395V27.995H677.61V28.07C678.4 28.5 678.795 29.315 678.795 30.515C678.795 31.455 678.54 32.19 678.03 32.72C677.53 33.24 676.87 33.5 676.05 33.5C675.24 33.5 674.58 33.24 674.07 32.72C673.57 32.19 673.32 31.455 673.32 30.515C673.32 29.315 673.71 28.5 674.49 28.07V27.995H672.615V27.095ZM677.715 29.975C677.715 29.375 677.565 28.915 677.265 28.595C676.965 28.275 676.56 28.115 676.05 28.115C675.54 28.115 675.135 28.275 674.835 28.595C674.545 28.915 674.4 29.375 674.4 29.975V30.695C674.4 31.285 674.55 31.745 674.85 32.075C675.16 32.405 675.56 32.57 676.05 32.57C676.54 32.57 676.94 32.405 677.25 32.075C677.56 31.745 677.715 31.285 677.715 30.695V29.975ZM699.369 34.04V35H687.129V34.04H692.679V30.98H688.809V24.155H689.949V26.63H696.534V24.155H697.659V30.98H693.819V34.04H699.369ZM689.949 30.035H696.534V27.575H689.949V30.035ZM714.198 26.765V27.725H712.113V30.98H710.973V23.465H712.113V26.765H714.198ZM701.673 27.2C701.673 26.54 701.818 25.965 702.108 25.475C702.398 24.985 702.798 24.61 703.308 24.35C703.828 24.08 704.418 23.945 705.078 23.945C705.738 23.945 706.323 24.08 706.833 24.35C707.343 24.61 707.743 24.985 708.033 25.475C708.323 25.965 708.468 26.54 708.468 27.2C708.468 27.86 708.323 28.435 708.033 28.925C707.743 29.415 707.338 29.795 706.818 30.065C706.308 30.325 705.728 30.455 705.078 30.455C704.418 30.455 703.828 30.325 703.308 30.065C702.798 29.795 702.398 29.415 702.108 28.925C701.818 28.435 701.673 27.86 701.673 27.2ZM702.873 27.47C702.873 28.09 703.073 28.59 703.473 28.97C703.883 29.34 704.418 29.525 705.078 29.525C705.728 29.525 706.253 29.34 706.653 28.97C707.063 28.59 707.268 28.09 707.268 27.47V26.93C707.268 26.31 707.063 25.815 706.653 25.445C706.253 25.065 705.728 24.875 705.078 24.875C704.418 24.875 703.883 25.065 703.473 25.445C703.073 25.815 702.873 26.31 702.873 26.93V27.47ZM711.063 34.115C711.163 34.115 711.263 34.155 711.363 34.235L713.493 36.275L712.758 37.055L710.568 34.88C710.498 34.81 710.428 34.775 710.358 34.775C710.298 34.775 710.248 34.795 710.208 34.835C709.988 35.165 709.698 35.51 709.338 35.87C708.988 36.24 708.513 36.685 707.913 37.205L705.633 34.835C705.563 34.765 705.498 34.73 705.438 34.73C705.398 34.73 705.343 34.755 705.273 34.805C705.053 35.145 704.763 35.5 704.403 35.87C704.043 36.25 703.588 36.68 703.038 37.16L702.318 36.395C702.988 35.835 703.508 35.335 703.878 34.895C704.258 34.455 704.528 34.02 704.688 33.59C704.858 33.16 704.943 32.675 704.943 32.135V31.655H706.008V32.165C706.008 32.985 705.858 33.695 705.558 34.295L705.618 34.34L705.798 34.19C705.898 34.12 705.998 34.085 706.098 34.085C706.218 34.085 706.323 34.13 706.413 34.22L707.988 35.825C708.698 35.165 709.183 34.58 709.443 34.07C709.713 33.55 709.848 32.91 709.848 32.15V31.655H710.928V32.21C710.928 32.65 710.893 33.04 710.823 33.38C710.753 33.72 710.643 34.045 710.493 34.355L710.553 34.385L710.733 34.235C710.843 34.155 710.953 34.115 711.063 34.115ZM725.427 25.52H717.507V24.545H726.552V25.61C726.552 27.83 726.337 29.945 725.907 31.955L724.797 31.775C725.217 29.745 725.427 27.705 725.427 25.655V25.52ZM728.217 34.04V35H715.977V34.04H720.777V29.225H721.902V34.04H728.217ZM731.871 33.245C732.191 33.245 732.421 33.33 732.561 33.5C732.711 33.66 732.786 33.87 732.786 34.13V34.34C732.786 34.75 732.666 35.2 732.426 35.69C732.186 36.19 731.851 36.625 731.421 36.995H730.416C730.716 36.675 730.956 36.37 731.136 36.08C731.326 35.8 731.461 35.485 731.541 35.135C731.341 35.085 731.191 34.99 731.091 34.85C731.001 34.71 730.956 34.54 730.956 34.34V34.13C730.956 33.87 731.026 33.66 731.166 33.5C731.316 33.33 731.551 33.245 731.871 33.245ZM744.685 35.18C744.145 35.18 743.66 35.085 743.23 34.895C742.8 34.705 742.435 34.435 742.135 34.085C741.845 33.735 741.62 33.31 741.46 32.81C741.31 32.31 741.235 31.75 741.235 31.13C741.235 30.51 741.31 29.95 741.46 29.45C741.62 28.95 741.845 28.525 742.135 28.175C742.435 27.825 742.8 27.555 743.23 27.365C743.66 27.175 744.145 27.08 744.685 27.08C745.455 27.08 746.07 27.25 746.53 27.59C747 27.92 747.35 28.355 747.58 28.895L746.575 29.405C746.435 29.005 746.205 28.695 745.885 28.475C745.565 28.255 745.165 28.145 744.685 28.145C744.325 28.145 744.01 28.205 743.74 28.325C743.47 28.435 743.245 28.595 743.065 28.805C742.885 29.005 742.75 29.25 742.66 29.54C742.57 29.82 742.525 30.13 742.525 30.47V31.79C742.525 32.47 742.705 33.03 743.065 33.47C743.435 33.9 743.975 34.115 744.685 34.115C745.655 34.115 746.355 33.665 746.785 32.765L747.655 33.35C747.405 33.91 747.03 34.355 746.53 34.685C746.04 35.015 745.425 35.18 744.685 35.18ZM752.724 35.18C752.004 35.18 751.399 35.045 750.909 34.775C750.429 34.495 750.014 34.125 749.664 33.665L750.519 32.975C750.819 33.355 751.154 33.65 751.524 33.86C751.894 34.06 752.324 34.16 752.814 34.16C753.324 34.16 753.719 34.05 753.999 33.83C754.289 33.61 754.434 33.3 754.434 32.9C754.434 32.6 754.334 32.345 754.134 32.135C753.944 31.915 753.594 31.765 753.084 31.685L752.469 31.595C752.109 31.545 751.779 31.47 751.479 31.37C751.179 31.26 750.914 31.12 750.684 30.95C750.464 30.77 750.289 30.55 750.159 30.29C750.039 30.03 749.979 29.72 749.979 29.36C749.979 28.98 750.049 28.65 750.189 28.37C750.329 28.08 750.519 27.84 750.759 27.65C751.009 27.46 751.304 27.32 751.644 27.23C751.984 27.13 752.349 27.08 752.739 27.08C753.369 27.08 753.894 27.19 754.314 27.41C754.744 27.63 755.119 27.935 755.439 28.325L754.644 29.045C754.474 28.805 754.224 28.59 753.894 28.4C753.564 28.2 753.149 28.1 752.649 28.1C752.149 28.1 751.769 28.21 751.509 28.43C751.259 28.64 751.134 28.93 751.134 29.3C751.134 29.68 751.259 29.955 751.509 30.125C751.769 30.295 752.139 30.42 752.619 30.5L753.219 30.59C754.079 30.72 754.689 30.97 755.049 31.34C755.409 31.7 755.589 32.175 755.589 32.765C755.589 33.515 755.334 34.105 754.824 34.535C754.314 34.965 753.614 35.18 752.724 35.18ZM760.996 35.18C760.276 35.18 759.671 35.045 759.181 34.775C758.701 34.495 758.286 34.125 757.936 33.665L758.791 32.975C759.091 33.355 759.426 33.65 759.796 33.86C760.166 34.06 760.596 34.16 761.086 34.16C761.596 34.16 761.991 34.05 762.271 33.83C762.561 33.61 762.706 33.3 762.706 32.9C762.706 32.6 762.606 32.345 762.406 32.135C762.216 31.915 761.866 31.765 761.356 31.685L760.741 31.595C760.381 31.545 760.051 31.47 759.751 31.37C759.451 31.26 759.186 31.12 758.956 30.95C758.736 30.77 758.561 30.55 758.431 30.29C758.311 30.03 758.251 29.72 758.251 29.36C758.251 28.98 758.321 28.65 758.461 28.37C758.601 28.08 758.791 27.84 759.031 27.65C759.281 27.46 759.576 27.32 759.916 27.23C760.256 27.13 760.621 27.08 761.011 27.08C761.641 27.08 762.166 27.19 762.586 27.41C763.016 27.63 763.391 27.935 763.711 28.325L762.916 29.045C762.746 28.805 762.496 28.59 762.166 28.4C761.836 28.2 761.421 28.1 760.921 28.1C760.421 28.1 760.041 28.21 759.781 28.43C759.531 28.64 759.406 28.93 759.406 29.3C759.406 29.68 759.531 29.955 759.781 30.125C760.041 30.295 760.411 30.42 760.891 30.5L761.491 30.59C762.351 30.72 762.961 30.97 763.321 31.34C763.681 31.7 763.861 32.175 763.861 32.765C763.861 33.515 763.606 34.105 763.096 34.535C762.586 34.965 761.886 35.18 760.996 35.18ZM776.375 23.465H777.5V36.485H776.375V23.465ZM767.015 27.365C767.015 26.745 767.17 26.2 767.48 25.73C767.79 25.25 768.215 24.885 768.755 24.635C769.295 24.375 769.905 24.245 770.585 24.245C771.265 24.245 771.875 24.375 772.415 24.635C772.955 24.885 773.38 25.25 773.69 25.73C774 26.2 774.155 26.745 774.155 27.365C774.155 27.985 774 28.53 773.69 29C773.38 29.47 772.955 29.835 772.415 30.095C771.875 30.345 771.265 30.47 770.585 30.47C769.905 30.47 769.295 30.345 768.755 30.095C768.215 29.835 767.79 29.47 767.48 29C767.17 28.53 767.015 27.985 767.015 27.365ZM772.955 27.545V27.185C772.955 26.585 772.735 26.1 772.295 25.73C771.855 25.36 771.285 25.175 770.585 25.175C769.885 25.175 769.315 25.36 768.875 25.73C768.435 26.1 768.215 26.585 768.215 27.185V27.545C768.215 28.145 768.435 28.63 768.875 29C769.315 29.37 769.885 29.555 770.585 29.555C771.285 29.555 771.855 29.37 772.295 29C772.735 28.63 772.955 28.145 772.955 27.545ZM766.385 32.78C768.085 32.78 769.725 32.74 771.305 32.66C772.885 32.58 774.225 32.455 775.325 32.285L775.445 33.2C774.315 33.38 772.955 33.52 771.365 33.62C769.785 33.71 768.16 33.755 766.49 33.755L766.385 32.78ZM787.017 27.26H788.217V28.52H788.277C788.477 28.03 788.767 27.67 789.147 27.44C789.537 27.2 790.002 27.08 790.542 27.08C791.022 27.08 791.457 27.175 791.847 27.365C792.237 27.555 792.567 27.825 792.837 28.175C793.117 28.525 793.327 28.95 793.467 29.45C793.617 29.95 793.692 30.51 793.692 31.13C793.692 31.75 793.617 32.31 793.467 32.81C793.327 33.31 793.117 33.735 792.837 34.085C792.567 34.435 792.237 34.705 791.847 34.895C791.457 35.085 791.022 35.18 790.542 35.18C789.492 35.18 788.737 34.7 788.277 33.74H788.217V38H787.017V27.26ZM790.212 34.1C790.892 34.1 791.427 33.89 791.817 33.47C792.207 33.04 792.402 32.48 792.402 31.79V30.47C792.402 29.78 792.207 29.225 791.817 28.805C791.427 28.375 790.892 28.16 790.212 28.16C789.942 28.16 789.682 28.2 789.432 28.28C789.192 28.35 788.982 28.45 788.802 28.58C788.622 28.71 788.477 28.87 788.367 29.06C788.267 29.24 788.217 29.435 788.217 29.645V32.525C788.217 32.775 788.267 33 788.367 33.2C788.477 33.39 788.622 33.555 788.802 33.695C788.982 33.825 789.192 33.925 789.432 33.995C789.682 34.065 789.942 34.1 790.212 34.1ZM799.693 35.18C799.173 35.18 798.698 35.085 798.268 34.895C797.838 34.705 797.468 34.435 797.158 34.085C796.858 33.725 796.623 33.3 796.453 32.81C796.283 32.31 796.198 31.75 796.198 31.13C796.198 30.52 796.283 29.965 796.453 29.465C796.623 28.965 796.858 28.54 797.158 28.19C797.468 27.83 797.838 27.555 798.268 27.365C798.698 27.175 799.173 27.08 799.693 27.08C800.213 27.08 800.683 27.175 801.103 27.365C801.533 27.555 801.903 27.83 802.213 28.19C802.523 28.54 802.763 28.965 802.933 29.465C803.103 29.965 803.188 30.52 803.188 31.13C803.188 31.75 803.103 32.31 802.933 32.81C802.763 33.3 802.523 33.725 802.213 34.085C801.903 34.435 801.533 34.705 801.103 34.895C800.683 35.085 800.213 35.18 799.693 35.18ZM799.693 34.115C800.343 34.115 800.873 33.915 801.283 33.515C801.693 33.115 801.898 32.505 801.898 31.685V30.575C801.898 29.755 801.693 29.145 801.283 28.745C800.873 28.345 800.343 28.145 799.693 28.145C799.043 28.145 798.513 28.345 798.103 28.745C797.693 29.145 797.488 29.755 797.488 30.575V31.685C797.488 32.505 797.693 33.115 798.103 33.515C798.513 33.915 799.043 34.115 799.693 34.115ZM808.537 35.18C807.817 35.18 807.212 35.045 806.722 34.775C806.242 34.495 805.827 34.125 805.477 33.665L806.332 32.975C806.632 33.355 806.967 33.65 807.337 33.86C807.707 34.06 808.137 34.16 808.627 34.16C809.137 34.16 809.532 34.05 809.812 33.83C810.102 33.61 810.247 33.3 810.247 32.9C810.247 32.6 810.147 32.345 809.947 32.135C809.757 31.915 809.407 31.765 808.897 31.685L808.282 31.595C807.922 31.545 807.592 31.47 807.292 31.37C806.992 31.26 806.727 31.12 806.497 30.95C806.277 30.77 806.102 30.55 805.972 30.29C805.852 30.03 805.792 29.72 805.792 29.36C805.792 28.98 805.862 28.65 806.002 28.37C806.142 28.08 806.332 27.84 806.572 27.65C806.822 27.46 807.117 27.32 807.457 27.23C807.797 27.13 808.162 27.08 808.552 27.08C809.182 27.08 809.707 27.19 810.127 27.41C810.557 27.63 810.932 27.935 811.252 28.325L810.457 29.045C810.287 28.805 810.037 28.59 809.707 28.4C809.377 28.2 808.962 28.1 808.462 28.1C807.962 28.1 807.582 28.21 807.322 28.43C807.072 28.64 806.947 28.93 806.947 29.3C806.947 29.68 807.072 29.955 807.322 30.125C807.582 30.295 807.952 30.42 808.432 30.5L809.032 30.59C809.892 30.72 810.502 30.97 810.862 31.34C811.222 31.7 811.402 32.175 811.402 32.765C811.402 33.515 811.147 34.105 810.637 34.535C810.127 34.965 809.427 35.18 808.537 35.18ZM815.171 25.445C814.911 25.445 814.721 25.385 814.601 25.265C814.491 25.135 814.436 24.97 814.436 24.77V24.575C814.436 24.375 814.491 24.215 814.601 24.095C814.721 23.965 814.911 23.9 815.171 23.9C815.431 23.9 815.616 23.965 815.726 24.095C815.846 24.215 815.906 24.375 815.906 24.575V24.77C815.906 24.97 815.846 25.135 815.726 25.265C815.616 25.385 815.431 25.445 815.171 25.445ZM814.571 27.26H815.771V35H814.571V27.26ZM819.971 25.445C819.711 25.445 819.521 25.385 819.401 25.265C819.291 25.135 819.236 24.97 819.236 24.77V24.575C819.236 24.375 819.291 24.215 819.401 24.095C819.521 23.965 819.711 23.9 819.971 23.9C820.231 23.9 820.416 23.965 820.526 24.095C820.646 24.215 820.706 24.375 820.706 24.575V24.77C820.706 24.97 820.646 25.135 820.526 25.265C820.416 25.385 820.231 25.445 819.971 25.445ZM819.371 27.26H820.571V35H819.371V27.26ZM825.881 35C825.461 35 825.141 34.885 824.921 34.655C824.711 34.415 824.606 34.105 824.606 33.725V28.31H823.331V27.26H824.051C824.311 27.26 824.486 27.21 824.576 27.11C824.676 27 824.726 26.815 824.726 26.555V25.115H825.806V27.26H827.501V28.31H825.806V33.95H827.381V35H825.881ZM833.346 35.18C832.826 35.18 832.351 35.085 831.921 34.895C831.491 34.705 831.121 34.435 830.811 34.085C830.511 33.725 830.276 33.3 830.106 32.81C829.936 32.31 829.851 31.75 829.851 31.13C829.851 30.52 829.936 29.965 830.106 29.465C830.276 28.965 830.511 28.54 830.811 28.19C831.121 27.83 831.491 27.555 831.921 27.365C832.351 27.175 832.826 27.08 833.346 27.08C833.866 27.08 834.336 27.175 834.756 27.365C835.186 27.555 835.556 27.83 835.866 28.19C836.176 28.54 836.416 28.965 836.586 29.465C836.756 29.965 836.841 30.52 836.841 31.13C836.841 31.75 836.756 32.31 836.586 32.81C836.416 33.3 836.176 33.725 835.866 34.085C835.556 34.435 835.186 34.705 834.756 34.895C834.336 35.085 833.866 35.18 833.346 35.18ZM833.346 34.115C833.996 34.115 834.526 33.915 834.936 33.515C835.346 33.115 835.551 32.505 835.551 31.685V30.575C835.551 29.755 835.346 29.145 834.936 28.745C834.526 28.345 833.996 28.145 833.346 28.145C832.696 28.145 832.166 28.345 831.756 28.745C831.346 29.145 831.141 29.755 831.141 30.575V31.685C831.141 32.505 831.346 33.115 831.756 33.515C832.166 33.915 832.696 34.115 833.346 34.115ZM839.865 35V27.26H841.065V28.52H841.125C841.315 28.08 841.58 27.73 841.92 27.47C842.27 27.21 842.735 27.08 843.315 27.08C844.115 27.08 844.745 27.34 845.205 27.86C845.675 28.37 845.91 29.095 845.91 30.035V35H844.71V30.245C844.71 28.855 844.125 28.16 842.955 28.16C842.715 28.16 842.48 28.19 842.25 28.25C842.03 28.31 841.83 28.4 841.65 28.52C841.47 28.64 841.325 28.795 841.215 28.985C841.115 29.165 841.065 29.38 841.065 29.63V35H839.865ZM855.678 28.985L855.063 28.115C856.363 27.595 857.363 27.125 858.063 26.705C858.763 26.285 859.248 25.87 859.518 25.46C859.798 25.04 859.938 24.555 859.938 24.005V23.63H861.093V24.05C861.093 24.51 861.033 24.92 860.913 25.28C860.793 25.64 860.598 25.975 860.328 26.285L860.418 26.315L860.808 26.03C860.948 25.93 861.088 25.88 861.228 25.88C861.338 25.88 861.453 25.91 861.573 25.97L865.773 28.07L865.143 28.94L860.748 26.675C860.608 26.595 860.473 26.555 860.343 26.555C860.213 26.555 860.078 26.595 859.938 26.675C859.538 27.025 858.998 27.38 858.318 27.74C857.648 28.1 856.768 28.515 855.678 28.985ZM866.538 30.245V31.235H854.298V30.245H859.848V28.415H860.988V30.245H866.538ZM856.008 32.555H864.738V37.085H863.598V33.485H856.008V32.555ZM878.817 27.26H875.952V26.3H878.817V23.465H879.957V31.22H878.817V27.26ZM872.712 27.71C872.642 27.71 872.582 27.74 872.532 27.8C872.262 28.25 871.907 28.715 871.467 29.195C871.037 29.665 870.467 30.23 869.757 30.89L868.917 30.14C869.767 29.38 870.422 28.73 870.882 28.19C871.342 27.64 871.672 27.1 871.872 26.57C872.082 26.03 872.187 25.42 872.187 24.74V23.915H873.327V24.8C873.327 25.73 873.157 26.57 872.817 27.32L872.877 27.35L873.132 27.14C873.242 27.05 873.352 27.005 873.462 27.005C873.572 27.005 873.672 27.05 873.762 27.14L876.627 29.795L875.802 30.59L872.907 27.8C872.847 27.74 872.782 27.71 872.712 27.71ZM880.032 34.34C880.032 34.89 879.872 35.38 879.552 35.81C879.242 36.25 878.772 36.595 878.142 36.845C877.512 37.095 876.742 37.22 875.832 37.22C874.922 37.22 874.147 37.095 873.507 36.845C872.877 36.595 872.402 36.25 872.082 35.81C871.772 35.38 871.617 34.89 871.617 34.34C871.617 33.79 871.772 33.3 872.082 32.87C872.402 32.43 872.877 32.085 873.507 31.835C874.147 31.585 874.922 31.46 875.832 31.46C876.742 31.46 877.512 31.585 878.142 31.835C878.772 32.085 879.242 32.43 879.552 32.87C879.872 33.3 880.032 33.79 880.032 34.34ZM878.817 34.22C878.817 33.7 878.567 33.265 878.067 32.915C877.577 32.565 876.832 32.39 875.832 32.39C874.832 32.39 874.082 32.57 873.582 32.93C873.082 33.28 872.832 33.71 872.832 34.22V34.475C872.832 34.985 873.082 35.415 873.582 35.765C874.082 36.125 874.832 36.305 875.832 36.305C876.832 36.305 877.577 36.125 878.067 35.765C878.567 35.415 878.817 34.985 878.817 34.475V34.22ZM894.711 23.465V36.485H893.616V23.465H894.711ZM890.661 23.69H891.726V36.125H890.661V29.3H889.221C889.171 30.6 888.881 31.58 888.351 32.24C887.821 32.89 887.121 33.215 886.251 33.215C885.321 33.215 884.586 32.855 884.046 32.135C883.506 31.405 883.236 30.32 883.236 28.88C883.236 27.44 883.506 26.36 884.046 25.64C884.586 24.91 885.321 24.545 886.251 24.545C887.111 24.545 887.801 24.865 888.321 25.505C888.851 26.145 889.151 27.095 889.221 28.355H890.661V23.69ZM888.081 28.16C888.081 27.28 887.911 26.61 887.571 26.15C887.241 25.69 886.801 25.46 886.251 25.46C885.691 25.46 885.241 25.69 884.901 26.15C884.571 26.61 884.406 27.28 884.406 28.16V29.615C884.406 30.485 884.571 31.155 884.901 31.625C885.241 32.085 885.691 32.315 886.251 32.315C886.801 32.315 887.241 32.085 887.571 31.625C887.911 31.155 888.081 30.485 888.081 29.615V28.16ZM12.135 46.465V59.485H11.025V52.495H8.97V59.125H7.875V46.69H8.97V51.55H11.025V46.465H12.135ZM6.735 54.7L6.885 55.6C5.675 55.91 4.18 56.065 2.4 56.065H1.17V47.8H6.015V48.76H2.265V55.12H2.67C4.31 55.12 5.665 54.98 6.735 54.7ZM26.559 46.465V59.485H25.449V52.69H23.499V59.125H22.404V46.69H23.499V51.745H25.449V46.465H26.559ZM20.334 48.415H16.479V47.485H20.334V48.415ZM14.904 50.095H21.684V50.995H19.899V51.07C20.689 51.5 21.084 52.315 21.084 53.515C21.084 54.455 20.829 55.19 20.319 55.72C19.819 56.24 19.159 56.5 18.339 56.5C17.529 56.5 16.869 56.24 16.359 55.72C15.859 55.19 15.609 54.455 15.609 53.515C15.609 52.315 15.999 51.5 16.779 51.07V50.995H14.904V50.095ZM20.004 52.975C20.004 52.375 19.854 51.915 19.554 51.595C19.254 51.275 18.849 51.115 18.339 51.115C17.829 51.115 17.424 51.275 17.124 51.595C16.834 51.915 16.689 52.375 16.689 52.975V53.695C16.689 54.285 16.839 54.745 17.139 55.075C17.449 55.405 17.849 55.57 18.339 55.57C18.829 55.57 19.229 55.405 19.539 55.075C19.849 54.745 20.004 54.285 20.004 53.695V52.975ZM46.643 52.555H44.483V59.515H43.343V46.495H44.483V51.595H46.643V52.555ZM41.768 54.685L41.918 55.6C40.388 55.91 38.478 56.065 36.188 56.065H34.598V47.53H40.583V48.49H35.738V55.12H36.173C38.373 55.12 40.238 54.975 41.768 54.685ZM59.597 46.465V59.485H58.457V46.465H59.597ZM53.222 51.715C53.362 51.715 53.472 51.77 53.552 51.88L56.522 55.63L55.652 56.395L52.682 52.525C52.642 52.475 52.587 52.45 52.517 52.45C52.457 52.45 52.412 52.475 52.382 52.525C52.112 53.115 51.752 53.72 51.302 54.34C50.862 54.95 50.262 55.7 49.502 56.59L48.632 55.855C49.512 54.865 50.187 54.02 50.657 53.32C51.127 52.61 51.467 51.9 51.677 51.19C51.887 50.48 51.992 49.665 51.992 48.745V47.335H53.132V48.73C53.132 49.92 52.957 51 52.607 51.97L52.682 52.015L52.892 51.835C53.002 51.755 53.112 51.715 53.222 51.715ZM80.1009 50.92V51.88H78.0159V56.5H76.8759V46.465H78.0159V50.92H80.1009ZM73.4409 47.83H69.4359V46.87H73.4409V47.83ZM71.3409 54.94C70.7209 54.94 70.1759 54.835 69.7059 54.625C69.2359 54.415 68.8709 54.125 68.6109 53.755C68.3609 53.385 68.2359 52.965 68.2359 52.495C68.2359 52.025 68.3459 51.615 68.5659 51.265C68.7959 50.905 69.1359 50.63 69.5859 50.44V50.365H67.2459V49.42H75.3759V50.365H73.0959V50.44C73.5459 50.63 73.8809 50.905 74.1009 51.265C74.3309 51.615 74.4459 52.025 74.4459 52.495C74.4459 52.965 74.3159 53.385 74.0559 53.755C73.8059 54.125 73.4459 54.415 72.9759 54.625C72.5059 54.835 71.9609 54.94 71.3409 54.94ZM71.2209 53.98H71.4759C72.0359 53.98 72.4909 53.83 72.8409 53.53C73.2009 53.22 73.3809 52.79 73.3809 52.24C73.3809 51.69 73.2059 51.26 72.8559 50.95C72.5059 50.64 72.0459 50.485 71.4759 50.485H71.2209C70.6509 50.485 70.1909 50.64 69.8409 50.95C69.4909 51.25 69.3159 51.68 69.3159 52.24C69.3159 52.79 69.4909 53.22 69.8409 53.53C70.2009 53.83 70.6609 53.98 71.2209 53.98ZM70.9809 58.9H78.3159V59.845H70.5909C70.3509 59.845 70.1659 59.78 70.0359 59.65C69.9059 59.52 69.8409 59.33 69.8409 59.08V56.08H70.9809V58.9ZM96.5699 51.04H93.7349V50.08H96.5699V46.465H97.7099V56.35H96.5699V51.04ZM93.2849 53.875H87.2099V47.245H88.3049V49.585H92.1749V47.215H93.2849V53.875ZM92.1749 50.515H88.3049V52.945H92.1749V50.515ZM97.9799 58.825V59.77H90.1199C89.8799 59.77 89.6949 59.705 89.5649 59.575C89.4349 59.445 89.3699 59.255 89.3699 59.005V55.45H90.5249V58.825H97.9799ZM114.794 47.845H107.129V46.885H115.904V47.62C115.904 48.93 115.749 50.27 115.439 51.64L114.359 51.49C114.639 50.31 114.784 49.095 114.794 47.845ZM117.734 52.69V53.68H105.494V52.69H110.519V50.095H111.644V52.69H117.734ZM116.054 57.61C116.054 58.13 115.884 58.59 115.544 58.99C115.214 59.4 114.714 59.72 114.044 59.95C113.384 60.18 112.574 60.295 111.614 60.295C110.654 60.295 109.839 60.18 109.169 59.95C108.509 59.72 108.009 59.4 107.669 58.99C107.339 58.59 107.174 58.13 107.174 57.61C107.174 57.09 107.339 56.63 107.669 56.23C108.009 55.83 108.509 55.515 109.169 55.285C109.839 55.055 110.654 54.94 111.614 54.94C112.574 54.94 113.384 55.055 114.044 55.285C114.714 55.515 115.214 55.83 115.544 56.23C115.884 56.63 116.054 57.09 116.054 57.61ZM114.854 57.505C114.854 57.035 114.584 56.64 114.044 56.32C113.514 56 112.704 55.84 111.614 55.84C110.534 55.84 109.719 56 109.169 56.32C108.629 56.64 108.359 57.035 108.359 57.505V57.73C108.359 58.19 108.629 58.58 109.169 58.9C109.719 59.22 110.534 59.38 111.614 59.38C112.704 59.38 113.514 59.22 114.044 58.9C114.584 58.58 114.854 58.19 114.854 57.73V57.505ZM130.373 52.66H121.703V46.795H122.828V48.775H129.248V46.795H130.373V52.66ZM129.248 49.72H122.828V51.715H129.248V49.72ZM132.158 55.255H126.608V60.01H125.468V55.255H119.918V54.28H132.158V55.255ZM146.972 52.795H144.857V59.515H143.717V46.495H144.857V51.835H146.972V52.795ZM140.522 48.175H136.262V47.2H140.522V48.175ZM134.267 49.975H142.292V50.905H140.072V50.995C140.982 51.445 141.437 52.31 141.437 53.59C141.437 54.24 141.302 54.805 141.032 55.285C140.762 55.755 140.387 56.115 139.907 56.365C139.437 56.615 138.912 56.74 138.332 56.74C137.752 56.74 137.222 56.615 136.742 56.365C136.272 56.115 135.902 55.755 135.632 55.285C135.362 54.805 135.227 54.24 135.227 53.59C135.227 52.31 135.682 51.445 136.592 50.995V50.905H134.267V49.975ZM140.327 53.095C140.327 52.425 140.147 51.915 139.787 51.565C139.427 51.205 138.942 51.025 138.332 51.025C137.732 51.025 137.247 51.205 136.877 51.565C136.517 51.925 136.337 52.435 136.337 53.095V53.71C136.337 54.36 136.522 54.87 136.892 55.24C137.262 55.6 137.742 55.78 138.332 55.78C138.922 55.78 139.402 55.6 139.772 55.24C140.142 54.87 140.327 54.36 140.327 53.71V53.095ZM159.266 51.655H150.641V46.945H151.766V50.71H159.266V51.655ZM161.006 53.32V54.295H148.766V53.32H161.006ZM151.661 58.795H159.431V59.755H151.271C151.031 59.755 150.846 59.69 150.716 59.56C150.586 59.43 150.521 59.24 150.521 58.99V55.705H151.661V58.795ZM177.805 46.465H178.945V59.485H177.805V46.465ZM168.37 55.9C169.75 55.19 170.805 54.54 171.535 53.95C172.265 53.36 172.775 52.735 173.065 52.075C173.365 51.415 173.515 50.6 173.515 49.63V48.505H168.745V47.53H174.655V49.615C174.655 50.725 174.485 51.665 174.145 52.435C173.815 53.205 173.25 53.925 172.45 54.595C171.66 55.255 170.525 55.98 169.045 56.77L168.37 55.9ZM193.384 46.465V59.485H192.259V46.465H193.384ZM188.704 47.995H184.699V47.065H188.704V47.995ZM191.284 55.96L191.404 56.875C190.264 57.055 188.899 57.195 187.309 57.295C185.719 57.385 184.084 57.43 182.404 57.43L182.299 56.47C183.459 56.47 184.729 56.445 186.109 56.395V54.61C185.299 54.54 184.654 54.305 184.174 53.905C183.704 53.495 183.469 52.99 183.469 52.39C183.469 51.96 183.579 51.59 183.799 51.28C184.019 50.96 184.349 50.71 184.789 50.53V50.44H182.509V49.54H190.699V50.44H188.479V50.53C188.919 50.71 189.249 50.96 189.469 51.28C189.689 51.59 189.799 51.96 189.799 52.39C189.799 52.99 189.564 53.49 189.094 53.89C188.634 54.29 188.004 54.53 187.204 54.61V56.35C188.914 56.25 190.274 56.12 191.284 55.96ZM186.469 53.71H186.799C187.369 53.71 187.834 53.575 188.194 53.305C188.564 53.025 188.749 52.635 188.749 52.135C188.749 51.635 188.569 51.245 188.209 50.965C187.849 50.685 187.379 50.545 186.799 50.545H186.469C185.899 50.545 185.429 50.685 185.059 50.965C184.699 51.245 184.519 51.635 184.519 52.135C184.519 52.625 184.699 53.01 185.059 53.29C185.429 53.57 185.899 53.71 186.469 53.71ZM209.263 52.555H207.103V59.515H205.963V46.495H207.103V51.595H209.263V52.555ZM197.278 47.53H203.113V49.615C203.113 50.725 202.948 51.665 202.618 52.435C202.288 53.205 201.728 53.925 200.938 54.595C200.158 55.255 199.038 55.98 197.578 56.77L196.903 55.915C198.263 55.195 199.303 54.54 200.023 53.95C200.743 53.36 201.248 52.735 201.538 52.075C201.828 51.415 201.973 50.6 201.973 49.63V48.505H197.278V47.53ZM226.827 46.465V59.485H225.702V46.465H226.827ZM224.622 55.45L224.727 56.365C223.597 56.545 222.242 56.685 220.662 56.785C219.082 56.875 217.452 56.92 215.772 56.92L215.682 55.945C217.142 55.945 218.387 55.92 219.417 55.87V52.96H216.792V47.47H223.257V48.415H217.917V52.015H223.377V52.96H220.512V55.825C222.032 55.755 223.402 55.63 224.622 55.45ZM230.481 50.2C230.481 49.54 230.626 48.965 230.916 48.475C231.206 47.985 231.606 47.61 232.116 47.35C232.636 47.08 233.226 46.945 233.886 46.945C234.806 46.945 235.571 47.19 236.181 47.68C236.801 48.17 237.166 48.84 237.276 49.69H240.171V46.465H241.311V53.98H240.171V50.65H237.276C237.176 51.51 236.816 52.195 236.196 52.705C235.576 53.205 234.806 53.455 233.886 53.455C233.236 53.455 232.651 53.325 232.131 53.065C231.611 52.795 231.206 52.415 230.916 51.925C230.626 51.435 230.481 50.86 230.481 50.2ZM231.681 50.47C231.681 51.09 231.881 51.59 232.281 51.97C232.691 52.34 233.226 52.525 233.886 52.525C234.546 52.525 235.076 52.34 235.476 51.97C235.886 51.59 236.091 51.09 236.091 50.47V49.93C236.091 49.31 235.886 48.815 235.476 48.445C235.076 48.065 234.546 47.875 233.886 47.875C233.226 47.875 232.691 48.065 232.281 48.445C231.881 48.815 231.681 49.31 231.681 49.93V50.47ZM242.541 59.275L241.806 60.055L239.586 57.88C239.526 57.81 239.456 57.775 239.376 57.775C239.336 57.775 239.291 57.79 239.241 57.82C239.011 58.16 238.716 58.51 238.356 58.87C237.996 59.24 237.516 59.685 236.916 60.205L234.636 57.835C234.566 57.765 234.496 57.73 234.426 57.73C234.386 57.73 234.331 57.755 234.261 57.805C233.821 58.465 233.071 59.25 232.011 60.16L231.291 59.395C231.961 58.835 232.486 58.335 232.866 57.895C233.246 57.455 233.516 57.02 233.676 56.59C233.846 56.16 233.931 55.675 233.931 55.135V54.655H235.011V55.165C235.011 55.985 234.856 56.7 234.546 57.31L234.606 57.34L234.801 57.19C234.881 57.12 234.976 57.085 235.086 57.085C235.206 57.085 235.311 57.13 235.401 57.22L236.991 58.81C237.711 58.16 238.206 57.575 238.476 57.055C238.746 56.535 238.881 55.9 238.881 55.15V54.655H239.961V55.21C239.961 55.65 239.926 56.04 239.856 56.38C239.786 56.72 239.671 57.045 239.511 57.355L239.571 57.4L239.766 57.235C239.876 57.155 239.981 57.115 240.081 57.115C240.181 57.115 240.281 57.155 240.381 57.235L242.541 59.275ZM245.88 51.715L245.265 50.875C246.565 50.385 247.565 49.94 248.265 49.54C248.965 49.13 249.45 48.725 249.72 48.325C250 47.925 250.14 47.46 250.14 46.93V46.585H251.28V46.99C251.28 47.42 251.22 47.81 251.1 48.16C250.98 48.5 250.79 48.82 250.53 49.12L250.635 49.15L251.01 48.895C251.15 48.785 251.295 48.73 251.445 48.73C251.545 48.73 251.655 48.755 251.775 48.805L255.975 50.83L255.345 51.685L250.965 49.51C250.805 49.43 250.66 49.39 250.53 49.39C250.4 49.39 250.27 49.425 250.14 49.495C249.74 49.845 249.2 50.195 248.52 50.545C247.85 50.885 246.97 51.275 245.88 51.715ZM256.74 52.795V53.755H244.5V52.795H256.74ZM253.815 54.805H254.925V59.995H247.065C246.825 59.995 246.64 59.93 246.51 59.8C246.38 59.67 246.315 59.48 246.315 59.23V54.805H247.425V56.425H253.815V54.805ZM253.815 57.37H247.425V59.05H253.815V57.37ZM270.084 46.465V59.485H268.944V46.465H270.084ZM267.129 54.49L267.279 55.435C265.649 55.755 263.674 55.915 261.354 55.915H259.719V47.515H260.859V54.94H261.309C263.639 54.94 265.579 54.79 267.129 54.49ZM285.978 52.555H283.818V59.515H282.678V46.495H283.818V51.595H285.978V52.555ZM281.103 54.685L281.253 55.6C279.723 55.91 277.813 56.065 275.523 56.065H273.933V47.53H279.918V48.49H275.073V55.12H275.508C277.708 55.12 279.573 54.975 281.103 54.685ZM289.242 58.18C288.922 58.18 288.687 58.1 288.537 57.94C288.397 57.78 288.327 57.57 288.327 57.31V57.115C288.327 56.855 288.397 56.645 288.537 56.485C288.687 56.325 288.922 56.245 289.242 56.245C289.562 56.245 289.792 56.325 289.932 56.485C290.082 56.645 290.157 56.855 290.157 57.115V57.31C290.157 57.57 290.082 57.78 289.932 57.94C289.792 58.1 289.562 58.18 289.242 58.18Z" fill="#1B1C25"/>
</svg>
