<svg width="796" height="38" viewBox="0 0 796 38" fill="none" xmlns="http://www.w3.org/2000/svg">
<path d="M13.215 4.41V5.37H11.13V10.35H9.99V0.464999H11.13V4.41H13.215ZM7.11 7.875H1.02V1.245H2.115V3.585H6V1.215H7.11V7.875ZM6 4.515H2.115V6.945H6V4.515ZM4.095 12.825H11.43V13.77H3.705C3.465 13.77 3.28 13.705 3.15 13.575C3.02 13.445 2.955 13.255 2.955 13.005V9.45H4.095V12.825ZM16.599 3.135C16.599 2.355 16.979 1.725 17.739 1.245C18.499 0.755 19.624 0.51 21.114 0.51C22.604 0.51 23.729 0.755 24.489 1.245C25.249 1.725 25.629 2.355 25.629 3.135C25.629 3.925 25.249 4.565 24.489 5.055C23.739 5.535 22.614 5.775 21.114 5.775C19.614 5.775 18.484 5.535 17.724 5.055C16.974 4.565 16.599 3.925 16.599 3.135ZM24.414 3.24V3.03C24.414 2.56 24.139 2.17 23.589 1.86C23.039 1.55 22.214 1.395 21.114 1.395C20.014 1.395 19.189 1.55 18.639 1.86C18.089 2.17 17.814 2.56 17.814 3.03V3.24C17.814 3.71 18.089 4.1 18.639 4.41C19.189 4.72 20.014 4.875 21.114 4.875C22.214 4.875 23.039 4.72 23.589 4.41C24.139 4.1 24.414 3.71 24.414 3.24ZM14.994 6.915H27.234V7.89H14.994V6.915ZM16.674 11.67C16.674 11.17 16.839 10.725 17.169 10.335C17.509 9.945 18.009 9.64 18.669 9.42C19.339 9.2 20.154 9.09 21.114 9.09C22.074 9.09 22.884 9.2 23.544 9.42C24.214 9.64 24.714 9.945 25.044 10.335C25.384 10.725 25.554 11.17 25.554 11.67C25.554 12.46 25.174 13.095 24.414 13.575C23.654 14.055 22.554 14.295 21.114 14.295C19.674 14.295 18.574 14.055 17.814 13.575C17.054 13.095 16.674 12.46 16.674 11.67ZM24.354 11.79V11.58C24.354 11.13 24.084 10.755 23.544 10.455C23.014 10.145 22.204 9.99 21.114 9.99C20.034 9.99 19.219 10.145 18.669 10.455C18.129 10.755 17.859 11.13 17.859 11.58V11.79C17.859 12.24 18.129 12.615 18.669 12.915C19.219 13.225 20.034 13.38 21.114 13.38C22.204 13.38 23.014 13.225 23.544 12.915C24.084 12.615 24.354 12.24 24.354 11.79ZM39.498 6.855H37.503V5.925H39.498V4.245H37.503V3.33H39.498V0.464999H40.638V8.895H39.498V6.855ZM35.478 1.725H31.458V0.78H35.478V1.725ZM33.363 8.385C32.753 8.385 32.218 8.29 31.758 8.1C31.298 7.91 30.943 7.645 30.693 7.305C30.443 6.965 30.318 6.58 30.318 6.15C30.318 5.72 30.423 5.35 30.633 5.04C30.843 4.72 31.158 4.47 31.578 4.29V4.2H29.508V3.285H37.023V4.2H35.163V4.29C35.583 4.47 35.898 4.72 36.108 5.04C36.318 5.35 36.423 5.72 36.423 6.15C36.423 6.58 36.298 6.965 36.048 7.305C35.798 7.645 35.438 7.91 34.968 8.1C34.508 8.29 33.973 8.385 33.363 8.385ZM33.228 7.44H33.513C34.053 7.44 34.498 7.305 34.848 7.035C35.198 6.755 35.373 6.37 35.373 5.88C35.373 5.38 35.198 4.995 34.848 4.725C34.508 4.445 34.063 4.305 33.513 4.305H33.228C32.678 4.305 32.228 4.445 31.878 4.725C31.538 4.995 31.368 5.38 31.368 5.88C31.368 6.37 31.543 6.755 31.893 7.035C32.243 7.305 32.688 7.44 33.228 7.44ZM40.728 11.7C40.728 12.47 40.363 13.09 39.633 13.56C38.913 14.03 37.873 14.265 36.513 14.265C35.143 14.265 34.093 14.03 33.363 13.56C32.643 13.09 32.283 12.47 32.283 11.7C32.283 11.21 32.438 10.775 32.748 10.395C33.068 10.015 33.543 9.715 34.173 9.495C34.813 9.275 35.593 9.165 36.513 9.165C37.423 9.165 38.193 9.275 38.823 9.495C39.463 9.715 39.938 10.015 40.248 10.395C40.568 10.775 40.728 11.21 40.728 11.7ZM39.513 11.61C39.513 11.18 39.263 10.82 38.763 10.53C38.263 10.23 37.513 10.08 36.513 10.08C35.503 10.08 34.743 10.23 34.233 10.53C33.733 10.82 33.483 11.18 33.483 11.61V11.82C33.483 12.25 33.733 12.61 34.233 12.9C34.743 13.2 35.503 13.35 36.513 13.35C37.513 13.35 38.263 13.2 38.763 12.9C39.263 12.61 39.513 12.25 39.513 11.82V11.61ZM45.2371 4.545C45.2371 3.875 45.4071 3.275 45.7471 2.745C46.0971 2.205 46.6271 1.775 47.3371 1.455C48.0471 1.135 48.9221 0.975 49.9621 0.975C51.0021 0.975 51.8771 1.135 52.5871 1.455C53.2971 1.775 53.8221 2.205 54.1621 2.745C54.5121 3.275 54.6871 3.875 54.6871 4.545C54.6871 5.215 54.5121 5.82 54.1621 6.36C53.8221 6.9 53.2971 7.33 52.5871 7.65C51.8771 7.97 51.0021 8.13 49.9621 8.13C48.9221 8.13 48.0471 7.97 47.3371 7.65C46.6271 7.33 46.0971 6.9 45.7471 6.36C45.4071 5.82 45.2371 5.215 45.2371 4.545ZM53.4571 4.725V4.38C53.4571 3.92 53.3321 3.505 53.0821 3.135C52.8421 2.755 52.4571 2.455 51.9271 2.235C51.4071 2.005 50.7521 1.89 49.9621 1.89C49.1721 1.89 48.5121 2.005 47.9821 2.235C47.4621 2.455 47.0771 2.755 46.8271 3.135C46.5871 3.505 46.4671 3.92 46.4671 4.38V4.725C46.4671 5.435 46.7571 6.025 47.3371 6.495C47.9171 6.965 48.7921 7.2 49.9621 7.2C51.1321 7.2 52.0071 6.965 52.5871 6.495C53.1671 6.025 53.4571 5.435 53.4571 4.725ZM43.8421 11.025H56.0821V12H43.8421V11.025ZM70.5061 11.04V12H58.2661V11.04H63.8161V8.475H60.0661V4.41H67.5661V2.205H59.9911V1.26H68.7061V5.325H61.2061V7.53H69.0961V8.475H64.9561V11.04H70.5061ZM90.454 4.41V5.37H88.369V10.35H87.229V0.464999H88.369V4.41H90.454ZM84.454 7.68H78.259V1.305H84.454V7.68ZM83.314 2.25H79.399V6.735H83.314V2.25ZM81.334 12.825H88.669V13.77H80.944C80.704 13.77 80.519 13.705 80.389 13.575C80.259 13.445 80.194 13.255 80.194 13.005V9.27H81.334V12.825ZM102.748 4.965H94.093V0.765H102.628V1.68H95.218V4.05H102.748V4.965ZM104.473 6.3V7.26H92.233V6.3H104.473ZM95.233 13.17H103.018V14.1H94.888C94.648 14.1 94.463 14.035 94.333 13.905C94.203 13.775 94.138 13.585 94.138 13.335V10.875H101.533V9.465H94.048V8.535H102.628V11.745H95.233V13.17ZM117.832 0.464999V13.485H116.707V6.105H113.917C113.867 7.445 113.527 8.46 112.897 9.15C112.267 9.83 111.457 10.17 110.467 10.17C109.427 10.17 108.587 9.795 107.947 9.045C107.317 8.295 107.002 7.19 107.002 5.73C107.002 4.26 107.317 3.155 107.947 2.415C108.577 1.665 109.417 1.29 110.467 1.29C111.437 1.29 112.232 1.615 112.852 2.265C113.472 2.915 113.827 3.875 113.917 5.145H116.707V0.464999H117.832ZM112.732 5.13C112.732 4.2 112.522 3.49 112.102 3C111.692 2.5 111.147 2.25 110.467 2.25C109.787 2.25 109.242 2.5 108.832 3C108.422 3.49 108.217 4.2 108.217 5.13V6.33C108.217 7.26 108.422 7.975 108.832 8.475C109.242 8.965 109.787 9.21 110.467 9.21C111.147 9.21 111.692 8.965 112.102 8.475C112.522 7.975 112.732 7.26 112.732 6.33V5.13ZM132.316 10.35H131.161V0.464999H132.316V10.35ZM125.281 5.415C125.211 5.415 125.146 5.445 125.086 5.505C124.816 5.925 124.471 6.355 124.051 6.795C123.631 7.235 123.056 7.78 122.326 8.43L121.486 7.695C122.336 6.975 122.991 6.355 123.451 5.835C123.921 5.305 124.261 4.785 124.471 4.275C124.681 3.765 124.786 3.185 124.786 2.535V2.385H121.906V1.44H128.821V2.385H125.926V2.595C125.926 3.495 125.751 4.29 125.401 4.98L125.476 5.025L125.716 4.845C125.826 4.765 125.936 4.725 126.046 4.725C126.176 4.725 126.291 4.77 126.391 4.86L129.256 7.425L128.401 8.16L125.506 5.505C125.436 5.445 125.361 5.415 125.281 5.415ZM132.586 12.825V13.77H124.726C124.486 13.77 124.301 13.705 124.171 13.575C124.041 13.445 123.976 13.255 123.976 13.005V9.45H125.131V12.825H132.586ZM153.254 6.555H151.094V13.515H149.954V0.495H151.094V5.595H153.254V6.555ZM145.049 5.715C145.179 5.715 145.289 5.77 145.379 5.88L148.304 9.63L147.434 10.395L144.494 6.54C144.464 6.48 144.414 6.45 144.344 6.45C144.294 6.45 144.244 6.48 144.194 6.54C143.934 7.12 143.584 7.72 143.144 8.34C142.704 8.95 142.109 9.7 141.359 10.59L140.489 9.855C141.359 8.865 142.024 8.02 142.484 7.32C142.954 6.61 143.289 5.9 143.489 5.19C143.699 4.48 143.804 3.665 143.804 2.745V1.335H144.959V2.73C144.959 3.92 144.784 5 144.434 5.97L144.509 6.015L144.734 5.835C144.844 5.755 144.949 5.715 145.049 5.715ZM165.068 0.464999H166.208V13.485H165.068V0.464999ZM155.438 5.73C155.438 4.27 155.758 3.165 156.398 2.415C157.048 1.665 157.903 1.29 158.963 1.29C160.013 1.29 160.858 1.665 161.498 2.415C162.148 3.165 162.473 4.27 162.473 5.73C162.473 6.71 162.323 7.535 162.023 8.205C161.723 8.865 161.308 9.36 160.778 9.69C160.248 10.01 159.643 10.17 158.963 10.17C157.903 10.17 157.048 9.795 156.398 9.045C155.758 8.295 155.438 7.19 155.438 5.73ZM161.258 6.315V5.145C161.258 4.215 161.043 3.5 160.613 3C160.193 2.5 159.643 2.25 158.963 2.25C158.273 2.25 157.713 2.5 157.283 3C156.863 3.49 156.653 4.205 156.653 5.145V6.315C156.653 7.255 156.863 7.975 157.283 8.475C157.713 8.965 158.273 9.21 158.963 9.21C159.643 9.21 160.193 8.96 160.613 8.46C161.043 7.96 161.258 7.245 161.258 6.315ZM171.227 1.275H180.017V2.235H172.367V4.44H179.807V5.355H172.382V7.56H180.272V8.52H171.227V1.275ZM169.472 11.025H181.712V12H169.472V11.025ZM193.946 0.464999H195.071V13.485H193.946V0.464999ZM184.586 4.365C184.586 3.745 184.741 3.2 185.051 2.73C185.361 2.25 185.786 1.885 186.326 1.635C186.866 1.375 187.476 1.245 188.156 1.245C188.836 1.245 189.446 1.375 189.986 1.635C190.526 1.885 190.951 2.25 191.261 2.73C191.571 3.2 191.726 3.745 191.726 4.365C191.726 4.985 191.571 5.53 191.261 6C190.951 6.47 190.526 6.835 189.986 7.095C189.446 7.345 188.836 7.47 188.156 7.47C187.476 7.47 186.866 7.345 186.326 7.095C185.786 6.835 185.361 6.47 185.051 6C184.741 5.53 184.586 4.985 184.586 4.365ZM190.526 4.545V4.185C190.526 3.585 190.306 3.1 189.866 2.73C189.426 2.36 188.856 2.175 188.156 2.175C187.456 2.175 186.886 2.36 186.446 2.73C186.006 3.1 185.786 3.585 185.786 4.185V4.545C185.786 5.145 186.006 5.63 186.446 6C186.886 6.37 187.456 6.555 188.156 6.555C188.856 6.555 189.426 6.37 189.866 6C190.306 5.63 190.526 5.145 190.526 4.545ZM183.956 9.78C185.656 9.78 187.296 9.74 188.876 9.66C190.456 9.58 191.796 9.455 192.896 9.285L193.016 10.2C191.886 10.38 190.526 10.52 188.936 10.62C187.356 10.71 185.731 10.755 184.061 10.755L183.956 9.78ZM215.679 8.07H210.114V13.965H208.974V8.07H203.439V7.11H212.214C212.574 5.54 212.759 3.865 212.769 2.085V2.01H205.059V1.05H213.879V2.01C213.879 3.74 213.709 5.44 213.369 7.11H215.679V8.07ZM223.428 2.31H219.243V1.35H228.738V2.31H224.583C224.583 2.8 224.528 3.24 224.418 3.63C224.308 4.02 224.123 4.39 223.863 4.74L223.908 4.755L224.193 4.545C224.313 4.435 224.453 4.38 224.613 4.38C224.713 4.38 224.823 4.41 224.943 4.47L229.338 6.945L228.708 7.83L224.193 5.19C224.033 5.11 223.893 5.07 223.773 5.07C223.673 5.07 223.583 5.095 223.503 5.145C223.113 5.565 222.578 5.995 221.898 6.435C221.218 6.875 220.333 7.355 219.243 7.875L218.628 7.035C219.878 6.445 220.843 5.91 221.523 5.43C222.213 4.94 222.698 4.455 222.978 3.975C223.268 3.485 223.418 2.93 223.428 2.31ZM230.103 11.04V12H217.863V11.04H223.413V7.8H224.553V11.04H230.103ZM244.917 6.78H242.877V13.485H241.752V0.464999H242.877V5.82H244.917V6.78ZM240.672 9.45L240.777 10.365C239.687 10.545 238.377 10.685 236.847 10.785C235.327 10.875 233.757 10.92 232.137 10.92L232.032 9.945C233.442 9.945 234.642 9.92 235.632 9.87V7.29C234.742 7.19 234.017 6.865 233.457 6.315C232.897 5.765 232.617 5.065 232.617 4.215C232.617 3.605 232.772 3.07 233.082 2.61C233.392 2.14 233.817 1.78 234.357 1.53C234.897 1.27 235.507 1.14 236.187 1.14C236.867 1.14 237.477 1.27 238.017 1.53C238.557 1.78 238.977 2.14 239.277 2.61C239.587 3.07 239.742 3.605 239.742 4.215C239.742 5.065 239.462 5.765 238.902 6.315C238.352 6.865 237.627 7.19 236.727 7.29V9.825C238.187 9.755 239.502 9.63 240.672 9.45ZM236.187 6.39C236.887 6.39 237.457 6.21 237.897 5.85C238.337 5.48 238.557 4.995 238.557 4.395V4.05C238.557 3.45 238.337 2.97 237.897 2.61C237.457 2.24 236.887 2.055 236.187 2.055C235.487 2.055 234.917 2.24 234.477 2.61C234.037 2.97 233.817 3.45 233.817 4.05V4.395C233.817 4.995 234.037 5.48 234.477 5.85C234.917 6.21 235.487 6.39 236.187 6.39ZM262.99 0.464999V13.485H261.85V0.464999H262.99ZM259.975 8.685L260.125 9.6C258.575 9.91 256.645 10.065 254.335 10.065H252.73V1.53H258.775V2.49H253.885V9.105H254.305C256.595 9.105 258.485 8.965 259.975 8.685ZM278.884 6.555H276.724V13.515H275.584V0.495H276.724V5.595H278.884V6.555ZM270.754 5.97C270.874 5.97 270.989 6.025 271.099 6.135L274.024 9.6L273.169 10.335L270.229 6.75C270.169 6.69 270.104 6.66 270.034 6.66C269.964 6.66 269.914 6.69 269.884 6.75C269.614 7.29 269.259 7.845 268.819 8.415C268.389 8.975 267.799 9.68 267.049 10.53L266.209 9.825C267.079 8.905 267.744 8.11 268.204 7.44C268.674 6.77 269.014 6.105 269.224 5.445C269.434 4.775 269.539 4.015 269.539 3.165V2.595H266.599V1.635H273.589V2.595H270.664V3.195C270.664 4.315 270.484 5.32 270.124 6.21L270.199 6.27L270.439 6.09C270.539 6.01 270.644 5.97 270.754 5.97ZM291.913 0.464999V10.35H290.758V0.464999H291.913ZM281.113 4.515C281.113 3.815 281.258 3.205 281.548 2.685C281.848 2.165 282.258 1.77 282.778 1.5C283.298 1.22 283.893 1.08 284.563 1.08C285.223 1.08 285.813 1.22 286.333 1.5C286.863 1.77 287.273 2.165 287.563 2.685C287.863 3.205 288.013 3.815 288.013 4.515C288.013 5.205 287.863 5.81 287.563 6.33C287.273 6.85 286.863 7.25 286.333 7.53C285.813 7.8 285.223 7.935 284.563 7.935C283.893 7.935 283.298 7.8 282.778 7.53C282.258 7.25 281.848 6.855 281.548 6.345C281.258 5.825 281.113 5.215 281.113 4.515ZM286.798 4.83V4.2C286.798 3.54 286.588 3.015 286.168 2.625C285.758 2.225 285.223 2.025 284.563 2.025C283.893 2.025 283.348 2.225 282.928 2.625C282.518 3.025 282.313 3.55 282.313 4.2V4.83C282.313 5.48 282.523 6.005 282.943 6.405C283.363 6.795 283.903 6.99 284.563 6.99C285.223 6.99 285.758 6.795 286.168 6.405C286.588 6.005 286.798 5.48 286.798 4.83ZM283.573 13.005V9.27H284.728V12.825H292.183V13.77H284.323C284.083 13.77 283.898 13.705 283.768 13.575C283.638 13.445 283.573 13.255 283.573 13.005ZM296.722 2.865C296.722 2.135 297.097 1.555 297.847 1.125C298.597 0.684999 299.722 0.464999 301.222 0.464999C302.722 0.464999 303.847 0.684999 304.597 1.125C305.347 1.555 305.722 2.135 305.722 2.865C305.722 3.595 305.347 4.18 304.597 4.62C303.847 5.06 302.722 5.28 301.222 5.28C299.722 5.28 298.597 5.06 297.847 4.62C297.097 4.18 296.722 3.595 296.722 2.865ZM304.507 2.94V2.775C304.507 2.345 304.232 1.995 303.682 1.725C303.142 1.445 302.322 1.305 301.222 1.305C300.122 1.305 299.297 1.445 298.747 1.725C298.207 1.995 297.937 2.345 297.937 2.775V2.94C297.937 3.37 298.207 3.725 298.747 4.005C299.297 4.275 300.122 4.41 301.222 4.41C302.322 4.41 303.142 4.275 303.682 4.005C304.232 3.725 304.507 3.37 304.507 2.94ZM307.342 6.315V7.275H295.102V6.315H307.342ZM297.007 13.335V10.875H304.402V9.465H296.917V8.535H305.497V11.745H298.102V13.17H305.887V14.1H297.757C297.517 14.1 297.332 14.035 297.202 13.905C297.072 13.775 297.007 13.585 297.007 13.335ZM327.275 6.93H325.235V13.485H324.11V0.464999H325.235V5.97H327.275V6.93ZM320.735 1.995H316.73V1.065H320.735V1.995ZM323.045 9.96L323.15 10.875C322.05 11.055 320.735 11.195 319.205 11.295C317.685 11.385 316.115 11.43 314.495 11.43L314.39 10.47C315.51 10.47 316.745 10.445 318.095 10.395V8.61C317.305 8.53 316.68 8.29 316.22 7.89C315.76 7.48 315.53 6.98 315.53 6.39C315.53 5.96 315.635 5.59 315.845 5.28C316.065 4.96 316.395 4.71 316.835 4.53V4.44H314.6V3.54H322.67V4.44H320.51V4.53C320.94 4.71 321.265 4.96 321.485 5.28C321.705 5.6 321.815 5.97 321.815 6.39C321.815 6.99 321.58 7.495 321.11 7.905C320.64 8.305 320 8.54 319.19 8.61V10.335C320.75 10.255 322.035 10.13 323.045 9.96ZM318.515 7.71H318.83C319.4 7.71 319.865 7.575 320.225 7.305C320.585 7.025 320.765 6.635 320.765 6.135C320.765 5.635 320.585 5.25 320.225 4.98C319.865 4.7 319.4 4.56 318.83 4.56H318.515C317.945 4.56 317.48 4.7 317.12 4.98C316.76 5.25 316.58 5.635 316.58 6.135C316.58 6.635 316.76 7.025 317.12 7.305C317.48 7.575 317.945 7.71 318.515 7.71ZM339.164 6.45H336.404V5.52H339.164V3.48H336.404V2.55H339.164V0.464999H340.304V10.35H339.164V6.45ZM335.894 7.695H329.759V1.305H335.894V7.695ZM334.769 2.25H330.884V6.75H334.769V2.25ZM340.574 12.825V13.77H332.714C332.474 13.77 332.289 13.705 332.159 13.575C332.029 13.445 331.964 13.255 331.964 13.005V9.27H333.119V12.825H340.574ZM355.058 0.464999V13.485H353.963V0.464999H355.058ZM351.008 0.69H352.073V13.125H351.008V6.3H349.568C349.518 7.6 349.228 8.58 348.698 9.24C348.168 9.89 347.468 10.215 346.598 10.215C345.668 10.215 344.933 9.855 344.393 9.135C343.853 8.405 343.583 7.32 343.583 5.88C343.583 4.44 343.853 3.36 344.393 2.64C344.933 1.91 345.668 1.545 346.598 1.545C347.458 1.545 348.148 1.865 348.668 2.505C349.198 3.145 349.498 4.095 349.568 5.355H351.008V0.69ZM348.428 5.16C348.428 4.28 348.258 3.61 347.918 3.15C347.588 2.69 347.148 2.46 346.598 2.46C346.038 2.46 345.588 2.69 345.248 3.15C344.918 3.61 344.753 4.28 344.753 5.16V6.615C344.753 7.485 344.918 8.155 345.248 8.625C345.588 9.085 346.038 9.315 346.598 9.315C347.148 9.315 347.588 9.085 347.918 8.625C348.258 8.155 348.428 7.485 348.428 6.615V5.16ZM375.681 3.675V4.635H373.596V7.89H372.456V0.464999H373.596V3.675H375.681ZM369.636 7.125H363.486V1.125H369.636V7.125ZM368.511 2.055H364.626V6.18H368.511V2.055ZM370.131 11.265C370.201 11.265 370.301 11.29 370.431 11.34L374.256 13.275L373.671 14.13L369.696 12.03C369.576 11.97 369.461 11.94 369.351 11.94C369.231 11.94 369.116 11.975 369.006 12.045C368.646 12.365 368.151 12.695 367.521 13.035C366.901 13.375 366.096 13.755 365.106 14.175L364.536 13.305C365.686 12.855 366.571 12.445 367.191 12.075C367.821 11.705 368.261 11.34 368.511 10.98C368.761 10.61 368.891 10.19 368.901 9.72H365.016V8.76H373.776V9.72H370.026C370.016 10.11 369.966 10.455 369.876 10.755C369.786 11.055 369.631 11.34 369.411 11.61L369.471 11.64L369.741 11.43C369.881 11.32 370.011 11.265 370.131 11.265ZM389.025 0.464999V13.485H387.915V0.464999H389.025ZM384.9 0.69H385.995V13.125H384.9V6.51H382.635C382.355 7.25 381.895 7.945 381.255 8.595C380.625 9.235 379.71 9.955 378.51 10.755L377.76 9.99C378.89 9.26 379.75 8.61 380.34 8.04C380.93 7.46 381.345 6.855 381.585 6.225C381.825 5.585 381.945 4.8 381.945 3.87V2.715H378.105V1.8H383.04V3.84C383.04 4.49 382.99 5.065 382.89 5.565H384.9V0.69ZM407.098 6.45H404.158V5.52H407.098V3.48H404.158V2.55H407.098V0.464999H408.238V10.35H407.098V6.45ZM403.708 7.875H397.663V1.245H398.758V3.585H402.598V1.215H403.708V7.875ZM402.598 4.515H398.758V6.945H402.598V4.515ZM408.508 12.825V13.77H400.648C400.408 13.77 400.223 13.705 400.093 13.575C399.963 13.445 399.898 13.255 399.898 13.005V9.45H401.053V12.825H408.508ZM421.507 6.855H419.512V5.925H421.507V4.245H419.512V3.33H421.507V0.464999H422.647V8.895H421.507V6.855ZM417.487 1.725H413.467V0.78H417.487V1.725ZM415.372 8.385C414.762 8.385 414.227 8.29 413.767 8.1C413.307 7.91 412.952 7.645 412.702 7.305C412.452 6.965 412.327 6.58 412.327 6.15C412.327 5.72 412.432 5.35 412.642 5.04C412.852 4.72 413.167 4.47 413.587 4.29V4.2H411.517V3.285H419.032V4.2H417.172V4.29C417.592 4.47 417.907 4.72 418.117 5.04C418.327 5.35 418.432 5.72 418.432 6.15C418.432 6.58 418.307 6.965 418.057 7.305C417.807 7.645 417.447 7.91 416.977 8.1C416.517 8.29 415.982 8.385 415.372 8.385ZM415.237 7.44H415.522C416.062 7.44 416.507 7.305 416.857 7.035C417.207 6.755 417.382 6.37 417.382 5.88C417.382 5.38 417.207 4.995 416.857 4.725C416.517 4.445 416.072 4.305 415.522 4.305H415.237C414.687 4.305 414.237 4.445 413.887 4.725C413.547 4.995 413.377 5.38 413.377 5.88C413.377 6.37 413.552 6.755 413.902 7.035C414.252 7.305 414.697 7.44 415.237 7.44ZM422.737 11.7C422.737 12.47 422.372 13.09 421.642 13.56C420.922 14.03 419.882 14.265 418.522 14.265C417.152 14.265 416.102 14.03 415.372 13.56C414.652 13.09 414.292 12.47 414.292 11.7C414.292 11.21 414.447 10.775 414.757 10.395C415.077 10.015 415.552 9.715 416.182 9.495C416.822 9.275 417.602 9.165 418.522 9.165C419.432 9.165 420.202 9.275 420.832 9.495C421.472 9.715 421.947 10.015 422.257 10.395C422.577 10.775 422.737 11.21 422.737 11.7ZM421.522 11.61C421.522 11.18 421.272 10.82 420.772 10.53C420.272 10.23 419.522 10.08 418.522 10.08C417.512 10.08 416.752 10.23 416.242 10.53C415.742 10.82 415.492 11.18 415.492 11.61V11.82C415.492 12.25 415.742 12.61 416.242 12.9C416.752 13.2 417.512 13.35 418.522 13.35C419.522 13.35 420.272 13.2 420.772 12.9C421.272 12.61 421.522 12.25 421.522 11.82V11.61ZM438.481 6.795H436.366V13.515H435.226V0.495H436.366V5.835H438.481V6.795ZM432.031 2.175H427.771V1.2H432.031V2.175ZM425.776 3.975H433.801V4.905H431.581V4.995C432.491 5.445 432.946 6.31 432.946 7.59C432.946 8.24 432.811 8.805 432.541 9.285C432.271 9.755 431.896 10.115 431.416 10.365C430.946 10.615 430.421 10.74 429.841 10.74C429.261 10.74 428.731 10.615 428.251 10.365C427.781 10.115 427.411 9.755 427.141 9.285C426.871 8.805 426.736 8.24 426.736 7.59C426.736 6.31 427.191 5.445 428.101 4.995V4.905H425.776V3.975ZM431.836 7.095C431.836 6.425 431.656 5.915 431.296 5.565C430.936 5.205 430.451 5.025 429.841 5.025C429.241 5.025 428.756 5.205 428.386 5.565C428.026 5.925 427.846 6.435 427.846 7.095V7.71C427.846 8.36 428.031 8.87 428.401 9.24C428.771 9.6 429.251 9.78 429.841 9.78C430.431 9.78 430.911 9.6 431.281 9.24C431.651 8.87 431.836 8.36 431.836 7.71V7.095ZM450.775 5.655H442.15V0.944999H443.275V4.71H450.775V5.655ZM452.515 7.32V8.295H440.275V7.32H452.515ZM443.17 12.795H450.94V13.755H442.78C442.54 13.755 442.355 13.69 442.225 13.56C442.095 13.43 442.03 13.24 442.03 12.99V9.705H443.17V12.795ZM472.463 3.825V4.785H470.378V8.295H469.238V0.464999H470.378V3.825H472.463ZM466.358 7.275H460.268V1.05H461.363V3.195H465.233V1.035H466.358V7.275ZM465.233 4.125H461.363V6.36H465.233V4.125ZM470.483 11.4C470.483 11.94 470.328 12.42 470.018 12.84C469.708 13.27 469.243 13.605 468.623 13.845C468.003 14.095 467.243 14.22 466.343 14.22C465.453 14.22 464.693 14.095 464.063 13.845C463.443 13.605 462.973 13.27 462.653 12.84C462.343 12.42 462.188 11.94 462.188 11.4C462.188 10.86 462.343 10.38 462.653 9.96C462.973 9.53 463.443 9.195 464.063 8.955C464.693 8.705 465.453 8.58 466.343 8.58C467.243 8.58 468.003 8.705 468.623 8.955C469.243 9.195 469.708 9.53 470.018 9.96C470.328 10.38 470.483 10.86 470.483 11.4ZM469.283 11.28C469.283 10.78 469.038 10.36 468.548 10.02C468.068 9.67 467.333 9.495 466.343 9.495C465.363 9.495 464.628 9.67 464.138 10.02C463.648 10.36 463.403 10.78 463.403 11.28V11.535C463.403 12.025 463.648 12.44 464.138 12.78C464.628 13.13 465.363 13.305 466.343 13.305C467.333 13.305 468.068 13.13 468.548 12.78C469.038 12.44 469.283 12.025 469.283 11.535V11.28ZM485.477 0.464999V7.74H484.337V4.53H481.502V3.585H484.337V0.464999H485.477ZM481.052 7.155H474.977V0.99H476.072V3.12H479.957V0.975H481.052V7.155ZM479.957 4.035H476.072V6.24H479.957V4.035ZM484.337 8.535H485.477V14.025H477.992C477.752 14.025 477.567 13.96 477.437 13.83C477.307 13.7 477.242 13.51 477.242 13.26V8.535H478.352V10.26H484.337V8.535ZM484.337 11.235H478.352V13.05H484.337V11.235ZM500.231 0.464999V13.485H499.136V0.464999H500.231ZM496.181 0.69H497.246V13.125H496.181V6.3H494.741C494.691 7.6 494.401 8.58 493.871 9.24C493.341 9.89 492.641 10.215 491.771 10.215C490.841 10.215 490.106 9.855 489.566 9.135C489.026 8.405 488.756 7.32 488.756 5.88C488.756 4.44 489.026 3.36 489.566 2.64C490.106 1.91 490.841 1.545 491.771 1.545C492.631 1.545 493.321 1.865 493.841 2.505C494.371 3.145 494.671 4.095 494.741 5.355H496.181V0.69ZM493.601 5.16C493.601 4.28 493.431 3.61 493.091 3.15C492.761 2.69 492.321 2.46 491.771 2.46C491.211 2.46 490.761 2.69 490.421 3.15C490.091 3.61 489.926 4.28 489.926 5.16V6.615C489.926 7.485 490.091 8.155 490.421 8.625C490.761 9.085 491.211 9.315 491.771 9.315C492.321 9.315 492.761 9.085 493.091 8.625C493.431 8.155 493.601 7.485 493.601 6.615V5.16ZM519.774 0.464999V13.485H518.664V6.495H516.609V13.125H515.514V0.69H516.609V5.55H518.664V0.464999H519.774ZM514.374 8.7L514.524 9.6C513.314 9.91 511.819 10.065 510.039 10.065H508.809V1.8H513.654V2.76H509.904V9.12H510.309C511.949 9.12 513.304 8.98 514.374 8.7ZM534.198 0.464999V13.485H533.088V6.69H531.138V13.125H530.043V0.69H531.138V5.745H533.088V0.464999H534.198ZM527.973 2.415H524.118V1.485H527.973V2.415ZM522.543 4.095H529.323V4.995H527.538V5.07C528.328 5.5 528.723 6.315 528.723 7.515C528.723 8.455 528.468 9.19 527.958 9.72C527.458 10.24 526.798 10.5 525.978 10.5C525.168 10.5 524.508 10.24 523.998 9.72C523.498 9.19 523.248 8.455 523.248 7.515C523.248 6.315 523.638 5.5 524.418 5.07V4.995H522.543V4.095ZM527.643 6.975C527.643 6.375 527.493 5.915 527.193 5.595C526.893 5.275 526.488 5.115 525.978 5.115C525.468 5.115 525.063 5.275 524.763 5.595C524.473 5.915 524.328 6.375 524.328 6.975V7.695C524.328 8.285 524.478 8.745 524.778 9.075C525.088 9.405 525.488 9.57 525.978 9.57C526.468 9.57 526.868 9.405 527.178 9.075C527.488 8.745 527.643 8.285 527.643 7.695V6.975ZM551.476 1.845H543.811V0.884999H552.586V1.62C552.586 2.93 552.431 4.27 552.121 5.64L551.041 5.49C551.321 4.31 551.466 3.095 551.476 1.845ZM554.416 6.69V7.68H542.176V6.69H547.201V4.095H548.326V6.69H554.416ZM552.736 11.61C552.736 12.13 552.566 12.59 552.226 12.99C551.896 13.4 551.396 13.72 550.726 13.95C550.066 14.18 549.256 14.295 548.296 14.295C547.336 14.295 546.521 14.18 545.851 13.95C545.191 13.72 544.691 13.4 544.351 12.99C544.021 12.59 543.856 12.13 543.856 11.61C543.856 11.09 544.021 10.63 544.351 10.23C544.691 9.83 545.191 9.515 545.851 9.285C546.521 9.055 547.336 8.94 548.296 8.94C549.256 8.94 550.066 9.055 550.726 9.285C551.396 9.515 551.896 9.83 552.226 10.23C552.566 10.63 552.736 11.09 552.736 11.61ZM551.536 11.505C551.536 11.035 551.266 10.64 550.726 10.32C550.196 10 549.386 9.84 548.296 9.84C547.216 9.84 546.401 10 545.851 10.32C545.311 10.64 545.041 11.035 545.041 11.505V11.73C545.041 12.19 545.311 12.58 545.851 12.9C546.401 13.22 547.216 13.38 548.296 13.38C549.386 13.38 550.196 13.22 550.726 12.9C551.266 12.58 551.536 12.19 551.536 11.73V11.505ZM567.055 6.66H558.385V0.794999H559.51V2.775H565.93V0.794999H567.055V6.66ZM565.93 3.72H559.51V5.715H565.93V3.72ZM568.84 9.255H563.29V14.01H562.15V9.255H556.6V8.28H568.84V9.255ZM583.654 6.795H581.539V13.515H580.399V0.495H581.539V5.835H583.654V6.795ZM577.204 2.175H572.944V1.2H577.204V2.175ZM570.949 3.975H578.974V4.905H576.754V4.995C577.664 5.445 578.119 6.31 578.119 7.59C578.119 8.24 577.984 8.805 577.714 9.285C577.444 9.755 577.069 10.115 576.589 10.365C576.119 10.615 575.594 10.74 575.014 10.74C574.434 10.74 573.904 10.615 573.424 10.365C572.954 10.115 572.584 9.755 572.314 9.285C572.044 8.805 571.909 8.24 571.909 7.59C571.909 6.31 572.364 5.445 573.274 4.995V4.905H570.949V3.975ZM577.009 7.095C577.009 6.425 576.829 5.915 576.469 5.565C576.109 5.205 575.624 5.025 575.014 5.025C574.414 5.025 573.929 5.205 573.559 5.565C573.199 5.925 573.019 6.435 573.019 7.095V7.71C573.019 8.36 573.204 8.87 573.574 9.24C573.944 9.6 574.424 9.78 575.014 9.78C575.604 9.78 576.084 9.6 576.454 9.24C576.824 8.87 577.009 8.36 577.009 7.71V7.095ZM595.468 0.464999H596.608V13.485H595.468V0.464999ZM586.033 9.9C587.413 9.19 588.468 8.54 589.198 7.95C589.928 7.36 590.438 6.735 590.728 6.075C591.028 5.415 591.178 4.6 591.178 3.63V2.505H586.408V1.53H592.318V3.615C592.318 4.725 592.148 5.665 591.808 6.435C591.478 7.205 590.913 7.925 590.113 8.595C589.323 9.255 588.188 9.98 586.708 10.77L586.033 9.9ZM616.166 0.464999V13.485H615.041V0.464999H616.166ZM605.771 3.645C605.771 3.095 605.921 2.615 606.221 2.205C606.531 1.785 606.956 1.465 607.496 1.245C608.036 1.015 608.646 0.9 609.326 0.9C610.006 0.9 610.611 1.015 611.141 1.245C611.681 1.465 612.101 1.785 612.401 2.205C612.711 2.615 612.866 3.095 612.866 3.645C612.866 4.205 612.711 4.695 612.401 5.115C612.101 5.525 611.681 5.845 611.141 6.075C610.611 6.295 610.006 6.405 609.326 6.405C608.636 6.405 608.021 6.295 607.481 6.075C606.951 5.845 606.531 5.525 606.221 5.115C605.921 4.695 605.771 4.205 605.771 3.645ZM606.941 3.795C606.941 4.305 607.161 4.715 607.601 5.025C608.041 5.335 608.616 5.49 609.326 5.49C610.026 5.49 610.591 5.335 611.021 5.025C611.461 4.715 611.681 4.305 611.681 3.795V3.525C611.681 3.005 611.461 2.59 611.021 2.28C610.591 1.97 610.026 1.815 609.326 1.815C608.616 1.815 608.041 1.97 607.601 2.28C607.161 2.59 606.941 3.005 606.941 3.525V3.795ZM614.066 8.235C612.826 8.425 611.451 8.565 609.941 8.655V13.365H608.801V8.715C607.471 8.765 606.241 8.79 605.111 8.79L605.021 7.83C606.721 7.83 608.361 7.79 609.941 7.71C611.521 7.63 612.861 7.505 613.961 7.335L614.066 8.235ZM630.98 0.464999V13.485H629.87V6.69H627.92V13.125H626.825V0.69H627.92V5.745H629.87V0.464999H630.98ZM624.755 2.415H620.9V1.485H624.755V2.415ZM619.325 4.095H626.105V4.995H624.32V5.07C625.11 5.5 625.505 6.315 625.505 7.515C625.505 8.455 625.25 9.19 624.74 9.72C624.24 10.24 623.58 10.5 622.76 10.5C621.95 10.5 621.29 10.24 620.78 9.72C620.28 9.19 620.03 8.455 620.03 7.515C620.03 6.315 620.42 5.5 621.2 5.07V4.995H619.325V4.095ZM624.425 6.975C624.425 6.375 624.275 5.915 623.975 5.595C623.675 5.275 623.27 5.115 622.76 5.115C622.25 5.115 621.845 5.275 621.545 5.595C621.255 5.915 621.11 6.375 621.11 6.975V7.695C621.11 8.285 621.26 8.745 621.56 9.075C621.87 9.405 622.27 9.57 622.76 9.57C623.25 9.57 623.65 9.405 623.96 9.075C624.27 8.745 624.425 8.285 624.425 7.695V6.975ZM640.368 4.65C640.048 4.65 639.813 4.57 639.663 4.41C639.523 4.24 639.453 4.025 639.453 3.765V3.555C639.453 3.145 639.573 2.695 639.813 2.205C640.053 1.705 640.388 1.27 640.818 0.9H641.823C641.523 1.22 641.278 1.525 641.088 1.815C640.908 2.095 640.778 2.41 640.698 2.76C640.898 2.81 641.043 2.905 641.133 3.045C641.233 3.185 641.283 3.355 641.283 3.555V3.765C641.283 4.025 641.208 4.24 641.058 4.41C640.918 4.57 640.688 4.65 640.368 4.65ZM655.284 0.464999V13.485H654.159V5.79H651.384V4.83H654.159V0.464999H655.284ZM648.789 5.715C648.909 5.715 649.014 5.77 649.104 5.88L652.044 9.63L651.174 10.395L648.234 6.525C648.194 6.475 648.144 6.45 648.084 6.45C648.024 6.45 647.974 6.475 647.934 6.525C647.684 7.105 647.339 7.7 646.899 8.31C646.459 8.92 645.859 9.68 645.099 10.59L644.229 9.855C645.099 8.865 645.764 8.02 646.224 7.32C646.694 6.61 647.029 5.9 647.229 5.19C647.439 4.48 647.544 3.665 647.544 2.745V1.335H648.684V2.73C648.684 3.94 648.519 5.02 648.189 5.97L648.249 6.015L648.459 5.835C648.569 5.755 648.679 5.715 648.789 5.715ZM660.153 2.85C660.153 2.13 660.528 1.55 661.278 1.11C662.038 0.67 663.163 0.449999 664.653 0.449999C666.143 0.449999 667.263 0.67 668.013 1.11C668.773 1.55 669.153 2.13 669.153 2.85C669.153 3.58 668.778 4.165 668.028 4.605C667.278 5.045 666.153 5.265 664.653 5.265C663.153 5.265 662.028 5.045 661.278 4.605C660.528 4.165 660.153 3.58 660.153 2.85ZM661.368 2.94C661.368 3.37 661.638 3.72 662.178 3.99C662.728 4.26 663.553 4.395 664.653 4.395C665.753 4.395 666.573 4.26 667.113 3.99C667.663 3.72 667.938 3.37 667.938 2.94V2.76C667.938 2.33 667.663 1.98 667.113 1.71C666.573 1.44 665.753 1.305 664.653 1.305C663.553 1.305 662.728 1.44 662.178 1.71C661.638 1.98 661.368 2.33 661.368 2.76V2.94ZM665.223 7.2V8.565H668.928V11.79H661.533V13.2H669.318V14.145H661.188C660.948 14.145 660.763 14.08 660.633 13.95C660.503 13.82 660.438 13.63 660.438 13.38V10.905H667.833V9.495H660.348V8.565H664.098V7.2H658.533V6.27H670.773V7.2H665.223ZM682.257 1.845H674.592V0.884999H683.367V1.62C683.367 2.93 683.212 4.27 682.902 5.64L681.822 5.49C682.102 4.31 682.247 3.095 682.257 1.845ZM685.197 6.69V7.68H672.957V6.69H677.982V4.095H679.107V6.69H685.197ZM683.517 11.61C683.517 12.13 683.347 12.59 683.007 12.99C682.677 13.4 682.177 13.72 681.507 13.95C680.847 14.18 680.037 14.295 679.077 14.295C678.117 14.295 677.302 14.18 676.632 13.95C675.972 13.72 675.472 13.4 675.132 12.99C674.802 12.59 674.637 12.13 674.637 11.61C674.637 11.09 674.802 10.63 675.132 10.23C675.472 9.83 675.972 9.515 676.632 9.285C677.302 9.055 678.117 8.94 679.077 8.94C680.037 8.94 680.847 9.055 681.507 9.285C682.177 9.515 682.677 9.83 683.007 10.23C683.347 10.63 683.517 11.09 683.517 11.61ZM682.317 11.505C682.317 11.035 682.047 10.64 681.507 10.32C680.977 10 680.167 9.84 679.077 9.84C677.997 9.84 677.182 10 676.632 10.32C676.092 10.64 675.822 11.035 675.822 11.505V11.73C675.822 12.19 676.092 12.58 676.632 12.9C677.182 13.22 677.997 13.38 679.077 13.38C680.167 13.38 680.977 13.22 681.507 12.9C682.047 12.58 682.317 12.19 682.317 11.73V11.505ZM698.946 0.464999V13.485H697.866V0.464999H698.946ZM694.986 0.659999H696.021V13.14H694.986V8.085H693.126C692.896 8.795 692.551 9.33 692.091 9.69C691.641 10.05 691.096 10.23 690.456 10.23C689.536 10.23 688.806 9.865 688.266 9.135C687.736 8.405 687.471 7.32 687.471 5.88C687.471 4.44 687.736 3.36 688.266 2.64C688.806 1.91 689.536 1.545 690.456 1.545C691.066 1.545 691.596 1.715 692.046 2.055C692.496 2.385 692.841 2.88 693.081 3.54H694.986V0.659999ZM692.301 5.145C692.301 4.265 692.131 3.595 691.791 3.135C691.451 2.665 691.006 2.43 690.456 2.43C689.896 2.43 689.446 2.665 689.106 3.135C688.776 3.595 688.611 4.265 688.611 5.145V6.63C688.611 7.51 688.776 8.18 689.106 8.64C689.446 9.1 689.896 9.33 690.456 9.33C691.006 9.33 691.451 9.1 691.791 8.64C692.131 8.18 692.301 7.51 692.301 6.63V5.145ZM694.986 7.17V4.455H693.321C693.391 4.945 693.426 5.42 693.426 5.88C693.426 6.35 693.396 6.78 693.336 7.17H694.986ZM714.45 4.815H712.365V8.355H711.225V0.464999H712.365V3.855H714.45V4.815ZM708.33 7.455H702.255V1.14H703.35V3.33H707.235V1.11H708.33V7.455ZM707.235 4.26H703.35V6.525H707.235V4.26ZM703.92 9.165H712.365V14.145H711.24V10.125H703.92V9.165ZM726.639 5.01H718.059V0.69H726.639V5.01ZM725.514 1.575H719.184V4.11H725.514V1.575ZM722.919 7.2V8.565H726.624V11.79H719.229V13.2H727.014V14.145H718.884C718.644 14.145 718.459 14.08 718.329 13.95C718.199 13.82 718.134 13.63 718.134 13.38V10.905H725.529V9.495H718.044V8.565H721.794V7.2H716.229V6.27H728.469V7.2H722.919ZM743.283 4.86V5.82H741.303V10.47H740.178V0.464999H741.303V4.86H743.283ZM736.923 2.31H731.373V1.365H738.033V2.325C738.033 3.595 737.873 4.89 737.553 6.21L736.473 6.045C736.763 4.965 736.913 3.795 736.923 2.535V2.31ZM739.143 7.995C738.033 8.175 736.708 8.315 735.168 8.415C733.628 8.505 732.038 8.55 730.398 8.55L730.293 7.59C731.353 7.59 732.408 7.575 733.458 7.545V4.62H734.568V7.5C736.438 7.42 737.928 7.29 739.038 7.11L739.143 7.995ZM734.088 12.825H741.573V13.77H733.698C733.458 13.77 733.273 13.705 733.143 13.575C733.013 13.445 732.948 13.255 732.948 13.005V9.84H734.088V12.825ZM746.622 0.749999C746.942 0.749999 747.172 0.834999 747.312 1.005C747.462 1.165 747.537 1.375 747.537 1.635V1.845C747.537 2.255 747.417 2.71 747.177 3.21C746.937 3.7 746.602 4.13 746.172 4.5H745.167C745.467 4.18 745.707 3.88 745.887 3.6C746.077 3.31 746.212 2.99 746.292 2.64C746.092 2.59 745.942 2.495 745.842 2.355C745.752 2.215 745.707 2.045 745.707 1.845V1.635C745.707 1.375 745.777 1.165 745.917 1.005C746.067 0.834999 746.302 0.749999 746.622 0.749999ZM763.838 1.41H759.098V0.51H763.838V1.41ZM767.588 8.04V8.97H755.348V8.04H760.913V7.05C759.793 7 758.958 6.805 758.408 6.465C757.868 6.115 757.598 5.685 757.598 5.175C757.598 4.485 758.038 4 758.918 3.72V3.63H756.173V2.76H766.763V3.63H764.018V3.72C764.898 4 765.338 4.485 765.338 5.175C765.338 5.685 765.068 6.115 764.528 6.465C763.988 6.805 763.158 7 762.038 7.05V8.04H767.588ZM761.123 6.165H761.813C762.623 6.165 763.223 6.055 763.613 5.835C764.013 5.605 764.213 5.3 764.213 4.92C764.213 4.53 764.013 4.225 763.613 4.005C763.223 3.775 762.623 3.66 761.813 3.66H761.123C760.313 3.66 759.708 3.775 759.308 4.005C758.918 4.225 758.723 4.53 758.723 4.92C758.723 5.3 758.918 5.605 759.308 5.835C759.708 6.055 760.313 6.165 761.123 6.165ZM757.163 10.095H765.773V14.04H757.913C757.673 14.04 757.488 13.975 757.358 13.845C757.228 13.715 757.163 13.525 757.163 13.275V10.095ZM758.273 13.185H764.663V10.95H758.273V13.185ZM781.337 0.464999V13.485H780.257V0.464999H781.337ZM777.347 0.69H778.412V13.125H777.347V6.39H775.697V5.445H777.347V0.69ZM775.997 2.715H769.877V1.77H775.997V2.715ZM776.327 8.865L776.432 9.75C775.602 9.91 774.587 10.035 773.387 10.125C772.197 10.205 770.972 10.245 769.712 10.245L769.607 9.3C770.337 9.3 770.887 9.295 771.257 9.285L770.882 3.93L771.932 3.825L772.217 9.255C772.557 9.245 773.007 9.22 773.567 9.18L773.942 3.81L774.992 3.915L774.542 9.12C775.332 9.03 775.927 8.945 776.327 8.865ZM794.216 0.464999H795.356V13.485H794.216V0.464999ZM784.586 5.73C784.586 4.27 784.906 3.165 785.546 2.415C786.196 1.665 787.051 1.29 788.111 1.29C789.161 1.29 790.006 1.665 790.646 2.415C791.296 3.165 791.621 4.27 791.621 5.73C791.621 6.71 791.471 7.535 791.171 8.205C790.871 8.865 790.456 9.36 789.926 9.69C789.396 10.01 788.791 10.17 788.111 10.17C787.051 10.17 786.196 9.795 785.546 9.045C784.906 8.295 784.586 7.19 784.586 5.73ZM790.406 6.315V5.145C790.406 4.215 790.191 3.5 789.761 3C789.341 2.5 788.791 2.25 788.111 2.25C787.421 2.25 786.861 2.5 786.431 3C786.011 3.49 785.801 4.205 785.801 5.145V6.315C785.801 7.255 786.011 7.975 786.431 8.475C786.861 8.965 787.421 9.21 788.111 9.21C788.791 9.21 789.341 8.96 789.761 8.46C790.191 7.96 790.406 7.245 790.406 6.315ZM11.73 23.465V36.485H10.59V23.465H11.73ZM5.46 28.97C5.6 28.97 5.715 29.025 5.805 29.135L8.745 32.585L7.89 33.32L4.92 29.75C4.87 29.69 4.81 29.66 4.74 29.66C4.68 29.66 4.625 29.69 4.575 29.75C4.305 30.3 3.95 30.86 3.51 31.43C3.07 32 2.47 32.7 1.71 33.53L0.855 32.81C1.725 31.9 2.395 31.11 2.865 30.44C3.345 29.77 3.69 29.105 3.9 28.445C4.11 27.775 4.215 27.015 4.215 26.165V25.595H1.26V24.635H8.295V25.595H5.355V26.21C5.355 27.34 5.18 28.345 4.83 29.225L4.905 29.27L5.13 29.09C5.24 29.01 5.35 28.97 5.46 28.97ZM24.159 25.805V24.515H16.839V23.675H25.254V26.63H18.024V27.905H25.629V28.76H16.914V25.805H24.159ZM27.234 29.885V30.77H14.994V29.885H27.234ZM16.869 36.38V34.115H24.339V32.855H16.779V31.97H25.404V34.955H17.934V36.245H25.794V37.145H17.619C17.379 37.145 17.194 37.08 17.064 36.95C16.934 36.82 16.869 36.63 16.869 36.38ZM44.108 27.59H41.243V26.63H44.108V23.465H45.248V33.35H44.108V27.59ZM37.973 28.16C37.903 28.16 37.843 28.19 37.793 28.25C37.543 28.71 37.203 29.185 36.773 29.675C36.343 30.165 35.768 30.765 35.048 31.475L34.208 30.725C35.058 29.925 35.708 29.24 36.158 28.67C36.608 28.1 36.933 27.535 37.133 26.975C37.343 26.405 37.448 25.76 37.448 25.04V24.095H38.603V25.085C38.603 26.085 38.428 26.965 38.078 27.725L38.153 27.785L38.393 27.575C38.503 27.485 38.608 27.44 38.708 27.44C38.818 27.44 38.923 27.49 39.023 27.59L41.873 30.455L41.048 31.235L38.168 28.25C38.108 28.19 38.043 28.16 37.973 28.16ZM45.518 35.825V36.77H37.658C37.418 36.77 37.233 36.705 37.103 36.575C36.973 36.445 36.908 36.255 36.908 36.005V32.285H38.063V35.825H45.518ZM58.532 26.69V23.465H59.672V31.295H58.532V27.62H55.802V26.69H58.532ZM49.622 30.845L48.767 30.125C49.607 29.465 50.257 28.895 50.717 28.415C51.177 27.925 51.507 27.445 51.707 26.975C51.917 26.495 52.022 25.96 52.022 25.37V25.22H49.157V24.26H55.997V25.22H53.162V25.415C53.162 26.265 52.987 27.01 52.637 27.65L52.727 27.695L52.967 27.515C53.077 27.435 53.187 27.395 53.297 27.395C53.427 27.395 53.542 27.44 53.642 27.53L56.432 29.87L55.592 30.62L52.757 28.16C52.677 28.1 52.602 28.07 52.532 28.07C52.452 28.07 52.382 28.1 52.322 28.16C52.052 28.55 51.707 28.95 51.287 29.36C50.867 29.77 50.312 30.265 49.622 30.845ZM59.747 34.4C59.747 34.94 59.587 35.42 59.267 35.84C58.957 36.27 58.482 36.605 57.842 36.845C57.212 37.095 56.442 37.22 55.532 37.22C54.612 37.22 53.832 37.095 53.192 36.845C52.562 36.605 52.087 36.27 51.767 35.84C51.457 35.42 51.302 34.94 51.302 34.4C51.302 33.86 51.457 33.38 51.767 32.96C52.087 32.53 52.562 32.195 53.192 31.955C53.832 31.705 54.612 31.58 55.532 31.58C56.442 31.58 57.212 31.705 57.842 31.955C58.482 32.195 58.957 32.53 59.267 32.96C59.587 33.38 59.747 33.86 59.747 34.4ZM58.547 34.28C58.547 33.77 58.297 33.345 57.797 33.005C57.297 32.655 56.542 32.48 55.532 32.48C54.512 32.48 53.747 32.655 53.237 33.005C52.737 33.345 52.487 33.77 52.487 34.28V34.535C52.487 35.035 52.737 35.455 53.237 35.795C53.747 36.145 54.512 36.32 55.532 36.32C56.542 36.32 57.297 36.145 57.797 35.795C58.297 35.455 58.547 35.035 58.547 34.535V34.28ZM64.331 35.18C64.011 35.18 63.776 35.1 63.626 34.94C63.486 34.78 63.416 34.57 63.416 34.31V34.115C63.416 33.855 63.486 33.645 63.626 33.485C63.776 33.325 64.011 33.245 64.331 33.245C64.651 33.245 64.881 33.325 65.021 33.485C65.171 33.645 65.246 33.855 65.246 34.115V34.31C65.246 34.57 65.171 34.78 65.021 34.94C64.881 35.1 64.651 35.18 64.331 35.18ZM84.1579 23.465V31.295H83.0479V23.465H84.1579ZM80.1379 27.44H78.1579V26.495H80.1379V23.675H81.2179V31.13H80.1379V27.44ZM75.8479 28.115C75.7879 28.115 75.7329 28.145 75.6829 28.205C75.4529 28.635 75.1529 29.08 74.7829 29.54C74.4229 29.99 73.9529 30.51 73.3729 31.1L72.5779 30.41C73.3079 29.64 73.8629 28.985 74.2429 28.445C74.6329 27.895 74.9079 27.36 75.0679 26.84C75.2379 26.31 75.3229 25.71 75.3229 25.04V24.215H76.4179V25.07C76.4179 26.03 76.2679 26.86 75.9679 27.56L76.0429 27.605L76.2229 27.455C76.3329 27.375 76.4329 27.335 76.5229 27.335C76.6329 27.335 76.7329 27.385 76.8229 27.485L79.1929 30.095L78.4129 30.845L76.0579 28.205C75.9979 28.145 75.9279 28.115 75.8479 28.115ZM75.3379 32.12H84.1579V37.145H83.0329V33.095H75.3379V32.12ZM97.1119 28.88H94.3819V27.95H97.1119V26.12H94.3819V25.19H97.1119V23.465H98.2519V33.35H97.1119V28.88ZM90.9169 28.175C90.8469 28.175 90.7869 28.205 90.7369 28.265C90.4769 28.725 90.1369 29.195 89.7169 29.675C89.3069 30.155 88.7369 30.76 88.0069 31.49L87.1669 30.755C88.0069 29.945 88.6519 29.255 89.1019 28.685C89.5619 28.115 89.8919 27.55 90.0919 26.99C90.2919 26.42 90.3919 25.77 90.3919 25.04V24.095H91.5319V25.085C91.5319 26.095 91.3569 26.985 91.0069 27.755L91.0669 27.785L91.3069 27.59C91.4269 27.5 91.5369 27.455 91.6369 27.455C91.7569 27.455 91.8619 27.505 91.9519 27.605L94.7869 30.47L93.9619 31.25L91.0969 28.265C91.0469 28.205 90.9869 28.175 90.9169 28.175ZM98.5219 35.825V36.77H90.6619C90.4219 36.77 90.2369 36.705 90.1069 36.575C89.9769 36.445 89.9119 36.255 89.9119 36.005V32.345H91.0669V35.825H98.5219ZM116.131 29.03H113.461V28.115H116.131V26.24H113.461V25.325H116.131V23.465H117.271V31.22H116.131V29.03ZM109.786 30.44C109.136 30.44 108.551 30.31 108.031 30.05C107.521 29.78 107.121 29.4 106.831 28.91C106.541 28.42 106.396 27.845 106.396 27.185C106.396 26.525 106.541 25.95 106.831 25.46C107.121 24.97 107.521 24.595 108.031 24.335C108.541 24.065 109.126 23.93 109.786 23.93C110.446 23.93 111.031 24.065 111.541 24.335C112.051 24.595 112.451 24.97 112.741 25.46C113.031 25.95 113.176 26.525 113.176 27.185C113.176 27.845 113.031 28.42 112.741 28.91C112.451 29.4 112.046 29.78 111.526 30.05C111.016 30.31 110.436 30.44 109.786 30.44ZM109.786 29.525C110.446 29.525 110.976 29.34 111.376 28.97C111.786 28.59 111.991 28.085 111.991 27.455V26.915C111.991 26.285 111.786 25.785 111.376 25.415C110.976 25.035 110.446 24.845 109.786 24.845C109.126 24.845 108.591 25.035 108.181 25.415C107.781 25.785 107.581 26.285 107.581 26.915V27.455C107.581 28.085 107.781 28.59 108.181 28.97C108.591 29.34 109.126 29.525 109.786 29.525ZM117.346 34.34C117.346 34.89 117.186 35.38 116.866 35.81C116.556 36.25 116.086 36.595 115.456 36.845C114.826 37.095 114.056 37.22 113.146 37.22C112.236 37.22 111.461 37.095 110.821 36.845C110.191 36.595 109.716 36.25 109.396 35.81C109.086 35.38 108.931 34.89 108.931 34.34C108.931 33.79 109.086 33.3 109.396 32.87C109.716 32.43 110.191 32.085 110.821 31.835C111.461 31.585 112.236 31.46 113.146 31.46C114.056 31.46 114.826 31.585 115.456 31.835C116.086 32.085 116.556 32.43 116.866 32.87C117.186 33.3 117.346 33.79 117.346 34.34ZM116.131 34.22C116.131 33.7 115.881 33.265 115.381 32.915C114.891 32.565 114.146 32.39 113.146 32.39C112.146 32.39 111.396 32.57 110.896 32.93C110.396 33.28 110.146 33.71 110.146 34.22V34.475C110.146 34.985 110.396 35.415 110.896 35.765C111.396 36.125 112.146 36.305 113.146 36.305C114.146 36.305 114.891 36.125 115.381 35.765C115.881 35.415 116.131 34.985 116.131 34.475V34.22ZM131.695 23.465V31.28H130.555V29.18H127.885V28.25H130.555V26.33H127.885V25.4H130.555V23.465H131.695ZM124.21 30.635C123.55 30.635 122.965 30.5 122.455 30.23C121.945 29.96 121.545 29.575 121.255 29.075C120.965 28.575 120.82 27.985 120.82 27.305C120.82 26.625 120.965 26.035 121.255 25.535C121.545 25.035 121.945 24.655 122.455 24.395C122.965 24.125 123.55 23.99 124.21 23.99C124.87 23.99 125.455 24.125 125.965 24.395C126.475 24.655 126.875 25.035 127.165 25.535C127.455 26.035 127.6 26.625 127.6 27.305C127.6 27.985 127.455 28.575 127.165 29.075C126.875 29.575 126.475 29.96 125.965 30.23C125.455 30.5 124.87 30.635 124.21 30.635ZM124.21 29.72C124.86 29.72 125.385 29.53 125.785 29.15C126.195 28.76 126.4 28.245 126.4 27.605V27.02C126.4 26.38 126.2 25.87 125.8 25.49C125.4 25.1 124.87 24.905 124.21 24.905C123.55 24.905 123.015 25.1 122.605 25.49C122.205 25.87 122.005 26.38 122.005 27.02V27.605C122.005 28.235 122.205 28.745 122.605 29.135C123.015 29.525 123.55 29.72 124.21 29.72ZM123.1 32.09H131.695V37.145H130.57V33.05H123.1V32.09ZM136.504 25.865C136.504 25.135 136.879 24.555 137.629 24.125C138.379 23.685 139.504 23.465 141.004 23.465C142.504 23.465 143.629 23.685 144.379 24.125C145.129 24.555 145.504 25.135 145.504 25.865C145.504 26.595 145.129 27.18 144.379 27.62C143.629 28.06 142.504 28.28 141.004 28.28C139.504 28.28 138.379 28.06 137.629 27.62C136.879 27.18 136.504 26.595 136.504 25.865ZM144.289 25.94V25.775C144.289 25.345 144.014 24.995 143.464 24.725C142.924 24.445 142.104 24.305 141.004 24.305C139.904 24.305 139.079 24.445 138.529 24.725C137.989 24.995 137.719 25.345 137.719 25.775V25.94C137.719 26.37 137.989 26.725 138.529 27.005C139.079 27.275 139.904 27.41 141.004 27.41C142.104 27.41 142.924 27.275 143.464 27.005C144.014 26.725 144.289 26.37 144.289 25.94ZM147.124 29.315V30.275H134.884V29.315H147.124ZM136.789 36.335V33.875H144.184V32.465H136.699V31.535H145.279V34.745H137.884V36.17H145.669V37.1H137.539C137.299 37.1 137.114 37.035 136.984 36.905C136.854 36.775 136.789 36.585 136.789 36.335ZM159.483 24.8H155.403V23.885H164.643V24.8H160.608C160.588 25.5 160.373 26.09 159.963 26.57L160.038 26.6L160.353 26.375C160.493 26.285 160.623 26.24 160.743 26.24C160.843 26.24 160.963 26.27 161.103 26.33L165.198 28.235L164.598 29.06L160.308 26.99C160.178 26.92 160.048 26.885 159.918 26.885C159.778 26.885 159.653 26.92 159.543 26.99C159.153 27.32 158.628 27.655 157.968 27.995C157.308 28.325 156.463 28.69 155.433 29.09L154.848 28.28C156.038 27.83 156.958 27.43 157.608 27.08C158.258 26.72 158.723 26.365 159.003 26.015C159.293 25.665 159.453 25.26 159.483 24.8ZM160.593 31.01V32.21C161.853 32.28 162.813 32.54 163.473 32.99C164.133 33.44 164.463 34.02 164.463 34.73C164.463 35.23 164.293 35.67 163.953 36.05C163.623 36.44 163.123 36.745 162.453 36.965C161.793 37.185 160.983 37.295 160.023 37.295C159.063 37.295 158.248 37.185 157.578 36.965C156.918 36.745 156.418 36.44 156.078 36.05C155.748 35.67 155.583 35.23 155.583 34.73C155.583 34.02 155.913 33.44 156.573 32.99C157.233 32.54 158.193 32.28 159.453 32.21V31.01H153.903V30.05H166.143V31.01H160.593ZM160.023 33.08C158.933 33.08 158.113 33.23 157.563 33.53C157.023 33.83 156.753 34.2 156.753 34.64V34.85C156.753 35.28 157.023 35.645 157.563 35.945C158.113 36.245 158.933 36.395 160.023 36.395C161.113 36.395 161.928 36.245 162.468 35.945C163.008 35.645 163.278 35.28 163.278 34.85V34.64C163.278 34.19 163.008 33.82 162.468 33.53C161.938 33.23 161.123 33.08 160.023 33.08ZM179.562 23.465V31.055H178.422V27.62H175.692V26.69H178.422V23.465H179.562ZM172.422 28.07C172.342 28.07 172.272 28.1 172.212 28.16C171.942 28.55 171.597 28.95 171.177 29.36C170.757 29.77 170.202 30.265 169.512 30.845L168.657 30.125C169.497 29.465 170.147 28.895 170.607 28.415C171.067 27.925 171.397 27.445 171.597 26.975C171.807 26.495 171.912 25.96 171.912 25.37V25.22H169.047V24.26H175.887V25.22H173.052V25.415C173.052 26.265 172.877 27.01 172.527 27.65L172.617 27.695L172.857 27.515C172.967 27.435 173.077 27.395 173.187 27.395C173.317 27.395 173.432 27.44 173.532 27.53L176.322 29.87L175.482 30.62L172.647 28.16C172.567 28.1 172.492 28.07 172.422 28.07ZM171.312 31.925H179.562V37.025H172.062C171.822 37.025 171.637 36.96 171.507 36.83C171.377 36.7 171.312 36.51 171.312 36.26V31.925ZM172.422 36.095H178.437V32.855H172.422V36.095ZM193.986 23.465V31.355H192.846V27.74H190.116V26.81H192.846V23.465H193.986ZM183.936 31.025L183.081 30.305C183.921 29.615 184.571 29.025 185.031 28.535C185.491 28.035 185.821 27.545 186.021 27.065C186.231 26.585 186.336 26.04 186.336 25.43V25.265H183.471V24.305H190.311V25.265H187.476V25.49C187.476 26.34 187.301 27.095 186.951 27.755L187.041 27.8L187.281 27.635C187.391 27.545 187.501 27.5 187.611 27.5C187.741 27.5 187.856 27.545 187.956 27.635L190.746 30.035L189.906 30.785L187.071 28.28C186.991 28.22 186.916 28.19 186.846 28.19C186.766 28.19 186.696 28.22 186.636 28.28C186.376 28.67 186.041 29.07 185.631 29.48C185.221 29.88 184.656 30.395 183.936 31.025ZM185.391 32.165H193.986V37.145H192.861V33.125H185.391V32.165ZM198.57 27.545C198.57 26.875 198.74 26.275 199.08 25.745C199.43 25.205 199.96 24.775 200.67 24.455C201.38 24.135 202.255 23.975 203.295 23.975C204.335 23.975 205.21 24.135 205.92 24.455C206.63 24.775 207.155 25.205 207.495 25.745C207.845 26.275 208.02 26.875 208.02 27.545C208.02 28.215 207.845 28.82 207.495 29.36C207.155 29.9 206.63 30.33 205.92 30.65C205.21 30.97 204.335 31.13 203.295 31.13C202.255 31.13 201.38 30.97 200.67 30.65C199.96 30.33 199.43 29.9 199.08 29.36C198.74 28.82 198.57 28.215 198.57 27.545ZM206.79 27.725V27.38C206.79 26.92 206.665 26.505 206.415 26.135C206.175 25.755 205.79 25.455 205.26 25.235C204.74 25.005 204.085 24.89 203.295 24.89C202.505 24.89 201.845 25.005 201.315 25.235C200.795 25.455 200.41 25.755 200.16 26.135C199.92 26.505 199.8 26.92 199.8 27.38V27.725C199.8 28.435 200.09 29.025 200.67 29.495C201.25 29.965 202.125 30.2 203.295 30.2C204.465 30.2 205.34 29.965 205.92 29.495C206.5 29.025 206.79 28.435 206.79 27.725ZM197.175 34.025H209.415V35H197.175V34.025ZM223.839 34.04V35H211.599V34.04H217.149V31.475H213.399V27.41H220.899V25.205H213.324V24.26H222.039V28.325H214.539V30.53H222.429V31.475H218.289V34.04H223.839ZM233.198 28.61H231.908V23.795H236.258V24.71H233.033V27.695H233.273C234.443 27.695 235.473 27.595 236.363 27.395L236.498 28.28C235.638 28.5 234.538 28.61 233.198 28.61ZM241.733 28.565H237.218V23.795H241.583V24.71H238.343V27.635H241.733V28.565ZM242.858 29.915V30.89H230.618V29.915H242.858ZM233.588 36.05H241.238V36.98H233.213C232.973 36.98 232.788 36.915 232.658 36.785C232.528 36.655 232.463 36.465 232.463 36.215V32.27H241.118V33.2H233.588V36.05ZM256.217 23.465V36.485H255.092V29.105H252.302C252.252 30.445 251.912 31.46 251.282 32.15C250.652 32.83 249.842 33.17 248.852 33.17C247.812 33.17 246.972 32.795 246.332 32.045C245.702 31.295 245.387 30.19 245.387 28.73C245.387 27.26 245.702 26.155 246.332 25.415C246.962 24.665 247.802 24.29 248.852 24.29C249.822 24.29 250.617 24.615 251.237 25.265C251.857 25.915 252.212 26.875 252.302 28.145H255.092V23.465H256.217ZM251.117 28.13C251.117 27.2 250.907 26.49 250.487 26C250.077 25.5 249.532 25.25 248.852 25.25C248.172 25.25 247.627 25.5 247.217 26C246.807 26.49 246.602 27.2 246.602 28.13V29.33C246.602 30.26 246.807 30.975 247.217 31.475C247.627 31.965 248.172 32.21 248.852 32.21C249.532 32.21 250.077 31.965 250.487 31.475C250.907 30.975 251.117 30.26 251.117 29.33V28.13ZM271.706 34.04V35H259.466V34.04H265.016V30.98H261.146V24.155H262.286V26.63H268.871V24.155H269.996V30.98H266.156V34.04H271.706ZM262.286 30.035H268.871V27.575H262.286V30.035ZM285.08 23.465V36.485H283.955V30.935H280.685V32.855H274.58V24.5H280.685V26.345H283.955V23.465H285.08ZM279.59 25.43H275.675V31.925H279.59V25.43ZM283.955 29.99V27.275H280.685V29.99H283.955ZM305.554 27.41V28.37H303.469V33.35H302.329V23.465H303.469V27.41H305.554ZM299.449 30.875H293.359V24.245H294.454V26.585H298.339V24.215H299.449V30.875ZM298.339 27.515H294.454V29.945H298.339V27.515ZM296.434 35.825H303.769V36.77H296.044C295.804 36.77 295.619 36.705 295.489 36.575C295.359 36.445 295.294 36.255 295.294 36.005V32.45H296.434V35.825ZM308.938 26.135C308.938 25.355 309.318 24.725 310.078 24.245C310.838 23.755 311.963 23.51 313.453 23.51C314.943 23.51 316.068 23.755 316.828 24.245C317.588 24.725 317.968 25.355 317.968 26.135C317.968 26.925 317.588 27.565 316.828 28.055C316.078 28.535 314.953 28.775 313.453 28.775C311.953 28.775 310.823 28.535 310.063 28.055C309.313 27.565 308.938 26.925 308.938 26.135ZM316.753 26.24V26.03C316.753 25.56 316.478 25.17 315.928 24.86C315.378 24.55 314.553 24.395 313.453 24.395C312.353 24.395 311.528 24.55 310.978 24.86C310.428 25.17 310.153 25.56 310.153 26.03V26.24C310.153 26.71 310.428 27.1 310.978 27.41C311.528 27.72 312.353 27.875 313.453 27.875C314.553 27.875 315.378 27.72 315.928 27.41C316.478 27.1 316.753 26.71 316.753 26.24ZM307.333 29.915H319.573V30.89H307.333V29.915ZM309.013 34.67C309.013 34.17 309.178 33.725 309.508 33.335C309.848 32.945 310.348 32.64 311.008 32.42C311.678 32.2 312.493 32.09 313.453 32.09C314.413 32.09 315.223 32.2 315.883 32.42C316.553 32.64 317.053 32.945 317.383 33.335C317.723 33.725 317.893 34.17 317.893 34.67C317.893 35.46 317.513 36.095 316.753 36.575C315.993 37.055 314.893 37.295 313.453 37.295C312.013 37.295 310.913 37.055 310.153 36.575C309.393 36.095 309.013 35.46 309.013 34.67ZM316.693 34.79V34.58C316.693 34.13 316.423 33.755 315.883 33.455C315.353 33.145 314.543 32.99 313.453 32.99C312.373 32.99 311.558 33.145 311.008 33.455C310.468 33.755 310.198 34.13 310.198 34.58V34.79C310.198 35.24 310.468 35.615 311.008 35.915C311.558 36.225 312.373 36.38 313.453 36.38C314.543 36.38 315.353 36.225 315.883 35.915C316.423 35.615 316.693 35.24 316.693 34.79ZM331.837 29.855H329.842V28.925H331.837V27.245H329.842V26.33H331.837V23.465H332.977V31.895H331.837V29.855ZM327.817 24.725H323.797V23.78H327.817V24.725ZM325.702 31.385C325.092 31.385 324.557 31.29 324.097 31.1C323.637 30.91 323.282 30.645 323.032 30.305C322.782 29.965 322.657 29.58 322.657 29.15C322.657 28.72 322.762 28.35 322.972 28.04C323.182 27.72 323.497 27.47 323.917 27.29V27.2H321.847V26.285H329.362V27.2H327.502V27.29C327.922 27.47 328.237 27.72 328.447 28.04C328.657 28.35 328.762 28.72 328.762 29.15C328.762 29.58 328.637 29.965 328.387 30.305C328.137 30.645 327.777 30.91 327.307 31.1C326.847 31.29 326.312 31.385 325.702 31.385ZM325.567 30.44H325.852C326.392 30.44 326.837 30.305 327.187 30.035C327.537 29.755 327.712 29.37 327.712 28.88C327.712 28.38 327.537 27.995 327.187 27.725C326.847 27.445 326.402 27.305 325.852 27.305H325.567C325.017 27.305 324.567 27.445 324.217 27.725C323.877 27.995 323.707 28.38 323.707 28.88C323.707 29.37 323.882 29.755 324.232 30.035C324.582 30.305 325.027 30.44 325.567 30.44ZM333.067 34.7C333.067 35.47 332.702 36.09 331.972 36.56C331.252 37.03 330.212 37.265 328.852 37.265C327.482 37.265 326.432 37.03 325.702 36.56C324.982 36.09 324.622 35.47 324.622 34.7C324.622 34.21 324.777 33.775 325.087 33.395C325.407 33.015 325.882 32.715 326.512 32.495C327.152 32.275 327.932 32.165 328.852 32.165C329.762 32.165 330.532 32.275 331.162 32.495C331.802 32.715 332.277 33.015 332.587 33.395C332.907 33.775 333.067 34.21 333.067 34.7ZM331.852 34.61C331.852 34.18 331.602 33.82 331.102 33.53C330.602 33.23 329.852 33.08 328.852 33.08C327.842 33.08 327.082 33.23 326.572 33.53C326.072 33.82 325.822 34.18 325.822 34.61V34.82C325.822 35.25 326.072 35.61 326.572 35.9C327.082 36.2 327.842 36.35 328.852 36.35C329.852 36.35 330.602 36.2 331.102 35.9C331.602 35.61 331.852 35.25 331.852 34.82V34.61ZM337.801 25.865C337.801 25.135 338.176 24.555 338.926 24.125C339.676 23.685 340.801 23.465 342.301 23.465C343.801 23.465 344.926 23.685 345.676 24.125C346.426 24.555 346.801 25.135 346.801 25.865C346.801 26.595 346.426 27.18 345.676 27.62C344.926 28.06 343.801 28.28 342.301 28.28C340.801 28.28 339.676 28.06 338.926 27.62C338.176 27.18 337.801 26.595 337.801 25.865ZM345.586 25.94V25.775C345.586 25.345 345.311 24.995 344.761 24.725C344.221 24.445 343.401 24.305 342.301 24.305C341.201 24.305 340.376 24.445 339.826 24.725C339.286 24.995 339.016 25.345 339.016 25.775V25.94C339.016 26.37 339.286 26.725 339.826 27.005C340.376 27.275 341.201 27.41 342.301 27.41C343.401 27.41 344.221 27.275 344.761 27.005C345.311 26.725 345.586 26.37 345.586 25.94ZM348.421 29.315V30.275H336.181V29.315H348.421ZM338.086 36.335V33.875H345.481V32.465H337.996V31.535H346.576V34.745H339.181V36.17H346.966V37.1H338.836C338.596 37.1 338.411 37.035 338.281 36.905C338.151 36.775 338.086 36.585 338.086 36.335ZM367.44 31.07H361.875V36.965H360.735V31.07H355.2V30.11H363.975C364.335 28.54 364.52 26.865 364.53 25.085V25.01H356.82V24.05H365.64V25.01C365.64 26.74 365.47 28.44 365.13 30.11H367.44V31.07ZM379.704 30.275H377.709V29.345H379.704V27.47H377.709V26.54H379.704V23.465H380.859V33.5H379.704V30.275ZM375.654 24.83H371.679V23.87H375.654V24.83ZM373.569 31.955C372.959 31.955 372.424 31.85 371.964 31.64C371.504 31.43 371.149 31.14 370.899 30.77C370.649 30.4 370.524 29.98 370.524 29.51C370.524 29.03 370.634 28.615 370.854 28.265C371.074 27.905 371.404 27.63 371.844 27.44V27.365H369.714V26.435H377.229V27.365H375.309V27.455C375.749 27.645 376.079 27.915 376.299 28.265C376.519 28.615 376.629 29.03 376.629 29.51C376.629 29.98 376.504 30.4 376.254 30.77C376.004 31.14 375.644 31.43 375.174 31.64C374.714 31.85 374.179 31.955 373.569 31.955ZM373.449 30.995H373.704C374.254 30.995 374.699 30.84 375.039 30.53C375.389 30.22 375.564 29.79 375.564 29.24C375.564 28.69 375.389 28.265 375.039 27.965C374.699 27.655 374.254 27.5 373.704 27.5H373.449C372.889 27.5 372.439 27.655 372.099 27.965C371.759 28.265 371.589 28.69 371.589 29.24C371.589 29.79 371.759 30.22 372.099 30.53C372.449 30.84 372.899 30.995 373.449 30.995ZM381.129 35.9V36.845H373.239C372.999 36.845 372.814 36.78 372.684 36.65C372.554 36.52 372.489 36.33 372.489 36.08V33.08H373.629V35.9H381.129ZM396.678 29.795H394.563V36.515H393.423V23.495H394.563V28.835H396.678V29.795ZM390.228 25.175H385.968V24.2H390.228V25.175ZM383.973 26.975H391.998V27.905H389.778V27.995C390.688 28.445 391.143 29.31 391.143 30.59C391.143 31.24 391.008 31.805 390.738 32.285C390.468 32.755 390.093 33.115 389.613 33.365C389.143 33.615 388.618 33.74 388.038 33.74C387.458 33.74 386.928 33.615 386.448 33.365C385.978 33.115 385.608 32.755 385.338 32.285C385.068 31.805 384.933 31.24 384.933 30.59C384.933 29.31 385.388 28.445 386.298 27.995V27.905H383.973V26.975ZM390.033 30.095C390.033 29.425 389.853 28.915 389.493 28.565C389.133 28.205 388.648 28.025 388.038 28.025C387.438 28.025 386.953 28.205 386.583 28.565C386.223 28.925 386.043 29.435 386.043 30.095V30.71C386.043 31.36 386.228 31.87 386.598 32.24C386.968 32.6 387.448 32.78 388.038 32.78C388.628 32.78 389.108 32.6 389.478 32.24C389.848 31.87 390.033 31.36 390.033 30.71V30.095ZM408.492 23.465H409.632V36.485H408.492V23.465ZM399.057 32.9C400.437 32.19 401.492 31.54 402.222 30.95C402.952 30.36 403.462 29.735 403.752 29.075C404.052 28.415 404.202 27.6 404.202 26.63V25.505H399.432V24.53H405.342V26.615C405.342 27.725 405.172 28.665 404.832 29.435C404.502 30.205 403.937 30.925 403.137 31.595C402.347 32.255 401.212 32.98 399.732 33.77L399.057 32.9ZM428.666 23.465V36.485H427.541V23.465H428.666ZM418.271 26.645C418.271 26.095 418.421 25.615 418.721 25.205C419.031 24.785 419.456 24.465 419.996 24.245C420.536 24.015 421.146 23.9 421.826 23.9C422.506 23.9 423.111 24.015 423.641 24.245C424.181 24.465 424.601 24.785 424.901 25.205C425.211 25.615 425.366 26.095 425.366 26.645C425.366 27.205 425.211 27.695 424.901 28.115C424.601 28.525 424.181 28.845 423.641 29.075C423.111 29.295 422.506 29.405 421.826 29.405C421.136 29.405 420.521 29.295 419.981 29.075C419.451 28.845 419.031 28.525 418.721 28.115C418.421 27.695 418.271 27.205 418.271 26.645ZM419.441 26.795C419.441 27.305 419.661 27.715 420.101 28.025C420.541 28.335 421.116 28.49 421.826 28.49C422.526 28.49 423.091 28.335 423.521 28.025C423.961 27.715 424.181 27.305 424.181 26.795V26.525C424.181 26.005 423.961 25.59 423.521 25.28C423.091 24.97 422.526 24.815 421.826 24.815C421.116 24.815 420.541 24.97 420.101 25.28C419.661 25.59 419.441 26.005 419.441 26.525V26.795ZM426.566 31.235C425.326 31.425 423.951 31.565 422.441 31.655V36.365H421.301V31.715C419.971 31.765 418.741 31.79 417.611 31.79L417.521 30.83C419.221 30.83 420.861 30.79 422.441 30.71C424.021 30.63 425.361 30.505 426.461 30.335L426.566 31.235ZM443.48 23.465V36.485H442.37V29.69H440.42V36.125H439.325V23.69H440.42V28.745H442.37V23.465H443.48ZM437.255 25.415H433.4V24.485H437.255V25.415ZM431.825 27.095H438.605V27.995H436.82V28.07C437.61 28.5 438.005 29.315 438.005 30.515C438.005 31.455 437.75 32.19 437.24 32.72C436.74 33.24 436.08 33.5 435.26 33.5C434.45 33.5 433.79 33.24 433.28 32.72C432.78 32.19 432.53 31.455 432.53 30.515C432.53 29.315 432.92 28.5 433.7 28.07V27.995H431.825V27.095ZM436.925 29.975C436.925 29.375 436.775 28.915 436.475 28.595C436.175 28.275 435.77 28.115 435.26 28.115C434.75 28.115 434.345 28.275 434.045 28.595C433.755 28.915 433.61 29.375 433.61 29.975V30.695C433.61 31.285 433.76 31.745 434.06 32.075C434.37 32.405 434.77 32.57 435.26 32.57C435.75 32.57 436.15 32.405 436.46 32.075C436.77 31.745 436.925 31.285 436.925 30.695V29.975ZM462.109 23.465V36.485H460.984V29.105H458.194C458.144 30.445 457.804 31.46 457.174 32.15C456.544 32.83 455.734 33.17 454.744 33.17C453.704 33.17 452.864 32.795 452.224 32.045C451.594 31.295 451.279 30.19 451.279 28.73C451.279 27.26 451.594 26.155 452.224 25.415C452.854 24.665 453.694 24.29 454.744 24.29C455.714 24.29 456.509 24.615 457.129 25.265C457.749 25.915 458.104 26.875 458.194 28.145H460.984V23.465H462.109ZM457.009 28.13C457.009 27.2 456.799 26.49 456.379 26C455.969 25.5 455.424 25.25 454.744 25.25C454.064 25.25 453.519 25.5 453.109 26C452.699 26.49 452.494 27.2 452.494 28.13V29.33C452.494 30.26 452.699 30.975 453.109 31.475C453.519 31.965 454.064 32.21 454.744 32.21C455.424 32.21 455.969 31.965 456.379 31.475C456.799 30.975 457.009 30.26 457.009 29.33V28.13ZM475.588 27.005V23.465H476.698V33.35H475.588V27.95H473.128V27.005H475.588ZM469.468 30.65C468.758 30.86 467.858 30.965 466.768 30.965H465.853V24.41H469.153V25.325H466.948V30.035C467.878 30.035 468.673 29.955 469.333 29.795L469.468 30.65ZM471.028 30.995H469.903V24.41H473.458V25.325H470.998V30.065H471.118C472.378 30.065 473.338 29.98 473.998 29.81L474.133 30.695C473.793 30.785 473.348 30.86 472.798 30.92C472.258 30.97 471.668 30.995 471.028 30.995ZM476.968 35.825V36.77H469.018C468.778 36.77 468.593 36.705 468.463 36.575C468.333 36.445 468.268 36.255 468.268 36.005V32.3H469.408V35.825H476.968ZM496.617 31.07H491.052V36.965H489.912V31.07H484.377V30.11H493.152C493.512 28.54 493.697 26.865 493.707 25.085V25.01H485.997V24.05H494.817V25.01C494.817 26.74 494.647 28.44 494.307 30.11H496.617V31.07ZM504.366 25.31H500.181V24.35H509.676V25.31H505.521C505.521 25.8 505.466 26.24 505.356 26.63C505.246 27.02 505.061 27.39 504.801 27.74L504.846 27.755L505.131 27.545C505.251 27.435 505.391 27.38 505.551 27.38C505.651 27.38 505.761 27.41 505.881 27.47L510.276 29.945L509.646 30.83L505.131 28.19C504.971 28.11 504.831 28.07 504.711 28.07C504.611 28.07 504.521 28.095 504.441 28.145C504.051 28.565 503.516 28.995 502.836 29.435C502.156 29.875 501.271 30.355 500.181 30.875L499.566 30.035C500.816 29.445 501.781 28.91 502.461 28.43C503.151 27.94 503.636 27.455 503.916 26.975C504.206 26.485 504.356 25.93 504.366 25.31ZM511.041 34.04V35H498.801V34.04H504.351V30.8H505.491V34.04H511.041ZM525.855 29.555H523.695V36.515H522.555V23.495H523.695V28.595H525.855V29.555ZM513.87 24.53H519.705V26.615C519.705 27.725 519.54 28.665 519.21 29.435C518.88 30.205 518.32 30.925 517.53 31.595C516.75 32.255 515.63 32.98 514.17 33.77L513.495 32.915C514.855 32.195 515.895 31.54 516.615 30.95C517.335 30.36 517.84 29.735 518.13 29.075C518.42 28.415 518.565 27.6 518.565 26.63V25.505H513.87V24.53ZM543.419 23.465V36.485H542.294V23.465H543.419ZM538.754 24.89H534.734V23.975H538.754V24.89ZM536.174 27.14H533.219V26.225H540.224V27.14H537.299C537.269 27.78 537.084 28.35 536.744 28.85L536.819 28.895L537.104 28.7C537.224 28.61 537.344 28.565 537.464 28.565C537.584 28.565 537.694 28.6 537.794 28.67L540.524 30.365L539.729 31.1L536.894 29.27C536.834 29.22 536.749 29.195 536.639 29.195C536.529 29.195 536.444 29.22 536.384 29.27C536.114 29.56 535.764 29.865 535.334 30.185C534.904 30.495 534.344 30.855 533.654 31.265L532.859 30.56C533.689 30.1 534.334 29.695 534.794 29.345C535.254 28.985 535.589 28.635 535.799 28.295C536.019 27.945 536.144 27.56 536.174 27.14ZM541.214 32.6L541.319 33.5C540.189 33.68 538.829 33.82 537.239 33.92C535.659 34.01 534.034 34.055 532.364 34.055L532.259 33.095C533.439 33.095 534.739 33.07 536.159 33.02V30.89H537.254V32.975C538.874 32.875 540.194 32.75 541.214 32.6ZM556.763 27.59H553.898V26.63H556.763V23.465H557.903V33.35H556.763V27.59ZM550.628 28.16C550.558 28.16 550.498 28.19 550.448 28.25C550.198 28.71 549.858 29.185 549.428 29.675C548.998 30.165 548.423 30.765 547.703 31.475L546.863 30.725C547.713 29.925 548.363 29.24 548.813 28.67C549.263 28.1 549.588 27.535 549.788 26.975C549.998 26.405 550.103 25.76 550.103 25.04V24.095H551.258V25.085C551.258 26.085 551.083 26.965 550.733 27.725L550.808 27.785L551.048 27.575C551.158 27.485 551.263 27.44 551.363 27.44C551.473 27.44 551.578 27.49 551.678 27.59L554.528 30.455L553.703 31.235L550.823 28.25C550.763 28.19 550.698 28.16 550.628 28.16ZM558.173 35.825V36.77H550.313C550.073 36.77 549.888 36.705 549.758 36.575C549.628 36.445 549.563 36.255 549.563 36.005V32.285H550.718V35.825H558.173ZM572.327 23.465V30.29H571.172V23.465H572.327ZM561.527 26.9C561.527 26.27 561.672 25.72 561.962 25.25C562.262 24.78 562.672 24.42 563.192 24.17C563.722 23.91 564.317 23.78 564.977 23.78C565.637 23.78 566.227 23.91 566.747 24.17C567.277 24.42 567.687 24.78 567.977 25.25C568.277 25.72 568.427 26.27 568.427 26.9C568.427 27.53 568.277 28.08 567.977 28.55C567.687 29.02 567.277 29.385 566.747 29.645C566.227 29.895 565.637 30.02 564.977 30.02C564.317 30.02 563.722 29.895 563.192 29.645C562.672 29.385 562.262 29.02 561.962 28.55C561.672 28.08 561.527 27.53 561.527 26.9ZM567.212 27.125V26.675C567.212 26.075 567.007 25.6 566.597 25.25C566.187 24.89 565.647 24.71 564.977 24.71C564.307 24.71 563.762 24.89 563.342 25.25C562.932 25.61 562.727 26.085 562.727 26.675V27.125C562.727 27.715 562.937 28.19 563.357 28.55C563.777 28.91 564.317 29.09 564.977 29.09C565.637 29.09 566.172 28.91 566.582 28.55C567.002 28.19 567.212 27.715 567.212 27.125ZM563.972 36.335V33.62H571.172V32.075H563.882V31.115H572.327V34.58H565.127V36.125H572.687V37.1H564.722C564.482 37.1 564.297 37.035 564.167 36.905C564.037 36.775 563.972 36.585 563.972 36.335ZM586.676 23.465V36.485H585.536V23.465H586.676ZM580.406 28.97C580.546 28.97 580.661 29.025 580.751 29.135L583.691 32.585L582.836 33.32L579.866 29.75C579.816 29.69 579.756 29.66 579.686 29.66C579.626 29.66 579.571 29.69 579.521 29.75C579.251 30.3 578.896 30.86 578.456 31.43C578.016 32 577.416 32.7 576.656 33.53L575.801 32.81C576.671 31.9 577.341 31.11 577.811 30.44C578.291 29.77 578.636 29.105 578.846 28.445C579.056 27.775 579.161 27.015 579.161 26.165V25.595H576.206V24.635H583.241V25.595H580.301V26.21C580.301 27.34 580.126 28.345 579.776 29.225L579.851 29.27L580.076 29.09C580.186 29.01 580.296 28.97 580.406 28.97ZM601.505 23.465V36.485H600.41V23.465H601.505ZM597.455 23.69H598.52V36.125H597.455V29.3H596.015C595.965 30.6 595.675 31.58 595.145 32.24C594.615 32.89 593.915 33.215 593.045 33.215C592.115 33.215 591.38 32.855 590.84 32.135C590.3 31.405 590.03 30.32 590.03 28.88C590.03 27.44 590.3 26.36 590.84 25.64C591.38 24.91 592.115 24.545 593.045 24.545C593.905 24.545 594.595 24.865 595.115 25.505C595.645 26.145 595.945 27.095 596.015 28.355H597.455V23.69ZM594.875 28.16C594.875 27.28 594.705 26.61 594.365 26.15C594.035 25.69 593.595 25.46 593.045 25.46C592.485 25.46 592.035 25.69 591.695 26.15C591.365 26.61 591.2 27.28 591.2 28.16V29.615C591.2 30.485 591.365 31.155 591.695 31.625C592.035 32.085 592.485 32.315 593.045 32.315C593.595 32.315 594.035 32.085 594.365 31.625C594.705 31.155 594.875 30.485 594.875 29.615V28.16ZM620.524 23.465V36.485H619.414V29.495H617.359V36.125H616.264V23.69H617.359V28.55H619.414V23.465H620.524ZM615.124 31.7L615.274 32.6C614.064 32.91 612.569 33.065 610.789 33.065H609.559V24.8H614.404V25.76H610.654V32.12H611.059C612.699 32.12 614.054 31.98 615.124 31.7ZM634.948 23.465V36.485H633.838V29.69H631.888V36.125H630.793V23.69H631.888V28.745H633.838V23.465H634.948ZM628.723 25.415H624.868V24.485H628.723V25.415ZM623.293 27.095H630.073V27.995H628.288V28.07C629.078 28.5 629.473 29.315 629.473 30.515C629.473 31.455 629.218 32.19 628.708 32.72C628.208 33.24 627.548 33.5 626.728 33.5C625.918 33.5 625.258 33.24 624.748 32.72C624.248 32.19 623.998 31.455 623.998 30.515C623.998 29.315 624.388 28.5 625.168 28.07V27.995H623.293V27.095ZM628.393 29.975C628.393 29.375 628.243 28.915 627.943 28.595C627.643 28.275 627.238 28.115 626.728 28.115C626.218 28.115 625.813 28.275 625.513 28.595C625.223 28.915 625.078 29.375 625.078 29.975V30.695C625.078 31.285 625.228 31.745 625.528 32.075C625.838 32.405 626.238 32.57 626.728 32.57C627.218 32.57 627.618 32.405 627.928 32.075C628.238 31.745 628.393 31.285 628.393 30.695V29.975ZM651.852 25.52H643.932V24.545H652.977V25.61C652.977 27.83 652.762 29.945 652.332 31.955L651.222 31.775C651.642 29.745 651.852 27.705 651.852 25.655V25.52ZM654.642 34.04V35H642.402V34.04H647.202V29.225H648.327V34.04H654.642ZM668.061 23.465V33.35H666.906V23.465H668.061ZM663.846 24.305V30.68H657.591V24.305H663.846ZM662.706 25.25H658.746V29.735H662.706V25.25ZM659.721 36.005V32.27H660.876V35.825H668.331V36.77H660.471C660.231 36.77 660.046 36.705 659.916 36.575C659.786 36.445 659.721 36.255 659.721 36.005ZM682.815 23.465V36.485H681.705V29.69H679.755V36.125H678.66V23.69H679.755V28.745H681.705V23.465H682.815ZM676.59 25.415H672.735V24.485H676.59V25.415ZM671.16 27.095H677.94V27.995H676.155V28.07C676.945 28.5 677.34 29.315 677.34 30.515C677.34 31.455 677.085 32.19 676.575 32.72C676.075 33.24 675.415 33.5 674.595 33.5C673.785 33.5 673.125 33.24 672.615 32.72C672.115 32.19 671.865 31.455 671.865 30.515C671.865 29.315 672.255 28.5 673.035 28.07V27.995H671.16V27.095ZM676.26 29.975C676.26 29.375 676.11 28.915 675.81 28.595C675.51 28.275 675.105 28.115 674.595 28.115C674.085 28.115 673.68 28.275 673.38 28.595C673.09 28.915 672.945 29.375 672.945 29.975V30.695C672.945 31.285 673.095 31.745 673.395 32.075C673.705 32.405 674.105 32.57 674.595 32.57C675.085 32.57 675.485 32.405 675.795 32.075C676.105 31.745 676.26 31.285 676.26 30.695V29.975ZM697.914 34.04V35H685.674V34.04H691.224V30.98H687.354V24.155H688.494V26.63H695.079V24.155H696.204V30.98H692.364V34.04H697.914ZM688.494 30.035H695.079V27.575H688.494V30.035ZM710.118 23.465H711.258V36.485H710.118V23.465ZM700.683 32.9C702.063 32.19 703.118 31.54 703.848 30.95C704.578 30.36 705.088 29.735 705.378 29.075C705.678 28.415 705.828 27.6 705.828 26.63V25.505H701.058V24.53H706.968V26.615C706.968 27.725 706.798 28.665 706.458 29.435C706.128 30.205 705.563 30.925 704.763 31.595C703.973 32.255 702.838 32.98 701.358 33.77L700.683 32.9Z" fill="#1B1C25"/>
</svg>
