<svg width="95" height="75" viewBox="0 0 95 75" fill="none" xmlns="http://www.w3.org/2000/svg">
<path d="M2.04148 67V53.04H8.04148C9.33482 53.04 10.3348 53.42 11.0415 54.18C11.7482 54.94 12.1015 55.96 12.1015 57.24C12.1015 58.52 11.7482 59.54 11.0415 60.3C10.3348 61.06 9.33482 61.44 8.04148 61.44H4.30148V67H2.04148ZM4.30148 59.46H7.90148C8.47482 59.46 8.92148 59.3133 9.24148 59.02C9.56148 58.7133 9.72148 58.28 9.72148 57.72V56.76C9.72148 56.2 9.56148 55.7733 9.24148 55.48C8.92148 55.1733 8.47482 55.02 7.90148 55.02H4.30148V59.46ZM18.2405 67H15.9805V53.04H22.0005C23.2539 53.04 24.2405 53.42 24.9605 54.18C25.6805 54.9267 26.0405 55.9467 26.0405 57.24C26.0405 58.24 25.8072 59.0733 25.3405 59.74C24.8872 60.3933 24.2139 60.8533 23.3205 61.12L26.3405 67H23.8205L21.0205 61.36H18.2405V67ZM21.8405 59.46C22.4139 59.46 22.8605 59.3133 23.1805 59.02C23.5005 58.7133 23.6605 58.28 23.6605 57.72V56.76C23.6605 56.2 23.5005 55.7733 23.1805 55.48C22.8605 55.1733 22.4139 55.02 21.8405 55.02H18.2405V59.46H21.8405ZM35.6907 67.24C34.784 67.24 33.9574 67.0867 33.2107 66.78C32.4774 66.46 31.844 66 31.3107 65.4C30.7907 64.7867 30.384 64.0333 30.0907 63.14C29.8107 62.2333 29.6707 61.1933 29.6707 60.02C29.6707 58.8467 29.8107 57.8133 30.0907 56.92C30.384 56.0133 30.7907 55.26 31.3107 54.66C31.844 54.0467 32.4774 53.5867 33.2107 53.28C33.9574 52.96 34.784 52.8 35.6907 52.8C36.5974 52.8 37.4174 52.96 38.1507 53.28C38.8974 53.5867 39.5307 54.0467 40.0507 54.66C40.584 55.26 40.9907 56.0133 41.2707 56.92C41.564 57.8133 41.7107 58.8467 41.7107 60.02C41.7107 61.1933 41.564 62.2333 41.2707 63.14C40.9907 64.0333 40.584 64.7867 40.0507 65.4C39.5307 66 38.8974 66.46 38.1507 66.78C37.4174 67.0867 36.5974 67.24 35.6907 67.24ZM35.6907 65.22C36.224 65.22 36.7107 65.1267 37.1507 64.94C37.604 64.7533 37.984 64.4867 38.2907 64.14C38.6107 63.78 38.8574 63.3467 39.0307 62.84C39.204 62.3333 39.2907 61.76 39.2907 61.12V58.92C39.2907 58.28 39.204 57.7067 39.0307 57.2C38.8574 56.6933 38.6107 56.2667 38.2907 55.92C37.984 55.56 37.604 55.2867 37.1507 55.1C36.7107 54.9133 36.224 54.82 35.6907 54.82C35.144 54.82 34.6507 54.9133 34.2107 55.1C33.7707 55.2867 33.3907 55.56 33.0707 55.92C32.764 56.2667 32.524 56.6933 32.3507 57.2C32.1774 57.7067 32.0907 58.28 32.0907 58.92V61.12C32.0907 61.76 32.1774 62.3333 32.3507 62.84C32.524 63.3467 32.764 63.78 33.0707 64.14C33.3907 64.4867 33.7707 64.7533 34.2107 64.94C34.6507 65.1267 35.144 65.22 35.6907 65.22ZM52.7593 53.04V63.2C52.7593 63.8133 52.6593 64.3667 52.4593 64.86C52.2593 65.3533 51.9726 65.78 51.5993 66.14C51.2393 66.4867 50.7926 66.76 50.2593 66.96C49.7393 67.1467 49.1593 67.24 48.5193 67.24C47.306 67.24 46.346 66.92 45.6393 66.28C44.946 65.6267 44.506 64.78 44.3193 63.74L46.3993 63.28C46.5193 63.88 46.746 64.3533 47.0793 64.7C47.426 65.0467 47.906 65.22 48.5193 65.22C49.1193 65.22 49.5993 65.0333 49.9593 64.66C50.3193 64.2867 50.4993 63.72 50.4993 62.96V54.92H45.9393V53.04H52.7593ZM57.5243 67V53.04H66.4643V55.04H59.7843V58.92H65.8443V60.92H59.7843V65H66.4643V67H57.5243ZM76.0198 67.24C74.1931 67.24 72.7598 66.6267 71.7198 65.4C70.6798 64.16 70.1598 62.3667 70.1598 60.02C70.1598 58.8467 70.2931 57.8133 70.5598 56.92C70.8264 56.0267 71.2131 55.2733 71.7198 54.66C72.2264 54.0467 72.8398 53.5867 73.5598 53.28C74.2931 52.96 75.1131 52.8 76.0198 52.8C77.2331 52.8 78.2464 53.0667 79.0598 53.6C79.8864 54.1333 80.5331 54.92 80.9998 55.96L79.0998 57C78.8598 56.3333 78.4864 55.8067 77.9798 55.42C77.4864 55.02 76.8331 54.82 76.0198 54.82C74.9398 54.82 74.0931 55.1867 73.4798 55.92C72.8664 56.6533 72.5598 57.6667 72.5598 58.96V61.08C72.5598 62.3733 72.8664 63.3867 73.4798 64.12C74.0931 64.8533 74.9398 65.22 76.0198 65.22C76.8598 65.22 77.5398 65.0067 78.0598 64.58C78.5931 64.14 78.9864 63.58 79.2398 62.9L81.0598 64C80.5931 65.0133 79.9398 65.8067 79.0998 66.38C78.2598 66.9533 77.2331 67.24 76.0198 67.24ZM90.0355 55.04V67H87.7755V55.04H83.6155V53.04H94.1955V55.04H90.0355Z" fill="#1B1C25"/>
<path d="M3.64 33V30.18H9.52V14.52H9.28L4.42 19.71L2.35 17.85L7.69 12.06H12.85V30.18H17.95V33H3.64Z" fill="#1B1C25"/>
</svg>
