<svg width="177" height="37" viewBox="0 0 177 37" fill="none" xmlns="http://www.w3.org/2000/svg">
<path d="M165.284 11.012C165.284 11.012 165.26 10.9949 165.25 10.988C165.28 10.9265 165.315 10.8582 165.338 10.8035C165.513 10.4173 165.615 10.055 165.649 9.71665C165.724 8.96476 165.373 8.1992 164.59 7.41654C164.006 6.83212 163.467 6.44592 162.971 6.2682C162.746 6.18959 162.524 6.16225 162.302 6.19301C162.08 6.22377 161.906 6.29896 161.783 6.42541C161.687 6.52111 161.625 6.63389 161.598 6.76718C161.571 6.89705 161.584 7.01325 161.636 7.11237C161.813 7.43363 161.895 7.66604 161.885 7.813C161.875 7.95996 161.755 8.18211 161.526 8.48286C161.386 8.664 161.26 8.84172 161.151 9.00919C160.068 8.71185 158.927 8.5478 157.759 8.5478C155.552 8.5478 153.496 9.12539 151.764 10.1165L158.958 17.3108L165.284 11.012V11.012Z" fill="#EBECF1"/>
<path d="M168.672 21.781C169.003 21.8698 169.352 21.9211 169.717 21.9211C171.709 21.9211 173.475 20.4754 173.475 18.6914C173.475 16.9073 171.709 15.4617 169.717 15.4617C169.403 15.4617 169.102 15.5027 168.812 15.5676C168.337 14.2962 167.569 13.1308 166.582 12.1294L160.17 18.5137L166.551 24.8945C167.463 23.982 168.19 22.9259 168.675 21.7776L168.672 21.781Z" fill="#EBECF1"/>
<path d="M162.971 30.732C163.463 30.5509 164.003 30.1681 164.59 29.5837C165.373 28.801 165.724 28.0355 165.649 27.2836C165.619 26.9452 165.513 26.583 165.338 26.1968C165.315 26.1421 165.28 26.0771 165.25 26.0156L158.958 19.7236L151.767 26.8837C153.496 27.8748 155.552 28.4524 157.759 28.4524C158.927 28.4524 160.068 28.2884 161.151 27.991C161.263 28.1585 161.386 28.3362 161.526 28.5174C161.755 28.8181 161.875 29.0403 161.885 29.1872C161.895 29.3342 161.813 29.5666 161.636 29.8879C161.584 29.987 161.571 30.1032 161.598 30.2331C161.625 30.3629 161.687 30.4757 161.783 30.5748C161.906 30.6979 162.08 30.7765 162.302 30.8072C162.524 30.838 162.749 30.8106 162.971 30.732V30.732Z" fill="#EBECF1"/>
<path d="M146.227 28.62C146.336 28.5448 146.411 28.4559 146.445 28.3466C146.548 27.9945 146.654 27.769 146.763 27.6733C146.872 27.5776 147.115 27.5024 147.49 27.4511C148.392 27.3315 149.062 27.1333 149.499 26.8564C149.844 26.6377 150.117 26.3164 150.322 25.8995L150.329 25.9063L157.748 18.5173L150.326 11.0974L150.326 11.1009C150.114 10.6839 149.84 10.3626 149.495 10.1439C149.058 9.86706 148.389 9.66883 147.487 9.54922C147.111 9.49795 146.869 9.42618 146.759 9.32707C146.65 9.23137 146.541 9.0058 146.442 8.65378C146.408 8.54441 146.336 8.45555 146.223 8.38036C146.114 8.30517 145.991 8.271 145.854 8.271C145.68 8.271 145.502 8.33935 145.321 8.47606C145.144 8.61277 145.004 8.78707 144.901 9.00238C144.679 9.47744 144.57 10.1302 144.57 10.9607C144.57 12.0681 144.864 12.8575 145.444 13.336C145.704 13.5513 146.035 13.7359 146.431 13.8863C146.729 13.9991 147.145 14.1255 147.689 14.2691C147.012 15.5541 146.63 16.9895 146.63 18.507C146.63 20.0245 147.012 21.4565 147.689 22.7449C147.145 22.8885 146.729 23.0149 146.431 23.1277C146.035 23.2781 145.704 23.4627 145.444 23.678C144.86 24.153 144.57 24.9459 144.57 26.0533C144.57 26.8804 144.679 27.5331 144.901 28.0116C145.004 28.2269 145.144 28.4047 145.321 28.5379C145.499 28.6747 145.677 28.743 145.854 28.743C145.991 28.743 146.114 28.7054 146.223 28.6336L146.227 28.62Z" fill="#EBECF1"/>
<path d="M11.114 14.2348H1.52898V13.2748H11.114V14.2348ZM12.449 23.0398V23.9998H0.208984V23.0398H5.75898V19.8898H1.40898V18.9448H3.79398L3.28398 15.4948L4.43898 15.3748L4.84398 18.9448H7.79899L8.20398 15.3748L9.37399 15.4948L8.86398 18.9448H11.249V19.8898H6.89898V23.0398H12.449Z" fill="#1B1C25"/>
<path d="M16.388 13.2748H25.178V14.2348H17.528V16.4398H24.968V17.3548H17.543V19.5598H25.433V20.5198H16.388V13.2748ZM14.633 23.0248H26.873V23.9998H14.633V23.0248Z" fill="#1B1C25"/>
<path d="M39.872 13.5898H30.482V12.7048H39.872V13.5898ZM41.297 18.4948V19.4398H29.057V18.4948H34.607V17.1448H30.347V16.2748H32.552L32.162 14.2798L33.302 14.1748L33.617 16.2748H36.722L37.037 14.1748L38.177 14.2798L37.787 16.2748H40.007V17.1448H35.747V18.4948H41.297ZM32.042 25.1698H39.842V26.0998H31.712C31.472 26.0998 31.287 26.0348 31.157 25.9048C31.027 25.7748 30.962 25.5848 30.962 25.3348V22.9048H38.357V21.5248H30.872V20.6098H39.452V23.7748H32.042V25.1698Z" fill="#1B1C25"/>
<path d="M54.6411 12.4648V25.4848H53.5011V12.4648H54.6411ZM51.7911 20.9248L51.9411 21.8398C50.3911 22.1398 48.4211 22.2898 46.0311 22.2898H44.4111V17.2648H49.1361V14.4148H44.3511V13.4548H50.2761V18.2098H45.5361V21.3598H46.0161C48.2861 21.3598 50.2111 21.2148 51.7911 20.9248Z" fill="#1B1C25"/>
<path d="M70.1451 23.0398V23.9998H57.9051V23.0398H63.4551V20.0548C62.5351 19.9948 61.7651 19.8048 61.1451 19.4848C60.5251 19.1548 60.0601 18.7348 59.7501 18.2248C59.4501 17.7048 59.3001 17.1298 59.3001 16.4998C59.3001 15.8298 59.4701 15.2298 59.8101 14.6998C60.1601 14.1598 60.6901 13.7348 61.4001 13.4248C62.1101 13.1048 62.9851 12.9448 64.0251 12.9448C65.0651 12.9448 65.9401 13.1048 66.6501 13.4248C67.3601 13.7348 67.8851 14.1598 68.2251 14.6998C68.5751 15.2298 68.7501 15.8298 68.7501 16.4998C68.7501 17.1298 68.5951 17.7048 68.2851 18.2248C67.9851 18.7348 67.5251 19.1548 66.9051 19.4848C66.2851 19.8048 65.5151 19.9948 64.5951 20.0548V23.0398H70.1451ZM64.0251 19.1398C65.1951 19.1398 66.0701 18.9048 66.6501 18.4348C67.2301 17.9648 67.5201 17.3748 67.5201 16.6648V16.3348C67.5201 15.6248 67.2301 15.0348 66.6501 14.5648C66.0701 14.0948 65.1951 13.8598 64.0251 13.8598C62.8551 13.8598 61.9801 14.0948 61.4001 14.5648C60.8201 15.0348 60.5301 15.6248 60.5301 16.3348V16.6648C60.5301 17.3748 60.8201 17.9648 61.4001 18.4348C61.9801 18.9048 62.8551 19.1398 64.0251 19.1398Z" fill="#EBECF1"/>
<path d="M89.164 23.0398V23.9998H76.924V23.0398H82.474V19.9798H78.604V13.1548H79.744V15.6298H86.329V13.1548H87.454V19.9798H83.614V23.0398H89.164ZM79.744 19.0348H86.329V16.5748H79.744V19.0348Z" fill="#EBECF1"/>
<path d="M102.523 12.4648V25.4848H101.398V18.0748H98.743V17.1148H101.398V12.4648H102.523ZM99.328 20.9248L99.463 21.8398C97.993 22.1398 96.098 22.2898 93.778 22.2898H92.203V17.2798H96.733V14.4148H92.158V13.4548H97.858V18.2098H93.328V21.3598H93.823C95.983 21.3598 97.818 21.2148 99.328 20.9248Z" fill="#EBECF1"/>
<path d="M118.402 18.5548H116.242V25.5148H115.102V12.4948H116.242V17.5948H118.402V18.5548ZM106.417 13.5298H112.252V15.6148C112.252 16.7248 112.087 17.6648 111.757 18.4348C111.427 19.2048 110.867 19.9248 110.077 20.5948C109.297 21.2548 108.177 21.9798 106.717 22.7698L106.042 21.9148C107.402 21.1948 108.442 20.5398 109.162 19.9498C109.882 19.3598 110.387 18.7348 110.677 18.0748C110.967 17.4148 111.112 16.5998 111.112 15.6298V14.5048H106.417V13.5298Z" fill="#EBECF1"/>
<path d="M130.216 12.4648H131.356V25.4848H130.216V12.4648ZM120.781 21.8998C122.161 21.1898 123.216 20.5398 123.946 19.9498C124.676 19.3598 125.186 18.7348 125.476 18.0748C125.776 17.4148 125.926 16.5998 125.926 15.6298V14.5048H121.156V13.5298H127.066V15.6148C127.066 16.7248 126.896 17.6648 126.556 18.4348C126.226 19.2048 125.661 19.9248 124.861 20.5948C124.071 21.2548 122.936 21.9798 121.456 22.7698L120.781 21.8998Z" fill="#EBECF1"/>
</svg>
