<svg width="106" height="75" viewBox="0 0 106 75" fill="none" xmlns="http://www.w3.org/2000/svg">
<path d="M1.7243 67V53.04H10.6643V55.04H3.9843V58.92H10.0443V60.92H3.9843V65H10.6643V67H1.7243ZM14.9798 67V53.04H20.9798C22.2731 53.04 23.2731 53.42 23.9798 54.18C24.6864 54.94 25.0398 55.96 25.0398 57.24C25.0398 58.52 24.6864 59.54 23.9798 60.3C23.2731 61.06 22.2731 61.44 20.9798 61.44H17.2398V67H14.9798ZM17.2398 59.46H20.8398C21.4131 59.46 21.8598 59.3133 22.1798 59.02C22.4998 58.7133 22.6598 58.28 22.6598 57.72V56.76C22.6598 56.2 22.4998 55.7733 22.1798 55.48C21.8598 55.1733 21.4131 55.02 20.8398 55.02H17.2398V59.46ZM28.3188 67V65.16H30.2188V54.88H28.3188V53.04H34.3988V54.88H32.4788V65.16H34.3988V67H28.3188ZM38.6391 67V53.04H40.8991V65H46.5791V67H38.6391ZM55.0095 67.24C54.1028 67.24 53.2761 67.0867 52.5295 66.78C51.7961 66.46 51.1628 66 50.6295 65.4C50.1095 64.7867 49.7028 64.0333 49.4095 63.14C49.1295 62.2333 48.9895 61.1933 48.9895 60.02C48.9895 58.8467 49.1295 57.8133 49.4095 56.92C49.7028 56.0133 50.1095 55.26 50.6295 54.66C51.1628 54.0467 51.7961 53.5867 52.5295 53.28C53.2761 52.96 54.1028 52.8 55.0095 52.8C55.9161 52.8 56.7361 52.96 57.4695 53.28C58.2161 53.5867 58.8495 54.0467 59.3695 54.66C59.9028 55.26 60.3095 56.0133 60.5895 56.92C60.8828 57.8133 61.0295 58.8467 61.0295 60.02C61.0295 61.1933 60.8828 62.2333 60.5895 63.14C60.3095 64.0333 59.9028 64.7867 59.3695 65.4C58.8495 66 58.2161 66.46 57.4695 66.78C56.7361 67.0867 55.9161 67.24 55.0095 67.24ZM55.0095 65.22C55.5428 65.22 56.0295 65.1267 56.4695 64.94C56.9228 64.7533 57.3028 64.4867 57.6095 64.14C57.9295 63.78 58.1761 63.3467 58.3495 62.84C58.5228 62.3333 58.6095 61.76 58.6095 61.12V58.92C58.6095 58.28 58.5228 57.7067 58.3495 57.2C58.1761 56.6933 57.9295 56.2667 57.6095 55.92C57.3028 55.56 56.9228 55.2867 56.4695 55.1C56.0295 54.9133 55.5428 54.82 55.0095 54.82C54.4628 54.82 53.9695 54.9133 53.5295 55.1C53.0895 55.2867 52.7095 55.56 52.3895 55.92C52.0828 56.2667 51.8428 56.6933 51.6695 57.2C51.4961 57.7067 51.4095 58.28 51.4095 58.92V61.12C51.4095 61.76 51.4961 62.3333 51.6695 62.84C51.8428 63.3467 52.0828 63.78 52.3895 64.14C52.7095 64.4867 53.0895 64.7533 53.5295 64.94C53.9695 65.1267 54.4628 65.22 55.0095 65.22ZM74.2277 64.88H74.1477C74.0011 65.56 73.6011 66.1267 72.9477 66.58C72.3077 67.02 71.4544 67.24 70.3877 67.24C69.5611 67.24 68.7944 67.0867 68.0877 66.78C67.3811 66.46 66.7677 66 66.2477 65.4C65.7411 64.7867 65.3411 64.0333 65.0477 63.14C64.7677 62.2333 64.6277 61.1933 64.6277 60.02C64.6277 58.86 64.7744 57.8333 65.0677 56.94C65.3611 56.0333 65.7744 55.2733 66.3077 54.66C66.8411 54.0467 67.4811 53.5867 68.2277 53.28C68.9744 52.96 69.8077 52.8 70.7277 52.8C71.9811 52.8 73.0411 53.08 73.9077 53.64C74.7744 54.1867 75.4477 54.9533 75.9277 55.94L74.0877 57.02C73.8211 56.3667 73.4077 55.84 72.8477 55.44C72.2877 55.0267 71.5811 54.82 70.7277 54.82C69.6211 54.82 68.7277 55.1733 68.0477 55.88C67.3811 56.5867 67.0477 57.5867 67.0477 58.88V61.16C67.0477 62.4533 67.3811 63.4533 68.0477 64.16C68.7277 64.8667 69.6211 65.22 70.7277 65.22C71.1677 65.22 71.5877 65.1667 71.9877 65.06C72.3877 64.94 72.7344 64.7733 73.0277 64.56C73.3344 64.3333 73.5744 64.06 73.7477 63.74C73.9344 63.4067 74.0277 63.02 74.0277 62.58V61.5H71.1477V59.56H76.2077V67H74.2277V64.88ZM82.8893 53.04V61.64C82.8893 62.8267 83.116 63.72 83.5693 64.32C84.0226 64.92 84.796 65.22 85.8893 65.22C86.9826 65.22 87.756 64.92 88.2093 64.32C88.6626 63.72 88.8893 62.8267 88.8893 61.64V53.04H91.1093V61.28C91.1093 62.3067 91.016 63.1933 90.8293 63.94C90.6426 64.6867 90.3426 65.3067 89.9293 65.8C89.516 66.28 88.976 66.64 88.3093 66.88C87.656 67.12 86.8493 67.24 85.8893 67.24C84.9293 67.24 84.116 67.12 83.4493 66.88C82.796 66.64 82.2626 66.28 81.8493 65.8C81.436 65.3067 81.136 64.6867 80.9493 63.94C80.7626 63.1933 80.6693 62.3067 80.6693 61.28V53.04H82.8893ZM95.8602 67V53.04H104.8V55.04H98.1202V58.92H104.18V60.92H98.1202V65H104.8V67H95.8602Z" fill="#1B1C25"/>
<path d="M98.77 33V28.92H89.05V26.01L97.54 12.06H101.98V26.25H104.83V28.92H101.98V33H98.77ZM91.93 26.25H98.77V15.15H98.56L91.93 26.25Z" fill="#1B1C25"/>
</svg>
