<svg width="241" height="97" viewBox="0 0 241 97" fill="none" xmlns="http://www.w3.org/2000/svg">
<path d="M78.995 17H72.125V15.71L75.545 12.56C76.035 12.11 76.445 11.635 76.775 11.135C77.105 10.625 77.27 10.115 77.27 9.605V9.425C77.27 8.845 77.11 8.375 76.79 8.015C76.47 7.655 75.985 7.475 75.335 7.475C75.015 7.475 74.735 7.52 74.495 7.61C74.255 7.7 74.045 7.825 73.865 7.985C73.695 8.145 73.55 8.335 73.43 8.555C73.32 8.765 73.23 8.995 73.16 9.245L72.035 8.81C72.135 8.5 72.27 8.2 72.44 7.91C72.62 7.61 72.84 7.345 73.1 7.115C73.37 6.885 73.69 6.7 74.06 6.56C74.44 6.42 74.885 6.35 75.395 6.35C75.905 6.35 76.36 6.425 76.76 6.575C77.16 6.725 77.495 6.935 77.765 7.205C78.035 7.475 78.24 7.795 78.38 8.165C78.53 8.535 78.605 8.945 78.605 9.395C78.605 9.805 78.545 10.185 78.425 10.535C78.315 10.885 78.16 11.22 77.96 11.54C77.76 11.85 77.515 12.155 77.225 12.455C76.945 12.755 76.64 13.055 76.31 13.355L73.49 15.89H78.995V17ZM89.0391 17H82.1691V15.71L85.5891 12.56C86.0791 12.11 86.4891 11.635 86.8191 11.135C87.1491 10.625 87.3141 10.115 87.3141 9.605V9.425C87.3141 8.845 87.1541 8.375 86.8341 8.015C86.5141 7.655 86.0291 7.475 85.3791 7.475C85.0591 7.475 84.7791 7.52 84.5391 7.61C84.2991 7.7 84.0891 7.825 83.9091 7.985C83.7391 8.145 83.5941 8.335 83.4741 8.555C83.3641 8.765 83.2741 8.995 83.2041 9.245L82.0791 8.81C82.1791 8.5 82.3141 8.2 82.4841 7.91C82.6641 7.61 82.8841 7.345 83.1441 7.115C83.4141 6.885 83.7341 6.7 84.1041 6.56C84.4841 6.42 84.9291 6.35 85.4391 6.35C85.9491 6.35 86.4041 6.425 86.8041 6.575C87.2041 6.725 87.5391 6.935 87.8091 7.205C88.0791 7.475 88.2841 7.795 88.4241 8.165C88.5741 8.535 88.6491 8.945 88.6491 9.395C88.6491 9.805 88.5891 10.185 88.4691 10.535C88.3591 10.885 88.2041 11.22 88.0041 11.54C87.8041 11.85 87.5591 12.155 87.2691 12.455C86.9891 12.755 86.6841 13.055 86.3541 13.355L83.5341 15.89H89.0391V17ZM93.1283 17.18C92.8083 17.18 92.5733 17.1 92.4233 16.94C92.2833 16.78 92.2133 16.57 92.2133 16.31V16.115C92.2133 15.855 92.2833 15.645 92.4233 15.485C92.5733 15.325 92.8083 15.245 93.1283 15.245C93.4483 15.245 93.6783 15.325 93.8183 15.485C93.9683 15.645 94.0433 15.855 94.0433 16.115V16.31C94.0433 16.57 93.9683 16.78 93.8183 16.94C93.6783 17.1 93.4483 17.18 93.1283 17.18ZM100.725 17.18C99.4752 17.18 98.5602 16.705 97.9802 15.755C97.4102 14.805 97.1252 13.475 97.1252 11.765C97.1252 10.055 97.4102 8.725 97.9802 7.775C98.5602 6.825 99.4752 6.35 100.725 6.35C101.975 6.35 102.885 6.825 103.455 7.775C104.035 8.725 104.325 10.055 104.325 11.765C104.325 13.475 104.035 14.805 103.455 15.755C102.885 16.705 101.975 17.18 100.725 17.18ZM100.725 16.085C101.135 16.085 101.485 16 101.775 15.83C102.065 15.66 102.3 15.42 102.48 15.11C102.66 14.8 102.79 14.435 102.87 14.015C102.96 13.595 103.005 13.13 103.005 12.62V10.91C103.005 10.4 102.96 9.935 102.87 9.515C102.79 9.095 102.66 8.73 102.48 8.42C102.3 8.11 102.065 7.87 101.775 7.7C101.485 7.53 101.135 7.445 100.725 7.445C100.315 7.445 99.9652 7.53 99.6752 7.7C99.3852 7.87 99.1502 8.11 98.9702 8.42C98.7902 8.73 98.6552 9.095 98.5652 9.515C98.4852 9.935 98.4452 10.4 98.4452 10.91V12.62C98.4452 13.13 98.4852 13.595 98.5652 14.015C98.6552 14.435 98.7902 14.8 98.9702 15.11C99.1502 15.42 99.3852 15.66 99.6752 15.83C99.9652 16 100.315 16.085 100.725 16.085ZM113.739 7.64H109.149L108.849 11.63H108.954C109.204 11.28 109.484 11 109.794 10.79C110.114 10.58 110.549 10.475 111.099 10.475C111.549 10.475 111.964 10.55 112.344 10.7C112.724 10.85 113.054 11.065 113.334 11.345C113.614 11.615 113.829 11.95 113.979 12.35C114.139 12.75 114.219 13.205 114.219 13.715C114.219 14.225 114.139 14.695 113.979 15.125C113.819 15.545 113.584 15.91 113.274 16.22C112.974 16.52 112.604 16.755 112.164 16.925C111.734 17.095 111.244 17.18 110.694 17.18C110.254 17.18 109.864 17.13 109.524 17.03C109.194 16.93 108.899 16.795 108.639 16.625C108.379 16.455 108.149 16.265 107.949 16.055C107.759 15.845 107.584 15.625 107.424 15.395L108.369 14.675C108.499 14.885 108.634 15.075 108.774 15.245C108.924 15.415 109.084 15.56 109.254 15.68C109.434 15.8 109.639 15.895 109.869 15.965C110.099 16.025 110.374 16.055 110.694 16.055C111.414 16.055 111.959 15.865 112.329 15.485C112.699 15.105 112.884 14.57 112.884 13.88V13.73C112.884 13.04 112.699 12.505 112.329 12.125C111.959 11.745 111.414 11.555 110.694 11.555C110.214 11.555 109.834 11.645 109.554 11.825C109.284 11.995 109.039 12.2 108.819 12.44L107.754 12.29L108.129 6.53H113.739V7.64ZM118.353 17.18C118.033 17.18 117.798 17.1 117.648 16.94C117.508 16.78 117.438 16.57 117.438 16.31V16.115C117.438 15.855 117.508 15.645 117.648 15.485C117.798 15.325 118.033 15.245 118.353 15.245C118.673 15.245 118.903 15.325 119.043 15.485C119.193 15.645 119.268 15.855 119.268 16.115V16.31C119.268 16.57 119.193 16.78 119.043 16.94C118.903 17.1 118.673 17.18 118.353 17.18ZM122.77 17V15.89H125.695V7.46H125.59L122.95 9.92L122.215 9.125L124.99 6.53H126.955V15.89H129.655V17H122.77ZM137.12 17V14.945H132.065V13.835L136.445 6.53H138.32V13.895H139.835V14.945H138.32V17H137.12ZM133.25 13.895H137.12V7.505H137.045L133.25 13.895ZM143.579 17.18C143.259 17.18 143.024 17.1 142.874 16.94C142.734 16.78 142.664 16.57 142.664 16.31V16.115C142.664 15.855 142.734 15.645 142.874 15.485C143.024 15.325 143.259 15.245 143.579 15.245C143.899 15.245 144.129 15.325 144.269 15.485C144.419 15.645 144.494 15.855 144.494 16.115V16.31C144.494 16.57 144.419 16.78 144.269 16.94C144.129 17.1 143.899 17.18 143.579 17.18ZM152.961 13.46C152.591 13.46 152.261 13.41 151.971 13.31C151.691 13.21 151.376 13.075 151.026 12.905C150.746 12.765 150.471 12.645 150.201 12.545C149.931 12.445 149.641 12.395 149.331 12.395C149.081 12.395 148.866 12.435 148.686 12.515C148.516 12.585 148.316 12.705 148.086 12.875L147.591 12.215C147.791 11.965 148.026 11.765 148.296 11.615C148.576 11.465 148.941 11.39 149.391 11.39C149.761 11.39 150.086 11.44 150.366 11.54C150.656 11.64 150.976 11.775 151.326 11.945C151.606 12.085 151.881 12.205 152.151 12.305C152.421 12.405 152.711 12.455 153.021 12.455C153.271 12.455 153.481 12.42 153.651 12.35C153.831 12.27 154.036 12.145 154.266 11.975L154.761 12.635C154.561 12.885 154.321 13.085 154.041 13.235C153.771 13.385 153.411 13.46 152.961 13.46ZM164.715 17H157.845V15.71L161.265 12.56C161.755 12.11 162.165 11.635 162.495 11.135C162.825 10.625 162.99 10.115 162.99 9.605V9.425C162.99 8.845 162.83 8.375 162.51 8.015C162.19 7.655 161.705 7.475 161.055 7.475C160.735 7.475 160.455 7.52 160.215 7.61C159.975 7.7 159.765 7.825 159.585 7.985C159.415 8.145 159.27 8.335 159.15 8.555C159.04 8.765 158.95 8.995 158.88 9.245L157.755 8.81C157.855 8.5 157.99 8.2 158.16 7.91C158.34 7.61 158.56 7.345 158.82 7.115C159.09 6.885 159.41 6.7 159.78 6.56C160.16 6.42 160.605 6.35 161.115 6.35C161.625 6.35 162.08 6.425 162.48 6.575C162.88 6.725 163.215 6.935 163.485 7.205C163.755 7.475 163.96 7.795 164.1 8.165C164.25 8.535 164.325 8.945 164.325 9.395C164.325 9.805 164.265 10.185 164.145 10.535C164.035 10.885 163.88 11.22 163.68 11.54C163.48 11.85 163.235 12.155 162.945 12.455C162.665 12.755 162.36 13.055 162.03 13.355L159.21 15.89H164.715V17ZM174.759 17H167.889V15.71L171.309 12.56C171.799 12.11 172.209 11.635 172.539 11.135C172.869 10.625 173.034 10.115 173.034 9.605V9.425C173.034 8.845 172.874 8.375 172.554 8.015C172.234 7.655 171.749 7.475 171.099 7.475C170.779 7.475 170.499 7.52 170.259 7.61C170.019 7.7 169.809 7.825 169.629 7.985C169.459 8.145 169.314 8.335 169.194 8.555C169.084 8.765 168.994 8.995 168.924 9.245L167.799 8.81C167.899 8.5 168.034 8.2 168.204 7.91C168.384 7.61 168.604 7.345 168.864 7.115C169.134 6.885 169.454 6.7 169.824 6.56C170.204 6.42 170.649 6.35 171.159 6.35C171.669 6.35 172.124 6.425 172.524 6.575C172.924 6.725 173.259 6.935 173.529 7.205C173.799 7.475 174.004 7.795 174.144 8.165C174.294 8.535 174.369 8.945 174.369 9.395C174.369 9.805 174.309 10.185 174.189 10.535C174.079 10.885 173.924 11.22 173.724 11.54C173.524 11.85 173.279 12.155 172.989 12.455C172.709 12.755 172.404 13.055 172.074 13.355L169.254 15.89H174.759V17ZM178.848 17.18C178.528 17.18 178.293 17.1 178.143 16.94C178.003 16.78 177.933 16.57 177.933 16.31V16.115C177.933 15.855 178.003 15.645 178.143 15.485C178.293 15.325 178.528 15.245 178.848 15.245C179.168 15.245 179.398 15.325 179.538 15.485C179.688 15.645 179.763 15.855 179.763 16.115V16.31C179.763 16.57 179.688 16.78 179.538 16.94C179.398 17.1 179.168 17.18 178.848 17.18ZM186.445 17.18C185.195 17.18 184.28 16.705 183.7 15.755C183.13 14.805 182.845 13.475 182.845 11.765C182.845 10.055 183.13 8.725 183.7 7.775C184.28 6.825 185.195 6.35 186.445 6.35C187.695 6.35 188.605 6.825 189.175 7.775C189.755 8.725 190.045 10.055 190.045 11.765C190.045 13.475 189.755 14.805 189.175 15.755C188.605 16.705 187.695 17.18 186.445 17.18ZM186.445 16.085C186.855 16.085 187.205 16 187.495 15.83C187.785 15.66 188.02 15.42 188.2 15.11C188.38 14.8 188.51 14.435 188.59 14.015C188.68 13.595 188.725 13.13 188.725 12.62V10.91C188.725 10.4 188.68 9.935 188.59 9.515C188.51 9.095 188.38 8.73 188.2 8.42C188.02 8.11 187.785 7.87 187.495 7.7C187.205 7.53 186.855 7.445 186.445 7.445C186.035 7.445 185.685 7.53 185.395 7.7C185.105 7.87 184.87 8.11 184.69 8.42C184.51 8.73 184.375 9.095 184.285 9.515C184.205 9.935 184.165 10.4 184.165 10.91V12.62C184.165 13.13 184.205 13.595 184.285 14.015C184.375 14.435 184.51 14.8 184.69 15.11C184.87 15.42 185.105 15.66 185.395 15.83C185.685 16 186.035 16.085 186.445 16.085ZM199.459 7.64H194.869L194.569 11.63H194.674C194.924 11.28 195.204 11 195.514 10.79C195.834 10.58 196.269 10.475 196.819 10.475C197.269 10.475 197.684 10.55 198.064 10.7C198.444 10.85 198.774 11.065 199.054 11.345C199.334 11.615 199.549 11.95 199.699 12.35C199.859 12.75 199.939 13.205 199.939 13.715C199.939 14.225 199.859 14.695 199.699 15.125C199.539 15.545 199.304 15.91 198.994 16.22C198.694 16.52 198.324 16.755 197.884 16.925C197.454 17.095 196.964 17.18 196.414 17.18C195.974 17.18 195.584 17.13 195.244 17.03C194.914 16.93 194.619 16.795 194.359 16.625C194.099 16.455 193.869 16.265 193.669 16.055C193.479 15.845 193.304 15.625 193.144 15.395L194.089 14.675C194.219 14.885 194.354 15.075 194.494 15.245C194.644 15.415 194.804 15.56 194.974 15.68C195.154 15.8 195.359 15.895 195.589 15.965C195.819 16.025 196.094 16.055 196.414 16.055C197.134 16.055 197.679 15.865 198.049 15.485C198.419 15.105 198.604 14.57 198.604 13.88V13.73C198.604 13.04 198.419 12.505 198.049 12.125C197.679 11.745 197.134 11.555 196.414 11.555C195.934 11.555 195.554 11.645 195.274 11.825C195.004 11.995 194.759 12.2 194.539 12.44L193.474 12.29L193.849 6.53H199.459V7.64ZM204.073 17.18C203.753 17.18 203.518 17.1 203.368 16.94C203.228 16.78 203.158 16.57 203.158 16.31V16.115C203.158 15.855 203.228 15.645 203.368 15.485C203.518 15.325 203.753 15.245 204.073 15.245C204.393 15.245 204.623 15.325 204.763 15.485C204.913 15.645 204.988 15.855 204.988 16.115V16.31C204.988 16.57 204.913 16.78 204.763 16.94C204.623 17.1 204.393 17.18 204.073 17.18ZM208.49 17V15.89H211.415V7.46H211.31L208.67 9.92L207.935 9.125L210.71 6.53H212.675V15.89H215.375V17H208.49ZM221.714 17.18C221.114 17.18 220.589 17.105 220.139 16.955C219.689 16.795 219.309 16.58 218.999 16.31C218.699 16.04 218.469 15.72 218.309 15.35C218.159 14.98 218.084 14.58 218.084 14.15C218.084 13.43 218.279 12.86 218.669 12.44C219.059 12.02 219.569 11.725 220.199 11.555V11.435C219.649 11.245 219.209 10.94 218.879 10.52C218.559 10.09 218.399 9.575 218.399 8.975C218.399 8.175 218.689 7.54 219.269 7.07C219.849 6.59 220.664 6.35 221.714 6.35C222.764 6.35 223.579 6.59 224.159 7.07C224.739 7.54 225.029 8.175 225.029 8.975C225.029 9.575 224.864 10.09 224.534 10.52C224.214 10.94 223.779 11.245 223.229 11.435V11.555C223.859 11.725 224.369 12.02 224.759 12.44C225.149 12.86 225.344 13.43 225.344 14.15C225.344 14.58 225.264 14.98 225.104 15.35C224.954 15.72 224.724 16.04 224.414 16.31C224.114 16.58 223.739 16.795 223.289 16.955C222.839 17.105 222.314 17.18 221.714 17.18ZM221.714 16.085C222.444 16.085 223.009 15.925 223.409 15.605C223.809 15.275 224.009 14.81 224.009 14.21V13.895C224.009 13.295 223.809 12.835 223.409 12.515C223.009 12.185 222.444 12.02 221.714 12.02C220.984 12.02 220.419 12.185 220.019 12.515C219.619 12.835 219.419 13.295 219.419 13.895V14.21C219.419 14.81 219.619 15.275 220.019 15.605C220.419 15.925 220.984 16.085 221.714 16.085ZM221.714 10.97C222.374 10.97 222.874 10.83 223.214 10.55C223.554 10.27 223.724 9.86 223.724 9.32V9.095C223.724 8.555 223.554 8.145 223.214 7.865C222.874 7.585 222.374 7.445 221.714 7.445C221.054 7.445 220.554 7.585 220.214 7.865C219.874 8.145 219.704 8.555 219.704 9.095V9.32C219.704 9.86 219.874 10.27 220.214 10.55C220.554 10.83 221.054 10.97 221.714 10.97ZM229.298 17.18C228.978 17.18 228.743 17.1 228.593 16.94C228.453 16.78 228.383 16.57 228.383 16.31V16.115C228.383 15.855 228.453 15.645 228.593 15.485C228.743 15.325 228.978 15.245 229.298 15.245C229.618 15.245 229.848 15.325 229.988 15.485C230.138 15.645 230.213 15.855 230.213 16.115V16.31C230.213 16.57 230.138 16.78 229.988 16.94C229.848 17.1 229.618 17.18 229.298 17.18Z" fill="#1B1C25"/>
<path d="M75.2 34.555H73.04V41.515H71.9V28.495H73.04V33.595H75.2V34.555ZM67.07 33.97C67.19 33.97 67.305 34.025 67.415 34.135L70.34 37.6L69.485 38.335L66.545 34.75C66.485 34.69 66.42 34.66 66.35 34.66C66.28 34.66 66.23 34.69 66.2 34.75C65.93 35.29 65.575 35.845 65.135 36.415C64.705 36.975 64.115 37.68 63.365 38.53L62.525 37.825C63.395 36.905 64.06 36.11 64.52 35.44C64.99 34.77 65.33 34.105 65.54 33.445C65.75 32.775 65.855 32.015 65.855 31.165V30.595H62.915V29.635H69.905V30.595H66.98V31.195C66.98 32.315 66.8 33.32 66.44 34.21L66.515 34.27L66.755 34.09C66.855 34.01 66.96 33.97 67.07 33.97ZM89.234 39.055V40H76.994V39.055H80.324V36.355H78.794V32.335H86.294V30.175H78.719V29.215H87.434V33.25H79.934V35.41H87.824V36.355H85.904V39.055H89.234ZM81.434 39.055H84.794V36.355H81.434V39.055ZM101.578 30.31H97.393V29.35H106.888V30.31H102.733C102.733 30.8 102.678 31.24 102.568 31.63C102.458 32.02 102.273 32.39 102.013 32.74L102.058 32.755L102.343 32.545C102.463 32.435 102.603 32.38 102.763 32.38C102.863 32.38 102.973 32.41 103.093 32.47L107.488 34.945L106.858 35.83L102.343 33.19C102.183 33.11 102.043 33.07 101.923 33.07C101.823 33.07 101.733 33.095 101.653 33.145C101.263 33.565 100.728 33.995 100.048 34.435C99.368 34.875 98.483 35.355 97.393 35.875L96.778 35.035C98.028 34.445 98.993 33.91 99.673 33.43C100.363 32.94 100.848 32.455 101.128 31.975C101.418 31.485 101.568 30.93 101.578 30.31ZM108.253 39.04V40H96.013V39.04H101.563V35.8H102.703V39.04H108.253ZM123.067 34.555H120.907V41.515H119.767V28.495H120.907V33.595H123.067V34.555ZM114.862 33.715C114.992 33.715 115.102 33.77 115.192 33.88L118.117 37.63L117.247 38.395L114.307 34.54C114.277 34.48 114.227 34.45 114.157 34.45C114.107 34.45 114.057 34.48 114.007 34.54C113.747 35.12 113.397 35.72 112.957 36.34C112.517 36.95 111.922 37.7 111.172 38.59L110.302 37.855C111.172 36.865 111.837 36.02 112.297 35.32C112.767 34.61 113.102 33.9 113.302 33.19C113.512 32.48 113.617 31.665 113.617 30.745V29.335H114.772V30.73C114.772 31.92 114.597 33 114.247 33.97L114.322 34.015L114.547 33.835C114.657 33.755 114.762 33.715 114.862 33.715ZM140.691 35.905H139.536V28.465H140.691V35.905ZM136.476 34.72H130.221V29.005H136.476V34.72ZM135.336 29.935H131.376V33.79H135.336V29.935ZM134.391 35.845H138.531V36.745H134.391V35.845ZM141.321 41.425L140.811 42.25L136.761 40.585C136.631 40.535 136.506 40.51 136.386 40.51C136.246 40.51 136.116 40.54 135.996 40.6L135.966 40.615C135.606 40.875 135.106 41.135 134.466 41.395C133.836 41.665 133.016 41.96 132.006 42.28L131.511 41.47C132.641 41.14 133.516 40.84 134.136 40.57C134.766 40.3 135.211 40.03 135.471 39.76C135.741 39.48 135.891 39.165 135.921 38.815H131.871V37.915H140.931V38.815H137.016C137.006 39.095 136.956 39.35 136.866 39.58C136.776 39.81 136.631 40.025 136.431 40.225L136.521 40.24L136.776 40.06C136.946 39.94 137.081 39.88 137.181 39.88C137.221 39.88 137.311 39.9 137.451 39.94L141.321 41.425ZM158.495 28.465H159.635V41.485H158.495V28.465ZM149.06 37.9C150.44 37.19 151.495 36.54 152.225 35.95C152.955 35.36 153.465 34.735 153.755 34.075C154.055 33.415 154.205 32.6 154.205 31.63V30.505H149.435V29.53H155.345V31.615C155.345 32.725 155.175 33.665 154.835 34.435C154.505 35.205 153.94 35.925 153.14 36.595C152.35 37.255 151.215 37.98 149.735 38.77L149.06 37.9ZM174.119 28.465V37.42H172.979V28.465H174.119ZM169.424 29.455H165.449V28.57H169.424V29.455ZM171.974 36.67C170.834 36.85 169.479 36.99 167.909 37.09C166.339 37.18 164.719 37.225 163.049 37.225L162.959 36.295C164.469 36.295 165.749 36.27 166.799 36.22V35.17C166.019 35.1 165.399 34.9 164.939 34.57C164.489 34.23 164.264 33.805 164.264 33.295C164.264 32.565 164.664 32.045 165.464 31.735V31.66H163.334V30.805H171.269V31.66H169.229V31.75C170.029 32.05 170.429 32.565 170.429 33.295C170.429 33.805 170.199 34.23 169.739 34.57C169.289 34.9 168.669 35.1 167.879 35.17V36.175C169.459 36.095 170.789 35.975 171.869 35.815L171.974 36.67ZM167.114 34.3H167.564C168.104 34.3 168.544 34.19 168.884 33.97C169.234 33.74 169.409 33.42 169.409 33.01C169.409 32.6 169.239 32.285 168.899 32.065C168.559 31.835 168.114 31.72 167.564 31.72H167.114C166.564 31.72 166.119 31.835 165.779 32.065C165.449 32.285 165.284 32.6 165.284 33.01C165.284 33.42 165.454 33.74 165.794 33.97C166.134 34.19 166.574 34.3 167.114 34.3ZM165.344 38.215H174.119V42.175H173.009V39.1H165.344V38.215ZM177.998 35.32C177.998 34.6 178.068 33.905 178.208 33.235C178.348 32.565 178.538 31.945 178.778 31.375C179.028 30.795 179.318 30.27 179.648 29.8C179.978 29.33 180.333 28.93 180.713 28.6H181.853C181.433 28.98 181.053 29.41 180.713 29.89C180.383 30.37 180.098 30.88 179.858 31.42C179.628 31.96 179.448 32.51 179.318 33.07C179.188 33.63 179.123 34.17 179.123 34.69V35.98C179.123 36.51 179.188 37.055 179.318 37.615C179.448 38.175 179.633 38.725 179.873 39.265C180.113 39.805 180.398 40.315 180.728 40.795C181.068 41.275 181.443 41.695 181.853 42.055H180.713C180.343 41.745 179.993 41.355 179.663 40.885C179.333 40.415 179.043 39.89 178.793 39.31C178.553 38.73 178.358 38.105 178.208 37.435C178.068 36.755 177.998 36.05 177.998 35.32ZM185.092 29.17H186.217V31.66H192.817V29.17H193.942V36.07H185.092V29.17ZM192.817 35.11V32.62H186.217V35.11H192.817ZM183.397 39.025H195.637V40H183.397V39.025ZM206.266 38.065H205.156V28.675H206.266V32.575H208.276V28.465H209.386V38.44H208.276V33.52H206.266V38.065ZM204.421 35.995C203.091 36.305 201.516 36.46 199.696 36.46H198.481V32.425H202.366V30.37H198.421V29.44H203.431V33.325H199.546V35.545H199.981C200.811 35.545 201.596 35.505 202.336 35.425C203.076 35.345 203.721 35.235 204.271 35.095L204.421 35.995ZM209.671 40.825V41.77H201.466C201.226 41.77 201.041 41.705 200.911 41.575C200.781 41.445 200.716 41.255 200.716 41.005V37.795H201.856V40.825H209.671ZM223.48 36.22H222.325V28.465H223.48V36.22ZM220.6 34.825C219.86 34.975 218.975 35.095 217.945 35.185C216.925 35.265 215.83 35.305 214.66 35.305H213.1V29.2H219.16V30.16H214.255V34.36H214.645C215.765 34.36 216.83 34.325 217.84 34.255C218.85 34.175 219.72 34.065 220.45 33.925L220.6 34.825ZM223.555 39.34C223.555 39.89 223.395 40.38 223.075 40.81C222.765 41.25 222.295 41.595 221.665 41.845C221.035 42.095 220.265 42.22 219.355 42.22C218.445 42.22 217.67 42.095 217.03 41.845C216.4 41.595 215.925 41.25 215.605 40.81C215.295 40.38 215.14 39.89 215.14 39.34C215.14 38.79 215.295 38.3 215.605 37.87C215.925 37.43 216.4 37.085 217.03 36.835C217.67 36.585 218.445 36.46 219.355 36.46C220.265 36.46 221.035 36.585 221.665 36.835C222.295 37.085 222.765 37.43 223.075 37.87C223.395 38.3 223.555 38.79 223.555 39.34ZM222.34 39.22C222.34 38.7 222.09 38.265 221.59 37.915C221.1 37.565 220.355 37.39 219.355 37.39C218.355 37.39 217.605 37.57 217.105 37.93C216.605 38.28 216.355 38.71 216.355 39.22V39.475C216.355 39.985 216.605 40.415 217.105 40.765C217.605 41.125 218.355 41.305 219.355 41.305C220.355 41.305 221.1 41.125 221.59 40.765C222.09 40.415 222.34 39.985 222.34 39.475V39.22ZM229.879 35.32C229.879 36.05 229.804 36.755 229.654 37.435C229.514 38.105 229.319 38.73 229.069 39.31C228.829 39.89 228.544 40.415 228.214 40.885C227.884 41.355 227.534 41.745 227.164 42.055H226.024C226.434 41.695 226.804 41.275 227.134 40.795C227.474 40.315 227.764 39.805 228.004 39.265C228.244 38.725 228.429 38.175 228.559 37.615C228.689 37.055 228.754 36.51 228.754 35.98V34.69C228.754 34.17 228.689 33.63 228.559 33.07C228.429 32.51 228.244 31.96 228.004 31.42C227.774 30.88 227.489 30.37 227.149 29.89C226.819 29.41 226.444 28.98 226.024 28.6H227.164C227.544 28.93 227.899 29.33 228.229 29.8C228.559 30.27 228.844 30.795 229.084 31.375C229.334 31.945 229.529 32.565 229.669 33.235C229.809 33.905 229.879 34.6 229.879 35.32Z" fill="#1B1C25"/>
<path d="M0 60H222.5C232.717 60 241 68.2827 241 78.5C241 88.7173 232.717 97 222.5 97H0V60Z" fill="#36685D" fill-opacity="0.25"/>
</svg>
