<svg width="424" height="97" viewBox="0 0 424 97" fill="none" xmlns="http://www.w3.org/2000/svg">
<path d="M254.995 17H248.125V15.71L251.545 12.56C252.035 12.11 252.445 11.635 252.775 11.135C253.105 10.625 253.27 10.115 253.27 9.605V9.425C253.27 8.845 253.11 8.375 252.79 8.015C252.47 7.655 251.985 7.475 251.335 7.475C251.015 7.475 250.735 7.52 250.495 7.61C250.255 7.7 250.045 7.825 249.865 7.985C249.695 8.145 249.55 8.335 249.43 8.555C249.32 8.765 249.23 8.995 249.16 9.245L248.035 8.81C248.135 8.5 248.27 8.2 248.44 7.91C248.62 7.61 248.84 7.345 249.1 7.115C249.37 6.885 249.69 6.7 250.06 6.56C250.44 6.42 250.885 6.35 251.395 6.35C251.905 6.35 252.36 6.425 252.76 6.575C253.16 6.725 253.495 6.935 253.765 7.205C254.035 7.475 254.24 7.795 254.38 8.165C254.53 8.535 254.605 8.945 254.605 9.395C254.605 9.805 254.545 10.185 254.425 10.535C254.315 10.885 254.16 11.22 253.96 11.54C253.76 11.85 253.515 12.155 253.225 12.455C252.945 12.755 252.64 13.055 252.31 13.355L249.49 15.89H254.995V17ZM265.039 17H258.169V15.71L261.589 12.56C262.079 12.11 262.489 11.635 262.819 11.135C263.149 10.625 263.314 10.115 263.314 9.605V9.425C263.314 8.845 263.154 8.375 262.834 8.015C262.514 7.655 262.029 7.475 261.379 7.475C261.059 7.475 260.779 7.52 260.539 7.61C260.299 7.7 260.089 7.825 259.909 7.985C259.739 8.145 259.594 8.335 259.474 8.555C259.364 8.765 259.274 8.995 259.204 9.245L258.079 8.81C258.179 8.5 258.314 8.2 258.484 7.91C258.664 7.61 258.884 7.345 259.144 7.115C259.414 6.885 259.734 6.7 260.104 6.56C260.484 6.42 260.929 6.35 261.439 6.35C261.949 6.35 262.404 6.425 262.804 6.575C263.204 6.725 263.539 6.935 263.809 7.205C264.079 7.475 264.284 7.795 264.424 8.165C264.574 8.535 264.649 8.945 264.649 9.395C264.649 9.805 264.589 10.185 264.469 10.535C264.359 10.885 264.204 11.22 264.004 11.54C263.804 11.85 263.559 12.155 263.269 12.455C262.989 12.755 262.684 13.055 262.354 13.355L259.534 15.89H265.039V17ZM269.128 17.18C268.808 17.18 268.573 17.1 268.423 16.94C268.283 16.78 268.213 16.57 268.213 16.31V16.115C268.213 15.855 268.283 15.645 268.423 15.485C268.573 15.325 268.808 15.245 269.128 15.245C269.448 15.245 269.678 15.325 269.818 15.485C269.968 15.645 270.043 15.855 270.043 16.115V16.31C270.043 16.57 269.968 16.78 269.818 16.94C269.678 17.1 269.448 17.18 269.128 17.18ZM276.725 17.18C275.475 17.18 274.56 16.705 273.98 15.755C273.41 14.805 273.125 13.475 273.125 11.765C273.125 10.055 273.41 8.725 273.98 7.775C274.56 6.825 275.475 6.35 276.725 6.35C277.975 6.35 278.885 6.825 279.455 7.775C280.035 8.725 280.325 10.055 280.325 11.765C280.325 13.475 280.035 14.805 279.455 15.755C278.885 16.705 277.975 17.18 276.725 17.18ZM276.725 16.085C277.135 16.085 277.485 16 277.775 15.83C278.065 15.66 278.3 15.42 278.48 15.11C278.66 14.8 278.79 14.435 278.87 14.015C278.96 13.595 279.005 13.13 279.005 12.62V10.91C279.005 10.4 278.96 9.935 278.87 9.515C278.79 9.095 278.66 8.73 278.48 8.42C278.3 8.11 278.065 7.87 277.775 7.7C277.485 7.53 277.135 7.445 276.725 7.445C276.315 7.445 275.965 7.53 275.675 7.7C275.385 7.87 275.15 8.11 274.97 8.42C274.79 8.73 274.655 9.095 274.565 9.515C274.485 9.935 274.445 10.4 274.445 10.91V12.62C274.445 13.13 274.485 13.595 274.565 14.015C274.655 14.435 274.79 14.8 274.97 15.11C275.15 15.42 275.385 15.66 275.675 15.83C275.965 16 276.315 16.085 276.725 16.085ZM289.739 7.64H285.149L284.849 11.63H284.954C285.204 11.28 285.484 11 285.794 10.79C286.114 10.58 286.549 10.475 287.099 10.475C287.549 10.475 287.964 10.55 288.344 10.7C288.724 10.85 289.054 11.065 289.334 11.345C289.614 11.615 289.829 11.95 289.979 12.35C290.139 12.75 290.219 13.205 290.219 13.715C290.219 14.225 290.139 14.695 289.979 15.125C289.819 15.545 289.584 15.91 289.274 16.22C288.974 16.52 288.604 16.755 288.164 16.925C287.734 17.095 287.244 17.18 286.694 17.18C286.254 17.18 285.864 17.13 285.524 17.03C285.194 16.93 284.899 16.795 284.639 16.625C284.379 16.455 284.149 16.265 283.949 16.055C283.759 15.845 283.584 15.625 283.424 15.395L284.369 14.675C284.499 14.885 284.634 15.075 284.774 15.245C284.924 15.415 285.084 15.56 285.254 15.68C285.434 15.8 285.639 15.895 285.869 15.965C286.099 16.025 286.374 16.055 286.694 16.055C287.414 16.055 287.959 15.865 288.329 15.485C288.699 15.105 288.884 14.57 288.884 13.88V13.73C288.884 13.04 288.699 12.505 288.329 12.125C287.959 11.745 287.414 11.555 286.694 11.555C286.214 11.555 285.834 11.645 285.554 11.825C285.284 11.995 285.039 12.2 284.819 12.44L283.754 12.29L284.129 6.53H289.739V7.64ZM294.353 17.18C294.033 17.18 293.798 17.1 293.648 16.94C293.508 16.78 293.438 16.57 293.438 16.31V16.115C293.438 15.855 293.508 15.645 293.648 15.485C293.798 15.325 294.033 15.245 294.353 15.245C294.673 15.245 294.903 15.325 295.043 15.485C295.193 15.645 295.268 15.855 295.268 16.115V16.31C295.268 16.57 295.193 16.78 295.043 16.94C294.903 17.1 294.673 17.18 294.353 17.18ZM298.77 17V15.89H301.695V7.46H301.59L298.95 9.92L298.215 9.125L300.99 6.53H302.955V15.89H305.655V17H298.77ZM315.49 10.37C315.49 11.15 315.375 11.885 315.145 12.575C314.915 13.255 314.615 13.88 314.245 14.45C313.885 15.01 313.485 15.51 313.045 15.95C312.605 16.38 312.175 16.73 311.755 17H310.135C310.695 16.59 311.195 16.19 311.635 15.8C312.075 15.41 312.46 15.005 312.79 14.585C313.12 14.155 313.4 13.7 313.63 13.22C313.86 12.73 314.045 12.18 314.185 11.57L314.11 11.54C313.86 11.97 313.535 12.33 313.135 12.62C312.745 12.9 312.23 13.04 311.59 13.04C311.14 13.04 310.725 12.965 310.345 12.815C309.965 12.665 309.64 12.45 309.37 12.17C309.1 11.89 308.885 11.555 308.725 11.165C308.575 10.765 308.5 10.315 308.5 9.815C308.5 9.305 308.58 8.84 308.74 8.42C308.91 7.99 309.145 7.625 309.445 7.325C309.755 7.015 310.12 6.775 310.54 6.605C310.97 6.435 311.45 6.35 311.98 6.35C312.52 6.35 313.005 6.445 313.435 6.635C313.875 6.815 314.245 7.08 314.545 7.43C314.855 7.77 315.09 8.19 315.25 8.69C315.41 9.19 315.49 9.75 315.49 10.37ZM311.995 11.975C312.685 11.975 313.22 11.785 313.6 11.405C313.99 11.025 314.185 10.48 314.185 9.77V9.65C314.185 8.94 313.99 8.395 313.6 8.015C313.22 7.635 312.685 7.445 311.995 7.445C311.305 7.445 310.765 7.635 310.375 8.015C309.995 8.395 309.805 8.94 309.805 9.65V9.77C309.805 10.48 309.995 11.025 310.375 11.405C310.765 11.785 311.305 11.975 311.995 11.975ZM319.579 17.18C319.259 17.18 319.024 17.1 318.874 16.94C318.734 16.78 318.664 16.57 318.664 16.31V16.115C318.664 15.855 318.734 15.645 318.874 15.485C319.024 15.325 319.259 15.245 319.579 15.245C319.899 15.245 320.129 15.325 320.269 15.485C320.419 15.645 320.494 15.855 320.494 16.115V16.31C320.494 16.57 320.419 16.78 320.269 16.94C320.129 17.1 319.899 17.18 319.579 17.18ZM328.961 13.46C328.591 13.46 328.261 13.41 327.971 13.31C327.691 13.21 327.376 13.075 327.026 12.905C326.746 12.765 326.471 12.645 326.201 12.545C325.931 12.445 325.641 12.395 325.331 12.395C325.081 12.395 324.866 12.435 324.686 12.515C324.516 12.585 324.316 12.705 324.086 12.875L323.591 12.215C323.791 11.965 324.026 11.765 324.296 11.615C324.576 11.465 324.941 11.39 325.391 11.39C325.761 11.39 326.086 11.44 326.366 11.54C326.656 11.64 326.976 11.775 327.326 11.945C327.606 12.085 327.881 12.205 328.151 12.305C328.421 12.405 328.711 12.455 329.021 12.455C329.271 12.455 329.481 12.42 329.651 12.35C329.831 12.27 330.036 12.145 330.266 11.975L330.761 12.635C330.561 12.885 330.321 13.085 330.041 13.235C329.771 13.385 329.411 13.46 328.961 13.46ZM340.715 17H333.845V15.71L337.265 12.56C337.755 12.11 338.165 11.635 338.495 11.135C338.825 10.625 338.99 10.115 338.99 9.605V9.425C338.99 8.845 338.83 8.375 338.51 8.015C338.19 7.655 337.705 7.475 337.055 7.475C336.735 7.475 336.455 7.52 336.215 7.61C335.975 7.7 335.765 7.825 335.585 7.985C335.415 8.145 335.27 8.335 335.15 8.555C335.04 8.765 334.95 8.995 334.88 9.245L333.755 8.81C333.855 8.5 333.99 8.2 334.16 7.91C334.34 7.61 334.56 7.345 334.82 7.115C335.09 6.885 335.41 6.7 335.78 6.56C336.16 6.42 336.605 6.35 337.115 6.35C337.625 6.35 338.08 6.425 338.48 6.575C338.88 6.725 339.215 6.935 339.485 7.205C339.755 7.475 339.96 7.795 340.1 8.165C340.25 8.535 340.325 8.945 340.325 9.395C340.325 9.805 340.265 10.185 340.145 10.535C340.035 10.885 339.88 11.22 339.68 11.54C339.48 11.85 339.235 12.155 338.945 12.455C338.665 12.755 338.36 13.055 338.03 13.355L335.21 15.89H340.715V17ZM350.759 17H343.889V15.71L347.309 12.56C347.799 12.11 348.209 11.635 348.539 11.135C348.869 10.625 349.034 10.115 349.034 9.605V9.425C349.034 8.845 348.874 8.375 348.554 8.015C348.234 7.655 347.749 7.475 347.099 7.475C346.779 7.475 346.499 7.52 346.259 7.61C346.019 7.7 345.809 7.825 345.629 7.985C345.459 8.145 345.314 8.335 345.194 8.555C345.084 8.765 344.994 8.995 344.924 9.245L343.799 8.81C343.899 8.5 344.034 8.2 344.204 7.91C344.384 7.61 344.604 7.345 344.864 7.115C345.134 6.885 345.454 6.7 345.824 6.56C346.204 6.42 346.649 6.35 347.159 6.35C347.669 6.35 348.124 6.425 348.524 6.575C348.924 6.725 349.259 6.935 349.529 7.205C349.799 7.475 350.004 7.795 350.144 8.165C350.294 8.535 350.369 8.945 350.369 9.395C350.369 9.805 350.309 10.185 350.189 10.535C350.079 10.885 349.924 11.22 349.724 11.54C349.524 11.85 349.279 12.155 348.989 12.455C348.709 12.755 348.404 13.055 348.074 13.355L345.254 15.89H350.759V17ZM354.848 17.18C354.528 17.18 354.293 17.1 354.143 16.94C354.003 16.78 353.933 16.57 353.933 16.31V16.115C353.933 15.855 354.003 15.645 354.143 15.485C354.293 15.325 354.528 15.245 354.848 15.245C355.168 15.245 355.398 15.325 355.538 15.485C355.688 15.645 355.763 15.855 355.763 16.115V16.31C355.763 16.57 355.688 16.78 355.538 16.94C355.398 17.1 355.168 17.18 354.848 17.18ZM362.445 17.18C361.195 17.18 360.28 16.705 359.7 15.755C359.13 14.805 358.845 13.475 358.845 11.765C358.845 10.055 359.13 8.725 359.7 7.775C360.28 6.825 361.195 6.35 362.445 6.35C363.695 6.35 364.605 6.825 365.175 7.775C365.755 8.725 366.045 10.055 366.045 11.765C366.045 13.475 365.755 14.805 365.175 15.755C364.605 16.705 363.695 17.18 362.445 17.18ZM362.445 16.085C362.855 16.085 363.205 16 363.495 15.83C363.785 15.66 364.02 15.42 364.2 15.11C364.38 14.8 364.51 14.435 364.59 14.015C364.68 13.595 364.725 13.13 364.725 12.62V10.91C364.725 10.4 364.68 9.935 364.59 9.515C364.51 9.095 364.38 8.73 364.2 8.42C364.02 8.11 363.785 7.87 363.495 7.7C363.205 7.53 362.855 7.445 362.445 7.445C362.035 7.445 361.685 7.53 361.395 7.7C361.105 7.87 360.87 8.11 360.69 8.42C360.51 8.73 360.375 9.095 360.285 9.515C360.205 9.935 360.165 10.4 360.165 10.91V12.62C360.165 13.13 360.205 13.595 360.285 14.015C360.375 14.435 360.51 14.8 360.69 15.11C360.87 15.42 361.105 15.66 361.395 15.83C361.685 16 362.035 16.085 362.445 16.085ZM375.459 7.64H370.869L370.569 11.63H370.674C370.924 11.28 371.204 11 371.514 10.79C371.834 10.58 372.269 10.475 372.819 10.475C373.269 10.475 373.684 10.55 374.064 10.7C374.444 10.85 374.774 11.065 375.054 11.345C375.334 11.615 375.549 11.95 375.699 12.35C375.859 12.75 375.939 13.205 375.939 13.715C375.939 14.225 375.859 14.695 375.699 15.125C375.539 15.545 375.304 15.91 374.994 16.22C374.694 16.52 374.324 16.755 373.884 16.925C373.454 17.095 372.964 17.18 372.414 17.18C371.974 17.18 371.584 17.13 371.244 17.03C370.914 16.93 370.619 16.795 370.359 16.625C370.099 16.455 369.869 16.265 369.669 16.055C369.479 15.845 369.304 15.625 369.144 15.395L370.089 14.675C370.219 14.885 370.354 15.075 370.494 15.245C370.644 15.415 370.804 15.56 370.974 15.68C371.154 15.8 371.359 15.895 371.589 15.965C371.819 16.025 372.094 16.055 372.414 16.055C373.134 16.055 373.679 15.865 374.049 15.485C374.419 15.105 374.604 14.57 374.604 13.88V13.73C374.604 13.04 374.419 12.505 374.049 12.125C373.679 11.745 373.134 11.555 372.414 11.555C371.934 11.555 371.554 11.645 371.274 11.825C371.004 11.995 370.759 12.2 370.539 12.44L369.474 12.29L369.849 6.53H375.459V7.64ZM380.073 17.18C379.753 17.18 379.518 17.1 379.368 16.94C379.228 16.78 379.158 16.57 379.158 16.31V16.115C379.158 15.855 379.228 15.645 379.368 15.485C379.518 15.325 379.753 15.245 380.073 15.245C380.393 15.245 380.623 15.325 380.763 15.485C380.913 15.645 380.988 15.855 380.988 16.115V16.31C380.988 16.57 380.913 16.78 380.763 16.94C380.623 17.1 380.393 17.18 380.073 17.18ZM391.165 17H384.295V15.71L387.715 12.56C388.205 12.11 388.615 11.635 388.945 11.135C389.275 10.625 389.44 10.115 389.44 9.605V9.425C389.44 8.845 389.28 8.375 388.96 8.015C388.64 7.655 388.155 7.475 387.505 7.475C387.185 7.475 386.905 7.52 386.665 7.61C386.425 7.7 386.215 7.825 386.035 7.985C385.865 8.145 385.72 8.335 385.6 8.555C385.49 8.765 385.4 8.995 385.33 9.245L384.205 8.81C384.305 8.5 384.44 8.2 384.61 7.91C384.79 7.61 385.01 7.345 385.27 7.115C385.54 6.885 385.86 6.7 386.23 6.56C386.61 6.42 387.055 6.35 387.565 6.35C388.075 6.35 388.53 6.425 388.93 6.575C389.33 6.725 389.665 6.935 389.935 7.205C390.205 7.475 390.41 7.795 390.55 8.165C390.7 8.535 390.775 8.945 390.775 9.395C390.775 9.805 390.715 10.185 390.595 10.535C390.485 10.885 390.33 11.22 390.13 11.54C389.93 11.85 389.685 12.155 389.395 12.455C389.115 12.755 388.81 13.055 388.48 13.355L385.66 15.89H391.165V17ZM400.684 7.64H396.094L395.794 11.63H395.899C396.149 11.28 396.429 11 396.739 10.79C397.059 10.58 397.494 10.475 398.044 10.475C398.494 10.475 398.909 10.55 399.289 10.7C399.669 10.85 399.999 11.065 400.279 11.345C400.559 11.615 400.774 11.95 400.924 12.35C401.084 12.75 401.164 13.205 401.164 13.715C401.164 14.225 401.084 14.695 400.924 15.125C400.764 15.545 400.529 15.91 400.219 16.22C399.919 16.52 399.549 16.755 399.109 16.925C398.679 17.095 398.189 17.18 397.639 17.18C397.199 17.18 396.809 17.13 396.469 17.03C396.139 16.93 395.844 16.795 395.584 16.625C395.324 16.455 395.094 16.265 394.894 16.055C394.704 15.845 394.529 15.625 394.369 15.395L395.314 14.675C395.444 14.885 395.579 15.075 395.719 15.245C395.869 15.415 396.029 15.56 396.199 15.68C396.379 15.8 396.584 15.895 396.814 15.965C397.044 16.025 397.319 16.055 397.639 16.055C398.359 16.055 398.904 15.865 399.274 15.485C399.644 15.105 399.829 14.57 399.829 13.88V13.73C399.829 13.04 399.644 12.505 399.274 12.125C398.904 11.745 398.359 11.555 397.639 11.555C397.159 11.555 396.779 11.645 396.499 11.825C396.229 11.995 395.984 12.2 395.764 12.44L394.699 12.29L395.074 6.53H400.684V7.64ZM405.298 17.18C404.978 17.18 404.743 17.1 404.593 16.94C404.453 16.78 404.383 16.57 404.383 16.31V16.115C404.383 15.855 404.453 15.645 404.593 15.485C404.743 15.325 404.978 15.245 405.298 15.245C405.618 15.245 405.848 15.325 405.988 15.485C406.138 15.645 406.213 15.855 406.213 16.115V16.31C406.213 16.57 406.138 16.78 405.988 16.94C405.848 17.1 405.618 17.18 405.298 17.18Z" fill="#1B1C25"/>
<path d="M333.475 30.265H323.905V29.29H333.475V30.265ZM333.595 36.025H323.77V35.065H326.155L325.645 31.525L326.8 31.42L327.22 35.065H330.145L330.565 31.42L331.72 31.525L331.21 35.065H333.595V36.025ZM334.81 39.025V40H322.57V39.025H334.81ZM349.234 39.04V40H336.994V39.04H342.544V36.475H338.794V32.41H346.294V30.205H338.719V29.26H347.434V33.325H339.934V35.53H347.824V36.475H343.684V39.04H349.234ZM363.658 39.04V40H351.418V39.04H356.968V36.49H353.173V29.275H361.963V30.22H354.313V32.425H361.753V33.34H354.328V35.53H362.218V36.49H358.108V39.04H363.658ZM378.472 34.555H376.312V41.515H375.172V28.495H376.312V33.595H378.472V34.555ZM373.687 36.91L373.837 37.825C372.317 38.125 370.387 38.275 368.047 38.275H366.457V29.455H372.487V30.4H367.582V33.295H372.292V34.225H367.582V37.345H368.077C370.267 37.345 372.137 37.2 373.687 36.91ZM390.286 28.465H391.426V41.485H390.286V28.465ZM380.656 33.73C380.656 32.27 380.976 31.165 381.616 30.415C382.266 29.665 383.121 29.29 384.181 29.29C385.231 29.29 386.076 29.665 386.716 30.415C387.366 31.165 387.691 32.27 387.691 33.73C387.691 34.71 387.541 35.535 387.241 36.205C386.941 36.865 386.526 37.36 385.996 37.69C385.466 38.01 384.861 38.17 384.181 38.17C383.121 38.17 382.266 37.795 381.616 37.045C380.976 36.295 380.656 35.19 380.656 33.73ZM386.476 34.315V33.145C386.476 32.215 386.261 31.5 385.831 31C385.411 30.5 384.861 30.25 384.181 30.25C383.491 30.25 382.931 30.5 382.501 31C382.081 31.49 381.871 32.205 381.871 33.145V34.315C381.871 35.255 382.081 35.975 382.501 36.475C382.931 36.965 383.491 37.21 384.181 37.21C384.861 37.21 385.411 36.96 385.831 36.46C386.261 35.96 386.476 35.245 386.476 34.315ZM404.77 28.465H405.91V36.4H404.77V28.465ZM395.2 29.275H402.55V30.22H395.2V29.275ZM394.81 34.81C395.68 34.81 396.33 34.805 396.76 34.795L396.385 31.21L397.465 31.12L397.765 34.78C398.425 34.76 398.92 34.74 399.25 34.72L399.895 34.69L400.27 31.09L401.365 31.195L400.93 34.645C401.7 34.595 402.45 34.525 403.18 34.435L403.3 35.32C402.27 35.46 401.01 35.565 399.52 35.635C398.03 35.705 396.495 35.74 394.915 35.74L394.81 34.81ZM397.555 39.49C397.555 38.96 397.71 38.49 398.02 38.08C398.34 37.67 398.815 37.345 399.445 37.105C400.085 36.865 400.865 36.745 401.785 36.745C402.695 36.745 403.465 36.865 404.095 37.105C404.735 37.345 405.21 37.67 405.52 38.08C405.84 38.49 406 38.96 406 39.49C406 40.03 405.84 40.505 405.52 40.915C405.21 41.335 404.735 41.665 404.095 41.905C403.465 42.145 402.695 42.265 401.785 42.265C400.865 42.265 400.085 42.145 399.445 41.905C398.815 41.665 398.34 41.335 398.02 40.915C397.71 40.505 397.555 40.03 397.555 39.49ZM404.785 39.625V39.385C404.785 38.905 404.535 38.5 404.035 38.17C403.535 37.83 402.785 37.66 401.785 37.66C400.775 37.66 400.015 37.83 399.505 38.17C399.005 38.5 398.755 38.905 398.755 39.385V39.625C398.755 39.925 398.86 40.205 399.07 40.465C399.29 40.735 399.625 40.95 400.075 41.11C400.535 41.27 401.105 41.35 401.785 41.35C402.465 41.35 403.03 41.27 403.48 41.11C403.93 40.95 404.26 40.735 404.47 40.465C404.68 40.205 404.785 39.925 404.785 39.625Z" fill="#1B1C25"/>
<path d="M0 60H405.5C415.717 60 424 68.2827 424 78.5C424 88.7173 415.717 97 405.5 97H0V60Z" fill="#36685D" fill-opacity="0.25"/>
</svg>
