<svg width="995" height="34" viewBox="0 0 995 34" fill="none" xmlns="http://www.w3.org/2000/svg">
<line x1="720" y1="18" y2="18" stroke="#F8D554" stroke-width="2"/>
<path d="M995 34L995 0L711 -1.2414e-05L711 34L995 34Z" fill="#F8D554"/>
<path d="M762.184 11.2261C762.184 11.2261 762.163 11.2118 762.155 11.2061C762.181 11.1545 762.209 11.0973 762.229 11.0515C762.375 10.7279 762.461 10.4244 762.49 10.1409C762.553 9.5109 762.258 8.86949 761.603 8.21375C761.113 7.7241 760.661 7.40052 760.246 7.25162C760.057 7.18576 759.871 7.16285 759.685 7.18863C759.499 7.2144 759.353 7.27739 759.25 7.38334C759.17 7.46352 759.118 7.55801 759.096 7.66969C759.073 7.7785 759.084 7.87586 759.127 7.9589C759.276 8.22807 759.345 8.42278 759.336 8.54591C759.327 8.66904 759.227 8.85517 759.035 9.10715C758.918 9.25892 758.812 9.40782 758.721 9.54813C757.813 9.29901 756.858 9.16156 755.879 9.16156C754.03 9.16156 752.307 9.64549 750.856 10.4759L756.883 16.5035L762.184 11.2261Z" fill="#1B1C25"/>
<path d="M765.023 20.2489C765.3 20.3234 765.592 20.3663 765.898 20.3663C767.567 20.3663 769.046 19.1551 769.046 17.6603C769.046 16.1656 767.567 14.9544 765.898 14.9544C765.635 14.9544 765.383 14.9887 765.14 15.0431C764.742 13.9779 764.098 13.0015 763.271 12.1625L757.899 17.5114L763.245 22.8576C764.009 22.093 764.619 21.2082 765.025 20.2461L765.023 20.2489Z" fill="#1B1C25"/>
<path d="M760.246 27.7484C760.658 27.5966 761.11 27.2759 761.603 26.7863C762.258 26.1305 762.553 25.4891 762.49 24.8592C762.464 24.5757 762.375 24.2721 762.229 23.9486C762.209 23.9028 762.181 23.8484 762.155 23.7968L756.883 18.5251L750.859 24.5241C752.307 25.3545 754.03 25.8385 755.879 25.8385C756.858 25.8385 757.813 25.701 758.721 25.4519C758.815 25.5922 758.918 25.7411 759.035 25.8929C759.227 26.1449 759.327 26.331 759.336 26.4541C759.345 26.5772 759.276 26.772 759.127 27.0411C759.084 27.1242 759.073 27.2215 759.096 27.3303C759.118 27.4391 759.17 27.5336 759.25 27.6167C759.353 27.7198 759.499 27.7856 759.685 27.8114C759.871 27.8372 760.06 27.8143 760.246 27.7484Z" fill="#1B1C25"/>
<path d="M746.217 25.9788C746.309 25.9158 746.372 25.8413 746.401 25.7497C746.486 25.4548 746.575 25.2658 746.667 25.1856C746.758 25.1054 746.962 25.0424 747.276 24.9995C748.032 24.8992 748.593 24.7332 748.959 24.5012C749.248 24.318 749.477 24.0488 749.649 23.6994L749.655 23.7052L755.871 17.5143L749.652 11.2977L749.652 11.3006C749.474 10.9512 749.245 10.6821 748.956 10.4988C748.59 10.2669 748.029 10.1008 747.273 10.0006C746.959 9.95761 746.755 9.89748 746.664 9.81444C746.572 9.73426 746.481 9.54527 746.398 9.25034C746.369 9.1587 746.309 9.08425 746.215 9.02126C746.123 8.95826 746.02 8.92963 745.906 8.92963C745.76 8.92963 745.611 8.9869 745.459 9.10143C745.31 9.21597 745.193 9.36201 745.107 9.54241C744.921 9.94043 744.829 10.4874 744.829 11.1832C744.829 12.1109 745.076 12.7724 745.562 13.1733C745.78 13.3537 746.057 13.5083 746.389 13.6343C746.638 13.7288 746.987 13.8348 747.442 13.955C746.876 15.0317 746.555 16.2344 746.555 17.5057C746.555 18.7771 746.876 19.9769 747.442 21.0565C746.987 21.1767 746.638 21.2827 746.389 21.3772C746.057 21.5032 745.78 21.6578 745.562 21.8382C745.073 22.2362 744.829 22.9005 744.829 23.8283C744.829 24.5213 744.921 25.0682 745.107 25.4691C745.193 25.6495 745.31 25.7984 745.459 25.91C745.608 26.0246 745.757 26.0819 745.906 26.0819C746.02 26.0819 746.123 26.0504 746.215 25.9902L746.217 25.9788Z" fill="#1B1C25"/>
</svg>
