<svg width="155" height="134" viewBox="0 0 155 134" fill="none" xmlns="http://www.w3.org/2000/svg">
<rect width="155" height="134" fill="#273F65"/>
<path d="M48.6171 58L50.4069 47.0909H51.4723L49.6825 58H48.6171ZM43.6527 54.9744L43.8231 53.9091H51.9623L51.7919 54.9744H43.6527ZM44.7819 58L46.5717 47.0909H47.637L45.8473 58H44.7819ZM44.2919 51.1818L44.4623 50.1165H52.6015L52.4311 51.1818H44.2919ZM54.7391 58V57.0412L58.34 53.0994C58.7626 52.6378 59.1106 52.2365 59.384 51.8956C59.6574 51.5511 59.8599 51.228 59.9913 50.9261C60.1262 50.6207 60.1937 50.3011 60.1937 49.9673C60.1937 49.5838 60.1013 49.2518 59.9167 48.9712C59.7356 48.6907 59.487 48.4741 59.1709 48.3214C58.8549 48.1687 58.4998 48.0923 58.1056 48.0923C57.6866 48.0923 57.3208 48.1793 57.0083 48.3533C56.6994 48.5238 56.4597 48.7635 56.2892 49.0724C56.1223 49.3814 56.0388 49.7436 56.0388 50.1591H54.7817C54.7817 49.5199 54.9291 48.9588 55.2239 48.4759C55.5186 47.9929 55.9199 47.6165 56.4277 47.3466C56.9391 47.0767 57.5126 46.9418 58.1482 46.9418C58.7874 46.9418 59.3538 47.0767 59.8474 47.3466C60.341 47.6165 60.7281 47.9805 61.0087 48.4386C61.2892 48.8967 61.4295 49.4062 61.4295 49.9673C61.4295 50.3686 61.3567 50.761 61.2111 51.1445C61.069 51.5245 60.8204 51.9489 60.4653 52.4176C60.1138 52.8828 59.6255 53.451 59.0005 54.1222L56.5502 56.7429V56.8281H61.6212V58H54.7391ZM64.9121 58L69.7913 48.348V48.2628H64.1663V47.0909H71.155V48.3267L66.297 58H64.9121ZM77.3275 58.1491C76.6244 58.1491 75.9976 58.0284 75.4472 57.7869C74.9003 57.5455 74.4653 57.2099 74.1422 56.7802C73.8226 56.3469 73.6486 55.8445 73.6202 55.2727H74.9625C74.9909 55.6243 75.1116 55.9279 75.3247 56.1836C75.5378 56.4357 75.8165 56.631 76.161 56.7695C76.5055 56.908 76.8872 56.9773 77.3062 56.9773C77.775 56.9773 78.1905 56.8956 78.5527 56.7322C78.9149 56.5689 79.199 56.3416 79.405 56.0504C79.6109 55.7592 79.7139 55.4219 79.7139 55.0384C79.7139 54.6371 79.6145 54.2837 79.4156 53.9783C79.2168 53.6694 78.9256 53.4279 78.542 53.2539C78.1585 53.0799 77.6898 52.9929 77.1358 52.9929H76.2622V51.821H77.1358C77.569 51.821 77.949 51.7429 78.2757 51.5866C78.606 51.4304 78.8634 51.2102 79.0481 50.9261C79.2363 50.642 79.3304 50.3082 79.3304 49.9247C79.3304 49.5554 79.2487 49.234 79.0854 48.9606C78.922 48.6871 78.6912 48.4741 78.3929 48.3214C78.0981 48.1687 77.7501 48.0923 77.3489 48.0923C76.9724 48.0923 76.6173 48.1616 76.2835 48.3001C75.9533 48.435 75.6834 48.6321 75.4739 48.8913C75.2643 49.147 75.1507 49.456 75.1329 49.8182H73.8545C73.8758 49.2464 74.0481 48.7457 74.3712 48.3161C74.6944 47.8828 75.117 47.5455 75.639 47.304C76.1646 47.0625 76.7416 46.9418 77.3702 46.9418C78.0449 46.9418 78.6237 47.0785 79.1067 47.3519C79.5896 47.6218 79.9607 47.9787 80.2199 48.4226C80.4792 48.8665 80.6088 49.3459 80.6088 49.8608C80.6088 50.4751 80.4472 50.9989 80.1241 51.4322C79.8045 51.8654 79.3695 52.1655 78.819 52.3324V52.4176C79.5079 52.5312 80.0459 52.8242 80.433 53.2965C80.8201 53.7653 81.0136 54.3459 81.0136 55.0384C81.0136 55.6314 80.8521 56.1641 80.5289 56.6364C80.2093 57.1051 79.7725 57.4744 79.2185 57.7443C78.6646 58.0142 78.0342 58.1491 77.3275 58.1491ZM84.134 58V47.0909H90.6752V48.2628H85.455V51.9489H90.1851V53.1207H85.455V58H84.134ZM97.1181 58.1491C96.6707 58.142 96.2232 58.0568 95.7758 57.8935C95.3283 57.7301 94.92 57.4549 94.5506 57.0678C94.1813 56.6772 93.8848 56.1499 93.6611 55.4858C93.4374 54.8182 93.3255 53.9801 93.3255 52.9716C93.3255 52.0057 93.4161 51.1499 93.5972 50.4041C93.7783 49.6548 94.0411 49.0245 94.3855 48.5131C94.73 47.9982 95.1455 47.6076 95.632 47.3413C96.122 47.0749 96.6742 46.9418 97.2886 46.9418C97.8994 46.9418 98.4427 47.0643 98.9185 47.3093C99.3979 47.5508 99.7886 47.8881 100.09 48.3214C100.392 48.7546 100.588 49.2536 100.676 49.8182H99.3766C99.2559 49.3281 99.0215 48.9215 98.6735 48.5984C98.3255 48.2752 97.8639 48.1136 97.2886 48.1136C96.4434 48.1136 95.7776 48.4812 95.2911 49.2163C94.8081 49.9513 94.5649 50.983 94.5613 52.3111H94.6465C94.8454 52.0092 95.0815 51.7518 95.355 51.5387C95.632 51.3221 95.9374 51.1552 96.2712 51.038C96.605 50.9208 96.9583 50.8622 97.3312 50.8622C97.9562 50.8622 98.5279 51.0185 99.0464 51.331C99.5649 51.6399 99.9803 52.0678 100.293 52.6147C100.605 53.158 100.762 53.7812 100.762 54.4844C100.762 55.1591 100.611 55.777 100.309 56.3381C100.007 56.8956 99.5826 57.3395 99.0357 57.6697C98.4924 57.9964 97.8532 58.1562 97.1181 58.1491ZM97.1181 56.9773C97.5656 56.9773 97.9668 56.8654 98.322 56.6417C98.6806 56.418 98.9629 56.1179 99.1689 55.7415C99.3784 55.3651 99.4832 54.946 99.4832 54.4844C99.4832 54.0334 99.382 53.6232 99.1796 53.2539C98.9807 52.881 98.7055 52.5845 98.3539 52.3643C98.0059 52.1442 97.6082 52.0341 97.1607 52.0341C96.8234 52.0341 96.5091 52.1016 96.2179 52.2365C95.9267 52.3679 95.671 52.549 95.4509 52.7798C95.2342 53.0107 95.0638 53.2752 94.9395 53.5735C94.8152 53.8683 94.7531 54.179 94.7531 54.5057C94.7531 54.9389 94.8543 55.3437 95.0567 55.7202C95.2627 56.0966 95.5432 56.4002 95.8983 56.631C96.257 56.8619 96.6636 56.9773 97.1181 56.9773ZM107.015 58.1491C106.39 58.1491 105.828 58.0249 105.327 57.7763C104.826 57.5277 104.425 57.1868 104.123 56.7536C103.821 56.3203 103.656 55.8267 103.628 55.2727H104.906C104.956 55.7663 105.179 56.1747 105.577 56.4979C105.978 56.8175 106.458 56.9773 107.015 56.9773C107.463 56.9773 107.861 56.8725 108.209 56.663C108.56 56.4535 108.835 56.1658 109.034 55.8001C109.237 55.4308 109.338 55.0135 109.338 54.5483C109.338 54.0724 109.233 53.6481 109.024 53.2752C108.818 52.8988 108.534 52.6023 108.171 52.3857C107.809 52.169 107.395 52.0589 106.93 52.0554C106.596 52.0518 106.254 52.1033 105.902 52.2099C105.551 52.3129 105.261 52.446 105.034 52.6094L103.798 52.4602L104.459 47.0909H110.126V48.2628H105.567L105.183 51.4801H105.247C105.471 51.3026 105.751 51.1552 106.089 51.038C106.426 50.9208 106.777 50.8622 107.143 50.8622C107.811 50.8622 108.406 51.022 108.928 51.3416C109.453 51.6577 109.865 52.0909 110.163 52.6413C110.465 53.1918 110.616 53.8203 110.616 54.527C110.616 55.223 110.46 55.8445 110.148 56.3913C109.839 56.9347 109.412 57.3643 108.869 57.6804C108.326 57.9929 107.708 58.1491 107.015 58.1491Z" fill="#EBECF1"/>
<path d="M72.2261 76.8162C72.2261 76.8162 72.2117 76.8363 72.206 76.8449C72.1545 76.8191 72.0972 76.7905 72.0514 76.7704C71.7278 76.6245 71.4243 76.5386 71.1408 76.51C70.5108 76.4471 69.8694 76.7418 69.2137 77.3972C68.724 77.8866 68.4005 78.3388 68.2516 78.7537C68.1857 78.9426 68.1628 79.1286 68.1886 79.3147C68.2143 79.5007 68.2773 79.6467 68.3833 79.7497C68.4635 79.8298 68.558 79.8813 68.6696 79.9042C68.7784 79.9271 68.8758 79.9157 68.9588 79.8727C69.228 79.7239 69.4227 79.6552 69.5459 79.6638C69.669 79.6724 69.8551 79.7726 70.1071 79.9643C70.2589 80.0817 70.4078 80.1875 70.5481 80.2791C70.2989 81.1863 70.1615 82.1422 70.1615 83.121C70.1615 84.9698 70.6454 86.6926 71.4758 88.1436L77.5035 82.1165L72.2261 76.8162Z" fill="white"/>
<path d="M81.2491 73.9772C81.3235 73.6996 81.3665 73.4077 81.3665 73.1014C81.3665 71.433 80.1552 69.9534 78.6605 69.9534C77.1657 69.9534 75.9545 71.433 75.9545 73.1014C75.9545 73.3647 75.9888 73.6166 76.0433 73.8598C74.978 74.2577 74.0016 74.9016 73.1626 75.7287L78.5116 81.1004L83.8577 75.7544C83.0931 74.9903 82.2083 74.3807 81.2462 73.9743L81.2491 73.9772Z" fill="white"/>
<path d="M88.7482 78.7537C88.5964 78.3416 88.2757 77.8894 87.786 77.3972C87.1303 76.7418 86.4889 76.4471 85.8589 76.51C85.5754 76.5358 85.2719 76.6245 84.9483 76.7704C84.9025 76.7905 84.8481 76.8191 84.7966 76.8449L79.5249 82.1165L85.5239 88.1407C86.3543 86.6926 86.8382 84.9698 86.8382 83.121C86.8382 82.1422 86.7008 81.1863 86.4517 80.2791C86.592 80.1847 86.7409 80.0817 86.8926 79.9643C87.1446 79.7726 87.3307 79.6724 87.4539 79.6638C87.577 79.6552 87.7717 79.7239 88.0409 79.8727C88.1239 79.9157 88.2213 79.9271 88.3301 79.9042C88.4389 79.8813 88.5334 79.8298 88.6164 79.7497C88.7195 79.6467 88.7854 79.5007 88.8112 79.3147C88.8369 79.1286 88.814 78.9398 88.7482 78.7537Z" fill="white"/>
<path d="M86.9788 92.7828C86.9158 92.6912 86.8414 92.6283 86.7498 92.5996C86.4548 92.5138 86.2658 92.4251 86.1856 92.3335C86.1055 92.2419 86.0425 92.0387 85.9995 91.7239C85.8993 90.9684 85.7332 90.4074 85.5013 90.0411C85.318 89.7521 85.0488 89.5231 84.6995 89.3514L84.7052 89.3457L78.5144 83.1296L72.2978 89.3485H72.3006C71.9513 89.526 71.6821 89.7549 71.4989 90.044C71.2669 90.4103 71.1008 90.9712 71.0006 91.7268C70.9577 92.0416 70.8975 92.2448 70.8145 92.3363C70.7343 92.4279 70.5453 92.5195 70.2504 92.6025C70.1588 92.6311 70.0843 92.6912 70.0213 92.7857C69.9583 92.8772 69.9297 92.9803 69.9297 93.0947C69.9297 93.2407 69.987 93.3895 70.1015 93.5412C70.216 93.69 70.3621 93.8074 70.5425 93.8932C70.9405 94.0792 71.4874 94.1708 72.1832 94.1708C73.111 94.1708 73.7725 93.9247 74.1734 93.4382C74.3538 93.2207 74.5084 92.9431 74.6344 92.6111C74.7289 92.3621 74.8348 92.0129 74.9551 91.5579C76.0318 92.1246 77.2344 92.4451 78.5058 92.4451C79.7772 92.4451 80.977 92.1246 82.0565 91.5579C82.1768 92.0129 82.2827 92.3621 82.3772 92.6111C82.5032 92.9431 82.6578 93.2207 82.8382 93.4382C83.2363 93.9276 83.9006 94.1708 84.8284 94.1708C85.5213 94.1708 86.0682 94.0792 86.4691 93.8932C86.6495 93.8074 86.7984 93.69 86.9101 93.5412C87.0246 93.3924 87.0819 93.2436 87.0819 93.0947C87.0819 92.9803 87.0504 92.8772 86.9903 92.7857L86.9788 92.7828Z" fill="white"/>
</svg>
