<svg width="608" height="97" viewBox="0 0 608 97" fill="none" xmlns="http://www.w3.org/2000/svg">
<path d="M430.995 17H424.125V15.71L427.545 12.56C428.035 12.11 428.445 11.635 428.775 11.135C429.105 10.625 429.27 10.115 429.27 9.605V9.425C429.27 8.845 429.11 8.375 428.79 8.015C428.47 7.655 427.985 7.475 427.335 7.475C427.015 7.475 426.735 7.52 426.495 7.61C426.255 7.7 426.045 7.825 425.865 7.985C425.695 8.145 425.55 8.335 425.43 8.555C425.32 8.765 425.23 8.995 425.16 9.245L424.035 8.81C424.135 8.5 424.27 8.2 424.44 7.91C424.62 7.61 424.84 7.345 425.1 7.115C425.37 6.885 425.69 6.7 426.06 6.56C426.44 6.42 426.885 6.35 427.395 6.35C427.905 6.35 428.36 6.425 428.76 6.575C429.16 6.725 429.495 6.935 429.765 7.205C430.035 7.475 430.24 7.795 430.38 8.165C430.53 8.535 430.605 8.945 430.605 9.395C430.605 9.805 430.545 10.185 430.425 10.535C430.315 10.885 430.16 11.22 429.96 11.54C429.76 11.85 429.515 12.155 429.225 12.455C428.945 12.755 428.64 13.055 428.31 13.355L425.49 15.89H430.995V17ZM441.039 17H434.169V15.71L437.589 12.56C438.079 12.11 438.489 11.635 438.819 11.135C439.149 10.625 439.314 10.115 439.314 9.605V9.425C439.314 8.845 439.154 8.375 438.834 8.015C438.514 7.655 438.029 7.475 437.379 7.475C437.059 7.475 436.779 7.52 436.539 7.61C436.299 7.7 436.089 7.825 435.909 7.985C435.739 8.145 435.594 8.335 435.474 8.555C435.364 8.765 435.274 8.995 435.204 9.245L434.079 8.81C434.179 8.5 434.314 8.2 434.484 7.91C434.664 7.61 434.884 7.345 435.144 7.115C435.414 6.885 435.734 6.7 436.104 6.56C436.484 6.42 436.929 6.35 437.439 6.35C437.949 6.35 438.404 6.425 438.804 6.575C439.204 6.725 439.539 6.935 439.809 7.205C440.079 7.475 440.284 7.795 440.424 8.165C440.574 8.535 440.649 8.945 440.649 9.395C440.649 9.805 440.589 10.185 440.469 10.535C440.359 10.885 440.204 11.22 440.004 11.54C439.804 11.85 439.559 12.155 439.269 12.455C438.989 12.755 438.684 13.055 438.354 13.355L435.534 15.89H441.039V17ZM445.128 17.18C444.808 17.18 444.573 17.1 444.423 16.94C444.283 16.78 444.213 16.57 444.213 16.31V16.115C444.213 15.855 444.283 15.645 444.423 15.485C444.573 15.325 444.808 15.245 445.128 15.245C445.448 15.245 445.678 15.325 445.818 15.485C445.968 15.645 446.043 15.855 446.043 16.115V16.31C446.043 16.57 445.968 16.78 445.818 16.94C445.678 17.1 445.448 17.18 445.128 17.18ZM452.725 17.18C451.475 17.18 450.56 16.705 449.98 15.755C449.41 14.805 449.125 13.475 449.125 11.765C449.125 10.055 449.41 8.725 449.98 7.775C450.56 6.825 451.475 6.35 452.725 6.35C453.975 6.35 454.885 6.825 455.455 7.775C456.035 8.725 456.325 10.055 456.325 11.765C456.325 13.475 456.035 14.805 455.455 15.755C454.885 16.705 453.975 17.18 452.725 17.18ZM452.725 16.085C453.135 16.085 453.485 16 453.775 15.83C454.065 15.66 454.3 15.42 454.48 15.11C454.66 14.8 454.79 14.435 454.87 14.015C454.96 13.595 455.005 13.13 455.005 12.62V10.91C455.005 10.4 454.96 9.935 454.87 9.515C454.79 9.095 454.66 8.73 454.48 8.42C454.3 8.11 454.065 7.87 453.775 7.7C453.485 7.53 453.135 7.445 452.725 7.445C452.315 7.445 451.965 7.53 451.675 7.7C451.385 7.87 451.15 8.11 450.97 8.42C450.79 8.73 450.655 9.095 450.565 9.515C450.485 9.935 450.445 10.4 450.445 10.91V12.62C450.445 13.13 450.485 13.595 450.565 14.015C450.655 14.435 450.79 14.8 450.97 15.11C451.15 15.42 451.385 15.66 451.675 15.83C451.965 16 452.315 16.085 452.725 16.085ZM465.739 7.64H461.149L460.849 11.63H460.954C461.204 11.28 461.484 11 461.794 10.79C462.114 10.58 462.549 10.475 463.099 10.475C463.549 10.475 463.964 10.55 464.344 10.7C464.724 10.85 465.054 11.065 465.334 11.345C465.614 11.615 465.829 11.95 465.979 12.35C466.139 12.75 466.219 13.205 466.219 13.715C466.219 14.225 466.139 14.695 465.979 15.125C465.819 15.545 465.584 15.91 465.274 16.22C464.974 16.52 464.604 16.755 464.164 16.925C463.734 17.095 463.244 17.18 462.694 17.18C462.254 17.18 461.864 17.13 461.524 17.03C461.194 16.93 460.899 16.795 460.639 16.625C460.379 16.455 460.149 16.265 459.949 16.055C459.759 15.845 459.584 15.625 459.424 15.395L460.369 14.675C460.499 14.885 460.634 15.075 460.774 15.245C460.924 15.415 461.084 15.56 461.254 15.68C461.434 15.8 461.639 15.895 461.869 15.965C462.099 16.025 462.374 16.055 462.694 16.055C463.414 16.055 463.959 15.865 464.329 15.485C464.699 15.105 464.884 14.57 464.884 13.88V13.73C464.884 13.04 464.699 12.505 464.329 12.125C463.959 11.745 463.414 11.555 462.694 11.555C462.214 11.555 461.834 11.645 461.554 11.825C461.284 11.995 461.039 12.2 460.819 12.44L459.754 12.29L460.129 6.53H465.739V7.64ZM470.353 17.18C470.033 17.18 469.798 17.1 469.648 16.94C469.508 16.78 469.438 16.57 469.438 16.31V16.115C469.438 15.855 469.508 15.645 469.648 15.485C469.798 15.325 470.033 15.245 470.353 15.245C470.673 15.245 470.903 15.325 471.043 15.485C471.193 15.645 471.268 15.855 471.268 16.115V16.31C471.268 16.57 471.193 16.78 471.043 16.94C470.903 17.1 470.673 17.18 470.353 17.18ZM481.445 17H474.575V15.71L477.995 12.56C478.485 12.11 478.895 11.635 479.225 11.135C479.555 10.625 479.72 10.115 479.72 9.605V9.425C479.72 8.845 479.56 8.375 479.24 8.015C478.92 7.655 478.435 7.475 477.785 7.475C477.465 7.475 477.185 7.52 476.945 7.61C476.705 7.7 476.495 7.825 476.315 7.985C476.145 8.145 476 8.335 475.88 8.555C475.77 8.765 475.68 8.995 475.61 9.245L474.485 8.81C474.585 8.5 474.72 8.2 474.89 7.91C475.07 7.61 475.29 7.345 475.55 7.115C475.82 6.885 476.14 6.7 476.51 6.56C476.89 6.42 477.335 6.35 477.845 6.35C478.355 6.35 478.81 6.425 479.21 6.575C479.61 6.725 479.945 6.935 480.215 7.205C480.485 7.475 480.69 7.795 480.83 8.165C480.98 8.535 481.055 8.945 481.055 9.395C481.055 9.805 480.995 10.185 480.875 10.535C480.765 10.885 480.61 11.22 480.41 11.54C480.21 11.85 479.965 12.155 479.675 12.455C479.395 12.755 479.09 13.055 478.76 13.355L475.94 15.89H481.445V17ZM488.01 17.18C487.47 17.18 486.98 17.09 486.54 16.91C486.11 16.72 485.74 16.455 485.43 16.115C485.13 15.765 484.9 15.34 484.74 14.84C484.58 14.34 484.5 13.78 484.5 13.16C484.5 12.38 484.615 11.65 484.845 10.97C485.075 10.28 485.37 9.655 485.73 9.095C486.1 8.525 486.505 8.025 486.945 7.595C487.385 7.155 487.815 6.8 488.235 6.53H489.855C489.295 6.94 488.795 7.34 488.355 7.73C487.915 8.12 487.53 8.53 487.2 8.96C486.87 9.38 486.59 9.835 486.36 10.325C486.13 10.805 485.945 11.35 485.805 11.96L485.88 11.99C486.13 11.56 486.45 11.205 486.84 10.925C487.24 10.635 487.76 10.49 488.4 10.49C488.85 10.49 489.265 10.565 489.645 10.715C490.025 10.865 490.35 11.08 490.62 11.36C490.89 11.64 491.1 11.98 491.25 12.38C491.41 12.78 491.49 13.225 491.49 13.715C491.49 14.225 491.405 14.695 491.235 15.125C491.075 15.545 490.84 15.91 490.53 16.22C490.23 16.52 489.865 16.755 489.435 16.925C489.005 17.095 488.53 17.18 488.01 17.18ZM487.995 16.085C488.685 16.085 489.22 15.895 489.6 15.515C489.99 15.135 490.185 14.59 490.185 13.88V13.76C490.185 13.05 489.99 12.505 489.6 12.125C489.22 11.745 488.685 11.555 487.995 11.555C487.305 11.555 486.765 11.745 486.375 12.125C485.995 12.505 485.805 13.05 485.805 13.76V13.88C485.805 14.59 485.995 15.135 486.375 15.515C486.765 15.895 487.305 16.085 487.995 16.085ZM495.579 17.18C495.259 17.18 495.024 17.1 494.874 16.94C494.734 16.78 494.664 16.57 494.664 16.31V16.115C494.664 15.855 494.734 15.645 494.874 15.485C495.024 15.325 495.259 15.245 495.579 15.245C495.899 15.245 496.129 15.325 496.269 15.485C496.419 15.645 496.494 15.855 496.494 16.115V16.31C496.494 16.57 496.419 16.78 496.269 16.94C496.129 17.1 495.899 17.18 495.579 17.18ZM504.961 13.46C504.591 13.46 504.261 13.41 503.971 13.31C503.691 13.21 503.376 13.075 503.026 12.905C502.746 12.765 502.471 12.645 502.201 12.545C501.931 12.445 501.641 12.395 501.331 12.395C501.081 12.395 500.866 12.435 500.686 12.515C500.516 12.585 500.316 12.705 500.086 12.875L499.591 12.215C499.791 11.965 500.026 11.765 500.296 11.615C500.576 11.465 500.941 11.39 501.391 11.39C501.761 11.39 502.086 11.44 502.366 11.54C502.656 11.64 502.976 11.775 503.326 11.945C503.606 12.085 503.881 12.205 504.151 12.305C504.421 12.405 504.711 12.455 505.021 12.455C505.271 12.455 505.481 12.42 505.651 12.35C505.831 12.27 506.036 12.145 506.266 11.975L506.761 12.635C506.561 12.885 506.321 13.085 506.041 13.235C505.771 13.385 505.411 13.46 504.961 13.46ZM516.715 17H509.845V15.71L513.265 12.56C513.755 12.11 514.165 11.635 514.495 11.135C514.825 10.625 514.99 10.115 514.99 9.605V9.425C514.99 8.845 514.83 8.375 514.51 8.015C514.19 7.655 513.705 7.475 513.055 7.475C512.735 7.475 512.455 7.52 512.215 7.61C511.975 7.7 511.765 7.825 511.585 7.985C511.415 8.145 511.27 8.335 511.15 8.555C511.04 8.765 510.95 8.995 510.88 9.245L509.755 8.81C509.855 8.5 509.99 8.2 510.16 7.91C510.34 7.61 510.56 7.345 510.82 7.115C511.09 6.885 511.41 6.7 511.78 6.56C512.16 6.42 512.605 6.35 513.115 6.35C513.625 6.35 514.08 6.425 514.48 6.575C514.88 6.725 515.215 6.935 515.485 7.205C515.755 7.475 515.96 7.795 516.1 8.165C516.25 8.535 516.325 8.945 516.325 9.395C516.325 9.805 516.265 10.185 516.145 10.535C516.035 10.885 515.88 11.22 515.68 11.54C515.48 11.85 515.235 12.155 514.945 12.455C514.665 12.755 514.36 13.055 514.03 13.355L511.21 15.89H516.715V17ZM526.759 17H519.889V15.71L523.309 12.56C523.799 12.11 524.209 11.635 524.539 11.135C524.869 10.625 525.034 10.115 525.034 9.605V9.425C525.034 8.845 524.874 8.375 524.554 8.015C524.234 7.655 523.749 7.475 523.099 7.475C522.779 7.475 522.499 7.52 522.259 7.61C522.019 7.7 521.809 7.825 521.629 7.985C521.459 8.145 521.314 8.335 521.194 8.555C521.084 8.765 520.994 8.995 520.924 9.245L519.799 8.81C519.899 8.5 520.034 8.2 520.204 7.91C520.384 7.61 520.604 7.345 520.864 7.115C521.134 6.885 521.454 6.7 521.824 6.56C522.204 6.42 522.649 6.35 523.159 6.35C523.669 6.35 524.124 6.425 524.524 6.575C524.924 6.725 525.259 6.935 525.529 7.205C525.799 7.475 526.004 7.795 526.144 8.165C526.294 8.535 526.369 8.945 526.369 9.395C526.369 9.805 526.309 10.185 526.189 10.535C526.079 10.885 525.924 11.22 525.724 11.54C525.524 11.85 525.279 12.155 524.989 12.455C524.709 12.755 524.404 13.055 524.074 13.355L521.254 15.89H526.759V17ZM530.848 17.18C530.528 17.18 530.293 17.1 530.143 16.94C530.003 16.78 529.933 16.57 529.933 16.31V16.115C529.933 15.855 530.003 15.645 530.143 15.485C530.293 15.325 530.528 15.245 530.848 15.245C531.168 15.245 531.398 15.325 531.538 15.485C531.688 15.645 531.763 15.855 531.763 16.115V16.31C531.763 16.57 531.688 16.78 531.538 16.94C531.398 17.1 531.168 17.18 530.848 17.18ZM538.445 17.18C537.195 17.18 536.28 16.705 535.7 15.755C535.13 14.805 534.845 13.475 534.845 11.765C534.845 10.055 535.13 8.725 535.7 7.775C536.28 6.825 537.195 6.35 538.445 6.35C539.695 6.35 540.605 6.825 541.175 7.775C541.755 8.725 542.045 10.055 542.045 11.765C542.045 13.475 541.755 14.805 541.175 15.755C540.605 16.705 539.695 17.18 538.445 17.18ZM538.445 16.085C538.855 16.085 539.205 16 539.495 15.83C539.785 15.66 540.02 15.42 540.2 15.11C540.38 14.8 540.51 14.435 540.59 14.015C540.68 13.595 540.725 13.13 540.725 12.62V10.91C540.725 10.4 540.68 9.935 540.59 9.515C540.51 9.095 540.38 8.73 540.2 8.42C540.02 8.11 539.785 7.87 539.495 7.7C539.205 7.53 538.855 7.445 538.445 7.445C538.035 7.445 537.685 7.53 537.395 7.7C537.105 7.87 536.87 8.11 536.69 8.42C536.51 8.73 536.375 9.095 536.285 9.515C536.205 9.935 536.165 10.4 536.165 10.91V12.62C536.165 13.13 536.205 13.595 536.285 14.015C536.375 14.435 536.51 14.8 536.69 15.11C536.87 15.42 537.105 15.66 537.395 15.83C537.685 16 538.035 16.085 538.445 16.085ZM551.459 7.64H546.869L546.569 11.63H546.674C546.924 11.28 547.204 11 547.514 10.79C547.834 10.58 548.269 10.475 548.819 10.475C549.269 10.475 549.684 10.55 550.064 10.7C550.444 10.85 550.774 11.065 551.054 11.345C551.334 11.615 551.549 11.95 551.699 12.35C551.859 12.75 551.939 13.205 551.939 13.715C551.939 14.225 551.859 14.695 551.699 15.125C551.539 15.545 551.304 15.91 550.994 16.22C550.694 16.52 550.324 16.755 549.884 16.925C549.454 17.095 548.964 17.18 548.414 17.18C547.974 17.18 547.584 17.13 547.244 17.03C546.914 16.93 546.619 16.795 546.359 16.625C546.099 16.455 545.869 16.265 545.669 16.055C545.479 15.845 545.304 15.625 545.144 15.395L546.089 14.675C546.219 14.885 546.354 15.075 546.494 15.245C546.644 15.415 546.804 15.56 546.974 15.68C547.154 15.8 547.359 15.895 547.589 15.965C547.819 16.025 548.094 16.055 548.414 16.055C549.134 16.055 549.679 15.865 550.049 15.485C550.419 15.105 550.604 14.57 550.604 13.88V13.73C550.604 13.04 550.419 12.505 550.049 12.125C549.679 11.745 549.134 11.555 548.414 11.555C547.934 11.555 547.554 11.645 547.274 11.825C547.004 11.995 546.759 12.2 546.539 12.44L545.474 12.29L545.849 6.53H551.459V7.64ZM556.073 17.18C555.753 17.18 555.518 17.1 555.368 16.94C555.228 16.78 555.158 16.57 555.158 16.31V16.115C555.158 15.855 555.228 15.645 555.368 15.485C555.518 15.325 555.753 15.245 556.073 15.245C556.393 15.245 556.623 15.325 556.763 15.485C556.913 15.645 556.988 15.855 556.988 16.115V16.31C556.988 16.57 556.913 16.78 556.763 16.94C556.623 17.1 556.393 17.18 556.073 17.18ZM567.165 17H560.295V15.71L563.715 12.56C564.205 12.11 564.615 11.635 564.945 11.135C565.275 10.625 565.44 10.115 565.44 9.605V9.425C565.44 8.845 565.28 8.375 564.96 8.015C564.64 7.655 564.155 7.475 563.505 7.475C563.185 7.475 562.905 7.52 562.665 7.61C562.425 7.7 562.215 7.825 562.035 7.985C561.865 8.145 561.72 8.335 561.6 8.555C561.49 8.765 561.4 8.995 561.33 9.245L560.205 8.81C560.305 8.5 560.44 8.2 560.61 7.91C560.79 7.61 561.01 7.345 561.27 7.115C561.54 6.885 561.86 6.7 562.23 6.56C562.61 6.42 563.055 6.35 563.565 6.35C564.075 6.35 564.53 6.425 564.93 6.575C565.33 6.725 565.665 6.935 565.935 7.205C566.205 7.475 566.41 7.795 566.55 8.165C566.7 8.535 566.775 8.945 566.775 9.395C566.775 9.805 566.715 10.185 566.595 10.535C566.485 10.885 566.33 11.22 566.13 11.54C565.93 11.85 565.685 12.155 565.395 12.455C565.115 12.755 564.81 13.055 564.48 13.355L561.66 15.89H567.165V17ZM577.209 10.37C577.209 11.15 577.094 11.885 576.864 12.575C576.634 13.255 576.334 13.88 575.964 14.45C575.604 15.01 575.204 15.51 574.764 15.95C574.324 16.38 573.894 16.73 573.474 17H571.854C572.414 16.59 572.914 16.19 573.354 15.8C573.794 15.41 574.179 15.005 574.509 14.585C574.839 14.155 575.119 13.7 575.349 13.22C575.579 12.73 575.764 12.18 575.904 11.57L575.829 11.54C575.579 11.97 575.254 12.33 574.854 12.62C574.464 12.9 573.949 13.04 573.309 13.04C572.859 13.04 572.444 12.965 572.064 12.815C571.684 12.665 571.359 12.45 571.089 12.17C570.819 11.89 570.604 11.555 570.444 11.165C570.294 10.765 570.219 10.315 570.219 9.815C570.219 9.305 570.299 8.84 570.459 8.42C570.629 7.99 570.864 7.625 571.164 7.325C571.474 7.015 571.839 6.775 572.259 6.605C572.689 6.435 573.169 6.35 573.699 6.35C574.239 6.35 574.724 6.445 575.154 6.635C575.594 6.815 575.964 7.08 576.264 7.43C576.574 7.77 576.809 8.19 576.969 8.69C577.129 9.19 577.209 9.75 577.209 10.37ZM573.714 11.975C574.404 11.975 574.939 11.785 575.319 11.405C575.709 11.025 575.904 10.48 575.904 9.77V9.65C575.904 8.94 575.709 8.395 575.319 8.015C574.939 7.635 574.404 7.445 573.714 7.445C573.024 7.445 572.484 7.635 572.094 8.015C571.714 8.395 571.524 8.94 571.524 9.65V9.77C571.524 10.48 571.714 11.025 572.094 11.405C572.484 11.785 573.024 11.975 573.714 11.975ZM581.298 17.18C580.978 17.18 580.743 17.1 580.593 16.94C580.453 16.78 580.383 16.57 580.383 16.31V16.115C580.383 15.855 580.453 15.645 580.593 15.485C580.743 15.325 580.978 15.245 581.298 15.245C581.618 15.245 581.848 15.325 581.988 15.485C582.138 15.645 582.213 15.855 582.213 16.115V16.31C582.213 16.57 582.138 16.78 581.988 16.94C581.848 17.1 581.618 17.18 581.298 17.18Z" fill="#1B1C25"/>
<path d="M519.73 28.465V41.485H518.59V28.465H519.73ZM516.715 36.685L516.865 37.6C515.315 37.91 513.385 38.065 511.075 38.065H509.47V29.53H515.515V30.49H510.625V37.105H511.045C513.335 37.105 515.225 36.965 516.715 36.685ZM535.624 34.555H533.464V41.515H532.324V28.495H533.464V33.595H535.624V34.555ZM527.494 33.97C527.614 33.97 527.729 34.025 527.839 34.135L530.764 37.6L529.909 38.335L526.969 34.75C526.909 34.69 526.844 34.66 526.774 34.66C526.704 34.66 526.654 34.69 526.624 34.75C526.354 35.29 525.999 35.845 525.559 36.415C525.129 36.975 524.539 37.68 523.789 38.53L522.949 37.825C523.819 36.905 524.484 36.11 524.944 35.44C525.414 34.77 525.754 34.105 525.964 33.445C526.174 32.775 526.279 32.015 526.279 31.165V30.595H523.339V29.635H530.329V30.595H527.404V31.195C527.404 32.315 527.224 33.32 526.864 34.21L526.939 34.27L527.179 34.09C527.279 34.01 527.384 33.97 527.494 33.97ZM548.653 28.465V38.35H547.498V28.465H548.653ZM537.853 32.515C537.853 31.815 537.998 31.205 538.288 30.685C538.588 30.165 538.998 29.77 539.518 29.5C540.038 29.22 540.633 29.08 541.303 29.08C541.963 29.08 542.553 29.22 543.073 29.5C543.603 29.77 544.013 30.165 544.303 30.685C544.603 31.205 544.753 31.815 544.753 32.515C544.753 33.205 544.603 33.81 544.303 34.33C544.013 34.85 543.603 35.25 543.073 35.53C542.553 35.8 541.963 35.935 541.303 35.935C540.633 35.935 540.038 35.8 539.518 35.53C538.998 35.25 538.588 34.855 538.288 34.345C537.998 33.825 537.853 33.215 537.853 32.515ZM543.538 32.83V32.2C543.538 31.54 543.328 31.015 542.908 30.625C542.498 30.225 541.963 30.025 541.303 30.025C540.633 30.025 540.088 30.225 539.668 30.625C539.258 31.025 539.053 31.55 539.053 32.2V32.83C539.053 33.48 539.263 34.005 539.683 34.405C540.103 34.795 540.643 34.99 541.303 34.99C541.963 34.99 542.498 34.795 542.908 34.405C543.328 34.005 543.538 33.48 543.538 32.83ZM540.313 41.005V37.27H541.468V40.825H548.923V41.77H541.063C540.823 41.77 540.638 41.705 540.508 41.575C540.378 41.445 540.313 41.255 540.313 41.005ZM569.082 32.815H566.997V36.355H565.857V28.465H566.997V31.855H569.082V32.815ZM557.337 35.995L556.497 35.275C557.337 34.595 557.987 34.01 558.447 33.52C558.907 33.03 559.237 32.545 559.437 32.065C559.647 31.575 559.752 31.03 559.752 30.43V30.28H556.887V29.32H563.742V30.28H560.892V30.475C560.892 31.305 560.717 32.06 560.367 32.74L560.457 32.785L560.682 32.62C560.792 32.53 560.902 32.485 561.012 32.485C561.122 32.485 561.237 32.535 561.357 32.635L564.162 35.02L563.322 35.77L560.472 33.265C560.412 33.205 560.342 33.175 560.262 33.175C560.182 33.175 560.112 33.205 560.052 33.265C559.792 33.655 559.452 34.055 559.032 34.465C558.612 34.875 558.047 35.385 557.337 35.995ZM558.552 37.165H566.997V42.145H565.872V38.125H558.552V37.165ZM582.096 28.465V35.695H580.956V32.53H578.061C577.961 33.38 577.601 34.055 576.981 34.555C576.361 35.045 575.591 35.29 574.671 35.29C574.011 35.29 573.421 35.16 572.901 34.9C572.391 34.64 571.991 34.27 571.701 33.79C571.411 33.3 571.266 32.73 571.266 32.08C571.266 31.43 571.411 30.865 571.701 30.385C571.991 29.895 572.391 29.52 572.901 29.26C573.421 29 574.011 28.87 574.671 28.87C575.591 28.87 576.356 29.115 576.966 29.605C577.586 30.085 577.951 30.745 578.061 31.585H580.956V28.465H582.096ZM576.891 31.825C576.891 31.215 576.686 30.725 576.276 30.355C575.866 29.985 575.331 29.8 574.671 29.8C574.011 29.8 573.476 29.985 573.066 30.355C572.666 30.725 572.466 31.215 572.466 31.825V32.32C572.466 32.94 572.666 33.435 573.066 33.805C573.476 34.175 574.011 34.36 574.671 34.36C575.331 34.36 575.866 34.175 576.276 33.805C576.686 33.435 576.891 32.94 576.891 32.32V31.825ZM580.956 36.535H582.096V42.025H574.611C574.371 42.025 574.186 41.96 574.056 41.83C573.926 41.7 573.861 41.51 573.861 41.26V36.535H574.971V38.26H580.956V36.535ZM580.956 39.235H574.971V41.05H580.956V39.235Z" fill="#1B1C25"/>
<path d="M0 60H589.5C599.717 60 608 68.2827 608 78.5C608 88.7173 599.717 97 589.5 97H0V60Z" fill="#36685D" fill-opacity="0.25"/>
</svg>
