<svg width="403" height="24" viewBox="0 0 403 24" fill="none" xmlns="http://www.w3.org/2000/svg">
<path d="M354.442 9.04972C354.304 8.61884 354.12 8.23295 353.888 7.89205C353.661 7.5464 353.388 7.25284 353.071 7.01136C352.754 6.76515 352.392 6.57812 351.984 6.45028C351.582 6.32244 351.139 6.25852 350.656 6.25852C349.837 6.25852 349.098 6.46922 348.44 6.89062C347.782 7.31203 347.261 7.92992 346.878 8.74432C346.499 9.55398 346.31 10.5459 346.31 11.7202C346.31 12.8991 346.501 13.8958 346.885 14.7102C347.268 15.5246 347.794 16.1425 348.462 16.5639C349.129 16.9853 349.889 17.196 350.741 17.196C351.532 17.196 352.221 17.035 352.808 16.7131C353.4 16.3911 353.857 15.9366 354.179 15.3494C354.506 14.7576 354.669 14.0616 354.669 13.2614L355.237 13.3679H351.075V11.5568H356.793V13.2116C356.793 14.4332 356.532 15.4938 356.011 16.3935C355.495 17.2884 354.78 17.9796 353.866 18.4673C352.957 18.955 351.916 19.1989 350.741 19.1989C349.425 19.1989 348.27 18.8958 347.276 18.2898C346.286 17.6837 345.514 16.8243 344.96 15.7116C344.406 14.5942 344.129 13.2685 344.129 11.7344C344.129 10.5743 344.29 9.53267 344.612 8.60938C344.934 7.68608 345.386 6.90246 345.969 6.25852C346.556 5.60985 347.245 5.11506 348.036 4.77415C348.831 4.4285 349.7 4.25568 350.642 4.25568C351.428 4.25568 352.16 4.37169 352.837 4.60369C353.518 4.8357 354.125 5.16477 354.655 5.59091C355.19 6.01705 355.633 6.52367 355.983 7.1108C356.333 7.69318 356.57 8.33949 356.693 9.04972H354.442ZM373.613 11.7273C373.613 13.2803 373.329 14.6155 372.761 15.733C372.193 16.8456 371.414 17.7027 370.425 18.304C369.44 18.9006 368.32 19.1989 367.065 19.1989C365.806 19.1989 364.681 18.9006 363.692 18.304C362.707 17.7027 361.93 16.8433 361.362 15.7259C360.794 14.6084 360.51 13.2756 360.51 11.7273C360.51 10.1742 360.794 8.84138 361.362 7.72869C361.93 6.61127 362.707 5.75426 363.692 5.15767C364.681 4.55634 365.806 4.25568 367.065 4.25568C368.32 4.25568 369.44 4.55634 370.425 5.15767C371.414 5.75426 372.193 6.61127 372.761 7.72869C373.329 8.84138 373.613 10.1742 373.613 11.7273ZM371.44 11.7273C371.44 10.5436 371.248 9.54687 370.865 8.73722C370.486 7.92282 369.965 7.30729 369.302 6.89062C368.644 6.46922 367.898 6.25852 367.065 6.25852C366.227 6.25852 365.479 6.46922 364.821 6.89062C364.163 7.30729 363.642 7.92282 363.258 8.73722C362.88 9.54687 362.69 10.5436 362.69 11.7273C362.69 12.911 362.88 13.91 363.258 14.7244C363.642 15.5341 364.163 16.1496 364.821 16.571C365.479 16.9877 366.227 17.196 367.065 17.196C367.898 17.196 368.644 16.9877 369.302 16.571C369.965 16.1496 370.486 15.5341 370.865 14.7244C371.248 13.91 371.44 12.911 371.44 11.7273ZM378.256 19H375.926L381.16 4.45455H383.696L388.93 19H386.601L382.489 7.09659H382.375L378.256 19ZM378.646 13.304H386.203V15.1506H378.646V13.304ZM392.431 19V4.45455H394.625V17.1108H401.216V19H392.431Z" fill="#1B1C25"/>
<path d="M2.85991 6.17H3.98491V8.66H10.5849V6.17H11.7099V13.07H2.85991V6.17ZM10.5849 12.11V9.62H3.98491V12.11H10.5849ZM1.16491 16.025H13.4049V17H1.16491V16.025ZM24.0339 15.065H22.9239V5.675H24.0339V9.575H26.0439V5.465H27.1539V15.44H26.0439V10.52H24.0339V15.065ZM22.1889 12.995C20.8589 13.305 19.2839 13.46 17.4639 13.46H16.2489V9.425H20.1339V7.37H16.1889V6.44H21.1989V10.325H17.3139V12.545H17.7489C18.5789 12.545 19.3639 12.505 20.1039 12.425C20.8439 12.345 21.4889 12.235 22.0389 12.095L22.1889 12.995ZM27.4389 17.825V18.77H19.2339C18.9939 18.77 18.8089 18.705 18.6789 18.575C18.5489 18.445 18.4839 18.255 18.4839 18.005V14.795H19.6239V17.825H27.4389ZM40.663 12.65H31.783V6.365H40.528V7.34H32.923V11.675H40.663V12.65ZM42.253 16.025V17H30.013V16.025H42.253ZM56.002 5.465V18.485H54.907V5.465H56.002ZM51.952 5.69H53.017V18.125H51.952V11.3H50.512C50.462 12.6 50.172 13.58 49.642 14.24C49.112 14.89 48.412 15.215 47.542 15.215C46.612 15.215 45.877 14.855 45.337 14.135C44.797 13.405 44.527 12.32 44.527 10.88C44.527 9.44 44.797 8.36 45.337 7.64C45.877 6.91 46.612 6.545 47.542 6.545C48.402 6.545 49.092 6.865 49.612 7.505C50.142 8.145 50.442 9.095 50.512 10.355H51.952V5.69ZM49.372 10.16C49.372 9.28 49.202 8.61 48.862 8.15C48.532 7.69 48.092 7.46 47.542 7.46C46.982 7.46 46.532 7.69 46.192 8.15C45.862 8.61 45.697 9.28 45.697 10.16V11.615C45.697 12.485 45.862 13.155 46.192 13.625C46.532 14.085 46.982 14.315 47.542 14.315C48.092 14.315 48.532 14.085 48.862 13.625C49.202 13.155 49.372 12.485 49.372 11.615V10.16ZM75.0209 5.465V18.485H73.9109V11.495H71.8559V18.125H70.7609V5.69H71.8559V10.55H73.9109V5.465H75.0209ZM69.6209 13.7L69.7709 14.6C68.5609 14.91 67.0659 15.065 65.2859 15.065H64.0559V6.8H68.9009V7.76H65.1509V14.12H65.5559C67.1959 14.12 68.5509 13.98 69.6209 13.7ZM90.525 9.92V10.88H88.44V15.5H87.3V5.465H88.44V9.92H90.525ZM83.865 6.83H79.86V5.87H83.865V6.83ZM81.765 13.94C81.145 13.94 80.6 13.835 80.13 13.625C79.66 13.415 79.295 13.125 79.035 12.755C78.785 12.385 78.66 11.965 78.66 11.495C78.66 11.025 78.77 10.615 78.99 10.265C79.22 9.905 79.56 9.63 80.01 9.44V9.365H77.67V8.42H85.8V9.365H83.52V9.44C83.97 9.63 84.305 9.905 84.525 10.265C84.755 10.615 84.87 11.025 84.87 11.495C84.87 11.965 84.74 12.385 84.48 12.755C84.23 13.125 83.87 13.415 83.4 13.625C82.93 13.835 82.385 13.94 81.765 13.94ZM81.645 12.98H81.9C82.46 12.98 82.915 12.83 83.265 12.53C83.625 12.22 83.805 11.79 83.805 11.24C83.805 10.69 83.63 10.26 83.28 9.95C82.93 9.64 82.47 9.485 81.9 9.485H81.645C81.075 9.485 80.615 9.64 80.265 9.95C79.915 10.25 79.74 10.68 79.74 11.24C79.74 11.79 79.915 12.22 80.265 12.53C80.625 12.83 81.085 12.98 81.645 12.98ZM81.405 17.9H88.74V18.845H81.015C80.775 18.845 80.59 18.78 80.46 18.65C80.33 18.52 80.265 18.33 80.265 18.08V15.08H81.405V17.9ZM106.994 8.93H104.129V7.985H106.994V5.465H108.134V12.35H106.994V8.93ZM100.889 9.41C100.819 9.41 100.754 9.445 100.694 9.515C100.424 9.925 100.074 10.355 99.6439 10.805C99.2139 11.245 98.6439 11.78 97.9339 12.41L97.0939 11.675C97.9439 10.945 98.5989 10.325 99.0589 9.815C99.5189 9.295 99.8489 8.785 100.049 8.285C100.249 7.775 100.349 7.2 100.349 6.56V5.78H101.504V6.62C101.504 7.49 101.329 8.29 100.979 9.02L101.039 9.065L101.294 8.84C101.414 8.75 101.524 8.705 101.624 8.705C101.734 8.705 101.839 8.75 101.939 8.84L104.774 11.345L103.979 12.155L101.084 9.5C101.024 9.44 100.959 9.41 100.889 9.41ZM108.494 18.125V19.1H100.529C100.289 19.1 100.104 19.035 99.9739 18.905C99.8439 18.775 99.7789 18.585 99.7789 18.335V15.62H106.979V14.09H99.6889V13.115H108.134V16.58H100.934V18.125H108.494ZM121.838 10.52H113.183V5.855H121.718V6.8H114.308V9.59H121.838V10.52ZM123.563 12.095V13.04H111.323V12.095H123.563ZM113.018 14.555H121.733V19.085H120.593V15.5H113.018V14.555ZM136.982 5.465V13.625H135.827V11.15H133.157V10.235H135.827V8.33H133.157V7.415H135.827V5.465H136.982ZM133.142 12.635C131.742 12.955 130.012 13.115 127.952 13.115H126.617V9.125H130.922V7.115H126.557V6.185H132.017V10.04H127.712V12.185H128.147C130.037 12.185 131.657 12.035 133.007 11.735L133.142 12.635ZM128.387 14.42H136.982V19.145H135.857V15.38H128.387V14.42ZM141.791 7.865C141.791 7.135 142.166 6.555 142.916 6.125C143.666 5.685 144.791 5.465 146.291 5.465C147.791 5.465 148.916 5.685 149.666 6.125C150.416 6.555 150.791 7.135 150.791 7.865C150.791 8.595 150.416 9.18 149.666 9.62C148.916 10.06 147.791 10.28 146.291 10.28C144.791 10.28 143.666 10.06 142.916 9.62C142.166 9.18 141.791 8.595 141.791 7.865ZM149.576 7.94V7.775C149.576 7.345 149.301 6.995 148.751 6.725C148.211 6.445 147.391 6.305 146.291 6.305C145.191 6.305 144.366 6.445 143.816 6.725C143.276 6.995 143.006 7.345 143.006 7.775V7.94C143.006 8.37 143.276 8.725 143.816 9.005C144.366 9.275 145.191 9.41 146.291 9.41C147.391 9.41 148.211 9.275 148.751 9.005C149.301 8.725 149.576 8.37 149.576 7.94ZM152.411 11.315V12.275H140.171V11.315H152.411ZM142.076 18.335V15.875H149.471V14.465H141.986V13.535H150.566V16.745H143.171V18.17H150.956V19.1H142.826C142.586 19.1 142.401 19.035 142.271 18.905C142.141 18.775 142.076 18.585 142.076 18.335ZM171.43 11.735V12.695H159.19V11.735H164.755V10.115H161.065V5.75H162.205V9.2H169.69V10.115H165.88V11.735H171.43ZM169.9 14.99H160.69V14.045H169.9V14.99ZM167.77 18.125H170.035V19.055H160.555V18.125H162.835L162.385 15.74L163.555 15.635L163.93 18.125H166.675L167.05 15.635L168.22 15.74L167.77 18.125ZM184.804 5.465V18.485H183.679V13.01H181.129V12.08H183.679V9.26H181.129V8.33H183.679V5.465H184.804ZM180.814 10.73C180.814 12.19 180.499 13.295 179.869 14.045C179.239 14.795 178.409 15.17 177.379 15.17C176.339 15.17 175.504 14.795 174.874 14.045C174.244 13.295 173.929 12.19 173.929 10.73C173.929 9.27 174.244 8.165 174.874 7.415C175.504 6.665 176.339 6.29 177.379 6.29C178.409 6.29 179.239 6.665 179.869 7.415C180.499 8.165 180.814 9.27 180.814 10.73ZM179.614 10.13C179.614 9.19 179.409 8.475 178.999 7.985C178.589 7.485 178.049 7.235 177.379 7.235C176.699 7.235 176.154 7.485 175.744 7.985C175.334 8.475 175.129 9.19 175.129 10.13V11.33C175.129 12.27 175.334 12.99 175.744 13.49C176.154 13.98 176.699 14.225 177.379 14.225C178.049 14.225 178.589 13.98 178.999 13.49C179.409 12.99 179.614 12.27 179.614 11.33V10.13ZM193.603 6.95H189.448V5.99H198.868V6.95H194.758C194.748 7.36 194.688 7.73 194.578 8.06C194.478 8.39 194.308 8.705 194.068 9.005L194.128 9.035L194.428 8.81C194.568 8.71 194.708 8.66 194.848 8.66C194.978 8.66 195.088 8.685 195.178 8.735L199.423 10.955L198.793 11.81L194.383 9.44C194.253 9.37 194.123 9.335 193.993 9.335C193.893 9.335 193.803 9.355 193.723 9.395C193.333 9.775 192.803 10.16 192.133 10.55C191.463 10.94 190.588 11.375 189.508 11.855L188.893 11C190.093 10.49 191.028 10.025 191.698 9.605C192.368 9.185 192.843 8.77 193.123 8.36C193.413 7.95 193.573 7.48 193.603 6.95ZM200.278 14.135H194.728V19.01H193.588V14.135H188.038V13.175H200.278V14.135ZM212.962 10.655H204.337V5.945H205.462V9.71H212.962V10.655ZM214.702 12.32V13.295H202.462V12.32H214.702ZM205.357 17.795H213.127V18.755H204.967C204.727 18.755 204.542 18.69 204.412 18.56C204.282 18.43 204.217 18.24 204.217 17.99V14.705H205.357V17.795ZM232.641 5.465V18.485H231.501V5.465H232.641ZM229.626 13.685L229.776 14.6C228.226 14.91 226.296 15.065 223.986 15.065H222.381V6.53H228.426V7.49H223.536V14.105H223.956C226.246 14.105 228.136 13.965 229.626 13.685ZM248.535 11.555H246.375V18.515H245.235V5.495H246.375V10.595H248.535V11.555ZM240.405 10.97C240.525 10.97 240.64 11.025 240.75 11.135L243.675 14.6L242.82 15.335L239.88 11.75C239.82 11.69 239.755 11.66 239.685 11.66C239.615 11.66 239.565 11.69 239.535 11.75C239.265 12.29 238.91 12.845 238.47 13.415C238.04 13.975 237.45 14.68 236.7 15.53L235.86 14.825C236.73 13.905 237.395 13.11 237.855 12.44C238.325 11.77 238.665 11.105 238.875 10.445C239.085 9.775 239.19 9.015 239.19 8.165V7.595H236.25V6.635H243.24V7.595H240.315V8.195C240.315 9.315 240.135 10.32 239.775 11.21L239.85 11.27L240.09 11.09C240.19 11.01 240.295 10.97 240.405 10.97ZM261.564 5.465V15.35H260.409V5.465H261.564ZM250.764 9.515C250.764 8.815 250.909 8.205 251.199 7.685C251.499 7.165 251.909 6.77 252.429 6.5C252.949 6.22 253.544 6.08 254.214 6.08C254.874 6.08 255.464 6.22 255.984 6.5C256.514 6.77 256.924 7.165 257.214 7.685C257.514 8.205 257.664 8.815 257.664 9.515C257.664 10.205 257.514 10.81 257.214 11.33C256.924 11.85 256.514 12.25 255.984 12.53C255.464 12.8 254.874 12.935 254.214 12.935C253.544 12.935 252.949 12.8 252.429 12.53C251.909 12.25 251.499 11.855 251.199 11.345C250.909 10.825 250.764 10.215 250.764 9.515ZM256.449 9.83V9.2C256.449 8.54 256.239 8.015 255.819 7.625C255.409 7.225 254.874 7.025 254.214 7.025C253.544 7.025 252.999 7.225 252.579 7.625C252.169 8.025 251.964 8.55 251.964 9.2V9.83C251.964 10.48 252.174 11.005 252.594 11.405C253.014 11.795 253.554 11.99 254.214 11.99C254.874 11.99 255.409 11.795 255.819 11.405C256.239 11.005 256.449 10.48 256.449 9.83ZM253.224 18.005V14.27H254.379V17.825H261.834V18.77H253.974C253.734 18.77 253.549 18.705 253.419 18.575C253.289 18.445 253.224 18.255 253.224 18.005ZM277.383 11.78H275.343V18.485H274.218V5.465H275.343V10.82H277.383V11.78ZM271.023 7.595H265.383V6.65H272.133V7.805C272.133 9.395 271.953 10.98 271.593 12.56L270.498 12.395C270.848 10.945 271.023 9.46 271.023 7.94V7.595ZM273.138 14.21L273.243 15.125C272.143 15.305 270.828 15.44 269.298 15.53C267.778 15.62 266.213 15.665 264.603 15.665L264.498 14.705C265.498 14.705 266.493 14.69 267.483 14.66V10.595H268.593V14.615C270.403 14.535 271.918 14.4 273.138 14.21ZM296.012 13.07H290.447V18.965H289.307V13.07H283.772V12.11H292.547C292.907 10.54 293.092 8.865 293.102 7.085V7.01H285.392V6.05H294.212V7.01C294.212 8.74 294.042 10.44 293.702 12.11H296.012V13.07ZM308.291 9.26H305.426V8.3H308.291V5.465H309.431V13.22H308.291V9.26ZM302.186 9.71C302.116 9.71 302.056 9.74 302.006 9.8C301.736 10.25 301.381 10.715 300.941 11.195C300.511 11.665 299.941 12.23 299.231 12.89L298.391 12.14C299.241 11.38 299.896 10.73 300.356 10.19C300.816 9.64 301.146 9.1 301.346 8.57C301.556 8.03 301.661 7.42 301.661 6.74V5.915H302.801V6.8C302.801 7.73 302.631 8.57 302.291 9.32L302.351 9.35L302.606 9.14C302.716 9.05 302.826 9.005 302.936 9.005C303.046 9.005 303.146 9.05 303.236 9.14L306.101 11.795L305.276 12.59L302.381 9.8C302.321 9.74 302.256 9.71 302.186 9.71ZM309.506 16.34C309.506 16.89 309.346 17.38 309.026 17.81C308.716 18.25 308.246 18.595 307.616 18.845C306.986 19.095 306.216 19.22 305.306 19.22C304.396 19.22 303.621 19.095 302.981 18.845C302.351 18.595 301.876 18.25 301.556 17.81C301.246 17.38 301.091 16.89 301.091 16.34C301.091 15.79 301.246 15.3 301.556 14.87C301.876 14.43 302.351 14.085 302.981 13.835C303.621 13.585 304.396 13.46 305.306 13.46C306.216 13.46 306.986 13.585 307.616 13.835C308.246 14.085 308.716 14.43 309.026 14.87C309.346 15.3 309.506 15.79 309.506 16.34ZM308.291 16.22C308.291 15.7 308.041 15.265 307.541 14.915C307.051 14.565 306.306 14.39 305.306 14.39C304.306 14.39 303.556 14.57 303.056 14.93C302.556 15.28 302.306 15.71 302.306 16.22V16.475C302.306 16.985 302.556 17.415 303.056 17.765C303.556 18.125 304.306 18.305 305.306 18.305C306.306 18.305 307.051 18.125 307.541 17.765C308.041 17.415 308.291 16.985 308.291 16.475V16.22Z" fill="#1B1C25"/>
</svg>
