<svg width="513" height="79" viewBox="0 0 513 79" fill="none" xmlns="http://www.w3.org/2000/svg">
<path d="M1.98 9.65C1.66 9.65 1.425 9.57 1.275 9.41C1.135 9.24 1.065 9.025 1.065 8.765V8.555C1.065 8.145 1.185 7.695 1.425 7.205C1.665 6.705 2 6.27 2.43 5.9H3.435C3.135 6.22 2.89 6.525 2.7 6.815C2.52 7.095 2.39 7.41 2.31 7.76C2.51 7.81 2.655 7.905 2.745 8.045C2.845 8.185 2.895 8.355 2.895 8.555V8.765C2.895 9.025 2.82 9.24 2.67 9.41C2.53 9.57 2.3 9.65 1.98 9.65ZM6.05156 17V15.95H7.52156V7.58H6.05156V6.53H10.2516V7.58H8.78156V15.95H10.2516V17H6.05156ZM17.5726 19.475V18.425H25.1476V19.475H17.5726ZM27.1041 19.475V18.425H34.6791V19.475H27.1041ZM36.6355 19.475V18.425H44.2105V19.475H36.6355ZM58.8072 15.47H58.7622C58.6322 15.96 58.3122 16.37 57.8022 16.7C57.3022 17.02 56.6522 17.18 55.8522 17.18C55.2122 17.18 54.6222 17.065 54.0822 16.835C53.5522 16.595 53.0972 16.25 52.7172 15.8C52.3372 15.34 52.0372 14.775 51.8172 14.105C51.6072 13.425 51.5022 12.645 51.5022 11.765C51.5022 10.895 51.6072 10.125 51.8172 9.455C52.0272 8.775 52.3272 8.21 52.7172 7.76C53.1072 7.3 53.5772 6.95 54.1272 6.71C54.6772 6.47 55.2872 6.35 55.9572 6.35C56.8972 6.35 57.6822 6.56 58.3122 6.98C58.9422 7.4 59.4272 7.955 59.7672 8.645L58.7322 9.275C58.4922 8.715 58.1322 8.275 57.6522 7.955C57.1822 7.635 56.6172 7.475 55.9572 7.475C55.4972 7.475 55.0772 7.56 54.6972 7.73C54.3172 7.89 53.9872 8.12 53.7072 8.42C53.4372 8.72 53.2272 9.08 53.0772 9.5C52.9272 9.92 52.8522 10.39 52.8522 10.91V12.605C52.8522 13.125 52.9272 13.6 53.0772 14.03C53.2272 14.45 53.4372 14.81 53.7072 15.11C53.9872 15.41 54.3272 15.645 54.7272 15.815C55.1272 15.975 55.5772 16.055 56.0772 16.055C56.4372 16.055 56.7772 16.01 57.0972 15.92C57.4272 15.82 57.7122 15.675 57.9522 15.485C58.2022 15.295 58.3972 15.06 58.5372 14.78C58.6772 14.49 58.7472 14.15 58.7472 13.76V12.725H56.4372V11.615H59.9772V17H58.8072V15.47ZM64.7669 17H63.5069V6.53H67.6769C68.5969 6.53 69.3119 6.785 69.8219 7.295C70.3419 7.805 70.6019 8.54 70.6019 9.5C70.6019 10.27 70.4219 10.905 70.0619 11.405C69.7119 11.895 69.1919 12.22 68.5019 12.38L70.9019 17H69.4769L67.2119 12.5H64.7669V17ZM67.6769 11.42C68.1769 11.42 68.5619 11.29 68.8319 11.03C69.1119 10.77 69.2519 10.4 69.2519 9.92V9.14C69.2519 8.66 69.1119 8.29 68.8319 8.03C68.5619 7.77 68.1769 7.64 67.6769 7.64H64.7669V11.42H67.6769ZM73.6566 17V15.95H75.1266V7.58H73.6566V6.53H77.8566V7.58H76.3866V15.95H77.8566V17H73.6566ZM84.6299 7.64V17H83.3699V7.64H80.0399V6.53H87.9599V7.64H84.6299ZM91.7519 5.75C92.0719 5.75 92.3019 5.835 92.4419 6.005C92.5919 6.165 92.6669 6.375 92.6669 6.635V6.845C92.6669 7.255 92.5469 7.71 92.3069 8.21C92.0669 8.7 91.7319 9.13 91.3019 9.5H90.2969C90.5969 9.18 90.8369 8.88 91.0169 8.6C91.2069 8.31 91.3419 7.99 91.4219 7.64C91.2219 7.59 91.0719 7.495 90.9719 7.355C90.8819 7.215 90.8369 7.045 90.8369 6.845V6.635C90.8369 6.375 90.9069 6.165 91.0469 6.005C91.1969 5.835 91.4319 5.75 91.7519 5.75ZM96.9634 8.48C96.9634 7.94 97.1284 7.46 97.4584 7.04C97.7884 6.61 98.2884 6.275 98.9584 6.035C99.6384 5.785 100.478 5.66 101.478 5.66C102.478 5.66 103.313 5.785 103.983 6.035C104.663 6.275 105.168 6.61 105.498 7.04C105.828 7.46 105.993 7.94 105.993 8.48C105.993 9.32 105.613 10 104.853 10.52C104.093 11.04 102.968 11.3 101.478 11.3C99.9884 11.3 98.8634 11.04 98.1034 10.52C97.3434 10 96.9634 9.32 96.9634 8.48ZM104.778 8.6V8.345C104.778 7.825 104.503 7.395 103.953 7.055C103.403 6.715 102.578 6.545 101.478 6.545C100.378 6.545 99.5534 6.715 99.0034 7.055C98.4534 7.395 98.1784 7.825 98.1784 8.345V8.6C98.1784 9.12 98.4534 9.55 99.0034 9.89C99.5534 10.23 100.378 10.4 101.478 10.4C102.578 10.4 103.403 10.23 103.953 9.89C104.503 9.55 104.778 9.12 104.778 8.6ZM107.598 12.575V13.565H95.3584V12.575H107.598ZM97.1134 17.99V14.825H98.2534V17.795H106.023V18.755H97.8634C97.6234 18.755 97.4384 18.69 97.3084 18.56C97.1784 18.43 97.1134 18.24 97.1134 17.99ZM125.933 5.465V15.35H124.778V5.465H125.933ZM116.573 6.245V8.585H120.533V6.215H121.643V12.875H115.463V6.245H116.573ZM120.533 9.515H116.573V11.945H120.533V9.515ZM117.593 18.005V14.45H118.748V17.825H126.203V18.77H118.343C118.103 18.77 117.918 18.705 117.788 18.575C117.658 18.445 117.593 18.255 117.593 18.005ZM141.767 9.41V10.37H139.682V15.35H138.542V5.465H139.682V9.41H141.767ZM130.052 13.955L129.437 13.13C130.857 12.56 131.947 12.02 132.707 11.51C133.477 11 134.012 10.45 134.312 9.86L129.542 10.22L129.407 9.26L134.597 8.99C134.637 8.79 134.657 8.56 134.657 8.3V7.28H129.947V6.35H135.737V8.225C135.737 9.095 135.552 9.85 135.182 10.49C134.822 11.12 134.232 11.71 133.412 12.26C132.602 12.8 131.482 13.365 130.052 13.955ZM132.647 17.825H139.982V18.77H132.257C132.017 18.77 131.832 18.705 131.702 18.575C131.572 18.445 131.507 18.255 131.507 18.005V14.45H132.647V17.825ZM155.111 5.465V18.485H154.016V5.465H155.111ZM151.061 5.69H152.126V18.125H151.061V11.3H149.621C149.571 12.6 149.281 13.58 148.751 14.24C148.221 14.89 147.521 15.215 146.651 15.215C145.721 15.215 144.986 14.855 144.446 14.135C143.906 13.405 143.636 12.32 143.636 10.88C143.636 9.44 143.906 8.36 144.446 7.64C144.986 6.91 145.721 6.545 146.651 6.545C147.511 6.545 148.201 6.865 148.721 7.505C149.251 8.145 149.551 9.095 149.621 10.355H151.061V5.69ZM148.481 10.16C148.481 9.28 148.311 8.61 147.971 8.15C147.641 7.69 147.201 7.46 146.651 7.46C146.091 7.46 145.641 7.69 145.301 8.15C144.971 8.61 144.806 9.28 144.806 10.16V11.615C144.806 12.485 144.971 13.155 145.301 13.625C145.641 14.085 146.091 14.315 146.651 14.315C147.201 14.315 147.641 14.085 147.971 13.625C148.311 13.155 148.481 12.485 148.481 11.615V10.16ZM174.06 5.465V18.485H172.935V11.105H170.145C170.095 12.445 169.755 13.46 169.125 14.15C168.495 14.83 167.685 15.17 166.695 15.17C165.655 15.17 164.815 14.795 164.175 14.045C163.545 13.295 163.23 12.19 163.23 10.73C163.23 9.26 163.545 8.155 164.175 7.415C164.805 6.665 165.645 6.29 166.695 6.29C167.665 6.29 168.46 6.615 169.08 7.265C169.7 7.915 170.055 8.875 170.145 10.145H172.935V5.465H174.06ZM168.96 10.13C168.96 9.2 168.75 8.49 168.33 8C167.92 7.5 167.375 7.25 166.695 7.25C166.015 7.25 165.47 7.5 165.06 8C164.65 8.49 164.445 9.2 164.445 10.13V11.33C164.445 12.26 164.65 12.975 165.06 13.475C165.47 13.965 166.015 14.21 166.695 14.21C167.375 14.21 167.92 13.965 168.33 13.475C168.75 12.975 168.96 12.26 168.96 11.33V10.13ZM187.539 9.005V5.465H188.649V15.35H187.539V9.95H185.079V9.005H187.539ZM181.419 12.65C180.709 12.86 179.809 12.965 178.719 12.965H177.804V6.41H181.104V7.325H178.899V12.035C179.829 12.035 180.624 11.955 181.284 11.795L181.419 12.65ZM182.979 12.995H181.854V6.41H185.409V7.325H182.949V12.065H183.069C184.329 12.065 185.289 11.98 185.949 11.81L186.084 12.695C185.744 12.785 185.299 12.86 184.749 12.92C184.209 12.97 183.619 12.995 182.979 12.995ZM188.919 17.825V18.77H180.969C180.729 18.77 180.544 18.705 180.414 18.575C180.284 18.445 180.219 18.255 180.219 18.005V14.3H181.359V17.825H188.919ZM208.888 11.975V12.95H196.648V11.975H202.213V10.415H198.508V5.825H207.043V6.755H199.633V9.47H207.163V10.415H203.338V11.975H208.888ZM207.193 16.685C207.193 17.195 207.028 17.645 206.698 18.035C206.368 18.425 205.868 18.73 205.198 18.95C204.538 19.18 203.728 19.295 202.768 19.295C201.808 19.295 200.993 19.18 200.323 18.95C199.663 18.73 199.168 18.425 198.838 18.035C198.508 17.645 198.343 17.195 198.343 16.685C198.343 16.185 198.508 15.745 198.838 15.365C199.178 14.975 199.678 14.67 200.338 14.45C200.998 14.23 201.808 14.12 202.768 14.12C203.728 14.12 204.538 14.23 205.198 14.45C205.858 14.67 206.353 14.975 206.683 15.365C207.023 15.745 207.193 16.185 207.193 16.685ZM205.993 16.595C205.993 16.155 205.723 15.785 205.183 15.485C204.653 15.175 203.848 15.02 202.768 15.02C201.688 15.02 200.878 15.175 200.338 15.485C199.798 15.785 199.528 16.155 199.528 16.595V16.805C199.528 17.245 199.798 17.615 200.338 17.915C200.878 18.225 201.688 18.38 202.768 18.38C203.848 18.38 204.653 18.225 205.183 17.915C205.723 17.615 205.993 17.245 205.993 16.805V16.595ZM223.702 11.555H221.542V18.515H220.402V5.495H221.542V10.595H223.702V11.555ZM215.497 10.715C215.627 10.715 215.737 10.77 215.827 10.88L218.752 14.63L217.882 15.395L214.942 11.54C214.912 11.48 214.862 11.45 214.792 11.45C214.742 11.45 214.692 11.48 214.642 11.54C214.382 12.12 214.032 12.72 213.592 13.34C213.152 13.95 212.557 14.7 211.807 15.59L210.937 14.855C211.807 13.865 212.472 13.02 212.932 12.32C213.402 11.61 213.737 10.9 213.937 10.19C214.147 9.48 214.252 8.665 214.252 7.745V6.335H215.407V7.73C215.407 8.92 215.232 10 214.882 10.97L214.957 11.015L215.182 10.835C215.292 10.755 215.397 10.715 215.497 10.715ZM234.661 7.805V6.515H227.341V5.675H235.756V8.63H228.526V9.905H236.131V10.76H227.416V7.805H234.661ZM237.736 11.885V12.77H225.496V11.885H237.736ZM227.371 18.38V16.115H234.841V14.855H227.281V13.97H235.906V16.955H228.436V18.245H236.296V19.145H228.121C227.881 19.145 227.696 19.08 227.566 18.95C227.436 18.82 227.371 18.63 227.371 18.38ZM254.931 8.69H251.166V7.745H254.931V5.465H256.071V12.77H254.931V8.69ZM252.921 11.24C252.191 11.39 251.331 11.51 250.341 11.6C249.351 11.69 248.296 11.735 247.176 11.735H245.691V6.005H246.801V10.79H247.206C248.266 10.79 249.281 10.75 250.251 10.67C251.231 10.58 252.071 10.465 252.771 10.325L252.921 11.24ZM249.936 12.845H253.911V13.79H249.936V12.845ZM254.226 15.86V15.95C255.016 16.25 255.411 16.75 255.411 17.45C255.411 18 255.116 18.46 254.526 18.83C253.936 19.2 253.066 19.385 251.916 19.385C251.136 19.385 250.486 19.295 249.966 19.115C249.446 18.945 249.061 18.71 248.811 18.41C248.561 18.12 248.436 17.8 248.436 17.45C248.436 16.75 248.831 16.25 249.621 15.95V15.86H247.221V14.96H256.626V15.86H254.226ZM254.316 17.195C254.316 16.805 254.131 16.495 253.761 16.265C253.401 16.035 252.851 15.92 252.111 15.92H251.736C250.996 15.92 250.441 16.035 250.071 16.265C249.711 16.495 249.531 16.805 249.531 17.195C249.531 17.585 249.711 17.895 250.071 18.125C250.441 18.365 250.996 18.485 251.736 18.485H252.111C252.851 18.485 253.401 18.365 253.761 18.125C254.131 17.895 254.316 17.585 254.316 17.195ZM269.76 10.655H261.135V5.945H262.26V9.71H269.76V10.655ZM271.5 12.32V13.295H259.26V12.32H271.5ZM262.155 17.795H269.925V18.755H261.765C261.525 18.755 261.34 18.69 261.21 18.56C261.08 18.43 261.015 18.24 261.015 17.99V14.705H262.155V17.795ZM284.844 5.465V18.485H283.704V5.465H284.844ZM278.574 10.97C278.714 10.97 278.829 11.025 278.919 11.135L281.859 14.585L281.004 15.32L278.034 11.75C277.984 11.69 277.924 11.66 277.854 11.66C277.794 11.66 277.739 11.69 277.689 11.75C277.419 12.3 277.064 12.86 276.624 13.43C276.184 14 275.584 14.7 274.824 15.53L273.969 14.81C274.839 13.9 275.509 13.11 275.979 12.44C276.459 11.77 276.804 11.105 277.014 10.445C277.224 9.775 277.329 9.015 277.329 8.165V7.595H274.374V6.635H281.409V7.595H278.469V8.21C278.469 9.34 278.294 10.345 277.944 11.225L278.019 11.27L278.244 11.09C278.354 11.01 278.464 10.97 278.574 10.97ZM299.673 5.465V18.485H298.578V5.465H299.673ZM295.623 5.69H296.688V18.125H295.623V11.3H294.183C294.133 12.6 293.843 13.58 293.313 14.24C292.783 14.89 292.083 15.215 291.213 15.215C290.283 15.215 289.548 14.855 289.008 14.135C288.468 13.405 288.198 12.32 288.198 10.88C288.198 9.44 288.468 8.36 289.008 7.64C289.548 6.91 290.283 6.545 291.213 6.545C292.073 6.545 292.763 6.865 293.283 7.505C293.813 8.145 294.113 9.095 294.183 10.355H295.623V5.69ZM293.043 10.16C293.043 9.28 292.873 8.61 292.533 8.15C292.203 7.69 291.763 7.46 291.213 7.46C290.653 7.46 290.203 7.69 289.863 8.15C289.533 8.61 289.368 9.28 289.368 10.16V11.615C289.368 12.485 289.533 13.155 289.863 13.625C290.203 14.085 290.653 14.315 291.213 14.315C291.763 14.315 292.203 14.085 292.533 13.625C292.873 13.155 293.043 12.485 293.043 11.615V10.16ZM320.122 11.555H318.112V18.515H317.002V5.495H318.112V10.595H320.122V11.555ZM311.242 13.835L311.377 14.705C310.727 14.915 309.832 15.02 308.692 15.02H307.777V6.605H311.062V7.535H308.872V14.09C309.822 14.09 310.612 14.005 311.242 13.835ZM315.862 13.865L315.982 14.75C315.642 14.84 315.202 14.915 314.662 14.975C314.132 15.025 313.552 15.05 312.922 15.05H311.812V6.605H315.337V7.535H312.907V14.12H313.012C314.252 14.12 315.202 14.035 315.862 13.865ZM334.501 11.555H332.341V18.515H331.201V5.495H332.341V10.595H334.501V11.555ZM329.716 13.925L329.866 14.84C328.346 15.14 326.416 15.29 324.076 15.29H322.486V10.265H327.151V7.415H322.426V6.455H328.276V11.21H323.611V14.36H324.106C326.296 14.36 328.166 14.215 329.716 13.925ZM351.26 5.465H352.385V18.485H351.26V5.465ZM341.9 9.365C341.9 8.745 342.055 8.2 342.365 7.73C342.675 7.25 343.1 6.885 343.64 6.635C344.18 6.375 344.79 6.245 345.47 6.245C346.15 6.245 346.76 6.375 347.3 6.635C347.84 6.885 348.265 7.25 348.575 7.73C348.885 8.2 349.04 8.745 349.04 9.365C349.04 9.985 348.885 10.53 348.575 11C348.265 11.47 347.84 11.835 347.3 12.095C346.76 12.345 346.15 12.47 345.47 12.47C344.79 12.47 344.18 12.345 343.64 12.095C343.1 11.835 342.675 11.47 342.365 11C342.055 10.53 341.9 9.985 341.9 9.365ZM347.84 9.545V9.185C347.84 8.585 347.62 8.1 347.18 7.73C346.74 7.36 346.17 7.175 345.47 7.175C344.77 7.175 344.2 7.36 343.76 7.73C343.32 8.1 343.1 8.585 343.1 9.185V9.545C343.1 10.145 343.32 10.63 343.76 11C344.2 11.37 344.77 11.555 345.47 11.555C346.17 11.555 346.74 11.37 347.18 11C347.62 10.63 347.84 10.145 347.84 9.545ZM341.27 14.78C342.97 14.78 344.61 14.74 346.19 14.66C347.77 14.58 349.11 14.455 350.21 14.285L350.33 15.2C349.2 15.38 347.84 15.52 346.25 15.62C344.67 15.71 343.045 15.755 341.375 15.755L341.27 14.78ZM365.654 5.465H366.794V18.485H365.654V5.465ZM356.399 6.5H362.654V14.855H356.399V6.5ZM361.529 13.91V7.445H357.509V13.91H361.529ZM382.688 11.555H380.528V18.515H379.388V5.495H380.528V10.595H382.688V11.555ZM370.703 6.53H376.538V8.615C376.538 9.725 376.373 10.665 376.043 11.435C375.713 12.205 375.153 12.925 374.363 13.595C373.583 14.255 372.463 14.98 371.003 15.77L370.328 14.915C371.688 14.195 372.728 13.54 373.448 12.95C374.168 12.36 374.673 11.735 374.963 11.075C375.253 10.415 375.398 9.6 375.398 8.63V7.505H370.703V6.53ZM402.042 8.45V9.41H399.957V12.335H398.817V5.465H399.957V8.45H402.042ZM397.302 11.345C396.582 11.495 395.717 11.615 394.707 11.705C393.697 11.785 392.617 11.825 391.467 11.825H389.922V6.05H395.877V7.01H391.062V10.895H391.467C392.547 10.895 393.582 10.855 394.572 10.775C395.572 10.695 396.432 10.585 397.152 10.445L397.302 11.345ZM392.877 18.125H400.317V19.1H392.472C392.232 19.1 392.047 19.035 391.917 18.905C391.787 18.775 391.722 18.585 391.722 18.335V15.62H398.817V14.075H391.632V13.115H399.957V16.58H392.877V18.125ZM416.451 11.555H414.291V18.515H413.151V5.495H414.291V10.595H416.451V11.555ZM411.666 13.925L411.816 14.84C410.296 15.14 408.366 15.29 406.026 15.29H404.436V10.265H409.101V7.415H404.376V6.455H410.226V11.21H405.561V14.36H406.056C408.246 14.36 410.116 14.215 411.666 13.925ZM429.405 5.465V18.485H428.265V5.465H429.405ZM423.135 10.97C423.275 10.97 423.39 11.025 423.48 11.135L426.42 14.585L425.565 15.32L422.595 11.75C422.545 11.69 422.485 11.66 422.415 11.66C422.355 11.66 422.3 11.69 422.25 11.75C421.98 12.3 421.625 12.86 421.185 13.43C420.745 14 420.145 14.7 419.385 15.53L418.53 14.81C419.4 13.9 420.07 13.11 420.54 12.44C421.02 11.77 421.365 11.105 421.575 10.445C421.785 9.775 421.89 9.015 421.89 8.165V7.595H418.935V6.635H425.97V7.595H423.03V8.21C423.03 9.34 422.855 10.345 422.505 11.225L422.58 11.27L422.805 11.09C422.915 11.01 423.025 10.97 423.135 10.97ZM443.169 10.655H434.544V5.945H435.669V9.71H443.169V10.655ZM444.909 12.32V13.295H432.669V12.32H444.909ZM435.564 17.795H443.334V18.755H435.174C434.934 18.755 434.749 18.69 434.619 18.56C434.489 18.43 434.424 18.24 434.424 17.99V14.705H435.564V17.795ZM462.104 9.965H459.194V9.005H462.104V5.465H463.244V14.255H462.104V9.965ZM453.134 13.325L452.519 12.455C453.859 11.915 454.879 11.43 455.579 11C456.279 10.56 456.769 10.1 457.049 9.62C457.339 9.14 457.484 8.555 457.484 7.865V7.25H452.894V6.275H458.639V7.745C458.639 8.645 458.474 9.395 458.144 9.995C457.824 10.595 457.274 11.15 456.494 11.66C455.724 12.16 454.604 12.715 453.134 13.325ZM463.874 18.245L463.214 19.13L459.239 16.775C459.129 16.705 459.014 16.67 458.894 16.67C458.764 16.67 458.654 16.71 458.564 16.79H458.549C458.189 17.15 457.694 17.52 457.064 17.9C456.444 18.29 455.644 18.715 454.664 19.175L454.034 18.305C455.234 17.765 456.149 17.28 456.779 16.85C457.409 16.41 457.844 15.975 458.084 15.545C458.324 15.115 458.444 14.615 458.444 14.045V13.61H459.629V14.09C459.629 14.56 459.574 14.98 459.464 15.35C459.364 15.71 459.184 16.055 458.924 16.385L458.984 16.4L459.344 16.145C459.504 16.035 459.629 15.98 459.719 15.98C459.799 15.98 459.909 16.015 460.049 16.085L463.874 18.245ZM468.053 7.865C468.053 7.135 468.428 6.555 469.178 6.125C469.928 5.685 471.053 5.465 472.553 5.465C474.053 5.465 475.178 5.685 475.928 6.125C476.678 6.555 477.053 7.135 477.053 7.865C477.053 8.595 476.678 9.18 475.928 9.62C475.178 10.06 474.053 10.28 472.553 10.28C471.053 10.28 469.928 10.06 469.178 9.62C468.428 9.18 468.053 8.595 468.053 7.865ZM475.838 7.94V7.775C475.838 7.345 475.563 6.995 475.013 6.725C474.473 6.445 473.653 6.305 472.553 6.305C471.453 6.305 470.628 6.445 470.078 6.725C469.538 6.995 469.268 7.345 469.268 7.775V7.94C469.268 8.37 469.538 8.725 470.078 9.005C470.628 9.275 471.453 9.41 472.553 9.41C473.653 9.41 474.473 9.275 475.013 9.005C475.563 8.725 475.838 8.37 475.838 7.94ZM478.673 11.315V12.275H466.433V11.315H478.673ZM468.338 18.335V15.875H475.733V14.465H468.248V13.535H476.828V16.745H469.433V18.17H477.218V19.1H469.088C468.848 19.1 468.663 19.035 468.533 18.905C468.403 18.775 468.338 18.585 468.338 18.335ZM496.677 7.235H487.092V6.275H496.677V7.235ZM496.812 12.74H486.972V11.795H489.342L488.847 8.465L490.002 8.345L490.407 11.795H493.362L493.767 8.345L494.937 8.465L494.427 11.795H496.812V12.74ZM498.012 16.04V17H485.772V16.04H489.102V13.505H490.212V16.04H493.572V13.505H494.682V16.04H498.012ZM510.276 12.275H508.281V11.345H510.276V9.47H508.281V8.54H510.276V5.465H511.431V15.5H510.276V12.275ZM506.226 6.83H502.251V5.87H506.226V6.83ZM504.141 13.955C503.531 13.955 502.996 13.85 502.536 13.64C502.076 13.43 501.721 13.14 501.471 12.77C501.221 12.4 501.096 11.98 501.096 11.51C501.096 11.03 501.206 10.615 501.426 10.265C501.646 9.905 501.976 9.63 502.416 9.44V9.365H500.286V8.435H507.801V9.365H505.881V9.455C506.321 9.645 506.651 9.915 506.871 10.265C507.091 10.615 507.201 11.03 507.201 11.51C507.201 11.98 507.076 12.4 506.826 12.77C506.576 13.14 506.216 13.43 505.746 13.64C505.286 13.85 504.751 13.955 504.141 13.955ZM504.021 12.995H504.276C504.826 12.995 505.271 12.84 505.611 12.53C505.961 12.22 506.136 11.79 506.136 11.24C506.136 10.69 505.961 10.265 505.611 9.965C505.271 9.655 504.826 9.5 504.276 9.5H504.021C503.461 9.5 503.011 9.655 502.671 9.965C502.331 10.265 502.161 10.69 502.161 11.24C502.161 11.79 502.331 12.22 502.671 12.53C503.021 12.84 503.471 12.995 504.021 12.995ZM511.701 17.9V18.845H503.811C503.571 18.845 503.386 18.78 503.256 18.65C503.126 18.52 503.061 18.33 503.061 18.08V15.08H504.201V17.9H511.701ZM13.2 34.795H11.085V41.515H9.945V28.495H11.085V33.835H13.2V34.795ZM6.75 30.175H2.49V29.2H6.75V30.175ZM0.495 31.975H8.52V32.905H6.3V32.995C7.21 33.445 7.665 34.31 7.665 35.59C7.665 36.24 7.53 36.805 7.26 37.285C6.99 37.755 6.615 38.115 6.135 38.365C5.665 38.615 5.14 38.74 4.56 38.74C3.98 38.74 3.45 38.615 2.97 38.365C2.5 38.115 2.13 37.755 1.86 37.285C1.59 36.805 1.455 36.24 1.455 35.59C1.455 34.31 1.91 33.445 2.82 32.995V32.905H0.495V31.975ZM6.555 35.095C6.555 34.425 6.375 33.915 6.015 33.565C5.655 33.205 5.17 33.025 4.56 33.025C3.96 33.025 3.475 33.205 3.105 33.565C2.745 33.925 2.565 34.435 2.565 35.095V35.71C2.565 36.36 2.75 36.87 3.12 37.24C3.49 37.6 3.97 37.78 4.56 37.78C5.15 37.78 5.63 37.6 6 37.24C6.37 36.87 6.555 36.36 6.555 35.71V35.095ZM25.014 28.465H26.154V41.485H25.014V28.465ZM15.579 37.9C16.959 37.19 18.014 36.54 18.744 35.95C19.474 35.36 19.984 34.735 20.274 34.075C20.574 33.415 20.724 32.6 20.724 31.63V30.505H15.954V29.53H21.864V31.615C21.864 32.725 21.694 33.665 21.354 34.435C21.024 35.205 20.459 35.925 19.659 36.595C18.869 37.255 17.734 37.98 16.254 38.77L15.579 37.9ZM45.188 28.465V41.485H44.063V28.465H45.188ZM34.793 31.645C34.793 31.095 34.943 30.615 35.243 30.205C35.553 29.785 35.978 29.465 36.518 29.245C37.058 29.015 37.668 28.9 38.348 28.9C39.028 28.9 39.633 29.015 40.163 29.245C40.703 29.465 41.123 29.785 41.423 30.205C41.733 30.615 41.888 31.095 41.888 31.645C41.888 32.205 41.733 32.695 41.423 33.115C41.123 33.525 40.703 33.845 40.163 34.075C39.633 34.295 39.028 34.405 38.348 34.405C37.658 34.405 37.043 34.295 36.503 34.075C35.973 33.845 35.553 33.525 35.243 33.115C34.943 32.695 34.793 32.205 34.793 31.645ZM35.963 31.795C35.963 32.305 36.183 32.715 36.623 33.025C37.063 33.335 37.638 33.49 38.348 33.49C39.048 33.49 39.613 33.335 40.043 33.025C40.483 32.715 40.703 32.305 40.703 31.795V31.525C40.703 31.005 40.483 30.59 40.043 30.28C39.613 29.97 39.048 29.815 38.348 29.815C37.638 29.815 37.063 29.97 36.623 30.28C36.183 30.59 35.963 31.005 35.963 31.525V31.795ZM43.088 36.235C41.848 36.425 40.473 36.565 38.963 36.655V41.365H37.823V36.715C36.493 36.765 35.263 36.79 34.133 36.79L34.043 35.83C35.743 35.83 37.383 35.79 38.963 35.71C40.543 35.63 41.883 35.505 42.983 35.335L43.088 36.235ZM60.002 28.465V41.485H58.892V34.69H56.942V41.125H55.847V28.69H56.942V33.745H58.892V28.465H60.002ZM53.777 30.415H49.922V29.485H53.777V30.415ZM48.347 32.095H55.127V32.995H53.342V33.07C54.132 33.5 54.527 34.315 54.527 35.515C54.527 36.455 54.272 37.19 53.762 37.72C53.262 38.24 52.602 38.5 51.782 38.5C50.972 38.5 50.312 38.24 49.802 37.72C49.302 37.19 49.052 36.455 49.052 35.515C49.052 34.315 49.442 33.5 50.222 33.07V32.995H48.347V32.095ZM53.447 34.975C53.447 34.375 53.297 33.915 52.997 33.595C52.697 33.275 52.292 33.115 51.782 33.115C51.272 33.115 50.867 33.275 50.567 33.595C50.277 33.915 50.132 34.375 50.132 34.975V35.695C50.132 36.285 50.282 36.745 50.582 37.075C50.892 37.405 51.292 37.57 51.782 37.57C52.272 37.57 52.672 37.405 52.982 37.075C53.292 36.745 53.447 36.285 53.447 35.695V34.975ZM79.0209 28.465V41.485H77.9109V28.465H79.0209ZM74.9859 28.69H76.0809V41.125H74.9859V34.12H73.1859V37.825H67.9209V29.77H73.1859V33.175H74.9859V28.69ZM72.1059 30.7H69.0159V36.895H72.1059V30.7ZM92.41 34.075H83.725V28.9H84.88V33.115H92.41V34.075ZM94.12 36.955H90.955V41.935H89.83V36.955H86.17V41.935H85.045V36.955H81.88V35.995H94.12V36.955ZM106.399 33.67H103.459V32.77H106.399V31.03H103.459V30.13H106.399V28.465H107.539V35.335H106.399V33.67ZM102.994 34.855H96.964V28.93H98.044V30.94H101.914V28.915H102.994V34.855ZM101.914 31.855H98.044V33.94H101.914V31.855ZM107.899 41.125V42.1H99.934C99.694 42.1 99.509 42.035 99.379 41.905C99.249 41.775 99.184 41.585 99.184 41.335V38.635H106.384V37.12H99.094V36.145H107.539V39.595H100.339V41.125H107.899ZM122.968 39.04V40H110.728V39.04H116.278V36.475H112.528V32.41H120.028V30.205H112.453V29.26H121.168V33.325H113.668V35.53H121.558V36.475H117.418V39.04H122.968ZM139.797 28.465H140.922V41.485H139.797V28.465ZM130.437 32.365C130.437 31.745 130.592 31.2 130.902 30.73C131.212 30.25 131.637 29.885 132.177 29.635C132.717 29.375 133.327 29.245 134.007 29.245C134.687 29.245 135.297 29.375 135.837 29.635C136.377 29.885 136.802 30.25 137.112 30.73C137.422 31.2 137.577 31.745 137.577 32.365C137.577 32.985 137.422 33.53 137.112 34C136.802 34.47 136.377 34.835 135.837 35.095C135.297 35.345 134.687 35.47 134.007 35.47C133.327 35.47 132.717 35.345 132.177 35.095C131.637 34.835 131.212 34.47 130.902 34C130.592 33.53 130.437 32.985 130.437 32.365ZM136.377 32.545V32.185C136.377 31.585 136.157 31.1 135.717 30.73C135.277 30.36 134.707 30.175 134.007 30.175C133.307 30.175 132.737 30.36 132.297 30.73C131.857 31.1 131.637 31.585 131.637 32.185V32.545C131.637 33.145 131.857 33.63 132.297 34C132.737 34.37 133.307 34.555 134.007 34.555C134.707 34.555 135.277 34.37 135.717 34C136.157 33.63 136.377 33.145 136.377 32.545ZM129.807 37.78C131.507 37.78 133.147 37.74 134.727 37.66C136.307 37.58 137.647 37.455 138.747 37.285L138.867 38.2C137.737 38.38 136.377 38.52 134.787 38.62C133.207 38.71 131.582 38.755 129.912 38.755L129.807 37.78ZM154.191 28.465H155.331V41.485H154.191V28.465ZM144.936 29.5H151.191V37.855H144.936V29.5ZM150.066 36.91V30.445H146.046V36.91H150.066ZM170.16 28.465V41.485H169.065V28.465H170.16ZM166.11 28.69H167.175V41.125H166.11V34.3H164.67C164.62 35.6 164.33 36.58 163.8 37.24C163.27 37.89 162.57 38.215 161.7 38.215C160.77 38.215 160.035 37.855 159.495 37.135C158.955 36.405 158.685 35.32 158.685 33.88C158.685 32.44 158.955 31.36 159.495 30.64C160.035 29.91 160.77 29.545 161.7 29.545C162.56 29.545 163.25 29.865 163.77 30.505C164.3 31.145 164.6 32.095 164.67 33.355H166.11V28.69ZM163.53 33.16C163.53 32.28 163.36 31.61 163.02 31.15C162.69 30.69 162.25 30.46 161.7 30.46C161.14 30.46 160.69 30.69 160.35 31.15C160.02 31.61 159.855 32.28 159.855 33.16V34.615C159.855 35.485 160.02 36.155 160.35 36.625C160.69 37.085 161.14 37.315 161.7 37.315C162.25 37.315 162.69 37.085 163.02 36.625C163.36 36.155 163.53 35.485 163.53 34.615V33.16ZM190.259 31.675V32.635H188.174V35.89H187.034V28.465H188.174V31.675H190.259ZM184.214 35.125H178.064V29.125H184.214V35.125ZM183.089 30.055H179.204V34.18H183.089V30.055ZM184.709 39.265C184.779 39.265 184.879 39.29 185.009 39.34L188.834 41.275L188.249 42.13L184.274 40.03C184.154 39.97 184.039 39.94 183.929 39.94C183.809 39.94 183.694 39.975 183.584 40.045C183.224 40.365 182.729 40.695 182.099 41.035C181.479 41.375 180.674 41.755 179.684 42.175L179.114 41.305C180.264 40.855 181.149 40.445 181.769 40.075C182.399 39.705 182.839 39.34 183.089 38.98C183.339 38.61 183.469 38.19 183.479 37.72H179.594V36.76H188.354V37.72H184.604C184.594 38.11 184.544 38.455 184.454 38.755C184.364 39.055 184.209 39.34 183.989 39.61L184.049 39.64L184.319 39.43C184.459 39.32 184.589 39.265 184.709 39.265ZM202.538 33.655H193.913V28.945H195.038V32.71H202.538V33.655ZM204.278 35.32V36.295H192.038V35.32H204.278ZM194.933 40.795H202.703V41.755H194.543C194.303 41.755 194.118 41.69 193.988 41.56C193.858 41.43 193.793 41.24 193.793 40.99V37.705H194.933V40.795ZM222.622 28.465V36.295H221.512V32.83H219.502V36.13H218.407V28.675H219.502V31.9H221.512V28.465H222.622ZM214.342 33.115C214.262 33.115 214.202 33.145 214.162 33.205C213.932 33.635 213.632 34.08 213.262 34.54C212.892 34.99 212.417 35.51 211.837 36.1L211.042 35.41C211.782 34.64 212.342 33.985 212.722 33.445C213.112 32.895 213.387 32.36 213.547 31.84C213.717 31.32 213.802 30.72 213.802 30.04V29.215H214.897V30.07C214.897 31.01 214.752 31.845 214.462 32.575L214.522 32.605L214.702 32.455C214.812 32.375 214.912 32.335 215.002 32.335C215.102 32.335 215.202 32.385 215.302 32.485L217.702 35.095L216.922 35.845L214.537 33.205C214.477 33.145 214.412 33.115 214.342 33.115ZM213.802 37.12H222.622V42.145H221.497V38.095H213.802V37.12ZM238.126 31.825V32.785H236.041V36.22H234.901V28.465H236.041V31.825H238.126ZM229.216 32.725C229.146 32.725 229.081 32.76 229.021 32.83C228.761 33.26 228.416 33.705 227.986 34.165C227.566 34.615 226.996 35.175 226.276 35.845L225.436 35.11C226.286 34.35 226.941 33.7 227.401 33.16C227.861 32.62 228.191 32.085 228.391 31.555C228.591 31.025 228.691 30.425 228.691 29.755V28.945H229.831V29.815C229.831 30.725 229.656 31.555 229.306 32.305L229.381 32.365L229.621 32.155C229.731 32.065 229.841 32.02 229.951 32.02C230.061 32.02 230.161 32.065 230.251 32.155L233.101 34.795L232.291 35.575L229.411 32.815C229.351 32.755 229.286 32.725 229.216 32.725ZM236.146 39.34C236.146 39.89 235.991 40.38 235.681 40.81C235.371 41.25 234.906 41.595 234.286 41.845C233.666 42.095 232.906 42.22 232.006 42.22C231.116 42.22 230.356 42.095 229.726 41.845C229.106 41.595 228.636 41.25 228.316 40.81C228.006 40.38 227.851 39.89 227.851 39.34C227.851 38.79 228.006 38.3 228.316 37.87C228.636 37.43 229.106 37.085 229.726 36.835C230.356 36.585 231.116 36.46 232.006 36.46C232.906 36.46 233.666 36.585 234.286 36.835C234.906 37.085 235.371 37.43 235.681 37.87C235.991 38.3 236.146 38.79 236.146 39.34ZM234.946 39.22C234.946 38.7 234.701 38.265 234.211 37.915C233.731 37.565 232.996 37.39 232.006 37.39C231.026 37.39 230.291 37.57 229.801 37.93C229.311 38.28 229.066 38.71 229.066 39.22V39.475C229.066 39.985 229.311 40.415 229.801 40.765C230.291 41.125 231.026 41.305 232.006 41.305C232.996 41.305 233.731 41.125 234.211 40.765C234.701 40.415 234.946 39.985 234.946 39.475V39.22ZM252.535 34.78H250.495V41.485H249.37V28.465H250.495V33.82H252.535V34.78ZM246.175 30.595H240.535V29.65H247.285V30.805C247.285 32.395 247.105 33.98 246.745 35.56L245.65 35.395C246 33.945 246.175 32.46 246.175 30.94V30.595ZM248.29 37.21L248.395 38.125C247.295 38.305 245.98 38.44 244.45 38.53C242.93 38.62 241.365 38.665 239.755 38.665L239.65 37.705C240.65 37.705 241.645 37.69 242.635 37.66V33.595H243.745V37.615C245.555 37.535 247.07 37.4 248.29 37.21ZM270.084 28.465V41.485H268.944V28.465H270.084ZM267.069 36.685L267.219 37.6C265.669 37.91 263.739 38.065 261.429 38.065H259.824V29.53H265.869V30.49H260.979V37.105H261.399C263.689 37.105 265.579 36.965 267.069 36.685ZM285.978 34.555H283.818V41.515H282.678V28.495H283.818V33.595H285.978V34.555ZM277.848 33.97C277.968 33.97 278.083 34.025 278.193 34.135L281.118 37.6L280.263 38.335L277.323 34.75C277.263 34.69 277.198 34.66 277.128 34.66C277.058 34.66 277.008 34.69 276.978 34.75C276.708 35.29 276.353 35.845 275.913 36.415C275.483 36.975 274.893 37.68 274.143 38.53L273.303 37.825C274.173 36.905 274.838 36.11 275.298 35.44C275.768 34.77 276.108 34.105 276.318 33.445C276.528 32.775 276.633 32.015 276.633 31.165V30.595H273.693V29.635H280.683V30.595H277.758V31.195C277.758 32.315 277.578 33.32 277.218 34.21L277.293 34.27L277.533 34.09C277.633 34.01 277.738 33.97 277.848 33.97ZM299.007 28.465V38.35H297.852V28.465H299.007ZM288.207 32.515C288.207 31.815 288.352 31.205 288.642 30.685C288.942 30.165 289.352 29.77 289.872 29.5C290.392 29.22 290.987 29.08 291.657 29.08C292.317 29.08 292.907 29.22 293.427 29.5C293.957 29.77 294.367 30.165 294.657 30.685C294.957 31.205 295.107 31.815 295.107 32.515C295.107 33.205 294.957 33.81 294.657 34.33C294.367 34.85 293.957 35.25 293.427 35.53C292.907 35.8 292.317 35.935 291.657 35.935C290.987 35.935 290.392 35.8 289.872 35.53C289.352 35.25 288.942 34.855 288.642 34.345C288.352 33.825 288.207 33.215 288.207 32.515ZM293.892 32.83V32.2C293.892 31.54 293.682 31.015 293.262 30.625C292.852 30.225 292.317 30.025 291.657 30.025C290.987 30.025 290.442 30.225 290.022 30.625C289.612 31.025 289.407 31.55 289.407 32.2V32.83C289.407 33.48 289.617 34.005 290.037 34.405C290.457 34.795 290.997 34.99 291.657 34.99C292.317 34.99 292.852 34.795 293.262 34.405C293.682 34.005 293.892 33.48 293.892 32.83ZM290.667 41.005V37.27H291.822V40.825H299.277V41.77H291.417C291.177 41.77 290.992 41.705 290.862 41.575C290.732 41.445 290.667 41.255 290.667 41.005ZM303.591 32.545C303.591 31.875 303.761 31.275 304.101 30.745C304.451 30.205 304.981 29.775 305.691 29.455C306.401 29.135 307.276 28.975 308.316 28.975C309.356 28.975 310.231 29.135 310.941 29.455C311.651 29.775 312.176 30.205 312.516 30.745C312.866 31.275 313.041 31.875 313.041 32.545C313.041 33.215 312.866 33.82 312.516 34.36C312.176 34.9 311.651 35.33 310.941 35.65C310.231 35.97 309.356 36.13 308.316 36.13C307.276 36.13 306.401 35.97 305.691 35.65C304.981 35.33 304.451 34.9 304.101 34.36C303.761 33.82 303.591 33.215 303.591 32.545ZM311.811 32.725V32.38C311.811 31.92 311.686 31.505 311.436 31.135C311.196 30.755 310.811 30.455 310.281 30.235C309.761 30.005 309.106 29.89 308.316 29.89C307.526 29.89 306.866 30.005 306.336 30.235C305.816 30.455 305.431 30.755 305.181 31.135C304.941 31.505 304.821 31.92 304.821 32.38V32.725C304.821 33.435 305.111 34.025 305.691 34.495C306.271 34.965 307.146 35.2 308.316 35.2C309.486 35.2 310.361 34.965 310.941 34.495C311.521 34.025 311.811 33.435 311.811 32.725ZM302.196 39.025H314.436V40H302.196V39.025ZM328.86 39.04V40H316.62V39.04H322.17V36.475H318.42V32.41H325.92V30.205H318.345V29.26H327.06V33.325H319.56V35.53H327.45V36.475H323.31V39.04H328.86ZM348.269 34.555H346.109V41.515H344.969V28.495H346.109V33.595H348.269V34.555ZM343.394 36.685L343.544 37.6C342.014 37.91 340.104 38.065 337.814 38.065H336.224V29.53H342.209V30.49H337.364V37.12H337.799C339.999 37.12 341.864 36.975 343.394 36.685ZM361.628 28.465V41.485H360.533V34.495H358.508V41.125H357.413V28.69H358.508V33.55H360.533V28.465H361.628ZM355.148 30.265H351.683V29.335H355.148V30.265ZM353.933 35.08C354.053 35.08 354.168 35.135 354.278 35.245L356.738 37.93L355.958 38.605L353.483 35.8C353.433 35.75 353.378 35.725 353.318 35.725C353.258 35.725 353.208 35.75 353.168 35.8C352.938 36.24 352.633 36.7 352.253 37.18C351.873 37.66 351.383 38.205 350.783 38.815L350.018 38.155C350.768 37.395 351.343 36.74 351.743 36.19C352.143 35.63 352.428 35.08 352.598 34.54C352.778 34 352.868 33.385 352.868 32.695H350.363V31.78H356.423V32.695H353.918C353.918 33.625 353.758 34.47 353.438 35.23L353.513 35.275L353.648 35.17C353.738 35.11 353.833 35.08 353.933 35.08ZM376.727 39.04V40H364.487V39.04H370.037V36.475H366.287V32.41H373.787V30.205H366.212V29.26H374.927V33.325H367.427V35.53H375.317V36.475H371.177V39.04H376.727ZM380.516 31.45C380.516 30.91 380.681 30.43 381.011 30.01C381.341 29.59 381.841 29.26 382.511 29.02C383.191 28.77 384.031 28.645 385.031 28.645C386.031 28.645 386.866 28.77 387.536 29.02C388.216 29.26 388.721 29.59 389.051 30.01C389.381 30.43 389.546 30.91 389.546 31.45C389.546 31.99 389.381 32.47 389.051 32.89C388.721 33.31 388.216 33.645 387.536 33.895C386.866 34.135 386.031 34.255 385.031 34.255C384.031 34.255 383.191 34.135 382.511 33.895C381.841 33.645 381.341 33.31 381.011 32.89C380.681 32.47 380.516 31.99 380.516 31.45ZM381.731 31.57C381.731 32.08 382.006 32.505 382.556 32.845C383.106 33.185 383.931 33.355 385.031 33.355C386.131 33.355 386.956 33.185 387.506 32.845C388.056 32.505 388.331 32.08 388.331 31.57V31.315C388.331 30.805 388.056 30.38 387.506 30.04C386.956 29.7 386.131 29.53 385.031 29.53C383.931 29.53 383.106 29.7 382.556 30.04C382.006 30.38 381.731 30.805 381.731 31.315V31.57ZM391.151 35.41V36.385H385.676V39.13H384.536V36.385H378.911V35.41H391.151ZM381.761 40.9H389.561V41.845H381.386C381.146 41.845 380.961 41.78 380.831 41.65C380.701 41.52 380.636 41.33 380.636 41.08V37.885H381.761V40.9ZM408.58 35.47H399.685V29.32H400.825V34.495H408.58V35.47ZM410.17 39.025V40H397.93V39.025H410.17ZM423.694 28.465V35.98H422.569V28.465H423.694ZM415.399 30.655V30.115H412.939V29.17H416.479V30.52C416.479 31.19 416.374 31.775 416.164 32.275C415.954 32.775 415.619 33.25 415.159 33.7C414.709 34.15 414.074 34.66 413.254 35.23L412.459 34.555C413.209 34.045 413.794 33.595 414.214 33.205C414.634 32.815 414.934 32.42 415.114 32.02C415.304 31.62 415.399 31.165 415.399 30.655ZM419.359 30.85V30.115H417.169V29.17H420.439V30.715C420.439 31.475 420.339 32.13 420.139 32.68C419.939 33.23 419.619 33.745 419.179 34.225C418.739 34.695 418.119 35.235 417.319 35.845L416.509 35.17C417.249 34.63 417.819 34.15 418.219 33.73C418.619 33.31 418.909 32.875 419.089 32.425C419.269 31.975 419.359 31.45 419.359 30.85ZM415.339 41.26V36.79H423.694V42.025H416.089C415.849 42.025 415.664 41.96 415.534 41.83C415.404 41.7 415.339 41.51 415.339 41.26ZM422.554 37.735H416.479V41.065H422.554V37.735ZM428.398 30.865C428.398 30.135 428.773 29.555 429.523 29.125C430.273 28.685 431.398 28.465 432.898 28.465C434.398 28.465 435.523 28.685 436.273 29.125C437.023 29.555 437.398 30.135 437.398 30.865C437.398 31.595 437.023 32.18 436.273 32.62C435.523 33.06 434.398 33.28 432.898 33.28C431.398 33.28 430.273 33.06 429.523 32.62C428.773 32.18 428.398 31.595 428.398 30.865ZM436.183 30.94V30.775C436.183 30.345 435.908 29.995 435.358 29.725C434.818 29.445 433.998 29.305 432.898 29.305C431.798 29.305 430.973 29.445 430.423 29.725C429.883 29.995 429.613 30.345 429.613 30.775V30.94C429.613 31.37 429.883 31.725 430.423 32.005C430.973 32.275 431.798 32.41 432.898 32.41C433.998 32.41 434.818 32.275 435.358 32.005C435.908 31.725 436.183 31.37 436.183 30.94ZM439.018 34.315V35.275H426.778V34.315H439.018ZM428.683 41.335V38.875H436.078V37.465H428.593V36.535H437.173V39.745H429.778V41.17H437.563V42.1H429.433C429.193 42.1 429.008 42.035 428.878 41.905C428.748 41.775 428.683 41.585 428.683 41.335ZM451.377 29.8H447.297V28.885H456.537V29.8H452.502C452.482 30.5 452.267 31.09 451.857 31.57L451.932 31.6L452.247 31.375C452.387 31.285 452.517 31.24 452.637 31.24C452.737 31.24 452.857 31.27 452.997 31.33L457.092 33.235L456.492 34.06L452.202 31.99C452.072 31.92 451.942 31.885 451.812 31.885C451.672 31.885 451.547 31.92 451.437 31.99C451.047 32.32 450.522 32.655 449.862 32.995C449.202 33.325 448.357 33.69 447.327 34.09L446.742 33.28C447.932 32.83 448.852 32.43 449.502 32.08C450.152 31.72 450.617 31.365 450.897 31.015C451.187 30.665 451.347 30.26 451.377 29.8ZM452.487 36.01V37.42H456.222V41.995H448.362C448.122 41.995 447.937 41.93 447.807 41.8C447.677 41.67 447.612 41.48 447.612 41.23V37.42H451.347V36.01H445.797V35.05H458.037V36.01H452.487ZM455.097 38.32H448.737V41.08H455.097V38.32Z" fill="#1B1C25"/>
<path d="M10.665 65.005V61.465H11.805V71.35H10.665V65.965H7.935V65.005H10.665ZM4.665 66.415C4.595 66.415 4.53 66.445 4.47 66.505C4.2 66.925 3.855 67.36 3.435 67.81C3.015 68.25 2.455 68.79 1.755 69.43L0.9 68.695C1.74 67.975 2.39 67.355 2.85 66.835C3.31 66.305 3.64 65.785 3.84 65.275C4.05 64.755 4.155 64.175 4.155 63.535V63.385H1.29V62.44H8.13V63.385H5.295V63.595C5.295 64.485 5.12 65.28 4.77 65.98L4.86 66.025L5.085 65.845C5.195 65.765 5.3 65.725 5.4 65.725C5.52 65.725 5.64 65.775 5.76 65.875L8.565 68.425L7.725 69.16L4.89 66.505C4.83 66.445 4.755 66.415 4.665 66.415ZM12.075 73.825V74.77H4.215C3.975 74.77 3.79 74.705 3.66 74.575C3.53 74.445 3.465 74.255 3.465 74.005V70.45H4.62V73.825H12.075ZM26.559 61.465V74.485H25.479V61.465H26.559ZM22.479 61.69H23.529V74.125H22.479V68.02H20.604V67.09H22.479V61.69ZM19.989 63.265H16.539V62.335H19.989V63.265ZM18.804 68.08C18.924 68.08 19.039 68.135 19.149 68.245L21.564 70.93L20.784 71.605L18.354 68.8C18.304 68.75 18.254 68.725 18.204 68.725C18.144 68.725 18.094 68.755 18.054 68.815C17.824 69.245 17.519 69.7 17.139 70.18C16.769 70.65 16.289 71.195 15.699 71.815L14.934 71.155C15.664 70.395 16.224 69.74 16.614 69.19C17.014 68.63 17.299 68.08 17.469 67.54C17.639 67 17.724 66.385 17.724 65.695H15.249V64.78H21.234V65.695H18.774C18.774 66.635 18.624 67.48 18.324 68.23L18.384 68.275L18.519 68.17C18.609 68.11 18.704 68.08 18.804 68.08ZM40.653 61.465V69.355H39.513V65.74H36.783V64.81H39.513V61.465H40.653ZM30.603 69.025L29.748 68.305C30.588 67.615 31.238 67.025 31.698 66.535C32.158 66.035 32.488 65.545 32.688 65.065C32.898 64.585 33.003 64.04 33.003 63.43V63.265H30.138V62.305H36.978V63.265H34.143V63.49C34.143 64.34 33.968 65.095 33.618 65.755L33.708 65.8L33.948 65.635C34.058 65.545 34.168 65.5 34.278 65.5C34.408 65.5 34.523 65.545 34.623 65.635L37.413 68.035L36.573 68.785L33.738 66.28C33.658 66.22 33.583 66.19 33.513 66.19C33.433 66.19 33.363 66.22 33.303 66.28C33.043 66.67 32.708 67.07 32.298 67.48C31.888 67.88 31.323 68.395 30.603 69.025ZM32.058 70.165H40.653V75.145H39.528V71.125H32.058V70.165ZM45.2371 65.545C45.2371 64.875 45.4071 64.275 45.7471 63.745C46.0971 63.205 46.6271 62.775 47.3371 62.455C48.0471 62.135 48.9221 61.975 49.9621 61.975C51.0021 61.975 51.8771 62.135 52.5871 62.455C53.2971 62.775 53.8221 63.205 54.1621 63.745C54.5121 64.275 54.6871 64.875 54.6871 65.545C54.6871 66.215 54.5121 66.82 54.1621 67.36C53.8221 67.9 53.2971 68.33 52.5871 68.65C51.8771 68.97 51.0021 69.13 49.9621 69.13C48.9221 69.13 48.0471 68.97 47.3371 68.65C46.6271 68.33 46.0971 67.9 45.7471 67.36C45.4071 66.82 45.2371 66.215 45.2371 65.545ZM53.4571 65.725V65.38C53.4571 64.92 53.3321 64.505 53.0821 64.135C52.8421 63.755 52.4571 63.455 51.9271 63.235C51.4071 63.005 50.7521 62.89 49.9621 62.89C49.1721 62.89 48.5121 63.005 47.9821 63.235C47.4621 63.455 47.0771 63.755 46.8271 64.135C46.5871 64.505 46.4671 64.92 46.4671 65.38V65.725C46.4671 66.435 46.7571 67.025 47.3371 67.495C47.9171 67.965 48.7921 68.2 49.9621 68.2C51.1321 68.2 52.0071 67.965 52.5871 67.495C53.1671 67.025 53.4571 66.435 53.4571 65.725ZM43.8421 72.025H56.0821V73H43.8421V72.025ZM70.5061 72.04V73H58.2661V72.04H63.8161V69.475H60.0661V65.41H67.5661V63.205H59.9911V62.26H68.7061V66.325H61.2061V68.53H69.0961V69.475H64.9561V72.04H70.5061ZM83.975 67.45V69.235H88.01V75.145H86.93V70.18H83.825V69.355H83.075V72.565H79.835V74.17H80.075C81.825 74.17 83.155 74.065 84.065 73.855L84.215 74.755C83.205 74.975 81.845 75.085 80.135 75.085H79.535C79.295 75.085 79.11 75.02 78.98 74.89C78.85 74.76 78.785 74.57 78.785 74.32V71.71H82.04V70.135H78.74V69.235H82.85V67.45H77.285V66.475H86.09C86.41 65.305 86.575 64.08 86.585 62.8V62.77H78.965V61.825H87.695V62.62C87.695 63.84 87.54 65.125 87.23 66.475H89.525V67.45H83.975ZM93.3141 64.48C93.3141 63.94 93.4791 63.46 93.8091 63.04C94.1391 62.61 94.6391 62.275 95.3091 62.035C95.9891 61.785 96.8291 61.66 97.8291 61.66C98.8291 61.66 99.6641 61.785 100.334 62.035C101.014 62.275 101.519 62.61 101.849 63.04C102.179 63.46 102.344 63.94 102.344 64.48C102.344 65.32 101.964 66 101.204 66.52C100.444 67.04 99.3191 67.3 97.8291 67.3C96.3391 67.3 95.2141 67.04 94.4541 66.52C93.6941 66 93.3141 65.32 93.3141 64.48ZM101.129 64.6V64.345C101.129 63.825 100.854 63.395 100.304 63.055C99.7541 62.715 98.9291 62.545 97.8291 62.545C96.7291 62.545 95.9041 62.715 95.3541 63.055C94.8041 63.395 94.5291 63.825 94.5291 64.345V64.6C94.5291 65.12 94.8041 65.55 95.3541 65.89C95.9041 66.23 96.7291 66.4 97.8291 66.4C98.9291 66.4 99.7541 66.23 100.304 65.89C100.854 65.55 101.129 65.12 101.129 64.6ZM103.949 68.575V69.565H91.7091V68.575H103.949ZM93.4641 73.99V70.825H94.6041V73.795H102.374V74.755H94.2141C93.9741 74.755 93.7891 74.69 93.6591 74.56C93.5291 74.43 93.4641 74.24 93.4641 73.99ZM120.823 65.59H117.958V64.63H120.823V61.465H121.963V71.35H120.823V65.59ZM114.688 66.16C114.618 66.16 114.558 66.19 114.508 66.25C114.258 66.71 113.918 67.185 113.488 67.675C113.058 68.165 112.483 68.765 111.763 69.475L110.923 68.725C111.773 67.925 112.423 67.24 112.873 66.67C113.323 66.1 113.648 65.535 113.848 64.975C114.058 64.405 114.163 63.76 114.163 63.04V62.095H115.318V63.085C115.318 64.085 115.143 64.965 114.793 65.725L114.868 65.785L115.108 65.575C115.218 65.485 115.323 65.44 115.423 65.44C115.533 65.44 115.638 65.49 115.738 65.59L118.588 68.455L117.763 69.235L114.883 66.25C114.823 66.19 114.758 66.16 114.688 66.16ZM122.233 73.825V74.77H114.373C114.133 74.77 113.948 74.705 113.818 74.575C113.688 74.445 113.623 74.255 113.623 74.005V70.285H114.778V73.825H122.233ZM126.772 63.865C126.772 63.135 127.147 62.555 127.897 62.125C128.647 61.685 129.772 61.465 131.272 61.465C132.772 61.465 133.897 61.685 134.647 62.125C135.397 62.555 135.772 63.135 135.772 63.865C135.772 64.595 135.397 65.18 134.647 65.62C133.897 66.06 132.772 66.28 131.272 66.28C129.772 66.28 128.647 66.06 127.897 65.62C127.147 65.18 126.772 64.595 126.772 63.865ZM134.557 63.94V63.775C134.557 63.345 134.282 62.995 133.732 62.725C133.192 62.445 132.372 62.305 131.272 62.305C130.172 62.305 129.347 62.445 128.797 62.725C128.257 62.995 127.987 63.345 127.987 63.775V63.94C127.987 64.37 128.257 64.725 128.797 65.005C129.347 65.275 130.172 65.41 131.272 65.41C132.372 65.41 133.192 65.275 133.732 65.005C134.282 64.725 134.557 64.37 134.557 63.94ZM137.392 67.315V68.275H125.152V67.315H137.392ZM127.057 74.335V71.875H134.452V70.465H126.967V69.535H135.547V72.745H128.152V74.17H135.937V75.1H127.807C127.567 75.1 127.382 75.035 127.252 74.905C127.122 74.775 127.057 74.585 127.057 74.335ZM155.076 63.235H145.491V62.275H155.076V63.235ZM156.411 72.04V73H144.171V72.04H149.721V68.89H145.371V67.945H147.756L147.246 64.495L148.401 64.375L148.806 67.945H151.761L152.166 64.375L153.336 64.495L152.826 67.945H155.211V68.89H150.861V72.04H156.411ZM169.83 61.465V71.35H168.675V61.465H169.83ZM159.03 65.515C159.03 64.815 159.175 64.205 159.465 63.685C159.765 63.165 160.175 62.77 160.695 62.5C161.215 62.22 161.81 62.08 162.48 62.08C163.14 62.08 163.73 62.22 164.25 62.5C164.78 62.77 165.19 63.165 165.48 63.685C165.78 64.205 165.93 64.815 165.93 65.515C165.93 66.205 165.78 66.81 165.48 67.33C165.19 67.85 164.78 68.25 164.25 68.53C163.73 68.8 163.14 68.935 162.48 68.935C161.81 68.935 161.215 68.8 160.695 68.53C160.175 68.25 159.765 67.855 159.465 67.345C159.175 66.825 159.03 66.215 159.03 65.515ZM164.715 65.83V65.2C164.715 64.54 164.505 64.015 164.085 63.625C163.675 63.225 163.14 63.025 162.48 63.025C161.81 63.025 161.265 63.225 160.845 63.625C160.435 64.025 160.23 64.55 160.23 65.2V65.83C160.23 66.48 160.44 67.005 160.86 67.405C161.28 67.795 161.82 67.99 162.48 67.99C163.14 67.99 163.675 67.795 164.085 67.405C164.505 67.005 164.715 66.48 164.715 65.83ZM161.49 74.005V70.27H162.645V73.825H170.1V74.77H162.24C162 74.77 161.815 74.705 161.685 74.575C161.555 74.445 161.49 74.255 161.49 74.005ZM174.774 62.275H183.564V63.235H175.914V65.44H183.354V66.355H175.929V68.56H183.819V69.52H174.774V62.275ZM173.019 72.025H185.259V73H173.019V72.025ZM199.683 72.04V73H187.443V72.04H192.993V69.475H189.243V65.41H196.743V63.205H189.168V62.26H197.883V66.325H190.383V68.53H198.273V69.475H194.133V72.04H199.683ZM219.092 67.555H216.932V74.515H215.792V61.495H216.932V66.595H219.092V67.555ZM210.887 66.715C211.017 66.715 211.127 66.77 211.217 66.88L214.142 70.63L213.272 71.395L210.332 67.54C210.302 67.48 210.252 67.45 210.182 67.45C210.132 67.45 210.082 67.48 210.032 67.54C209.772 68.12 209.422 68.72 208.982 69.34C208.542 69.95 207.947 70.7 207.197 71.59L206.327 70.855C207.197 69.865 207.862 69.02 208.322 68.32C208.792 67.61 209.127 66.9 209.327 66.19C209.537 65.48 209.642 64.665 209.642 63.745V62.335H210.797V63.73C210.797 64.92 210.622 66 210.272 66.97L210.347 67.015L210.572 66.835C210.682 66.755 210.787 66.715 210.887 66.715ZM233.126 68.05V69.01H220.886V68.05H224.141V66.28C223.591 66.05 223.176 65.75 222.896 65.38C222.626 65.01 222.491 64.59 222.491 64.12C222.491 63.34 222.871 62.71 223.631 62.23C224.391 61.74 225.516 61.495 227.006 61.495C228.496 61.495 229.621 61.74 230.381 62.23C231.141 62.71 231.521 63.34 231.521 64.12C231.521 64.59 231.381 65.01 231.101 65.38C230.831 65.75 230.421 66.05 229.871 66.28V68.05H233.126ZM227.006 65.86C228.116 65.86 228.946 65.705 229.496 65.395C230.046 65.085 230.321 64.69 230.321 64.21V64C230.321 63.53 230.041 63.14 229.481 62.83C228.931 62.52 228.106 62.365 227.006 62.365C225.906 62.365 225.081 62.52 224.531 62.83C223.981 63.14 223.706 63.53 223.706 64V64.21C223.706 64.69 223.976 65.085 224.516 65.395C225.066 65.705 225.896 65.86 227.006 65.86ZM225.236 68.05H228.776V66.595C228.286 66.695 227.696 66.745 227.006 66.745C226.316 66.745 225.726 66.695 225.236 66.595V68.05ZM231.446 72.685C231.446 73.195 231.276 73.645 230.936 74.035C230.606 74.425 230.106 74.73 229.436 74.95C228.776 75.18 227.966 75.295 227.006 75.295C226.046 75.295 225.231 75.18 224.561 74.95C223.901 74.73 223.401 74.425 223.061 74.035C222.731 73.645 222.566 73.195 222.566 72.685C222.566 72.185 222.731 71.745 223.061 71.365C223.401 70.975 223.901 70.67 224.561 70.45C225.231 70.23 226.046 70.12 227.006 70.12C227.966 70.12 228.776 70.23 229.436 70.45C230.106 70.67 230.606 70.975 230.936 71.365C231.276 71.745 231.446 72.185 231.446 72.685ZM230.246 72.595C230.246 72.155 229.976 71.785 229.436 71.485C228.906 71.175 228.096 71.02 227.006 71.02C226.276 71.02 225.666 71.095 225.176 71.245C224.686 71.385 224.326 71.575 224.096 71.815C223.866 72.055 223.751 72.315 223.751 72.595V72.805C223.751 73.085 223.866 73.345 224.096 73.585C224.326 73.825 224.686 74.015 225.176 74.155C225.666 74.305 226.276 74.38 227.006 74.38C228.096 74.38 228.906 74.225 229.436 73.915C229.976 73.615 230.246 73.245 230.246 72.805V72.595ZM247.94 67.795H245.825V74.515H244.685V61.495H245.825V66.835H247.94V67.795ZM241.49 63.175H237.23V62.2H241.49V63.175ZM235.235 64.975H243.26V65.905H241.04V65.995C241.95 66.445 242.405 67.31 242.405 68.59C242.405 69.24 242.27 69.805 242 70.285C241.73 70.755 241.355 71.115 240.875 71.365C240.405 71.615 239.88 71.74 239.3 71.74C238.72 71.74 238.19 71.615 237.71 71.365C237.24 71.115 236.87 70.755 236.6 70.285C236.33 69.805 236.195 69.24 236.195 68.59C236.195 67.31 236.65 66.445 237.56 65.995V65.905H235.235V64.975ZM241.295 68.095C241.295 67.425 241.115 66.915 240.755 66.565C240.395 66.205 239.91 66.025 239.3 66.025C238.7 66.025 238.215 66.205 237.845 66.565C237.485 66.925 237.305 67.435 237.305 68.095V68.71C237.305 69.36 237.49 69.87 237.86 70.24C238.23 70.6 238.71 70.78 239.3 70.78C239.89 70.78 240.37 70.6 240.74 70.24C241.11 69.87 241.295 69.36 241.295 68.71V68.095ZM260.924 61.465V74.485H259.799V69.01H257.249V68.08H259.799V65.26H257.249V64.33H259.799V61.465H260.924ZM256.934 66.73C256.934 68.19 256.619 69.295 255.989 70.045C255.359 70.795 254.529 71.17 253.499 71.17C252.459 71.17 251.624 70.795 250.994 70.045C250.364 69.295 250.049 68.19 250.049 66.73C250.049 65.27 250.364 64.165 250.994 63.415C251.624 62.665 252.459 62.29 253.499 62.29C254.529 62.29 255.359 62.665 255.989 63.415C256.619 64.165 256.934 65.27 256.934 66.73ZM255.734 66.13C255.734 65.19 255.529 64.475 255.119 63.985C254.709 63.485 254.169 63.235 253.499 63.235C252.819 63.235 252.274 63.485 251.864 63.985C251.454 64.475 251.249 65.19 251.249 66.13V67.33C251.249 68.27 251.454 68.99 251.864 69.49C252.274 69.98 252.819 70.225 253.499 70.225C254.169 70.225 254.709 69.98 255.119 69.49C255.529 68.99 255.734 68.27 255.734 67.33V66.13ZM280.993 68.755V69.685H268.753V68.755H274.318V67.345H270.613V61.735H279.118V62.635H271.708V64.105H278.893V64.975H271.723V66.445H279.358V67.345H275.443V68.755H280.993ZM279.313 73C279.313 73.71 278.933 74.275 278.173 74.695C277.413 75.115 276.313 75.325 274.873 75.325C273.433 75.325 272.333 75.115 271.573 74.695C270.813 74.275 270.433 73.71 270.433 73C270.433 72.3 270.813 71.74 271.573 71.32C272.333 70.89 273.433 70.675 274.873 70.675C276.313 70.675 277.413 70.89 278.173 71.32C278.933 71.74 279.313 72.3 279.313 73ZM278.113 72.91C278.113 72.52 277.843 72.195 277.303 71.935C276.773 71.675 275.963 71.545 274.873 71.545C273.793 71.545 272.978 71.675 272.428 71.935C271.888 72.195 271.618 72.52 271.618 72.91V73.09C271.618 73.48 271.888 73.805 272.428 74.065C272.978 74.325 273.793 74.455 274.873 74.455C275.963 74.455 276.773 74.325 277.303 74.065C277.843 73.805 278.113 73.48 278.113 73.09V72.91ZM294.412 61.465V68.29H293.257V61.465H294.412ZM283.612 64.9C283.612 64.27 283.757 63.72 284.047 63.25C284.347 62.78 284.757 62.42 285.277 62.17C285.807 61.91 286.402 61.78 287.062 61.78C287.722 61.78 288.312 61.91 288.832 62.17C289.362 62.42 289.772 62.78 290.062 63.25C290.362 63.72 290.512 64.27 290.512 64.9C290.512 65.53 290.362 66.08 290.062 66.55C289.772 67.02 289.362 67.385 288.832 67.645C288.312 67.895 287.722 68.02 287.062 68.02C286.402 68.02 285.807 67.895 285.277 67.645C284.757 67.385 284.347 67.02 284.047 66.55C283.757 66.08 283.612 65.53 283.612 64.9ZM289.297 65.125V64.675C289.297 64.075 289.092 63.6 288.682 63.25C288.272 62.89 287.732 62.71 287.062 62.71C286.392 62.71 285.847 62.89 285.427 63.25C285.017 63.61 284.812 64.085 284.812 64.675V65.125C284.812 65.715 285.022 66.19 285.442 66.55C285.862 66.91 286.402 67.09 287.062 67.09C287.722 67.09 288.257 66.91 288.667 66.55C289.087 66.19 289.297 65.715 289.297 65.125ZM286.057 74.335V71.62H293.257V70.075H285.967V69.115H294.412V72.58H287.212V74.125H294.772V75.1H286.807C286.567 75.1 286.382 75.035 286.252 74.905C286.122 74.775 286.057 74.585 286.057 74.335ZM310.246 65.725H308.161V68.98H307.021V61.465H308.161V64.765H310.246V65.725ZM298.471 68.935L297.871 68.065C299.221 67.545 300.246 67.08 300.946 66.67C301.656 66.25 302.151 65.815 302.431 65.365C302.721 64.905 302.866 64.35 302.866 63.7V63.13H298.246V62.17H304.021V63.58C304.021 64.45 303.856 65.175 303.526 65.755C303.206 66.325 302.656 66.855 301.876 67.345C301.096 67.825 299.961 68.355 298.471 68.935ZM300.046 69.79H308.161V75.025H300.796C300.556 75.025 300.371 74.96 300.241 74.83C300.111 74.7 300.046 74.51 300.046 74.26V69.79ZM301.186 74.065H307.021V70.735H301.186V74.065ZM313.645 63.865C313.645 63.135 314.02 62.555 314.77 62.125C315.52 61.685 316.645 61.465 318.145 61.465C319.645 61.465 320.77 61.685 321.52 62.125C322.27 62.555 322.645 63.135 322.645 63.865C322.645 64.595 322.27 65.18 321.52 65.62C320.77 66.06 319.645 66.28 318.145 66.28C316.645 66.28 315.52 66.06 314.77 65.62C314.02 65.18 313.645 64.595 313.645 63.865ZM321.43 63.94V63.775C321.43 63.345 321.155 62.995 320.605 62.725C320.065 62.445 319.245 62.305 318.145 62.305C317.045 62.305 316.22 62.445 315.67 62.725C315.13 62.995 314.86 63.345 314.86 63.775V63.94C314.86 64.37 315.13 64.725 315.67 65.005C316.22 65.275 317.045 65.41 318.145 65.41C319.245 65.41 320.065 65.275 320.605 65.005C321.155 64.725 321.43 64.37 321.43 63.94ZM324.265 67.315V68.275H312.025V67.315H324.265ZM313.93 74.335V71.875H321.325V70.465H313.84V69.535H322.42V72.745H315.025V74.17H322.81V75.1H314.68C314.44 75.1 314.255 75.035 314.125 74.905C313.995 74.775 313.93 74.585 313.93 74.335ZM342.279 68.29H341.124V61.465H342.279V68.29ZM334.929 68.02C334.269 68.02 333.674 67.895 333.144 67.645C332.624 67.385 332.214 67.02 331.914 66.55C331.624 66.08 331.479 65.53 331.479 64.9C331.479 64.27 331.624 63.72 331.914 63.25C332.214 62.78 332.624 62.42 333.144 62.17C333.674 61.91 334.269 61.78 334.929 61.78C335.589 61.78 336.179 61.91 336.699 62.17C337.229 62.42 337.639 62.78 337.929 63.25C338.229 63.72 338.379 64.27 338.379 64.9C338.379 65.53 338.229 66.08 337.929 66.55C337.639 67.02 337.229 67.385 336.699 67.645C336.179 67.895 335.589 68.02 334.929 68.02ZM334.929 67.09C335.589 67.09 336.124 66.91 336.534 66.55C336.954 66.19 337.164 65.715 337.164 65.125V64.675C337.164 64.075 336.959 63.6 336.549 63.25C336.139 62.89 335.599 62.71 334.929 62.71C334.259 62.71 333.714 62.89 333.294 63.25C332.884 63.61 332.679 64.085 332.679 64.675V65.125C332.679 65.715 332.889 66.19 333.309 66.55C333.729 66.91 334.269 67.09 334.929 67.09ZM341.979 69.94H338.889V69.07H341.979V69.94ZM337.554 73.9L337.719 74.8C336.749 75.01 335.564 75.115 334.164 75.115H333.669C333.429 75.115 333.244 75.05 333.114 74.92C332.984 74.79 332.919 74.6 332.919 74.35V71.68H336.009V70H332.874V69.1H337.059V72.505H333.984V74.2H334.119C335.619 74.2 336.764 74.1 337.554 73.9ZM341.784 71.905V71.995C342.404 72.285 342.714 72.78 342.714 73.48C342.714 73.82 342.619 74.13 342.429 74.41C342.239 74.7 341.969 74.925 341.619 75.085C341.269 75.255 340.859 75.34 340.389 75.34C339.919 75.34 339.509 75.255 339.159 75.085C338.809 74.925 338.539 74.7 338.349 74.41C338.159 74.13 338.064 73.82 338.064 73.48C338.064 73.15 338.144 72.855 338.304 72.595C338.464 72.335 338.699 72.13 339.009 71.98V71.905H337.554V71.08H343.239V71.905H341.784ZM341.754 73.225C341.754 72.845 341.634 72.545 341.394 72.325C341.164 72.095 340.859 71.98 340.479 71.98H340.299C339.919 71.98 339.609 72.095 339.369 72.325C339.139 72.545 339.024 72.845 339.024 73.225C339.024 73.605 339.139 73.905 339.369 74.125C339.609 74.355 339.919 74.47 340.299 74.47H340.479C340.859 74.47 341.164 74.355 341.394 74.125C341.634 73.905 341.754 73.605 341.754 73.225ZM356.628 61.465V74.485H355.488V61.465H356.628ZM350.358 66.97C350.498 66.97 350.613 67.025 350.703 67.135L353.643 70.585L352.788 71.32L349.818 67.75C349.768 67.69 349.708 67.66 349.638 67.66C349.578 67.66 349.523 67.69 349.473 67.75C349.203 68.3 348.848 68.86 348.408 69.43C347.968 70 347.368 70.7 346.608 71.53L345.753 70.81C346.623 69.9 347.293 69.11 347.763 68.44C348.243 67.77 348.588 67.105 348.798 66.445C349.008 65.775 349.113 65.015 349.113 64.165V63.595H346.158V62.635H353.193V63.595H350.253V64.21C350.253 65.34 350.078 66.345 349.728 67.225L349.803 67.27L350.028 67.09C350.138 67.01 350.248 66.97 350.358 66.97ZM377.132 64.42V65.38H375.047V68.245H373.907V61.465H375.047V64.42H377.132ZM368.012 68.245C367.352 68.245 366.762 68.115 366.242 67.855C365.732 67.595 365.332 67.225 365.042 66.745C364.752 66.255 364.607 65.69 364.607 65.05C364.607 64.41 364.752 63.85 365.042 63.37C365.332 62.89 365.732 62.52 366.242 62.26C366.762 62 367.352 61.87 368.012 61.87C368.662 61.87 369.242 62 369.752 62.26C370.272 62.52 370.677 62.89 370.967 63.37C371.257 63.85 371.402 64.41 371.402 65.05C371.402 65.69 371.257 66.255 370.967 66.745C370.677 67.225 370.272 67.595 369.752 67.855C369.242 68.115 368.662 68.245 368.012 68.245ZM368.012 67.33C368.662 67.33 369.192 67.145 369.602 66.775C370.012 66.405 370.217 65.915 370.217 65.305V64.81C370.217 64.2 370.012 63.715 369.602 63.355C369.192 62.985 368.662 62.8 368.012 62.8C367.352 62.8 366.817 62.985 366.407 63.355C365.997 63.715 365.792 64.2 365.792 64.81V65.305C365.792 65.915 365.997 66.405 366.407 66.775C366.817 67.145 367.352 67.33 368.012 67.33ZM371.387 69.91V68.995H374.552V69.91H371.387ZM369.752 73.3L370.037 74.245C369.647 74.415 369.182 74.555 368.642 74.665C368.102 74.785 367.537 74.845 366.947 74.845H366.677C366.437 74.845 366.252 74.78 366.122 74.65C365.992 74.52 365.927 74.33 365.927 74.08V69.505H366.992V73.825H367.187C367.657 73.825 368.117 73.77 368.567 73.66C369.027 73.56 369.422 73.44 369.752 73.3ZM369.782 71.095H376.157V71.95H374.447V72.04C374.767 72.19 375.007 72.39 375.167 72.64C375.327 72.89 375.407 73.175 375.407 73.495C375.407 74.015 375.187 74.45 374.747 74.8C374.307 75.16 373.717 75.34 372.977 75.34C372.227 75.34 371.632 75.16 371.192 74.8C370.752 74.45 370.532 74.015 370.532 73.495C370.532 73.165 370.612 72.875 370.772 72.625C370.932 72.375 371.177 72.175 371.507 72.025V71.95H369.782V71.095ZM374.447 73.24C374.447 72.86 374.317 72.56 374.057 72.34C373.807 72.12 373.477 72.01 373.067 72.01H372.872C372.462 72.01 372.127 72.12 371.867 72.34C371.617 72.56 371.492 72.86 371.492 73.24C371.492 73.62 371.617 73.92 371.867 74.14C372.127 74.36 372.462 74.47 372.872 74.47H373.067C373.477 74.47 373.807 74.36 374.057 74.14C374.317 73.92 374.447 73.62 374.447 73.24ZM391.151 72.04V73H378.911V72.04H384.461V68.575H380.681V62.35H389.426V63.325H381.821V67.6H389.561V68.575H385.601V72.04H391.151ZM405.575 68.89V69.85H393.335V68.89H398.9V67.465H395.24V64.165H402.515V62.68H395.165V61.765H403.625V65.05H396.35V66.55H404V67.465H400.025V68.89H405.575ZM395.03 71.125H403.76V75.1H402.635V72.055H395.03V71.125ZM424.999 66.13H422.914V69.7H421.774V61.465H422.914V65.17H424.999V66.13ZM418.339 62.725H414.334V61.78H418.339V62.725ZM416.239 69.385C415.619 69.385 415.074 69.29 414.604 69.1C414.134 68.91 413.769 68.645 413.509 68.305C413.259 67.965 413.134 67.58 413.134 67.15C413.134 66.72 413.239 66.35 413.449 66.04C413.669 65.72 413.994 65.47 414.424 65.29V65.2H412.144V64.285H420.274V65.2H418.054V65.29C418.484 65.47 418.804 65.72 419.014 66.04C419.234 66.35 419.344 66.72 419.344 67.15C419.344 67.58 419.214 67.965 418.954 68.305C418.704 68.645 418.344 68.91 417.874 69.1C417.404 69.29 416.859 69.385 416.239 69.385ZM416.089 68.44H416.389C416.949 68.44 417.404 68.305 417.754 68.035C418.104 67.755 418.279 67.37 418.279 66.88C418.279 66.38 418.104 65.995 417.754 65.725C417.404 65.445 416.949 65.305 416.389 65.305H416.089C415.529 65.305 415.074 65.445 414.724 65.725C414.374 65.995 414.199 66.38 414.199 66.88C414.199 67.37 414.374 67.755 414.724 68.035C415.074 68.305 415.529 68.44 416.089 68.44ZM414.814 70.48H422.914V75.025H415.564C415.324 75.025 415.139 74.96 415.009 74.83C414.879 74.7 414.814 74.51 414.814 74.26V70.48ZM415.954 74.08H421.774V71.425H415.954V74.08Z" fill="#1B1C25"/>
</svg>
