<svg width="284" height="157" viewBox="0 0 284 157" fill="none" xmlns="http://www.w3.org/2000/svg">
<path d="M284 157L284 0L0 -1.2414e-05L-6.86269e-06 157L284 157Z" fill="#273F65"/>
<path d="M34.6801 115.185H32.4642C32.379 114.711 32.2204 114.295 31.9884 113.935C31.7564 113.575 31.4723 113.269 31.1361 113.018C30.7999 112.768 30.4235 112.578 30.0069 112.45C29.5949 112.322 29.1569 112.259 28.6929 112.259C27.8549 112.259 27.1044 112.469 26.4415 112.891C25.7834 113.312 25.2625 113.93 24.879 114.744C24.5002 115.559 24.3108 116.553 24.3108 117.727C24.3108 118.911 24.5002 119.91 24.879 120.724C25.2625 121.539 25.7857 122.154 26.4486 122.571C27.1115 122.988 27.8572 123.196 28.6858 123.196C29.1451 123.196 29.5807 123.134 29.9926 123.011C30.4093 122.884 30.7857 122.696 31.1219 122.45C31.4581 122.204 31.7422 121.903 31.9742 121.548C32.2109 121.188 32.3743 120.777 32.4642 120.312L34.6801 120.32C34.5618 121.035 34.3321 121.693 33.9912 122.294C33.6551 122.891 33.2218 123.407 32.6915 123.842C32.1659 124.273 31.5646 124.607 30.8875 124.844C30.2105 125.08 29.4718 125.199 28.6716 125.199C27.4122 125.199 26.29 124.901 25.3051 124.304C24.3203 123.703 23.5438 122.843 22.9756 121.726C22.4122 120.608 22.1304 119.276 22.1304 117.727C22.1304 116.174 22.4145 114.841 22.9827 113.729C23.5509 112.611 24.3274 111.754 25.3123 111.158C26.2971 110.556 27.4169 110.256 28.6716 110.256C29.4434 110.256 30.1631 110.367 30.8307 110.589C31.5031 110.807 32.1068 111.129 32.6418 111.555C33.1768 111.977 33.6195 112.493 33.9699 113.104C34.3203 113.71 34.557 114.403 34.6801 115.185ZM51.3412 117.727C51.3412 119.28 51.0571 120.616 50.4889 121.733C49.9207 122.846 49.1418 123.703 48.1522 124.304C47.1674 124.901 46.0476 125.199 44.7929 125.199C43.5334 125.199 42.4089 124.901 41.4193 124.304C40.4344 123.703 39.6579 122.843 39.0897 121.726C38.5216 120.608 38.2375 119.276 38.2375 117.727C38.2375 116.174 38.5216 114.841 39.0897 113.729C39.6579 112.611 40.4344 111.754 41.4193 111.158C42.4089 110.556 43.5334 110.256 44.7929 110.256C46.0476 110.256 47.1674 110.556 48.1522 111.158C49.1418 111.754 49.9207 112.611 50.4889 113.729C51.0571 114.841 51.3412 116.174 51.3412 117.727ZM49.1679 117.727C49.1679 116.544 48.9761 115.547 48.5926 114.737C48.2138 113.923 47.693 113.307 47.0301 112.891C46.3719 112.469 45.6262 112.259 44.7929 112.259C43.9548 112.259 43.2067 112.469 42.5485 112.891C41.8904 113.307 41.3696 113.923 40.986 114.737C40.6073 115.547 40.4179 116.544 40.4179 117.727C40.4179 118.911 40.6073 119.91 40.986 120.724C41.3696 121.534 41.8904 122.15 42.5485 122.571C43.2067 122.988 43.9548 123.196 44.7929 123.196C45.6262 123.196 46.3719 122.988 47.0301 122.571C47.693 122.15 48.2138 121.534 48.5926 120.724C48.9761 119.91 49.1679 118.911 49.1679 117.727ZM67.2174 110.455V125H65.2003L57.8069 114.332H57.6719V125H55.4773V110.455H57.5086L64.9091 121.136H65.0441V110.455H67.2174ZM83.8997 115.185H81.6838C81.5985 114.711 81.4399 114.295 81.2079 113.935C80.9759 113.575 80.6918 113.269 80.3556 113.018C80.0195 112.768 79.6431 112.578 79.2264 112.45C78.8145 112.322 78.3765 112.259 77.9125 112.259C77.0744 112.259 76.3239 112.469 75.661 112.891C75.0029 113.312 74.4821 113.93 74.0985 114.744C73.7198 115.559 73.5304 116.553 73.5304 117.727C73.5304 118.911 73.7198 119.91 74.0985 120.724C74.4821 121.539 75.0053 122.154 75.6681 122.571C76.331 122.988 77.0768 123.196 77.9054 123.196C78.3646 123.196 78.8002 123.134 79.2122 123.011C79.6288 122.884 80.0053 122.696 80.3414 122.45C80.6776 122.204 80.9617 121.903 81.1937 121.548C81.4305 121.188 81.5938 120.777 81.6838 120.312L83.8997 120.32C83.7813 121.035 83.5517 121.693 83.2108 122.294C82.8746 122.891 82.4413 123.407 81.911 123.842C81.3855 124.273 80.7842 124.607 80.1071 124.844C79.43 125.08 78.6913 125.199 77.8912 125.199C76.6317 125.199 75.5095 124.901 74.5247 124.304C73.5398 123.703 72.7633 122.843 72.1951 121.726C71.6317 120.608 71.35 119.276 71.35 117.727C71.35 116.174 71.6341 114.841 72.2022 113.729C72.7704 112.611 73.5469 111.754 74.5318 111.158C75.5166 110.556 76.6364 110.256 77.8912 110.256C78.6629 110.256 79.3826 110.367 80.0502 110.589C80.7226 110.807 81.3263 111.129 81.8613 111.555C82.3964 111.977 82.8391 112.493 83.1895 113.104C83.5398 113.71 83.7766 114.403 83.8997 115.185ZM87.9257 125V110.455H97.0451V112.344H90.1203V116.776H96.5692V118.658H90.1203V123.111H97.1303V125H87.9257ZM101.377 125V110.455H106.561C107.693 110.455 108.63 110.661 109.374 111.072C110.117 111.484 110.673 112.048 111.043 112.763C111.412 113.473 111.597 114.273 111.597 115.163C111.597 116.058 111.41 116.863 111.036 117.578C110.666 118.288 110.108 118.852 109.359 119.268C108.616 119.68 107.681 119.886 106.554 119.886H102.989V118.026H106.355C107.07 118.026 107.65 117.902 108.095 117.656C108.54 117.405 108.867 117.064 109.075 116.634C109.284 116.203 109.388 115.713 109.388 115.163C109.388 114.614 109.284 114.126 109.075 113.7C108.867 113.274 108.538 112.94 108.088 112.699C107.643 112.457 107.056 112.337 106.327 112.337H103.571V125H101.377ZM114.852 112.344V110.455H126.109V112.344H121.571V125H119.383V112.344H114.852Z" fill="#EBECF1"/>
<path d="M250.774 124.184C250.774 124.184 250.788 124.164 250.794 124.155C250.846 124.181 250.903 124.21 250.949 124.23C251.272 124.376 251.576 124.461 251.859 124.49C252.489 124.553 253.131 124.258 253.786 123.603C254.276 123.113 254.6 122.661 254.748 122.246C254.814 122.057 254.837 121.871 254.811 121.685C254.786 121.499 254.723 121.353 254.617 121.25C254.537 121.17 254.442 121.119 254.33 121.096C254.222 121.073 254.124 121.084 254.041 121.127C253.772 121.276 253.577 121.345 253.454 121.336C253.331 121.328 253.145 121.227 252.893 121.036C252.741 120.918 252.592 120.812 252.452 120.721C252.701 119.814 252.839 118.858 252.839 117.879C252.839 116.03 252.355 114.307 251.524 112.856L245.497 118.884L250.774 124.184Z" fill="#EBECF1"/>
<path d="M241.751 127.023C241.676 127.3 241.634 127.592 241.634 127.898C241.634 129.567 242.845 131.047 244.34 131.047C245.834 131.047 247.046 129.567 247.046 127.898C247.046 127.635 247.011 127.383 246.957 127.14C248.022 126.742 248.998 126.098 249.837 125.271L244.488 119.899L239.142 125.245C239.907 126.01 240.792 126.619 241.754 127.026L241.751 127.023Z" fill="#EBECF1"/>
<path d="M234.252 122.246C234.404 122.658 234.724 123.111 235.214 123.603C235.87 124.258 236.511 124.553 237.141 124.49C237.425 124.464 237.728 124.376 238.052 124.23C238.097 124.21 238.152 124.181 238.203 124.155L243.475 118.884L237.476 112.859C236.646 114.307 236.162 116.03 236.162 117.879C236.162 118.858 236.299 119.814 236.548 120.721C236.408 120.815 236.259 120.918 236.107 121.036C235.855 121.227 235.669 121.328 235.546 121.336C235.423 121.345 235.228 121.276 234.959 121.127C234.876 121.084 234.779 121.073 234.67 121.096C234.561 121.119 234.467 121.17 234.384 121.25C234.28 121.353 234.215 121.499 234.189 121.685C234.163 121.871 234.186 122.06 234.252 122.246Z" fill="#EBECF1"/>
<path d="M236.021 108.217C236.084 108.309 236.159 108.372 236.25 108.4C236.545 108.486 236.734 108.575 236.814 108.667C236.895 108.758 236.958 108.961 237 109.276C237.101 110.032 237.267 110.593 237.499 110.959C237.682 111.248 237.951 111.477 238.3 111.649L238.295 111.654L244.486 117.87L250.702 111.651L250.699 111.651C251.049 111.474 251.318 111.245 251.501 110.956C251.733 110.59 251.899 110.029 251.999 109.273C252.042 108.958 252.102 108.755 252.185 108.664C252.266 108.572 252.455 108.48 252.75 108.398C252.841 108.369 252.916 108.309 252.979 108.214C253.042 108.123 253.07 108.02 253.07 107.905C253.07 107.759 253.013 107.61 252.899 107.459C252.784 107.31 252.638 107.193 252.458 107.107C252.06 106.921 251.513 106.829 250.817 106.829C249.889 106.829 249.228 107.075 248.827 107.562C248.646 107.779 248.492 108.057 248.366 108.389C248.271 108.638 248.165 108.987 248.045 109.442C246.968 108.875 245.766 108.555 244.494 108.555C243.223 108.555 242.023 108.875 240.943 109.442C240.823 108.987 240.717 108.638 240.623 108.389C240.497 108.057 240.342 107.779 240.162 107.562C239.764 107.072 239.099 106.829 238.172 106.829C237.479 106.829 236.932 106.921 236.531 107.107C236.35 107.193 236.202 107.31 236.09 107.459C235.975 107.608 235.918 107.756 235.918 107.905C235.918 108.02 235.95 108.123 236.01 108.214L236.021 108.217Z" fill="#EBECF1"/>
</svg>
