<svg width="304" height="102" viewBox="0 0 304 102" fill="none" xmlns="http://www.w3.org/2000/svg">
<path d="M1.32102 14V3.09091H5.0071C5.86293 3.09091 6.5625 3.24538 7.10582 3.55433C7.6527 3.85973 8.05753 4.27344 8.32031 4.79545C8.5831 5.31747 8.71449 5.89986 8.71449 6.54261C8.71449 7.18537 8.5831 7.76953 8.32031 8.2951C8.06108 8.82067 7.6598 9.2397 7.11648 9.5522C6.57315 9.86115 5.87713 10.0156 5.02841 10.0156H2.38636V8.84375H4.9858C5.57173 8.84375 6.04226 8.74254 6.39737 8.54013C6.75249 8.33771 7.00994 8.06428 7.16974 7.71982C7.3331 7.3718 7.41477 6.9794 7.41477 6.54261C7.41477 6.10582 7.3331 5.7152 7.16974 5.37074C7.00994 5.02628 6.75071 4.75639 6.39205 4.56108C6.03338 4.36222 5.55753 4.26278 4.96449 4.26278H2.64205V14H1.32102ZM11.8925 14V3.09091H18.4763V4.26278H13.2135V7.94886H18.1354V9.12074H13.2135V12.8281H18.5615V14H11.8925ZM21.9074 14V3.09091H25.5934C26.4457 3.09091 27.1453 3.23651 27.6922 3.5277C28.239 3.81534 28.6439 4.21129 28.9066 4.71555C29.1694 5.21982 29.3008 5.79332 29.3008 6.43608C29.3008 7.07884 29.1694 7.64879 28.9066 8.14595C28.6439 8.64311 28.2408 9.03374 27.6975 9.31783C27.1542 9.59837 26.4599 9.73864 25.6147 9.73864H22.6318V8.54545H25.5721C26.1545 8.54545 26.6233 8.46023 26.9784 8.28977C27.337 8.11932 27.5963 7.87784 27.7561 7.56534C27.9194 7.24929 28.0011 6.87287 28.0011 6.43608C28.0011 5.99929 27.9194 5.61754 27.7561 5.29084C27.5927 4.96413 27.3317 4.712 26.973 4.53445C26.6144 4.35334 26.1403 4.26278 25.5508 4.26278H23.2284V14H21.9074ZM27.0423 9.09943L29.727 14H28.1929L25.5508 9.09943H27.0423ZM33.8731 3.09091V14H32.5521V3.09091H33.8731ZM46.7764 8.54545C46.7764 9.69602 46.5686 10.6903 46.1531 11.5284C45.7376 12.3665 45.1677 13.0128 44.4433 13.4673C43.7188 13.9219 42.8914 14.1491 41.961 14.1491C41.0306 14.1491 40.2032 13.9219 39.4788 13.4673C38.7543 13.0128 38.1844 12.3665 37.7689 11.5284C37.3534 10.6903 37.1457 9.69602 37.1457 8.54545C37.1457 7.39489 37.3534 6.40057 37.7689 5.5625C38.1844 4.72443 38.7543 4.07812 39.4788 3.62358C40.2032 3.16903 41.0306 2.94176 41.961 2.94176C42.8914 2.94176 43.7188 3.16903 44.4433 3.62358C45.1677 4.07812 45.7376 4.72443 46.1531 5.5625C46.5686 6.40057 46.7764 7.39489 46.7764 8.54545ZM45.4979 8.54545C45.4979 7.60085 45.3399 6.80362 45.0239 6.15376C44.7114 5.50391 44.287 5.01207 43.7508 4.67827C43.2181 4.34446 42.6215 4.17756 41.961 4.17756C41.3005 4.17756 40.7021 4.34446 40.1659 4.67827C39.6332 5.01207 39.2089 5.50391 38.8928 6.15376C38.5803 6.80362 38.4241 7.60085 38.4241 8.54545C38.4241 9.49006 38.5803 10.2873 38.8928 10.9371C39.2089 11.587 39.6332 12.0788 40.1659 12.4126C40.7021 12.7464 41.3005 12.9134 41.961 12.9134C42.6215 12.9134 43.2181 12.7464 43.7508 12.4126C44.287 12.0788 44.7114 11.587 45.0239 10.9371C45.3399 10.2873 45.4979 9.49006 45.4979 8.54545ZM53.4141 14H50.0476V3.09091H53.5632C54.6214 3.09091 55.527 3.3093 56.2798 3.74609C57.0327 4.17933 57.6097 4.80256 58.011 5.61577C58.4123 6.42543 58.6129 7.39489 58.6129 8.52415C58.6129 9.66051 58.4105 10.6388 58.0057 11.4592C57.6009 12.2759 57.0114 12.9045 56.2372 13.3448C55.4631 13.7816 54.522 14 53.4141 14ZM51.3686 12.8281H53.3288C54.2308 12.8281 54.9783 12.6541 55.5714 12.3061C56.1644 11.9581 56.6065 11.4627 56.8977 10.82C57.1889 10.1772 57.3345 9.41193 57.3345 8.52415C57.3345 7.64347 57.1907 6.8853 56.9031 6.24964C56.6154 5.61044 56.1857 5.12038 55.614 4.77947C55.0423 4.43501 54.3303 4.26278 53.478 4.26278H51.3686V12.8281Z" fill="#1B1C25"/>
<path d="M1.32102 42V31.0909H5.0071C5.86293 31.0909 6.5625 31.2454 7.10582 31.5543C7.6527 31.8597 8.05753 32.2734 8.32031 32.7955C8.5831 33.3175 8.71449 33.8999 8.71449 34.5426C8.71449 35.1854 8.5831 35.7695 8.32031 36.2951C8.06108 36.8207 7.6598 37.2397 7.11648 37.5522C6.57315 37.8612 5.87713 38.0156 5.02841 38.0156H2.38636V36.8438H4.9858C5.57173 36.8438 6.04226 36.7425 6.39737 36.5401C6.75249 36.3377 7.00994 36.0643 7.16974 35.7198C7.3331 35.3718 7.41477 34.9794 7.41477 34.5426C7.41477 34.1058 7.3331 33.7152 7.16974 33.3707C7.00994 33.0263 6.75071 32.7564 6.39205 32.5611C6.03338 32.3622 5.55753 32.2628 4.96449 32.2628H2.64205V42H1.32102ZM11.8925 42V31.0909H13.2135V40.8281H18.2846V42H11.8925ZM22.5159 42H21.131L25.1367 31.0909H26.5003L30.506 42H29.121L25.8611 32.8168H25.7759L22.5159 42ZM23.0273 37.7386H28.6097V38.9105H23.0273V37.7386ZM41.9058 31.0909V42H40.6274L34.6828 33.4347H34.5762V42H33.2552V31.0909H34.5336L40.4995 39.6776H40.6061V31.0909H41.9058ZM54.2497 31.0909V42H52.9713L47.0267 33.4347H46.9202V42H45.5991V31.0909H46.8776L52.8435 39.6776H52.95V31.0909H54.2497ZM59.2641 31.0909V42H57.9431V31.0909H59.2641ZM71.6134 31.0909V42H70.335L64.3904 33.4347H64.2838V42H62.9628V31.0909H64.2412L70.2071 39.6776H70.3137V31.0909H71.6134ZM82.7642 34.5C82.647 34.1413 82.4925 33.82 82.3007 33.5359C82.1125 33.2482 81.887 33.0032 81.6242 32.8008C81.365 32.5984 81.0703 32.4439 80.74 32.3374C80.4097 32.2308 80.0475 32.1776 79.6534 32.1776C79.007 32.1776 78.4193 32.3445 77.8902 32.6783C77.3611 33.0121 76.9403 33.5039 76.6278 34.1538C76.3153 34.8036 76.159 35.6009 76.159 36.5455C76.159 37.4901 76.3171 38.2873 76.6331 38.9371C76.9492 39.587 77.3771 40.0788 77.9168 40.4126C78.4566 40.7464 79.0639 40.9134 79.7386 40.9134C80.3636 40.9134 80.914 40.7802 81.3899 40.5138C81.8693 40.244 82.2421 39.864 82.5085 39.3739C82.7784 38.8803 82.9133 38.2997 82.9133 37.6321L83.3181 37.7173H80.0369V36.5455H84.1917V37.7173C84.1917 38.6158 83.9999 39.397 83.6164 40.0611C83.2365 40.7251 82.7109 41.2401 82.0397 41.6058C81.3721 41.968 80.6051 42.1491 79.7386 42.1491C78.7727 42.1491 77.924 41.9219 77.1924 41.4673C76.4644 41.0128 75.8963 40.3665 75.4879 39.5284C75.083 38.6903 74.8806 37.696 74.8806 36.5455C74.8806 35.6825 74.996 34.9066 75.2269 34.2177C75.4612 33.5252 75.7915 32.9357 76.2176 32.4492C76.6438 31.9627 77.148 31.5898 77.7304 31.3306C78.3128 31.0714 78.9538 30.9418 79.6534 30.9418C80.2286 30.9418 80.7649 31.0288 81.262 31.2028C81.7627 31.3732 82.2084 31.6165 82.599 31.9325C82.9932 32.245 83.3217 32.6197 83.5845 33.0565C83.8472 33.4897 84.0284 33.9709 84.1278 34.5H82.7642Z" fill="#1B1C25"/>
<path d="M4.6875 70H1.32102V59.0909H4.83665C5.89489 59.0909 6.80043 59.3093 7.55327 59.7461C8.30611 60.1793 8.88317 60.8026 9.28445 61.6158C9.68572 62.4254 9.88636 63.3949 9.88636 64.5241C9.88636 65.6605 9.68395 66.6388 9.27912 67.4592C8.87429 68.2759 8.2848 68.9045 7.51065 69.3448C6.73651 69.7816 5.79545 70 4.6875 70ZM2.64205 68.8281H4.60227C5.50426 68.8281 6.25178 68.6541 6.84482 68.3061C7.43786 67.9581 7.87997 67.4627 8.17116 66.82C8.46236 66.1772 8.60795 65.4119 8.60795 64.5241C8.60795 63.6435 8.46413 62.8853 8.17649 62.2496C7.88885 61.6104 7.45916 61.1204 6.88743 60.7795C6.3157 60.435 5.60369 60.2628 4.75142 60.2628H2.64205V68.8281ZM13.1523 70V59.0909H19.7361V60.2628H14.4733V63.9489H19.3952V65.1207H14.4733V68.8281H19.8213V70H13.1523ZM29.133 61.8182C29.0691 61.2784 28.8099 60.8594 28.3553 60.5611C27.9008 60.2628 27.3433 60.1136 26.6827 60.1136C26.1998 60.1136 25.7772 60.1918 25.415 60.348C25.0563 60.5043 24.7758 60.7191 24.5734 60.9925C24.3745 61.266 24.2751 61.5767 24.2751 61.9247C24.2751 62.2159 24.3443 62.4663 24.4828 62.6758C24.6249 62.8817 24.806 63.054 25.0261 63.1925C25.2463 63.3274 25.4771 63.4393 25.7186 63.5281C25.9601 63.6133 26.182 63.6825 26.3844 63.7358L27.4924 64.0341C27.7765 64.1087 28.0925 64.2116 28.4406 64.343C28.7921 64.4744 29.1277 64.6538 29.4473 64.881C29.7705 65.1048 30.0368 65.3924 30.2463 65.744C30.4558 66.0955 30.5606 66.527 30.5606 67.0384C30.5606 67.6278 30.4061 68.1605 30.0972 68.6364C29.7918 69.1122 29.3443 69.4904 28.7548 69.771C28.1689 70.0515 27.4569 70.1918 26.6188 70.1918C25.8376 70.1918 25.1611 70.0657 24.5893 69.8136C24.0212 69.5614 23.5737 69.2099 23.247 68.7589C22.9239 68.3079 22.741 67.7841 22.6984 67.1875H24.062C24.0975 67.5994 24.236 67.9403 24.4775 68.2102C24.7225 68.4766 25.0315 68.6754 25.4043 68.8068C25.7808 68.9347 26.1856 68.9986 26.6188 68.9986C27.1231 68.9986 27.5759 68.9169 27.9771 68.7536C28.3784 68.5866 28.6962 68.3558 28.9306 68.0611C29.165 67.7628 29.2822 67.4148 29.2822 67.017C29.2822 66.6548 29.181 66.3601 28.9786 66.1328C28.7761 65.9055 28.5098 65.7209 28.1795 65.5788C27.8493 65.4368 27.4924 65.3125 27.1089 65.206L25.7665 64.8224C24.9143 64.5774 24.2396 64.2276 23.7424 63.7731C23.2452 63.3185 22.9967 62.7237 22.9967 61.9886C22.9967 61.3778 23.1618 60.8452 23.492 60.3906C23.8259 59.9325 24.2733 59.5774 24.8344 59.3253C25.399 59.0696 26.0293 58.9418 26.7254 58.9418C27.4285 58.9418 28.0535 59.0678 28.6004 59.32C29.1472 59.5685 29.5805 59.9094 29.9001 60.3427C30.2232 60.7759 30.3937 61.2678 30.4114 61.8182H29.133ZM35.1036 59.0909V70H33.7825V59.0909H35.1036ZM46.2597 62.5C46.1425 62.1413 45.988 61.82 45.7962 61.5359C45.608 61.2482 45.3825 61.0032 45.1197 60.8008C44.8605 60.5984 44.5658 60.4439 44.2355 60.3374C43.9053 60.2308 43.543 60.1776 43.1489 60.1776C42.5026 60.1776 41.9148 60.3445 41.3857 60.6783C40.8566 61.0121 40.4358 61.5039 40.1233 62.1538C39.8108 62.8036 39.6545 63.6009 39.6545 64.5455C39.6545 65.4901 39.8126 66.2873 40.1286 66.9371C40.4447 67.587 40.8726 68.0788 41.4124 68.4126C41.9521 68.7464 42.5594 68.9134 43.2341 68.9134C43.8591 68.9134 44.4095 68.7802 44.8854 68.5138C45.3648 68.244 45.7376 67.864 46.004 67.3739C46.2739 66.8803 46.4088 66.2997 46.4088 65.6321L46.8136 65.7173H43.5324V64.5455H47.6872V65.7173C47.6872 66.6158 47.4955 67.397 47.1119 68.0611C46.732 68.7251 46.2064 69.2401 45.5352 69.6058C44.8676 69.968 44.1006 70.1491 43.2341 70.1491C42.2682 70.1491 41.4195 69.9219 40.6879 69.4673C39.9599 69.0128 39.3918 68.3665 38.9834 67.5284C38.5786 66.6903 38.3761 65.696 38.3761 64.5455C38.3761 63.6825 38.4915 62.9066 38.7224 62.2177C38.9567 61.5252 39.287 60.9357 39.7131 60.4492C40.1393 59.9627 40.6435 59.5898 41.2259 59.3306C41.8083 59.0714 42.4493 58.9418 43.1489 58.9418C43.7241 58.9418 44.2604 59.0288 44.7575 59.2028C45.2582 59.3732 45.7039 59.6165 46.0945 59.9325C46.4887 60.245 46.8172 60.6197 47.08 61.0565C47.3428 61.4897 47.5239 61.9709 47.6233 62.5H46.2597ZM59.6503 59.0909V70H58.3719L52.4273 61.4347H52.3208V70H50.9997V59.0909H52.2781L58.2441 67.6776H58.3506V59.0909H59.6503Z" fill="#1B1C25"/>
<path d="M1.32102 98V87.0909H5.0071C5.86293 87.0909 6.5625 87.2454 7.10582 87.5543C7.6527 87.8597 8.05753 88.2734 8.32031 88.7955C8.5831 89.3175 8.71449 89.8999 8.71449 90.5426C8.71449 91.1854 8.5831 91.7695 8.32031 92.2951C8.06108 92.8207 7.6598 93.2397 7.11648 93.5522C6.57315 93.8612 5.87713 94.0156 5.02841 94.0156H2.38636V92.8438H4.9858C5.57173 92.8438 6.04226 92.7425 6.39737 92.5401C6.75249 92.3377 7.00994 92.0643 7.16974 91.7198C7.3331 91.3718 7.41477 90.9794 7.41477 90.5426C7.41477 90.1058 7.3331 89.7152 7.16974 89.3707C7.00994 89.0263 6.75071 88.7564 6.39205 88.5611C6.03338 88.3622 5.55753 88.2628 4.96449 88.2628H2.64205V98H1.32102ZM19.0516 87.0909H20.3726V94.3139C20.3726 95.0597 20.1968 95.7255 19.8453 96.3114C19.4973 96.8938 19.0054 97.3537 18.3698 97.6911C17.7341 98.0249 16.9884 98.1918 16.1326 98.1918C15.2767 98.1918 14.531 98.0249 13.8953 97.6911C13.2597 97.3537 12.7661 96.8938 12.4145 96.3114C12.0665 95.7255 11.8925 95.0597 11.8925 94.3139V87.0909H13.2135V94.2074C13.2135 94.7401 13.3307 95.2141 13.5651 95.6296C13.7995 96.0415 14.1333 96.3665 14.5665 96.6044C15.0033 96.8388 15.5253 96.956 16.1326 96.956C16.7398 96.956 17.2618 96.8388 17.6986 96.6044C18.1354 96.3665 18.4692 96.0415 18.7 95.6296C18.9344 95.2141 19.0516 94.7401 19.0516 94.2074V87.0909ZM24.0607 98V87.0909H27.8746C28.6345 87.0909 29.2613 87.2223 29.7549 87.4851C30.2485 87.7443 30.6161 88.0941 30.8575 88.5344C31.099 88.9712 31.2198 89.456 31.2198 89.9886C31.2198 90.4574 31.1363 90.8445 30.9694 91.1499C30.8061 91.4553 30.5894 91.6967 30.3196 91.8743C30.0532 92.0518 29.7638 92.1832 29.4513 92.2685V92.375C29.7851 92.3963 30.1207 92.5135 30.458 92.7266C30.7954 92.9396 31.0777 93.245 31.305 93.6428C31.5323 94.0405 31.6459 94.527 31.6459 95.1023C31.6459 95.6491 31.5216 96.141 31.273 96.5778C31.0245 97.0146 30.632 97.3608 30.0958 97.6165C29.5596 97.8722 28.8618 98 28.0024 98H24.0607ZM25.3817 96.8281H28.0024C28.8654 96.8281 29.4779 96.6612 29.8401 96.3274C30.2059 95.9901 30.3888 95.5817 30.3888 95.1023C30.3888 94.733 30.2947 94.392 30.1065 94.0795C29.9183 93.7635 29.6502 93.5114 29.3021 93.3232C28.9541 93.1314 28.5422 93.0355 28.0664 93.0355H25.3817V96.8281ZM25.3817 91.8849H27.832C28.2297 91.8849 28.5884 91.8068 28.908 91.6506C29.2311 91.4943 29.4868 91.2741 29.675 90.9901C29.8668 90.706 29.9627 90.3722 29.9627 89.9886C29.9627 89.5092 29.7958 89.1026 29.462 88.7688C29.1281 88.4315 28.599 88.2628 27.8746 88.2628H25.3817V91.8849ZM34.8665 98V87.0909H36.1876V96.8281H41.2586V98H34.8665ZM45.6751 87.0909V98H44.354V87.0909H45.6751ZM55.3397 89.8182C55.2757 89.2784 55.0165 88.8594 54.562 88.5611C54.1074 88.2628 53.5499 88.1136 52.8894 88.1136C52.4064 88.1136 51.9838 88.1918 51.6216 88.348C51.263 88.5043 50.9824 88.7191 50.78 88.9925C50.5811 89.266 50.4817 89.5767 50.4817 89.9247C50.4817 90.2159 50.551 90.4663 50.6895 90.6758C50.8315 90.8817 51.0126 91.054 51.2328 91.1925C51.4529 91.3274 51.6838 91.4393 51.9252 91.5281C52.1667 91.6133 52.3887 91.6825 52.5911 91.7358L53.699 92.0341C53.9831 92.1087 54.2992 92.2116 54.6472 92.343C54.9988 92.4744 55.3343 92.6538 55.6539 92.881C55.9771 93.1048 56.2434 93.3924 56.4529 93.744C56.6625 94.0955 56.7672 94.527 56.7672 95.0384C56.7672 95.6278 56.6127 96.1605 56.3038 96.6364C55.9984 97.1122 55.551 97.4904 54.9615 97.771C54.3755 98.0515 53.6635 98.1918 52.8255 98.1918C52.0442 98.1918 51.3677 98.0657 50.796 97.8136C50.2278 97.5614 49.7804 97.2099 49.4537 96.7589C49.1305 96.3079 48.9476 95.7841 48.905 95.1875H50.2686C50.3042 95.5994 50.4426 95.9403 50.6841 96.2102C50.9292 96.4766 51.2381 96.6754 51.611 96.8068C51.9874 96.9347 52.3922 96.9986 52.8255 96.9986C53.3297 96.9986 53.7825 96.9169 54.1838 96.7536C54.585 96.5866 54.9029 96.3558 55.1373 96.0611C55.3716 95.7628 55.4888 95.4148 55.4888 95.017C55.4888 94.6548 55.3876 94.3601 55.1852 94.1328C54.9828 93.9055 54.7164 93.7209 54.3862 93.5788C54.0559 93.4368 53.699 93.3125 53.3155 93.206L51.9732 92.8224C51.1209 92.5774 50.4462 92.2276 49.949 91.7731C49.4519 91.3185 49.2033 90.7237 49.2033 89.9886C49.2033 89.3778 49.3684 88.8452 49.6987 88.3906C50.0325 87.9325 50.4799 87.5774 51.041 87.3253C51.6056 87.0696 52.236 86.9418 52.932 86.9418C53.6351 86.9418 54.2601 87.0678 54.807 87.32C55.3539 87.5685 55.7871 87.9094 56.1067 88.3427C56.4299 88.7759 56.6003 89.2678 56.6181 89.8182H55.3397ZM59.9892 98V87.0909H61.3102V91.9489H67.127V87.0909H68.448V98H67.127V93.1207H61.3102V98H59.9892ZM73.4637 87.0909V98H72.1427V87.0909H73.4637ZM85.813 87.0909V98H84.5346L78.59 89.4347H78.4835V98H77.1624V87.0909H78.4408L84.4067 95.6776H84.5133V87.0909H85.813ZM96.9638 90.5C96.8466 90.1413 96.6921 89.82 96.5003 89.5359C96.3121 89.2482 96.0866 89.0032 95.8238 88.8008C95.5646 88.5984 95.2699 88.4439 94.9396 88.3374C94.6094 88.2308 94.2471 88.1776 93.853 88.1776C93.2067 88.1776 92.6189 88.3445 92.0898 88.6783C91.5607 89.0121 91.1399 89.5039 90.8274 90.1538C90.5149 90.8036 90.3586 91.6009 90.3586 92.5455C90.3586 93.4901 90.5167 94.2873 90.8327 94.9371C91.1488 95.587 91.5767 96.0788 92.1165 96.4126C92.6562 96.7464 93.2635 96.9134 93.9382 96.9134C94.5632 96.9134 95.1136 96.7802 95.5895 96.5138C96.0689 96.244 96.4417 95.864 96.7081 95.3739C96.978 94.8803 97.1129 94.2997 97.1129 93.6321L97.5177 93.7173H94.2365V92.5455H98.3913V93.7173C98.3913 94.6158 98.1996 95.397 97.816 96.0611C97.4361 96.7251 96.9105 97.2401 96.2393 97.6058C95.5717 97.968 94.8047 98.1491 93.9382 98.1491C92.9723 98.1491 92.1236 97.9219 91.392 97.4673C90.664 97.0128 90.0959 96.3665 89.6875 95.5284C89.2826 94.6903 89.0802 93.696 89.0802 92.5455C89.0802 91.6825 89.1956 90.9066 89.4265 90.2177C89.6608 89.5252 89.9911 88.9357 90.4172 88.4492C90.8434 87.9627 91.3476 87.5898 91.93 87.3306C92.5124 87.0714 93.1534 86.9418 93.853 86.9418C94.4282 86.9418 94.9645 87.0288 95.4616 87.2028C95.9623 87.3732 96.408 87.6165 96.7986 87.9325C97.1928 88.245 97.5213 88.6197 97.7841 89.0565C98.0469 89.4897 98.228 89.9709 98.3274 90.5H96.9638Z" fill="#1B1C25"/>
<path d="M126.129 14V13.0412L129.73 9.09943C130.153 8.63778 130.501 8.23651 130.774 7.8956C131.048 7.55114 131.25 7.22798 131.381 6.92614C131.516 6.62074 131.584 6.30114 131.584 5.96733C131.584 5.58381 131.491 5.25178 131.307 4.97124C131.126 4.6907 130.877 4.47408 130.561 4.32138C130.245 4.16868 129.89 4.09233 129.496 4.09233C129.077 4.09233 128.711 4.17933 128.398 4.35334C128.089 4.52379 127.85 4.76349 127.679 5.07244C127.512 5.38139 127.429 5.74361 127.429 6.15909H126.172C126.172 5.51989 126.319 4.95881 126.614 4.47585C126.909 3.9929 127.31 3.61648 127.818 3.34659C128.329 3.0767 128.903 2.94176 129.538 2.94176C130.178 2.94176 130.744 3.0767 131.238 3.34659C131.731 3.61648 132.118 3.98047 132.399 4.43857C132.679 4.89666 132.82 5.40625 132.82 5.96733C132.82 6.36861 132.747 6.76101 132.601 7.14453C132.459 7.5245 132.211 7.94886 131.855 8.41761C131.504 8.88281 131.016 9.45099 130.391 10.1222L127.94 12.7429V12.8281H133.011V14H126.129ZM136.261 14V13.0412L139.862 9.09943C140.285 8.63778 140.633 8.23651 140.906 7.8956C141.18 7.55114 141.382 7.22798 141.513 6.92614C141.648 6.62074 141.716 6.30114 141.716 5.96733C141.716 5.58381 141.624 5.25178 141.439 4.97124C141.258 4.6907 141.009 4.47408 140.693 4.32138C140.377 4.16868 140.022 4.09233 139.628 4.09233C139.209 4.09233 138.843 4.17933 138.53 4.35334C138.222 4.52379 137.982 4.76349 137.811 5.07244C137.644 5.38139 137.561 5.74361 137.561 6.15909H136.304C136.304 5.51989 136.451 4.95881 136.746 4.47585C137.041 3.9929 137.442 3.61648 137.95 3.34659C138.461 3.0767 139.035 2.94176 139.67 2.94176C140.31 2.94176 140.876 3.0767 141.37 3.34659C141.863 3.61648 142.25 3.98047 142.531 4.43857C142.811 4.89666 142.952 5.40625 142.952 5.96733C142.952 6.36861 142.879 6.76101 142.733 7.14453C142.591 7.5245 142.343 7.94886 141.988 8.41761C141.636 8.88281 141.148 9.45099 140.523 10.1222L138.072 12.7429V12.8281H143.143V14H136.261ZM147.331 14.0852C147.068 14.0852 146.843 13.9911 146.654 13.8029C146.466 13.6147 146.372 13.3892 146.372 13.1264C146.372 12.8636 146.466 12.6381 146.654 12.4499C146.843 12.2617 147.068 12.1676 147.331 12.1676C147.594 12.1676 147.819 12.2617 148.007 12.4499C148.196 12.6381 148.29 12.8636 148.29 13.1264C148.29 13.3004 148.245 13.4602 148.156 13.6058C148.071 13.7514 147.956 13.8686 147.81 13.9574C147.668 14.0426 147.508 14.0852 147.331 14.0852ZM154.752 14.1491C153.949 14.1491 153.265 13.9308 152.701 13.494C152.136 13.0536 151.705 12.4162 151.406 11.5817C151.108 10.7436 150.959 9.73153 150.959 8.54545C150.959 7.36648 151.108 6.35973 151.406 5.52521C151.708 4.68714 152.141 4.04794 152.706 3.6076C153.274 3.16371 153.956 2.94176 154.752 2.94176C155.547 2.94176 156.227 3.16371 156.792 3.6076C157.36 4.04794 157.793 4.68714 158.091 5.52521C158.393 6.35973 158.544 7.36648 158.544 8.54545C158.544 9.73153 158.395 10.7436 158.097 11.5817C157.798 12.4162 157.367 13.0536 156.802 13.494C156.238 13.9308 155.554 14.1491 154.752 14.1491ZM154.752 12.9773C155.547 12.9773 156.165 12.5937 156.605 11.8267C157.046 11.0597 157.266 9.96591 157.266 8.54545C157.266 7.60085 157.165 6.79652 156.962 6.13246C156.763 5.46839 156.476 4.96236 156.099 4.61435C155.726 4.26634 155.277 4.09233 154.752 4.09233C153.963 4.09233 153.347 4.48118 152.903 5.25888C152.459 6.03303 152.237 7.12855 152.237 8.54545C152.237 9.49006 152.337 10.2926 152.536 10.9531C152.735 11.6136 153.02 12.1161 153.393 12.4606C153.77 12.805 154.222 12.9773 154.752 12.9773ZM165.027 14.1491C164.402 14.1491 163.84 14.0249 163.339 13.7763C162.838 13.5277 162.437 13.1868 162.135 12.7536C161.833 12.3203 161.668 11.8267 161.64 11.2727H162.918C162.968 11.7663 163.191 12.1747 163.589 12.4979C163.99 12.8175 164.47 12.9773 165.027 12.9773C165.475 12.9773 165.873 12.8725 166.221 12.663C166.572 12.4535 166.847 12.1658 167.046 11.8001C167.249 11.4308 167.35 11.0135 167.35 10.5483C167.35 10.0724 167.245 9.64808 167.036 9.27521C166.83 8.89879 166.546 8.60227 166.183 8.38565C165.821 8.16903 165.407 8.05895 164.942 8.0554C164.608 8.05185 164.266 8.10334 163.914 8.20987C163.563 8.31285 163.273 8.44602 163.046 8.60938L161.81 8.46023L162.471 3.09091H168.138V4.26278H163.579L163.195 7.48011H163.259C163.483 7.30256 163.763 7.15518 164.101 7.038C164.438 6.92081 164.789 6.86222 165.155 6.86222C165.823 6.86222 166.418 7.02202 166.94 7.34162C167.465 7.65767 167.877 8.09091 168.175 8.64133C168.477 9.19176 168.628 9.82031 168.628 10.527C168.628 11.223 168.472 11.8445 168.16 12.3913C167.851 12.9347 167.424 13.3643 166.881 13.6804C166.338 13.9929 165.72 14.1491 165.027 14.1491ZM172.322 14.0852C172.059 14.0852 171.833 13.9911 171.645 13.8029C171.457 13.6147 171.363 13.3892 171.363 13.1264C171.363 12.8636 171.457 12.6381 171.645 12.4499C171.833 12.2617 172.059 12.1676 172.322 12.1676C172.584 12.1676 172.81 12.2617 172.998 12.4499C173.186 12.6381 173.28 12.8636 173.28 13.1264C173.28 13.3004 173.236 13.4602 173.147 13.6058C173.062 13.7514 172.947 13.8686 172.801 13.9574C172.659 14.0426 172.499 14.0852 172.322 14.0852ZM179.097 3.09091V14H177.775V4.47585H177.712L175.048 6.24432V4.90199L177.775 3.09091H179.097ZM183.028 11.7628V10.6761L187.822 3.09091H188.611V4.77415H188.078L184.456 10.5057V10.5909H190.912V11.7628H183.028ZM188.163 14V11.4325V10.9265V3.09091H189.42V14H188.163ZM194.383 14.0852C194.12 14.0852 193.894 13.9911 193.706 13.8029C193.518 13.6147 193.424 13.3892 193.424 13.1264C193.424 12.8636 193.518 12.6381 193.706 12.4499C193.894 12.2617 194.12 12.1676 194.383 12.1676C194.646 12.1676 194.871 12.2617 195.059 12.4499C195.247 12.6381 195.342 12.8636 195.342 13.1264C195.342 13.3004 195.297 13.4602 195.208 13.6058C195.123 13.7514 195.008 13.8686 194.862 13.9574C194.72 14.0426 194.56 14.0852 194.383 14.0852ZM198.733 10.7614C198.722 10.1719 198.818 9.6978 199.02 9.33913C199.223 8.98047 199.486 8.71946 199.809 8.55611C200.135 8.39276 200.48 8.31108 200.842 8.31108C201.204 8.31108 201.535 8.39098 201.833 8.55078C202.135 8.70703 202.479 8.95384 202.866 9.29119C203.129 9.51847 203.338 9.67827 203.495 9.7706C203.655 9.86293 203.829 9.90909 204.017 9.90909C204.322 9.90909 204.564 9.79901 204.741 9.57884C204.919 9.35511 205.004 9.03196 204.997 8.60938H206.147C206.158 9.19886 206.062 9.67294 205.86 10.0316C205.661 10.3903 205.398 10.6513 205.071 10.8146C204.745 10.978 204.4 11.0597 204.038 11.0597C203.676 11.0597 203.346 10.9815 203.047 10.8253C202.749 10.6655 202.405 10.4169 202.014 10.0795C201.755 9.85227 201.545 9.69247 201.385 9.60014C201.226 9.50781 201.052 9.46165 200.863 9.46165C200.576 9.46165 200.338 9.56286 200.15 9.76527C199.965 9.96413 199.876 10.2962 199.883 10.7614H198.733ZM209.051 14V13.0412L212.652 9.09943C213.075 8.63778 213.423 8.23651 213.696 7.8956C213.969 7.55114 214.172 7.22798 214.303 6.92614C214.438 6.62074 214.506 6.30114 214.506 5.96733C214.506 5.58381 214.413 5.25178 214.229 4.97124C214.048 4.6907 213.799 4.47408 213.483 4.32138C213.167 4.16868 212.812 4.09233 212.418 4.09233C211.999 4.09233 211.633 4.17933 211.32 4.35334C211.011 4.52379 210.772 4.76349 210.601 5.07244C210.434 5.38139 210.351 5.74361 210.351 6.15909H209.094C209.094 5.51989 209.241 4.95881 209.536 4.47585C209.831 3.9929 210.232 3.61648 210.74 3.34659C211.251 3.0767 211.825 2.94176 212.46 2.94176C213.099 2.94176 213.666 3.0767 214.159 3.34659C214.653 3.61648 215.04 3.98047 215.321 4.43857C215.601 4.89666 215.741 5.40625 215.741 5.96733C215.741 6.36861 215.669 6.76101 215.523 7.14453C215.381 7.5245 215.132 7.94886 214.777 8.41761C214.426 8.88281 213.938 9.45099 213.312 10.1222L210.862 12.7429V12.8281H215.933V14H209.051ZM219.183 14V13.0412L222.784 9.09943C223.207 8.63778 223.555 8.23651 223.828 7.8956C224.101 7.55114 224.304 7.22798 224.435 6.92614C224.57 6.62074 224.638 6.30114 224.638 5.96733C224.638 5.58381 224.545 5.25178 224.361 4.97124C224.18 4.6907 223.931 4.47408 223.615 4.32138C223.299 4.16868 222.944 4.09233 222.55 4.09233C222.131 4.09233 221.765 4.17933 221.452 4.35334C221.143 4.52379 220.904 4.76349 220.733 5.07244C220.566 5.38139 220.483 5.74361 220.483 6.15909H219.226C219.226 5.51989 219.373 4.95881 219.668 4.47585C219.963 3.9929 220.364 3.61648 220.872 3.34659C221.383 3.0767 221.957 2.94176 222.592 2.94176C223.231 2.94176 223.798 3.0767 224.291 3.34659C224.785 3.61648 225.172 3.98047 225.453 4.43857C225.733 4.89666 225.874 5.40625 225.874 5.96733C225.874 6.36861 225.801 6.76101 225.655 7.14453C225.513 7.5245 225.264 7.94886 224.909 8.41761C224.558 8.88281 224.07 9.45099 223.445 10.1222L220.994 12.7429V12.8281H226.065V14H219.183ZM230.253 14.0852C229.99 14.0852 229.764 13.9911 229.576 13.8029C229.388 13.6147 229.294 13.3892 229.294 13.1264C229.294 12.8636 229.388 12.6381 229.576 12.4499C229.764 12.2617 229.99 12.1676 230.253 12.1676C230.515 12.1676 230.741 12.2617 230.929 12.4499C231.117 12.6381 231.212 12.8636 231.212 13.1264C231.212 13.3004 231.167 13.4602 231.078 13.6058C230.993 13.7514 230.878 13.8686 230.732 13.9574C230.59 14.0426 230.43 14.0852 230.253 14.0852ZM237.673 14.1491C236.871 14.1491 236.187 13.9308 235.623 13.494C235.058 13.0536 234.627 12.4162 234.328 11.5817C234.03 10.7436 233.881 9.73153 233.881 8.54545C233.881 7.36648 234.03 6.35973 234.328 5.52521C234.63 4.68714 235.063 4.04794 235.628 3.6076C236.196 3.16371 236.878 2.94176 237.673 2.94176C238.469 2.94176 239.149 3.16371 239.714 3.6076C240.282 4.04794 240.715 4.68714 241.013 5.52521C241.315 6.35973 241.466 7.36648 241.466 8.54545C241.466 9.73153 241.317 10.7436 241.019 11.5817C240.72 12.4162 240.289 13.0536 239.724 13.494C239.16 13.9308 238.476 14.1491 237.673 14.1491ZM237.673 12.9773C238.469 12.9773 239.087 12.5937 239.527 11.8267C239.967 11.0597 240.188 9.96591 240.188 8.54545C240.188 7.60085 240.086 6.79652 239.884 6.13246C239.685 5.46839 239.398 4.96236 239.021 4.61435C238.648 4.26634 238.199 4.09233 237.673 4.09233C236.885 4.09233 236.269 4.48118 235.825 5.25888C235.381 6.03303 235.159 7.12855 235.159 8.54545C235.159 9.49006 235.259 10.2926 235.458 10.9531C235.656 11.6136 235.942 12.1161 236.315 12.4606C236.692 12.805 237.144 12.9773 237.673 12.9773ZM248.162 14.1491C247.715 14.142 247.267 14.0568 246.82 13.8935C246.373 13.7301 245.964 13.4549 245.595 13.0678C245.226 12.6772 244.929 12.1499 244.705 11.4858C244.482 10.8182 244.37 9.98011 244.37 8.97159C244.37 8.00568 244.46 7.14986 244.641 6.40412C244.823 5.65483 245.085 5.0245 245.43 4.51314C245.774 3.99822 246.19 3.6076 246.676 3.34126C247.166 3.07493 247.718 2.94176 248.333 2.94176C248.944 2.94176 249.487 3.06428 249.963 3.3093C250.442 3.55078 250.833 3.88814 251.135 4.32138C251.437 4.75462 251.632 5.25355 251.721 5.81818H250.421C250.3 5.32812 250.066 4.92152 249.718 4.59837C249.37 4.27521 248.908 4.11364 248.333 4.11364C247.488 4.11364 246.822 4.48118 246.335 5.21626C245.852 5.95135 245.609 6.98295 245.606 8.31108H245.691C245.89 8.00923 246.126 7.75178 246.399 7.53871C246.676 7.32209 246.982 7.15518 247.315 7.038C247.649 6.92081 248.003 6.86222 248.375 6.86222C249 6.86222 249.572 7.01847 250.091 7.33097C250.609 7.63991 251.025 8.06783 251.337 8.6147C251.65 9.15803 251.806 9.78125 251.806 10.4844C251.806 11.1591 251.655 11.777 251.353 12.3381C251.051 12.8956 250.627 13.3395 250.08 13.6697C249.537 13.9964 248.897 14.1562 248.162 14.1491ZM248.162 12.9773C248.61 12.9773 249.011 12.8654 249.366 12.6417C249.725 12.418 250.007 12.1179 250.213 11.7415C250.423 11.3651 250.527 10.946 250.527 10.4844C250.527 10.0334 250.426 9.62322 250.224 9.25391C250.025 8.88104 249.75 8.58452 249.398 8.36435C249.05 8.14418 248.652 8.03409 248.205 8.03409C247.868 8.03409 247.553 8.10156 247.262 8.23651C246.971 8.3679 246.715 8.54901 246.495 8.77983C246.278 9.01065 246.108 9.27521 245.984 9.57351C245.859 9.86825 245.797 10.179 245.797 10.5057C245.797 10.9389 245.899 11.3437 246.101 11.7202C246.307 12.0966 246.587 12.4002 246.943 12.631C247.301 12.8619 247.708 12.9773 248.162 12.9773ZM255.375 14.0852C255.113 14.0852 254.887 13.9911 254.699 13.8029C254.511 13.6147 254.417 13.3892 254.417 13.1264C254.417 12.8636 254.511 12.6381 254.699 12.4499C254.887 12.2617 255.113 12.1676 255.375 12.1676C255.638 12.1676 255.864 12.2617 256.052 12.4499C256.24 12.6381 256.334 12.8636 256.334 13.1264C256.334 13.3004 256.29 13.4602 256.201 13.6058C256.116 13.7514 256 13.8686 255.855 13.9574C255.713 14.0426 255.553 14.0852 255.375 14.0852ZM262.796 14.1491C261.994 14.1491 261.31 13.9308 260.745 13.494C260.181 13.0536 259.749 12.4162 259.451 11.5817C259.153 10.7436 259.003 9.73153 259.003 8.54545C259.003 7.36648 259.153 6.35973 259.451 5.52521C259.753 4.68714 260.186 4.04794 260.751 3.6076C261.319 3.16371 262.001 2.94176 262.796 2.94176C263.592 2.94176 264.272 3.16371 264.836 3.6076C265.404 4.04794 265.838 4.68714 266.136 5.52521C266.438 6.35973 266.589 7.36648 266.589 8.54545C266.589 9.73153 266.44 10.7436 266.141 11.5817C265.843 12.4162 265.412 13.0536 264.847 13.494C264.282 13.9308 263.599 14.1491 262.796 14.1491ZM262.796 12.9773C263.592 12.9773 264.209 12.5937 264.65 11.8267C265.09 11.0597 265.31 9.96591 265.31 8.54545C265.31 7.60085 265.209 6.79652 265.007 6.13246C264.808 5.46839 264.52 4.96236 264.144 4.61435C263.771 4.26634 263.322 4.09233 262.796 4.09233C262.008 4.09233 261.392 4.48118 260.948 5.25888C260.504 6.03303 260.282 7.12855 260.282 8.54545C260.282 9.49006 260.381 10.2926 260.58 10.9531C260.779 11.6136 261.065 12.1161 261.438 12.4606C261.814 12.805 262.267 12.9773 262.796 12.9773ZM273.157 14.1491C272.426 14.1491 271.779 14.0195 271.218 13.7603C270.661 13.4975 270.226 13.1371 269.913 12.679C269.601 12.2173 269.446 11.6918 269.45 11.1023C269.446 10.6406 269.537 10.2145 269.721 9.82386C269.906 9.42969 270.158 9.10121 270.478 8.83842C270.801 8.57209 271.161 8.40341 271.559 8.33239V8.26847C271.037 8.13352 270.622 7.84055 270.313 7.38956C270.004 6.93501 269.851 6.41832 269.855 5.83949C269.851 5.28551 269.991 4.79013 270.275 4.35334C270.56 3.91655 270.95 3.57209 271.447 3.31996C271.948 3.06783 272.518 2.94176 273.157 2.94176C273.789 2.94176 274.354 3.06783 274.851 3.31996C275.348 3.57209 275.739 3.91655 276.023 4.35334C276.311 4.79013 276.456 5.28551 276.46 5.83949C276.456 6.41832 276.298 6.93501 275.986 7.38956C275.677 7.84055 275.267 8.13352 274.755 8.26847V8.33239C275.149 8.40341 275.504 8.57209 275.821 8.83842C276.137 9.10121 276.389 9.42969 276.577 9.82386C276.765 10.2145 276.861 10.6406 276.865 11.1023C276.861 11.6918 276.701 12.2173 276.385 12.679C276.073 13.1371 275.638 13.4975 275.08 13.7603C274.526 14.0195 273.885 14.1491 273.157 14.1491ZM273.157 12.9773C273.651 12.9773 274.077 12.8974 274.436 12.7376C274.794 12.5778 275.071 12.3523 275.267 12.0611C275.462 11.7699 275.561 11.429 275.565 11.0384C275.561 10.6264 275.455 10.2624 275.245 9.94638C275.036 9.63033 274.75 9.38175 274.388 9.20064C274.029 9.01953 273.619 8.92898 273.157 8.92898C272.692 8.92898 272.276 9.01953 271.911 9.20064C271.549 9.38175 271.263 9.63033 271.053 9.94638C270.847 10.2624 270.746 10.6264 270.75 11.0384C270.746 11.429 270.84 11.7699 271.032 12.0611C271.227 12.3523 271.506 12.5778 271.868 12.7376C272.23 12.8974 272.66 12.9773 273.157 12.9773ZM273.157 7.79972C273.548 7.79972 273.894 7.72159 274.196 7.56534C274.501 7.40909 274.741 7.1907 274.915 6.91016C275.089 6.62962 275.178 6.30114 275.181 5.92472C275.178 5.5554 275.091 5.23402 274.92 4.96058C274.75 4.68359 274.514 4.47053 274.212 4.32138C273.91 4.16868 273.558 4.09233 273.157 4.09233C272.749 4.09233 272.392 4.16868 272.087 4.32138C271.781 4.47053 271.545 4.68359 271.378 4.96058C271.211 5.23402 271.129 5.5554 271.133 5.92472C271.129 6.30114 271.213 6.62962 271.383 6.91016C271.557 7.1907 271.797 7.40909 272.102 7.56534C272.408 7.72159 272.759 7.79972 273.157 7.79972ZM280.557 14.0852C280.294 14.0852 280.068 13.9911 279.88 13.8029C279.692 13.6147 279.598 13.3892 279.598 13.1264C279.598 12.8636 279.692 12.6381 279.88 12.4499C280.068 12.2617 280.294 12.1676 280.557 12.1676C280.819 12.1676 281.045 12.2617 281.233 12.4499C281.421 12.6381 281.515 12.8636 281.515 13.1264C281.515 13.3004 281.471 13.4602 281.382 13.6058C281.297 13.7514 281.182 13.8686 281.036 13.9574C280.894 14.0426 280.734 14.0852 280.557 14.0852Z" fill="#1B1C25"/>
<path d="M126.321 42V31.0909H132.862V32.2628H127.642V35.9489H132.372V37.1207H127.642V42H126.321ZM137.496 31.0909V42H136.175V31.0909H137.496ZM148.652 34.5C148.535 34.1413 148.38 33.82 148.188 33.5359C148 33.2482 147.775 33.0032 147.512 32.8008C147.253 32.5984 146.958 32.4439 146.628 32.3374C146.297 32.2308 145.935 32.1776 145.541 32.1776C144.895 32.1776 144.307 32.3445 143.778 32.6783C143.249 33.0121 142.828 33.5039 142.515 34.1538C142.203 34.8036 142.047 35.6009 142.047 36.5455C142.047 37.4901 142.205 38.2873 142.521 38.9371C142.837 39.587 143.265 40.0788 143.805 40.4126C144.344 40.7464 144.952 40.9134 145.626 40.9134C146.251 40.9134 146.802 40.7802 147.278 40.5138C147.757 40.244 148.13 39.864 148.396 39.3739C148.666 38.8803 148.801 38.2997 148.801 37.6321L149.206 37.7173H145.925V36.5455H150.079V37.7173C150.079 38.6158 149.888 39.397 149.504 40.0611C149.124 40.7251 148.599 41.2401 147.927 41.6058C147.26 41.968 146.493 42.1491 145.626 42.1491C144.66 42.1491 143.812 41.9219 143.08 41.4673C142.352 41.0128 141.784 40.3665 141.376 39.5284C140.971 38.6903 140.768 37.696 140.768 36.5455C140.768 35.6825 140.884 34.9066 141.115 34.2177C141.349 33.5252 141.679 32.9357 142.105 32.4492C142.531 31.9627 143.036 31.5898 143.618 31.3306C144.2 31.0714 144.841 30.9418 145.541 30.9418C146.116 30.9418 146.653 31.0288 147.15 31.2028C147.65 31.3732 148.096 31.6165 148.487 31.9325C148.881 32.245 149.209 32.6197 149.472 33.0565C149.735 33.4897 149.916 33.9709 150.015 34.5H148.652ZM153.392 31.0909H154.969L158.676 40.1463H158.804L162.511 31.0909H164.088V42H162.852V33.7116H162.746L159.337 42H158.143L154.734 33.7116H154.628V42H153.392V31.0909ZM168.234 42H166.849L170.855 31.0909H172.218L176.224 42H174.839L171.579 32.8168H171.494L168.234 42ZM168.745 37.7386H174.328V38.9105H168.745V37.7386Z" fill="#1B1C25"/>
<path d="M126.321 70V59.0909H132.862V60.2628H127.642V63.9489H132.372V65.1207H127.642V70H126.321ZM137.496 59.0909V70H136.175V59.0909H137.496ZM148.652 62.5C148.535 62.1413 148.38 61.82 148.188 61.5359C148 61.2482 147.775 61.0032 147.512 60.8008C147.253 60.5984 146.958 60.4439 146.628 60.3374C146.297 60.2308 145.935 60.1776 145.541 60.1776C144.895 60.1776 144.307 60.3445 143.778 60.6783C143.249 61.0121 142.828 61.5039 142.515 62.1538C142.203 62.8036 142.047 63.6009 142.047 64.5455C142.047 65.4901 142.205 66.2873 142.521 66.9371C142.837 67.587 143.265 68.0788 143.805 68.4126C144.344 68.7464 144.952 68.9134 145.626 68.9134C146.251 68.9134 146.802 68.7802 147.278 68.5138C147.757 68.244 148.13 67.864 148.396 67.3739C148.666 66.8803 148.801 66.2997 148.801 65.6321L149.206 65.7173H145.925V64.5455H150.079V65.7173C150.079 66.6158 149.888 67.397 149.504 68.0611C149.124 68.7251 148.599 69.2401 147.927 69.6058C147.26 69.968 146.493 70.1491 145.626 70.1491C144.66 70.1491 143.812 69.9219 143.08 69.4673C142.352 69.0128 141.784 68.3665 141.376 67.5284C140.971 66.6903 140.768 65.696 140.768 64.5455C140.768 63.6825 140.884 62.9066 141.115 62.2177C141.349 61.5252 141.679 60.9357 142.105 60.4492C142.531 59.9627 143.036 59.5898 143.618 59.3306C144.2 59.0714 144.841 58.9418 145.541 58.9418C146.116 58.9418 146.653 59.0288 147.15 59.2028C147.65 59.3732 148.096 59.6165 148.487 59.9325C148.881 60.245 149.209 60.6197 149.472 61.0565C149.735 61.4897 149.916 61.9709 150.015 62.5H148.652ZM153.392 59.0909H154.969L158.676 68.1463H158.804L162.511 59.0909H164.088V70H162.852V61.7116H162.746L159.337 70H158.143L154.734 61.7116H154.628V70H153.392V59.0909ZM168.234 70H166.849L170.855 59.0909H172.218L176.224 70H174.839L171.579 60.8168H171.494L168.234 70ZM168.745 65.7386H174.328V66.9105H168.745V65.7386ZM180.678 68.5085L180.593 69.0838C180.532 69.4886 180.44 69.9219 180.316 70.3835C180.195 70.8452 180.069 71.2802 179.938 71.6886C179.806 72.0969 179.698 72.4219 179.613 72.6634H178.654C178.7 72.4361 178.76 72.136 178.835 71.7631C178.909 71.3903 178.984 70.973 179.059 70.5114C179.137 70.0533 179.201 69.5845 179.25 69.1051L179.314 68.5085H180.678ZM190.817 59.0909V70H189.496V59.0909H190.817ZM194.516 70V59.0909H195.837V68.8281H200.908V70H194.516ZM204.003 70V59.0909H205.324V68.8281H210.395V70H204.003ZM220.65 59.0909H221.971V66.3139C221.971 67.0597 221.795 67.7255 221.444 68.3114C221.096 68.8938 220.604 69.3537 219.968 69.6911C219.333 70.0249 218.587 70.1918 217.731 70.1918C216.875 70.1918 216.129 70.0249 215.494 69.6911C214.858 69.3537 214.365 68.8938 214.013 68.3114C213.665 67.7255 213.491 67.0597 213.491 66.3139V59.0909H214.812V66.2074C214.812 66.7401 214.929 67.2141 215.164 67.6296C215.398 68.0415 215.732 68.3665 216.165 68.6044C216.602 68.8388 217.124 68.956 217.731 68.956C218.338 68.956 218.86 68.8388 219.297 68.6044C219.734 68.3665 220.068 68.0415 220.298 67.6296C220.533 67.2141 220.65 66.7401 220.65 66.2074V59.0909ZM231.625 61.8182C231.561 61.2784 231.302 60.8594 230.847 60.5611C230.393 60.2628 229.835 60.1136 229.175 60.1136C228.692 60.1136 228.269 60.1918 227.907 60.348C227.548 60.5043 227.268 60.7191 227.065 60.9925C226.866 61.266 226.767 61.5767 226.767 61.9247C226.767 62.2159 226.836 62.4663 226.975 62.6758C227.117 62.8817 227.298 63.054 227.518 63.1925C227.738 63.3274 227.969 63.4393 228.211 63.5281C228.452 63.6133 228.674 63.6825 228.876 63.7358L229.984 64.0341C230.268 64.1087 230.585 64.2116 230.933 64.343C231.284 64.4744 231.62 64.6538 231.939 64.881C232.262 65.1048 232.529 65.3924 232.738 65.744C232.948 66.0955 233.053 66.527 233.053 67.0384C233.053 67.6278 232.898 68.1605 232.589 68.6364C232.284 69.1122 231.836 69.4904 231.247 69.771C230.661 70.0515 229.949 70.1918 229.111 70.1918C228.33 70.1918 227.653 70.0657 227.081 69.8136C226.513 69.5614 226.066 69.2099 225.739 68.7589C225.416 68.3079 225.233 67.7841 225.19 67.1875H226.554C226.59 67.5994 226.728 67.9403 226.969 68.2102C227.215 68.4766 227.523 68.6754 227.896 68.8068C228.273 68.9347 228.678 68.9986 229.111 68.9986C229.615 68.9986 230.068 68.9169 230.469 68.7536C230.87 68.5866 231.188 68.3558 231.423 68.0611C231.657 67.7628 231.774 67.4148 231.774 67.017C231.774 66.6548 231.673 66.3601 231.471 66.1328C231.268 65.9055 231.002 65.7209 230.672 65.5788C230.341 65.4368 229.984 65.3125 229.601 65.206L228.259 64.8224C227.406 64.5774 226.732 64.2276 226.234 63.7731C225.737 63.3185 225.489 62.7237 225.489 61.9886C225.489 61.3778 225.654 60.8452 225.984 60.3906C226.318 59.9325 226.765 59.5774 227.326 59.3253C227.891 59.0696 228.521 58.9418 229.217 58.9418C229.92 58.9418 230.545 59.0678 231.092 59.32C231.639 59.5685 232.072 59.9094 232.392 60.3427C232.715 60.7759 232.886 61.2678 232.903 61.8182H231.625ZM235.678 60.2628V59.0909H243.86V60.2628H240.429V70H239.108V60.2628H235.678ZM246.949 70V59.0909H250.635C251.487 59.0909 252.186 59.2365 252.733 59.5277C253.28 59.8153 253.685 60.2113 253.948 60.7156C254.211 61.2198 254.342 61.7933 254.342 62.4361C254.342 63.0788 254.211 63.6488 253.948 64.146C253.685 64.6431 253.282 65.0337 252.739 65.3178C252.195 65.5984 251.501 65.7386 250.656 65.7386H247.673V64.5455H250.613C251.196 64.5455 251.664 64.4602 252.02 64.2898C252.378 64.1193 252.637 63.8778 252.797 63.5653C252.961 63.2493 253.042 62.8729 253.042 62.4361C253.042 61.9993 252.961 61.6175 252.797 61.2908C252.634 60.9641 252.373 60.712 252.014 60.5344C251.656 60.3533 251.182 60.2628 250.592 60.2628H248.27V70H246.949ZM252.084 65.0994L254.768 70H253.234L250.592 65.0994H252.084ZM258.041 70H256.656L260.661 59.0909H262.025L266.031 70H264.646L261.386 60.8168H261.301L258.041 70ZM258.552 65.7386H264.134V66.9105H258.552V65.7386ZM266.909 60.2628V59.0909H275.091V60.2628H271.66V70H270.339V60.2628H266.909ZM286.93 64.5455C286.93 65.696 286.722 66.6903 286.307 67.5284C285.891 68.3665 285.321 69.0128 284.597 69.4673C283.873 69.9219 283.045 70.1491 282.115 70.1491C281.184 70.1491 280.357 69.9219 279.632 69.4673C278.908 69.0128 278.338 68.3665 277.923 67.5284C277.507 66.6903 277.299 65.696 277.299 64.5455C277.299 63.3949 277.507 62.4006 277.923 61.5625C278.338 60.7244 278.908 60.0781 279.632 59.6236C280.357 59.169 281.184 58.9418 282.115 58.9418C283.045 58.9418 283.873 59.169 284.597 59.6236C285.321 60.0781 285.891 60.7244 286.307 61.5625C286.722 62.4006 286.93 63.3949 286.93 64.5455ZM285.652 64.5455C285.652 63.6009 285.494 62.8036 285.178 62.1538C284.865 61.5039 284.441 61.0121 283.904 60.6783C283.372 60.3445 282.775 60.1776 282.115 60.1776C281.454 60.1776 280.856 60.3445 280.32 60.6783C279.787 61.0121 279.363 61.5039 279.047 62.1538C278.734 62.8036 278.578 63.6009 278.578 64.5455C278.578 65.4901 278.734 66.2873 279.047 66.9371C279.363 67.587 279.787 68.0788 280.32 68.4126C280.856 68.7464 281.454 68.9134 282.115 68.9134C282.775 68.9134 283.372 68.7464 283.904 68.4126C284.441 68.0788 284.865 67.587 285.178 66.9371C285.494 66.2873 285.652 65.4901 285.652 64.5455ZM290.201 70V59.0909H293.887C294.74 59.0909 295.439 59.2365 295.986 59.5277C296.533 59.8153 296.938 60.2113 297.201 60.7156C297.463 61.2198 297.595 61.7933 297.595 62.4361C297.595 63.0788 297.463 63.6488 297.201 64.146C296.938 64.6431 296.535 65.0337 295.991 65.3178C295.448 65.5984 294.754 65.7386 293.909 65.7386H290.926V64.5455H293.866C294.448 64.5455 294.917 64.4602 295.272 64.2898C295.631 64.1193 295.89 63.8778 296.05 63.5653C296.213 63.2493 296.295 62.8729 296.295 62.4361C296.295 61.9993 296.213 61.6175 296.05 61.2908C295.887 60.9641 295.626 60.712 295.267 60.5344C294.908 60.3533 294.434 60.2628 293.845 60.2628H291.522V70H290.201ZM295.336 65.0994L298.021 70H296.487L293.845 65.0994H295.336Z" fill="#1B1C25"/>
<path d="M126.768 87.0909L130.007 96.2741H130.135L133.374 87.0909H134.759L130.753 98H129.389L125.384 87.0909H126.768ZM138.829 87.0909V98H137.508V87.0909H138.829ZM148.493 89.8182C148.429 89.2784 148.17 88.8594 147.716 88.5611C147.261 88.2628 146.704 88.1136 146.043 88.1136C145.56 88.1136 145.138 88.1918 144.775 88.348C144.417 88.5043 144.136 88.7191 143.934 88.9925C143.735 89.266 143.635 89.5767 143.635 89.9247C143.635 90.2159 143.705 90.4663 143.843 90.6758C143.985 90.8817 144.166 91.054 144.386 91.1925C144.607 91.3274 144.837 91.4393 145.079 91.5281C145.32 91.6133 145.542 91.6825 145.745 91.7358L146.853 92.0341C147.137 92.1087 147.453 92.2116 147.801 92.343C148.152 92.4744 148.488 92.6538 148.808 92.881C149.131 93.1048 149.397 93.3924 149.607 93.744C149.816 94.0955 149.921 94.527 149.921 95.0384C149.921 95.6278 149.766 96.1605 149.458 96.6364C149.152 97.1122 148.705 97.4904 148.115 97.771C147.529 98.0515 146.817 98.1918 145.979 98.1918C145.198 98.1918 144.521 98.0657 143.95 97.8136C143.382 97.5614 142.934 97.2099 142.607 96.7589C142.284 96.3079 142.101 95.7841 142.059 95.1875H143.422C143.458 95.5994 143.596 95.9403 143.838 96.2102C144.083 96.4766 144.392 96.6754 144.765 96.8068C145.141 96.9347 145.546 96.9986 145.979 96.9986C146.483 96.9986 146.936 96.9169 147.337 96.7536C147.739 96.5866 148.057 96.3558 148.291 96.0611C148.525 95.7628 148.643 95.4148 148.643 95.017C148.643 94.6548 148.541 94.3601 148.339 94.1328C148.136 93.9055 147.87 93.7209 147.54 93.5788C147.21 93.4368 146.853 93.3125 146.469 93.206L145.127 92.8224C144.275 92.5774 143.6 92.2276 143.103 91.7731C142.606 91.3185 142.357 90.7237 142.357 89.9886C142.357 89.3778 142.522 88.8452 142.852 88.3906C143.186 87.9325 143.634 87.5774 144.195 87.3253C144.759 87.0696 145.39 86.9418 146.086 86.9418C146.789 86.9418 147.414 87.0678 147.961 87.32C148.508 87.5685 148.941 87.9094 149.26 88.3427C149.584 88.7759 149.754 89.2678 149.772 89.8182H148.493ZM160.302 87.0909H161.623V94.3139C161.623 95.0597 161.447 95.7255 161.096 96.3114C160.748 96.8938 160.256 97.3537 159.62 97.6911C158.985 98.0249 158.239 98.1918 157.383 98.1918C156.527 98.1918 155.781 98.0249 155.146 97.6911C154.51 97.3537 154.016 96.8938 153.665 96.3114C153.317 95.7255 153.143 95.0597 153.143 94.3139V87.0909H154.464V94.2074C154.464 94.7401 154.581 95.2141 154.815 95.6296C155.05 96.0415 155.384 96.3665 155.817 96.6044C156.254 96.8388 156.776 96.956 157.383 96.956C157.99 96.956 158.512 96.8388 158.949 96.6044C159.386 96.3665 159.72 96.0415 159.95 95.6296C160.185 95.2141 160.302 94.7401 160.302 94.2074V87.0909ZM165.759 98H164.374L168.379 87.0909H169.743L173.749 98H172.364L169.104 88.8168H169.018L165.759 98ZM166.27 93.7386H171.852V94.9105H166.27V93.7386ZM176.498 98V87.0909H177.819V96.8281H182.89V98H176.498ZM197.22 89.8182C197.156 89.2784 196.897 88.8594 196.442 88.5611C195.988 88.2628 195.43 88.1136 194.77 88.1136C194.287 88.1136 193.864 88.1918 193.502 88.348C193.143 88.5043 192.863 88.7191 192.66 88.9925C192.461 89.266 192.362 89.5767 192.362 89.9247C192.362 90.2159 192.431 90.4663 192.57 90.6758C192.712 90.8817 192.893 91.054 193.113 91.1925C193.333 91.3274 193.564 91.4393 193.806 91.5281C194.047 91.6133 194.269 91.6825 194.471 91.7358L195.579 92.0341C195.863 92.1087 196.179 92.2116 196.527 92.343C196.879 92.4744 197.215 92.6538 197.534 92.881C197.857 93.1048 198.124 93.3924 198.333 93.744C198.543 94.0955 198.647 94.527 198.647 95.0384C198.647 95.6278 198.493 96.1605 198.184 96.6364C197.879 97.1122 197.431 97.4904 196.842 97.771C196.256 98.0515 195.544 98.1918 194.706 98.1918C193.924 98.1918 193.248 98.0657 192.676 97.8136C192.108 97.5614 191.661 97.2099 191.334 96.7589C191.011 96.3079 190.828 95.7841 190.785 95.1875H192.149C192.184 95.5994 192.323 95.9403 192.564 96.2102C192.809 96.4766 193.118 96.6754 193.491 96.8068C193.868 96.9347 194.272 96.9986 194.706 96.9986C195.21 96.9986 195.663 96.9169 196.064 96.7536C196.465 96.5866 196.783 96.3558 197.018 96.0611C197.252 95.7628 197.369 95.4148 197.369 95.017C197.369 94.6548 197.268 94.3601 197.065 94.1328C196.863 93.9055 196.597 93.7209 196.266 93.5788C195.936 93.4368 195.579 93.3125 195.196 93.206L193.853 92.8224C193.001 92.5774 192.326 92.2276 191.829 91.7731C191.332 91.3185 191.084 90.7237 191.084 89.9886C191.084 89.3778 191.249 88.8452 191.579 88.3906C191.913 87.9325 192.36 87.5774 192.921 87.3253C193.486 87.0696 194.116 86.9418 194.812 86.9418C195.515 86.9418 196.14 87.0678 196.687 87.32C197.234 87.5685 197.667 87.9094 197.987 88.3427C198.31 88.7759 198.481 89.2678 198.498 89.8182H197.22ZM201.273 88.2628V87.0909H209.455V88.2628H206.024V98H204.703V88.2628H201.273ZM219.703 87.0909H221.024V94.3139C221.024 95.0597 220.848 95.7255 220.496 96.3114C220.148 96.8938 219.656 97.3537 219.021 97.6911C218.385 98.0249 217.639 98.1918 216.784 98.1918C215.928 98.1918 215.182 98.0249 214.546 97.6911C213.911 97.3537 213.417 96.8938 213.065 96.3114C212.717 95.7255 212.543 95.0597 212.543 94.3139V87.0909H213.865V94.2074C213.865 94.7401 213.982 95.2141 214.216 95.6296C214.45 96.0415 214.784 96.3665 215.217 96.6044C215.654 96.8388 216.176 96.956 216.784 96.956C217.391 96.956 217.913 96.8388 218.35 96.6044C218.786 96.3665 219.12 96.0415 219.351 95.6296C219.585 95.2141 219.703 94.7401 219.703 94.2074V87.0909ZM228.078 98H224.712V87.0909H228.227C229.286 87.0909 230.191 87.3093 230.944 87.7461C231.697 88.1793 232.274 88.8026 232.675 89.6158C233.076 90.4254 233.277 91.3949 233.277 92.5241C233.277 93.6605 233.075 94.6388 232.67 95.4592C232.265 96.2759 231.675 96.9045 230.901 97.3448C230.127 97.7816 229.186 98 228.078 98ZM226.033 96.8281H227.993C228.895 96.8281 229.642 96.6541 230.235 96.3061C230.828 95.9581 231.271 95.4627 231.562 94.82C231.853 94.1772 231.999 93.4119 231.999 92.5241C231.999 91.6435 231.855 90.8853 231.567 90.2496C231.279 89.6104 230.85 89.1204 230.278 88.7795C229.706 88.435 228.994 88.2628 228.142 88.2628H226.033V96.8281ZM237.864 87.0909V98H236.543V87.0909H237.864ZM250.767 92.5455C250.767 93.696 250.559 94.6903 250.144 95.5284C249.728 96.3665 249.159 97.0128 248.434 97.4673C247.71 97.9219 246.882 98.1491 245.952 98.1491C245.021 98.1491 244.194 97.9219 243.47 97.4673C242.745 97.0128 242.175 96.3665 241.76 95.5284C241.344 94.6903 241.136 93.696 241.136 92.5455C241.136 91.3949 241.344 90.4006 241.76 89.5625C242.175 88.7244 242.745 88.0781 243.47 87.6236C244.194 87.169 245.021 86.9418 245.952 86.9418C246.882 86.9418 247.71 87.169 248.434 87.6236C249.159 88.0781 249.728 88.7244 250.144 89.5625C250.559 90.4006 250.767 91.3949 250.767 92.5455ZM249.489 92.5455C249.489 91.6009 249.331 90.8036 249.015 90.1538C248.702 89.5039 248.278 89.0121 247.742 88.6783C247.209 88.3445 246.612 88.1776 245.952 88.1776C245.291 88.1776 244.693 88.3445 244.157 88.6783C243.624 89.0121 243.2 89.5039 242.884 90.1538C242.571 90.8036 242.415 91.6009 242.415 92.5455C242.415 93.4901 242.571 94.2873 242.884 94.9371C243.2 95.587 243.624 96.0788 244.157 96.4126C244.693 96.7464 245.291 96.9134 245.952 96.9134C246.612 96.9134 247.209 96.7464 247.742 96.4126C248.278 96.0788 248.702 95.587 249.015 94.9371C249.331 94.2873 249.489 93.4901 249.489 92.5455ZM268.086 90.5H266.765C266.686 90.12 266.55 89.7862 266.354 89.4986C266.163 89.2109 265.928 88.9695 265.651 88.7741C265.378 88.5753 265.074 88.4261 264.74 88.3267C264.407 88.2273 264.059 88.1776 263.696 88.1776C263.036 88.1776 262.437 88.3445 261.901 88.6783C261.369 89.0121 260.944 89.5039 260.628 90.1538C260.316 90.8036 260.159 91.6009 260.159 92.5455C260.159 93.4901 260.316 94.2873 260.628 94.9371C260.944 95.587 261.369 96.0788 261.901 96.4126C262.437 96.7464 263.036 96.9134 263.696 96.9134C264.059 96.9134 264.407 96.8636 264.74 96.7642C265.074 96.6648 265.378 96.5174 265.651 96.3221C265.928 96.1232 266.163 95.88 266.354 95.5923C266.55 95.3011 266.686 94.9673 266.765 94.5909H268.086C267.986 95.1484 267.805 95.6474 267.542 96.0877C267.279 96.5281 266.953 96.9027 266.562 97.2116C266.171 97.517 265.733 97.7496 265.246 97.9094C264.763 98.0692 264.247 98.1491 263.696 98.1491C262.766 98.1491 261.939 97.9219 261.214 97.4673C260.49 97.0128 259.92 96.3665 259.504 95.5284C259.089 94.6903 258.881 93.696 258.881 92.5455C258.881 91.3949 259.089 90.4006 259.504 89.5625C259.92 88.7244 260.49 88.0781 261.214 87.6236C261.939 87.169 262.766 86.9418 263.696 86.9418C264.247 86.9418 264.763 87.0217 265.246 87.1815C265.733 87.3413 266.171 87.5756 266.562 87.8846C266.953 88.19 267.279 88.5629 267.542 89.0032C267.805 89.44 267.986 89.9389 268.086 90.5ZM280.475 92.5455C280.475 93.696 280.267 94.6903 279.852 95.5284C279.436 96.3665 278.866 97.0128 278.142 97.4673C277.417 97.9219 276.59 98.1491 275.659 98.1491C274.729 98.1491 273.902 97.9219 273.177 97.4673C272.453 97.0128 271.883 96.3665 271.467 95.5284C271.052 94.6903 270.844 93.696 270.844 92.5455C270.844 91.3949 271.052 90.4006 271.467 89.5625C271.883 88.7244 272.453 88.0781 273.177 87.6236C273.902 87.169 274.729 86.9418 275.659 86.9418C276.59 86.9418 277.417 87.169 278.142 87.6236C278.866 88.0781 279.436 88.7244 279.852 89.5625C280.267 90.4006 280.475 91.3949 280.475 92.5455ZM279.196 92.5455C279.196 91.6009 279.038 90.8036 278.722 90.1538C278.41 89.5039 277.985 89.0121 277.449 88.6783C276.917 88.3445 276.32 88.1776 275.659 88.1776C274.999 88.1776 274.401 88.3445 273.864 88.6783C273.332 89.0121 272.907 89.5039 272.591 90.1538C272.279 90.8036 272.123 91.6009 272.123 92.5455C272.123 93.4901 272.279 94.2873 272.591 94.9371C272.907 95.587 273.332 96.0788 273.864 96.4126C274.401 96.7464 274.999 96.9134 275.659 96.9134C276.32 96.9134 276.917 96.7464 277.449 96.4126C277.985 96.0788 278.41 95.587 278.722 94.9371C279.038 94.2873 279.196 93.4901 279.196 92.5455ZM287.113 98H283.746V87.0909H287.262C288.32 87.0909 289.225 87.3093 289.978 87.7461C290.731 88.1793 291.308 88.8026 291.709 89.6158C292.111 90.4254 292.311 91.3949 292.311 92.5241C292.311 93.6605 292.109 94.6388 291.704 95.4592C291.299 96.2759 290.71 96.9045 289.936 97.3448C289.162 97.7816 288.22 98 287.113 98ZM285.067 96.8281H287.027C287.929 96.8281 288.677 96.6541 289.27 96.3061C289.863 95.9581 290.305 95.4627 290.596 94.82C290.887 94.1772 291.033 93.4119 291.033 92.5241C291.033 91.6435 290.889 90.8853 290.601 90.2496C290.314 89.6104 289.884 89.1204 289.312 88.7795C288.741 88.435 288.029 88.2628 287.176 88.2628H285.067V96.8281ZM295.577 98V87.0909H302.161V88.2628H296.898V91.9489H301.82V93.1207H296.898V96.8281H302.246V98H295.577Z" fill="#1B1C25"/>
</svg>
