<svg width="770" height="79" viewBox="0 0 770 79" fill="none" xmlns="http://www.w3.org/2000/svg">
<path d="M1.83 45.965L1.185 45.08C2.545 44.38 3.585 43.76 4.305 43.22C5.035 42.67 5.54 42.125 5.82 41.585C6.1 41.035 6.24 40.405 6.24 39.695V39.185H7.41V39.725C7.41 40.305 7.345 40.825 7.215 41.285C7.095 41.735 6.89 42.16 6.6 42.56L6.675 42.605L7.05 42.32C7.18 42.22 7.31 42.17 7.44 42.17C7.57 42.17 7.7 42.215 7.83 42.305L12.195 45.02L11.535 45.92L7.02 43.01C6.89 42.92 6.75 42.875 6.6 42.875C6.47 42.875 6.34 42.925 6.21 43.025C5.8 43.465 5.245 43.92 4.545 44.39C3.845 44.85 2.94 45.375 1.83 45.965ZM12.81 49.025V50H0.57V49.025H12.81ZM24.444 40.595V40.49H16.584V39.53H25.584V40.97C25.584 43.27 25.374 45.455 24.954 47.525L23.844 47.345C24.064 46.295 24.219 45.21 24.309 44.09L16.284 44.495L16.134 43.52L24.384 43.19C24.424 42.46 24.444 41.595 24.444 40.595ZM27.234 49.025V50H14.994V49.025H27.234ZM41.658 44.945V45.815H29.418V44.945H34.983V43.73H31.338V40.775H38.583V39.515H31.263V38.66H39.678V41.6H32.448V42.875H40.053V43.73H36.093V44.945H41.658ZM32.358 51.245H40.218V52.145H32.043C31.803 52.145 31.618 52.08 31.488 51.95C31.358 51.82 31.293 51.63 31.293 51.38V49.13H38.763V47.87H31.203V46.985H39.828V49.97H32.358V51.245ZM45.4621 40.865C45.4621 40.135 45.8371 39.555 46.5871 39.125C47.3371 38.685 48.4621 38.465 49.9621 38.465C51.4621 38.465 52.5871 38.685 53.3371 39.125C54.0871 39.555 54.4621 40.135 54.4621 40.865C54.4621 41.595 54.0871 42.18 53.3371 42.62C52.5871 43.06 51.4621 43.28 49.9621 43.28C48.4621 43.28 47.3371 43.06 46.5871 42.62C45.8371 42.18 45.4621 41.595 45.4621 40.865ZM53.2471 40.94V40.775C53.2471 40.345 52.9721 39.995 52.4221 39.725C51.8821 39.445 51.0621 39.305 49.9621 39.305C48.8621 39.305 48.0371 39.445 47.4871 39.725C46.9471 39.995 46.6771 40.345 46.6771 40.775V40.94C46.6771 41.37 46.9471 41.725 47.4871 42.005C48.0371 42.275 48.8621 42.41 49.9621 42.41C51.0621 42.41 51.8821 42.275 52.4221 42.005C52.9721 41.725 53.2471 41.37 53.2471 40.94ZM56.0821 44.315V45.275H43.8421V44.315H56.0821ZM45.7471 51.335V48.875H53.1421V47.465H45.6571V46.535H54.2371V49.745H46.8421V51.17H54.6271V52.1H46.4971C46.2571 52.1 46.0721 52.035 45.9421 51.905C45.8121 51.775 45.7471 51.585 45.7471 51.335ZM74.6651 38.465V51.485H73.5551V44.495H71.4251V51.125H70.3301V38.69H71.4251V43.55H73.5551V38.465H74.6651ZM69.3851 46.505L69.5351 47.435C68.3051 47.735 66.7901 47.885 64.9901 47.885H63.7301V39.785H64.8251V46.94H65.2601C66.0401 46.94 66.7851 46.905 67.4951 46.835C68.2151 46.755 68.8451 46.645 69.3851 46.505ZM88.6841 38.465V51.485H87.5441V38.465H88.6841ZM85.8341 46.925L85.9841 47.84C84.4341 48.14 82.4641 48.29 80.0741 48.29H78.4541V43.265H83.1791V40.415H78.3941V39.455H84.3191V44.21H79.5791V47.36H80.0591C82.3291 47.36 84.2541 47.215 85.8341 46.925ZM102.043 44.45H99.2831V43.52H102.043V41.48H99.2831V40.55H102.043V38.465H103.183V48.35H102.043V44.45ZM98.7731 45.695H92.6381V39.305H98.7731V45.695ZM97.6481 40.25H93.7631V44.75H97.6481V40.25ZM103.453 50.825V51.77H95.5931C95.3531 51.77 95.1681 51.705 95.0381 51.575C94.9081 51.445 94.8431 51.255 94.8431 51.005V47.27H95.9981V50.825H103.453ZM123.836 44.555H121.676V51.515H120.536V38.495H121.676V43.595H123.836V44.555ZM118.961 46.685L119.111 47.6C117.581 47.91 115.671 48.065 113.381 48.065H111.791V39.53H117.776V40.49H112.931V47.12H113.366C115.566 47.12 117.431 46.975 118.961 46.685ZM127.235 41.15C127.235 40.36 127.61 39.725 128.36 39.245C129.12 38.755 130.25 38.51 131.75 38.51C133.25 38.51 134.375 38.755 135.125 39.245C135.885 39.725 136.265 40.36 136.265 41.15C136.265 41.94 135.885 42.58 135.125 43.07C134.375 43.55 133.25 43.79 131.75 43.79C130.25 43.79 129.12 43.55 128.36 43.07C127.61 42.58 127.235 41.94 127.235 41.15ZM135.05 41.255V41.045C135.05 40.565 134.775 40.17 134.225 39.86C133.685 39.55 132.86 39.395 131.75 39.395C130.64 39.395 129.81 39.55 129.26 39.86C128.72 40.17 128.45 40.565 128.45 41.045V41.255C128.45 41.725 128.725 42.115 129.275 42.425C129.825 42.735 130.65 42.89 131.75 42.89C132.85 42.89 133.675 42.735 134.225 42.425C134.775 42.115 135.05 41.725 135.05 41.255ZM137.87 44.915V45.89H125.63V44.915H137.87ZM127.445 51.23V47.3H136.055V51.995H128.195C127.955 51.995 127.77 51.93 127.64 51.8C127.51 51.67 127.445 51.48 127.445 51.23ZM134.93 48.23H128.57V51.05H134.93V48.23ZM157.128 45.17V46.115H144.888V45.17H150.438V43.55H146.718V38.78H155.298V43.55H151.578V45.17H157.128ZM147.843 42.635H154.173V39.695H147.843V42.635ZM146.583 47.555H155.298V52.085H154.158V48.5H146.583V47.555ZM170.217 40.235H160.632V39.275H170.217V40.235ZM170.352 45.74H160.512V44.795H162.882L162.387 41.465L163.542 41.345L163.947 44.795H166.902L167.307 41.345L168.477 41.465L167.967 44.795H170.352V45.74ZM171.552 49.04V50H159.312V49.04H162.642V46.505H163.752V49.04H167.112V46.505H168.222V49.04H171.552ZM189.73 38.465V51.485H188.59V38.465H189.73ZM183.46 43.97C183.6 43.97 183.715 44.025 183.805 44.135L186.745 47.585L185.89 48.32L182.92 44.75C182.87 44.69 182.81 44.66 182.74 44.66C182.68 44.66 182.625 44.69 182.575 44.75C182.305 45.3 181.95 45.86 181.51 46.43C181.07 47 180.47 47.7 179.71 48.53L178.855 47.81C179.725 46.9 180.395 46.11 180.865 45.44C181.345 44.77 181.69 44.105 181.9 43.445C182.11 42.775 182.215 42.015 182.215 41.165V40.595H179.26V39.635H186.295V40.595H183.355V41.21C183.355 42.34 183.18 43.345 182.83 44.225L182.905 44.27L183.13 44.09C183.24 44.01 183.35 43.97 183.46 43.97ZM204.229 38.465V46.055H203.089V42.62H200.359V41.69H203.089V38.465H204.229ZM197.089 43.07C197.009 43.07 196.939 43.1 196.879 43.16C196.609 43.55 196.264 43.95 195.844 44.36C195.424 44.77 194.869 45.265 194.179 45.845L193.324 45.125C194.164 44.465 194.814 43.895 195.274 43.415C195.734 42.925 196.064 42.445 196.264 41.975C196.474 41.495 196.579 40.96 196.579 40.37V40.22H193.714V39.26H200.554V40.22H197.719V40.415C197.719 41.265 197.544 42.01 197.194 42.65L197.284 42.695L197.524 42.515C197.634 42.435 197.744 42.395 197.854 42.395C197.984 42.395 198.099 42.44 198.199 42.53L200.989 44.87L200.149 45.62L197.314 43.16C197.234 43.1 197.159 43.07 197.089 43.07ZM195.979 46.925H204.229V52.025H196.729C196.489 52.025 196.304 51.96 196.174 51.83C196.044 51.7 195.979 51.51 195.979 51.26V46.925ZM197.089 51.095H203.104V47.855H197.089V51.095ZM217.438 38.465H218.578V51.485H217.438V38.465ZM207.808 43.73C207.808 42.27 208.128 41.165 208.768 40.415C209.418 39.665 210.273 39.29 211.333 39.29C212.383 39.29 213.228 39.665 213.868 40.415C214.518 41.165 214.843 42.27 214.843 43.73C214.843 44.71 214.693 45.535 214.393 46.205C214.093 46.865 213.678 47.36 213.148 47.69C212.618 48.01 212.013 48.17 211.333 48.17C210.273 48.17 209.418 47.795 208.768 47.045C208.128 46.295 207.808 45.19 207.808 43.73ZM213.628 44.315V43.145C213.628 42.215 213.413 41.5 212.983 41C212.563 40.5 212.013 40.25 211.333 40.25C210.643 40.25 210.083 40.5 209.653 41C209.233 41.49 209.023 42.205 209.023 43.145V44.315C209.023 45.255 209.233 45.975 209.653 46.475C210.083 46.965 210.643 47.21 211.333 47.21C212.013 47.21 212.563 46.96 212.983 46.46C213.413 45.96 213.628 45.245 213.628 44.315ZM239.306 43.61H237.326V47.42H236.201V38.465H237.326V42.65H239.306V43.61ZM232.736 39.455H228.791V38.57H232.736V39.455ZM235.211 46.67C234.101 46.85 232.766 46.99 231.206 47.09C229.656 47.18 228.056 47.225 226.406 47.225L226.316 46.295C227.826 46.295 229.101 46.27 230.141 46.22V45.17C229.361 45.1 228.746 44.9 228.296 44.57C227.846 44.23 227.621 43.805 227.621 43.295C227.621 42.555 228.011 42.04 228.791 41.75V41.66H226.721V40.805H234.536V41.66H232.556V41.75C233.336 42.06 233.726 42.575 233.726 43.295C233.726 43.795 233.501 44.215 233.051 44.555C232.601 44.885 231.991 45.085 231.221 45.155V46.175C232.761 46.095 234.056 45.975 235.106 45.815L235.211 46.67ZM230.456 44.3H230.891C231.421 44.3 231.851 44.19 232.181 43.97C232.521 43.74 232.691 43.42 232.691 43.01C232.691 42.6 232.526 42.285 232.196 42.065C231.866 41.835 231.431 41.72 230.891 41.72H230.456C229.916 41.72 229.476 41.835 229.136 42.065C228.806 42.285 228.641 42.6 228.641 43.01C228.641 43.42 228.806 43.74 229.136 43.97C229.476 44.19 229.916 44.3 230.456 44.3ZM228.671 48.215H237.326V52.175H236.216V49.1H228.671V48.215ZM252.665 38.465V51.485H251.555V44.495H249.5V51.125H248.405V38.69H249.5V43.55H251.555V38.465H252.665ZM247.265 46.7L247.415 47.6C246.205 47.91 244.71 48.065 242.93 48.065H241.7V39.8H246.545V40.76H242.795V47.12H243.2C244.84 47.12 246.195 46.98 247.265 46.7ZM268.154 44.555H265.994V51.515H264.854V38.495H265.994V43.595H268.154V44.555ZM256.169 39.53H262.004V41.615C262.004 42.725 261.839 43.665 261.509 44.435C261.179 45.205 260.619 45.925 259.829 46.595C259.049 47.255 257.929 47.98 256.469 48.77L255.794 47.915C257.154 47.195 258.194 46.54 258.914 45.95C259.634 45.36 260.139 44.735 260.429 44.075C260.719 43.415 260.864 42.6 260.864 41.63V40.505H256.169V39.53ZM285.957 38.465V51.485H284.832V38.465H285.957ZM283.752 47.45L283.857 48.365C282.727 48.545 281.372 48.685 279.792 48.785C278.212 48.875 276.582 48.92 274.902 48.92L274.812 47.945C276.272 47.945 277.517 47.92 278.547 47.87V44.96H275.922V39.47H282.387V40.415H277.047V44.015H282.507V44.96H279.642V47.825C281.162 47.755 282.532 47.63 283.752 47.45ZM298.656 40.52H290.736V39.545H299.781V40.61C299.781 42.83 299.566 44.945 299.136 46.955L298.026 46.775C298.446 44.745 298.656 42.705 298.656 40.655V40.52ZM301.446 49.04V50H289.206V49.04H294.006V44.225H295.131V49.04H301.446ZM305.1 48.245C305.42 48.245 305.65 48.33 305.79 48.5C305.94 48.66 306.015 48.87 306.015 49.13V49.34C306.015 49.75 305.895 50.2 305.655 50.69C305.415 51.19 305.08 51.625 304.65 51.995H303.645C303.945 51.675 304.185 51.37 304.365 51.08C304.555 50.8 304.69 50.485 304.77 50.135C304.57 50.085 304.42 49.99 304.32 49.85C304.23 49.71 304.185 49.54 304.185 49.34V49.13C304.185 48.87 304.255 48.66 304.395 48.5C304.545 48.33 304.78 48.245 305.1 48.245ZM325.841 44.405V45.335H313.601V44.405H319.166V43.25C317.856 43.19 316.871 42.945 316.211 42.515C315.551 42.085 315.221 41.53 315.221 40.85C315.221 40.13 315.596 39.55 316.346 39.11C317.106 38.67 318.231 38.45 319.721 38.45C321.211 38.45 322.331 38.67 323.081 39.11C323.841 39.55 324.221 40.13 324.221 40.85C324.221 41.53 323.891 42.085 323.231 42.515C322.581 42.945 321.601 43.19 320.291 43.25V44.405H325.841ZM319.721 42.395C320.821 42.395 321.641 42.26 322.181 41.99C322.731 41.72 323.006 41.37 323.006 40.94V40.76C323.006 40.33 322.731 39.98 322.181 39.71C321.641 39.44 320.821 39.305 319.721 39.305C318.621 39.305 317.796 39.44 317.246 39.71C316.706 39.98 316.436 40.33 316.436 40.76V40.94C316.436 41.37 316.706 41.72 317.246 41.99C317.796 42.26 318.621 42.395 319.721 42.395ZM316.601 51.2H324.386V52.145H316.256C316.016 52.145 315.831 52.08 315.701 51.95C315.571 51.82 315.506 51.63 315.506 51.38V48.905H322.901V47.495H315.416V46.565H323.996V49.79H316.601V51.2ZM339.185 38.465V51.485H338.045V38.465H339.185ZM336.335 46.925L336.485 47.84C334.935 48.14 332.965 48.29 330.575 48.29H328.955V43.265H333.68V40.415H328.895V39.455H334.82V44.21H330.08V47.36H330.56C332.83 47.36 334.755 47.215 336.335 46.925ZM352.544 44.45H349.784V43.52H352.544V41.48H349.784V40.55H352.544V38.465H353.684V48.35H352.544V44.45ZM349.274 45.695H343.139V39.305H349.274V45.695ZM348.149 40.25H344.264V44.75H348.149V40.25ZM353.954 50.825V51.77H346.094C345.854 51.77 345.669 51.705 345.539 51.575C345.409 51.445 345.344 51.255 345.344 51.005V47.27H346.499V50.825H353.954ZM371.727 38.465H372.867V51.485H371.727V38.465ZM362.097 43.73C362.097 42.27 362.417 41.165 363.057 40.415C363.707 39.665 364.562 39.29 365.622 39.29C366.672 39.29 367.517 39.665 368.157 40.415C368.807 41.165 369.132 42.27 369.132 43.73C369.132 44.71 368.982 45.535 368.682 46.205C368.382 46.865 367.967 47.36 367.437 47.69C366.907 48.01 366.302 48.17 365.622 48.17C364.562 48.17 363.707 47.795 363.057 47.045C362.417 46.295 362.097 45.19 362.097 43.73ZM367.917 44.315V43.145C367.917 42.215 367.702 41.5 367.272 41C366.852 40.5 366.302 40.25 365.622 40.25C364.932 40.25 364.372 40.5 363.942 41C363.522 41.49 363.312 42.205 363.312 43.145V44.315C363.312 45.255 363.522 45.975 363.942 46.475C364.372 46.965 364.932 47.21 365.622 47.21C366.302 47.21 366.852 46.96 367.272 46.46C367.702 45.96 367.917 45.245 367.917 44.315ZM386.226 42.005V38.465H387.366V48.35H386.226V42.965H383.496V42.005H386.226ZM380.226 43.415C380.156 43.415 380.091 43.445 380.031 43.505C379.761 43.925 379.416 44.36 378.996 44.81C378.576 45.25 378.016 45.79 377.316 46.43L376.461 45.695C377.301 44.975 377.951 44.355 378.411 43.835C378.871 43.305 379.201 42.785 379.401 42.275C379.611 41.755 379.716 41.175 379.716 40.535V40.385H376.851V39.44H383.691V40.385H380.856V40.595C380.856 41.485 380.681 42.28 380.331 42.98L380.421 43.025L380.646 42.845C380.756 42.765 380.861 42.725 380.961 42.725C381.081 42.725 381.201 42.775 381.321 42.875L384.126 45.425L383.286 46.16L380.451 43.505C380.391 43.445 380.316 43.415 380.226 43.415ZM387.636 50.825V51.77H379.776C379.536 51.77 379.351 51.705 379.221 51.575C379.091 51.445 379.026 51.255 379.026 51.005V47.45H380.181V50.825H387.636ZM400.575 38.465H401.715V51.485H400.575V38.465ZM390.945 43.73C390.945 42.27 391.265 41.165 391.905 40.415C392.555 39.665 393.41 39.29 394.47 39.29C395.52 39.29 396.365 39.665 397.005 40.415C397.655 41.165 397.98 42.27 397.98 43.73C397.98 44.71 397.83 45.535 397.53 46.205C397.23 46.865 396.815 47.36 396.285 47.69C395.755 48.01 395.15 48.17 394.47 48.17C393.41 48.17 392.555 47.795 391.905 47.045C391.265 46.295 390.945 45.19 390.945 43.73ZM396.765 44.315V43.145C396.765 42.215 396.55 41.5 396.12 41C395.7 40.5 395.15 40.25 394.47 40.25C393.78 40.25 393.22 40.5 392.79 41C392.37 41.49 392.16 42.205 392.16 43.145V44.315C392.16 45.255 392.37 45.975 392.79 46.475C393.22 46.965 393.78 47.21 394.47 47.21C395.15 47.21 395.7 46.96 396.12 46.46C396.55 45.96 396.765 45.245 396.765 44.315ZM422.443 43.61H420.463V47.42H419.338V38.465H420.463V42.65H422.443V43.61ZM415.873 39.455H411.928V38.57H415.873V39.455ZM418.348 46.67C417.238 46.85 415.903 46.99 414.343 47.09C412.793 47.18 411.193 47.225 409.543 47.225L409.453 46.295C410.963 46.295 412.238 46.27 413.278 46.22V45.17C412.498 45.1 411.883 44.9 411.433 44.57C410.983 44.23 410.758 43.805 410.758 43.295C410.758 42.555 411.148 42.04 411.928 41.75V41.66H409.858V40.805H417.673V41.66H415.693V41.75C416.473 42.06 416.863 42.575 416.863 43.295C416.863 43.795 416.638 44.215 416.188 44.555C415.738 44.885 415.128 45.085 414.358 45.155V46.175C415.898 46.095 417.193 45.975 418.243 45.815L418.348 46.67ZM413.593 44.3H414.028C414.558 44.3 414.988 44.19 415.318 43.97C415.658 43.74 415.828 43.42 415.828 43.01C415.828 42.6 415.663 42.285 415.333 42.065C415.003 41.835 414.568 41.72 414.028 41.72H413.593C413.053 41.72 412.613 41.835 412.273 42.065C411.943 42.285 411.778 42.6 411.778 43.01C411.778 43.42 411.943 43.74 412.273 43.97C412.613 44.19 413.053 44.3 413.593 44.3ZM411.808 48.215H420.463V52.175H419.353V49.1H411.808V48.215ZM435.802 38.465V51.485H434.692V44.495H432.637V51.125H431.542V38.69H432.637V43.55H434.692V38.465H435.802ZM430.402 46.7L430.552 47.6C429.342 47.91 427.847 48.065 426.067 48.065H424.837V39.8H429.682V40.76H425.932V47.12H426.337C427.977 47.12 429.332 46.98 430.402 46.7ZM451.292 44.555H449.132V51.515H447.992V38.495H449.132V43.595H451.292V44.555ZM439.307 39.53H445.142V41.615C445.142 42.725 444.977 43.665 444.647 44.435C444.317 45.205 443.757 45.925 442.967 46.595C442.187 47.255 441.067 47.98 439.607 48.77L438.932 47.915C440.292 47.195 441.332 46.54 442.052 45.95C442.772 45.36 443.277 44.735 443.567 44.075C443.857 43.415 444.002 42.6 444.002 41.63V40.505H439.307V39.53ZM469.095 38.465V51.485H467.97V38.465H469.095ZM466.89 47.45L466.995 48.365C465.865 48.545 464.51 48.685 462.93 48.785C461.35 48.875 459.72 48.92 458.04 48.92L457.95 47.945C459.41 47.945 460.655 47.92 461.685 47.87V44.96H459.06V39.47H465.525V40.415H460.185V44.015H465.645V44.96H462.78V47.825C464.3 47.755 465.67 47.63 466.89 47.45ZM483.519 38.465V51.485H482.394V44.105H479.604C479.554 45.445 479.214 46.46 478.584 47.15C477.954 47.83 477.144 48.17 476.154 48.17C475.114 48.17 474.274 47.795 473.634 47.045C473.004 46.295 472.689 45.19 472.689 43.73C472.689 42.26 473.004 41.155 473.634 40.415C474.264 39.665 475.104 39.29 476.154 39.29C477.124 39.29 477.919 39.615 478.539 40.265C479.159 40.915 479.514 41.875 479.604 43.145H482.394V38.465H483.519ZM478.419 43.13C478.419 42.2 478.209 41.49 477.789 41C477.379 40.5 476.834 40.25 476.154 40.25C475.474 40.25 474.929 40.5 474.519 41C474.109 41.49 473.904 42.2 473.904 43.13V44.33C473.904 45.26 474.109 45.975 474.519 46.475C474.929 46.965 475.474 47.21 476.154 47.21C476.834 47.21 477.379 46.965 477.789 46.475C478.209 45.975 478.419 45.26 478.419 44.33V43.13ZM492.862 45.965L492.217 45.08C493.577 44.38 494.617 43.76 495.337 43.22C496.067 42.67 496.572 42.125 496.852 41.585C497.132 41.035 497.272 40.405 497.272 39.695V39.185H498.442V39.725C498.442 40.305 498.377 40.825 498.247 41.285C498.127 41.735 497.922 42.16 497.632 42.56L497.707 42.605L498.082 42.32C498.212 42.22 498.342 42.17 498.472 42.17C498.602 42.17 498.732 42.215 498.862 42.305L503.227 45.02L502.567 45.92L498.052 43.01C497.922 42.92 497.782 42.875 497.632 42.875C497.502 42.875 497.372 42.925 497.242 43.025C496.832 43.465 496.277 43.92 495.577 44.39C494.877 44.85 493.972 45.375 492.862 45.965ZM503.842 49.025V50H491.602V49.025H503.842ZM518.266 44.03V44.99H506.026V44.03H514.936C515.076 43.41 515.181 42.78 515.251 42.14L507.391 42.44L507.271 41.525L515.326 41.3C515.356 40.79 515.371 40.26 515.371 39.71H507.706V38.795H516.496V39.83C516.496 41.32 516.346 42.72 516.046 44.03H518.266ZM509.026 51.17H516.811V52.1H508.681C508.441 52.1 508.256 52.035 508.126 51.905C507.996 51.775 507.931 51.585 507.931 51.335V48.845H515.326V47.42H507.841V46.49H516.421V49.73H509.026V51.17ZM532.69 44.945V45.815H520.45V44.945H526.015V43.73H522.37V40.775H529.615V39.515H522.295V38.66H530.71V41.6H523.48V42.875H531.085V43.73H527.125V44.945H532.69ZM523.39 51.245H531.25V52.145H523.075C522.835 52.145 522.65 52.08 522.52 51.95C522.39 51.82 522.325 51.63 522.325 51.38V49.13H529.795V47.87H522.235V46.985H530.86V49.97H523.39V51.245ZM536.494 40.865C536.494 40.135 536.869 39.555 537.619 39.125C538.369 38.685 539.494 38.465 540.994 38.465C542.494 38.465 543.619 38.685 544.369 39.125C545.119 39.555 545.494 40.135 545.494 40.865C545.494 41.595 545.119 42.18 544.369 42.62C543.619 43.06 542.494 43.28 540.994 43.28C539.494 43.28 538.369 43.06 537.619 42.62C536.869 42.18 536.494 41.595 536.494 40.865ZM544.279 40.94V40.775C544.279 40.345 544.004 39.995 543.454 39.725C542.914 39.445 542.094 39.305 540.994 39.305C539.894 39.305 539.069 39.445 538.519 39.725C537.979 39.995 537.709 40.345 537.709 40.775V40.94C537.709 41.37 537.979 41.725 538.519 42.005C539.069 42.275 539.894 42.41 540.994 42.41C542.094 42.41 542.914 42.275 543.454 42.005C544.004 41.725 544.279 41.37 544.279 40.94ZM547.114 44.315V45.275H534.874V44.315H547.114ZM536.779 51.335V48.875H544.174V47.465H536.689V46.535H545.269V49.745H537.874V51.17H545.659V52.1H537.529C537.289 52.1 537.104 52.035 536.974 51.905C536.844 51.775 536.779 51.585 536.779 51.335ZM564.152 38.465H565.292V51.485H564.152V38.465ZM554.522 43.73C554.522 42.27 554.842 41.165 555.482 40.415C556.132 39.665 556.987 39.29 558.047 39.29C559.097 39.29 559.942 39.665 560.582 40.415C561.232 41.165 561.557 42.27 561.557 43.73C561.557 44.71 561.407 45.535 561.107 46.205C560.807 46.865 560.392 47.36 559.862 47.69C559.332 48.01 558.727 48.17 558.047 48.17C556.987 48.17 556.132 47.795 555.482 47.045C554.842 46.295 554.522 45.19 554.522 43.73ZM560.342 44.315V43.145C560.342 42.215 560.127 41.5 559.697 41C559.277 40.5 558.727 40.25 558.047 40.25C557.357 40.25 556.797 40.5 556.367 41C555.947 41.49 555.737 42.205 555.737 43.145V44.315C555.737 45.255 555.947 45.975 556.367 46.475C556.797 46.965 557.357 47.21 558.047 47.21C558.727 47.21 559.277 46.96 559.697 46.46C560.127 45.96 560.342 45.245 560.342 44.315ZM580.796 45.05V46.01H568.556V45.05H571.811V43.28C571.261 43.05 570.846 42.75 570.566 42.38C570.296 42.01 570.161 41.59 570.161 41.12C570.161 40.34 570.541 39.71 571.301 39.23C572.061 38.74 573.186 38.495 574.676 38.495C576.166 38.495 577.291 38.74 578.051 39.23C578.811 39.71 579.191 40.34 579.191 41.12C579.191 41.59 579.051 42.01 578.771 42.38C578.501 42.75 578.091 43.05 577.541 43.28V45.05H580.796ZM574.676 42.86C575.786 42.86 576.616 42.705 577.166 42.395C577.716 42.085 577.991 41.69 577.991 41.21V41C577.991 40.53 577.711 40.14 577.151 39.83C576.601 39.52 575.776 39.365 574.676 39.365C573.576 39.365 572.751 39.52 572.201 39.83C571.651 40.14 571.376 40.53 571.376 41V41.21C571.376 41.69 571.646 42.085 572.186 42.395C572.736 42.705 573.566 42.86 574.676 42.86ZM572.906 45.05H576.446V43.595C575.956 43.695 575.366 43.745 574.676 43.745C573.986 43.745 573.396 43.695 572.906 43.595V45.05ZM579.116 49.685C579.116 50.195 578.946 50.645 578.606 51.035C578.276 51.425 577.776 51.73 577.106 51.95C576.446 52.18 575.636 52.295 574.676 52.295C573.716 52.295 572.901 52.18 572.231 51.95C571.571 51.73 571.071 51.425 570.731 51.035C570.401 50.645 570.236 50.195 570.236 49.685C570.236 49.185 570.401 48.745 570.731 48.365C571.071 47.975 571.571 47.67 572.231 47.45C572.901 47.23 573.716 47.12 574.676 47.12C575.636 47.12 576.446 47.23 577.106 47.45C577.776 47.67 578.276 47.975 578.606 48.365C578.946 48.745 579.116 49.185 579.116 49.685ZM577.916 49.595C577.916 49.155 577.646 48.785 577.106 48.485C576.576 48.175 575.766 48.02 574.676 48.02C573.946 48.02 573.336 48.095 572.846 48.245C572.356 48.385 571.996 48.575 571.766 48.815C571.536 49.055 571.421 49.315 571.421 49.595V49.805C571.421 50.085 571.536 50.345 571.766 50.585C571.996 50.825 572.356 51.015 572.846 51.155C573.336 51.305 573.946 51.38 574.676 51.38C575.766 51.38 576.576 51.225 577.106 50.915C577.646 50.615 577.916 50.245 577.916 49.805V49.595ZM595.61 44.795H593.495V51.515H592.355V38.495H593.495V43.835H595.61V44.795ZM589.16 40.175H584.9V39.2H589.16V40.175ZM582.905 41.975H590.93V42.905H588.71V42.995C589.62 43.445 590.075 44.31 590.075 45.59C590.075 46.24 589.94 46.805 589.67 47.285C589.4 47.755 589.025 48.115 588.545 48.365C588.075 48.615 587.55 48.74 586.97 48.74C586.39 48.74 585.86 48.615 585.38 48.365C584.91 48.115 584.54 47.755 584.27 47.285C584 46.805 583.865 46.24 583.865 45.59C583.865 44.31 584.32 43.445 585.23 42.995V42.905H582.905V41.975ZM588.965 45.095C588.965 44.425 588.785 43.915 588.425 43.565C588.065 43.205 587.58 43.025 586.97 43.025C586.37 43.025 585.885 43.205 585.515 43.565C585.155 43.925 584.975 44.435 584.975 45.095V45.71C584.975 46.36 585.16 46.87 585.53 47.24C585.9 47.6 586.38 47.78 586.97 47.78C587.56 47.78 588.04 47.6 588.41 47.24C588.78 46.87 588.965 46.36 588.965 45.71V45.095ZM608.594 38.465V51.485H607.469V46.01H604.919V45.08H607.469V42.26H604.919V41.33H607.469V38.465H608.594ZM604.604 43.73C604.604 45.19 604.289 46.295 603.659 47.045C603.029 47.795 602.199 48.17 601.169 48.17C600.129 48.17 599.294 47.795 598.664 47.045C598.034 46.295 597.719 45.19 597.719 43.73C597.719 42.27 598.034 41.165 598.664 40.415C599.294 39.665 600.129 39.29 601.169 39.29C602.199 39.29 603.029 39.665 603.659 40.415C604.289 41.165 604.604 42.27 604.604 43.73ZM603.404 43.13C603.404 42.19 603.199 41.475 602.789 40.985C602.379 40.485 601.839 40.235 601.169 40.235C600.489 40.235 599.944 40.485 599.534 40.985C599.124 41.475 598.919 42.19 598.919 43.13V44.33C598.919 45.27 599.124 45.99 599.534 46.49C599.944 46.98 600.489 47.225 601.169 47.225C601.839 47.225 602.379 46.98 602.789 46.49C603.199 45.99 603.404 45.27 603.404 44.33V43.13ZM627.822 38.465V51.485H626.682V38.465H627.822ZM621.447 43.715C621.587 43.715 621.697 43.77 621.777 43.88L624.747 47.63L623.877 48.395L620.907 44.525C620.867 44.475 620.812 44.45 620.742 44.45C620.682 44.45 620.637 44.475 620.607 44.525C620.337 45.115 619.977 45.72 619.527 46.34C619.087 46.95 618.487 47.7 617.727 48.59L616.857 47.855C617.737 46.865 618.412 46.02 618.882 45.32C619.352 44.61 619.692 43.9 619.902 43.19C620.112 42.48 620.217 41.665 620.217 40.745V39.335H621.357V40.73C621.357 41.92 621.182 43 620.832 43.97L620.907 44.015L621.117 43.835C621.227 43.755 621.337 43.715 621.447 43.715ZM643.731 42.41V43.37H641.646V48.35H640.506V38.465H641.646V42.41H643.731ZM631.971 46.52L631.356 45.65C632.716 45.09 633.751 44.59 634.461 44.15C635.171 43.71 635.671 43.245 635.961 42.755C636.251 42.265 636.396 41.665 636.396 40.955V40.325H631.731V39.35H637.536V40.85C637.536 41.77 637.371 42.535 637.041 43.145C636.721 43.755 636.166 44.315 635.376 44.825C634.596 45.335 633.461 45.9 631.971 46.52ZM634.611 50.825H641.946V51.77H634.221C633.981 51.77 633.796 51.705 633.666 51.575C633.536 51.445 633.471 51.255 633.471 51.005V47.27H634.611V50.825ZM651.739 44.24L651.109 43.37C652.409 42.84 653.404 42.36 654.094 41.93C654.794 41.49 655.279 41.055 655.549 40.625C655.829 40.195 655.969 39.7 655.969 39.14V38.735H657.139V39.185C657.139 39.655 657.079 40.075 656.959 40.445C656.839 40.805 656.644 41.145 656.374 41.465L656.479 41.51L656.854 41.225C656.994 41.125 657.134 41.075 657.274 41.075C657.384 41.075 657.499 41.105 657.619 41.165L661.819 43.325L661.174 44.21L656.779 41.87C656.649 41.8 656.514 41.765 656.374 41.765C656.224 41.765 656.089 41.805 655.969 41.885C655.569 42.245 655.029 42.61 654.349 42.98C653.679 43.35 652.809 43.77 651.739 44.24ZM662.584 45.47V46.445H657.109V49.145H655.969V46.445H650.344V45.47H662.584ZM653.194 50.87H660.979V51.815H652.819C652.579 51.815 652.394 51.75 652.264 51.62C652.134 51.49 652.069 51.3 652.069 51.05V47.885H653.194V50.87ZM675.943 38.465V51.485H674.818V43.79H672.043V42.83H674.818V38.465H675.943ZM669.448 43.715C669.568 43.715 669.673 43.77 669.763 43.88L672.703 47.63L671.833 48.395L668.893 44.525C668.853 44.475 668.803 44.45 668.743 44.45C668.683 44.45 668.633 44.475 668.593 44.525C668.343 45.105 667.998 45.7 667.558 46.31C667.118 46.92 666.518 47.68 665.758 48.59L664.888 47.855C665.758 46.865 666.423 46.02 666.883 45.32C667.353 44.61 667.688 43.9 667.888 43.19C668.098 42.48 668.203 41.665 668.203 40.745V39.335H669.343V40.73C669.343 41.94 669.178 43.02 668.848 43.97L668.908 44.015L669.118 43.835C669.228 43.755 669.338 43.715 669.448 43.715ZM690.757 38.465V51.485H689.647V44.495H687.592V51.125H686.497V38.69H687.592V43.55H689.647V38.465H690.757ZM685.357 46.7L685.507 47.6C684.297 47.91 682.802 48.065 681.022 48.065H679.792V39.8H684.637V40.76H680.887V47.12H681.292C682.932 47.12 684.287 46.98 685.357 46.7ZM705.856 49.04V50H693.616V49.04H699.166V46.475H695.416V42.41H702.916V40.205H695.341V39.26H704.056V43.325H696.556V45.53H704.446V46.475H700.306V49.04H705.856ZM725.519 42.41V43.37H723.434V48.35H722.294V38.465H723.434V42.41H725.519ZM713.759 46.52L713.144 45.65C714.504 45.09 715.539 44.59 716.249 44.15C716.959 43.71 717.459 43.245 717.749 42.755C718.039 42.265 718.184 41.665 718.184 40.955V40.325H713.519V39.35H719.324V40.85C719.324 41.77 719.159 42.535 718.829 43.145C718.509 43.755 717.954 44.315 717.164 44.825C716.384 45.335 715.249 45.9 713.759 46.52ZM716.399 50.825H723.734V51.77H716.009C715.769 51.77 715.584 51.705 715.454 51.575C715.324 51.445 715.259 51.255 715.259 51.005V47.27H716.399V50.825ZM737.378 44.36H734.963V43.43H737.378V41.57H734.963V40.625H737.378V38.465H738.533V48.425H737.378V44.36ZM734.453 40.415H727.658V39.47H734.453V40.415ZM735.053 45.98C734.123 46.12 732.978 46.23 731.618 46.31C730.268 46.38 728.868 46.415 727.418 46.415L727.313 45.485C727.703 45.485 728.298 45.475 729.098 45.455L728.738 41.48L729.848 41.39L730.118 45.44C730.518 45.43 731.133 45.405 731.963 45.365L732.293 41.36L733.388 41.465L732.983 45.29C733.603 45.25 734.253 45.185 734.933 45.095L735.053 45.98ZM738.803 50.825V51.77H730.913C730.673 51.77 730.488 51.705 730.358 51.575C730.228 51.445 730.163 51.255 730.163 51.005V47.645H731.303V50.825H738.803ZM754.352 44.795H752.237V51.515H751.097V38.495H752.237V43.835H754.352V44.795ZM747.902 40.175H743.642V39.2H747.902V40.175ZM741.647 41.975H749.672V42.905H747.452V42.995C748.362 43.445 748.817 44.31 748.817 45.59C748.817 46.24 748.682 46.805 748.412 47.285C748.142 47.755 747.767 48.115 747.287 48.365C746.817 48.615 746.292 48.74 745.712 48.74C745.132 48.74 744.602 48.615 744.122 48.365C743.652 48.115 743.282 47.755 743.012 47.285C742.742 46.805 742.607 46.24 742.607 45.59C742.607 44.31 743.062 43.445 743.972 42.995V42.905H741.647V41.975ZM747.707 45.095C747.707 44.425 747.527 43.915 747.167 43.565C746.807 43.205 746.322 43.025 745.712 43.025C745.112 43.025 744.627 43.205 744.257 43.565C743.897 43.925 743.717 44.435 743.717 45.095V45.71C743.717 46.36 743.902 46.87 744.272 47.24C744.642 47.6 745.122 47.78 745.712 47.78C746.302 47.78 746.782 47.6 747.152 47.24C747.522 46.87 747.707 46.36 747.707 45.71V45.095ZM767.711 38.465V51.485H766.601V38.465H767.711ZM763.586 38.69H764.681V51.125H763.586V44.51H761.321C761.041 45.25 760.581 45.945 759.941 46.595C759.311 47.235 758.396 47.955 757.196 48.755L756.446 47.99C757.576 47.26 758.436 46.61 759.026 46.04C759.616 45.46 760.031 44.855 760.271 44.225C760.511 43.585 760.631 42.8 760.631 41.87V40.715H756.791V39.8H761.726V41.84C761.726 42.49 761.676 43.065 761.576 43.565H763.586V38.69ZM12.135 61.465V74.485H11.025V67.495H8.895V74.125H7.8V61.69H8.895V66.55H11.025V61.465H12.135ZM6.855 69.505L7.005 70.435C5.775 70.735 4.26 70.885 2.46 70.885H1.2V62.785H2.295V69.94H2.73C3.51 69.94 4.255 69.905 4.965 69.835C5.685 69.755 6.315 69.645 6.855 69.505ZM27.234 68.05V69.01H14.994V68.05H18.249V66.28C17.699 66.05 17.284 65.75 17.004 65.38C16.734 65.01 16.599 64.59 16.599 64.12C16.599 63.34 16.979 62.71 17.739 62.23C18.499 61.74 19.624 61.495 21.114 61.495C22.604 61.495 23.729 61.74 24.489 62.23C25.249 62.71 25.629 63.34 25.629 64.12C25.629 64.59 25.489 65.01 25.209 65.38C24.939 65.75 24.529 66.05 23.979 66.28V68.05H27.234ZM21.114 65.86C22.224 65.86 23.054 65.705 23.604 65.395C24.154 65.085 24.429 64.69 24.429 64.21V64C24.429 63.53 24.149 63.14 23.589 62.83C23.039 62.52 22.214 62.365 21.114 62.365C20.014 62.365 19.189 62.52 18.639 62.83C18.089 63.14 17.814 63.53 17.814 64V64.21C17.814 64.69 18.084 65.085 18.624 65.395C19.174 65.705 20.004 65.86 21.114 65.86ZM19.344 68.05H22.884V66.595C22.394 66.695 21.804 66.745 21.114 66.745C20.424 66.745 19.834 66.695 19.344 66.595V68.05ZM25.554 72.685C25.554 73.195 25.384 73.645 25.044 74.035C24.714 74.425 24.214 74.73 23.544 74.95C22.884 75.18 22.074 75.295 21.114 75.295C20.154 75.295 19.339 75.18 18.669 74.95C18.009 74.73 17.509 74.425 17.169 74.035C16.839 73.645 16.674 73.195 16.674 72.685C16.674 72.185 16.839 71.745 17.169 71.365C17.509 70.975 18.009 70.67 18.669 70.45C19.339 70.23 20.154 70.12 21.114 70.12C22.074 70.12 22.884 70.23 23.544 70.45C24.214 70.67 24.714 70.975 25.044 71.365C25.384 71.745 25.554 72.185 25.554 72.685ZM24.354 72.595C24.354 72.155 24.084 71.785 23.544 71.485C23.014 71.175 22.204 71.02 21.114 71.02C20.384 71.02 19.774 71.095 19.284 71.245C18.794 71.385 18.434 71.575 18.204 71.815C17.974 72.055 17.859 72.315 17.859 72.595V72.805C17.859 73.085 17.974 73.345 18.204 73.585C18.434 73.825 18.794 74.015 19.284 74.155C19.774 74.305 20.384 74.38 21.114 74.38C22.204 74.38 23.014 74.225 23.544 73.915C24.084 73.615 24.354 73.245 24.354 72.805V72.595ZM31.038 63.865C31.038 63.135 31.413 62.555 32.163 62.125C32.913 61.685 34.038 61.465 35.538 61.465C37.038 61.465 38.163 61.685 38.913 62.125C39.663 62.555 40.038 63.135 40.038 63.865C40.038 64.595 39.663 65.18 38.913 65.62C38.163 66.06 37.038 66.28 35.538 66.28C34.038 66.28 32.913 66.06 32.163 65.62C31.413 65.18 31.038 64.595 31.038 63.865ZM38.823 63.94V63.775C38.823 63.345 38.548 62.995 37.998 62.725C37.458 62.445 36.638 62.305 35.538 62.305C34.438 62.305 33.613 62.445 33.063 62.725C32.523 62.995 32.253 63.345 32.253 63.775V63.94C32.253 64.37 32.523 64.725 33.063 65.005C33.613 65.275 34.438 65.41 35.538 65.41C36.638 65.41 37.458 65.275 37.998 65.005C38.548 64.725 38.823 64.37 38.823 63.94ZM41.658 67.315V68.275H29.418V67.315H41.658ZM31.323 74.335V71.875H38.718V70.465H31.233V69.535H39.813V72.745H32.418V74.17H40.203V75.1H32.073C31.833 75.1 31.648 75.035 31.518 74.905C31.388 74.775 31.323 74.585 31.323 74.335ZM61.067 66.61H59.087V70.42H57.962V61.465H59.087V65.65H61.067V66.61ZM54.497 62.455H50.552V61.57H54.497V62.455ZM56.972 69.67C55.862 69.85 54.527 69.99 52.967 70.09C51.417 70.18 49.817 70.225 48.167 70.225L48.077 69.295C49.587 69.295 50.862 69.27 51.902 69.22V68.17C51.122 68.1 50.507 67.9 50.057 67.57C49.607 67.23 49.382 66.805 49.382 66.295C49.382 65.555 49.772 65.04 50.552 64.75V64.66H48.482V63.805H56.297V64.66H54.317V64.75C55.097 65.06 55.487 65.575 55.487 66.295C55.487 66.795 55.262 67.215 54.812 67.555C54.362 67.885 53.752 68.085 52.982 68.155V69.175C54.522 69.095 55.817 68.975 56.867 68.815L56.972 69.67ZM52.217 67.3H52.652C53.182 67.3 53.612 67.19 53.942 66.97C54.282 66.74 54.452 66.42 54.452 66.01C54.452 65.6 54.287 65.285 53.957 65.065C53.627 64.835 53.192 64.72 52.652 64.72H52.217C51.677 64.72 51.237 64.835 50.897 65.065C50.567 65.285 50.402 65.6 50.402 66.01C50.402 66.42 50.567 66.74 50.897 66.97C51.237 67.19 51.677 67.3 52.217 67.3ZM50.432 71.215H59.087V75.175H57.977V72.1H50.432V71.215ZM74.096 61.465V71.35H72.941V61.465H74.096ZM63.296 65.515C63.296 64.815 63.441 64.205 63.731 63.685C64.031 63.165 64.441 62.77 64.961 62.5C65.481 62.22 66.076 62.08 66.746 62.08C67.406 62.08 67.996 62.22 68.516 62.5C69.046 62.77 69.456 63.165 69.746 63.685C70.046 64.205 70.196 64.815 70.196 65.515C70.196 66.205 70.046 66.81 69.746 67.33C69.456 67.85 69.046 68.25 68.516 68.53C67.996 68.8 67.406 68.935 66.746 68.935C66.076 68.935 65.481 68.8 64.961 68.53C64.441 68.25 64.031 67.855 63.731 67.345C63.441 66.825 63.296 66.215 63.296 65.515ZM68.981 65.83V65.2C68.981 64.54 68.771 64.015 68.351 63.625C67.941 63.225 67.406 63.025 66.746 63.025C66.076 63.025 65.531 63.225 65.111 63.625C64.701 64.025 64.496 64.55 64.496 65.2V65.83C64.496 66.48 64.706 67.005 65.126 67.405C65.546 67.795 66.086 67.99 66.746 67.99C67.406 67.99 67.941 67.795 68.351 67.405C68.771 67.005 68.981 66.48 68.981 65.83ZM65.756 74.005V70.27H66.911V73.825H74.366V74.77H66.506C66.266 74.77 66.081 74.705 65.951 74.575C65.821 74.445 65.756 74.255 65.756 74.005ZM89.93 64.825V65.785H87.845V68.815H86.705V61.465H87.845V64.825H89.93ZM83.27 62.62H79.265V61.705H83.27V62.62ZM81.17 68.605C80.23 68.605 79.475 68.425 78.905 68.065C78.345 67.695 78.065 67.21 78.065 66.61C78.065 65.83 78.475 65.285 79.295 64.975V64.885H77.075V64H85.205V64.885H83.045V64.975C83.865 65.285 84.275 65.83 84.275 66.61C84.275 67.21 83.99 67.695 83.42 68.065C82.86 68.425 82.11 68.605 81.17 68.605ZM80.99 67.69H81.35C81.9 67.69 82.35 67.57 82.7 67.33C83.05 67.09 83.225 66.755 83.225 66.325C83.225 65.895 83.05 65.56 82.7 65.32C82.36 65.08 81.91 64.96 81.35 64.96H80.99C80.43 64.96 79.975 65.08 79.625 65.32C79.285 65.56 79.115 65.895 79.115 66.325C79.115 66.755 79.29 67.09 79.64 67.33C79.99 67.57 80.44 67.69 80.99 67.69ZM80.69 74.17H88.205V75.1H80.33C80.09 75.1 79.905 75.035 79.775 74.905C79.645 74.775 79.58 74.585 79.58 74.335V71.89H86.735V70.51H79.49V69.595H87.845V72.79H80.69V74.17ZM97.654 67.735L97.024 66.865C98.344 66.265 99.354 65.725 100.054 65.245C100.754 64.765 101.239 64.29 101.509 63.82C101.789 63.35 101.929 62.805 101.929 62.185V61.72H103.099V62.215C103.099 62.725 103.034 63.18 102.904 63.58C102.784 63.98 102.589 64.36 102.319 64.72L102.394 64.75L102.784 64.465C102.914 64.365 103.049 64.315 103.189 64.315C103.319 64.315 103.439 64.35 103.549 64.42L107.839 66.805L107.194 67.69L102.739 65.125C102.599 65.045 102.464 65.005 102.334 65.005C102.194 65.005 102.059 65.055 101.929 65.155L101.914 65.17C101.514 65.56 100.974 65.955 100.294 66.355C99.624 66.755 98.744 67.215 97.654 67.735ZM108.544 70.135H102.994V75.01H101.854V70.135H96.304V69.175H108.544V70.135ZM126.558 68.98H125.403V61.465H126.558V68.98ZM115.758 65.2C115.758 64.54 115.903 63.965 116.193 63.475C116.493 62.985 116.903 62.61 117.423 62.35C117.943 62.08 118.538 61.945 119.208 61.945C119.878 61.945 120.473 62.08 120.993 62.35C121.513 62.61 121.918 62.985 122.208 63.475C122.508 63.965 122.658 64.54 122.658 65.2C122.658 65.86 122.508 66.435 122.208 66.925C121.918 67.415 121.508 67.795 120.978 68.065C120.458 68.325 119.868 68.455 119.208 68.455C118.548 68.455 117.953 68.325 117.423 68.065C116.903 67.795 116.493 67.415 116.193 66.925C115.903 66.435 115.758 65.86 115.758 65.2ZM116.958 65.455C116.958 66.075 117.163 66.575 117.573 66.955C117.993 67.325 118.538 67.51 119.208 67.51C119.878 67.51 120.418 67.325 120.828 66.955C121.238 66.575 121.443 66.075 121.443 65.455V64.93C121.443 64.31 121.238 63.815 120.828 63.445C120.418 63.075 119.878 62.89 119.208 62.89C118.538 62.89 117.993 63.075 117.573 63.445C117.163 63.815 116.958 64.31 116.958 64.93V65.455ZM127.788 74.275L127.053 75.055L124.833 72.88C124.773 72.81 124.703 72.775 124.623 72.775C124.583 72.775 124.538 72.79 124.488 72.82C124.258 73.16 123.963 73.51 123.603 73.87C123.243 74.24 122.763 74.685 122.163 75.205L119.883 72.835C119.813 72.765 119.743 72.73 119.673 72.73C119.633 72.73 119.578 72.755 119.508 72.805C119.068 73.465 118.318 74.25 117.258 75.16L116.538 74.395C117.208 73.835 117.733 73.335 118.113 72.895C118.493 72.455 118.763 72.02 118.923 71.59C119.093 71.16 119.178 70.675 119.178 70.135V69.655H120.258V70.165C120.258 70.985 120.103 71.7 119.793 72.31L119.853 72.34L120.048 72.19C120.128 72.12 120.223 72.085 120.333 72.085C120.453 72.085 120.558 72.13 120.648 72.22L122.238 73.81C122.958 73.16 123.453 72.575 123.723 72.055C123.993 71.535 124.128 70.9 124.128 70.15V69.655H125.208V70.21C125.208 70.65 125.173 71.04 125.103 71.38C125.033 71.72 124.918 72.045 124.758 72.355L124.818 72.4L125.013 72.235C125.123 72.155 125.228 72.115 125.328 72.115C125.428 72.115 125.528 72.155 125.628 72.235L127.788 74.275ZM131.352 64.15C131.352 63.36 131.727 62.725 132.477 62.245C133.237 61.755 134.367 61.51 135.867 61.51C137.367 61.51 138.492 61.755 139.242 62.245C140.002 62.725 140.382 63.36 140.382 64.15C140.382 64.94 140.002 65.58 139.242 66.07C138.492 66.55 137.367 66.79 135.867 66.79C134.367 66.79 133.237 66.55 132.477 66.07C131.727 65.58 131.352 64.94 131.352 64.15ZM139.167 64.255V64.045C139.167 63.565 138.892 63.17 138.342 62.86C137.802 62.55 136.977 62.395 135.867 62.395C134.757 62.395 133.927 62.55 133.377 62.86C132.837 63.17 132.567 63.565 132.567 64.045V64.255C132.567 64.725 132.842 65.115 133.392 65.425C133.942 65.735 134.767 65.89 135.867 65.89C136.967 65.89 137.792 65.735 138.342 65.425C138.892 65.115 139.167 64.725 139.167 64.255ZM141.987 67.915V68.89H129.747V67.915H141.987ZM131.562 74.23V70.3H140.172V74.995H132.312C132.072 74.995 131.887 74.93 131.757 74.8C131.627 74.67 131.562 74.48 131.562 74.23ZM139.047 71.23H132.687V74.05H139.047V71.23Z" fill="#1B1C25"/>
<path d="M1.98 9.65C1.66 9.65 1.425 9.57 1.275 9.41C1.135 9.24 1.065 9.025 1.065 8.765V8.555C1.065 8.145 1.185 7.695 1.425 7.205C1.665 6.705 2 6.27 2.43 5.9H3.435C3.135 6.22 2.89 6.525 2.7 6.815C2.52 7.095 2.39 7.41 2.31 7.76C2.51 7.81 2.655 7.905 2.745 8.045C2.845 8.185 2.895 8.355 2.895 8.555V8.765C2.895 9.025 2.82 9.24 2.67 9.41C2.53 9.57 2.3 9.65 1.98 9.65ZM6.05156 17V15.95H7.52156V7.58H6.05156V6.53H10.2516V7.58H8.78156V15.95H10.2516V17H6.05156ZM19.6523 17L17.1023 6.53H18.4373L19.5623 11.57L20.4323 15.485H20.4623L21.4373 11.57L22.7573 6.53H24.1973L25.4723 11.57L26.4473 15.47H26.4923L27.3923 11.57L28.5773 6.53H29.8673L27.1823 17H25.7873L24.4223 11.78L23.4623 7.94H23.4323L22.4423 11.78L21.0473 17H19.6523ZM32.1117 17V15.95H33.5817V7.58H32.1117V6.53H36.3117V7.58H34.8417V15.95H36.3117V17H32.1117ZM39.6626 17V6.53H40.9226V15.89H45.3776V17H39.6626ZM48.2272 17V6.53H49.4872V15.89H53.9422V17H48.2272ZM68.1668 15.47H68.1218C67.9918 15.96 67.6718 16.37 67.1618 16.7C66.6618 17.02 66.0118 17.18 65.2118 17.18C64.5718 17.18 63.9818 17.065 63.4418 16.835C62.9118 16.595 62.4568 16.25 62.0768 15.8C61.6968 15.34 61.3968 14.775 61.1768 14.105C60.9668 13.425 60.8618 12.645 60.8618 11.765C60.8618 10.895 60.9668 10.125 61.1768 9.455C61.3868 8.775 61.6868 8.21 62.0768 7.76C62.4668 7.3 62.9368 6.95 63.4868 6.71C64.0368 6.47 64.6468 6.35 65.3168 6.35C66.2568 6.35 67.0418 6.56 67.6718 6.98C68.3018 7.4 68.7868 7.955 69.1268 8.645L68.0918 9.275C67.8518 8.715 67.4918 8.275 67.0118 7.955C66.5418 7.635 65.9768 7.475 65.3168 7.475C64.8568 7.475 64.4368 7.56 64.0568 7.73C63.6768 7.89 63.3468 8.12 63.0668 8.42C62.7968 8.72 62.5868 9.08 62.4368 9.5C62.2868 9.92 62.2118 10.39 62.2118 10.91V12.605C62.2118 13.125 62.2868 13.6 62.4368 14.03C62.5868 14.45 62.7968 14.81 63.0668 15.11C63.3468 15.41 63.6868 15.645 64.0868 15.815C64.4868 15.975 64.9368 16.055 65.4368 16.055C65.7968 16.055 66.1368 16.01 66.4568 15.92C66.7868 15.82 67.0718 15.675 67.3118 15.485C67.5618 15.295 67.7568 15.06 67.8968 14.78C68.0368 14.49 68.1068 14.15 68.1068 13.76V12.725H65.7968V11.615H69.3368V17H68.1668V15.47ZM74.1265 17H72.8665V6.53H77.0365C77.9565 6.53 78.6715 6.785 79.1815 7.295C79.7015 7.805 79.9615 8.54 79.9615 9.5C79.9615 10.27 79.7815 10.905 79.4215 11.405C79.0715 11.895 78.5515 12.22 77.8615 12.38L80.2615 17H78.8365L76.5715 12.5H74.1265V17ZM77.0365 11.42C77.5365 11.42 77.9215 11.29 78.1915 11.03C78.4715 10.77 78.6115 10.4 78.6115 9.92V9.14C78.6115 8.66 78.4715 8.29 78.1915 8.03C77.9215 7.77 77.5365 7.64 77.0365 7.64H74.1265V11.42H77.0365ZM83.0162 17V15.95H84.4862V7.58H83.0162V6.53H87.2162V7.58H85.7462V15.95H87.2162V17H83.0162ZM93.9895 7.64V17H92.7295V7.64H89.3995V6.53H97.3195V7.64H93.9895ZM101.111 5.75C101.431 5.75 101.661 5.835 101.801 6.005C101.951 6.165 102.026 6.375 102.026 6.635V6.845C102.026 7.255 101.906 7.71 101.666 8.21C101.426 8.7 101.091 9.13 100.661 9.5H99.6565C99.9565 9.18 100.196 8.88 100.376 8.6C100.566 8.31 100.701 7.99 100.781 7.64C100.581 7.59 100.431 7.495 100.331 7.355C100.241 7.215 100.196 7.045 100.196 6.845V6.635C100.196 6.375 100.266 6.165 100.406 6.005C100.556 5.835 100.791 5.75 101.111 5.75ZM120.878 5.465V18.485H119.798V5.465H120.878ZM116.888 5.69H117.953V18.125H116.888V11.39H115.238V10.445H116.888V5.69ZM115.538 7.715H109.418V6.77H115.538V7.715ZM115.868 13.865L115.973 14.75C115.143 14.91 114.128 15.035 112.928 15.125C111.738 15.205 110.513 15.245 109.253 15.245L109.148 14.3C109.878 14.3 110.428 14.295 110.798 14.285L110.423 8.93L111.473 8.825L111.758 14.255C112.098 14.245 112.548 14.22 113.108 14.18L113.483 8.81L114.533 8.915L114.083 14.12C114.873 14.03 115.468 13.945 115.868 13.865ZM133.757 5.465H134.897V18.485H133.757V5.465ZM124.127 10.73C124.127 9.27 124.447 8.165 125.087 7.415C125.737 6.665 126.592 6.29 127.652 6.29C128.702 6.29 129.547 6.665 130.187 7.415C130.837 8.165 131.162 9.27 131.162 10.73C131.162 11.71 131.012 12.535 130.712 13.205C130.412 13.865 129.997 14.36 129.467 14.69C128.937 15.01 128.332 15.17 127.652 15.17C126.592 15.17 125.737 14.795 125.087 14.045C124.447 13.295 124.127 12.19 124.127 10.73ZM129.947 11.315V10.145C129.947 9.215 129.732 8.5 129.302 8C128.882 7.5 128.332 7.25 127.652 7.25C126.962 7.25 126.402 7.5 125.972 8C125.552 8.49 125.342 9.205 125.342 10.145V11.315C125.342 12.255 125.552 12.975 125.972 13.475C126.402 13.965 126.962 14.21 127.652 14.21C128.332 14.21 128.882 13.96 129.302 13.46C129.732 12.96 129.947 12.245 129.947 11.315ZM149.321 5.465V18.485H148.181V5.465H149.321ZM143.051 10.97C143.191 10.97 143.306 11.025 143.396 11.135L146.336 14.585L145.481 15.32L142.511 11.75C142.461 11.69 142.401 11.66 142.331 11.66C142.271 11.66 142.216 11.69 142.166 11.75C141.896 12.3 141.541 12.86 141.101 13.43C140.661 14 140.061 14.7 139.301 15.53L138.446 14.81C139.316 13.9 139.986 13.11 140.456 12.44C140.936 11.77 141.281 11.105 141.491 10.445C141.701 9.775 141.806 9.015 141.806 8.165V7.595H138.851V6.635H145.886V7.595H142.946V8.21C142.946 9.34 142.771 10.345 142.421 11.225L142.496 11.27L142.721 11.09C142.831 11.01 142.941 10.97 143.051 10.97ZM164.15 5.465V18.485H163.055V5.465H164.15ZM160.1 5.69H161.165V18.125H160.1V11.3H158.66C158.61 12.6 158.32 13.58 157.79 14.24C157.26 14.89 156.56 15.215 155.69 15.215C154.76 15.215 154.025 14.855 153.485 14.135C152.945 13.405 152.675 12.32 152.675 10.88C152.675 9.44 152.945 8.36 153.485 7.64C154.025 6.91 154.76 6.545 155.69 6.545C156.55 6.545 157.24 6.865 157.76 7.505C158.29 8.145 158.59 9.095 158.66 10.355H160.1V5.69ZM157.52 10.16C157.52 9.28 157.35 8.61 157.01 8.15C156.68 7.69 156.24 7.46 155.69 7.46C155.13 7.46 154.68 7.69 154.34 8.15C154.01 8.61 153.845 9.28 153.845 10.16V11.615C153.845 12.485 154.01 13.155 154.34 13.625C154.68 14.085 155.13 14.315 155.69 14.315C156.24 14.315 156.68 14.085 157.01 13.625C157.35 13.155 157.52 12.485 157.52 11.615V10.16ZM178.184 5.465V18.485H177.059V10.79H174.284V9.83H177.059V5.465H178.184ZM171.689 10.715C171.809 10.715 171.914 10.77 172.004 10.88L174.944 14.63L174.074 15.395L171.134 11.525C171.094 11.475 171.044 11.45 170.984 11.45C170.924 11.45 170.874 11.475 170.834 11.525C170.584 12.105 170.239 12.7 169.799 13.31C169.359 13.92 168.759 14.68 167.999 15.59L167.129 14.855C167.999 13.865 168.664 13.02 169.124 12.32C169.594 11.61 169.929 10.9 170.129 10.19C170.339 9.48 170.444 8.665 170.444 7.745V6.335H171.584V7.73C171.584 8.94 171.419 10.02 171.089 10.97L171.149 11.015L171.359 10.835C171.469 10.755 171.579 10.715 171.689 10.715ZM191.933 10.655H183.308V5.945H184.433V9.71H191.933V10.655ZM193.673 12.32V13.295H181.433V12.32H193.673ZM184.328 17.795H192.098V18.755H183.938C183.698 18.755 183.513 18.69 183.383 18.56C183.253 18.43 183.188 18.24 183.188 17.99V14.705H184.328V17.795ZM201.202 17V15.89H204.127V7.46H204.022L201.382 9.92L200.647 9.125L203.422 6.53H205.387V15.89H208.087V17H201.202ZM220.591 10.685H216.856V9.77H220.591V8.015H216.856V7.1H220.591V5.465H221.731V15.35H220.591V10.685ZM218.266 12.635C217.586 12.785 216.771 12.905 215.821 12.995C214.871 13.075 213.851 13.115 212.761 13.115H211.321V6.275H212.446V12.185H212.806C213.816 12.185 214.786 12.145 215.716 12.065C216.646 11.985 217.451 11.875 218.131 11.735L218.266 12.635ZM222.001 17.825V18.77H214.141C213.901 18.77 213.716 18.705 213.586 18.575C213.456 18.445 213.391 18.255 213.391 18.005V14.54H214.546V17.825H222.001ZM238.005 6.575H233.265V5.615H238.005V6.575ZM233.16 9.02H230.295V8.09H240.975V9.02H238.11V9.11C239.05 9.43 239.52 9.995 239.52 10.805C239.52 11.415 239.2 11.92 238.56 12.32C237.93 12.72 236.955 12.92 235.635 12.92C234.315 12.92 233.335 12.72 232.695 12.32C232.065 11.92 231.75 11.415 231.75 10.805C231.75 9.995 232.22 9.43 233.16 9.11V9.02ZM238.365 10.535C238.365 10.095 238.16 9.745 237.75 9.485C237.35 9.215 236.745 9.08 235.935 9.08H235.335C234.525 9.08 233.915 9.215 233.505 9.485C233.105 9.745 232.905 10.095 232.905 10.535C232.905 10.975 233.105 11.325 233.505 11.585C233.915 11.845 234.525 11.975 235.335 11.975H235.935C236.745 11.975 237.35 11.845 237.75 11.585C238.16 11.325 238.365 10.975 238.365 10.535ZM241.755 14.915H236.205V19.01H235.065V14.915H229.515V13.955H241.755V14.915ZM254.394 11.66H245.724V5.795H246.849V7.775H253.269V5.795H254.394V11.66ZM253.269 8.72H246.849V10.715H253.269V8.72ZM256.179 14.255H250.629V19.01H249.489V14.255H243.939V13.28H256.179V14.255ZM269.538 5.465V18.485H268.413V11.195H265.728V10.235H268.413V5.465H269.538ZM266.343 13.91L266.478 14.825C265.008 15.125 263.113 15.275 260.793 15.275H259.218V6.455H265.113V7.4H260.343V10.295H264.843V11.225H260.343V14.345H260.838C262.998 14.345 264.833 14.2 266.343 13.91ZM288.557 5.465V18.485H287.432V5.465H288.557ZM283.892 6.89H279.872V5.975H283.892V6.89ZM281.312 9.14H278.357V8.225H285.362V9.14H282.437C282.407 9.78 282.222 10.35 281.882 10.85L281.957 10.895L282.242 10.7C282.362 10.61 282.482 10.565 282.602 10.565C282.722 10.565 282.832 10.6 282.932 10.67L285.662 12.365L284.867 13.1L282.032 11.27C281.972 11.22 281.887 11.195 281.777 11.195C281.667 11.195 281.582 11.22 281.522 11.27C281.252 11.56 280.902 11.865 280.472 12.185C280.042 12.495 279.482 12.855 278.792 13.265L277.997 12.56C278.827 12.1 279.472 11.695 279.932 11.345C280.392 10.985 280.727 10.635 280.937 10.295C281.157 9.945 281.282 9.56 281.312 9.14ZM286.352 14.6L286.457 15.5C285.327 15.68 283.967 15.82 282.377 15.92C280.797 16.01 279.172 16.055 277.502 16.055L277.397 15.095C278.577 15.095 279.877 15.07 281.297 15.02V12.89H282.392V14.975C284.012 14.875 285.332 14.75 286.352 14.6ZM297.386 6.755H293.261V5.84H302.591V6.755H298.511C298.491 7.445 298.276 8.03 297.866 8.51L297.941 8.54L298.256 8.315C298.386 8.215 298.516 8.165 298.646 8.165C298.756 8.165 298.871 8.195 298.991 8.255L303.146 10.145L302.546 10.985L298.196 8.93C298.066 8.86 297.931 8.825 297.791 8.825C297.661 8.825 297.541 8.86 297.431 8.93C297.051 9.25 296.531 9.575 295.871 9.905C295.211 10.235 294.351 10.605 293.291 11.015L292.706 10.19C293.896 9.75 294.821 9.355 295.481 9.005C296.141 8.655 296.616 8.305 296.906 7.955C297.196 7.605 297.356 7.205 297.386 6.755ZM304.046 12.185V13.16H291.806V12.185H297.356V10.46H298.496V12.185H304.046ZM302.366 16.73C302.366 17.23 302.196 17.67 301.856 18.05C301.526 18.44 301.026 18.745 300.356 18.965C299.696 19.185 298.886 19.295 297.926 19.295C296.966 19.295 296.151 19.185 295.481 18.965C294.821 18.745 294.321 18.44 293.981 18.05C293.651 17.67 293.486 17.23 293.486 16.73C293.486 16.24 293.651 15.805 293.981 15.425C294.321 15.035 294.821 14.735 295.481 14.525C296.151 14.305 296.966 14.195 297.926 14.195C298.886 14.195 299.696 14.305 300.356 14.525C301.026 14.735 301.526 15.035 301.856 15.425C302.196 15.805 302.366 16.24 302.366 16.73ZM301.181 16.64C301.181 16.19 300.911 15.82 300.371 15.53C299.841 15.23 299.026 15.08 297.926 15.08C296.836 15.08 296.016 15.23 295.466 15.53C294.926 15.83 294.656 16.2 294.656 16.64V16.85C294.656 17.28 294.926 17.645 295.466 17.945C296.016 18.245 296.836 18.395 297.926 18.395C299.016 18.395 299.831 18.245 300.371 17.945C300.911 17.645 301.181 17.28 301.181 16.85V16.64ZM323.065 12.17V13.115H310.825V12.17H316.375V10.55H312.655V5.78H321.235V10.55H317.515V12.17H323.065ZM313.78 9.635H320.11V6.695H313.78V9.635ZM312.52 14.555H321.235V19.085H320.095V15.5H312.52V14.555ZM336.154 7.235H326.569V6.275H336.154V7.235ZM336.289 12.74H326.449V11.795H328.819L328.324 8.465L329.479 8.345L329.884 11.795H332.839L333.244 8.345L334.414 8.465L333.904 11.795H336.289V12.74ZM337.489 16.04V17H325.249V16.04H328.579V13.505H329.689V16.04H333.049V13.505H334.159V16.04H337.489ZM352.348 11.555H350.338V18.515H349.228V5.495H350.338V10.595H352.348V11.555ZM343.543 8.54C343.543 9.47 343.438 10.28 343.228 10.97C343.028 11.66 342.708 12.32 342.268 12.95C341.838 13.58 341.223 14.305 340.423 15.125L339.598 14.45C340.338 13.69 340.908 13.03 341.308 12.47C341.708 11.9 341.998 11.315 342.178 10.715C342.358 10.105 342.448 9.39 342.448 8.57V7.625H340.063V6.665H343.543V8.54ZM344.218 6.665H347.413V8.825C347.413 9.845 347.313 10.73 347.113 11.48C346.923 12.23 346.618 12.945 346.198 13.625C345.778 14.295 345.183 15.075 344.413 15.965L343.543 15.305C344.263 14.505 344.818 13.8 345.208 13.19C345.598 12.57 345.878 11.925 346.048 11.255C346.228 10.575 346.318 9.77 346.318 8.84V7.625H344.218V6.665ZM365.257 5.465V18.485H364.117V5.465H365.257ZM358.987 10.97C359.127 10.97 359.242 11.025 359.332 11.135L362.272 14.585L361.417 15.32L358.447 11.75C358.397 11.69 358.337 11.66 358.267 11.66C358.207 11.66 358.152 11.69 358.102 11.75C357.832 12.3 357.477 12.86 357.037 13.43C356.597 14 355.997 14.7 355.237 15.53L354.382 14.81C355.252 13.9 355.922 13.11 356.392 12.44C356.872 11.77 357.217 11.105 357.427 10.445C357.637 9.775 357.742 9.015 357.742 8.165V7.595H354.787V6.635H361.822V7.595H358.882V8.21C358.882 9.34 358.707 10.345 358.357 11.225L358.432 11.27L358.657 11.09C358.767 11.01 358.877 10.97 358.987 10.97ZM385.746 11.555H383.586V18.515H382.446V5.495H383.586V10.595H385.746V11.555ZM380.856 13.505L381.006 14.435C379.426 14.755 377.506 14.915 375.246 14.915H373.671V6.515H374.796V13.955H375.246C377.406 13.955 379.276 13.805 380.856 13.505ZM397.59 5.465H398.715V18.485H397.59V5.465ZM388.23 9.365C388.23 8.745 388.385 8.2 388.695 7.73C389.005 7.25 389.43 6.885 389.97 6.635C390.51 6.375 391.12 6.245 391.8 6.245C392.48 6.245 393.09 6.375 393.63 6.635C394.17 6.885 394.595 7.25 394.905 7.73C395.215 8.2 395.37 8.745 395.37 9.365C395.37 9.985 395.215 10.53 394.905 11C394.595 11.47 394.17 11.835 393.63 12.095C393.09 12.345 392.48 12.47 391.8 12.47C391.12 12.47 390.51 12.345 389.97 12.095C389.43 11.835 389.005 11.47 388.695 11C388.385 10.53 388.23 9.985 388.23 9.365ZM394.17 9.545V9.185C394.17 8.585 393.95 8.1 393.51 7.73C393.07 7.36 392.5 7.175 391.8 7.175C391.1 7.175 390.53 7.36 390.09 7.73C389.65 8.1 389.43 8.585 389.43 9.185V9.545C389.43 10.145 389.65 10.63 390.09 11C390.53 11.37 391.1 11.555 391.8 11.555C392.5 11.555 393.07 11.37 393.51 11C393.95 10.63 394.17 10.145 394.17 9.545ZM387.6 14.78C389.3 14.78 390.94 14.74 392.52 14.66C394.1 14.58 395.44 14.455 396.54 14.285L396.66 15.2C395.53 15.38 394.17 15.52 392.58 15.62C391 15.71 389.375 15.755 387.705 15.755L387.6 14.78ZM419.204 8.765V9.725H417.119V12.98H415.979V5.465H417.119V8.765H419.204ZM410.084 12.38C409.424 12.38 408.834 12.25 408.314 11.99C407.804 11.73 407.404 11.355 407.114 10.865C406.824 10.375 406.679 9.8 406.679 9.14C406.679 8.48 406.824 7.905 407.114 7.415C407.404 6.925 407.804 6.55 408.314 6.29C408.834 6.03 409.424 5.9 410.084 5.9C410.744 5.9 411.329 6.03 411.839 6.29C412.349 6.55 412.749 6.925 413.039 7.415C413.329 7.905 413.474 8.48 413.474 9.14C413.474 9.8 413.329 10.375 413.039 10.865C412.749 11.355 412.349 11.73 411.839 11.99C411.329 12.25 410.744 12.38 410.084 12.38ZM410.084 11.45C410.734 11.45 411.259 11.265 411.659 10.895C412.069 10.525 412.274 10.03 412.274 9.41V8.87C412.274 8.25 412.069 7.755 411.659 7.385C411.259 7.015 410.734 6.83 410.084 6.83C409.424 6.83 408.889 7.015 408.479 7.385C408.079 7.755 407.879 8.25 407.879 8.87V9.41C407.879 10.03 408.079 10.525 408.479 10.895C408.889 11.265 409.424 11.45 410.084 11.45ZM408.734 13.685H417.419V14.615H408.734V13.685ZM415.394 18.08H417.539V18.98H408.599V18.08H410.774L410.309 15.44L411.449 15.32L411.824 18.08H414.344L414.719 15.32L415.859 15.44L415.394 18.08ZM422.378 9.545C422.378 8.875 422.548 8.275 422.888 7.745C423.238 7.205 423.768 6.775 424.478 6.455C425.188 6.135 426.063 5.975 427.103 5.975C428.143 5.975 429.018 6.135 429.728 6.455C430.438 6.775 430.963 7.205 431.303 7.745C431.653 8.275 431.828 8.875 431.828 9.545C431.828 10.215 431.653 10.82 431.303 11.36C430.963 11.9 430.438 12.33 429.728 12.65C429.018 12.97 428.143 13.13 427.103 13.13C426.063 13.13 425.188 12.97 424.478 12.65C423.768 12.33 423.238 11.9 422.888 11.36C422.548 10.82 422.378 10.215 422.378 9.545ZM430.598 9.725V9.38C430.598 8.92 430.473 8.505 430.223 8.135C429.983 7.755 429.598 7.455 429.068 7.235C428.548 7.005 427.893 6.89 427.103 6.89C426.313 6.89 425.653 7.005 425.123 7.235C424.603 7.455 424.218 7.755 423.968 8.135C423.728 8.505 423.608 8.92 423.608 9.38V9.725C423.608 10.435 423.898 11.025 424.478 11.495C425.058 11.965 425.933 12.2 427.103 12.2C428.273 12.2 429.148 11.965 429.728 11.495C430.308 11.025 430.598 10.435 430.598 9.725ZM420.983 16.025H433.223V17H420.983V16.025ZM447.647 16.04V17H435.407V16.04H440.957V13.475H437.207V9.41H444.707V7.205H437.132V6.26H445.847V10.325H438.347V12.53H446.237V13.475H442.097V16.04H447.647ZM459.881 5.465H461.006V18.485H459.881V5.465ZM450.521 9.365C450.521 8.745 450.676 8.2 450.986 7.73C451.296 7.25 451.721 6.885 452.261 6.635C452.801 6.375 453.411 6.245 454.091 6.245C454.771 6.245 455.381 6.375 455.921 6.635C456.461 6.885 456.886 7.25 457.196 7.73C457.506 8.2 457.661 8.745 457.661 9.365C457.661 9.985 457.506 10.53 457.196 11C456.886 11.47 456.461 11.835 455.921 12.095C455.381 12.345 454.771 12.47 454.091 12.47C453.411 12.47 452.801 12.345 452.261 12.095C451.721 11.835 451.296 11.47 450.986 11C450.676 10.53 450.521 9.985 450.521 9.365ZM456.461 9.545V9.185C456.461 8.585 456.241 8.1 455.801 7.73C455.361 7.36 454.791 7.175 454.091 7.175C453.391 7.175 452.821 7.36 452.381 7.73C451.941 8.1 451.721 8.585 451.721 9.185V9.545C451.721 10.145 451.941 10.63 452.381 11C452.821 11.37 453.391 11.555 454.091 11.555C454.791 11.555 455.361 11.37 455.801 11C456.241 10.63 456.461 10.145 456.461 9.545ZM449.891 14.78C451.591 14.78 453.231 14.74 454.811 14.66C456.391 14.58 457.731 14.455 458.831 14.285L458.951 15.2C457.821 15.38 456.461 15.52 454.871 15.62C453.291 15.71 451.666 15.755 449.996 15.755L449.891 14.78ZM481.09 12.17V13.115H468.85V12.17H474.4V10.55H470.68V5.78H479.26V10.55H475.54V12.17H481.09ZM471.805 9.635H478.135V6.695H471.805V9.635ZM470.545 14.555H479.26V19.085H478.12V15.5H470.545V14.555ZM494.179 7.235H484.594V6.275H494.179V7.235ZM494.314 12.74H484.474V11.795H486.844L486.349 8.465L487.504 8.345L487.909 11.795H490.864L491.269 8.345L492.439 8.465L491.929 11.795H494.314V12.74ZM495.514 16.04V17H483.274V16.04H486.604V13.505H487.714V16.04H491.074V13.505H492.184V16.04H495.514ZM510.328 11.78H508.288V18.485H507.163V5.465H508.288V10.82H510.328V11.78ZM506.083 14.45L506.188 15.365C505.098 15.545 503.788 15.685 502.258 15.785C500.738 15.875 499.168 15.92 497.548 15.92L497.443 14.945C498.853 14.945 500.053 14.92 501.043 14.87V12.29C500.153 12.19 499.428 11.865 498.868 11.315C498.308 10.765 498.028 10.065 498.028 9.215C498.028 8.605 498.183 8.07 498.493 7.61C498.803 7.14 499.228 6.78 499.768 6.53C500.308 6.27 500.918 6.14 501.598 6.14C502.278 6.14 502.888 6.27 503.428 6.53C503.968 6.78 504.388 7.14 504.688 7.61C504.998 8.07 505.153 8.605 505.153 9.215C505.153 10.065 504.873 10.765 504.313 11.315C503.763 11.865 503.038 12.19 502.138 12.29V14.825C503.598 14.755 504.913 14.63 506.083 14.45ZM501.598 11.39C502.298 11.39 502.868 11.21 503.308 10.85C503.748 10.48 503.968 9.995 503.968 9.395V9.05C503.968 8.45 503.748 7.97 503.308 7.61C502.868 7.24 502.298 7.055 501.598 7.055C500.898 7.055 500.328 7.24 499.888 7.61C499.448 7.97 499.228 8.45 499.228 9.05V9.395C499.228 9.995 499.448 10.48 499.888 10.85C500.328 11.21 500.898 11.39 501.598 11.39ZM529.347 11.555H527.187V18.515H526.047V5.495H527.187V10.595H529.347V11.555ZM524.472 13.685L524.622 14.6C523.092 14.91 521.182 15.065 518.892 15.065H517.302V6.53H523.287V7.49H518.442V14.12H518.877C521.077 14.12 522.942 13.975 524.472 13.685ZM542.376 5.465V13.13H541.221V5.465H542.376ZM532.386 12.83L531.546 12.11C532.396 11.44 533.051 10.865 533.511 10.385C533.981 9.905 534.321 9.43 534.531 8.96C534.741 8.49 534.846 7.955 534.846 7.355V7.22H531.966V6.275H538.881V7.22H535.986V7.415C535.986 8.255 535.811 8.995 535.461 9.635L535.551 9.68L535.791 9.5C535.901 9.42 536.006 9.38 536.106 9.38C536.226 9.38 536.346 9.425 536.466 9.515L539.316 11.855L538.461 12.59L535.581 10.145C535.511 10.085 535.431 10.055 535.341 10.055C535.261 10.055 535.191 10.085 535.131 10.145C534.871 10.525 534.531 10.915 534.111 11.315C533.691 11.715 533.116 12.22 532.386 12.83ZM534.126 13.925H542.376V19.025H534.876C534.636 19.025 534.451 18.96 534.321 18.83C534.191 18.7 534.126 18.51 534.126 18.26V13.925ZM535.236 18.095H541.251V14.855H535.236V18.095ZM547.185 7.865C547.185 7.135 547.56 6.555 548.31 6.125C549.06 5.685 550.185 5.465 551.685 5.465C553.185 5.465 554.31 5.685 555.06 6.125C555.81 6.555 556.185 7.135 556.185 7.865C556.185 8.595 555.81 9.18 555.06 9.62C554.31 10.06 553.185 10.28 551.685 10.28C550.185 10.28 549.06 10.06 548.31 9.62C547.56 9.18 547.185 8.595 547.185 7.865ZM554.97 7.94V7.775C554.97 7.345 554.695 6.995 554.145 6.725C553.605 6.445 552.785 6.305 551.685 6.305C550.585 6.305 549.76 6.445 549.21 6.725C548.67 6.995 548.4 7.345 548.4 7.775V7.94C548.4 8.37 548.67 8.725 549.21 9.005C549.76 9.275 550.585 9.41 551.685 9.41C552.785 9.41 553.605 9.275 554.145 9.005C554.695 8.725 554.97 8.37 554.97 7.94ZM557.805 11.315V12.275H545.565V11.315H557.805ZM547.47 18.335V15.875H554.865V14.465H547.38V13.535H555.96V16.745H548.565V18.17H556.35V19.1H548.22C547.98 19.1 547.795 19.035 547.665 18.905C547.535 18.775 547.47 18.585 547.47 18.335ZM577.214 10.61H575.234V14.42H574.109V5.465H575.234V9.65H577.214V10.61ZM570.644 6.455H566.699V5.57H570.644V6.455ZM573.119 13.67C572.009 13.85 570.674 13.99 569.114 14.09C567.564 14.18 565.964 14.225 564.314 14.225L564.224 13.295C565.734 13.295 567.009 13.27 568.049 13.22V12.17C567.269 12.1 566.654 11.9 566.204 11.57C565.754 11.23 565.529 10.805 565.529 10.295C565.529 9.555 565.919 9.04 566.699 8.75V8.66H564.629V7.805H572.444V8.66H570.464V8.75C571.244 9.06 571.634 9.575 571.634 10.295C571.634 10.795 571.409 11.215 570.959 11.555C570.509 11.885 569.899 12.085 569.129 12.155V13.175C570.669 13.095 571.964 12.975 573.014 12.815L573.119 13.67ZM568.364 11.3H568.799C569.329 11.3 569.759 11.19 570.089 10.97C570.429 10.74 570.599 10.42 570.599 10.01C570.599 9.6 570.434 9.285 570.104 9.065C569.774 8.835 569.339 8.72 568.799 8.72H568.364C567.824 8.72 567.384 8.835 567.044 9.065C566.714 9.285 566.549 9.6 566.549 10.01C566.549 10.42 566.714 10.74 567.044 10.97C567.384 11.19 567.824 11.3 568.364 11.3ZM566.579 15.215H575.234V19.175H574.124V16.1H566.579V15.215ZM590.243 5.465V15.35H589.088V5.465H590.243ZM579.443 9.515C579.443 8.815 579.588 8.205 579.878 7.685C580.178 7.165 580.588 6.77 581.108 6.5C581.628 6.22 582.223 6.08 582.893 6.08C583.553 6.08 584.143 6.22 584.663 6.5C585.193 6.77 585.603 7.165 585.893 7.685C586.193 8.205 586.343 8.815 586.343 9.515C586.343 10.205 586.193 10.81 585.893 11.33C585.603 11.85 585.193 12.25 584.663 12.53C584.143 12.8 583.553 12.935 582.893 12.935C582.223 12.935 581.628 12.8 581.108 12.53C580.588 12.25 580.178 11.855 579.878 11.345C579.588 10.825 579.443 10.215 579.443 9.515ZM585.128 9.83V9.2C585.128 8.54 584.918 8.015 584.498 7.625C584.088 7.225 583.553 7.025 582.893 7.025C582.223 7.025 581.678 7.225 581.258 7.625C580.848 8.025 580.643 8.55 580.643 9.2V9.83C580.643 10.48 580.853 11.005 581.273 11.405C581.693 11.795 582.233 11.99 582.893 11.99C583.553 11.99 584.088 11.795 584.498 11.405C584.918 11.005 585.128 10.48 585.128 9.83ZM581.903 18.005V14.27H583.058V17.825H590.513V18.77H582.653C582.413 18.77 582.228 18.705 582.098 18.575C581.968 18.445 581.903 18.255 581.903 18.005ZM606.077 8.825V9.785H603.992V12.815H602.852V5.465H603.992V8.825H606.077ZM599.417 6.62H595.412V5.705H599.417V6.62ZM597.317 12.605C596.377 12.605 595.622 12.425 595.052 12.065C594.492 11.695 594.212 11.21 594.212 10.61C594.212 9.83 594.622 9.285 595.442 8.975V8.885H593.222V8H601.352V8.885H599.192V8.975C600.012 9.285 600.422 9.83 600.422 10.61C600.422 11.21 600.137 11.695 599.567 12.065C599.007 12.425 598.257 12.605 597.317 12.605ZM597.137 11.69H597.497C598.047 11.69 598.497 11.57 598.847 11.33C599.197 11.09 599.372 10.755 599.372 10.325C599.372 9.895 599.197 9.56 598.847 9.32C598.507 9.08 598.057 8.96 597.497 8.96H597.137C596.577 8.96 596.122 9.08 595.772 9.32C595.432 9.56 595.262 9.895 595.262 10.325C595.262 10.755 595.437 11.09 595.787 11.33C596.137 11.57 596.587 11.69 597.137 11.69ZM596.837 18.17H604.352V19.1H596.477C596.237 19.1 596.052 19.035 595.922 18.905C595.792 18.775 595.727 18.585 595.727 18.335V15.89H602.882V14.51H595.637V13.595H603.992V16.79H596.837V18.17ZM613.801 11.735L613.171 10.865C614.491 10.265 615.501 9.725 616.201 9.245C616.901 8.765 617.386 8.29 617.656 7.82C617.936 7.35 618.076 6.805 618.076 6.185V5.72H619.246V6.215C619.246 6.725 619.181 7.18 619.051 7.58C618.931 7.98 618.736 8.36 618.466 8.72L618.541 8.75L618.931 8.465C619.061 8.365 619.196 8.315 619.336 8.315C619.466 8.315 619.586 8.35 619.696 8.42L623.986 10.805L623.341 11.69L618.886 9.125C618.746 9.045 618.611 9.005 618.481 9.005C618.341 9.005 618.206 9.055 618.076 9.155L618.061 9.17C617.661 9.56 617.121 9.955 616.441 10.355C615.771 10.755 614.891 11.215 613.801 11.735ZM624.691 14.135H619.141V19.01H618.001V14.135H612.451V13.175H624.691V14.135ZM642.705 12.98H641.55V5.465H642.705V12.98ZM631.905 9.2C631.905 8.54 632.05 7.965 632.34 7.475C632.64 6.985 633.05 6.61 633.57 6.35C634.09 6.08 634.685 5.945 635.355 5.945C636.025 5.945 636.62 6.08 637.14 6.35C637.66 6.61 638.065 6.985 638.355 7.475C638.655 7.965 638.805 8.54 638.805 9.2C638.805 9.86 638.655 10.435 638.355 10.925C638.065 11.415 637.655 11.795 637.125 12.065C636.605 12.325 636.015 12.455 635.355 12.455C634.695 12.455 634.1 12.325 633.57 12.065C633.05 11.795 632.64 11.415 632.34 10.925C632.05 10.435 631.905 9.86 631.905 9.2ZM633.105 9.455C633.105 10.075 633.31 10.575 633.72 10.955C634.14 11.325 634.685 11.51 635.355 11.51C636.025 11.51 636.565 11.325 636.975 10.955C637.385 10.575 637.59 10.075 637.59 9.455V8.93C637.59 8.31 637.385 7.815 636.975 7.445C636.565 7.075 636.025 6.89 635.355 6.89C634.685 6.89 634.14 7.075 633.72 7.445C633.31 7.815 633.105 8.31 633.105 8.93V9.455ZM643.935 18.275L643.2 19.055L640.98 16.88C640.92 16.81 640.85 16.775 640.77 16.775C640.73 16.775 640.685 16.79 640.635 16.82C640.405 17.16 640.11 17.51 639.75 17.87C639.39 18.24 638.91 18.685 638.31 19.205L636.03 16.835C635.96 16.765 635.89 16.73 635.82 16.73C635.78 16.73 635.725 16.755 635.655 16.805C635.215 17.465 634.465 18.25 633.405 19.16L632.685 18.395C633.355 17.835 633.88 17.335 634.26 16.895C634.64 16.455 634.91 16.02 635.07 15.59C635.24 15.16 635.325 14.675 635.325 14.135V13.655H636.405V14.165C636.405 14.985 636.25 15.7 635.94 16.31L636 16.34L636.195 16.19C636.275 16.12 636.37 16.085 636.48 16.085C636.6 16.085 636.705 16.13 636.795 16.22L638.385 17.81C639.105 17.16 639.6 16.575 639.87 16.055C640.14 15.535 640.275 14.9 640.275 14.15V13.655H641.355V14.21C641.355 14.65 641.32 15.04 641.25 15.38C641.18 15.72 641.065 16.045 640.905 16.355L640.965 16.4L641.16 16.235C641.27 16.155 641.375 16.115 641.475 16.115C641.575 16.115 641.675 16.155 641.775 16.235L643.935 18.275ZM647.499 8.15C647.499 7.36 647.874 6.725 648.624 6.245C649.384 5.755 650.514 5.51 652.014 5.51C653.514 5.51 654.639 5.755 655.389 6.245C656.149 6.725 656.529 7.36 656.529 8.15C656.529 8.94 656.149 9.58 655.389 10.07C654.639 10.55 653.514 10.79 652.014 10.79C650.514 10.79 649.384 10.55 648.624 10.07C647.874 9.58 647.499 8.94 647.499 8.15ZM655.314 8.255V8.045C655.314 7.565 655.039 7.17 654.489 6.86C653.949 6.55 653.124 6.395 652.014 6.395C650.904 6.395 650.074 6.55 649.524 6.86C648.984 7.17 648.714 7.565 648.714 8.045V8.255C648.714 8.725 648.989 9.115 649.539 9.425C650.089 9.735 650.914 9.89 652.014 9.89C653.114 9.89 653.939 9.735 654.489 9.425C655.039 9.115 655.314 8.725 655.314 8.255ZM658.134 11.915V12.89H645.894V11.915H658.134ZM647.709 18.23V14.3H656.319V18.995H648.459C648.219 18.995 648.034 18.93 647.904 18.8C647.774 18.67 647.709 18.48 647.709 18.23ZM655.194 15.23H648.834V18.05H655.194V15.23Z" fill="#1B1C25"/>
</svg>
