<svg width="770" height="56" viewBox="0 0 770 56" fill="none" xmlns="http://www.w3.org/2000/svg">
<path d="M1.935 43.385L1.335 42.56C2.635 42.09 3.635 41.67 4.335 41.3C5.035 40.92 5.525 40.545 5.805 40.175C6.085 39.795 6.225 39.36 6.225 38.87V38.555H7.35V38.915C7.35 39.325 7.29 39.695 7.17 40.025C7.05 40.355 6.86 40.66 6.6 40.94L6.705 40.97L7.08 40.715C7.23 40.595 7.38 40.535 7.53 40.535C7.64 40.535 7.745 40.565 7.845 40.625L12.045 42.515L11.43 43.355L7.035 41.3C6.875 41.23 6.74 41.195 6.63 41.195C6.5 41.195 6.355 41.235 6.195 41.315C5.785 41.645 5.24 41.975 4.56 42.305C3.89 42.625 3.015 42.985 1.935 43.385ZM12.81 44.375V45.32H0.57V44.375H12.81ZM3.555 51.17H11.355V52.1H3.225C2.985 52.1 2.8 52.035 2.67 51.905C2.54 51.775 2.475 51.585 2.475 51.335V48.89H9.87V47.495H2.385V46.565H10.965V49.76H3.555V51.17ZM27.624 44.555H25.464V51.515H24.324V38.495H25.464V43.595H27.624V44.555ZM22.839 46.925L22.989 47.84C21.469 48.14 19.539 48.29 17.199 48.29H15.609V43.265H20.274V40.415H15.549V39.455H21.399V44.21H16.734V47.36H17.229C19.419 47.36 21.289 47.215 22.839 46.925ZM39.438 38.465H40.578V51.485H39.438V38.465ZM29.808 43.73C29.808 42.27 30.128 41.165 30.768 40.415C31.418 39.665 32.273 39.29 33.333 39.29C34.383 39.29 35.228 39.665 35.868 40.415C36.518 41.165 36.843 42.27 36.843 43.73C36.843 44.71 36.693 45.535 36.393 46.205C36.093 46.865 35.678 47.36 35.148 47.69C34.618 48.01 34.013 48.17 33.333 48.17C32.273 48.17 31.418 47.795 30.768 47.045C30.128 46.295 29.808 45.19 29.808 43.73ZM35.628 44.315V43.145C35.628 42.215 35.413 41.5 34.983 41C34.563 40.5 34.013 40.25 33.333 40.25C32.643 40.25 32.083 40.5 31.653 41C31.233 41.49 31.023 42.205 31.023 43.145V44.315C31.023 45.255 31.233 45.975 31.653 46.475C32.083 46.965 32.643 47.21 33.333 47.21C34.013 47.21 34.563 46.96 34.983 46.46C35.413 45.96 35.628 45.245 35.628 44.315ZM54.4921 45.65H45.6121V39.365H54.3571V40.34H46.7521V44.675H54.4921V45.65ZM56.0821 49.025V50H43.8421V49.025H56.0821ZM70.8961 44.555H68.7361V51.515H67.5961V38.495H68.7361V43.595H70.8961V44.555ZM58.7161 39.5H64.8961V47.855H58.7161V39.5ZM59.8261 46.91H63.7861V40.445H59.8261V46.91ZM85.3201 44.555H83.1601V51.515H82.0201V38.495H83.1601V43.595H85.3201V44.555ZM80.4451 46.685L80.5951 47.6C79.0651 47.91 77.1551 48.065 74.8651 48.065H73.2751V39.53H79.2601V40.49H74.4151V47.12H74.8501C77.0501 47.12 78.9151 46.975 80.4451 46.685ZM104.339 44.555H102.179V51.515H101.039V38.495H102.179V43.595H104.339V44.555ZM99.5541 46.91L99.7041 47.825C98.1841 48.125 96.2541 48.275 93.9141 48.275H92.3241V39.455H98.3541V40.4H93.4491V43.295H98.1591V44.225H93.4491V47.345H93.9441C96.1341 47.345 98.0041 47.2 99.5541 46.91ZM116.153 38.465H117.293V51.485H116.153V38.465ZM106.523 43.73C106.523 42.27 106.843 41.165 107.483 40.415C108.133 39.665 108.988 39.29 110.048 39.29C111.098 39.29 111.943 39.665 112.583 40.415C113.233 41.165 113.558 42.27 113.558 43.73C113.558 44.71 113.408 45.535 113.108 46.205C112.808 46.865 112.393 47.36 111.863 47.69C111.333 48.01 110.728 48.17 110.048 48.17C108.988 48.17 108.133 47.795 107.483 47.045C106.843 46.295 106.523 45.19 106.523 43.73ZM112.343 44.315V43.145C112.343 42.215 112.128 41.5 111.698 41C111.278 40.5 110.728 40.25 110.048 40.25C109.358 40.25 108.798 40.5 108.368 41C107.948 41.49 107.738 42.205 107.738 43.145V44.315C107.738 45.255 107.948 45.975 108.368 46.475C108.798 46.965 109.358 47.21 110.048 47.21C110.728 47.21 111.278 46.96 111.698 46.46C112.128 45.96 112.343 45.245 112.343 44.315ZM130.892 38.675V39.515H123.527V40.805H130.682V41.615H123.542V42.92H131.147V43.76H122.432V38.675H130.892ZM132.797 44.885V45.77H120.557V44.885H132.797ZM122.432 51.38V49.115H129.902V47.855H122.342V46.97H130.967V49.955H123.497V51.245H131.357V52.145H123.182C122.942 52.145 122.757 52.08 122.627 51.95C122.497 51.82 122.432 51.63 122.432 51.38ZM147.611 44.78H145.571V51.485H144.446V38.465H145.571V43.82H147.611V44.78ZM141.251 40.595H135.611V39.65H142.361V40.805C142.361 42.395 142.181 43.98 141.821 45.56L140.726 45.395C141.076 43.945 141.251 42.46 141.251 40.94V40.595ZM143.366 47.21L143.471 48.125C142.371 48.305 141.056 48.44 139.526 48.53C138.006 48.62 136.441 48.665 134.831 48.665L134.726 47.705C135.726 47.705 136.721 47.69 137.711 47.66V43.595H138.821V47.615C140.631 47.535 142.146 47.4 143.366 47.21ZM165.175 38.465V51.485H164.05V44.105H161.26C161.21 45.445 160.87 46.46 160.24 47.15C159.61 47.83 158.8 48.17 157.81 48.17C156.77 48.17 155.93 47.795 155.29 47.045C154.66 46.295 154.345 45.19 154.345 43.73C154.345 42.26 154.66 41.155 155.29 40.415C155.92 39.665 156.76 39.29 157.81 39.29C158.78 39.29 159.575 39.615 160.195 40.265C160.815 40.915 161.17 41.875 161.26 43.145H164.05V38.465H165.175ZM160.075 43.13C160.075 42.2 159.865 41.49 159.445 41C159.035 40.5 158.49 40.25 157.81 40.25C157.13 40.25 156.585 40.5 156.175 41C155.765 41.49 155.56 42.2 155.56 43.13V44.33C155.56 45.26 155.765 45.975 156.175 46.475C156.585 46.965 157.13 47.21 157.81 47.21C158.49 47.21 159.035 46.965 159.445 46.475C159.865 45.975 160.075 45.26 160.075 44.33V43.13ZM170.044 40.85C170.044 40.13 170.419 39.55 171.169 39.11C171.929 38.67 173.054 38.45 174.544 38.45C176.034 38.45 177.154 38.67 177.904 39.11C178.664 39.55 179.044 40.13 179.044 40.85C179.044 41.58 178.669 42.165 177.919 42.605C177.169 43.045 176.044 43.265 174.544 43.265C173.044 43.265 171.919 43.045 171.169 42.605C170.419 42.165 170.044 41.58 170.044 40.85ZM171.259 40.94C171.259 41.37 171.529 41.72 172.069 41.99C172.619 42.26 173.444 42.395 174.544 42.395C175.644 42.395 176.464 42.26 177.004 41.99C177.554 41.72 177.829 41.37 177.829 40.94V40.76C177.829 40.33 177.554 39.98 177.004 39.71C176.464 39.44 175.644 39.305 174.544 39.305C173.444 39.305 172.619 39.44 172.069 39.71C171.529 39.98 171.259 40.33 171.259 40.76V40.94ZM175.114 45.2V46.565H178.819V49.79H171.424V51.2H179.209V52.145H171.079C170.839 52.145 170.654 52.08 170.524 51.95C170.394 51.82 170.329 51.63 170.329 51.38V48.905H177.724V47.495H170.239V46.565H173.989V45.2H168.424V44.27H180.664V45.2H175.114ZM194.008 38.465V51.485H192.868V38.465H194.008ZM191.158 46.925L191.308 47.84C189.758 48.14 187.788 48.29 185.398 48.29H183.778V43.265H188.503V40.415H183.718V39.455H189.643V44.21H184.903V47.36H185.383C187.653 47.36 189.578 47.215 191.158 46.925ZM207.772 43.655H199.147V38.945H200.272V42.71H207.772V43.655ZM209.512 45.32V46.295H197.272V45.32H209.512ZM200.167 50.795H207.937V51.755H199.777C199.537 51.755 199.352 51.69 199.222 51.56C199.092 51.43 199.027 51.24 199.027 50.99V47.705H200.167V50.795ZM226.311 38.465H227.451V51.485H226.311V38.465ZM216.681 43.73C216.681 42.27 217.001 41.165 217.641 40.415C218.291 39.665 219.146 39.29 220.206 39.29C221.256 39.29 222.101 39.665 222.741 40.415C223.391 41.165 223.716 42.27 223.716 43.73C223.716 44.71 223.566 45.535 223.266 46.205C222.966 46.865 222.551 47.36 222.021 47.69C221.491 48.01 220.886 48.17 220.206 48.17C219.146 48.17 218.291 47.795 217.641 47.045C217.001 46.295 216.681 45.19 216.681 43.73ZM222.501 44.315V43.145C222.501 42.215 222.286 41.5 221.856 41C221.436 40.5 220.886 40.25 220.206 40.25C219.516 40.25 218.956 40.5 218.526 41C218.106 41.49 217.896 42.205 217.896 43.145V44.315C217.896 45.255 218.106 45.975 218.526 46.475C218.956 46.965 219.516 47.21 220.206 47.21C220.886 47.21 221.436 46.96 221.856 46.46C222.286 45.96 222.501 45.245 222.501 44.315ZM240.735 38.465H241.875V51.485H240.735V38.465ZM231.48 39.5H237.735V47.855H231.48V39.5ZM236.61 46.91V40.445H232.59V46.91H236.61ZM256.299 38.465V51.485H255.159V38.465H256.299ZM250.029 43.97C250.169 43.97 250.284 44.025 250.374 44.135L253.314 47.585L252.459 48.32L249.489 44.75C249.439 44.69 249.379 44.66 249.309 44.66C249.249 44.66 249.194 44.69 249.144 44.75C248.874 45.3 248.519 45.86 248.079 46.43C247.639 47 247.039 47.7 246.279 48.53L245.424 47.81C246.294 46.9 246.964 46.11 247.434 45.44C247.914 44.77 248.259 44.105 248.469 43.445C248.679 42.775 248.784 42.015 248.784 41.165V40.595H245.829V39.635H252.864V40.595H249.924V41.21C249.924 42.34 249.749 43.345 249.399 44.225L249.474 44.27L249.699 44.09C249.809 44.01 249.919 43.97 250.029 43.97ZM268.728 40.805V39.515H261.408V38.675H269.823V41.63H262.593V42.905H270.198V43.76H261.483V40.805H268.728ZM271.803 44.885V45.77H259.563V44.885H271.803ZM261.438 51.38V49.115H268.908V47.855H261.348V46.97H269.973V49.955H262.503V51.245H270.363V52.145H262.188C261.948 52.145 261.763 52.08 261.633 51.95C261.503 51.82 261.438 51.63 261.438 51.38ZM291.212 44.555H289.052V51.515H287.912V38.495H289.052V43.595H291.212V44.555ZM283.007 43.715C283.137 43.715 283.247 43.77 283.337 43.88L286.262 47.63L285.392 48.395L282.452 44.54C282.422 44.48 282.372 44.45 282.302 44.45C282.252 44.45 282.202 44.48 282.152 44.54C281.892 45.12 281.542 45.72 281.102 46.34C280.662 46.95 280.067 47.7 279.317 48.59L278.447 47.855C279.317 46.865 279.982 46.02 280.442 45.32C280.912 44.61 281.247 43.9 281.447 43.19C281.657 42.48 281.762 41.665 281.762 40.745V39.335H282.917V40.73C282.917 41.92 282.742 43 282.392 43.97L282.467 44.015L282.692 43.835C282.802 43.755 282.907 43.715 283.007 43.715ZM305.246 45.05V46.01H293.006V45.05H296.261V43.28C295.711 43.05 295.296 42.75 295.016 42.38C294.746 42.01 294.611 41.59 294.611 41.12C294.611 40.34 294.991 39.71 295.751 39.23C296.511 38.74 297.636 38.495 299.126 38.495C300.616 38.495 301.741 38.74 302.501 39.23C303.261 39.71 303.641 40.34 303.641 41.12C303.641 41.59 303.501 42.01 303.221 42.38C302.951 42.75 302.541 43.05 301.991 43.28V45.05H305.246ZM299.126 42.86C300.236 42.86 301.066 42.705 301.616 42.395C302.166 42.085 302.441 41.69 302.441 41.21V41C302.441 40.53 302.161 40.14 301.601 39.83C301.051 39.52 300.226 39.365 299.126 39.365C298.026 39.365 297.201 39.52 296.651 39.83C296.101 40.14 295.826 40.53 295.826 41V41.21C295.826 41.69 296.096 42.085 296.636 42.395C297.186 42.705 298.016 42.86 299.126 42.86ZM297.356 45.05H300.896V43.595C300.406 43.695 299.816 43.745 299.126 43.745C298.436 43.745 297.846 43.695 297.356 43.595V45.05ZM303.566 49.685C303.566 50.195 303.396 50.645 303.056 51.035C302.726 51.425 302.226 51.73 301.556 51.95C300.896 52.18 300.086 52.295 299.126 52.295C298.166 52.295 297.351 52.18 296.681 51.95C296.021 51.73 295.521 51.425 295.181 51.035C294.851 50.645 294.686 50.195 294.686 49.685C294.686 49.185 294.851 48.745 295.181 48.365C295.521 47.975 296.021 47.67 296.681 47.45C297.351 47.23 298.166 47.12 299.126 47.12C300.086 47.12 300.896 47.23 301.556 47.45C302.226 47.67 302.726 47.975 303.056 48.365C303.396 48.745 303.566 49.185 303.566 49.685ZM302.366 49.595C302.366 49.155 302.096 48.785 301.556 48.485C301.026 48.175 300.216 48.02 299.126 48.02C298.396 48.02 297.786 48.095 297.296 48.245C296.806 48.385 296.446 48.575 296.216 48.815C295.986 49.055 295.871 49.315 295.871 49.595V49.805C295.871 50.085 295.986 50.345 296.216 50.585C296.446 50.825 296.806 51.015 297.296 51.155C297.786 51.305 298.396 51.38 299.126 51.38C300.216 51.38 301.026 51.225 301.556 50.915C302.096 50.615 302.366 50.245 302.366 49.805V49.595ZM320.06 44.795H317.945V51.515H316.805V38.495H317.945V43.835H320.06V44.795ZM313.61 40.175H309.35V39.2H313.61V40.175ZM307.355 41.975H315.38V42.905H313.16V42.995C314.07 43.445 314.525 44.31 314.525 45.59C314.525 46.24 314.39 46.805 314.12 47.285C313.85 47.755 313.475 48.115 312.995 48.365C312.525 48.615 312 48.74 311.42 48.74C310.84 48.74 310.31 48.615 309.83 48.365C309.36 48.115 308.99 47.755 308.72 47.285C308.45 46.805 308.315 46.24 308.315 45.59C308.315 44.31 308.77 43.445 309.68 42.995V42.905H307.355V41.975ZM313.415 45.095C313.415 44.425 313.235 43.915 312.875 43.565C312.515 43.205 312.03 43.025 311.42 43.025C310.82 43.025 310.335 43.205 309.965 43.565C309.605 43.925 309.425 44.435 309.425 45.095V45.71C309.425 46.36 309.61 46.87 309.98 47.24C310.35 47.6 310.83 47.78 311.42 47.78C312.01 47.78 312.49 47.6 312.86 47.24C313.23 46.87 313.415 46.36 313.415 45.71V45.095ZM333.044 38.465V51.485H331.919V46.01H329.369V45.08H331.919V42.26H329.369V41.33H331.919V38.465H333.044ZM329.054 43.73C329.054 45.19 328.739 46.295 328.109 47.045C327.479 47.795 326.649 48.17 325.619 48.17C324.579 48.17 323.744 47.795 323.114 47.045C322.484 46.295 322.169 45.19 322.169 43.73C322.169 42.27 322.484 41.165 323.114 40.415C323.744 39.665 324.579 39.29 325.619 39.29C326.649 39.29 327.479 39.665 328.109 40.415C328.739 41.165 329.054 42.27 329.054 43.73ZM327.854 43.13C327.854 42.19 327.649 41.475 327.239 40.985C326.829 40.485 326.289 40.235 325.619 40.235C324.939 40.235 324.394 40.485 323.984 40.985C323.574 41.475 323.369 42.19 323.369 43.13V44.33C323.369 45.27 323.574 45.99 323.984 46.49C324.394 46.98 324.939 47.225 325.619 47.225C326.289 47.225 326.829 46.98 327.239 46.49C327.649 45.99 327.854 45.27 327.854 44.33V43.13ZM350.893 38.465H352.033V51.485H350.893V38.465ZM341.263 43.73C341.263 42.27 341.583 41.165 342.223 40.415C342.873 39.665 343.728 39.29 344.788 39.29C345.838 39.29 346.683 39.665 347.323 40.415C347.973 41.165 348.298 42.27 348.298 43.73C348.298 44.71 348.148 45.535 347.848 46.205C347.548 46.865 347.133 47.36 346.603 47.69C346.073 48.01 345.468 48.17 344.788 48.17C343.728 48.17 342.873 47.795 342.223 47.045C341.583 46.295 341.263 45.19 341.263 43.73ZM347.083 44.315V43.145C347.083 42.215 346.868 41.5 346.438 41C346.018 40.5 345.468 40.25 344.788 40.25C344.098 40.25 343.538 40.5 343.108 41C342.688 41.49 342.478 42.205 342.478 43.145V44.315C342.478 45.255 342.688 45.975 343.108 46.475C343.538 46.965 344.098 47.21 344.788 47.21C345.468 47.21 346.018 46.96 346.438 46.46C346.868 45.96 347.083 45.245 347.083 44.315ZM366.862 38.465V51.485H365.752V44.69H363.802V51.125H362.707V38.69H363.802V43.745H365.752V38.465H366.862ZM360.637 40.415H356.782V39.485H360.637V40.415ZM355.207 42.095H361.987V42.995H360.202V43.07C360.992 43.5 361.387 44.315 361.387 45.515C361.387 46.455 361.132 47.19 360.622 47.72C360.122 48.24 359.462 48.5 358.642 48.5C357.832 48.5 357.172 48.24 356.662 47.72C356.162 47.19 355.912 46.455 355.912 45.515C355.912 44.315 356.302 43.5 357.082 43.07V42.995H355.207V42.095ZM360.307 44.975C360.307 44.375 360.157 43.915 359.857 43.595C359.557 43.275 359.152 43.115 358.642 43.115C358.132 43.115 357.727 43.275 357.427 43.595C357.137 43.915 356.992 44.375 356.992 44.975V45.695C356.992 46.285 357.142 46.745 357.442 47.075C357.752 47.405 358.152 47.57 358.642 47.57C359.132 47.57 359.532 47.405 359.842 47.075C360.152 46.745 360.307 46.285 360.307 45.695V44.975ZM378.886 40.805V39.515H371.566V38.675H379.981V41.63H372.751V42.905H380.356V43.76H371.641V40.805H378.886ZM381.961 44.885V45.77H369.721V44.885H381.961ZM371.596 51.38V49.115H379.066V47.855H371.506V46.97H380.131V49.955H372.661V51.245H380.521V52.145H372.346C372.106 52.145 371.921 52.08 371.791 51.95C371.661 51.82 371.596 51.63 371.596 51.38ZM400.98 44.69V45.635H388.74V44.69H394.305V43.205H390.6V38.765H399.135V39.68H391.725V42.29H399.255V43.205H395.43V44.69H400.98ZM398.04 46.7H399.165V51.995H391.305C391.065 51.995 390.88 51.93 390.75 51.8C390.62 51.67 390.555 51.48 390.555 51.23V46.7H391.68V48.35H398.04V46.7ZM398.04 49.295H391.68V51.035H398.04V49.295ZM412.614 40.52H404.694V39.545H413.739V40.61C413.739 42.83 413.524 44.945 413.094 46.955L411.984 46.775C412.404 44.745 412.614 42.705 412.614 40.655V40.52ZM415.404 49.04V50H403.164V49.04H407.964V44.225H409.089V49.04H415.404ZM430.218 44.555H428.058V51.515H426.918V38.495H428.058V43.595H430.218V44.555ZM422.088 43.97C422.208 43.97 422.323 44.025 422.433 44.135L425.358 47.6L424.503 48.335L421.563 44.75C421.503 44.69 421.438 44.66 421.368 44.66C421.298 44.66 421.248 44.69 421.218 44.75C420.948 45.29 420.593 45.845 420.153 46.415C419.723 46.975 419.133 47.68 418.383 48.53L417.543 47.825C418.413 46.905 419.078 46.11 419.538 45.44C420.008 44.77 420.348 44.105 420.558 43.445C420.768 42.775 420.873 42.015 420.873 41.165V40.595H417.933V39.635H424.923V40.595H421.998V41.195C421.998 42.315 421.818 43.32 421.458 44.21L421.533 44.27L421.773 44.09C421.873 44.01 421.978 43.97 422.088 43.97ZM449.237 44.795H447.122V51.515H445.982V38.495H447.122V43.835H449.237V44.795ZM442.787 40.175H438.527V39.2H442.787V40.175ZM436.532 41.975H444.557V42.905H442.337V42.995C443.247 43.445 443.702 44.31 443.702 45.59C443.702 46.24 443.567 46.805 443.297 47.285C443.027 47.755 442.652 48.115 442.172 48.365C441.702 48.615 441.177 48.74 440.597 48.74C440.017 48.74 439.487 48.615 439.007 48.365C438.537 48.115 438.167 47.755 437.897 47.285C437.627 46.805 437.492 46.24 437.492 45.59C437.492 44.31 437.947 43.445 438.857 42.995V42.905H436.532V41.975ZM442.592 45.095C442.592 44.425 442.412 43.915 442.052 43.565C441.692 43.205 441.207 43.025 440.597 43.025C439.997 43.025 439.512 43.205 439.142 43.565C438.782 43.925 438.602 44.435 438.602 45.095V45.71C438.602 46.36 438.787 46.87 439.157 47.24C439.527 47.6 440.007 47.78 440.597 47.78C441.187 47.78 441.667 47.6 442.037 47.24C442.407 46.87 442.592 46.36 442.592 45.71V45.095ZM461.126 44.03H458.456V43.115H461.126V41.24H458.456V40.325H461.126V38.465H462.266V45.98H461.126V44.03ZM451.391 42.185C451.391 41.525 451.536 40.95 451.826 40.46C452.116 39.97 452.516 39.595 453.026 39.335C453.536 39.065 454.121 38.93 454.781 38.93C455.441 38.93 456.026 39.065 456.536 39.335C457.046 39.595 457.446 39.97 457.736 40.46C458.026 40.95 458.171 41.525 458.171 42.185C458.171 42.845 458.026 43.42 457.736 43.91C457.446 44.4 457.041 44.78 456.521 45.05C456.011 45.31 455.431 45.44 454.781 45.44C454.131 45.44 453.546 45.31 453.026 45.05C452.516 44.78 452.116 44.4 451.826 43.91C451.536 43.42 451.391 42.845 451.391 42.185ZM452.576 42.455C452.576 43.085 452.776 43.59 453.176 43.97C453.586 44.34 454.121 44.525 454.781 44.525C455.441 44.525 455.971 44.34 456.371 43.97C456.781 43.59 456.986 43.085 456.986 42.455V41.915C456.986 41.285 456.781 40.785 456.371 40.415C455.971 40.035 455.441 39.845 454.781 39.845C454.121 39.845 453.586 40.035 453.176 40.415C452.776 40.785 452.576 41.285 452.576 41.915V42.455ZM463.496 51.275L462.761 52.055L460.541 49.88C460.481 49.81 460.411 49.775 460.331 49.775C460.291 49.775 460.246 49.79 460.196 49.82C459.966 50.16 459.671 50.51 459.311 50.87C458.951 51.24 458.471 51.685 457.871 52.205L455.591 49.835C455.521 49.765 455.451 49.73 455.381 49.73C455.341 49.73 455.286 49.755 455.216 49.805C454.776 50.465 454.026 51.25 452.966 52.16L452.246 51.395C452.916 50.835 453.441 50.335 453.821 49.895C454.201 49.455 454.471 49.02 454.631 48.59C454.801 48.16 454.886 47.675 454.886 47.135V46.655H455.966V47.165C455.966 47.985 455.811 48.7 455.501 49.31L455.561 49.34L455.756 49.19C455.836 49.12 455.931 49.085 456.041 49.085C456.161 49.085 456.266 49.13 456.356 49.22L457.946 50.81C458.666 50.16 459.161 49.575 459.431 49.055C459.701 48.535 459.836 47.9 459.836 47.15V46.655H460.916V47.21C460.916 47.65 460.881 48.04 460.811 48.38C460.741 48.72 460.626 49.045 460.466 49.355L460.526 49.4L460.721 49.235C460.831 49.155 460.936 49.115 461.036 49.115C461.136 49.115 461.236 49.155 461.336 49.235L463.496 51.275ZM466.85 42.545C466.85 41.875 467.02 41.275 467.36 40.745C467.71 40.205 468.24 39.775 468.95 39.455C469.66 39.135 470.535 38.975 471.575 38.975C472.615 38.975 473.49 39.135 474.2 39.455C474.91 39.775 475.435 40.205 475.775 40.745C476.125 41.275 476.3 41.875 476.3 42.545C476.3 43.215 476.125 43.82 475.775 44.36C475.435 44.9 474.91 45.33 474.2 45.65C473.49 45.97 472.615 46.13 471.575 46.13C470.535 46.13 469.66 45.97 468.95 45.65C468.24 45.33 467.71 44.9 467.36 44.36C467.02 43.82 466.85 43.215 466.85 42.545ZM475.07 42.725V42.38C475.07 41.92 474.945 41.505 474.695 41.135C474.455 40.755 474.07 40.455 473.54 40.235C473.02 40.005 472.365 39.89 471.575 39.89C470.785 39.89 470.125 40.005 469.595 40.235C469.075 40.455 468.69 40.755 468.44 41.135C468.2 41.505 468.08 41.92 468.08 42.38V42.725C468.08 43.435 468.37 44.025 468.95 44.495C469.53 44.965 470.405 45.2 471.575 45.2C472.745 45.2 473.62 44.965 474.2 44.495C474.78 44.025 475.07 43.435 475.07 42.725ZM465.455 49.025H477.695V50H465.455V49.025ZM491.069 38.465V51.485H489.944V45.935H486.674V47.855H480.569V39.5H486.674V41.345H489.944V38.465H491.069ZM485.579 40.43H481.664V46.925H485.579V40.43ZM489.944 44.99V42.275H486.674V44.99H489.944ZM495.773 48.245C496.093 48.245 496.323 48.33 496.463 48.5C496.613 48.66 496.688 48.87 496.688 49.13V49.34C496.688 49.75 496.568 50.2 496.328 50.69C496.088 51.19 495.753 51.625 495.323 51.995H494.318C494.618 51.675 494.858 51.37 495.038 51.08C495.228 50.8 495.363 50.485 495.443 50.135C495.243 50.085 495.093 49.99 494.993 49.85C494.903 49.71 494.858 49.54 494.858 49.34V49.13C494.858 48.87 494.928 48.66 495.068 48.5C495.218 48.33 495.453 48.245 495.773 48.245ZM505.295 45.965L504.65 45.08C506.01 44.38 507.05 43.76 507.77 43.22C508.5 42.67 509.005 42.125 509.285 41.585C509.565 41.035 509.705 40.405 509.705 39.695V39.185H510.875V39.725C510.875 40.305 510.81 40.825 510.68 41.285C510.56 41.735 510.355 42.16 510.065 42.56L510.14 42.605L510.515 42.32C510.645 42.22 510.775 42.17 510.905 42.17C511.035 42.17 511.165 42.215 511.295 42.305L515.66 45.02L515 45.92L510.485 43.01C510.355 42.92 510.215 42.875 510.065 42.875C509.935 42.875 509.805 42.925 509.675 43.025C509.265 43.465 508.71 43.92 508.01 44.39C507.31 44.85 506.405 45.375 505.295 45.965ZM516.275 49.025V50H504.035V49.025H516.275ZM527.909 40.595V40.49H520.049V39.53H529.049V40.97C529.049 43.27 528.839 45.455 528.419 47.525L527.309 47.345C527.529 46.295 527.684 45.21 527.774 44.09L519.749 44.495L519.599 43.52L527.849 43.19C527.889 42.46 527.909 41.595 527.909 40.595ZM530.699 49.025V50H518.459V49.025H530.699ZM545.123 44.945V45.815H532.883V44.945H538.448V43.73H534.803V40.775H542.048V39.515H534.728V38.66H543.143V41.6H535.913V42.875H543.518V43.73H539.558V44.945H545.123ZM535.823 51.245H543.683V52.145H535.508C535.268 52.145 535.083 52.08 534.953 51.95C534.823 51.82 534.758 51.63 534.758 51.38V49.13H542.228V47.87H534.668V46.985H543.293V49.97H535.823V51.245ZM559.547 49.04V50H547.307V49.04H552.857V46.475H549.107V42.41H556.607V40.205H549.032V39.26H557.747V43.325H550.247V45.53H558.137V46.475H553.997V49.04H559.547ZM578.956 44.78H576.916V51.485H575.791V38.465H576.916V43.82H578.956V44.78ZM569.791 40.4H566.896V39.47H573.796V40.4H570.901C570.901 41.25 570.716 42 570.346 42.65L570.406 42.695L570.661 42.5C570.781 42.41 570.896 42.365 571.006 42.365C571.126 42.365 571.246 42.41 571.366 42.5L574.111 44.66L573.301 45.41L570.481 43.1C570.411 43.04 570.331 43.01 570.241 43.01C570.171 43.01 570.111 43.03 570.061 43.07C569.791 43.44 569.436 43.825 568.996 44.225C568.556 44.625 567.986 45.085 567.286 45.605L566.476 44.87C567.336 44.24 567.996 43.7 568.456 43.25C568.916 42.8 569.251 42.355 569.461 41.915C569.671 41.475 569.781 40.97 569.791 40.4ZM574.711 47.45L574.816 48.365C573.726 48.545 572.416 48.685 570.886 48.785C569.366 48.875 567.796 48.92 566.176 48.92L566.071 47.945C567.181 47.945 568.401 47.92 569.731 47.87V45.26H570.841V47.825C572.431 47.725 573.721 47.6 574.711 47.45ZM582.34 41.675C582.34 41.095 582.505 40.575 582.835 40.115C583.165 39.655 583.67 39.29 584.35 39.02C585.03 38.75 585.87 38.615 586.87 38.615C587.87 38.615 588.71 38.75 589.39 39.02C590.07 39.29 590.575 39.655 590.905 40.115C591.235 40.575 591.4 41.095 591.4 41.675C591.4 42.255 591.235 42.78 590.905 43.25C590.575 43.71 590.07 44.075 589.39 44.345C588.71 44.615 587.87 44.75 586.87 44.75C585.87 44.75 585.03 44.615 584.35 44.345C583.67 44.075 583.165 43.71 582.835 43.25C582.505 42.78 582.34 42.255 582.34 41.675ZM583.57 41.825C583.57 42.395 583.845 42.87 584.395 43.25C584.945 43.63 585.77 43.82 586.87 43.82C587.97 43.82 588.795 43.63 589.345 43.25C589.895 42.87 590.17 42.395 590.17 41.825V41.525C590.17 40.955 589.895 40.48 589.345 40.1C588.795 39.71 587.97 39.515 586.87 39.515C585.78 39.515 584.955 39.71 584.395 40.1C583.845 40.48 583.57 40.955 583.57 41.525V41.825ZM592.99 47.12H587.44V52.01H586.3V47.12H580.75V46.16H592.99V47.12ZM612.414 42.41V43.37H610.329V48.35H609.189V38.465H610.329V42.41H612.414ZM600.654 46.52L600.039 45.65C601.399 45.09 602.434 44.59 603.144 44.15C603.854 43.71 604.354 43.245 604.644 42.755C604.934 42.265 605.079 41.665 605.079 40.955V40.325H600.414V39.35H606.219V40.85C606.219 41.77 606.054 42.535 605.724 43.145C605.404 43.755 604.849 44.315 604.059 44.825C603.279 45.335 602.144 45.9 600.654 46.52ZM603.294 50.825H610.629V51.77H602.904C602.664 51.77 602.479 51.705 602.349 51.575C602.219 51.445 602.154 51.255 602.154 51.005V47.27H603.294V50.825ZM624.273 44.36H621.858V43.43H624.273V41.57H621.858V40.625H624.273V38.465H625.428V48.425H624.273V44.36ZM621.348 40.415H614.553V39.47H621.348V40.415ZM621.948 45.98C621.018 46.12 619.873 46.23 618.513 46.31C617.163 46.38 615.763 46.415 614.313 46.415L614.208 45.485C614.598 45.485 615.193 45.475 615.993 45.455L615.633 41.48L616.743 41.39L617.013 45.44C617.413 45.43 618.028 45.405 618.858 45.365L619.188 41.36L620.283 41.465L619.878 45.29C620.498 45.25 621.148 45.185 621.828 45.095L621.948 45.98ZM625.698 50.825V51.77H617.808C617.568 51.77 617.383 51.705 617.253 51.575C617.123 51.445 617.058 51.255 617.058 51.005V47.645H618.198V50.825H625.698ZM641.247 44.795H639.132V51.515H637.992V38.495H639.132V43.835H641.247V44.795ZM634.797 40.175H630.537V39.2H634.797V40.175ZM628.542 41.975H636.567V42.905H634.347V42.995C635.257 43.445 635.712 44.31 635.712 45.59C635.712 46.24 635.577 46.805 635.307 47.285C635.037 47.755 634.662 48.115 634.182 48.365C633.712 48.615 633.187 48.74 632.607 48.74C632.027 48.74 631.497 48.615 631.017 48.365C630.547 48.115 630.177 47.755 629.907 47.285C629.637 46.805 629.502 46.24 629.502 45.59C629.502 44.31 629.957 43.445 630.867 42.995V42.905H628.542V41.975ZM634.602 45.095C634.602 44.425 634.422 43.915 634.062 43.565C633.702 43.205 633.217 43.025 632.607 43.025C632.007 43.025 631.522 43.205 631.152 43.565C630.792 43.925 630.612 44.435 630.612 45.095V45.71C630.612 46.36 630.797 46.87 631.167 47.24C631.537 47.6 632.017 47.78 632.607 47.78C633.197 47.78 633.677 47.6 634.047 47.24C634.417 46.87 634.602 46.36 634.602 45.71V45.095ZM654.606 38.465V51.485H653.496V38.465H654.606ZM650.481 38.69H651.576V51.125H650.481V44.51H648.216C647.936 45.25 647.476 45.945 646.836 46.595C646.206 47.235 645.291 47.955 644.091 48.755L643.341 47.99C644.471 47.26 645.331 46.61 645.921 46.04C646.511 45.46 646.926 44.855 647.166 44.225C647.406 43.585 647.526 42.8 647.526 41.87V40.715H643.686V39.8H648.621V41.84C648.621 42.49 648.571 43.065 648.471 43.565H650.481V38.69ZM672.08 38.465H673.22V51.485H672.08V38.465ZM662.45 43.73C662.45 42.27 662.77 41.165 663.41 40.415C664.06 39.665 664.915 39.29 665.975 39.29C667.025 39.29 667.87 39.665 668.51 40.415C669.16 41.165 669.485 42.27 669.485 43.73C669.485 44.71 669.335 45.535 669.035 46.205C668.735 46.865 668.32 47.36 667.79 47.69C667.26 48.01 666.655 48.17 665.975 48.17C664.915 48.17 664.06 47.795 663.41 47.045C662.77 46.295 662.45 45.19 662.45 43.73ZM668.27 44.315V43.145C668.27 42.215 668.055 41.5 667.625 41C667.205 40.5 666.655 40.25 665.975 40.25C665.285 40.25 664.725 40.5 664.295 41C663.875 41.49 663.665 42.205 663.665 43.145V44.315C663.665 45.255 663.875 45.975 664.295 46.475C664.725 46.965 665.285 47.21 665.975 47.21C666.655 47.21 667.205 46.96 667.625 46.46C668.055 45.96 668.27 45.245 668.27 44.315ZM688.724 44.975V45.95H676.484V44.975H682.049V43.415H678.344V38.825H686.879V39.755H679.469V42.47H686.999V43.415H683.174V44.975H688.724ZM687.029 49.685C687.029 50.195 686.864 50.645 686.534 51.035C686.204 51.425 685.704 51.73 685.034 51.95C684.374 52.18 683.564 52.295 682.604 52.295C681.644 52.295 680.829 52.18 680.159 51.95C679.499 51.73 679.004 51.425 678.674 51.035C678.344 50.645 678.179 50.195 678.179 49.685C678.179 49.185 678.344 48.745 678.674 48.365C679.014 47.975 679.514 47.67 680.174 47.45C680.834 47.23 681.644 47.12 682.604 47.12C683.564 47.12 684.374 47.23 685.034 47.45C685.694 47.67 686.189 47.975 686.519 48.365C686.859 48.745 687.029 49.185 687.029 49.685ZM685.829 49.595C685.829 49.155 685.559 48.785 685.019 48.485C684.489 48.175 683.684 48.02 682.604 48.02C681.524 48.02 680.714 48.175 680.174 48.485C679.634 48.785 679.364 49.155 679.364 49.595V49.805C679.364 50.245 679.634 50.615 680.174 50.915C680.714 51.225 681.524 51.38 682.604 51.38C683.684 51.38 684.489 51.225 685.019 50.915C685.559 50.615 685.829 50.245 685.829 49.805V49.595ZM703.553 41.825V42.785H701.468V45.815H700.328V38.465H701.468V41.825H703.553ZM696.893 39.62H692.888V38.705H696.893V39.62ZM694.793 45.605C693.853 45.605 693.098 45.425 692.528 45.065C691.968 44.695 691.688 44.21 691.688 43.61C691.688 42.83 692.098 42.285 692.918 41.975V41.885H690.698V41H698.828V41.885H696.668V41.975C697.488 42.285 697.898 42.83 697.898 43.61C697.898 44.21 697.613 44.695 697.043 45.065C696.483 45.425 695.733 45.605 694.793 45.605ZM694.613 44.69H694.973C695.523 44.69 695.973 44.57 696.323 44.33C696.673 44.09 696.848 43.755 696.848 43.325C696.848 42.895 696.673 42.56 696.323 42.32C695.983 42.08 695.533 41.96 694.973 41.96H694.613C694.053 41.96 693.598 42.08 693.248 42.32C692.908 42.56 692.738 42.895 692.738 43.325C692.738 43.755 692.913 44.09 693.263 44.33C693.613 44.57 694.063 44.69 694.613 44.69ZM694.313 51.17H701.828V52.1H693.953C693.713 52.1 693.528 52.035 693.398 51.905C693.268 51.775 693.203 51.585 693.203 51.335V48.89H700.358V47.51H693.113V46.595H701.468V49.79H694.313V51.17ZM711.277 44.735L710.647 43.865C711.967 43.265 712.977 42.725 713.677 42.245C714.377 41.765 714.862 41.29 715.132 40.82C715.412 40.35 715.552 39.805 715.552 39.185V38.72H716.722V39.215C716.722 39.725 716.657 40.18 716.527 40.58C716.407 40.98 716.212 41.36 715.942 41.72L716.017 41.75L716.407 41.465C716.537 41.365 716.672 41.315 716.812 41.315C716.942 41.315 717.062 41.35 717.172 41.42L721.462 43.805L720.817 44.69L716.362 42.125C716.222 42.045 716.087 42.005 715.957 42.005C715.817 42.005 715.682 42.055 715.552 42.155L715.537 42.17C715.137 42.56 714.597 42.955 713.917 43.355C713.247 43.755 712.367 44.215 711.277 44.735ZM722.167 47.135H716.617V52.01H715.477V47.135H709.927V46.175H722.167V47.135ZM740.181 45.98H739.026V38.465H740.181V45.98ZM729.381 42.2C729.381 41.54 729.526 40.965 729.816 40.475C730.116 39.985 730.526 39.61 731.046 39.35C731.566 39.08 732.161 38.945 732.831 38.945C733.501 38.945 734.096 39.08 734.616 39.35C735.136 39.61 735.541 39.985 735.831 40.475C736.131 40.965 736.281 41.54 736.281 42.2C736.281 42.86 736.131 43.435 735.831 43.925C735.541 44.415 735.131 44.795 734.601 45.065C734.081 45.325 733.491 45.455 732.831 45.455C732.171 45.455 731.576 45.325 731.046 45.065C730.526 44.795 730.116 44.415 729.816 43.925C729.526 43.435 729.381 42.86 729.381 42.2ZM730.581 42.455C730.581 43.075 730.786 43.575 731.196 43.955C731.616 44.325 732.161 44.51 732.831 44.51C733.501 44.51 734.041 44.325 734.451 43.955C734.861 43.575 735.066 43.075 735.066 42.455V41.93C735.066 41.31 734.861 40.815 734.451 40.445C734.041 40.075 733.501 39.89 732.831 39.89C732.161 39.89 731.616 40.075 731.196 40.445C730.786 40.815 730.581 41.31 730.581 41.93V42.455ZM741.411 51.275L740.676 52.055L738.456 49.88C738.396 49.81 738.326 49.775 738.246 49.775C738.206 49.775 738.161 49.79 738.111 49.82C737.881 50.16 737.586 50.51 737.226 50.87C736.866 51.24 736.386 51.685 735.786 52.205L733.506 49.835C733.436 49.765 733.366 49.73 733.296 49.73C733.256 49.73 733.201 49.755 733.131 49.805C732.691 50.465 731.941 51.25 730.881 52.16L730.161 51.395C730.831 50.835 731.356 50.335 731.736 49.895C732.116 49.455 732.386 49.02 732.546 48.59C732.716 48.16 732.801 47.675 732.801 47.135V46.655H733.881V47.165C733.881 47.985 733.726 48.7 733.416 49.31L733.476 49.34L733.671 49.19C733.751 49.12 733.846 49.085 733.956 49.085C734.076 49.085 734.181 49.13 734.271 49.22L735.861 50.81C736.581 50.16 737.076 49.575 737.346 49.055C737.616 48.535 737.751 47.9 737.751 47.15V46.655H738.831V47.21C738.831 47.65 738.796 48.04 738.726 48.38C738.656 48.72 738.541 49.045 738.381 49.355L738.441 49.4L738.636 49.235C738.746 49.155 738.851 49.115 738.951 49.115C739.051 49.115 739.151 49.155 739.251 49.235L741.411 51.275ZM744.975 41.15C744.975 40.36 745.35 39.725 746.1 39.245C746.86 38.755 747.99 38.51 749.49 38.51C750.99 38.51 752.115 38.755 752.865 39.245C753.625 39.725 754.005 40.36 754.005 41.15C754.005 41.94 753.625 42.58 752.865 43.07C752.115 43.55 750.99 43.79 749.49 43.79C747.99 43.79 746.86 43.55 746.1 43.07C745.35 42.58 744.975 41.94 744.975 41.15ZM752.79 41.255V41.045C752.79 40.565 752.515 40.17 751.965 39.86C751.425 39.55 750.6 39.395 749.49 39.395C748.38 39.395 747.55 39.55 747 39.86C746.46 40.17 746.19 40.565 746.19 41.045V41.255C746.19 41.725 746.465 42.115 747.015 42.425C747.565 42.735 748.39 42.89 749.49 42.89C750.59 42.89 751.415 42.735 751.965 42.425C752.515 42.115 752.79 41.725 752.79 41.255ZM755.61 44.915V45.89H743.37V44.915H755.61ZM745.185 51.23V47.3H753.795V51.995H745.935C745.695 51.995 745.51 51.93 745.38 51.8C745.25 51.67 745.185 51.48 745.185 51.23ZM752.67 48.23H746.31V51.05H752.67V48.23Z" fill="#1B1C25"/>
<path d="M1.35 13.445V12.245L7.65 8.51V9.77L2.475 12.785V12.905L7.65 15.92V17.18L1.35 13.445ZM10.9441 17V15.95H12.4141V7.58H10.9441V6.53H15.1441V7.58H13.6741V15.95H15.1441V17H10.9441ZM24.5449 17L21.9949 6.53H23.3299L24.4549 11.57L25.3249 15.485H25.3549L26.3299 11.57L27.6499 6.53H29.0899L30.3649 11.57L31.3399 15.47H31.3849L32.2849 11.57L33.4699 6.53H34.7599L32.0749 17H30.6799L29.3149 11.78L28.3549 7.94H28.3249L27.3349 11.78L25.9399 17H24.5449ZM37.0043 17V15.95H38.4743V7.58H37.0043V6.53H41.2043V7.58H39.7343V15.95H41.2043V17H37.0043ZM44.5552 17V6.53H45.8152V15.89H50.2702V17H44.5552ZM53.1198 17V6.53H54.3798V15.89H58.8348V17H53.1198ZM73.0594 15.47H73.0144C72.8844 15.96 72.5644 16.37 72.0544 16.7C71.5544 17.02 70.9044 17.18 70.1044 17.18C69.4644 17.18 68.8744 17.065 68.3344 16.835C67.8044 16.595 67.3494 16.25 66.9694 15.8C66.5894 15.34 66.2894 14.775 66.0694 14.105C65.8594 13.425 65.7544 12.645 65.7544 11.765C65.7544 10.895 65.8594 10.125 66.0694 9.455C66.2794 8.775 66.5794 8.21 66.9694 7.76C67.3594 7.3 67.8294 6.95 68.3794 6.71C68.9294 6.47 69.5394 6.35 70.2094 6.35C71.1494 6.35 71.9344 6.56 72.5644 6.98C73.1944 7.4 73.6794 7.955 74.0194 8.645L72.9844 9.275C72.7444 8.715 72.3844 8.275 71.9044 7.955C71.4344 7.635 70.8694 7.475 70.2094 7.475C69.7494 7.475 69.3294 7.56 68.9494 7.73C68.5694 7.89 68.2394 8.12 67.9594 8.42C67.6894 8.72 67.4794 9.08 67.3294 9.5C67.1794 9.92 67.1044 10.39 67.1044 10.91V12.605C67.1044 13.125 67.1794 13.6 67.3294 14.03C67.4794 14.45 67.6894 14.81 67.9594 15.11C68.2394 15.41 68.5794 15.645 68.9794 15.815C69.3794 15.975 69.8294 16.055 70.3294 16.055C70.6894 16.055 71.0294 16.01 71.3494 15.92C71.6794 15.82 71.9644 15.675 72.2044 15.485C72.4544 15.295 72.6494 15.06 72.7894 14.78C72.9294 14.49 72.9994 14.15 72.9994 13.76V12.725H70.6894V11.615H74.2294V17H73.0594V15.47ZM79.0191 17H77.7591V6.53H81.9291C82.8491 6.53 83.5641 6.785 84.0741 7.295C84.5941 7.805 84.8541 8.54 84.8541 9.5C84.8541 10.27 84.6741 10.905 84.3141 11.405C83.9641 11.895 83.4441 12.22 82.7541 12.38L85.1541 17H83.7291L81.4641 12.5H79.0191V17ZM81.9291 11.42C82.4291 11.42 82.8141 11.29 83.0841 11.03C83.3641 10.77 83.5041 10.4 83.5041 9.92V9.14C83.5041 8.66 83.3641 8.29 83.0841 8.03C82.8141 7.77 82.4291 7.64 81.9291 7.64H79.0191V11.42H81.9291ZM87.9088 17V15.95H89.3788V7.58H87.9088V6.53H92.1088V7.58H90.6388V15.95H92.1088V17H87.9088ZM98.8821 7.64V17H97.6221V7.64H94.2921V6.53H102.212V7.64H98.8821ZM104.946 15.92L110.121 12.905V12.785L104.946 9.77V8.51L111.246 12.245V13.445L104.946 17.18V15.92ZM130.37 5.465V18.485H129.29V5.465H130.37ZM126.38 5.69H127.445V18.125H126.38V11.39H124.73V10.445H126.38V5.69ZM125.03 7.715H118.91V6.77H125.03V7.715ZM125.36 13.865L125.465 14.75C124.635 14.91 123.62 15.035 122.42 15.125C121.23 15.205 120.005 15.245 118.745 15.245L118.64 14.3C119.37 14.3 119.92 14.295 120.29 14.285L119.915 8.93L120.965 8.825L121.25 14.255C121.59 14.245 122.04 14.22 122.6 14.18L122.975 8.81L124.025 8.915L123.575 14.12C124.365 14.03 124.96 13.945 125.36 13.865ZM143.249 5.465H144.389V18.485H143.249V5.465ZM133.619 10.73C133.619 9.27 133.939 8.165 134.579 7.415C135.229 6.665 136.084 6.29 137.144 6.29C138.194 6.29 139.039 6.665 139.679 7.415C140.329 8.165 140.654 9.27 140.654 10.73C140.654 11.71 140.504 12.535 140.204 13.205C139.904 13.865 139.489 14.36 138.959 14.69C138.429 15.01 137.824 15.17 137.144 15.17C136.084 15.17 135.229 14.795 134.579 14.045C133.939 13.295 133.619 12.19 133.619 10.73ZM139.439 11.315V10.145C139.439 9.215 139.224 8.5 138.794 8C138.374 7.5 137.824 7.25 137.144 7.25C136.454 7.25 135.894 7.5 135.464 8C135.044 8.49 134.834 9.205 134.834 10.145V11.315C134.834 12.255 135.044 12.975 135.464 13.475C135.894 13.965 136.454 14.21 137.144 14.21C137.824 14.21 138.374 13.96 138.794 13.46C139.224 12.96 139.439 12.245 139.439 11.315ZM158.813 5.465V18.485H157.673V5.465H158.813ZM152.543 10.97C152.683 10.97 152.798 11.025 152.888 11.135L155.828 14.585L154.973 15.32L152.003 11.75C151.953 11.69 151.893 11.66 151.823 11.66C151.763 11.66 151.708 11.69 151.658 11.75C151.388 12.3 151.033 12.86 150.593 13.43C150.153 14 149.553 14.7 148.793 15.53L147.938 14.81C148.808 13.9 149.478 13.11 149.948 12.44C150.428 11.77 150.773 11.105 150.983 10.445C151.193 9.775 151.298 9.015 151.298 8.165V7.595H148.343V6.635H155.378V7.595H152.438V8.21C152.438 9.34 152.263 10.345 151.913 11.225L151.988 11.27L152.213 11.09C152.323 11.01 152.433 10.97 152.543 10.97ZM173.642 5.465V18.485H172.547V5.465H173.642ZM169.592 5.69H170.657V18.125H169.592V11.3H168.152C168.102 12.6 167.812 13.58 167.282 14.24C166.752 14.89 166.052 15.215 165.182 15.215C164.252 15.215 163.517 14.855 162.977 14.135C162.437 13.405 162.167 12.32 162.167 10.88C162.167 9.44 162.437 8.36 162.977 7.64C163.517 6.91 164.252 6.545 165.182 6.545C166.042 6.545 166.732 6.865 167.252 7.505C167.782 8.145 168.082 9.095 168.152 10.355H169.592V5.69ZM167.012 10.16C167.012 9.28 166.842 8.61 166.502 8.15C166.172 7.69 165.732 7.46 165.182 7.46C164.622 7.46 164.172 7.69 163.832 8.15C163.502 8.61 163.337 9.28 163.337 10.16V11.615C163.337 12.485 163.502 13.155 163.832 13.625C164.172 14.085 164.622 14.315 165.182 14.315C165.732 14.315 166.172 14.085 166.502 13.625C166.842 13.155 167.012 12.485 167.012 11.615V10.16ZM187.676 5.465V18.485H186.551V10.79H183.776V9.83H186.551V5.465H187.676ZM181.181 10.715C181.301 10.715 181.406 10.77 181.496 10.88L184.436 14.63L183.566 15.395L180.626 11.525C180.586 11.475 180.536 11.45 180.476 11.45C180.416 11.45 180.366 11.475 180.326 11.525C180.076 12.105 179.731 12.7 179.291 13.31C178.851 13.92 178.251 14.68 177.491 15.59L176.621 14.855C177.491 13.865 178.156 13.02 178.616 12.32C179.086 11.61 179.421 10.9 179.621 10.19C179.831 9.48 179.936 8.665 179.936 7.745V6.335H181.076V7.73C181.076 8.94 180.911 10.02 180.581 10.97L180.641 11.015L180.851 10.835C180.961 10.755 181.071 10.715 181.181 10.715ZM201.425 10.655H192.8V5.945H193.925V9.71H201.425V10.655ZM203.165 12.32V13.295H190.925V12.32H203.165ZM193.82 17.795H201.59V18.755H193.43C193.19 18.755 193.005 18.69 192.875 18.56C192.745 18.43 192.68 18.24 192.68 17.99V14.705H193.82V17.795ZM221.104 5.465V18.485H219.964V5.465H221.104ZM218.089 13.685L218.239 14.6C216.689 14.91 214.759 15.065 212.449 15.065H210.844V6.53H216.889V7.49H211.999V14.105H212.419C214.709 14.105 216.599 13.965 218.089 13.685ZM236.998 11.555H234.838V18.515H233.698V5.495H234.838V10.595H236.998V11.555ZM228.868 10.97C228.988 10.97 229.103 11.025 229.213 11.135L232.138 14.6L231.283 15.335L228.343 11.75C228.283 11.69 228.218 11.66 228.148 11.66C228.078 11.66 228.028 11.69 227.998 11.75C227.728 12.29 227.373 12.845 226.933 13.415C226.503 13.975 225.913 14.68 225.163 15.53L224.323 14.825C225.193 13.905 225.858 13.11 226.318 12.44C226.788 11.77 227.128 11.105 227.338 10.445C227.548 9.775 227.653 9.015 227.653 8.165V7.595H224.713V6.635H231.703V7.595H228.778V8.195C228.778 9.315 228.598 10.32 228.238 11.21L228.313 11.27L228.553 11.09C228.653 11.01 228.758 10.97 228.868 10.97ZM248.812 5.465H249.952V18.485H248.812V5.465ZM239.182 10.73C239.182 9.27 239.502 8.165 240.142 7.415C240.792 6.665 241.647 6.29 242.707 6.29C243.757 6.29 244.602 6.665 245.242 7.415C245.892 8.165 246.217 9.27 246.217 10.73C246.217 11.71 246.067 12.535 245.767 13.205C245.467 13.865 245.052 14.36 244.522 14.69C243.992 15.01 243.387 15.17 242.707 15.17C241.647 15.17 240.792 14.795 240.142 14.045C239.502 13.295 239.182 12.19 239.182 10.73ZM245.002 11.315V10.145C245.002 9.215 244.787 8.5 244.357 8C243.937 7.5 243.387 7.25 242.707 7.25C242.017 7.25 241.457 7.5 241.027 8C240.607 8.49 240.397 9.205 240.397 10.145V11.315C240.397 12.255 240.607 12.975 241.027 13.475C241.457 13.965 242.017 14.21 242.707 14.21C243.387 14.21 243.937 13.96 244.357 13.46C244.787 12.96 245.002 12.245 245.002 11.315ZM264.391 5.465V18.485H263.266V10.475H259.321V9.515H263.266V5.465H264.391ZM261.151 13.535L261.301 14.465C259.811 14.785 257.916 14.945 255.616 14.945H254.041V6.515H255.166V13.985H255.616C257.826 13.985 259.671 13.835 261.151 13.535ZM280.27 11.555H278.11V18.515H276.97V5.495H278.11V10.595H280.27V11.555ZM268.285 6.53H274.12V8.615C274.12 9.725 273.955 10.665 273.625 11.435C273.295 12.205 272.735 12.925 271.945 13.595C271.165 14.255 270.045 14.98 268.585 15.77L267.91 14.915C269.27 14.195 270.31 13.54 271.03 12.95C271.75 12.36 272.255 11.735 272.545 11.075C272.835 10.415 272.98 9.6 272.98 8.63V7.505H268.285V6.53ZM297.834 5.465V18.485H296.709V5.465H297.834ZM295.629 14.45L295.734 15.365C294.604 15.545 293.249 15.685 291.669 15.785C290.089 15.875 288.459 15.92 286.779 15.92L286.689 14.945C288.149 14.945 289.394 14.92 290.424 14.87V11.96H287.799V6.47H294.264V7.415H288.924V11.015H294.384V11.96H291.519V14.825C293.039 14.755 294.409 14.63 295.629 14.45ZM310.533 7.52H302.613V6.545H311.658V7.61C311.658 9.83 311.443 11.945 311.013 13.955L309.903 13.775C310.323 11.745 310.533 9.705 310.533 7.655V7.52ZM313.323 16.04V17H301.083V16.04H305.883V11.225H307.008V16.04H313.323ZM332.747 9.41V10.37H330.662V15.35H329.522V5.465H330.662V9.41H332.747ZM328.037 12.2C327.307 12.35 326.432 12.47 325.412 12.56C324.402 12.65 323.327 12.695 322.187 12.695H320.672V6.35H321.797V11.735H322.187C323.277 11.735 324.317 11.695 325.307 11.615C326.297 11.535 327.157 11.42 327.887 11.27L328.037 12.2ZM323.627 17.825H330.962V18.77H323.237C322.997 18.77 322.812 18.705 322.682 18.575C322.552 18.445 322.487 18.255 322.487 18.005V14.27H323.627V17.825ZM339.871 17V15.89H342.796V7.46H342.691L340.051 9.92L339.316 9.125L342.091 6.53H344.056V15.89H346.756V17H339.871ZM359.26 10.685H355.525V9.77H359.26V8.015H355.525V7.1H359.26V5.465H360.4V15.35H359.26V10.685ZM356.935 12.635C356.255 12.785 355.44 12.905 354.49 12.995C353.54 13.075 352.52 13.115 351.43 13.115H349.99V6.275H351.115V12.185H351.475C352.485 12.185 353.455 12.145 354.385 12.065C355.315 11.985 356.12 11.875 356.8 11.735L356.935 12.635ZM360.67 17.825V18.77H352.81C352.57 18.77 352.385 18.705 352.255 18.575C352.125 18.445 352.06 18.255 352.06 18.005V14.54H353.215V17.825H360.67ZM376.674 6.575H371.934V5.615H376.674V6.575ZM371.829 9.02H368.964V8.09H379.644V9.02H376.779V9.11C377.719 9.43 378.189 9.995 378.189 10.805C378.189 11.415 377.869 11.92 377.229 12.32C376.599 12.72 375.624 12.92 374.304 12.92C372.984 12.92 372.004 12.72 371.364 12.32C370.734 11.92 370.419 11.415 370.419 10.805C370.419 9.995 370.889 9.43 371.829 9.11V9.02ZM377.034 10.535C377.034 10.095 376.829 9.745 376.419 9.485C376.019 9.215 375.414 9.08 374.604 9.08H374.004C373.194 9.08 372.584 9.215 372.174 9.485C371.774 9.745 371.574 10.095 371.574 10.535C371.574 10.975 371.774 11.325 372.174 11.585C372.584 11.845 373.194 11.975 374.004 11.975H374.604C375.414 11.975 376.019 11.845 376.419 11.585C376.829 11.325 377.034 10.975 377.034 10.535ZM380.424 14.915H374.874V19.01H373.734V14.915H368.184V13.955H380.424V14.915ZM393.063 11.66H384.393V5.795H385.518V7.775H391.938V5.795H393.063V11.66ZM391.938 8.72H385.518V10.715H391.938V8.72ZM394.848 14.255H389.298V19.01H388.158V14.255H382.608V13.28H394.848V14.255ZM408.207 5.465V18.485H407.082V11.195H404.397V10.235H407.082V5.465H408.207ZM405.012 13.91L405.147 14.825C403.677 15.125 401.782 15.275 399.462 15.275H397.887V6.455H403.782V7.4H399.012V10.295H403.512V11.225H399.012V14.345H399.507C401.667 14.345 403.502 14.2 405.012 13.91ZM427.226 5.465V18.485H426.101V5.465H427.226ZM422.561 6.89H418.541V5.975H422.561V6.89ZM419.981 9.14H417.026V8.225H424.031V9.14H421.106C421.076 9.78 420.891 10.35 420.551 10.85L420.626 10.895L420.911 10.7C421.031 10.61 421.151 10.565 421.271 10.565C421.391 10.565 421.501 10.6 421.601 10.67L424.331 12.365L423.536 13.1L420.701 11.27C420.641 11.22 420.556 11.195 420.446 11.195C420.336 11.195 420.251 11.22 420.191 11.27C419.921 11.56 419.571 11.865 419.141 12.185C418.711 12.495 418.151 12.855 417.461 13.265L416.666 12.56C417.496 12.1 418.141 11.695 418.601 11.345C419.061 10.985 419.396 10.635 419.606 10.295C419.826 9.945 419.951 9.56 419.981 9.14ZM425.021 14.6L425.126 15.5C423.996 15.68 422.636 15.82 421.046 15.92C419.466 16.01 417.841 16.055 416.171 16.055L416.066 15.095C417.246 15.095 418.546 15.07 419.966 15.02V12.89H421.061V14.975C422.681 14.875 424.001 14.75 425.021 14.6ZM436.055 6.755H431.93V5.84H441.26V6.755H437.18C437.16 7.445 436.945 8.03 436.535 8.51L436.61 8.54L436.925 8.315C437.055 8.215 437.185 8.165 437.315 8.165C437.425 8.165 437.54 8.195 437.66 8.255L441.815 10.145L441.215 10.985L436.865 8.93C436.735 8.86 436.6 8.825 436.46 8.825C436.33 8.825 436.21 8.86 436.1 8.93C435.72 9.25 435.2 9.575 434.54 9.905C433.88 10.235 433.02 10.605 431.96 11.015L431.375 10.19C432.565 9.75 433.49 9.355 434.15 9.005C434.81 8.655 435.285 8.305 435.575 7.955C435.865 7.605 436.025 7.205 436.055 6.755ZM442.715 12.185V13.16H430.475V12.185H436.025V10.46H437.165V12.185H442.715ZM441.035 16.73C441.035 17.23 440.865 17.67 440.525 18.05C440.195 18.44 439.695 18.745 439.025 18.965C438.365 19.185 437.555 19.295 436.595 19.295C435.635 19.295 434.82 19.185 434.15 18.965C433.49 18.745 432.99 18.44 432.65 18.05C432.32 17.67 432.155 17.23 432.155 16.73C432.155 16.24 432.32 15.805 432.65 15.425C432.99 15.035 433.49 14.735 434.15 14.525C434.82 14.305 435.635 14.195 436.595 14.195C437.555 14.195 438.365 14.305 439.025 14.525C439.695 14.735 440.195 15.035 440.525 15.425C440.865 15.805 441.035 16.24 441.035 16.73ZM439.85 16.64C439.85 16.19 439.58 15.82 439.04 15.53C438.51 15.23 437.695 15.08 436.595 15.08C435.505 15.08 434.685 15.23 434.135 15.53C433.595 15.83 433.325 16.2 433.325 16.64V16.85C433.325 17.28 433.595 17.645 434.135 17.945C434.685 18.245 435.505 18.395 436.595 18.395C437.685 18.395 438.5 18.245 439.04 17.945C439.58 17.645 439.85 17.28 439.85 16.85V16.64ZM456.134 5.465V13.355H454.994V9.74H452.264V8.81H454.994V5.465H456.134ZM446.084 13.025L445.229 12.305C446.069 11.615 446.719 11.025 447.179 10.535C447.639 10.035 447.969 9.545 448.169 9.065C448.379 8.585 448.484 8.04 448.484 7.43V7.265H445.619V6.305H452.459V7.265H449.624V7.49C449.624 8.34 449.449 9.095 449.099 9.755L449.189 9.8L449.429 9.635C449.539 9.545 449.649 9.5 449.759 9.5C449.889 9.5 450.004 9.545 450.104 9.635L452.894 12.035L452.054 12.785L449.219 10.28C449.139 10.22 449.064 10.19 448.994 10.19C448.914 10.19 448.844 10.22 448.784 10.28C448.524 10.67 448.189 11.07 447.779 11.48C447.369 11.88 446.804 12.395 446.084 13.025ZM447.539 14.165H456.134V19.145H455.009V15.125H447.539V14.165ZM460.718 9.545C460.718 8.875 460.888 8.275 461.228 7.745C461.578 7.205 462.108 6.775 462.818 6.455C463.528 6.135 464.403 5.975 465.443 5.975C466.483 5.975 467.358 6.135 468.068 6.455C468.778 6.775 469.303 7.205 469.643 7.745C469.993 8.275 470.168 8.875 470.168 9.545C470.168 10.215 469.993 10.82 469.643 11.36C469.303 11.9 468.778 12.33 468.068 12.65C467.358 12.97 466.483 13.13 465.443 13.13C464.403 13.13 463.528 12.97 462.818 12.65C462.108 12.33 461.578 11.9 461.228 11.36C460.888 10.82 460.718 10.215 460.718 9.545ZM468.938 9.725V9.38C468.938 8.92 468.813 8.505 468.563 8.135C468.323 7.755 467.938 7.455 467.408 7.235C466.888 7.005 466.233 6.89 465.443 6.89C464.653 6.89 463.993 7.005 463.463 7.235C462.943 7.455 462.558 7.755 462.308 8.135C462.068 8.505 461.948 8.92 461.948 9.38V9.725C461.948 10.435 462.238 11.025 462.818 11.495C463.398 11.965 464.273 12.2 465.443 12.2C466.613 12.2 467.488 11.965 468.068 11.495C468.648 11.025 468.938 10.435 468.938 9.725ZM459.323 16.025H471.563V17H459.323V16.025ZM485.987 16.04V17H473.747V16.04H479.297V13.475H475.547V9.41H483.047V7.205H475.472V6.26H484.187V10.325H476.687V12.53H484.577V13.475H480.437V16.04H485.987ZM502.786 5.465H503.926V18.485H502.786V5.465ZM493.156 10.73C493.156 9.27 493.476 8.165 494.116 7.415C494.766 6.665 495.621 6.29 496.681 6.29C497.731 6.29 498.576 6.665 499.216 7.415C499.866 8.165 500.191 9.27 500.191 10.73C500.191 11.71 500.041 12.535 499.741 13.205C499.441 13.865 499.026 14.36 498.496 14.69C497.966 15.01 497.361 15.17 496.681 15.17C495.621 15.17 494.766 14.795 494.116 14.045C493.476 13.295 493.156 12.19 493.156 10.73ZM498.976 11.315V10.145C498.976 9.215 498.761 8.5 498.331 8C497.911 7.5 497.361 7.25 496.681 7.25C495.991 7.25 495.431 7.5 495.001 8C494.581 8.49 494.371 9.205 494.371 10.145V11.315C494.371 12.255 494.581 12.975 495.001 13.475C495.431 13.965 495.991 14.21 496.681 14.21C497.361 14.21 497.911 13.96 498.331 13.46C498.761 12.96 498.976 12.245 498.976 11.315ZM516.385 6.8H509.02V5.855H517.51V9.425H510.235V11.15H517.885V12.095H509.095V8.525H516.385V6.8ZM519.43 14.54H513.88V19.01H512.74V14.54H507.19V13.58H519.43V14.54ZM531.064 7.52H523.144V6.545H532.189V7.61C532.189 9.83 531.974 11.945 531.544 13.955L530.434 13.775C530.854 11.745 531.064 9.705 531.064 7.655V7.52ZM533.854 16.04V17H521.614V16.04H526.414V11.225H527.539V16.04H533.854ZM551.868 12.89H550.713V5.465H551.868V12.89ZM544.683 9.68C544.613 9.68 544.548 9.715 544.488 9.785C544.228 10.205 543.888 10.64 543.468 11.09C543.048 11.53 542.468 12.09 541.728 12.77L540.873 12.035C541.733 11.285 542.393 10.645 542.853 10.115C543.313 9.575 543.643 9.045 543.843 8.525C544.053 7.995 544.158 7.395 544.158 6.725V5.9H545.313V6.785C545.313 7.735 545.138 8.565 544.788 9.275L544.863 9.32L545.103 9.11C545.213 9.02 545.318 8.975 545.418 8.975C545.538 8.975 545.648 9.025 545.748 9.125L548.628 11.75L547.803 12.545L544.893 9.77C544.833 9.71 544.763 9.68 544.683 9.68ZM543.258 13.7H552.093V14.63H543.258V13.7ZM552.213 18.08V18.98H543.123V18.08H545.328L544.863 15.44L546.003 15.335L546.378 18.08H548.973L549.348 15.335L550.488 15.44L550.023 18.08H552.213ZM556.662 8.48C556.662 7.94 556.827 7.46 557.157 7.04C557.487 6.61 557.987 6.275 558.657 6.035C559.337 5.785 560.177 5.66 561.177 5.66C562.177 5.66 563.012 5.785 563.682 6.035C564.362 6.275 564.867 6.61 565.197 7.04C565.527 7.46 565.692 7.94 565.692 8.48C565.692 9.32 565.312 10 564.552 10.52C563.792 11.04 562.667 11.3 561.177 11.3C559.687 11.3 558.562 11.04 557.802 10.52C557.042 10 556.662 9.32 556.662 8.48ZM564.477 8.6V8.345C564.477 7.825 564.202 7.395 563.652 7.055C563.102 6.715 562.277 6.545 561.177 6.545C560.077 6.545 559.252 6.715 558.702 7.055C558.152 7.395 557.877 7.825 557.877 8.345V8.6C557.877 9.12 558.152 9.55 558.702 9.89C559.252 10.23 560.077 10.4 561.177 10.4C562.277 10.4 563.102 10.23 563.652 9.89C564.202 9.55 564.477 9.12 564.477 8.6ZM567.297 12.575V13.565H555.057V12.575H567.297ZM556.812 17.99V14.825H557.952V17.795H565.722V18.755H557.562C557.322 18.755 557.137 18.69 557.007 18.56C556.877 18.43 556.812 18.24 556.812 17.99ZM586.316 12.17V13.115H574.076V12.17H579.626V10.55H575.906V5.78H584.486V10.55H580.766V12.17H586.316ZM577.031 9.635H583.361V6.695H577.031V9.635ZM575.771 14.555H584.486V19.085H583.346V15.5H575.771V14.555ZM599.405 7.235H589.82V6.275H599.405V7.235ZM599.54 12.74H589.7V11.795H592.07L591.575 8.465L592.73 8.345L593.135 11.795H596.09L596.495 8.345L597.665 8.465L597.155 11.795H599.54V12.74ZM600.74 16.04V17H588.5V16.04H591.83V13.505H592.94V16.04H596.3V13.505H597.41V16.04H600.74ZM615.554 11.78H613.514V18.485H612.389V5.465H613.514V10.82H615.554V11.78ZM611.309 14.45L611.414 15.365C610.324 15.545 609.014 15.685 607.484 15.785C605.964 15.875 604.394 15.92 602.774 15.92L602.669 14.945C604.079 14.945 605.279 14.92 606.269 14.87V12.29C605.379 12.19 604.654 11.865 604.094 11.315C603.534 10.765 603.254 10.065 603.254 9.215C603.254 8.605 603.409 8.07 603.719 7.61C604.029 7.14 604.454 6.78 604.994 6.53C605.534 6.27 606.144 6.14 606.824 6.14C607.504 6.14 608.114 6.27 608.654 6.53C609.194 6.78 609.614 7.14 609.914 7.61C610.224 8.07 610.379 8.605 610.379 9.215C610.379 10.065 610.099 10.765 609.539 11.315C608.989 11.865 608.264 12.19 607.364 12.29V14.825C608.824 14.755 610.139 14.63 611.309 14.45ZM606.824 11.39C607.524 11.39 608.094 11.21 608.534 10.85C608.974 10.48 609.194 9.995 609.194 9.395V9.05C609.194 8.45 608.974 7.97 608.534 7.61C608.094 7.24 607.524 7.055 606.824 7.055C606.124 7.055 605.554 7.24 605.114 7.61C604.674 7.97 604.454 8.45 604.454 9.05V9.395C604.454 9.995 604.674 10.48 605.114 10.85C605.554 11.21 606.124 11.39 606.824 11.39ZM634.573 11.555H632.413V18.515H631.273V5.495H632.413V10.595H634.573V11.555ZM629.698 13.685L629.848 14.6C628.318 14.91 626.408 15.065 624.118 15.065H622.528V6.53H628.513V7.49H623.668V14.12H624.103C626.303 14.12 628.168 13.975 629.698 13.685ZM647.602 5.465V13.13H646.447V5.465H647.602ZM637.612 12.83L636.772 12.11C637.622 11.44 638.277 10.865 638.737 10.385C639.207 9.905 639.547 9.43 639.757 8.96C639.967 8.49 640.072 7.955 640.072 7.355V7.22H637.192V6.275H644.107V7.22H641.212V7.415C641.212 8.255 641.037 8.995 640.687 9.635L640.777 9.68L641.017 9.5C641.127 9.42 641.232 9.38 641.332 9.38C641.452 9.38 641.572 9.425 641.692 9.515L644.542 11.855L643.687 12.59L640.807 10.145C640.737 10.085 640.657 10.055 640.567 10.055C640.487 10.055 640.417 10.085 640.357 10.145C640.097 10.525 639.757 10.915 639.337 11.315C638.917 11.715 638.342 12.22 637.612 12.83ZM639.352 13.925H647.602V19.025H640.102C639.862 19.025 639.677 18.96 639.547 18.83C639.417 18.7 639.352 18.51 639.352 18.26V13.925ZM640.462 18.095H646.477V14.855H640.462V18.095ZM652.411 7.865C652.411 7.135 652.786 6.555 653.536 6.125C654.286 5.685 655.411 5.465 656.911 5.465C658.411 5.465 659.536 5.685 660.286 6.125C661.036 6.555 661.411 7.135 661.411 7.865C661.411 8.595 661.036 9.18 660.286 9.62C659.536 10.06 658.411 10.28 656.911 10.28C655.411 10.28 654.286 10.06 653.536 9.62C652.786 9.18 652.411 8.595 652.411 7.865ZM660.196 7.94V7.775C660.196 7.345 659.921 6.995 659.371 6.725C658.831 6.445 658.011 6.305 656.911 6.305C655.811 6.305 654.986 6.445 654.436 6.725C653.896 6.995 653.626 7.345 653.626 7.775V7.94C653.626 8.37 653.896 8.725 654.436 9.005C654.986 9.275 655.811 9.41 656.911 9.41C658.011 9.41 658.831 9.275 659.371 9.005C659.921 8.725 660.196 8.37 660.196 7.94ZM663.031 11.315V12.275H650.791V11.315H663.031ZM652.696 18.335V15.875H660.091V14.465H652.606V13.535H661.186V16.745H653.791V18.17H661.576V19.1H653.446C653.206 19.1 653.021 19.035 652.891 18.905C652.761 18.775 652.696 18.585 652.696 18.335ZM682.44 10.61H680.46V14.42H679.335V5.465H680.46V9.65H682.44V10.61ZM675.87 6.455H671.925V5.57H675.87V6.455ZM678.345 13.67C677.235 13.85 675.9 13.99 674.34 14.09C672.79 14.18 671.19 14.225 669.54 14.225L669.45 13.295C670.96 13.295 672.235 13.27 673.275 13.22V12.17C672.495 12.1 671.88 11.9 671.43 11.57C670.98 11.23 670.755 10.805 670.755 10.295C670.755 9.555 671.145 9.04 671.925 8.75V8.66H669.855V7.805H677.67V8.66H675.69V8.75C676.47 9.06 676.86 9.575 676.86 10.295C676.86 10.795 676.635 11.215 676.185 11.555C675.735 11.885 675.125 12.085 674.355 12.155V13.175C675.895 13.095 677.19 12.975 678.24 12.815L678.345 13.67ZM673.59 11.3H674.025C674.555 11.3 674.985 11.19 675.315 10.97C675.655 10.74 675.825 10.42 675.825 10.01C675.825 9.6 675.66 9.285 675.33 9.065C675 8.835 674.565 8.72 674.025 8.72H673.59C673.05 8.72 672.61 8.835 672.27 9.065C671.94 9.285 671.775 9.6 671.775 10.01C671.775 10.42 671.94 10.74 672.27 10.97C672.61 11.19 673.05 11.3 673.59 11.3ZM671.805 15.215H680.46V19.175H679.35V16.1H671.805V15.215ZM695.469 5.465V15.35H694.314V5.465H695.469ZM684.669 9.515C684.669 8.815 684.814 8.205 685.104 7.685C685.404 7.165 685.814 6.77 686.334 6.5C686.854 6.22 687.449 6.08 688.119 6.08C688.779 6.08 689.369 6.22 689.889 6.5C690.419 6.77 690.829 7.165 691.119 7.685C691.419 8.205 691.569 8.815 691.569 9.515C691.569 10.205 691.419 10.81 691.119 11.33C690.829 11.85 690.419 12.25 689.889 12.53C689.369 12.8 688.779 12.935 688.119 12.935C687.449 12.935 686.854 12.8 686.334 12.53C685.814 12.25 685.404 11.855 685.104 11.345C684.814 10.825 684.669 10.215 684.669 9.515ZM690.354 9.83V9.2C690.354 8.54 690.144 8.015 689.724 7.625C689.314 7.225 688.779 7.025 688.119 7.025C687.449 7.025 686.904 7.225 686.484 7.625C686.074 8.025 685.869 8.55 685.869 9.2V9.83C685.869 10.48 686.079 11.005 686.499 11.405C686.919 11.795 687.459 11.99 688.119 11.99C688.779 11.99 689.314 11.795 689.724 11.405C690.144 11.005 690.354 10.48 690.354 9.83ZM687.129 18.005V14.27H688.284V17.825H695.739V18.77H687.879C687.639 18.77 687.454 18.705 687.324 18.575C687.194 18.445 687.129 18.255 687.129 18.005ZM711.303 8.825V9.785H709.218V12.815H708.078V5.465H709.218V8.825H711.303ZM704.643 6.62H700.638V5.705H704.643V6.62ZM702.543 12.605C701.603 12.605 700.848 12.425 700.278 12.065C699.718 11.695 699.438 11.21 699.438 10.61C699.438 9.83 699.848 9.285 700.668 8.975V8.885H698.448V8H706.578V8.885H704.418V8.975C705.238 9.285 705.648 9.83 705.648 10.61C705.648 11.21 705.363 11.695 704.793 12.065C704.233 12.425 703.483 12.605 702.543 12.605ZM702.363 11.69H702.723C703.273 11.69 703.723 11.57 704.073 11.33C704.423 11.09 704.598 10.755 704.598 10.325C704.598 9.895 704.423 9.56 704.073 9.32C703.733 9.08 703.283 8.96 702.723 8.96H702.363C701.803 8.96 701.348 9.08 700.998 9.32C700.658 9.56 700.488 9.895 700.488 10.325C700.488 10.755 700.663 11.09 701.013 11.33C701.363 11.57 701.813 11.69 702.363 11.69ZM702.063 18.17H709.578V19.1H701.703C701.463 19.1 701.278 19.035 701.148 18.905C701.018 18.775 700.953 18.585 700.953 18.335V15.89H708.108V14.51H700.863V13.595H709.218V16.79H702.063V18.17ZM719.027 11.735L718.397 10.865C719.717 10.265 720.727 9.725 721.427 9.245C722.127 8.765 722.612 8.29 722.882 7.82C723.162 7.35 723.302 6.805 723.302 6.185V5.72H724.472V6.215C724.472 6.725 724.407 7.18 724.277 7.58C724.157 7.98 723.962 8.36 723.692 8.72L723.767 8.75L724.157 8.465C724.287 8.365 724.422 8.315 724.562 8.315C724.692 8.315 724.812 8.35 724.922 8.42L729.212 10.805L728.567 11.69L724.112 9.125C723.972 9.045 723.837 9.005 723.707 9.005C723.567 9.005 723.432 9.055 723.302 9.155L723.287 9.17C722.887 9.56 722.347 9.955 721.667 10.355C720.997 10.755 720.117 11.215 719.027 11.735ZM729.917 14.135H724.367V19.01H723.227V14.135H717.677V13.175H729.917V14.135ZM747.931 12.98H746.776V5.465H747.931V12.98ZM737.131 9.2C737.131 8.54 737.276 7.965 737.566 7.475C737.866 6.985 738.276 6.61 738.796 6.35C739.316 6.08 739.911 5.945 740.581 5.945C741.251 5.945 741.846 6.08 742.366 6.35C742.886 6.61 743.291 6.985 743.581 7.475C743.881 7.965 744.031 8.54 744.031 9.2C744.031 9.86 743.881 10.435 743.581 10.925C743.291 11.415 742.881 11.795 742.351 12.065C741.831 12.325 741.241 12.455 740.581 12.455C739.921 12.455 739.326 12.325 738.796 12.065C738.276 11.795 737.866 11.415 737.566 10.925C737.276 10.435 737.131 9.86 737.131 9.2ZM738.331 9.455C738.331 10.075 738.536 10.575 738.946 10.955C739.366 11.325 739.911 11.51 740.581 11.51C741.251 11.51 741.791 11.325 742.201 10.955C742.611 10.575 742.816 10.075 742.816 9.455V8.93C742.816 8.31 742.611 7.815 742.201 7.445C741.791 7.075 741.251 6.89 740.581 6.89C739.911 6.89 739.366 7.075 738.946 7.445C738.536 7.815 738.331 8.31 738.331 8.93V9.455ZM749.161 18.275L748.426 19.055L746.206 16.88C746.146 16.81 746.076 16.775 745.996 16.775C745.956 16.775 745.911 16.79 745.861 16.82C745.631 17.16 745.336 17.51 744.976 17.87C744.616 18.24 744.136 18.685 743.536 19.205L741.256 16.835C741.186 16.765 741.116 16.73 741.046 16.73C741.006 16.73 740.951 16.755 740.881 16.805C740.441 17.465 739.691 18.25 738.631 19.16L737.911 18.395C738.581 17.835 739.106 17.335 739.486 16.895C739.866 16.455 740.136 16.02 740.296 15.59C740.466 15.16 740.551 14.675 740.551 14.135V13.655H741.631V14.165C741.631 14.985 741.476 15.7 741.166 16.31L741.226 16.34L741.421 16.19C741.501 16.12 741.596 16.085 741.706 16.085C741.826 16.085 741.931 16.13 742.021 16.22L743.611 17.81C744.331 17.16 744.826 16.575 745.096 16.055C745.366 15.535 745.501 14.9 745.501 14.15V13.655H746.581V14.21C746.581 14.65 746.546 15.04 746.476 15.38C746.406 15.72 746.291 16.045 746.131 16.355L746.191 16.4L746.386 16.235C746.496 16.155 746.601 16.115 746.701 16.115C746.801 16.115 746.901 16.155 747.001 16.235L749.161 18.275ZM752.725 8.15C752.725 7.36 753.1 6.725 753.85 6.245C754.61 5.755 755.74 5.51 757.24 5.51C758.74 5.51 759.865 5.755 760.615 6.245C761.375 6.725 761.755 7.36 761.755 8.15C761.755 8.94 761.375 9.58 760.615 10.07C759.865 10.55 758.74 10.79 757.24 10.79C755.74 10.79 754.61 10.55 753.85 10.07C753.1 9.58 752.725 8.94 752.725 8.15ZM760.54 8.255V8.045C760.54 7.565 760.265 7.17 759.715 6.86C759.175 6.55 758.35 6.395 757.24 6.395C756.13 6.395 755.3 6.55 754.75 6.86C754.21 7.17 753.94 7.565 753.94 8.045V8.255C753.94 8.725 754.215 9.115 754.765 9.425C755.315 9.735 756.14 9.89 757.24 9.89C758.34 9.89 759.165 9.735 759.715 9.425C760.265 9.115 760.54 8.725 760.54 8.255ZM763.36 11.915V12.89H751.12V11.915H763.36ZM752.935 18.23V14.3H761.545V18.995H753.685C753.445 18.995 753.26 18.93 753.13 18.8C753 18.67 752.935 18.48 752.935 18.23ZM760.42 15.23H754.06V18.05H760.42V15.23Z" fill="#1B1C25"/>
</svg>
