<svg width="355" height="56" viewBox="0 0 355 56" fill="none" xmlns="http://www.w3.org/2000/svg">
<path d="M306.442 9.04972C306.304 8.61884 306.12 8.23295 305.888 7.89205C305.661 7.5464 305.388 7.25284 305.071 7.01136C304.754 6.76515 304.392 6.57812 303.984 6.45028C303.582 6.32244 303.139 6.25852 302.656 6.25852C301.837 6.25852 301.098 6.46922 300.44 6.89062C299.782 7.31203 299.261 7.92992 298.878 8.74432C298.499 9.55398 298.31 10.5459 298.31 11.7202C298.31 12.8991 298.501 13.8958 298.885 14.7102C299.268 15.5246 299.794 16.1425 300.462 16.5639C301.129 16.9853 301.889 17.196 302.741 17.196C303.532 17.196 304.221 17.035 304.808 16.7131C305.4 16.3911 305.857 15.9366 306.179 15.3494C306.506 14.7576 306.669 14.0616 306.669 13.2614L307.237 13.3679H303.075V11.5568H308.793V13.2116C308.793 14.4332 308.532 15.4938 308.011 16.3935C307.495 17.2884 306.78 17.9796 305.866 18.4673C304.957 18.955 303.916 19.1989 302.741 19.1989C301.425 19.1989 300.27 18.8958 299.276 18.2898C298.286 17.6837 297.514 16.8243 296.96 15.7116C296.406 14.5942 296.129 13.2685 296.129 11.7344C296.129 10.5743 296.29 9.53267 296.612 8.60938C296.934 7.68608 297.386 6.90246 297.969 6.25852C298.556 5.60985 299.245 5.11506 300.036 4.77415C300.831 4.4285 301.7 4.25568 302.642 4.25568C303.428 4.25568 304.16 4.37169 304.837 4.60369C305.518 4.8357 306.125 5.16477 306.655 5.59091C307.19 6.01705 307.633 6.52367 307.983 7.1108C308.333 7.69318 308.57 8.33949 308.693 9.04972H306.442ZM325.613 11.7273C325.613 13.2803 325.329 14.6155 324.761 15.733C324.193 16.8456 323.414 17.7027 322.425 18.304C321.44 18.9006 320.32 19.1989 319.065 19.1989C317.806 19.1989 316.681 18.9006 315.692 18.304C314.707 17.7027 313.93 16.8433 313.362 15.7259C312.794 14.6084 312.51 13.2756 312.51 11.7273C312.51 10.1742 312.794 8.84138 313.362 7.72869C313.93 6.61127 314.707 5.75426 315.692 5.15767C316.681 4.55634 317.806 4.25568 319.065 4.25568C320.32 4.25568 321.44 4.55634 322.425 5.15767C323.414 5.75426 324.193 6.61127 324.761 7.72869C325.329 8.84138 325.613 10.1742 325.613 11.7273ZM323.44 11.7273C323.44 10.5436 323.248 9.54687 322.865 8.73722C322.486 7.92282 321.965 7.30729 321.302 6.89062C320.644 6.46922 319.898 6.25852 319.065 6.25852C318.227 6.25852 317.479 6.46922 316.821 6.89062C316.163 7.30729 315.642 7.92282 315.258 8.73722C314.88 9.54687 314.69 10.5436 314.69 11.7273C314.69 12.911 314.88 13.91 315.258 14.7244C315.642 15.5341 316.163 16.1496 316.821 16.571C317.479 16.9877 318.227 17.196 319.065 17.196C319.898 17.196 320.644 16.9877 321.302 16.571C321.965 16.1496 322.486 15.5341 322.865 14.7244C323.248 13.91 323.44 12.911 323.44 11.7273ZM330.256 19H327.926L333.16 4.45455H335.696L340.93 19H338.601L334.489 7.09659H334.375L330.256 19ZM330.646 13.304H338.203V15.1506H330.646V13.304ZM344.431 19V4.45455H346.625V17.1108H353.216V19H344.431Z" fill="#1B1C25"/>
<path d="M2.72691 6.17H3.85191V8.66H10.4519V6.17H11.5769V13.07H2.72691V6.17ZM10.4519 12.11V9.62H3.85191V12.11H10.4519ZM1.03191 16.025H13.2719V17H1.03191V16.025ZM23.9009 15.065H22.7909V5.675H23.9009V9.575H25.9109V5.465H27.0209V15.44H25.9109V10.52H23.9009V15.065ZM22.0559 12.995C20.7259 13.305 19.1509 13.46 17.3309 13.46H16.1159V9.425H20.0009V7.37H16.0559V6.44H21.0659V10.325H17.1809V12.545H17.6159C18.4459 12.545 19.2309 12.505 19.9709 12.425C20.7109 12.345 21.3559 12.235 21.9059 12.095L22.0559 12.995ZM27.3059 17.825V18.77H19.1009C18.8609 18.77 18.6759 18.705 18.5459 18.575C18.4159 18.445 18.3509 18.255 18.3509 18.005V14.795H19.4909V17.825H27.3059ZM40.53 12.65H31.65V6.365H40.395V7.34H32.79V11.675H40.53V12.65ZM42.12 16.025V17H29.88V16.025H42.12ZM55.869 5.465V18.485H54.774V5.465H55.869ZM51.819 5.69H52.884V18.125H51.819V11.3H50.379C50.329 12.6 50.039 13.58 49.509 14.24C48.979 14.89 48.279 15.215 47.409 15.215C46.479 15.215 45.744 14.855 45.204 14.135C44.664 13.405 44.394 12.32 44.394 10.88C44.394 9.44 44.664 8.36 45.204 7.64C45.744 6.91 46.479 6.545 47.409 6.545C48.269 6.545 48.959 6.865 49.479 7.505C50.009 8.145 50.309 9.095 50.379 10.355H51.819V5.69ZM49.239 10.16C49.239 9.28 49.069 8.61 48.729 8.15C48.399 7.69 47.959 7.46 47.409 7.46C46.849 7.46 46.399 7.69 46.059 8.15C45.729 8.61 45.564 9.28 45.564 10.16V11.615C45.564 12.485 45.729 13.155 46.059 13.625C46.399 14.085 46.849 14.315 47.409 14.315C47.959 14.315 48.399 14.085 48.729 13.625C49.069 13.155 49.239 12.485 49.239 11.615V10.16ZM74.8879 5.465V18.485H73.7779V11.495H71.7229V18.125H70.6279V5.69H71.7229V10.55H73.7779V5.465H74.8879ZM69.4879 13.7L69.6379 14.6C68.4279 14.91 66.9329 15.065 65.1529 15.065H63.9229V6.8H68.7679V7.76H65.0179V14.12H65.4229C67.0629 14.12 68.4179 13.98 69.4879 13.7ZM90.392 9.92V10.88H88.307V15.5H87.167V5.465H88.307V9.92H90.392ZM83.732 6.83H79.727V5.87H83.732V6.83ZM81.632 13.94C81.012 13.94 80.467 13.835 79.997 13.625C79.527 13.415 79.162 13.125 78.902 12.755C78.652 12.385 78.527 11.965 78.527 11.495C78.527 11.025 78.637 10.615 78.857 10.265C79.087 9.905 79.427 9.63 79.877 9.44V9.365H77.537V8.42H85.667V9.365H83.387V9.44C83.837 9.63 84.172 9.905 84.392 10.265C84.622 10.615 84.737 11.025 84.737 11.495C84.737 11.965 84.607 12.385 84.347 12.755C84.097 13.125 83.737 13.415 83.267 13.625C82.797 13.835 82.252 13.94 81.632 13.94ZM81.512 12.98H81.767C82.327 12.98 82.782 12.83 83.132 12.53C83.492 12.22 83.672 11.79 83.672 11.24C83.672 10.69 83.497 10.26 83.147 9.95C82.797 9.64 82.337 9.485 81.767 9.485H81.512C80.942 9.485 80.482 9.64 80.132 9.95C79.782 10.25 79.607 10.68 79.607 11.24C79.607 11.79 79.782 12.22 80.132 12.53C80.492 12.83 80.952 12.98 81.512 12.98ZM81.272 17.9H88.607V18.845H80.882C80.642 18.845 80.457 18.78 80.327 18.65C80.197 18.52 80.132 18.33 80.132 18.08V15.08H81.272V17.9ZM106.861 8.93H103.996V7.985H106.861V5.465H108.001V12.35H106.861V8.93ZM100.756 9.41C100.686 9.41 100.621 9.445 100.561 9.515C100.291 9.925 99.9409 10.355 99.5109 10.805C99.0809 11.245 98.5109 11.78 97.8009 12.41L96.9609 11.675C97.8109 10.945 98.4659 10.325 98.9259 9.815C99.3859 9.295 99.7159 8.785 99.9159 8.285C100.116 7.775 100.216 7.2 100.216 6.56V5.78H101.371V6.62C101.371 7.49 101.196 8.29 100.846 9.02L100.906 9.065L101.161 8.84C101.281 8.75 101.391 8.705 101.491 8.705C101.601 8.705 101.706 8.75 101.806 8.84L104.641 11.345L103.846 12.155L100.951 9.5C100.891 9.44 100.826 9.41 100.756 9.41ZM108.361 18.125V19.1H100.396C100.156 19.1 99.9709 19.035 99.8409 18.905C99.7109 18.775 99.6459 18.585 99.6459 18.335V15.62H106.846V14.09H99.5559V13.115H108.001V16.58H100.801V18.125H108.361ZM121.705 10.52H113.05V5.855H121.585V6.8H114.175V9.59H121.705V10.52ZM123.43 12.095V13.04H111.19V12.095H123.43ZM112.885 14.555H121.6V19.085H120.46V15.5H112.885V14.555ZM136.849 5.465V13.625H135.694V11.15H133.024V10.235H135.694V8.33H133.024V7.415H135.694V5.465H136.849ZM133.009 12.635C131.609 12.955 129.879 13.115 127.819 13.115H126.484V9.125H130.789V7.115H126.424V6.185H131.884V10.04H127.579V12.185H128.014C129.904 12.185 131.524 12.035 132.874 11.735L133.009 12.635ZM128.254 14.42H136.849V19.145H135.724V15.38H128.254V14.42ZM141.658 7.865C141.658 7.135 142.033 6.555 142.783 6.125C143.533 5.685 144.658 5.465 146.158 5.465C147.658 5.465 148.783 5.685 149.533 6.125C150.283 6.555 150.658 7.135 150.658 7.865C150.658 8.595 150.283 9.18 149.533 9.62C148.783 10.06 147.658 10.28 146.158 10.28C144.658 10.28 143.533 10.06 142.783 9.62C142.033 9.18 141.658 8.595 141.658 7.865ZM149.443 7.94V7.775C149.443 7.345 149.168 6.995 148.618 6.725C148.078 6.445 147.258 6.305 146.158 6.305C145.058 6.305 144.233 6.445 143.683 6.725C143.143 6.995 142.873 7.345 142.873 7.775V7.94C142.873 8.37 143.143 8.725 143.683 9.005C144.233 9.275 145.058 9.41 146.158 9.41C147.258 9.41 148.078 9.275 148.618 9.005C149.168 8.725 149.443 8.37 149.443 7.94ZM152.278 11.315V12.275H140.038V11.315H152.278ZM141.943 18.335V15.875H149.338V14.465H141.853V13.535H150.433V16.745H143.038V18.17H150.823V19.1H142.693C142.453 19.1 142.268 19.035 142.138 18.905C142.008 18.775 141.943 18.585 141.943 18.335ZM171.297 11.735V12.695H159.057V11.735H164.622V10.115H160.932V5.75H162.072V9.2H169.557V10.115H165.747V11.735H171.297ZM169.767 14.99H160.557V14.045H169.767V14.99ZM167.637 18.125H169.902V19.055H160.422V18.125H162.702L162.252 15.74L163.422 15.635L163.797 18.125H166.542L166.917 15.635L168.087 15.74L167.637 18.125ZM184.671 5.465V18.485H183.546V13.01H180.996V12.08H183.546V9.26H180.996V8.33H183.546V5.465H184.671ZM180.681 10.73C180.681 12.19 180.366 13.295 179.736 14.045C179.106 14.795 178.276 15.17 177.246 15.17C176.206 15.17 175.371 14.795 174.741 14.045C174.111 13.295 173.796 12.19 173.796 10.73C173.796 9.27 174.111 8.165 174.741 7.415C175.371 6.665 176.206 6.29 177.246 6.29C178.276 6.29 179.106 6.665 179.736 7.415C180.366 8.165 180.681 9.27 180.681 10.73ZM179.481 10.13C179.481 9.19 179.276 8.475 178.866 7.985C178.456 7.485 177.916 7.235 177.246 7.235C176.566 7.235 176.021 7.485 175.611 7.985C175.201 8.475 174.996 9.19 174.996 10.13V11.33C174.996 12.27 175.201 12.99 175.611 13.49C176.021 13.98 176.566 14.225 177.246 14.225C177.916 14.225 178.456 13.98 178.866 13.49C179.276 12.99 179.481 12.27 179.481 11.33V10.13ZM193.47 6.95H189.315V5.99H198.735V6.95H194.625C194.615 7.36 194.555 7.73 194.445 8.06C194.345 8.39 194.175 8.705 193.935 9.005L193.995 9.035L194.295 8.81C194.435 8.71 194.575 8.66 194.715 8.66C194.845 8.66 194.955 8.685 195.045 8.735L199.29 10.955L198.66 11.81L194.25 9.44C194.12 9.37 193.99 9.335 193.86 9.335C193.76 9.335 193.67 9.355 193.59 9.395C193.2 9.775 192.67 10.16 192 10.55C191.33 10.94 190.455 11.375 189.375 11.855L188.76 11C189.96 10.49 190.895 10.025 191.565 9.605C192.235 9.185 192.71 8.77 192.99 8.36C193.28 7.95 193.44 7.48 193.47 6.95ZM200.145 14.135H194.595V19.01H193.455V14.135H187.905V13.175H200.145V14.135ZM212.829 10.655H204.204V5.945H205.329V9.71H212.829V10.655ZM214.569 12.32V13.295H202.329V12.32H214.569ZM205.224 17.795H212.994V18.755H204.834C204.594 18.755 204.409 18.69 204.279 18.56C204.149 18.43 204.084 18.24 204.084 17.99V14.705H205.224V17.795ZM232.508 5.465V18.485H231.368V5.465H232.508ZM229.493 13.685L229.643 14.6C228.093 14.91 226.163 15.065 223.853 15.065H222.248V6.53H228.293V7.49H223.403V14.105H223.823C226.113 14.105 228.003 13.965 229.493 13.685ZM248.402 11.555H246.242V18.515H245.102V5.495H246.242V10.595H248.402V11.555ZM240.272 10.97C240.392 10.97 240.507 11.025 240.617 11.135L243.542 14.6L242.687 15.335L239.747 11.75C239.687 11.69 239.622 11.66 239.552 11.66C239.482 11.66 239.432 11.69 239.402 11.75C239.132 12.29 238.777 12.845 238.337 13.415C237.907 13.975 237.317 14.68 236.567 15.53L235.727 14.825C236.597 13.905 237.262 13.11 237.722 12.44C238.192 11.77 238.532 11.105 238.742 10.445C238.952 9.775 239.057 9.015 239.057 8.165V7.595H236.117V6.635H243.107V7.595H240.182V8.195C240.182 9.315 240.002 10.32 239.642 11.21L239.717 11.27L239.957 11.09C240.057 11.01 240.162 10.97 240.272 10.97ZM261.431 5.465V15.35H260.276V5.465H261.431ZM250.631 9.515C250.631 8.815 250.776 8.205 251.066 7.685C251.366 7.165 251.776 6.77 252.296 6.5C252.816 6.22 253.411 6.08 254.081 6.08C254.741 6.08 255.331 6.22 255.851 6.5C256.381 6.77 256.791 7.165 257.081 7.685C257.381 8.205 257.531 8.815 257.531 9.515C257.531 10.205 257.381 10.81 257.081 11.33C256.791 11.85 256.381 12.25 255.851 12.53C255.331 12.8 254.741 12.935 254.081 12.935C253.411 12.935 252.816 12.8 252.296 12.53C251.776 12.25 251.366 11.855 251.066 11.345C250.776 10.825 250.631 10.215 250.631 9.515ZM256.316 9.83V9.2C256.316 8.54 256.106 8.015 255.686 7.625C255.276 7.225 254.741 7.025 254.081 7.025C253.411 7.025 252.866 7.225 252.446 7.625C252.036 8.025 251.831 8.55 251.831 9.2V9.83C251.831 10.48 252.041 11.005 252.461 11.405C252.881 11.795 253.421 11.99 254.081 11.99C254.741 11.99 255.276 11.795 255.686 11.405C256.106 11.005 256.316 10.48 256.316 9.83ZM253.091 18.005V14.27H254.246V17.825H261.701V18.77H253.841C253.601 18.77 253.416 18.705 253.286 18.575C253.156 18.445 253.091 18.255 253.091 18.005Z" fill="#1B1C25"/>
<path d="M90.467 41.45V42.41H88.457V45.335H87.332V38.465H88.457V41.45H90.467ZM78.347 44.765L77.582 44.09C78.322 43.62 78.897 43.205 79.307 42.845C79.727 42.475 80.027 42.105 80.207 41.735C80.397 41.365 80.492 40.945 80.492 40.475V39.995H78.047V39.065H81.557V40.325C81.557 40.955 81.452 41.505 81.242 41.975C81.032 42.445 80.697 42.895 80.237 43.325C79.787 43.745 79.157 44.225 78.347 44.765ZM84.392 40.655V39.995H82.232V39.065H85.457V40.52C85.457 41.24 85.357 41.86 85.157 42.38C84.957 42.89 84.642 43.37 84.212 43.82C83.782 44.27 83.172 44.775 82.382 45.335L81.572 44.675C82.302 44.175 82.867 43.73 83.267 43.34C83.667 42.94 83.952 42.53 84.122 42.11C84.302 41.69 84.392 41.205 84.392 40.655ZM81.227 51.125H88.817V52.1H80.837C80.597 52.1 80.412 52.035 80.282 51.905C80.152 51.775 80.087 51.585 80.087 51.335V48.62H87.317V47.075H79.997V46.115H88.472V49.58H81.227V51.125ZM104.411 44.135V45.11H92.171V44.135H95.831C96.061 43.455 96.236 42.77 96.356 42.08C96.486 41.39 96.546 40.645 96.536 39.845V39.815H93.371V38.885H97.616V39.845C97.616 41.335 97.396 42.765 96.956 44.135H101.246C101.616 42.745 101.796 41.315 101.786 39.845V39.815H98.546V38.885H102.881V39.89C102.881 41.31 102.711 42.725 102.371 44.135H104.411ZM93.986 46.97H102.596V51.995H94.736C94.496 51.995 94.311 51.93 94.181 51.8C94.051 51.67 93.986 51.48 93.986 51.23V46.97ZM95.111 51.05H101.471V47.9H95.111V51.05ZM119.225 44.795H117.11V51.515H115.97V38.495H117.11V43.835H119.225V44.795ZM112.775 40.175H108.515V39.2H112.775V40.175ZM106.52 41.975H114.545V42.905H112.325V42.995C113.235 43.445 113.69 44.31 113.69 45.59C113.69 46.24 113.555 46.805 113.285 47.285C113.015 47.755 112.64 48.115 112.16 48.365C111.69 48.615 111.165 48.74 110.585 48.74C110.005 48.74 109.475 48.615 108.995 48.365C108.525 48.115 108.155 47.755 107.885 47.285C107.615 46.805 107.48 46.24 107.48 45.59C107.48 44.31 107.935 43.445 108.845 42.995V42.905H106.52V41.975ZM112.58 45.095C112.58 44.425 112.4 43.915 112.04 43.565C111.68 43.205 111.195 43.025 110.585 43.025C109.985 43.025 109.5 43.205 109.13 43.565C108.77 43.925 108.59 44.435 108.59 45.095V45.71C108.59 46.36 108.775 46.87 109.145 47.24C109.515 47.6 109.995 47.78 110.585 47.78C111.175 47.78 111.655 47.6 112.025 47.24C112.395 46.87 112.58 46.36 112.58 45.71V45.095ZM130.469 40.52H122.549V39.545H131.594V40.61C131.594 42.83 131.379 44.945 130.949 46.955L129.839 46.775C130.259 44.745 130.469 42.705 130.469 40.655V40.52ZM133.259 49.04V50H121.019V49.04H125.819V44.225H126.944V49.04H133.259ZM151.198 38.465V51.485H150.058V38.465H151.198ZM144.928 43.97C145.068 43.97 145.183 44.025 145.273 44.135L148.213 47.585L147.358 48.32L144.388 44.75C144.338 44.69 144.278 44.66 144.208 44.66C144.148 44.66 144.093 44.69 144.043 44.75C143.773 45.3 143.418 45.86 142.978 46.43C142.538 47 141.938 47.7 141.178 48.53L140.323 47.81C141.193 46.9 141.863 46.11 142.333 45.44C142.813 44.77 143.158 44.105 143.368 43.445C143.578 42.775 143.683 42.015 143.683 41.165V40.595H140.728V39.635H147.763V40.595H144.823V41.21C144.823 42.34 144.648 43.345 144.298 44.225L144.373 44.27L144.598 44.09C144.708 44.01 144.818 43.97 144.928 43.97ZM163.657 39.8H156.292V38.855H164.782V42.425H157.507V44.15H165.157V45.095H156.367V41.525H163.657V39.8ZM166.702 47.54H161.152V52.01H160.012V47.54H154.462V46.58H166.702V47.54ZM181.516 44.795H179.401V51.515H178.261V38.495H179.401V43.835H181.516V44.795ZM175.066 40.175H170.806V39.2H175.066V40.175ZM168.811 41.975H176.836V42.905H174.616V42.995C175.526 43.445 175.981 44.31 175.981 45.59C175.981 46.24 175.846 46.805 175.576 47.285C175.306 47.755 174.931 48.115 174.451 48.365C173.981 48.615 173.456 48.74 172.876 48.74C172.296 48.74 171.766 48.615 171.286 48.365C170.816 48.115 170.446 47.755 170.176 47.285C169.906 46.805 169.771 46.24 169.771 45.59C169.771 44.31 170.226 43.445 171.136 42.995V42.905H168.811V41.975ZM174.871 45.095C174.871 44.425 174.691 43.915 174.331 43.565C173.971 43.205 173.486 43.025 172.876 43.025C172.276 43.025 171.791 43.205 171.421 43.565C171.061 43.925 170.881 44.435 170.881 45.095V45.71C170.881 46.36 171.066 46.87 171.436 47.24C171.806 47.6 172.286 47.78 172.876 47.78C173.466 47.78 173.946 47.6 174.316 47.24C174.686 46.87 174.871 46.36 174.871 45.71V45.095ZM194.47 38.465V51.485H193.33V38.465H194.47ZM188.2 43.97C188.34 43.97 188.455 44.025 188.545 44.135L191.485 47.585L190.63 48.32L187.66 44.75C187.61 44.69 187.55 44.66 187.48 44.66C187.42 44.66 187.365 44.69 187.315 44.75C187.045 45.3 186.69 45.86 186.25 46.43C185.81 47 185.21 47.7 184.45 48.53L183.595 47.81C184.465 46.9 185.135 46.11 185.605 45.44C186.085 44.77 186.43 44.105 186.64 43.445C186.85 42.775 186.955 42.015 186.955 41.165V40.595H184V39.635H191.035V40.595H188.095V41.21C188.095 42.34 187.92 43.345 187.57 44.225L187.645 44.27L187.87 44.09C187.98 44.01 188.09 43.97 188.2 43.97ZM214.974 41.42V42.38H212.889V45.245H211.749V38.465H212.889V41.42H214.974ZM205.854 45.245C205.194 45.245 204.604 45.115 204.084 44.855C203.574 44.595 203.174 44.225 202.884 43.745C202.594 43.255 202.449 42.69 202.449 42.05C202.449 41.41 202.594 40.85 202.884 40.37C203.174 39.89 203.574 39.52 204.084 39.26C204.604 39 205.194 38.87 205.854 38.87C206.504 38.87 207.084 39 207.594 39.26C208.114 39.52 208.519 39.89 208.809 40.37C209.099 40.85 209.244 41.41 209.244 42.05C209.244 42.69 209.099 43.255 208.809 43.745C208.519 44.225 208.114 44.595 207.594 44.855C207.084 45.115 206.504 45.245 205.854 45.245ZM205.854 44.33C206.504 44.33 207.034 44.145 207.444 43.775C207.854 43.405 208.059 42.915 208.059 42.305V41.81C208.059 41.2 207.854 40.715 207.444 40.355C207.034 39.985 206.504 39.8 205.854 39.8C205.194 39.8 204.659 39.985 204.249 40.355C203.839 40.715 203.634 41.2 203.634 41.81V42.305C203.634 42.915 203.839 43.405 204.249 43.775C204.659 44.145 205.194 44.33 205.854 44.33ZM209.229 46.91V45.995H212.394V46.91H209.229ZM207.594 50.3L207.879 51.245C207.489 51.415 207.024 51.555 206.484 51.665C205.944 51.785 205.379 51.845 204.789 51.845H204.519C204.279 51.845 204.094 51.78 203.964 51.65C203.834 51.52 203.769 51.33 203.769 51.08V46.505H204.834V50.825H205.029C205.499 50.825 205.959 50.77 206.409 50.66C206.869 50.56 207.264 50.44 207.594 50.3ZM207.624 48.095H213.999V48.95H212.289V49.04C212.609 49.19 212.849 49.39 213.009 49.64C213.169 49.89 213.249 50.175 213.249 50.495C213.249 51.015 213.029 51.45 212.589 51.8C212.149 52.16 211.559 52.34 210.819 52.34C210.069 52.34 209.474 52.16 209.034 51.8C208.594 51.45 208.374 51.015 208.374 50.495C208.374 50.165 208.454 49.875 208.614 49.625C208.774 49.375 209.019 49.175 209.349 49.025V48.95H207.624V48.095ZM212.289 50.24C212.289 49.86 212.159 49.56 211.899 49.34C211.649 49.12 211.319 49.01 210.909 49.01H210.714C210.304 49.01 209.969 49.12 209.709 49.34C209.459 49.56 209.334 49.86 209.334 50.24C209.334 50.62 209.459 50.92 209.709 51.14C209.969 51.36 210.304 51.47 210.714 51.47H210.909C211.319 51.47 211.649 51.36 211.899 51.14C212.159 50.92 212.289 50.62 212.289 50.24ZM218.358 41.48C218.358 40.94 218.523 40.46 218.853 40.04C219.183 39.61 219.683 39.275 220.353 39.035C221.033 38.785 221.873 38.66 222.873 38.66C223.873 38.66 224.708 38.785 225.378 39.035C226.058 39.275 226.563 39.61 226.893 40.04C227.223 40.46 227.388 40.94 227.388 41.48C227.388 42.32 227.008 43 226.248 43.52C225.488 44.04 224.363 44.3 222.873 44.3C221.383 44.3 220.258 44.04 219.498 43.52C218.738 43 218.358 42.32 218.358 41.48ZM226.173 41.6V41.345C226.173 40.825 225.898 40.395 225.348 40.055C224.798 39.715 223.973 39.545 222.873 39.545C221.773 39.545 220.948 39.715 220.398 40.055C219.848 40.395 219.573 40.825 219.573 41.345V41.6C219.573 42.12 219.848 42.55 220.398 42.89C220.948 43.23 221.773 43.4 222.873 43.4C223.973 43.4 224.798 43.23 225.348 42.89C225.898 42.55 226.173 42.12 226.173 41.6ZM228.993 45.575V46.565H216.753V45.575H228.993ZM218.508 50.99V47.825H219.648V50.795H227.418V51.755H219.258C219.018 51.755 218.833 51.69 218.703 51.56C218.573 51.43 218.508 51.24 218.508 50.99ZM248.012 46.07H242.447V51.965H241.307V46.07H235.772V45.11H244.547C244.907 43.54 245.092 41.865 245.102 40.085V40.01H237.392V39.05H246.212V40.01C246.212 41.74 246.042 43.44 245.702 45.11H248.012V46.07ZM260.291 42.26H257.426V41.3H260.291V38.465H261.431V46.22H260.291V42.26ZM254.186 42.71C254.116 42.71 254.056 42.74 254.006 42.8C253.736 43.25 253.381 43.715 252.941 44.195C252.511 44.665 251.941 45.23 251.231 45.89L250.391 45.14C251.241 44.38 251.896 43.73 252.356 43.19C252.816 42.64 253.146 42.1 253.346 41.57C253.556 41.03 253.661 40.42 253.661 39.74V38.915H254.801V39.8C254.801 40.73 254.631 41.57 254.291 42.32L254.351 42.35L254.606 42.14C254.716 42.05 254.826 42.005 254.936 42.005C255.046 42.005 255.146 42.05 255.236 42.14L258.101 44.795L257.276 45.59L254.381 42.8C254.321 42.74 254.256 42.71 254.186 42.71ZM261.506 49.34C261.506 49.89 261.346 50.38 261.026 50.81C260.716 51.25 260.246 51.595 259.616 51.845C258.986 52.095 258.216 52.22 257.306 52.22C256.396 52.22 255.621 52.095 254.981 51.845C254.351 51.595 253.876 51.25 253.556 50.81C253.246 50.38 253.091 49.89 253.091 49.34C253.091 48.79 253.246 48.3 253.556 47.87C253.876 47.43 254.351 47.085 254.981 46.835C255.621 46.585 256.396 46.46 257.306 46.46C258.216 46.46 258.986 46.585 259.616 46.835C260.246 47.085 260.716 47.43 261.026 47.87C261.346 48.3 261.506 48.79 261.506 49.34ZM260.291 49.22C260.291 48.7 260.041 48.265 259.541 47.915C259.051 47.565 258.306 47.39 257.306 47.39C256.306 47.39 255.556 47.57 255.056 47.93C254.556 48.28 254.306 48.71 254.306 49.22V49.475C254.306 49.985 254.556 50.415 255.056 50.765C255.556 51.125 256.306 51.305 257.306 51.305C258.306 51.305 259.051 51.125 259.541 50.765C260.041 50.415 260.291 49.985 260.291 49.475V49.22Z" fill="#1B1C25"/>
</svg>
