<svg width="155" height="134" viewBox="0 0 155 134" fill="none" xmlns="http://www.w3.org/2000/svg">
<rect width="155" height="134" fill="#36685D"/>
<path d="M47.5278 58L49.3176 47.0909H50.3829L48.5931 58H47.5278ZM42.5633 54.9744L42.7338 53.9091H50.873L50.7025 54.9744H42.5633ZM43.6926 58L45.4823 47.0909H46.5477L44.7579 58H43.6926ZM43.2025 51.1818L43.373 50.1165H51.5122L51.3417 51.1818H43.2025ZM57.3358 58.1491C56.6327 58.1491 56.0059 58.0284 55.4555 57.7869C54.9086 57.5455 54.4736 57.2099 54.1505 56.7802C53.8309 56.3469 53.6569 55.8445 53.6285 55.2727H54.9708C54.9992 55.6243 55.1199 55.9279 55.333 56.1836C55.5461 56.4357 55.8248 56.631 56.1693 56.7695C56.5138 56.908 56.8955 56.9773 57.3145 56.9773C57.7833 56.9773 58.1988 56.8956 58.561 56.7322C58.9232 56.5689 59.2073 56.3416 59.4133 56.0504C59.6192 55.7592 59.7222 55.4219 59.7222 55.0384C59.7222 54.6371 59.6228 54.2837 59.4239 53.9783C59.2251 53.6694 58.9339 53.4279 58.5503 53.2539C58.1668 53.0799 57.6981 52.9929 57.1441 52.9929H56.2705V51.821H57.1441C57.5773 51.821 57.9573 51.7429 58.284 51.5866C58.6143 51.4304 58.8717 51.2102 59.0564 50.9261C59.2446 50.642 59.3387 50.3082 59.3387 49.9247C59.3387 49.5554 59.257 49.234 59.0937 48.9606C58.9303 48.6871 58.6995 48.4741 58.4012 48.3214C58.1064 48.1687 57.7584 48.0923 57.3572 48.0923C56.9807 48.0923 56.6256 48.1616 56.2918 48.3001C55.9616 48.435 55.6917 48.6321 55.4822 48.8913C55.2726 49.147 55.159 49.456 55.1412 49.8182H53.8628C53.8841 49.2464 54.0564 48.7457 54.3795 48.3161C54.7027 47.8828 55.1253 47.5455 55.6473 47.304C56.1729 47.0625 56.7499 46.9418 57.3785 46.9418C58.0532 46.9418 58.632 47.0785 59.115 47.3519C59.5979 47.6218 59.969 47.9787 60.2282 48.4226C60.4875 48.8665 60.6171 49.3459 60.6171 49.8608C60.6171 50.4751 60.4555 50.9989 60.1324 51.4322C59.8128 51.8654 59.3778 52.1655 58.8273 52.3324V52.4176C59.5162 52.5312 60.0542 52.8242 60.4413 53.2965C60.8284 53.7653 61.0219 54.3459 61.0219 55.0384C61.0219 55.6314 60.8604 56.1641 60.5372 56.6364C60.2176 57.1051 59.7808 57.4744 59.2268 57.7443C58.6729 58.0142 58.0425 58.1491 57.3358 58.1491ZM67.5727 58.1491C67.1253 58.142 66.6778 58.0568 66.2304 57.8935C65.7829 57.7301 65.3746 57.4549 65.0052 57.0678C64.6359 56.6772 64.3394 56.1499 64.1157 55.4858C63.892 54.8182 63.7801 53.9801 63.7801 52.9716C63.7801 52.0057 63.8706 51.1499 64.0518 50.4041C64.2329 49.6548 64.4956 49.0245 64.8401 48.5131C65.1846 47.9982 65.6001 47.6076 66.0866 47.3413C66.5766 47.0749 67.1288 46.9418 67.7432 46.9418C68.354 46.9418 68.8973 47.0643 69.3731 47.3093C69.8525 47.5508 70.2432 47.8881 70.545 48.3214C70.8469 48.7546 71.0422 49.2536 71.1309 49.8182H69.8312C69.7105 49.3281 69.4761 48.9215 69.1281 48.5984C68.7801 48.2752 68.3184 48.1136 67.7432 48.1136C66.898 48.1136 66.2322 48.4812 65.7456 49.2163C65.2627 49.9513 65.0194 50.983 65.0159 52.3111H65.1011C65.3 52.0092 65.5361 51.7518 65.8096 51.5387C66.0866 51.3221 66.392 51.1552 66.7258 51.038C67.0596 50.9208 67.4129 50.8622 67.7858 50.8622C68.4108 50.8622 68.9825 51.0185 69.501 51.331C70.0194 51.6399 70.4349 52.0678 70.7474 52.6147C71.0599 53.158 71.2162 53.7812 71.2162 54.4844C71.2162 55.1591 71.0653 55.777 70.7634 56.3381C70.4616 56.8956 70.0372 57.3395 69.4903 57.6697C68.947 57.9964 68.3078 58.1562 67.5727 58.1491ZM67.5727 56.9773C68.0202 56.9773 68.4214 56.8654 68.7765 56.6417C69.1352 56.418 69.4175 56.1179 69.6235 55.7415C69.833 55.3651 69.9378 54.946 69.9378 54.4844C69.9378 54.0334 69.8366 53.6232 69.6341 53.2539C69.4353 52.881 69.1601 52.5845 68.8085 52.3643C68.4605 52.1442 68.0628 52.0341 67.6153 52.0341C67.278 52.0341 66.9637 52.1016 66.6725 52.2365C66.3813 52.3679 66.1256 52.549 65.9055 52.7798C65.6888 53.0107 65.5184 53.2752 65.3941 53.5735C65.2698 53.8683 65.2077 54.179 65.2077 54.5057C65.2077 54.9389 65.3089 55.3437 65.5113 55.7202C65.7172 56.0966 65.9978 56.4002 66.3529 56.631C66.7116 56.8619 67.1182 56.9773 67.5727 56.9773ZM77.6831 58.1491C77.2356 58.142 76.7882 58.0568 76.3407 57.8935C75.8933 57.7301 75.4849 57.4549 75.1156 57.0678C74.7463 56.6772 74.4498 56.1499 74.226 55.4858C74.0023 54.8182 73.8904 53.9801 73.8904 52.9716C73.8904 52.0057 73.981 51.1499 74.1621 50.4041C74.3432 49.6548 74.606 49.0245 74.9505 48.5131C75.2949 47.9982 75.7104 47.6076 76.1969 47.3413C76.687 47.0749 77.2392 46.9418 77.8535 46.9418C78.4643 46.9418 79.0076 47.0643 79.4835 47.3093C79.9629 47.5508 80.3535 47.8881 80.6554 48.3214C80.9572 48.7546 81.1525 49.2536 81.2413 49.8182H79.9416C79.8208 49.3281 79.5865 48.9215 79.2385 48.5984C78.8904 48.2752 78.4288 48.1136 77.8535 48.1136C77.0083 48.1136 76.3425 48.4812 75.856 49.2163C75.373 49.9513 75.1298 50.983 75.1262 52.3111H75.2115C75.4103 52.0092 75.6465 51.7518 75.9199 51.5387C76.1969 51.3221 76.5023 51.1552 76.8361 51.038C77.1699 50.9208 77.5233 50.8622 77.8961 50.8622C78.5211 50.8622 79.0929 51.0185 79.6113 51.331C80.1298 51.6399 80.5453 52.0678 80.8578 52.6147C81.1703 53.158 81.3265 53.7812 81.3265 54.4844C81.3265 55.1591 81.1756 55.777 80.8738 56.3381C80.5719 56.8956 80.1475 57.3395 79.6007 57.6697C79.0574 57.9964 78.4181 58.1562 77.6831 58.1491ZM77.6831 56.9773C78.1305 56.9773 78.5318 56.8654 78.8869 56.6417C79.2456 56.418 79.5279 56.1179 79.7338 55.7415C79.9434 55.3651 80.0481 54.946 80.0481 54.4844C80.0481 54.0334 79.9469 53.6232 79.7445 53.2539C79.5456 52.881 79.2704 52.5845 78.9189 52.3643C78.5708 52.1442 78.1731 52.0341 77.7257 52.0341C77.3883 52.0341 77.074 52.1016 76.7828 52.2365C76.4917 52.3679 76.236 52.549 76.0158 52.7798C75.7992 53.0107 75.6287 53.2752 75.5044 53.5735C75.3801 53.8683 75.318 54.179 75.318 54.5057C75.318 54.9389 75.4192 55.3437 75.6216 55.7202C75.8276 56.0966 76.1081 56.4002 76.4632 56.631C76.8219 56.8619 77.2285 56.9773 77.6831 56.9773ZM87.6656 58.1491C86.934 58.1491 86.2877 58.0195 85.7267 57.7603C85.1691 57.4975 84.7341 57.1371 84.4216 56.679C84.1091 56.2173 83.9546 55.6918 83.9582 55.1023C83.9546 54.6406 84.0452 54.2145 84.2298 53.8239C84.4145 53.4297 84.6666 53.1012 84.9862 52.8384C85.3094 52.5721 85.6698 52.4034 86.0676 52.3324V52.2685C85.5455 52.1335 85.1301 51.8406 84.8211 51.3896C84.5122 50.935 84.3595 50.4183 84.363 49.8395C84.3595 49.2855 84.4997 48.7901 84.7838 48.3533C85.0679 47.9165 85.4585 47.5721 85.9557 47.32C86.4564 47.0678 87.0264 46.9418 87.6656 46.9418C88.2977 46.9418 88.8623 47.0678 89.3595 47.32C89.8566 47.5721 90.2472 47.9165 90.5313 48.3533C90.819 48.7901 90.9646 49.2855 90.9681 49.8395C90.9646 50.4183 90.8066 50.935 90.4941 51.3896C90.1851 51.8406 89.7749 52.1335 89.2636 52.2685V52.3324C89.6578 52.4034 90.0129 52.5721 90.3289 52.8384C90.645 53.1012 90.8971 53.4297 91.0853 53.8239C91.2735 54.2145 91.3694 54.6406 91.373 55.1023C91.3694 55.6918 91.2096 56.2173 90.8936 56.679C90.5811 57.1371 90.146 57.4975 89.5885 57.7603C89.0345 58.0195 88.3936 58.1491 87.6656 58.1491ZM87.6656 56.9773C88.1592 56.9773 88.5853 56.8974 88.944 56.7376C89.3026 56.5778 89.5796 56.3523 89.7749 56.0611C89.9703 55.7699 90.0697 55.429 90.0732 55.0384C90.0697 54.6264 89.9632 54.2624 89.7536 53.9464C89.5441 53.6303 89.2583 53.3817 88.896 53.2006C88.5374 53.0195 88.1272 52.929 87.6656 52.929C87.2004 52.929 86.7849 53.0195 86.4191 53.2006C86.0569 53.3817 85.771 53.6303 85.5615 53.9464C85.3556 54.2624 85.2544 54.6264 85.2579 55.0384C85.2544 55.429 85.3485 55.7699 85.5402 56.0611C85.7355 56.3523 86.0143 56.5778 86.3765 56.7376C86.7387 56.8974 87.1684 56.9773 87.6656 56.9773ZM87.6656 51.7997C88.0562 51.7997 88.4024 51.7216 88.7043 51.5653C89.0097 51.4091 89.2494 51.1907 89.4234 50.9102C89.5974 50.6296 89.6862 50.3011 89.6897 49.9247C89.6862 49.5554 89.5992 49.234 89.4287 48.9606C89.2583 48.6836 89.0221 48.4705 88.7203 48.3214C88.4184 48.1687 88.0669 48.0923 87.6656 48.0923C87.2572 48.0923 86.9003 48.1687 86.5949 48.3214C86.2895 48.4705 86.0534 48.6836 85.8865 48.9606C85.7195 49.234 85.6379 49.5554 85.6414 49.9247C85.6379 50.3011 85.7213 50.6296 85.8918 50.9102C86.0658 51.1907 86.3055 51.4091 86.6109 51.5653C86.9163 51.7216 87.2678 51.7997 87.6656 51.7997ZM97.5735 58.1491C96.9485 58.1491 96.3857 58.0249 95.8849 57.7763C95.3842 57.5277 94.983 57.1868 94.6811 56.7536C94.3793 56.3203 94.2141 55.8267 94.1857 55.2727H95.4641C95.5138 55.7663 95.7376 56.1747 96.1353 56.4979C96.5366 56.8175 97.016 56.9773 97.5735 56.9773C98.021 56.9773 98.4187 56.8725 98.7667 56.663C99.1183 56.4535 99.3935 56.1658 99.5923 55.8001C99.7947 55.4308 99.896 55.0135 99.896 54.5483C99.896 54.0724 99.7912 53.6481 99.5817 53.2752C99.3757 52.8988 99.0916 52.6023 98.7294 52.3857C98.3672 52.169 97.9535 52.0589 97.4883 52.0554C97.1545 52.0518 96.8118 52.1033 96.4602 52.2099C96.1087 52.3129 95.8192 52.446 95.592 52.6094L94.3562 52.4602L95.0167 47.0909H100.684V48.2628H96.1246L95.7411 51.4801H95.805C96.0288 51.3026 96.3093 51.1552 96.6467 51.038C96.984 50.9208 97.3356 50.8622 97.7013 50.8622C98.369 50.8622 98.9638 51.022 99.4858 51.3416C100.011 51.6577 100.423 52.0909 100.722 52.6413C101.023 53.1918 101.174 53.8203 101.174 54.527C101.174 55.223 101.018 55.8445 100.706 56.3913C100.397 56.9347 99.9705 57.3643 99.4272 57.6804C98.8839 57.9929 98.266 58.1491 97.5735 58.1491ZM107.599 58H104.232V47.0909H107.748C108.806 47.0909 109.712 47.3093 110.464 47.7461C111.217 48.1793 111.794 48.8026 112.196 49.6158C112.597 50.4254 112.797 51.3949 112.797 52.5241C112.797 53.6605 112.595 54.6388 112.19 55.4592C111.785 56.2759 111.196 56.9045 110.422 57.3448C109.648 57.7816 108.707 58 107.599 58ZM105.553 56.8281H107.513C108.415 56.8281 109.163 56.6541 109.756 56.3061C110.349 55.9581 110.791 55.4627 111.082 54.82C111.373 54.1772 111.519 53.4119 111.519 52.5241C111.519 51.6435 111.375 50.8853 111.088 50.2496C110.8 49.6104 110.37 49.1204 109.799 48.7795C109.227 48.435 108.515 48.2628 107.663 48.2628H105.553V56.8281Z" fill="#EBECF1"/>
<path d="M72.2261 76.8162C72.2261 76.8162 72.2117 76.8363 72.206 76.8449C72.1545 76.8191 72.0972 76.7905 72.0514 76.7704C71.7278 76.6245 71.4243 76.5386 71.1408 76.51C70.5108 76.4471 69.8694 76.7418 69.2137 77.3972C68.724 77.8866 68.4005 78.3388 68.2516 78.7537C68.1857 78.9426 68.1628 79.1286 68.1886 79.3147C68.2143 79.5007 68.2773 79.6467 68.3833 79.7497C68.4635 79.8298 68.558 79.8813 68.6696 79.9042C68.7784 79.9271 68.8758 79.9157 68.9588 79.8727C69.228 79.7239 69.4227 79.6552 69.5459 79.6638C69.669 79.6724 69.8551 79.7726 70.1071 79.9643C70.2589 80.0817 70.4078 80.1875 70.5481 80.2791C70.2989 81.1863 70.1615 82.1422 70.1615 83.121C70.1615 84.9698 70.6454 86.6926 71.4758 88.1436L77.5035 82.1165L72.2261 76.8162Z" fill="white"/>
<path d="M81.2491 73.9772C81.3235 73.6996 81.3665 73.4077 81.3665 73.1014C81.3665 71.433 80.1552 69.9534 78.6605 69.9534C77.1657 69.9534 75.9545 71.433 75.9545 73.1014C75.9545 73.3647 75.9888 73.6166 76.0433 73.8598C74.978 74.2577 74.0016 74.9016 73.1626 75.7287L78.5116 81.1004L83.8577 75.7544C83.0931 74.9903 82.2083 74.3807 81.2462 73.9743L81.2491 73.9772Z" fill="white"/>
<path d="M88.7482 78.7537C88.5964 78.3416 88.2757 77.8894 87.786 77.3972C87.1303 76.7418 86.4889 76.4471 85.8589 76.51C85.5754 76.5358 85.2719 76.6245 84.9483 76.7704C84.9025 76.7905 84.8481 76.8191 84.7966 76.8449L79.5249 82.1165L85.5239 88.1407C86.3543 86.6926 86.8382 84.9698 86.8382 83.121C86.8382 82.1422 86.7008 81.1863 86.4517 80.2791C86.592 80.1847 86.7409 80.0817 86.8926 79.9643C87.1446 79.7726 87.3307 79.6724 87.4539 79.6638C87.577 79.6552 87.7717 79.7239 88.0409 79.8727C88.1239 79.9157 88.2213 79.9271 88.3301 79.9042C88.4389 79.8813 88.5334 79.8298 88.6164 79.7497C88.7195 79.6467 88.7854 79.5007 88.8112 79.3147C88.8369 79.1286 88.814 78.9398 88.7482 78.7537Z" fill="white"/>
<path d="M86.9788 92.7828C86.9158 92.6912 86.8414 92.6283 86.7498 92.5996C86.4548 92.5138 86.2658 92.4251 86.1856 92.3335C86.1055 92.2419 86.0425 92.0387 85.9995 91.7239C85.8993 90.9684 85.7332 90.4074 85.5013 90.0411C85.318 89.7521 85.0488 89.5231 84.6995 89.3514L84.7052 89.3457L78.5144 83.1296L72.2978 89.3485H72.3006C71.9513 89.526 71.6821 89.7549 71.4989 90.044C71.2669 90.4103 71.1008 90.9712 71.0006 91.7268C70.9577 92.0416 70.8975 92.2448 70.8145 92.3363C70.7343 92.4279 70.5453 92.5195 70.2504 92.6025C70.1588 92.6311 70.0843 92.6912 70.0213 92.7857C69.9583 92.8772 69.9297 92.9803 69.9297 93.0947C69.9297 93.2407 69.987 93.3895 70.1015 93.5412C70.216 93.69 70.3621 93.8074 70.5425 93.8932C70.9405 94.0792 71.4874 94.1708 72.1832 94.1708C73.111 94.1708 73.7725 93.9247 74.1734 93.4382C74.3538 93.2207 74.5084 92.9431 74.6344 92.6111C74.7289 92.3621 74.8348 92.0129 74.9551 91.5579C76.0318 92.1246 77.2344 92.4451 78.5058 92.4451C79.7772 92.4451 80.977 92.1246 82.0565 91.5579C82.1768 92.0129 82.2827 92.3621 82.3772 92.6111C82.5032 92.9431 82.6578 93.2207 82.8382 93.4382C83.2363 93.9276 83.9006 94.1708 84.8284 94.1708C85.5213 94.1708 86.0682 94.0792 86.4691 93.8932C86.6495 93.8074 86.7984 93.69 86.9101 93.5412C87.0246 93.3924 87.0819 93.2436 87.0819 93.0947C87.0819 92.9803 87.0504 92.8772 86.9903 92.7857L86.9788 92.7828Z" fill="white"/>
</svg>
