<svg width="542" height="103" viewBox="0 0 542 103" fill="none" xmlns="http://www.w3.org/2000/svg">
<path d="M1.98 9.65C1.66 9.65 1.425 9.57 1.275 9.41C1.135 9.24 1.065 9.025 1.065 8.765V8.555C1.065 8.145 1.185 7.695 1.425 7.205C1.665 6.705 2 6.27 2.43 5.9H3.435C3.135 6.22 2.89 6.525 2.7 6.815C2.52 7.095 2.39 7.41 2.31 7.76C2.51 7.81 2.655 7.905 2.745 8.045C2.845 8.185 2.895 8.355 2.895 8.555V8.765C2.895 9.025 2.82 9.24 2.67 9.41C2.53 9.57 2.3 9.65 1.98 9.65ZM6.05156 17V15.95H7.52156V7.58H6.05156V6.53H10.2516V7.58H8.78156V15.95H10.2516V17H6.05156ZM17.491 19.475V18.425H25.066V19.475H17.491ZM27.0224 19.475V18.425H34.5974V19.475H27.0224ZM36.5539 19.475V18.425H44.1289V19.475H36.5539ZM58.6439 15.47H58.5989C58.4689 15.96 58.1489 16.37 57.6389 16.7C57.1389 17.02 56.4889 17.18 55.6889 17.18C55.0489 17.18 54.4589 17.065 53.9189 16.835C53.3889 16.595 52.9339 16.25 52.5539 15.8C52.1739 15.34 51.8739 14.775 51.6539 14.105C51.4439 13.425 51.3389 12.645 51.3389 11.765C51.3389 10.895 51.4439 10.125 51.6539 9.455C51.8639 8.775 52.1639 8.21 52.5539 7.76C52.9439 7.3 53.4139 6.95 53.9639 6.71C54.5139 6.47 55.1239 6.35 55.7939 6.35C56.7339 6.35 57.5189 6.56 58.1489 6.98C58.7789 7.4 59.2639 7.955 59.6039 8.645L58.5689 9.275C58.3289 8.715 57.9689 8.275 57.4889 7.955C57.0189 7.635 56.4539 7.475 55.7939 7.475C55.3339 7.475 54.9139 7.56 54.5339 7.73C54.1539 7.89 53.8239 8.12 53.5439 8.42C53.2739 8.72 53.0639 9.08 52.9139 9.5C52.7639 9.92 52.6889 10.39 52.6889 10.91V12.605C52.6889 13.125 52.7639 13.6 52.9139 14.03C53.0639 14.45 53.2739 14.81 53.5439 15.11C53.8239 15.41 54.1639 15.645 54.5639 15.815C54.9639 15.975 55.4139 16.055 55.9139 16.055C56.2739 16.055 56.6139 16.01 56.9339 15.92C57.2639 15.82 57.5489 15.675 57.7889 15.485C58.0389 15.295 58.2339 15.06 58.3739 14.78C58.5139 14.49 58.5839 14.15 58.5839 13.76V12.725H56.2739V11.615H59.8139V17H58.6439V15.47ZM64.6036 17H63.3436V6.53H67.5136C68.4336 6.53 69.1486 6.785 69.6586 7.295C70.1786 7.805 70.4386 8.54 70.4386 9.5C70.4386 10.27 70.2586 10.905 69.8986 11.405C69.5486 11.895 69.0286 12.22 68.3386 12.38L70.7386 17H69.3136L67.0486 12.5H64.6036V17ZM67.5136 11.42C68.0136 11.42 68.3986 11.29 68.6686 11.03C68.9486 10.77 69.0886 10.4 69.0886 9.92V9.14C69.0886 8.66 68.9486 8.29 68.6686 8.03C68.3986 7.77 68.0136 7.64 67.5136 7.64H64.6036V11.42H67.5136ZM73.4933 17V15.95H74.9633V7.58H73.4933V6.53H77.6933V7.58H76.2233V15.95H77.6933V17H73.4933ZM84.4666 7.64V17H83.2066V7.64H79.8766V6.53H87.7966V7.64H84.4666ZM91.5886 5.75C91.9086 5.75 92.1386 5.835 92.2786 6.005C92.4286 6.165 92.5036 6.375 92.5036 6.635V6.845C92.5036 7.255 92.3836 7.71 92.1436 8.21C91.9036 8.7 91.5686 9.13 91.1386 9.5H90.1336C90.4336 9.18 90.6736 8.88 90.8536 8.6C91.0436 8.31 91.1786 7.99 91.2586 7.64C91.0586 7.59 90.9086 7.495 90.8086 7.355C90.7186 7.215 90.6736 7.045 90.6736 6.845V6.635C90.6736 6.375 90.7436 6.165 90.8836 6.005C91.0336 5.835 91.2686 5.75 91.5886 5.75ZM111.264 5.465V15.35H110.109V5.465H111.264ZM101.904 6.245V8.585H105.864V6.215H106.974V12.875H100.794V6.245H101.904ZM105.864 9.515H101.904V11.945H105.864V9.515ZM102.924 18.005V14.45H104.079V17.825H111.534V18.77H103.674C103.434 18.77 103.249 18.705 103.119 18.575C102.989 18.445 102.924 18.255 102.924 18.005ZM127.098 9.41V10.37H125.013V15.35H123.873V5.465H125.013V9.41H127.098ZM115.383 13.955L114.768 13.13C116.188 12.56 117.278 12.02 118.038 11.51C118.808 11 119.343 10.45 119.643 9.86L114.873 10.22L114.738 9.26L119.928 8.99C119.968 8.79 119.988 8.56 119.988 8.3V7.28H115.278V6.35H121.068V8.225C121.068 9.095 120.883 9.85 120.513 10.49C120.153 11.12 119.563 11.71 118.743 12.26C117.933 12.8 116.813 13.365 115.383 13.955ZM117.978 17.825H125.313V18.77H117.588C117.348 18.77 117.163 18.705 117.033 18.575C116.903 18.445 116.838 18.255 116.838 18.005V14.45H117.978V17.825ZM140.442 5.465V18.485H139.347V5.465H140.442ZM136.392 5.69H137.457V18.125H136.392V11.3H134.952C134.902 12.6 134.612 13.58 134.082 14.24C133.552 14.89 132.852 15.215 131.982 15.215C131.052 15.215 130.317 14.855 129.777 14.135C129.237 13.405 128.967 12.32 128.967 10.88C128.967 9.44 129.237 8.36 129.777 7.64C130.317 6.91 131.052 6.545 131.982 6.545C132.842 6.545 133.532 6.865 134.052 7.505C134.582 8.145 134.882 9.095 134.952 10.355H136.392V5.69ZM133.812 10.16C133.812 9.28 133.642 8.61 133.302 8.15C132.972 7.69 132.532 7.46 131.982 7.46C131.422 7.46 130.972 7.69 130.632 8.15C130.302 8.61 130.137 9.28 130.137 10.16V11.615C130.137 12.485 130.302 13.155 130.632 13.625C130.972 14.085 131.422 14.315 131.982 14.315C132.532 14.315 132.972 14.085 133.302 13.625C133.642 13.155 133.812 12.485 133.812 11.615V10.16ZM158.649 9.965H149.994V5.765H158.529V6.68H151.119V9.05H158.649V9.965ZM160.374 11.3V12.26H148.134V11.3H160.374ZM151.134 18.17H158.919V19.1H150.789C150.549 19.1 150.364 19.035 150.234 18.905C150.104 18.775 150.039 18.585 150.039 18.335V15.875H157.434V14.465H149.949V13.535H158.529V16.745H151.134V18.17ZM173.733 5.465V18.485H172.608V11.105H169.818C169.768 12.445 169.428 13.46 168.798 14.15C168.168 14.83 167.358 15.17 166.368 15.17C165.328 15.17 164.488 14.795 163.848 14.045C163.218 13.295 162.903 12.19 162.903 10.73C162.903 9.26 163.218 8.155 163.848 7.415C164.478 6.665 165.318 6.29 166.368 6.29C167.338 6.29 168.133 6.615 168.753 7.265C169.373 7.915 169.728 8.875 169.818 10.145H172.608V5.465H173.733ZM168.633 10.13C168.633 9.2 168.423 8.49 168.003 8C167.593 7.5 167.048 7.25 166.368 7.25C165.688 7.25 165.143 7.5 164.733 8C164.323 8.49 164.118 9.2 164.118 10.13V11.33C164.118 12.26 164.323 12.975 164.733 13.475C165.143 13.965 165.688 14.21 166.368 14.21C167.048 14.21 167.593 13.965 168.003 13.475C168.423 12.975 168.633 12.26 168.633 11.33V10.13ZM189.612 11.555H187.452V18.515H186.312V5.495H187.452V10.595H189.612V11.555ZM177.627 6.53H183.462V8.615C183.462 9.725 183.297 10.665 182.967 11.435C182.637 12.205 182.077 12.925 181.287 13.595C180.507 14.255 179.387 14.98 177.927 15.77L177.252 14.915C178.612 14.195 179.652 13.54 180.372 12.95C181.092 12.36 181.597 11.735 181.887 11.075C182.177 10.415 182.322 9.6 182.322 8.63V7.505H177.627V6.53ZM201.906 10.655H193.281V5.945H194.406V9.71H201.906V10.655ZM203.646 12.32V13.295H191.406V12.32H203.646ZM194.301 17.795H202.071V18.755H193.911C193.671 18.755 193.486 18.69 193.356 18.56C193.226 18.43 193.161 18.24 193.161 17.99V14.705H194.301V17.795ZM222.904 11.975V12.95H210.664V11.975H216.229V10.415H212.524V5.825H221.059V6.755H213.649V9.47H221.179V10.415H217.354V11.975H222.904ZM221.209 16.685C221.209 17.195 221.044 17.645 220.714 18.035C220.384 18.425 219.884 18.73 219.214 18.95C218.554 19.18 217.744 19.295 216.784 19.295C215.824 19.295 215.009 19.18 214.339 18.95C213.679 18.73 213.184 18.425 212.854 18.035C212.524 17.645 212.359 17.195 212.359 16.685C212.359 16.185 212.524 15.745 212.854 15.365C213.194 14.975 213.694 14.67 214.354 14.45C215.014 14.23 215.824 14.12 216.784 14.12C217.744 14.12 218.554 14.23 219.214 14.45C219.874 14.67 220.369 14.975 220.699 15.365C221.039 15.745 221.209 16.185 221.209 16.685ZM220.009 16.595C220.009 16.155 219.739 15.785 219.199 15.485C218.669 15.175 217.864 15.02 216.784 15.02C215.704 15.02 214.894 15.175 214.354 15.485C213.814 15.785 213.544 16.155 213.544 16.595V16.805C213.544 17.245 213.814 17.615 214.354 17.915C214.894 18.225 215.704 18.38 216.784 18.38C217.864 18.38 218.669 18.225 219.199 17.915C219.739 17.615 220.009 17.245 220.009 16.805V16.595ZM237.718 11.555H235.558V18.515H234.418V5.495H235.558V10.595H237.718V11.555ZM229.513 10.715C229.643 10.715 229.753 10.77 229.843 10.88L232.768 14.63L231.898 15.395L228.958 11.54C228.928 11.48 228.878 11.45 228.808 11.45C228.758 11.45 228.708 11.48 228.658 11.54C228.398 12.12 228.048 12.72 227.608 13.34C227.168 13.95 226.573 14.7 225.823 15.59L224.953 14.855C225.823 13.865 226.488 13.02 226.948 12.32C227.418 11.61 227.753 10.9 227.953 10.19C228.163 9.48 228.268 8.665 228.268 7.745V6.335H229.423V7.73C229.423 8.92 229.248 10 228.898 10.97L228.973 11.015L229.198 10.835C229.308 10.755 229.413 10.715 229.513 10.715ZM251.077 5.465V18.485H249.982V5.465H251.077ZM247.027 5.69H248.092V18.125H247.027V11.3H245.587C245.537 12.6 245.247 13.58 244.717 14.24C244.187 14.89 243.487 15.215 242.617 15.215C241.687 15.215 240.952 14.855 240.412 14.135C239.872 13.405 239.602 12.32 239.602 10.88C239.602 9.44 239.872 8.36 240.412 7.64C240.952 6.91 241.687 6.545 242.617 6.545C243.477 6.545 244.167 6.865 244.687 7.505C245.217 8.145 245.517 9.095 245.587 10.355H247.027V5.69ZM244.447 10.16C244.447 9.28 244.277 8.61 243.937 8.15C243.607 7.69 243.167 7.46 242.617 7.46C242.057 7.46 241.607 7.69 241.267 8.15C240.937 8.61 240.772 9.28 240.772 10.16V11.615C240.772 12.485 240.937 13.155 241.267 13.625C241.607 14.085 242.057 14.315 242.617 14.315C243.167 14.315 243.607 14.085 243.937 13.625C244.277 13.155 244.447 12.485 244.447 11.615V10.16ZM271.445 11.555H269.435V18.515H268.325V5.495H269.435V10.595H271.445V11.555ZM262.565 13.835L262.7 14.705C262.05 14.915 261.155 15.02 260.015 15.02H259.1V6.605H262.385V7.535H260.195V14.09C261.145 14.09 261.935 14.005 262.565 13.835ZM267.185 13.865L267.305 14.75C266.965 14.84 266.525 14.915 265.985 14.975C265.455 15.025 264.875 15.05 264.245 15.05H263.135V6.605H266.66V7.535H264.23V14.12H264.335C265.575 14.12 266.525 14.035 267.185 13.865ZM285.824 11.555H283.664V18.515H282.524V5.495H283.664V10.595H285.824V11.555ZM281.039 13.925L281.189 14.84C279.669 15.14 277.739 15.29 275.399 15.29H273.809V10.265H278.474V7.415H273.749V6.455H279.599V11.21H274.934V14.36H275.429C277.619 14.36 279.489 14.215 281.039 13.925ZM302.501 5.465H303.626V18.485H302.501V5.465ZM293.141 9.365C293.141 8.745 293.296 8.2 293.606 7.73C293.916 7.25 294.341 6.885 294.881 6.635C295.421 6.375 296.031 6.245 296.711 6.245C297.391 6.245 298.001 6.375 298.541 6.635C299.081 6.885 299.506 7.25 299.816 7.73C300.126 8.2 300.281 8.745 300.281 9.365C300.281 9.985 300.126 10.53 299.816 11C299.506 11.47 299.081 11.835 298.541 12.095C298.001 12.345 297.391 12.47 296.711 12.47C296.031 12.47 295.421 12.345 294.881 12.095C294.341 11.835 293.916 11.47 293.606 11C293.296 10.53 293.141 9.985 293.141 9.365ZM299.081 9.545V9.185C299.081 8.585 298.861 8.1 298.421 7.73C297.981 7.36 297.411 7.175 296.711 7.175C296.011 7.175 295.441 7.36 295.001 7.73C294.561 8.1 294.341 8.585 294.341 9.185V9.545C294.341 10.145 294.561 10.63 295.001 11C295.441 11.37 296.011 11.555 296.711 11.555C297.411 11.555 297.981 11.37 298.421 11C298.861 10.63 299.081 10.145 299.081 9.545ZM292.511 14.78C294.211 14.78 295.851 14.74 297.431 14.66C299.011 14.58 300.351 14.455 301.451 14.285L301.571 15.2C300.441 15.38 299.081 15.52 297.491 15.62C295.911 15.71 294.286 15.755 292.616 15.755L292.511 14.78ZM316.895 5.465H318.035V18.485H316.895V5.465ZM307.64 6.5H313.895V14.855H307.64V6.5ZM312.77 13.91V7.445H308.75V13.91H312.77ZM333.929 11.555H331.769V18.515H330.629V5.495H331.769V10.595H333.929V11.555ZM321.944 6.53H327.779V8.615C327.779 9.725 327.614 10.665 327.284 11.435C326.954 12.205 326.394 12.925 325.604 13.595C324.824 14.255 323.704 14.98 322.244 15.77L321.569 14.915C322.929 14.195 323.969 13.54 324.689 12.95C325.409 12.36 325.914 11.735 326.204 11.075C326.494 10.415 326.639 9.6 326.639 8.63V7.505H321.944V6.53ZM353.202 8.45V9.41H351.117V12.335H349.977V5.465H351.117V8.45H353.202ZM348.462 11.345C347.742 11.495 346.877 11.615 345.867 11.705C344.857 11.785 343.777 11.825 342.627 11.825H341.082V6.05H347.037V7.01H342.222V10.895H342.627C343.707 10.895 344.742 10.855 345.732 10.775C346.732 10.695 347.592 10.585 348.312 10.445L348.462 11.345ZM344.037 18.125H351.477V19.1H343.632C343.392 19.1 343.207 19.035 343.077 18.905C342.947 18.775 342.882 18.585 342.882 18.335V15.62H349.977V14.075H342.792V13.115H351.117V16.58H344.037V18.125ZM367.611 11.555H365.451V18.515H364.311V5.495H365.451V10.595H367.611V11.555ZM362.826 13.925L362.976 14.84C361.456 15.14 359.526 15.29 357.186 15.29H355.596V10.265H360.261V7.415H355.536V6.455H361.386V11.21H356.721V14.36H357.216C359.406 14.36 361.276 14.215 362.826 13.925ZM380.565 5.465V18.485H379.425V5.465H380.565ZM374.295 10.97C374.435 10.97 374.55 11.025 374.64 11.135L377.58 14.585L376.725 15.32L373.755 11.75C373.705 11.69 373.645 11.66 373.575 11.66C373.515 11.66 373.46 11.69 373.41 11.75C373.14 12.3 372.785 12.86 372.345 13.43C371.905 14 371.305 14.7 370.545 15.53L369.69 14.81C370.56 13.9 371.23 13.11 371.7 12.44C372.18 11.77 372.525 11.105 372.735 10.445C372.945 9.775 373.05 9.015 373.05 8.165V7.595H370.095V6.635H377.13V7.595H374.19V8.21C374.19 9.34 374.015 10.345 373.665 11.225L373.74 11.27L373.965 11.09C374.075 11.01 374.185 10.97 374.295 10.97ZM394.329 10.655H385.704V5.945H386.829V9.71H394.329V10.655ZM396.069 12.32V13.295H383.829V12.32H396.069ZM386.724 17.795H394.494V18.755H386.334C386.094 18.755 385.909 18.69 385.779 18.56C385.649 18.43 385.584 18.24 385.584 17.99V14.705H386.724V17.795ZM413.182 9.965H410.272V9.005H413.182V5.465H414.322V14.255H413.182V9.965ZM404.212 13.325L403.597 12.455C404.937 11.915 405.957 11.43 406.657 11C407.357 10.56 407.847 10.1 408.127 9.62C408.417 9.14 408.562 8.555 408.562 7.865V7.25H403.972V6.275H409.717V7.745C409.717 8.645 409.552 9.395 409.222 9.995C408.902 10.595 408.352 11.15 407.572 11.66C406.802 12.16 405.682 12.715 404.212 13.325ZM414.952 18.245L414.292 19.13L410.317 16.775C410.207 16.705 410.092 16.67 409.972 16.67C409.842 16.67 409.732 16.71 409.642 16.79H409.627C409.267 17.15 408.772 17.52 408.142 17.9C407.522 18.29 406.722 18.715 405.742 19.175L405.112 18.305C406.312 17.765 407.227 17.28 407.857 16.85C408.487 16.41 408.922 15.975 409.162 15.545C409.402 15.115 409.522 14.615 409.522 14.045V13.61H410.707V14.09C410.707 14.56 410.652 14.98 410.542 15.35C410.442 15.71 410.262 16.055 410.002 16.385L410.062 16.4L410.422 16.145C410.582 16.035 410.707 15.98 410.797 15.98C410.877 15.98 410.987 16.015 411.127 16.085L414.952 18.245ZM419.131 7.865C419.131 7.135 419.506 6.555 420.256 6.125C421.006 5.685 422.131 5.465 423.631 5.465C425.131 5.465 426.256 5.685 427.006 6.125C427.756 6.555 428.131 7.135 428.131 7.865C428.131 8.595 427.756 9.18 427.006 9.62C426.256 10.06 425.131 10.28 423.631 10.28C422.131 10.28 421.006 10.06 420.256 9.62C419.506 9.18 419.131 8.595 419.131 7.865ZM426.916 7.94V7.775C426.916 7.345 426.641 6.995 426.091 6.725C425.551 6.445 424.731 6.305 423.631 6.305C422.531 6.305 421.706 6.445 421.156 6.725C420.616 6.995 420.346 7.345 420.346 7.775V7.94C420.346 8.37 420.616 8.725 421.156 9.005C421.706 9.275 422.531 9.41 423.631 9.41C424.731 9.41 425.551 9.275 426.091 9.005C426.641 8.725 426.916 8.37 426.916 7.94ZM429.751 11.315V12.275H417.511V11.315H429.751ZM419.416 18.335V15.875H426.811V14.465H419.326V13.535H427.906V16.745H420.511V18.17H428.296V19.1H420.166C419.926 19.1 419.741 19.035 419.611 18.905C419.481 18.775 419.416 18.585 419.416 18.335ZM449.398 11.555H447.238V18.515H446.098V5.495H447.238V10.595H449.398V11.555ZM441.268 10.97C441.388 10.97 441.503 11.025 441.613 11.135L444.538 14.6L443.683 15.335L440.743 11.75C440.683 11.69 440.618 11.66 440.548 11.66C440.478 11.66 440.428 11.69 440.398 11.75C440.128 12.29 439.773 12.845 439.333 13.415C438.903 13.975 438.313 14.68 437.563 15.53L436.723 14.825C437.593 13.905 438.258 13.11 438.718 12.44C439.188 11.77 439.528 11.105 439.738 10.445C439.948 9.775 440.053 9.015 440.053 8.165V7.595H437.113V6.635H444.103V7.595H441.178V8.195C441.178 9.315 440.998 10.32 440.638 11.21L440.713 11.27L440.953 11.09C441.053 11.01 441.158 10.97 441.268 10.97ZM461.287 11.45H458.617V10.52H461.287V8.48H458.617V7.55H461.287V5.465H462.427V15.35H461.287V11.45ZM454.942 12.95C454.282 12.95 453.697 12.815 453.187 12.545C452.677 12.265 452.277 11.865 451.987 11.345C451.697 10.825 451.552 10.215 451.552 9.515C451.552 8.815 451.697 8.205 451.987 7.685C452.277 7.165 452.677 6.77 453.187 6.5C453.697 6.22 454.282 6.08 454.942 6.08C455.602 6.08 456.187 6.22 456.697 6.5C457.207 6.77 457.607 7.165 457.897 7.685C458.187 8.205 458.332 8.815 458.332 9.515C458.332 10.215 458.187 10.825 457.897 11.345C457.607 11.865 457.207 12.265 456.697 12.545C456.187 12.815 455.602 12.95 454.942 12.95ZM454.942 12.02C455.592 12.02 456.117 11.825 456.517 11.435C456.927 11.035 457.132 10.505 457.132 9.845V9.2C457.132 8.54 456.927 8.01 456.517 7.61C456.117 7.21 455.592 7.01 454.942 7.01C454.282 7.01 453.747 7.21 453.337 7.61C452.937 8.01 452.737 8.54 452.737 9.2V9.845C452.737 10.505 452.937 11.035 453.337 11.435C453.747 11.825 454.282 12.02 454.942 12.02ZM462.697 17.825V18.77H454.837C454.597 18.77 454.412 18.705 454.282 18.575C454.152 18.445 454.087 18.255 454.087 18.005V14.27H455.242V17.825H462.697ZM475.666 5.465H476.791V18.485H475.666V5.465ZM466.306 9.365C466.306 8.745 466.461 8.2 466.771 7.73C467.081 7.25 467.506 6.885 468.046 6.635C468.586 6.375 469.196 6.245 469.876 6.245C470.556 6.245 471.166 6.375 471.706 6.635C472.246 6.885 472.671 7.25 472.981 7.73C473.291 8.2 473.446 8.745 473.446 9.365C473.446 9.985 473.291 10.53 472.981 11C472.671 11.47 472.246 11.835 471.706 12.095C471.166 12.345 470.556 12.47 469.876 12.47C469.196 12.47 468.586 12.345 468.046 12.095C467.506 11.835 467.081 11.47 466.771 11C466.461 10.53 466.306 9.985 466.306 9.365ZM472.246 9.545V9.185C472.246 8.585 472.026 8.1 471.586 7.73C471.146 7.36 470.576 7.175 469.876 7.175C469.176 7.175 468.606 7.36 468.166 7.73C467.726 8.1 467.506 8.585 467.506 9.185V9.545C467.506 10.145 467.726 10.63 468.166 11C468.606 11.37 469.176 11.555 469.876 11.555C470.576 11.555 471.146 11.37 471.586 11C472.026 10.63 472.246 10.145 472.246 9.545ZM465.676 14.78C467.376 14.78 469.016 14.74 470.596 14.66C472.176 14.58 473.516 14.455 474.616 14.285L474.736 15.2C473.606 15.38 472.246 15.52 470.656 15.62C469.076 15.71 467.451 15.755 465.781 15.755L465.676 14.78ZM497.504 11.555H495.344V18.515H494.204V5.495H495.344V10.595H497.504V11.555ZM492.629 13.685L492.779 14.6C491.249 14.91 489.339 15.065 487.049 15.065H485.459V6.53H491.444V7.49H486.599V14.12H487.034C489.234 14.12 491.099 13.975 492.629 13.685ZM510.863 5.465V18.485H509.768V11.495H507.743V18.125H506.648V5.69H507.743V10.55H509.768V5.465H510.863ZM504.383 7.265H500.918V6.335H504.383V7.265ZM503.168 12.08C503.288 12.08 503.403 12.135 503.513 12.245L505.973 14.93L505.193 15.605L502.718 12.8C502.668 12.75 502.613 12.725 502.553 12.725C502.493 12.725 502.443 12.75 502.403 12.8C502.173 13.24 501.868 13.7 501.488 14.18C501.108 14.66 500.618 15.205 500.018 15.815L499.253 15.155C500.003 14.395 500.578 13.74 500.978 13.19C501.378 12.63 501.663 12.08 501.833 11.54C502.013 11 502.103 10.385 502.103 9.695H499.598V8.78H505.658V9.695H503.153C503.153 10.625 502.993 11.47 502.673 12.23L502.748 12.275L502.883 12.17C502.973 12.11 503.068 12.08 503.168 12.08ZM525.962 16.04V17H513.722V16.04H519.272V13.475H515.522V9.41H523.022V7.205H515.447V6.26H524.162V10.325H516.662V12.53H524.552V13.475H520.412V16.04H525.962ZM529.751 8.45C529.751 7.91 529.916 7.43 530.246 7.01C530.576 6.59 531.076 6.26 531.746 6.02C532.426 5.77 533.266 5.645 534.266 5.645C535.266 5.645 536.101 5.77 536.771 6.02C537.451 6.26 537.956 6.59 538.286 7.01C538.616 7.43 538.781 7.91 538.781 8.45C538.781 8.99 538.616 9.47 538.286 9.89C537.956 10.31 537.451 10.645 536.771 10.895C536.101 11.135 535.266 11.255 534.266 11.255C533.266 11.255 532.426 11.135 531.746 10.895C531.076 10.645 530.576 10.31 530.246 9.89C529.916 9.47 529.751 8.99 529.751 8.45ZM530.966 8.57C530.966 9.08 531.241 9.505 531.791 9.845C532.341 10.185 533.166 10.355 534.266 10.355C535.366 10.355 536.191 10.185 536.741 9.845C537.291 9.505 537.566 9.08 537.566 8.57V8.315C537.566 7.805 537.291 7.38 536.741 7.04C536.191 6.7 535.366 6.53 534.266 6.53C533.166 6.53 532.341 6.7 531.791 7.04C531.241 7.38 530.966 7.805 530.966 8.315V8.57ZM540.386 12.41V13.385H534.911V16.13H533.771V13.385H528.146V12.41H540.386ZM530.996 17.9H538.796V18.845H530.621C530.381 18.845 530.196 18.78 530.066 18.65C529.936 18.52 529.871 18.33 529.871 18.08V14.885H530.996V17.9ZM12.135 28.465V36.295H11.025V32.83H9.015V36.13H7.92V28.675H9.015V31.9H11.025V28.465H12.135ZM3.855 33.115C3.775 33.115 3.715 33.145 3.675 33.205C3.445 33.635 3.145 34.08 2.775 34.54C2.405 34.99 1.93 35.51 1.35 36.1L0.555 35.41C1.295 34.64 1.855 33.985 2.235 33.445C2.625 32.895 2.9 32.36 3.06 31.84C3.23 31.32 3.315 30.72 3.315 30.04V29.215H4.41V30.07C4.41 31.01 4.265 31.845 3.975 32.575L4.035 32.605L4.215 32.455C4.325 32.375 4.425 32.335 4.515 32.335C4.615 32.335 4.715 32.385 4.815 32.485L7.215 35.095L6.435 35.845L4.05 33.205C3.99 33.145 3.925 33.115 3.855 33.115ZM3.315 37.12H12.135V42.145H11.01V38.095H3.315V37.12ZM27.639 31.825V32.785H25.554V36.22H24.414V28.465H25.554V31.825H27.639ZM18.729 32.725C18.659 32.725 18.594 32.76 18.534 32.83C18.274 33.26 17.929 33.705 17.499 34.165C17.079 34.615 16.509 35.175 15.789 35.845L14.949 35.11C15.799 34.35 16.454 33.7 16.914 33.16C17.374 32.62 17.704 32.085 17.904 31.555C18.104 31.025 18.204 30.425 18.204 29.755V28.945H19.344V29.815C19.344 30.725 19.169 31.555 18.819 32.305L18.894 32.365L19.134 32.155C19.244 32.065 19.354 32.02 19.464 32.02C19.574 32.02 19.674 32.065 19.764 32.155L22.614 34.795L21.804 35.575L18.924 32.815C18.864 32.755 18.799 32.725 18.729 32.725ZM25.659 39.34C25.659 39.89 25.504 40.38 25.194 40.81C24.884 41.25 24.419 41.595 23.799 41.845C23.179 42.095 22.419 42.22 21.519 42.22C20.629 42.22 19.869 42.095 19.239 41.845C18.619 41.595 18.149 41.25 17.829 40.81C17.519 40.38 17.364 39.89 17.364 39.34C17.364 38.79 17.519 38.3 17.829 37.87C18.149 37.43 18.619 37.085 19.239 36.835C19.869 36.585 20.629 36.46 21.519 36.46C22.419 36.46 23.179 36.585 23.799 36.835C24.419 37.085 24.884 37.43 25.194 37.87C25.504 38.3 25.659 38.79 25.659 39.34ZM24.459 39.22C24.459 38.7 24.214 38.265 23.724 37.915C23.244 37.565 22.509 37.39 21.519 37.39C20.539 37.39 19.804 37.57 19.314 37.93C18.824 38.28 18.579 38.71 18.579 39.22V39.475C18.579 39.985 18.824 40.415 19.314 40.765C19.804 41.125 20.539 41.305 21.519 41.305C22.509 41.305 23.244 41.125 23.724 40.765C24.214 40.415 24.459 39.985 24.459 39.475V39.22ZM31.038 30.865C31.038 30.135 31.413 29.555 32.163 29.125C32.913 28.685 34.038 28.465 35.538 28.465C37.038 28.465 38.163 28.685 38.913 29.125C39.663 29.555 40.038 30.135 40.038 30.865C40.038 31.595 39.663 32.18 38.913 32.62C38.163 33.06 37.038 33.28 35.538 33.28C34.038 33.28 32.913 33.06 32.163 32.62C31.413 32.18 31.038 31.595 31.038 30.865ZM38.823 30.94V30.775C38.823 30.345 38.548 29.995 37.998 29.725C37.458 29.445 36.638 29.305 35.538 29.305C34.438 29.305 33.613 29.445 33.063 29.725C32.523 29.995 32.253 30.345 32.253 30.775V30.94C32.253 31.37 32.523 31.725 33.063 32.005C33.613 32.275 34.438 32.41 35.538 32.41C36.638 32.41 37.458 32.275 37.998 32.005C38.548 31.725 38.823 31.37 38.823 30.94ZM41.658 34.315V35.275H29.418V34.315H41.658ZM31.323 41.335V38.875H38.718V37.465H31.233V36.535H39.813V39.745H32.418V41.17H40.203V42.1H32.073C31.833 42.1 31.648 42.035 31.518 41.905C31.388 41.775 31.323 41.585 31.323 41.335ZM62.6614 34.555H60.5014V41.515H59.3614V28.495H60.5014V33.595H62.6614V34.555ZM54.4564 33.715C54.5864 33.715 54.6964 33.77 54.7864 33.88L57.7114 37.63L56.8414 38.395L53.9014 34.54C53.8714 34.48 53.8214 34.45 53.7514 34.45C53.7014 34.45 53.6514 34.48 53.6014 34.54C53.3414 35.12 52.9914 35.72 52.5514 36.34C52.1114 36.95 51.5164 37.7 50.7664 38.59L49.8964 37.855C50.7664 36.865 51.4314 36.02 51.8914 35.32C52.3614 34.61 52.6964 33.9 52.8964 33.19C53.1064 32.48 53.2114 31.665 53.2114 30.745V29.335H54.3664V30.73C54.3664 31.92 54.1914 33 53.8414 33.97L53.9164 34.015L54.1414 33.835C54.2514 33.755 54.3564 33.715 54.4564 33.715ZM76.6954 35.05V36.01H64.4554V35.05H67.7104V33.28C67.1604 33.05 66.7454 32.75 66.4654 32.38C66.1954 32.01 66.0604 31.59 66.0604 31.12C66.0604 30.34 66.4404 29.71 67.2004 29.23C67.9604 28.74 69.0854 28.495 70.5754 28.495C72.0654 28.495 73.1904 28.74 73.9504 29.23C74.7104 29.71 75.0904 30.34 75.0904 31.12C75.0904 31.59 74.9504 32.01 74.6704 32.38C74.4004 32.75 73.9904 33.05 73.4404 33.28V35.05H76.6954ZM70.5754 32.86C71.6854 32.86 72.5154 32.705 73.0654 32.395C73.6154 32.085 73.8904 31.69 73.8904 31.21V31C73.8904 30.53 73.6104 30.14 73.0504 29.83C72.5004 29.52 71.6754 29.365 70.5754 29.365C69.4754 29.365 68.6504 29.52 68.1004 29.83C67.5504 30.14 67.2754 30.53 67.2754 31V31.21C67.2754 31.69 67.5454 32.085 68.0854 32.395C68.6354 32.705 69.4654 32.86 70.5754 32.86ZM68.8054 35.05H72.3454V33.595C71.8554 33.695 71.2654 33.745 70.5754 33.745C69.8854 33.745 69.2954 33.695 68.8054 33.595V35.05ZM75.0154 39.685C75.0154 40.195 74.8454 40.645 74.5054 41.035C74.1754 41.425 73.6754 41.73 73.0054 41.95C72.3454 42.18 71.5354 42.295 70.5754 42.295C69.6154 42.295 68.8004 42.18 68.1304 41.95C67.4704 41.73 66.9704 41.425 66.6304 41.035C66.3004 40.645 66.1354 40.195 66.1354 39.685C66.1354 39.185 66.3004 38.745 66.6304 38.365C66.9704 37.975 67.4704 37.67 68.1304 37.45C68.8004 37.23 69.6154 37.12 70.5754 37.12C71.5354 37.12 72.3454 37.23 73.0054 37.45C73.6754 37.67 74.1754 37.975 74.5054 38.365C74.8454 38.745 75.0154 39.185 75.0154 39.685ZM73.8154 39.595C73.8154 39.155 73.5454 38.785 73.0054 38.485C72.4754 38.175 71.6654 38.02 70.5754 38.02C69.8454 38.02 69.2354 38.095 68.7454 38.245C68.2554 38.385 67.8954 38.575 67.6654 38.815C67.4354 39.055 67.3204 39.315 67.3204 39.595V39.805C67.3204 40.085 67.4354 40.345 67.6654 40.585C67.8954 40.825 68.2554 41.015 68.7454 41.155C69.2354 41.305 69.8454 41.38 70.5754 41.38C71.6654 41.38 72.4754 41.225 73.0054 40.915C73.5454 40.615 73.8154 40.245 73.8154 39.805V39.595ZM91.5095 34.795H89.3945V41.515H88.2545V28.495H89.3945V33.835H91.5095V34.795ZM85.0595 30.175H80.7995V29.2H85.0595V30.175ZM78.8045 31.975H86.8295V32.905H84.6095V32.995C85.5195 33.445 85.9745 34.31 85.9745 35.59C85.9745 36.24 85.8395 36.805 85.5695 37.285C85.2995 37.755 84.9245 38.115 84.4445 38.365C83.9745 38.615 83.4495 38.74 82.8695 38.74C82.2895 38.74 81.7595 38.615 81.2795 38.365C80.8095 38.115 80.4395 37.755 80.1695 37.285C79.8995 36.805 79.7645 36.24 79.7645 35.59C79.7645 34.31 80.2195 33.445 81.1295 32.995V32.905H78.8045V31.975ZM84.8645 35.095C84.8645 34.425 84.6845 33.915 84.3245 33.565C83.9645 33.205 83.4795 33.025 82.8695 33.025C82.2695 33.025 81.7845 33.205 81.4145 33.565C81.0545 33.925 80.8745 34.435 80.8745 35.095V35.71C80.8745 36.36 81.0595 36.87 81.4295 37.24C81.7995 37.6 82.2795 37.78 82.8695 37.78C83.4595 37.78 83.9395 37.6 84.3095 37.24C84.6795 36.87 84.8645 36.36 84.8645 35.71V35.095ZM104.493 28.465V41.485H103.368V36.01H100.818V35.08H103.368V32.26H100.818V31.33H103.368V28.465H104.493ZM100.503 33.73C100.503 35.19 100.188 36.295 99.5585 37.045C98.9285 37.795 98.0985 38.17 97.0685 38.17C96.0285 38.17 95.1935 37.795 94.5635 37.045C93.9335 36.295 93.6185 35.19 93.6185 33.73C93.6185 32.27 93.9335 31.165 94.5635 30.415C95.1935 29.665 96.0285 29.29 97.0685 29.29C98.0985 29.29 98.9285 29.665 99.5585 30.415C100.188 31.165 100.503 32.27 100.503 33.73ZM99.3035 33.13C99.3035 32.19 99.0985 31.475 98.6885 30.985C98.2785 30.485 97.7385 30.235 97.0685 30.235C96.3885 30.235 95.8435 30.485 95.4335 30.985C95.0235 31.475 94.8185 32.19 94.8185 33.13V34.33C94.8185 35.27 95.0235 35.99 95.4335 36.49C95.8435 36.98 96.3885 37.225 97.0685 37.225C97.7385 37.225 98.2785 36.98 98.6885 36.49C99.0985 35.99 99.3035 35.27 99.3035 34.33V33.13ZM124.822 30.235H115.237V29.275H124.822V30.235ZM124.957 35.74H115.117V34.795H117.487L116.992 31.465L118.147 31.345L118.552 34.795H121.507L121.912 31.345L123.082 31.465L122.572 34.795H124.957V35.74ZM126.157 39.04V40H113.917V39.04H117.247V36.505H118.357V39.04H121.717V36.505H122.827V39.04H126.157ZM138.421 35.275H136.426V34.345H138.421V32.47H136.426V31.54H138.421V28.465H139.576V38.5H138.421V35.275ZM134.371 29.83H130.396V28.87H134.371V29.83ZM132.286 36.955C131.676 36.955 131.141 36.85 130.681 36.64C130.221 36.43 129.866 36.14 129.616 35.77C129.366 35.4 129.241 34.98 129.241 34.51C129.241 34.03 129.351 33.615 129.571 33.265C129.791 32.905 130.121 32.63 130.561 32.44V32.365H128.431V31.435H135.946V32.365H134.026V32.455C134.466 32.645 134.796 32.915 135.016 33.265C135.236 33.615 135.346 34.03 135.346 34.51C135.346 34.98 135.221 35.4 134.971 35.77C134.721 36.14 134.361 36.43 133.891 36.64C133.431 36.85 132.896 36.955 132.286 36.955ZM132.166 35.995H132.421C132.971 35.995 133.416 35.84 133.756 35.53C134.106 35.22 134.281 34.79 134.281 34.24C134.281 33.69 134.106 33.265 133.756 32.965C133.416 32.655 132.971 32.5 132.421 32.5H132.166C131.606 32.5 131.156 32.655 130.816 32.965C130.476 33.265 130.306 33.69 130.306 34.24C130.306 34.79 130.476 35.22 130.816 35.53C131.166 35.84 131.616 35.995 132.166 35.995ZM139.846 40.9V41.845H131.956C131.716 41.845 131.531 41.78 131.401 41.65C131.271 41.52 131.206 41.33 131.206 41.08V38.08H132.346V40.9H139.846ZM155.395 34.795H153.28V41.515H152.14V28.495H153.28V33.835H155.395V34.795ZM148.945 30.175H144.685V29.2H148.945V30.175ZM142.69 31.975H150.715V32.905H148.495V32.995C149.405 33.445 149.86 34.31 149.86 35.59C149.86 36.24 149.725 36.805 149.455 37.285C149.185 37.755 148.81 38.115 148.33 38.365C147.86 38.615 147.335 38.74 146.755 38.74C146.175 38.74 145.645 38.615 145.165 38.365C144.695 38.115 144.325 37.755 144.055 37.285C143.785 36.805 143.65 36.24 143.65 35.59C143.65 34.31 144.105 33.445 145.015 32.995V32.905H142.69V31.975ZM148.75 35.095C148.75 34.425 148.57 33.915 148.21 33.565C147.85 33.205 147.365 33.025 146.755 33.025C146.155 33.025 145.67 33.205 145.3 33.565C144.94 33.925 144.76 34.435 144.76 35.095V35.71C144.76 36.36 144.945 36.87 145.315 37.24C145.685 37.6 146.165 37.78 146.755 37.78C147.345 37.78 147.825 37.6 148.195 37.24C148.565 36.87 148.75 36.36 148.75 35.71V35.095ZM167.284 34.03H164.614V33.115H167.284V31.24H164.614V30.325H167.284V28.465H168.424V35.98H167.284V34.03ZM157.549 32.185C157.549 31.525 157.694 30.95 157.984 30.46C158.274 29.97 158.674 29.595 159.184 29.335C159.694 29.065 160.279 28.93 160.939 28.93C161.599 28.93 162.184 29.065 162.694 29.335C163.204 29.595 163.604 29.97 163.894 30.46C164.184 30.95 164.329 31.525 164.329 32.185C164.329 32.845 164.184 33.42 163.894 33.91C163.604 34.4 163.199 34.78 162.679 35.05C162.169 35.31 161.589 35.44 160.939 35.44C160.289 35.44 159.704 35.31 159.184 35.05C158.674 34.78 158.274 34.4 157.984 33.91C157.694 33.42 157.549 32.845 157.549 32.185ZM158.734 32.455C158.734 33.085 158.934 33.59 159.334 33.97C159.744 34.34 160.279 34.525 160.939 34.525C161.599 34.525 162.129 34.34 162.529 33.97C162.939 33.59 163.144 33.085 163.144 32.455V31.915C163.144 31.285 162.939 30.785 162.529 30.415C162.129 30.035 161.599 29.845 160.939 29.845C160.279 29.845 159.744 30.035 159.334 30.415C158.934 30.785 158.734 31.285 158.734 31.915V32.455ZM169.654 41.275L168.919 42.055L166.699 39.88C166.639 39.81 166.569 39.775 166.489 39.775C166.449 39.775 166.404 39.79 166.354 39.82C166.124 40.16 165.829 40.51 165.469 40.87C165.109 41.24 164.629 41.685 164.029 42.205L161.749 39.835C161.679 39.765 161.609 39.73 161.539 39.73C161.499 39.73 161.444 39.755 161.374 39.805C160.934 40.465 160.184 41.25 159.124 42.16L158.404 41.395C159.074 40.835 159.599 40.335 159.979 39.895C160.359 39.455 160.629 39.02 160.789 38.59C160.959 38.16 161.044 37.675 161.044 37.135V36.655H162.124V37.165C162.124 37.985 161.969 38.7 161.659 39.31L161.719 39.34L161.914 39.19C161.994 39.12 162.089 39.085 162.199 39.085C162.319 39.085 162.424 39.13 162.514 39.22L164.104 40.81C164.824 40.16 165.319 39.575 165.589 39.055C165.859 38.535 165.994 37.9 165.994 37.15V36.655H167.074V37.21C167.074 37.65 167.039 38.04 166.969 38.38C166.899 38.72 166.784 39.045 166.624 39.355L166.684 39.4L166.879 39.235C166.989 39.155 167.094 39.115 167.194 39.115C167.294 39.115 167.394 39.155 167.494 39.235L169.654 41.275ZM173.008 32.545C173.008 31.875 173.178 31.275 173.518 30.745C173.868 30.205 174.398 29.775 175.108 29.455C175.818 29.135 176.693 28.975 177.733 28.975C178.773 28.975 179.648 29.135 180.358 29.455C181.068 29.775 181.593 30.205 181.933 30.745C182.283 31.275 182.458 31.875 182.458 32.545C182.458 33.215 182.283 33.82 181.933 34.36C181.593 34.9 181.068 35.33 180.358 35.65C179.648 35.97 178.773 36.13 177.733 36.13C176.693 36.13 175.818 35.97 175.108 35.65C174.398 35.33 173.868 34.9 173.518 34.36C173.178 33.82 173.008 33.215 173.008 32.545ZM181.228 32.725V32.38C181.228 31.92 181.103 31.505 180.853 31.135C180.613 30.755 180.228 30.455 179.698 30.235C179.178 30.005 178.523 29.89 177.733 29.89C176.943 29.89 176.283 30.005 175.753 30.235C175.233 30.455 174.848 30.755 174.598 31.135C174.358 31.505 174.238 31.92 174.238 32.38V32.725C174.238 33.435 174.528 34.025 175.108 34.495C175.688 34.965 176.563 35.2 177.733 35.2C178.903 35.2 179.778 34.965 180.358 34.495C180.938 34.025 181.228 33.435 181.228 32.725ZM171.613 39.025H183.853V40H171.613V39.025ZM197.227 28.465V41.485H196.102V35.935H192.832V37.855H186.727V29.5H192.832V31.345H196.102V28.465H197.227ZM191.737 30.43H187.822V36.925H191.737V30.43ZM196.102 34.99V32.275H192.832V34.99H196.102ZM208.06 32.65C207.74 32.65 207.505 32.57 207.355 32.41C207.215 32.24 207.145 32.025 207.145 31.765V31.555C207.145 31.145 207.265 30.695 207.505 30.205C207.745 29.705 208.08 29.27 208.51 28.9H209.515C209.215 29.22 208.97 29.525 208.78 29.815C208.6 30.095 208.47 30.41 208.39 30.76C208.59 30.81 208.735 30.905 208.825 31.045C208.925 31.185 208.975 31.355 208.975 31.555V31.765C208.975 32.025 208.9 32.24 208.75 32.41C208.61 32.57 208.38 32.65 208.06 32.65ZM224.042 35.17V36.115H211.802V35.17H217.352V33.55H213.632V28.78H222.212V33.55H218.492V35.17H224.042ZM214.757 32.635H221.087V29.695H214.757V32.635ZM213.497 37.555H222.212V42.085H221.072V38.5H213.497V37.555ZM237.131 30.235H227.546V29.275H237.131V30.235ZM237.266 35.74H227.426V34.795H229.796L229.301 31.465L230.456 31.345L230.861 34.795H233.816L234.221 31.345L235.391 31.465L234.881 34.795H237.266V35.74ZM238.466 39.04V40H226.226V39.04H229.556V36.505H230.666V39.04H234.026V36.505H235.136V39.04H238.466ZM252.89 39.04V40H240.65V39.04H246.2V36.475H242.45V32.41H249.95V30.205H242.375V29.26H251.09V33.325H243.59V35.53H251.48V36.475H247.34V39.04H252.89ZM273.893 34.555H271.733V41.515H270.593V28.495H271.733V33.595H273.893V34.555ZM269.003 36.505L269.153 37.435C267.573 37.755 265.653 37.915 263.393 37.915H261.818V29.515H262.943V36.955H263.393C265.553 36.955 267.423 36.805 269.003 36.505ZM288.317 34.555H286.157V41.515H285.017V28.495H286.157V33.595H288.317V34.555ZM282.722 33.73C282.722 35.19 282.402 36.295 281.762 37.045C281.132 37.795 280.292 38.17 279.242 38.17C278.192 38.17 277.347 37.795 276.707 37.045C276.077 36.295 275.762 35.19 275.762 33.73C275.762 32.27 276.077 31.165 276.707 30.415C277.347 29.665 278.192 29.29 279.242 29.29C280.292 29.29 281.132 29.665 281.762 30.415C282.402 31.165 282.722 32.27 282.722 33.73ZM281.507 33.13C281.507 32.2 281.297 31.49 280.877 31C280.467 30.5 279.922 30.25 279.242 30.25C278.562 30.25 278.012 30.5 277.592 31C277.172 31.49 276.962 32.2 276.962 33.13V34.33C276.962 35.26 277.172 35.975 277.592 36.475C278.012 36.965 278.562 37.21 279.242 37.21C279.922 37.21 280.467 36.965 280.877 36.475C281.297 35.975 281.507 35.26 281.507 34.33V33.13ZM302.741 34.555H300.581V41.515H299.441V28.495H300.581V33.595H302.741V34.555ZM290.756 29.53H296.591V31.615C296.591 32.725 296.426 33.665 296.096 34.435C295.766 35.205 295.206 35.925 294.416 36.595C293.636 37.255 292.516 37.98 291.056 38.77L290.381 37.915C291.741 37.195 292.781 36.54 293.501 35.95C294.221 35.36 294.726 34.735 295.016 34.075C295.306 33.415 295.451 32.6 295.451 31.63V30.505H290.756V29.53ZM315.035 33.655H306.41V28.945H307.535V32.71H315.035V33.655ZM316.775 35.32V36.295H304.535V35.32H316.775ZM307.43 40.795H315.2V41.755H307.04C306.8 41.755 306.615 41.69 306.485 41.56C306.355 41.43 306.29 41.24 306.29 40.99V37.705H307.43V40.795ZM336.384 28.465V35.29H335.229V28.465H336.384ZM330.834 30.535V30.01H326.124V29.05H331.974V30.385C331.974 31.215 331.809 31.91 331.479 32.47C331.149 33.02 330.584 33.525 329.784 33.985C328.994 34.445 327.844 34.95 326.334 35.5L325.749 34.615C327.119 34.135 328.164 33.7 328.884 33.31C329.604 32.92 330.109 32.515 330.399 32.095C330.689 31.665 330.834 31.145 330.834 30.535ZM328.029 41.335V38.62H335.229V37.075H327.939V36.115H336.384V39.58H329.184V41.125H336.744V42.1H328.779C328.539 42.1 328.354 42.035 328.224 41.905C328.094 41.775 328.029 41.585 328.029 41.335ZM341.118 28.75C341.438 28.75 341.668 28.835 341.808 29.005C341.958 29.165 342.033 29.375 342.033 29.635V29.845C342.033 30.255 341.913 30.71 341.673 31.21C341.433 31.7 341.098 32.13 340.668 32.5H339.663C339.963 32.18 340.203 31.88 340.383 31.6C340.573 31.31 340.708 30.99 340.788 30.64C340.588 30.59 340.438 30.495 340.338 30.355C340.248 30.215 340.203 30.045 340.203 29.845V29.635C340.203 29.375 340.273 29.165 340.413 29.005C340.563 28.835 340.798 28.75 341.118 28.75ZM346.344 30.865C346.344 30.135 346.719 29.555 347.469 29.125C348.219 28.685 349.344 28.465 350.844 28.465C352.344 28.465 353.469 28.685 354.219 29.125C354.969 29.555 355.344 30.135 355.344 30.865C355.344 31.595 354.969 32.18 354.219 32.62C353.469 33.06 352.344 33.28 350.844 33.28C349.344 33.28 348.219 33.06 347.469 32.62C346.719 32.18 346.344 31.595 346.344 30.865ZM354.129 30.94V30.775C354.129 30.345 353.854 29.995 353.304 29.725C352.764 29.445 351.944 29.305 350.844 29.305C349.744 29.305 348.919 29.445 348.369 29.725C347.829 29.995 347.559 30.345 347.559 30.775V30.94C347.559 31.37 347.829 31.725 348.369 32.005C348.919 32.275 349.744 32.41 350.844 32.41C351.944 32.41 352.764 32.275 353.304 32.005C353.854 31.725 354.129 31.37 354.129 30.94ZM356.964 34.315V35.275H344.724V34.315H356.964ZM346.629 41.335V38.875H354.024V37.465H346.539V36.535H355.119V39.745H347.724V41.17H355.509V42.1H347.379C347.139 42.1 346.954 42.035 346.824 41.905C346.694 41.775 346.629 41.585 346.629 41.335ZM376.243 30.235H366.658V29.275H376.243V30.235ZM376.378 35.74H366.538V34.795H368.908L368.413 31.465L369.568 31.345L369.973 34.795H372.928L373.333 31.345L374.503 31.465L373.993 34.795H376.378V35.74ZM377.578 39.04V40H365.338V39.04H368.668V36.505H369.778V39.04H373.138V36.505H374.248V39.04H377.578ZM389.842 35.275H387.847V34.345H389.842V32.47H387.847V31.54H389.842V28.465H390.997V38.5H389.842V35.275ZM385.792 29.83H381.817V28.87H385.792V29.83ZM383.707 36.955C383.097 36.955 382.562 36.85 382.102 36.64C381.642 36.43 381.287 36.14 381.037 35.77C380.787 35.4 380.662 34.98 380.662 34.51C380.662 34.03 380.772 33.615 380.992 33.265C381.212 32.905 381.542 32.63 381.982 32.44V32.365H379.852V31.435H387.367V32.365H385.447V32.455C385.887 32.645 386.217 32.915 386.437 33.265C386.657 33.615 386.767 34.03 386.767 34.51C386.767 34.98 386.642 35.4 386.392 35.77C386.142 36.14 385.782 36.43 385.312 36.64C384.852 36.85 384.317 36.955 383.707 36.955ZM383.587 35.995H383.842C384.392 35.995 384.837 35.84 385.177 35.53C385.527 35.22 385.702 34.79 385.702 34.24C385.702 33.69 385.527 33.265 385.177 32.965C384.837 32.655 384.392 32.5 383.842 32.5H383.587C383.027 32.5 382.577 32.655 382.237 32.965C381.897 33.265 381.727 33.69 381.727 34.24C381.727 34.79 381.897 35.22 382.237 35.53C382.587 35.84 383.037 35.995 383.587 35.995ZM391.267 40.9V41.845H383.377C383.137 41.845 382.952 41.78 382.822 41.65C382.692 41.52 382.627 41.33 382.627 41.08V38.08H383.767V40.9H391.267ZM406.831 32.92V33.88H404.746V38.5H403.606V28.465H404.746V32.92H406.831ZM400.171 29.83H396.166V28.87H400.171V29.83ZM398.071 36.94C397.451 36.94 396.906 36.835 396.436 36.625C395.966 36.415 395.601 36.125 395.341 35.755C395.091 35.385 394.966 34.965 394.966 34.495C394.966 34.025 395.076 33.615 395.296 33.265C395.526 32.905 395.866 32.63 396.316 32.44V32.365H393.976V31.42H402.106V32.365H399.826V32.44C400.276 32.63 400.611 32.905 400.831 33.265C401.061 33.615 401.176 34.025 401.176 34.495C401.176 34.965 401.046 35.385 400.786 35.755C400.536 36.125 400.176 36.415 399.706 36.625C399.236 36.835 398.691 36.94 398.071 36.94ZM397.951 35.98H398.206C398.766 35.98 399.221 35.83 399.571 35.53C399.931 35.22 400.111 34.79 400.111 34.24C400.111 33.69 399.936 33.26 399.586 32.95C399.236 32.64 398.776 32.485 398.206 32.485H397.951C397.381 32.485 396.921 32.64 396.571 32.95C396.221 33.25 396.046 33.68 396.046 34.24C396.046 34.79 396.221 35.22 396.571 35.53C396.931 35.83 397.391 35.98 397.951 35.98ZM397.711 40.9H405.046V41.845H397.321C397.081 41.845 396.896 41.78 396.766 41.65C396.636 41.52 396.571 41.33 396.571 41.08V38.08H397.711V40.9ZM421.489 34.45V36.235H425.524V42.145H424.444V37.18H421.339V36.355H420.589V39.565H417.349V41.17H417.589C419.339 41.17 420.669 41.065 421.579 40.855L421.729 41.755C420.719 41.975 419.359 42.085 417.649 42.085H417.049C416.809 42.085 416.624 42.02 416.494 41.89C416.364 41.76 416.299 41.57 416.299 41.32V38.71H419.554V37.135H416.254V36.235H420.364V34.45H414.799V33.475H423.604C423.924 32.305 424.089 31.08 424.099 29.8V29.77H416.479V28.825H425.209V29.62C425.209 30.84 425.054 32.125 424.744 33.475H427.039V34.45H421.489ZM430.828 31.48C430.828 30.94 430.993 30.46 431.323 30.04C431.653 29.61 432.153 29.275 432.823 29.035C433.503 28.785 434.343 28.66 435.343 28.66C436.343 28.66 437.178 28.785 437.848 29.035C438.528 29.275 439.033 29.61 439.363 30.04C439.693 30.46 439.858 30.94 439.858 31.48C439.858 32.32 439.478 33 438.718 33.52C437.958 34.04 436.833 34.3 435.343 34.3C433.853 34.3 432.728 34.04 431.968 33.52C431.208 33 430.828 32.32 430.828 31.48ZM438.643 31.6V31.345C438.643 30.825 438.368 30.395 437.818 30.055C437.268 29.715 436.443 29.545 435.343 29.545C434.243 29.545 433.418 29.715 432.868 30.055C432.318 30.395 432.043 30.825 432.043 31.345V31.6C432.043 32.12 432.318 32.55 432.868 32.89C433.418 33.23 434.243 33.4 435.343 33.4C436.443 33.4 437.268 33.23 437.818 32.89C438.368 32.55 438.643 32.12 438.643 31.6ZM441.463 35.575V36.565H429.223V35.575H441.463ZM430.978 40.99V37.825H432.118V40.795H439.888V41.755H431.728C431.488 41.755 431.303 41.69 431.173 41.56C431.043 41.43 430.978 41.24 430.978 40.99ZM459.932 32.59H457.067V31.63H459.932V28.465H461.072V38.35H459.932V32.59ZM453.797 33.16C453.727 33.16 453.667 33.19 453.617 33.25C453.367 33.71 453.027 34.185 452.597 34.675C452.167 35.165 451.592 35.765 450.872 36.475L450.032 35.725C450.882 34.925 451.532 34.24 451.982 33.67C452.432 33.1 452.757 32.535 452.957 31.975C453.167 31.405 453.272 30.76 453.272 30.04V29.095H454.427V30.085C454.427 31.085 454.252 31.965 453.902 32.725L453.977 32.785L454.217 32.575C454.327 32.485 454.432 32.44 454.532 32.44C454.642 32.44 454.747 32.49 454.847 32.59L457.697 35.455L456.872 36.235L453.992 33.25C453.932 33.19 453.867 33.16 453.797 33.16ZM461.342 40.825V41.77H453.482C453.242 41.77 453.057 41.705 452.927 41.575C452.797 41.445 452.732 41.255 452.732 41.005V37.285H453.887V40.825H461.342ZM465.881 30.865C465.881 30.135 466.256 29.555 467.006 29.125C467.756 28.685 468.881 28.465 470.381 28.465C471.881 28.465 473.006 28.685 473.756 29.125C474.506 29.555 474.881 30.135 474.881 30.865C474.881 31.595 474.506 32.18 473.756 32.62C473.006 33.06 471.881 33.28 470.381 33.28C468.881 33.28 467.756 33.06 467.006 32.62C466.256 32.18 465.881 31.595 465.881 30.865ZM473.666 30.94V30.775C473.666 30.345 473.391 29.995 472.841 29.725C472.301 29.445 471.481 29.305 470.381 29.305C469.281 29.305 468.456 29.445 467.906 29.725C467.366 29.995 467.096 30.345 467.096 30.775V30.94C467.096 31.37 467.366 31.725 467.906 32.005C468.456 32.275 469.281 32.41 470.381 32.41C471.481 32.41 472.301 32.275 472.841 32.005C473.391 31.725 473.666 31.37 473.666 30.94ZM476.501 34.315V35.275H464.261V34.315H476.501ZM466.166 41.335V38.875H473.561V37.465H466.076V36.535H474.656V39.745H467.261V41.17H475.046V42.1H466.916C466.676 42.1 466.491 42.035 466.361 41.905C466.231 41.775 466.166 41.585 466.166 41.335ZM495.779 30.235H486.194V29.275H495.779V30.235ZM497.114 39.04V40H484.874V39.04H490.424V35.89H486.074V34.945H488.459L487.949 31.495L489.104 31.375L489.509 34.945H492.464L492.869 31.375L494.039 31.495L493.529 34.945H495.914V35.89H491.564V39.04H497.114ZM510.533 28.465V38.35H509.378V28.465H510.533ZM499.733 32.515C499.733 31.815 499.878 31.205 500.168 30.685C500.468 30.165 500.878 29.77 501.398 29.5C501.918 29.22 502.513 29.08 503.183 29.08C503.843 29.08 504.433 29.22 504.953 29.5C505.483 29.77 505.893 30.165 506.183 30.685C506.483 31.205 506.633 31.815 506.633 32.515C506.633 33.205 506.483 33.81 506.183 34.33C505.893 34.85 505.483 35.25 504.953 35.53C504.433 35.8 503.843 35.935 503.183 35.935C502.513 35.935 501.918 35.8 501.398 35.53C500.878 35.25 500.468 34.855 500.168 34.345C499.878 33.825 499.733 33.215 499.733 32.515ZM505.418 32.83V32.2C505.418 31.54 505.208 31.015 504.788 30.625C504.378 30.225 503.843 30.025 503.183 30.025C502.513 30.025 501.968 30.225 501.548 30.625C501.138 31.025 500.933 31.55 500.933 32.2V32.83C500.933 33.48 501.143 34.005 501.563 34.405C501.983 34.795 502.523 34.99 503.183 34.99C503.843 34.99 504.378 34.795 504.788 34.405C505.208 34.005 505.418 33.48 505.418 32.83ZM502.193 41.005V37.27H503.348V40.825H510.803V41.77H502.943C502.703 41.77 502.518 41.705 502.388 41.575C502.258 41.445 502.193 41.255 502.193 41.005ZM515.477 29.275H524.267V30.235H516.617V32.44H524.057V33.355H516.632V35.56H524.522V36.52H515.477V29.275ZM513.722 39.025H525.962V40H513.722V39.025ZM540.386 39.04V40H528.146V39.04H533.696V36.475H529.946V32.41H537.446V30.205H529.871V29.26H538.586V33.325H531.086V35.53H538.976V36.475H534.836V39.04H540.386ZM13.2 57.555H11.04V64.515H9.9V51.495H11.04V56.595H13.2V57.555ZM4.995 56.715C5.125 56.715 5.235 56.77 5.325 56.88L8.25 60.63L7.38 61.395L4.44 57.54C4.41 57.48 4.36 57.45 4.29 57.45C4.24 57.45 4.19 57.48 4.14 57.54C3.88 58.12 3.53 58.72 3.09 59.34C2.65 59.95 2.055 60.7 1.305 61.59L0.435 60.855C1.305 59.865 1.97 59.02 2.43 58.32C2.9 57.61 3.235 56.9 3.435 56.19C3.645 55.48 3.75 54.665 3.75 53.745V52.335H4.905V53.73C4.905 54.92 4.73 56 4.38 56.97L4.455 57.015L4.68 56.835C4.79 56.755 4.895 56.715 4.995 56.715ZM27.234 58.05V59.01H14.994V58.05H18.249V56.28C17.699 56.05 17.284 55.75 17.004 55.38C16.734 55.01 16.599 54.59 16.599 54.12C16.599 53.34 16.979 52.71 17.739 52.23C18.499 51.74 19.624 51.495 21.114 51.495C22.604 51.495 23.729 51.74 24.489 52.23C25.249 52.71 25.629 53.34 25.629 54.12C25.629 54.59 25.489 55.01 25.209 55.38C24.939 55.75 24.529 56.05 23.979 56.28V58.05H27.234ZM21.114 55.86C22.224 55.86 23.054 55.705 23.604 55.395C24.154 55.085 24.429 54.69 24.429 54.21V54C24.429 53.53 24.149 53.14 23.589 52.83C23.039 52.52 22.214 52.365 21.114 52.365C20.014 52.365 19.189 52.52 18.639 52.83C18.089 53.14 17.814 53.53 17.814 54V54.21C17.814 54.69 18.084 55.085 18.624 55.395C19.174 55.705 20.004 55.86 21.114 55.86ZM19.344 58.05H22.884V56.595C22.394 56.695 21.804 56.745 21.114 56.745C20.424 56.745 19.834 56.695 19.344 56.595V58.05ZM25.554 62.685C25.554 63.195 25.384 63.645 25.044 64.035C24.714 64.425 24.214 64.73 23.544 64.95C22.884 65.18 22.074 65.295 21.114 65.295C20.154 65.295 19.339 65.18 18.669 64.95C18.009 64.73 17.509 64.425 17.169 64.035C16.839 63.645 16.674 63.195 16.674 62.685C16.674 62.185 16.839 61.745 17.169 61.365C17.509 60.975 18.009 60.67 18.669 60.45C19.339 60.23 20.154 60.12 21.114 60.12C22.074 60.12 22.884 60.23 23.544 60.45C24.214 60.67 24.714 60.975 25.044 61.365C25.384 61.745 25.554 62.185 25.554 62.685ZM24.354 62.595C24.354 62.155 24.084 61.785 23.544 61.485C23.014 61.175 22.204 61.02 21.114 61.02C20.384 61.02 19.774 61.095 19.284 61.245C18.794 61.385 18.434 61.575 18.204 61.815C17.974 62.055 17.859 62.315 17.859 62.595V62.805C17.859 63.085 17.974 63.345 18.204 63.585C18.434 63.825 18.794 64.015 19.284 64.155C19.774 64.305 20.384 64.38 21.114 64.38C22.204 64.38 23.014 64.225 23.544 63.915C24.084 63.615 24.354 63.245 24.354 62.805V62.595ZM42.048 57.795H39.933V64.515H38.793V51.495H39.933V56.835H42.048V57.795ZM35.598 53.175H31.338V52.2H35.598V53.175ZM29.343 54.975H37.368V55.905H35.148V55.995C36.058 56.445 36.513 57.31 36.513 58.59C36.513 59.24 36.378 59.805 36.108 60.285C35.838 60.755 35.463 61.115 34.983 61.365C34.513 61.615 33.988 61.74 33.408 61.74C32.828 61.74 32.298 61.615 31.818 61.365C31.348 61.115 30.978 60.755 30.708 60.285C30.438 59.805 30.303 59.24 30.303 58.59C30.303 57.31 30.758 56.445 31.668 55.995V55.905H29.343V54.975ZM35.403 58.095C35.403 57.425 35.223 56.915 34.863 56.565C34.503 56.205 34.018 56.025 33.408 56.025C32.808 56.025 32.323 56.205 31.953 56.565C31.593 56.925 31.413 57.435 31.413 58.095V58.71C31.413 59.36 31.598 59.87 31.968 60.24C32.338 60.6 32.818 60.78 33.408 60.78C33.998 60.78 34.478 60.6 34.848 60.24C35.218 59.87 35.403 59.36 35.403 58.71V58.095ZM55.0321 51.465V64.485H53.9071V59.01H51.3571V58.08H53.9071V55.26H51.3571V54.33H53.9071V51.465H55.0321ZM51.0421 56.73C51.0421 58.19 50.7271 59.295 50.0971 60.045C49.4671 60.795 48.6371 61.17 47.6071 61.17C46.5671 61.17 45.7321 60.795 45.1021 60.045C44.4721 59.295 44.1571 58.19 44.1571 56.73C44.1571 55.27 44.4721 54.165 45.1021 53.415C45.7321 52.665 46.5671 52.29 47.6071 52.29C48.6371 52.29 49.4671 52.665 50.0971 53.415C50.7271 54.165 51.0421 55.27 51.0421 56.73ZM49.8421 56.13C49.8421 55.19 49.6371 54.475 49.2271 53.985C48.8171 53.485 48.2771 53.235 47.6071 53.235C46.9271 53.235 46.3821 53.485 45.9721 53.985C45.5621 54.475 45.3571 55.19 45.3571 56.13V57.33C45.3571 58.27 45.5621 58.99 45.9721 59.49C46.3821 59.98 46.9271 60.225 47.6071 60.225C48.2771 60.225 48.8171 59.98 49.2271 59.49C49.6371 58.99 49.8421 58.27 49.8421 57.33V56.13ZM72.956 55.005V51.465H74.096V61.35H72.956V55.965H70.226V55.005H72.956ZM66.956 56.415C66.886 56.415 66.821 56.445 66.761 56.505C66.491 56.925 66.146 57.36 65.726 57.81C65.306 58.25 64.746 58.79 64.046 59.43L63.191 58.695C64.031 57.975 64.681 57.355 65.141 56.835C65.601 56.305 65.931 55.785 66.131 55.275C66.341 54.755 66.446 54.175 66.446 53.535V53.385H63.581V52.44H70.421V53.385H67.586V53.595C67.586 54.485 67.411 55.28 67.061 55.98L67.151 56.025L67.376 55.845C67.486 55.765 67.591 55.725 67.691 55.725C67.811 55.725 67.931 55.775 68.051 55.875L70.856 58.425L70.016 59.16L67.181 56.505C67.121 56.445 67.046 56.415 66.956 56.415ZM74.366 63.825V64.77H66.506C66.266 64.77 66.081 64.705 65.951 64.575C65.821 64.445 65.756 64.255 65.756 64.005V60.45H66.911V63.825H74.366ZM88.85 51.465V64.485H87.77V51.465H88.85ZM84.77 51.69H85.82V64.125H84.77V58.02H82.895V57.09H84.77V51.69ZM82.28 53.265H78.83V52.335H82.28V53.265ZM81.095 58.08C81.215 58.08 81.33 58.135 81.44 58.245L83.855 60.93L83.075 61.605L80.645 58.8C80.595 58.75 80.545 58.725 80.495 58.725C80.435 58.725 80.385 58.755 80.345 58.815C80.115 59.245 79.81 59.7 79.43 60.18C79.06 60.65 78.58 61.195 77.99 61.815L77.225 61.155C77.955 60.395 78.515 59.74 78.905 59.19C79.305 58.63 79.59 58.08 79.76 57.54C79.93 57 80.015 56.385 80.015 55.695H77.54V54.78H83.525V55.695H81.065C81.065 56.635 80.915 57.48 80.615 58.23L80.675 58.275L80.81 58.17C80.9 58.11 80.995 58.08 81.095 58.08ZM102.944 51.465V59.355H101.804V55.74H99.0741V54.81H101.804V51.465H102.944ZM92.8941 59.025L92.0391 58.305C92.8791 57.615 93.5291 57.025 93.9891 56.535C94.4491 56.035 94.7791 55.545 94.9791 55.065C95.1891 54.585 95.2941 54.04 95.2941 53.43V53.265H92.4291V52.305H99.2691V53.265H96.4341V53.49C96.4341 54.34 96.2591 55.095 95.9091 55.755L95.9991 55.8L96.2391 55.635C96.3491 55.545 96.4591 55.5 96.5691 55.5C96.6991 55.5 96.8141 55.545 96.9141 55.635L99.7041 58.035L98.8641 58.785L96.0291 56.28C95.9491 56.22 95.8741 56.19 95.8041 56.19C95.7241 56.19 95.6541 56.22 95.5941 56.28C95.3341 56.67 94.9991 57.07 94.5891 57.48C94.1791 57.88 93.6141 58.395 92.8941 59.025ZM94.3491 60.165H102.944V65.145H101.819V61.125H94.3491V60.165ZM117.368 51.465V61.35H116.213V51.465H117.368ZM106.568 55.515C106.568 54.815 106.713 54.205 107.003 53.685C107.303 53.165 107.713 52.77 108.233 52.5C108.753 52.22 109.348 52.08 110.018 52.08C110.678 52.08 111.268 52.22 111.788 52.5C112.318 52.77 112.728 53.165 113.018 53.685C113.318 54.205 113.468 54.815 113.468 55.515C113.468 56.205 113.318 56.81 113.018 57.33C112.728 57.85 112.318 58.25 111.788 58.53C111.268 58.8 110.678 58.935 110.018 58.935C109.348 58.935 108.753 58.8 108.233 58.53C107.713 58.25 107.303 57.855 107.003 57.345C106.713 56.825 106.568 56.215 106.568 55.515ZM112.253 55.83V55.2C112.253 54.54 112.043 54.015 111.623 53.625C111.213 53.225 110.678 53.025 110.018 53.025C109.348 53.025 108.803 53.225 108.383 53.625C107.973 54.025 107.768 54.55 107.768 55.2V55.83C107.768 56.48 107.978 57.005 108.398 57.405C108.818 57.795 109.358 57.99 110.018 57.99C110.678 57.99 111.213 57.795 111.623 57.405C112.043 57.005 112.253 56.48 112.253 55.83ZM109.028 64.005V60.27H110.183V63.825H117.638V64.77H109.778C109.538 64.77 109.353 64.705 109.223 64.575C109.093 64.445 109.028 64.255 109.028 64.005ZM137.392 58.755V59.685H125.152V58.755H130.717V57.345H127.012V51.735H135.517V52.635H128.107V54.105H135.292V54.975H128.122V56.445H135.757V57.345H131.842V58.755H137.392ZM135.712 63C135.712 63.71 135.332 64.275 134.572 64.695C133.812 65.115 132.712 65.325 131.272 65.325C129.832 65.325 128.732 65.115 127.972 64.695C127.212 64.275 126.832 63.71 126.832 63C126.832 62.3 127.212 61.74 127.972 61.32C128.732 60.89 129.832 60.675 131.272 60.675C132.712 60.675 133.812 60.89 134.572 61.32C135.332 61.74 135.712 62.3 135.712 63ZM134.512 62.91C134.512 62.52 134.242 62.195 133.702 61.935C133.172 61.675 132.362 61.545 131.272 61.545C130.192 61.545 129.377 61.675 128.827 61.935C128.287 62.195 128.017 62.52 128.017 62.91V63.09C128.017 63.48 128.287 63.805 128.827 64.065C129.377 64.325 130.192 64.455 131.272 64.455C132.362 64.455 133.172 64.325 133.702 64.065C134.242 63.805 134.512 63.48 134.512 63.09V62.91ZM150.811 51.465V58.29H149.656V51.465H150.811ZM140.011 54.9C140.011 54.27 140.156 53.72 140.446 53.25C140.746 52.78 141.156 52.42 141.676 52.17C142.206 51.91 142.801 51.78 143.461 51.78C144.121 51.78 144.711 51.91 145.231 52.17C145.761 52.42 146.171 52.78 146.461 53.25C146.761 53.72 146.911 54.27 146.911 54.9C146.911 55.53 146.761 56.08 146.461 56.55C146.171 57.02 145.761 57.385 145.231 57.645C144.711 57.895 144.121 58.02 143.461 58.02C142.801 58.02 142.206 57.895 141.676 57.645C141.156 57.385 140.746 57.02 140.446 56.55C140.156 56.08 140.011 55.53 140.011 54.9ZM145.696 55.125V54.675C145.696 54.075 145.491 53.6 145.081 53.25C144.671 52.89 144.131 52.71 143.461 52.71C142.791 52.71 142.246 52.89 141.826 53.25C141.416 53.61 141.211 54.085 141.211 54.675V55.125C141.211 55.715 141.421 56.19 141.841 56.55C142.261 56.91 142.801 57.09 143.461 57.09C144.121 57.09 144.656 56.91 145.066 56.55C145.486 56.19 145.696 55.715 145.696 55.125ZM142.456 64.335V61.62H149.656V60.075H142.366V59.115H150.811V62.58H143.611V64.125H151.171V65.1H143.206C142.966 65.1 142.781 65.035 142.651 64.905C142.521 64.775 142.456 64.585 142.456 64.335ZM166.645 55.725H164.56V58.98H163.42V51.465H164.56V54.765H166.645V55.725ZM154.87 58.935L154.27 58.065C155.62 57.545 156.645 57.08 157.345 56.67C158.055 56.25 158.55 55.815 158.83 55.365C159.12 54.905 159.265 54.35 159.265 53.7V53.13H154.645V52.17H160.42V53.58C160.42 54.45 160.255 55.175 159.925 55.755C159.605 56.325 159.055 56.855 158.275 57.345C157.495 57.825 156.36 58.355 154.87 58.935ZM156.445 59.79H164.56V65.025H157.195C156.955 65.025 156.77 64.96 156.64 64.83C156.51 64.7 156.445 64.51 156.445 64.26V59.79ZM157.585 64.065H163.42V60.735H157.585V64.065ZM170.044 53.865C170.044 53.135 170.419 52.555 171.169 52.125C171.919 51.685 173.044 51.465 174.544 51.465C176.044 51.465 177.169 51.685 177.919 52.125C178.669 52.555 179.044 53.135 179.044 53.865C179.044 54.595 178.669 55.18 177.919 55.62C177.169 56.06 176.044 56.28 174.544 56.28C173.044 56.28 171.919 56.06 171.169 55.62C170.419 55.18 170.044 54.595 170.044 53.865ZM177.829 53.94V53.775C177.829 53.345 177.554 52.995 177.004 52.725C176.464 52.445 175.644 52.305 174.544 52.305C173.444 52.305 172.619 52.445 172.069 52.725C171.529 52.995 171.259 53.345 171.259 53.775V53.94C171.259 54.37 171.529 54.725 172.069 55.005C172.619 55.275 173.444 55.41 174.544 55.41C175.644 55.41 176.464 55.275 177.004 55.005C177.554 54.725 177.829 54.37 177.829 53.94ZM180.664 57.315V58.275H168.424V57.315H180.664ZM170.329 64.335V61.875H177.724V60.465H170.239V59.535H178.819V62.745H171.424V64.17H179.209V65.1H171.079C170.839 65.1 170.654 65.035 170.524 64.905C170.394 64.775 170.329 64.585 170.329 64.335ZM198.678 58.29H197.523V51.465H198.678V58.29ZM191.328 58.02C190.668 58.02 190.073 57.895 189.543 57.645C189.023 57.385 188.613 57.02 188.313 56.55C188.023 56.08 187.878 55.53 187.878 54.9C187.878 54.27 188.023 53.72 188.313 53.25C188.613 52.78 189.023 52.42 189.543 52.17C190.073 51.91 190.668 51.78 191.328 51.78C191.988 51.78 192.578 51.91 193.098 52.17C193.628 52.42 194.038 52.78 194.328 53.25C194.628 53.72 194.778 54.27 194.778 54.9C194.778 55.53 194.628 56.08 194.328 56.55C194.038 57.02 193.628 57.385 193.098 57.645C192.578 57.895 191.988 58.02 191.328 58.02ZM191.328 57.09C191.988 57.09 192.523 56.91 192.933 56.55C193.353 56.19 193.563 55.715 193.563 55.125V54.675C193.563 54.075 193.358 53.6 192.948 53.25C192.538 52.89 191.998 52.71 191.328 52.71C190.658 52.71 190.113 52.89 189.693 53.25C189.283 53.61 189.078 54.085 189.078 54.675V55.125C189.078 55.715 189.288 56.19 189.708 56.55C190.128 56.91 190.668 57.09 191.328 57.09ZM198.378 59.94H195.288V59.07H198.378V59.94ZM193.953 63.9L194.118 64.8C193.148 65.01 191.963 65.115 190.563 65.115H190.068C189.828 65.115 189.643 65.05 189.513 64.92C189.383 64.79 189.318 64.6 189.318 64.35V61.68H192.408V60H189.273V59.1H193.458V62.505H190.383V64.2H190.518C192.018 64.2 193.163 64.1 193.953 63.9ZM198.183 61.905V61.995C198.803 62.285 199.113 62.78 199.113 63.48C199.113 63.82 199.018 64.13 198.828 64.41C198.638 64.7 198.368 64.925 198.018 65.085C197.668 65.255 197.258 65.34 196.788 65.34C196.318 65.34 195.908 65.255 195.558 65.085C195.208 64.925 194.938 64.7 194.748 64.41C194.558 64.13 194.463 63.82 194.463 63.48C194.463 63.15 194.543 62.855 194.703 62.595C194.863 62.335 195.098 62.13 195.408 61.98V61.905H193.953V61.08H199.638V61.905H198.183ZM198.153 63.225C198.153 62.845 198.033 62.545 197.793 62.325C197.563 62.095 197.258 61.98 196.878 61.98H196.698C196.318 61.98 196.008 62.095 195.768 62.325C195.538 62.545 195.423 62.845 195.423 63.225C195.423 63.605 195.538 63.905 195.768 64.125C196.008 64.355 196.318 64.47 196.698 64.47H196.878C197.258 64.47 197.563 64.355 197.793 64.125C198.033 63.905 198.153 63.605 198.153 63.225ZM213.027 51.465V64.485H211.887V51.465H213.027ZM206.757 56.97C206.897 56.97 207.012 57.025 207.102 57.135L210.042 60.585L209.187 61.32L206.217 57.75C206.167 57.69 206.107 57.66 206.037 57.66C205.977 57.66 205.922 57.69 205.872 57.75C205.602 58.3 205.247 58.86 204.807 59.43C204.367 60 203.767 60.7 203.007 61.53L202.152 60.81C203.022 59.9 203.692 59.11 204.162 58.44C204.642 57.77 204.987 57.105 205.197 56.445C205.407 55.775 205.512 55.015 205.512 54.165V53.595H202.557V52.635H209.592V53.595H206.652V54.21C206.652 55.34 206.477 56.345 206.127 57.225L206.202 57.27L206.427 57.09C206.537 57.01 206.647 56.97 206.757 56.97ZM233.531 54.42V55.38H231.446V58.245H230.306V51.465H231.446V54.42H233.531ZM224.411 58.245C223.751 58.245 223.161 58.115 222.641 57.855C222.131 57.595 221.731 57.225 221.441 56.745C221.151 56.255 221.006 55.69 221.006 55.05C221.006 54.41 221.151 53.85 221.441 53.37C221.731 52.89 222.131 52.52 222.641 52.26C223.161 52 223.751 51.87 224.411 51.87C225.061 51.87 225.641 52 226.151 52.26C226.671 52.52 227.076 52.89 227.366 53.37C227.656 53.85 227.801 54.41 227.801 55.05C227.801 55.69 227.656 56.255 227.366 56.745C227.076 57.225 226.671 57.595 226.151 57.855C225.641 58.115 225.061 58.245 224.411 58.245ZM224.411 57.33C225.061 57.33 225.591 57.145 226.001 56.775C226.411 56.405 226.616 55.915 226.616 55.305V54.81C226.616 54.2 226.411 53.715 226.001 53.355C225.591 52.985 225.061 52.8 224.411 52.8C223.751 52.8 223.216 52.985 222.806 53.355C222.396 53.715 222.191 54.2 222.191 54.81V55.305C222.191 55.915 222.396 56.405 222.806 56.775C223.216 57.145 223.751 57.33 224.411 57.33ZM227.786 59.91V58.995H230.951V59.91H227.786ZM226.151 63.3L226.436 64.245C226.046 64.415 225.581 64.555 225.041 64.665C224.501 64.785 223.936 64.845 223.346 64.845H223.076C222.836 64.845 222.651 64.78 222.521 64.65C222.391 64.52 222.326 64.33 222.326 64.08V59.505H223.391V63.825H223.586C224.056 63.825 224.516 63.77 224.966 63.66C225.426 63.56 225.821 63.44 226.151 63.3ZM226.181 61.095H232.556V61.95H230.846V62.04C231.166 62.19 231.406 62.39 231.566 62.64C231.726 62.89 231.806 63.175 231.806 63.495C231.806 64.015 231.586 64.45 231.146 64.8C230.706 65.16 230.116 65.34 229.376 65.34C228.626 65.34 228.031 65.16 227.591 64.8C227.151 64.45 226.931 64.015 226.931 63.495C226.931 63.165 227.011 62.875 227.171 62.625C227.331 62.375 227.576 62.175 227.906 62.025V61.95H226.181V61.095ZM230.846 63.24C230.846 62.86 230.716 62.56 230.456 62.34C230.206 62.12 229.876 62.01 229.466 62.01H229.271C228.861 62.01 228.526 62.12 228.266 62.34C228.016 62.56 227.891 62.86 227.891 63.24C227.891 63.62 228.016 63.92 228.266 64.14C228.526 64.36 228.861 64.47 229.271 64.47H229.466C229.876 64.47 230.206 64.36 230.456 64.14C230.716 63.92 230.846 63.62 230.846 63.24ZM247.55 62.04V63H235.31V62.04H240.86V58.575H237.08V52.35H245.825V53.325H238.22V57.6H245.96V58.575H242V62.04H247.55ZM261.974 58.89V59.85H249.734V58.89H255.299V57.465H251.639V54.165H258.914V52.68H251.564V51.765H260.024V55.05H252.749V56.55H260.399V57.465H256.424V58.89H261.974ZM251.429 61.125H260.159V65.1H259.034V62.055H251.429V61.125ZM281.398 56.13H279.313V59.7H278.173V51.465H279.313V55.17H281.398V56.13ZM274.738 52.725H270.733V51.78H274.738V52.725ZM272.638 59.385C272.018 59.385 271.473 59.29 271.003 59.1C270.533 58.91 270.168 58.645 269.908 58.305C269.658 57.965 269.533 57.58 269.533 57.15C269.533 56.72 269.638 56.35 269.848 56.04C270.068 55.72 270.393 55.47 270.823 55.29V55.2H268.543V54.285H276.673V55.2H274.453V55.29C274.883 55.47 275.203 55.72 275.413 56.04C275.633 56.35 275.743 56.72 275.743 57.15C275.743 57.58 275.613 57.965 275.353 58.305C275.103 58.645 274.743 58.91 274.273 59.1C273.803 59.29 273.258 59.385 272.638 59.385ZM272.488 58.44H272.788C273.348 58.44 273.803 58.305 274.153 58.035C274.503 57.755 274.678 57.37 274.678 56.88C274.678 56.38 274.503 55.995 274.153 55.725C273.803 55.445 273.348 55.305 272.788 55.305H272.488C271.928 55.305 271.473 55.445 271.123 55.725C270.773 55.995 270.598 56.38 270.598 56.88C270.598 57.37 270.773 57.755 271.123 58.035C271.473 58.305 271.928 58.44 272.488 58.44ZM271.213 60.48H279.313V65.025H271.963C271.723 65.025 271.538 64.96 271.408 64.83C271.278 64.7 271.213 64.51 271.213 64.26V60.48ZM272.353 64.08H278.173V61.425H272.353V64.08Z" fill="#1B1C25"/>
<path d="M2.265 86.17H3.39V88.66H9.99V86.17H11.115V93.07H2.265V86.17ZM9.99 92.11V89.62H3.39V92.11H9.99ZM0.57 96.025H12.81V97H0.57V96.025ZM23.439 95.065H22.329V85.675H23.439V89.575H25.449V85.465H26.559V95.44H25.449V90.52H23.439V95.065ZM21.594 92.995C20.264 93.305 18.689 93.46 16.869 93.46H15.654V89.425H19.539V87.37H15.594V86.44H20.604V90.325H16.719V92.545H17.154C17.984 92.545 18.769 92.505 19.509 92.425C20.249 92.345 20.894 92.235 21.444 92.095L21.594 92.995ZM26.844 97.825V98.77H18.639C18.399 98.77 18.214 98.705 18.084 98.575C17.954 98.445 17.889 98.255 17.889 98.005V94.795H19.029V97.825H26.844ZM40.068 92.65H31.188V86.365H39.933V87.34H32.328V91.675H40.068V92.65ZM41.658 96.025V97H29.418V96.025H41.658ZM53.8921 85.465H55.0171V98.485H53.8921V85.465ZM44.5321 89.365C44.5321 88.745 44.6871 88.2 44.9971 87.73C45.3071 87.25 45.7321 86.885 46.2721 86.635C46.8121 86.375 47.4221 86.245 48.1021 86.245C48.7821 86.245 49.3921 86.375 49.9321 86.635C50.4721 86.885 50.8971 87.25 51.2071 87.73C51.5171 88.2 51.6721 88.745 51.6721 89.365C51.6721 89.985 51.5171 90.53 51.2071 91C50.8971 91.47 50.4721 91.835 49.9321 92.095C49.3921 92.345 48.7821 92.47 48.1021 92.47C47.4221 92.47 46.8121 92.345 46.2721 92.095C45.7321 91.835 45.3071 91.47 44.9971 91C44.6871 90.53 44.5321 89.985 44.5321 89.365ZM50.4721 89.545V89.185C50.4721 88.585 50.2521 88.1 49.8121 87.73C49.3721 87.36 48.8021 87.175 48.1021 87.175C47.4021 87.175 46.8321 87.36 46.3921 87.73C45.9521 88.1 45.7321 88.585 45.7321 89.185V89.545C45.7321 90.145 45.9521 90.63 46.3921 91C46.8321 91.37 47.4021 91.555 48.1021 91.555C48.8021 91.555 49.3721 91.37 49.8121 91C50.2521 90.63 50.4721 90.145 50.4721 89.545ZM43.9021 94.78C45.6021 94.78 47.2421 94.74 48.8221 94.66C50.4021 94.58 51.7421 94.455 52.8421 94.285L52.9621 95.2C51.8321 95.38 50.4721 95.52 48.8821 95.62C47.3021 95.71 45.6771 95.755 44.0071 95.755L43.9021 94.78ZM75.506 88.825V89.785H73.421V93.22H72.281V85.465H73.421V88.825H75.506ZM66.596 89.725C66.526 89.725 66.461 89.76 66.401 89.83C66.141 90.26 65.796 90.705 65.366 91.165C64.946 91.615 64.376 92.175 63.656 92.845L62.816 92.11C63.666 91.35 64.321 90.7 64.781 90.16C65.241 89.62 65.571 89.085 65.771 88.555C65.971 88.025 66.071 87.425 66.071 86.755V85.945H67.211V86.815C67.211 87.725 67.036 88.555 66.686 89.305L66.761 89.365L67.001 89.155C67.111 89.065 67.221 89.02 67.331 89.02C67.441 89.02 67.541 89.065 67.631 89.155L70.481 91.795L69.671 92.575L66.791 89.815C66.731 89.755 66.666 89.725 66.596 89.725ZM73.526 96.34C73.526 96.89 73.371 97.38 73.061 97.81C72.751 98.25 72.286 98.595 71.666 98.845C71.046 99.095 70.286 99.22 69.386 99.22C68.496 99.22 67.736 99.095 67.106 98.845C66.486 98.595 66.016 98.25 65.696 97.81C65.386 97.38 65.231 96.89 65.231 96.34C65.231 95.79 65.386 95.3 65.696 94.87C66.016 94.43 66.486 94.085 67.106 93.835C67.736 93.585 68.496 93.46 69.386 93.46C70.286 93.46 71.046 93.585 71.666 93.835C72.286 94.085 72.751 94.43 73.061 94.87C73.371 95.3 73.526 95.79 73.526 96.34ZM72.326 96.22C72.326 95.7 72.081 95.265 71.591 94.915C71.111 94.565 70.376 94.39 69.386 94.39C68.406 94.39 67.671 94.57 67.181 94.93C66.691 95.28 66.446 95.71 66.446 96.22V96.475C66.446 96.985 66.691 97.415 67.181 97.765C67.671 98.125 68.406 98.305 69.386 98.305C70.376 98.305 71.111 98.125 71.591 97.765C72.081 97.415 72.326 96.985 72.326 96.475V96.22ZM88.52 93.25H87.365V85.465H88.52V93.25ZM78.53 92.83L77.69 92.11C78.54 91.44 79.195 90.865 79.655 90.385C80.125 89.905 80.465 89.43 80.675 88.96C80.885 88.49 80.99 87.955 80.99 87.355V87.22H78.11V86.275H85.025V87.22H82.13V87.415C82.13 88.255 81.955 88.995 81.605 89.635L81.695 89.68L81.935 89.5C82.045 89.42 82.15 89.38 82.25 89.38C82.37 89.38 82.49 89.425 82.61 89.515L85.46 91.855L84.605 92.59L81.725 90.145C81.655 90.085 81.575 90.055 81.485 90.055C81.405 90.055 81.335 90.085 81.275 90.145C81.015 90.525 80.675 90.915 80.255 91.315C79.835 91.715 79.26 92.22 78.53 92.83ZM88.595 96.4C88.595 96.94 88.435 97.42 88.115 97.84C87.805 98.27 87.33 98.605 86.69 98.845C86.06 99.095 85.29 99.22 84.38 99.22C83.46 99.22 82.68 99.095 82.04 98.845C81.41 98.605 80.935 98.27 80.615 97.84C80.305 97.42 80.15 96.94 80.15 96.4C80.15 95.86 80.305 95.38 80.615 94.96C80.935 94.53 81.41 94.195 82.04 93.955C82.68 93.705 83.46 93.58 84.38 93.58C85.29 93.58 86.06 93.705 86.69 93.955C87.33 94.195 87.805 94.53 88.115 94.96C88.435 95.38 88.595 95.86 88.595 96.4ZM87.395 96.28C87.395 95.77 87.145 95.345 86.645 95.005C86.145 94.655 85.39 94.48 84.38 94.48C83.36 94.48 82.595 94.655 82.085 95.005C81.585 95.345 81.335 95.77 81.335 96.28V96.535C81.335 97.035 81.585 97.455 82.085 97.795C82.595 98.145 83.36 98.32 84.38 98.32C85.39 98.32 86.145 98.145 86.645 97.795C87.145 97.455 87.395 97.035 87.395 96.535V96.28ZM102.944 85.465V95.35H101.789V85.465H102.944ZM92.1441 89.515C92.1441 88.815 92.2891 88.205 92.5791 87.685C92.8791 87.165 93.2891 86.77 93.8091 86.5C94.3291 86.22 94.9241 86.08 95.5941 86.08C96.2541 86.08 96.8441 86.22 97.3641 86.5C97.8941 86.77 98.3041 87.165 98.5941 87.685C98.8941 88.205 99.0441 88.815 99.0441 89.515C99.0441 90.205 98.8941 90.81 98.5941 91.33C98.3041 91.85 97.8941 92.25 97.3641 92.53C96.8441 92.8 96.2541 92.935 95.5941 92.935C94.9241 92.935 94.3291 92.8 93.8091 92.53C93.2891 92.25 92.8791 91.855 92.5791 91.345C92.2891 90.825 92.1441 90.215 92.1441 89.515ZM97.8291 89.83V89.2C97.8291 88.54 97.6191 88.015 97.1991 87.625C96.7891 87.225 96.2541 87.025 95.5941 87.025C94.9241 87.025 94.3791 87.225 93.9591 87.625C93.5491 88.025 93.3441 88.55 93.3441 89.2V89.83C93.3441 90.48 93.5541 91.005 93.9741 91.405C94.3941 91.795 94.9341 91.99 95.5941 91.99C96.2541 91.99 96.7891 91.795 97.1991 91.405C97.6191 91.005 97.8291 90.48 97.8291 89.83ZM94.6041 98.005V94.27H95.7591V97.825H103.214V98.77H95.3541C95.1141 98.77 94.9291 98.705 94.7991 98.575C94.6691 98.445 94.6041 98.255 94.6041 98.005ZM121.903 85.465V98.485H120.778V91.6H117.868V90.64H120.778V85.465H121.903ZM111.613 86.53H117.388V88.615C117.388 89.725 117.223 90.665 116.893 91.435C116.563 92.205 116.008 92.925 115.228 93.595C114.458 94.255 113.353 94.98 111.913 95.77L111.238 94.915C112.578 94.195 113.603 93.54 114.313 92.95C115.023 92.36 115.518 91.735 115.798 91.075C116.088 90.405 116.233 89.59 116.233 88.63V87.505H111.613V86.53ZM135.577 90.955H126.967V85.69H128.092V87.4H134.467V85.69H135.577V90.955ZM134.467 88.33H128.092V90.04H134.467V88.33ZM131.842 93.205V94.645H135.577V99.085H134.437V95.575H126.847V94.645H130.702V93.205H125.152V92.23H137.392V93.205H131.842ZM152.206 91.78H150.166V98.485H149.041V85.465H150.166V90.82H152.206V91.78ZM145.846 87.595H140.206V86.65H146.956V87.805C146.956 89.395 146.776 90.98 146.416 92.56L145.321 92.395C145.671 90.945 145.846 89.46 145.846 87.94V87.595ZM147.961 94.21L148.066 95.125C146.966 95.305 145.651 95.44 144.121 95.53C142.601 95.62 141.036 95.665 139.426 95.665L139.321 94.705C140.321 94.705 141.316 94.69 142.306 94.66V90.595H143.416V94.615C145.226 94.535 146.741 94.4 147.961 94.21ZM169.77 85.465V98.485H168.645V91.105H165.855C165.805 92.445 165.465 93.46 164.835 94.15C164.205 94.83 163.395 95.17 162.405 95.17C161.365 95.17 160.525 94.795 159.885 94.045C159.255 93.295 158.94 92.19 158.94 90.73C158.94 89.26 159.255 88.155 159.885 87.415C160.515 86.665 161.355 86.29 162.405 86.29C163.375 86.29 164.17 86.615 164.79 87.265C165.41 87.915 165.765 88.875 165.855 90.145H168.645V85.465H169.77ZM164.67 90.13C164.67 89.2 164.46 88.49 164.04 88C163.63 87.5 163.085 87.25 162.405 87.25C161.725 87.25 161.18 87.5 160.77 88C160.36 88.49 160.155 89.2 160.155 90.13V91.33C160.155 92.26 160.36 92.975 160.77 93.475C161.18 93.965 161.725 94.21 162.405 94.21C163.085 94.21 163.63 93.965 164.04 93.475C164.46 92.975 164.67 92.26 164.67 91.33V90.13ZM174.609 88.675C174.609 88.095 174.774 87.575 175.104 87.115C175.434 86.655 175.939 86.29 176.619 86.02C177.299 85.75 178.139 85.615 179.139 85.615C180.139 85.615 180.979 85.75 181.659 86.02C182.339 86.29 182.844 86.655 183.174 87.115C183.504 87.575 183.669 88.095 183.669 88.675C183.669 89.255 183.504 89.78 183.174 90.25C182.844 90.71 182.339 91.075 181.659 91.345C180.979 91.615 180.139 91.75 179.139 91.75C178.139 91.75 177.299 91.615 176.619 91.345C175.939 91.075 175.434 90.71 175.104 90.25C174.774 89.78 174.609 89.255 174.609 88.675ZM175.839 88.825C175.839 89.395 176.114 89.87 176.664 90.25C177.214 90.63 178.039 90.82 179.139 90.82C180.239 90.82 181.064 90.63 181.614 90.25C182.164 89.87 182.439 89.395 182.439 88.825V88.525C182.439 87.955 182.164 87.48 181.614 87.1C181.064 86.71 180.239 86.515 179.139 86.515C178.049 86.515 177.224 86.71 176.664 87.1C176.114 87.48 175.839 87.955 175.839 88.525V88.825ZM185.259 94.12H179.709V99.01H178.569V94.12H173.019V93.16H185.259V94.12ZM198.618 85.465V98.485H197.493V91.075H194.838V90.115H197.493V85.465H198.618ZM195.423 93.925L195.558 94.84C194.088 95.14 192.193 95.29 189.873 95.29H188.298V90.28H192.828V87.415H188.253V86.455H193.953V91.21H189.423V94.36H189.918C192.078 94.36 193.913 94.215 195.423 93.925ZM213.027 85.465V98.485H211.887V85.465H213.027ZM206.757 90.97C206.897 90.97 207.012 91.025 207.102 91.135L210.042 94.585L209.187 95.32L206.217 91.75C206.167 91.69 206.107 91.66 206.037 91.66C205.977 91.66 205.922 91.69 205.872 91.75C205.602 92.3 205.247 92.86 204.807 93.43C204.367 94 203.767 94.7 203.007 95.53L202.152 94.81C203.022 93.9 203.692 93.11 204.162 92.44C204.642 91.77 204.987 91.105 205.197 90.445C205.407 89.775 205.512 89.015 205.512 88.165V87.595H202.557V86.635H209.592V87.595H206.652V88.21C206.652 89.34 206.477 90.345 206.127 91.225L206.202 91.27L206.427 91.09C206.537 91.01 206.647 90.97 206.757 90.97ZM226.791 90.655H218.166V85.945H219.291V89.71H226.791V90.655ZM228.531 92.32V93.295H216.291V92.32H228.531ZM219.186 97.795H226.956V98.755H218.796C218.556 98.755 218.371 98.69 218.241 98.56C218.111 98.43 218.046 98.24 218.046 97.99V94.705H219.186V97.795ZM247.94 91.555H245.78V98.515H244.64V85.495H245.78V90.595H247.94V91.555ZM240.785 86.38H241.88V94.975H235.76V86.395H236.87V89.68H240.785V86.38ZM240.785 90.64H236.87V94.015H240.785V90.64ZM262.364 91.555H260.204V98.515H259.064V85.495H260.204V90.595H262.364V91.555ZM257.489 93.685L257.639 94.6C256.109 94.91 254.199 95.065 251.909 95.065H250.319V86.53H256.304V87.49H251.459V94.12H251.894C254.094 94.12 255.959 93.975 257.489 93.685ZM276.788 91.78H274.748V98.485H273.623V85.465H274.748V90.82H276.788V91.78ZM272.543 94.45L272.648 95.365C271.558 95.545 270.248 95.685 268.718 95.785C267.198 95.875 265.628 95.92 264.008 95.92L263.903 94.945C265.313 94.945 266.513 94.92 267.503 94.87V92.29C266.613 92.19 265.888 91.865 265.328 91.315C264.768 90.765 264.488 90.065 264.488 89.215C264.488 88.605 264.643 88.07 264.953 87.61C265.263 87.14 265.688 86.78 266.228 86.53C266.768 86.27 267.378 86.14 268.058 86.14C268.738 86.14 269.348 86.27 269.888 86.53C270.428 86.78 270.848 87.14 271.148 87.61C271.458 88.07 271.613 88.605 271.613 89.215C271.613 90.065 271.333 90.765 270.773 91.315C270.223 91.865 269.498 92.19 268.598 92.29V94.825C270.058 94.755 271.373 94.63 272.543 94.45ZM268.058 91.39C268.758 91.39 269.328 91.21 269.768 90.85C270.208 90.48 270.428 89.995 270.428 89.395V89.05C270.428 88.45 270.208 87.97 269.768 87.61C269.328 87.24 268.758 87.055 268.058 87.055C267.358 87.055 266.788 87.24 266.348 87.61C265.908 87.97 265.688 88.45 265.688 89.05V89.395C265.688 89.995 265.908 90.48 266.348 90.85C266.788 91.21 267.358 91.39 268.058 91.39ZM295.807 91.555H293.647V98.515H292.507V85.495H293.647V90.595H295.807V91.555ZM290.647 87.475H283.342V86.53H290.647V87.475ZM291.202 93.775L291.307 94.675C290.297 94.835 289.062 94.955 287.602 95.035C286.152 95.115 284.642 95.155 283.072 95.155L282.967 94.21L284.947 94.195L284.497 88.72L285.607 88.615L285.982 94.18L287.902 94.09L288.382 88.6L289.492 88.705L288.952 94.015C289.852 93.955 290.602 93.875 291.202 93.775ZM309.841 96.04V97H297.601V96.04H303.151V92.575H299.371V86.35H308.116V87.325H300.511V91.6H308.251V92.575H304.291V96.04H309.841ZM321.19 87.805V86.515H313.87V85.675H322.285V88.63H315.055V89.905H322.66V90.76H313.945V87.805H321.19ZM324.265 91.885V92.77H312.025V91.885H324.265ZM313.9 98.38V96.115H321.37V94.855H313.81V93.97H322.435V96.955H314.965V98.245H322.825V99.145H314.65C314.41 99.145 314.225 99.08 314.095 98.95C313.965 98.82 313.9 98.63 313.9 98.38ZM342.609 85.465V98.485H341.499V85.465H342.609ZM338.574 85.69H339.669V98.125H338.574V91.12H336.774V94.825H331.509V86.77H336.774V90.175H338.574V85.69ZM335.694 87.7H332.604V93.895H335.694V87.7ZM356.703 85.465V95.35H355.548V85.465H356.703ZM345.903 89.515C345.903 88.815 346.048 88.205 346.338 87.685C346.638 87.165 347.048 86.77 347.568 86.5C348.088 86.22 348.683 86.08 349.353 86.08C350.013 86.08 350.603 86.22 351.123 86.5C351.653 86.77 352.063 87.165 352.353 87.685C352.653 88.205 352.803 88.815 352.803 89.515C352.803 90.205 352.653 90.81 352.353 91.33C352.063 91.85 351.653 92.25 351.123 92.53C350.603 92.8 350.013 92.935 349.353 92.935C348.683 92.935 348.088 92.8 347.568 92.53C347.048 92.25 346.638 91.855 346.338 91.345C346.048 90.825 345.903 90.215 345.903 89.515ZM351.588 89.83V89.2C351.588 88.54 351.378 88.015 350.958 87.625C350.548 87.225 350.013 87.025 349.353 87.025C348.683 87.025 348.138 87.225 347.718 87.625C347.308 88.025 347.103 88.55 347.103 89.2V89.83C347.103 90.48 347.313 91.005 347.733 91.405C348.153 91.795 348.693 91.99 349.353 91.99C350.013 91.99 350.548 91.795 350.958 91.405C351.378 91.005 351.588 90.48 351.588 89.83ZM348.363 98.005V94.27H349.518V97.825H356.973V98.77H349.113C348.873 98.77 348.688 98.705 348.558 98.575C348.428 98.445 348.363 98.255 348.363 98.005ZM374.507 85.465H375.647V98.485H374.507V85.465ZM364.877 90.73C364.877 89.27 365.197 88.165 365.837 87.415C366.487 86.665 367.342 86.29 368.402 86.29C369.452 86.29 370.297 86.665 370.937 87.415C371.587 88.165 371.912 89.27 371.912 90.73C371.912 91.71 371.762 92.535 371.462 93.205C371.162 93.865 370.747 94.36 370.217 94.69C369.687 95.01 369.082 95.17 368.402 95.17C367.342 95.17 366.487 94.795 365.837 94.045C365.197 93.295 364.877 92.19 364.877 90.73ZM370.697 91.315V90.145C370.697 89.215 370.482 88.5 370.052 88C369.632 87.5 369.082 87.25 368.402 87.25C367.712 87.25 367.152 87.5 366.722 88C366.302 88.49 366.092 89.205 366.092 90.145V91.315C366.092 92.255 366.302 92.975 366.722 93.475C367.152 93.965 367.712 94.21 368.402 94.21C369.082 94.21 369.632 93.96 370.052 93.46C370.482 92.96 370.697 92.245 370.697 91.315ZM388.931 85.465H390.071V98.485H388.931V85.465ZM379.676 86.5H385.931V94.855H379.676V86.5ZM384.806 93.91V87.445H380.786V93.91H384.806ZM404.495 85.465V98.485H403.355V85.465H404.495ZM398.225 90.97C398.365 90.97 398.48 91.025 398.57 91.135L401.51 94.585L400.655 95.32L397.685 91.75C397.635 91.69 397.575 91.66 397.505 91.66C397.445 91.66 397.39 91.69 397.34 91.75C397.07 92.3 396.715 92.86 396.275 93.43C395.835 94 395.235 94.7 394.475 95.53L393.62 94.81C394.49 93.9 395.16 93.11 395.63 92.44C396.11 91.77 396.455 91.105 396.665 90.445C396.875 89.775 396.98 89.015 396.98 88.165V87.595H394.025V86.635H401.06V87.595H398.12V88.21C398.12 89.34 397.945 90.345 397.595 91.225L397.67 91.27L397.895 91.09C398.005 91.01 398.115 90.97 398.225 90.97ZM419.999 96.04V97H407.759V96.04H413.309V93.475H409.559V89.41H417.059V87.205H409.484V86.26H418.199V90.325H410.699V92.53H418.589V93.475H414.449V96.04H419.999ZM439.408 91.555H437.248V98.515H436.108V85.495H437.248V90.595H439.408V91.555ZM431.203 90.715C431.333 90.715 431.443 90.77 431.533 90.88L434.458 94.63L433.588 95.395L430.648 91.54C430.618 91.48 430.568 91.45 430.498 91.45C430.448 91.45 430.398 91.48 430.348 91.54C430.088 92.12 429.738 92.72 429.298 93.34C428.858 93.95 428.263 94.7 427.513 95.59L426.643 94.855C427.513 93.865 428.178 93.02 428.638 92.32C429.108 91.61 429.443 90.9 429.643 90.19C429.853 89.48 429.958 88.665 429.958 87.745V86.335H431.113V87.73C431.113 88.92 430.938 90 430.588 90.97L430.663 91.015L430.888 90.835C430.998 90.755 431.103 90.715 431.203 90.715ZM453.442 92.05V93.01H441.202V92.05H444.457V90.28C443.907 90.05 443.492 89.75 443.212 89.38C442.942 89.01 442.807 88.59 442.807 88.12C442.807 87.34 443.187 86.71 443.947 86.23C444.707 85.74 445.832 85.495 447.322 85.495C448.812 85.495 449.937 85.74 450.697 86.23C451.457 86.71 451.837 87.34 451.837 88.12C451.837 88.59 451.697 89.01 451.417 89.38C451.147 89.75 450.737 90.05 450.187 90.28V92.05H453.442ZM447.322 89.86C448.432 89.86 449.262 89.705 449.812 89.395C450.362 89.085 450.637 88.69 450.637 88.21V88C450.637 87.53 450.357 87.14 449.797 86.83C449.247 86.52 448.422 86.365 447.322 86.365C446.222 86.365 445.397 86.52 444.847 86.83C444.297 87.14 444.022 87.53 444.022 88V88.21C444.022 88.69 444.292 89.085 444.832 89.395C445.382 89.705 446.212 89.86 447.322 89.86ZM445.552 92.05H449.092V90.595C448.602 90.695 448.012 90.745 447.322 90.745C446.632 90.745 446.042 90.695 445.552 90.595V92.05ZM451.762 96.685C451.762 97.195 451.592 97.645 451.252 98.035C450.922 98.425 450.422 98.73 449.752 98.95C449.092 99.18 448.282 99.295 447.322 99.295C446.362 99.295 445.547 99.18 444.877 98.95C444.217 98.73 443.717 98.425 443.377 98.035C443.047 97.645 442.882 97.195 442.882 96.685C442.882 96.185 443.047 95.745 443.377 95.365C443.717 94.975 444.217 94.67 444.877 94.45C445.547 94.23 446.362 94.12 447.322 94.12C448.282 94.12 449.092 94.23 449.752 94.45C450.422 94.67 450.922 94.975 451.252 95.365C451.592 95.745 451.762 96.185 451.762 96.685ZM450.562 96.595C450.562 96.155 450.292 95.785 449.752 95.485C449.222 95.175 448.412 95.02 447.322 95.02C446.592 95.02 445.982 95.095 445.492 95.245C445.002 95.385 444.642 95.575 444.412 95.815C444.182 96.055 444.067 96.315 444.067 96.595V96.805C444.067 97.085 444.182 97.345 444.412 97.585C444.642 97.825 445.002 98.015 445.492 98.155C445.982 98.305 446.592 98.38 447.322 98.38C448.412 98.38 449.222 98.225 449.752 97.915C450.292 97.615 450.562 97.245 450.562 96.805V96.595Z" fill="#1B1C25"/>
</svg>
