<svg width="975" height="97" viewBox="0 0 975 97" fill="none" xmlns="http://www.w3.org/2000/svg">
<path d="M0 60H956.5C966.717 60 975 68.2827 975 78.5V78.5C975 88.7173 966.717 97 956.5 97H0V60Z" fill="#36685D" fill-opacity="0.25"/>
<path d="M782.995 17H776.125V15.71L779.545 12.56C780.035 12.11 780.445 11.635 780.775 11.135C781.105 10.625 781.27 10.115 781.27 9.605V9.425C781.27 8.845 781.11 8.375 780.79 8.015C780.47 7.655 779.985 7.475 779.335 7.475C779.015 7.475 778.735 7.52 778.495 7.61C778.255 7.7 778.045 7.825 777.865 7.985C777.695 8.145 777.55 8.335 777.43 8.555C777.32 8.765 777.23 8.995 777.16 9.245L776.035 8.81C776.135 8.5 776.27 8.2 776.44 7.91C776.62 7.61 776.84 7.345 777.1 7.115C777.37 6.885 777.69 6.7 778.06 6.56C778.44 6.42 778.885 6.35 779.395 6.35C779.905 6.35 780.36 6.425 780.76 6.575C781.16 6.725 781.495 6.935 781.765 7.205C782.035 7.475 782.24 7.795 782.38 8.165C782.53 8.535 782.605 8.945 782.605 9.395C782.605 9.805 782.545 10.185 782.425 10.535C782.315 10.885 782.16 11.22 781.96 11.54C781.76 11.85 781.515 12.155 781.225 12.455C780.945 12.755 780.64 13.055 780.31 13.355L777.49 15.89H782.995V17ZM793.039 17H786.169V15.71L789.589 12.56C790.079 12.11 790.489 11.635 790.819 11.135C791.149 10.625 791.314 10.115 791.314 9.605V9.425C791.314 8.845 791.154 8.375 790.834 8.015C790.514 7.655 790.029 7.475 789.379 7.475C789.059 7.475 788.779 7.52 788.539 7.61C788.299 7.7 788.089 7.825 787.909 7.985C787.739 8.145 787.594 8.335 787.474 8.555C787.364 8.765 787.274 8.995 787.204 9.245L786.079 8.81C786.179 8.5 786.314 8.2 786.484 7.91C786.664 7.61 786.884 7.345 787.144 7.115C787.414 6.885 787.734 6.7 788.104 6.56C788.484 6.42 788.929 6.35 789.439 6.35C789.949 6.35 790.404 6.425 790.804 6.575C791.204 6.725 791.539 6.935 791.809 7.205C792.079 7.475 792.284 7.795 792.424 8.165C792.574 8.535 792.649 8.945 792.649 9.395C792.649 9.805 792.589 10.185 792.469 10.535C792.359 10.885 792.204 11.22 792.004 11.54C791.804 11.85 791.559 12.155 791.269 12.455C790.989 12.755 790.684 13.055 790.354 13.355L787.534 15.89H793.039V17ZM797.128 17.18C796.808 17.18 796.573 17.1 796.423 16.94C796.283 16.78 796.213 16.57 796.213 16.31V16.115C796.213 15.855 796.283 15.645 796.423 15.485C796.573 15.325 796.808 15.245 797.128 15.245C797.448 15.245 797.678 15.325 797.818 15.485C797.968 15.645 798.043 15.855 798.043 16.115V16.31C798.043 16.57 797.968 16.78 797.818 16.94C797.678 17.1 797.448 17.18 797.128 17.18ZM804.725 17.18C803.475 17.18 802.56 16.705 801.98 15.755C801.41 14.805 801.125 13.475 801.125 11.765C801.125 10.055 801.41 8.725 801.98 7.775C802.56 6.825 803.475 6.35 804.725 6.35C805.975 6.35 806.885 6.825 807.455 7.775C808.035 8.725 808.325 10.055 808.325 11.765C808.325 13.475 808.035 14.805 807.455 15.755C806.885 16.705 805.975 17.18 804.725 17.18ZM804.725 16.085C805.135 16.085 805.485 16 805.775 15.83C806.065 15.66 806.3 15.42 806.48 15.11C806.66 14.8 806.79 14.435 806.87 14.015C806.96 13.595 807.005 13.13 807.005 12.62V10.91C807.005 10.4 806.96 9.935 806.87 9.515C806.79 9.095 806.66 8.73 806.48 8.42C806.3 8.11 806.065 7.87 805.775 7.7C805.485 7.53 805.135 7.445 804.725 7.445C804.315 7.445 803.965 7.53 803.675 7.7C803.385 7.87 803.15 8.11 802.97 8.42C802.79 8.73 802.655 9.095 802.565 9.515C802.485 9.935 802.445 10.4 802.445 10.91V12.62C802.445 13.13 802.485 13.595 802.565 14.015C802.655 14.435 802.79 14.8 802.97 15.11C803.15 15.42 803.385 15.66 803.675 15.83C803.965 16 804.315 16.085 804.725 16.085ZM814.784 17.18C814.244 17.18 813.754 17.09 813.314 16.91C812.884 16.72 812.514 16.455 812.204 16.115C811.904 15.765 811.674 15.34 811.514 14.84C811.354 14.34 811.274 13.78 811.274 13.16C811.274 12.38 811.389 11.65 811.619 10.97C811.849 10.28 812.144 9.655 812.504 9.095C812.874 8.525 813.279 8.025 813.719 7.595C814.159 7.155 814.589 6.8 815.009 6.53H816.629C816.069 6.94 815.569 7.34 815.129 7.73C814.689 8.12 814.304 8.53 813.974 8.96C813.644 9.38 813.364 9.835 813.134 10.325C812.904 10.805 812.719 11.35 812.579 11.96L812.654 11.99C812.904 11.56 813.224 11.205 813.614 10.925C814.014 10.635 814.534 10.49 815.174 10.49C815.624 10.49 816.039 10.565 816.419 10.715C816.799 10.865 817.124 11.08 817.394 11.36C817.664 11.64 817.874 11.98 818.024 12.38C818.184 12.78 818.264 13.225 818.264 13.715C818.264 14.225 818.179 14.695 818.009 15.125C817.849 15.545 817.614 15.91 817.304 16.22C817.004 16.52 816.639 16.755 816.209 16.925C815.779 17.095 815.304 17.18 814.784 17.18ZM814.769 16.085C815.459 16.085 815.994 15.895 816.374 15.515C816.764 15.135 816.959 14.59 816.959 13.88V13.76C816.959 13.05 816.764 12.505 816.374 12.125C815.994 11.745 815.459 11.555 814.769 11.555C814.079 11.555 813.539 11.745 813.149 12.125C812.769 12.505 812.579 13.05 812.579 13.76V13.88C812.579 14.59 812.769 15.135 813.149 15.515C813.539 15.895 814.079 16.085 814.769 16.085ZM822.353 17.18C822.033 17.18 821.798 17.1 821.648 16.94C821.508 16.78 821.438 16.57 821.438 16.31V16.115C821.438 15.855 821.508 15.645 821.648 15.485C821.798 15.325 822.033 15.245 822.353 15.245C822.673 15.245 822.903 15.325 823.043 15.485C823.193 15.645 823.268 15.855 823.268 16.115V16.31C823.268 16.57 823.193 16.78 823.043 16.94C822.903 17.1 822.673 17.18 822.353 17.18ZM829.95 17.18C828.7 17.18 827.785 16.705 827.205 15.755C826.635 14.805 826.35 13.475 826.35 11.765C826.35 10.055 826.635 8.725 827.205 7.775C827.785 6.825 828.7 6.35 829.95 6.35C831.2 6.35 832.11 6.825 832.68 7.775C833.26 8.725 833.55 10.055 833.55 11.765C833.55 13.475 833.26 14.805 832.68 15.755C832.11 16.705 831.2 17.18 829.95 17.18ZM829.95 16.085C830.36 16.085 830.71 16 831 15.83C831.29 15.66 831.525 15.42 831.705 15.11C831.885 14.8 832.015 14.435 832.095 14.015C832.185 13.595 832.23 13.13 832.23 12.62V10.91C832.23 10.4 832.185 9.935 832.095 9.515C832.015 9.095 831.885 8.73 831.705 8.42C831.525 8.11 831.29 7.87 831 7.7C830.71 7.53 830.36 7.445 829.95 7.445C829.54 7.445 829.19 7.53 828.9 7.7C828.61 7.87 828.375 8.11 828.195 8.42C828.015 8.73 827.88 9.095 827.79 9.515C827.71 9.935 827.67 10.4 827.67 10.91V12.62C827.67 13.13 827.71 13.595 827.79 14.015C827.88 14.435 828.015 14.8 828.195 15.11C828.375 15.42 828.61 15.66 828.9 15.83C829.19 16 829.54 16.085 829.95 16.085ZM840.01 17.18C839.47 17.18 838.98 17.09 838.54 16.91C838.11 16.72 837.74 16.455 837.43 16.115C837.13 15.765 836.9 15.34 836.74 14.84C836.58 14.34 836.5 13.78 836.5 13.16C836.5 12.38 836.615 11.65 836.845 10.97C837.075 10.28 837.37 9.655 837.73 9.095C838.1 8.525 838.505 8.025 838.945 7.595C839.385 7.155 839.815 6.8 840.235 6.53H841.855C841.295 6.94 840.795 7.34 840.355 7.73C839.915 8.12 839.53 8.53 839.2 8.96C838.87 9.38 838.59 9.835 838.36 10.325C838.13 10.805 837.945 11.35 837.805 11.96L837.88 11.99C838.13 11.56 838.45 11.205 838.84 10.925C839.24 10.635 839.76 10.49 840.4 10.49C840.85 10.49 841.265 10.565 841.645 10.715C842.025 10.865 842.35 11.08 842.62 11.36C842.89 11.64 843.1 11.98 843.25 12.38C843.41 12.78 843.49 13.225 843.49 13.715C843.49 14.225 843.405 14.695 843.235 15.125C843.075 15.545 842.84 15.91 842.53 16.22C842.23 16.52 841.865 16.755 841.435 16.925C841.005 17.095 840.53 17.18 840.01 17.18ZM839.995 16.085C840.685 16.085 841.22 15.895 841.6 15.515C841.99 15.135 842.185 14.59 842.185 13.88V13.76C842.185 13.05 841.99 12.505 841.6 12.125C841.22 11.745 840.685 11.555 839.995 11.555C839.305 11.555 838.765 11.745 838.375 12.125C837.995 12.505 837.805 13.05 837.805 13.76V13.88C837.805 14.59 837.995 15.135 838.375 15.515C838.765 15.895 839.305 16.085 839.995 16.085ZM847.579 17.18C847.259 17.18 847.024 17.1 846.874 16.94C846.734 16.78 846.664 16.57 846.664 16.31V16.115C846.664 15.855 846.734 15.645 846.874 15.485C847.024 15.325 847.259 15.245 847.579 15.245C847.899 15.245 848.129 15.325 848.269 15.485C848.419 15.645 848.494 15.855 848.494 16.115V16.31C848.494 16.57 848.419 16.78 848.269 16.94C848.129 17.1 847.899 17.18 847.579 17.18ZM856.961 13.46C856.591 13.46 856.261 13.41 855.971 13.31C855.691 13.21 855.376 13.075 855.026 12.905C854.746 12.765 854.471 12.645 854.201 12.545C853.931 12.445 853.641 12.395 853.331 12.395C853.081 12.395 852.866 12.435 852.686 12.515C852.516 12.585 852.316 12.705 852.086 12.875L851.591 12.215C851.791 11.965 852.026 11.765 852.296 11.615C852.576 11.465 852.941 11.39 853.391 11.39C853.761 11.39 854.086 11.44 854.366 11.54C854.656 11.64 854.976 11.775 855.326 11.945C855.606 12.085 855.881 12.205 856.151 12.305C856.421 12.405 856.711 12.455 857.021 12.455C857.271 12.455 857.481 12.42 857.651 12.35C857.831 12.27 858.036 12.145 858.266 11.975L858.761 12.635C858.561 12.885 858.321 13.085 858.041 13.235C857.771 13.385 857.411 13.46 856.961 13.46ZM868.715 17H861.845V15.71L865.265 12.56C865.755 12.11 866.165 11.635 866.495 11.135C866.825 10.625 866.99 10.115 866.99 9.605V9.425C866.99 8.845 866.83 8.375 866.51 8.015C866.19 7.655 865.705 7.475 865.055 7.475C864.735 7.475 864.455 7.52 864.215 7.61C863.975 7.7 863.765 7.825 863.585 7.985C863.415 8.145 863.27 8.335 863.15 8.555C863.04 8.765 862.95 8.995 862.88 9.245L861.755 8.81C861.855 8.5 861.99 8.2 862.16 7.91C862.34 7.61 862.56 7.345 862.82 7.115C863.09 6.885 863.41 6.7 863.78 6.56C864.16 6.42 864.605 6.35 865.115 6.35C865.625 6.35 866.08 6.425 866.48 6.575C866.88 6.725 867.215 6.935 867.485 7.205C867.755 7.475 867.96 7.795 868.1 8.165C868.25 8.535 868.325 8.945 868.325 9.395C868.325 9.805 868.265 10.185 868.145 10.535C868.035 10.885 867.88 11.22 867.68 11.54C867.48 11.85 867.235 12.155 866.945 12.455C866.665 12.755 866.36 13.055 866.03 13.355L863.21 15.89H868.715V17ZM878.759 17H871.889V15.71L875.309 12.56C875.799 12.11 876.209 11.635 876.539 11.135C876.869 10.625 877.034 10.115 877.034 9.605V9.425C877.034 8.845 876.874 8.375 876.554 8.015C876.234 7.655 875.749 7.475 875.099 7.475C874.779 7.475 874.499 7.52 874.259 7.61C874.019 7.7 873.809 7.825 873.629 7.985C873.459 8.145 873.314 8.335 873.194 8.555C873.084 8.765 872.994 8.995 872.924 9.245L871.799 8.81C871.899 8.5 872.034 8.2 872.204 7.91C872.384 7.61 872.604 7.345 872.864 7.115C873.134 6.885 873.454 6.7 873.824 6.56C874.204 6.42 874.649 6.35 875.159 6.35C875.669 6.35 876.124 6.425 876.524 6.575C876.924 6.725 877.259 6.935 877.529 7.205C877.799 7.475 878.004 7.795 878.144 8.165C878.294 8.535 878.369 8.945 878.369 9.395C878.369 9.805 878.309 10.185 878.189 10.535C878.079 10.885 877.924 11.22 877.724 11.54C877.524 11.85 877.279 12.155 876.989 12.455C876.709 12.755 876.404 13.055 876.074 13.355L873.254 15.89H878.759V17ZM882.848 17.18C882.528 17.18 882.293 17.1 882.143 16.94C882.003 16.78 881.933 16.57 881.933 16.31V16.115C881.933 15.855 882.003 15.645 882.143 15.485C882.293 15.325 882.528 15.245 882.848 15.245C883.168 15.245 883.398 15.325 883.538 15.485C883.688 15.645 883.763 15.855 883.763 16.115V16.31C883.763 16.57 883.688 16.78 883.538 16.94C883.398 17.1 883.168 17.18 882.848 17.18ZM890.445 17.18C889.195 17.18 888.28 16.705 887.7 15.755C887.13 14.805 886.845 13.475 886.845 11.765C886.845 10.055 887.13 8.725 887.7 7.775C888.28 6.825 889.195 6.35 890.445 6.35C891.695 6.35 892.605 6.825 893.175 7.775C893.755 8.725 894.045 10.055 894.045 11.765C894.045 13.475 893.755 14.805 893.175 15.755C892.605 16.705 891.695 17.18 890.445 17.18ZM890.445 16.085C890.855 16.085 891.205 16 891.495 15.83C891.785 15.66 892.02 15.42 892.2 15.11C892.38 14.8 892.51 14.435 892.59 14.015C892.68 13.595 892.725 13.13 892.725 12.62V10.91C892.725 10.4 892.68 9.935 892.59 9.515C892.51 9.095 892.38 8.73 892.2 8.42C892.02 8.11 891.785 7.87 891.495 7.7C891.205 7.53 890.855 7.445 890.445 7.445C890.035 7.445 889.685 7.53 889.395 7.7C889.105 7.87 888.87 8.11 888.69 8.42C888.51 8.73 888.375 9.095 888.285 9.515C888.205 9.935 888.165 10.4 888.165 10.91V12.62C888.165 13.13 888.205 13.595 888.285 14.015C888.375 14.435 888.51 14.8 888.69 15.11C888.87 15.42 889.105 15.66 889.395 15.83C889.685 16 890.035 16.085 890.445 16.085ZM900.504 17.18C899.964 17.18 899.474 17.09 899.034 16.91C898.604 16.72 898.234 16.455 897.924 16.115C897.624 15.765 897.394 15.34 897.234 14.84C897.074 14.34 896.994 13.78 896.994 13.16C896.994 12.38 897.109 11.65 897.339 10.97C897.569 10.28 897.864 9.655 898.224 9.095C898.594 8.525 898.999 8.025 899.439 7.595C899.879 7.155 900.309 6.8 900.729 6.53H902.349C901.789 6.94 901.289 7.34 900.849 7.73C900.409 8.12 900.024 8.53 899.694 8.96C899.364 9.38 899.084 9.835 898.854 10.325C898.624 10.805 898.439 11.35 898.299 11.96L898.374 11.99C898.624 11.56 898.944 11.205 899.334 10.925C899.734 10.635 900.254 10.49 900.894 10.49C901.344 10.49 901.759 10.565 902.139 10.715C902.519 10.865 902.844 11.08 903.114 11.36C903.384 11.64 903.594 11.98 903.744 12.38C903.904 12.78 903.984 13.225 903.984 13.715C903.984 14.225 903.899 14.695 903.729 15.125C903.569 15.545 903.334 15.91 903.024 16.22C902.724 16.52 902.359 16.755 901.929 16.925C901.499 17.095 901.024 17.18 900.504 17.18ZM900.489 16.085C901.179 16.085 901.714 15.895 902.094 15.515C902.484 15.135 902.679 14.59 902.679 13.88V13.76C902.679 13.05 902.484 12.505 902.094 12.125C901.714 11.745 901.179 11.555 900.489 11.555C899.799 11.555 899.259 11.745 898.869 12.125C898.489 12.505 898.299 13.05 898.299 13.76V13.88C898.299 14.59 898.489 15.135 898.869 15.515C899.259 15.895 899.799 16.085 900.489 16.085ZM908.073 17.18C907.753 17.18 907.518 17.1 907.368 16.94C907.228 16.78 907.158 16.57 907.158 16.31V16.115C907.158 15.855 907.228 15.645 907.368 15.485C907.518 15.325 907.753 15.245 908.073 15.245C908.393 15.245 908.623 15.325 908.763 15.485C908.913 15.645 908.988 15.855 908.988 16.115V16.31C908.988 16.57 908.913 16.78 908.763 16.94C908.623 17.1 908.393 17.18 908.073 17.18ZM915.67 17.18C914.42 17.18 913.505 16.705 912.925 15.755C912.355 14.805 912.07 13.475 912.07 11.765C912.07 10.055 912.355 8.725 912.925 7.775C913.505 6.825 914.42 6.35 915.67 6.35C916.92 6.35 917.83 6.825 918.4 7.775C918.98 8.725 919.27 10.055 919.27 11.765C919.27 13.475 918.98 14.805 918.4 15.755C917.83 16.705 916.92 17.18 915.67 17.18ZM915.67 16.085C916.08 16.085 916.43 16 916.72 15.83C917.01 15.66 917.245 15.42 917.425 15.11C917.605 14.8 917.735 14.435 917.815 14.015C917.905 13.595 917.95 13.13 917.95 12.62V10.91C917.95 10.4 917.905 9.935 917.815 9.515C917.735 9.095 917.605 8.73 917.425 8.42C917.245 8.11 917.01 7.87 916.72 7.7C916.43 7.53 916.08 7.445 915.67 7.445C915.26 7.445 914.91 7.53 914.62 7.7C914.33 7.87 914.095 8.11 913.915 8.42C913.735 8.73 913.6 9.095 913.51 9.515C913.43 9.935 913.39 10.4 913.39 10.91V12.62C913.39 13.13 913.43 13.595 913.51 14.015C913.6 14.435 913.735 14.8 913.915 15.11C914.095 15.42 914.33 15.66 914.62 15.83C914.91 16 915.26 16.085 915.67 16.085ZM925.714 17.18C925.114 17.18 924.589 17.105 924.139 16.955C923.689 16.795 923.309 16.58 922.999 16.31C922.699 16.04 922.469 15.72 922.309 15.35C922.159 14.98 922.084 14.58 922.084 14.15C922.084 13.43 922.279 12.86 922.669 12.44C923.059 12.02 923.569 11.725 924.199 11.555V11.435C923.649 11.245 923.209 10.94 922.879 10.52C922.559 10.09 922.399 9.575 922.399 8.975C922.399 8.175 922.689 7.54 923.269 7.07C923.849 6.59 924.664 6.35 925.714 6.35C926.764 6.35 927.579 6.59 928.159 7.07C928.739 7.54 929.029 8.175 929.029 8.975C929.029 9.575 928.864 10.09 928.534 10.52C928.214 10.94 927.779 11.245 927.229 11.435V11.555C927.859 11.725 928.369 12.02 928.759 12.44C929.149 12.86 929.344 13.43 929.344 14.15C929.344 14.58 929.264 14.98 929.104 15.35C928.954 15.72 928.724 16.04 928.414 16.31C928.114 16.58 927.739 16.795 927.289 16.955C926.839 17.105 926.314 17.18 925.714 17.18ZM925.714 16.085C926.444 16.085 927.009 15.925 927.409 15.605C927.809 15.275 928.009 14.81 928.009 14.21V13.895C928.009 13.295 927.809 12.835 927.409 12.515C927.009 12.185 926.444 12.02 925.714 12.02C924.984 12.02 924.419 12.185 924.019 12.515C923.619 12.835 923.419 13.295 923.419 13.895V14.21C923.419 14.81 923.619 15.275 924.019 15.605C924.419 15.925 924.984 16.085 925.714 16.085ZM925.714 10.97C926.374 10.97 926.874 10.83 927.214 10.55C927.554 10.27 927.724 9.86 927.724 9.32V9.095C927.724 8.555 927.554 8.145 927.214 7.865C926.874 7.585 926.374 7.445 925.714 7.445C925.054 7.445 924.554 7.585 924.214 7.865C923.874 8.145 923.704 8.555 923.704 9.095V9.32C923.704 9.86 923.874 10.27 924.214 10.55C924.554 10.83 925.054 10.97 925.714 10.97ZM933.298 17.18C932.978 17.18 932.743 17.1 932.593 16.94C932.453 16.78 932.383 16.57 932.383 16.31V16.115C932.383 15.855 932.453 15.645 932.593 15.485C932.743 15.325 932.978 15.245 933.298 15.245C933.618 15.245 933.848 15.325 933.988 15.485C934.138 15.645 934.213 15.855 934.213 16.115V16.31C934.213 16.57 934.138 16.78 933.988 16.94C933.848 17.1 933.618 17.18 933.298 17.18Z" fill="#1B1C25"/>
<path d="M793.59 28.465H794.73V41.485H793.59V28.465ZM784.02 29.53H791.355V30.49H784.02V29.53ZM783.63 37.21C784.06 37.21 784.725 37.2 785.625 37.18L785.175 31.72L786.3 31.63L786.66 37.165C787.31 37.155 787.96 37.125 788.61 37.075L789.09 31.615L790.2 31.72L789.66 37.015C790.39 36.965 791.165 36.885 791.985 36.775L792.105 37.675C791.085 37.835 789.835 37.955 788.355 38.035C786.885 38.115 785.345 38.155 783.735 38.155L783.63 37.21ZM808.644 35.65H799.764V29.365H808.509V30.34H800.904V34.675H808.644V35.65ZM810.234 39.025V40H797.994V39.025H810.234ZM823.983 28.465V36.445H822.888V32.95H820.878V36.28H819.798V28.675H820.878V32.02H822.888V28.465H823.983ZM818.133 35.5H812.913V29.275H813.963V31.45H817.068V29.26H818.133V35.5ZM817.068 32.35H813.963V34.6H817.068V32.35ZM815.163 37.27H823.983V42.145H822.858V38.245H815.163V37.27ZM842.672 35.905H841.517V28.465H842.672V35.905ZM838.457 34.72H832.202V29.005H838.457V34.72ZM837.317 29.935H833.357V33.79H837.317V29.935ZM836.372 35.845H840.512V36.745H836.372V35.845ZM843.302 41.425L842.792 42.25L838.742 40.585C838.612 40.535 838.487 40.51 838.367 40.51C838.227 40.51 838.097 40.54 837.977 40.6L837.947 40.615C837.587 40.875 837.087 41.135 836.447 41.395C835.817 41.665 834.997 41.96 833.987 42.28L833.492 41.47C834.622 41.14 835.497 40.84 836.117 40.57C836.747 40.3 837.192 40.03 837.452 39.76C837.722 39.48 837.872 39.165 837.902 38.815H833.852V37.915H842.912V38.815H838.997C838.987 39.095 838.937 39.35 838.847 39.58C838.757 39.81 838.612 40.025 838.412 40.225L838.502 40.24L838.757 40.06C838.927 39.94 839.062 39.88 839.162 39.88C839.202 39.88 839.292 39.9 839.432 39.94L843.302 41.425ZM857.881 40H851.011V38.71L854.431 35.56C854.921 35.11 855.331 34.635 855.661 34.135C855.991 33.625 856.156 33.115 856.156 32.605V32.425C856.156 31.845 855.996 31.375 855.676 31.015C855.356 30.655 854.871 30.475 854.221 30.475C853.901 30.475 853.621 30.52 853.381 30.61C853.141 30.7 852.931 30.825 852.751 30.985C852.581 31.145 852.436 31.335 852.316 31.555C852.206 31.765 852.116 31.995 852.046 32.245L850.921 31.81C851.021 31.5 851.156 31.2 851.326 30.91C851.506 30.61 851.726 30.345 851.986 30.115C852.256 29.885 852.576 29.7 852.946 29.56C853.326 29.42 853.771 29.35 854.281 29.35C854.791 29.35 855.246 29.425 855.646 29.575C856.046 29.725 856.381 29.935 856.651 30.205C856.921 30.475 857.126 30.795 857.266 31.165C857.416 31.535 857.491 31.945 857.491 32.395C857.491 32.805 857.431 33.185 857.311 33.535C857.201 33.885 857.046 34.22 856.846 34.54C856.646 34.85 856.401 35.155 856.111 35.455C855.831 35.755 855.526 36.055 855.196 36.355L852.376 38.89H857.881V40ZM873.13 34.555H870.97V41.515H869.83V28.495H870.97V33.595H873.13V34.555ZM866.425 30.055H862.405V29.11H866.425V30.055ZM865.03 34.99C865.15 34.99 865.275 35.045 865.405 35.155L868.315 37.96L867.475 38.695L864.52 35.74C864.46 35.68 864.395 35.65 864.325 35.65C864.255 35.65 864.195 35.68 864.145 35.74C863.875 36.19 863.52 36.66 863.08 37.15C862.64 37.63 862.055 38.205 861.325 38.875L860.5 38.17C861.37 37.42 862.04 36.77 862.51 36.22C862.98 35.66 863.315 35.105 863.515 34.555C863.725 33.995 863.83 33.36 863.83 32.65V32.575H860.89V31.63H867.94V32.575H864.955V32.68C864.955 33.67 864.775 34.525 864.415 35.245L864.49 35.29L864.715 35.11C864.825 35.03 864.93 34.99 865.03 34.99ZM890.694 28.465V41.485H889.569V34.135H887.154V33.175H889.569V28.465H890.694ZM887.184 30.475H879.924V29.53H887.184V30.475ZM887.754 36.775L887.874 37.675C886.864 37.835 885.639 37.955 884.199 38.035C882.759 38.115 881.254 38.155 879.684 38.155L879.579 37.21L881.559 37.195L881.094 31.72L882.219 31.615L882.579 37.18L884.379 37.09L884.844 31.6L885.954 31.705L885.414 37.03C886.284 36.97 887.064 36.885 887.754 36.775ZM896.883 28.57V30.04H903.258V28.57H904.368V33.25H895.758V28.57H896.883ZM903.258 30.91H896.883V32.38H903.258V30.91ZM906.183 34.45V35.395H893.943V34.45H906.183ZM895.848 41.335V38.905H903.243V37.525H895.758V36.61H904.338V39.775H896.928V41.17H904.728V42.1H896.598C896.358 42.1 896.173 42.035 896.043 41.905C895.913 41.775 895.848 41.585 895.848 41.335ZM919.527 28.465V41.485H918.387V28.465H919.527ZM916.677 36.925L916.827 37.84C915.277 38.14 913.307 38.29 910.917 38.29H909.297V33.265H914.022V30.415H909.237V29.455H915.162V34.21H910.422V37.36H910.902C913.172 37.36 915.097 37.215 916.677 36.925ZM934.026 36.22H932.871V28.465H934.026V36.22ZM926.841 32.755C926.771 32.755 926.706 32.79 926.646 32.86C926.386 33.28 926.046 33.715 925.626 34.165C925.206 34.605 924.626 35.165 923.886 35.845L923.031 35.11C923.891 34.36 924.551 33.72 925.011 33.19C925.471 32.65 925.801 32.12 926.001 31.6C926.211 31.07 926.316 30.47 926.316 29.8V28.975H927.471V29.86C927.471 30.81 927.296 31.64 926.946 32.35L927.006 32.395L927.261 32.185C927.371 32.095 927.476 32.05 927.576 32.05C927.696 32.05 927.801 32.1 927.891 32.2L930.786 34.825L929.961 35.62L927.051 32.845C926.991 32.785 926.921 32.755 926.841 32.755ZM934.101 39.34C934.101 39.89 933.941 40.38 933.621 40.81C933.311 41.25 932.841 41.595 932.211 41.845C931.581 42.095 930.811 42.22 929.901 42.22C928.991 42.22 928.216 42.095 927.576 41.845C926.946 41.595 926.471 41.25 926.151 40.81C925.841 40.38 925.686 39.89 925.686 39.34C925.686 38.79 925.841 38.3 926.151 37.87C926.471 37.43 926.946 37.085 927.576 36.835C928.216 36.585 928.991 36.46 929.901 36.46C930.811 36.46 931.581 36.585 932.211 36.835C932.841 37.085 933.311 37.43 933.621 37.87C933.941 38.3 934.101 38.79 934.101 39.34ZM932.886 39.22C932.886 38.7 932.636 38.265 932.136 37.915C931.646 37.565 930.901 37.39 929.901 37.39C928.901 37.39 928.151 37.57 927.651 37.93C927.151 38.28 926.901 38.71 926.901 39.22V39.475C926.901 39.985 927.151 40.415 927.651 40.765C928.151 41.125 928.901 41.305 929.901 41.305C930.901 41.305 931.646 41.125 932.136 40.765C932.636 40.415 932.886 39.985 932.886 39.475V39.22Z" fill="#1B1C25"/>
<path d="M926.184 73.2261C926.184 73.2261 926.163 73.2117 926.155 73.206C926.181 73.1545 926.209 73.0972 926.229 73.0514C926.375 72.7278 926.461 72.4243 926.49 72.1408C926.553 71.5108 926.258 70.8694 925.603 70.2137C925.113 69.724 924.661 69.4005 924.246 69.2516C924.057 69.1857 923.871 69.1628 923.685 69.1886C923.499 69.2143 923.353 69.2773 923.25 69.3833C923.17 69.4635 923.118 69.558 923.096 69.6696C923.073 69.7784 923.084 69.8758 923.127 69.9588C923.276 70.228 923.345 70.4227 923.336 70.5459C923.327 70.669 923.227 70.8551 923.035 71.1071C922.918 71.2589 922.812 71.4078 922.721 71.5481C921.813 71.2989 920.858 71.1615 919.879 71.1615C918.03 71.1615 916.307 71.6454 914.856 72.4758L920.883 78.5035L926.184 73.2261Z" fill="white"/>
<path d="M929.023 82.2489C929.3 82.3234 929.592 82.3663 929.898 82.3663C931.567 82.3663 933.046 81.1551 933.046 79.6603C933.046 78.1656 931.567 76.9544 929.898 76.9544C929.635 76.9544 929.383 76.9887 929.14 77.0431C928.742 75.9779 928.098 75.0015 927.271 74.1625L921.899 79.5114L927.245 84.8576C928.009 84.093 928.619 83.2082 929.025 82.2461L929.023 82.2489Z" fill="white"/>
<path d="M924.246 89.7484C924.658 89.5966 925.11 89.2759 925.603 88.7863C926.258 88.1305 926.553 87.4891 926.49 86.8592C926.464 86.5757 926.375 86.2721 926.229 85.9486C926.209 85.9028 926.181 85.8484 926.155 85.7968L920.883 80.5251L914.859 86.5241C916.307 87.3545 918.03 87.8385 919.879 87.8385C920.858 87.8385 921.813 87.701 922.721 87.4519C922.815 87.5922 922.918 87.7411 923.035 87.8929C923.227 88.1449 923.327 88.331 923.336 88.4541C923.345 88.5772 923.276 88.772 923.127 89.0411C923.084 89.1242 923.073 89.2215 923.096 89.3303C923.118 89.4391 923.17 89.5336 923.25 89.6167C923.353 89.7198 923.499 89.7856 923.685 89.8114C923.871 89.8372 924.06 89.8143 924.246 89.7484Z" fill="white"/>
<path d="M910.217 87.9787C910.309 87.9157 910.372 87.8413 910.401 87.7496C910.486 87.4547 910.575 87.2657 910.667 87.1855C910.758 87.1053 910.962 87.0423 911.276 86.9994C912.032 86.8992 912.593 86.7331 912.959 86.5012C913.248 86.3179 913.477 86.0487 913.649 85.6994L913.655 85.7051L919.871 79.5143L913.652 73.2977L913.652 73.3005C913.474 72.9512 913.245 72.682 912.956 72.4988C912.59 72.2668 912.029 72.1007 911.273 72.0005C910.959 71.9576 910.755 71.8974 910.664 71.8144C910.572 71.7342 910.481 71.5452 910.398 71.2503C910.369 71.1586 910.309 71.0842 910.215 71.0212C910.123 70.9582 910.02 70.9296 909.906 70.9296C909.76 70.9296 909.611 70.9868 909.459 71.1014C909.31 71.2159 909.193 71.3619 909.107 71.5423C908.921 71.9404 908.829 72.4873 908.829 73.1831C908.829 74.1109 909.076 74.7724 909.562 75.1732C909.78 75.3536 910.057 75.5083 910.389 75.6343C910.638 75.7288 910.987 75.8347 911.442 75.955C910.876 77.0316 910.555 78.2343 910.555 79.5057C910.555 80.7771 910.876 81.9769 911.442 83.0564C910.987 83.1767 910.638 83.2826 910.389 83.3771C910.057 83.5031 909.78 83.6577 909.562 83.8381C909.073 84.2361 908.829 84.9005 908.829 85.8282C908.829 86.5212 908.921 87.0681 909.107 87.469C909.193 87.6494 909.31 87.7983 909.459 87.91C909.608 88.0245 909.757 88.0818 909.906 88.0818C910.02 88.0818 910.123 88.0503 910.215 87.9902L910.217 87.9787Z" fill="white"/>
</svg>
