<svg width="588" height="56" viewBox="0 0 588 56" fill="none" xmlns="http://www.w3.org/2000/svg">
<path d="M10.665 10.145H7.965V9.185H10.665V5.465H11.805V15.35H10.665V10.145ZM1.74 13.955L1.125 13.115C2.555 12.545 3.65 12.005 4.41 11.495C5.18 10.985 5.715 10.435 6.015 9.845L1.245 10.22L1.095 9.26L6.285 8.99C6.325 8.79 6.345 8.56 6.345 8.3V7.28H1.65V6.35H7.425V8.225C7.425 9.095 7.24 9.85 6.87 10.49C6.51 11.12 5.92 11.71 5.1 12.26C4.29 12.8 3.17 13.365 1.74 13.955ZM12.075 17.825V18.77H4.215C3.975 18.77 3.79 18.705 3.66 18.575C3.53 18.445 3.465 18.255 3.465 18.005V14.45H4.62V17.825H12.075ZM26.559 5.465V12.755H25.449V5.465H26.559ZM22.539 9.26H20.559V8.315H22.539V5.675H23.619V12.635H22.539V9.26ZM18.264 9.905C18.194 9.905 18.129 9.94 18.069 10.01C17.849 10.42 17.559 10.84 17.199 11.27C16.839 11.7 16.364 12.215 15.774 12.815L14.979 12.125C15.709 11.375 16.264 10.735 16.644 10.205C17.034 9.675 17.309 9.155 17.469 8.645C17.639 8.135 17.724 7.55 17.724 6.89V6.11H18.819V6.92C18.819 7.86 18.669 8.68 18.369 9.38L18.429 9.425L18.624 9.26C18.734 9.18 18.834 9.14 18.924 9.14C19.024 9.14 19.124 9.19 19.224 9.29L21.594 11.81L20.814 12.56L18.459 9.995C18.399 9.935 18.334 9.905 18.264 9.905ZM25.434 13.535H26.559V19.025H18.819C18.579 19.025 18.394 18.96 18.264 18.83C18.134 18.7 18.069 18.51 18.069 18.26V13.535H19.194V15.26H25.434V13.535ZM25.434 16.235H19.194V18.05H25.434V16.235ZM31.038 7.865C31.038 7.135 31.413 6.555 32.163 6.125C32.913 5.685 34.038 5.465 35.538 5.465C37.038 5.465 38.163 5.685 38.913 6.125C39.663 6.555 40.038 7.135 40.038 7.865C40.038 8.595 39.663 9.18 38.913 9.62C38.163 10.06 37.038 10.28 35.538 10.28C34.038 10.28 32.913 10.06 32.163 9.62C31.413 9.18 31.038 8.595 31.038 7.865ZM38.823 7.94V7.775C38.823 7.345 38.548 6.995 37.998 6.725C37.458 6.445 36.638 6.305 35.538 6.305C34.438 6.305 33.613 6.445 33.063 6.725C32.523 6.995 32.253 7.345 32.253 7.775V7.94C32.253 8.37 32.523 8.725 33.063 9.005C33.613 9.275 34.438 9.41 35.538 9.41C36.638 9.41 37.458 9.275 37.998 9.005C38.548 8.725 38.823 8.37 38.823 7.94ZM41.658 11.315V12.275H29.418V11.315H41.658ZM31.323 18.335V15.875H38.718V14.465H31.233V13.535H39.813V16.745H32.418V18.17H40.203V19.1H32.073C31.833 19.1 31.648 19.035 31.518 18.905C31.388 18.775 31.323 18.585 31.323 18.335ZM60.677 16.04V17H48.437V16.04H53.987V12.98H50.117V6.155H51.257V8.63H57.842V6.155H58.967V12.98H55.127V16.04H60.677ZM51.257 12.035H57.842V9.575H51.257V12.035ZM74.051 5.465V18.485H72.926V13.01H70.376V12.08H72.926V9.26H70.376V8.33H72.926V5.465H74.051ZM70.061 10.73C70.061 12.19 69.746 13.295 69.116 14.045C68.486 14.795 67.656 15.17 66.626 15.17C65.586 15.17 64.751 14.795 64.121 14.045C63.491 13.295 63.176 12.19 63.176 10.73C63.176 9.27 63.491 8.165 64.121 7.415C64.751 6.665 65.586 6.29 66.626 6.29C67.656 6.29 68.486 6.665 69.116 7.415C69.746 8.165 70.061 9.27 70.061 10.73ZM68.861 10.13C68.861 9.19 68.656 8.475 68.246 7.985C67.836 7.485 67.296 7.235 66.626 7.235C65.946 7.235 65.401 7.485 64.991 7.985C64.581 8.475 64.376 9.19 64.376 10.13V11.33C64.376 12.27 64.581 12.99 64.991 13.49C65.401 13.98 65.946 14.225 66.626 14.225C67.296 14.225 67.836 13.98 68.246 13.49C68.656 12.99 68.861 12.27 68.861 11.33V10.13ZM82.85 6.95H78.695V5.99H88.115V6.95H84.005C83.995 7.36 83.935 7.73 83.825 8.06C83.725 8.39 83.555 8.705 83.315 9.005L83.375 9.035L83.675 8.81C83.815 8.71 83.955 8.66 84.095 8.66C84.225 8.66 84.335 8.685 84.425 8.735L88.67 10.955L88.04 11.81L83.63 9.44C83.5 9.37 83.37 9.335 83.24 9.335C83.14 9.335 83.05 9.355 82.97 9.395C82.58 9.775 82.05 10.16 81.38 10.55C80.71 10.94 79.835 11.375 78.755 11.855L78.14 11C79.34 10.49 80.275 10.025 80.945 9.605C81.615 9.185 82.09 8.77 82.37 8.36C82.66 7.95 82.82 7.48 82.85 6.95ZM89.525 14.135H83.975V19.01H82.835V14.135H77.285V13.175H89.525V14.135ZM102.209 10.655H93.5841V5.945H94.7091V9.71H102.209V10.655ZM103.949 12.32V13.295H91.7091V12.32H103.949ZM94.6041 17.795H102.374V18.755H94.2141C93.9741 18.755 93.7891 18.69 93.6591 18.56C93.5291 18.43 93.4641 18.24 93.4641 17.99V14.705H94.6041V17.795ZM123.358 11.555H121.198V18.515H120.058V5.495H121.198V10.595H123.358V11.555ZM116.203 6.38H117.298V14.975H111.178V6.395H112.288V9.68H116.203V6.38ZM116.203 10.64H112.288V14.015H116.203V10.64ZM137.782 11.555H135.622V18.515H134.482V5.495H135.622V10.595H137.782V11.555ZM132.907 13.685L133.057 14.6C131.527 14.91 129.617 15.065 127.327 15.065H125.737V6.53H131.722V7.49H126.877V14.12H127.312C129.512 14.12 131.377 13.975 132.907 13.685ZM154.191 5.465H155.331V18.485H154.191V5.465ZM144.561 10.73C144.561 9.27 144.881 8.165 145.521 7.415C146.171 6.665 147.026 6.29 148.086 6.29C149.136 6.29 149.981 6.665 150.621 7.415C151.271 8.165 151.596 9.27 151.596 10.73C151.596 11.71 151.446 12.535 151.146 13.205C150.846 13.865 150.431 14.36 149.901 14.69C149.371 15.01 148.766 15.17 148.086 15.17C147.026 15.17 146.171 14.795 145.521 14.045C144.881 13.295 144.561 12.19 144.561 10.73ZM150.381 11.315V10.145C150.381 9.215 150.166 8.5 149.736 8C149.316 7.5 148.766 7.25 148.086 7.25C147.396 7.25 146.836 7.5 146.406 8C145.986 8.49 145.776 9.205 145.776 10.145V11.315C145.776 12.255 145.986 12.975 146.406 13.475C146.836 13.965 147.396 14.21 148.086 14.21C148.766 14.21 149.316 13.96 149.736 13.46C150.166 12.96 150.381 12.245 150.381 11.315ZM168.615 5.465H169.755V18.485H168.615V5.465ZM159.36 6.5H165.615V14.855H159.36V6.5ZM164.49 13.91V7.445H160.47V13.91H164.49ZM184.179 5.465V18.485H183.039V5.465H184.179ZM177.909 10.97C178.049 10.97 178.164 11.025 178.254 11.135L181.194 14.585L180.339 15.32L177.369 11.75C177.319 11.69 177.259 11.66 177.189 11.66C177.129 11.66 177.074 11.69 177.024 11.75C176.754 12.3 176.399 12.86 175.959 13.43C175.519 14 174.919 14.7 174.159 15.53L173.304 14.81C174.174 13.9 174.844 13.11 175.314 12.44C175.794 11.77 176.139 11.105 176.349 10.445C176.559 9.775 176.664 9.015 176.664 8.165V7.595H173.709V6.635H180.744V7.595H177.804V8.21C177.804 9.34 177.629 10.345 177.279 11.225L177.354 11.27L177.579 11.09C177.689 11.01 177.799 10.97 177.909 10.97ZM200.073 11.78H198.033V18.485H196.908V5.465H198.033V10.82H200.073V11.78ZM195.828 14.45L195.933 15.365C194.843 15.545 193.533 15.685 192.003 15.785C190.483 15.875 188.913 15.92 187.293 15.92L187.188 14.945C188.598 14.945 189.798 14.92 190.788 14.87V12.29C189.898 12.19 189.173 11.865 188.613 11.315C188.053 10.765 187.773 10.065 187.773 9.215C187.773 8.605 187.928 8.07 188.238 7.61C188.548 7.14 188.973 6.78 189.513 6.53C190.053 6.27 190.663 6.14 191.343 6.14C192.023 6.14 192.633 6.27 193.173 6.53C193.713 6.78 194.133 7.14 194.433 7.61C194.743 8.07 194.898 8.605 194.898 9.215C194.898 10.065 194.618 10.765 194.058 11.315C193.508 11.865 192.783 12.19 191.883 12.29V14.825C193.343 14.755 194.658 14.63 195.828 14.45ZM191.343 11.39C192.043 11.39 192.613 11.21 193.053 10.85C193.493 10.48 193.713 9.995 193.713 9.395V9.05C193.713 8.45 193.493 7.97 193.053 7.61C192.613 7.24 192.043 7.055 191.343 7.055C190.643 7.055 190.073 7.24 189.633 7.61C189.193 7.97 188.973 8.45 188.973 9.05V9.395C188.973 9.995 189.193 10.48 189.633 10.85C190.073 11.21 190.643 11.39 191.343 11.39ZM219.092 11.555H216.932V18.515H215.792V5.495H216.932V10.595H219.092V11.555ZM214.307 13.91L214.457 14.825C212.937 15.125 211.007 15.275 208.667 15.275H207.077V6.455H213.107V7.4H208.202V10.295H212.912V11.225H208.202V14.345H208.697C210.887 14.345 212.757 14.2 214.307 13.91ZM230.906 5.465H232.046V18.485H230.906V5.465ZM221.276 10.73C221.276 9.27 221.596 8.165 222.236 7.415C222.886 6.665 223.741 6.29 224.801 6.29C225.851 6.29 226.696 6.665 227.336 7.415C227.986 8.165 228.311 9.27 228.311 10.73C228.311 11.71 228.161 12.535 227.861 13.205C227.561 13.865 227.146 14.36 226.616 14.69C226.086 15.01 225.481 15.17 224.801 15.17C223.741 15.17 222.886 14.795 222.236 14.045C221.596 13.295 221.276 12.19 221.276 10.73ZM227.096 11.315V10.145C227.096 9.215 226.881 8.5 226.451 8C226.031 7.5 225.481 7.25 224.801 7.25C224.111 7.25 223.551 7.5 223.121 8C222.701 8.49 222.491 9.205 222.491 10.145V11.315C222.491 12.255 222.701 12.975 223.121 13.475C223.551 13.965 224.111 14.21 224.801 14.21C225.481 14.21 226.031 13.96 226.451 13.46C226.881 12.96 227.096 12.245 227.096 11.315ZM245.645 5.675V6.515H238.28V7.805H245.435V8.615H238.295V9.92H245.9V10.76H237.185V5.675H245.645ZM247.55 11.885V12.77H235.31V11.885H247.55ZM237.185 18.38V16.115H244.655V14.855H237.095V13.97H245.72V16.955H238.25V18.245H246.11V19.145H237.935C237.695 19.145 237.51 19.08 237.38 18.95C237.25 18.82 237.185 18.63 237.185 18.38ZM251.204 15.245C251.524 15.245 251.754 15.33 251.894 15.5C252.044 15.66 252.119 15.87 252.119 16.13V16.34C252.119 16.75 251.999 17.2 251.759 17.69C251.519 18.19 251.184 18.625 250.754 18.995H249.749C250.049 18.675 250.289 18.37 250.469 18.08C250.659 17.8 250.794 17.485 250.874 17.135C250.674 17.085 250.524 16.99 250.424 16.85C250.334 16.71 250.289 16.54 250.289 16.34V16.13C250.289 15.87 250.359 15.66 250.499 15.5C250.649 15.33 250.884 15.245 251.204 15.245ZM270.641 5.465V18.485H269.516V11.6H266.606V10.64H269.516V5.465H270.641ZM260.351 6.53H266.126V8.615C266.126 9.725 265.961 10.665 265.631 11.435C265.301 12.205 264.746 12.925 263.966 13.595C263.196 14.255 262.091 14.98 260.651 15.77L259.976 14.915C261.316 14.195 262.341 13.54 263.051 12.95C263.761 12.36 264.256 11.735 264.536 11.075C264.826 10.405 264.971 9.59 264.971 8.63V7.505H260.351V6.53ZM284.315 10.955H275.705V5.69H276.83V7.4H283.205V5.69H284.315V10.955ZM283.205 8.33H276.83V10.04H283.205V8.33ZM280.58 13.205V14.645H284.315V19.085H283.175V15.575H275.585V14.645H279.44V13.205H273.89V12.23H286.13V13.205H280.58ZM305.539 11.555H303.379V18.515H302.239V5.495H303.379V10.595H305.539V11.555ZM299.944 10.73C299.944 12.19 299.624 13.295 298.984 14.045C298.354 14.795 297.514 15.17 296.464 15.17C295.414 15.17 294.569 14.795 293.929 14.045C293.299 13.295 292.984 12.19 292.984 10.73C292.984 9.27 293.299 8.165 293.929 7.415C294.569 6.665 295.414 6.29 296.464 6.29C297.514 6.29 298.354 6.665 298.984 7.415C299.624 8.165 299.944 9.27 299.944 10.73ZM298.729 10.13C298.729 9.2 298.519 8.49 298.099 8C297.689 7.5 297.144 7.25 296.464 7.25C295.784 7.25 295.234 7.5 294.814 8C294.394 8.49 294.184 9.2 294.184 10.13V11.33C294.184 12.26 294.394 12.975 294.814 13.475C295.234 13.965 295.784 14.21 296.464 14.21C297.144 14.21 297.689 13.965 298.099 13.475C298.519 12.975 298.729 12.26 298.729 11.33V10.13ZM317.353 5.465H318.493V18.485H317.353V5.465ZM307.723 10.73C307.723 9.27 308.043 8.165 308.683 7.415C309.333 6.665 310.188 6.29 311.248 6.29C312.298 6.29 313.143 6.665 313.783 7.415C314.433 8.165 314.758 9.27 314.758 10.73C314.758 11.71 314.608 12.535 314.308 13.205C314.008 13.865 313.593 14.36 313.063 14.69C312.533 15.01 311.928 15.17 311.248 15.17C310.188 15.17 309.333 14.795 308.683 14.045C308.043 13.295 307.723 12.19 307.723 10.73ZM313.543 11.315V10.145C313.543 9.215 313.328 8.5 312.898 8C312.478 7.5 311.928 7.25 311.248 7.25C310.558 7.25 309.998 7.5 309.568 8C309.148 8.49 308.938 9.205 308.938 10.145V11.315C308.938 12.255 309.148 12.975 309.568 13.475C309.998 13.965 310.558 14.21 311.248 14.21C311.928 14.21 312.478 13.96 312.898 13.46C313.328 12.96 313.543 12.245 313.543 11.315ZM331.117 8.525C331.147 7.995 331.162 7.45 331.162 6.89H323.422V5.945H332.272V6.95C332.272 8.55 332.102 10.1 331.762 11.6L330.682 11.45C330.832 10.83 330.947 10.15 331.027 9.41L323.092 9.725L322.972 8.78L331.117 8.525ZM333.997 12.59V13.565H321.757V12.59H326.767V10.595H327.907V12.59H333.997ZM324.652 17.855H332.422V18.8H324.262C324.022 18.8 323.837 18.735 323.707 18.605C323.577 18.475 323.512 18.285 323.512 18.035V14.84H324.652V17.855ZM337.576 9.545C337.576 8.875 337.746 8.275 338.086 7.745C338.436 7.205 338.966 6.775 339.676 6.455C340.386 6.135 341.261 5.975 342.301 5.975C343.341 5.975 344.216 6.135 344.926 6.455C345.636 6.775 346.161 7.205 346.501 7.745C346.851 8.275 347.026 8.875 347.026 9.545C347.026 10.215 346.851 10.82 346.501 11.36C346.161 11.9 345.636 12.33 344.926 12.65C344.216 12.97 343.341 13.13 342.301 13.13C341.261 13.13 340.386 12.97 339.676 12.65C338.966 12.33 338.436 11.9 338.086 11.36C337.746 10.82 337.576 10.215 337.576 9.545ZM345.796 9.725V9.38C345.796 8.92 345.671 8.505 345.421 8.135C345.181 7.755 344.796 7.455 344.266 7.235C343.746 7.005 343.091 6.89 342.301 6.89C341.511 6.89 340.851 7.005 340.321 7.235C339.801 7.455 339.416 7.755 339.166 8.135C338.926 8.505 338.806 8.92 338.806 9.38V9.725C338.806 10.435 339.096 11.025 339.676 11.495C340.256 11.965 341.131 12.2 342.301 12.2C343.471 12.2 344.346 11.965 344.926 11.495C345.506 11.025 345.796 10.435 345.796 9.725ZM336.181 16.025H348.421V17H336.181V16.025ZM362.845 16.04V17H350.605V16.04H356.155V13.475H352.405V9.41H359.905V7.205H352.33V6.26H361.045V10.325H353.545V12.53H361.435V13.475H357.295V16.04H362.845ZM379.644 5.465H380.784V18.485H379.644V5.465ZM370.014 10.73C370.014 9.27 370.334 8.165 370.974 7.415C371.624 6.665 372.479 6.29 373.539 6.29C374.589 6.29 375.434 6.665 376.074 7.415C376.724 8.165 377.049 9.27 377.049 10.73C377.049 11.71 376.899 12.535 376.599 13.205C376.299 13.865 375.884 14.36 375.354 14.69C374.824 15.01 374.219 15.17 373.539 15.17C372.479 15.17 371.624 14.795 370.974 14.045C370.334 13.295 370.014 12.19 370.014 10.73ZM375.834 11.315V10.145C375.834 9.215 375.619 8.5 375.189 8C374.769 7.5 374.219 7.25 373.539 7.25C372.849 7.25 372.289 7.5 371.859 8C371.439 8.49 371.229 9.205 371.229 10.145V11.315C371.229 12.255 371.439 12.975 371.859 13.475C372.289 13.965 372.849 14.21 373.539 14.21C374.219 14.21 374.769 13.96 375.189 13.46C375.619 12.96 375.834 12.245 375.834 11.315ZM393.243 6.8H385.878V5.855H394.368V9.425H387.093V11.15H394.743V12.095H385.953V8.525H393.243V6.8ZM396.288 14.54H390.738V19.01H389.598V14.54H384.048V13.58H396.288V14.54ZM409.647 5.465V18.485H408.522V11.105H405.732C405.682 12.445 405.342 13.46 404.712 14.15C404.082 14.83 403.272 15.17 402.282 15.17C401.242 15.17 400.402 14.795 399.762 14.045C399.132 13.295 398.817 12.19 398.817 10.73C398.817 9.26 399.132 8.155 399.762 7.415C400.392 6.665 401.232 6.29 402.282 6.29C403.252 6.29 404.047 6.615 404.667 7.265C405.287 7.915 405.642 8.875 405.732 10.145H408.522V5.465H409.647ZM404.547 10.13C404.547 9.2 404.337 8.49 403.917 8C403.507 7.5 402.962 7.25 402.282 7.25C401.602 7.25 401.057 7.5 400.647 8C400.237 8.49 400.032 9.2 400.032 10.13V11.33C400.032 12.26 400.237 12.975 400.647 13.475C401.057 13.965 401.602 14.21 402.282 14.21C402.962 14.21 403.507 13.965 403.917 13.475C404.337 12.975 404.547 12.26 404.547 11.33V10.13ZM424.131 15.35H422.976V5.465H424.131V15.35ZM417.096 10.415C417.026 10.415 416.961 10.445 416.901 10.505C416.631 10.925 416.286 11.355 415.866 11.795C415.446 12.235 414.871 12.78 414.141 13.43L413.301 12.695C414.151 11.975 414.806 11.355 415.266 10.835C415.736 10.305 416.076 9.785 416.286 9.275C416.496 8.765 416.601 8.185 416.601 7.535V7.385H413.721V6.44H420.636V7.385H417.741V7.595C417.741 8.495 417.566 9.29 417.216 9.98L417.291 10.025L417.531 9.845C417.641 9.765 417.751 9.725 417.861 9.725C417.991 9.725 418.106 9.77 418.206 9.86L421.071 12.425L420.216 13.16L417.321 10.505C417.251 10.445 417.176 10.415 417.096 10.415ZM424.401 17.825V18.77H416.541C416.301 18.77 416.116 18.705 415.986 18.575C415.856 18.445 415.791 18.255 415.791 18.005V14.45H416.946V17.825H424.401ZM443.15 5.465V12.98H441.995V5.465H443.15ZM435.98 9.725C435.91 9.725 435.845 9.76 435.785 9.83C435.525 10.26 435.185 10.7 434.765 11.15C434.345 11.59 433.76 12.155 433.01 12.845L432.155 12.11C433.015 11.35 433.675 10.7 434.135 10.16C434.595 9.62 434.925 9.085 435.125 8.555C435.335 8.025 435.44 7.425 435.44 6.755V5.945H436.595V6.83C436.595 7.76 436.42 8.59 436.07 9.32L436.145 9.365L436.385 9.155C436.495 9.065 436.605 9.02 436.715 9.02C436.825 9.02 436.93 9.065 437.03 9.155L439.91 11.78L439.085 12.575L436.175 9.815C436.115 9.755 436.05 9.725 435.98 9.725ZM434.9 13.79H443.15V19.025H435.65C435.41 19.025 435.225 18.96 435.095 18.83C434.965 18.7 434.9 18.51 434.9 18.26V13.79ZM436.04 18.065H441.995V14.735H436.04V18.065ZM457.154 6.635H447.764V5.75H457.154V6.635ZM457.289 10.19H447.629V9.32H449.834L449.444 7.325L450.584 7.205L450.899 9.32H454.004L454.319 7.205L455.459 7.325L455.069 9.32H457.289V10.19ZM458.579 11.45V12.395H446.339V11.45H458.579ZM449.324 18.17H457.124V19.1H448.994C448.754 19.1 448.569 19.035 448.439 18.905C448.309 18.775 448.244 18.585 448.244 18.335V15.905H455.639V14.525H448.154V13.61H456.734V16.775H449.324V18.17ZM473.408 9.92V10.88H471.323V15.5H470.183V5.465H471.323V9.92H473.408ZM466.748 6.83H462.743V5.87H466.748V6.83ZM464.648 13.94C464.028 13.94 463.483 13.835 463.013 13.625C462.543 13.415 462.178 13.125 461.918 12.755C461.668 12.385 461.543 11.965 461.543 11.495C461.543 11.025 461.653 10.615 461.873 10.265C462.103 9.905 462.443 9.63 462.893 9.44V9.365H460.553V8.42H468.683V9.365H466.403V9.44C466.853 9.63 467.188 9.905 467.408 10.265C467.638 10.615 467.753 11.025 467.753 11.495C467.753 11.965 467.623 12.385 467.363 12.755C467.113 13.125 466.753 13.415 466.283 13.625C465.813 13.835 465.268 13.94 464.648 13.94ZM464.528 12.98H464.783C465.343 12.98 465.798 12.83 466.148 12.53C466.508 12.22 466.688 11.79 466.688 11.24C466.688 10.69 466.513 10.26 466.163 9.95C465.813 9.64 465.353 9.485 464.783 9.485H464.528C463.958 9.485 463.498 9.64 463.148 9.95C462.798 10.25 462.623 10.68 462.623 11.24C462.623 11.79 462.798 12.22 463.148 12.53C463.508 12.83 463.968 12.98 464.528 12.98ZM464.288 17.9H471.623V18.845H463.898C463.658 18.845 463.473 18.78 463.343 18.65C463.213 18.52 463.148 18.33 463.148 18.08V15.08H464.288V17.9ZM492.022 13.07H486.457V18.965H485.317V13.07H479.782V12.11H488.557C488.917 10.54 489.102 8.865 489.112 7.085V7.01H481.402V6.05H490.222V7.01C490.222 8.74 490.052 10.44 489.712 12.11H492.022V13.07ZM499.771 7.31H495.586V6.35H505.081V7.31H500.926C500.926 7.8 500.871 8.24 500.761 8.63C500.651 9.02 500.466 9.39 500.206 9.74L500.251 9.755L500.536 9.545C500.656 9.435 500.796 9.38 500.956 9.38C501.056 9.38 501.166 9.41 501.286 9.47L505.681 11.945L505.051 12.83L500.536 10.19C500.376 10.11 500.236 10.07 500.116 10.07C500.016 10.07 499.926 10.095 499.846 10.145C499.456 10.565 498.921 10.995 498.241 11.435C497.561 11.875 496.676 12.355 495.586 12.875L494.971 12.035C496.221 11.445 497.186 10.91 497.866 10.43C498.556 9.94 499.041 9.455 499.321 8.975C499.611 8.485 499.761 7.93 499.771 7.31ZM506.446 16.04V17H494.206V16.04H499.756V12.8H500.896V16.04H506.446ZM518.68 5.465H519.805V18.485H518.68V5.465ZM509.32 9.365C509.32 8.745 509.475 8.2 509.785 7.73C510.095 7.25 510.52 6.885 511.06 6.635C511.6 6.375 512.21 6.245 512.89 6.245C513.57 6.245 514.18 6.375 514.72 6.635C515.26 6.885 515.685 7.25 515.995 7.73C516.305 8.2 516.46 8.745 516.46 9.365C516.46 9.985 516.305 10.53 515.995 11C515.685 11.47 515.26 11.835 514.72 12.095C514.18 12.345 513.57 12.47 512.89 12.47C512.21 12.47 511.6 12.345 511.06 12.095C510.52 11.835 510.095 11.47 509.785 11C509.475 10.53 509.32 9.985 509.32 9.365ZM515.26 9.545V9.185C515.26 8.585 515.04 8.1 514.6 7.73C514.16 7.36 513.59 7.175 512.89 7.175C512.19 7.175 511.62 7.36 511.18 7.73C510.74 8.1 510.52 8.585 510.52 9.185V9.545C510.52 10.145 510.74 10.63 511.18 11C511.62 11.37 512.19 11.555 512.89 11.555C513.59 11.555 514.16 11.37 514.6 11C515.04 10.63 515.26 10.145 515.26 9.545ZM508.69 14.78C510.39 14.78 512.03 14.74 513.61 14.66C515.19 14.58 516.53 14.455 517.63 14.285L517.75 15.2C516.62 15.38 515.26 15.52 513.67 15.62C512.09 15.71 510.465 15.755 508.795 15.755L508.69 14.78ZM538.809 5.465V18.485H537.669V5.465H538.809ZM535.794 13.685L535.944 14.6C534.394 14.91 532.464 15.065 530.154 15.065H528.549V6.53H534.594V7.49H529.704V14.105H530.124C532.414 14.105 534.304 13.965 535.794 13.685ZM554.703 11.555H552.543V18.515H551.403V5.495H552.543V10.595H554.703V11.555ZM546.573 10.97C546.693 10.97 546.808 11.025 546.918 11.135L549.843 14.6L548.988 15.335L546.048 11.75C545.988 11.69 545.923 11.66 545.853 11.66C545.783 11.66 545.733 11.69 545.703 11.75C545.433 12.29 545.078 12.845 544.638 13.415C544.208 13.975 543.618 14.68 542.868 15.53L542.028 14.825C542.898 13.905 543.563 13.11 544.023 12.44C544.493 11.77 544.833 11.105 545.043 10.445C545.253 9.775 545.358 9.015 545.358 8.165V7.595H542.418V6.635H549.408V7.595H546.483V8.195C546.483 9.315 546.303 10.32 545.943 11.21L546.018 11.27L546.258 11.09C546.358 11.01 546.463 10.97 546.573 10.97ZM567.732 5.465V15.35H566.577V5.465H567.732ZM556.932 9.515C556.932 8.815 557.077 8.205 557.367 7.685C557.667 7.165 558.077 6.77 558.597 6.5C559.117 6.22 559.712 6.08 560.382 6.08C561.042 6.08 561.632 6.22 562.152 6.5C562.682 6.77 563.092 7.165 563.382 7.685C563.682 8.205 563.832 8.815 563.832 9.515C563.832 10.205 563.682 10.81 563.382 11.33C563.092 11.85 562.682 12.25 562.152 12.53C561.632 12.8 561.042 12.935 560.382 12.935C559.712 12.935 559.117 12.8 558.597 12.53C558.077 12.25 557.667 11.855 557.367 11.345C557.077 10.825 556.932 10.215 556.932 9.515ZM562.617 9.83V9.2C562.617 8.54 562.407 8.015 561.987 7.625C561.577 7.225 561.042 7.025 560.382 7.025C559.712 7.025 559.167 7.225 558.747 7.625C558.337 8.025 558.132 8.55 558.132 9.2V9.83C558.132 10.48 558.342 11.005 558.762 11.405C559.182 11.795 559.722 11.99 560.382 11.99C561.042 11.99 561.577 11.795 561.987 11.405C562.407 11.005 562.617 10.48 562.617 9.83ZM559.392 18.005V14.27H560.547V17.825H568.002V18.77H560.142C559.902 18.77 559.717 18.705 559.587 18.575C559.457 18.445 559.392 18.255 559.392 18.005Z" fill="#1B1C25"/>
<path d="M2.16 41.675C2.16 41.095 2.325 40.575 2.655 40.115C2.985 39.655 3.49 39.29 4.17 39.02C4.85 38.75 5.69 38.615 6.69 38.615C7.69 38.615 8.53 38.75 9.21 39.02C9.89 39.29 10.395 39.655 10.725 40.115C11.055 40.575 11.22 41.095 11.22 41.675C11.22 42.255 11.055 42.78 10.725 43.25C10.395 43.71 9.89 44.075 9.21 44.345C8.53 44.615 7.69 44.75 6.69 44.75C5.69 44.75 4.85 44.615 4.17 44.345C3.49 44.075 2.985 43.71 2.655 43.25C2.325 42.78 2.16 42.255 2.16 41.675ZM3.39 41.825C3.39 42.395 3.665 42.87 4.215 43.25C4.765 43.63 5.59 43.82 6.69 43.82C7.79 43.82 8.615 43.63 9.165 43.25C9.715 42.87 9.99 42.395 9.99 41.825V41.525C9.99 40.955 9.715 40.48 9.165 40.1C8.615 39.71 7.79 39.515 6.69 39.515C5.6 39.515 4.775 39.71 4.215 40.1C3.665 40.48 3.39 40.955 3.39 41.525V41.825ZM12.81 47.12H7.26V52.01H6.12V47.12H0.57V46.16H12.81V47.12ZM23.394 39.545H18.849V38.615H23.394V39.545ZM20.574 41.69H16.419V40.775H25.809V41.69H21.684C21.654 42.21 21.444 42.65 21.054 43.01L21.144 43.04L21.489 42.815C21.629 42.715 21.779 42.665 21.939 42.665C21.989 42.665 22.094 42.685 22.254 42.725L26.319 44.255L25.719 45.08L21.414 43.355C21.284 43.305 21.154 43.28 21.024 43.28C20.894 43.28 20.759 43.31 20.619 43.37C20.239 43.63 19.719 43.9 19.059 44.18C18.399 44.45 17.539 44.76 16.479 45.11L15.894 44.315C17.044 43.965 17.944 43.655 18.594 43.385C19.244 43.105 19.719 42.835 20.019 42.575C20.329 42.305 20.514 42.01 20.574 41.69ZM27.234 45.875V46.835H14.994V45.875H27.234ZM16.689 48.11H25.419V52.1H24.294V49.04H16.689V48.11ZM45.578 38.465V51.485H44.468V38.465H45.578ZM41.543 38.69H42.638V51.125H41.543V44.12H39.743V47.825H34.478V39.77H39.743V43.175H41.543V38.69ZM38.663 40.7H35.573V46.895H38.663V40.7ZM58.967 44.075H50.282V38.9H51.437V43.115H58.967V44.075ZM60.677 46.955H57.512V51.935H56.387V46.955H52.727V51.935H51.602V46.955H48.437V45.995H60.677V46.955ZM75.491 44.555H73.331V51.515H72.191V38.495H73.331V43.595H75.491V44.555ZM68.336 39.38H69.431V47.975H63.311V39.395H64.421V42.68H68.336V39.38ZM68.336 43.64H64.421V47.015H68.336V43.64ZM88.85 38.465V51.485H87.755V38.465H88.85ZM84.8 38.69H85.865V51.125H84.8V44.3H83.36C83.31 45.6 83.02 46.58 82.49 47.24C81.96 47.89 81.26 48.215 80.39 48.215C79.46 48.215 78.725 47.855 78.185 47.135C77.645 46.405 77.375 45.32 77.375 43.88C77.375 42.44 77.645 41.36 78.185 40.64C78.725 39.91 79.46 39.545 80.39 39.545C81.25 39.545 81.94 39.865 82.46 40.505C82.99 41.145 83.29 42.095 83.36 43.355H84.8V38.69ZM82.22 43.16C82.22 42.28 82.05 41.61 81.71 41.15C81.38 40.69 80.94 40.46 80.39 40.46C79.83 40.46 79.38 40.69 79.04 41.15C78.71 41.61 78.545 42.28 78.545 43.16V44.615C78.545 45.485 78.71 46.155 79.04 46.625C79.38 47.085 79.83 47.315 80.39 47.315C80.94 47.315 81.38 47.085 81.71 46.625C82.05 46.155 82.22 45.485 82.22 44.615V43.16ZM108.934 44.555H106.774V51.515H105.634V38.495H106.774V43.595H108.934V44.555ZM96.754 39.5H102.934V47.855H96.754V39.5ZM97.864 46.91H101.824V40.445H97.864V46.91ZM112.318 41.675C112.318 41.095 112.483 40.575 112.813 40.115C113.143 39.655 113.648 39.29 114.328 39.02C115.008 38.75 115.848 38.615 116.848 38.615C117.848 38.615 118.688 38.75 119.368 39.02C120.048 39.29 120.553 39.655 120.883 40.115C121.213 40.575 121.378 41.095 121.378 41.675C121.378 42.255 121.213 42.78 120.883 43.25C120.553 43.71 120.048 44.075 119.368 44.345C118.688 44.615 117.848 44.75 116.848 44.75C115.848 44.75 115.008 44.615 114.328 44.345C113.648 44.075 113.143 43.71 112.813 43.25C112.483 42.78 112.318 42.255 112.318 41.675ZM113.548 41.825C113.548 42.395 113.823 42.87 114.373 43.25C114.923 43.63 115.748 43.82 116.848 43.82C117.948 43.82 118.773 43.63 119.323 43.25C119.873 42.87 120.148 42.395 120.148 41.825V41.525C120.148 40.955 119.873 40.48 119.323 40.1C118.773 39.71 117.948 39.515 116.848 39.515C115.758 39.515 114.933 39.71 114.373 40.1C113.823 40.48 113.548 40.955 113.548 41.525V41.825ZM122.968 47.12H117.418V52.01H116.278V47.12H110.728V46.16H122.968V47.12ZM126.412 45.965L125.767 45.08C127.127 44.38 128.167 43.76 128.887 43.22C129.617 42.67 130.122 42.125 130.402 41.585C130.682 41.035 130.822 40.405 130.822 39.695V39.185H131.992V39.725C131.992 40.305 131.927 40.825 131.797 41.285C131.677 41.735 131.472 42.16 131.182 42.56L131.257 42.605L131.632 42.32C131.762 42.22 131.892 42.17 132.022 42.17C132.152 42.17 132.282 42.215 132.412 42.305L136.777 45.02L136.117 45.92L131.602 43.01C131.472 42.92 131.332 42.875 131.182 42.875C131.052 42.875 130.922 42.925 130.792 43.025C130.382 43.465 129.827 43.92 129.127 44.39C128.427 44.85 127.522 45.375 126.412 45.965ZM137.392 49.025V50H125.152V49.025H137.392ZM148.741 40.805V39.515H141.421V38.675H149.836V41.63H142.606V42.905H150.211V43.76H141.496V40.805H148.741ZM151.816 44.885V45.77H139.576V44.885H151.816ZM141.451 51.38V49.115H148.921V47.855H141.361V46.97H149.986V49.955H142.516V51.245H150.376V52.145H142.201C141.961 52.145 141.776 52.08 141.646 51.95C141.516 51.82 141.451 51.63 141.451 51.38ZM170.835 44.405V45.335H158.595V44.405H164.16V43.25C162.85 43.19 161.865 42.945 161.205 42.515C160.545 42.085 160.215 41.53 160.215 40.85C160.215 40.13 160.59 39.55 161.34 39.11C162.1 38.67 163.225 38.45 164.715 38.45C166.205 38.45 167.325 38.67 168.075 39.11C168.835 39.55 169.215 40.13 169.215 40.85C169.215 41.53 168.885 42.085 168.225 42.515C167.575 42.945 166.595 43.19 165.285 43.25V44.405H170.835ZM164.715 42.395C165.815 42.395 166.635 42.26 167.175 41.99C167.725 41.72 168 41.37 168 40.94V40.76C168 40.33 167.725 39.98 167.175 39.71C166.635 39.44 165.815 39.305 164.715 39.305C163.615 39.305 162.79 39.44 162.24 39.71C161.7 39.98 161.43 40.33 161.43 40.76V40.94C161.43 41.37 161.7 41.72 162.24 41.99C162.79 42.26 163.615 42.395 164.715 42.395ZM161.595 51.2H169.38V52.145H161.25C161.01 52.145 160.825 52.08 160.695 51.95C160.565 51.82 160.5 51.63 160.5 51.38V48.905H167.895V47.495H160.41V46.565H168.99V49.79H161.595V51.2ZM184.179 38.465V51.485H183.039V38.465H184.179ZM181.329 46.925L181.479 47.84C179.929 48.14 177.959 48.29 175.569 48.29H173.949V43.265H178.674V40.415H173.889V39.455H179.814V44.21H175.074V47.36H175.554C177.824 47.36 179.749 47.215 181.329 46.925ZM197.538 44.45H194.778V43.52H197.538V41.48H194.778V40.55H197.538V38.465H198.678V48.35H197.538V44.45ZM194.268 45.695H188.133V39.305H194.268V45.695ZM193.143 40.25H189.258V44.75H193.143V40.25ZM198.948 50.825V51.77H191.088C190.848 51.77 190.663 51.705 190.533 51.575C190.403 51.445 190.338 51.255 190.338 51.005V47.27H191.493V50.825H198.948ZM218.027 38.465V51.485H216.917V38.465H218.027ZM213.992 38.69H215.087V51.125H213.992V44.12H212.192V47.825H206.927V39.77H212.192V43.175H213.992V38.69ZM211.112 40.7H208.022V46.895H211.112V40.7ZM231.416 44.075H222.731V38.9H223.886V43.115H231.416V44.075ZM233.126 46.955H229.961V51.935H228.836V46.955H225.176V51.935H224.051V46.955H220.886V45.995H233.126V46.955ZM247.94 44.555H245.78V51.515H244.64V38.495H245.78V43.595H247.94V44.555ZM235.955 39.53H241.79V41.615C241.79 42.725 241.625 43.665 241.295 44.435C240.965 45.205 240.405 45.925 239.615 46.595C238.835 47.255 237.715 47.98 236.255 48.77L235.58 47.915C236.94 47.195 237.98 46.54 238.7 45.95C239.42 45.36 239.925 44.735 240.215 44.075C240.505 43.415 240.65 42.6 240.65 41.63V40.505H235.955V39.53ZM255.694 43.385L255.094 42.56C256.394 42.09 257.394 41.67 258.094 41.3C258.794 40.92 259.284 40.545 259.564 40.175C259.844 39.795 259.984 39.36 259.984 38.87V38.555H261.109V38.915C261.109 39.325 261.049 39.695 260.929 40.025C260.809 40.355 260.619 40.66 260.359 40.94L260.464 40.97L260.839 40.715C260.989 40.595 261.139 40.535 261.289 40.535C261.399 40.535 261.504 40.565 261.604 40.625L265.804 42.515L265.189 43.355L260.794 41.3C260.634 41.23 260.499 41.195 260.389 41.195C260.259 41.195 260.114 41.235 259.954 41.315C259.544 41.645 258.999 41.975 258.319 42.305C257.649 42.625 256.774 42.985 255.694 43.385ZM266.569 44.375V45.32H254.329V44.375H266.569ZM257.314 51.17H265.114V52.1H256.984C256.744 52.1 256.559 52.035 256.429 51.905C256.299 51.775 256.234 51.585 256.234 51.335V48.89H263.629V47.495H256.144V46.565H264.724V49.76H257.314V51.17ZM281.383 44.555H279.223V51.515H278.083V38.495H279.223V43.595H281.383V44.555ZM276.598 46.925L276.748 47.84C275.228 48.14 273.298 48.29 270.958 48.29H269.368V43.265H274.033V40.415H269.308V39.455H275.158V44.21H270.493V47.36H270.988C273.178 47.36 275.048 47.215 276.598 46.925ZM293.197 38.465H294.337V51.485H293.197V38.465ZM283.567 43.73C283.567 42.27 283.887 41.165 284.527 40.415C285.177 39.665 286.032 39.29 287.092 39.29C288.142 39.29 288.987 39.665 289.627 40.415C290.277 41.165 290.602 42.27 290.602 43.73C290.602 44.71 290.452 45.535 290.152 46.205C289.852 46.865 289.437 47.36 288.907 47.69C288.377 48.01 287.772 48.17 287.092 48.17C286.032 48.17 285.177 47.795 284.527 47.045C283.887 46.295 283.567 45.19 283.567 43.73ZM289.387 44.315V43.145C289.387 42.215 289.172 41.5 288.742 41C288.322 40.5 287.772 40.25 287.092 40.25C286.402 40.25 285.842 40.5 285.412 41C284.992 41.49 284.782 42.205 284.782 43.145V44.315C284.782 45.255 284.992 45.975 285.412 46.475C285.842 46.965 286.402 47.21 287.092 47.21C287.772 47.21 288.322 46.96 288.742 46.46C289.172 45.96 289.387 45.245 289.387 44.315ZM308.251 45.65H299.371V39.365H308.116V40.34H300.511V44.675H308.251V45.65ZM309.841 49.025V50H297.601V49.025H309.841ZM324.265 49.04V50H312.025V49.04H317.575V46.475H313.825V42.41H321.325V40.205H313.75V39.26H322.465V43.325H314.965V45.53H322.855V46.475H318.715V49.04H324.265ZM339.534 39.29H334.794V38.42H339.534V39.29ZM334.524 41.375H331.869V40.535H342.459V41.375H339.804V41.465C340.624 41.705 341.034 42.13 341.034 42.74C341.034 43.23 340.719 43.635 340.089 43.955C339.459 44.265 338.484 44.42 337.164 44.42C335.844 44.42 334.869 44.265 334.239 43.955C333.609 43.635 333.294 43.23 333.294 42.74C333.294 42.13 333.704 41.705 334.524 41.465V41.375ZM339.939 42.47C339.939 42.14 339.739 41.88 339.339 41.69C338.949 41.49 338.349 41.39 337.539 41.39H336.789C335.979 41.39 335.374 41.49 334.974 41.69C334.584 41.88 334.389 42.14 334.389 42.47C334.389 42.8 334.584 43.06 334.974 43.25C335.374 43.44 335.979 43.535 336.789 43.535H337.539C338.349 43.535 338.949 43.44 339.339 43.25C339.739 43.06 339.939 42.8 339.939 42.47ZM343.284 45.155V46.025H331.044V45.155H343.284ZM333.969 51.26H341.844V52.145H333.669C333.429 52.145 333.244 52.08 333.114 51.95C332.984 51.82 332.919 51.63 332.919 51.38V49.22H340.419V48.02H332.829V47.15H341.454V50.045H333.969V51.26ZM356.643 38.465V51.485H355.518V44.075H352.863V43.115H355.518V38.465H356.643ZM353.448 46.925L353.583 47.84C352.113 48.14 350.218 48.29 347.898 48.29H346.323V43.28H350.853V40.415H346.278V39.455H351.978V44.21H347.448V47.36H347.943C350.103 47.36 351.938 47.215 353.448 46.925ZM372.522 44.555H370.362V51.515H369.222V38.495H370.362V43.595H372.522V44.555ZM367.632 46.505L367.782 47.435C366.202 47.755 364.282 47.915 362.022 47.915H360.447V39.515H361.572V46.955H362.022C364.182 46.955 366.052 46.805 367.632 46.505ZM386.946 44.78H384.906V51.485H383.781V38.465H384.906V43.82H386.946V44.78ZM382.701 47.45L382.806 48.365C381.716 48.545 380.406 48.685 378.876 48.785C377.356 48.875 375.786 48.92 374.166 48.92L374.061 47.945C375.471 47.945 376.671 47.92 377.661 47.87V45.29C376.771 45.19 376.046 44.865 375.486 44.315C374.926 43.765 374.646 43.065 374.646 42.215C374.646 41.605 374.801 41.07 375.111 40.61C375.421 40.14 375.846 39.78 376.386 39.53C376.926 39.27 377.536 39.14 378.216 39.14C378.896 39.14 379.506 39.27 380.046 39.53C380.586 39.78 381.006 40.14 381.306 40.61C381.616 41.07 381.771 41.605 381.771 42.215C381.771 43.065 381.491 43.765 380.931 44.315C380.381 44.865 379.656 45.19 378.756 45.29V47.825C380.216 47.755 381.531 47.63 382.701 47.45ZM378.216 44.39C378.916 44.39 379.486 44.21 379.926 43.85C380.366 43.48 380.586 42.995 380.586 42.395V42.05C380.586 41.45 380.366 40.97 379.926 40.61C379.486 40.24 378.916 40.055 378.216 40.055C377.516 40.055 376.946 40.24 376.506 40.61C376.066 40.97 375.846 41.45 375.846 42.05V42.395C375.846 42.995 376.066 43.48 376.506 43.85C376.946 44.21 377.516 44.39 378.216 44.39ZM403.43 42.005V38.465H404.57V48.35H403.43V42.965H400.7V42.005H403.43ZM397.43 43.415C397.36 43.415 397.295 43.445 397.235 43.505C396.965 43.925 396.62 44.36 396.2 44.81C395.78 45.25 395.22 45.79 394.52 46.43L393.665 45.695C394.505 44.975 395.155 44.355 395.615 43.835C396.075 43.305 396.405 42.785 396.605 42.275C396.815 41.755 396.92 41.175 396.92 40.535V40.385H394.055V39.44H400.895V40.385H398.06V40.595C398.06 41.485 397.885 42.28 397.535 42.98L397.625 43.025L397.85 42.845C397.96 42.765 398.065 42.725 398.165 42.725C398.285 42.725 398.405 42.775 398.525 42.875L401.33 45.425L400.49 46.16L397.655 43.505C397.595 43.445 397.52 43.415 397.43 43.415ZM404.84 50.825V51.77H396.98C396.74 51.77 396.555 51.705 396.425 51.575C396.295 51.445 396.23 51.255 396.23 51.005V47.45H397.385V50.825H404.84ZM419.324 38.465V51.485H418.244V38.465H419.324ZM415.244 38.69H416.294V51.125H415.244V45.02H413.369V44.09H415.244V38.69ZM412.754 40.265H409.304V39.335H412.754V40.265ZM411.569 45.08C411.689 45.08 411.804 45.135 411.914 45.245L414.329 47.93L413.549 48.605L411.119 45.8C411.069 45.75 411.019 45.725 410.969 45.725C410.909 45.725 410.859 45.755 410.819 45.815C410.589 46.245 410.284 46.7 409.904 47.18C409.534 47.65 409.054 48.195 408.464 48.815L407.699 48.155C408.429 47.395 408.989 46.74 409.379 46.19C409.779 45.63 410.064 45.08 410.234 44.54C410.404 44 410.489 43.385 410.489 42.695H408.014V41.78H413.999V42.695H411.539C411.539 43.635 411.389 44.48 411.089 45.23L411.149 45.275L411.284 45.17C411.374 45.11 411.469 45.08 411.569 45.08ZM438.343 38.465V51.485H437.233V38.465H438.343ZM434.308 38.69H435.403V51.125H434.308V44.12H432.508V47.825H427.243V39.77H432.508V43.175H434.308V38.69ZM431.428 40.7H428.338V46.895H431.428V40.7ZM451.732 44.075H443.047V38.9H444.202V43.115H451.732V44.075ZM453.442 46.955H450.277V51.935H449.152V46.955H445.492V51.935H444.367V46.955H441.202V45.995H453.442V46.955ZM464.791 40.805V39.515H457.471V38.675H465.886V41.63H458.656V42.905H466.261V43.76H457.546V40.805H464.791ZM467.866 44.885V45.77H455.626V44.885H467.866ZM457.501 51.38V49.115H464.971V47.855H457.411V46.97H466.036V49.955H458.566V51.245H466.426V52.145H458.251C458.011 52.145 457.826 52.08 457.696 51.95C457.566 51.82 457.501 51.63 457.501 51.38ZM487.29 42.92V43.88H485.205V48.5H484.065V38.465H485.205V42.92H487.29ZM480.63 39.83H476.625V38.87H480.63V39.83ZM478.53 46.94C477.91 46.94 477.365 46.835 476.895 46.625C476.425 46.415 476.06 46.125 475.8 45.755C475.55 45.385 475.425 44.965 475.425 44.495C475.425 44.025 475.535 43.615 475.755 43.265C475.985 42.905 476.325 42.63 476.775 42.44V42.365H474.435V41.42H482.565V42.365H480.285V42.44C480.735 42.63 481.07 42.905 481.29 43.265C481.52 43.615 481.635 44.025 481.635 44.495C481.635 44.965 481.505 45.385 481.245 45.755C480.995 46.125 480.635 46.415 480.165 46.625C479.695 46.835 479.15 46.94 478.53 46.94ZM478.41 45.98H478.665C479.225 45.98 479.68 45.83 480.03 45.53C480.39 45.22 480.57 44.79 480.57 44.24C480.57 43.69 480.395 43.26 480.045 42.95C479.695 42.64 479.235 42.485 478.665 42.485H478.41C477.84 42.485 477.38 42.64 477.03 42.95C476.68 43.25 476.505 43.68 476.505 44.24C476.505 44.79 476.68 45.22 477.03 45.53C477.39 45.83 477.85 45.98 478.41 45.98ZM478.17 50.9H485.505V51.845H477.78C477.54 51.845 477.355 51.78 477.225 51.65C477.095 51.52 477.03 51.33 477.03 51.08V48.08H478.17V50.9ZM503.759 43.04H500.924V42.08H503.759V38.465H504.899V48.35H503.759V43.04ZM500.474 45.875H494.399V39.245H495.494V41.585H499.364V39.215H500.474V45.875ZM499.364 42.515H495.494V44.945H499.364V42.515ZM505.169 50.825V51.77H497.309C497.069 51.77 496.884 51.705 496.754 51.575C496.624 51.445 496.559 51.255 496.559 51.005V47.45H497.714V50.825H505.169ZM519.653 38.465V51.485H518.558V38.465H519.653ZM515.603 38.69H516.668V51.125H515.603V44.3H514.163C514.113 45.6 513.823 46.58 513.293 47.24C512.763 47.89 512.063 48.215 511.193 48.215C510.263 48.215 509.528 47.855 508.988 47.135C508.448 46.405 508.178 45.32 508.178 43.88C508.178 42.44 508.448 41.36 508.988 40.64C509.528 39.91 510.263 39.545 511.193 39.545C512.053 39.545 512.743 39.865 513.263 40.505C513.793 41.145 514.093 42.095 514.163 43.355H515.603V38.69ZM513.023 43.16C513.023 42.28 512.853 41.61 512.513 41.15C512.183 40.69 511.743 40.46 511.193 40.46C510.633 40.46 510.183 40.69 509.843 41.15C509.513 41.61 509.348 42.28 509.348 43.16V44.615C509.348 45.485 509.513 46.155 509.843 46.625C510.183 47.085 510.633 47.315 511.193 47.315C511.743 47.315 512.183 47.085 512.513 46.625C512.853 46.155 513.023 45.485 513.023 44.615V43.16ZM539.737 43.61H537.757V47.42H536.632V38.465H537.757V42.65H539.737V43.61ZM533.167 39.455H529.222V38.57H533.167V39.455ZM535.642 46.67C534.532 46.85 533.197 46.99 531.637 47.09C530.087 47.18 528.487 47.225 526.837 47.225L526.747 46.295C528.257 46.295 529.532 46.27 530.572 46.22V45.17C529.792 45.1 529.177 44.9 528.727 44.57C528.277 44.23 528.052 43.805 528.052 43.295C528.052 42.555 528.442 42.04 529.222 41.75V41.66H527.152V40.805H534.967V41.66H532.987V41.75C533.767 42.06 534.157 42.575 534.157 43.295C534.157 43.795 533.932 44.215 533.482 44.555C533.032 44.885 532.422 45.085 531.652 45.155V46.175C533.192 46.095 534.487 45.975 535.537 45.815L535.642 46.67ZM530.887 44.3H531.322C531.852 44.3 532.282 44.19 532.612 43.97C532.952 43.74 533.122 43.42 533.122 43.01C533.122 42.6 532.957 42.285 532.627 42.065C532.297 41.835 531.862 41.72 531.322 41.72H530.887C530.347 41.72 529.907 41.835 529.567 42.065C529.237 42.285 529.072 42.6 529.072 43.01C529.072 43.42 529.237 43.74 529.567 43.97C529.907 44.19 530.347 44.3 530.887 44.3ZM529.102 48.215H537.757V52.175H536.647V49.1H529.102V48.215ZM552.766 38.465V48.35H551.611V38.465H552.766ZM541.966 42.515C541.966 41.815 542.111 41.205 542.401 40.685C542.701 40.165 543.111 39.77 543.631 39.5C544.151 39.22 544.746 39.08 545.416 39.08C546.076 39.08 546.666 39.22 547.186 39.5C547.716 39.77 548.126 40.165 548.416 40.685C548.716 41.205 548.866 41.815 548.866 42.515C548.866 43.205 548.716 43.81 548.416 44.33C548.126 44.85 547.716 45.25 547.186 45.53C546.666 45.8 546.076 45.935 545.416 45.935C544.746 45.935 544.151 45.8 543.631 45.53C543.111 45.25 542.701 44.855 542.401 44.345C542.111 43.825 541.966 43.215 541.966 42.515ZM547.651 42.83V42.2C547.651 41.54 547.441 41.015 547.021 40.625C546.611 40.225 546.076 40.025 545.416 40.025C544.746 40.025 544.201 40.225 543.781 40.625C543.371 41.025 543.166 41.55 543.166 42.2V42.83C543.166 43.48 543.376 44.005 543.796 44.405C544.216 44.795 544.756 44.99 545.416 44.99C546.076 44.99 546.611 44.795 547.021 44.405C547.441 44.005 547.651 43.48 547.651 42.83ZM544.426 51.005V47.27H545.581V50.825H553.036V51.77H545.176C544.936 51.77 544.751 51.705 544.621 51.575C544.491 51.445 544.426 51.255 544.426 51.005ZM573.18 44.555H571.02V51.515H569.88V38.495H571.02V43.595H573.18V44.555ZM561.195 39.53H567.03V41.615C567.03 42.725 566.865 43.665 566.535 44.435C566.205 45.205 565.645 45.925 564.855 46.595C564.075 47.255 562.955 47.98 561.495 48.77L560.82 47.915C562.18 47.195 563.22 46.54 563.94 45.95C564.66 45.36 565.165 44.735 565.455 44.075C565.745 43.415 565.89 42.6 565.89 41.63V40.505H561.195V39.53ZM585.474 43.235H576.849V38.825H577.974V42.305H585.474V43.235ZM587.214 44.78V45.77H574.974V44.78H587.214ZM585.534 49.67C585.534 50.46 585.154 51.095 584.394 51.575C583.634 52.055 582.534 52.295 581.094 52.295C579.654 52.295 578.554 52.055 577.794 51.575C577.034 51.095 576.654 50.46 576.654 49.67C576.654 49.17 576.819 48.725 577.149 48.335C577.489 47.945 577.989 47.64 578.649 47.42C579.319 47.2 580.134 47.09 581.094 47.09C582.054 47.09 582.864 47.2 583.524 47.42C584.194 47.64 584.694 47.945 585.024 48.335C585.364 48.725 585.534 49.17 585.534 49.67ZM584.334 49.58C584.334 49.13 584.064 48.755 583.524 48.455C582.994 48.145 582.184 47.99 581.094 47.99C580.014 47.99 579.199 48.145 578.649 48.455C578.109 48.755 577.839 49.13 577.839 49.58V49.79C577.839 50.24 578.109 50.615 578.649 50.915C579.199 51.225 580.014 51.38 581.094 51.38C582.184 51.38 582.994 51.225 583.524 50.915C584.064 50.615 584.334 50.24 584.334 49.79V49.58Z" fill="#1B1C25"/>
</svg>
