<svg width="661" height="79" viewBox="0 0 661 79" fill="none" xmlns="http://www.w3.org/2000/svg">
<path d="M2.35 13.445V12.245L8.65 8.51V9.77L3.475 12.785V12.905L8.65 15.92V17.18L2.35 13.445ZM11.9441 17V15.95H13.4141V7.58H11.9441V6.53H16.1441V7.58H14.6741V15.95H16.1441V17H11.9441ZM30.6449 17L29.5949 13.91H25.3649L24.3149 17H23.0399L26.6999 6.53H28.3049L31.9649 17H30.6449ZM27.5099 7.7H27.4349L25.6649 12.8H29.2799L27.5099 7.7ZM42.9093 8.18H42.8343L41.9493 9.935L39.4443 14.495L36.9393 9.935L36.0543 8.18H35.9793V17H34.7493V6.53H36.4293L39.4293 12.17H39.5043L42.5193 6.53H44.1393V17H42.9093V8.18ZM59.3471 15.47H59.3021C59.1721 15.96 58.8521 16.37 58.3421 16.7C57.8421 17.02 57.1921 17.18 56.3921 17.18C55.7521 17.18 55.1621 17.065 54.6221 16.835C54.0921 16.595 53.6371 16.25 53.2571 15.8C52.8771 15.34 52.5771 14.775 52.3571 14.105C52.1471 13.425 52.0421 12.645 52.0421 11.765C52.0421 10.895 52.1471 10.125 52.3571 9.455C52.5671 8.775 52.8671 8.21 53.2571 7.76C53.6471 7.3 54.1171 6.95 54.6671 6.71C55.2171 6.47 55.8271 6.35 56.4971 6.35C57.4371 6.35 58.2221 6.56 58.8521 6.98C59.4821 7.4 59.9671 7.955 60.3071 8.645L59.2721 9.275C59.0321 8.715 58.6721 8.275 58.1921 7.955C57.7221 7.635 57.1571 7.475 56.4971 7.475C56.0371 7.475 55.6171 7.56 55.2371 7.73C54.8571 7.89 54.5271 8.12 54.2471 8.42C53.9771 8.72 53.7671 9.08 53.6171 9.5C53.4671 9.92 53.3921 10.39 53.3921 10.91V12.605C53.3921 13.125 53.4671 13.6 53.6171 14.03C53.7671 14.45 53.9771 14.81 54.2471 15.11C54.5271 15.41 54.8671 15.645 55.2671 15.815C55.6671 15.975 56.1171 16.055 56.6171 16.055C56.9771 16.055 57.3171 16.01 57.6371 15.92C57.9671 15.82 58.2521 15.675 58.4921 15.485C58.7421 15.295 58.9371 15.06 59.0771 14.78C59.2171 14.49 59.2871 14.15 59.2871 13.76V12.725H56.9771V11.615H60.5171V17H59.3471V15.47ZM65.3068 17H64.0468V6.53H68.2168C69.1368 6.53 69.8518 6.785 70.3618 7.295C70.8818 7.805 71.1418 8.54 71.1418 9.5C71.1418 10.27 70.9618 10.905 70.6018 11.405C70.2518 11.895 69.7318 12.22 69.0418 12.38L71.4418 17H70.0168L67.7518 12.5H65.3068V17ZM68.2168 11.42C68.7168 11.42 69.1018 11.29 69.3718 11.03C69.6518 10.77 69.7918 10.4 69.7918 9.92V9.14C69.7918 8.66 69.6518 8.29 69.3718 8.03C69.1018 7.77 68.7168 7.64 68.2168 7.64H65.3068V11.42H68.2168ZM74.1965 17V15.95H75.6665V7.58H74.1965V6.53H78.3965V7.58H76.9265V15.95H78.3965V17H74.1965ZM85.1698 7.64V17H83.9098V7.64H80.5798V6.53H88.4998V7.64H85.1698ZM91.2338 15.92L96.4088 12.905V12.785L91.2338 9.77V8.51L97.5338 12.245V13.445L91.2338 17.18V15.92ZM116.658 5.465V18.485H115.578V5.465H116.658ZM112.668 5.69H113.733V18.125H112.668V11.39H111.018V10.445H112.668V5.69ZM111.318 7.715H105.198V6.77H111.318V7.715ZM111.648 13.865L111.753 14.75C110.923 14.91 109.908 15.035 108.708 15.125C107.518 15.205 106.293 15.245 105.033 15.245L104.928 14.3C105.658 14.3 106.208 14.295 106.578 14.285L106.203 8.93L107.253 8.825L107.538 14.255C107.878 14.245 108.328 14.22 108.888 14.18L109.263 8.81L110.313 8.915L109.863 14.12C110.653 14.03 111.248 13.945 111.648 13.865ZM129.537 5.465H130.677V18.485H129.537V5.465ZM119.907 10.73C119.907 9.27 120.227 8.165 120.867 7.415C121.517 6.665 122.372 6.29 123.432 6.29C124.482 6.29 125.327 6.665 125.967 7.415C126.617 8.165 126.942 9.27 126.942 10.73C126.942 11.71 126.792 12.535 126.492 13.205C126.192 13.865 125.777 14.36 125.247 14.69C124.717 15.01 124.112 15.17 123.432 15.17C122.372 15.17 121.517 14.795 120.867 14.045C120.227 13.295 119.907 12.19 119.907 10.73ZM125.727 11.315V10.145C125.727 9.215 125.512 8.5 125.082 8C124.662 7.5 124.112 7.25 123.432 7.25C122.742 7.25 122.182 7.5 121.752 8C121.332 8.49 121.122 9.205 121.122 10.145V11.315C121.122 12.255 121.332 12.975 121.752 13.475C122.182 13.965 122.742 14.21 123.432 14.21C124.112 14.21 124.662 13.96 125.082 13.46C125.512 12.96 125.727 12.245 125.727 11.315ZM145.101 5.465V18.485H143.961V5.465H145.101ZM138.831 10.97C138.971 10.97 139.086 11.025 139.176 11.135L142.116 14.585L141.261 15.32L138.291 11.75C138.241 11.69 138.181 11.66 138.111 11.66C138.051 11.66 137.996 11.69 137.946 11.75C137.676 12.3 137.321 12.86 136.881 13.43C136.441 14 135.841 14.7 135.081 15.53L134.226 14.81C135.096 13.9 135.766 13.11 136.236 12.44C136.716 11.77 137.061 11.105 137.271 10.445C137.481 9.775 137.586 9.015 137.586 8.165V7.595H134.631V6.635H141.666V7.595H138.726V8.21C138.726 9.34 138.551 10.345 138.201 11.225L138.276 11.27L138.501 11.09C138.611 11.01 138.721 10.97 138.831 10.97ZM158.865 10.655H150.24V5.945H151.365V9.71H158.865V10.655ZM160.605 12.32V13.295H148.365V12.32H160.605ZM151.26 17.795H159.03V18.755H150.87C150.63 18.755 150.445 18.69 150.315 18.56C150.185 18.43 150.12 18.24 150.12 17.99V14.705H151.26V17.795ZM168.794 9.65C168.474 9.65 168.239 9.57 168.089 9.41C167.949 9.24 167.879 9.025 167.879 8.765V8.555C167.879 8.145 167.999 7.695 168.239 7.205C168.479 6.705 168.814 6.27 169.244 5.9H170.249C169.949 6.22 169.704 6.525 169.514 6.815C169.334 7.095 169.204 7.41 169.124 7.76C169.324 7.81 169.469 7.905 169.559 8.045C169.659 8.185 169.709 8.355 169.709 8.555V8.765C169.709 9.025 169.634 9.24 169.484 9.41C169.344 9.57 169.114 9.65 168.794 9.65ZM185.165 11.555H183.005V18.515H181.865V5.495H183.005V10.595H185.165V11.555ZM180.275 13.505L180.425 14.435C178.845 14.755 176.925 14.915 174.665 14.915H173.09V6.515H174.215V13.955H174.665C176.825 13.955 178.695 13.805 180.275 13.505ZM188.504 5.75C188.824 5.75 189.054 5.835 189.194 6.005C189.344 6.165 189.419 6.375 189.419 6.635V6.845C189.419 7.255 189.299 7.71 189.059 8.21C188.819 8.7 188.484 9.13 188.054 9.5H187.049C187.349 9.18 187.589 8.88 187.769 8.6C187.959 8.31 188.094 7.99 188.174 7.64C187.974 7.59 187.824 7.495 187.724 7.355C187.634 7.215 187.589 7.045 187.589 6.845V6.635C187.589 6.375 187.659 6.165 187.799 6.005C187.949 5.835 188.184 5.75 188.504 5.75ZM203.676 5.465V18.485H202.581V5.465H203.676ZM199.626 5.69H200.691V18.125H199.626V11.3H198.186C198.136 12.6 197.846 13.58 197.316 14.24C196.786 14.89 196.086 15.215 195.216 15.215C194.286 15.215 193.551 14.855 193.011 14.135C192.471 13.405 192.201 12.32 192.201 10.88C192.201 9.44 192.471 8.36 193.011 7.64C193.551 6.91 194.286 6.545 195.216 6.545C196.076 6.545 196.766 6.865 197.286 7.505C197.816 8.145 198.116 9.095 198.186 10.355H199.626V5.69ZM197.046 10.16C197.046 9.28 196.876 8.61 196.536 8.15C196.206 7.69 195.766 7.46 195.216 7.46C194.656 7.46 194.206 7.69 193.866 8.15C193.536 8.61 193.371 9.28 193.371 10.16V11.615C193.371 12.485 193.536 13.155 193.866 13.625C194.206 14.085 194.656 14.315 195.216 14.315C195.766 14.315 196.206 14.085 196.536 13.625C196.876 13.155 197.046 12.485 197.046 11.615V10.16ZM222.695 5.465V18.485H221.585V11.495H219.53V18.125H218.435V5.69H219.53V10.55H221.585V5.465H222.695ZM217.295 13.7L217.445 14.6C216.235 14.91 214.74 15.065 212.96 15.065H211.73V6.8H216.575V7.76H212.825V14.12H213.23C214.87 14.12 216.225 13.98 217.295 13.7ZM238.199 9.92V10.88H236.114V15.5H234.974V5.465H236.114V9.92H238.199ZM231.539 6.83H227.534V5.87H231.539V6.83ZM229.439 13.94C228.819 13.94 228.274 13.835 227.804 13.625C227.334 13.415 226.969 13.125 226.709 12.755C226.459 12.385 226.334 11.965 226.334 11.495C226.334 11.025 226.444 10.615 226.664 10.265C226.894 9.905 227.234 9.63 227.684 9.44V9.365H225.344V8.42H233.474V9.365H231.194V9.44C231.644 9.63 231.979 9.905 232.199 10.265C232.429 10.615 232.544 11.025 232.544 11.495C232.544 11.965 232.414 12.385 232.154 12.755C231.904 13.125 231.544 13.415 231.074 13.625C230.604 13.835 230.059 13.94 229.439 13.94ZM229.319 12.98H229.574C230.134 12.98 230.589 12.83 230.939 12.53C231.299 12.22 231.479 11.79 231.479 11.24C231.479 10.69 231.304 10.26 230.954 9.95C230.604 9.64 230.144 9.485 229.574 9.485H229.319C228.749 9.485 228.289 9.64 227.939 9.95C227.589 10.25 227.414 10.68 227.414 11.24C227.414 11.79 227.589 12.22 227.939 12.53C228.299 12.83 228.759 12.98 229.319 12.98ZM229.079 17.9H236.414V18.845H228.689C228.449 18.845 228.264 18.78 228.134 18.65C228.004 18.52 227.939 18.33 227.939 18.08V15.08H229.079V17.9ZM254.998 11.15H246.388V5.72H247.513V7.505H253.888V5.72H254.998V11.15ZM253.888 8.435H247.513V10.205H253.888V8.435ZM256.813 12.515V13.505H251.338V16.16H250.198V13.505H244.573V12.515H256.813ZM247.423 17.87H255.208V18.815H247.048C246.808 18.815 246.623 18.75 246.493 18.62C246.363 18.49 246.298 18.3 246.298 18.05V14.96H247.423V17.87ZM270.232 5.465V13.28H269.092V9.365H266.227V8.42H269.092V5.465H270.232ZM262.987 9.8C262.917 9.8 262.857 9.83 262.807 9.89C262.547 10.34 262.202 10.805 261.772 11.285C261.342 11.755 260.762 12.335 260.032 13.025L259.192 12.29C260.042 11.51 260.697 10.845 261.157 10.295C261.617 9.735 261.947 9.185 262.147 8.645C262.357 8.105 262.462 7.495 262.462 6.815V5.96H263.602V6.86C263.602 7.82 263.427 8.665 263.077 9.395L263.152 9.44L263.407 9.23C263.517 9.14 263.622 9.095 263.722 9.095C263.842 9.095 263.947 9.14 264.037 9.23L266.902 11.93L266.077 12.74L263.182 9.89C263.122 9.83 263.057 9.8 262.987 9.8ZM261.637 14.09H270.232V19.145H269.107V15.05H261.637V14.09ZM286.051 11.78H284.011V18.485H282.886V5.465H284.011V10.82H286.051V11.78ZM279.691 7.595H274.051V6.65H280.801V7.805C280.801 9.395 280.621 10.98 280.261 12.56L279.166 12.395C279.516 10.945 279.691 9.46 279.691 7.94V7.595ZM281.806 14.21L281.911 15.125C280.811 15.305 279.496 15.44 277.966 15.53C276.446 15.62 274.881 15.665 273.271 15.665L273.166 14.705C274.166 14.705 275.161 14.69 276.151 14.66V10.595H277.261V14.615C279.071 14.535 280.586 14.4 281.806 14.21ZM301.89 7.52H293.97V6.545H303.015V7.61C303.015 9.83 302.8 11.945 302.37 13.955L301.26 13.775C301.68 11.745 301.89 9.705 301.89 7.655V7.52ZM304.68 16.04V17H292.44V16.04H297.24V11.225H298.365V16.04H304.68ZM318.099 5.465V15.35H316.944V5.465H318.099ZM313.884 6.305V12.68H307.629V6.305H313.884ZM312.744 7.25H308.784V11.735H312.744V7.25ZM309.759 18.005V14.27H310.914V17.825H318.369V18.77H310.509C310.269 18.77 310.084 18.705 309.954 18.575C309.824 18.445 309.759 18.255 309.759 18.005ZM322.908 7.865C322.908 7.135 323.283 6.555 324.033 6.125C324.783 5.685 325.908 5.465 327.408 5.465C328.908 5.465 330.033 5.685 330.783 6.125C331.533 6.555 331.908 7.135 331.908 7.865C331.908 8.595 331.533 9.18 330.783 9.62C330.033 10.06 328.908 10.28 327.408 10.28C325.908 10.28 324.783 10.06 324.033 9.62C323.283 9.18 322.908 8.595 322.908 7.865ZM330.693 7.94V7.775C330.693 7.345 330.418 6.995 329.868 6.725C329.328 6.445 328.508 6.305 327.408 6.305C326.308 6.305 325.483 6.445 324.933 6.725C324.393 6.995 324.123 7.345 324.123 7.775V7.94C324.123 8.37 324.393 8.725 324.933 9.005C325.483 9.275 326.308 9.41 327.408 9.41C328.508 9.41 329.328 9.275 329.868 9.005C330.418 8.725 330.693 8.37 330.693 7.94ZM333.528 11.315V12.275H321.288V11.315H333.528ZM323.193 18.335V15.875H330.588V14.465H323.103V13.535H331.683V16.745H324.288V18.17H332.073V19.1H323.943C323.703 19.1 323.518 19.035 323.388 18.905C323.258 18.775 323.193 18.585 323.193 18.335ZM352.547 12.755V13.685H340.307V12.755H345.872V11.345H342.167V5.735H350.672V6.635H343.262V8.105H350.447V8.975H343.277V10.445H350.912V11.345H346.997V12.755H352.547ZM350.867 17C350.867 17.71 350.487 18.275 349.727 18.695C348.967 19.115 347.867 19.325 346.427 19.325C344.987 19.325 343.887 19.115 343.127 18.695C342.367 18.275 341.987 17.71 341.987 17C341.987 16.3 342.367 15.74 343.127 15.32C343.887 14.89 344.987 14.675 346.427 14.675C347.867 14.675 348.967 14.89 349.727 15.32C350.487 15.74 350.867 16.3 350.867 17ZM349.667 16.91C349.667 16.52 349.397 16.195 348.857 15.935C348.327 15.675 347.517 15.545 346.427 15.545C345.347 15.545 344.532 15.675 343.982 15.935C343.442 16.195 343.172 16.52 343.172 16.91V17.09C343.172 17.48 343.442 17.805 343.982 18.065C344.532 18.325 345.347 18.455 346.427 18.455C347.517 18.455 348.327 18.325 348.857 18.065C349.397 17.805 349.667 17.48 349.667 17.09V16.91ZM366.296 5.465V18.485H365.186V11.69H363.236V18.125H362.141V5.69H363.236V10.745H365.186V5.465H366.296ZM360.071 7.415H356.216V6.485H360.071V7.415ZM354.641 9.095H361.421V9.995H359.636V10.07C360.426 10.5 360.821 11.315 360.821 12.515C360.821 13.455 360.566 14.19 360.056 14.72C359.556 15.24 358.896 15.5 358.076 15.5C357.266 15.5 356.606 15.24 356.096 14.72C355.596 14.19 355.346 13.455 355.346 12.515C355.346 11.315 355.736 10.5 356.516 10.07V9.995H354.641V9.095ZM359.741 11.975C359.741 11.375 359.591 10.915 359.291 10.595C358.991 10.275 358.586 10.115 358.076 10.115C357.566 10.115 357.161 10.275 356.861 10.595C356.571 10.915 356.426 11.375 356.426 11.975V12.695C356.426 13.285 356.576 13.745 356.876 14.075C357.186 14.405 357.586 14.57 358.076 14.57C358.566 14.57 358.966 14.405 359.276 14.075C359.586 13.745 359.741 13.285 359.741 12.695V11.975ZM375.445 6.17H376.57V8.66H383.17V6.17H384.295V13.07H375.445V6.17ZM383.17 12.11V9.62H376.57V12.11H383.17ZM373.75 16.025H385.99V17H373.75V16.025ZM396.619 15.065H395.509V5.675H396.619V9.575H398.629V5.465H399.739V15.44H398.629V10.52H396.619V15.065ZM394.774 12.995C393.444 13.305 391.869 13.46 390.049 13.46H388.834V9.425H392.719V7.37H388.774V6.44H393.784V10.325H389.899V12.545H390.334C391.164 12.545 391.949 12.505 392.689 12.425C393.429 12.345 394.074 12.235 394.624 12.095L394.774 12.995ZM400.024 17.825V18.77H391.819C391.579 18.77 391.394 18.705 391.264 18.575C391.134 18.445 391.069 18.255 391.069 18.005V14.795H392.209V17.825H400.024ZM413.248 12.65H404.368V6.365H413.113V7.34H405.508V11.675H413.248V12.65ZM414.838 16.025V17H402.598V16.025H414.838ZM423.027 9.65C422.707 9.65 422.472 9.57 422.322 9.41C422.182 9.24 422.112 9.025 422.112 8.765V8.555C422.112 8.145 422.232 7.695 422.472 7.205C422.712 6.705 423.047 6.27 423.477 5.9H424.482C424.182 6.22 423.937 6.525 423.747 6.815C423.567 7.095 423.437 7.41 423.357 7.76C423.557 7.81 423.702 7.905 423.792 8.045C423.892 8.185 423.942 8.355 423.942 8.555V8.765C423.942 9.025 423.867 9.24 423.717 9.41C423.577 9.57 423.347 9.65 423.027 9.65ZM427.098 17V15.95H428.568V7.58H427.098V6.53H431.298V7.58H429.828V15.95H431.298V17H427.098ZM438.299 19.475V18.425H445.874V19.475H438.299ZM447.831 19.475V18.425H455.406V19.475H447.831ZM457.362 19.475V18.425H464.937V19.475H457.362ZM479.213 15.47H479.168C479.038 15.96 478.718 16.37 478.208 16.7C477.708 17.02 477.058 17.18 476.258 17.18C475.618 17.18 475.028 17.065 474.488 16.835C473.958 16.595 473.503 16.25 473.123 15.8C472.743 15.34 472.443 14.775 472.223 14.105C472.013 13.425 471.908 12.645 471.908 11.765C471.908 10.895 472.013 10.125 472.223 9.455C472.433 8.775 472.733 8.21 473.123 7.76C473.513 7.3 473.983 6.95 474.533 6.71C475.083 6.47 475.693 6.35 476.363 6.35C477.303 6.35 478.088 6.56 478.718 6.98C479.348 7.4 479.833 7.955 480.173 8.645L479.138 9.275C478.898 8.715 478.538 8.275 478.058 7.955C477.588 7.635 477.023 7.475 476.363 7.475C475.903 7.475 475.483 7.56 475.103 7.73C474.723 7.89 474.393 8.12 474.113 8.42C473.843 8.72 473.633 9.08 473.483 9.5C473.333 9.92 473.258 10.39 473.258 10.91V12.605C473.258 13.125 473.333 13.6 473.483 14.03C473.633 14.45 473.843 14.81 474.113 15.11C474.393 15.41 474.733 15.645 475.133 15.815C475.533 15.975 475.983 16.055 476.483 16.055C476.843 16.055 477.183 16.01 477.503 15.92C477.833 15.82 478.118 15.675 478.358 15.485C478.608 15.295 478.803 15.06 478.943 14.78C479.083 14.49 479.153 14.15 479.153 13.76V12.725H476.843V11.615H480.383V17H479.213V15.47ZM485.173 17H483.913V6.53H488.083C489.003 6.53 489.718 6.785 490.228 7.295C490.748 7.805 491.008 8.54 491.008 9.5C491.008 10.27 490.828 10.905 490.468 11.405C490.118 11.895 489.598 12.22 488.908 12.38L491.308 17H489.883L487.618 12.5H485.173V17ZM488.083 11.42C488.583 11.42 488.968 11.29 489.238 11.03C489.518 10.77 489.658 10.4 489.658 9.92V9.14C489.658 8.66 489.518 8.29 489.238 8.03C488.968 7.77 488.583 7.64 488.083 7.64H485.173V11.42H488.083ZM494.063 17V15.95H495.533V7.58H494.063V6.53H498.263V7.58H496.793V15.95H498.263V17H494.063ZM505.036 7.64V17H503.776V7.64H500.446V6.53H508.366V7.64H505.036ZM512.158 5.75C512.478 5.75 512.708 5.835 512.848 6.005C512.998 6.165 513.073 6.375 513.073 6.635V6.845C513.073 7.255 512.953 7.71 512.713 8.21C512.473 8.7 512.138 9.13 511.708 9.5H510.703C511.003 9.18 511.243 8.88 511.423 8.6C511.613 8.31 511.748 7.99 511.828 7.64C511.628 7.59 511.478 7.495 511.378 7.355C511.288 7.215 511.243 7.045 511.243 6.845V6.635C511.243 6.375 511.313 6.165 511.453 6.005C511.603 5.835 511.838 5.75 512.158 5.75ZM525.785 5.465H526.925V18.485H525.785V5.465ZM516.155 10.73C516.155 9.27 516.475 8.165 517.115 7.415C517.765 6.665 518.62 6.29 519.68 6.29C520.73 6.29 521.575 6.665 522.215 7.415C522.865 8.165 523.19 9.27 523.19 10.73C523.19 11.71 523.04 12.535 522.74 13.205C522.44 13.865 522.025 14.36 521.495 14.69C520.965 15.01 520.36 15.17 519.68 15.17C518.62 15.17 517.765 14.795 517.115 14.045C516.475 13.295 516.155 12.19 516.155 10.73ZM521.975 11.315V10.145C521.975 9.215 521.76 8.5 521.33 8C520.91 7.5 520.36 7.25 519.68 7.25C518.99 7.25 518.43 7.5 518 8C517.58 8.49 517.37 9.205 517.37 10.145V11.315C517.37 12.255 517.58 12.975 518 13.475C518.43 13.965 518.99 14.21 519.68 14.21C520.36 14.21 520.91 13.96 521.33 13.46C521.76 12.96 521.975 12.245 521.975 11.315ZM547.024 16.04V17H534.784V16.04H540.334V12.575H536.554V6.35H545.299V7.325H537.694V11.6H545.434V12.575H541.474V16.04H547.024ZM557.608 6.32H553.063V5.465H557.608V6.32ZM554.803 8.27H550.648V7.43H560.008V8.27H555.883C555.833 8.73 555.628 9.115 555.268 9.425L555.343 9.44L555.718 9.23C555.848 9.14 555.998 9.095 556.168 9.095C556.258 9.095 556.358 9.11 556.468 9.14L560.533 10.535L559.963 11.315L555.643 9.755C555.533 9.715 555.403 9.695 555.253 9.695C555.073 9.695 554.928 9.72 554.818 9.77L554.773 9.785C554.033 10.245 552.663 10.76 550.663 11.33L550.108 10.58C551.238 10.27 552.128 9.995 552.778 9.755C553.428 9.515 553.908 9.28 554.218 9.05C554.538 8.81 554.733 8.55 554.803 8.27ZM555.883 12.77V14.015H559.618V16.985H552.148V18.245H560.008V19.145H551.833C551.593 19.145 551.408 19.08 551.278 18.95C551.148 18.82 551.083 18.63 551.083 18.38V16.145H558.568V14.9H550.993V14.015H554.773V12.77H549.208V11.9H561.448V12.77H555.883ZM574.867 15.47H573.727V5.465H574.867V15.47ZM572.707 13.265C571.567 13.445 570.207 13.58 568.627 13.67C567.057 13.76 565.447 13.805 563.797 13.805L563.692 12.86C565.072 12.86 566.297 12.84 567.367 12.8V10.91H564.832V6.305H571.117V7.22H565.942V9.995H571.252V10.91H568.477V12.74C570.137 12.66 571.512 12.535 572.602 12.365L572.707 13.265ZM575.137 17.825V18.77H567.172C566.932 18.77 566.747 18.705 566.617 18.575C566.487 18.445 566.422 18.255 566.422 18.005V14.84H567.562V17.825H575.137ZM595.281 11.78H593.241V18.485H592.116V5.465H593.241V10.82H595.281V11.78ZM588.921 7.595H583.281V6.65H590.031V7.805C590.031 9.395 589.851 10.98 589.491 12.56L588.396 12.395C588.746 10.945 588.921 9.46 588.921 7.94V7.595ZM591.036 14.21L591.141 15.125C590.041 15.305 588.726 15.44 587.196 15.53C585.676 15.62 584.111 15.665 582.501 15.665L582.396 14.705C583.396 14.705 584.391 14.69 585.381 14.66V10.595H586.491V14.615C588.301 14.535 589.816 14.4 591.036 14.21ZM607.17 8.69V5.465H608.31V13.295H607.17V9.62H604.44V8.69H607.17ZM598.26 12.845L597.405 12.125C598.245 11.465 598.895 10.895 599.355 10.415C599.815 9.925 600.145 9.445 600.345 8.975C600.555 8.495 600.66 7.96 600.66 7.37V7.22H597.795V6.26H604.635V7.22H601.8V7.415C601.8 8.265 601.625 9.01 601.275 9.65L601.365 9.695L601.605 9.515C601.715 9.435 601.825 9.395 601.935 9.395C602.065 9.395 602.18 9.44 602.28 9.53L605.07 11.87L604.23 12.62L601.395 10.16C601.315 10.1 601.24 10.07 601.17 10.07C601.09 10.07 601.02 10.1 600.96 10.16C600.69 10.55 600.345 10.95 599.925 11.36C599.505 11.77 598.95 12.265 598.26 12.845ZM608.385 16.4C608.385 16.94 608.225 17.42 607.905 17.84C607.595 18.27 607.12 18.605 606.48 18.845C605.85 19.095 605.08 19.22 604.17 19.22C603.25 19.22 602.47 19.095 601.83 18.845C601.2 18.605 600.725 18.27 600.405 17.84C600.095 17.42 599.94 16.94 599.94 16.4C599.94 15.86 600.095 15.38 600.405 14.96C600.725 14.53 601.2 14.195 601.83 13.955C602.47 13.705 603.25 13.58 604.17 13.58C605.08 13.58 605.85 13.705 606.48 13.955C607.12 14.195 607.595 14.53 607.905 14.96C608.225 15.38 608.385 15.86 608.385 16.4ZM607.185 16.28C607.185 15.77 606.935 15.345 606.435 15.005C605.935 14.655 605.18 14.48 604.17 14.48C603.15 14.48 602.385 14.655 601.875 15.005C601.375 15.345 601.125 15.77 601.125 16.28V16.535C601.125 17.035 601.375 17.455 601.875 17.795C602.385 18.145 603.15 18.32 604.17 18.32C605.18 18.32 605.935 18.145 606.435 17.795C606.935 17.455 607.185 17.035 607.185 16.535V16.28ZM613.119 7.865C613.119 7.135 613.494 6.555 614.244 6.125C614.994 5.685 616.119 5.465 617.619 5.465C619.119 5.465 620.244 5.685 620.994 6.125C621.744 6.555 622.119 7.135 622.119 7.865C622.119 8.595 621.744 9.18 620.994 9.62C620.244 10.06 619.119 10.28 617.619 10.28C616.119 10.28 614.994 10.06 614.244 9.62C613.494 9.18 613.119 8.595 613.119 7.865ZM620.904 7.94V7.775C620.904 7.345 620.629 6.995 620.079 6.725C619.539 6.445 618.719 6.305 617.619 6.305C616.519 6.305 615.694 6.445 615.144 6.725C614.604 6.995 614.334 7.345 614.334 7.775V7.94C614.334 8.37 614.604 8.725 615.144 9.005C615.694 9.275 616.519 9.41 617.619 9.41C618.719 9.41 619.539 9.275 620.079 9.005C620.629 8.725 620.904 8.37 620.904 7.94ZM623.739 11.315V12.275H611.499V11.315H623.739ZM613.404 18.335V15.875H620.799V14.465H613.314V13.535H621.894V16.745H614.499V18.17H622.284V19.1H614.154C613.914 19.1 613.729 19.035 613.599 18.905C613.469 18.775 613.404 18.585 613.404 18.335ZM640.613 8.93H637.748V7.985H640.613V5.465H641.753V12.35H640.613V8.93ZM634.508 9.41C634.438 9.41 634.373 9.445 634.313 9.515C634.043 9.925 633.693 10.355 633.263 10.805C632.833 11.245 632.263 11.78 631.553 12.41L630.713 11.675C631.563 10.945 632.218 10.325 632.678 9.815C633.138 9.295 633.468 8.785 633.668 8.285C633.868 7.775 633.968 7.2 633.968 6.56V5.78H635.123V6.62C635.123 7.49 634.948 8.29 634.598 9.02L634.658 9.065L634.913 8.84C635.033 8.75 635.143 8.705 635.243 8.705C635.353 8.705 635.458 8.75 635.558 8.84L638.393 11.345L637.598 12.155L634.703 9.5C634.643 9.44 634.578 9.41 634.508 9.41ZM642.113 18.125V19.1H634.148C633.908 19.1 633.723 19.035 633.593 18.905C633.463 18.775 633.398 18.585 633.398 18.335V15.62H640.598V14.09H633.308V13.115H641.753V16.58H634.553V18.125H642.113ZM655.037 11.03H652.277V10.115H655.037V8.24H652.277V7.325H655.037V5.465H656.177V13.22H655.037V11.03ZM651.767 12.095H645.632V6.125H651.767V12.095ZM650.642 7.055H646.757V11.165H650.642V7.055ZM656.252 16.34C656.252 16.89 656.092 17.38 655.772 17.81C655.462 18.25 654.992 18.595 654.362 18.845C653.732 19.095 652.962 19.22 652.052 19.22C651.142 19.22 650.367 19.095 649.727 18.845C649.097 18.595 648.622 18.25 648.302 17.81C647.992 17.38 647.837 16.89 647.837 16.34C647.837 15.79 647.992 15.3 648.302 14.87C648.622 14.43 649.097 14.085 649.727 13.835C650.367 13.585 651.142 13.46 652.052 13.46C652.962 13.46 653.732 13.585 654.362 13.835C654.992 14.085 655.462 14.43 655.772 14.87C656.092 15.3 656.252 15.79 656.252 16.34ZM655.037 16.22C655.037 15.7 654.787 15.265 654.287 14.915C653.797 14.565 653.052 14.39 652.052 14.39C651.052 14.39 650.302 14.57 649.802 14.93C649.302 15.28 649.052 15.71 649.052 16.22V16.475C649.052 16.985 649.302 17.415 649.802 17.765C650.302 18.125 651.052 18.305 652.052 18.305C653.052 18.305 653.797 18.125 654.287 17.765C654.787 17.415 655.037 16.985 655.037 16.475V16.22Z" fill="#1B1C25"/>
<path d="M17.8469 44.555H15.6869V51.515H14.5469V38.495H15.6869V43.595H17.8469V44.555ZM10.6919 39.38H11.7869V47.975H5.66685V39.395H6.77685V42.68H10.6919V39.38ZM10.6919 43.64H6.77685V47.015H10.6919V43.64ZM32.2709 44.555H30.1109V51.515H28.9709V38.495H30.1109V43.595H32.2709V44.555ZM27.3959 46.685L27.5459 47.6C26.0159 47.91 24.1059 48.065 21.8159 48.065H20.2259V39.53H26.2109V40.49H21.3659V47.12H21.8009C24.0009 47.12 25.8659 46.975 27.3959 46.685ZM40.0398 43.985L39.4248 43.115C40.7248 42.595 41.7248 42.125 42.4248 41.705C43.1248 41.285 43.6098 40.87 43.8798 40.46C44.1598 40.04 44.2998 39.555 44.2998 39.005V38.63H45.4548V39.05C45.4548 39.51 45.3948 39.92 45.2748 40.28C45.1548 40.64 44.9598 40.975 44.6898 41.285L44.7798 41.315L45.1698 41.03C45.3098 40.93 45.4498 40.88 45.5898 40.88C45.6998 40.88 45.8148 40.91 45.9348 40.97L50.1348 43.07L49.5048 43.94L45.1098 41.675C44.9698 41.595 44.8348 41.555 44.7048 41.555C44.5748 41.555 44.4398 41.595 44.2998 41.675C43.8998 42.025 43.3598 42.38 42.6798 42.74C42.0098 43.1 41.1298 43.515 40.0398 43.985ZM50.8998 45.245V46.235H38.6598V45.245H44.2098V43.415H45.3498V45.245H50.8998ZM40.3698 47.555H49.0998V52.085H47.9598V48.485H40.3698V47.555ZM68.8538 38.465V51.485H67.7288V44.6H64.8188V43.64H67.7288V38.465H68.8538ZM58.5638 39.53H64.3388V41.615C64.3388 42.725 64.1738 43.665 63.8438 44.435C63.5138 45.205 62.9588 45.925 62.1788 46.595C61.4088 47.255 60.3038 47.98 58.8638 48.77L58.1888 47.915C59.5288 47.195 60.5538 46.54 61.2638 45.95C61.9738 45.36 62.4688 44.735 62.7488 44.075C63.0388 43.405 63.1838 42.59 63.1838 41.63V40.505H58.5638V39.53ZM82.5278 43.955H73.9178V38.69H75.0428V40.4H81.4178V38.69H82.5278V43.955ZM81.4178 41.33H75.0428V43.04H81.4178V41.33ZM78.7928 46.205V47.645H82.5278V52.085H81.3878V48.575H73.7978V47.645H77.6528V46.205H72.1028V45.23H84.3428V46.205H78.7928ZM96.5768 38.465H97.7018V51.485H96.5768V38.465ZM87.2168 42.365C87.2168 41.745 87.3718 41.2 87.6818 40.73C87.9918 40.25 88.4168 39.885 88.9568 39.635C89.4968 39.375 90.1068 39.245 90.7868 39.245C91.4668 39.245 92.0768 39.375 92.6168 39.635C93.1568 39.885 93.5818 40.25 93.8918 40.73C94.2018 41.2 94.3568 41.745 94.3568 42.365C94.3568 42.985 94.2018 43.53 93.8918 44C93.5818 44.47 93.1568 44.835 92.6168 45.095C92.0768 45.345 91.4668 45.47 90.7868 45.47C90.1068 45.47 89.4968 45.345 88.9568 45.095C88.4168 44.835 87.9918 44.47 87.6818 44C87.3718 43.53 87.2168 42.985 87.2168 42.365ZM93.1568 42.545V42.185C93.1568 41.585 92.9368 41.1 92.4968 40.73C92.0568 40.36 91.4868 40.175 90.7868 40.175C90.0868 40.175 89.5168 40.36 89.0768 40.73C88.6368 41.1 88.4168 41.585 88.4168 42.185V42.545C88.4168 43.145 88.6368 43.63 89.0768 44C89.5168 44.37 90.0868 44.555 90.7868 44.555C91.4868 44.555 92.0568 44.37 92.4968 44C92.9368 43.63 93.1568 43.145 93.1568 42.545ZM86.5868 47.78C88.2868 47.78 89.9268 47.74 91.5068 47.66C93.0868 47.58 94.4268 47.455 95.5268 47.285L95.6468 48.2C94.5168 48.38 93.1568 48.52 91.5668 48.62C89.9868 48.71 88.3618 48.755 86.6918 48.755L86.5868 47.78ZM115.566 38.465H116.706V51.485H115.566V38.465ZM105.936 43.73C105.936 42.27 106.256 41.165 106.896 40.415C107.546 39.665 108.401 39.29 109.461 39.29C110.511 39.29 111.356 39.665 111.996 40.415C112.646 41.165 112.971 42.27 112.971 43.73C112.971 44.71 112.821 45.535 112.521 46.205C112.221 46.865 111.806 47.36 111.276 47.69C110.746 48.01 110.141 48.17 109.461 48.17C108.401 48.17 107.546 47.795 106.896 47.045C106.256 46.295 105.936 45.19 105.936 43.73ZM111.756 44.315V43.145C111.756 42.215 111.541 41.5 111.111 41C110.691 40.5 110.141 40.25 109.461 40.25C108.771 40.25 108.211 40.5 107.781 41C107.361 41.49 107.151 42.205 107.151 43.145V44.315C107.151 45.255 107.361 45.975 107.781 46.475C108.211 46.965 108.771 47.21 109.461 47.21C110.141 47.21 110.691 46.96 111.111 46.46C111.541 45.96 111.756 45.245 111.756 44.315ZM129.99 38.465H131.13V51.485H129.99V38.465ZM120.735 39.5H126.99V47.855H120.735V39.5ZM125.865 46.91V40.445H121.845V46.91H125.865ZM145.554 38.465V51.485H144.414V38.465H145.554ZM139.284 43.97C139.424 43.97 139.539 44.025 139.629 44.135L142.569 47.585L141.714 48.32L138.744 44.75C138.694 44.69 138.634 44.66 138.564 44.66C138.504 44.66 138.449 44.69 138.399 44.75C138.129 45.3 137.774 45.86 137.334 46.43C136.894 47 136.294 47.7 135.534 48.53L134.679 47.81C135.549 46.9 136.219 46.11 136.689 45.44C137.169 44.77 137.514 44.105 137.724 43.445C137.934 42.775 138.039 42.015 138.039 41.165V40.595H135.084V39.635H142.119V40.595H139.179V41.21C139.179 42.34 139.004 43.345 138.654 44.225L138.729 44.27L138.954 44.09C139.064 44.01 139.174 43.97 139.284 43.97ZM157.983 40.805V39.515H150.663V38.675H159.078V41.63H151.848V42.905H159.453V43.76H150.738V40.805H157.983ZM161.058 44.885V45.77H148.818V44.885H161.058ZM150.693 51.38V49.115H158.163V47.855H150.603V46.97H159.228V49.955H151.758V51.245H159.618V52.145H151.443C151.203 52.145 151.018 52.08 150.888 51.95C150.758 51.82 150.693 51.63 150.693 51.38ZM169.532 39.17H170.657V41.66H177.257V39.17H178.382V46.07H169.532V39.17ZM177.257 45.11V42.62H170.657V45.11H177.257ZM167.837 49.025H180.077V50H167.837V49.025ZM190.706 48.065H189.596V38.675H190.706V42.575H192.716V38.465H193.826V48.44H192.716V43.52H190.706V48.065ZM188.861 45.995C187.531 46.305 185.956 46.46 184.136 46.46H182.921V42.425H186.806V40.37H182.861V39.44H187.871V43.325H183.986V45.545H184.421C185.251 45.545 186.036 45.505 186.776 45.425C187.516 45.345 188.161 45.235 188.711 45.095L188.861 45.995ZM194.111 50.825V51.77H185.906C185.666 51.77 185.481 51.705 185.351 51.575C185.221 51.445 185.156 51.255 185.156 51.005V47.795H186.296V50.825H194.111ZM207.335 45.65H198.455V39.365H207.2V40.34H199.595V44.675H207.335V45.65ZM208.925 49.025V50H196.685V49.025H208.925ZM225.799 41.93H222.934V40.985H225.799V38.465H226.939V45.35H225.799V41.93ZM219.694 42.41C219.624 42.41 219.559 42.445 219.499 42.515C219.229 42.925 218.879 43.355 218.449 43.805C218.019 44.245 217.449 44.78 216.739 45.41L215.899 44.675C216.749 43.945 217.404 43.325 217.864 42.815C218.324 42.295 218.654 41.785 218.854 41.285C219.054 40.775 219.154 40.2 219.154 39.56V38.78H220.309V39.62C220.309 40.49 220.134 41.29 219.784 42.02L219.844 42.065L220.099 41.84C220.219 41.75 220.329 41.705 220.429 41.705C220.539 41.705 220.644 41.75 220.744 41.84L223.579 44.345L222.784 45.155L219.889 42.5C219.829 42.44 219.764 42.41 219.694 42.41ZM227.299 51.125V52.1H219.334C219.094 52.1 218.909 52.035 218.779 51.905C218.649 51.775 218.584 51.585 218.584 51.335V48.62H225.784V47.09H218.494V46.115H226.939V49.58H219.739V51.125H227.299ZM240.223 44.03H237.463V43.115H240.223V41.24H237.463V40.325H240.223V38.465H241.363V46.22H240.223V44.03ZM236.953 45.095H230.818V39.125H236.953V45.095ZM235.828 40.055H231.943V44.165H235.828V40.055ZM241.438 49.34C241.438 49.89 241.278 50.38 240.958 50.81C240.648 51.25 240.178 51.595 239.548 51.845C238.918 52.095 238.148 52.22 237.238 52.22C236.328 52.22 235.553 52.095 234.913 51.845C234.283 51.595 233.808 51.25 233.488 50.81C233.178 50.38 233.023 49.89 233.023 49.34C233.023 48.79 233.178 48.3 233.488 47.87C233.808 47.43 234.283 47.085 234.913 46.835C235.553 46.585 236.328 46.46 237.238 46.46C238.148 46.46 238.918 46.585 239.548 46.835C240.178 47.085 240.648 47.43 240.958 47.87C241.278 48.3 241.438 48.79 241.438 49.34ZM240.223 49.22C240.223 48.7 239.973 48.265 239.473 47.915C238.983 47.565 238.238 47.39 237.238 47.39C236.238 47.39 235.488 47.57 234.988 47.93C234.488 48.28 234.238 48.71 234.238 49.22V49.475C234.238 49.985 234.488 50.415 234.988 50.765C235.488 51.125 236.238 51.305 237.238 51.305C238.238 51.305 238.983 51.125 239.473 50.765C239.973 50.415 240.223 49.985 240.223 49.475V49.22ZM254.602 38.465H255.727V51.485H254.602V38.465ZM245.242 42.365C245.242 41.745 245.397 41.2 245.707 40.73C246.017 40.25 246.442 39.885 246.982 39.635C247.522 39.375 248.132 39.245 248.812 39.245C249.492 39.245 250.102 39.375 250.642 39.635C251.182 39.885 251.607 40.25 251.917 40.73C252.227 41.2 252.382 41.745 252.382 42.365C252.382 42.985 252.227 43.53 251.917 44C251.607 44.47 251.182 44.835 250.642 45.095C250.102 45.345 249.492 45.47 248.812 45.47C248.132 45.47 247.522 45.345 246.982 45.095C246.442 44.835 246.017 44.47 245.707 44C245.397 43.53 245.242 42.985 245.242 42.365ZM251.182 42.545V42.185C251.182 41.585 250.962 41.1 250.522 40.73C250.082 40.36 249.512 40.175 248.812 40.175C248.112 40.175 247.542 40.36 247.102 40.73C246.662 41.1 246.442 41.585 246.442 42.185V42.545C246.442 43.145 246.662 43.63 247.102 44C247.542 44.37 248.112 44.555 248.812 44.555C249.512 44.555 250.082 44.37 250.522 44C250.962 43.63 251.182 43.145 251.182 42.545ZM244.612 47.78C246.312 47.78 247.952 47.74 249.532 47.66C251.112 47.58 252.452 47.455 253.552 47.285L253.672 48.2C252.542 48.38 251.182 48.52 249.592 48.62C248.012 48.71 246.387 48.755 244.717 48.755L244.612 47.78ZM275.136 38.465V51.485H274.041V44.495H272.016V51.125H270.921V38.69H272.016V43.55H274.041V38.465H275.136ZM268.146 39.575H269.226V47.885H264.051V39.605H265.116V42.755H268.146V39.575ZM268.146 43.685H265.116V46.94H268.146V43.685ZM288.09 44.165H285.135V43.25H288.09V41.315H285.135V40.385H288.09V38.465H289.23V46.22H288.09V44.165ZM279.12 46.085L278.505 45.215C279.845 44.685 280.86 44.215 281.55 43.805C282.25 43.385 282.74 42.945 283.02 42.485C283.3 42.025 283.44 41.46 283.44 40.79V40.205H278.88V39.245H284.58V40.655C284.58 41.535 284.42 42.265 284.1 42.845C283.78 43.425 283.235 43.965 282.465 44.465C281.695 44.955 280.58 45.495 279.12 46.085ZM289.305 49.34C289.305 49.89 289.145 50.38 288.825 50.81C288.515 51.25 288.045 51.595 287.415 51.845C286.785 52.095 286.015 52.22 285.105 52.22C284.195 52.22 283.42 52.095 282.78 51.845C282.15 51.595 281.675 51.25 281.355 50.81C281.045 50.38 280.89 49.89 280.89 49.34C280.89 48.79 281.045 48.3 281.355 47.87C281.675 47.43 282.15 47.085 282.78 46.835C283.42 46.585 284.195 46.46 285.105 46.46C286.015 46.46 286.785 46.585 287.415 46.835C288.045 47.085 288.515 47.43 288.825 47.87C289.145 48.3 289.305 48.79 289.305 49.34ZM288.09 49.22C288.09 48.7 287.84 48.265 287.34 47.915C286.85 47.565 286.105 47.39 285.105 47.39C284.105 47.39 283.355 47.57 282.855 47.93C282.355 48.28 282.105 48.71 282.105 49.22V49.475C282.105 49.985 282.355 50.415 282.855 50.765C283.355 51.125 284.105 51.305 285.105 51.305C286.105 51.305 286.85 51.125 287.34 50.765C287.84 50.415 288.09 49.985 288.09 49.475V49.22ZM293.814 42.545C293.814 41.875 293.984 41.275 294.324 40.745C294.674 40.205 295.204 39.775 295.914 39.455C296.624 39.135 297.499 38.975 298.539 38.975C299.579 38.975 300.454 39.135 301.164 39.455C301.874 39.775 302.399 40.205 302.739 40.745C303.089 41.275 303.264 41.875 303.264 42.545C303.264 43.215 303.089 43.82 302.739 44.36C302.399 44.9 301.874 45.33 301.164 45.65C300.454 45.97 299.579 46.13 298.539 46.13C297.499 46.13 296.624 45.97 295.914 45.65C295.204 45.33 294.674 44.9 294.324 44.36C293.984 43.82 293.814 43.215 293.814 42.545ZM302.034 42.725V42.38C302.034 41.92 301.909 41.505 301.659 41.135C301.419 40.755 301.034 40.455 300.504 40.235C299.984 40.005 299.329 39.89 298.539 39.89C297.749 39.89 297.089 40.005 296.559 40.235C296.039 40.455 295.654 40.755 295.404 41.135C295.164 41.505 295.044 41.92 295.044 42.38V42.725C295.044 43.435 295.334 44.025 295.914 44.495C296.494 44.965 297.369 45.2 298.539 45.2C299.709 45.2 300.584 44.965 301.164 44.495C301.744 44.025 302.034 43.435 302.034 42.725ZM292.419 49.025H304.659V50H292.419V49.025ZM319.083 49.04V50H306.843V49.04H312.393V46.475H308.643V42.41H316.143V40.205H308.568V39.26H317.283V43.325H309.783V45.53H317.673V46.475H313.533V49.04H319.083ZM338.492 44.555H336.332V51.515H335.192V38.495H336.332V43.595H338.492V44.555ZM330.287 43.715C330.417 43.715 330.527 43.77 330.617 43.88L333.542 47.63L332.672 48.395L329.732 44.54C329.702 44.48 329.652 44.45 329.582 44.45C329.532 44.45 329.482 44.48 329.432 44.54C329.172 45.12 328.822 45.72 328.382 46.34C327.942 46.95 327.347 47.7 326.597 48.59L325.727 47.855C326.597 46.865 327.262 46.02 327.722 45.32C328.192 44.61 328.527 43.9 328.727 43.19C328.937 42.48 329.042 41.665 329.042 40.745V39.335H330.197V40.73C330.197 41.92 330.022 43 329.672 43.97L329.747 44.015L329.972 43.835C330.082 43.755 330.187 43.715 330.287 43.715ZM352.526 45.05V46.01H340.286V45.05H343.541V43.28C342.991 43.05 342.576 42.75 342.296 42.38C342.026 42.01 341.891 41.59 341.891 41.12C341.891 40.34 342.271 39.71 343.031 39.23C343.791 38.74 344.916 38.495 346.406 38.495C347.896 38.495 349.021 38.74 349.781 39.23C350.541 39.71 350.921 40.34 350.921 41.12C350.921 41.59 350.781 42.01 350.501 42.38C350.231 42.75 349.821 43.05 349.271 43.28V45.05H352.526ZM346.406 42.86C347.516 42.86 348.346 42.705 348.896 42.395C349.446 42.085 349.721 41.69 349.721 41.21V41C349.721 40.53 349.441 40.14 348.881 39.83C348.331 39.52 347.506 39.365 346.406 39.365C345.306 39.365 344.481 39.52 343.931 39.83C343.381 40.14 343.106 40.53 343.106 41V41.21C343.106 41.69 343.376 42.085 343.916 42.395C344.466 42.705 345.296 42.86 346.406 42.86ZM344.636 45.05H348.176V43.595C347.686 43.695 347.096 43.745 346.406 43.745C345.716 43.745 345.126 43.695 344.636 43.595V45.05ZM350.846 49.685C350.846 50.195 350.676 50.645 350.336 51.035C350.006 51.425 349.506 51.73 348.836 51.95C348.176 52.18 347.366 52.295 346.406 52.295C345.446 52.295 344.631 52.18 343.961 51.95C343.301 51.73 342.801 51.425 342.461 51.035C342.131 50.645 341.966 50.195 341.966 49.685C341.966 49.185 342.131 48.745 342.461 48.365C342.801 47.975 343.301 47.67 343.961 47.45C344.631 47.23 345.446 47.12 346.406 47.12C347.366 47.12 348.176 47.23 348.836 47.45C349.506 47.67 350.006 47.975 350.336 48.365C350.676 48.745 350.846 49.185 350.846 49.685ZM349.646 49.595C349.646 49.155 349.376 48.785 348.836 48.485C348.306 48.175 347.496 48.02 346.406 48.02C345.676 48.02 345.066 48.095 344.576 48.245C344.086 48.385 343.726 48.575 343.496 48.815C343.266 49.055 343.151 49.315 343.151 49.595V49.805C343.151 50.085 343.266 50.345 343.496 50.585C343.726 50.825 344.086 51.015 344.576 51.155C345.066 51.305 345.676 51.38 346.406 51.38C347.496 51.38 348.306 51.225 348.836 50.915C349.376 50.615 349.646 50.245 349.646 49.805V49.595ZM367.34 44.795H365.225V51.515H364.085V38.495H365.225V43.835H367.34V44.795ZM360.89 40.175H356.63V39.2H360.89V40.175ZM354.635 41.975H362.66V42.905H360.44V42.995C361.35 43.445 361.805 44.31 361.805 45.59C361.805 46.24 361.67 46.805 361.4 47.285C361.13 47.755 360.755 48.115 360.275 48.365C359.805 48.615 359.28 48.74 358.7 48.74C358.12 48.74 357.59 48.615 357.11 48.365C356.64 48.115 356.27 47.755 356 47.285C355.73 46.805 355.595 46.24 355.595 45.59C355.595 44.31 356.05 43.445 356.96 42.995V42.905H354.635V41.975ZM360.695 45.095C360.695 44.425 360.515 43.915 360.155 43.565C359.795 43.205 359.31 43.025 358.7 43.025C358.1 43.025 357.615 43.205 357.245 43.565C356.885 43.925 356.705 44.435 356.705 45.095V45.71C356.705 46.36 356.89 46.87 357.26 47.24C357.63 47.6 358.11 47.78 358.7 47.78C359.29 47.78 359.77 47.6 360.14 47.24C360.51 46.87 360.695 46.36 360.695 45.71V45.095ZM380.324 38.465V51.485H379.199V46.01H376.649V45.08H379.199V42.26H376.649V41.33H379.199V38.465H380.324ZM376.334 43.73C376.334 45.19 376.019 46.295 375.389 47.045C374.759 47.795 373.929 48.17 372.899 48.17C371.859 48.17 371.024 47.795 370.394 47.045C369.764 46.295 369.449 45.19 369.449 43.73C369.449 42.27 369.764 41.165 370.394 40.415C371.024 39.665 371.859 39.29 372.899 39.29C373.929 39.29 374.759 39.665 375.389 40.415C376.019 41.165 376.334 42.27 376.334 43.73ZM375.134 43.13C375.134 42.19 374.929 41.475 374.519 40.985C374.109 40.485 373.569 40.235 372.899 40.235C372.219 40.235 371.674 40.485 371.264 40.985C370.854 41.475 370.649 42.19 370.649 43.13V44.33C370.649 45.27 370.854 45.99 371.264 46.49C371.674 46.98 372.219 47.225 372.899 47.225C373.569 47.225 374.109 46.98 374.519 46.49C374.929 45.99 375.134 45.27 375.134 44.33V43.13ZM399.388 38.465V46.355H398.233V38.465H399.388ZM389.398 45.995L388.558 45.275C389.408 44.595 390.063 44.01 390.523 43.52C390.993 43.03 391.333 42.545 391.543 42.065C391.753 41.585 391.858 41.04 391.858 40.43V40.28H388.978V39.32H395.893V40.28H392.998V40.475C392.998 41.325 392.823 42.08 392.473 42.74L392.563 42.8L392.803 42.62C392.913 42.53 393.023 42.485 393.133 42.485C393.243 42.485 393.358 42.53 393.478 42.62L396.328 45.02L395.473 45.77L392.593 43.25C392.523 43.19 392.443 43.16 392.353 43.16C392.273 43.16 392.203 43.19 392.143 43.25C391.873 43.65 391.523 44.065 391.093 44.495C390.663 44.915 390.098 45.415 389.398 45.995ZM390.808 47.165H399.388V52.145H398.263V48.125H390.808V47.165ZM415.207 42.86V43.82H413.227V48.47H412.102V38.465H413.227V42.86H415.207ZM408.847 40.31H403.297V39.365H409.957V40.325C409.957 41.595 409.797 42.89 409.477 44.21L408.397 44.045C408.687 42.965 408.837 41.795 408.847 40.535V40.31ZM411.067 45.995C409.957 46.175 408.632 46.315 407.092 46.415C405.552 46.505 403.962 46.55 402.322 46.55L402.217 45.59C403.277 45.59 404.332 45.575 405.382 45.545V42.62H406.492V45.5C408.362 45.42 409.852 45.29 410.962 45.11L411.067 45.995ZM406.012 50.825H413.497V51.77H405.622C405.382 51.77 405.197 51.705 405.067 51.575C404.937 51.445 404.872 51.255 404.872 51.005V47.84H406.012V50.825ZM428.236 38.465V46.355H427.096V42.74H424.366V41.81H427.096V38.465H428.236ZM418.186 46.025L417.331 45.305C418.171 44.615 418.821 44.025 419.281 43.535C419.741 43.035 420.071 42.545 420.271 42.065C420.481 41.585 420.586 41.04 420.586 40.43V40.265H417.721V39.305H424.561V40.265H421.726V40.49C421.726 41.34 421.551 42.095 421.201 42.755L421.291 42.8L421.531 42.635C421.641 42.545 421.751 42.5 421.861 42.5C421.991 42.5 422.106 42.545 422.206 42.635L424.996 45.035L424.156 45.785L421.321 43.28C421.241 43.22 421.166 43.19 421.096 43.19C421.016 43.19 420.946 43.22 420.886 43.28C420.626 43.67 420.291 44.07 419.881 44.48C419.471 44.88 418.906 45.395 418.186 46.025ZM419.641 47.165H428.236V52.145H427.111V48.125H419.641V47.165ZM432.82 42.545C432.82 41.875 432.99 41.275 433.33 40.745C433.68 40.205 434.21 39.775 434.92 39.455C435.63 39.135 436.505 38.975 437.545 38.975C438.585 38.975 439.46 39.135 440.17 39.455C440.88 39.775 441.405 40.205 441.745 40.745C442.095 41.275 442.27 41.875 442.27 42.545C442.27 43.215 442.095 43.82 441.745 44.36C441.405 44.9 440.88 45.33 440.17 45.65C439.46 45.97 438.585 46.13 437.545 46.13C436.505 46.13 435.63 45.97 434.92 45.65C434.21 45.33 433.68 44.9 433.33 44.36C432.99 43.82 432.82 43.215 432.82 42.545ZM441.04 42.725V42.38C441.04 41.92 440.915 41.505 440.665 41.135C440.425 40.755 440.04 40.455 439.51 40.235C438.99 40.005 438.335 39.89 437.545 39.89C436.755 39.89 436.095 40.005 435.565 40.235C435.045 40.455 434.66 40.755 434.41 41.135C434.17 41.505 434.05 41.92 434.05 42.38V42.725C434.05 43.435 434.34 44.025 434.92 44.495C435.5 44.965 436.375 45.2 437.545 45.2C438.715 45.2 439.59 44.965 440.17 44.495C440.75 44.025 441.04 43.435 441.04 42.725ZM431.425 49.025H443.665V50H431.425V49.025ZM458.089 49.04V50H445.849V49.04H451.399V46.475H447.649V42.41H455.149V40.205H447.574V39.26H456.289V43.325H448.789V45.53H456.679V46.475H452.539V49.04H458.089ZM466.563 39.17H467.688V41.66H474.288V39.17H475.413V46.07H466.563V39.17ZM474.288 45.11V42.62H467.688V45.11H474.288ZM464.868 49.025H477.108V50H464.868V49.025ZM487.737 48.065H486.627V38.675H487.737V42.575H489.747V38.465H490.857V48.44H489.747V43.52H487.737V48.065ZM485.892 45.995C484.562 46.305 482.987 46.46 481.167 46.46H479.952V42.425H483.837V40.37H479.892V39.44H484.902V43.325H481.017V45.545H481.452C482.282 45.545 483.067 45.505 483.807 45.425C484.547 45.345 485.192 45.235 485.742 45.095L485.892 45.995ZM491.142 50.825V51.77H482.937C482.697 51.77 482.512 51.705 482.382 51.575C482.252 51.445 482.187 51.255 482.187 51.005V47.795H483.327V50.825H491.142ZM504.366 45.65H495.486V39.365H504.231V40.34H496.626V44.675H504.366V45.65ZM505.956 49.025V50H493.716V49.025H505.956ZM522.755 38.465H523.895V51.485H522.755V38.465ZM513.125 43.73C513.125 42.27 513.445 41.165 514.085 40.415C514.735 39.665 515.59 39.29 516.65 39.29C517.7 39.29 518.545 39.665 519.185 40.415C519.835 41.165 520.16 42.27 520.16 43.73C520.16 44.71 520.01 45.535 519.71 46.205C519.41 46.865 518.995 47.36 518.465 47.69C517.935 48.01 517.33 48.17 516.65 48.17C515.59 48.17 514.735 47.795 514.085 47.045C513.445 46.295 513.125 45.19 513.125 43.73ZM518.945 44.315V43.145C518.945 42.215 518.73 41.5 518.3 41C517.88 40.5 517.33 40.25 516.65 40.25C515.96 40.25 515.4 40.5 514.97 41C514.55 41.49 514.34 42.205 514.34 43.145V44.315C514.34 45.255 514.55 45.975 514.97 46.475C515.4 46.965 515.96 47.21 516.65 47.21C517.33 47.21 517.88 46.96 518.3 46.46C518.73 45.96 518.945 45.245 518.945 44.315ZM537.179 38.465H538.319V51.485H537.179V38.465ZM527.924 39.5H534.179V47.855H527.924V39.5ZM533.054 46.91V40.445H529.034V46.91H533.054ZM552.743 38.465V51.485H551.603V38.465H552.743ZM546.473 43.97C546.613 43.97 546.728 44.025 546.818 44.135L549.758 47.585L548.903 48.32L545.933 44.75C545.883 44.69 545.823 44.66 545.753 44.66C545.693 44.66 545.638 44.69 545.588 44.75C545.318 45.3 544.963 45.86 544.523 46.43C544.083 47 543.483 47.7 542.723 48.53L541.868 47.81C542.738 46.9 543.408 46.11 543.878 45.44C544.358 44.77 544.703 44.105 544.913 43.445C545.123 42.775 545.228 42.015 545.228 41.165V40.595H542.273V39.635H549.308V40.595H546.368V41.21C546.368 42.34 546.193 43.345 545.843 44.225L545.918 44.27L546.143 44.09C546.253 44.01 546.363 43.97 546.473 43.97ZM565.172 40.805V39.515H557.852V38.675H566.267V41.63H559.037V42.905H566.642V43.76H557.927V40.805H565.172ZM568.247 44.885V45.77H556.007V44.885H568.247ZM557.882 51.38V49.115H565.352V47.855H557.792V46.97H566.417V49.955H558.947V51.245H566.807V52.145H558.632C558.392 52.145 558.207 52.08 558.077 51.95C557.947 51.82 557.882 51.63 557.882 51.38ZM587.266 49.04V50H575.026V49.04H580.576V45.98H576.706V39.155H577.846V41.63H584.431V39.155H585.556V45.98H581.716V49.04H587.266ZM577.846 45.035H584.431V42.575H577.846V45.035ZM600.64 38.465V51.485H599.515V46.01H596.965V45.08H599.515V42.26H596.965V41.33H599.515V38.465H600.64ZM596.65 43.73C596.65 45.19 596.335 46.295 595.705 47.045C595.075 47.795 594.245 48.17 593.215 48.17C592.175 48.17 591.34 47.795 590.71 47.045C590.08 46.295 589.765 45.19 589.765 43.73C589.765 42.27 590.08 41.165 590.71 40.415C591.34 39.665 592.175 39.29 593.215 39.29C594.245 39.29 595.075 39.665 595.705 40.415C596.335 41.165 596.65 42.27 596.65 43.73ZM595.45 43.13C595.45 42.19 595.245 41.475 594.835 40.985C594.425 40.485 593.885 40.235 593.215 40.235C592.535 40.235 591.99 40.485 591.58 40.985C591.17 41.475 590.965 42.19 590.965 43.13V44.33C590.965 45.27 591.17 45.99 591.58 46.49C591.99 46.98 592.535 47.225 593.215 47.225C593.885 47.225 594.425 46.98 594.835 46.49C595.245 45.99 595.45 45.27 595.45 44.33V43.13ZM609.454 39.8H605.374V38.885H614.614V39.8H610.579C610.559 40.5 610.344 41.09 609.934 41.57L610.009 41.6L610.324 41.375C610.464 41.285 610.594 41.24 610.714 41.24C610.814 41.24 610.934 41.27 611.074 41.33L615.169 43.235L614.569 44.06L610.279 41.99C610.149 41.92 610.019 41.885 609.889 41.885C609.749 41.885 609.624 41.92 609.514 41.99C609.124 42.32 608.599 42.655 607.939 42.995C607.279 43.325 606.434 43.69 605.404 44.09L604.819 43.28C606.009 42.83 606.929 42.43 607.579 42.08C608.229 41.72 608.694 41.365 608.974 41.015C609.264 40.665 609.424 40.26 609.454 39.8ZM610.564 46.01V47.42H614.299V51.995H606.439C606.199 51.995 606.014 51.93 605.884 51.8C605.754 51.67 605.689 51.48 605.689 51.23V47.42H609.424V46.01H603.874V45.05H616.114V46.01H610.564ZM613.174 48.32H606.814V51.08H613.174V48.32ZM619.693 42.545C619.693 41.875 619.863 41.275 620.203 40.745C620.553 40.205 621.083 39.775 621.793 39.455C622.503 39.135 623.378 38.975 624.418 38.975C625.458 38.975 626.333 39.135 627.043 39.455C627.753 39.775 628.278 40.205 628.618 40.745C628.968 41.275 629.143 41.875 629.143 42.545C629.143 43.215 628.968 43.82 628.618 44.36C628.278 44.9 627.753 45.33 627.043 45.65C626.333 45.97 625.458 46.13 624.418 46.13C623.378 46.13 622.503 45.97 621.793 45.65C621.083 45.33 620.553 44.9 620.203 44.36C619.863 43.82 619.693 43.215 619.693 42.545ZM627.913 42.725V42.38C627.913 41.92 627.788 41.505 627.538 41.135C627.298 40.755 626.913 40.455 626.383 40.235C625.863 40.005 625.208 39.89 624.418 39.89C623.628 39.89 622.968 40.005 622.438 40.235C621.918 40.455 621.533 40.755 621.283 41.135C621.043 41.505 620.923 41.92 620.923 42.38V42.725C620.923 43.435 621.213 44.025 621.793 44.495C622.373 44.965 623.248 45.2 624.418 45.2C625.588 45.2 626.463 44.965 627.043 44.495C627.623 44.025 627.913 43.435 627.913 42.725ZM618.298 49.025H630.538V50H618.298V49.025ZM644.962 49.04V50H632.722V49.04H638.272V46.475H634.522V42.41H642.022V40.205H634.447V39.26H643.162V43.325H635.662V45.53H643.552V46.475H639.412V49.04H644.962ZM658.471 38.465V51.485H657.361V43.745H655.126V42.785H657.361V38.465H658.471ZM654.031 44.21C654.161 44.21 654.261 44.27 654.331 44.39L656.161 47.405L655.381 48.125L653.506 44.93C653.486 44.9 653.456 44.885 653.416 44.885C653.386 44.875 653.366 44.89 653.356 44.93C653.166 45.4 652.931 45.88 652.651 46.37C652.371 46.86 652.016 47.44 651.586 48.11L649.741 44.9C649.731 44.86 649.706 44.84 649.666 44.84C649.636 44.84 649.611 44.86 649.591 44.9C649.431 45.36 649.231 45.81 648.991 46.25C648.751 46.68 648.361 47.335 647.821 48.215L647.056 47.495C647.616 46.575 648.031 45.825 648.301 45.245C648.581 44.655 648.786 44.035 648.916 43.385C649.056 42.725 649.126 41.92 649.126 40.97V39.365H650.221V40.94C650.221 42.29 650.081 43.42 649.801 44.33L649.846 44.36L649.951 44.285C650.041 44.215 650.131 44.18 650.221 44.18C650.341 44.18 650.441 44.24 650.521 44.36L651.586 46.19C652.106 45.33 652.471 44.53 652.681 43.79C652.891 43.04 652.996 42.12 652.996 41.03V39.335H654.091V41C654.091 41.68 654.051 42.29 653.971 42.83C653.901 43.36 653.781 43.87 653.611 44.36L653.656 44.405L653.761 44.315C653.841 44.245 653.931 44.21 654.031 44.21ZM381.708 62.17H382.833V64.66H389.433V62.17H390.558V69.07H381.708V62.17ZM389.433 68.11V65.62H382.833V68.11H389.433ZM380.013 72.025H392.253V73H380.013V72.025ZM402.882 71.065H401.772V61.675H402.882V65.575H404.892V61.465H406.002V71.44H404.892V66.52H402.882V71.065ZM401.037 68.995C399.707 69.305 398.132 69.46 396.312 69.46H395.097V65.425H398.982V63.37H395.037V62.44H400.047V66.325H396.162V68.545H396.597C397.427 68.545 398.212 68.505 398.952 68.425C399.692 68.345 400.337 68.235 400.887 68.095L401.037 68.995ZM406.287 73.825V74.77H398.082C397.842 74.77 397.657 74.705 397.527 74.575C397.397 74.445 397.332 74.255 397.332 74.005V70.795H398.472V73.825H406.287ZM419.511 68.65H410.631V62.365H419.376V63.34H411.771V67.675H419.511V68.65ZM421.101 72.025V73H408.861V72.025H421.101ZM434.85 61.465V74.485H433.755V61.465H434.85ZM430.8 61.69H431.865V74.125H430.8V67.3H429.36C429.31 68.6 429.02 69.58 428.49 70.24C427.96 70.89 427.26 71.215 426.39 71.215C425.46 71.215 424.725 70.855 424.185 70.135C423.645 69.405 423.375 68.32 423.375 66.88C423.375 65.44 423.645 64.36 424.185 63.64C424.725 62.91 425.46 62.545 426.39 62.545C427.25 62.545 427.94 62.865 428.46 63.505C428.99 64.145 429.29 65.095 429.36 66.355H430.8V61.69ZM428.22 66.16C428.22 65.28 428.05 64.61 427.71 64.15C427.38 63.69 426.94 63.46 426.39 63.46C425.83 63.46 425.38 63.69 425.04 64.15C424.71 64.61 424.545 65.28 424.545 66.16V67.615C424.545 68.485 424.71 69.155 425.04 69.625C425.38 70.085 425.83 70.315 426.39 70.315C426.94 70.315 427.38 70.085 427.71 69.625C428.05 69.155 428.22 68.485 428.22 67.615V66.16ZM453.869 61.465V74.485H452.759V67.495H450.704V74.125H449.609V61.69H450.704V66.55H452.759V61.465H453.869ZM448.469 69.7L448.619 70.6C447.409 70.91 445.914 71.065 444.134 71.065H442.904V62.8H447.749V63.76H443.999V70.12H444.404C446.044 70.12 447.399 69.98 448.469 69.7ZM469.373 65.92V66.88H467.288V71.5H466.148V61.465H467.288V65.92H469.373ZM462.713 62.83H458.708V61.87H462.713V62.83ZM460.613 69.94C459.993 69.94 459.448 69.835 458.978 69.625C458.508 69.415 458.143 69.125 457.883 68.755C457.633 68.385 457.508 67.965 457.508 67.495C457.508 67.025 457.618 66.615 457.838 66.265C458.068 65.905 458.408 65.63 458.858 65.44V65.365H456.518V64.42H464.648V65.365H462.368V65.44C462.818 65.63 463.153 65.905 463.373 66.265C463.603 66.615 463.718 67.025 463.718 67.495C463.718 67.965 463.588 68.385 463.328 68.755C463.078 69.125 462.718 69.415 462.248 69.625C461.778 69.835 461.233 69.94 460.613 69.94ZM460.493 68.98H460.748C461.308 68.98 461.763 68.83 462.113 68.53C462.473 68.22 462.653 67.79 462.653 67.24C462.653 66.69 462.478 66.26 462.128 65.95C461.778 65.64 461.318 65.485 460.748 65.485H460.493C459.923 65.485 459.463 65.64 459.113 65.95C458.763 66.25 458.588 66.68 458.588 67.24C458.588 67.79 458.763 68.22 459.113 68.53C459.473 68.83 459.933 68.98 460.493 68.98ZM460.253 73.9H467.588V74.845H459.863C459.623 74.845 459.438 74.78 459.308 74.65C459.178 74.52 459.113 74.33 459.113 74.08V71.08H460.253V73.9ZM485.767 61.465H486.907V74.485H485.767V61.465ZM476.137 66.73C476.137 65.27 476.457 64.165 477.097 63.415C477.747 62.665 478.602 62.29 479.662 62.29C480.712 62.29 481.557 62.665 482.197 63.415C482.847 64.165 483.172 65.27 483.172 66.73C483.172 67.71 483.022 68.535 482.722 69.205C482.422 69.865 482.007 70.36 481.477 70.69C480.947 71.01 480.342 71.17 479.662 71.17C478.602 71.17 477.747 70.795 477.097 70.045C476.457 69.295 476.137 68.19 476.137 66.73ZM481.957 67.315V66.145C481.957 65.215 481.742 64.5 481.312 64C480.892 63.5 480.342 63.25 479.662 63.25C478.972 63.25 478.412 63.5 477.982 64C477.562 64.49 477.352 65.205 477.352 66.145V67.315C477.352 68.255 477.562 68.975 477.982 69.475C478.412 69.965 478.972 70.21 479.662 70.21C480.342 70.21 480.892 69.96 481.312 69.46C481.742 68.96 481.957 68.245 481.957 67.315ZM501.736 61.465V74.485H500.626V67.69H498.676V74.125H497.581V61.69H498.676V66.745H500.626V61.465H501.736ZM495.511 63.415H491.656V62.485H495.511V63.415ZM490.081 65.095H496.861V65.995H495.076V66.07C495.866 66.5 496.261 67.315 496.261 68.515C496.261 69.455 496.006 70.19 495.496 70.72C494.996 71.24 494.336 71.5 493.516 71.5C492.706 71.5 492.046 71.24 491.536 70.72C491.036 70.19 490.786 69.455 490.786 68.515C490.786 67.315 491.176 66.5 491.956 66.07V65.995H490.081V65.095ZM495.181 67.975C495.181 67.375 495.031 66.915 494.731 66.595C494.431 66.275 494.026 66.115 493.516 66.115C493.006 66.115 492.601 66.275 492.301 66.595C492.011 66.915 491.866 67.375 491.866 67.975V68.695C491.866 69.285 492.016 69.745 492.316 70.075C492.626 70.405 493.026 70.57 493.516 70.57C494.006 70.57 494.406 70.405 494.716 70.075C495.026 69.745 495.181 69.285 495.181 68.695V67.975ZM517.225 67.78H515.185V74.485H514.06V61.465H515.185V66.82H517.225V67.78ZM512.98 70.45L513.085 71.365C511.995 71.545 510.685 71.685 509.155 71.785C507.635 71.875 506.065 71.92 504.445 71.92L504.34 70.945C505.75 70.945 506.95 70.92 507.94 70.87V68.29C507.05 68.19 506.325 67.865 505.765 67.315C505.205 66.765 504.925 66.065 504.925 65.215C504.925 64.605 505.08 64.07 505.39 63.61C505.7 63.14 506.125 62.78 506.665 62.53C507.205 62.27 507.815 62.14 508.495 62.14C509.175 62.14 509.785 62.27 510.325 62.53C510.865 62.78 511.285 63.14 511.585 63.61C511.895 64.07 512.05 64.605 512.05 65.215C512.05 66.065 511.77 66.765 511.21 67.315C510.66 67.865 509.935 68.19 509.035 68.29V70.825C510.495 70.755 511.81 70.63 512.98 70.45ZM508.495 67.39C509.195 67.39 509.765 67.21 510.205 66.85C510.645 66.48 510.865 65.995 510.865 65.395V65.05C510.865 64.45 510.645 63.97 510.205 63.61C509.765 63.24 509.195 63.055 508.495 63.055C507.795 63.055 507.225 63.24 506.785 63.61C506.345 63.97 506.125 64.45 506.125 65.05V65.395C506.125 65.995 506.345 66.48 506.785 66.85C507.225 67.21 507.795 67.39 508.495 67.39ZM533.709 64.93H530.844V63.985H533.709V61.465H534.849V68.35H533.709V64.93ZM527.604 65.41C527.534 65.41 527.469 65.445 527.409 65.515C527.139 65.925 526.789 66.355 526.359 66.805C525.929 67.245 525.359 67.78 524.649 68.41L523.809 67.675C524.659 66.945 525.314 66.325 525.774 65.815C526.234 65.295 526.564 64.785 526.764 64.285C526.964 63.775 527.064 63.2 527.064 62.56V61.78H528.219V62.62C528.219 63.49 528.044 64.29 527.694 65.02L527.754 65.065L528.009 64.84C528.129 64.75 528.239 64.705 528.339 64.705C528.449 64.705 528.554 64.75 528.654 64.84L531.489 67.345L530.694 68.155L527.799 65.5C527.739 65.44 527.674 65.41 527.604 65.41ZM535.209 74.125V75.1H527.244C527.004 75.1 526.819 75.035 526.689 74.905C526.559 74.775 526.494 74.585 526.494 74.335V71.62H533.694V70.09H526.404V69.115H534.849V72.58H527.649V74.125H535.209ZM548.553 66.52H539.898V61.855H548.433V62.8H541.023V65.59H548.553V66.52ZM550.278 68.095V69.04H538.038V68.095H550.278ZM539.733 70.555H548.448V75.085H547.308V71.5H539.733V70.555ZM563.697 61.465V69.625H562.542V67.15H559.872V66.235H562.542V64.33H559.872V63.415H562.542V61.465H563.697ZM559.857 68.635C558.457 68.955 556.727 69.115 554.667 69.115H553.332V65.125H557.637V63.115H553.272V62.185H558.732V66.04H554.427V68.185H554.862C556.752 68.185 558.372 68.035 559.722 67.735L559.857 68.635ZM555.102 70.42H563.697V75.145H562.572V71.38H555.102V70.42ZM568.506 63.865C568.506 63.135 568.881 62.555 569.631 62.125C570.381 61.685 571.506 61.465 573.006 61.465C574.506 61.465 575.631 61.685 576.381 62.125C577.131 62.555 577.506 63.135 577.506 63.865C577.506 64.595 577.131 65.18 576.381 65.62C575.631 66.06 574.506 66.28 573.006 66.28C571.506 66.28 570.381 66.06 569.631 65.62C568.881 65.18 568.506 64.595 568.506 63.865ZM576.291 63.94V63.775C576.291 63.345 576.016 62.995 575.466 62.725C574.926 62.445 574.106 62.305 573.006 62.305C571.906 62.305 571.081 62.445 570.531 62.725C569.991 62.995 569.721 63.345 569.721 63.775V63.94C569.721 64.37 569.991 64.725 570.531 65.005C571.081 65.275 571.906 65.41 573.006 65.41C574.106 65.41 574.926 65.275 575.466 65.005C576.016 64.725 576.291 64.37 576.291 63.94ZM579.126 67.315V68.275H566.886V67.315H579.126ZM568.791 74.335V71.875H576.186V70.465H568.701V69.535H577.281V72.745H569.886V74.17H577.671V75.1H569.541C569.301 75.1 569.116 75.035 568.986 74.905C568.856 74.775 568.791 74.585 568.791 74.335ZM598.145 67.735V68.695H585.905V67.735H591.47V66.115H587.78V61.75H588.92V65.2H596.405V66.115H592.595V67.735H598.145ZM596.615 70.99H587.405V70.045H596.615V70.99ZM594.485 74.125H596.75V75.055H587.27V74.125H589.55L589.1 71.74L590.27 71.635L590.645 74.125H593.39L593.765 71.635L594.935 71.74L594.485 74.125ZM610.349 61.465H611.489V74.485H610.349V61.465ZM600.719 66.73C600.719 65.27 601.039 64.165 601.679 63.415C602.329 62.665 603.184 62.29 604.244 62.29C605.294 62.29 606.139 62.665 606.779 63.415C607.429 64.165 607.754 65.27 607.754 66.73C607.754 67.71 607.604 68.535 607.304 69.205C607.004 69.865 606.589 70.36 606.059 70.69C605.529 71.01 604.924 71.17 604.244 71.17C603.184 71.17 602.329 70.795 601.679 70.045C601.039 69.295 600.719 68.19 600.719 66.73ZM606.539 67.315V66.145C606.539 65.215 606.324 64.5 605.894 64C605.474 63.5 604.924 63.25 604.244 63.25C603.554 63.25 602.994 63.5 602.564 64C602.144 64.49 601.934 65.205 601.934 66.145V67.315C601.934 68.255 602.144 68.975 602.564 69.475C602.994 69.965 603.554 70.21 604.244 70.21C604.924 70.21 605.474 69.96 605.894 69.46C606.324 68.96 606.539 68.245 606.539 67.315ZM624.203 63.52H616.283V62.545H625.328V63.61C625.328 65.83 625.113 67.945 624.683 69.955L623.573 69.775C623.993 67.745 624.203 65.705 624.203 63.655V63.52ZM626.993 72.04V73H614.753V72.04H619.553V67.225H620.678V72.04H626.993ZM641.807 67.555H639.647V74.515H638.507V61.495H639.647V66.595H641.807V67.555ZM633.677 66.97C633.797 66.97 633.912 67.025 634.022 67.135L636.947 70.6L636.092 71.335L633.152 67.75C633.092 67.69 633.027 67.66 632.957 67.66C632.887 67.66 632.837 67.69 632.807 67.75C632.537 68.29 632.182 68.845 631.742 69.415C631.312 69.975 630.722 70.68 629.972 71.53L629.132 70.825C630.002 69.905 630.667 69.11 631.127 68.44C631.597 67.77 631.937 67.105 632.147 66.445C632.357 65.775 632.462 65.015 632.462 64.165V63.595H629.522V62.635H636.512V63.595H633.587V64.195C633.587 65.315 633.407 66.32 633.047 67.21L633.122 67.27L633.362 67.09C633.462 67.01 633.567 66.97 633.677 66.97ZM660.841 66.13H658.756V69.7H657.616V61.465H658.756V65.17H660.841V66.13ZM654.181 62.725H650.176V61.78H654.181V62.725ZM652.081 69.385C651.461 69.385 650.916 69.29 650.446 69.1C649.976 68.91 649.611 68.645 649.351 68.305C649.101 67.965 648.976 67.58 648.976 67.15C648.976 66.72 649.081 66.35 649.291 66.04C649.511 65.72 649.836 65.47 650.266 65.29V65.2H647.986V64.285H656.116V65.2H653.896V65.29C654.326 65.47 654.646 65.72 654.856 66.04C655.076 66.35 655.186 66.72 655.186 67.15C655.186 67.58 655.056 67.965 654.796 68.305C654.546 68.645 654.186 68.91 653.716 69.1C653.246 69.29 652.701 69.385 652.081 69.385ZM651.931 68.44H652.231C652.791 68.44 653.246 68.305 653.596 68.035C653.946 67.755 654.121 67.37 654.121 66.88C654.121 66.38 653.946 65.995 653.596 65.725C653.246 65.445 652.791 65.305 652.231 65.305H651.931C651.371 65.305 650.916 65.445 650.566 65.725C650.216 65.995 650.041 66.38 650.041 66.88C650.041 67.37 650.216 67.755 650.566 68.035C650.916 68.305 651.371 68.44 651.931 68.44ZM650.656 70.48H658.756V75.025H651.406C651.166 75.025 650.981 74.96 650.851 74.83C650.721 74.7 650.656 74.51 650.656 74.26V70.48ZM651.796 74.08H657.616V71.425H651.796V74.08Z" fill="#1B1C25"/>
</svg>
