<svg width="155" height="134" viewBox="0 0 155 134" fill="none" xmlns="http://www.w3.org/2000/svg">
<rect width="155" height="134" fill="#F8D554"/>
<path d="M47.3867 58L49.1764 47.0909H50.2418L48.452 58H47.3867ZM42.4222 54.9744L42.5926 53.9091H50.7318L50.5614 54.9744H42.4222ZM43.5514 58L45.3412 47.0909H46.4066L44.6168 58H43.5514ZM43.0614 51.1818L43.2318 50.1165H51.371L51.2006 51.1818H43.0614ZM53.7004 58V47.0909H60.2416V48.2628H55.0214V51.9489H59.7516V53.1207H55.0214V58H53.7004ZM66.5567 58.1491C65.8252 58.1491 65.1788 58.0195 64.6178 57.7603C64.0602 57.4975 63.6252 57.1371 63.3127 56.679C63.0002 56.2173 62.8457 55.6918 62.8493 55.1023C62.8457 54.6406 62.9363 54.2145 63.121 53.8239C63.3056 53.4297 63.5578 53.1012 63.8774 52.8384C64.2005 52.5721 64.5609 52.4034 64.9587 52.3324V52.2685C64.4367 52.1335 64.0212 51.8406 63.7122 51.3896C63.4033 50.935 63.2506 50.4183 63.2541 49.8395C63.2506 49.2855 63.3908 48.7901 63.6749 48.3533C63.959 47.9165 64.3497 47.5721 64.8468 47.32C65.3475 47.0678 65.9175 46.9418 66.5567 46.9418C67.1888 46.9418 67.7534 47.0678 68.2506 47.32C68.7477 47.5721 69.1384 47.9165 69.4225 48.3533C69.7101 48.7901 69.8557 49.2855 69.8592 49.8395C69.8557 50.4183 69.6977 50.935 69.3852 51.3896C69.0762 51.8406 68.6661 52.1335 68.1547 52.2685V52.3324C68.5489 52.4034 68.904 52.5721 69.22 52.8384C69.5361 53.1012 69.7882 53.4297 69.9764 53.8239C70.1646 54.2145 70.2605 54.6406 70.2641 55.1023C70.2605 55.6918 70.1007 56.2173 69.7847 56.679C69.4722 57.1371 69.0372 57.4975 68.4796 57.7603C67.9256 58.0195 67.2847 58.1491 66.5567 58.1491ZM66.5567 56.9773C67.0503 56.9773 67.4764 56.8974 67.8351 56.7376C68.1938 56.5778 68.4707 56.3523 68.6661 56.0611C68.8614 55.7699 68.9608 55.429 68.9644 55.0384C68.9608 54.6264 68.8543 54.2624 68.6448 53.9464C68.4352 53.6303 68.1494 53.3817 67.7872 53.2006C67.4285 53.0195 67.0183 52.929 66.5567 52.929C66.0915 52.929 65.676 53.0195 65.3102 53.2006C64.948 53.3817 64.6622 53.6303 64.4526 53.9464C64.2467 54.2624 64.1455 54.6264 64.149 55.0384C64.1455 55.429 64.2396 55.7699 64.4313 56.0611C64.6266 56.3523 64.9054 56.5778 65.2676 56.7376C65.6298 56.8974 66.0595 56.9773 66.5567 56.9773ZM66.5567 51.7997C66.9473 51.7997 67.2935 51.7216 67.5954 51.5653C67.9008 51.4091 68.1405 51.1907 68.3145 50.9102C68.4885 50.6296 68.5773 50.3011 68.5808 49.9247C68.5773 49.5554 68.4903 49.234 68.3198 48.9606C68.1494 48.6836 67.9132 48.4705 67.6114 48.3214C67.3095 48.1687 66.958 48.0923 66.5567 48.0923C66.1483 48.0923 65.7914 48.1687 65.486 48.3214C65.1806 48.4705 64.9445 48.6836 64.7776 48.9606C64.6107 49.234 64.529 49.5554 64.5325 49.9247C64.529 50.3011 64.6124 50.6296 64.7829 50.9102C64.9569 51.1907 65.1966 51.4091 65.502 51.5653C65.8074 51.7216 66.159 51.7997 66.5567 51.7997ZM76.6138 58H73.2473V47.0909H76.7629C77.8212 47.0909 78.7267 47.3093 79.4795 47.7461C80.2324 48.1793 80.8094 48.8026 81.2107 49.6158C81.612 50.4254 81.8126 51.3949 81.8126 52.5241C81.8126 53.6605 81.6102 54.6388 81.2054 55.4592C80.8006 56.2759 80.2111 56.9045 79.4369 57.3448C78.6628 57.7816 77.7217 58 76.6138 58ZM74.5683 56.8281H76.5285C77.4305 56.8281 78.178 56.6541 78.7711 56.3061C79.3641 55.9581 79.8062 55.4627 80.0974 54.82C80.3886 54.1772 80.5342 53.4119 80.5342 52.5241C80.5342 51.6435 80.3904 50.8853 80.1028 50.2496C79.8151 49.6104 79.3854 49.1204 78.8137 48.7795C78.242 48.435 77.53 48.2628 76.6777 48.2628H74.5683V56.8281ZM87.9959 58.1491C87.3709 58.1491 86.808 58.0249 86.3073 57.7763C85.8066 57.5277 85.4053 57.1868 85.1035 56.7536C84.8016 56.3203 84.6365 55.8267 84.6081 55.2727H85.8865C85.9362 55.7663 86.1599 56.1747 86.5577 56.4979C86.9589 56.8175 87.4383 56.9773 87.9959 56.9773C88.4433 56.9773 88.841 56.8725 89.1891 56.663C89.5406 56.4535 89.8158 56.1658 90.0147 55.8001C90.2171 55.4308 90.3183 55.0135 90.3183 54.5483C90.3183 54.0724 90.2136 53.6481 90.004 53.2752C89.7981 52.8988 89.514 52.6023 89.1518 52.3857C88.7896 52.169 88.3758 52.0589 87.9106 52.0554C87.5768 52.0518 87.2342 52.1033 86.8826 52.2099C86.531 52.3129 86.2416 52.446 86.0143 52.6094L84.7785 52.4602L85.4391 47.0909H91.1067V48.2628H86.547L86.1635 51.4801H86.2274C86.4511 51.3026 86.7317 51.1552 87.069 51.038C87.4064 50.9208 87.7579 50.8622 88.1237 50.8622C88.7913 50.8622 89.3861 51.022 89.9082 51.3416C90.4337 51.6577 90.8457 52.0909 91.144 52.6413C91.4458 53.1918 91.5967 53.8203 91.5967 54.527C91.5967 55.223 91.4405 55.8445 91.128 56.3913C90.819 56.9347 90.3929 57.3643 89.8496 57.6804C89.3062 57.9929 88.6883 58.1491 87.9959 58.1491ZM97.8718 58.1491C97.2468 58.1491 96.684 58.0249 96.1833 57.7763C95.6826 57.5277 95.2813 57.1868 94.9794 56.7536C94.6776 56.3203 94.5125 55.8267 94.4841 55.2727H95.7625C95.8122 55.7663 96.0359 56.1747 96.4336 56.4979C96.8349 56.8175 97.3143 56.9773 97.8718 56.9773C98.3193 56.9773 98.717 56.8725 99.065 56.663C99.4166 56.4535 99.6918 56.1658 99.8907 55.8001C100.093 55.4308 100.194 55.0135 100.194 54.5483C100.194 54.0724 100.09 53.6481 99.88 53.2752C99.6741 52.8988 99.39 52.6023 99.0277 52.3857C98.6655 52.169 98.2518 52.0589 97.7866 52.0554C97.4528 52.0518 97.1101 52.1033 96.7586 52.2099C96.407 52.3129 96.1176 52.446 95.8903 52.6094L94.6545 52.4602L95.315 47.0909H100.983V48.2628H96.423L96.0395 51.4801H96.1034C96.3271 51.3026 96.6076 51.1552 96.945 51.038C97.2824 50.9208 97.6339 50.8622 97.9997 50.8622C98.6673 50.8622 99.2621 51.022 99.7841 51.3416C100.31 51.6577 100.722 52.0909 101.02 52.6413C101.322 53.1918 101.473 53.8203 101.473 54.527C101.473 55.223 101.316 55.8445 101.004 56.3913C100.695 56.9347 100.269 57.3643 99.7255 57.6804C99.1822 57.9929 98.5643 58.1491 97.8718 58.1491ZM104.083 55.7628V54.6761L108.877 47.0909H109.665V48.7741H109.133L105.511 54.5057V54.5909H111.967V55.7628H104.083ZM109.218 58V55.4325V54.9265V47.0909H110.475V58H109.218Z" fill="#1B1C25"/>
<path d="M72.2261 76.8162C72.2261 76.8162 72.2117 76.8363 72.206 76.8449C72.1545 76.8191 72.0972 76.7905 72.0514 76.7704C71.7278 76.6245 71.4243 76.5386 71.1408 76.51C70.5108 76.4471 69.8694 76.7418 69.2137 77.3972C68.724 77.8866 68.4005 78.3388 68.2516 78.7537C68.1857 78.9426 68.1628 79.1286 68.1886 79.3147C68.2143 79.5007 68.2773 79.6467 68.3833 79.7497C68.4635 79.8298 68.558 79.8813 68.6696 79.9042C68.7784 79.9271 68.8758 79.9157 68.9588 79.8727C69.228 79.7239 69.4227 79.6552 69.5459 79.6638C69.669 79.6724 69.8551 79.7726 70.1071 79.9643C70.2589 80.0817 70.4078 80.1875 70.5481 80.2791C70.2989 81.1863 70.1615 82.1422 70.1615 83.121C70.1615 84.9698 70.6454 86.6926 71.4758 88.1436L77.5035 82.1165L72.2261 76.8162Z" fill="white"/>
<path d="M81.2491 73.9772C81.3235 73.6996 81.3665 73.4077 81.3665 73.1014C81.3665 71.433 80.1552 69.9534 78.6605 69.9534C77.1657 69.9534 75.9545 71.433 75.9545 73.1014C75.9545 73.3647 75.9888 73.6166 76.0433 73.8598C74.978 74.2577 74.0016 74.9016 73.1626 75.7287L78.5116 81.1004L83.8577 75.7544C83.0931 74.9903 82.2083 74.3807 81.2462 73.9743L81.2491 73.9772Z" fill="white"/>
<path d="M88.7482 78.7537C88.5964 78.3416 88.2757 77.8894 87.786 77.3972C87.1303 76.7418 86.4889 76.4471 85.8589 76.51C85.5754 76.5358 85.2719 76.6245 84.9483 76.7704C84.9025 76.7905 84.8481 76.8191 84.7966 76.8449L79.5249 82.1165L85.5239 88.1407C86.3543 86.6926 86.8382 84.9698 86.8382 83.121C86.8382 82.1422 86.7008 81.1863 86.4517 80.2791C86.592 80.1847 86.7409 80.0817 86.8926 79.9643C87.1446 79.7726 87.3307 79.6724 87.4539 79.6638C87.577 79.6552 87.7717 79.7239 88.0409 79.8727C88.1239 79.9157 88.2213 79.9271 88.3301 79.9042C88.4389 79.8813 88.5334 79.8298 88.6164 79.7497C88.7195 79.6467 88.7854 79.5007 88.8112 79.3147C88.8369 79.1286 88.814 78.9398 88.7482 78.7537Z" fill="white"/>
<path d="M86.9788 92.7828C86.9158 92.6912 86.8414 92.6283 86.7498 92.5996C86.4548 92.5138 86.2658 92.4251 86.1856 92.3335C86.1055 92.2419 86.0425 92.0387 85.9995 91.7239C85.8993 90.9684 85.7332 90.4074 85.5013 90.0411C85.318 89.7521 85.0488 89.5231 84.6995 89.3514L84.7052 89.3457L78.5144 83.1296L72.2978 89.3485H72.3006C71.9513 89.526 71.6821 89.7549 71.4989 90.044C71.2669 90.4103 71.1008 90.9712 71.0006 91.7268C70.9577 92.0416 70.8975 92.2448 70.8145 92.3363C70.7343 92.4279 70.5453 92.5195 70.2504 92.6025C70.1588 92.6311 70.0843 92.6912 70.0213 92.7857C69.9583 92.8772 69.9297 92.9803 69.9297 93.0947C69.9297 93.2407 69.987 93.3895 70.1015 93.5412C70.216 93.69 70.3621 93.8074 70.5425 93.8932C70.9405 94.0792 71.4874 94.1708 72.1832 94.1708C73.111 94.1708 73.7725 93.9247 74.1734 93.4382C74.3538 93.2207 74.5084 92.9431 74.6344 92.6111C74.7289 92.3621 74.8348 92.0129 74.9551 91.5579C76.0318 92.1246 77.2344 92.4451 78.5058 92.4451C79.7772 92.4451 80.977 92.1246 82.0565 91.5579C82.1768 92.0129 82.2827 92.3621 82.3772 92.6111C82.5032 92.9431 82.6578 93.2207 82.8382 93.4382C83.2363 93.9276 83.9006 94.1708 84.8284 94.1708C85.5213 94.1708 86.0682 94.0792 86.4691 93.8932C86.6495 93.8074 86.7984 93.69 86.9101 93.5412C87.0246 93.3924 87.0819 93.2436 87.0819 93.0947C87.0819 92.9803 87.0504 92.8772 86.9903 92.7857L86.9788 92.7828Z" fill="white"/>
</svg>
