<svg width="155" height="134" viewBox="0 0 155 134" fill="none" xmlns="http://www.w3.org/2000/svg">
<rect width="155" height="134" fill="#EBECF1"/>
<path d="M48.5512 58L50.341 47.0909H51.4063L49.6166 58H48.5512ZM43.5867 54.9744L43.7572 53.9091H51.8964L51.7259 54.9744H43.5867ZM44.716 58L46.5058 47.0909H47.5711L45.7813 58H44.716ZM44.2259 51.1818L44.3964 50.1165H52.5356L52.3651 51.1818H44.2259ZM54.865 58V47.0909H61.4488V48.2628H56.186V51.9489H61.1079V53.1207H56.186V56.8281H61.534V58H54.865ZM64.5798 58V47.0909H68.3937C69.1537 47.0909 69.7805 47.2223 70.2741 47.4851C70.7677 47.7443 71.1352 48.0941 71.3767 48.5344C71.6182 48.9712 71.7389 49.456 71.7389 49.9886C71.7389 50.4574 71.6555 50.8445 71.4885 51.1499C71.3252 51.4553 71.1086 51.6967 70.8387 51.8743C70.5724 52.0518 70.2829 52.1832 69.9704 52.2685V52.375C70.3042 52.3963 70.6398 52.5135 70.9772 52.7266C71.3145 52.9396 71.5969 53.245 71.8241 53.6428C72.0514 54.0405 72.165 54.527 72.165 55.1023C72.165 55.6491 72.0407 56.141 71.7922 56.5778C71.5436 57.0146 71.1512 57.3608 70.615 57.6165C70.0787 57.8722 69.3809 58 68.5216 58H64.5798ZM65.9008 56.8281H68.5216C69.3845 56.8281 69.9971 56.6612 70.3593 56.3274C70.7251 55.9901 70.9079 55.5817 70.9079 55.1023C70.9079 54.733 70.8138 54.392 70.6256 54.0795C70.4374 53.7635 70.1693 53.5114 69.8213 53.3232C69.4733 53.1314 69.0613 53.0355 68.5855 53.0355H65.9008V56.8281ZM65.9008 51.8849H68.3511C68.7488 51.8849 69.1075 51.8068 69.4271 51.6506C69.7503 51.4943 70.0059 51.2741 70.1942 50.9901C70.3859 50.706 70.4818 50.3722 70.4818 49.9886C70.4818 49.5092 70.3149 49.1026 69.9811 48.7688C69.6473 48.4315 69.1182 48.2628 68.3937 48.2628H65.9008V51.8849ZM75.0857 58V47.0909H81.6695V48.2628H76.4067V51.9489H81.3286V53.1207H76.4067V56.8281H81.7547V58H75.0857ZM93.5789 50.5H92.2579C92.1798 50.12 92.0431 49.7862 91.8477 49.4986C91.656 49.2109 91.4216 48.9695 91.1446 48.7741C90.8712 48.5753 90.5676 48.4261 90.2338 48.3267C89.8999 48.2273 89.5519 48.1776 89.1897 48.1776C88.5292 48.1776 87.9308 48.3445 87.3946 48.6783C86.8619 49.0121 86.4376 49.5039 86.1215 50.1538C85.809 50.8036 85.6528 51.6009 85.6528 52.5455C85.6528 53.4901 85.809 54.2873 86.1215 54.9371C86.4376 55.587 86.8619 56.0788 87.3946 56.4126C87.9308 56.7464 88.5292 56.9134 89.1897 56.9134C89.5519 56.9134 89.8999 56.8636 90.2338 56.7642C90.5676 56.6648 90.8712 56.5174 91.1446 56.3221C91.4216 56.1232 91.656 55.88 91.8477 55.5923C92.0431 55.3011 92.1798 54.9673 92.2579 54.5909H93.5789C93.4795 55.1484 93.2984 55.6474 93.0356 56.0877C92.7728 56.5281 92.4461 56.9027 92.0555 57.2116C91.6649 57.517 91.2263 57.7496 90.7398 57.9094C90.2568 58.0692 89.7401 58.1491 89.1897 58.1491C88.2593 58.1491 87.4319 57.9219 86.7075 57.4673C85.983 57.0128 85.4131 56.3665 84.9976 55.5284C84.5821 54.6903 84.3744 53.696 84.3744 52.5455C84.3744 51.3949 84.5821 50.4006 84.9976 49.5625C85.4131 48.7244 85.983 48.0781 86.7075 47.6236C87.4319 47.169 88.2593 46.9418 89.1897 46.9418C89.7401 46.9418 90.2568 47.0217 90.7398 47.1815C91.2263 47.3413 91.6649 47.5756 92.0555 47.8846C92.4461 48.19 92.7728 48.5629 93.0356 49.0032C93.2984 49.44 93.4795 49.9389 93.5789 50.5ZM96.4636 58V47.0909H103.005V48.2628H97.7846V51.9489H102.515V53.1207H97.7846V58H96.4636ZM109.661 47.0909V58H108.34V48.4759H108.276L105.612 50.2443V48.902L108.34 47.0909H109.661Z" fill="#1B1C25"/>
<path d="M72.2261 76.8162C72.2261 76.8162 72.2117 76.8363 72.206 76.8449C72.1545 76.8191 72.0972 76.7905 72.0514 76.7704C71.7278 76.6245 71.4243 76.5386 71.1408 76.51C70.5108 76.4471 69.8694 76.7418 69.2137 77.3972C68.724 77.8866 68.4005 78.3388 68.2516 78.7537C68.1857 78.9426 68.1628 79.1286 68.1886 79.3147C68.2143 79.5007 68.2773 79.6467 68.3833 79.7497C68.4635 79.8298 68.558 79.8813 68.6696 79.9042C68.7784 79.9271 68.8758 79.9157 68.9588 79.8727C69.228 79.7239 69.4227 79.6552 69.5459 79.6638C69.669 79.6724 69.8551 79.7726 70.1071 79.9643C70.2589 80.0817 70.4078 80.1875 70.5481 80.2791C70.2989 81.1863 70.1615 82.1422 70.1615 83.121C70.1615 84.9698 70.6454 86.6926 71.4758 88.1436L77.5035 82.1165L72.2261 76.8162Z" fill="white"/>
<path d="M81.2491 73.9772C81.3235 73.6996 81.3665 73.4077 81.3665 73.1014C81.3665 71.433 80.1552 69.9534 78.6605 69.9534C77.1657 69.9534 75.9545 71.433 75.9545 73.1014C75.9545 73.3647 75.9888 73.6166 76.0433 73.8598C74.978 74.2577 74.0016 74.9016 73.1626 75.7287L78.5116 81.1004L83.8577 75.7544C83.0931 74.9903 82.2083 74.3807 81.2462 73.9743L81.2491 73.9772Z" fill="white"/>
<path d="M88.7482 78.7537C88.5964 78.3416 88.2757 77.8894 87.786 77.3972C87.1303 76.7418 86.4889 76.4471 85.8589 76.51C85.5754 76.5358 85.2719 76.6245 84.9483 76.7704C84.9025 76.7905 84.8481 76.8191 84.7966 76.8449L79.5249 82.1165L85.5239 88.1407C86.3543 86.6926 86.8382 84.9698 86.8382 83.121C86.8382 82.1422 86.7008 81.1863 86.4517 80.2791C86.592 80.1847 86.7409 80.0817 86.8926 79.9643C87.1446 79.7726 87.3307 79.6724 87.4539 79.6638C87.577 79.6552 87.7717 79.7239 88.0409 79.8727C88.1239 79.9157 88.2213 79.9271 88.3301 79.9042C88.4389 79.8813 88.5334 79.8298 88.6164 79.7497C88.7195 79.6467 88.7854 79.5007 88.8112 79.3147C88.8369 79.1286 88.814 78.9398 88.7482 78.7537Z" fill="white"/>
<path d="M86.9788 92.7828C86.9158 92.6912 86.8414 92.6283 86.7498 92.5996C86.4548 92.5138 86.2658 92.4251 86.1856 92.3335C86.1055 92.2419 86.0425 92.0387 85.9995 91.7239C85.8993 90.9684 85.7332 90.4074 85.5013 90.0411C85.318 89.7521 85.0488 89.5231 84.6995 89.3514L84.7052 89.3457L78.5144 83.1296L72.2978 89.3485H72.3006C71.9513 89.526 71.6821 89.7549 71.4989 90.044C71.2669 90.4103 71.1008 90.9712 71.0006 91.7268C70.9577 92.0416 70.8975 92.2448 70.8145 92.3363C70.7343 92.4279 70.5453 92.5195 70.2504 92.6025C70.1588 92.6311 70.0843 92.6912 70.0213 92.7857C69.9583 92.8772 69.9297 92.9803 69.9297 93.0947C69.9297 93.2407 69.987 93.3895 70.1015 93.5412C70.216 93.69 70.3621 93.8074 70.5425 93.8932C70.9405 94.0792 71.4874 94.1708 72.1832 94.1708C73.111 94.1708 73.7725 93.9247 74.1734 93.4382C74.3538 93.2207 74.5084 92.9431 74.6344 92.6111C74.7289 92.3621 74.8348 92.0129 74.9551 91.5579C76.0318 92.1246 77.2344 92.4451 78.5058 92.4451C79.7772 92.4451 80.977 92.1246 82.0565 91.5579C82.1768 92.0129 82.2827 92.3621 82.3772 92.6111C82.5032 92.9431 82.6578 93.2207 82.8382 93.4382C83.2363 93.9276 83.9006 94.1708 84.8284 94.1708C85.5213 94.1708 86.0682 94.0792 86.4691 93.8932C86.6495 93.8074 86.7984 93.69 86.9101 93.5412C87.0246 93.3924 87.0819 93.2436 87.0819 93.0947C87.0819 92.9803 87.0504 92.8772 86.9903 92.7857L86.9788 92.7828Z" fill="white"/>
</svg>
