<svg width="147" height="280" viewBox="0 0 147 280" fill="none" xmlns="http://www.w3.org/2000/svg">
<rect x="147" width="280" height="147" transform="rotate(90 147 0)" fill="#1B1C25"/>
<path d="M30.233 233.727C30.233 235.28 29.9489 236.616 29.3807 237.733C28.8125 238.846 28.0336 239.703 27.044 240.304C26.0592 240.901 24.9394 241.199 23.6847 241.199C22.4252 241.199 21.3007 240.901 20.3111 240.304C19.3262 239.703 18.5497 238.843 17.9815 237.726C17.4134 236.608 17.1293 235.276 17.1293 233.727C17.1293 232.174 17.4134 230.841 17.9815 229.729C18.5497 228.611 19.3262 227.754 20.3111 227.158C21.3007 226.556 22.4252 226.256 23.6847 226.256C24.9394 226.256 26.0592 226.556 27.044 227.158C28.0336 227.754 28.8125 228.611 29.3807 229.729C29.9489 230.841 30.233 232.174 30.233 233.727ZM28.0597 233.727C28.0597 232.544 27.8679 231.547 27.4844 230.737C27.1056 229.923 26.5848 229.307 25.9219 228.891C25.2637 228.469 24.518 228.259 23.6847 228.259C22.8466 228.259 22.0985 228.469 21.4403 228.891C20.7822 229.307 20.2614 229.923 19.8778 230.737C19.4991 231.547 19.3097 232.544 19.3097 233.727C19.3097 234.911 19.4991 235.91 19.8778 236.724C20.2614 237.534 20.7822 238.15 21.4403 238.571C22.0985 238.988 22.8466 239.196 23.6847 239.196C24.518 239.196 25.2637 238.988 25.9219 238.571C26.5848 238.15 27.1056 237.534 27.4844 236.724C27.8679 235.91 28.0597 234.911 28.0597 233.727ZM34.9178 226.455L38.9661 238.301H39.1294L43.1777 226.455H45.5499L40.3155 241H37.78L32.5456 226.455H34.9178ZM49.0504 241V226.455H58.1697V228.344H51.245V232.776H57.6938V234.658H51.245V239.111H58.2549V241H49.0504ZM62.5011 241V226.455H67.6858C68.8127 226.455 69.7478 226.649 70.4912 227.037C71.2393 227.425 71.798 227.963 72.1673 228.649C72.5366 229.331 72.7213 230.119 72.7213 231.014C72.7213 231.904 72.5343 232.688 72.1602 233.365C71.7909 234.037 71.2322 234.561 70.4841 234.935C69.7407 235.309 68.8056 235.496 67.6787 235.496H63.7511V233.607H67.4798C68.1901 233.607 68.7677 233.505 69.2128 233.301C69.6626 233.098 69.9917 232.802 70.2 232.413C70.4083 232.025 70.5125 231.559 70.5125 231.014C70.5125 230.465 70.406 229.989 70.1929 229.587C69.9846 229.184 69.6555 228.876 69.2057 228.663C68.7606 228.446 68.1759 228.337 67.4514 228.337H64.6957V241H62.5011ZM69.6815 234.438L73.2753 241H70.7753L67.2526 234.438H69.6815ZM77.7115 226.455L81.7598 238.301H81.9232L85.9714 226.455H88.3436L83.1092 241H80.5737L75.3393 226.455H77.7115ZM94.0387 226.455V241H91.8441V226.455H94.0387ZM98.6347 241V226.455H107.754V228.344H100.829V232.776H107.278V234.658H100.829V239.111H107.839V241H98.6347ZM114.934 241L110.899 226.455H113.208L116.041 237.719H116.176L119.124 226.455H121.411L124.358 237.726H124.493L127.32 226.455H129.635L125.594 241H123.385L120.324 230.105H120.211L117.149 241H114.934Z" fill="#EBECF1"/>
<path d="M79.7739 207.184C79.7739 207.184 79.7883 207.164 79.794 207.155C79.8455 207.181 79.9028 207.209 79.9486 207.229C80.2722 207.375 80.5757 207.461 80.8592 207.49C81.4892 207.553 82.1306 207.258 82.7863 206.603C83.276 206.113 83.5995 205.661 83.7484 205.246C83.8143 205.057 83.8372 204.871 83.8114 204.685C83.7857 204.499 83.7227 204.353 83.6167 204.25C83.5365 204.17 83.442 204.119 83.3304 204.096C83.2216 204.073 83.1242 204.084 83.0412 204.127C82.772 204.276 82.5773 204.345 82.4541 204.336C82.331 204.328 82.1449 204.227 81.8929 204.036C81.7411 203.918 81.5922 203.812 81.4519 203.721C81.7011 202.814 81.8385 201.858 81.8385 200.879C81.8385 199.03 81.3546 197.307 80.5242 195.856L74.4965 201.883L79.7739 207.184Z" fill="#EBECF1"/>
<path d="M70.7509 210.023C70.6765 210.3 70.6335 210.592 70.6335 210.898C70.6335 212.567 71.8448 214.047 73.3395 214.047C74.8343 214.047 76.0455 212.567 76.0455 210.898C76.0455 210.635 76.0112 210.383 75.9567 210.14C77.022 209.742 77.9984 209.098 78.8374 208.271L73.4884 202.899L68.1423 208.245C68.9069 209.01 69.7917 209.619 70.7538 210.026L70.7509 210.023Z" fill="#EBECF1"/>
<path d="M63.2518 205.246C63.4036 205.658 63.7243 206.11 64.214 206.603C64.8697 207.258 65.5111 207.553 66.1411 207.49C66.4246 207.464 66.7281 207.375 67.0517 207.229C67.0975 207.209 67.1519 207.181 67.2034 207.155L72.4751 201.883L66.4761 195.859C65.6457 197.307 65.1618 199.03 65.1618 200.879C65.1618 201.858 65.2992 202.814 65.5483 203.721C65.408 203.815 65.2591 203.918 65.1074 204.036C64.8554 204.227 64.6693 204.328 64.5461 204.336C64.423 204.345 64.2283 204.276 63.9591 204.127C63.8761 204.084 63.7787 204.073 63.6699 204.096C63.5611 204.119 63.4666 204.17 63.3836 204.25C63.2805 204.353 63.2146 204.499 63.1888 204.685C63.1631 204.871 63.186 205.06 63.2518 205.246Z" fill="#EBECF1"/>
<path d="M65.0212 191.217C65.0842 191.309 65.1586 191.372 65.2502 191.4C65.5452 191.486 65.7342 191.575 65.8144 191.667C65.8945 191.758 65.9575 191.961 66.0005 192.276C66.1007 193.032 66.2668 193.593 66.4987 193.959C66.682 194.248 66.9512 194.477 67.3005 194.649L67.2948 194.654L73.4856 200.87L79.7022 194.651L79.6994 194.651C80.0487 194.474 80.3179 194.245 80.5011 193.956C80.7331 193.59 80.8992 193.029 80.9994 192.273C81.0423 191.958 81.1025 191.755 81.1855 191.664C81.2657 191.572 81.4547 191.48 81.7496 191.398C81.8412 191.369 81.9157 191.309 81.9787 191.214C82.0417 191.123 82.0703 191.02 82.0703 190.905C82.0703 190.759 82.013 190.61 81.8985 190.459C81.784 190.31 81.6379 190.193 81.4575 190.107C81.0595 189.921 80.5126 189.829 79.8168 189.829C78.889 189.829 78.2275 190.075 77.8266 190.562C77.6462 190.779 77.4916 191.057 77.3656 191.389C77.2711 191.638 77.1652 191.987 77.0449 192.442C75.9682 191.875 74.7656 191.555 73.4942 191.555C72.2228 191.555 71.023 191.875 69.9435 192.442C69.8232 191.987 69.7173 191.638 69.6228 191.389C69.4968 191.057 69.3422 190.779 69.1618 190.562C68.7637 190.072 68.0994 189.829 67.1716 189.829C66.4787 189.829 65.9318 189.921 65.5309 190.107C65.3505 190.193 65.2016 190.31 65.0899 190.459C64.9754 190.608 64.9181 190.756 64.9181 190.905C64.9181 191.02 64.9496 191.123 65.0097 191.214L65.0212 191.217Z" fill="#EBECF1"/>
</svg>
