<svg width="981" height="571" viewBox="0 0 981 571" fill="none" xmlns="http://www.w3.org/2000/svg">
<path d="M890 47H90V88.6667H890V47Z" fill="#AAAAAA"/>
<path d="M890 88.6667H90V497H890V88.6667Z" fill="#AAAAAA"/>
<path d="M364.472 289.213H360.94C360.424 289.213 360.166 288.914 360.166 288.39V257.085C360.166 256.568 360.424 256.262 360.94 256.262H364.472C364.989 256.262 365.246 256.562 365.246 257.085V288.397C365.246 288.914 364.989 289.22 364.472 289.22V289.213Z" fill="#1D1D1B"/>
<path d="M511.4 256.908C512.004 257.255 512.092 257.555 512.092 258.03V260.227C512.092 260.832 511.792 260.961 511.229 260.873C509.592 260.614 506.489 260.356 502.658 260.356C494.473 260.356 493.135 264.368 493.135 269.977V275.716C493.135 281.843 493.563 285.16 503.262 285.16C504.73 285.16 506.237 285.072 507.529 284.732C508.175 284.562 508.212 284.304 508.212 283.74V275.458H502.223C501.666 275.458 501.401 275.158 501.401 274.635V271.657C501.401 271.099 501.66 270.834 502.264 270.882H512.392C512.908 270.882 513.212 271.14 513.212 271.657V287.139C513.254 287.962 512.954 288.431 512.262 288.649C509.287 289.601 505.28 289.859 502.699 289.859C492.055 289.859 488.048 286.711 488.048 275.798V270.583C488.048 259.153 493.047 255.617 502.312 255.617C506.061 255.617 510.067 256.133 511.4 256.908Z" fill="#1D1D1B"/>
<path d="M519.8 256.262H531.05C538.287 256.262 542.425 257.643 542.425 265.102V266.57C542.425 271.874 539.667 274.377 536.783 275.369L543.287 288.35C543.546 288.907 543.287 289.213 542.725 289.213H538.675C538.25 289.213 537.941 288.995 537.683 288.438L531.612 276.015H524.075V288.397C524.075 288.914 523.817 289.22 523.3 289.22H519.808C519.292 289.22 519.033 288.921 519.033 288.397V257.085C519.033 256.568 519.292 256.262 519.808 256.262H519.8ZM524.067 271.527H531.05C537.812 271.527 537.337 268.637 537.337 266.74V264.714C537.337 261.913 535.7 260.75 531.05 260.75H524.067V271.534V271.527Z" fill="#1D1D1B"/>
<path d="M552.846 289.213H549.313C548.796 289.213 548.538 288.914 548.538 288.39V257.085C548.538 256.568 548.796 256.262 549.313 256.262H552.846C553.363 256.262 553.621 256.562 553.621 257.085V288.397C553.621 288.914 553.363 289.22 552.846 289.22V289.213Z" fill="#1D1D1B"/>
<path d="M582.879 257.037V260.057C582.879 260.573 582.579 260.832 582.058 260.832H572.842V288.39C572.842 288.907 572.583 289.213 572.067 289.213H568.533C568.017 289.213 567.762 288.914 567.762 288.39V260.832H558.542C558.029 260.832 557.721 260.573 557.721 260.057V257.037C557.721 256.521 558.021 256.262 558.542 256.262H582.067C582.579 256.262 582.887 256.521 582.887 257.037H582.879Z" fill="#1D1D1B"/>
<path d="M479.15 255.61H375.102V288.961H479.15V255.61Z" fill="black"/>
<path d="M118.75 47H90V497H118.75V47Z" fill="#AAAAAA"/>
<path d="M97.2915 265.542H111.458" stroke="black" stroke-width="2" stroke-linecap="round"/>
<path d="M97.2915 270.958H108.542" stroke="black" stroke-width="2" stroke-linecap="round"/>
<path d="M97.2915 276.375H106.042" stroke="black" stroke-width="2" stroke-linecap="round"/>
<path d="M876.146 266.896L881.25 272L876.146 277.104V266.896ZM869.583 272H881.25H869.583Z" stroke="black" stroke-linecap="round" stroke-linejoin="round"/>
<path d="M599.392 264.814C599.392 264.814 599.383 264.847 599.379 264.86C599.3 264.852 599.212 264.843 599.146 264.84C598.662 264.809 598.237 264.845 597.858 264.944C597.025 265.166 596.35 265.85 595.829 267C595.437 267.859 595.241 268.591 595.254 269.192C595.258 269.465 595.321 269.713 595.442 269.938C595.562 270.163 595.712 270.319 595.9 270.4C596.037 270.463 596.183 270.484 596.337 270.46C596.487 270.437 596.604 270.375 596.692 270.281C596.962 269.962 597.179 269.781 597.341 269.733C597.5 269.685 597.787 269.723 598.2 269.847C598.45 269.924 598.691 269.988 598.912 270.037C599.029 271.314 599.312 272.6 599.783 273.848C600.671 276.207 602.112 278.173 603.871 279.626L608.662 269.046L599.392 264.814Z" fill="black"/>
<path d="M609.533 256.865C609.496 256.475 609.412 256.083 609.262 255.692C608.462 253.563 606.208 252.256 604.304 252.973C602.396 253.69 601.563 256.158 602.363 258.287C602.488 258.623 602.654 258.928 602.842 259.212C601.671 260.23 600.738 261.52 600.062 262.978L609.462 267.266L613.713 257.882C612.371 257.274 610.95 256.92 609.529 256.863L609.533 256.865Z" fill="black"/>
<path d="M621.388 259.363C620.996 258.91 620.371 258.487 619.513 258.094C618.363 257.572 617.4 257.504 616.629 257.886C616.279 258.055 615.933 258.314 615.592 258.655C615.542 258.703 615.488 258.765 615.433 258.823L611.242 268.076L621.783 272.886C622.146 270.64 621.938 268.21 621.05 265.851C620.579 264.602 619.946 263.449 619.192 262.411C619.325 262.223 619.467 262.02 619.604 261.798C619.833 261.432 620.021 261.215 620.175 261.145C620.329 261.075 620.608 261.069 621.025 261.13C621.15 261.145 621.279 261.113 621.408 261.032C621.538 260.95 621.633 260.839 621.7 260.697C621.779 260.516 621.796 260.298 621.738 260.049C621.683 259.799 621.563 259.569 621.388 259.363Z" fill="black"/>
<path d="M625.862 278.111C625.737 278.024 625.612 277.98 625.483 277.987C625.067 278.019 624.783 277.996 624.637 277.918C624.492 277.84 624.312 277.61 624.108 277.23C623.617 276.313 623.133 275.678 622.662 275.321C622.292 275.04 621.837 274.878 621.312 274.826L621.317 274.816L610.437 269.854L605.496 280.769L605.5 280.768C605.137 281.162 604.904 281.583 604.808 282.04C604.692 282.618 604.746 283.413 604.983 284.425C605.079 284.848 605.1 285.136 605.037 285.292C604.979 285.448 604.783 285.655 604.446 285.903C604.342 285.983 604.275 286.095 604.242 286.246C604.204 286.393 604.217 286.538 604.275 286.685C604.342 286.87 604.487 287.033 604.708 287.172C604.925 287.307 605.167 287.386 605.437 287.409C606.033 287.456 606.775 287.31 607.662 286.977C608.846 286.532 609.571 285.9 609.85 285.087C609.975 284.724 610.037 284.295 610.042 283.811C610.042 283.448 610.008 282.952 609.942 282.314C611.587 282.52 613.275 282.353 614.896 281.743C616.517 281.133 617.896 280.149 619 278.908C619.371 279.431 619.675 279.826 619.912 280.098C620.233 280.461 620.562 280.742 620.9 280.933C621.642 281.366 622.604 281.358 623.787 280.913C624.671 280.58 625.325 280.202 625.746 279.772C625.933 279.576 626.067 279.355 626.142 279.111C626.212 278.867 626.217 278.649 626.146 278.459C626.092 278.313 626 278.197 625.879 278.109L625.862 278.111Z" fill="black"/>
<path d="M598.333 47H490V88.6667H598.333V47Z" fill="#AAAAAA"/>
<path d="M519.058 62.7576V70.3334H517.917V62.7576H519.058ZM527.391 70.3334H524.937V62.7576H527.467C528.212 62.7576 528.85 62.9093 529.379 63.2126C529.912 63.5135 530.321 63.9463 530.604 64.511C530.891 65.0733 531.033 65.7477 531.033 66.5344C531.033 67.3236 530.891 68.0017 530.6 68.5689C530.316 69.1361 529.9 69.5726 529.358 69.8784C528.816 70.1817 528.158 70.3334 527.391 70.3334ZM526.083 69.3346H527.329C527.904 69.3346 528.383 69.2261 528.767 69.0091C529.15 68.7896 529.433 68.4727 529.625 68.0584C529.816 67.6417 529.908 67.1337 529.908 66.5344C529.908 65.9401 529.816 65.4358 529.625 65.0215C529.437 64.6072 529.158 64.2928 528.783 64.0782C528.412 63.8637 527.95 63.7564 527.4 63.7564H526.083V69.3346ZM539.766 66.5455C539.766 67.3544 539.617 68.0498 539.321 68.6318C539.025 69.2113 538.621 69.6577 538.104 69.9709C537.591 70.2816 537.008 70.437 536.354 70.437C535.7 70.437 535.112 70.2816 534.6 69.9709C534.083 69.6577 533.679 69.2101 533.383 68.6281C533.087 68.0461 532.942 67.3519 532.942 66.5455C532.942 65.7366 533.087 65.0424 533.383 64.4629C533.679 63.8809 534.083 63.4346 534.6 63.1238C535.112 62.8106 535.7 62.6541 536.354 62.6541C537.008 62.6541 537.591 62.8106 538.104 63.1238C538.621 63.4346 539.025 63.8809 539.321 64.4629C539.617 65.0424 539.766 65.7366 539.766 66.5455ZM538.633 66.5455C538.633 65.929 538.533 65.4099 538.333 64.9882C538.137 64.564 537.867 64.2434 537.521 64.0264C537.179 63.8069 536.787 63.6972 536.354 63.6972C535.917 63.6972 535.529 63.8069 535.187 64.0264C534.841 64.2434 534.571 64.564 534.371 64.9882C534.175 65.4099 534.075 65.929 534.075 66.5455C534.075 67.162 534.175 67.6823 534.371 68.1065C534.571 68.5282 534.841 68.8488 535.187 69.0683C535.529 69.2853 535.917 69.3938 536.354 69.3938C536.787 69.3938 537.179 69.2853 537.521 69.0683C537.867 68.8488 538.137 68.5282 538.333 68.1065C538.533 67.6823 538.633 67.162 538.633 66.5455ZM550.533 65.1509C550.462 64.9266 550.366 64.7256 550.246 64.548C550.125 64.368 549.983 64.2151 549.821 64.0893C549.654 63.9611 549.466 63.8637 549.254 63.7971C549.041 63.7305 548.812 63.6972 548.562 63.6972C548.133 63.6972 547.75 63.8069 547.408 64.0264C547.062 64.2459 546.791 64.5677 546.591 64.9919C546.396 65.4136 546.296 65.9302 546.296 66.5418C546.296 67.1558 546.396 67.675 546.596 68.0991C546.796 68.5233 547.071 68.8451 547.417 69.0646C547.767 69.2841 548.162 69.3938 548.604 69.3938C549.017 69.3938 549.375 69.31 549.683 69.1423C549.992 68.9746 550.229 68.7378 550.396 68.4321C550.566 68.1238 550.65 67.7613 550.65 67.3445L550.946 67.4H548.779V66.4567H551.758V67.3186C551.758 67.9548 551.621 68.5073 551.35 68.9758C551.083 69.4419 550.708 69.802 550.233 70.056C549.758 70.31 549.217 70.437 548.604 70.437C547.921 70.437 547.316 70.2791 546.8 69.9635C546.283 69.6478 545.883 69.2002 545.596 68.6207C545.304 68.0387 545.162 67.3482 545.162 66.5492C545.162 65.945 545.246 65.4025 545.412 64.9216C545.579 64.4407 545.816 64.0326 546.121 63.6972C546.425 63.3593 546.783 63.1016 547.196 62.9241C547.612 62.7441 548.062 62.6541 548.554 62.6541C548.962 62.6541 549.346 62.7145 549.696 62.8353C550.05 62.9561 550.367 63.1276 550.646 63.3495C550.921 63.5714 551.154 63.8353 551.337 64.1411C551.516 64.4444 551.641 64.7811 551.704 65.1509H550.533ZM553.937 70.3334V62.7576H556.637C557.225 62.7576 557.712 62.8587 558.1 63.061C558.487 63.2632 558.779 63.5431 558.971 63.9006C559.162 64.2558 559.258 64.6663 559.258 65.1325C559.258 65.5961 559.162 66.0042 558.967 66.3568C558.775 66.7071 558.483 66.9796 558.096 67.1743C557.708 67.3692 557.221 67.4666 556.633 67.4666H554.587V66.4826H556.529C556.9 66.4826 557.2 66.4296 557.433 66.3236C557.666 66.2175 557.837 66.0634 557.946 65.8612C558.054 65.659 558.108 65.4161 558.108 65.1325C558.108 64.8464 558.054 64.5986 557.942 64.3889C557.833 64.1793 557.662 64.019 557.429 63.9081C557.196 63.7946 556.892 63.7379 556.517 63.7379H555.079V70.3334H553.937ZM557.679 66.9154L559.55 70.3334H558.246L556.412 66.9154H557.679ZM562.525 62.7576V70.3334H561.379V62.7576H562.525ZM564.542 63.7416V62.7576H570.408V63.7416H568.042V70.3334H566.904V63.7416H564.542Z" fill="black"/>
<path d="M706.667 47H598.333V88.6667H706.667V47Z" fill="#AAAAAA"/>
<path d="M622.392 62.7576V70.3334H621.25V62.7576H622.392ZM629.754 70.3334L627.654 62.7576H628.854L630.333 68.6244H630.404L631.938 62.7576H633.129L634.662 68.6281H634.733L636.204 62.7576H637.413L635.308 70.3334H634.158L632.563 64.659H632.504L630.908 70.3334H629.754ZM640.325 62.7576V70.3334H639.183V62.7576H640.325ZM642.721 70.3334V62.7576H643.863V69.3494H647.296V70.3334H642.721ZM649.329 70.3334V62.7576H650.471V69.3494H653.904V70.3334H649.329ZM664.55 65.1509C664.479 64.9266 664.383 64.7256 664.262 64.548C664.146 64.368 664.004 64.2151 663.837 64.0893C663.671 63.9611 663.483 63.8637 663.271 63.7971C663.062 63.7305 662.829 63.6972 662.579 63.6972C662.154 63.6972 661.767 63.8069 661.425 64.0264C661.083 64.2459 660.812 64.5677 660.612 64.9919C660.412 65.4136 660.317 65.9302 660.317 66.5418C660.317 67.1558 660.417 67.675 660.617 68.0991C660.817 68.5233 661.087 68.8451 661.437 69.0646C661.783 69.2841 662.179 69.3938 662.625 69.3938C663.038 69.3938 663.396 69.31 663.7 69.1423C664.008 68.9746 664.246 68.7378 664.412 68.4321C664.583 68.1238 664.671 67.7613 664.671 67.3445L664.967 67.4H662.796V66.4567H665.775V67.3186C665.775 67.9548 665.642 68.5073 665.367 68.9758C665.1 69.4419 664.729 69.802 664.25 70.056C663.779 70.31 663.233 70.437 662.625 70.437C661.938 70.437 661.337 70.2791 660.817 69.9635C660.304 69.6478 659.9 69.2002 659.612 68.6207C659.325 68.0387 659.179 67.3482 659.179 66.5492C659.179 65.945 659.263 65.4025 659.433 64.9216C659.6 64.4407 659.833 64.0326 660.137 63.6972C660.442 63.3593 660.804 63.1016 661.213 62.9241C661.629 62.7441 662.079 62.6541 662.571 62.6541C662.983 62.6541 663.363 62.7145 663.717 62.8353C664.071 62.9561 664.387 63.1276 664.662 63.3495C664.942 63.5714 665.171 63.8353 665.354 64.1411C665.537 64.4444 665.658 64.7811 665.725 65.1509H664.55ZM667.954 70.3334V62.7576H670.654C671.242 62.7576 671.729 62.8587 672.117 63.061C672.508 63.2632 672.796 63.5431 672.992 63.9006C673.183 64.2558 673.279 64.6663 673.279 65.1325C673.279 65.5961 673.179 66.0042 672.988 66.3568C672.796 66.7071 672.504 66.9796 672.112 67.1743C671.725 67.3692 671.237 67.4666 670.654 67.4666H668.608V66.4826H670.55C670.917 66.4826 671.221 66.4296 671.45 66.3236C671.687 66.2175 671.858 66.0634 671.967 65.8612C672.075 65.659 672.129 65.4161 672.129 65.1325C672.129 64.8464 672.071 64.5986 671.962 64.3889C671.854 64.1793 671.683 64.019 671.446 63.9081C671.217 63.7946 670.913 63.7379 670.533 63.7379H669.1V70.3334H667.954ZM671.696 66.9154L673.567 70.3334H672.267L670.429 66.9154H671.696ZM676.542 62.7576V70.3334H675.4V62.7576H676.542ZM678.563 63.7416V62.7576H684.425V63.7416H682.062V70.3334H680.921V63.7416H678.563Z" fill="black"/>
<path d="M490 47.4167H381.667V89.0834H490V47.4167Z" fill="#AAAAAA"/>
<path d="M410.309 62.7576V70.3334H409.166V62.7576H410.309ZM416.829 70.3334H415.615L418.341 62.7576H419.662L422.388 70.3334H421.175L419.033 64.1337H418.974L416.829 70.3334ZM417.032 67.3667H420.968V68.3285H417.032V67.3667ZM424.211 62.7576H425.599L428.01 68.6466H428.099L430.511 62.7576H431.898V70.3334H430.811V64.8513H430.74L428.506 70.3223H427.604L425.369 64.8476H425.299V70.3334H424.211V62.7576ZM442.902 65.1509C442.831 64.9266 442.734 64.7256 442.614 64.548C442.495 64.368 442.353 64.2151 442.188 64.0893C442.023 63.9611 441.834 63.8637 441.622 63.7971C441.413 63.7305 441.182 63.6972 440.93 63.6972C440.504 63.6972 440.119 63.8069 439.776 64.0264C439.434 64.2459 439.162 64.5677 438.962 64.9919C438.765 65.4136 438.666 65.9302 438.666 66.5418C438.666 67.1558 438.766 67.675 438.966 68.0991C439.166 68.5233 439.44 68.8451 439.787 69.0646C440.135 69.2841 440.531 69.3938 440.975 69.3938C441.386 69.3938 441.746 69.31 442.051 69.1423C442.359 68.9746 442.597 68.7378 442.765 68.4321C442.935 68.1238 443.02 67.7613 443.02 67.3445L443.316 67.4H441.149V66.4567H444.126V67.3186C444.126 67.9548 443.991 68.5073 443.719 68.9758C443.451 69.4419 443.078 69.802 442.602 70.056C442.129 70.31 441.586 70.437 440.975 70.437C440.289 70.437 439.687 70.2791 439.17 69.9635C438.654 69.6478 438.252 69.2002 437.964 68.6207C437.675 68.0387 437.531 67.3482 437.531 66.5492C437.531 65.945 437.615 65.4025 437.782 64.9216C437.95 64.4407 438.186 64.0326 438.489 63.6972C438.795 63.3593 439.154 63.1016 439.565 62.9241C439.98 62.7441 440.432 62.6541 440.923 62.6541C441.332 62.6541 441.714 62.7145 442.066 62.8353C442.421 62.9561 442.737 63.1276 443.013 63.3495C443.291 63.5714 443.522 63.8353 443.705 64.1411C443.887 64.4444 444.011 64.7811 444.075 65.1509H442.902ZM446.306 70.3334V62.7576H449.007C449.594 62.7576 450.081 62.8587 450.468 63.061C450.858 63.2632 451.149 63.5431 451.341 63.9006C451.534 64.2558 451.629 64.6663 451.629 65.1325C451.629 65.5961 451.532 66.0042 451.337 66.3568C451.145 66.7071 450.854 66.9796 450.464 67.1743C450.077 67.3692 449.59 67.4666 449.003 67.4666H446.958V66.4826H448.9C449.269 66.4826 449.57 66.4296 449.802 66.3236C450.036 66.2175 450.208 66.0634 450.316 65.8612C450.425 65.659 450.479 65.4161 450.479 65.1325C450.479 64.8464 450.424 64.5986 450.313 64.3889C450.204 64.1793 450.033 64.019 449.799 63.9081C449.567 63.7946 449.262 63.7379 448.885 63.7379H447.449V70.3334H446.306ZM450.046 66.9154L451.918 70.3334H450.616L448.781 66.9154H450.046ZM454.893 62.7576V70.3334H453.749V62.7576H454.893ZM456.913 63.7416V62.7576H462.776V63.7416H460.412V70.3334H459.273V63.7416H456.913Z" fill="black"/>
<path d="M381.667 47.4167H273.333V89.0834H381.667V47.4167Z" fill="#AAAAAA"/>
<path d="M323.115 64.2775C323.115 64.2775 323.105 64.2915 323.101 64.2975C323.065 64.2795 323.025 64.2595 322.993 64.2455C322.767 64.1434 322.554 64.0834 322.357 64.0634C321.916 64.0194 321.468 64.2255 321.009 64.6835C320.667 65.0255 320.441 65.3416 320.337 65.6316C320.291 65.7636 320.275 65.8937 320.293 66.0237C320.311 66.1537 320.355 66.2557 320.429 66.3277C320.485 66.3837 320.551 66.4197 320.629 66.4357C320.705 66.4517 320.773 66.4437 320.831 66.4137C321.019 66.3097 321.156 66.2617 321.242 66.2677C321.328 66.2737 321.458 66.3437 321.634 66.4777C321.74 66.5598 321.844 66.6338 321.942 66.6978C321.768 67.3318 321.672 67.9999 321.672 68.684C321.672 69.9762 322.01 71.1803 322.591 72.1944L326.803 67.9819L323.115 64.2775Z" fill="black"/>
<path d="M329.421 62.2933C329.473 62.0993 329.503 61.8952 329.503 61.6812C329.503 60.5151 328.657 59.481 327.612 59.481C326.567 59.481 325.721 60.5151 325.721 61.6812C325.721 61.8652 325.745 62.0413 325.783 62.2113C325.038 62.4893 324.356 62.9394 323.77 63.5175L327.508 67.2719L331.245 63.5355C330.71 63.0014 330.092 62.5753 329.419 62.2913L329.421 62.2933Z" fill="black"/>
<path d="M334.663 65.6316C334.557 65.3436 334.333 65.0275 333.991 64.6835C333.532 64.2255 333.084 64.0194 332.644 64.0634C332.446 64.0814 332.233 64.1434 332.007 64.2455C331.975 64.2595 331.937 64.2795 331.901 64.2975L328.217 67.9819L332.41 72.1924C332.99 71.1803 333.328 69.9762 333.328 68.684C333.328 67.9999 333.232 67.3318 333.058 66.6978C333.156 66.6318 333.26 66.5598 333.366 66.4777C333.542 66.3437 333.672 66.2737 333.758 66.2677C333.844 66.2617 333.981 66.3097 334.169 66.4137C334.227 66.4437 334.295 66.4517 334.371 66.4357C334.447 66.4197 334.513 66.3837 334.571 66.3277C334.643 66.2557 334.689 66.1537 334.707 66.0237C334.725 65.8937 334.709 65.7616 334.663 65.6316Z" fill="black"/>
<path d="M333.426 75.437C333.382 75.373 333.33 75.329 333.266 75.309C333.06 75.249 332.928 75.187 332.871 75.1229C332.816 75.0589 332.771 74.9169 332.741 74.6969C332.671 74.1689 332.555 73.7768 332.393 73.5208C332.265 73.3187 332.077 73.1587 331.833 73.0387L331.837 73.0347L327.51 68.6902L323.165 73.0367H323.167C322.923 73.1607 322.735 73.3207 322.606 73.5228C322.444 73.7788 322.328 74.1709 322.258 74.6989C322.228 74.9189 322.186 75.0609 322.128 75.125C322.072 75.189 321.94 75.253 321.734 75.311C321.67 75.331 321.618 75.373 321.574 75.439C321.53 75.503 321.51 75.575 321.51 75.655C321.51 75.757 321.55 75.8611 321.63 75.9671C321.71 76.0711 321.812 76.1531 321.938 76.2131C322.216 76.3431 322.599 76.4071 323.085 76.4071C323.733 76.4071 324.196 76.2351 324.476 75.8951C324.602 75.743 324.71 75.549 324.798 75.317C324.864 75.143 324.938 74.8989 325.022 74.5809C325.775 74.9769 326.615 75.201 327.504 75.201C328.392 75.201 329.231 74.9769 329.986 74.5809C330.07 74.8989 330.144 75.143 330.21 75.317C330.298 75.549 330.406 75.743 330.532 75.8951C330.81 76.2371 331.274 76.4071 331.923 76.4071C332.407 76.4071 332.789 76.3431 333.07 76.2131C333.196 76.1531 333.3 76.0711 333.378 75.9671C333.458 75.8631 333.498 75.759 333.498 75.655C333.498 75.575 333.476 75.503 333.434 75.439L333.426 75.437Z" fill="black"/>
<path d="M811.821 268.856V274.917H810.908V268.856H811.821ZM817.037 274.917H816.067L818.25 268.856H819.304L821.487 274.917H820.517L818.8 269.957H818.754L817.037 274.917ZM817.2 272.543H820.35V273.313H817.2V272.543ZM822.946 268.856H824.054L825.983 273.567H826.054L827.983 268.856H829.096V274.917H828.225V270.531H828.167L826.379 274.908H825.658L823.871 270.528H823.812V274.917H822.946V268.856ZM837.896 270.771C837.841 270.591 837.762 270.431 837.667 270.288C837.571 270.144 837.458 270.022 837.325 269.921C837.191 269.819 837.042 269.741 836.875 269.688C836.704 269.634 836.521 269.608 836.321 269.608C835.979 269.608 835.671 269.696 835.396 269.871C835.121 270.047 834.904 270.304 834.746 270.643C834.587 270.981 834.508 271.394 834.508 271.883C834.508 272.375 834.587 272.79 834.75 273.129C834.908 273.469 835.125 273.726 835.404 273.902C835.683 274.077 836 274.165 836.354 274.165C836.683 274.165 836.971 274.098 837.216 273.964C837.462 273.83 837.654 273.641 837.787 273.396C837.925 273.149 837.992 272.859 837.992 272.526L838.229 272.57H836.496V271.816H838.875V272.505C838.875 273.014 838.767 273.456 838.55 273.831C838.337 274.203 838.037 274.492 837.658 274.695C837.279 274.898 836.846 275 836.354 275C835.808 275 835.325 274.873 834.912 274.621C834.5 274.368 834.179 274.01 833.946 273.547C833.717 273.081 833.6 272.528 833.6 271.889C833.6 271.406 833.667 270.972 833.8 270.587C833.937 270.203 834.125 269.876 834.367 269.608C834.612 269.338 834.9 269.131 835.229 268.989C835.558 268.846 835.921 268.773 836.312 268.773C836.642 268.773 836.946 268.822 837.229 268.918C837.512 269.015 837.767 269.152 837.987 269.33C838.208 269.507 838.392 269.718 838.537 269.963C838.683 270.206 838.783 270.475 838.833 270.771H837.896ZM840.621 274.917V268.856H842.779C843.25 268.856 843.642 268.937 843.95 269.099C844.262 269.261 844.496 269.485 844.65 269.771C844.8 270.055 844.879 270.383 844.879 270.756C844.879 271.127 844.8 271.453 844.646 271.736C844.492 272.016 844.258 272.234 843.946 272.39C843.637 272.546 843.246 272.623 842.779 272.623H841.142V271.836H842.696C842.992 271.836 843.233 271.794 843.416 271.709C843.604 271.624 843.741 271.501 843.829 271.339C843.916 271.177 843.958 270.983 843.958 270.756C843.958 270.527 843.912 270.329 843.825 270.161C843.737 269.993 843.6 269.865 843.412 269.776C843.229 269.686 842.983 269.641 842.683 269.641H841.533V274.917H840.621ZM843.612 272.183L845.108 274.917H844.067L842.6 272.183H843.612ZM847.487 268.856V274.917H846.575V268.856H847.487ZM849.104 269.643V268.856H853.796V269.643H851.904V274.917H850.992V269.643H849.104Z" fill="black"/>
<path d="M740.374 47H239.626V497H740.374V47Z" fill="black" fill-opacity="0.25"/>
<line x1="0.5" x2="0.5" y2="571" stroke="black" stroke-opacity="0.09"/>
<line x1="80.5" x2="80.5" y2="571" stroke="black" stroke-opacity="0.09"/>
<line x1="40.5" x2="40.5" y2="571" stroke="black" stroke-opacity="0.09"/>
<line x1="120.5" x2="120.5" y2="571" stroke="black" stroke-opacity="0.09"/>
<line x1="20.5" x2="20.5" y2="571" stroke="black" stroke-opacity="0.09"/>
<line x1="100.5" x2="100.5" y2="571" stroke="black" stroke-opacity="0.09"/>
<line x1="60.5" x2="60.5" y2="571" stroke="black" stroke-opacity="0.09"/>
<line x1="140.5" x2="140.5" y2="571" stroke="black" stroke-opacity="0.09"/>
<line x1="160.5" x2="160.5" y2="571" stroke="black" stroke-opacity="0.09"/>
<line x1="240.5" x2="240.5" y2="571" stroke="black" stroke-opacity="0.09"/>
<line x1="200.5" x2="200.5" y2="571" stroke="black" stroke-opacity="0.09"/>
<line x1="280.5" x2="280.5" y2="571" stroke="black" stroke-opacity="0.09"/>
<line x1="180.5" x2="180.5" y2="571" stroke="black" stroke-opacity="0.09"/>
<line x1="260.5" x2="260.5" y2="571" stroke="black" stroke-opacity="0.09"/>
<line x1="220.5" x2="220.5" y2="571" stroke="black" stroke-opacity="0.09"/>
<line x1="300.5" x2="300.5" y2="571" stroke="black" stroke-opacity="0.09"/>
<line x1="320.5" x2="320.5" y2="571" stroke="black" stroke-opacity="0.09"/>
<line x1="400.5" x2="400.5" y2="571" stroke="black" stroke-opacity="0.09"/>
<line x1="360.5" x2="360.5" y2="571" stroke="black" stroke-opacity="0.09"/>
<line x1="440.5" x2="440.5" y2="571" stroke="black" stroke-opacity="0.09"/>
<line x1="340.5" x2="340.5" y2="571" stroke="black" stroke-opacity="0.09"/>
<line x1="420.5" x2="420.5" y2="571" stroke="black" stroke-opacity="0.09"/>
<line x1="380.5" x2="380.5" y2="571" stroke="black" stroke-opacity="0.09"/>
<line x1="460.5" x2="460.5" y2="571" stroke="black" stroke-opacity="0.09"/>
<line x1="480.5" x2="480.5" y2="571" stroke="black" stroke-opacity="0.09"/>
<line x1="560.5" x2="560.5" y2="571" stroke="black" stroke-opacity="0.09"/>
<line x1="520.5" x2="520.5" y2="571" stroke="black" stroke-opacity="0.09"/>
<line x1="600.5" x2="600.5" y2="571" stroke="black" stroke-opacity="0.09"/>
<line x1="500.5" x2="500.5" y2="571" stroke="black" stroke-opacity="0.09"/>
<line x1="580.5" x2="580.5" y2="571" stroke="black" stroke-opacity="0.09"/>
<line x1="540.5" x2="540.5" y2="571" stroke="black" stroke-opacity="0.09"/>
<line x1="620.5" x2="620.5" y2="571" stroke="black" stroke-opacity="0.09"/>
<line x1="640.5" x2="640.5" y2="571" stroke="black" stroke-opacity="0.09"/>
<line x1="720.5" x2="720.5" y2="571" stroke="black" stroke-opacity="0.09"/>
<line x1="680.5" x2="680.5" y2="571" stroke="black" stroke-opacity="0.09"/>
<line x1="760.5" x2="760.5" y2="571" stroke="black" stroke-opacity="0.09"/>
<line x1="660.5" x2="660.5" y2="571" stroke="black" stroke-opacity="0.09"/>
<line x1="740.5" x2="740.5" y2="571" stroke="black" stroke-opacity="0.09"/>
<line x1="700.5" x2="700.5" y2="571" stroke="black" stroke-opacity="0.09"/>
<line x1="780.5" x2="780.5" y2="571" stroke="black" stroke-opacity="0.09"/>
<line x1="800.5" x2="800.5" y2="571" stroke="black" stroke-opacity="0.09"/>
<line x1="880.5" x2="880.5" y2="571" stroke="black" stroke-opacity="0.09"/>
<line x1="840.5" x2="840.5" y2="571" stroke="black" stroke-opacity="0.09"/>
<line x1="920.5" x2="920.5" y2="571" stroke="black" stroke-opacity="0.09"/>
<line x1="820.5" x2="820.5" y2="571" stroke="black" stroke-opacity="0.09"/>
<line x1="900.5" x2="900.5" y2="571" stroke="black" stroke-opacity="0.09"/>
<line x1="860.5" x2="860.5" y2="571" stroke="black" stroke-opacity="0.09"/>
<line x1="940.5" x2="940.5" y2="571" stroke="black" stroke-opacity="0.09"/>
<line x1="960.5" x2="960.5" y2="571" stroke="black" stroke-opacity="0.09"/>
<line x1="980.5" x2="980.5" y2="571" stroke="black" stroke-opacity="0.09"/>
<path d="M600.964 526.091V537H599.643V527.476H599.58L596.916 529.244V527.902L599.643 526.091H600.964ZM608.325 525.942C608.772 525.945 609.22 526.031 609.667 526.197C610.115 526.364 610.523 526.641 610.892 527.028C611.262 527.412 611.558 527.936 611.782 528.6C612.006 529.264 612.118 530.097 612.118 531.098C612.118 532.067 612.025 532.929 611.841 533.681C611.659 534.431 611.397 535.063 611.052 535.578C610.711 536.093 610.296 536.483 609.806 536.75C609.319 537.016 608.769 537.149 608.154 537.149C607.544 537.149 606.999 537.028 606.519 536.787C606.043 536.542 605.653 536.203 605.347 535.77C605.045 535.333 604.852 534.827 604.767 534.251H606.066C606.184 534.752 606.416 535.166 606.764 535.493C607.116 535.816 607.579 535.977 608.154 535.977C608.996 535.977 609.66 535.61 610.147 534.875C610.637 534.14 610.882 533.101 610.882 531.759H610.797C610.598 532.057 610.362 532.314 610.088 532.531C609.815 532.748 609.511 532.914 609.177 533.032C608.843 533.149 608.488 533.207 608.112 533.207C607.487 533.207 606.913 533.053 606.391 532.744C605.873 532.431 605.457 532.004 605.145 531.46C604.836 530.913 604.681 530.288 604.681 529.585C604.681 528.918 604.831 528.307 605.129 527.753C605.431 527.195 605.853 526.751 606.397 526.421C606.944 526.091 607.586 525.931 608.325 525.942ZM608.325 527.114C607.877 527.114 607.474 527.225 607.116 527.449C606.761 527.669 606.478 527.968 606.269 528.344C606.063 528.717 605.96 529.131 605.96 529.585C605.96 530.04 606.059 530.453 606.258 530.826C606.461 531.196 606.736 531.49 607.084 531.711C607.435 531.927 607.835 532.036 608.282 532.036C608.62 532.036 608.934 531.97 609.225 531.838C609.516 531.703 609.77 531.521 609.987 531.29C610.207 531.055 610.379 530.791 610.504 530.496C610.628 530.198 610.69 529.887 610.69 529.564C610.69 529.138 610.587 528.738 610.381 528.365C610.179 527.993 609.898 527.691 609.539 527.46C609.184 527.229 608.779 527.114 608.325 527.114ZM614.962 537V536.041L618.563 532.099C618.986 531.638 619.334 531.237 619.607 530.896C619.881 530.551 620.083 530.228 620.214 529.926C620.349 529.621 620.417 529.301 620.417 528.967C620.417 528.584 620.324 528.252 620.14 527.971C619.959 527.691 619.71 527.474 619.394 527.321C619.078 527.169 618.723 527.092 618.329 527.092C617.91 527.092 617.544 527.179 617.231 527.353C616.922 527.524 616.683 527.763 616.512 528.072C616.345 528.381 616.262 528.744 616.262 529.159H615.005C615.005 528.52 615.152 527.959 615.447 527.476C615.742 526.993 616.143 526.616 616.651 526.347C617.162 526.077 617.736 525.942 618.371 525.942C619.011 525.942 619.577 526.077 620.071 526.347C620.564 526.616 620.951 526.98 621.232 527.439C621.512 527.897 621.653 528.406 621.653 528.967C621.653 529.369 621.58 529.761 621.434 530.145C621.292 530.525 621.044 530.949 620.688 531.418C620.337 531.883 619.849 532.451 619.224 533.122L616.773 535.743V535.828H621.844V537H614.962ZM628.353 537.149C627.55 537.149 626.866 536.931 626.302 536.494C625.737 536.054 625.306 535.416 625.007 534.582C624.709 533.744 624.56 532.732 624.56 531.545C624.56 530.366 624.709 529.36 625.007 528.525C625.309 527.687 625.742 527.048 626.307 526.608C626.875 526.164 627.557 525.942 628.353 525.942C629.148 525.942 629.828 526.164 630.393 526.608C630.961 527.048 631.394 527.687 631.692 528.525C631.994 529.36 632.145 530.366 632.145 531.545C632.145 532.732 631.996 533.744 631.698 534.582C631.399 535.416 630.968 536.054 630.403 536.494C629.839 536.931 629.155 537.149 628.353 537.149ZM628.353 535.977C629.148 535.977 629.766 535.594 630.206 534.827C630.647 534.06 630.867 532.966 630.867 531.545C630.867 530.601 630.766 529.797 630.563 529.132C630.364 528.468 630.077 527.962 629.7 527.614C629.327 527.266 628.878 527.092 628.353 527.092C627.564 527.092 626.948 527.481 626.504 528.259C626.06 529.033 625.838 530.129 625.838 531.545C625.838 532.49 625.938 533.293 626.137 533.953C626.335 534.614 626.621 535.116 626.994 535.461C627.371 535.805 627.823 535.977 628.353 535.977ZM634.941 540.068V528.818H636.155V530.118H636.304C636.397 529.976 636.524 529.795 636.688 529.575C636.855 529.351 637.093 529.152 637.402 528.978C637.714 528.8 638.137 528.712 638.669 528.712C639.358 528.712 639.965 528.884 640.491 529.228C641.017 529.573 641.427 530.061 641.722 530.693C642.016 531.325 642.164 532.071 642.164 532.93C642.164 533.797 642.016 534.548 641.722 535.184C641.427 535.816 641.018 536.306 640.496 536.654C639.974 536.998 639.372 537.17 638.691 537.17C638.165 537.17 637.744 537.083 637.428 536.909C637.112 536.732 636.869 536.531 636.698 536.308C636.528 536.08 636.397 535.892 636.304 535.743H636.198V540.068H634.941ZM636.176 532.909C636.176 533.527 636.267 534.072 636.448 534.544C636.629 535.013 636.894 535.381 637.242 535.647C637.59 535.91 638.016 536.041 638.52 536.041C639.046 536.041 639.484 535.903 639.836 535.626C640.191 535.345 640.457 534.969 640.635 534.496C640.816 534.021 640.907 533.491 640.907 532.909C640.907 532.334 640.818 531.815 640.64 531.354C640.466 530.888 640.202 530.521 639.847 530.251C639.495 529.978 639.053 529.841 638.52 529.841C638.009 529.841 637.579 529.971 637.231 530.23C636.883 530.485 636.62 530.844 636.443 531.306C636.265 531.764 636.176 532.298 636.176 532.909ZM645.432 528.818L647.392 532.163L649.352 528.818H650.801L648.159 532.909L650.801 537H649.352L647.392 533.825L645.432 537H643.983L646.582 532.909L643.983 528.818H645.432ZM658.761 532.398C658.761 531.055 658.935 529.821 659.283 528.696C659.635 527.566 660.135 526.528 660.785 525.58H661.893C661.638 525.931 661.398 526.364 661.174 526.879C660.954 527.391 660.76 527.953 660.593 528.568C660.427 529.179 660.295 529.811 660.199 530.464C660.107 531.118 660.061 531.762 660.061 532.398C660.061 533.243 660.142 534.1 660.306 534.971C660.469 535.841 660.689 536.648 660.966 537.394C661.243 538.14 661.552 538.747 661.893 539.216H660.785C660.135 538.268 659.635 537.231 659.283 536.105C658.935 534.976 658.761 533.74 658.761 532.398ZM668.312 526.091V537H666.991V527.476H666.927L664.264 529.244V527.902L666.991 526.091H668.312ZM675.694 537.149C674.962 537.149 674.316 537.02 673.755 536.76C673.197 536.498 672.762 536.137 672.45 535.679C672.137 535.217 671.983 534.692 671.987 534.102C671.983 533.641 672.074 533.214 672.258 532.824C672.443 532.43 672.695 532.101 673.015 531.838C673.338 531.572 673.698 531.403 674.096 531.332V531.268C673.574 531.134 673.158 530.841 672.849 530.39C672.54 529.935 672.388 529.418 672.391 528.839C672.388 528.286 672.528 527.79 672.812 527.353C673.096 526.917 673.487 526.572 673.984 526.32C674.485 526.068 675.055 525.942 675.694 525.942C676.326 525.942 676.891 526.068 677.388 526.32C677.885 526.572 678.276 526.917 678.56 527.353C678.847 527.79 678.993 528.286 678.996 528.839C678.993 529.418 678.835 529.935 678.522 530.39C678.213 530.841 677.803 531.134 677.292 531.268V531.332C677.686 531.403 678.041 531.572 678.357 531.838C678.673 532.101 678.925 532.43 679.114 532.824C679.302 533.214 679.398 533.641 679.401 534.102C679.398 534.692 679.238 535.217 678.922 535.679C678.609 536.137 678.174 536.498 677.617 536.76C677.063 537.02 676.422 537.149 675.694 537.149ZM675.694 535.977C676.188 535.977 676.614 535.897 676.972 535.738C677.331 535.578 677.608 535.352 677.803 535.061C677.999 534.77 678.098 534.429 678.102 534.038C678.098 533.626 677.991 533.262 677.782 532.946C677.572 532.63 677.287 532.382 676.924 532.201C676.566 532.02 676.156 531.929 675.694 531.929C675.229 531.929 674.813 532.02 674.447 532.201C674.085 532.382 673.799 532.63 673.59 532.946C673.384 533.262 673.283 533.626 673.286 534.038C673.283 534.429 673.377 534.77 673.569 535.061C673.764 535.352 674.043 535.578 674.405 535.738C674.767 535.897 675.197 535.977 675.694 535.977ZM675.694 530.8C676.085 530.8 676.431 530.722 676.733 530.565C677.038 530.409 677.278 530.191 677.452 529.91C677.626 529.63 677.714 529.301 677.718 528.925C677.714 528.555 677.627 528.234 677.457 527.961C677.287 527.684 677.05 527.471 676.749 527.321C676.447 527.169 676.095 527.092 675.694 527.092C675.286 527.092 674.929 527.169 674.623 527.321C674.318 527.471 674.082 527.684 673.915 527.961C673.748 528.234 673.666 528.555 673.67 528.925C673.666 529.301 673.75 529.63 673.92 529.91C674.094 530.191 674.334 530.409 674.639 530.565C674.945 530.722 675.296 530.8 675.694 530.8ZM685.751 537.149C684.948 537.149 684.265 536.931 683.7 536.494C683.136 536.054 682.704 535.416 682.406 534.582C682.108 533.744 681.958 532.732 681.958 531.545C681.958 530.366 682.108 529.36 682.406 528.525C682.708 527.687 683.141 527.048 683.706 526.608C684.274 526.164 684.956 525.942 685.751 525.942C686.546 525.942 687.226 526.164 687.791 526.608C688.359 527.048 688.793 527.687 689.091 528.525C689.393 529.36 689.544 530.366 689.544 531.545C689.544 532.732 689.394 533.744 689.096 534.582C688.798 535.416 688.366 536.054 687.802 536.494C687.237 536.931 686.554 537.149 685.751 537.149ZM685.751 535.977C686.546 535.977 687.164 535.594 687.605 534.827C688.045 534.06 688.265 532.966 688.265 531.545C688.265 530.601 688.164 529.797 687.962 529.132C687.763 528.468 687.475 527.962 687.099 527.614C686.726 527.266 686.277 527.092 685.751 527.092C684.963 527.092 684.347 527.481 683.903 528.259C683.459 529.033 683.237 530.129 683.237 531.545C683.237 532.49 683.336 533.293 683.535 533.953C683.734 534.614 684.02 535.116 684.393 535.461C684.769 535.805 685.222 535.977 685.751 535.977ZM692.339 540.068V528.818H693.554V530.118H693.703C693.795 529.976 693.923 529.795 694.086 529.575C694.253 529.351 694.491 529.152 694.8 528.978C695.112 528.8 695.535 528.712 696.068 528.712C696.757 528.712 697.364 528.884 697.889 529.228C698.415 529.573 698.825 530.061 699.12 530.693C699.415 531.325 699.562 532.071 699.562 532.93C699.562 533.797 699.415 534.548 699.12 535.184C698.825 535.816 698.417 536.306 697.895 536.654C697.373 536.998 696.771 537.17 696.089 537.17C695.563 537.17 695.143 537.083 694.827 536.909C694.511 536.732 694.267 536.531 694.097 536.308C693.926 536.08 693.795 535.892 693.703 535.743H693.596V540.068H692.339ZM693.575 532.909C693.575 533.527 693.665 534.072 693.847 534.544C694.028 535.013 694.292 535.381 694.64 535.647C694.988 535.91 695.414 536.041 695.919 536.041C696.444 536.041 696.883 535.903 697.234 535.626C697.589 535.345 697.856 534.969 698.033 534.496C698.214 534.021 698.305 533.491 698.305 532.909C698.305 532.334 698.216 531.815 698.039 531.354C697.865 530.888 697.6 530.521 697.245 530.251C696.893 529.978 696.451 529.841 695.919 529.841C695.407 529.841 694.978 529.971 694.63 530.23C694.282 530.485 694.019 530.844 693.841 531.306C693.664 531.764 693.575 532.298 693.575 532.909ZM702.83 528.818L704.79 532.163L706.751 528.818H708.2L705.558 532.909L708.2 537H706.751L704.79 533.825L702.83 537H701.381L703.981 532.909L701.381 528.818H702.83ZM715.712 537V528.818H716.927V530.097H717.033C717.204 529.66 717.479 529.321 717.859 529.079C718.239 528.834 718.695 528.712 719.228 528.712C719.767 528.712 720.217 528.834 720.575 529.079C720.938 529.321 721.22 529.66 721.422 530.097H721.508C721.717 529.674 722.031 529.338 722.45 529.09C722.869 528.838 723.372 528.712 723.958 528.712C724.689 528.712 725.288 528.941 725.753 529.399C726.218 529.853 726.451 530.562 726.451 531.524V537H725.194V531.524C725.194 530.92 725.028 530.489 724.698 530.23C724.368 529.971 723.979 529.841 723.532 529.841C722.956 529.841 722.511 530.015 722.195 530.363C721.879 530.707 721.721 531.144 721.721 531.673V537H720.442V531.396C720.442 530.931 720.291 530.556 719.989 530.272C719.688 529.985 719.299 529.841 718.823 529.841C718.496 529.841 718.191 529.928 717.907 530.102C717.626 530.276 717.399 530.517 717.225 530.826C717.054 531.132 716.969 531.485 716.969 531.886V537H715.712ZM731.907 537.192C731.388 537.192 730.918 537.094 730.495 536.899C730.073 536.7 729.737 536.414 729.489 536.041C729.24 535.665 729.116 535.21 729.116 534.678C729.116 534.209 729.208 533.829 729.393 533.538C729.577 533.243 729.824 533.012 730.133 532.845C730.442 532.678 730.783 532.554 731.156 532.472C731.532 532.387 731.91 532.32 732.29 532.27C732.788 532.206 733.191 532.158 733.5 532.126C733.812 532.091 734.039 532.032 734.181 531.95C734.327 531.869 734.4 531.727 734.4 531.524V531.482C734.4 530.956 734.256 530.548 733.968 530.256C733.684 529.965 733.253 529.82 732.674 529.82C732.074 529.82 731.603 529.951 731.262 530.214C730.921 530.477 730.682 530.757 730.543 531.055L729.35 530.629C729.563 530.132 729.847 529.745 730.202 529.468C730.561 529.187 730.952 528.992 731.374 528.882C731.8 528.768 732.219 528.712 732.631 528.712C732.894 528.712 733.196 528.744 733.537 528.808C733.881 528.868 734.213 528.994 734.533 529.186C734.856 529.377 735.124 529.667 735.337 530.054C735.55 530.441 735.657 530.96 735.657 531.609V537H734.4V535.892H734.336C734.251 536.07 734.109 536.26 733.91 536.462C733.711 536.664 733.446 536.837 733.116 536.979C732.786 537.121 732.383 537.192 731.907 537.192ZM732.099 536.062C732.596 536.062 733.015 535.965 733.356 535.77C733.7 535.574 733.959 535.322 734.133 535.013C734.311 534.704 734.4 534.379 734.4 534.038V532.888C734.347 532.952 734.229 533.01 734.048 533.064C733.871 533.113 733.665 533.158 733.43 533.197C733.199 533.232 732.974 533.264 732.754 533.293C732.537 533.317 732.361 533.339 732.226 533.357C731.9 533.399 731.594 533.468 731.31 533.564C731.03 533.657 730.802 533.797 730.628 533.985C730.458 534.17 730.373 534.422 730.373 534.741C730.373 535.178 730.534 535.509 730.858 535.732C731.184 535.952 731.598 536.062 732.099 536.062ZM738.701 537V528.818H739.916V530.054H740.001C740.15 529.649 740.42 529.321 740.811 529.069C741.201 528.816 741.642 528.69 742.132 528.69C742.224 528.69 742.339 528.692 742.478 528.696C742.616 528.699 742.721 528.705 742.792 528.712V529.99C742.75 529.979 742.652 529.963 742.499 529.942C742.35 529.917 742.192 529.905 742.025 529.905C741.627 529.905 741.272 529.988 740.96 530.155C740.651 530.319 740.406 530.546 740.225 530.837C740.047 531.125 739.958 531.453 739.958 531.822V537H738.701ZM748.086 540.239C747.479 540.239 746.957 540.161 746.52 540.004C746.083 539.852 745.719 539.649 745.428 539.397C745.14 539.148 744.911 538.882 744.741 538.598L745.742 537.895C745.856 538.044 746 538.214 746.174 538.406C746.348 538.602 746.586 538.77 746.887 538.912C747.193 539.058 747.592 539.131 748.086 539.131C748.746 539.131 749.292 538.971 749.721 538.651C750.151 538.332 750.366 537.831 750.366 537.149V535.487H750.259C750.167 535.636 750.036 535.821 749.865 536.041C749.698 536.258 749.457 536.451 749.141 536.622C748.828 536.789 748.406 536.872 747.873 536.872C747.212 536.872 746.619 536.716 746.094 536.403C745.572 536.091 745.158 535.636 744.853 535.04C744.551 534.443 744.4 533.719 744.4 532.866C744.4 532.028 744.547 531.299 744.842 530.677C745.137 530.052 745.547 529.569 746.072 529.228C746.598 528.884 747.205 528.712 747.894 528.712C748.427 528.712 748.849 528.8 749.162 528.978C749.478 529.152 749.719 529.351 749.886 529.575C750.057 529.795 750.188 529.976 750.281 530.118H750.408V528.818H751.623V537.234C751.623 537.938 751.463 538.509 751.143 538.95C750.827 539.393 750.401 539.718 749.865 539.924C749.332 540.134 748.739 540.239 748.086 540.239ZM748.043 535.743C748.548 535.743 748.974 535.627 749.322 535.397C749.67 535.166 749.934 534.834 750.115 534.401C750.297 533.967 750.387 533.449 750.387 532.845C750.387 532.256 750.298 531.735 750.121 531.284C749.943 530.833 749.68 530.48 749.332 530.224C748.984 529.969 748.555 529.841 748.043 529.841C747.511 529.841 747.067 529.976 746.712 530.246C746.36 530.516 746.096 530.878 745.918 531.332C745.744 531.787 745.657 532.291 745.657 532.845C745.657 533.413 745.746 533.916 745.923 534.353C746.104 534.786 746.371 535.127 746.722 535.375C747.077 535.62 747.518 535.743 748.043 535.743ZM754.674 537V528.818H755.931V537H754.674ZM755.313 527.455C755.068 527.455 754.857 527.371 754.679 527.204C754.505 527.037 754.418 526.837 754.418 526.602C754.418 526.368 754.505 526.167 754.679 526C754.857 525.833 755.068 525.75 755.313 525.75C755.558 525.75 755.768 525.833 755.942 526C756.119 526.167 756.208 526.368 756.208 526.602C756.208 526.837 756.119 527.037 755.942 527.204C755.768 527.371 755.558 527.455 755.313 527.455ZM760.241 532.078V537H758.984V528.818H760.198V530.097H760.305C760.496 529.681 760.788 529.347 761.178 529.095C761.569 528.839 762.073 528.712 762.691 528.712C763.245 528.712 763.73 528.825 764.145 529.053C764.561 529.276 764.884 529.617 765.115 530.075C765.345 530.53 765.461 531.105 765.461 531.801V537H764.204V531.886C764.204 531.244 764.037 530.743 763.703 530.384C763.369 530.022 762.911 529.841 762.329 529.841C761.927 529.841 761.569 529.928 761.253 530.102C760.94 530.276 760.693 530.53 760.512 530.864C760.331 531.197 760.241 531.602 760.241 532.078ZM776.801 537.17C776.062 537.17 775.414 536.995 774.856 536.643C774.302 536.292 773.869 535.8 773.557 535.168C773.248 534.536 773.093 533.797 773.093 532.952C773.093 532.099 773.248 531.355 773.557 530.72C773.869 530.084 774.302 529.591 774.856 529.239C775.414 528.887 776.062 528.712 776.801 528.712C777.539 528.712 778.186 528.887 778.74 529.239C779.297 529.591 779.73 530.084 780.039 530.72C780.352 531.355 780.508 532.099 780.508 532.952C780.508 533.797 780.352 534.536 780.039 535.168C779.73 535.8 779.297 536.292 778.74 536.643C778.186 536.995 777.539 537.17 776.801 537.17ZM776.801 536.041C777.362 536.041 777.823 535.897 778.186 535.61C778.548 535.322 778.816 534.944 778.99 534.475C779.164 534.006 779.251 533.499 779.251 532.952C779.251 532.405 779.164 531.895 778.99 531.423C778.816 530.951 778.548 530.569 778.186 530.278C777.823 529.987 777.362 529.841 776.801 529.841C776.24 529.841 775.778 529.987 775.416 530.278C775.053 530.569 774.785 530.951 774.611 531.423C774.437 531.895 774.35 532.405 774.35 532.952C774.35 533.499 774.437 534.006 774.611 534.475C774.785 534.944 775.053 535.322 775.416 535.61C775.778 535.897 776.24 536.041 776.801 536.041ZM784.434 532.078V537H783.177V528.818H784.391V530.097H784.498C784.69 529.681 784.981 529.347 785.372 529.095C785.762 528.839 786.266 528.712 786.884 528.712C787.438 528.712 787.923 528.825 788.339 529.053C788.754 529.276 789.077 529.617 789.308 530.075C789.539 530.53 789.654 531.105 789.654 531.801V537H788.397V531.886C788.397 531.244 788.23 530.743 787.896 530.384C787.563 530.022 787.104 529.841 786.522 529.841C786.121 529.841 785.762 529.928 785.446 530.102C785.134 530.276 784.887 530.53 784.706 530.864C784.525 531.197 784.434 531.602 784.434 532.078ZM797.841 537V526.091H799.098V530.118H799.204C799.297 529.976 799.424 529.795 799.588 529.575C799.755 529.351 799.993 529.152 800.301 528.978C800.614 528.8 801.037 528.712 801.569 528.712C802.258 528.712 802.865 528.884 803.391 529.228C803.917 529.573 804.327 530.061 804.621 530.693C804.916 531.325 805.064 532.071 805.064 532.93C805.064 533.797 804.916 534.548 804.621 535.184C804.327 535.816 803.918 536.306 803.396 536.654C802.874 536.998 802.272 537.17 801.591 537.17C801.065 537.17 800.644 537.083 800.328 536.909C800.012 536.732 799.769 536.531 799.598 536.308C799.428 536.08 799.297 535.892 799.204 535.743H799.055V537H797.841ZM799.076 532.909C799.076 533.527 799.167 534.072 799.348 534.544C799.529 535.013 799.794 535.381 800.142 535.647C800.49 535.91 800.916 536.041 801.42 536.041C801.946 536.041 802.384 535.903 802.736 535.626C803.091 535.345 803.357 534.969 803.535 534.496C803.716 534.021 803.806 533.491 803.806 532.909C803.806 532.334 803.718 531.815 803.54 531.354C803.366 530.888 803.102 530.521 802.746 530.251C802.395 529.978 801.953 529.841 801.42 529.841C800.909 529.841 800.479 529.971 800.131 530.23C799.783 530.485 799.52 530.844 799.343 531.306C799.165 531.764 799.076 532.298 799.076 532.909ZM811.06 537.17C810.322 537.17 809.674 536.995 809.116 536.643C808.562 536.292 808.129 535.8 807.816 535.168C807.507 534.536 807.353 533.797 807.353 532.952C807.353 532.099 807.507 531.355 807.816 530.72C808.129 530.084 808.562 529.591 809.116 529.239C809.674 528.887 810.322 528.712 811.06 528.712C811.799 528.712 812.445 528.887 812.999 529.239C813.557 529.591 813.99 530.084 814.299 530.72C814.612 531.355 814.768 532.099 814.768 532.952C814.768 533.797 814.612 534.536 814.299 535.168C813.99 535.8 813.557 536.292 812.999 536.643C812.445 536.995 811.799 537.17 811.06 537.17ZM811.06 536.041C811.621 536.041 812.083 535.897 812.445 535.61C812.808 535.322 813.076 534.944 813.25 534.475C813.424 534.006 813.511 533.499 813.511 532.952C813.511 532.405 813.424 531.895 813.25 531.423C813.076 530.951 812.808 530.569 812.445 530.278C812.083 529.987 811.621 529.841 811.06 529.841C810.499 529.841 810.038 529.987 809.675 530.278C809.313 530.569 809.045 530.951 808.871 531.423C808.697 531.895 808.61 532.405 808.61 532.952C808.61 533.499 808.697 534.006 808.871 534.475C809.045 534.944 809.313 535.322 809.675 535.61C810.038 535.897 810.499 536.041 811.06 536.041ZM820.995 528.818V529.884H816.755V528.818H820.995ZM817.991 526.858H819.248V534.656C819.248 535.011 819.299 535.278 819.402 535.455C819.509 535.629 819.644 535.746 819.807 535.807C819.974 535.864 820.15 535.892 820.334 535.892C820.473 535.892 820.587 535.885 820.675 535.871C820.764 535.853 820.835 535.839 820.888 535.828L821.144 536.957C821.059 536.989 820.94 537.021 820.787 537.053C820.634 537.089 820.441 537.107 820.207 537.107C819.851 537.107 819.503 537.03 819.163 536.877C818.825 536.725 818.545 536.492 818.321 536.18C818.101 535.867 817.991 535.473 817.991 534.997V526.858ZM825.069 532.078V537H823.812V526.091H825.069V530.097H825.175C825.367 529.674 825.655 529.338 826.038 529.09C826.425 528.838 826.94 528.712 827.583 528.712C828.141 528.712 828.629 528.824 829.048 529.047C829.467 529.267 829.792 529.607 830.023 530.065C830.257 530.519 830.374 531.098 830.374 531.801V537H829.117V531.886C829.117 531.237 828.948 530.734 828.611 530.379C828.277 530.02 827.814 529.841 827.221 529.841C826.809 529.841 826.44 529.928 826.113 530.102C825.79 530.276 825.534 530.53 825.346 530.864C825.161 531.197 825.069 531.602 825.069 532.078ZM844.188 530.651L843.059 530.97C842.988 530.782 842.883 530.599 842.745 530.422C842.61 530.24 842.425 530.091 842.191 529.974C841.956 529.857 841.656 529.798 841.29 529.798C840.79 529.798 840.373 529.914 840.039 530.145C839.708 530.372 839.543 530.661 839.543 531.013C839.543 531.325 839.657 531.572 839.884 531.753C840.112 531.934 840.467 532.085 840.95 532.206L842.164 532.504C842.896 532.682 843.441 532.953 843.799 533.319C844.158 533.681 844.337 534.148 844.337 534.72C844.337 535.189 844.202 535.608 843.933 535.977C843.666 536.347 843.293 536.638 842.814 536.851C842.335 537.064 841.777 537.17 841.141 537.17C840.307 537.17 839.616 536.989 839.069 536.627C838.522 536.265 838.176 535.736 838.031 535.04L839.224 534.741C839.337 535.182 839.552 535.512 839.868 535.732C840.188 535.952 840.605 536.062 841.12 536.062C841.706 536.062 842.171 535.938 842.516 535.69C842.864 535.437 843.038 535.136 843.038 534.784C843.038 534.5 842.938 534.262 842.739 534.07C842.54 533.875 842.235 533.729 841.823 533.634L840.46 533.314C839.71 533.136 839.16 532.861 838.808 532.488C838.46 532.112 838.286 531.641 838.286 531.077C838.286 530.615 838.416 530.207 838.675 529.852C838.938 529.496 839.295 529.218 839.746 529.015C840.2 528.813 840.715 528.712 841.29 528.712C842.1 528.712 842.736 528.889 843.197 529.244C843.663 529.599 843.993 530.068 844.188 530.651ZM846.98 537V528.818H848.237V537H846.98ZM847.619 527.455C847.374 527.455 847.163 527.371 846.985 527.204C846.811 527.037 846.724 526.837 846.724 526.602C846.724 526.368 846.811 526.167 846.985 526C847.163 525.833 847.374 525.75 847.619 525.75C847.864 525.75 848.073 525.833 848.247 526C848.425 526.167 848.514 526.368 848.514 526.602C848.514 526.837 848.425 527.037 848.247 527.204C848.073 527.371 847.864 527.455 847.619 527.455ZM854.379 537.17C853.697 537.17 853.095 536.998 852.573 536.654C852.051 536.306 851.643 535.816 851.348 535.184C851.053 534.548 850.906 533.797 850.906 532.93C850.906 532.071 851.053 531.325 851.348 530.693C851.643 530.061 852.053 529.573 852.578 529.228C853.104 528.884 853.711 528.712 854.4 528.712C854.933 528.712 855.354 528.8 855.662 528.978C855.975 529.152 856.213 529.351 856.376 529.575C856.543 529.795 856.673 529.976 856.765 530.118H856.872V526.091H858.129V537H856.914V535.743H856.765C856.673 535.892 856.541 536.08 856.371 536.308C856.2 536.531 855.957 536.732 855.641 536.909C855.325 537.083 854.904 537.17 854.379 537.17ZM854.549 536.041C855.053 536.041 855.48 535.91 855.828 535.647C856.176 535.381 856.44 535.013 856.621 534.544C856.802 534.072 856.893 533.527 856.893 532.909C856.893 532.298 856.804 531.764 856.627 531.306C856.449 530.844 856.186 530.485 855.838 530.23C855.49 529.971 855.061 529.841 854.549 529.841C854.017 529.841 853.573 529.978 853.218 530.251C852.866 530.521 852.601 530.888 852.424 531.354C852.25 531.815 852.163 532.334 852.163 532.909C852.163 533.491 852.252 534.021 852.429 534.496C852.61 534.969 852.877 535.345 853.228 535.626C853.583 535.903 854.024 536.041 854.549 536.041ZM864.786 537.17C863.998 537.17 863.318 536.996 862.746 536.648C862.178 536.297 861.739 535.807 861.43 535.178C861.125 534.546 860.972 533.811 860.972 532.973C860.972 532.135 861.125 531.396 861.43 530.757C861.739 530.114 862.169 529.614 862.719 529.255C863.273 528.893 863.92 528.712 864.658 528.712C865.084 528.712 865.505 528.783 865.921 528.925C866.336 529.067 866.714 529.298 867.055 529.617C867.396 529.933 867.668 530.352 867.87 530.874C868.073 531.396 868.174 532.039 868.174 532.803V533.335H861.867V532.249H866.895C866.895 531.787 866.803 531.375 866.618 531.013C866.437 530.651 866.178 530.365 865.841 530.155C865.507 529.946 865.113 529.841 864.658 529.841C864.157 529.841 863.724 529.965 863.358 530.214C862.996 530.459 862.718 530.778 862.522 531.173C862.327 531.567 862.229 531.989 862.229 532.44V533.165C862.229 533.783 862.336 534.306 862.549 534.736C862.765 535.162 863.066 535.487 863.449 535.711C863.833 535.931 864.278 536.041 864.786 536.041C865.116 536.041 865.415 535.995 865.681 535.903C865.951 535.807 866.183 535.665 866.379 535.477C866.574 535.285 866.725 535.047 866.831 534.763L868.046 535.104C867.918 535.516 867.703 535.878 867.401 536.19C867.1 536.499 866.727 536.741 866.283 536.915C865.839 537.085 865.34 537.17 864.786 537.17ZM876.632 530.651L875.502 530.97C875.431 530.782 875.327 530.599 875.188 530.422C875.053 530.24 874.868 530.091 874.634 529.974C874.4 529.857 874.1 529.798 873.734 529.798C873.233 529.798 872.816 529.914 872.482 530.145C872.152 530.372 871.987 530.661 871.987 531.013C871.987 531.325 872.1 531.572 872.328 531.753C872.555 531.934 872.91 532.085 873.393 532.206L874.607 532.504C875.339 532.682 875.884 532.953 876.243 533.319C876.601 533.681 876.781 534.148 876.781 534.72C876.781 535.189 876.646 535.608 876.376 535.977C876.11 536.347 875.737 536.638 875.257 536.851C874.778 537.064 874.22 537.17 873.585 537.17C872.75 537.17 872.059 536.989 871.513 536.627C870.966 536.265 870.619 535.736 870.474 535.04L871.667 534.741C871.781 535.182 871.996 535.512 872.312 535.732C872.631 535.952 873.048 536.062 873.563 536.062C874.149 536.062 874.615 535.938 874.959 535.69C875.307 535.437 875.481 535.136 875.481 534.784C875.481 534.5 875.382 534.262 875.183 534.07C874.984 533.875 874.678 533.729 874.267 533.634L872.903 533.314C872.154 533.136 871.603 532.861 871.252 532.488C870.904 532.112 870.73 531.641 870.73 531.077C870.73 530.615 870.859 530.207 871.118 529.852C871.381 529.496 871.738 529.218 872.189 529.015C872.644 528.813 873.159 528.712 873.734 528.712C874.544 528.712 875.179 528.889 875.641 529.244C876.106 529.599 876.436 530.068 876.632 530.651ZM882.108 532.398C882.108 533.74 881.932 534.976 881.58 536.105C881.232 537.231 880.733 538.268 880.084 539.216H878.976C879.231 538.864 879.469 538.431 879.689 537.916C879.913 537.405 880.108 536.844 880.275 536.233C880.442 535.619 880.572 534.985 880.664 534.331C880.76 533.674 880.808 533.03 880.808 532.398C880.808 531.553 880.726 530.695 880.563 529.825C880.4 528.955 880.179 528.147 879.902 527.401C879.625 526.656 879.316 526.048 878.976 525.58H880.084C880.733 526.528 881.232 527.566 881.58 528.696C881.932 529.821 882.108 531.055 882.108 532.398Z" fill="#1B1C25"/>
<path d="M95.4418 529.05C95.3045 528.619 95.1198 528.233 94.8878 527.892C94.6605 527.546 94.3883 527.253 94.071 527.011C93.7538 526.765 93.3916 526.578 92.9844 526.45C92.5819 526.322 92.1392 526.259 91.6562 526.259C90.8371 526.259 90.0985 526.469 89.4403 526.891C88.7822 527.312 88.2614 527.93 87.8778 528.744C87.4991 529.554 87.3097 530.546 87.3097 531.72C87.3097 532.899 87.5014 533.896 87.8849 534.71C88.2685 535.525 88.794 536.143 89.4616 536.564C90.1293 536.985 90.8892 537.196 91.7415 537.196C92.5322 537.196 93.2211 537.035 93.8082 536.713C94.4001 536.391 94.857 535.937 95.179 535.349C95.5057 534.758 95.669 534.062 95.669 533.261L96.2372 533.368H92.0753V531.557H97.7926V533.212C97.7926 534.433 97.5322 535.494 97.0114 536.393C96.4953 537.288 95.7803 537.98 94.8665 538.467C93.9574 538.955 92.9157 539.199 91.7415 539.199C90.4252 539.199 89.2699 538.896 88.2756 538.29C87.286 537.684 86.5142 536.824 85.9602 535.712C85.4063 534.594 85.1293 533.268 85.1293 531.734C85.1293 530.574 85.2902 529.533 85.6122 528.609C85.9342 527.686 86.3864 526.902 86.9688 526.259C87.5559 525.61 88.2448 525.115 89.0355 524.774C89.831 524.429 90.6998 524.256 91.642 524.256C92.428 524.256 93.1596 524.372 93.8366 524.604C94.5185 524.836 95.1245 525.165 95.6548 525.591C96.1899 526.017 96.6326 526.524 96.983 527.111C97.3333 527.693 97.5701 528.339 97.6932 529.05H95.4418ZM101.978 539V524.455H107.163C108.29 524.455 109.225 524.649 109.969 525.037C110.717 525.425 111.275 525.963 111.645 526.649C112.014 527.331 112.199 528.119 112.199 529.014C112.199 529.904 112.012 530.688 111.638 531.365C111.268 532.037 110.71 532.561 109.961 532.935C109.218 533.309 108.283 533.496 107.156 533.496H103.228V531.607H106.957C107.667 531.607 108.245 531.505 108.69 531.301C109.14 531.098 109.469 530.802 109.677 530.413C109.886 530.025 109.99 529.559 109.99 529.014C109.99 528.465 109.883 527.989 109.67 527.587C109.462 527.184 109.133 526.876 108.683 526.663C108.238 526.446 107.653 526.337 106.929 526.337H104.173V539H101.978ZM109.159 532.438L112.753 539H110.253L106.73 532.438H109.159ZM118.464 524.455V539H116.269V524.455H118.464ZM127.769 539H123.06V524.455H127.918C129.343 524.455 130.567 524.746 131.59 525.328C132.612 525.906 133.396 526.737 133.94 527.821C134.49 528.901 134.764 530.196 134.764 531.706C134.764 533.221 134.487 534.523 133.933 535.612C133.384 536.701 132.589 537.539 131.547 538.126C130.505 538.709 129.246 539 127.769 539ZM125.254 537.082H127.648C128.756 537.082 129.677 536.874 130.411 536.457C131.144 536.036 131.694 535.428 132.058 534.632C132.423 533.832 132.605 532.857 132.605 531.706C132.605 530.565 132.423 529.597 132.058 528.801C131.698 528.006 131.161 527.402 130.446 526.99C129.731 526.578 128.843 526.372 127.783 526.372H125.254V537.082ZM153.52 528.276C153.444 527.603 153.131 527.082 152.582 526.713C152.033 526.339 151.342 526.152 150.508 526.152C149.912 526.152 149.395 526.247 148.96 526.436C148.524 526.621 148.186 526.876 147.944 527.203C147.708 527.525 147.589 527.892 147.589 528.304C147.589 528.65 147.67 528.948 147.831 529.199C147.996 529.45 148.212 529.661 148.477 529.831C148.747 529.997 149.036 530.136 149.343 530.25C149.651 530.359 149.947 530.449 150.231 530.52L151.652 530.889C152.116 531.003 152.592 531.157 153.079 531.351C153.567 531.545 154.019 531.801 154.436 532.118C154.852 532.435 155.189 532.828 155.444 533.297C155.705 533.766 155.835 534.327 155.835 534.98C155.835 535.804 155.622 536.536 155.196 537.175C154.774 537.814 154.161 538.318 153.356 538.688C152.556 539.057 151.588 539.241 150.451 539.241C149.362 539.241 148.42 539.069 147.625 538.723C146.829 538.377 146.207 537.887 145.757 537.253C145.307 536.614 145.058 535.856 145.011 534.98H147.213C147.255 535.506 147.426 535.944 147.724 536.294C148.027 536.64 148.413 536.898 148.882 537.068C149.355 537.234 149.874 537.317 150.437 537.317C151.057 537.317 151.609 537.22 152.092 537.026C152.58 536.827 152.963 536.552 153.243 536.202C153.522 535.847 153.662 535.432 153.662 534.959C153.662 534.528 153.538 534.175 153.292 533.901C153.051 533.626 152.722 533.399 152.305 533.219C151.893 533.039 151.427 532.88 150.906 532.743L149.187 532.274C148.022 531.957 147.099 531.491 146.417 530.875C145.74 530.259 145.402 529.445 145.402 528.432C145.402 527.594 145.629 526.862 146.083 526.237C146.538 525.612 147.154 525.127 147.93 524.781C148.707 524.431 149.583 524.256 150.558 524.256C151.543 524.256 152.412 524.429 153.164 524.774C153.922 525.12 154.519 525.596 154.954 526.202C155.39 526.803 155.617 527.494 155.636 528.276H153.52ZM158.735 524.455H161.228L165.028 531.067H165.184L168.984 524.455H171.477L166.2 533.29V539H164.012V533.29L158.735 524.455ZM182.882 528.276C182.806 527.603 182.494 527.082 181.945 526.713C181.395 526.339 180.704 526.152 179.871 526.152C179.274 526.152 178.758 526.247 178.322 526.436C177.887 526.621 177.548 526.876 177.307 527.203C177.07 527.525 176.952 527.892 176.952 528.304C176.952 528.65 177.032 528.948 177.193 529.199C177.359 529.45 177.574 529.661 177.839 529.831C178.109 529.997 178.398 530.136 178.706 530.25C179.014 530.359 179.31 530.449 179.594 530.52L181.014 530.889C181.478 531.003 181.954 531.157 182.442 531.351C182.929 531.545 183.382 531.801 183.798 532.118C184.215 532.435 184.551 532.828 184.807 533.297C185.067 533.766 185.197 534.327 185.197 534.98C185.197 535.804 184.984 536.536 184.558 537.175C184.137 537.814 183.524 538.318 182.719 538.688C181.918 539.057 180.95 539.241 179.814 539.241C178.725 539.241 177.783 539.069 176.987 538.723C176.192 538.377 175.569 537.887 175.119 537.253C174.669 536.614 174.421 535.856 174.374 534.98H176.575C176.618 535.506 176.788 535.944 177.087 536.294C177.39 536.64 177.776 536.898 178.244 537.068C178.718 537.234 179.236 537.317 179.8 537.317C180.42 537.317 180.972 537.22 181.454 537.026C181.942 536.827 182.326 536.552 182.605 536.202C182.884 535.847 183.024 535.432 183.024 534.959C183.024 534.528 182.901 534.175 182.655 533.901C182.413 533.626 182.084 533.399 181.668 533.219C181.256 533.039 180.789 532.88 180.268 532.743L178.55 532.274C177.385 531.957 176.462 531.491 175.78 530.875C175.103 530.259 174.764 529.445 174.764 528.432C174.764 527.594 174.991 526.862 175.446 526.237C175.901 525.612 176.516 525.127 177.293 524.781C178.069 524.431 178.945 524.256 179.92 524.256C180.905 524.256 181.774 524.429 182.527 524.774C183.284 525.12 183.881 525.596 184.317 526.202C184.752 526.803 184.98 527.494 184.999 528.276H182.882ZM188.503 526.344V524.455H199.76V526.344H195.221V539H193.034V526.344H188.503ZM203.647 539V524.455H212.767V526.344H205.842V530.776H212.291V532.658H205.842V537.111H212.852V539H203.647ZM217.098 524.455H219.761L224.392 535.761H224.562L229.193 524.455H231.857V539H229.768V528.474H229.634L225.344 538.979H223.611L219.321 528.467H219.186V539H217.098V524.455Z" fill="#1B1C25"/>
</svg>
