<svg width="155" height="134" viewBox="0 0 155 134" fill="none" xmlns="http://www.w3.org/2000/svg">
<rect width="155" height="134" fill="#1B1C25"/>
<path d="M49.3276 58L51.1174 47.0909H52.1827L50.3929 58H49.3276ZM44.3631 54.9744L44.5336 53.9091H52.6728L52.5023 54.9744H44.3631ZM45.4924 58L47.2821 47.0909H48.3475L46.5577 58H45.4924ZM45.0023 51.1818L45.1728 50.1165H53.312L53.1415 51.1818H45.0023ZM59.2848 47.0909V58H57.9638V48.4759H57.8999L55.2365 50.2443V48.902L57.9638 47.0909H59.2848ZM63.364 58V47.0909H67.1779C67.9379 47.0909 68.5646 47.2223 69.0582 47.4851C69.5518 47.7443 69.9194 48.0941 70.1609 48.5344C70.4023 48.9712 70.5231 49.456 70.5231 49.9886C70.5231 50.4574 70.4396 50.8445 70.2727 51.1499C70.1094 51.4553 69.8928 51.6967 69.6229 51.8743C69.3565 52.0518 69.0671 52.1832 68.7546 52.2685V52.375C69.0884 52.3963 69.424 52.5135 69.7614 52.7266C70.0987 52.9396 70.381 53.245 70.6083 53.6428C70.8356 54.0405 70.9492 54.527 70.9492 55.1023C70.9492 55.6491 70.8249 56.141 70.5763 56.5778C70.3278 57.0146 69.9354 57.3608 69.3991 57.6165C68.8629 57.8722 68.1651 58 67.3058 58H63.364ZM64.685 56.8281H67.3058C68.1687 56.8281 68.7813 56.6612 69.1435 56.3274C69.5092 55.9901 69.6921 55.5817 69.6921 55.1023C69.6921 54.733 69.598 54.392 69.4098 54.0795C69.2216 53.7635 68.9535 53.5114 68.6055 53.3232C68.2575 53.1314 67.8455 53.0355 67.3697 53.0355H64.685V56.8281ZM64.685 51.8849H67.1353C67.533 51.8849 67.8917 51.8068 68.2113 51.6506C68.5344 51.4943 68.7901 51.2741 68.9783 50.9901C69.1701 50.706 69.266 50.3722 69.266 49.9886C69.266 49.5092 69.0991 49.1026 68.7653 48.7688C68.4315 48.4315 67.9023 48.2628 67.1779 48.2628H64.685V51.8849ZM77.5133 47.0909V58H76.1923V48.4759H76.1284L73.465 50.2443V48.902L76.1923 47.0909H77.5133ZM90.3709 50.5H89.0499C88.9718 50.12 88.8351 49.7862 88.6397 49.4986C88.448 49.2109 88.2136 48.9695 87.9366 48.7741C87.6632 48.5753 87.3596 48.4261 87.0257 48.3267C86.6919 48.2273 86.3439 48.1776 85.9817 48.1776C85.3212 48.1776 84.7228 48.3445 84.1866 48.6783C83.6539 49.0121 83.2296 49.5039 82.9135 50.1538C82.601 50.8036 82.4448 51.6009 82.4448 52.5455C82.4448 53.4901 82.601 54.2873 82.9135 54.9371C83.2296 55.587 83.6539 56.0788 84.1866 56.4126C84.7228 56.7464 85.3212 56.9134 85.9817 56.9134C86.3439 56.9134 86.6919 56.8636 87.0257 56.7642C87.3596 56.6648 87.6632 56.5174 87.9366 56.3221C88.2136 56.1232 88.448 55.88 88.6397 55.5923C88.8351 55.3011 88.9718 54.9673 89.0499 54.5909H90.3709C90.2715 55.1484 90.0904 55.6474 89.8276 56.0877C89.5648 56.5281 89.2381 56.9027 88.8475 57.2116C88.4569 57.517 88.0183 57.7496 87.5318 57.9094C87.0488 58.0692 86.5321 58.1491 85.9817 58.1491C85.0513 58.1491 84.2239 57.9219 83.4995 57.4673C82.775 57.0128 82.2051 56.3665 81.7896 55.5284C81.3741 54.6903 81.1664 53.696 81.1664 52.5455C81.1664 51.3949 81.3741 50.4006 81.7896 49.5625C82.2051 48.7244 82.775 48.0781 83.4995 47.6236C84.2239 47.169 85.0513 46.9418 85.9817 46.9418C86.5321 46.9418 87.0488 47.0217 87.5318 47.1815C88.0183 47.3413 88.4569 47.5756 88.8475 47.8846C89.2381 48.19 89.5648 48.5629 89.8276 49.0032C90.0904 49.44 90.2715 49.9389 90.3709 50.5ZM93.0638 58V57.0412L96.6647 53.0994C97.0873 52.6378 97.4353 52.2365 97.7087 51.8956C97.9822 51.5511 98.1846 51.228 98.316 50.9261C98.4509 50.6207 98.5184 50.3011 98.5184 49.9673C98.5184 49.5838 98.426 49.2518 98.2414 48.9712C98.0603 48.6907 97.8117 48.4741 97.4957 48.3214C97.1796 48.1687 96.8245 48.0923 96.4303 48.0923C96.0113 48.0923 95.6455 48.1793 95.333 48.3533C95.0241 48.5238 94.7844 48.7635 94.6139 49.0724C94.447 49.3814 94.3635 49.7436 94.3635 50.1591H93.1064C93.1064 49.5199 93.2538 48.9588 93.5486 48.4759C93.8433 47.9929 94.2446 47.6165 94.7524 47.3466C95.2638 47.0767 95.8373 46.9418 96.4729 46.9418C97.1121 46.9418 97.6785 47.0767 98.1721 47.3466C98.6657 47.6165 99.0528 47.9805 99.3334 48.4386C99.6139 48.8967 99.7542 49.4062 99.7542 49.9673C99.7542 50.3686 99.6814 50.761 99.5358 51.1445C99.3937 51.5245 99.1452 51.9489 98.79 52.4176C98.4385 52.8828 97.9502 53.451 97.3252 54.1222L94.8749 56.7429V56.8281H99.9459V58H93.0638ZM106.305 58.1491C105.68 58.1491 105.117 58.0249 104.616 57.7763C104.116 57.5277 103.714 57.1868 103.413 56.7536C103.111 56.3203 102.946 55.8267 102.917 55.2727H104.196C104.245 55.7663 104.469 56.1747 104.867 56.4979C105.268 56.8175 105.747 56.9773 106.305 56.9773C106.752 56.9773 107.15 56.8725 107.498 56.663C107.85 56.4535 108.125 56.1658 108.324 55.8001C108.526 55.4308 108.627 55.0135 108.627 54.5483C108.627 54.0724 108.523 53.6481 108.313 53.2752C108.107 52.8988 107.823 52.6023 107.461 52.3857C107.099 52.169 106.685 52.0589 106.22 52.0554C105.886 52.0518 105.543 52.1033 105.192 52.2099C104.84 52.3129 104.551 52.446 104.323 52.6094L103.088 52.4602L103.748 47.0909H109.416V48.2628H104.856L104.473 51.4801H104.536C104.76 51.3026 105.041 51.1552 105.378 51.038C105.715 50.9208 106.067 50.8622 106.433 50.8622C107.1 50.8622 107.695 51.022 108.217 51.3416C108.743 51.6577 109.155 52.0909 109.453 52.6413C109.755 53.1918 109.906 53.8203 109.906 54.527C109.906 55.223 109.75 55.8445 109.437 56.3913C109.128 56.9347 108.702 57.3643 108.159 57.6804C107.615 57.9929 106.997 58.1491 106.305 58.1491Z" fill="#EBECF1"/>
<path d="M72.2261 76.8162C72.2261 76.8162 72.2117 76.8363 72.206 76.8449C72.1545 76.8191 72.0972 76.7905 72.0514 76.7704C71.7278 76.6245 71.4243 76.5386 71.1408 76.51C70.5108 76.4471 69.8694 76.7418 69.2137 77.3972C68.724 77.8866 68.4005 78.3388 68.2516 78.7537C68.1857 78.9426 68.1628 79.1286 68.1886 79.3147C68.2143 79.5007 68.2773 79.6467 68.3833 79.7497C68.4635 79.8298 68.558 79.8813 68.6696 79.9042C68.7784 79.9271 68.8758 79.9157 68.9588 79.8727C69.228 79.7239 69.4227 79.6552 69.5459 79.6638C69.669 79.6724 69.8551 79.7726 70.1071 79.9643C70.2589 80.0817 70.4078 80.1875 70.5481 80.2791C70.2989 81.1863 70.1615 82.1422 70.1615 83.121C70.1615 84.9698 70.6454 86.6926 71.4758 88.1436L77.5035 82.1165L72.2261 76.8162Z" fill="white"/>
<path d="M81.2491 73.9772C81.3235 73.6996 81.3665 73.4077 81.3665 73.1014C81.3665 71.433 80.1552 69.9534 78.6605 69.9534C77.1657 69.9534 75.9545 71.433 75.9545 73.1014C75.9545 73.3647 75.9888 73.6166 76.0433 73.8598C74.978 74.2577 74.0016 74.9016 73.1626 75.7287L78.5116 81.1004L83.8577 75.7544C83.0931 74.9903 82.2083 74.3807 81.2462 73.9743L81.2491 73.9772Z" fill="white"/>
<path d="M88.7482 78.7537C88.5964 78.3416 88.2757 77.8894 87.786 77.3972C87.1303 76.7418 86.4889 76.4471 85.8589 76.51C85.5754 76.5358 85.2719 76.6245 84.9483 76.7704C84.9025 76.7905 84.8481 76.8191 84.7966 76.8449L79.5249 82.1165L85.5239 88.1407C86.3543 86.6926 86.8382 84.9698 86.8382 83.121C86.8382 82.1422 86.7008 81.1863 86.4517 80.2791C86.592 80.1847 86.7409 80.0817 86.8926 79.9643C87.1446 79.7726 87.3307 79.6724 87.4539 79.6638C87.577 79.6552 87.7717 79.7239 88.0409 79.8727C88.1239 79.9157 88.2213 79.9271 88.3301 79.9042C88.4389 79.8813 88.5334 79.8298 88.6164 79.7497C88.7195 79.6467 88.7854 79.5007 88.8112 79.3147C88.8369 79.1286 88.814 78.9398 88.7482 78.7537Z" fill="white"/>
<path d="M86.9788 92.7828C86.9158 92.6912 86.8414 92.6283 86.7498 92.5996C86.4548 92.5138 86.2658 92.4251 86.1856 92.3335C86.1055 92.2419 86.0425 92.0387 85.9995 91.7239C85.8993 90.9684 85.7332 90.4074 85.5013 90.0411C85.318 89.7521 85.0488 89.5231 84.6995 89.3514L84.7052 89.3457L78.5144 83.1296L72.2978 89.3485H72.3006C71.9513 89.526 71.6821 89.7549 71.4989 90.044C71.2669 90.4103 71.1008 90.9712 71.0006 91.7268C70.9577 92.0416 70.8975 92.2448 70.8145 92.3363C70.7343 92.4279 70.5453 92.5195 70.2504 92.6025C70.1588 92.6311 70.0843 92.6912 70.0213 92.7857C69.9583 92.8772 69.9297 92.9803 69.9297 93.0947C69.9297 93.2407 69.987 93.3895 70.1015 93.5412C70.216 93.69 70.3621 93.8074 70.5425 93.8932C70.9405 94.0792 71.4874 94.1708 72.1832 94.1708C73.111 94.1708 73.7725 93.9247 74.1734 93.4382C74.3538 93.2207 74.5084 92.9431 74.6344 92.6111C74.7289 92.3621 74.8348 92.0129 74.9551 91.5579C76.0318 92.1246 77.2344 92.4451 78.5058 92.4451C79.7772 92.4451 80.977 92.1246 82.0565 91.5579C82.1768 92.0129 82.2827 92.3621 82.3772 92.6111C82.5032 92.9431 82.6578 93.2207 82.8382 93.4382C83.2363 93.9276 83.9006 94.1708 84.8284 94.1708C85.5213 94.1708 86.0682 94.0792 86.4691 93.8932C86.6495 93.8074 86.7984 93.69 86.9101 93.5412C87.0246 93.3924 87.0819 93.2436 87.0819 93.0947C87.0819 92.9803 87.0504 92.8772 86.9903 92.7857L86.9788 92.7828Z" fill="white"/>
</svg>
