<svg width="684" height="56" viewBox="0 0 684 56" fill="none" xmlns="http://www.w3.org/2000/svg">
<path d="M27.35 13.445V12.245L33.65 8.51V9.77L28.475 12.785V12.905L33.65 15.92V17.18L27.35 13.445ZM36.9441 17V15.95H38.4141V7.58H36.9441V6.53H41.1441V7.58H39.6741V15.95H41.1441V17H36.9441ZM55.6449 17L54.5949 13.91H50.3649L49.3149 17H48.0399L51.6999 6.53H53.3049L56.9649 17H55.6449ZM52.5099 7.7H52.4349L50.6649 12.8H54.2799L52.5099 7.7ZM67.9093 8.18H67.8343L66.9493 9.935L64.4443 14.495L61.9393 9.935L61.0543 8.18H60.9793V17H59.7493V6.53H61.4293L64.4293 12.17H64.5043L67.5193 6.53H69.1393V17H67.9093V8.18ZM84.3471 15.47H84.3021C84.1721 15.96 83.8521 16.37 83.3421 16.7C82.8421 17.02 82.1921 17.18 81.3921 17.18C80.7521 17.18 80.1621 17.065 79.6221 16.835C79.0921 16.595 78.6371 16.25 78.2571 15.8C77.8771 15.34 77.5771 14.775 77.3571 14.105C77.1471 13.425 77.0421 12.645 77.0421 11.765C77.0421 10.895 77.1471 10.125 77.3571 9.455C77.5671 8.775 77.8671 8.21 78.2571 7.76C78.6471 7.3 79.1171 6.95 79.6671 6.71C80.2171 6.47 80.8271 6.35 81.4971 6.35C82.4371 6.35 83.2221 6.56 83.8521 6.98C84.4821 7.4 84.9671 7.955 85.3071 8.645L84.2721 9.275C84.0321 8.715 83.6721 8.275 83.1921 7.955C82.7221 7.635 82.1571 7.475 81.4971 7.475C81.0371 7.475 80.6171 7.56 80.2371 7.73C79.8571 7.89 79.5271 8.12 79.2471 8.42C78.9771 8.72 78.7671 9.08 78.6171 9.5C78.4671 9.92 78.3921 10.39 78.3921 10.91V12.605C78.3921 13.125 78.4671 13.6 78.6171 14.03C78.7671 14.45 78.9771 14.81 79.2471 15.11C79.5271 15.41 79.8671 15.645 80.2671 15.815C80.6671 15.975 81.1171 16.055 81.6171 16.055C81.9771 16.055 82.3171 16.01 82.6371 15.92C82.9671 15.82 83.2521 15.675 83.4921 15.485C83.7421 15.295 83.9371 15.06 84.0771 14.78C84.2171 14.49 84.2871 14.15 84.2871 13.76V12.725H81.9771V11.615H85.5171V17H84.3471V15.47ZM90.3068 17H89.0468V6.53H93.2168C94.1368 6.53 94.8518 6.785 95.3618 7.295C95.8818 7.805 96.1418 8.54 96.1418 9.5C96.1418 10.27 95.9618 10.905 95.6018 11.405C95.2518 11.895 94.7318 12.22 94.0418 12.38L96.4418 17H95.0168L92.7518 12.5H90.3068V17ZM93.2168 11.42C93.7168 11.42 94.1018 11.29 94.3718 11.03C94.6518 10.77 94.7918 10.4 94.7918 9.92V9.14C94.7918 8.66 94.6518 8.29 94.3718 8.03C94.1018 7.77 93.7168 7.64 93.2168 7.64H90.3068V11.42H93.2168ZM99.1965 17V15.95H100.666V7.58H99.1965V6.53H103.396V7.58H101.926V15.95H103.396V17H99.1965ZM110.17 7.64V17H108.91V7.64H105.58V6.53H113.5V7.64H110.17ZM116.234 15.92L121.409 12.905V12.785L116.234 9.77V8.51L122.534 12.245V13.445L116.234 17.18V15.92ZM141.658 5.465V18.485H140.578V5.465H141.658ZM137.668 5.69H138.733V18.125H137.668V11.39H136.018V10.445H137.668V5.69ZM136.318 7.715H130.198V6.77H136.318V7.715ZM136.648 13.865L136.753 14.75C135.923 14.91 134.908 15.035 133.708 15.125C132.518 15.205 131.293 15.245 130.033 15.245L129.928 14.3C130.658 14.3 131.208 14.295 131.578 14.285L131.203 8.93L132.253 8.825L132.538 14.255C132.878 14.245 133.328 14.22 133.888 14.18L134.263 8.81L135.313 8.915L134.863 14.12C135.653 14.03 136.248 13.945 136.648 13.865ZM154.537 5.465H155.677V18.485H154.537V5.465ZM144.907 10.73C144.907 9.27 145.227 8.165 145.867 7.415C146.517 6.665 147.372 6.29 148.432 6.29C149.482 6.29 150.327 6.665 150.967 7.415C151.617 8.165 151.942 9.27 151.942 10.73C151.942 11.71 151.792 12.535 151.492 13.205C151.192 13.865 150.777 14.36 150.247 14.69C149.717 15.01 149.112 15.17 148.432 15.17C147.372 15.17 146.517 14.795 145.867 14.045C145.227 13.295 144.907 12.19 144.907 10.73ZM150.727 11.315V10.145C150.727 9.215 150.512 8.5 150.082 8C149.662 7.5 149.112 7.25 148.432 7.25C147.742 7.25 147.182 7.5 146.752 8C146.332 8.49 146.122 9.205 146.122 10.145V11.315C146.122 12.255 146.332 12.975 146.752 13.475C147.182 13.965 147.742 14.21 148.432 14.21C149.112 14.21 149.662 13.96 150.082 13.46C150.512 12.96 150.727 12.245 150.727 11.315ZM170.101 5.465V18.485H168.961V5.465H170.101ZM163.831 10.97C163.971 10.97 164.086 11.025 164.176 11.135L167.116 14.585L166.261 15.32L163.291 11.75C163.241 11.69 163.181 11.66 163.111 11.66C163.051 11.66 162.996 11.69 162.946 11.75C162.676 12.3 162.321 12.86 161.881 13.43C161.441 14 160.841 14.7 160.081 15.53L159.226 14.81C160.096 13.9 160.766 13.11 161.236 12.44C161.716 11.77 162.061 11.105 162.271 10.445C162.481 9.775 162.586 9.015 162.586 8.165V7.595H159.631V6.635H166.666V7.595H163.726V8.21C163.726 9.34 163.551 10.345 163.201 11.225L163.276 11.27L163.501 11.09C163.611 11.01 163.721 10.97 163.831 10.97ZM183.865 10.655H175.24V5.945H176.365V9.71H183.865V10.655ZM185.605 12.32V13.295H173.365V12.32H185.605ZM176.26 17.795H184.03V18.755H175.87C175.63 18.755 175.445 18.69 175.315 18.56C175.185 18.43 175.12 18.24 175.12 17.99V14.705H176.26V17.795ZM193.794 9.65C193.474 9.65 193.239 9.57 193.089 9.41C192.949 9.24 192.879 9.025 192.879 8.765V8.555C192.879 8.145 192.999 7.695 193.239 7.205C193.479 6.705 193.814 6.27 194.244 5.9H195.249C194.949 6.22 194.704 6.525 194.514 6.815C194.334 7.095 194.204 7.41 194.124 7.76C194.324 7.81 194.469 7.905 194.559 8.045C194.659 8.185 194.709 8.355 194.709 8.555V8.765C194.709 9.025 194.634 9.24 194.484 9.41C194.344 9.57 194.114 9.65 193.794 9.65ZM210.165 11.555H208.005V18.515H206.865V5.495H208.005V10.595H210.165V11.555ZM205.275 13.505L205.425 14.435C203.845 14.755 201.925 14.915 199.665 14.915H198.09V6.515H199.215V13.955H199.665C201.825 13.955 203.695 13.805 205.275 13.505ZM213.504 5.75C213.824 5.75 214.054 5.835 214.194 6.005C214.344 6.165 214.419 6.375 214.419 6.635V6.845C214.419 7.255 214.299 7.71 214.059 8.21C213.819 8.7 213.484 9.13 213.054 9.5H212.049C212.349 9.18 212.589 8.88 212.769 8.6C212.959 8.31 213.094 7.99 213.174 7.64C212.974 7.59 212.824 7.495 212.724 7.355C212.634 7.215 212.589 7.045 212.589 6.845V6.635C212.589 6.375 212.659 6.165 212.799 6.005C212.949 5.835 213.184 5.75 213.504 5.75ZM229.741 11.78H227.701V18.485H226.576V5.465H227.701V10.82H229.741V11.78ZM225.496 14.45L225.601 15.365C224.511 15.545 223.201 15.685 221.671 15.785C220.151 15.875 218.581 15.92 216.961 15.92L216.856 14.945C218.266 14.945 219.466 14.92 220.456 14.87V12.29C219.566 12.19 218.841 11.865 218.281 11.315C217.721 10.765 217.441 10.065 217.441 9.215C217.441 8.605 217.596 8.07 217.906 7.61C218.216 7.14 218.641 6.78 219.181 6.53C219.721 6.27 220.331 6.14 221.011 6.14C221.691 6.14 222.301 6.27 222.841 6.53C223.381 6.78 223.801 7.14 224.101 7.61C224.411 8.07 224.566 8.605 224.566 9.215C224.566 10.065 224.286 10.765 223.726 11.315C223.176 11.865 222.451 12.19 221.551 12.29V14.825C223.011 14.755 224.326 14.63 225.496 14.45ZM221.011 11.39C221.711 11.39 222.281 11.21 222.721 10.85C223.161 10.48 223.381 9.995 223.381 9.395V9.05C223.381 8.45 223.161 7.97 222.721 7.61C222.281 7.24 221.711 7.055 221.011 7.055C220.311 7.055 219.741 7.24 219.301 7.61C218.861 7.97 218.641 8.45 218.641 9.05V9.395C218.641 9.995 218.861 10.48 219.301 10.85C219.741 11.21 220.311 11.39 221.011 11.39ZM237.54 9.65C237.22 9.65 236.985 9.57 236.835 9.41C236.695 9.24 236.625 9.025 236.625 8.765V8.555C236.625 8.145 236.745 7.695 236.985 7.205C237.225 6.705 237.56 6.27 237.99 5.9H238.995C238.695 6.22 238.45 6.525 238.26 6.815C238.08 7.095 237.95 7.41 237.87 7.76C238.07 7.81 238.215 7.905 238.305 8.045C238.405 8.185 238.455 8.355 238.455 8.555V8.765C238.455 9.025 238.38 9.24 238.23 9.41C238.09 9.57 237.86 9.65 237.54 9.65ZM248.74 15.47H248.695C248.565 15.96 248.245 16.37 247.735 16.7C247.235 17.02 246.585 17.18 245.785 17.18C245.145 17.18 244.555 17.065 244.015 16.835C243.485 16.595 243.03 16.25 242.65 15.8C242.27 15.34 241.97 14.775 241.75 14.105C241.54 13.425 241.435 12.645 241.435 11.765C241.435 10.895 241.54 10.125 241.75 9.455C241.96 8.775 242.26 8.21 242.65 7.76C243.04 7.3 243.51 6.95 244.06 6.71C244.61 6.47 245.22 6.35 245.89 6.35C246.83 6.35 247.615 6.56 248.245 6.98C248.875 7.4 249.36 7.955 249.7 8.645L248.665 9.275C248.425 8.715 248.065 8.275 247.585 7.955C247.115 7.635 246.55 7.475 245.89 7.475C245.43 7.475 245.01 7.56 244.63 7.73C244.25 7.89 243.92 8.12 243.64 8.42C243.37 8.72 243.16 9.08 243.01 9.5C242.86 9.92 242.785 10.39 242.785 10.91V12.605C242.785 13.125 242.86 13.6 243.01 14.03C243.16 14.45 243.37 14.81 243.64 15.11C243.92 15.41 244.26 15.645 244.66 15.815C245.06 15.975 245.51 16.055 246.01 16.055C246.37 16.055 246.71 16.01 247.03 15.92C247.36 15.82 247.645 15.675 247.885 15.485C248.135 15.295 248.33 15.06 248.47 14.78C248.61 14.49 248.68 14.15 248.68 13.76V12.725H246.37V11.615H249.91V17H248.74V15.47ZM252.945 17V15.95H254.415V7.58H252.945V6.53H257.145V7.58H255.675V15.95H257.145V17H252.945ZM261.756 17H260.496V6.53H264.666C265.586 6.53 266.301 6.785 266.811 7.295C267.331 7.805 267.591 8.54 267.591 9.5C267.591 10.27 267.411 10.905 267.051 11.405C266.701 11.895 266.181 12.22 265.491 12.38L267.891 17H266.466L264.201 12.5H261.756V17ZM264.666 11.42C265.166 11.42 265.551 11.29 265.821 11.03C266.101 10.77 266.241 10.4 266.241 9.92V9.14C266.241 8.66 266.101 8.29 265.821 8.03C265.551 7.77 265.166 7.64 264.666 7.64H261.756V11.42H264.666ZM274.299 7.64V17H273.039V7.64H269.709V6.53H277.629V7.64H274.299ZM281.421 5.75C281.741 5.75 281.971 5.835 282.111 6.005C282.261 6.165 282.336 6.375 282.336 6.635V6.845C282.336 7.255 282.216 7.71 281.976 8.21C281.736 8.7 281.401 9.13 280.971 9.5H279.966C280.266 9.18 280.506 8.88 280.686 8.6C280.876 8.31 281.011 7.99 281.091 7.64C280.891 7.59 280.741 7.495 280.641 7.355C280.551 7.215 280.506 7.045 280.506 6.845V6.635C280.506 6.375 280.576 6.165 280.716 6.005C280.866 5.835 281.101 5.75 281.421 5.75ZM285.443 15.245C285.763 15.245 285.993 15.33 286.133 15.5C286.283 15.66 286.358 15.87 286.358 16.13V16.34C286.358 16.75 286.238 17.2 285.998 17.69C285.758 18.19 285.423 18.625 284.993 18.995H283.988C284.288 18.675 284.528 18.37 284.708 18.08C284.898 17.8 285.033 17.485 285.113 17.135C284.913 17.085 284.763 16.99 284.663 16.85C284.573 16.71 284.528 16.54 284.528 16.34V16.13C284.528 15.87 284.598 15.66 284.738 15.5C284.888 15.33 285.123 15.245 285.443 15.245ZM303.095 7.52H295.25V6.545H304.22V7.655C304.22 10.035 303.995 12.24 303.545 14.27L302.45 14.09C302.88 12.07 303.095 9.925 303.095 7.655V7.52ZM305.945 16.025V17H293.705V16.025H305.945ZM319.289 5.465V18.485H318.149V5.465H319.289ZM316.439 13.925L316.589 14.84C315.039 15.14 313.069 15.29 310.679 15.29H309.059V10.265H313.784V7.415H308.999V6.455H314.924V11.21H310.184V14.36H310.664C312.934 14.36 314.859 14.215 316.439 13.925ZM332.003 7.52H324.083V6.545H333.128V7.61C333.128 9.83 332.913 11.945 332.483 13.955L331.373 13.775C331.793 11.745 332.003 9.705 332.003 7.655V7.52ZM334.793 16.04V17H322.553V16.04H327.353V11.225H328.478V16.04H334.793ZM343.267 6.17H344.392V8.66H350.992V6.17H352.117V13.07H343.267V6.17ZM350.992 12.11V9.62H344.392V12.11H350.992ZM341.572 16.025H353.812V17H341.572V16.025ZM364.441 15.065H363.331V5.675H364.441V9.575H366.451V5.465H367.561V15.44H366.451V10.52H364.441V15.065ZM362.596 12.995C361.266 13.305 359.691 13.46 357.871 13.46H356.656V9.425H360.541V7.37H356.596V6.44H361.606V10.325H357.721V12.545H358.156C358.986 12.545 359.771 12.505 360.511 12.425C361.251 12.345 361.896 12.235 362.446 12.095L362.596 12.995ZM367.846 17.825V18.77H359.641C359.401 18.77 359.216 18.705 359.086 18.575C358.956 18.445 358.891 18.255 358.891 18.005V14.795H360.031V17.825H367.846ZM381.07 12.65H372.19V6.365H380.935V7.34H373.33V11.675H381.07V12.65ZM382.66 16.025V17H370.42V16.025H382.66ZM390.849 9.65C390.529 9.65 390.294 9.57 390.144 9.41C390.004 9.24 389.934 9.025 389.934 8.765V8.555C389.934 8.145 390.054 7.695 390.294 7.205C390.534 6.705 390.869 6.27 391.299 5.9H392.304C392.004 6.22 391.759 6.525 391.569 6.815C391.389 7.095 391.259 7.41 391.179 7.76C391.379 7.81 391.524 7.905 391.614 8.045C391.714 8.185 391.764 8.355 391.764 8.555V8.765C391.764 9.025 391.689 9.24 391.539 9.41C391.399 9.57 391.169 9.65 390.849 9.65ZM394.92 17V15.95H396.39V7.58H394.92V6.53H399.12V7.58H397.65V15.95H399.12V17H394.92ZM406.121 19.475V18.425H413.696V19.475H406.121ZM415.653 19.475V18.425H423.228V19.475H415.653ZM425.184 19.475V18.425H432.759V19.475H425.184ZM447.035 15.47H446.99C446.86 15.96 446.54 16.37 446.03 16.7C445.53 17.02 444.88 17.18 444.08 17.18C443.44 17.18 442.85 17.065 442.31 16.835C441.78 16.595 441.325 16.25 440.945 15.8C440.565 15.34 440.265 14.775 440.045 14.105C439.835 13.425 439.73 12.645 439.73 11.765C439.73 10.895 439.835 10.125 440.045 9.455C440.255 8.775 440.555 8.21 440.945 7.76C441.335 7.3 441.805 6.95 442.355 6.71C442.905 6.47 443.515 6.35 444.185 6.35C445.125 6.35 445.91 6.56 446.54 6.98C447.17 7.4 447.655 7.955 447.995 8.645L446.96 9.275C446.72 8.715 446.36 8.275 445.88 7.955C445.41 7.635 444.845 7.475 444.185 7.475C443.725 7.475 443.305 7.56 442.925 7.73C442.545 7.89 442.215 8.12 441.935 8.42C441.665 8.72 441.455 9.08 441.305 9.5C441.155 9.92 441.08 10.39 441.08 10.91V12.605C441.08 13.125 441.155 13.6 441.305 14.03C441.455 14.45 441.665 14.81 441.935 15.11C442.215 15.41 442.555 15.645 442.955 15.815C443.355 15.975 443.805 16.055 444.305 16.055C444.665 16.055 445.005 16.01 445.325 15.92C445.655 15.82 445.94 15.675 446.18 15.485C446.43 15.295 446.625 15.06 446.765 14.78C446.905 14.49 446.975 14.15 446.975 13.76V12.725H444.665V11.615H448.205V17H447.035V15.47ZM452.995 17H451.735V6.53H455.905C456.825 6.53 457.54 6.785 458.05 7.295C458.57 7.805 458.83 8.54 458.83 9.5C458.83 10.27 458.65 10.905 458.29 11.405C457.94 11.895 457.42 12.22 456.73 12.38L459.13 17H457.705L455.44 12.5H452.995V17ZM455.905 11.42C456.405 11.42 456.79 11.29 457.06 11.03C457.34 10.77 457.48 10.4 457.48 9.92V9.14C457.48 8.66 457.34 8.29 457.06 8.03C456.79 7.77 456.405 7.64 455.905 7.64H452.995V11.42H455.905ZM461.885 17V15.95H463.355V7.58H461.885V6.53H466.085V7.58H464.615V15.95H466.085V17H461.885ZM472.858 7.64V17H471.598V7.64H468.268V6.53H476.188V7.64H472.858ZM479.98 5.75C480.3 5.75 480.53 5.835 480.67 6.005C480.82 6.165 480.895 6.375 480.895 6.635V6.845C480.895 7.255 480.775 7.71 480.535 8.21C480.295 8.7 479.96 9.13 479.53 9.5H478.525C478.825 9.18 479.065 8.88 479.245 8.6C479.435 8.31 479.57 7.99 479.65 7.64C479.45 7.59 479.3 7.495 479.2 7.355C479.11 7.215 479.065 7.045 479.065 6.845V6.635C479.065 6.375 479.135 6.165 479.275 6.005C479.425 5.835 479.66 5.75 479.98 5.75ZM495.152 5.465V18.485H494.057V5.465H495.152ZM491.102 5.69H492.167V18.125H491.102V11.3H489.662C489.612 12.6 489.322 13.58 488.792 14.24C488.262 14.89 487.562 15.215 486.692 15.215C485.762 15.215 485.027 14.855 484.487 14.135C483.947 13.405 483.677 12.32 483.677 10.88C483.677 9.44 483.947 8.36 484.487 7.64C485.027 6.91 485.762 6.545 486.692 6.545C487.552 6.545 488.242 6.865 488.762 7.505C489.292 8.145 489.592 9.095 489.662 10.355H491.102V5.69ZM488.522 10.16C488.522 9.28 488.352 8.61 488.012 8.15C487.682 7.69 487.242 7.46 486.692 7.46C486.132 7.46 485.682 7.69 485.342 8.15C485.012 8.61 484.847 9.28 484.847 10.16V11.615C484.847 12.485 485.012 13.155 485.342 13.625C485.682 14.085 486.132 14.315 486.692 14.315C487.242 14.315 487.682 14.085 488.012 13.625C488.352 13.155 488.522 12.485 488.522 11.615V10.16ZM514.171 5.465V18.485H513.061V11.495H511.006V18.125H509.911V5.69H511.006V10.55H513.061V5.465H514.171ZM508.771 13.7L508.921 14.6C507.711 14.91 506.216 15.065 504.436 15.065H503.206V6.8H508.051V7.76H504.301V14.12H504.706C506.346 14.12 507.701 13.98 508.771 13.7ZM529.675 9.92V10.88H527.59V15.5H526.45V5.465H527.59V9.92H529.675ZM523.015 6.83H519.01V5.87H523.015V6.83ZM520.915 13.94C520.295 13.94 519.75 13.835 519.28 13.625C518.81 13.415 518.445 13.125 518.185 12.755C517.935 12.385 517.81 11.965 517.81 11.495C517.81 11.025 517.92 10.615 518.14 10.265C518.37 9.905 518.71 9.63 519.16 9.44V9.365H516.82V8.42H524.95V9.365H522.67V9.44C523.12 9.63 523.455 9.905 523.675 10.265C523.905 10.615 524.02 11.025 524.02 11.495C524.02 11.965 523.89 12.385 523.63 12.755C523.38 13.125 523.02 13.415 522.55 13.625C522.08 13.835 521.535 13.94 520.915 13.94ZM520.795 12.98H521.05C521.61 12.98 522.065 12.83 522.415 12.53C522.775 12.22 522.955 11.79 522.955 11.24C522.955 10.69 522.78 10.26 522.43 9.95C522.08 9.64 521.62 9.485 521.05 9.485H520.795C520.225 9.485 519.765 9.64 519.415 9.95C519.065 10.25 518.89 10.68 518.89 11.24C518.89 11.79 519.065 12.22 519.415 12.53C519.775 12.83 520.235 12.98 520.795 12.98ZM520.555 17.9H527.89V18.845H520.165C519.925 18.845 519.74 18.78 519.61 18.65C519.48 18.52 519.415 18.33 519.415 18.08V15.08H520.555V17.9ZM546.144 8.93H543.279V7.985H546.144V5.465H547.284V12.35H546.144V8.93ZM540.039 9.41C539.969 9.41 539.904 9.445 539.844 9.515C539.574 9.925 539.224 10.355 538.794 10.805C538.364 11.245 537.794 11.78 537.084 12.41L536.244 11.675C537.094 10.945 537.749 10.325 538.209 9.815C538.669 9.295 538.999 8.785 539.199 8.285C539.399 7.775 539.499 7.2 539.499 6.56V5.78H540.654V6.62C540.654 7.49 540.479 8.29 540.129 9.02L540.189 9.065L540.444 8.84C540.564 8.75 540.674 8.705 540.774 8.705C540.884 8.705 540.989 8.75 541.089 8.84L543.924 11.345L543.129 12.155L540.234 9.5C540.174 9.44 540.109 9.41 540.039 9.41ZM547.644 18.125V19.1H539.679C539.439 19.1 539.254 19.035 539.124 18.905C538.994 18.775 538.929 18.585 538.929 18.335V15.62H546.129V14.09H538.839V13.115H547.284V16.58H540.084V18.125H547.644ZM560.568 11.03H557.808V10.115H560.568V8.24H557.808V7.325H560.568V5.465H561.708V13.22H560.568V11.03ZM557.298 12.095H551.163V6.125H557.298V12.095ZM556.173 7.055H552.288V11.165H556.173V7.055ZM561.783 16.34C561.783 16.89 561.623 17.38 561.303 17.81C560.993 18.25 560.523 18.595 559.893 18.845C559.263 19.095 558.493 19.22 557.583 19.22C556.673 19.22 555.898 19.095 555.258 18.845C554.628 18.595 554.153 18.25 553.833 17.81C553.523 17.38 553.368 16.89 553.368 16.34C553.368 15.79 553.523 15.3 553.833 14.87C554.153 14.43 554.628 14.085 555.258 13.835C555.898 13.585 556.673 13.46 557.583 13.46C558.493 13.46 559.263 13.585 559.893 13.835C560.523 14.085 560.993 14.43 561.303 14.87C561.623 15.3 561.783 15.79 561.783 16.34ZM560.568 16.22C560.568 15.7 560.318 15.265 559.818 14.915C559.328 14.565 558.583 14.39 557.583 14.39C556.583 14.39 555.833 14.57 555.333 14.93C554.833 15.28 554.583 15.71 554.583 16.22V16.475C554.583 16.985 554.833 17.415 555.333 17.765C555.833 18.125 556.583 18.305 557.583 18.305C558.583 18.305 559.328 18.125 559.818 17.765C560.318 17.415 560.568 16.985 560.568 16.475V16.22ZM566.292 9.545C566.292 8.875 566.462 8.275 566.802 7.745C567.152 7.205 567.682 6.775 568.392 6.455C569.102 6.135 569.977 5.975 571.017 5.975C572.057 5.975 572.932 6.135 573.642 6.455C574.352 6.775 574.877 7.205 575.217 7.745C575.567 8.275 575.742 8.875 575.742 9.545C575.742 10.215 575.567 10.82 575.217 11.36C574.877 11.9 574.352 12.33 573.642 12.65C572.932 12.97 572.057 13.13 571.017 13.13C569.977 13.13 569.102 12.97 568.392 12.65C567.682 12.33 567.152 11.9 566.802 11.36C566.462 10.82 566.292 10.215 566.292 9.545ZM574.512 9.725V9.38C574.512 8.92 574.387 8.505 574.137 8.135C573.897 7.755 573.512 7.455 572.982 7.235C572.462 7.005 571.807 6.89 571.017 6.89C570.227 6.89 569.567 7.005 569.037 7.235C568.517 7.455 568.132 7.755 567.882 8.135C567.642 8.505 567.522 8.92 567.522 9.38V9.725C567.522 10.435 567.812 11.025 568.392 11.495C568.972 11.965 569.847 12.2 571.017 12.2C572.187 12.2 573.062 11.965 573.642 11.495C574.222 11.025 574.512 10.435 574.512 9.725ZM564.897 16.025H577.137V17H564.897V16.025ZM591.561 16.04V17H579.321V16.04H584.871V13.475H581.121V9.41H588.621V7.205H581.046V6.26H589.761V10.325H582.261V12.53H590.151V13.475H586.011V16.04H591.561ZM608.36 5.465H609.5V18.485H608.36V5.465ZM598.73 10.73C598.73 9.27 599.05 8.165 599.69 7.415C600.34 6.665 601.195 6.29 602.255 6.29C603.305 6.29 604.15 6.665 604.79 7.415C605.44 8.165 605.765 9.27 605.765 10.73C605.765 11.71 605.615 12.535 605.315 13.205C605.015 13.865 604.6 14.36 604.07 14.69C603.54 15.01 602.935 15.17 602.255 15.17C601.195 15.17 600.34 14.795 599.69 14.045C599.05 13.295 598.73 12.19 598.73 10.73ZM604.55 11.315V10.145C604.55 9.215 604.335 8.5 603.905 8C603.485 7.5 602.935 7.25 602.255 7.25C601.565 7.25 601.005 7.5 600.575 8C600.155 8.49 599.945 9.205 599.945 10.145V11.315C599.945 12.255 600.155 12.975 600.575 13.475C601.005 13.965 601.565 14.21 602.255 14.21C602.935 14.21 603.485 13.96 603.905 13.46C604.335 12.96 604.55 12.245 604.55 11.315ZM621.959 6.8H614.594V5.855H623.084V9.425H615.809V11.15H623.459V12.095H614.669V8.525H621.959V6.8ZM625.004 14.54H619.454V19.01H618.314V14.54H612.764V13.58H625.004V14.54ZM638.363 5.465V18.485H637.238V11.105H634.448C634.398 12.445 634.058 13.46 633.428 14.15C632.798 14.83 631.988 15.17 630.998 15.17C629.958 15.17 629.118 14.795 628.478 14.045C627.848 13.295 627.533 12.19 627.533 10.73C627.533 9.26 627.848 8.155 628.478 7.415C629.108 6.665 629.948 6.29 630.998 6.29C631.968 6.29 632.763 6.615 633.383 7.265C634.003 7.915 634.358 8.875 634.448 10.145H637.238V5.465H638.363ZM633.263 10.13C633.263 9.2 633.053 8.49 632.633 8C632.223 7.5 631.678 7.25 630.998 7.25C630.318 7.25 629.773 7.5 629.363 8C628.953 8.49 628.748 9.2 628.748 10.13V11.33C628.748 12.26 628.953 12.975 629.363 13.475C629.773 13.965 630.318 14.21 630.998 14.21C631.678 14.21 632.223 13.965 632.633 13.475C633.053 12.975 633.263 12.26 633.263 11.33V10.13ZM652.802 5.465V18.485H651.677V12.545H649.052V11.6H651.677V9.755H649.052V8.81H651.677V5.465H652.802ZM646.307 10.97C646.437 10.97 646.557 11.025 646.667 11.135L649.517 14.585L648.662 15.335L645.782 11.75C645.732 11.69 645.672 11.66 645.602 11.66C645.542 11.66 645.487 11.69 645.437 11.75C645.177 12.29 644.832 12.845 644.402 13.415C643.972 13.985 643.387 14.69 642.647 15.53L641.792 14.81C642.642 13.9 643.297 13.11 643.757 12.44C644.227 11.77 644.562 11.105 644.762 10.445C644.972 9.775 645.077 9.015 645.077 8.165V7.565H642.197V6.605H649.097V7.565H646.217V8.21C646.217 9.32 646.037 10.325 645.677 11.225L645.767 11.27L645.992 11.09C646.102 11.01 646.207 10.97 646.307 10.97ZM667.271 12.98H666.116V5.465H667.271V12.98ZM656.471 9.2C656.471 8.54 656.616 7.965 656.906 7.475C657.206 6.985 657.616 6.61 658.136 6.35C658.656 6.08 659.251 5.945 659.921 5.945C660.591 5.945 661.186 6.08 661.706 6.35C662.226 6.61 662.631 6.985 662.921 7.475C663.221 7.965 663.371 8.54 663.371 9.2C663.371 9.86 663.221 10.435 662.921 10.925C662.631 11.415 662.221 11.795 661.691 12.065C661.171 12.325 660.581 12.455 659.921 12.455C659.261 12.455 658.666 12.325 658.136 12.065C657.616 11.795 657.206 11.415 656.906 10.925C656.616 10.435 656.471 9.86 656.471 9.2ZM657.671 9.455C657.671 10.075 657.876 10.575 658.286 10.955C658.706 11.325 659.251 11.51 659.921 11.51C660.591 11.51 661.131 11.325 661.541 10.955C661.951 10.575 662.156 10.075 662.156 9.455V8.93C662.156 8.31 661.951 7.815 661.541 7.445C661.131 7.075 660.591 6.89 659.921 6.89C659.251 6.89 658.706 7.075 658.286 7.445C657.876 7.815 657.671 8.31 657.671 8.93V9.455ZM668.501 18.275L667.766 19.055L665.546 16.88C665.486 16.81 665.416 16.775 665.336 16.775C665.296 16.775 665.251 16.79 665.201 16.82C664.971 17.16 664.676 17.51 664.316 17.87C663.956 18.24 663.476 18.685 662.876 19.205L660.596 16.835C660.526 16.765 660.456 16.73 660.386 16.73C660.346 16.73 660.291 16.755 660.221 16.805C659.781 17.465 659.031 18.25 657.971 19.16L657.251 18.395C657.921 17.835 658.446 17.335 658.826 16.895C659.206 16.455 659.476 16.02 659.636 15.59C659.806 15.16 659.891 14.675 659.891 14.135V13.655H660.971V14.165C660.971 14.985 660.816 15.7 660.506 16.31L660.566 16.34L660.761 16.19C660.841 16.12 660.936 16.085 661.046 16.085C661.166 16.085 661.271 16.13 661.361 16.22L662.951 17.81C663.671 17.16 664.166 16.575 664.436 16.055C664.706 15.535 664.841 14.9 664.841 14.15V13.655H665.921V14.21C665.921 14.65 665.886 15.04 665.816 15.38C665.746 15.72 665.631 16.045 665.471 16.355L665.531 16.4L665.726 16.235C665.836 16.155 665.941 16.115 666.041 16.115C666.141 16.115 666.241 16.155 666.341 16.235L668.501 18.275ZM672.065 8.15C672.065 7.36 672.44 6.725 673.19 6.245C673.95 5.755 675.08 5.51 676.58 5.51C678.08 5.51 679.205 5.755 679.955 6.245C680.715 6.725 681.095 7.36 681.095 8.15C681.095 8.94 680.715 9.58 679.955 10.07C679.205 10.55 678.08 10.79 676.58 10.79C675.08 10.79 673.95 10.55 673.19 10.07C672.44 9.58 672.065 8.94 672.065 8.15ZM679.88 8.255V8.045C679.88 7.565 679.605 7.17 679.055 6.86C678.515 6.55 677.69 6.395 676.58 6.395C675.47 6.395 674.64 6.55 674.09 6.86C673.55 7.17 673.28 7.565 673.28 8.045V8.255C673.28 8.725 673.555 9.115 674.105 9.425C674.655 9.735 675.48 9.89 676.58 9.89C677.68 9.89 678.505 9.735 679.055 9.425C679.605 9.115 679.88 8.725 679.88 8.255ZM682.7 11.915V12.89H670.46V11.915H682.7ZM672.275 18.23V14.3H680.885V18.995H673.025C672.785 18.995 672.6 18.93 672.47 18.8C672.34 18.67 672.275 18.48 672.275 18.23ZM679.76 15.23H673.4V18.05H679.76V15.23Z" fill="#1B1C25"/>
<path d="M1.98 42.65C1.66 42.65 1.425 42.57 1.275 42.41C1.135 42.24 1.065 42.025 1.065 41.765V41.555C1.065 41.145 1.185 40.695 1.425 40.205C1.665 39.705 2 39.27 2.43 38.9H3.435C3.135 39.22 2.89 39.525 2.7 39.815C2.52 40.095 2.39 40.41 2.31 40.76C2.51 40.81 2.655 40.905 2.745 41.045C2.845 41.185 2.895 41.355 2.895 41.555V41.765C2.895 42.025 2.82 42.24 2.67 42.41C2.53 42.57 2.3 42.65 1.98 42.65ZM18.3516 44.555H16.1916V51.515H15.0516V38.495H16.1916V43.595H18.3516V44.555ZM13.4616 46.505L13.6116 47.435C12.0316 47.755 10.1116 47.915 7.85156 47.915H6.27656V39.515H7.40156V46.955H7.85156C10.0116 46.955 11.8816 46.805 13.4616 46.505ZM21.6906 38.75C22.0106 38.75 22.2406 38.835 22.3806 39.005C22.5306 39.165 22.6056 39.375 22.6056 39.635V39.845C22.6056 40.255 22.4856 40.71 22.2456 41.21C22.0056 41.7 21.6706 42.13 21.2406 42.5H20.2356C20.5356 42.18 20.7756 41.88 20.9556 41.6C21.1456 41.31 21.2806 40.99 21.3606 40.64C21.1606 40.59 21.0106 40.495 20.9106 40.355C20.8206 40.215 20.7756 40.045 20.7756 39.845V39.635C20.7756 39.375 20.8456 39.165 20.9856 39.005C21.1356 38.835 21.3706 38.75 21.6906 38.75ZM36.8621 38.465V51.485H35.7671V38.465H36.8621ZM32.8121 38.69H33.8771V51.125H32.8121V44.3H31.3721C31.3221 45.6 31.0321 46.58 30.5021 47.24C29.9721 47.89 29.2721 48.215 28.4021 48.215C27.4721 48.215 26.7371 47.855 26.1971 47.135C25.6571 46.405 25.3871 45.32 25.3871 43.88C25.3871 42.44 25.6571 41.36 26.1971 40.64C26.7371 39.91 27.4721 39.545 28.4021 39.545C29.2621 39.545 29.9521 39.865 30.4721 40.505C31.0021 41.145 31.3021 42.095 31.3721 43.355H32.8121V38.69ZM30.2321 43.16C30.2321 42.28 30.0621 41.61 29.7221 41.15C29.3921 40.69 28.9521 40.46 28.4021 40.46C27.8421 40.46 27.3921 40.69 27.0521 41.15C26.7221 41.61 26.5571 42.28 26.5571 43.16V44.615C26.5571 45.485 26.7221 46.155 27.0521 46.625C27.3921 47.085 27.8421 47.315 28.4021 47.315C28.9521 47.315 29.3921 47.085 29.7221 46.625C30.0621 46.155 30.2321 45.485 30.2321 44.615V43.16ZM55.8811 38.465V51.485H54.7711V44.495H52.7161V51.125H51.6211V38.69H52.7161V43.55H54.7711V38.465H55.8811ZM50.4811 46.7L50.6311 47.6C49.4211 47.91 47.9261 48.065 46.1461 48.065H44.9161V39.8H49.7611V40.76H46.0111V47.12H46.4161C48.0561 47.12 49.4111 46.98 50.4811 46.7ZM71.3851 42.92V43.88H69.3001V48.5H68.1601V38.465H69.3001V42.92H71.3851ZM64.7251 39.83H60.7201V38.87H64.7251V39.83ZM62.6251 46.94C62.0051 46.94 61.4601 46.835 60.9901 46.625C60.5201 46.415 60.1551 46.125 59.8951 45.755C59.6451 45.385 59.5201 44.965 59.5201 44.495C59.5201 44.025 59.6301 43.615 59.8501 43.265C60.0801 42.905 60.4201 42.63 60.8701 42.44V42.365H58.5301V41.42H66.6601V42.365H64.3801V42.44C64.8301 42.63 65.1651 42.905 65.3851 43.265C65.6151 43.615 65.7301 44.025 65.7301 44.495C65.7301 44.965 65.6001 45.385 65.3401 45.755C65.0901 46.125 64.7301 46.415 64.2601 46.625C63.7901 46.835 63.2451 46.94 62.6251 46.94ZM62.5051 45.98H62.7601C63.3201 45.98 63.7751 45.83 64.1251 45.53C64.4851 45.22 64.6651 44.79 64.6651 44.24C64.6651 43.69 64.4901 43.26 64.1401 42.95C63.7901 42.64 63.3301 42.485 62.7601 42.485H62.5051C61.9351 42.485 61.4751 42.64 61.1251 42.95C60.7751 43.25 60.6001 43.68 60.6001 44.24C60.6001 44.79 60.7751 45.22 61.1251 45.53C61.4851 45.83 61.9451 45.98 62.5051 45.98ZM62.2651 50.9H69.6001V51.845H61.8751C61.6351 51.845 61.4501 51.78 61.3201 51.65C61.1901 51.52 61.1251 51.33 61.1251 51.08V48.08H62.2651V50.9ZM90.3891 44.555H88.2291V51.515H87.0891V38.495H88.2291V43.595H90.3891V44.555ZM78.2091 39.5H84.3891V47.855H78.2091V39.5ZM79.3191 46.91H83.2791V40.445H79.3191V46.91ZM103.418 38.465V48.35H102.263V38.465H103.418ZM92.6181 42.515C92.6181 41.815 92.7631 41.205 93.0531 40.685C93.3531 40.165 93.7631 39.77 94.2831 39.5C94.8031 39.22 95.3981 39.08 96.0681 39.08C96.7281 39.08 97.3181 39.22 97.8381 39.5C98.3681 39.77 98.7781 40.165 99.0681 40.685C99.3681 41.205 99.5181 41.815 99.5181 42.515C99.5181 43.205 99.3681 43.81 99.0681 44.33C98.7781 44.85 98.3681 45.25 97.8381 45.53C97.3181 45.8 96.7281 45.935 96.0681 45.935C95.3981 45.935 94.8031 45.8 94.2831 45.53C93.7631 45.25 93.3531 44.855 93.0531 44.345C92.7631 43.825 92.6181 43.215 92.6181 42.515ZM98.3031 42.83V42.2C98.3031 41.54 98.0931 41.015 97.6731 40.625C97.2631 40.225 96.7281 40.025 96.0681 40.025C95.3981 40.025 94.8531 40.225 94.4331 40.625C94.0231 41.025 93.8181 41.55 93.8181 42.2V42.83C93.8181 43.48 94.0281 44.005 94.4481 44.405C94.8681 44.795 95.4081 44.99 96.0681 44.99C96.7281 44.99 97.2631 44.795 97.6731 44.405C98.0931 44.005 98.3031 43.48 98.3031 42.83ZM95.0781 51.005V47.27H96.2331V50.825H103.688V51.77H95.8281C95.5881 51.77 95.4031 51.705 95.2731 51.575C95.1431 51.445 95.0781 51.255 95.0781 51.005ZM117.257 45.65H108.377V39.365H117.122V40.34H109.517V44.675H117.257V45.65ZM118.847 49.025V50H106.607V49.025H118.847ZM132.596 38.465V45.755H131.486V42.635H129.551V45.635H128.456V38.675H129.551V41.705H131.486V38.465H132.596ZM126.866 45.065H121.541V39.29H126.866V45.065ZM125.786 40.205H122.636V44.135H125.786V40.205ZM131.471 46.535H132.596V52.025H124.856C124.616 52.025 124.431 51.96 124.301 51.83C124.171 51.7 124.106 51.51 124.106 51.26V46.535H125.231V48.26H131.471V46.535ZM131.471 49.235H125.231V51.05H131.471V49.235ZM148.085 44.78H146.045V51.485H144.92V38.465H146.045V43.82H148.085V44.78ZM141.725 40.595H136.085V39.65H142.835V40.805C142.835 42.395 142.655 43.98 142.295 45.56L141.2 45.395C141.55 43.945 141.725 42.46 141.725 40.94V40.595ZM143.84 47.21L143.945 48.125C142.845 48.305 141.53 48.44 140 48.53C138.48 48.62 136.915 48.665 135.305 48.665L135.2 47.705C136.2 47.705 137.195 47.69 138.185 47.66V43.595H139.295V47.615C141.105 47.535 142.62 47.4 143.84 47.21ZM155.884 42.65C155.564 42.65 155.329 42.57 155.179 42.41C155.039 42.24 154.969 42.025 154.969 41.765V41.555C154.969 41.145 155.089 40.695 155.329 40.205C155.569 39.705 155.904 39.27 156.334 38.9H157.339C157.039 39.22 156.794 39.525 156.604 39.815C156.424 40.095 156.294 40.41 156.214 40.76C156.414 40.81 156.559 40.905 156.649 41.045C156.749 41.185 156.799 41.355 156.799 41.555V41.765C156.799 42.025 156.724 42.24 156.574 42.41C156.434 42.57 156.204 42.65 155.884 42.65ZM167.084 48.47H167.039C166.909 48.96 166.589 49.37 166.079 49.7C165.579 50.02 164.929 50.18 164.129 50.18C163.489 50.18 162.899 50.065 162.359 49.835C161.829 49.595 161.374 49.25 160.994 48.8C160.614 48.34 160.314 47.775 160.094 47.105C159.884 46.425 159.779 45.645 159.779 44.765C159.779 43.895 159.884 43.125 160.094 42.455C160.304 41.775 160.604 41.21 160.994 40.76C161.384 40.3 161.854 39.95 162.404 39.71C162.954 39.47 163.564 39.35 164.234 39.35C165.174 39.35 165.959 39.56 166.589 39.98C167.219 40.4 167.704 40.955 168.044 41.645L167.009 42.275C166.769 41.715 166.409 41.275 165.929 40.955C165.459 40.635 164.894 40.475 164.234 40.475C163.774 40.475 163.354 40.56 162.974 40.73C162.594 40.89 162.264 41.12 161.984 41.42C161.714 41.72 161.504 42.08 161.354 42.5C161.204 42.92 161.129 43.39 161.129 43.91V45.605C161.129 46.125 161.204 46.6 161.354 47.03C161.504 47.45 161.714 47.81 161.984 48.11C162.264 48.41 162.604 48.645 163.004 48.815C163.404 48.975 163.854 49.055 164.354 49.055C164.714 49.055 165.054 49.01 165.374 48.92C165.704 48.82 165.989 48.675 166.229 48.485C166.479 48.295 166.674 48.06 166.814 47.78C166.954 47.49 167.024 47.15 167.024 46.76V45.725H164.714V44.615H168.254V50H167.084V48.47ZM173.044 50H171.784V39.53H175.954C176.874 39.53 177.589 39.785 178.099 40.295C178.619 40.805 178.879 41.54 178.879 42.5C178.879 43.27 178.699 43.905 178.339 44.405C177.989 44.895 177.469 45.22 176.779 45.38L179.179 50H177.754L175.489 45.5H173.044V50ZM175.954 44.42C176.454 44.42 176.839 44.29 177.109 44.03C177.389 43.77 177.529 43.4 177.529 42.92V42.14C177.529 41.66 177.389 41.29 177.109 41.03C176.839 40.77 176.454 40.64 175.954 40.64H173.044V44.42H175.954ZM181.934 50V48.95H183.404V40.58H181.934V39.53H186.134V40.58H184.664V48.95H186.134V50H181.934ZM192.907 40.64V50H191.647V40.64H188.317V39.53H196.237V40.64H192.907ZM200.029 38.75C200.349 38.75 200.579 38.835 200.719 39.005C200.869 39.165 200.944 39.375 200.944 39.635V39.845C200.944 40.255 200.824 40.71 200.584 41.21C200.344 41.7 200.009 42.13 199.579 42.5H198.574C198.874 42.18 199.114 41.88 199.294 41.6C199.484 41.31 199.619 40.99 199.699 40.64C199.499 40.59 199.349 40.495 199.249 40.355C199.159 40.215 199.114 40.045 199.114 39.845V39.635C199.114 39.375 199.184 39.165 199.324 39.005C199.474 38.835 199.709 38.75 200.029 38.75ZM215.2 38.465V51.485H214.105V38.465H215.2ZM211.15 38.69H212.215V51.125H211.15V44.3H209.71C209.66 45.6 209.37 46.58 208.84 47.24C208.31 47.89 207.61 48.215 206.74 48.215C205.81 48.215 205.075 47.855 204.535 47.135C203.995 46.405 203.725 45.32 203.725 43.88C203.725 42.44 203.995 41.36 204.535 40.64C205.075 39.91 205.81 39.545 206.74 39.545C207.6 39.545 208.29 39.865 208.81 40.505C209.34 41.145 209.64 42.095 209.71 43.355H211.15V38.69ZM208.57 43.16C208.57 42.28 208.4 41.61 208.06 41.15C207.73 40.69 207.29 40.46 206.74 40.46C206.18 40.46 205.73 40.69 205.39 41.15C205.06 41.61 204.895 42.28 204.895 43.16V44.615C204.895 45.485 205.06 46.155 205.39 46.625C205.73 47.085 206.18 47.315 206.74 47.315C207.29 47.315 207.73 47.085 208.06 46.625C208.4 46.155 208.57 45.485 208.57 44.615V43.16ZM234.219 38.465V51.485H233.109V44.495H231.054V51.125H229.959V38.69H231.054V43.55H233.109V38.465H234.219ZM228.819 46.7L228.969 47.6C227.759 47.91 226.264 48.065 224.484 48.065H223.254V39.8H228.099V40.76H224.349V47.12H224.754C226.394 47.12 227.749 46.98 228.819 46.7ZM249.723 42.92V43.88H247.638V48.5H246.498V38.465H247.638V42.92H249.723ZM243.063 39.83H239.058V38.87H243.063V39.83ZM240.963 46.94C240.343 46.94 239.798 46.835 239.328 46.625C238.858 46.415 238.493 46.125 238.233 45.755C237.983 45.385 237.858 44.965 237.858 44.495C237.858 44.025 237.968 43.615 238.188 43.265C238.418 42.905 238.758 42.63 239.208 42.44V42.365H236.868V41.42H244.998V42.365H242.718V42.44C243.168 42.63 243.503 42.905 243.723 43.265C243.953 43.615 244.068 44.025 244.068 44.495C244.068 44.965 243.938 45.385 243.678 45.755C243.428 46.125 243.068 46.415 242.598 46.625C242.128 46.835 241.583 46.94 240.963 46.94ZM240.843 45.98H241.098C241.658 45.98 242.113 45.83 242.463 45.53C242.823 45.22 243.003 44.79 243.003 44.24C243.003 43.69 242.828 43.26 242.478 42.95C242.128 42.64 241.668 42.485 241.098 42.485H240.843C240.273 42.485 239.813 42.64 239.463 42.95C239.113 43.25 238.938 43.68 238.938 44.24C238.938 44.79 239.113 45.22 239.463 45.53C239.823 45.83 240.283 45.98 240.843 45.98ZM240.603 50.9H247.938V51.845H240.213C239.973 51.845 239.788 51.78 239.658 51.65C239.528 51.52 239.463 51.33 239.463 51.08V48.08H240.603V50.9ZM266.192 41.93H263.327V40.985H266.192V38.465H267.332V45.35H266.192V41.93ZM260.087 42.41C260.017 42.41 259.952 42.445 259.892 42.515C259.622 42.925 259.272 43.355 258.842 43.805C258.412 44.245 257.842 44.78 257.132 45.41L256.292 44.675C257.142 43.945 257.797 43.325 258.257 42.815C258.717 42.295 259.047 41.785 259.247 41.285C259.447 40.775 259.547 40.2 259.547 39.56V38.78H260.702V39.62C260.702 40.49 260.527 41.29 260.177 42.02L260.237 42.065L260.492 41.84C260.612 41.75 260.722 41.705 260.822 41.705C260.932 41.705 261.037 41.75 261.137 41.84L263.972 44.345L263.177 45.155L260.282 42.5C260.222 42.44 260.157 42.41 260.087 42.41ZM267.692 51.125V52.1H259.727C259.487 52.1 259.302 52.035 259.172 51.905C259.042 51.775 258.977 51.585 258.977 51.335V48.62H266.177V47.09H258.887V46.115H267.332V49.58H260.132V51.125H267.692ZM280.616 44.03H277.856V43.115H280.616V41.24H277.856V40.325H280.616V38.465H281.756V46.22H280.616V44.03ZM277.346 45.095H271.211V39.125H277.346V45.095ZM276.221 40.055H272.336V44.165H276.221V40.055ZM281.831 49.34C281.831 49.89 281.671 50.38 281.351 50.81C281.041 51.25 280.571 51.595 279.941 51.845C279.311 52.095 278.541 52.22 277.631 52.22C276.721 52.22 275.946 52.095 275.306 51.845C274.676 51.595 274.201 51.25 273.881 50.81C273.571 50.38 273.416 49.89 273.416 49.34C273.416 48.79 273.571 48.3 273.881 47.87C274.201 47.43 274.676 47.085 275.306 46.835C275.946 46.585 276.721 46.46 277.631 46.46C278.541 46.46 279.311 46.585 279.941 46.835C280.571 47.085 281.041 47.43 281.351 47.87C281.671 48.3 281.831 48.79 281.831 49.34ZM280.616 49.22C280.616 48.7 280.366 48.265 279.866 47.915C279.376 47.565 278.631 47.39 277.631 47.39C276.631 47.39 275.881 47.57 275.381 47.93C274.881 48.28 274.631 48.71 274.631 49.22V49.475C274.631 49.985 274.881 50.415 275.381 50.765C275.881 51.125 276.631 51.305 277.631 51.305C278.631 51.305 279.376 51.125 279.866 50.765C280.366 50.415 280.616 49.985 280.616 49.475V49.22ZM286.565 40.865C286.565 40.135 286.94 39.555 287.69 39.125C288.44 38.685 289.565 38.465 291.065 38.465C292.565 38.465 293.69 38.685 294.44 39.125C295.19 39.555 295.565 40.135 295.565 40.865C295.565 41.595 295.19 42.18 294.44 42.62C293.69 43.06 292.565 43.28 291.065 43.28C289.565 43.28 288.44 43.06 287.69 42.62C286.94 42.18 286.565 41.595 286.565 40.865ZM294.35 40.94V40.775C294.35 40.345 294.075 39.995 293.525 39.725C292.985 39.445 292.165 39.305 291.065 39.305C289.965 39.305 289.14 39.445 288.59 39.725C288.05 39.995 287.78 40.345 287.78 40.775V40.94C287.78 41.37 288.05 41.725 288.59 42.005C289.14 42.275 289.965 42.41 291.065 42.41C292.165 42.41 292.985 42.275 293.525 42.005C294.075 41.725 294.35 41.37 294.35 40.94ZM297.185 44.315V45.275H284.945V44.315H297.185ZM286.85 51.335V48.875H294.245V47.465H286.76V46.535H295.34V49.745H287.945V51.17H295.73V52.1H287.6C287.36 52.1 287.175 52.035 287.045 51.905C286.915 51.775 286.85 51.585 286.85 51.335ZM314.059 41.75V38.465H315.199V47.255H314.059V42.695H310.444V41.75H314.059ZM306.289 45.605H304.774V39.185H310.684V40.145H305.914V44.66H306.334C307.414 44.66 308.434 44.62 309.394 44.54C310.354 44.46 311.174 44.35 311.854 44.21L312.004 45.125C311.294 45.275 310.444 45.395 309.454 45.485C308.464 45.565 307.409 45.605 306.289 45.605ZM315.829 51.245L315.169 52.13L311.194 49.775C311.084 49.705 310.969 49.67 310.849 49.67C310.719 49.67 310.609 49.71 310.519 49.79H310.504C310.144 50.15 309.649 50.52 309.019 50.9C308.399 51.29 307.599 51.715 306.619 52.175L305.989 51.305C307.189 50.765 308.104 50.28 308.734 49.85C309.364 49.41 309.799 48.975 310.039 48.545C310.279 48.115 310.399 47.615 310.399 47.045V46.61H311.584V47.09C311.584 47.56 311.529 47.98 311.419 48.35C311.319 48.71 311.139 49.055 310.879 49.385L310.939 49.4L311.299 49.145C311.459 49.035 311.584 48.98 311.674 48.98C311.754 48.98 311.864 49.015 312.004 49.085L315.829 51.245ZM328.813 43.16H320.203V38.525H321.328V39.98H327.703V38.525H328.813V43.16ZM327.703 40.85H321.328V42.29H327.703V40.85ZM325.078 45.29V46.61H328.993V47.54H321.463V48.875H328.798V49.79H321.463V51.155H329.203V52.1H321.073C320.833 52.1 320.648 52.035 320.518 51.905C320.388 51.775 320.323 51.585 320.323 51.335V46.61H323.938V45.29H318.388V44.345H330.628V45.29H325.078ZM344.002 38.465V51.485H342.877V46.01H340.327V45.08H342.877V42.26H340.327V41.33H342.877V38.465H344.002ZM340.012 43.73C340.012 45.19 339.697 46.295 339.067 47.045C338.437 47.795 337.607 48.17 336.577 48.17C335.537 48.17 334.702 47.795 334.072 47.045C333.442 46.295 333.127 45.19 333.127 43.73C333.127 42.27 333.442 41.165 334.072 40.415C334.702 39.665 335.537 39.29 336.577 39.29C337.607 39.29 338.437 39.665 339.067 40.415C339.697 41.165 340.012 42.27 340.012 43.73ZM338.812 43.13C338.812 42.19 338.607 41.475 338.197 40.985C337.787 40.485 337.247 40.235 336.577 40.235C335.897 40.235 335.352 40.485 334.942 40.985C334.532 41.475 334.327 42.19 334.327 43.13V44.33C334.327 45.27 334.532 45.99 334.942 46.49C335.352 46.98 335.897 47.225 336.577 47.225C337.247 47.225 337.787 46.98 338.197 46.49C338.607 45.99 338.812 45.27 338.812 44.33V43.13ZM353.241 42.65C352.921 42.65 352.686 42.57 352.536 42.41C352.396 42.24 352.326 42.025 352.326 41.765V41.555C352.326 41.145 352.446 40.695 352.686 40.205C352.926 39.705 353.261 39.27 353.691 38.9H354.696C354.396 39.22 354.151 39.525 353.961 39.815C353.781 40.095 353.651 40.41 353.571 40.76C353.771 40.81 353.916 40.905 354.006 41.045C354.106 41.185 354.156 41.355 354.156 41.555V41.765C354.156 42.025 354.081 42.24 353.931 42.41C353.791 42.57 353.561 42.65 353.241 42.65ZM357.313 50V48.95H358.783V40.58H357.313V39.53H361.513V40.58H360.043V48.95H361.513V50H357.313ZM368.514 52.475V51.425H376.089V52.475H368.514ZM378.045 52.475V51.425H385.62V52.475H378.045ZM387.577 52.475V51.425H395.152V52.475H387.577ZM409.428 48.47H409.383C409.253 48.96 408.933 49.37 408.423 49.7C407.923 50.02 407.273 50.18 406.473 50.18C405.833 50.18 405.243 50.065 404.703 49.835C404.173 49.595 403.718 49.25 403.338 48.8C402.958 48.34 402.658 47.775 402.438 47.105C402.228 46.425 402.123 45.645 402.123 44.765C402.123 43.895 402.228 43.125 402.438 42.455C402.648 41.775 402.948 41.21 403.338 40.76C403.728 40.3 404.198 39.95 404.748 39.71C405.298 39.47 405.908 39.35 406.578 39.35C407.518 39.35 408.303 39.56 408.933 39.98C409.563 40.4 410.048 40.955 410.388 41.645L409.353 42.275C409.113 41.715 408.753 41.275 408.273 40.955C407.803 40.635 407.238 40.475 406.578 40.475C406.118 40.475 405.698 40.56 405.318 40.73C404.938 40.89 404.608 41.12 404.328 41.42C404.058 41.72 403.848 42.08 403.698 42.5C403.548 42.92 403.473 43.39 403.473 43.91V45.605C403.473 46.125 403.548 46.6 403.698 47.03C403.848 47.45 404.058 47.81 404.328 48.11C404.608 48.41 404.948 48.645 405.348 48.815C405.748 48.975 406.198 49.055 406.698 49.055C407.058 49.055 407.398 49.01 407.718 48.92C408.048 48.82 408.333 48.675 408.573 48.485C408.823 48.295 409.018 48.06 409.158 47.78C409.298 47.49 409.368 47.15 409.368 46.76V45.725H407.058V44.615H410.598V50H409.428V48.47ZM415.388 50H414.128V39.53H418.298C419.218 39.53 419.933 39.785 420.443 40.295C420.963 40.805 421.223 41.54 421.223 42.5C421.223 43.27 421.043 43.905 420.683 44.405C420.333 44.895 419.813 45.22 419.123 45.38L421.523 50H420.098L417.833 45.5H415.388V50ZM418.298 44.42C418.798 44.42 419.183 44.29 419.453 44.03C419.733 43.77 419.873 43.4 419.873 42.92V42.14C419.873 41.66 419.733 41.29 419.453 41.03C419.183 40.77 418.798 40.64 418.298 40.64H415.388V44.42H418.298ZM424.277 50V48.95H425.747V40.58H424.277V39.53H428.477V40.58H427.007V48.95H428.477V50H424.277ZM435.251 40.64V50H433.991V40.64H430.661V39.53H438.581V40.64H435.251ZM442.373 38.75C442.693 38.75 442.923 38.835 443.063 39.005C443.213 39.165 443.288 39.375 443.288 39.635V39.845C443.288 40.255 443.168 40.71 442.928 41.21C442.688 41.7 442.353 42.13 441.923 42.5H440.918C441.218 42.18 441.458 41.88 441.638 41.6C441.828 41.31 441.963 40.99 442.043 40.64C441.843 40.59 441.693 40.495 441.593 40.355C441.503 40.215 441.458 40.045 441.458 39.845V39.635C441.458 39.375 441.528 39.165 441.668 39.005C441.818 38.835 442.053 38.75 442.373 38.75ZM452.269 39.17H453.394V41.66H459.994V39.17H461.119V46.07H452.269V39.17ZM459.994 45.11V42.62H453.394V45.11H459.994ZM450.574 49.025H462.814V50H450.574V49.025ZM473.443 48.065H472.333V38.675H473.443V42.575H475.453V38.465H476.563V48.44H475.453V43.52H473.443V48.065ZM471.598 45.995C470.268 46.305 468.693 46.46 466.873 46.46H465.658V42.425H469.543V40.37H465.598V39.44H470.608V43.325H466.723V45.545H467.158C467.988 45.545 468.773 45.505 469.513 45.425C470.253 45.345 470.898 45.235 471.448 45.095L471.598 45.995ZM476.848 50.825V51.77H468.643C468.403 51.77 468.218 51.705 468.088 51.575C467.958 51.445 467.893 51.255 467.893 51.005V47.795H469.033V50.825H476.848ZM490.072 45.65H481.192V39.365H489.937V40.34H482.332V44.675H490.072V45.65ZM491.662 49.025V50H479.422V49.025H491.662ZM505.411 38.465V51.485H504.316V38.465H505.411ZM501.361 38.69H502.426V51.125H501.361V44.3H499.921C499.871 45.6 499.581 46.58 499.051 47.24C498.521 47.89 497.821 48.215 496.951 48.215C496.021 48.215 495.286 47.855 494.746 47.135C494.206 46.405 493.936 45.32 493.936 43.88C493.936 42.44 494.206 41.36 494.746 40.64C495.286 39.91 496.021 39.545 496.951 39.545C497.811 39.545 498.501 39.865 499.021 40.505C499.551 41.145 499.851 42.095 499.921 43.355H501.361V38.69ZM498.781 43.16C498.781 42.28 498.611 41.61 498.271 41.15C497.941 40.69 497.501 40.46 496.951 40.46C496.391 40.46 495.941 40.69 495.601 41.15C495.271 41.61 495.106 42.28 495.106 43.16V44.615C495.106 45.485 495.271 46.155 495.601 46.625C495.941 47.085 496.391 47.315 496.951 47.315C497.501 47.315 497.941 47.085 498.271 46.625C498.611 46.155 498.781 45.485 498.781 44.615V43.16ZM524.43 38.465V51.485H523.32V44.495H521.265V51.125H520.17V38.69H521.265V43.55H523.32V38.465H524.43ZM519.03 46.7L519.18 47.6C517.97 47.91 516.475 48.065 514.695 48.065H513.465V39.8H518.31V40.76H514.56V47.12H514.965C516.605 47.12 517.96 46.98 519.03 46.7ZM539.934 42.92V43.88H537.849V48.5H536.709V38.465H537.849V42.92H539.934ZM533.274 39.83H529.269V38.87H533.274V39.83ZM531.174 46.94C530.554 46.94 530.009 46.835 529.539 46.625C529.069 46.415 528.704 46.125 528.444 45.755C528.194 45.385 528.069 44.965 528.069 44.495C528.069 44.025 528.179 43.615 528.399 43.265C528.629 42.905 528.969 42.63 529.419 42.44V42.365H527.079V41.42H535.209V42.365H532.929V42.44C533.379 42.63 533.714 42.905 533.934 43.265C534.164 43.615 534.279 44.025 534.279 44.495C534.279 44.965 534.149 45.385 533.889 45.755C533.639 46.125 533.279 46.415 532.809 46.625C532.339 46.835 531.794 46.94 531.174 46.94ZM531.054 45.98H531.309C531.869 45.98 532.324 45.83 532.674 45.53C533.034 45.22 533.214 44.79 533.214 44.24C533.214 43.69 533.039 43.26 532.689 42.95C532.339 42.64 531.879 42.485 531.309 42.485H531.054C530.484 42.485 530.024 42.64 529.674 42.95C529.324 43.25 529.149 43.68 529.149 44.24C529.149 44.79 529.324 45.22 529.674 45.53C530.034 45.83 530.494 45.98 531.054 45.98ZM530.814 50.9H538.149V51.845H530.424C530.184 51.845 529.999 51.78 529.869 51.65C529.739 51.52 529.674 51.33 529.674 51.08V48.08H530.814V50.9ZM556.403 41.93H553.538V40.985H556.403V38.465H557.543V45.35H556.403V41.93ZM550.298 42.41C550.228 42.41 550.163 42.445 550.103 42.515C549.833 42.925 549.483 43.355 549.053 43.805C548.623 44.245 548.053 44.78 547.343 45.41L546.503 44.675C547.353 43.945 548.008 43.325 548.468 42.815C548.928 42.295 549.258 41.785 549.458 41.285C549.658 40.775 549.758 40.2 549.758 39.56V38.78H550.913V39.62C550.913 40.49 550.738 41.29 550.388 42.02L550.448 42.065L550.703 41.84C550.823 41.75 550.933 41.705 551.033 41.705C551.143 41.705 551.248 41.75 551.348 41.84L554.183 44.345L553.388 45.155L550.493 42.5C550.433 42.44 550.368 42.41 550.298 42.41ZM557.903 51.125V52.1H549.938C549.698 52.1 549.513 52.035 549.383 51.905C549.253 51.775 549.188 51.585 549.188 51.335V48.62H556.388V47.09H549.098V46.115H557.543V49.58H550.343V51.125H557.903ZM571.247 43.52H562.592V38.855H571.127V39.8H563.717V42.59H571.247V43.52ZM572.972 45.095V46.04H560.732V45.095H572.972ZM562.427 47.555H571.142V52.085H570.002V48.5H562.427V47.555ZM586.391 38.465V46.625H585.236V44.15H582.566V43.235H585.236V41.33H582.566V40.415H585.236V38.465H586.391ZM582.551 45.635C581.151 45.955 579.421 46.115 577.361 46.115H576.026V42.125H580.331V40.115H575.966V39.185H581.426V43.04H577.121V45.185H577.556C579.446 45.185 581.066 45.035 582.416 44.735L582.551 45.635ZM577.796 47.42H586.391V52.145H585.266V48.38H577.796V47.42ZM591.2 40.865C591.2 40.135 591.575 39.555 592.325 39.125C593.075 38.685 594.2 38.465 595.7 38.465C597.2 38.465 598.325 38.685 599.075 39.125C599.825 39.555 600.2 40.135 600.2 40.865C600.2 41.595 599.825 42.18 599.075 42.62C598.325 43.06 597.2 43.28 595.7 43.28C594.2 43.28 593.075 43.06 592.325 42.62C591.575 42.18 591.2 41.595 591.2 40.865ZM598.985 40.94V40.775C598.985 40.345 598.71 39.995 598.16 39.725C597.62 39.445 596.8 39.305 595.7 39.305C594.6 39.305 593.775 39.445 593.225 39.725C592.685 39.995 592.415 40.345 592.415 40.775V40.94C592.415 41.37 592.685 41.725 593.225 42.005C593.775 42.275 594.6 42.41 595.7 42.41C596.8 42.41 597.62 42.275 598.16 42.005C598.71 41.725 598.985 41.37 598.985 40.94ZM601.82 44.315V45.275H589.58V44.315H601.82ZM591.485 51.335V48.875H598.88V47.465H591.395V46.535H599.975V49.745H592.58V51.17H600.365V52.1H592.235C591.995 52.1 591.81 52.035 591.68 51.905C591.55 51.775 591.485 51.585 591.485 51.335ZM620.839 44.735V45.695H608.599V44.735H614.164V43.115H610.474V38.75H611.614V42.2H619.099V43.115H615.289V44.735H620.839ZM619.309 47.99H610.099V47.045H619.309V47.99ZM617.179 51.125H619.444V52.055H609.964V51.125H612.244L611.794 48.74L612.964 48.635L613.339 51.125H616.084L616.459 48.635L617.629 48.74L617.179 51.125ZM633.043 38.465H634.183V51.485H633.043V38.465ZM623.413 43.73C623.413 42.27 623.733 41.165 624.373 40.415C625.023 39.665 625.878 39.29 626.938 39.29C627.988 39.29 628.833 39.665 629.473 40.415C630.123 41.165 630.448 42.27 630.448 43.73C630.448 44.71 630.298 45.535 629.998 46.205C629.698 46.865 629.283 47.36 628.753 47.69C628.223 48.01 627.618 48.17 626.938 48.17C625.878 48.17 625.023 47.795 624.373 47.045C623.733 46.295 623.413 45.19 623.413 43.73ZM629.233 44.315V43.145C629.233 42.215 629.018 41.5 628.588 41C628.168 40.5 627.618 40.25 626.938 40.25C626.248 40.25 625.688 40.5 625.258 41C624.838 41.49 624.628 42.205 624.628 43.145V44.315C624.628 45.255 624.838 45.975 625.258 46.475C625.688 46.965 626.248 47.21 626.938 47.21C627.618 47.21 628.168 46.96 628.588 46.46C629.018 45.96 629.233 45.245 629.233 44.315ZM647.947 43.655H639.322V38.945H640.447V42.71H647.947V43.655ZM649.687 45.32V46.295H637.447V45.32H649.687ZM640.342 50.795H648.112V51.755H639.952C639.712 51.755 639.527 51.69 639.397 51.56C639.267 51.43 639.202 51.24 639.202 50.99V47.705H640.342V50.795ZM668.706 46.07H663.141V51.965H662.001V46.07H656.466V45.11H665.241C665.601 43.54 665.786 41.865 665.796 40.085V40.01H658.086V39.05H666.906V40.01C666.906 41.74 666.736 43.44 666.396 45.11H668.706V46.07ZM676.455 40.31H672.27V39.35H681.765V40.31H677.61C677.61 40.8 677.555 41.24 677.445 41.63C677.335 42.02 677.15 42.39 676.89 42.74L676.935 42.755L677.22 42.545C677.34 42.435 677.48 42.38 677.64 42.38C677.74 42.38 677.85 42.41 677.97 42.47L682.365 44.945L681.735 45.83L677.22 43.19C677.06 43.11 676.92 43.07 676.8 43.07C676.7 43.07 676.61 43.095 676.53 43.145C676.14 43.565 675.605 43.995 674.925 44.435C674.245 44.875 673.36 45.355 672.27 45.875L671.655 45.035C672.905 44.445 673.87 43.91 674.55 43.43C675.24 42.94 675.725 42.455 676.005 41.975C676.295 41.485 676.445 40.93 676.455 40.31ZM683.13 49.04V50H670.89V49.04H676.44V45.8H677.58V49.04H683.13Z" fill="#1B1C25"/>
</svg>
