<svg width="834" height="529" viewBox="0 0 834 529" fill="none" xmlns="http://www.w3.org/2000/svg">
<path d="M14.071 516.929L12.4801 516.929L7.90625 507.497L10.0724 507.497L13.2472 514.457L13.1193 514.393L13.4247 514.393L13.304 514.457L16.4716 507.497L18.6449 507.497L14.071 516.929ZM19 502.557L4.45454 502.557L4.45454 500.362L10.7756 500.362L10.7756 493.111L4.45454 493.111L4.45454 490.909L19 490.909L19 493.111L12.6577 493.111L12.6577 500.362L19 500.362L19 502.557ZM11.7273 473.678C13.2803 473.678 14.6155 473.962 15.733 474.53C16.8456 475.098 17.7026 475.877 18.304 476.867C18.9006 477.852 19.1989 478.972 19.1989 480.226C19.1989 481.486 18.9006 482.61 18.304 483.6C17.7026 484.585 16.8433 485.361 15.7259 485.929C14.6084 486.498 13.2756 486.782 11.7273 486.782C10.1742 486.782 8.84138 486.498 7.72869 485.929C6.61127 485.361 5.75426 484.585 5.15767 483.6C4.55634 482.61 4.25568 481.486 4.25568 480.226C4.25568 478.972 4.55634 477.852 5.15767 476.867C5.75426 475.877 6.61127 475.098 7.72869 474.53C8.84138 473.962 10.1742 473.678 11.7273 473.678ZM11.7273 475.851C10.5436 475.851 9.54687 476.043 8.73721 476.427C7.92282 476.805 7.30729 477.326 6.89062 477.989C6.46922 478.647 6.25852 479.393 6.25852 480.226C6.25852 481.064 6.46922 481.812 6.89062 482.471C7.30729 483.129 7.92282 483.65 8.73721 484.033C9.54687 484.412 10.5436 484.601 11.7273 484.601C12.911 484.601 13.91 484.412 14.7244 484.033C15.5341 483.65 16.1496 483.129 16.571 482.471C16.9877 481.812 17.196 481.064 17.196 480.226C17.196 479.393 16.9877 478.647 16.571 477.989C16.1496 477.326 15.5341 476.805 14.7244 476.427C13.91 476.043 12.911 475.851 11.7273 475.851ZM4.45454 469.542L4.45454 466.878L15.7614 462.248L15.7614 462.077L4.45454 457.447L4.45454 454.783L19 454.783L19 456.871L8.47443 456.871L8.47443 457.006L18.9787 461.296L18.9787 463.029L8.46733 467.319L8.46733 467.454L19 467.454L19 469.542L4.45454 469.542ZM19 450.193L4.45454 450.193L4.45454 441.073L6.34375 441.073L6.34375 447.998L10.7756 447.998L10.7756 441.549L12.6577 441.549L12.6577 447.998L17.1108 447.998L17.1108 440.988L19 440.988L19 450.193ZM14.071 426.962L18.6449 436.394L16.4716 436.394L13.304 429.434L13.4247 429.505L13.1193 429.505L13.2472 429.434L10.0724 436.394L7.90625 436.394L12.4801 426.962L14.071 426.962ZM19 415.329L4.45454 415.329L4.45454 410.144C4.45454 409.012 4.66051 408.075 5.07244 407.331C5.48437 406.588 6.04782 406.032 6.76278 405.662C7.47301 405.293 8.2732 405.108 9.16335 405.108C10.0582 405.108 10.8632 405.295 11.5781 405.669C12.2883 406.039 12.8518 406.597 13.2685 407.346C13.6804 408.089 13.8864 409.024 13.8864 410.151L13.8864 413.716L12.0256 413.716L12.0256 410.35C12.0256 409.635 11.9025 409.055 11.6562 408.61C11.4053 408.165 11.0644 407.838 10.6335 407.63C10.2026 407.421 9.71259 407.317 9.16335 407.317C8.6141 407.317 8.12642 407.421 7.70028 407.63C7.27414 407.838 6.94034 408.167 6.69886 408.617C6.45738 409.062 6.33664 409.649 6.33664 410.378L6.33664 413.134L19 413.134L19 415.329ZM19 401.45L19 403.779L4.45454 398.545L4.45454 396.01L19 390.775L19 393.105L7.09658 397.217L7.09658 397.331L19 401.45ZM13.304 401.059L13.304 393.502L15.1506 393.502L15.1506 401.059L13.304 401.059ZM9.04971 378.114C8.61884 378.252 8.23295 378.436 7.89204 378.668C7.54639 378.896 7.25283 379.168 7.01136 379.485C6.76515 379.802 6.57812 380.165 6.45028 380.572C6.32244 380.974 6.25852 381.417 6.25852 381.9C6.25852 382.719 6.46922 383.458 6.89062 384.116C7.31202 384.774 7.92992 385.295 8.74431 385.678C9.55397 386.057 10.5459 386.247 11.7202 386.247C12.8991 386.247 13.8958 386.055 14.7102 385.671C15.5246 385.288 16.1425 384.762 16.5639 384.095C16.9853 383.427 17.196 382.667 17.196 381.815C17.196 381.024 17.035 380.335 16.7131 379.748C16.3911 379.156 15.9365 378.699 15.3494 378.377C14.7576 378.051 14.0615 377.887 13.2614 377.887L13.3679 377.319L13.3679 381.481L11.5568 381.481L11.5568 375.764L13.2116 375.764C14.4332 375.764 15.4938 376.024 16.3935 376.545C17.2883 377.061 17.9796 377.776 18.4673 378.69C18.955 379.599 19.1989 380.641 19.1989 381.815C19.1989 383.131 18.8958 384.286 18.2898 385.281C17.6837 386.27 16.8243 387.042 15.7116 387.596C14.5942 388.15 13.2685 388.427 11.7344 388.427C10.5743 388.427 9.53266 388.266 8.60937 387.944C7.68607 387.622 6.90246 387.17 6.25852 386.587C5.60984 386 5.11505 385.311 4.77414 384.521C4.4285 383.725 4.25568 382.856 4.25568 381.914C4.25568 381.128 4.37168 380.397 4.60369 379.72C4.83569 379.038 5.16477 378.432 5.5909 377.901C6.01704 377.366 6.52367 376.924 7.11079 376.573C7.69318 376.223 8.33948 375.986 9.04971 375.863L9.04971 378.114ZM19 371.578L4.45454 371.578L4.45454 362.458L6.34374 362.458L6.34374 369.383L10.7756 369.383L10.7756 362.934L12.6577 362.934L12.6577 369.383L17.1108 369.383L17.1108 362.373L19 362.373L19 371.578Z" fill="#1B1C25"/>
<g filter="url(#filter0_d_217_234)">
<path d="M54 18C54 11.3726 59.3726 6 66 6H812C818.627 6 824 11.3726 824 18V48H54V18Z" fill="url(#paint0_linear_217_234)"/>
<path d="M394 25C393.448 25 393 25.4477 393 26V30H389C388.448 30 388 30.4477 388 31C388 31.5523 388.448 32 389 32H393V36C393 36.5523 393.448 37 394 37C394.552 37 395 36.5523 395 36V32H399C399.552 32 400 31.5523 400 31C400 30.4477 399.552 30 399 30H395V26C395 25.4477 394.552 25 394 25Z" fill="#606367"/>
<g filter="url(#filter1_i_217_234)">
<path fill-rule="evenodd" clip-rule="evenodd" d="M73 34C76.3137 34 79 31.3137 79 28C79 24.6863 76.3137 22 73 22C69.6863 22 67 24.6863 67 28C67 31.3137 69.6863 34 73 34Z" fill="#ED6A5E"/>
</g>
<path d="M78.75 28C78.75 31.1756 76.1756 33.75 73 33.75C69.8244 33.75 67.25 31.1756 67.25 28C67.25 24.8244 69.8244 22.25 73 22.25C76.1756 22.25 78.75 24.8244 78.75 28Z" stroke="#CE5347" stroke-width="0.5"/>
<g filter="url(#filter2_i_217_234)">
<path fill-rule="evenodd" clip-rule="evenodd" d="M93 34C96.3137 34 99 31.3137 99 28C99 24.6863 96.3137 22 93 22C89.6863 22 87 24.6863 87 28C87 31.3137 89.6863 34 93 34Z" fill="#F6BE4F"/>
</g>
<path d="M98.75 28C98.75 31.1756 96.1756 33.75 93 33.75C89.8244 33.75 87.25 31.1756 87.25 28C87.25 24.8244 89.8244 22.25 93 22.25C96.1756 22.25 98.75 24.8244 98.75 28Z" stroke="#D6A243" stroke-width="0.5"/>
<g filter="url(#filter3_i_217_234)">
<path fill-rule="evenodd" clip-rule="evenodd" d="M113 34C116.314 34 119 31.3137 119 28C119 24.6863 116.314 22 113 22C109.686 22 107 24.6863 107 28C107 31.3137 109.686 34 113 34Z" fill="#62C554"/>
</g>
<path d="M118.75 28C118.75 31.1756 116.176 33.75 113 33.75C109.824 33.75 107.25 31.1756 107.25 28C107.25 24.8244 109.824 22.25 113 22.25C116.176 22.25 118.75 24.8244 118.75 28Z" stroke="#58A942" stroke-width="0.5"/>
<path fill-rule="evenodd" clip-rule="evenodd" d="M140 14C135.582 14 132 17.5817 132 22V40C132 44.4183 128.418 48 124 48H132H372H380C375.582 48 372 44.4183 372 40V22C372 17.5817 368.418 14 364 14H140Z" fill="white"/>
<mask id="mask0_217_234" style="mask-type:alpha" maskUnits="userSpaceOnUse" x="168" y="21" width="177" height="20">
<rect x="168" y="21" width="177" height="20" fill="url(#paint1_linear_217_234)"/>
</mask>
<g mask="url(#mask0_217_234)">
<path d="M168.72 35V34.16H169.896V27.464H168.72V26.624H172.08V27.464H170.904V34.16H172.08V35H168.72ZM182.181 33.776H182.145C182.041 34.168 181.785 34.496 181.377 34.76C180.977 35.016 180.457 35.144 179.817 35.144C179.305 35.144 178.833 35.052 178.401 34.868C177.977 34.676 177.613 34.4 177.309 34.04C177.005 33.672 176.765 33.22 176.589 32.684C176.421 32.14 176.337 31.516 176.337 30.812C176.337 30.116 176.421 29.5 176.589 28.964C176.757 28.42 176.997 27.968 177.309 27.608C177.621 27.24 177.997 26.96 178.437 26.768C178.877 26.576 179.365 26.48 179.901 26.48C180.653 26.48 181.281 26.648 181.785 26.984C182.289 27.32 182.677 27.764 182.949 28.316L182.121 28.82C181.929 28.372 181.641 28.02 181.257 27.764C180.881 27.508 180.429 27.38 179.901 27.38C179.533 27.38 179.197 27.448 178.893 27.584C178.589 27.712 178.325 27.896 178.101 28.136C177.885 28.376 177.717 28.664 177.597 29C177.477 29.336 177.417 29.712 177.417 30.128V31.484C177.417 31.9 177.477 32.28 177.597 32.624C177.717 32.96 177.885 33.248 178.101 33.488C178.325 33.728 178.597 33.916 178.917 34.052C179.237 34.18 179.597 34.244 179.997 34.244C180.285 34.244 180.557 34.208 180.813 34.136C181.077 34.056 181.305 33.94 181.497 33.788C181.697 33.636 181.853 33.448 181.965 33.224C182.077 32.992 182.133 32.72 182.133 32.408V31.58H180.285V30.692H183.117V35H182.181V33.776ZM186.108 35H185.1V26.624H188.436C189.172 26.624 189.744 26.828 190.152 27.236C190.568 27.644 190.776 28.232 190.776 29C190.776 29.616 190.632 30.124 190.344 30.524C190.064 30.916 189.648 31.176 189.096 31.304L191.016 35H189.876L188.064 31.4H186.108V35ZM188.436 30.536C188.836 30.536 189.144 30.432 189.36 30.224C189.584 30.016 189.696 29.72 189.696 29.336V28.712C189.696 28.328 189.584 28.032 189.36 27.824C189.144 27.616 188.836 27.512 188.436 27.512H186.108V30.536H188.436ZM192.38 35V34.16H193.556V27.464H192.38V26.624H195.74V27.464H194.564V34.16H195.74V35H192.38ZM200.319 27.512V35H199.311V27.512H196.647V26.624H202.983V27.512H200.319Z" fill="#3D4043"/>
</g>
<path d="M352.281 33.8155C352.005 34.0916 352.005 34.5394 352.281 34.8155C352.557 35.0916 353.005 35.0916 353.281 34.8155L356.039 32.0577L358.797 34.8155C359.073 35.0916 359.521 35.0916 359.797 34.8155C360.073 34.5394 360.073 34.0916 359.797 33.8155L357.039 31.0577L359.797 28.2999C360.073 28.0237 360.073 27.576 359.797 27.2999C359.521 27.0237 359.073 27.0237 358.797 27.2999L356.039 30.0577L353.281 27.2999C353.005 27.0237 352.557 27.0237 352.281 27.2999C352.005 27.576 352.005 28.0237 352.281 28.2999L355.039 31.0577L352.281 33.8155Z" fill="#5E6063"/>
<rect x="54" y="48" width="770" height="37" fill="white"/>
<rect x="54" y="84.5" width="770" height="0.5" fill="#B6B6B6"/>
<path fill-rule="evenodd" clip-rule="evenodd" d="M76.2849 59.818C76.5752 60.1134 76.5712 60.5883 76.2758 60.8786L72.0829 65H81.75C82.1642 65 82.5 65.3358 82.5 65.75C82.5 66.1642 82.1642 66.5 81.75 66.5H72.0905L76.2742 70.5886C76.5704 70.8781 76.5759 71.353 76.2864 71.6492C75.9969 71.9454 75.522 71.9509 75.2258 71.6614L69.7258 66.2864C69.5817 66.1455 69.5003 65.9526 69.5 65.7511C69.4997 65.5496 69.5805 65.3564 69.7242 65.2151L75.2242 59.8089C75.5196 59.5185 75.9945 59.5226 76.2849 59.818Z" fill="#606367"/>
<path fill-rule="evenodd" clip-rule="evenodd" d="M107.715 59.818C107.425 60.1134 107.429 60.5883 107.724 60.8786L111.917 65H102.25C101.836 65 101.5 65.3358 101.5 65.75C101.5 66.1642 101.836 66.5 102.25 66.5H111.909L107.726 70.5886C107.43 70.8781 107.424 71.353 107.714 71.6492C108.003 71.9454 108.478 71.9509 108.774 71.6614L114.274 66.2864C114.418 66.1455 114.5 65.9526 114.5 65.7511C114.5 65.5496 114.419 65.3564 114.276 65.2151L108.776 59.8089C108.48 59.5185 108.005 59.5226 107.715 59.818Z" fill="#BABCBE"/>
<path d="M135 66C135 63.2386 137.239 61 140 61C141.507 61 142.859 61.6667 143.777 62.7232L141.5 65H147V59.5L144.839 61.6606C143.65 60.3351 141.923 59.5 140 59.5C136.41 59.5 133.5 62.4101 133.5 66C133.5 69.5899 136.41 72.5 140 72.5C142.578 72.5 144.804 70.999 145.855 68.8265C146.035 68.4536 145.879 68.0051 145.506 67.8248C145.133 67.6445 144.685 67.8006 144.504 68.1735C143.695 69.8478 141.981 71 140 71C137.239 71 135 68.7614 135 66Z" fill="#606367"/>
<rect x="162" y="52" width="618" height="28" rx="14" fill="#F1F3F4"/>
<path fill-rule="evenodd" clip-rule="evenodd" d="M180 61C178.619 61 177.5 62.1193 177.5 63.5V64.5H177C176.448 64.5 176 64.9477 176 65.5V70.5C176 71.0523 176.448 71.5 177 71.5H183C183.552 71.5 184 71.0523 184 70.5V65.5C184 64.9477 183.552 64.5 183 64.5H182.5V63.5C182.5 62.1193 181.381 61 180 61ZM181.5 64.5V63.5C181.5 62.6716 180.828 62 180 62C179.172 62 178.5 62.6716 178.5 63.5V64.5H181.5Z" fill="#606367"/>
<path d="M197.19 60.64H198.31V64.952H198.366C198.543 64.5413 198.791 64.2147 199.108 63.972C199.435 63.7293 199.869 63.608 200.41 63.608C201.157 63.608 201.745 63.8507 202.174 64.336C202.613 64.812 202.832 65.4887 202.832 66.366V71H201.712V66.562C201.712 65.2647 201.166 64.616 200.074 64.616C199.85 64.616 199.631 64.644 199.416 64.7C199.211 64.756 199.024 64.84 198.856 64.952C198.688 65.064 198.553 65.2087 198.45 65.386C198.357 65.554 198.31 65.7547 198.31 65.988V71H197.19V60.64ZM206.743 71C206.351 71 206.052 70.8927 205.847 70.678C205.651 70.454 205.553 70.1647 205.553 69.81V64.756H204.363V63.776H205.035C205.278 63.776 205.441 63.7293 205.525 63.636C205.618 63.5333 205.665 63.3607 205.665 63.118V61.774H206.673V63.776H208.255V64.756H206.673V70.02H208.143V71H206.743ZM211.528 71C211.136 71 210.838 70.8927 210.632 70.678C210.436 70.454 210.338 70.1647 210.338 69.81V64.756H209.148V63.776H209.82C210.063 63.776 210.226 63.7293 210.31 63.636C210.404 63.5333 210.45 63.3607 210.45 63.118V61.774H211.458V63.776H213.04V64.756H211.458V70.02H212.928V71H211.528ZM214.84 63.776H215.96V64.952H216.016C216.203 64.4947 216.474 64.1587 216.828 63.944C217.192 63.72 217.626 63.608 218.13 63.608C218.578 63.608 218.984 63.6967 219.348 63.874C219.712 64.0513 220.02 64.3033 220.272 64.63C220.534 64.9567 220.73 65.3533 220.86 65.82C221 66.2867 221.07 66.8093 221.07 67.388C221.07 67.9667 221 68.4893 220.86 68.956C220.73 69.4227 220.534 69.8193 220.272 70.146C220.02 70.4727 219.712 70.7247 219.348 70.902C218.984 71.0793 218.578 71.168 218.13 71.168C217.15 71.168 216.446 70.72 216.016 69.824H215.96V73.8H214.84V63.776ZM217.822 70.16C218.457 70.16 218.956 69.964 219.32 69.572C219.684 69.1707 219.866 68.648 219.866 68.004V66.772C219.866 66.128 219.684 65.61 219.32 65.218C218.956 64.8167 218.457 64.616 217.822 64.616C217.57 64.616 217.328 64.6533 217.094 64.728C216.87 64.7933 216.674 64.8867 216.506 65.008C216.338 65.1293 216.203 65.2787 216.1 65.456C216.007 65.624 215.96 65.806 215.96 66.002V68.69C215.96 68.9233 216.007 69.1333 216.1 69.32C216.203 69.4973 216.338 69.6513 216.506 69.782C216.674 69.9033 216.87 69.9967 217.094 70.062C217.328 70.1273 217.57 70.16 217.822 70.16ZM225.131 71.168C224.459 71.168 223.895 71.042 223.437 70.79C222.989 70.5287 222.602 70.1833 222.275 69.754L223.073 69.11C223.353 69.4647 223.666 69.74 224.011 69.936C224.357 70.1227 224.758 70.216 225.215 70.216C225.691 70.216 226.06 70.1133 226.321 69.908C226.592 69.7027 226.727 69.4133 226.727 69.04C226.727 68.76 226.634 68.522 226.447 68.326C226.27 68.1207 225.943 67.9807 225.467 67.906L224.893 67.822C224.557 67.7753 224.249 67.7053 223.969 67.612C223.689 67.5093 223.442 67.3787 223.227 67.22C223.022 67.052 222.859 66.8467 222.737 66.604C222.625 66.3613 222.569 66.072 222.569 65.736C222.569 65.3813 222.635 65.0733 222.765 64.812C222.896 64.5413 223.073 64.3173 223.297 64.14C223.531 63.9627 223.806 63.832 224.123 63.748C224.441 63.6547 224.781 63.608 225.145 63.608C225.733 63.608 226.223 63.7107 226.615 63.916C227.017 64.1213 227.367 64.406 227.665 64.77L226.923 65.442C226.765 65.218 226.531 65.0173 226.223 64.84C225.915 64.6533 225.528 64.56 225.061 64.56C224.595 64.56 224.24 64.6627 223.997 64.868C223.764 65.064 223.647 65.3347 223.647 65.68C223.647 66.0347 223.764 66.2913 223.997 66.45C224.24 66.6087 224.585 66.7253 225.033 66.8L225.593 66.884C226.396 67.0053 226.965 67.2387 227.301 67.584C227.637 67.92 227.805 68.3633 227.805 68.914C227.805 69.614 227.567 70.1647 227.091 70.566C226.615 70.9673 225.962 71.168 225.131 71.168ZM230.638 71.168C230.339 71.168 230.12 71.0933 229.98 70.944C229.849 70.7947 229.784 70.5987 229.784 70.356V70.174C229.784 69.9313 229.849 69.7353 229.98 69.586C230.12 69.4367 230.339 69.362 230.638 69.362C230.936 69.362 231.151 69.4367 231.282 69.586C231.422 69.7353 231.492 69.9313 231.492 70.174V70.356C231.492 70.5987 231.422 70.7947 231.282 70.944C231.151 71.0933 230.936 71.168 230.638 71.168ZM230.638 65.414C230.339 65.414 230.12 65.3393 229.98 65.19C229.849 65.0407 229.784 64.8447 229.784 64.602V64.42C229.784 64.1773 229.849 63.9813 229.98 63.832C230.12 63.6827 230.339 63.608 230.638 63.608C230.936 63.608 231.151 63.6827 231.282 63.832C231.422 63.9813 231.492 64.1773 231.492 64.42V64.602C231.492 64.8447 231.422 65.0407 231.282 65.19C231.151 65.3393 230.936 65.414 230.638 65.414ZM232.808 73.114L236.462 60.64H237.47L233.816 73.114H232.808ZM236.485 73.114L240.139 60.64H241.147L237.493 73.114H236.485Z" fill="#767676"/>
<path d="M242.153 63.776H243.245L244.015 66.898L244.785 70.062H244.813L245.695 66.898L246.605 63.776H247.599L248.537 66.898L249.433 70.062H249.461L250.203 66.898L250.987 63.776H252.037L250.119 71H248.733L247.725 67.528L247.095 65.33H247.067L246.451 67.528L245.443 71H244.085L242.153 63.776ZM252.899 63.776H253.991L254.761 66.898L255.531 70.062H255.559L256.441 66.898L257.351 63.776H258.345L259.283 66.898L260.179 70.062H260.207L260.949 66.898L261.733 63.776H262.783L260.865 71H259.479L258.471 67.528L257.841 65.33H257.813L257.197 67.528L256.189 71H254.831L252.899 63.776ZM263.645 63.776H264.737L265.507 66.898L266.277 70.062H266.305L267.187 66.898L268.097 63.776H269.091L270.029 66.898L270.925 70.062H270.953L271.695 66.898L272.479 63.776H273.529L271.611 71H270.225L269.217 67.528L268.587 65.33H268.559L267.943 67.528L266.935 71H265.577L263.645 63.776ZM275.437 71.168C275.139 71.168 274.919 71.0933 274.779 70.944C274.649 70.7947 274.583 70.5987 274.583 70.356V70.174C274.583 69.9313 274.649 69.7353 274.779 69.586C274.919 69.4367 275.139 69.362 275.437 69.362C275.736 69.362 275.951 69.4367 276.081 69.586C276.221 69.7353 276.291 69.9313 276.291 70.174V70.356C276.291 70.5987 276.221 70.7947 276.081 70.944C275.951 71.0933 275.736 71.168 275.437 71.168ZM279.098 62.082C278.855 62.082 278.678 62.026 278.566 61.914C278.463 61.7927 278.412 61.6387 278.412 61.452V61.27C278.412 61.0833 278.463 60.934 278.566 60.822C278.678 60.7007 278.855 60.64 279.098 60.64C279.34 60.64 279.513 60.7007 279.616 60.822C279.728 60.934 279.784 61.0833 279.784 61.27V61.452C279.784 61.6387 279.728 61.7927 279.616 61.914C279.513 62.026 279.34 62.082 279.098 62.082ZM278.538 63.776H279.658V71H278.538V63.776ZM288.128 71.798C288.128 72.5447 287.834 73.0907 287.246 73.436C286.667 73.7907 285.794 73.968 284.628 73.968C283.498 73.968 282.686 73.814 282.192 73.506C281.697 73.198 281.45 72.7593 281.45 72.19C281.45 71.798 281.552 71.49 281.758 71.266C281.963 71.0513 282.243 70.8927 282.598 70.79V70.636C282.168 70.4307 281.954 70.0947 281.954 69.628C281.954 69.264 282.07 68.9887 282.304 68.802C282.537 68.606 282.836 68.4613 283.2 68.368V68.312C282.77 68.1067 282.434 67.8127 282.192 67.43C281.958 67.0473 281.842 66.604 281.842 66.1C281.842 65.736 281.907 65.4 282.038 65.092C282.168 64.784 282.35 64.5227 282.584 64.308C282.826 64.084 283.111 63.9113 283.438 63.79C283.774 63.6687 284.147 63.608 284.558 63.608C285.071 63.608 285.528 63.7013 285.93 63.888V63.762C285.93 63.482 285.995 63.2533 286.126 63.076C286.256 62.8893 286.471 62.796 286.77 62.796H287.848V63.776H286.476V64.238C286.737 64.462 286.938 64.7327 287.078 65.05C287.227 65.358 287.302 65.708 287.302 66.1C287.302 66.464 287.236 66.8 287.106 67.108C286.975 67.416 286.788 67.682 286.546 67.906C286.312 68.1207 286.028 68.2887 285.692 68.41C285.356 68.5313 284.982 68.592 284.572 68.592C284.338 68.592 284.105 68.5687 283.872 68.522C283.629 68.5873 283.41 68.6853 283.214 68.816C283.018 68.9373 282.92 69.11 282.92 69.334C282.92 69.5487 283.022 69.6933 283.228 69.768C283.433 69.8427 283.699 69.88 284.026 69.88H285.566C286.462 69.88 287.11 70.0527 287.512 70.398C287.922 70.734 288.128 71.2007 288.128 71.798ZM287.078 71.882C287.078 71.5927 286.966 71.3593 286.742 71.182C286.527 71.014 286.14 70.93 285.58 70.93H283.172C282.724 71.1353 282.5 71.462 282.5 71.91C282.5 72.2273 282.616 72.498 282.85 72.722C283.092 72.946 283.498 73.058 284.068 73.058H285.104C285.729 73.058 286.214 72.96 286.56 72.764C286.905 72.568 287.078 72.274 287.078 71.882ZM284.572 67.696C285.048 67.696 285.426 67.584 285.706 67.36C285.986 67.1267 286.126 66.772 286.126 66.296V65.904C286.126 65.428 285.986 65.078 285.706 64.854C285.426 64.6207 285.048 64.504 284.572 64.504C284.096 64.504 283.718 64.6207 283.438 64.854C283.158 65.078 283.018 65.428 283.018 65.904V66.296C283.018 66.772 283.158 67.1267 283.438 67.36C283.718 67.584 284.096 67.696 284.572 67.696ZM289.434 71V63.776H290.554V65.106H290.624C290.755 64.7607 290.988 64.4527 291.324 64.182C291.66 63.9113 292.122 63.776 292.71 63.776H293.144V64.896H292.486C291.879 64.896 291.403 65.0127 291.058 65.246C290.722 65.47 290.554 65.7547 290.554 66.1V71H289.434ZM295.135 62.082C294.892 62.082 294.715 62.026 294.603 61.914C294.5 61.7927 294.449 61.6387 294.449 61.452V61.27C294.449 61.0833 294.5 60.934 294.603 60.822C294.715 60.7007 294.892 60.64 295.135 60.64C295.377 60.64 295.55 60.7007 295.653 60.822C295.765 60.934 295.821 61.0833 295.821 61.27V61.452C295.821 61.6387 295.765 61.7927 295.653 61.914C295.55 62.026 295.377 62.082 295.135 62.082ZM294.575 63.776H295.695V71H294.575V63.776ZM299.671 71C299.279 71 298.98 70.8927 298.775 70.678C298.579 70.454 298.481 70.1647 298.481 69.81V64.756H297.291V63.776H297.963C298.205 63.776 298.369 63.7293 298.453 63.636C298.546 63.5333 298.593 63.3607 298.593 63.118V61.774H299.601V63.776H301.183V64.756H299.601V70.02H301.071V71H299.671ZM303.697 71.168C303.398 71.168 303.179 71.0933 303.039 70.944C302.908 70.7947 302.843 70.5987 302.843 70.356V70.174C302.843 69.9313 302.908 69.7353 303.039 69.586C303.179 69.4367 303.398 69.362 303.697 69.362C303.996 69.362 304.21 69.4367 304.341 69.586C304.481 69.7353 304.551 69.9313 304.551 70.174V70.356C304.551 70.5987 304.481 70.7947 304.341 70.944C304.21 71.0933 303.996 71.168 303.697 71.168ZM309.349 71.168C308.845 71.168 308.392 71.0793 307.991 70.902C307.589 70.7247 307.249 70.4727 306.969 70.146C306.698 69.8193 306.488 69.4227 306.339 68.956C306.199 68.4893 306.129 67.9667 306.129 67.388C306.129 66.8093 306.199 66.2867 306.339 65.82C306.488 65.3533 306.698 64.9567 306.969 64.63C307.249 64.3033 307.589 64.0513 307.991 63.874C308.392 63.6967 308.845 63.608 309.349 63.608C310.067 63.608 310.641 63.7667 311.071 64.084C311.509 64.392 311.836 64.798 312.051 65.302L311.113 65.778C310.982 65.4047 310.767 65.1153 310.469 64.91C310.17 64.7047 309.797 64.602 309.349 64.602C309.013 64.602 308.719 64.658 308.467 64.77C308.215 64.8727 308.005 65.022 307.837 65.218C307.669 65.4047 307.543 65.6333 307.459 65.904C307.375 66.1653 307.333 66.4547 307.333 66.772V68.004C307.333 68.6387 307.501 69.1613 307.837 69.572C308.182 69.9733 308.686 70.174 309.349 70.174C310.254 70.174 310.907 69.754 311.309 68.914L312.121 69.46C311.887 69.9827 311.537 70.398 311.071 70.706C310.613 71.014 310.039 71.168 309.349 71.168ZM316.35 71.168C315.864 71.168 315.421 71.0793 315.02 70.902C314.618 70.7247 314.273 70.4727 313.984 70.146C313.704 69.81 313.484 69.4133 313.326 68.956C313.167 68.4893 313.088 67.9667 313.088 67.388C313.088 66.8187 313.167 66.3007 313.326 65.834C313.484 65.3673 313.704 64.9707 313.984 64.644C314.273 64.308 314.618 64.0513 315.02 63.874C315.421 63.6967 315.864 63.608 316.35 63.608C316.835 63.608 317.274 63.6967 317.666 63.874C318.067 64.0513 318.412 64.308 318.702 64.644C318.991 64.9707 319.215 65.3673 319.374 65.834C319.532 66.3007 319.612 66.8187 319.612 67.388C319.612 67.9667 319.532 68.4893 319.374 68.956C319.215 69.4133 318.991 69.81 318.702 70.146C318.412 70.4727 318.067 70.7247 317.666 70.902C317.274 71.0793 316.835 71.168 316.35 71.168ZM316.35 70.174C316.956 70.174 317.451 69.9873 317.834 69.614C318.216 69.2407 318.408 68.6713 318.408 67.906V66.87C318.408 66.1047 318.216 65.5353 317.834 65.162C317.451 64.7887 316.956 64.602 316.35 64.602C315.743 64.602 315.248 64.7887 314.866 65.162C314.483 65.5353 314.292 66.1047 314.292 66.87V67.906C314.292 68.6713 314.483 69.2407 314.866 69.614C315.248 69.9873 315.743 70.174 316.35 70.174ZM321.454 71V63.776H322.574V64.952H322.63C322.714 64.7653 322.807 64.5927 322.91 64.434C323.022 64.266 323.152 64.1213 323.302 64C323.46 63.8787 323.642 63.7853 323.848 63.72C324.053 63.6453 324.296 63.608 324.576 63.608C325.052 63.608 325.49 63.7247 325.892 63.958C326.293 64.182 326.592 64.5553 326.788 65.078H326.816C326.946 64.686 327.189 64.3453 327.544 64.056C327.908 63.7573 328.398 63.608 329.014 63.608C329.751 63.608 330.325 63.8507 330.736 64.336C331.156 64.812 331.366 65.4887 331.366 66.366V71H330.246V66.562C330.246 65.918 330.12 65.4327 329.868 65.106C329.616 64.7793 329.214 64.616 328.664 64.616C328.44 64.616 328.225 64.644 328.02 64.7C327.824 64.756 327.646 64.84 327.488 64.952C327.329 65.064 327.203 65.2087 327.11 65.386C327.016 65.554 326.97 65.7547 326.97 65.988V71H325.85V66.562C325.85 65.918 325.724 65.4327 325.472 65.106C325.22 64.7793 324.828 64.616 324.296 64.616C324.072 64.616 323.857 64.644 323.652 64.7C323.446 64.756 323.264 64.84 323.106 64.952C322.947 65.064 322.816 65.2087 322.714 65.386C322.62 65.554 322.574 65.7547 322.574 65.988V71H321.454Z" fill="#202124"/>
<path d="M803.5 61.1001C803.5 61.9285 802.828 62.6001 802 62.6001C801.172 62.6001 800.5 61.9285 800.5 61.1001C800.5 60.2717 801.172 59.6001 802 59.6001C802.828 59.6001 803.5 60.2717 803.5 61.1001Z" fill="#606367"/>
<path d="M803.5 66.1001C803.5 66.9285 802.828 67.6001 802 67.6001C801.172 67.6001 800.5 66.9285 800.5 66.1001C800.5 65.2717 801.172 64.6001 802 64.6001C802.828 64.6001 803.5 65.2717 803.5 66.1001Z" fill="#606367"/>
<path d="M803.5 71.1001C803.5 71.9285 802.828 72.6001 802 72.6001C801.172 72.6001 800.5 71.9285 800.5 71.1001C800.5 70.2717 801.172 69.6001 802 69.6001C802.828 69.6001 803.5 70.2717 803.5 71.1001Z" fill="#606367"/>
<path d="M151.464 27.7498C151.464 27.7498 151.458 27.7595 151.455 27.7637C151.43 27.7512 151.402 27.7374 151.38 27.7277C151.223 27.6571 151.077 27.6155 150.939 27.6017C150.635 27.5712 150.324 27.7138 150.007 28.031C149.77 28.2678 149.613 28.4866 149.541 28.6873C149.509 28.7787 149.498 28.8688 149.511 28.9588C149.523 29.0488 149.554 29.1194 149.605 29.1693C149.644 29.208 149.69 29.233 149.744 29.244C149.796 29.2551 149.843 29.2496 149.884 29.2288C150.014 29.1568 150.108 29.1236 150.168 29.1277C150.227 29.1319 150.317 29.1803 150.439 29.2731C150.513 29.3299 150.585 29.3811 150.653 29.4254C150.532 29.8644 150.466 30.3269 150.466 30.8005C150.466 31.6951 150.7 32.5287 151.101 33.2308L154.018 30.3145L151.464 27.7498Z" fill="black"/>
<path d="M155.83 26.3762C155.866 26.2419 155.887 26.1006 155.887 25.9525C155.887 25.1451 155.301 24.4292 154.578 24.4292C153.854 24.4292 153.268 25.1451 153.268 25.9525C153.268 26.0799 153.285 26.2017 153.311 26.3194C152.796 26.5119 152.323 26.8235 151.917 27.2237L154.506 29.8229L157.093 27.2362C156.723 26.8664 156.294 26.5715 155.829 26.3748L155.83 26.3762Z" fill="black"/>
<path d="M159.459 28.6873C159.386 28.4879 159.23 28.2691 158.993 28.031C158.676 27.7138 158.366 27.5712 158.061 27.6017C157.924 27.6141 157.777 27.6571 157.62 27.7277C157.598 27.7374 157.572 27.7512 157.547 27.7637L154.996 30.3145L157.899 33.2294C158.301 32.5287 158.535 31.6951 158.535 30.8005C158.535 30.3269 158.468 29.8644 158.348 29.4254C158.416 29.3797 158.488 29.3299 158.561 29.2731C158.683 29.1803 158.773 29.1319 158.833 29.1277C158.892 29.1236 158.986 29.1568 159.117 29.2288C159.157 29.2496 159.204 29.2551 159.257 29.244C159.309 29.233 159.355 29.208 159.395 29.1693C159.445 29.1194 159.477 29.0488 159.489 28.9588C159.502 28.8688 159.491 28.7774 159.459 28.6873Z" fill="black"/>
<path d="M158.603 35.4756C158.572 35.4313 158.536 35.4008 158.492 35.3869C158.349 35.3454 158.258 35.3025 158.219 35.2582C158.18 35.2138 158.15 35.1155 158.129 34.9632C158.08 34.5976 158 34.3262 157.888 34.1489C157.799 34.0091 157.669 33.8983 157.5 33.8152L157.502 33.8124L154.507 30.8047L151.499 33.8138H151.5C151.331 33.8997 151.201 34.0105 151.112 34.1503C151 34.3276 150.92 34.599 150.871 34.9646C150.85 35.1169 150.821 35.2152 150.781 35.2595C150.742 35.3039 150.651 35.3482 150.508 35.3883C150.464 35.4022 150.428 35.4313 150.397 35.477C150.367 35.5213 150.353 35.5711 150.353 35.6265C150.353 35.6971 150.381 35.7691 150.436 35.8425C150.492 35.9145 150.562 35.9713 150.65 36.0129C150.842 36.1029 151.107 36.1472 151.443 36.1472C151.892 36.1472 152.212 36.0281 152.406 35.7927C152.494 35.6874 152.569 35.5531 152.629 35.3925C152.675 35.272 152.726 35.1031 152.785 34.8829C153.306 35.1571 153.888 35.3122 154.503 35.3122C155.118 35.3122 155.698 35.1571 156.221 34.8829C156.279 35.1031 156.33 35.272 156.376 35.3925C156.437 35.5531 156.512 35.6874 156.599 35.7927C156.792 36.0295 157.113 36.1472 157.562 36.1472C157.897 36.1472 158.162 36.1029 158.356 36.0129C158.443 35.9713 158.515 35.9145 158.569 35.8425C158.625 35.7705 158.652 35.6985 158.652 35.6265C158.652 35.5711 158.637 35.5213 158.608 35.477L158.603 35.4756Z" fill="black"/>
<path d="M824 85H54V125.185H824V85Z" fill="#AAAAAA"/>
<path d="M824 125.185H54V519H824V125.185Z" fill="#AAAAAA"/>
<path d="M318.18 318.601H314.78C314.283 318.601 314.035 318.313 314.035 317.808V287.616C314.035 287.117 314.283 286.822 314.78 286.822H318.18C318.677 286.822 318.925 287.111 318.925 287.616V317.814C318.925 318.313 318.677 318.608 318.18 318.608V318.601Z" fill="#1D1D1B"/>
<path d="M459.597 287.445C460.179 287.78 460.263 288.068 460.263 288.527V290.645C460.263 291.229 459.974 291.353 459.433 291.268C457.857 291.019 454.87 290.77 451.183 290.77C443.306 290.77 442.018 294.639 442.018 300.049V305.584C442.018 311.493 442.43 314.693 451.765 314.693C453.177 314.693 454.629 314.607 455.872 314.279C456.493 314.115 456.53 313.866 456.53 313.322V305.335H450.765C450.229 305.335 449.974 305.046 449.974 304.541V301.669C449.974 301.131 450.222 300.875 450.804 300.921H460.552C461.049 300.921 461.342 301.171 461.342 301.669V316.601C461.382 317.395 461.093 317.847 460.428 318.057C457.564 318.975 453.707 319.224 451.223 319.224C440.978 319.224 437.121 316.188 437.121 305.663V300.633C437.121 289.609 441.933 286.199 450.85 286.199C454.459 286.199 458.314 286.698 459.597 287.445Z" fill="#1D1D1B"/>
<path d="M467.683 286.822H478.511C485.477 286.822 489.459 288.154 489.459 295.348V296.764C489.459 301.879 486.804 304.292 484.029 305.25L490.289 317.768C490.538 318.306 490.289 318.601 489.748 318.601H485.85C485.441 318.601 485.144 318.391 484.895 317.854L479.052 305.872H471.797V317.814C471.797 318.313 471.549 318.608 471.051 318.608H467.691C467.193 318.608 466.945 318.319 466.945 317.814V287.616C466.945 287.117 467.193 286.822 467.691 286.822H467.683ZM471.789 301.545H478.511C485.02 301.545 484.563 298.757 484.563 296.928V294.973C484.563 292.272 482.986 291.15 478.511 291.15H471.789V301.551V301.545Z" fill="#1D1D1B"/>
<path d="M499.489 318.601H496.088C495.591 318.601 495.342 318.313 495.342 317.808V287.616C495.342 287.117 495.591 286.822 496.088 286.822H499.489C499.986 286.822 500.235 287.111 500.235 287.616V317.814C500.235 318.313 499.986 318.608 499.489 318.608V318.601Z" fill="#1D1D1B"/>
<path d="M528.396 287.57V290.482C528.396 290.98 528.107 291.229 527.606 291.229H518.735V317.808C518.735 318.306 518.486 318.601 517.989 318.601H514.588C514.091 318.601 513.846 318.313 513.846 317.808V291.229H504.971C504.478 291.229 504.181 290.98 504.181 290.482V287.57C504.181 287.071 504.47 286.822 504.971 286.822H527.614C528.107 286.822 528.404 287.071 528.404 287.57H528.396Z" fill="#1D1D1B"/>
<path d="M428.557 286.192H328.411V318.358H428.557V286.192Z" fill="black"/>
<path d="M81.6719 85H54V519H81.6719V85Z" fill="#AAAAAA"/>
<path d="M61.0181 295.771H74.6535" stroke="black" stroke-width="2" stroke-linecap="round"/>
<path d="M61.0181 300.996H71.8462" stroke="black" stroke-width="2" stroke-linecap="round"/>
<path d="M61.0181 306.219H69.4399" stroke="black" stroke-width="2" stroke-linecap="round"/>
<path d="M810.666 297.077L815.578 302L810.666 306.923V297.077ZM804.349 302H815.578H804.349Z" stroke="black" stroke-linecap="round" stroke-linejoin="round"/>
<path d="M544.29 295.07C544.29 295.07 544.282 295.101 544.278 295.114C544.201 295.106 544.117 295.098 544.053 295.094C543.588 295.065 543.179 295.099 542.814 295.195C542.012 295.409 541.362 296.068 540.861 297.178C540.484 298.007 540.295 298.713 540.307 299.292C540.311 299.555 540.371 299.794 540.488 300.011C540.604 300.228 540.748 300.379 540.929 300.457C541.061 300.518 541.201 300.538 541.35 300.514C541.494 300.492 541.607 300.433 541.691 300.342C541.951 300.034 542.16 299.86 542.316 299.813C542.469 299.767 542.746 299.804 543.143 299.923C543.383 299.998 543.616 300.059 543.828 300.107C543.941 301.339 544.213 302.578 544.667 303.783C545.521 306.058 546.908 307.954 548.601 309.355L553.213 299.151L544.29 295.07Z" fill="black"/>
<path d="M554.051 287.403C554.015 287.027 553.934 286.648 553.79 286.271C553.02 284.218 550.85 282.958 549.018 283.649C547.181 284.34 546.379 286.721 547.149 288.774C547.269 289.098 547.43 289.392 547.61 289.667C546.483 290.649 545.585 291.892 544.935 293.298L553.983 297.434L558.073 288.383C556.782 287.797 555.414 287.456 554.047 287.401L554.051 287.403Z" fill="black"/>
<path d="M565.461 289.813C565.084 289.375 564.482 288.967 563.656 288.588C562.549 288.085 561.623 288.019 560.881 288.388C560.544 288.551 560.211 288.8 559.882 289.129C559.834 289.175 559.782 289.235 559.73 289.291L555.695 298.216L565.842 302.854C566.191 300.688 565.99 298.344 565.136 296.069C564.683 294.865 564.073 293.753 563.347 292.751C563.476 292.57 563.612 292.375 563.744 292.16C563.965 291.808 564.145 291.598 564.294 291.531C564.442 291.463 564.711 291.458 565.112 291.516C565.232 291.531 565.356 291.5 565.481 291.422C565.605 291.343 565.697 291.236 565.761 291.099C565.838 290.924 565.854 290.714 565.798 290.474C565.745 290.232 565.629 290.011 565.461 289.813Z" fill="black"/>
<path d="M569.768 307.894C569.647 307.81 569.527 307.767 569.403 307.774C569.002 307.805 568.729 307.783 568.589 307.708C568.448 307.632 568.276 307.411 568.079 307.044C567.606 306.16 567.141 305.547 566.688 305.203C566.331 304.932 565.894 304.775 565.388 304.725L565.392 304.716L554.921 299.93L550.165 310.457L550.169 310.456C549.82 310.836 549.595 311.242 549.503 311.683C549.391 312.241 549.443 313.008 549.671 313.984C549.764 314.391 549.784 314.669 549.723 314.82C549.667 314.97 549.479 315.17 549.154 315.408C549.054 315.486 548.99 315.594 548.958 315.74C548.921 315.882 548.933 316.022 548.99 316.163C549.054 316.342 549.194 316.499 549.407 316.632C549.615 316.763 549.848 316.839 550.109 316.861C550.682 316.906 551.396 316.766 552.25 316.444C553.389 316.015 554.087 315.406 554.356 314.622C554.476 314.271 554.536 313.858 554.54 313.391C554.54 313.041 554.508 312.563 554.444 311.947C556.028 312.146 557.652 311.985 559.212 311.397C560.772 310.809 562.1 309.86 563.162 308.663C563.519 309.167 563.812 309.548 564.041 309.81C564.35 310.161 564.666 310.431 564.991 310.615C565.705 311.033 566.631 311.025 567.77 310.596C568.621 310.275 569.25 309.91 569.655 309.496C569.836 309.307 569.964 309.093 570.036 308.859C570.104 308.623 570.108 308.413 570.04 308.23C569.988 308.089 569.9 307.977 569.784 307.892L569.768 307.894Z" fill="black"/>
<path d="M543.271 85H439V125.185H543.271V85Z" fill="#AAAAAA"/>
<path d="M466.968 100.198V107.504H465.87V100.198H466.968ZM474.989 107.504H472.627V100.198H475.062C475.779 100.198 476.393 100.344 476.902 100.636C477.416 100.927 477.809 101.344 478.081 101.889C478.358 102.431 478.494 103.081 478.494 103.84C478.494 104.601 478.358 105.255 478.077 105.802C477.805 106.349 477.404 106.77 476.882 107.065C476.361 107.358 475.727 107.504 474.989 107.504ZM473.73 106.541H474.929C475.483 106.541 475.944 106.436 476.313 106.227C476.682 106.015 476.954 105.709 477.139 105.31C477.323 104.908 477.412 104.418 477.412 103.84C477.412 103.267 477.323 102.78 477.139 102.381C476.958 101.981 476.69 101.678 476.329 101.471C475.972 101.264 475.527 101.161 474.997 101.161H473.73V106.541ZM486.9 103.851C486.9 104.631 486.756 105.302 486.471 105.863C486.186 106.422 485.797 106.852 485.3 107.154C484.807 107.454 484.245 107.604 483.616 107.604C482.986 107.604 482.421 107.454 481.927 107.154C481.43 106.852 481.041 106.421 480.756 105.859C480.472 105.298 480.331 104.628 480.331 103.851C480.331 103.071 480.472 102.401 480.756 101.842C481.041 101.281 481.43 100.85 481.927 100.551C482.421 100.249 482.986 100.098 483.616 100.098C484.245 100.098 484.807 100.249 485.3 100.551C485.797 100.85 486.186 101.281 486.471 101.842C486.756 102.401 486.9 103.071 486.9 103.851ZM485.809 103.851C485.809 103.256 485.713 102.756 485.521 102.349C485.332 101.94 485.072 101.631 484.739 101.421C484.41 101.21 484.033 101.104 483.616 101.104C483.195 101.104 482.822 101.21 482.493 101.421C482.16 101.631 481.899 101.94 481.707 102.349C481.518 102.756 481.422 103.256 481.422 103.851C481.422 104.445 481.518 104.947 481.707 105.356C481.899 105.763 482.16 106.072 482.493 106.284C482.822 106.493 483.195 106.598 483.616 106.598C484.033 106.598 484.41 106.493 484.739 106.284C485.072 106.072 485.332 105.763 485.521 105.356C485.713 104.947 485.809 104.445 485.809 103.851ZM497.263 102.506C497.195 102.289 497.103 102.096 496.986 101.924C496.87 101.751 496.734 101.603 496.577 101.482C496.417 101.358 496.236 101.264 496.032 101.2C495.827 101.136 495.607 101.104 495.366 101.104C494.953 101.104 494.584 101.21 494.255 101.421C493.923 101.633 493.662 101.943 493.469 102.352C493.281 102.759 493.185 103.257 493.185 103.847C493.185 104.439 493.281 104.94 493.473 105.349C493.666 105.758 493.931 106.069 494.263 106.28C494.6 106.492 494.981 106.598 495.406 106.598C495.803 106.598 496.148 106.517 496.445 106.355C496.742 106.193 496.97 105.965 497.131 105.67C497.295 105.373 497.375 105.023 497.375 104.621L497.66 104.675H495.575V103.765H498.442V104.596C498.442 105.21 498.31 105.743 498.049 106.195C497.793 106.644 497.432 106.991 496.974 107.236C496.517 107.481 495.996 107.604 495.406 107.604C494.749 107.604 494.167 107.452 493.67 107.147C493.173 106.843 492.788 106.411 492.511 105.852C492.23 105.291 492.094 104.625 492.094 103.854C492.094 103.272 492.174 102.748 492.334 102.285C492.495 101.821 492.723 101.427 493.016 101.104C493.309 100.778 493.654 100.529 494.051 100.358C494.452 100.184 494.885 100.098 495.358 100.098C495.751 100.098 496.12 100.156 496.457 100.272C496.798 100.389 497.103 100.554 497.371 100.768C497.636 100.982 497.861 101.237 498.037 101.532C498.21 101.824 498.33 102.149 498.39 102.506H497.263ZM500.54 107.504V100.198H503.138C503.704 100.198 504.173 100.295 504.546 100.49C504.919 100.685 505.2 100.955 505.384 101.3C505.569 101.642 505.661 102.038 505.661 102.488C505.661 102.935 505.569 103.329 505.38 103.669C505.196 104.007 504.915 104.269 504.542 104.457C504.169 104.645 503.7 104.739 503.134 104.739H501.165V103.79H503.034C503.391 103.79 503.68 103.739 503.904 103.637C504.129 103.534 504.293 103.386 504.398 103.191C504.502 102.996 504.554 102.761 504.554 102.488C504.554 102.212 504.502 101.973 504.394 101.771C504.289 101.569 504.125 101.414 503.9 101.307C503.676 101.198 503.383 101.143 503.022 101.143H501.639V107.504H500.54ZM504.141 104.208L505.942 107.504H504.686L502.922 104.208H504.141ZM508.805 100.198V107.504H507.702V100.198H508.805ZM510.746 101.147V100.198H516.393V101.147H514.115V107.504H513.02V101.147H510.746Z" fill="black"/>
<path d="M647.542 85H543.271V125.185H647.542V85Z" fill="#AAAAAA"/>
<path d="M566.427 100.198V107.504H565.328V100.198H566.427ZM573.513 107.504L571.492 100.198H572.647L574.071 105.856H574.139L575.615 100.198H576.762L578.238 105.859H578.306L579.722 100.198H580.885L578.859 107.504H577.752L576.216 102.031H576.16L574.624 107.504H573.513ZM583.688 100.198V107.504H582.589V100.198H583.688ZM585.994 107.504V100.198H587.093V106.555H590.397V107.504H585.994ZM592.354 107.504V100.198H593.453V106.555H596.758V107.504H592.354ZM607.004 102.506C606.936 102.289 606.844 102.096 606.728 101.924C606.615 101.751 606.479 101.603 606.319 101.482C606.158 101.358 605.978 101.264 605.773 101.2C605.573 101.136 605.348 101.104 605.107 101.104C604.698 101.104 604.325 101.21 603.997 101.421C603.668 101.633 603.407 101.943 603.215 102.352C603.022 102.759 602.93 103.257 602.93 103.847C602.93 104.439 603.026 104.94 603.219 105.349C603.411 105.758 603.672 106.069 604.009 106.28C604.341 106.492 604.722 106.598 605.152 106.598C605.549 106.598 605.893 106.517 606.186 106.355C606.483 106.193 606.712 105.965 606.872 105.67C607.036 105.373 607.121 105.023 607.121 104.621L607.405 104.675H605.316V103.765H608.183V104.596C608.183 105.21 608.055 105.743 607.79 106.195C607.534 106.644 607.177 106.991 606.716 107.236C606.262 107.481 605.737 107.604 605.152 107.604C604.49 107.604 603.912 107.452 603.411 107.147C602.918 106.843 602.529 106.411 602.252 105.852C601.975 105.291 601.835 104.625 601.835 103.854C601.835 103.272 601.915 102.748 602.08 102.285C602.24 101.821 602.465 101.427 602.757 101.104C603.05 100.778 603.399 100.529 603.792 100.358C604.193 100.184 604.626 100.098 605.099 100.098C605.496 100.098 605.861 100.156 606.202 100.272C606.543 100.389 606.848 100.554 607.113 100.768C607.381 100.982 607.602 101.237 607.778 101.532C607.955 101.824 608.071 102.149 608.135 102.506H607.004ZM610.281 107.504V100.198H612.88C613.445 100.198 613.914 100.295 614.287 100.49C614.664 100.685 614.941 100.955 615.13 101.3C615.314 101.642 615.406 102.038 615.406 102.488C615.406 102.935 615.31 103.329 615.125 103.669C614.941 104.007 614.66 104.269 614.283 104.457C613.91 104.645 613.441 104.739 612.88 104.739H610.911V103.79H612.779C613.132 103.79 613.425 103.739 613.646 103.637C613.874 103.534 614.039 103.386 614.143 103.191C614.247 102.996 614.299 102.761 614.299 102.488C614.299 102.212 614.243 101.973 614.139 101.771C614.035 101.569 613.87 101.414 613.642 101.307C613.421 101.198 613.128 101.143 612.763 101.143H611.384V107.504H610.281ZM613.882 104.208L615.683 107.504H614.432L612.663 104.208H613.882ZM618.546 100.198V107.504H617.447V100.198H618.546ZM620.491 101.147V100.198H626.134V101.147H623.86V107.504H622.761V101.147H620.491Z" fill="black"/>
<path d="M439 85.4019H334.729V125.587H439V85.4019Z" fill="#AAAAAA"/>
<path d="M362.297 100.198V107.504H361.197V100.198H362.297ZM368.572 107.504H367.405L370.029 100.198H371.3L373.924 107.504H372.756L370.694 101.525H370.637L368.572 107.504ZM368.768 104.643H372.556V105.57H368.768V104.643ZM375.678 100.198H377.014L379.335 105.877H379.421L381.742 100.198H383.077V107.504H382.03V102.217H381.962L379.812 107.493H378.943L376.793 102.213H376.725V107.504H375.678V100.198ZM393.668 102.506C393.599 102.289 393.507 102.096 393.39 101.924C393.277 101.751 393.14 101.603 392.981 101.482C392.822 101.358 392.641 101.264 392.436 101.2C392.235 101.136 392.013 101.104 391.77 101.104C391.36 101.104 390.989 101.21 390.66 101.421C390.33 101.633 390.069 101.943 389.876 102.352C389.686 102.759 389.591 103.257 389.591 103.847C389.591 104.439 389.688 104.94 389.88 105.349C390.072 105.758 390.336 106.069 390.67 106.28C391.005 106.492 391.386 106.598 391.813 106.598C392.209 106.598 392.555 106.517 392.849 106.355C393.146 106.193 393.375 105.965 393.536 105.67C393.7 105.373 393.782 105.023 393.782 104.621L394.067 104.675H391.98V103.765H394.847V104.596C394.847 105.21 394.716 105.743 394.455 106.195C394.196 106.644 393.838 106.991 393.38 107.236C392.924 107.481 392.402 107.604 391.813 107.604C391.153 107.604 390.574 107.452 390.076 107.147C389.58 106.843 389.193 106.411 388.915 105.852C388.637 105.291 388.499 104.625 388.499 103.854C388.499 103.272 388.579 102.748 388.74 102.285C388.902 101.821 389.129 101.427 389.421 101.104C389.715 100.778 390.06 100.529 390.456 100.358C390.856 100.184 391.291 100.098 391.763 100.098C392.157 100.098 392.524 100.156 392.864 100.272C393.205 100.389 393.509 100.554 393.775 100.768C394.043 100.982 394.265 101.237 394.441 101.532C394.616 101.824 394.735 102.149 394.797 102.506H393.668ZM396.945 107.504V100.198H399.544C400.109 100.198 400.578 100.295 400.951 100.49C401.325 100.685 401.605 100.955 401.791 101.3C401.976 101.642 402.068 102.038 402.068 102.488C402.068 102.935 401.975 103.329 401.787 103.669C401.602 104.007 401.322 104.269 400.947 104.457C400.574 104.645 400.106 104.739 399.54 104.739H397.572V103.79H399.441C399.797 103.79 400.086 103.739 400.31 103.637C400.535 103.534 400.7 103.386 400.805 103.191C400.909 102.996 400.961 102.761 400.961 102.488C400.961 102.212 400.908 101.973 400.801 101.771C400.696 101.569 400.531 101.414 400.306 101.307C400.083 101.198 399.79 101.143 399.427 101.143H398.045V107.504H396.945ZM400.545 104.208L402.346 107.504H401.093L399.327 104.208H400.545ZM405.209 100.198V107.504H404.109V100.198H405.209ZM407.153 101.147V100.198H412.796V101.147H410.522V107.504H409.425V101.147H407.153Z" fill="black"/>
<path d="M334.729 85.4019H230.458V125.587H334.729V85.4019Z" fill="#AAAAAA"/>
<path d="M278.373 101.663C278.373 101.663 278.363 101.677 278.359 101.682C278.325 101.665 278.286 101.646 278.256 101.632C278.038 101.534 277.834 101.476 277.643 101.457C277.219 101.414 276.788 101.613 276.347 102.055C276.017 102.385 275.8 102.689 275.699 102.969C275.655 103.097 275.64 103.222 275.657 103.347C275.674 103.473 275.717 103.571 275.788 103.641C275.842 103.695 275.905 103.729 275.98 103.745C276.054 103.76 276.119 103.752 276.175 103.723C276.356 103.623 276.487 103.577 276.57 103.583C276.653 103.588 276.778 103.656 276.948 103.785C277.05 103.864 277.15 103.936 277.244 103.997C277.076 104.609 276.984 105.253 276.984 105.913C276.984 107.159 277.31 108.321 277.869 109.299L281.923 105.236L278.373 101.663Z" fill="black"/>
<path d="M284.443 99.7494C284.493 99.5623 284.522 99.3656 284.522 99.1592C284.522 98.0345 283.707 97.0371 282.702 97.0371C281.696 97.0371 280.881 98.0345 280.881 99.1592C280.881 99.3366 280.905 99.5064 280.941 99.6704C280.225 99.9385 279.568 100.373 279.003 100.93L282.602 104.551L286.198 100.947C285.684 100.432 285.088 100.021 284.441 99.7475L284.443 99.7494Z" fill="black"/>
<path d="M289.488 102.969C289.386 102.691 289.17 102.387 288.841 102.055C288.4 101.613 287.968 101.414 287.545 101.457C287.354 101.474 287.15 101.534 286.932 101.632C286.901 101.646 286.865 101.665 286.83 101.682L283.284 105.236L287.319 109.297C287.878 108.321 288.203 107.159 288.203 105.913C288.203 105.253 288.111 104.609 287.943 103.997C288.038 103.934 288.138 103.864 288.24 103.785C288.409 103.656 288.535 103.588 288.618 103.583C288.7 103.577 288.831 103.623 289.013 103.723C289.068 103.752 289.134 103.76 289.207 103.745C289.28 103.729 289.344 103.695 289.4 103.641C289.469 103.571 289.513 103.473 289.531 103.347C289.548 103.222 289.532 103.095 289.488 102.969Z" fill="black"/>
<path d="M288.298 112.426C288.255 112.364 288.205 112.322 288.144 112.302C287.945 112.245 287.818 112.185 287.764 112.123C287.71 112.061 287.668 111.924 287.639 111.712C287.572 111.203 287.46 110.825 287.304 110.578C287.181 110.383 286.999 110.229 286.764 110.113L286.768 110.109L282.604 105.919L278.422 110.111H278.424C278.189 110.231 278.008 110.385 277.884 110.58C277.728 110.827 277.617 111.205 277.549 111.714C277.52 111.926 277.48 112.063 277.424 112.125C277.37 112.187 277.243 112.248 277.044 112.304C276.983 112.324 276.932 112.364 276.89 112.428C276.848 112.49 276.829 112.559 276.829 112.636C276.829 112.735 276.867 112.835 276.944 112.937C277.021 113.037 277.119 113.117 277.241 113.174C277.509 113.3 277.877 113.361 278.345 113.361C278.969 113.361 279.414 113.196 279.683 112.868C279.805 112.721 279.909 112.534 279.994 112.31C280.057 112.142 280.128 111.907 280.209 111.6C280.934 111.982 281.743 112.198 282.598 112.198C283.453 112.198 284.26 111.982 284.987 111.6C285.068 111.907 285.139 112.142 285.202 112.31C285.287 112.534 285.391 112.721 285.512 112.868C285.78 113.198 286.227 113.361 286.851 113.361C287.317 113.361 287.685 113.3 287.955 113.174C288.076 113.117 288.176 113.037 288.251 112.937C288.328 112.837 288.367 112.736 288.367 112.636C288.367 112.559 288.346 112.49 288.306 112.428L288.298 112.426Z" fill="black"/>
<path d="M748.753 298.968V304.813H747.875V298.968H748.753ZM753.774 304.813H752.839L754.941 298.968H755.955L758.057 304.813H757.123L755.47 300.03H755.426L753.774 304.813ZM753.93 302.524H756.962V303.266H753.93V302.524ZM759.461 298.968H760.527L762.384 303.511H762.452L764.309 298.968H765.38V304.813H764.542V300.583H764.486L762.765 304.805H762.071L760.351 300.58H760.295V304.813H759.461V298.968ZM773.85 300.815C773.798 300.641 773.722 300.486 773.629 300.349C773.537 300.21 773.429 300.093 773.301 299.995C773.172 299.896 773.028 299.821 772.867 299.77C772.703 299.718 772.527 299.693 772.334 299.693C772.005 299.693 771.708 299.777 771.444 299.947C771.179 300.116 770.97 300.365 770.818 300.692C770.666 301.017 770.589 301.416 770.589 301.888C770.589 302.361 770.666 302.762 770.822 303.089C770.975 303.417 771.183 303.665 771.452 303.834C771.72 304.003 772.025 304.088 772.366 304.088C772.683 304.088 772.96 304.023 773.196 303.894C773.433 303.765 773.617 303.582 773.746 303.346C773.878 303.108 773.942 302.829 773.942 302.507L774.171 302.55H772.502V301.822H774.792V302.487C774.792 302.978 774.688 303.404 774.48 303.765C774.275 304.125 773.986 304.403 773.621 304.599C773.256 304.795 772.839 304.893 772.366 304.893C771.841 304.893 771.376 304.771 770.979 304.528C770.581 304.284 770.273 303.939 770.048 303.492C769.828 303.043 769.715 302.51 769.715 301.893C769.715 301.427 769.779 301.009 769.908 300.637C770.04 300.267 770.221 299.951 770.453 299.693C770.69 299.432 770.966 299.233 771.283 299.096C771.6 298.958 771.949 298.888 772.326 298.888C772.643 298.888 772.936 298.935 773.208 299.028C773.481 299.121 773.726 299.253 773.938 299.425C774.151 299.596 774.327 299.8 774.468 300.035C774.608 300.269 774.704 300.529 774.752 300.815H773.85ZM776.473 304.813V298.968H778.55C779.003 298.968 779.38 299.046 779.677 299.202C779.978 299.358 780.202 299.574 780.351 299.85C780.495 300.124 780.571 300.441 780.571 300.8C780.571 301.158 780.495 301.473 780.347 301.745C780.198 302.015 779.974 302.226 779.673 302.376C779.376 302.526 778.999 302.601 778.55 302.601H776.974V301.842H778.47C778.755 301.842 778.987 301.801 779.164 301.719C779.344 301.638 779.477 301.519 779.561 301.362C779.645 301.206 779.685 301.019 779.685 300.8C779.685 300.58 779.641 300.388 779.557 300.227C779.473 300.065 779.34 299.941 779.16 299.855C778.983 299.768 778.747 299.724 778.458 299.724H777.351V304.813H776.473ZM779.352 302.176L780.792 304.813H779.789L778.378 302.176H779.352ZM783.082 298.968V304.813H782.204V298.968H783.082ZM784.638 299.727V298.968H789.154V299.727H787.333V304.813H786.455V299.727H784.638Z" fill="black"/>
</g>
<defs>
<filter id="filter0_d_217_234" x="48" y="0" width="786" height="529" filterUnits="userSpaceOnUse" color-interpolation-filters="sRGB">
<feFlood flood-opacity="0" result="BackgroundImageFix"/>
<feColorMatrix in="SourceAlpha" type="matrix" values="0 0 0 0 0 0 0 0 0 0 0 0 0 0 0 0 0 0 127 0" result="hardAlpha"/>
<feOffset dx="2" dy="2"/>
<feGaussianBlur stdDeviation="4"/>
<feComposite in2="hardAlpha" operator="out"/>
<feColorMatrix type="matrix" values="0 0 0 0 0 0 0 0 0 0 0 0 0 0 0 0 0 0 0.25 0"/>
<feBlend mode="normal" in2="BackgroundImageFix" result="effect1_dropShadow_217_234"/>
<feBlend mode="normal" in="SourceGraphic" in2="effect1_dropShadow_217_234" result="shape"/>
</filter>
<filter id="filter1_i_217_234" x="67" y="22" width="12" height="12" filterUnits="userSpaceOnUse" color-interpolation-filters="sRGB">
<feFlood flood-opacity="0" result="BackgroundImageFix"/>
<feBlend mode="normal" in="SourceGraphic" in2="BackgroundImageFix" result="shape"/>
<feColorMatrix in="SourceAlpha" type="matrix" values="0 0 0 0 0 0 0 0 0 0 0 0 0 0 0 0 0 0 127 0" result="hardAlpha"/>
<feOffset/>
<feGaussianBlur stdDeviation="3"/>
<feComposite in2="hardAlpha" operator="arithmetic" k2="-1" k3="1"/>
<feColorMatrix type="matrix" values="0 0 0 0 0.92549 0 0 0 0 0.427451 0 0 0 0 0.384314 0 0 0 1 0"/>
<feBlend mode="normal" in2="shape" result="effect1_innerShadow_217_234"/>
</filter>
<filter id="filter2_i_217_234" x="87" y="22" width="12" height="12" filterUnits="userSpaceOnUse" color-interpolation-filters="sRGB">
<feFlood flood-opacity="0" result="BackgroundImageFix"/>
<feBlend mode="normal" in="SourceGraphic" in2="BackgroundImageFix" result="shape"/>
<feColorMatrix in="SourceAlpha" type="matrix" values="0 0 0 0 0 0 0 0 0 0 0 0 0 0 0 0 0 0 127 0" result="hardAlpha"/>
<feOffset/>
<feGaussianBlur stdDeviation="3"/>
<feComposite in2="hardAlpha" operator="arithmetic" k2="-1" k3="1"/>
<feColorMatrix type="matrix" values="0 0 0 0 0.960784 0 0 0 0 0.768627 0 0 0 0 0.317647 0 0 0 1 0"/>
<feBlend mode="normal" in2="shape" result="effect1_innerShadow_217_234"/>
</filter>
<filter id="filter3_i_217_234" x="107" y="22" width="12" height="12" filterUnits="userSpaceOnUse" color-interpolation-filters="sRGB">
<feFlood flood-opacity="0" result="BackgroundImageFix"/>
<feBlend mode="normal" in="SourceGraphic" in2="BackgroundImageFix" result="shape"/>
<feColorMatrix in="SourceAlpha" type="matrix" values="0 0 0 0 0 0 0 0 0 0 0 0 0 0 0 0 0 0 127 0" result="hardAlpha"/>
<feOffset/>
<feGaussianBlur stdDeviation="3"/>
<feComposite in2="hardAlpha" operator="arithmetic" k2="-1" k3="1"/>
<feColorMatrix type="matrix" values="0 0 0 0 0.407843 0 0 0 0 0.8 0 0 0 0 0.345098 0 0 0 1 0"/>
<feBlend mode="normal" in2="shape" result="effect1_innerShadow_217_234"/>
</filter>
<linearGradient id="paint0_linear_217_234" x1="439" y1="6" x2="439" y2="48" gradientUnits="userSpaceOnUse">
<stop offset="0.00595238" stop-color="#DFE1E5"/>
<stop offset="0.994048" stop-color="#DFE1E5"/>
</linearGradient>
<linearGradient id="paint1_linear_217_234" x1="345" y1="31" x2="168" y2="31.0001" gradientUnits="userSpaceOnUse">
<stop stop-opacity="0"/>
<stop offset="0.100283"/>
</linearGradient>
</defs>
</svg>
