<svg width="792" height="97" viewBox="0 0 792 97" fill="none" xmlns="http://www.w3.org/2000/svg">
<path d="M606.995 17H600.125V15.71L603.545 12.56C604.035 12.11 604.445 11.635 604.775 11.135C605.105 10.625 605.27 10.115 605.27 9.605V9.425C605.27 8.845 605.11 8.375 604.79 8.015C604.47 7.655 603.985 7.475 603.335 7.475C603.015 7.475 602.735 7.52 602.495 7.61C602.255 7.7 602.045 7.825 601.865 7.985C601.695 8.145 601.55 8.335 601.43 8.555C601.32 8.765 601.23 8.995 601.16 9.245L600.035 8.81C600.135 8.5 600.27 8.2 600.44 7.91C600.62 7.61 600.84 7.345 601.1 7.115C601.37 6.885 601.69 6.7 602.06 6.56C602.44 6.42 602.885 6.35 603.395 6.35C603.905 6.35 604.36 6.425 604.76 6.575C605.16 6.725 605.495 6.935 605.765 7.205C606.035 7.475 606.24 7.795 606.38 8.165C606.53 8.535 606.605 8.945 606.605 9.395C606.605 9.805 606.545 10.185 606.425 10.535C606.315 10.885 606.16 11.22 605.96 11.54C605.76 11.85 605.515 12.155 605.225 12.455C604.945 12.755 604.64 13.055 604.31 13.355L601.49 15.89H606.995V17ZM617.039 17H610.169V15.71L613.589 12.56C614.079 12.11 614.489 11.635 614.819 11.135C615.149 10.625 615.314 10.115 615.314 9.605V9.425C615.314 8.845 615.154 8.375 614.834 8.015C614.514 7.655 614.029 7.475 613.379 7.475C613.059 7.475 612.779 7.52 612.539 7.61C612.299 7.7 612.089 7.825 611.909 7.985C611.739 8.145 611.594 8.335 611.474 8.555C611.364 8.765 611.274 8.995 611.204 9.245L610.079 8.81C610.179 8.5 610.314 8.2 610.484 7.91C610.664 7.61 610.884 7.345 611.144 7.115C611.414 6.885 611.734 6.7 612.104 6.56C612.484 6.42 612.929 6.35 613.439 6.35C613.949 6.35 614.404 6.425 614.804 6.575C615.204 6.725 615.539 6.935 615.809 7.205C616.079 7.475 616.284 7.795 616.424 8.165C616.574 8.535 616.649 8.945 616.649 9.395C616.649 9.805 616.589 10.185 616.469 10.535C616.359 10.885 616.204 11.22 616.004 11.54C615.804 11.85 615.559 12.155 615.269 12.455C614.989 12.755 614.684 13.055 614.354 13.355L611.534 15.89H617.039V17ZM621.128 17.18C620.808 17.18 620.573 17.1 620.423 16.94C620.283 16.78 620.213 16.57 620.213 16.31V16.115C620.213 15.855 620.283 15.645 620.423 15.485C620.573 15.325 620.808 15.245 621.128 15.245C621.448 15.245 621.678 15.325 621.818 15.485C621.968 15.645 622.043 15.855 622.043 16.115V16.31C622.043 16.57 621.968 16.78 621.818 16.94C621.678 17.1 621.448 17.18 621.128 17.18ZM628.725 17.18C627.475 17.18 626.56 16.705 625.98 15.755C625.41 14.805 625.125 13.475 625.125 11.765C625.125 10.055 625.41 8.725 625.98 7.775C626.56 6.825 627.475 6.35 628.725 6.35C629.975 6.35 630.885 6.825 631.455 7.775C632.035 8.725 632.325 10.055 632.325 11.765C632.325 13.475 632.035 14.805 631.455 15.755C630.885 16.705 629.975 17.18 628.725 17.18ZM628.725 16.085C629.135 16.085 629.485 16 629.775 15.83C630.065 15.66 630.3 15.42 630.48 15.11C630.66 14.8 630.79 14.435 630.87 14.015C630.96 13.595 631.005 13.13 631.005 12.62V10.91C631.005 10.4 630.96 9.935 630.87 9.515C630.79 9.095 630.66 8.73 630.48 8.42C630.3 8.11 630.065 7.87 629.775 7.7C629.485 7.53 629.135 7.445 628.725 7.445C628.315 7.445 627.965 7.53 627.675 7.7C627.385 7.87 627.15 8.11 626.97 8.42C626.79 8.73 626.655 9.095 626.565 9.515C626.485 9.935 626.445 10.4 626.445 10.91V12.62C626.445 13.13 626.485 13.595 626.565 14.015C626.655 14.435 626.79 14.8 626.97 15.11C627.15 15.42 627.385 15.66 627.675 15.83C627.965 16 628.315 16.085 628.725 16.085ZM641.739 7.64H637.149L636.849 11.63H636.954C637.204 11.28 637.484 11 637.794 10.79C638.114 10.58 638.549 10.475 639.099 10.475C639.549 10.475 639.964 10.55 640.344 10.7C640.724 10.85 641.054 11.065 641.334 11.345C641.614 11.615 641.829 11.95 641.979 12.35C642.139 12.75 642.219 13.205 642.219 13.715C642.219 14.225 642.139 14.695 641.979 15.125C641.819 15.545 641.584 15.91 641.274 16.22C640.974 16.52 640.604 16.755 640.164 16.925C639.734 17.095 639.244 17.18 638.694 17.18C638.254 17.18 637.864 17.13 637.524 17.03C637.194 16.93 636.899 16.795 636.639 16.625C636.379 16.455 636.149 16.265 635.949 16.055C635.759 15.845 635.584 15.625 635.424 15.395L636.369 14.675C636.499 14.885 636.634 15.075 636.774 15.245C636.924 15.415 637.084 15.56 637.254 15.68C637.434 15.8 637.639 15.895 637.869 15.965C638.099 16.025 638.374 16.055 638.694 16.055C639.414 16.055 639.959 15.865 640.329 15.485C640.699 15.105 640.884 14.57 640.884 13.88V13.73C640.884 13.04 640.699 12.505 640.329 12.125C639.959 11.745 639.414 11.555 638.694 11.555C638.214 11.555 637.834 11.645 637.554 11.825C637.284 11.995 637.039 12.2 636.819 12.44L635.754 12.29L636.129 6.53H641.739V7.64ZM646.353 17.18C646.033 17.18 645.798 17.1 645.648 16.94C645.508 16.78 645.438 16.57 645.438 16.31V16.115C645.438 15.855 645.508 15.645 645.648 15.485C645.798 15.325 646.033 15.245 646.353 15.245C646.673 15.245 646.903 15.325 647.043 15.485C647.193 15.645 647.268 15.855 647.268 16.115V16.31C647.268 16.57 647.193 16.78 647.043 16.94C646.903 17.1 646.673 17.18 646.353 17.18ZM653.365 10.97C654.075 10.97 654.605 10.81 654.955 10.49C655.315 10.16 655.495 9.74 655.495 9.23V9.125C655.495 8.575 655.32 8.165 654.97 7.895C654.63 7.615 654.18 7.475 653.62 7.475C653.08 7.475 652.64 7.595 652.3 7.835C651.96 8.065 651.68 8.38 651.46 8.78L650.53 8.06C650.66 7.85 650.815 7.645 650.995 7.445C651.185 7.235 651.405 7.05 651.655 6.89C651.905 6.73 652.195 6.6 652.525 6.5C652.855 6.4 653.23 6.35 653.65 6.35C654.09 6.35 654.505 6.41 654.895 6.53C655.285 6.64 655.62 6.81 655.9 7.04C656.19 7.26 656.415 7.535 656.575 7.865C656.745 8.195 656.83 8.57 656.83 8.99C656.83 9.33 656.775 9.635 656.665 9.905C656.565 10.175 656.425 10.41 656.245 10.61C656.065 10.81 655.85 10.98 655.6 11.12C655.36 11.26 655.1 11.365 654.82 11.435V11.495C655.1 11.555 655.37 11.655 655.63 11.795C655.9 11.925 656.135 12.1 656.335 12.32C656.545 12.53 656.71 12.79 656.83 13.1C656.96 13.4 657.025 13.745 657.025 14.135C657.025 14.585 656.94 15 656.77 15.38C656.6 15.75 656.36 16.07 656.05 16.34C655.74 16.6 655.365 16.805 654.925 16.955C654.485 17.105 654 17.18 653.47 17.18C653.02 17.18 652.62 17.13 652.27 17.03C651.92 16.93 651.61 16.795 651.34 16.625C651.07 16.455 650.83 16.265 650.62 16.055C650.42 15.845 650.24 15.625 650.08 15.395L651.025 14.675C651.155 14.885 651.295 15.075 651.445 15.245C651.605 15.415 651.78 15.56 651.97 15.68C652.16 15.8 652.375 15.895 652.615 15.965C652.855 16.025 653.135 16.055 653.455 16.055C654.195 16.055 654.755 15.89 655.135 15.56C655.515 15.22 655.705 14.74 655.705 14.12V14C655.705 13.38 655.515 12.905 655.135 12.575C654.755 12.235 654.195 12.065 653.455 12.065H652.225V10.97H653.365ZM663.995 17.18C662.745 17.18 661.83 16.705 661.25 15.755C660.68 14.805 660.395 13.475 660.395 11.765C660.395 10.055 660.68 8.725 661.25 7.775C661.83 6.825 662.745 6.35 663.995 6.35C665.245 6.35 666.155 6.825 666.725 7.775C667.305 8.725 667.595 10.055 667.595 11.765C667.595 13.475 667.305 14.805 666.725 15.755C666.155 16.705 665.245 17.18 663.995 17.18ZM663.995 16.085C664.405 16.085 664.755 16 665.045 15.83C665.335 15.66 665.57 15.42 665.75 15.11C665.93 14.8 666.06 14.435 666.14 14.015C666.23 13.595 666.275 13.13 666.275 12.62V10.91C666.275 10.4 666.23 9.935 666.14 9.515C666.06 9.095 665.93 8.73 665.75 8.42C665.57 8.11 665.335 7.87 665.045 7.7C664.755 7.53 664.405 7.445 663.995 7.445C663.585 7.445 663.235 7.53 662.945 7.7C662.655 7.87 662.42 8.11 662.24 8.42C662.06 8.73 661.925 9.095 661.835 9.515C661.755 9.935 661.715 10.4 661.715 10.91V12.62C661.715 13.13 661.755 13.595 661.835 14.015C661.925 14.435 662.06 14.8 662.24 15.11C662.42 15.42 662.655 15.66 662.945 15.83C663.235 16 663.585 16.085 663.995 16.085ZM671.579 17.18C671.259 17.18 671.024 17.1 670.874 16.94C670.734 16.78 670.664 16.57 670.664 16.31V16.115C670.664 15.855 670.734 15.645 670.874 15.485C671.024 15.325 671.259 15.245 671.579 15.245C671.899 15.245 672.129 15.325 672.269 15.485C672.419 15.645 672.494 15.855 672.494 16.115V16.31C672.494 16.57 672.419 16.78 672.269 16.94C672.129 17.1 671.899 17.18 671.579 17.18ZM680.961 13.46C680.591 13.46 680.261 13.41 679.971 13.31C679.691 13.21 679.376 13.075 679.026 12.905C678.746 12.765 678.471 12.645 678.201 12.545C677.931 12.445 677.641 12.395 677.331 12.395C677.081 12.395 676.866 12.435 676.686 12.515C676.516 12.585 676.316 12.705 676.086 12.875L675.591 12.215C675.791 11.965 676.026 11.765 676.296 11.615C676.576 11.465 676.941 11.39 677.391 11.39C677.761 11.39 678.086 11.44 678.366 11.54C678.656 11.64 678.976 11.775 679.326 11.945C679.606 12.085 679.881 12.205 680.151 12.305C680.421 12.405 680.711 12.455 681.021 12.455C681.271 12.455 681.481 12.42 681.651 12.35C681.831 12.27 682.036 12.145 682.266 11.975L682.761 12.635C682.561 12.885 682.321 13.085 682.041 13.235C681.771 13.385 681.411 13.46 680.961 13.46ZM692.715 17H685.845V15.71L689.265 12.56C689.755 12.11 690.165 11.635 690.495 11.135C690.825 10.625 690.99 10.115 690.99 9.605V9.425C690.99 8.845 690.83 8.375 690.51 8.015C690.19 7.655 689.705 7.475 689.055 7.475C688.735 7.475 688.455 7.52 688.215 7.61C687.975 7.7 687.765 7.825 687.585 7.985C687.415 8.145 687.27 8.335 687.15 8.555C687.04 8.765 686.95 8.995 686.88 9.245L685.755 8.81C685.855 8.5 685.99 8.2 686.16 7.91C686.34 7.61 686.56 7.345 686.82 7.115C687.09 6.885 687.41 6.7 687.78 6.56C688.16 6.42 688.605 6.35 689.115 6.35C689.625 6.35 690.08 6.425 690.48 6.575C690.88 6.725 691.215 6.935 691.485 7.205C691.755 7.475 691.96 7.795 692.1 8.165C692.25 8.535 692.325 8.945 692.325 9.395C692.325 9.805 692.265 10.185 692.145 10.535C692.035 10.885 691.88 11.22 691.68 11.54C691.48 11.85 691.235 12.155 690.945 12.455C690.665 12.755 690.36 13.055 690.03 13.355L687.21 15.89H692.715V17ZM702.759 17H695.889V15.71L699.309 12.56C699.799 12.11 700.209 11.635 700.539 11.135C700.869 10.625 701.034 10.115 701.034 9.605V9.425C701.034 8.845 700.874 8.375 700.554 8.015C700.234 7.655 699.749 7.475 699.099 7.475C698.779 7.475 698.499 7.52 698.259 7.61C698.019 7.7 697.809 7.825 697.629 7.985C697.459 8.145 697.314 8.335 697.194 8.555C697.084 8.765 696.994 8.995 696.924 9.245L695.799 8.81C695.899 8.5 696.034 8.2 696.204 7.91C696.384 7.61 696.604 7.345 696.864 7.115C697.134 6.885 697.454 6.7 697.824 6.56C698.204 6.42 698.649 6.35 699.159 6.35C699.669 6.35 700.124 6.425 700.524 6.575C700.924 6.725 701.259 6.935 701.529 7.205C701.799 7.475 702.004 7.795 702.144 8.165C702.294 8.535 702.369 8.945 702.369 9.395C702.369 9.805 702.309 10.185 702.189 10.535C702.079 10.885 701.924 11.22 701.724 11.54C701.524 11.85 701.279 12.155 700.989 12.455C700.709 12.755 700.404 13.055 700.074 13.355L697.254 15.89H702.759V17ZM706.848 17.18C706.528 17.18 706.293 17.1 706.143 16.94C706.003 16.78 705.933 16.57 705.933 16.31V16.115C705.933 15.855 706.003 15.645 706.143 15.485C706.293 15.325 706.528 15.245 706.848 15.245C707.168 15.245 707.398 15.325 707.538 15.485C707.688 15.645 707.763 15.855 707.763 16.115V16.31C707.763 16.57 707.688 16.78 707.538 16.94C707.398 17.1 707.168 17.18 706.848 17.18ZM714.445 17.18C713.195 17.18 712.28 16.705 711.7 15.755C711.13 14.805 710.845 13.475 710.845 11.765C710.845 10.055 711.13 8.725 711.7 7.775C712.28 6.825 713.195 6.35 714.445 6.35C715.695 6.35 716.605 6.825 717.175 7.775C717.755 8.725 718.045 10.055 718.045 11.765C718.045 13.475 717.755 14.805 717.175 15.755C716.605 16.705 715.695 17.18 714.445 17.18ZM714.445 16.085C714.855 16.085 715.205 16 715.495 15.83C715.785 15.66 716.02 15.42 716.2 15.11C716.38 14.8 716.51 14.435 716.59 14.015C716.68 13.595 716.725 13.13 716.725 12.62V10.91C716.725 10.4 716.68 9.935 716.59 9.515C716.51 9.095 716.38 8.73 716.2 8.42C716.02 8.11 715.785 7.87 715.495 7.7C715.205 7.53 714.855 7.445 714.445 7.445C714.035 7.445 713.685 7.53 713.395 7.7C713.105 7.87 712.87 8.11 712.69 8.42C712.51 8.73 712.375 9.095 712.285 9.515C712.205 9.935 712.165 10.4 712.165 10.91V12.62C712.165 13.13 712.205 13.595 712.285 14.015C712.375 14.435 712.51 14.8 712.69 15.11C712.87 15.42 713.105 15.66 713.395 15.83C713.685 16 714.035 16.085 714.445 16.085ZM724.504 17.18C723.964 17.18 723.474 17.09 723.034 16.91C722.604 16.72 722.234 16.455 721.924 16.115C721.624 15.765 721.394 15.34 721.234 14.84C721.074 14.34 720.994 13.78 720.994 13.16C720.994 12.38 721.109 11.65 721.339 10.97C721.569 10.28 721.864 9.655 722.224 9.095C722.594 8.525 722.999 8.025 723.439 7.595C723.879 7.155 724.309 6.8 724.729 6.53H726.349C725.789 6.94 725.289 7.34 724.849 7.73C724.409 8.12 724.024 8.53 723.694 8.96C723.364 9.38 723.084 9.835 722.854 10.325C722.624 10.805 722.439 11.35 722.299 11.96L722.374 11.99C722.624 11.56 722.944 11.205 723.334 10.925C723.734 10.635 724.254 10.49 724.894 10.49C725.344 10.49 725.759 10.565 726.139 10.715C726.519 10.865 726.844 11.08 727.114 11.36C727.384 11.64 727.594 11.98 727.744 12.38C727.904 12.78 727.984 13.225 727.984 13.715C727.984 14.225 727.899 14.695 727.729 15.125C727.569 15.545 727.334 15.91 727.024 16.22C726.724 16.52 726.359 16.755 725.929 16.925C725.499 17.095 725.024 17.18 724.504 17.18ZM724.489 16.085C725.179 16.085 725.714 15.895 726.094 15.515C726.484 15.135 726.679 14.59 726.679 13.88V13.76C726.679 13.05 726.484 12.505 726.094 12.125C725.714 11.745 725.179 11.555 724.489 11.555C723.799 11.555 723.259 11.745 722.869 12.125C722.489 12.505 722.299 13.05 722.299 13.76V13.88C722.299 14.59 722.489 15.135 722.869 15.515C723.259 15.895 723.799 16.085 724.489 16.085ZM732.073 17.18C731.753 17.18 731.518 17.1 731.368 16.94C731.228 16.78 731.158 16.57 731.158 16.31V16.115C731.158 15.855 731.228 15.645 731.368 15.485C731.518 15.325 731.753 15.245 732.073 15.245C732.393 15.245 732.623 15.325 732.763 15.485C732.913 15.645 732.988 15.855 732.988 16.115V16.31C732.988 16.57 732.913 16.78 732.763 16.94C732.623 17.1 732.393 17.18 732.073 17.18ZM739.67 17.18C738.42 17.18 737.505 16.705 736.925 15.755C736.355 14.805 736.07 13.475 736.07 11.765C736.07 10.055 736.355 8.725 736.925 7.775C737.505 6.825 738.42 6.35 739.67 6.35C740.92 6.35 741.83 6.825 742.4 7.775C742.98 8.725 743.27 10.055 743.27 11.765C743.27 13.475 742.98 14.805 742.4 15.755C741.83 16.705 740.92 17.18 739.67 17.18ZM739.67 16.085C740.08 16.085 740.43 16 740.72 15.83C741.01 15.66 741.245 15.42 741.425 15.11C741.605 14.8 741.735 14.435 741.815 14.015C741.905 13.595 741.95 13.13 741.95 12.62V10.91C741.95 10.4 741.905 9.935 741.815 9.515C741.735 9.095 741.605 8.73 741.425 8.42C741.245 8.11 741.01 7.87 740.72 7.7C740.43 7.53 740.08 7.445 739.67 7.445C739.26 7.445 738.91 7.53 738.62 7.7C738.33 7.87 738.095 8.11 737.915 8.42C737.735 8.73 737.6 9.095 737.51 9.515C737.43 9.935 737.39 10.4 737.39 10.91V12.62C737.39 13.13 737.43 13.595 737.51 14.015C737.6 14.435 737.735 14.8 737.915 15.11C738.095 15.42 738.33 15.66 738.62 15.83C738.91 16 739.26 16.085 739.67 16.085ZM752.684 7.64H748.094L747.794 11.63H747.899C748.149 11.28 748.429 11 748.739 10.79C749.059 10.58 749.494 10.475 750.044 10.475C750.494 10.475 750.909 10.55 751.289 10.7C751.669 10.85 751.999 11.065 752.279 11.345C752.559 11.615 752.774 11.95 752.924 12.35C753.084 12.75 753.164 13.205 753.164 13.715C753.164 14.225 753.084 14.695 752.924 15.125C752.764 15.545 752.529 15.91 752.219 16.22C751.919 16.52 751.549 16.755 751.109 16.925C750.679 17.095 750.189 17.18 749.639 17.18C749.199 17.18 748.809 17.13 748.469 17.03C748.139 16.93 747.844 16.795 747.584 16.625C747.324 16.455 747.094 16.265 746.894 16.055C746.704 15.845 746.529 15.625 746.369 15.395L747.314 14.675C747.444 14.885 747.579 15.075 747.719 15.245C747.869 15.415 748.029 15.56 748.199 15.68C748.379 15.8 748.584 15.895 748.814 15.965C749.044 16.025 749.319 16.055 749.639 16.055C750.359 16.055 750.904 15.865 751.274 15.485C751.644 15.105 751.829 14.57 751.829 13.88V13.73C751.829 13.04 751.644 12.505 751.274 12.125C750.904 11.745 750.359 11.555 749.639 11.555C749.159 11.555 748.779 11.645 748.499 11.825C748.229 11.995 747.984 12.2 747.764 12.44L746.699 12.29L747.074 6.53H752.684V7.64ZM757.298 17.18C756.978 17.18 756.743 17.1 756.593 16.94C756.453 16.78 756.383 16.57 756.383 16.31V16.115C756.383 15.855 756.453 15.645 756.593 15.485C756.743 15.325 756.978 15.245 757.298 15.245C757.618 15.245 757.848 15.325 757.988 15.485C758.138 15.645 758.213 15.855 758.213 16.115V16.31C758.213 16.57 758.138 16.78 757.988 16.94C757.848 17.1 757.618 17.18 757.298 17.18Z" fill="#1B1C25"/>
<path d="M675.32 40V38.89H678.245V30.46H678.14L675.5 32.92L674.765 32.125L677.54 29.53H679.505V38.89H682.205V40H675.32ZM697.244 34.555H695.084V41.515H693.944V28.495H695.084V33.595H697.244V34.555ZM690.539 30.055H686.519V29.11H690.539V30.055ZM689.144 34.99C689.264 34.99 689.389 35.045 689.519 35.155L692.429 37.96L691.589 38.695L688.634 35.74C688.574 35.68 688.509 35.65 688.439 35.65C688.369 35.65 688.309 35.68 688.259 35.74C687.989 36.19 687.634 36.66 687.194 37.15C686.754 37.63 686.169 38.205 685.439 38.875L684.614 38.17C685.484 37.42 686.154 36.77 686.624 36.22C687.094 35.66 687.429 35.105 687.629 34.555C687.839 33.995 687.944 33.36 687.944 32.65V32.575H685.004V31.63H692.054V32.575H689.069V32.68C689.069 33.67 688.889 34.525 688.529 35.245L688.604 35.29L688.829 35.11C688.939 35.03 689.044 34.99 689.144 34.99ZM714.808 28.465V41.485H713.683V34.135H711.268V33.175H713.683V28.465H714.808ZM711.298 30.475H704.038V29.53H711.298V30.475ZM711.868 36.775L711.988 37.675C710.978 37.835 709.753 37.955 708.313 38.035C706.873 38.115 705.368 38.155 703.798 38.155L703.693 37.21L705.673 37.195L705.208 31.72L706.333 31.615L706.693 37.18L708.493 37.09L708.958 31.6L710.068 31.705L709.528 37.03C710.398 36.97 711.178 36.885 711.868 36.775ZM720.997 28.57V30.04H727.372V28.57H728.482V33.25H719.872V28.57H720.997ZM727.372 30.91H720.997V32.38H727.372V30.91ZM730.297 34.45V35.395H718.057V34.45H730.297ZM719.962 41.335V38.905H727.357V37.525H719.872V36.61H728.452V39.775H721.042V41.17H728.842V42.1H720.712C720.472 42.1 720.287 42.035 720.157 41.905C720.027 41.775 719.962 41.585 719.962 41.335ZM743.641 28.465V41.485H742.501V28.465H743.641ZM740.791 36.925L740.941 37.84C739.391 38.14 737.421 38.29 735.031 38.29H733.411V33.265H738.136V30.415H733.351V29.455H739.276V34.21H734.536V37.36H735.016C737.286 37.36 739.211 37.215 740.791 36.925ZM758.14 36.22H756.985V28.465H758.14V36.22ZM750.955 32.755C750.885 32.755 750.82 32.79 750.76 32.86C750.5 33.28 750.16 33.715 749.74 34.165C749.32 34.605 748.74 35.165 748 35.845L747.145 35.11C748.005 34.36 748.665 33.72 749.125 33.19C749.585 32.65 749.915 32.12 750.115 31.6C750.325 31.07 750.43 30.47 750.43 29.8V28.975H751.585V29.86C751.585 30.81 751.41 31.64 751.06 32.35L751.12 32.395L751.375 32.185C751.485 32.095 751.59 32.05 751.69 32.05C751.81 32.05 751.915 32.1 752.005 32.2L754.9 34.825L754.075 35.62L751.165 32.845C751.105 32.785 751.035 32.755 750.955 32.755ZM758.215 39.34C758.215 39.89 758.055 40.38 757.735 40.81C757.425 41.25 756.955 41.595 756.325 41.845C755.695 42.095 754.925 42.22 754.015 42.22C753.105 42.22 752.33 42.095 751.69 41.845C751.06 41.595 750.585 41.25 750.265 40.81C749.955 40.38 749.8 39.89 749.8 39.34C749.8 38.79 749.955 38.3 750.265 37.87C750.585 37.43 751.06 37.085 751.69 36.835C752.33 36.585 753.105 36.46 754.015 36.46C754.925 36.46 755.695 36.585 756.325 36.835C756.955 37.085 757.425 37.43 757.735 37.87C758.055 38.3 758.215 38.79 758.215 39.34ZM757 39.22C757 38.7 756.75 38.265 756.25 37.915C755.76 37.565 755.015 37.39 754.015 37.39C753.015 37.39 752.265 37.57 751.765 37.93C751.265 38.28 751.015 38.71 751.015 39.22V39.475C751.015 39.985 751.265 40.415 751.765 40.765C752.265 41.125 753.015 41.305 754.015 41.305C755.015 41.305 755.76 41.125 756.25 40.765C756.75 40.415 757 39.985 757 39.475V39.22Z" fill="#1B1C25"/>
<path d="M0 60H773.5C783.717 60 792 68.2827 792 78.5C792 88.7173 783.717 97 773.5 97H0V60Z" fill="#36685D" fill-opacity="0.25"/>
</svg>
