<svg width="251" height="193" viewBox="0 0 251 193" fill="none" xmlns="http://www.w3.org/2000/svg">
<rect width="251" height="193" fill="#F8D554"/>
<path d="M101.598 81V66.4545H110.717V68.3438H103.793V72.7756H110.241V74.6577H103.793V79.1108H110.803V81H101.598ZM115.049 81V66.4545H120.233C121.365 66.4545 122.303 66.6605 123.046 67.0724C123.789 67.4844 124.346 68.0478 124.715 68.7628C125.084 69.473 125.269 70.2732 125.269 71.1634C125.269 72.0582 125.082 72.8632 124.708 73.5781C124.339 74.2884 123.78 74.8518 123.032 75.2685C122.288 75.6804 121.353 75.8864 120.226 75.8864H116.661V74.0256H120.027C120.742 74.0256 121.322 73.9025 121.768 73.6562C122.213 73.4053 122.539 73.0644 122.748 72.6335C122.956 72.2027 123.06 71.7126 123.06 71.1634C123.06 70.6141 122.956 70.1264 122.748 69.7003C122.539 69.2741 122.21 68.9403 121.76 68.6989C121.315 68.4574 120.728 68.3366 119.999 68.3366H117.243V81H115.049ZM131.436 66.4545V81H129.242V66.4545H131.436ZM136.032 81V66.4545H138.227V79.1108H144.818V81H136.032ZM160.79 73.7273C160.79 75.2803 160.506 76.6155 159.938 77.733C159.37 78.8456 158.591 79.7027 157.601 80.304C156.616 80.9006 155.496 81.1989 154.242 81.1989C152.982 81.1989 151.858 80.9006 150.868 80.304C149.883 79.7027 149.107 78.8433 148.539 77.7259C147.97 76.6084 147.686 75.2756 147.686 73.7273C147.686 72.1742 147.97 70.8414 148.539 69.7287C149.107 68.6113 149.883 67.7543 150.868 67.1577C151.858 66.5563 152.982 66.2557 154.242 66.2557C155.496 66.2557 156.616 66.5563 157.601 67.1577C158.591 67.7543 159.37 68.6113 159.938 69.7287C160.506 70.8414 160.79 72.1742 160.79 73.7273ZM158.617 73.7273C158.617 72.5436 158.425 71.5469 158.041 70.7372C157.663 69.9228 157.142 69.3073 156.479 68.8906C155.821 68.4692 155.075 68.2585 154.242 68.2585C153.404 68.2585 152.656 68.4692 151.997 68.8906C151.339 69.3073 150.818 69.9228 150.435 70.7372C150.056 71.5469 149.867 72.5436 149.867 73.7273C149.867 74.911 150.056 75.91 150.435 76.7244C150.818 77.5341 151.339 78.1496 151.997 78.571C152.656 78.9877 153.404 79.196 154.242 79.196C155.075 79.196 155.821 78.9877 156.479 78.571C157.142 78.1496 157.663 77.5341 158.041 76.7244C158.425 75.91 158.617 74.911 158.617 73.7273ZM174.77 71.0497C174.633 70.6188 174.448 70.233 174.216 69.892C173.989 69.5464 173.716 69.2528 173.399 69.0114C173.082 68.7652 172.72 68.5781 172.312 68.4503C171.91 68.3224 171.467 68.2585 170.984 68.2585C170.165 68.2585 169.427 68.4692 168.768 68.8906C168.11 69.312 167.589 69.9299 167.206 70.7443C166.827 71.554 166.638 72.5459 166.638 73.7202C166.638 74.8991 166.83 75.8958 167.213 76.7102C167.597 77.5246 168.122 78.1425 168.79 78.5639C169.457 78.9853 170.217 79.196 171.07 79.196C171.86 79.196 172.549 79.035 173.136 78.7131C173.728 78.3911 174.185 77.9366 174.507 77.3494C174.834 76.7576 174.997 76.0616 174.997 75.2614L175.565 75.3679H171.403V73.5568H177.121V75.2116C177.121 76.4332 176.86 77.4938 176.339 78.3935C175.823 79.2884 175.108 79.9796 174.195 80.4673C173.286 80.955 172.244 81.1989 171.07 81.1989C169.753 81.1989 168.598 80.8958 167.604 80.2898C166.614 79.6837 165.842 78.8243 165.288 77.7116C164.734 76.5942 164.457 75.2685 164.457 73.7344C164.457 72.5743 164.618 71.5327 164.94 70.6094C165.262 69.6861 165.714 68.9025 166.297 68.2585C166.884 67.6098 167.573 67.1151 168.364 66.7741C169.159 66.4285 170.028 66.2557 170.97 66.2557C171.756 66.2557 172.488 66.3717 173.165 66.6037C173.847 66.8357 174.453 67.1648 174.983 67.5909C175.518 68.017 175.961 68.5237 176.311 69.1108C176.661 69.6932 176.898 70.3395 177.021 71.0497H174.77ZM190.66 66.4545H192.862V76.0213C192.862 77.0393 192.623 77.9413 192.145 78.7273C191.666 79.5085 190.994 80.1241 190.128 80.5739C189.261 81.0189 188.246 81.2415 187.081 81.2415C185.921 81.2415 184.907 81.0189 184.041 80.5739C183.175 80.1241 182.502 79.5085 182.024 78.7273C181.546 77.9413 181.307 77.0393 181.307 76.0213V66.4545H183.501V75.8438C183.501 76.5019 183.646 77.0866 183.934 77.598C184.228 78.1094 184.642 78.5118 185.177 78.8054C185.712 79.0942 186.347 79.2386 187.081 79.2386C187.819 79.2386 188.456 79.0942 188.991 78.8054C189.531 78.5118 189.943 78.1094 190.227 77.598C190.516 77.0866 190.66 76.5019 190.66 75.8438V66.4545ZM197.453 81V66.4545H206.572V68.3438H199.647V72.7756H206.096V74.6577H199.647V79.1108H206.657V81H197.453Z" fill="#1B1C25"/>
</svg>
