<svg width="770" height="79" viewBox="0 0 770 79" fill="none" xmlns="http://www.w3.org/2000/svg">
<path d="M2.265 6.17H3.39V8.66H9.99V6.17H11.115V13.07H2.265V6.17ZM9.99 12.11V9.62H3.39V12.11H9.99ZM0.57 16.025H12.81V17H0.57V16.025ZM23.439 15.065H22.329V5.675H23.439V9.575H25.449V5.465H26.559V15.44H25.449V10.52H23.439V15.065ZM21.594 12.995C20.264 13.305 18.689 13.46 16.869 13.46H15.654V9.425H19.539V7.37H15.594V6.44H20.604V10.325H16.719V12.545H17.154C17.984 12.545 18.769 12.505 19.509 12.425C20.249 12.345 20.894 12.235 21.444 12.095L21.594 12.995ZM26.844 17.825V18.77H18.639C18.399 18.77 18.214 18.705 18.084 18.575C17.954 18.445 17.889 18.255 17.889 18.005V14.795H19.029V17.825H26.844ZM40.068 12.65H31.188V6.365H39.933V7.34H32.328V11.675H40.068V12.65ZM41.658 16.025V17H29.418V16.025H41.658ZM61.6664 8.825V9.785H59.5814V13.22H58.4414V5.465H59.5814V8.825H61.6664ZM52.7564 9.725C52.6864 9.725 52.6214 9.76 52.5614 9.83C52.3014 10.26 51.9564 10.705 51.5264 11.165C51.1064 11.615 50.5364 12.175 49.8164 12.845L48.9764 12.11C49.8264 11.35 50.4814 10.7 50.9414 10.16C51.4014 9.62 51.7314 9.085 51.9314 8.555C52.1314 8.025 52.2314 7.425 52.2314 6.755V5.945H53.3714V6.815C53.3714 7.725 53.1964 8.555 52.8464 9.305L52.9214 9.365L53.1614 9.155C53.2714 9.065 53.3814 9.02 53.4914 9.02C53.6014 9.02 53.7014 9.065 53.7914 9.155L56.6414 11.795L55.8314 12.575L52.9514 9.815C52.8914 9.755 52.8264 9.725 52.7564 9.725ZM59.6864 16.34C59.6864 16.89 59.5314 17.38 59.2214 17.81C58.9114 18.25 58.4464 18.595 57.8264 18.845C57.2064 19.095 56.4464 19.22 55.5464 19.22C54.6564 19.22 53.8964 19.095 53.2664 18.845C52.6464 18.595 52.1764 18.25 51.8564 17.81C51.5464 17.38 51.3914 16.89 51.3914 16.34C51.3914 15.79 51.5464 15.3 51.8564 14.87C52.1764 14.43 52.6464 14.085 53.2664 13.835C53.8964 13.585 54.6564 13.46 55.5464 13.46C56.4464 13.46 57.2064 13.585 57.8264 13.835C58.4464 14.085 58.9114 14.43 59.2214 14.87C59.5314 15.3 59.6864 15.79 59.6864 16.34ZM58.4864 16.22C58.4864 15.7 58.2414 15.265 57.7514 14.915C57.2714 14.565 56.5364 14.39 55.5464 14.39C54.5664 14.39 53.8314 14.57 53.3414 14.93C52.8514 15.28 52.6064 15.71 52.6064 16.22V16.475C52.6064 16.985 52.8514 17.415 53.3414 17.765C53.8314 18.125 54.5664 18.305 55.5464 18.305C56.5364 18.305 57.2714 18.125 57.7514 17.765C58.2414 17.415 58.4864 16.985 58.4864 16.475V16.22ZM74.6804 13.25H73.5254V5.465H74.6804V13.25ZM64.6904 12.83L63.8504 12.11C64.7004 11.44 65.3554 10.865 65.8154 10.385C66.2854 9.905 66.6254 9.43 66.8354 8.96C67.0454 8.49 67.1504 7.955 67.1504 7.355V7.22H64.2704V6.275H71.1854V7.22H68.2904V7.415C68.2904 8.255 68.1154 8.995 67.7654 9.635L67.8554 9.68L68.0954 9.5C68.2054 9.42 68.3104 9.38 68.4104 9.38C68.5304 9.38 68.6504 9.425 68.7704 9.515L71.6204 11.855L70.7654 12.59L67.8854 10.145C67.8154 10.085 67.7354 10.055 67.6454 10.055C67.5654 10.055 67.4954 10.085 67.4354 10.145C67.1754 10.525 66.8354 10.915 66.4154 11.315C65.9954 11.715 65.4204 12.22 64.6904 12.83ZM74.7554 16.4C74.7554 16.94 74.5954 17.42 74.2754 17.84C73.9654 18.27 73.4904 18.605 72.8504 18.845C72.2204 19.095 71.4504 19.22 70.5404 19.22C69.6204 19.22 68.8404 19.095 68.2004 18.845C67.5704 18.605 67.0954 18.27 66.7754 17.84C66.4654 17.42 66.3104 16.94 66.3104 16.4C66.3104 15.86 66.4654 15.38 66.7754 14.96C67.0954 14.53 67.5704 14.195 68.2004 13.955C68.8404 13.705 69.6204 13.58 70.5404 13.58C71.4504 13.58 72.2204 13.705 72.8504 13.955C73.4904 14.195 73.9654 14.53 74.2754 14.96C74.5954 15.38 74.7554 15.86 74.7554 16.4ZM73.5554 16.28C73.5554 15.77 73.3054 15.345 72.8054 15.005C72.3054 14.655 71.5504 14.48 70.5404 14.48C69.5204 14.48 68.7554 14.655 68.2454 15.005C67.7454 15.345 67.4954 15.77 67.4954 16.28V16.535C67.4954 17.035 67.7454 17.455 68.2454 17.795C68.7554 18.145 69.5204 18.32 70.5404 18.32C71.5504 18.32 72.3054 18.145 72.8054 17.795C73.3054 17.455 73.5554 17.035 73.5554 16.535V16.28ZM89.1044 5.465V15.35H87.9494V5.465H89.1044ZM78.3044 9.515C78.3044 8.815 78.4494 8.205 78.7394 7.685C79.0394 7.165 79.4494 6.77 79.9694 6.5C80.4894 6.22 81.0844 6.08 81.7544 6.08C82.4144 6.08 83.0044 6.22 83.5244 6.5C84.0544 6.77 84.4644 7.165 84.7544 7.685C85.0544 8.205 85.2044 8.815 85.2044 9.515C85.2044 10.205 85.0544 10.81 84.7544 11.33C84.4644 11.85 84.0544 12.25 83.5244 12.53C83.0044 12.8 82.4144 12.935 81.7544 12.935C81.0844 12.935 80.4894 12.8 79.9694 12.53C79.4494 12.25 79.0394 11.855 78.7394 11.345C78.4494 10.825 78.3044 10.215 78.3044 9.515ZM83.9894 9.83V9.2C83.9894 8.54 83.7794 8.015 83.3594 7.625C82.9494 7.225 82.4144 7.025 81.7544 7.025C81.0844 7.025 80.5394 7.225 80.1194 7.625C79.7094 8.025 79.5044 8.55 79.5044 9.2V9.83C79.5044 10.48 79.7144 11.005 80.1344 11.405C80.5544 11.795 81.0944 11.99 81.7544 11.99C82.4144 11.99 82.9494 11.795 83.3594 11.405C83.7794 11.005 83.9894 10.48 83.9894 9.83ZM80.7644 18.005V14.27H81.9194V17.825H89.3744V18.77H81.5144C81.2744 18.77 81.0894 18.705 80.9594 18.575C80.8294 18.445 80.7644 18.255 80.7644 18.005ZM108.648 5.465V18.485H107.523V11.6H104.613V10.64H107.523V5.465H108.648ZM98.3577 6.53H104.133V8.615C104.133 9.725 103.968 10.665 103.638 11.435C103.308 12.205 102.753 12.925 101.973 13.595C101.203 14.255 100.098 14.98 98.6577 15.77L97.9827 14.915C99.3227 14.195 100.348 13.54 101.058 12.95C101.768 12.36 102.263 11.735 102.543 11.075C102.833 10.405 102.978 9.59 102.978 8.63V7.505H98.3577V6.53ZM122.322 10.955H113.712V5.69H114.837V7.4H121.212V5.69H122.322V10.955ZM121.212 8.33H114.837V10.04H121.212V8.33ZM118.587 13.205V14.645H122.322V19.085H121.182V15.575H113.592V14.645H117.447V13.205H111.897V12.23H124.137V13.205H118.587ZM136.371 5.465H137.496V18.485H136.371V5.465ZM127.011 9.365C127.011 8.745 127.166 8.2 127.476 7.73C127.786 7.25 128.211 6.885 128.751 6.635C129.291 6.375 129.901 6.245 130.581 6.245C131.261 6.245 131.871 6.375 132.411 6.635C132.951 6.885 133.376 7.25 133.686 7.73C133.996 8.2 134.151 8.745 134.151 9.365C134.151 9.985 133.996 10.53 133.686 11C133.376 11.47 132.951 11.835 132.411 12.095C131.871 12.345 131.261 12.47 130.581 12.47C129.901 12.47 129.291 12.345 128.751 12.095C128.211 11.835 127.786 11.47 127.476 11C127.166 10.53 127.011 9.985 127.011 9.365ZM132.951 9.545V9.185C132.951 8.585 132.731 8.1 132.291 7.73C131.851 7.36 131.281 7.175 130.581 7.175C129.881 7.175 129.311 7.36 128.871 7.73C128.431 8.1 128.211 8.585 128.211 9.185V9.545C128.211 10.145 128.431 10.63 128.871 11C129.311 11.37 129.881 11.555 130.581 11.555C131.281 11.555 131.851 11.37 132.291 11C132.731 10.63 132.951 10.145 132.951 9.545ZM126.381 14.78C128.081 14.78 129.721 14.74 131.301 14.66C132.881 14.58 134.221 14.455 135.321 14.285L135.441 15.2C134.311 15.38 132.951 15.52 131.361 15.62C129.781 15.71 128.156 15.755 126.486 15.755L126.381 14.78ZM151.489 6.95H147.334V5.99H156.754V6.95H152.644C152.634 7.36 152.574 7.73 152.464 8.06C152.364 8.39 152.194 8.705 151.954 9.005L152.014 9.035L152.314 8.81C152.454 8.71 152.594 8.66 152.734 8.66C152.864 8.66 152.974 8.685 153.064 8.735L157.309 10.955L156.679 11.81L152.269 9.44C152.139 9.37 152.009 9.335 151.879 9.335C151.779 9.335 151.689 9.355 151.609 9.395C151.219 9.775 150.689 10.16 150.019 10.55C149.349 10.94 148.474 11.375 147.394 11.855L146.779 11C147.979 10.49 148.914 10.025 149.584 9.605C150.254 9.185 150.729 8.77 151.009 8.36C151.299 7.95 151.459 7.48 151.489 6.95ZM158.164 14.135H152.614V19.01H151.474V14.135H145.924V13.175H158.164V14.135ZM175.982 11.405H167.312V5.885H175.982V11.405ZM174.842 6.845H168.452V10.445H174.842V6.845ZM177.767 14.18H172.217V19.01H171.077V14.18H165.527V13.205H177.767V14.18ZM191.516 5.465V18.485H190.406V11.495H188.351V18.125H187.256V5.69H188.351V10.55H190.406V5.465H191.516ZM186.116 13.7L186.266 14.6C185.056 14.91 183.561 15.065 181.781 15.065H180.551V6.8H185.396V7.76H181.646V14.12H182.051C183.691 14.12 185.046 13.98 186.116 13.7ZM205.61 5.465V15.35H204.455V5.465H205.61ZM194.81 9.515C194.81 8.815 194.955 8.205 195.245 7.685C195.545 7.165 195.955 6.77 196.475 6.5C196.995 6.22 197.59 6.08 198.26 6.08C198.92 6.08 199.51 6.22 200.03 6.5C200.56 6.77 200.97 7.165 201.26 7.685C201.56 8.205 201.71 8.815 201.71 9.515C201.71 10.205 201.56 10.81 201.26 11.33C200.97 11.85 200.56 12.25 200.03 12.53C199.51 12.8 198.92 12.935 198.26 12.935C197.59 12.935 196.995 12.8 196.475 12.53C195.955 12.25 195.545 11.855 195.245 11.345C194.955 10.825 194.81 10.215 194.81 9.515ZM200.495 9.83V9.2C200.495 8.54 200.285 8.015 199.865 7.625C199.455 7.225 198.92 7.025 198.26 7.025C197.59 7.025 197.045 7.225 196.625 7.625C196.215 8.025 196.01 8.55 196.01 9.2V9.83C196.01 10.48 196.22 11.005 196.64 11.405C197.06 11.795 197.6 11.99 198.26 11.99C198.92 11.99 199.455 11.795 199.865 11.405C200.285 11.005 200.495 10.48 200.495 9.83ZM197.27 18.005V14.27H198.425V17.825H205.88V18.77H198.02C197.78 18.77 197.595 18.705 197.465 18.575C197.335 18.445 197.27 18.255 197.27 18.005ZM226.609 11.555H224.449V18.515H223.309V5.495H224.449V10.595H226.609V11.555ZM219.454 6.38H220.549V14.975H214.429V6.395H215.539V9.68H219.454V6.38ZM219.454 10.64H215.539V14.015H219.454V10.64ZM241.033 11.555H238.873V18.515H237.733V5.495H238.873V10.595H241.033V11.555ZM236.158 13.685L236.308 14.6C234.778 14.91 232.868 15.065 230.578 15.065H228.988V6.53H234.973V7.49H230.128V14.12H230.563C232.763 14.12 234.628 13.975 236.158 13.685ZM258.101 11.03H255.431V10.115H258.101V8.24H255.431V7.325H258.101V5.465H259.241V13.22H258.101V11.03ZM251.756 12.44C251.106 12.44 250.521 12.31 250.001 12.05C249.491 11.78 249.091 11.4 248.801 10.91C248.511 10.42 248.366 9.845 248.366 9.185C248.366 8.525 248.511 7.95 248.801 7.46C249.091 6.97 249.491 6.595 250.001 6.335C250.511 6.065 251.096 5.93 251.756 5.93C252.416 5.93 253.001 6.065 253.511 6.335C254.021 6.595 254.421 6.97 254.711 7.46C255.001 7.95 255.146 8.525 255.146 9.185C255.146 9.845 255.001 10.42 254.711 10.91C254.421 11.4 254.016 11.78 253.496 12.05C252.986 12.31 252.406 12.44 251.756 12.44ZM251.756 11.525C252.416 11.525 252.946 11.34 253.346 10.97C253.756 10.59 253.961 10.085 253.961 9.455V8.915C253.961 8.285 253.756 7.785 253.346 7.415C252.946 7.035 252.416 6.845 251.756 6.845C251.096 6.845 250.561 7.035 250.151 7.415C249.751 7.785 249.551 8.285 249.551 8.915V9.455C249.551 10.085 249.751 10.59 250.151 10.97C250.561 11.34 251.096 11.525 251.756 11.525ZM259.316 16.34C259.316 16.89 259.156 17.38 258.836 17.81C258.526 18.25 258.056 18.595 257.426 18.845C256.796 19.095 256.026 19.22 255.116 19.22C254.206 19.22 253.431 19.095 252.791 18.845C252.161 18.595 251.686 18.25 251.366 17.81C251.056 17.38 250.901 16.89 250.901 16.34C250.901 15.79 251.056 15.3 251.366 14.87C251.686 14.43 252.161 14.085 252.791 13.835C253.431 13.585 254.206 13.46 255.116 13.46C256.026 13.46 256.796 13.585 257.426 13.835C258.056 14.085 258.526 14.43 258.836 14.87C259.156 15.3 259.316 15.79 259.316 16.34ZM258.101 16.22C258.101 15.7 257.851 15.265 257.351 14.915C256.861 14.565 256.116 14.39 255.116 14.39C254.116 14.39 253.366 14.57 252.866 14.93C252.366 15.28 252.116 15.71 252.116 16.22V16.475C252.116 16.985 252.366 17.415 252.866 17.765C253.366 18.125 254.116 18.305 255.116 18.305C256.116 18.305 256.861 18.125 257.351 17.765C257.851 17.415 258.101 16.985 258.101 16.475V16.22ZM275.075 8.825V9.785H272.99V13.22H271.85V5.465H272.99V8.825H275.075ZM266.165 9.725C266.095 9.725 266.03 9.76 265.97 9.83C265.71 10.26 265.365 10.705 264.935 11.165C264.515 11.615 263.945 12.175 263.225 12.845L262.385 12.11C263.235 11.35 263.89 10.7 264.35 10.16C264.81 9.62 265.14 9.085 265.34 8.555C265.54 8.025 265.64 7.425 265.64 6.755V5.945H266.78V6.815C266.78 7.725 266.605 8.555 266.255 9.305L266.33 9.365L266.57 9.155C266.68 9.065 266.79 9.02 266.9 9.02C267.01 9.02 267.11 9.065 267.2 9.155L270.05 11.795L269.24 12.575L266.36 9.815C266.3 9.755 266.235 9.725 266.165 9.725ZM273.095 16.34C273.095 16.89 272.94 17.38 272.63 17.81C272.32 18.25 271.855 18.595 271.235 18.845C270.615 19.095 269.855 19.22 268.955 19.22C268.065 19.22 267.305 19.095 266.675 18.845C266.055 18.595 265.585 18.25 265.265 17.81C264.955 17.38 264.8 16.89 264.8 16.34C264.8 15.79 264.955 15.3 265.265 14.87C265.585 14.43 266.055 14.085 266.675 13.835C267.305 13.585 268.065 13.46 268.955 13.46C269.855 13.46 270.615 13.585 271.235 13.835C271.855 14.085 272.32 14.43 272.63 14.87C272.94 15.3 273.095 15.79 273.095 16.34ZM271.895 16.22C271.895 15.7 271.65 15.265 271.16 14.915C270.68 14.565 269.945 14.39 268.955 14.39C267.975 14.39 267.24 14.57 266.75 14.93C266.26 15.28 266.015 15.71 266.015 16.22V16.475C266.015 16.985 266.26 17.415 266.75 17.765C267.24 18.125 267.975 18.305 268.955 18.305C269.945 18.305 270.68 18.125 271.16 17.765C271.65 17.415 271.895 16.985 271.895 16.475V16.22ZM278.474 7.865C278.474 7.135 278.849 6.555 279.599 6.125C280.349 5.685 281.474 5.465 282.974 5.465C284.474 5.465 285.599 5.685 286.349 6.125C287.099 6.555 287.474 7.135 287.474 7.865C287.474 8.595 287.099 9.18 286.349 9.62C285.599 10.06 284.474 10.28 282.974 10.28C281.474 10.28 280.349 10.06 279.599 9.62C278.849 9.18 278.474 8.595 278.474 7.865ZM286.259 7.94V7.775C286.259 7.345 285.984 6.995 285.434 6.725C284.894 6.445 284.074 6.305 282.974 6.305C281.874 6.305 281.049 6.445 280.499 6.725C279.959 6.995 279.689 7.345 279.689 7.775V7.94C279.689 8.37 279.959 8.725 280.499 9.005C281.049 9.275 281.874 9.41 282.974 9.41C284.074 9.41 284.894 9.275 285.434 9.005C285.984 8.725 286.259 8.37 286.259 7.94ZM289.094 11.315V12.275H276.854V11.315H289.094ZM278.759 18.335V15.875H286.154V14.465H278.669V13.535H287.249V16.745H279.854V18.17H287.639V19.1H279.509C279.269 19.1 279.084 19.035 278.954 18.905C278.824 18.775 278.759 18.585 278.759 18.335ZM308.022 5.465V18.485H306.912V5.465H308.022ZM303.987 5.69H305.082V18.125H303.987V11.12H302.187V14.825H296.922V6.77H302.187V10.175H303.987V5.69ZM301.107 7.7H298.017V13.895H301.107V7.7ZM322.116 5.465V15.35H320.961V5.465H322.116ZM311.316 9.515C311.316 8.815 311.461 8.205 311.751 7.685C312.051 7.165 312.461 6.77 312.981 6.5C313.501 6.22 314.096 6.08 314.766 6.08C315.426 6.08 316.016 6.22 316.536 6.5C317.066 6.77 317.476 7.165 317.766 7.685C318.066 8.205 318.216 8.815 318.216 9.515C318.216 10.205 318.066 10.81 317.766 11.33C317.476 11.85 317.066 12.25 316.536 12.53C316.016 12.8 315.426 12.935 314.766 12.935C314.096 12.935 313.501 12.8 312.981 12.53C312.461 12.25 312.051 11.855 311.751 11.345C311.461 10.825 311.316 10.215 311.316 9.515ZM317.001 9.83V9.2C317.001 8.54 316.791 8.015 316.371 7.625C315.961 7.225 315.426 7.025 314.766 7.025C314.096 7.025 313.551 7.225 313.131 7.625C312.721 8.025 312.516 8.55 312.516 9.2V9.83C312.516 10.48 312.726 11.005 313.146 11.405C313.566 11.795 314.106 11.99 314.766 11.99C315.426 11.99 315.961 11.795 316.371 11.405C316.791 11.005 317.001 10.48 317.001 9.83ZM313.776 18.005V14.27H314.931V17.825H322.386V18.77H314.526C314.286 18.77 314.101 18.705 313.971 18.575C313.841 18.445 313.776 18.255 313.776 18.005ZM326.7 9.545C326.7 8.875 326.87 8.275 327.21 7.745C327.56 7.205 328.09 6.775 328.8 6.455C329.51 6.135 330.385 5.975 331.425 5.975C332.465 5.975 333.34 6.135 334.05 6.455C334.76 6.775 335.285 7.205 335.625 7.745C335.975 8.275 336.15 8.875 336.15 9.545C336.15 10.215 335.975 10.82 335.625 11.36C335.285 11.9 334.76 12.33 334.05 12.65C333.34 12.97 332.465 13.13 331.425 13.13C330.385 13.13 329.51 12.97 328.8 12.65C328.09 12.33 327.56 11.9 327.21 11.36C326.87 10.82 326.7 10.215 326.7 9.545ZM334.92 9.725V9.38C334.92 8.92 334.795 8.505 334.545 8.135C334.305 7.755 333.92 7.455 333.39 7.235C332.87 7.005 332.215 6.89 331.425 6.89C330.635 6.89 329.975 7.005 329.445 7.235C328.925 7.455 328.54 7.755 328.29 8.135C328.05 8.505 327.93 8.92 327.93 9.38V9.725C327.93 10.435 328.22 11.025 328.8 11.495C329.38 11.965 330.255 12.2 331.425 12.2C332.595 12.2 333.47 11.965 334.05 11.495C334.63 11.025 334.92 10.435 334.92 9.725ZM325.305 16.025H337.545V17H325.305V16.025ZM351.969 16.04V17H339.729V16.04H345.279V13.475H341.529V9.41H349.029V7.205H341.454V6.26H350.169V10.325H342.669V12.53H350.559V13.475H346.419V16.04H351.969ZM371.963 11.555H369.803V18.515H368.663V5.495H369.803V10.595H371.963V11.555ZM363.758 10.715C363.888 10.715 363.998 10.77 364.088 10.88L367.013 14.63L366.143 15.395L363.203 11.54C363.173 11.48 363.123 11.45 363.053 11.45C363.003 11.45 362.953 11.48 362.903 11.54C362.643 12.12 362.293 12.72 361.853 13.34C361.413 13.95 360.818 14.7 360.068 15.59L359.198 14.855C360.068 13.865 360.733 13.02 361.193 12.32C361.663 11.61 361.998 10.9 362.198 10.19C362.408 9.48 362.513 8.665 362.513 7.745V6.335H363.668V7.73C363.668 8.92 363.493 10 363.143 10.97L363.218 11.015L363.443 10.835C363.553 10.755 363.658 10.715 363.758 10.715ZM385.997 12.05V13.01H373.757V12.05H377.012V10.28C376.462 10.05 376.047 9.75 375.767 9.38C375.497 9.01 375.362 8.59 375.362 8.12C375.362 7.34 375.742 6.71 376.502 6.23C377.262 5.74 378.387 5.495 379.877 5.495C381.367 5.495 382.492 5.74 383.252 6.23C384.012 6.71 384.392 7.34 384.392 8.12C384.392 8.59 384.252 9.01 383.972 9.38C383.702 9.75 383.292 10.05 382.742 10.28V12.05H385.997ZM379.877 9.86C380.987 9.86 381.817 9.705 382.367 9.395C382.917 9.085 383.192 8.69 383.192 8.21V8C383.192 7.53 382.912 7.14 382.352 6.83C381.802 6.52 380.977 6.365 379.877 6.365C378.777 6.365 377.952 6.52 377.402 6.83C376.852 7.14 376.577 7.53 376.577 8V8.21C376.577 8.69 376.847 9.085 377.387 9.395C377.937 9.705 378.767 9.86 379.877 9.86ZM378.107 12.05H381.647V10.595C381.157 10.695 380.567 10.745 379.877 10.745C379.187 10.745 378.597 10.695 378.107 10.595V12.05ZM384.317 16.685C384.317 17.195 384.147 17.645 383.807 18.035C383.477 18.425 382.977 18.73 382.307 18.95C381.647 19.18 380.837 19.295 379.877 19.295C378.917 19.295 378.102 19.18 377.432 18.95C376.772 18.73 376.272 18.425 375.932 18.035C375.602 17.645 375.437 17.195 375.437 16.685C375.437 16.185 375.602 15.745 375.932 15.365C376.272 14.975 376.772 14.67 377.432 14.45C378.102 14.23 378.917 14.12 379.877 14.12C380.837 14.12 381.647 14.23 382.307 14.45C382.977 14.67 383.477 14.975 383.807 15.365C384.147 15.745 384.317 16.185 384.317 16.685ZM383.117 16.595C383.117 16.155 382.847 15.785 382.307 15.485C381.777 15.175 380.967 15.02 379.877 15.02C379.147 15.02 378.537 15.095 378.047 15.245C377.557 15.385 377.197 15.575 376.967 15.815C376.737 16.055 376.622 16.315 376.622 16.595V16.805C376.622 17.085 376.737 17.345 376.967 17.585C377.197 17.825 377.557 18.015 378.047 18.155C378.537 18.305 379.147 18.38 379.877 18.38C380.967 18.38 381.777 18.225 382.307 17.915C382.847 17.615 383.117 17.245 383.117 16.805V16.595ZM400.811 11.795H398.696V18.515H397.556V5.495H398.696V10.835H400.811V11.795ZM394.361 7.175H390.101V6.2H394.361V7.175ZM388.106 8.975H396.131V9.905H393.911V9.995C394.821 10.445 395.276 11.31 395.276 12.59C395.276 13.24 395.141 13.805 394.871 14.285C394.601 14.755 394.226 15.115 393.746 15.365C393.276 15.615 392.751 15.74 392.171 15.74C391.591 15.74 391.061 15.615 390.581 15.365C390.111 15.115 389.741 14.755 389.471 14.285C389.201 13.805 389.066 13.24 389.066 12.59C389.066 11.31 389.521 10.445 390.431 9.995V9.905H388.106V8.975ZM394.166 12.095C394.166 11.425 393.986 10.915 393.626 10.565C393.266 10.205 392.781 10.025 392.171 10.025C391.571 10.025 391.086 10.205 390.716 10.565C390.356 10.925 390.176 11.435 390.176 12.095V12.71C390.176 13.36 390.361 13.87 390.731 14.24C391.101 14.6 391.581 14.78 392.171 14.78C392.761 14.78 393.241 14.6 393.611 14.24C393.981 13.87 394.166 13.36 394.166 12.71V12.095ZM412.7 11.03H410.03V10.115H412.7V8.24H410.03V7.325H412.7V5.465H413.84V12.98H412.7V11.03ZM402.965 9.185C402.965 8.525 403.11 7.95 403.4 7.46C403.69 6.97 404.09 6.595 404.6 6.335C405.11 6.065 405.695 5.93 406.355 5.93C407.015 5.93 407.6 6.065 408.11 6.335C408.62 6.595 409.02 6.97 409.31 7.46C409.6 7.95 409.745 8.525 409.745 9.185C409.745 9.845 409.6 10.42 409.31 10.91C409.02 11.4 408.615 11.78 408.095 12.05C407.585 12.31 407.005 12.44 406.355 12.44C405.705 12.44 405.12 12.31 404.6 12.05C404.09 11.78 403.69 11.4 403.4 10.91C403.11 10.42 402.965 9.845 402.965 9.185ZM404.15 9.455C404.15 10.085 404.35 10.59 404.75 10.97C405.16 11.34 405.695 11.525 406.355 11.525C407.015 11.525 407.545 11.34 407.945 10.97C408.355 10.59 408.56 10.085 408.56 9.455V8.915C408.56 8.285 408.355 7.785 407.945 7.415C407.545 7.035 407.015 6.845 406.355 6.845C405.695 6.845 405.16 7.035 404.75 7.415C404.35 7.785 404.15 8.285 404.15 8.915V9.455ZM415.07 18.275L414.335 19.055L412.115 16.88C412.055 16.81 411.985 16.775 411.905 16.775C411.865 16.775 411.82 16.79 411.77 16.82C411.54 17.16 411.245 17.51 410.885 17.87C410.525 18.24 410.045 18.685 409.445 19.205L407.165 16.835C407.095 16.765 407.025 16.73 406.955 16.73C406.915 16.73 406.86 16.755 406.79 16.805C406.35 17.465 405.6 18.25 404.54 19.16L403.82 18.395C404.49 17.835 405.015 17.335 405.395 16.895C405.775 16.455 406.045 16.02 406.205 15.59C406.375 15.16 406.46 14.675 406.46 14.135V13.655H407.54V14.165C407.54 14.985 407.385 15.7 407.075 16.31L407.135 16.34L407.33 16.19C407.41 16.12 407.505 16.085 407.615 16.085C407.735 16.085 407.84 16.13 407.93 16.22L409.52 17.81C410.24 17.16 410.735 16.575 411.005 16.055C411.275 15.535 411.41 14.9 411.41 14.15V13.655H412.49V14.21C412.49 14.65 412.455 15.04 412.385 15.38C412.315 15.72 412.2 16.045 412.04 16.355L412.1 16.4L412.295 16.235C412.405 16.155 412.51 16.115 412.61 16.115C412.71 16.115 412.81 16.155 412.91 16.235L415.07 18.275ZM418.424 9.545C418.424 8.875 418.594 8.275 418.934 7.745C419.284 7.205 419.814 6.775 420.524 6.455C421.234 6.135 422.109 5.975 423.149 5.975C424.189 5.975 425.064 6.135 425.774 6.455C426.484 6.775 427.009 7.205 427.349 7.745C427.699 8.275 427.874 8.875 427.874 9.545C427.874 10.215 427.699 10.82 427.349 11.36C427.009 11.9 426.484 12.33 425.774 12.65C425.064 12.97 424.189 13.13 423.149 13.13C422.109 13.13 421.234 12.97 420.524 12.65C419.814 12.33 419.284 11.9 418.934 11.36C418.594 10.82 418.424 10.215 418.424 9.545ZM426.644 9.725V9.38C426.644 8.92 426.519 8.505 426.269 8.135C426.029 7.755 425.644 7.455 425.114 7.235C424.594 7.005 423.939 6.89 423.149 6.89C422.359 6.89 421.699 7.005 421.169 7.235C420.649 7.455 420.264 7.755 420.014 8.135C419.774 8.505 419.654 8.92 419.654 9.38V9.725C419.654 10.435 419.944 11.025 420.524 11.495C421.104 11.965 421.979 12.2 423.149 12.2C424.319 12.2 425.194 11.965 425.774 11.495C426.354 11.025 426.644 10.435 426.644 9.725ZM417.029 16.025H429.269V17H417.029V16.025ZM442.643 5.465V18.485H441.518V12.935H438.248V14.855H432.143V6.5H438.248V8.345H441.518V5.465H442.643ZM437.153 7.43H433.238V13.925H437.153V7.43ZM441.518 11.99V9.275H438.248V11.99H441.518ZM447.347 15.245C447.667 15.245 447.897 15.33 448.037 15.5C448.187 15.66 448.262 15.87 448.262 16.13V16.34C448.262 16.75 448.142 17.2 447.902 17.69C447.662 18.19 447.327 18.625 446.897 18.995H445.892C446.192 18.675 446.432 18.37 446.612 18.08C446.802 17.8 446.937 17.485 447.017 17.135C446.817 17.085 446.667 16.99 446.567 16.85C446.477 16.71 446.432 16.54 446.432 16.34V16.13C446.432 15.87 446.502 15.66 446.642 15.5C446.792 15.33 447.027 15.245 447.347 15.245ZM467.428 5.465V15.35H466.273V5.465H467.428ZM458.068 6.245V8.585H462.028V6.215H463.138V12.875H456.958V6.245H458.068ZM462.028 9.515H458.068V11.945H462.028V9.515ZM459.088 18.005V14.45H460.243V17.825H467.698V18.77H459.838C459.598 18.77 459.413 18.705 459.283 18.575C459.153 18.445 459.088 18.255 459.088 18.005ZM483.262 9.41V10.37H481.177V15.35H480.037V5.465H481.177V9.41H483.262ZM471.547 13.955L470.932 13.13C472.352 12.56 473.442 12.02 474.202 11.51C474.972 11 475.507 10.45 475.807 9.86L471.037 10.22L470.902 9.26L476.092 8.99C476.132 8.79 476.152 8.56 476.152 8.3V7.28H471.442V6.35H477.232V8.225C477.232 9.095 477.047 9.85 476.677 10.49C476.317 11.12 475.727 11.71 474.907 12.26C474.097 12.8 472.977 13.365 471.547 13.955ZM474.142 17.825H481.477V18.77H473.752C473.512 18.77 473.327 18.705 473.197 18.575C473.067 18.445 473.002 18.255 473.002 18.005V14.45H474.142V17.825ZM496.606 5.465V18.485H495.511V5.465H496.606ZM492.556 5.69H493.621V18.125H492.556V11.3H491.116C491.066 12.6 490.776 13.58 490.246 14.24C489.716 14.89 489.016 15.215 488.146 15.215C487.216 15.215 486.481 14.855 485.941 14.135C485.401 13.405 485.131 12.32 485.131 10.88C485.131 9.44 485.401 8.36 485.941 7.64C486.481 6.91 487.216 6.545 488.146 6.545C489.006 6.545 489.696 6.865 490.216 7.505C490.746 8.145 491.046 9.095 491.116 10.355H492.556V5.69ZM489.976 10.16C489.976 9.28 489.806 8.61 489.466 8.15C489.136 7.69 488.696 7.46 488.146 7.46C487.586 7.46 487.136 7.69 486.796 8.15C486.466 8.61 486.301 9.28 486.301 10.16V11.615C486.301 12.485 486.466 13.155 486.796 13.625C487.136 14.085 487.586 14.315 488.146 14.315C488.696 14.315 489.136 14.085 489.466 13.625C489.806 13.155 489.976 12.485 489.976 11.615V10.16ZM514.739 11.45H511.799V10.52H514.739V8.48H511.799V7.55H514.739V5.465H515.879V15.35H514.739V11.45ZM511.349 12.875H505.304V6.245H506.399V8.585H510.239V6.215H511.349V12.875ZM510.239 9.515H506.399V11.945H510.239V9.515ZM516.149 17.825V18.77H508.289C508.049 18.77 507.864 18.705 507.734 18.575C507.604 18.445 507.539 18.255 507.539 18.005V14.45H508.694V17.825H516.149ZM531.698 11.93H529.658V18.485H528.533V5.465H529.658V10.97H531.698V11.93ZM525.158 6.995H521.153V6.065H525.158V6.995ZM527.468 14.96L527.573 15.875C526.473 16.055 525.158 16.195 523.628 16.295C522.108 16.385 520.538 16.43 518.918 16.43L518.813 15.47C519.933 15.47 521.168 15.445 522.518 15.395V13.61C521.728 13.53 521.103 13.29 520.643 12.89C520.183 12.48 519.953 11.98 519.953 11.39C519.953 10.96 520.058 10.59 520.268 10.28C520.488 9.96 520.818 9.71 521.258 9.53V9.44H519.023V8.54H527.093V9.44H524.933V9.53C525.363 9.71 525.688 9.96 525.908 10.28C526.128 10.6 526.238 10.97 526.238 11.39C526.238 11.99 526.003 12.495 525.533 12.905C525.063 13.305 524.423 13.54 523.613 13.61V15.335C525.173 15.255 526.458 15.13 527.468 14.96ZM522.938 12.71H523.253C523.823 12.71 524.288 12.575 524.648 12.305C525.008 12.025 525.188 11.635 525.188 11.135C525.188 10.635 525.008 10.25 524.648 9.98C524.288 9.7 523.823 9.56 523.253 9.56H522.938C522.368 9.56 521.903 9.7 521.543 9.98C521.183 10.25 521.003 10.635 521.003 11.135C521.003 11.635 521.183 12.025 521.543 12.305C521.903 12.575 522.368 12.71 522.938 12.71ZM546.122 11.795H544.007V18.515H542.867V5.495H544.007V10.835H546.122V11.795ZM539.672 7.175H535.412V6.2H539.672V7.175ZM533.417 8.975H541.442V9.905H539.222V9.995C540.132 10.445 540.587 11.31 540.587 12.59C540.587 13.24 540.452 13.805 540.182 14.285C539.912 14.755 539.537 15.115 539.057 15.365C538.587 15.615 538.062 15.74 537.482 15.74C536.902 15.74 536.372 15.615 535.892 15.365C535.422 15.115 535.052 14.755 534.782 14.285C534.512 13.805 534.377 13.24 534.377 12.59C534.377 11.31 534.832 10.445 535.742 9.995V9.905H533.417V8.975ZM539.477 12.095C539.477 11.425 539.297 10.915 538.937 10.565C538.577 10.205 538.092 10.025 537.482 10.025C536.882 10.025 536.397 10.205 536.027 10.565C535.667 10.925 535.487 11.435 535.487 12.095V12.71C535.487 13.36 535.672 13.87 536.042 14.24C536.412 14.6 536.892 14.78 537.482 14.78C538.072 14.78 538.552 14.6 538.922 14.24C539.292 13.87 539.477 13.36 539.477 12.71V12.095ZM558.416 10.655H549.791V5.945H550.916V9.71H558.416V10.655ZM560.156 12.32V13.295H547.916V12.32H560.156ZM550.811 17.795H558.581V18.755H550.421C550.181 18.755 549.996 18.69 549.866 18.56C549.736 18.43 549.671 18.24 549.671 17.99V14.705H550.811V17.795ZM579.76 10.595V11.585H567.52V10.595H576.28C576.6 9.395 576.765 8.145 576.775 6.845V6.83H569.215V5.87H577.885V6.68C577.885 7.9 577.73 9.205 577.42 10.595H579.76ZM570.55 18.08H578.305V19.07H570.175C569.935 19.07 569.75 19.005 569.62 18.875C569.49 18.745 569.425 18.555 569.425 18.305V15.635H576.79V14.12H569.335V13.16H577.915V16.55H570.55V18.08ZM594.574 11.555H592.414V18.515H591.274V5.495H592.414V10.595H594.574V11.555ZM586.444 10.97C586.564 10.97 586.679 11.025 586.789 11.135L589.714 14.6L588.859 15.335L585.919 11.75C585.859 11.69 585.794 11.66 585.724 11.66C585.654 11.66 585.604 11.69 585.574 11.75C585.304 12.29 584.949 12.845 584.509 13.415C584.079 13.975 583.489 14.68 582.739 15.53L581.899 14.825C582.769 13.905 583.434 13.11 583.894 12.44C584.364 11.77 584.704 11.105 584.914 10.445C585.124 9.775 585.229 9.015 585.229 8.165V7.595H582.289V6.635H589.279V7.595H586.354V8.195C586.354 9.315 586.174 10.32 585.814 11.21L585.889 11.27L586.129 11.09C586.229 11.01 586.334 10.97 586.444 10.97ZM605.533 7.805V6.515H598.213V5.675H606.628V8.63H599.398V9.905H607.003V10.76H598.288V7.805H605.533ZM608.608 11.885V12.77H596.368V11.885H608.608ZM598.243 18.38V16.115H605.713V14.855H598.153V13.97H606.778V16.955H599.308V18.245H607.168V19.145H598.993C598.753 19.145 598.568 19.08 598.438 18.95C598.308 18.82 598.243 18.63 598.243 18.38ZM626.876 7.235H617.291V6.275H626.876V7.235ZM628.211 16.04V17H615.971V16.04H621.521V12.89H617.171V11.945H619.556L619.046 8.495L620.201 8.375L620.606 11.945H623.561L623.966 8.375L625.136 8.495L624.626 11.945H627.011V12.89H622.661V16.04H628.211ZM641.63 5.465V15.35H640.475V5.465H641.63ZM630.83 9.515C630.83 8.815 630.975 8.205 631.265 7.685C631.565 7.165 631.975 6.77 632.495 6.5C633.015 6.22 633.61 6.08 634.28 6.08C634.94 6.08 635.53 6.22 636.05 6.5C636.58 6.77 636.99 7.165 637.28 7.685C637.58 8.205 637.73 8.815 637.73 9.515C637.73 10.205 637.58 10.81 637.28 11.33C636.99 11.85 636.58 12.25 636.05 12.53C635.53 12.8 634.94 12.935 634.28 12.935C633.61 12.935 633.015 12.8 632.495 12.53C631.975 12.25 631.565 11.855 631.265 11.345C630.975 10.825 630.83 10.215 630.83 9.515ZM636.515 9.83V9.2C636.515 8.54 636.305 8.015 635.885 7.625C635.475 7.225 634.94 7.025 634.28 7.025C633.61 7.025 633.065 7.225 632.645 7.625C632.235 8.025 632.03 8.55 632.03 9.2V9.83C632.03 10.48 632.24 11.005 632.66 11.405C633.08 11.795 633.62 11.99 634.28 11.99C634.94 11.99 635.475 11.795 635.885 11.405C636.305 11.005 636.515 10.48 636.515 9.83ZM633.29 18.005V14.27H634.445V17.825H641.9V18.77H634.04C633.8 18.77 633.615 18.705 633.485 18.575C633.355 18.445 633.29 18.255 633.29 18.005ZM646.574 6.275H655.364V7.235H647.714V9.44H655.154V10.355H647.729V12.56H655.619V13.52H646.574V6.275ZM644.819 16.025H657.059V17H644.819V16.025ZM671.483 16.04V17H659.243V16.04H664.793V13.475H661.043V9.41H668.543V7.205H660.968V6.26H669.683V10.325H662.183V12.53H670.073V13.475H665.933V16.04H671.483ZM691.477 11.795H689.362V18.515H688.222V5.495H689.362V10.835H691.477V11.795ZM685.027 7.175H680.767V6.2H685.027V7.175ZM678.772 8.975H686.797V9.905H684.577V9.995C685.487 10.445 685.942 11.31 685.942 12.59C685.942 13.24 685.807 13.805 685.537 14.285C685.267 14.755 684.892 15.115 684.412 15.365C683.942 15.615 683.417 15.74 682.837 15.74C682.257 15.74 681.727 15.615 681.247 15.365C680.777 15.115 680.407 14.755 680.137 14.285C679.867 13.805 679.732 13.24 679.732 12.59C679.732 11.31 680.187 10.445 681.097 9.995V9.905H678.772V8.975ZM684.832 12.095C684.832 11.425 684.652 10.915 684.292 10.565C683.932 10.205 683.447 10.025 682.837 10.025C682.237 10.025 681.752 10.205 681.382 10.565C681.022 10.925 680.842 11.435 680.842 12.095V12.71C680.842 13.36 681.027 13.87 681.397 14.24C681.767 14.6 682.247 14.78 682.837 14.78C683.427 14.78 683.907 14.6 684.277 14.24C684.647 13.87 684.832 13.36 684.832 12.71V12.095ZM704.461 5.465V18.485H703.336V13.01H700.786V12.08H703.336V9.26H700.786V8.33H703.336V5.465H704.461ZM700.471 10.73C700.471 12.19 700.156 13.295 699.526 14.045C698.896 14.795 698.066 15.17 697.036 15.17C695.996 15.17 695.161 14.795 694.531 14.045C693.901 13.295 693.586 12.19 693.586 10.73C693.586 9.27 693.901 8.165 694.531 7.415C695.161 6.665 695.996 6.29 697.036 6.29C698.066 6.29 698.896 6.665 699.526 7.415C700.156 8.165 700.471 9.27 700.471 10.73ZM699.271 10.13C699.271 9.19 699.066 8.475 698.656 7.985C698.246 7.485 697.706 7.235 697.036 7.235C696.356 7.235 695.811 7.485 695.401 7.985C694.991 8.475 694.786 9.19 694.786 10.13V11.33C694.786 12.27 694.991 12.99 695.401 13.49C695.811 13.98 696.356 14.225 697.036 14.225C697.706 14.225 698.246 13.98 698.656 13.49C699.066 12.99 699.271 12.27 699.271 11.33V10.13ZM714.569 6.17H715.694V8.66H722.294V6.17H723.419V13.07H714.569V6.17ZM722.294 12.11V9.62H715.694V12.11H722.294ZM712.874 16.025H725.114V17H712.874V16.025ZM735.743 15.065H734.633V5.675H735.743V9.575H737.753V5.465H738.863V15.44H737.753V10.52H735.743V15.065ZM733.898 12.995C732.568 13.305 730.993 13.46 729.173 13.46H727.958V9.425H731.843V7.37H727.898V6.44H732.908V10.325H729.023V12.545H729.458C730.288 12.545 731.073 12.505 731.813 12.425C732.553 12.345 733.198 12.235 733.748 12.095L733.898 12.995ZM739.148 17.825V18.77H730.943C730.703 18.77 730.518 18.705 730.388 18.575C730.258 18.445 730.193 18.255 730.193 18.005V14.795H731.333V17.825H739.148ZM752.372 12.65H743.492V6.365H752.237V7.34H744.632V11.675H752.372V12.65ZM753.962 16.025V17H741.722V16.025H753.962ZM767.711 5.465V18.485H766.616V5.465H767.711ZM763.661 5.69H764.726V18.125H763.661V11.3H762.221C762.171 12.6 761.881 13.58 761.351 14.24C760.821 14.89 760.121 15.215 759.251 15.215C758.321 15.215 757.586 14.855 757.046 14.135C756.506 13.405 756.236 12.32 756.236 10.88C756.236 9.44 756.506 8.36 757.046 7.64C757.586 6.91 758.321 6.545 759.251 6.545C760.111 6.545 760.801 6.865 761.321 7.505C761.851 8.145 762.151 9.095 762.221 10.355H763.661V5.69ZM761.081 10.16C761.081 9.28 760.911 8.61 760.571 8.15C760.241 7.69 759.801 7.46 759.251 7.46C758.691 7.46 758.241 7.69 757.901 8.15C757.571 8.61 757.406 9.28 757.406 10.16V11.615C757.406 12.485 757.571 13.155 757.901 13.625C758.241 14.085 758.691 14.315 759.251 14.315C759.801 14.315 760.241 14.085 760.571 13.625C760.911 13.155 761.081 12.485 761.081 11.615V10.16ZM12.135 28.465V41.485H11.025V34.495H8.97V41.125H7.875V28.69H8.97V33.55H11.025V28.465H12.135ZM6.735 36.7L6.885 37.6C5.675 37.91 4.18 38.065 2.4 38.065H1.17V29.8H6.015V30.76H2.265V37.12H2.67C4.31 37.12 5.665 36.98 6.735 36.7ZM27.639 32.92V33.88H25.554V38.5H24.414V28.465H25.554V32.92H27.639ZM20.979 29.83H16.974V28.87H20.979V29.83ZM18.879 36.94C18.259 36.94 17.714 36.835 17.244 36.625C16.774 36.415 16.409 36.125 16.149 35.755C15.899 35.385 15.774 34.965 15.774 34.495C15.774 34.025 15.884 33.615 16.104 33.265C16.334 32.905 16.674 32.63 17.124 32.44V32.365H14.784V31.42H22.914V32.365H20.634V32.44C21.084 32.63 21.419 32.905 21.639 33.265C21.869 33.615 21.984 34.025 21.984 34.495C21.984 34.965 21.854 35.385 21.594 35.755C21.344 36.125 20.984 36.415 20.514 36.625C20.044 36.835 19.499 36.94 18.879 36.94ZM18.759 35.98H19.014C19.574 35.98 20.029 35.83 20.379 35.53C20.739 35.22 20.919 34.79 20.919 34.24C20.919 33.69 20.744 33.26 20.394 32.95C20.044 32.64 19.584 32.485 19.014 32.485H18.759C18.189 32.485 17.729 32.64 17.379 32.95C17.029 33.25 16.854 33.68 16.854 34.24C16.854 34.79 17.029 35.22 17.379 35.53C17.739 35.83 18.199 35.98 18.759 35.98ZM18.519 40.9H25.854V41.845H18.129C17.889 41.845 17.704 41.78 17.574 41.65C17.444 41.52 17.379 41.33 17.379 41.08V38.08H18.519V40.9ZM40.703 34.9V36.715C41.953 36.785 42.908 37.075 43.568 37.585C44.238 38.095 44.573 38.73 44.573 39.49C44.573 40.03 44.403 40.51 44.063 40.93C43.733 41.35 43.233 41.68 42.563 41.92C41.903 42.17 41.093 42.295 40.133 42.295C39.173 42.295 38.358 42.17 37.688 41.92C37.028 41.68 36.528 41.35 36.188 40.93C35.858 40.51 35.693 40.03 35.693 39.49C35.693 38.73 36.028 38.095 36.698 37.585C37.368 37.075 38.328 36.785 39.578 36.715V34.9H34.013V33.91H42.803C43.133 32.58 43.303 31.235 43.313 29.875V29.845H35.693V28.885H44.423V29.725C44.423 31.105 44.258 32.5 43.928 33.91H46.253V34.9H40.703ZM40.133 37.615C39.403 37.615 38.793 37.7 38.303 37.87C37.813 38.03 37.453 38.245 37.223 38.515C36.993 38.775 36.878 39.065 36.878 39.385V39.625C36.878 39.935 36.993 40.22 37.223 40.48C37.453 40.75 37.813 40.965 38.303 41.125C38.793 41.295 39.403 41.38 40.133 41.38C41.223 41.38 42.033 41.21 42.563 40.87C43.103 40.53 43.373 40.115 43.373 39.625V39.385C43.373 38.885 43.103 38.465 42.563 38.125C42.033 37.785 41.223 37.615 40.133 37.615ZM60.677 34.12V35.11H48.437V34.12H57.182C57.512 32.81 57.682 31.41 57.692 29.92V29.89H50.132V28.93H58.802V29.785C58.802 31.215 58.637 32.66 58.307 34.12H60.677ZM50.252 36.97H58.862V41.995H51.002C50.762 41.995 50.577 41.93 50.447 41.8C50.317 41.67 50.252 41.48 50.252 41.23V36.97ZM51.377 41.05H57.737V37.9H51.377V41.05ZM68.441 29.8H64.361V28.885H73.601V29.8H69.566C69.546 30.49 69.331 31.085 68.921 31.585L68.996 31.615L69.311 31.39C69.441 31.29 69.576 31.24 69.716 31.24C69.826 31.24 69.941 31.27 70.061 31.33L74.156 33.25L73.556 34.075L69.266 32.005C69.136 31.935 69.006 31.9 68.876 31.9C68.736 31.9 68.611 31.935 68.501 32.005H68.486C68.106 32.335 67.586 32.67 66.926 33.01C66.276 33.34 65.431 33.705 64.391 34.105L63.806 33.295C64.996 32.835 65.916 32.43 66.566 32.08C67.216 31.72 67.681 31.365 67.961 31.015C68.251 30.665 68.411 30.26 68.441 29.8ZM75.101 35.125V36.1H62.861V35.125H75.101ZM73.421 39.715C73.421 40.215 73.251 40.66 72.911 41.05C72.581 41.44 72.081 41.745 71.411 41.965C70.751 42.185 69.941 42.295 68.981 42.295C68.021 42.295 67.206 42.185 66.536 41.965C65.876 41.745 65.376 41.44 65.036 41.05C64.706 40.66 64.541 40.215 64.541 39.715C64.541 39.225 64.706 38.79 65.036 38.41C65.376 38.02 65.876 37.715 66.536 37.495C67.206 37.275 68.021 37.165 68.981 37.165C69.941 37.165 70.751 37.275 71.411 37.495C72.081 37.715 72.581 38.02 72.911 38.41C73.251 38.79 73.421 39.225 73.421 39.715ZM72.236 39.625C72.236 39.175 71.966 38.8 71.426 38.5C70.896 38.2 70.081 38.05 68.981 38.05C67.891 38.05 67.071 38.2 66.521 38.5C65.981 38.8 65.711 39.175 65.711 39.625V39.835C65.711 40.275 65.981 40.645 66.521 40.945C67.071 41.245 67.891 41.395 68.981 41.395C70.071 41.395 70.886 41.245 71.426 40.945C71.966 40.645 72.236 40.275 72.236 39.835V39.625ZM78.905 30.865C78.905 30.135 79.28 29.555 80.03 29.125C80.78 28.685 81.905 28.465 83.405 28.465C84.905 28.465 86.03 28.685 86.78 29.125C87.53 29.555 87.905 30.135 87.905 30.865C87.905 31.595 87.53 32.18 86.78 32.62C86.03 33.06 84.905 33.28 83.405 33.28C81.905 33.28 80.78 33.06 80.03 32.62C79.28 32.18 78.905 31.595 78.905 30.865ZM86.69 30.94V30.775C86.69 30.345 86.415 29.995 85.865 29.725C85.325 29.445 84.505 29.305 83.405 29.305C82.305 29.305 81.48 29.445 80.93 29.725C80.39 29.995 80.12 30.345 80.12 30.775V30.94C80.12 31.37 80.39 31.725 80.93 32.005C81.48 32.275 82.305 32.41 83.405 32.41C84.505 32.41 85.325 32.275 85.865 32.005C86.415 31.725 86.69 31.37 86.69 30.94ZM89.525 34.315V35.275H77.285V34.315H89.525ZM79.19 41.335V38.875H86.585V37.465H79.1V36.535H87.68V39.745H80.285V41.17H88.07V42.1H79.94C79.7 42.1 79.515 42.035 79.385 41.905C79.255 41.775 79.19 41.585 79.19 41.335ZM106.729 33.16H98.119V28.525H99.244V29.98H105.619V28.525H106.729V33.16ZM105.619 30.85H99.244V32.29H105.619V30.85ZM102.994 35.29V36.61H106.699V39.775H99.289V41.17H107.089V42.1H98.959C98.719 42.1 98.534 42.035 98.404 41.905C98.274 41.775 98.209 41.585 98.209 41.335V38.905H105.604V37.525H98.119V36.61H101.854V35.29H96.304V34.345H108.544V35.29H102.994ZM121.903 28.465V41.485H120.778V34.075H118.123V33.115H120.778V28.465H121.903ZM118.708 36.925L118.843 37.84C117.373 38.14 115.478 38.29 113.158 38.29H111.583V33.28H116.113V30.415H111.538V29.455H117.238V34.21H112.708V37.36H113.203C115.363 37.36 117.198 37.215 118.708 36.925ZM136.387 28.465V35.29H135.232V28.465H136.387ZM125.587 31.9C125.587 31.27 125.732 30.72 126.022 30.25C126.322 29.78 126.732 29.42 127.252 29.17C127.782 28.91 128.377 28.78 129.037 28.78C129.697 28.78 130.287 28.91 130.807 29.17C131.337 29.42 131.747 29.78 132.037 30.25C132.337 30.72 132.487 31.27 132.487 31.9C132.487 32.53 132.337 33.08 132.037 33.55C131.747 34.02 131.337 34.385 130.807 34.645C130.287 34.895 129.697 35.02 129.037 35.02C128.377 35.02 127.782 34.895 127.252 34.645C126.732 34.385 126.322 34.02 126.022 33.55C125.732 33.08 125.587 32.53 125.587 31.9ZM131.272 32.125V31.675C131.272 31.075 131.067 30.6 130.657 30.25C130.247 29.89 129.707 29.71 129.037 29.71C128.367 29.71 127.822 29.89 127.402 30.25C126.992 30.61 126.787 31.085 126.787 31.675V32.125C126.787 32.715 126.997 33.19 127.417 33.55C127.837 33.91 128.377 34.09 129.037 34.09C129.697 34.09 130.232 33.91 130.642 33.55C131.062 33.19 131.272 32.715 131.272 32.125ZM128.032 41.335V38.62H135.232V37.075H127.942V36.115H136.387V39.58H129.187V41.125H136.747V42.1H128.782C128.542 42.1 128.357 42.035 128.227 41.905C128.097 41.775 128.032 41.585 128.032 41.335ZM140.971 32.545C140.971 31.875 141.141 31.275 141.481 30.745C141.831 30.205 142.361 29.775 143.071 29.455C143.781 29.135 144.656 28.975 145.696 28.975C146.736 28.975 147.611 29.135 148.321 29.455C149.031 29.775 149.556 30.205 149.896 30.745C150.246 31.275 150.421 31.875 150.421 32.545C150.421 33.215 150.246 33.82 149.896 34.36C149.556 34.9 149.031 35.33 148.321 35.65C147.611 35.97 146.736 36.13 145.696 36.13C144.656 36.13 143.781 35.97 143.071 35.65C142.361 35.33 141.831 34.9 141.481 34.36C141.141 33.82 140.971 33.215 140.971 32.545ZM149.191 32.725V32.38C149.191 31.92 149.066 31.505 148.816 31.135C148.576 30.755 148.191 30.455 147.661 30.235C147.141 30.005 146.486 29.89 145.696 29.89C144.906 29.89 144.246 30.005 143.716 30.235C143.196 30.455 142.811 30.755 142.561 31.135C142.321 31.505 142.201 31.92 142.201 32.38V32.725C142.201 33.435 142.491 34.025 143.071 34.495C143.651 34.965 144.526 35.2 145.696 35.2C146.866 35.2 147.741 34.965 148.321 34.495C148.901 34.025 149.191 33.435 149.191 32.725ZM139.576 39.025H151.816V40H139.576V39.025ZM165.235 28.465V36.13H164.08V28.465H165.235ZM155.275 36.4L154.675 35.56C156.135 35.03 157.25 34.53 158.02 34.06C158.8 33.58 159.34 33.06 159.64 32.5L154.795 32.875L154.645 31.93L159.925 31.66C159.965 31.49 159.985 31.285 159.985 31.045V30.085H155.2V29.155H161.08V30.97C161.08 31.79 160.895 32.505 160.525 33.115C160.155 33.715 159.55 34.275 158.71 34.795C157.88 35.315 156.735 35.85 155.275 36.4ZM156.985 36.925H165.235V42.025H157.735C157.495 42.025 157.31 41.96 157.18 41.83C157.05 41.7 156.985 41.51 156.985 41.26V36.925ZM158.125 41.065H164.08V37.885H158.125V41.065Z" fill="#1B1C25"/>
<path d="M13.2 67.78H11.16V74.485H10.035V61.465H11.16V66.82H13.2V67.78ZM4.035 63.4H1.14V62.47H8.04V63.4H5.145C5.145 64.25 4.96 65 4.59 65.65L4.65 65.695L4.905 65.5C5.025 65.41 5.14 65.365 5.25 65.365C5.37 65.365 5.49 65.41 5.61 65.5L8.355 67.66L7.545 68.41L4.725 66.1C4.655 66.04 4.575 66.01 4.485 66.01C4.415 66.01 4.355 66.03 4.305 66.07C4.035 66.44 3.68 66.825 3.24 67.225C2.8 67.625 2.23 68.085 1.53 68.605L0.72 67.87C1.58 67.24 2.24 66.7 2.7 66.25C3.16 65.8 3.495 65.355 3.705 64.915C3.915 64.475 4.025 63.97 4.035 63.4ZM8.955 70.45L9.06 71.365C7.97 71.545 6.66 71.685 5.13 71.785C3.61 71.875 2.04 71.92 0.42 71.92L0.315 70.945C1.425 70.945 2.645 70.92 3.975 70.87V68.26H5.085V70.825C6.675 70.725 7.965 70.6 8.955 70.45ZM23.394 62.545H18.849V61.615H23.394V62.545ZM20.574 64.69H16.419V63.775H25.809V64.69H21.684C21.654 65.21 21.444 65.65 21.054 66.01L21.144 66.04L21.489 65.815C21.629 65.715 21.779 65.665 21.939 65.665C21.989 65.665 22.094 65.685 22.254 65.725L26.319 67.255L25.719 68.08L21.414 66.355C21.284 66.305 21.154 66.28 21.024 66.28C20.894 66.28 20.759 66.31 20.619 66.37C20.239 66.63 19.719 66.9 19.059 67.18C18.399 67.45 17.539 67.76 16.479 68.11L15.894 67.315C17.044 66.965 17.944 66.655 18.594 66.385C19.244 66.105 19.719 65.835 20.019 65.575C20.329 65.305 20.514 65.01 20.574 64.69ZM27.234 68.875V69.835H14.994V68.875H27.234ZM16.689 71.11H25.419V75.1H24.294V72.04H16.689V71.11ZM45.578 61.465V74.485H44.468V61.465H45.578ZM41.543 61.69H42.638V74.125H41.543V67.12H39.743V70.825H34.478V62.77H39.743V66.175H41.543V61.69ZM38.663 63.7H35.573V69.895H38.663V63.7ZM58.967 67.075H50.282V61.9H51.437V66.115H58.967V67.075ZM60.677 69.955H57.512V74.935H56.387V69.955H52.727V74.935H51.602V69.955H48.437V68.995H60.677V69.955ZM75.491 67.555H73.331V74.515H72.191V61.495H73.331V66.595H75.491V67.555ZM68.336 62.38H69.431V70.975H63.311V62.395H64.421V65.68H68.336V62.38ZM68.336 66.64H64.421V70.015H68.336V66.64ZM88.85 61.465V74.485H87.755V61.465H88.85ZM84.8 61.69H85.865V74.125H84.8V67.3H83.36C83.31 68.6 83.02 69.58 82.49 70.24C81.96 70.89 81.26 71.215 80.39 71.215C79.46 71.215 78.725 70.855 78.185 70.135C77.645 69.405 77.375 68.32 77.375 66.88C77.375 65.44 77.645 64.36 78.185 63.64C78.725 62.91 79.46 62.545 80.39 62.545C81.25 62.545 81.94 62.865 82.46 63.505C82.99 64.145 83.29 65.095 83.36 66.355H84.8V61.69ZM82.22 66.16C82.22 65.28 82.05 64.61 81.71 64.15C81.38 63.69 80.94 63.46 80.39 63.46C79.83 63.46 79.38 63.69 79.04 64.15C78.71 64.61 78.545 65.28 78.545 66.16V67.615C78.545 68.485 78.71 69.155 79.04 69.625C79.38 70.085 79.83 70.315 80.39 70.315C80.94 70.315 81.38 70.085 81.71 69.625C82.05 69.155 82.22 68.485 82.22 67.615V66.16ZM108.934 67.555H106.774V74.515H105.634V61.495H106.774V66.595H108.934V67.555ZM96.754 62.5H102.934V70.855H96.754V62.5ZM97.864 69.91H101.824V63.445H97.864V69.91ZM112.318 64.675C112.318 64.095 112.483 63.575 112.813 63.115C113.143 62.655 113.648 62.29 114.328 62.02C115.008 61.75 115.848 61.615 116.848 61.615C117.848 61.615 118.688 61.75 119.368 62.02C120.048 62.29 120.553 62.655 120.883 63.115C121.213 63.575 121.378 64.095 121.378 64.675C121.378 65.255 121.213 65.78 120.883 66.25C120.553 66.71 120.048 67.075 119.368 67.345C118.688 67.615 117.848 67.75 116.848 67.75C115.848 67.75 115.008 67.615 114.328 67.345C113.648 67.075 113.143 66.71 112.813 66.25C112.483 65.78 112.318 65.255 112.318 64.675ZM113.548 64.825C113.548 65.395 113.823 65.87 114.373 66.25C114.923 66.63 115.748 66.82 116.848 66.82C117.948 66.82 118.773 66.63 119.323 66.25C119.873 65.87 120.148 65.395 120.148 64.825V64.525C120.148 63.955 119.873 63.48 119.323 63.1C118.773 62.71 117.948 62.515 116.848 62.515C115.758 62.515 114.933 62.71 114.373 63.1C113.823 63.48 113.548 63.955 113.548 64.525V64.825ZM122.968 70.12H117.418V75.01H116.278V70.12H110.728V69.16H122.968V70.12ZM126.412 68.965L125.767 68.08C127.127 67.38 128.167 66.76 128.887 66.22C129.617 65.67 130.122 65.125 130.402 64.585C130.682 64.035 130.822 63.405 130.822 62.695V62.185H131.992V62.725C131.992 63.305 131.927 63.825 131.797 64.285C131.677 64.735 131.472 65.16 131.182 65.56L131.257 65.605L131.632 65.32C131.762 65.22 131.892 65.17 132.022 65.17C132.152 65.17 132.282 65.215 132.412 65.305L136.777 68.02L136.117 68.92L131.602 66.01C131.472 65.92 131.332 65.875 131.182 65.875C131.052 65.875 130.922 65.925 130.792 66.025C130.382 66.465 129.827 66.92 129.127 67.39C128.427 67.85 127.522 68.375 126.412 68.965ZM137.392 72.025V73H125.152V72.025H137.392ZM148.741 63.805V62.515H141.421V61.675H149.836V64.63H142.606V65.905H150.211V66.76H141.496V63.805H148.741ZM151.816 67.885V68.77H139.576V67.885H151.816ZM141.451 74.38V72.115H148.921V70.855H141.361V69.97H149.986V72.955H142.516V74.245H150.376V75.145H142.201C141.961 75.145 141.776 75.08 141.646 74.95C141.516 74.82 141.451 74.63 141.451 74.38ZM170.835 67.405V68.335H158.595V67.405H164.16V66.25C162.85 66.19 161.865 65.945 161.205 65.515C160.545 65.085 160.215 64.53 160.215 63.85C160.215 63.13 160.59 62.55 161.34 62.11C162.1 61.67 163.225 61.45 164.715 61.45C166.205 61.45 167.325 61.67 168.075 62.11C168.835 62.55 169.215 63.13 169.215 63.85C169.215 64.53 168.885 65.085 168.225 65.515C167.575 65.945 166.595 66.19 165.285 66.25V67.405H170.835ZM164.715 65.395C165.815 65.395 166.635 65.26 167.175 64.99C167.725 64.72 168 64.37 168 63.94V63.76C168 63.33 167.725 62.98 167.175 62.71C166.635 62.44 165.815 62.305 164.715 62.305C163.615 62.305 162.79 62.44 162.24 62.71C161.7 62.98 161.43 63.33 161.43 63.76V63.94C161.43 64.37 161.7 64.72 162.24 64.99C162.79 65.26 163.615 65.395 164.715 65.395ZM161.595 74.2H169.38V75.145H161.25C161.01 75.145 160.825 75.08 160.695 74.95C160.565 74.82 160.5 74.63 160.5 74.38V71.905H167.895V70.495H160.41V69.565H168.99V72.79H161.595V74.2ZM184.209 61.465V74.485H183.084V68.65H180.339V67.72H183.084V65.44H180.339V64.495H183.084V61.465H184.209ZM180.684 70.09L180.834 71.005C179.314 71.305 177.484 71.455 175.344 71.455H173.814V66.34H178.299V63.4H173.769V62.44H179.424V67.27H174.939V70.51H175.404C177.444 70.51 179.204 70.37 180.684 70.09ZM202.133 65.005V61.465H203.273V71.35H202.133V65.965H199.403V65.005H202.133ZM196.133 66.415C196.063 66.415 195.998 66.445 195.938 66.505C195.668 66.925 195.323 67.36 194.903 67.81C194.483 68.25 193.923 68.79 193.223 69.43L192.368 68.695C193.208 67.975 193.858 67.355 194.318 66.835C194.778 66.305 195.108 65.785 195.308 65.275C195.518 64.755 195.623 64.175 195.623 63.535V63.385H192.758V62.44H199.598V63.385H196.763V63.595C196.763 64.485 196.588 65.28 196.238 65.98L196.328 66.025L196.553 65.845C196.663 65.765 196.768 65.725 196.868 65.725C196.988 65.725 197.108 65.775 197.228 65.875L200.033 68.425L199.193 69.16L196.358 66.505C196.298 66.445 196.223 66.415 196.133 66.415ZM203.543 73.825V74.77H195.683C195.443 74.77 195.258 74.705 195.128 74.575C194.998 74.445 194.933 74.255 194.933 74.005V70.45H196.088V73.825H203.543ZM218.027 61.465V74.485H216.947V61.465H218.027ZM213.947 61.69H214.997V74.125H213.947V68.02H212.072V67.09H213.947V61.69ZM211.457 63.265H208.007V62.335H211.457V63.265ZM210.272 68.08C210.392 68.08 210.507 68.135 210.617 68.245L213.032 70.93L212.252 71.605L209.822 68.8C209.772 68.75 209.722 68.725 209.672 68.725C209.612 68.725 209.562 68.755 209.522 68.815C209.292 69.245 208.987 69.7 208.607 70.18C208.237 70.65 207.757 71.195 207.167 71.815L206.402 71.155C207.132 70.395 207.692 69.74 208.082 69.19C208.482 68.63 208.767 68.08 208.937 67.54C209.107 67 209.192 66.385 209.192 65.695H206.717V64.78H212.702V65.695H210.242C210.242 66.635 210.092 67.48 209.792 68.23L209.852 68.275L209.987 68.17C210.077 68.11 210.172 68.08 210.272 68.08ZM237.046 61.465V74.485H235.936V61.465H237.046ZM233.011 61.69H234.106V74.125H233.011V67.12H231.211V70.825H225.946V62.77H231.211V66.175H233.011V61.69ZM230.131 63.7H227.041V69.895H230.131V63.7ZM250.435 67.075H241.75V61.9H242.905V66.115H250.435V67.075ZM252.145 69.955H248.98V74.935H247.855V69.955H244.195V74.935H243.07V69.955H239.905V68.995H252.145V69.955ZM263.494 63.805V62.515H256.174V61.675H264.589V64.63H257.359V65.905H264.964V66.76H256.249V63.805H263.494ZM266.569 67.885V68.77H254.329V67.885H266.569ZM256.204 74.38V72.115H263.674V70.855H256.114V69.97H264.739V72.955H257.269V74.245H265.129V75.145H256.954C256.714 75.145 256.529 75.08 256.399 74.95C256.269 74.82 256.204 74.63 256.204 74.38ZM285.993 65.92V66.88H283.908V71.5H282.768V61.465H283.908V65.92H285.993ZM279.333 62.83H275.328V61.87H279.333V62.83ZM277.233 69.94C276.613 69.94 276.068 69.835 275.598 69.625C275.128 69.415 274.763 69.125 274.503 68.755C274.253 68.385 274.128 67.965 274.128 67.495C274.128 67.025 274.238 66.615 274.458 66.265C274.688 65.905 275.028 65.63 275.478 65.44V65.365H273.138V64.42H281.268V65.365H278.988V65.44C279.438 65.63 279.773 65.905 279.993 66.265C280.223 66.615 280.338 67.025 280.338 67.495C280.338 67.965 280.208 68.385 279.948 68.755C279.698 69.125 279.338 69.415 278.868 69.625C278.398 69.835 277.853 69.94 277.233 69.94ZM277.113 68.98H277.368C277.928 68.98 278.383 68.83 278.733 68.53C279.093 68.22 279.273 67.79 279.273 67.24C279.273 66.69 279.098 66.26 278.748 65.95C278.398 65.64 277.938 65.485 277.368 65.485H277.113C276.543 65.485 276.083 65.64 275.733 65.95C275.383 66.25 275.208 66.68 275.208 67.24C275.208 67.79 275.383 68.22 275.733 68.53C276.093 68.83 276.553 68.98 277.113 68.98ZM276.873 73.9H284.208V74.845H276.483C276.243 74.845 276.058 74.78 275.928 74.65C275.798 74.52 275.733 74.33 275.733 74.08V71.08H276.873V73.9ZM302.462 66.04H299.627V65.08H302.462V61.465H303.602V71.35H302.462V66.04ZM299.177 68.875H293.102V62.245H294.197V64.585H298.067V62.215H299.177V68.875ZM298.067 65.515H294.197V67.945H298.067V65.515ZM303.872 73.825V74.77H296.012C295.772 74.77 295.587 74.705 295.457 74.575C295.327 74.445 295.262 74.255 295.262 74.005V70.45H296.417V73.825H303.872ZM318.356 61.465V74.485H317.261V61.465H318.356ZM314.306 61.69H315.371V74.125H314.306V67.3H312.866C312.816 68.6 312.526 69.58 311.996 70.24C311.466 70.89 310.766 71.215 309.896 71.215C308.966 71.215 308.231 70.855 307.691 70.135C307.151 69.405 306.881 68.32 306.881 66.88C306.881 65.44 307.151 64.36 307.691 63.64C308.231 62.91 308.966 62.545 309.896 62.545C310.756 62.545 311.446 62.865 311.966 63.505C312.496 64.145 312.796 65.095 312.866 66.355H314.306V61.69ZM311.726 66.16C311.726 65.28 311.556 64.61 311.216 64.15C310.886 63.69 310.446 63.46 309.896 63.46C309.336 63.46 308.886 63.69 308.546 64.15C308.216 64.61 308.051 65.28 308.051 66.16V67.615C308.051 68.485 308.216 69.155 308.546 69.625C308.886 70.085 309.336 70.315 309.896 70.315C310.446 70.315 310.886 70.085 311.216 69.625C311.556 69.155 311.726 68.485 311.726 67.615V66.16ZM338.44 66.61H336.46V70.42H335.335V61.465H336.46V65.65H338.44V66.61ZM331.87 62.455H327.925V61.57H331.87V62.455ZM334.345 69.67C333.235 69.85 331.9 69.99 330.34 70.09C328.79 70.18 327.19 70.225 325.54 70.225L325.45 69.295C326.96 69.295 328.235 69.27 329.275 69.22V68.17C328.495 68.1 327.88 67.9 327.43 67.57C326.98 67.23 326.755 66.805 326.755 66.295C326.755 65.555 327.145 65.04 327.925 64.75V64.66H325.855V63.805H333.67V64.66H331.69V64.75C332.47 65.06 332.86 65.575 332.86 66.295C332.86 66.795 332.635 67.215 332.185 67.555C331.735 67.885 331.125 68.085 330.355 68.155V69.175C331.895 69.095 333.19 68.975 334.24 68.815L334.345 69.67ZM329.59 67.3H330.025C330.555 67.3 330.985 67.19 331.315 66.97C331.655 66.74 331.825 66.42 331.825 66.01C331.825 65.6 331.66 65.285 331.33 65.065C331 64.835 330.565 64.72 330.025 64.72H329.59C329.05 64.72 328.61 64.835 328.27 65.065C327.94 65.285 327.775 65.6 327.775 66.01C327.775 66.42 327.94 66.74 328.27 66.97C328.61 67.19 329.05 67.3 329.59 67.3ZM327.805 71.215H336.46V75.175H335.35V72.1H327.805V71.215ZM351.469 61.465V71.35H350.314V61.465H351.469ZM340.669 65.515C340.669 64.815 340.814 64.205 341.104 63.685C341.404 63.165 341.814 62.77 342.334 62.5C342.854 62.22 343.449 62.08 344.119 62.08C344.779 62.08 345.369 62.22 345.889 62.5C346.419 62.77 346.829 63.165 347.119 63.685C347.419 64.205 347.569 64.815 347.569 65.515C347.569 66.205 347.419 66.81 347.119 67.33C346.829 67.85 346.419 68.25 345.889 68.53C345.369 68.8 344.779 68.935 344.119 68.935C343.449 68.935 342.854 68.8 342.334 68.53C341.814 68.25 341.404 67.855 341.104 67.345C340.814 66.825 340.669 66.215 340.669 65.515ZM346.354 65.83V65.2C346.354 64.54 346.144 64.015 345.724 63.625C345.314 63.225 344.779 63.025 344.119 63.025C343.449 63.025 342.904 63.225 342.484 63.625C342.074 64.025 341.869 64.55 341.869 65.2V65.83C341.869 66.48 342.079 67.005 342.499 67.405C342.919 67.795 343.459 67.99 344.119 67.99C344.779 67.99 345.314 67.795 345.724 67.405C346.144 67.005 346.354 66.48 346.354 65.83ZM343.129 74.005V70.27H344.284V73.825H351.739V74.77H343.879C343.639 74.77 343.454 74.705 343.324 74.575C343.194 74.445 343.129 74.255 343.129 74.005ZM371.883 67.555H369.723V74.515H368.583V61.495H369.723V66.595H371.883V67.555ZM359.898 62.53H365.733V64.615C365.733 65.725 365.568 66.665 365.238 67.435C364.908 68.205 364.348 68.925 363.558 69.595C362.778 70.255 361.658 70.98 360.198 71.77L359.523 70.915C360.883 70.195 361.923 69.54 362.643 68.95C363.363 68.36 363.868 67.735 364.158 67.075C364.448 66.415 364.593 65.6 364.593 64.63V63.505H359.898V62.53ZM384.177 66.235H375.552V61.825H376.677V65.305H384.177V66.235ZM385.917 67.78V68.77H373.677V67.78H385.917ZM384.237 72.67C384.237 73.46 383.857 74.095 383.097 74.575C382.337 75.055 381.237 75.295 379.797 75.295C378.357 75.295 377.257 75.055 376.497 74.575C375.737 74.095 375.357 73.46 375.357 72.67C375.357 72.17 375.522 71.725 375.852 71.335C376.192 70.945 376.692 70.64 377.352 70.42C378.022 70.2 378.837 70.09 379.797 70.09C380.757 70.09 381.567 70.2 382.227 70.42C382.897 70.64 383.397 70.945 383.727 71.335C384.067 71.725 384.237 72.17 384.237 72.67ZM383.037 72.58C383.037 72.13 382.767 71.755 382.227 71.455C381.697 71.145 380.887 70.99 379.797 70.99C378.717 70.99 377.902 71.145 377.352 71.455C376.812 71.755 376.542 72.13 376.542 72.58V72.79C376.542 73.24 376.812 73.615 377.352 73.915C377.902 74.225 378.717 74.38 379.797 74.38C380.887 74.38 381.697 74.225 382.227 73.915C382.767 73.615 383.037 73.24 383.037 72.79V72.58ZM400.731 67.795H398.616V74.515H397.476V61.495H398.616V66.835H400.731V67.795ZM394.281 63.175H390.021V62.2H394.281V63.175ZM388.026 64.975H396.051V65.905H393.831V65.995C394.741 66.445 395.196 67.31 395.196 68.59C395.196 69.24 395.061 69.805 394.791 70.285C394.521 70.755 394.146 71.115 393.666 71.365C393.196 71.615 392.671 71.74 392.091 71.74C391.511 71.74 390.981 71.615 390.501 71.365C390.031 71.115 389.661 70.755 389.391 70.285C389.121 69.805 388.986 69.24 388.986 68.59C388.986 67.31 389.441 66.445 390.351 65.995V65.905H388.026V64.975ZM394.086 68.095C394.086 67.425 393.906 66.915 393.546 66.565C393.186 66.205 392.701 66.025 392.091 66.025C391.491 66.025 391.006 66.205 390.636 66.565C390.276 66.925 390.096 67.435 390.096 68.095V68.71C390.096 69.36 390.281 69.87 390.651 70.24C391.021 70.6 391.501 70.78 392.091 70.78C392.681 70.78 393.161 70.6 393.531 70.24C393.901 69.87 394.086 69.36 394.086 68.71V68.095ZM411.975 63.52H404.055V62.545H413.1V63.61C413.1 65.83 412.885 67.945 412.455 69.955L411.345 69.775C411.765 67.745 411.975 65.705 411.975 63.655V63.52ZM414.765 72.04V73H402.525V72.04H407.325V67.225H408.45V72.04H414.765ZM423.134 64.675C423.134 64.095 423.299 63.575 423.629 63.115C423.959 62.655 424.464 62.29 425.144 62.02C425.824 61.75 426.664 61.615 427.664 61.615C428.664 61.615 429.504 61.75 430.184 62.02C430.864 62.29 431.369 62.655 431.699 63.115C432.029 63.575 432.194 64.095 432.194 64.675C432.194 65.255 432.029 65.78 431.699 66.25C431.369 66.71 430.864 67.075 430.184 67.345C429.504 67.615 428.664 67.75 427.664 67.75C426.664 67.75 425.824 67.615 425.144 67.345C424.464 67.075 423.959 66.71 423.629 66.25C423.299 65.78 423.134 65.255 423.134 64.675ZM424.364 64.825C424.364 65.395 424.639 65.87 425.189 66.25C425.739 66.63 426.564 66.82 427.664 66.82C428.764 66.82 429.589 66.63 430.139 66.25C430.689 65.87 430.964 65.395 430.964 64.825V64.525C430.964 63.955 430.689 63.48 430.139 63.1C429.589 62.71 428.764 62.515 427.664 62.515C426.574 62.515 425.749 62.71 425.189 63.1C424.639 63.48 424.364 63.955 424.364 64.525V64.825ZM433.784 70.12H428.234V75.01H427.094V70.12H421.544V69.16H433.784V70.12ZM444.368 62.545H439.823V61.615H444.368V62.545ZM441.548 64.69H437.393V63.775H446.783V64.69H442.658C442.628 65.21 442.418 65.65 442.028 66.01L442.118 66.04L442.463 65.815C442.603 65.715 442.753 65.665 442.913 65.665C442.963 65.665 443.068 65.685 443.228 65.725L447.293 67.255L446.693 68.08L442.388 66.355C442.258 66.305 442.128 66.28 441.998 66.28C441.868 66.28 441.733 66.31 441.593 66.37C441.213 66.63 440.693 66.9 440.033 67.18C439.373 67.45 438.513 67.76 437.453 68.11L436.868 67.315C438.018 66.965 438.918 66.655 439.568 66.385C440.218 66.105 440.693 65.835 440.993 65.575C441.303 65.305 441.488 65.01 441.548 64.69ZM448.208 68.875V69.835H435.968V68.875H448.208ZM437.663 71.11H446.393V75.1H445.268V72.04H437.663V71.11ZM467.617 67.93H465.577V74.485H464.452V61.465H465.577V66.97H467.617V67.93ZM461.077 62.995H457.072V62.065H461.077V62.995ZM463.387 70.96L463.492 71.875C462.392 72.055 461.077 72.195 459.547 72.295C458.027 72.385 456.457 72.43 454.837 72.43L454.732 71.47C455.852 71.47 457.087 71.445 458.437 71.395V69.61C457.647 69.53 457.022 69.29 456.562 68.89C456.102 68.48 455.872 67.98 455.872 67.39C455.872 66.96 455.977 66.59 456.187 66.28C456.407 65.96 456.737 65.71 457.177 65.53V65.44H454.942V64.54H463.012V65.44H460.852V65.53C461.282 65.71 461.607 65.96 461.827 66.28C462.047 66.6 462.157 66.97 462.157 67.39C462.157 67.99 461.922 68.495 461.452 68.905C460.982 69.305 460.342 69.54 459.532 69.61V71.335C461.092 71.255 462.377 71.13 463.387 70.96ZM458.857 68.71H459.172C459.742 68.71 460.207 68.575 460.567 68.305C460.927 68.025 461.107 67.635 461.107 67.135C461.107 66.635 460.927 66.25 460.567 65.98C460.207 65.7 459.742 65.56 459.172 65.56H458.857C458.287 65.56 457.822 65.7 457.462 65.98C457.102 66.25 456.922 66.635 456.922 67.135C456.922 67.635 457.102 68.025 457.462 68.305C457.822 68.575 458.287 68.71 458.857 68.71ZM482.056 64.45V65.41H479.971V68.29H478.831V61.465H479.971V64.45H482.056ZM470.206 68.41L469.366 67.675C470.216 66.945 470.871 66.325 471.331 65.815C471.791 65.295 472.121 64.785 472.321 64.285C472.521 63.775 472.621 63.2 472.621 62.56V61.78H473.761V62.62C473.761 63.51 473.586 64.305 473.236 65.005L473.311 65.05L473.551 64.855C473.671 64.765 473.781 64.72 473.881 64.72C473.991 64.72 474.091 64.765 474.181 64.855L477.031 67.36L476.221 68.155L473.356 65.515C473.276 65.455 473.201 65.425 473.131 65.425C473.061 65.425 473.001 65.455 472.951 65.515C472.681 65.935 472.331 66.365 471.901 66.805C471.481 67.245 470.916 67.78 470.206 68.41ZM472.891 74.125H480.331V75.1H472.486C472.246 75.1 472.061 75.035 471.931 74.905C471.801 74.775 471.736 74.585 471.736 74.335V71.62H478.831V70.075H471.646V69.115H479.971V72.58H472.891V74.125ZM494.74 63.235H485.155V62.275H494.74V63.235ZM494.875 68.74H485.035V67.795H487.405L486.91 64.465L488.065 64.345L488.47 67.795H491.425L491.83 64.345L493 64.465L492.49 67.795H494.875V68.74ZM496.075 72.04V73H483.835V72.04H487.165V69.505H488.275V72.04H491.635V69.505H492.745V72.04H496.075ZM507.424 63.805V62.515H500.104V61.675H508.519V64.63H501.289V65.905H508.894V66.76H500.179V63.805H507.424ZM510.499 67.885V68.77H498.259V67.885H510.499ZM500.134 74.38V72.115H507.604V70.855H500.044V69.97H508.669V72.955H501.199V74.245H509.059V75.145H500.884C500.644 75.145 500.459 75.08 500.329 74.95C500.199 74.82 500.134 74.63 500.134 74.38ZM529.518 68.755V69.685H517.278V68.755H522.843V67.345H519.138V61.735H527.643V62.635H520.233V64.105H527.418V64.975H520.248V66.445H527.883V67.345H523.968V68.755H529.518ZM527.838 73C527.838 73.71 527.458 74.275 526.698 74.695C525.938 75.115 524.838 75.325 523.398 75.325C521.958 75.325 520.858 75.115 520.098 74.695C519.338 74.275 518.958 73.71 518.958 73C518.958 72.3 519.338 71.74 520.098 71.32C520.858 70.89 521.958 70.675 523.398 70.675C524.838 70.675 525.938 70.89 526.698 71.32C527.458 71.74 527.838 72.3 527.838 73ZM526.638 72.91C526.638 72.52 526.368 72.195 525.828 71.935C525.298 71.675 524.488 71.545 523.398 71.545C522.318 71.545 521.503 71.675 520.953 71.935C520.413 72.195 520.143 72.52 520.143 72.91V73.09C520.143 73.48 520.413 73.805 520.953 74.065C521.503 74.325 522.318 74.455 523.398 74.455C524.488 74.455 525.298 74.325 525.828 74.065C526.368 73.805 526.638 73.48 526.638 73.09V72.91ZM543.267 61.465V74.485H542.157V67.69H540.207V74.125H539.112V61.69H540.207V66.745H542.157V61.465H543.267ZM537.042 63.415H533.187V62.485H537.042V63.415ZM531.612 65.095H538.392V65.995H536.607V66.07C537.397 66.5 537.792 67.315 537.792 68.515C537.792 69.455 537.537 70.19 537.027 70.72C536.527 71.24 535.867 71.5 535.047 71.5C534.237 71.5 533.577 71.24 533.067 70.72C532.567 70.19 532.317 69.455 532.317 68.515C532.317 67.315 532.707 66.5 533.487 66.07V65.995H531.612V65.095ZM536.712 67.975C536.712 67.375 536.562 66.915 536.262 66.595C535.962 66.275 535.557 66.115 535.047 66.115C534.537 66.115 534.132 66.275 533.832 66.595C533.542 66.915 533.397 67.375 533.397 67.975V68.695C533.397 69.285 533.547 69.745 533.847 70.075C534.157 70.405 534.557 70.57 535.047 70.57C535.537 70.57 535.937 70.405 536.247 70.075C536.557 69.745 536.712 69.285 536.712 68.695V67.975ZM563.351 67.555H561.191V74.515H560.051V61.495H561.191V66.595H563.351V67.555ZM556.196 62.38H557.291V70.975H551.171V62.395H552.281V65.68H556.196V62.38ZM556.196 66.64H552.281V70.015H556.196V66.64ZM577.385 72.04V73H565.145V72.04H570.695V69.475H566.945V65.41H574.445V63.205H566.87V62.26H575.585V66.325H568.085V68.53H575.975V69.475H571.835V72.04H577.385ZM596.794 67.555H594.634V74.515H593.494V61.495H594.634V66.595H596.794V67.555ZM591.919 69.685L592.069 70.6C590.539 70.91 588.629 71.065 586.339 71.065H584.749V62.53H590.734V63.49H585.889V70.12H586.324C588.524 70.12 590.389 69.975 591.919 69.685ZM600.193 64.15C600.193 63.36 600.568 62.725 601.318 62.245C602.078 61.755 603.208 61.51 604.708 61.51C606.208 61.51 607.333 61.755 608.083 62.245C608.843 62.725 609.223 63.36 609.223 64.15C609.223 64.94 608.843 65.58 608.083 66.07C607.333 66.55 606.208 66.79 604.708 66.79C603.208 66.79 602.078 66.55 601.318 66.07C600.568 65.58 600.193 64.94 600.193 64.15ZM608.008 64.255V64.045C608.008 63.565 607.733 63.17 607.183 62.86C606.643 62.55 605.818 62.395 604.708 62.395C603.598 62.395 602.768 62.55 602.218 62.86C601.678 63.17 601.408 63.565 601.408 64.045V64.255C601.408 64.725 601.683 65.115 602.233 65.425C602.783 65.735 603.608 65.89 604.708 65.89C605.808 65.89 606.633 65.735 607.183 65.425C607.733 65.115 608.008 64.725 608.008 64.255ZM610.828 67.915V68.89H598.588V67.915H610.828ZM600.403 74.23V70.3H609.013V74.995H601.153C600.913 74.995 600.728 74.93 600.598 74.8C600.468 74.67 600.403 74.48 600.403 74.23ZM607.888 71.23H601.528V74.05H607.888V71.23ZM629.172 61.465V74.485H628.092V61.465H629.172ZM625.182 61.69H626.247V74.125H625.182V67.39H623.532V66.445H625.182V61.69ZM623.832 63.715H617.712V62.77H623.832V63.715ZM624.162 69.865L624.267 70.75C623.437 70.91 622.422 71.035 621.222 71.125C620.032 71.205 618.807 71.245 617.547 71.245L617.442 70.3C618.172 70.3 618.722 70.295 619.092 70.285L618.717 64.93L619.767 64.825L620.052 70.255C620.392 70.245 620.842 70.22 621.402 70.18L621.777 64.81L622.827 64.915L622.377 70.12C623.167 70.03 623.762 69.945 624.162 69.865ZM642.051 61.465H643.191V74.485H642.051V61.465ZM632.421 66.73C632.421 65.27 632.741 64.165 633.381 63.415C634.031 62.665 634.886 62.29 635.946 62.29C636.996 62.29 637.841 62.665 638.481 63.415C639.131 64.165 639.456 65.27 639.456 66.73C639.456 67.71 639.306 68.535 639.006 69.205C638.706 69.865 638.291 70.36 637.761 70.69C637.231 71.01 636.626 71.17 635.946 71.17C634.886 71.17 634.031 70.795 633.381 70.045C632.741 69.295 632.421 68.19 632.421 66.73ZM638.241 67.315V66.145C638.241 65.215 638.026 64.5 637.596 64C637.176 63.5 636.626 63.25 635.946 63.25C635.256 63.25 634.696 63.5 634.266 64C633.846 64.49 633.636 65.205 633.636 66.145V67.315C633.636 68.255 633.846 68.975 634.266 69.475C634.696 69.965 635.256 70.21 635.946 70.21C636.626 70.21 637.176 69.96 637.596 69.46C638.026 68.96 638.241 68.245 638.241 67.315ZM657.615 61.465V74.485H656.475V61.465H657.615ZM651.345 66.97C651.485 66.97 651.6 67.025 651.69 67.135L654.63 70.585L653.775 71.32L650.805 67.75C650.755 67.69 650.695 67.66 650.625 67.66C650.565 67.66 650.51 67.69 650.46 67.75C650.19 68.3 649.835 68.86 649.395 69.43C648.955 70 648.355 70.7 647.595 71.53L646.74 70.81C647.61 69.9 648.28 69.11 648.75 68.44C649.23 67.77 649.575 67.105 649.785 66.445C649.995 65.775 650.1 65.015 650.1 64.165V63.595H647.145V62.635H654.18V63.595H651.24V64.21C651.24 65.34 651.065 66.345 650.715 67.225L650.79 67.27L651.015 67.09C651.125 67.01 651.235 66.97 651.345 66.97ZM673.119 72.04V73H660.879V72.04H666.429V69.475H662.679V65.41H670.179V63.205H662.604V62.26H671.319V66.325H663.819V68.53H671.709V69.475H667.569V72.04H673.119ZM689.918 61.465H691.058V74.485H689.918V61.465ZM680.288 66.73C680.288 65.27 680.608 64.165 681.248 63.415C681.898 62.665 682.753 62.29 683.813 62.29C684.863 62.29 685.708 62.665 686.348 63.415C686.998 64.165 687.323 65.27 687.323 66.73C687.323 67.71 687.173 68.535 686.873 69.205C686.573 69.865 686.158 70.36 685.628 70.69C685.098 71.01 684.493 71.17 683.813 71.17C682.753 71.17 681.898 70.795 681.248 70.045C680.608 69.295 680.288 68.19 680.288 66.73ZM686.108 67.315V66.145C686.108 65.215 685.893 64.5 685.463 64C685.043 63.5 684.493 63.25 683.813 63.25C683.123 63.25 682.563 63.5 682.133 64C681.713 64.49 681.503 65.205 681.503 66.145V67.315C681.503 68.255 681.713 68.975 682.133 69.475C682.563 69.965 683.123 70.21 683.813 70.21C684.493 70.21 685.043 69.96 685.463 69.46C685.893 68.96 686.108 68.245 686.108 67.315ZM706.562 67.975V68.95H694.322V67.975H699.887V66.415H696.182V61.825H704.717V62.755H697.307V65.47H704.837V66.415H701.012V67.975H706.562ZM704.867 72.685C704.867 73.195 704.702 73.645 704.372 74.035C704.042 74.425 703.542 74.73 702.872 74.95C702.212 75.18 701.402 75.295 700.442 75.295C699.482 75.295 698.667 75.18 697.997 74.95C697.337 74.73 696.842 74.425 696.512 74.035C696.182 73.645 696.017 73.195 696.017 72.685C696.017 72.185 696.182 71.745 696.512 71.365C696.852 70.975 697.352 70.67 698.012 70.45C698.672 70.23 699.482 70.12 700.442 70.12C701.402 70.12 702.212 70.23 702.872 70.45C703.532 70.67 704.027 70.975 704.357 71.365C704.697 71.745 704.867 72.185 704.867 72.685ZM703.667 72.595C703.667 72.155 703.397 71.785 702.857 71.485C702.327 71.175 701.522 71.02 700.442 71.02C699.362 71.02 698.552 71.175 698.012 71.485C697.472 71.785 697.202 72.155 697.202 72.595V72.805C697.202 73.245 697.472 73.615 698.012 73.915C698.552 74.225 699.362 74.38 700.442 74.38C701.522 74.38 702.327 74.225 702.857 73.915C703.397 73.615 703.667 73.245 703.667 72.805V72.595ZM725.971 67.555H723.811V74.515H722.671V61.495H723.811V66.595H725.971V67.555ZM713.986 62.53H719.821V64.615C719.821 65.725 719.656 66.665 719.326 67.435C718.996 68.205 718.436 68.925 717.646 69.595C716.866 70.255 715.746 70.98 714.286 71.77L713.611 70.915C714.971 70.195 716.011 69.54 716.731 68.95C717.451 68.36 717.956 67.735 718.246 67.075C718.536 66.415 718.681 65.6 718.681 64.63V63.505H713.986V62.53ZM738.265 66.235H729.64V61.825H730.765V65.305H738.265V66.235ZM740.005 67.78V68.77H727.765V67.78H740.005ZM738.325 72.67C738.325 73.46 737.945 74.095 737.185 74.575C736.425 75.055 735.325 75.295 733.885 75.295C732.445 75.295 731.345 75.055 730.585 74.575C729.825 74.095 729.445 73.46 729.445 72.67C729.445 72.17 729.61 71.725 729.94 71.335C730.28 70.945 730.78 70.64 731.44 70.42C732.11 70.2 732.925 70.09 733.885 70.09C734.845 70.09 735.655 70.2 736.315 70.42C736.985 70.64 737.485 70.945 737.815 71.335C738.155 71.725 738.325 72.17 738.325 72.67ZM737.125 72.58C737.125 72.13 736.855 71.755 736.315 71.455C735.785 71.145 734.975 70.99 733.885 70.99C732.805 70.99 731.99 71.145 731.44 71.455C730.9 71.755 730.63 72.13 730.63 72.58V72.79C730.63 73.24 730.9 73.615 731.44 73.915C731.99 74.225 732.805 74.38 733.885 74.38C734.975 74.38 735.785 74.225 736.315 73.915C736.855 73.615 737.125 73.24 737.125 72.79V72.58Z" fill="#1B1C25"/>
</svg>
