<svg width="149" height="38" viewBox="0 0 149 38" fill="none" xmlns="http://www.w3.org/2000/svg">
<path d="M33.757 32.156C33.0203 32.156 32.392 32.0173 31.872 31.74C31.352 31.454 30.91 31.064 30.546 30.57L31.352 29.894C31.6727 30.3187 32.028 30.6437 32.418 30.869C32.808 31.0857 33.2673 31.194 33.796 31.194C34.446 31.194 34.94 31.038 35.278 30.726C35.6247 30.414 35.798 29.998 35.798 29.478C35.798 29.0447 35.668 28.711 35.408 28.477C35.148 28.243 34.719 28.0567 34.121 27.918L33.38 27.749C32.548 27.5583 31.911 27.2723 31.469 26.891C31.0357 26.501 30.819 25.955 30.819 25.253C30.819 24.8543 30.8927 24.499 31.04 24.187C31.1873 23.875 31.391 23.615 31.651 23.407C31.9197 23.199 32.236 23.043 32.6 22.939C32.9727 22.8263 33.38 22.77 33.822 22.77C34.5067 22.77 35.0917 22.8957 35.577 23.147C36.071 23.3983 36.487 23.7667 36.825 24.252L36.006 24.85C35.7547 24.5033 35.4513 24.2303 35.096 24.031C34.7407 23.8317 34.2987 23.732 33.77 23.732C33.1893 23.732 32.73 23.8577 32.392 24.109C32.0627 24.3517 31.898 24.72 31.898 25.214C31.898 25.6473 32.0367 25.9767 32.314 26.202C32.6 26.4187 33.029 26.592 33.601 26.722L34.342 26.891C35.2347 27.0903 35.8803 27.3937 36.279 27.801C36.6777 28.2083 36.877 28.75 36.877 29.426C36.877 29.842 36.8033 30.219 36.656 30.557C36.5173 30.895 36.3137 31.181 36.045 31.415C35.7763 31.649 35.447 31.831 35.057 31.961C34.6757 32.091 34.2423 32.156 33.757 32.156ZM42.6107 32.156C41.458 32.156 40.561 31.766 39.9197 30.986C39.2784 30.1973 38.9577 29.0403 38.9577 27.515C38.9577 25.9897 39.2784 24.8197 39.9197 24.005C40.561 23.1817 41.458 22.77 42.6107 22.77C43.3734 22.77 44.0104 22.9433 44.5217 23.29C45.0417 23.6367 45.4447 24.1263 45.7307 24.759L44.8467 25.292C44.6647 24.824 44.3874 24.4513 44.0147 24.174C43.642 23.888 43.174 23.745 42.6107 23.745C42.2207 23.745 41.8697 23.8187 41.5577 23.966C41.2544 24.1133 40.9944 24.3257 40.7777 24.603C40.5697 24.8717 40.4094 25.1967 40.2967 25.578C40.184 25.9507 40.1277 26.371 40.1277 26.839V28.191C40.1277 29.127 40.3444 29.8593 40.7777 30.388C41.211 30.9167 41.822 31.181 42.6107 31.181C43.1914 31.181 43.6767 31.0337 44.0667 30.739C44.4567 30.4357 44.7427 30.037 44.9247 29.543L45.7957 30.089C45.5097 30.7303 45.098 31.2373 44.5607 31.61C44.0234 31.974 43.3734 32.156 42.6107 32.156ZM49.2289 32H48.1369V22.926H51.7509C52.5483 22.926 53.1679 23.147 53.6099 23.589C54.0606 24.031 54.2859 24.668 54.2859 25.5C54.2859 26.1673 54.1299 26.7177 53.8179 27.151C53.5146 27.5757 53.0639 27.8573 52.4659 27.996L54.5459 32H53.3109L51.3479 28.1H49.2289V32ZM51.7509 27.164C52.1843 27.164 52.5179 27.0513 52.7519 26.826C52.9946 26.6007 53.1159 26.28 53.1159 25.864V25.188C53.1159 24.772 52.9946 24.4513 52.7519 24.226C52.5179 24.0007 52.1843 23.888 51.7509 23.888H49.2289V27.164H51.7509ZM60.3684 32.156C59.7791 32.156 59.2461 32.0563 58.7694 31.857C58.3014 31.649 57.8984 31.35 57.5604 30.96C57.2311 30.5613 56.9754 30.0717 56.7934 29.491C56.6114 28.9017 56.5204 28.2257 56.5204 27.463C56.5204 26.7003 56.6114 26.0287 56.7934 25.448C56.9754 24.8673 57.2311 24.3777 57.5604 23.979C57.8984 23.5803 58.3014 23.2813 58.7694 23.082C59.2461 22.874 59.7791 22.77 60.3684 22.77C60.9491 22.77 61.4777 22.874 61.9544 23.082C62.4311 23.2813 62.8341 23.5803 63.1634 23.979C63.5014 24.3777 63.7614 24.8673 63.9434 25.448C64.1254 26.0287 64.2164 26.7003 64.2164 27.463C64.2164 28.2257 64.1254 28.9017 63.9434 29.491C63.7614 30.0717 63.5014 30.5613 63.1634 30.96C62.8341 31.35 62.4311 31.649 61.9544 31.857C61.4777 32.0563 60.9491 32.156 60.3684 32.156ZM60.3684 31.181C60.7584 31.181 61.1181 31.1117 61.4474 30.973C61.7767 30.8343 62.0584 30.635 62.2924 30.375C62.5351 30.115 62.7214 29.803 62.8514 29.439C62.9814 29.075 63.0464 28.6677 63.0464 28.217V26.709C63.0464 26.2583 62.9814 25.851 62.8514 25.487C62.7214 25.123 62.5351 24.811 62.2924 24.551C62.0584 24.291 61.7767 24.0917 61.4474 23.953C61.1181 23.8143 60.7584 23.745 60.3684 23.745C59.9784 23.745 59.6187 23.8143 59.2894 23.953C58.9601 24.0917 58.6741 24.291 58.4314 24.551C58.1974 24.811 58.0154 25.123 57.8854 25.487C57.7554 25.851 57.6904 26.2583 57.6904 26.709V28.217C57.6904 28.6677 57.7554 29.075 57.8854 29.439C58.0154 29.803 58.1974 30.115 58.4314 30.375C58.6741 30.635 58.9601 30.8343 59.2894 30.973C59.6187 31.1117 59.9784 31.181 60.3684 31.181ZM66.8295 32V22.926H67.9215V31.038H71.7825V32H66.8295ZM73.9922 32V22.926H75.0842V31.038H78.9452V32H73.9922ZM84.8772 22.926H87.9192C88.4825 22.926 88.9938 23.0213 89.4532 23.212C89.9125 23.4027 90.3025 23.6887 90.6232 24.07C90.9525 24.4427 91.2038 24.915 91.3772 25.487C91.5505 26.0503 91.6372 26.709 91.6372 27.463C91.6372 28.217 91.5505 28.88 91.3772 29.452C91.2038 30.0153 90.9525 30.4877 90.6232 30.869C90.3025 31.2417 89.9125 31.5233 89.4532 31.714C88.9938 31.9047 88.4825 32 87.9192 32H84.8772V22.926ZM87.9192 31.038C88.2918 31.038 88.6342 30.9773 88.9462 30.856C89.2582 30.726 89.5268 30.5397 89.7522 30.297C89.9775 30.0543 90.1508 29.7597 90.2722 29.413C90.4022 29.0577 90.4672 28.6547 90.4672 28.204V26.722C90.4672 26.2713 90.4022 25.8727 90.2722 25.526C90.1508 25.1707 89.9775 24.8717 89.7522 24.629C89.5268 24.3863 89.2582 24.2043 88.9462 24.083C88.6342 23.953 88.2918 23.888 87.9192 23.888H85.9692V31.038H87.9192ZM97.6418 32.156C97.0525 32.156 96.5195 32.0563 96.0428 31.857C95.5748 31.649 95.1718 31.35 94.8338 30.96C94.5045 30.5613 94.2488 30.0717 94.0668 29.491C93.8848 28.9017 93.7938 28.2257 93.7938 27.463C93.7938 26.7003 93.8848 26.0287 94.0668 25.448C94.2488 24.8673 94.5045 24.3777 94.8338 23.979C95.1718 23.5803 95.5748 23.2813 96.0428 23.082C96.5195 22.874 97.0525 22.77 97.6418 22.77C98.2225 22.77 98.7512 22.874 99.2278 23.082C99.7045 23.2813 100.108 23.5803 100.437 23.979C100.775 24.3777 101.035 24.8673 101.217 25.448C101.399 26.0287 101.49 26.7003 101.49 27.463C101.49 28.2257 101.399 28.9017 101.217 29.491C101.035 30.0717 100.775 30.5613 100.437 30.96C100.108 31.35 99.7045 31.649 99.2278 31.857C98.7512 32.0563 98.2225 32.156 97.6418 32.156ZM97.6418 31.181C98.0318 31.181 98.3915 31.1117 98.7208 30.973C99.0502 30.8343 99.3318 30.635 99.5658 30.375C99.8085 30.115 99.9948 29.803 100.125 29.439C100.255 29.075 100.32 28.6677 100.32 28.217V26.709C100.32 26.2583 100.255 25.851 100.125 25.487C99.9948 25.123 99.8085 24.811 99.5658 24.551C99.3318 24.291 99.0502 24.0917 98.7208 23.953C98.3915 23.8143 98.0318 23.745 97.6418 23.745C97.2518 23.745 96.8922 23.8143 96.5628 23.953C96.2335 24.0917 95.9475 24.291 95.7048 24.551C95.4708 24.811 95.2888 25.123 95.1588 25.487C95.0288 25.851 94.9638 26.2583 94.9638 26.709V28.217C94.9638 28.6677 95.0288 29.075 95.1588 29.439C95.2888 29.803 95.4708 30.115 95.7048 30.375C95.9475 30.635 96.2335 30.8343 96.5628 30.973C96.8922 31.1117 97.2518 31.181 97.6418 31.181ZM105.364 32L103.154 22.926H104.311L105.286 27.294L106.04 30.687H106.066L106.911 27.294L108.055 22.926H109.303L110.408 27.294L111.253 30.674H111.292L112.072 27.294L113.099 22.926H114.217L111.89 32H110.681L109.498 27.476L108.666 24.148H108.64L107.782 27.476L106.573 32H105.364ZM118.528 26.462L117.436 24.447H117.397V32H116.331V22.926H117.592L120.907 28.464L121.999 30.479H122.038V22.926H123.104V32H121.843L118.528 26.462Z" fill="#EBECF1"/>
<path d="M148.061 13.0607C148.646 12.4749 148.646 11.5251 148.061 10.9393L138.515 1.3934C137.929 0.807612 136.979 0.807612 136.393 1.3934C135.808 1.97918 135.808 2.92893 136.393 3.51472L144.879 12L136.393 20.4853C135.808 21.0711 135.808 22.0208 136.393 22.6066C136.979 23.1924 137.929 23.1924 138.515 22.6066L148.061 13.0607ZM30 13.5L147 13.5V10.5L30 10.5V13.5Z" fill="#F8D554"/>
</svg>
