<svg width="198" height="378" viewBox="0 0 198 378" fill="none" xmlns="http://www.w3.org/2000/svg">
<rect y="12" width="184" height="366" fill="#1B1C25"/>
<path d="M36.9176 133.455V148H34.7159V135.656H34.6307L31.1506 137.929V135.827L34.7798 133.455H36.9176ZM47.3162 148.241C46.194 148.237 45.2352 147.941 44.4398 147.354C43.6443 146.767 43.0359 145.912 42.6145 144.79C42.1931 143.668 41.9824 142.316 41.9824 140.734C41.9824 139.158 42.1931 137.811 42.6145 136.693C43.0406 135.576 43.6514 134.723 44.4469 134.136C45.2471 133.549 46.2035 133.256 47.3162 133.256C48.4289 133.256 49.383 133.552 50.1784 134.143C50.9739 134.731 51.5823 135.583 52.0037 136.7C52.4298 137.813 52.6429 139.158 52.6429 140.734C52.6429 142.321 52.4322 143.675 52.0108 144.797C51.5894 145.914 50.981 146.769 50.1855 147.361C49.3901 147.948 48.4336 148.241 47.3162 148.241ZM47.3162 146.345C48.301 146.345 49.0705 145.865 49.6244 144.903C50.1831 143.942 50.4625 142.553 50.4625 140.734C50.4625 139.527 50.3347 138.507 50.079 137.673C49.828 136.835 49.4658 136.201 48.9923 135.77C48.5236 135.334 47.9649 135.116 47.3162 135.116C46.3361 135.116 45.5667 135.599 45.008 136.565C44.4492 137.531 44.1675 138.921 44.1628 140.734C44.1628 141.946 44.2883 142.972 44.5392 143.81C44.7949 144.643 45.1571 145.275 45.6259 145.706C46.0946 146.132 46.658 146.345 47.3162 146.345ZM62.3321 133.455H64.825L68.6247 140.067H68.781L72.5807 133.455H75.0736L69.7966 142.29V148H67.6091V142.29L62.3321 133.455ZM78.5457 148V133.455H87.665V135.344H80.7403V139.776H87.1891V141.658H80.7403V146.111H87.7502V148H78.5457ZM93.2251 148H90.8956L96.13 133.455H98.6655L103.9 148H101.57L97.4581 136.097H97.3445L93.2251 148ZM93.6158 142.304H101.173V144.151H93.6158V142.304ZM107.4 148V133.455H112.585C113.712 133.455 114.647 133.649 115.39 134.037C116.139 134.425 116.697 134.963 117.067 135.649C117.436 136.331 117.621 137.119 117.621 138.014C117.621 138.904 117.434 139.688 117.059 140.365C116.69 141.037 116.131 141.561 115.383 141.935C114.64 142.309 113.705 142.496 112.578 142.496H108.65V140.607H112.379C113.089 140.607 113.667 140.505 114.112 140.301C114.562 140.098 114.891 139.802 115.099 139.413C115.308 139.025 115.412 138.559 115.412 138.014C115.412 137.465 115.305 136.989 115.092 136.587C114.884 136.184 114.555 135.876 114.105 135.663C113.66 135.446 113.075 135.337 112.351 135.337H109.595V148H107.4ZM114.581 141.438L118.175 148H115.675L112.152 141.438H114.581ZM129.624 137.276C129.548 136.603 129.236 136.082 128.687 135.713C128.137 135.339 127.446 135.152 126.613 135.152C126.016 135.152 125.5 135.247 125.065 135.436C124.629 135.621 124.29 135.876 124.049 136.203C123.812 136.525 123.694 136.892 123.694 137.304C123.694 137.65 123.774 137.948 123.935 138.199C124.101 138.45 124.316 138.661 124.582 138.831C124.851 138.997 125.14 139.136 125.448 139.25C125.756 139.359 126.052 139.449 126.336 139.52L127.756 139.889C128.22 140.003 128.696 140.157 129.184 140.351C129.672 140.545 130.124 140.801 130.54 141.118C130.957 141.435 131.293 141.828 131.549 142.297C131.809 142.766 131.94 143.327 131.94 143.98C131.94 144.804 131.726 145.536 131.3 146.175C130.879 146.814 130.266 147.318 129.461 147.688C128.661 148.057 127.692 148.241 126.556 148.241C125.467 148.241 124.525 148.069 123.729 147.723C122.934 147.377 122.311 146.887 121.861 146.253C121.412 145.614 121.163 144.856 121.116 143.98H123.317C123.36 144.506 123.53 144.944 123.829 145.294C124.132 145.64 124.518 145.898 124.986 146.068C125.46 146.234 125.978 146.317 126.542 146.317C127.162 146.317 127.714 146.22 128.197 146.026C128.684 145.827 129.068 145.552 129.347 145.202C129.627 144.847 129.766 144.432 129.766 143.959C129.766 143.528 129.643 143.175 129.397 142.901C129.155 142.626 128.826 142.399 128.41 142.219C127.998 142.039 127.531 141.88 127.011 141.743L125.292 141.274C124.127 140.957 123.204 140.491 122.522 139.875C121.845 139.259 121.506 138.445 121.506 137.432C121.506 136.594 121.734 135.862 122.188 135.237C122.643 134.612 123.258 134.127 124.035 133.781C124.811 133.431 125.687 133.256 126.663 133.256C127.647 133.256 128.516 133.429 129.269 133.774C130.027 134.12 130.623 134.596 131.059 135.202C131.494 135.803 131.722 136.494 131.741 137.276H129.624ZM31.598 172V157.455H33.7926V170.111H40.3835V172H31.598ZM46.258 172H43.9284L49.1628 157.455H51.6983L56.9327 172H54.6031L50.4909 160.097H50.3773L46.258 172ZM46.6486 166.304H54.2054V168.151H46.6486V166.304ZM68.2492 161.276C68.1735 160.603 67.861 160.082 67.3117 159.713C66.7625 159.339 66.0712 159.152 65.2379 159.152C64.6413 159.152 64.1252 159.247 63.6896 159.436C63.254 159.621 62.9154 159.876 62.6739 160.203C62.4372 160.525 62.3188 160.892 62.3188 161.304C62.3188 161.65 62.3993 161.948 62.5603 162.199C62.726 162.45 62.9415 162.661 63.2066 162.831C63.4765 162.997 63.7653 163.136 64.0731 163.25C64.3808 163.359 64.6768 163.449 64.9609 163.52L66.3813 163.889C66.8453 164.003 67.3212 164.157 67.8089 164.351C68.2966 164.545 68.7487 164.801 69.1654 165.118C69.5821 165.435 69.9183 165.828 70.1739 166.297C70.4344 166.766 70.5646 167.327 70.5646 167.98C70.5646 168.804 70.3515 169.536 69.9254 170.175C69.504 170.814 68.8908 171.318 68.0859 171.688C67.2857 172.057 66.3174 172.241 65.181 172.241C64.092 172.241 63.1498 172.069 62.3543 171.723C61.5589 171.377 60.9362 170.887 60.4864 170.253C60.0366 169.614 59.788 168.856 59.7407 167.98H61.9424C61.985 168.506 62.1555 168.944 62.4538 169.294C62.7568 169.64 63.1427 169.898 63.6114 170.068C64.0849 170.234 64.6034 170.317 65.1668 170.317C65.7871 170.317 66.3387 170.22 66.8217 170.026C67.3094 169.827 67.6929 169.552 67.9722 169.202C68.2516 168.847 68.3913 168.432 68.3913 167.959C68.3913 167.528 68.2682 167.175 68.0219 166.901C67.7805 166.626 67.4514 166.399 67.0347 166.219C66.6228 166.039 66.1564 165.88 65.6356 165.743L63.9168 165.274C62.7521 164.957 61.8288 164.491 61.1469 163.875C60.4699 163.259 60.1313 162.445 60.1313 161.432C60.1313 160.594 60.3586 159.862 60.8131 159.237C61.2677 158.612 61.8832 158.127 62.6597 157.781C63.4362 157.431 64.3122 157.256 65.2876 157.256C66.2724 157.256 67.1413 157.429 67.8941 157.774C68.6517 158.12 69.2483 158.596 69.6839 159.202C70.1195 159.803 70.3468 160.494 70.3657 161.276H68.2492ZM73.8697 159.344V157.455H85.1268V159.344H80.5885V172H78.401V159.344H73.8697ZM89.0144 172V157.455H98.1337V159.344H91.209V163.776H97.6579V165.658H91.209V170.111H98.219V172H89.0144ZM102.465 172V157.455H107.65C108.777 157.455 109.712 157.649 110.455 158.037C111.203 158.425 111.762 158.963 112.131 159.649C112.501 160.331 112.685 161.119 112.685 162.014C112.685 162.904 112.498 163.688 112.124 164.365C111.755 165.037 111.196 165.561 110.448 165.935C109.705 166.309 108.77 166.496 107.643 166.496H103.715V164.607H107.444C108.154 164.607 108.732 164.505 109.177 164.301C109.627 164.098 109.956 163.802 110.164 163.413C110.372 163.025 110.477 162.559 110.477 162.014C110.477 161.465 110.37 160.989 110.157 160.587C109.949 160.184 109.62 159.876 109.17 159.663C108.725 159.446 108.14 159.337 107.415 159.337H104.66V172H102.465ZM109.646 165.438L113.239 172H110.739L107.217 165.438H109.646Z" fill="#F8D554"/>
<path d="M33.93 91.61L32.67 89.285H32.625V98H31.395L31.395 87.53H32.85L36.675 93.92L37.935 96.245H37.98V87.53H39.21V98H37.755L33.93 91.61ZM43.0505 98V87.53H49.4405V88.64H44.3105V92.15H49.1405V93.26H44.3105V96.89H49.4405V98H43.0505ZM60.2856 98H58.7706L56.0256 93.605H55.9956L53.2506 98H51.8106L55.2306 92.675L51.9006 87.53H53.4156L56.0406 91.7H56.0706L58.7556 87.53H60.1956L56.8356 92.63L60.2856 98ZM66.6198 88.64V98H65.3598V88.64H62.0298V87.53H69.9498V88.64H66.6198Z" fill="#EBECF1"/>
<path d="M196 129V1.5H103" stroke="#F8D554" stroke-width="3"/>
</svg>
