<svg width="335" height="82" viewBox="0 0 335 82" fill="none" xmlns="http://www.w3.org/2000/svg">
<path d="M4.8582 37.8878H0.873557C0.291185 37.8878 0 37.5505 0 36.9601L0 1.66361C0 1.08095 0.291185 0.735962 0.873557 0.735962L4.8582 0.735962C5.44057 0.735962 5.73176 1.07329 5.73176 1.66361L5.73176 36.9678C5.73176 37.5505 5.44057 37.8955 4.8582 37.8955V37.8878Z" fill="#1B1C25"/>
<path d="M134.238 0L16.8516 0L16.8516 37.6041L134.238 37.6041V0Z" fill="#1B1C25"/>
<path d="M43.1187 29.4072L36.961 7.58904L41.2117 7.58904L45.1428 23.6224H45.3452L49.5427 7.58904H53.4099L57.618 23.6331H57.8097L61.7408 7.58904L65.9915 7.58904L59.8339 29.4072H55.9347L51.5668 14.0983H51.3964L47.0178 29.4072H43.1187ZM74.7845 7.58904V29.4072H70.8321V7.58904H74.7845ZM81.1646 29.4072V7.58904L85.117 7.58904V26.094H94.7263V29.4072L81.1646 29.4072ZM100.257 29.4072V7.58904L104.209 7.58904V26.094L113.819 26.094V29.4072L100.257 29.4072Z" fill="#EBECF1"/>
<path d="M160.26 55.54V73.06H158.32V55.54H160.26ZM154.46 55.82H156.38V72.58H154.46V63.6H152.94C152.847 65.2933 152.433 66.5733 151.7 67.44C150.98 68.2933 150.033 68.72 148.86 68.72C147.607 68.72 146.613 68.2267 145.88 67.24C145.147 66.2533 144.78 64.7933 144.78 62.86C144.78 60.9133 145.147 59.4533 145.88 58.48C146.613 57.4933 147.607 57 148.86 57C150.02 57 150.953 57.4133 151.66 58.24C152.38 59.0533 152.8 60.28 152.92 61.92H154.46V55.82ZM150.9 61.6C150.9 60.6267 150.713 59.8867 150.34 59.38C149.967 58.86 149.473 58.6 148.86 58.6C148.247 58.6 147.753 58.86 147.38 59.38C147.02 59.8867 146.84 60.6267 146.84 61.6V64.12C146.84 65.0933 147.02 65.84 147.38 66.36C147.753 66.8667 148.247 67.12 148.86 67.12C149.487 67.12 149.98 66.8667 150.34 66.36C150.713 65.84 150.9 65.0933 150.9 64.12V61.6ZM186.479 66.04H179.279V73.72H177.259V66.04H170.079V64.32H181.519C181.932 62.3067 182.159 60.2 182.199 58H172.219V56.3H184.199V57.64C184.199 59.8933 183.972 62.12 183.519 64.32H186.479V66.04ZM204.851 55.54V73.06H202.911V63.82H200.851V72.58H198.931V55.82H200.851V62.16H202.911V55.54H204.851ZM197.711 62.86C197.711 64.7933 197.337 66.2533 196.591 67.24C195.857 68.2267 194.851 68.72 193.571 68.72C192.304 68.72 191.297 68.2267 190.551 67.24C189.817 66.2533 189.451 64.7933 189.451 62.86C189.451 60.9133 189.817 59.4533 190.551 58.48C191.297 57.4933 192.304 57 193.571 57C194.851 57 195.857 57.4933 196.591 58.48C197.337 59.4533 197.711 60.9133 197.711 62.86ZM195.631 61.62C195.631 60.6467 195.444 59.9067 195.071 59.4C194.697 58.88 194.197 58.62 193.571 58.62C192.957 58.62 192.464 58.88 192.091 59.4C191.717 59.9067 191.531 60.6467 191.531 61.62V64.1C191.531 65.0733 191.717 65.82 192.091 66.34C192.464 66.86 192.957 67.12 193.571 67.12C194.197 67.12 194.697 66.86 195.071 66.34C195.444 65.82 195.631 65.0733 195.631 64.1V61.62ZM225.463 59.8V61.5H222.743V65.7H220.723V55.54H222.743V59.8H225.463ZM217.403 64.82H209.023V56.34H211.003V59.02H215.423V56.32H217.403V64.82ZM215.423 60.64H211.003V63.2H215.423V60.64ZM213.843 72.08H223.043V73.8H213.083C212.656 73.8 212.329 73.6867 212.103 73.46C211.889 73.2333 211.783 72.9067 211.783 72.48V66.84H222.823V68.54H213.843V72.08ZM242.855 55.54V73.06H240.815V55.54H242.855ZM234.715 63.08C234.941 63.08 235.135 63.1733 235.295 63.36L238.895 67.52L237.355 68.84L233.695 64.42C233.601 64.3267 233.515 64.28 233.435 64.28C233.355 64.28 233.281 64.32 233.215 64.4C232.855 65.0933 232.388 65.8067 231.815 66.54C231.241 67.26 230.488 68.12 229.555 69.12L228.015 67.86C229.108 66.7667 229.968 65.78 230.595 64.9C231.221 64.02 231.675 63.1467 231.955 62.28C232.248 61.4 232.395 60.4333 232.395 59.38V58.78H228.655V57.08H238.155V58.78H234.435V59.46C234.435 60.9667 234.175 62.32 233.655 63.52L233.755 63.6L234.175 63.28C234.375 63.1467 234.555 63.08 234.715 63.08ZM270.053 59.32V61.02H267.333V64.58H265.313V55.54H267.333V59.32H270.053ZM257.833 64.76C256.94 64.76 256.14 64.5867 255.433 64.24C254.727 63.88 254.173 63.3733 253.773 62.72C253.387 62.0667 253.193 61.3067 253.193 60.44C253.193 59.5733 253.387 58.8133 253.773 58.16C254.173 57.5067 254.727 57.0067 255.433 56.66C256.14 56.3 256.94 56.12 257.833 56.12C258.74 56.12 259.54 56.3 260.233 56.66C260.94 57.0067 261.487 57.5067 261.873 58.16C262.273 58.8133 262.473 59.5733 262.473 60.44C262.473 61.3067 262.273 62.0667 261.873 62.72C261.487 63.3733 260.94 63.88 260.233 64.24C259.54 64.5867 258.74 64.76 257.833 64.76ZM257.833 63.14C258.593 63.14 259.207 62.9267 259.673 62.5C260.14 62.0733 260.373 61.5 260.373 60.78V60.08C260.373 59.36 260.14 58.7933 259.673 58.38C259.207 57.9533 258.593 57.74 257.833 57.74C257.073 57.74 256.46 57.9533 255.993 58.38C255.54 58.7933 255.313 59.36 255.313 60.08V60.78C255.313 61.5 255.54 62.0733 255.993 62.5C256.46 62.9267 257.073 63.14 257.833 63.14ZM262.333 67.12V65.54H266.593V67.12H262.333ZM260.093 71.04L260.573 72.72C260.067 72.9467 259.447 73.14 258.713 73.3C257.98 73.46 257.253 73.54 256.533 73.54H256.193C255.767 73.54 255.44 73.4267 255.213 73.2C255 72.9733 254.893 72.6467 254.893 72.22V66.3H256.773V71.72H257.013C257.507 71.72 258.053 71.6467 258.653 71.5C259.253 71.3533 259.733 71.2 260.093 71.04ZM260.153 68.26H268.813V69.78H266.593V69.9C267.407 70.2733 267.813 70.9 267.813 71.78C267.813 72.2067 267.68 72.6 267.413 72.96C267.147 73.3333 266.76 73.6267 266.253 73.84C265.747 74.0667 265.153 74.18 264.473 74.18C263.793 74.18 263.2 74.0667 262.693 73.84C262.187 73.6267 261.8 73.3333 261.533 72.96C261.267 72.6 261.133 72.2067 261.133 71.78C261.133 70.9 261.54 70.2733 262.353 69.9V69.78H260.153V68.26ZM266.133 71.28C266.133 70.8533 265.987 70.52 265.693 70.28C265.413 70.0267 265.04 69.9 264.573 69.9H264.373C263.907 69.9 263.527 70.0267 263.233 70.28C262.953 70.52 262.813 70.8533 262.813 71.28C262.813 71.6933 262.953 72.0267 263.233 72.28C263.527 72.5333 263.907 72.66 264.373 72.66H264.573C265.04 72.66 265.413 72.5333 265.693 72.28C265.987 72.0267 266.133 71.6933 266.133 71.28ZM286.485 62.62H274.825V56.2H276.845V60.96H286.485V62.62ZM288.765 64.52V66.26H272.365V64.52H288.765ZM276.705 71.72H286.685V73.4H275.965C275.539 73.4 275.212 73.2867 274.985 73.06C274.772 72.8333 274.665 72.5067 274.665 72.08V67.84H276.705V71.72ZM314.644 63.9H311.844V73.08H309.824V55.56H311.844V62.2H314.644V63.9ZM304.044 62.72C304.244 62.72 304.424 62.8133 304.584 63L308.184 67.64L306.604 68.96L302.984 64.12C302.944 64.04 302.877 64 302.784 64C302.717 64 302.651 64.04 302.584 64.12C302.224 64.88 301.757 65.6533 301.184 66.44C300.611 67.2267 299.864 68.1667 298.944 69.26L297.404 67.96C298.497 66.7333 299.344 65.6533 299.944 64.72C300.557 63.7867 301.004 62.8533 301.284 61.92C301.577 60.9733 301.724 59.9133 301.724 58.74V56.7H303.764V58.72C303.764 60.4 303.517 61.88 303.024 63.16L303.124 63.24L303.504 62.94C303.691 62.7933 303.871 62.72 304.044 62.72ZM333.876 59.96V61.66H331.136V66.26H329.116V55.54H331.136V59.96H333.876ZM327.496 65.14C325.363 65.54 322.723 65.74 319.576 65.74H317.636V60.16H323.616V58.06H317.576V56.42H325.556V61.78H319.556V64.12H319.696C322.563 64.12 325.076 63.9267 327.236 63.54L327.496 65.14ZM320.056 67.18H331.156V73.78H321.356C320.929 73.78 320.603 73.6667 320.376 73.44C320.163 73.2133 320.056 72.8867 320.056 72.46V67.18ZM322.096 72.12H329.116V68.86H322.096V72.12Z" fill="#1B1C25"/>
<path d="M50.7436 75L44.5859 53.1818H48.8366L52.7678 69.2152H52.9702L57.1676 53.1818H61.0348L65.2429 69.2259H65.4347L69.3658 53.1818H73.6165L67.4588 75H63.5597L59.1918 59.6911H59.0213L54.6428 75H50.7436ZM82.1431 65.4119V75H78.2866V53.1818H82.0579V61.4169H82.2497C82.6332 60.4936 83.2262 59.7656 84.0288 59.233C84.8385 58.6932 85.8683 58.4233 87.1183 58.4233C88.2547 58.4233 89.2454 58.6612 90.0906 59.1371C90.9358 59.6129 91.5892 60.3089 92.0508 61.2251C92.5196 62.1413 92.7539 63.2599 92.7539 64.581V75H88.8974V65.1776C88.8974 64.0767 88.6133 63.2209 88.0451 62.6101C87.4841 61.9922 86.6957 61.6832 85.6801 61.6832C84.9983 61.6832 84.3875 61.8324 83.8477 62.1307C83.315 62.4219 82.896 62.8445 82.5906 63.3984C82.2923 63.9524 82.1431 64.6236 82.1431 65.4119ZM103.494 75.3303C102.457 75.3303 101.523 75.1456 100.692 74.7763C99.8681 74.3999 99.2147 73.8459 98.7318 73.1143C98.2559 72.3828 98.018 71.4808 98.018 70.4084C98.018 69.4851 98.1885 68.7216 98.5294 68.1179C98.8703 67.5142 99.3355 67.0312 99.925 66.669C100.514 66.3068 101.179 66.0334 101.917 65.8487C102.663 65.657 103.433 65.5185 104.229 65.4332C105.188 65.3338 105.965 65.245 106.562 65.1669C107.159 65.0817 107.592 64.9538 107.862 64.7834C108.139 64.6058 108.277 64.3324 108.277 63.9631V63.8991C108.277 63.0966 108.039 62.4751 107.563 62.0348C107.088 61.5945 106.402 61.3743 105.507 61.3743C104.563 61.3743 103.813 61.5803 103.259 61.9922C102.713 62.4041 102.343 62.8906 102.152 63.4517L98.5507 62.9403C98.8348 61.946 99.3035 61.1151 99.9569 60.4474C100.61 59.7727 101.409 59.2685 102.354 58.9347C103.299 58.5938 104.343 58.4233 105.486 58.4233C106.274 58.4233 107.059 58.5156 107.84 58.7003C108.622 58.8849 109.335 59.1903 109.982 59.6165C110.628 60.0355 111.147 60.6072 111.537 61.3317C111.935 62.0561 112.134 62.9616 112.134 64.0483V75H108.426V72.7521H108.299C108.064 73.2067 107.734 73.6328 107.308 74.0305C106.889 74.4212 106.36 74.7372 105.72 74.9787C105.088 75.2131 104.346 75.3303 103.494 75.3303ZM104.495 72.4964C105.269 72.4964 105.941 72.3437 106.509 72.0384C107.077 71.7259 107.514 71.3139 107.819 70.8026C108.132 70.2912 108.288 69.7337 108.288 69.13V67.2017C108.167 67.3011 107.961 67.3935 107.67 67.4787C107.386 67.5639 107.066 67.6385 106.711 67.7024C106.356 67.7663 106.005 67.8232 105.656 67.8729C105.308 67.9226 105.007 67.9652 104.751 68.0007C104.176 68.0788 103.661 68.2067 103.206 68.3842C102.752 68.5618 102.393 68.8104 102.13 69.13C101.867 69.4425 101.736 69.8473 101.736 70.3445C101.736 71.0547 101.995 71.5909 102.514 71.9531C103.032 72.3153 103.693 72.4964 104.495 72.4964ZM126.283 58.6364V61.6193H116.876V58.6364H126.283ZM119.198 54.7159H123.055V70.0781C123.055 70.5966 123.133 70.9943 123.289 71.2713C123.453 71.5412 123.666 71.7259 123.928 71.8253C124.191 71.9247 124.482 71.9744 124.802 71.9744C125.043 71.9744 125.264 71.9567 125.462 71.9212C125.668 71.8857 125.825 71.8537 125.931 71.8253L126.581 74.8402C126.375 74.9112 126.08 74.9893 125.697 75.0746C125.32 75.1598 124.859 75.2095 124.312 75.2237C123.346 75.2521 122.476 75.1065 121.702 74.7869C120.928 74.4602 120.313 73.956 119.859 73.2741C119.411 72.5923 119.191 71.7401 119.198 70.7173V54.7159Z" fill="#1B1C25"/>
</svg>
