<svg width="198" height="378" viewBox="0 0 198 378" fill="none" xmlns="http://www.w3.org/2000/svg">
<rect y="12" width="184" height="366" fill="#1B1C25"/>
<path d="M36.2003 148.199C35.3101 148.199 34.5099 148.028 33.7997 147.688C33.0942 147.342 32.5308 146.868 32.1094 146.267C31.688 145.666 31.4631 144.979 31.4347 144.207H33.5653C33.6174 144.832 33.8944 145.346 34.3963 145.749C34.8982 146.151 35.4995 146.352 36.2003 146.352C36.759 146.352 37.2538 146.224 37.6847 145.969C38.1203 145.708 38.4612 145.351 38.7074 144.896C38.9583 144.442 39.0838 143.923 39.0838 143.341C39.0838 142.749 38.956 142.221 38.7003 141.757C38.4446 141.293 38.0919 140.929 37.642 140.663C37.197 140.398 36.6856 140.263 36.108 140.259C35.6676 140.259 35.2249 140.334 34.7798 140.486C34.3348 140.637 33.9749 140.836 33.7003 141.082L31.6903 140.784L32.5071 133.455H40.5043V135.337H34.3324L33.8707 139.406H33.956C34.2401 139.132 34.6165 138.902 35.0852 138.717C35.5587 138.533 36.0653 138.44 36.6051 138.44C37.4905 138.44 38.2789 138.651 38.9702 139.072C39.6662 139.494 40.2131 140.069 40.6108 140.798C41.0133 141.523 41.2121 142.356 41.2074 143.298C41.2121 144.241 40.9991 145.081 40.5682 145.82C40.142 146.558 39.5502 147.141 38.7926 147.567C38.0398 147.988 37.1757 148.199 36.2003 148.199ZM50.9712 133.455H53.4641L57.2638 140.067H57.42L61.2197 133.455H63.7126L58.4357 142.29V148H56.2482V142.29L50.9712 133.455ZM67.1847 148V133.455H76.304V135.344H69.3793V139.776H75.8282V141.658H69.3793V146.111H76.3893V148H67.1847ZM81.8642 148H79.5347L84.769 133.455H87.3045L92.5389 148H90.2094L86.0972 136.097H85.9835L81.8642 148ZM82.2548 142.304H89.8116V144.151H82.2548V142.304ZM96.0394 148V133.455H101.224C102.351 133.455 103.286 133.649 104.029 134.037C104.778 134.425 105.336 134.963 105.706 135.649C106.075 136.331 106.26 137.119 106.26 138.014C106.26 138.904 106.073 139.688 105.699 140.365C105.329 141.037 104.77 141.561 104.022 141.935C103.279 142.309 102.344 142.496 101.217 142.496H97.2894V140.607H101.018C101.728 140.607 102.306 140.505 102.751 140.301C103.201 140.098 103.53 139.802 103.738 139.413C103.947 139.025 104.051 138.559 104.051 138.014C104.051 137.465 103.944 136.989 103.731 136.587C103.523 136.184 103.194 135.876 102.744 135.663C102.299 135.446 101.714 135.337 100.99 135.337H98.234V148H96.0394ZM103.22 141.438L106.814 148H104.314L100.791 141.438H103.22ZM118.263 137.276C118.188 136.603 117.875 136.082 117.326 135.713C116.777 135.339 116.085 135.152 115.252 135.152C114.655 135.152 114.139 135.247 113.704 135.436C113.268 135.621 112.929 135.876 112.688 136.203C112.451 136.525 112.333 136.892 112.333 137.304C112.333 137.65 112.413 137.948 112.574 138.199C112.74 138.45 112.956 138.661 113.221 138.831C113.491 138.997 113.779 139.136 114.087 139.25C114.395 139.359 114.691 139.449 114.975 139.52L116.395 139.889C116.859 140.003 117.335 140.157 117.823 140.351C118.311 140.545 118.763 140.801 119.179 141.118C119.596 141.435 119.932 141.828 120.188 142.297C120.448 142.766 120.579 143.327 120.579 143.98C120.579 144.804 120.366 145.536 119.939 146.175C119.518 146.814 118.905 147.318 118.1 147.688C117.3 148.057 116.331 148.241 115.195 148.241C114.106 148.241 113.164 148.069 112.368 147.723C111.573 147.377 110.95 146.887 110.5 146.253C110.051 145.614 109.802 144.856 109.755 143.98H111.956C111.999 144.506 112.17 144.944 112.468 145.294C112.771 145.64 113.157 145.898 113.625 146.068C114.099 146.234 114.617 146.317 115.181 146.317C115.801 146.317 116.353 146.22 116.836 146.026C117.323 145.827 117.707 145.552 117.986 145.202C118.266 144.847 118.405 144.432 118.405 143.959C118.405 143.528 118.282 143.175 118.036 142.901C117.795 142.626 117.465 142.399 117.049 142.219C116.637 142.039 116.17 141.88 115.65 141.743L113.931 141.274C112.766 140.957 111.843 140.491 111.161 139.875C110.484 139.259 110.145 138.445 110.145 137.432C110.145 136.594 110.373 135.862 110.827 135.237C111.282 134.612 111.897 134.127 112.674 133.781C113.45 133.431 114.326 133.256 115.302 133.256C116.286 133.256 117.155 133.429 117.908 133.774C118.666 134.12 119.262 134.596 119.698 135.202C120.134 135.803 120.361 136.494 120.38 137.276H118.263ZM31.598 172V157.455H33.7926V170.111H40.3835V172H31.598ZM46.258 172H43.9284L49.1628 157.455H51.6983L56.9327 172H54.6031L50.4909 160.097H50.3773L46.258 172ZM46.6486 166.304H54.2054V168.151H46.6486V166.304ZM68.2492 161.276C68.1735 160.603 67.861 160.082 67.3117 159.713C66.7625 159.339 66.0712 159.152 65.2379 159.152C64.6413 159.152 64.1252 159.247 63.6896 159.436C63.254 159.621 62.9154 159.876 62.6739 160.203C62.4372 160.525 62.3188 160.892 62.3188 161.304C62.3188 161.65 62.3993 161.948 62.5603 162.199C62.726 162.45 62.9415 162.661 63.2066 162.831C63.4765 162.997 63.7653 163.136 64.0731 163.25C64.3808 163.359 64.6768 163.449 64.9609 163.52L66.3813 163.889C66.8453 164.003 67.3212 164.157 67.8089 164.351C68.2966 164.545 68.7487 164.801 69.1654 165.118C69.5821 165.435 69.9183 165.828 70.1739 166.297C70.4344 166.766 70.5646 167.327 70.5646 167.98C70.5646 168.804 70.3515 169.536 69.9254 170.175C69.504 170.814 68.8908 171.318 68.0859 171.688C67.2857 172.057 66.3174 172.241 65.181 172.241C64.092 172.241 63.1498 172.069 62.3543 171.723C61.5589 171.377 60.9362 170.887 60.4864 170.253C60.0366 169.614 59.788 168.856 59.7407 167.98H61.9424C61.985 168.506 62.1555 168.944 62.4538 169.294C62.7568 169.64 63.1427 169.898 63.6114 170.068C64.0849 170.234 64.6034 170.317 65.1668 170.317C65.7871 170.317 66.3387 170.22 66.8217 170.026C67.3094 169.827 67.6929 169.552 67.9722 169.202C68.2516 168.847 68.3913 168.432 68.3913 167.959C68.3913 167.528 68.2682 167.175 68.0219 166.901C67.7805 166.626 67.4514 166.399 67.0347 166.219C66.6228 166.039 66.1564 165.88 65.6356 165.743L63.9168 165.274C62.7521 164.957 61.8288 164.491 61.1469 163.875C60.4699 163.259 60.1313 162.445 60.1313 161.432C60.1313 160.594 60.3586 159.862 60.8131 159.237C61.2677 158.612 61.8832 158.127 62.6597 157.781C63.4362 157.431 64.3122 157.256 65.2876 157.256C66.2724 157.256 67.1413 157.429 67.8941 157.774C68.6517 158.12 69.2483 158.596 69.6839 159.202C70.1195 159.803 70.3468 160.494 70.3657 161.276H68.2492ZM73.8697 159.344V157.455H85.1268V159.344H80.5885V172H78.401V159.344H73.8697ZM89.0144 172V157.455H98.1337V159.344H91.209V163.776H97.6579V165.658H91.209V170.111H98.219V172H89.0144ZM102.465 172V157.455H107.65C108.777 157.455 109.712 157.649 110.455 158.037C111.203 158.425 111.762 158.963 112.131 159.649C112.501 160.331 112.685 161.119 112.685 162.014C112.685 162.904 112.498 163.688 112.124 164.365C111.755 165.037 111.196 165.561 110.448 165.935C109.705 166.309 108.77 166.496 107.643 166.496H103.715V164.607H107.444C108.154 164.607 108.732 164.505 109.177 164.301C109.627 164.098 109.956 163.802 110.164 163.413C110.372 163.025 110.477 162.559 110.477 162.014C110.477 161.465 110.37 160.989 110.157 160.587C109.949 160.184 109.62 159.876 109.17 159.663C108.725 159.446 108.14 159.337 107.415 159.337H104.66V172H102.465ZM109.646 165.438L113.239 172H110.739L107.217 165.438H109.646Z" fill="#F8D554"/>
<path d="M33.93 91.61L32.67 89.285H32.625V98H31.395L31.395 87.53H32.85L36.675 93.92L37.935 96.245H37.98V87.53H39.21V98H37.755L33.93 91.61ZM43.0505 98V87.53H49.4405V88.64H44.3105V92.15H49.1405V93.26H44.3105V96.89H49.4405V98H43.0505ZM60.2856 98H58.7706L56.0256 93.605H55.9956L53.2506 98H51.8106L55.2306 92.675L51.9006 87.53H53.4156L56.0406 91.7H56.0706L58.7556 87.53H60.1956L56.8356 92.63L60.2856 98ZM66.6198 88.64V98H65.3598V88.64H62.0298V87.53H69.9498V88.64H66.6198Z" fill="#EBECF1"/>
<path d="M196 129V1.5H103" stroke="#F8D554" stroke-width="3"/>
</svg>
