<svg width="151" height="32" viewBox="0 0 151 32" fill="none" xmlns="http://www.w3.org/2000/svg">
<path d="M88.468 27.144C87.788 27.144 87.208 27.016 86.728 26.76C86.248 26.496 85.84 26.136 85.504 25.68L86.248 25.056C86.544 25.448 86.872 25.748 87.232 25.956C87.592 26.156 88.016 26.256 88.504 26.256C89.104 26.256 89.56 26.112 89.872 25.824C90.192 25.536 90.352 25.152 90.352 24.672C90.352 24.272 90.232 23.964 89.992 23.748C89.752 23.532 89.356 23.36 88.804 23.232L88.12 23.076C87.352 22.9 86.764 22.636 86.356 22.284C85.956 21.924 85.756 21.42 85.756 20.772C85.756 20.404 85.824 20.076 85.96 19.788C86.096 19.5 86.284 19.26 86.524 19.068C86.772 18.876 87.064 18.732 87.4 18.636C87.744 18.532 88.12 18.48 88.528 18.48C89.16 18.48 89.7 18.596 90.148 18.828C90.604 19.06 90.988 19.4 91.3 19.848L90.544 20.4C90.312 20.08 90.032 19.828 89.704 19.644C89.376 19.46 88.968 19.368 88.48 19.368C87.944 19.368 87.52 19.484 87.208 19.716C86.904 19.94 86.752 20.28 86.752 20.736C86.752 21.136 86.88 21.44 87.136 21.648C87.4 21.848 87.796 22.008 88.324 22.128L89.008 22.284C89.832 22.468 90.428 22.748 90.796 23.124C91.164 23.5 91.348 24 91.348 24.624C91.348 25.008 91.28 25.356 91.144 25.668C91.016 25.98 90.828 26.244 90.58 26.46C90.332 26.676 90.028 26.844 89.668 26.964C89.316 27.084 88.916 27.144 88.468 27.144ZM96.6407 27.144C95.5767 27.144 94.7487 26.784 94.1567 26.064C93.5647 25.336 93.2687 24.268 93.2687 22.86C93.2687 21.452 93.5647 20.372 94.1567 19.62C94.7487 18.86 95.5767 18.48 96.6407 18.48C97.3447 18.48 97.9327 18.64 98.4047 18.96C98.8847 19.28 99.2567 19.732 99.5207 20.316L98.7047 20.808C98.5367 20.376 98.2807 20.032 97.9367 19.776C97.5927 19.512 97.1607 19.38 96.6407 19.38C96.2807 19.38 95.9567 19.448 95.6687 19.584C95.3887 19.72 95.1487 19.916 94.9487 20.172C94.7567 20.42 94.6087 20.72 94.5047 21.072C94.4007 21.416 94.3487 21.804 94.3487 22.236V23.484C94.3487 24.348 94.5487 25.024 94.9487 25.512C95.3487 26 95.9127 26.244 96.6407 26.244C97.1767 26.244 97.6247 26.108 97.9847 25.836C98.3447 25.556 98.6087 25.188 98.7767 24.732L99.5807 25.236C99.3167 25.828 98.9367 26.296 98.4407 26.64C97.9447 26.976 97.3447 27.144 96.6407 27.144ZM102.75 27H101.742L101.742 18.624L105.078 18.624C105.814 18.624 106.386 18.828 106.794 19.236C107.21 19.644 107.418 20.232 107.418 21C107.418 21.616 107.274 22.124 106.986 22.524C106.706 22.916 106.29 23.176 105.738 23.304L107.658 27L106.518 27L104.706 23.4L102.75 23.4L102.75 27ZM105.078 22.536C105.478 22.536 105.786 22.432 106.002 22.224C106.226 22.016 106.338 21.72 106.338 21.336V20.712C106.338 20.328 106.226 20.032 106.002 19.824C105.786 19.616 105.478 19.512 105.078 19.512L102.75 19.512V22.536L105.078 22.536ZM113.032 27.144C112.488 27.144 111.996 27.052 111.556 26.868C111.124 26.676 110.752 26.4 110.44 26.04C110.136 25.672 109.9 25.22 109.732 24.684C109.564 24.14 109.48 23.516 109.48 22.812C109.48 22.108 109.564 21.488 109.732 20.952C109.9 20.416 110.136 19.964 110.44 19.596C110.752 19.228 111.124 18.952 111.556 18.768C111.996 18.576 112.488 18.48 113.032 18.48C113.568 18.48 114.056 18.576 114.496 18.768C114.936 18.952 115.308 19.228 115.612 19.596C115.924 19.964 116.164 20.416 116.332 20.952C116.5 21.488 116.584 22.108 116.584 22.812C116.584 23.516 116.5 24.14 116.332 24.684C116.164 25.22 115.924 25.672 115.612 26.04C115.308 26.4 114.936 26.676 114.496 26.868C114.056 27.052 113.568 27.144 113.032 27.144ZM113.032 26.244C113.392 26.244 113.724 26.18 114.028 26.052C114.332 25.924 114.592 25.74 114.808 25.5C115.032 25.26 115.204 24.972 115.324 24.636C115.444 24.3 115.504 23.924 115.504 23.508V22.116C115.504 21.7 115.444 21.324 115.324 20.988C115.204 20.652 115.032 20.364 114.808 20.124C114.592 19.884 114.332 19.7 114.028 19.572C113.724 19.444 113.392 19.38 113.032 19.38C112.672 19.38 112.34 19.444 112.036 19.572C111.732 19.7 111.468 19.884 111.244 20.124C111.028 20.364 110.86 20.652 110.74 20.988C110.62 21.324 110.56 21.7 110.56 22.116V23.508C110.56 23.924 110.62 24.3 110.74 24.636C110.86 24.972 111.028 25.26 111.244 25.5C111.468 25.74 111.732 25.924 112.036 26.052C112.34 26.18 112.672 26.244 113.032 26.244ZM118.996 27L118.996 18.624L120.004 18.624L120.004 26.112L123.568 26.112V27L118.996 27ZM125.608 27L125.608 18.624H126.616L126.616 26.112L130.18 26.112V27L125.608 27ZM136.604 18.624V23.808C136.604 24.608 136.752 25.216 137.048 25.632C137.344 26.04 137.864 26.244 138.608 26.244C139.352 26.244 139.872 26.04 140.168 25.632C140.464 25.216 140.612 24.608 140.612 23.808V18.624H141.62V23.568C141.62 24.176 141.564 24.704 141.452 25.152C141.348 25.6 141.176 25.972 140.936 26.268C140.696 26.564 140.38 26.784 139.988 26.928C139.604 27.072 139.132 27.144 138.572 27.144C138.012 27.144 137.54 27.072 137.156 26.928C136.78 26.784 136.476 26.564 136.244 26.268C136.012 25.972 135.844 25.6 135.74 25.152C135.644 24.704 135.596 24.176 135.596 23.568V18.624L136.604 18.624ZM144.389 27L144.389 18.624L147.725 18.624C148.477 18.624 149.053 18.84 149.453 19.272C149.861 19.696 150.065 20.28 150.065 21.024C150.065 21.768 149.861 22.356 149.453 22.788C149.053 23.212 148.477 23.424 147.725 23.424L145.397 23.424L145.397 27L144.389 27ZM145.397 22.536L147.725 22.536C148.125 22.536 148.433 22.432 148.649 22.224C148.873 22.016 148.985 21.72 148.985 21.336V20.712C148.985 20.328 148.873 20.032 148.649 19.824C148.433 19.616 148.125 19.512 147.725 19.512L145.397 19.512V22.536Z" fill="#EBECF1"/>
<path d="M33.2929 7.29289C32.9024 7.68342 32.9024 8.31658 33.2929 8.70711L39.6569 15.0711C40.0474 15.4616 40.6805 15.4616 41.0711 15.0711C41.4616 14.6805 41.4616 14.0474 41.0711 13.6569L35.4142 8L41.0711 2.34315C41.4616 1.95262 41.4616 1.31946 41.0711 0.928932C40.6805 0.538408 40.0474 0.538408 39.6569 0.928932L33.2929 7.29289ZM151 7L34 7V9L151 9V7Z" fill="#F8D554"/>
</svg>
