<svg width="290" height="82" viewBox="0 0 290 82" fill="none" xmlns="http://www.w3.org/2000/svg">
<path d="M4.8582 37.8878H0.873557C0.291185 37.8878 0 37.5505 0 36.9601L0 1.66361C0 1.08095 0.291185 0.735962 0.873557 0.735962L4.8582 0.735962C5.44057 0.735962 5.73176 1.07329 5.73176 1.66361L5.73176 36.9678C5.73176 37.5505 5.44057 37.8955 4.8582 37.8955V37.8878Z" fill="#1B1C25"/>
<path d="M134.238 0L16.8516 0L16.8516 37.6041L134.238 37.6041V0Z" fill="#1B1C25"/>
<path d="M43.1187 29.4072L36.961 7.58904L41.2117 7.58904L45.1428 23.6224H45.3452L49.5427 7.58904H53.4099L57.618 23.6331H57.8097L61.7408 7.58904L65.9915 7.58904L59.8339 29.4072H55.9347L51.5668 14.0983H51.3964L47.0178 29.4072H43.1187ZM74.7845 7.58904V29.4072H70.8321V7.58904H74.7845ZM81.1646 29.4072V7.58904L85.117 7.58904V26.094H94.7263V29.4072L81.1646 29.4072ZM100.257 29.4072V7.58904L104.209 7.58904V26.094L113.819 26.094V29.4072L100.257 29.4072Z" fill="#EBECF1"/>
<path d="M156.58 58.62V57.32H147.14V55.84H158.54V60.06H149.16V61.36H159V62.84H147.22V58.62H156.58ZM161.12 64.06V65.6H144.72V64.06H161.12ZM147.16 72.62V69.64H156.86V68.44H147.06V66.88H158.74V71.12H149.04V72.36H159.24V73.94H148.46C148.033 73.94 147.707 73.8267 147.48 73.6C147.267 73.3733 147.16 73.0467 147.16 72.62ZM186.479 69.42V71.12H170.079V69.42H177.279V65.72H172.259V56.46H174.259V59.48H182.239V56.46H184.239V65.72H179.299V69.42H186.479ZM174.259 64.04H182.239V61.14H174.259V64.04ZM204.451 55.54V73.06H202.411V65.8H199.331V64.14H202.411V60.9H199.331V59.24H202.411V55.54H204.451ZM199.051 62.64C199.051 64.6133 198.617 66.1067 197.751 67.12C196.897 68.1333 195.764 68.64 194.351 68.64C192.924 68.64 191.777 68.1333 190.911 67.12C190.057 66.1067 189.631 64.6133 189.631 62.64C189.631 60.6533 190.057 59.16 190.911 58.16C191.777 57.1467 192.924 56.64 194.351 56.64C195.764 56.64 196.897 57.1467 197.751 58.16C198.617 59.16 199.051 60.6533 199.051 62.64ZM196.931 61.62C196.931 60.5533 196.697 59.74 196.231 59.18C195.764 58.6067 195.137 58.32 194.351 58.32C193.551 58.32 192.917 58.6067 192.451 59.18C191.984 59.74 191.751 60.5533 191.751 61.62V63.66C191.751 64.7267 191.984 65.5467 192.451 66.12C192.917 66.68 193.551 66.96 194.351 66.96C195.137 66.96 195.764 66.68 196.231 66.12C196.697 65.5467 196.931 64.7267 196.931 63.66V61.62ZM215.743 57.9H210.383V56.2H223.103V57.9H217.803C217.763 58.8867 217.443 59.7533 216.843 60.5L216.923 60.52L217.443 60.14C217.669 59.9667 217.909 59.88 218.163 59.88C218.349 59.88 218.536 59.9267 218.723 60.02L223.903 62.66L222.783 64.2L217.203 61.22C217.016 61.1133 216.829 61.06 216.643 61.06C216.483 61.06 216.329 61.1067 216.183 61.2C215.636 61.6933 214.909 62.1933 214.003 62.7C213.109 63.1933 211.989 63.7133 210.643 64.26L209.563 62.74C211.709 61.9133 213.249 61.1333 214.183 60.4C215.116 59.6533 215.636 58.82 215.743 57.9ZM224.943 67.42H217.763V73.76H215.743V67.42H208.543V65.72H224.943V67.42ZM241.895 62.62H230.235V56.2H232.255V60.96H241.895V62.62ZM244.175 64.52V66.26H227.775V64.52H244.175ZM232.115 71.72H242.095V73.4H231.375C230.948 73.4 230.621 73.2867 230.395 73.06C230.181 72.8333 230.075 72.5067 230.075 72.08V67.84H232.115V71.72ZM270.053 63.9H267.253V73.08H265.233V55.56H267.253V62.2H270.053V63.9ZM259.453 62.72C259.653 62.72 259.833 62.8133 259.993 63L263.593 67.64L262.013 68.96L258.393 64.12C258.353 64.04 258.287 64 258.193 64C258.127 64 258.06 64.04 257.993 64.12C257.633 64.88 257.167 65.6533 256.593 66.44C256.02 67.2267 255.273 68.1667 254.353 69.26L252.813 67.96C253.907 66.7333 254.753 65.6533 255.353 64.72C255.967 63.7867 256.413 62.8533 256.693 61.92C256.987 60.9733 257.133 59.9133 257.133 58.74V56.7H259.173V58.72C259.173 60.4 258.927 61.88 258.433 63.16L258.533 63.24L258.913 62.94C259.1 62.7933 259.28 62.72 259.453 62.72ZM289.285 59.96V61.66H286.545V66.26H284.525V55.54H286.545V59.96H289.285ZM282.905 65.14C280.772 65.54 278.132 65.74 274.985 65.74H273.045V60.16H279.025V58.06H272.985V56.42H280.965V61.78H274.965V64.12H275.105C277.972 64.12 280.485 63.9267 282.645 63.54L282.905 65.14ZM275.465 67.18H286.565V73.78H276.765C276.339 73.78 276.012 73.6667 275.785 73.44C275.572 73.2133 275.465 72.8867 275.465 72.46V67.18ZM277.505 72.12H284.525V68.86H277.505V72.12Z" fill="#1B1C25"/>
<path d="M61.7436 75L55.5859 53.1818H59.8366L63.7678 69.2152H63.9702L68.1676 53.1818H72.0348L76.2429 69.2259H76.4347L80.3658 53.1818H84.6165L78.4588 75H74.5597L70.1918 59.6911H70.0213L65.6428 75H61.7436ZM93.1431 65.4119V75H89.2866V53.1818H93.0579V61.4169H93.2497C93.6332 60.4936 94.2262 59.7656 95.0288 59.233C95.8385 58.6932 96.8683 58.4233 98.1183 58.4233C99.2547 58.4233 100.245 58.6612 101.091 59.1371C101.936 59.6129 102.589 60.3089 103.051 61.2251C103.52 62.1413 103.754 63.2599 103.754 64.581V75H99.8974V65.1776C99.8974 64.0767 99.6133 63.2209 99.0451 62.6101C98.4841 61.9922 97.6957 61.6832 96.6801 61.6832C95.9983 61.6832 95.3875 61.8324 94.8477 62.1307C94.315 62.4219 93.896 62.8445 93.5906 63.3984C93.2923 63.9524 93.1431 64.6236 93.1431 65.4119ZM116.923 75.3196C115.325 75.3196 113.94 74.968 112.768 74.2649C111.596 73.5618 110.687 72.5781 110.041 71.3139C109.402 70.0497 109.082 68.5724 109.082 66.8821C109.082 65.1918 109.402 63.7109 110.041 62.4396C110.687 61.1683 111.596 60.1811 112.768 59.478C113.94 58.7749 115.325 58.4233 116.923 58.4233C118.521 58.4233 119.906 58.7749 121.078 59.478C122.25 60.1811 123.155 61.1683 123.794 62.4396C124.441 63.7109 124.764 65.1918 124.764 66.8821C124.764 68.5724 124.441 70.0497 123.794 71.3139C123.155 72.5781 122.25 73.5618 121.078 74.2649C119.906 74.968 118.521 75.3196 116.923 75.3196ZM116.944 72.2301C117.811 72.2301 118.535 71.9922 119.117 71.5163C119.7 71.0334 120.133 70.3871 120.417 69.5774C120.708 68.7678 120.854 67.8658 120.854 66.8714C120.854 65.87 120.708 64.9645 120.417 64.1548C120.133 63.3381 119.7 62.6882 119.117 62.2053C118.535 61.7223 117.811 61.4808 116.944 61.4808C116.056 61.4808 115.318 61.7223 114.728 62.2053C114.146 62.6882 113.709 63.3381 113.418 64.1548C113.134 64.9645 112.992 65.87 112.992 66.8714C112.992 67.8658 113.134 68.7678 113.418 69.5774C113.709 70.3871 114.146 71.0334 114.728 71.5163C115.318 71.9922 116.056 72.2301 116.944 72.2301Z" fill="#1B1C25"/>
</svg>
