<svg width="336" height="123" viewBox="0 0 336 123" fill="none" xmlns="http://www.w3.org/2000/svg">
<path d="M4.8582 37.8878H0.873557C0.291185 37.8878 0 37.5505 0 36.9601L0 1.66361C0 1.08095 0.291185 0.735962 0.873557 0.735962L4.8582 0.735962C5.44057 0.735962 5.73176 1.07329 5.73176 1.66361L5.73176 36.9678C5.73176 37.5505 5.44057 37.8955 4.8582 37.8955V37.8878Z" fill="#1B1C25"/>
<path d="M134.238 0L16.8516 0L16.8516 37.6041L134.238 37.6041V0Z" fill="#1B1C25"/>
<path d="M43.1187 29.4072L36.961 7.58904L41.2117 7.58904L45.1428 23.6224H45.3452L49.5427 7.58904H53.4099L57.618 23.6331H57.8097L61.7408 7.58904L65.9915 7.58904L59.8339 29.4072H55.9347L51.5668 14.0983H51.3964L47.0178 29.4072H43.1187ZM74.7845 7.58904V29.4072H70.8321V7.58904H74.7845ZM81.1646 29.4072V7.58904L85.117 7.58904V26.094H94.7263V29.4072L81.1646 29.4072ZM100.257 29.4072V7.58904L104.209 7.58904V26.094L113.819 26.094V29.4072L100.257 29.4072Z" fill="#EBECF1"/>
<path d="M161.26 96.54V114.06H159.32V96.54H161.26ZM155.46 96.82H157.38V113.58H155.46V104.6H153.94C153.847 106.293 153.433 107.573 152.7 108.44C151.98 109.293 151.033 109.72 149.86 109.72C148.607 109.72 147.613 109.227 146.88 108.24C146.147 107.253 145.78 105.793 145.78 103.86C145.78 101.913 146.147 100.453 146.88 99.48C147.613 98.4933 148.607 98 149.86 98C151.02 98 151.953 98.4133 152.66 99.24C153.38 100.053 153.8 101.28 153.92 102.92H155.46V96.82ZM151.9 102.6C151.9 101.627 151.713 100.887 151.34 100.38C150.967 99.86 150.473 99.6 149.86 99.6C149.247 99.6 148.753 99.86 148.38 100.38C148.02 100.887 147.84 101.627 147.84 102.6V105.12C147.84 106.093 148.02 106.84 148.38 107.36C148.753 107.867 149.247 108.12 149.86 108.12C150.487 108.12 150.98 107.867 151.34 107.36C151.713 106.84 151.9 106.093 151.9 105.12V102.6ZM187.479 107.04H180.279V114.72H178.259V107.04H171.079V105.32H182.519C182.932 103.307 183.159 101.2 183.199 99H173.219V97.3H185.199V98.64C185.199 100.893 184.972 103.12 184.519 105.32H187.479V107.04ZM205.851 96.54V114.06H203.911V104.82H201.851V113.58H199.931V96.82H201.851V103.16H203.911V96.54H205.851ZM198.711 103.86C198.711 105.793 198.337 107.253 197.591 108.24C196.857 109.227 195.851 109.72 194.571 109.72C193.304 109.72 192.297 109.227 191.551 108.24C190.817 107.253 190.451 105.793 190.451 103.86C190.451 101.913 190.817 100.453 191.551 99.48C192.297 98.4933 193.304 98 194.571 98C195.851 98 196.857 98.4933 197.591 99.48C198.337 100.453 198.711 101.913 198.711 103.86ZM196.631 102.62C196.631 101.647 196.444 100.907 196.071 100.4C195.697 99.88 195.197 99.62 194.571 99.62C193.957 99.62 193.464 99.88 193.091 100.4C192.717 100.907 192.531 101.647 192.531 102.62V105.1C192.531 106.073 192.717 106.82 193.091 107.34C193.464 107.86 193.957 108.12 194.571 108.12C195.197 108.12 195.697 107.86 196.071 107.34C196.444 106.82 196.631 106.073 196.631 105.1V102.62ZM226.463 100.8V102.5H223.743V106.7H221.723V96.54H223.743V100.8H226.463ZM218.403 105.82H210.023V97.34H212.003V100.02H216.423V97.32H218.403V105.82ZM216.423 101.64H212.003V104.2H216.423V101.64ZM214.843 113.08H224.043V114.8H214.083C213.656 114.8 213.329 114.687 213.103 114.46C212.889 114.233 212.783 113.907 212.783 113.48V107.84H223.823V109.54H214.843V113.08ZM243.855 96.54V114.06H241.815V96.54H243.855ZM235.715 104.08C235.941 104.08 236.135 104.173 236.295 104.36L239.895 108.52L238.355 109.84L234.695 105.42C234.601 105.327 234.515 105.28 234.435 105.28C234.355 105.28 234.281 105.32 234.215 105.4C233.855 106.093 233.388 106.807 232.815 107.54C232.241 108.26 231.488 109.12 230.555 110.12L229.015 108.86C230.108 107.767 230.968 106.78 231.595 105.9C232.221 105.02 232.675 104.147 232.955 103.28C233.248 102.4 233.395 101.433 233.395 100.38V99.78H229.655V98.08H239.155V99.78H235.435V100.46C235.435 101.967 235.175 103.32 234.655 104.52L234.755 104.6L235.175 104.28C235.375 104.147 235.555 104.08 235.715 104.08ZM271.053 100.32V102.02H268.333V105.58H266.313V96.54H268.333V100.32H271.053ZM258.833 105.76C257.94 105.76 257.14 105.587 256.433 105.24C255.727 104.88 255.173 104.373 254.773 103.72C254.387 103.067 254.193 102.307 254.193 101.44C254.193 100.573 254.387 99.8133 254.773 99.16C255.173 98.5067 255.727 98.0067 256.433 97.66C257.14 97.3 257.94 97.12 258.833 97.12C259.74 97.12 260.54 97.3 261.233 97.66C261.94 98.0067 262.487 98.5067 262.873 99.16C263.273 99.8133 263.473 100.573 263.473 101.44C263.473 102.307 263.273 103.067 262.873 103.72C262.487 104.373 261.94 104.88 261.233 105.24C260.54 105.587 259.74 105.76 258.833 105.76ZM258.833 104.14C259.593 104.14 260.207 103.927 260.673 103.5C261.14 103.073 261.373 102.5 261.373 101.78V101.08C261.373 100.36 261.14 99.7933 260.673 99.38C260.207 98.9533 259.593 98.74 258.833 98.74C258.073 98.74 257.46 98.9533 256.993 99.38C256.54 99.7933 256.313 100.36 256.313 101.08V101.78C256.313 102.5 256.54 103.073 256.993 103.5C257.46 103.927 258.073 104.14 258.833 104.14ZM263.333 108.12V106.54H267.593V108.12H263.333ZM261.093 112.04L261.573 113.72C261.067 113.947 260.447 114.14 259.713 114.3C258.98 114.46 258.253 114.54 257.533 114.54H257.193C256.767 114.54 256.44 114.427 256.213 114.2C256 113.973 255.893 113.647 255.893 113.22V107.3H257.773V112.72H258.013C258.507 112.72 259.053 112.647 259.653 112.5C260.253 112.353 260.733 112.2 261.093 112.04ZM261.153 109.26H269.813V110.78H267.593V110.9C268.407 111.273 268.813 111.9 268.813 112.78C268.813 113.207 268.68 113.6 268.413 113.96C268.147 114.333 267.76 114.627 267.253 114.84C266.747 115.067 266.153 115.18 265.473 115.18C264.793 115.18 264.2 115.067 263.693 114.84C263.187 114.627 262.8 114.333 262.533 113.96C262.267 113.6 262.133 113.207 262.133 112.78C262.133 111.9 262.54 111.273 263.353 110.9V110.78H261.153V109.26ZM267.133 112.28C267.133 111.853 266.987 111.52 266.693 111.28C266.413 111.027 266.04 110.9 265.573 110.9H265.373C264.907 110.9 264.527 111.027 264.233 111.28C263.953 111.52 263.813 111.853 263.813 112.28C263.813 112.693 263.953 113.027 264.233 113.28C264.527 113.533 264.907 113.66 265.373 113.66H265.573C266.04 113.66 266.413 113.533 266.693 113.28C266.987 113.027 267.133 112.693 267.133 112.28ZM287.485 103.62H275.825V97.2H277.845V101.96H287.485V103.62ZM289.765 105.52V107.26H273.365V105.52H289.765ZM277.705 112.72H287.685V114.4H276.965C276.539 114.4 276.212 114.287 275.985 114.06C275.772 113.833 275.665 113.507 275.665 113.08V108.84H277.705V112.72ZM315.644 104.9H312.844V114.08H310.824V96.56H312.844V103.2H315.644V104.9ZM305.044 103.72C305.244 103.72 305.424 103.813 305.584 104L309.184 108.64L307.604 109.96L303.984 105.12C303.944 105.04 303.877 105 303.784 105C303.717 105 303.651 105.04 303.584 105.12C303.224 105.88 302.757 106.653 302.184 107.44C301.611 108.227 300.864 109.167 299.944 110.26L298.404 108.96C299.497 107.733 300.344 106.653 300.944 105.72C301.557 104.787 302.004 103.853 302.284 102.92C302.577 101.973 302.724 100.913 302.724 99.74V97.7H304.764V99.72C304.764 101.4 304.517 102.88 304.024 104.16L304.124 104.24L304.504 103.94C304.691 103.793 304.871 103.72 305.044 103.72ZM334.876 100.96V102.66H332.136V107.26H330.116V96.54H332.136V100.96H334.876ZM328.496 106.14C326.363 106.54 323.723 106.74 320.576 106.74H318.636V101.16H324.616V99.06H318.576V97.42H326.556V102.78H320.556V105.12H320.696C323.563 105.12 326.076 104.927 328.236 104.54L328.496 106.14ZM321.056 108.18H332.156V114.78H322.356C321.929 114.78 321.603 114.667 321.376 114.44C321.163 114.213 321.056 113.887 321.056 113.46V108.18ZM323.096 113.12H330.116V109.86H323.096V113.12Z" fill="#1B1C25"/>
<path d="M30.7436 75L24.5859 53.1818H28.8366L32.7678 69.2152H32.9702L37.1676 53.1818H41.0348L45.2429 69.2259H45.4347L49.3658 53.1818H53.6165L47.4588 75H43.5597L39.1918 59.6911H39.0213L34.6428 75H30.7436ZM62.1431 65.4119V75H58.2866V53.1818H62.0579V61.4169H62.2497C62.6332 60.4936 63.2262 59.7656 64.0288 59.233C64.8385 58.6932 65.8683 58.4233 67.1183 58.4233C68.2547 58.4233 69.2454 58.6612 70.0906 59.1371C70.9358 59.6129 71.5892 60.3089 72.0508 61.2251C72.5196 62.1413 72.7539 63.2599 72.7539 64.581V75H68.8974V65.1776C68.8974 64.0767 68.6133 63.2209 68.0451 62.6101C67.4841 61.9922 66.6957 61.6832 65.6801 61.6832C64.9983 61.6832 64.3875 61.8324 63.8477 62.1307C63.315 62.4219 62.896 62.8445 62.5906 63.3984C62.2923 63.9524 62.1431 64.6236 62.1431 65.4119ZM86.0294 75.3196C84.3887 75.3196 82.9718 74.9787 81.7787 74.2969C80.5926 73.608 79.6799 72.6349 79.0407 71.3778C78.4015 70.1136 78.0819 68.6257 78.0819 66.9141C78.0819 65.2308 78.4015 63.7536 79.0407 62.4822C79.687 61.2038 80.589 60.2095 81.7467 59.4993C82.9044 58.782 84.2645 58.4233 85.827 58.4233C86.8355 58.4233 87.7872 58.5866 88.6821 58.9134C89.5841 59.233 90.3795 59.7301 91.0684 60.4048C91.7645 61.0795 92.3113 61.9389 92.7091 62.983C93.1068 64.0199 93.3056 65.2557 93.3056 66.6903V67.8729H79.893V65.2734H89.6089C89.6018 64.5348 89.442 63.8778 89.1295 63.3026C88.817 62.7202 88.3802 62.2621 87.8191 61.9283C87.2652 61.5945 86.6189 61.4276 85.8802 61.4276C85.0919 61.4276 84.3994 61.6193 83.8028 62.0028C83.2062 62.3793 82.741 62.8764 82.4072 63.4943C82.0805 64.1051 81.9136 64.7763 81.9065 65.5078V67.777C81.9065 68.7287 82.0805 69.5455 82.4285 70.2273C82.7765 70.902 83.263 71.4205 83.888 71.7827C84.513 72.1378 85.2446 72.3153 86.0826 72.3153C86.6437 72.3153 87.1515 72.2372 87.6061 72.081C88.0606 71.9176 88.4548 71.6797 88.7886 71.3672C89.1224 71.0547 89.3745 70.6676 89.545 70.206L93.1458 70.6108C92.9186 71.5625 92.4853 72.3935 91.8461 73.1037C91.214 73.8068 90.4044 74.3537 89.4172 74.7443C88.4299 75.1278 87.3007 75.3196 86.0294 75.3196ZM98.6683 75V58.6364H102.408V61.3636H102.578C102.876 60.419 103.388 59.6911 104.112 59.1797C104.844 58.6612 105.678 58.402 106.616 58.402C106.829 58.402 107.067 58.4126 107.329 58.4339C107.599 58.4482 107.823 58.473 108.001 58.5085V62.0561C107.837 61.9993 107.578 61.9496 107.223 61.907C106.875 61.8572 106.538 61.8324 106.211 61.8324C105.508 61.8324 104.876 61.9851 104.315 62.2905C103.761 62.5888 103.324 63.0043 103.004 63.5369C102.685 64.0696 102.525 64.6839 102.525 65.38V75H98.6683ZM119.233 75.3196C117.593 75.3196 116.176 74.9787 114.983 74.2969C113.796 73.608 112.884 72.6349 112.245 71.3778C111.605 70.1136 111.286 68.6257 111.286 66.9141C111.286 65.2308 111.605 63.7536 112.245 62.4822C112.891 61.2038 113.793 60.2095 114.951 59.4993C116.108 58.782 117.468 58.4233 119.031 58.4233C120.039 58.4233 120.991 58.5866 121.886 58.9134C122.788 59.233 123.583 59.7301 124.272 60.4048C124.968 61.0795 125.515 61.9389 125.913 62.983C126.311 64.0199 126.51 65.2557 126.51 66.6903V67.8729H113.097V65.2734H122.813C122.806 64.5348 122.646 63.8778 122.333 63.3026C122.021 62.7202 121.584 62.2621 121.023 61.9283C120.469 61.5945 119.823 61.4276 119.084 61.4276C118.296 61.4276 117.603 61.6193 117.007 62.0028C116.41 62.3793 115.945 62.8764 115.611 63.4943C115.284 64.1051 115.118 64.7763 115.11 65.5078V67.777C115.11 68.7287 115.284 69.5455 115.632 70.2273C115.98 70.902 116.467 71.4205 117.092 71.7827C117.717 72.1378 118.448 72.3153 119.287 72.3153C119.848 72.3153 120.355 72.2372 120.81 72.081C121.265 71.9176 121.659 71.6797 121.993 71.3672C122.326 71.0547 122.578 70.6676 122.749 70.206L126.35 70.6108C126.122 71.5625 125.689 72.3935 125.05 73.1037C124.418 73.8068 123.608 74.3537 122.621 74.7443C121.634 75.1278 120.505 75.3196 119.233 75.3196Z" fill="#1B1C25"/>
<path d="M50.7436 116L44.5859 94.1818H48.8366L52.7678 110.215H52.9702L57.1676 94.1818H61.0348L65.2429 110.226H65.4347L69.3658 94.1818H73.6165L67.4588 116H63.5597L59.1918 100.691H59.0213L54.6428 116H50.7436ZM82.1431 106.412V116H78.2866V94.1818H82.0579V102.417H82.2497C82.6332 101.494 83.2262 100.766 84.0288 100.233C84.8385 99.6932 85.8683 99.4233 87.1183 99.4233C88.2547 99.4233 89.2454 99.6612 90.0906 100.137C90.9358 100.613 91.5892 101.309 92.0508 102.225C92.5196 103.141 92.7539 104.26 92.7539 105.581V116H88.8974V106.178C88.8974 105.077 88.6133 104.221 88.0451 103.61C87.4841 102.992 86.6957 102.683 85.6801 102.683C84.9983 102.683 84.3875 102.832 83.8477 103.131C83.315 103.422 82.896 103.844 82.5906 104.398C82.2923 104.952 82.1431 105.624 82.1431 106.412ZM103.494 116.33C102.457 116.33 101.523 116.146 100.692 115.776C99.8681 115.4 99.2147 114.846 98.7318 114.114C98.2559 113.383 98.018 112.481 98.018 111.408C98.018 110.485 98.1885 109.722 98.5294 109.118C98.8703 108.514 99.3355 108.031 99.925 107.669C100.514 107.307 101.179 107.033 101.917 106.849C102.663 106.657 103.433 106.518 104.229 106.433C105.188 106.334 105.965 106.245 106.562 106.167C107.159 106.082 107.592 105.954 107.862 105.783C108.139 105.606 108.277 105.332 108.277 104.963V104.899C108.277 104.097 108.039 103.475 107.563 103.035C107.088 102.594 106.402 102.374 105.507 102.374C104.563 102.374 103.813 102.58 103.259 102.992C102.713 103.404 102.343 103.891 102.152 104.452L98.5507 103.94C98.8348 102.946 99.3035 102.115 99.9569 101.447C100.61 100.773 101.409 100.268 102.354 99.9347C103.299 99.5938 104.343 99.4233 105.486 99.4233C106.274 99.4233 107.059 99.5156 107.84 99.7003C108.622 99.8849 109.335 100.19 109.982 100.616C110.628 101.036 111.147 101.607 111.537 102.332C111.935 103.056 112.134 103.962 112.134 105.048V116H108.426V113.752H108.299C108.064 114.207 107.734 114.633 107.308 115.031C106.889 115.421 106.36 115.737 105.72 115.979C105.088 116.213 104.346 116.33 103.494 116.33ZM104.495 113.496C105.269 113.496 105.941 113.344 106.509 113.038C107.077 112.726 107.514 112.314 107.819 111.803C108.132 111.291 108.288 110.734 108.288 110.13V108.202C108.167 108.301 107.961 108.393 107.67 108.479C107.386 108.564 107.066 108.638 106.711 108.702C106.356 108.766 106.005 108.823 105.656 108.873C105.308 108.923 105.007 108.965 104.751 109.001C104.176 109.079 103.661 109.207 103.206 109.384C102.752 109.562 102.393 109.81 102.13 110.13C101.867 110.442 101.736 110.847 101.736 111.344C101.736 112.055 101.995 112.591 102.514 112.953C103.032 113.315 103.693 113.496 104.495 113.496ZM126.283 99.6364V102.619H116.876V99.6364H126.283ZM119.198 95.7159H123.055V111.078C123.055 111.597 123.133 111.994 123.289 112.271C123.453 112.541 123.666 112.726 123.928 112.825C124.191 112.925 124.482 112.974 124.802 112.974C125.043 112.974 125.264 112.957 125.462 112.921C125.668 112.886 125.825 112.854 125.931 112.825L126.581 115.84C126.375 115.911 126.08 115.989 125.697 116.075C125.32 116.16 124.859 116.21 124.312 116.224C123.346 116.252 122.476 116.107 121.702 115.787C120.928 115.46 120.313 114.956 119.859 114.274C119.411 113.592 119.191 112.74 119.198 111.717V95.7159Z" fill="#1B1C25"/>
</svg>
