<svg width="290" height="82" viewBox="0 0 290 82" fill="none" xmlns="http://www.w3.org/2000/svg">
<path d="M4.8582 37.8878H0.873557C0.291185 37.8878 0 37.5505 0 36.9601L0 1.66361C0 1.08095 0.291185 0.735962 0.873557 0.735962L4.8582 0.735962C5.44057 0.735962 5.73176 1.07329 5.73176 1.66361L5.73176 36.9678C5.73176 37.5505 5.44057 37.8955 4.8582 37.8955V37.8878Z" fill="#1B1C25"/>
<path d="M134.238 0L16.8516 0L16.8516 37.6041L134.238 37.6041V0Z" fill="#1B1C25"/>
<path d="M43.1187 29.4072L36.961 7.58904L41.2117 7.58904L45.1428 23.6224H45.3452L49.5427 7.58904H53.4099L57.618 23.6331H57.8097L61.7408 7.58904L65.9915 7.58904L59.8339 29.4072H55.9347L51.5668 14.0983H51.3964L47.0178 29.4072H43.1187ZM74.7845 7.58904V29.4072H70.8321V7.58904H74.7845ZM81.1646 29.4072V7.58904L85.117 7.58904V26.094H94.7263V29.4072L81.1646 29.4072ZM100.257 29.4072V7.58904L104.209 7.58904V26.094L113.819 26.094V29.4072L100.257 29.4072Z" fill="#EBECF1"/>
<path d="M156.58 58.62V57.32H147.14V55.84H158.54V60.06H149.16V61.36H159V62.84H147.22V58.62H156.58ZM161.12 64.06V65.6H144.72V64.06H161.12ZM147.16 72.62V69.64H156.86V68.44H147.06V66.88H158.74V71.12H149.04V72.36H159.24V73.94H148.46C148.033 73.94 147.707 73.8267 147.48 73.6C147.267 73.3733 147.16 73.0467 147.16 72.62ZM182.359 58.68H172.139V56.96H184.359V58.42C184.359 61.42 184.065 64.2667 183.479 66.96L181.519 66.64C182.065 64.1467 182.345 61.4933 182.359 58.68ZM186.479 69.42V71.12H170.079V69.42H176.199V63.26H178.219V69.42H186.479ZM204.451 55.54V68.76H202.431V55.54H204.451ZM198.791 56.68V65.34H190.251V56.68H198.791ZM196.751 58.36H192.291V63.68H196.751V58.36ZM193.111 72.12V67.32H195.131V71.78H204.811V73.44H194.411C193.984 73.44 193.657 73.3267 193.431 73.1C193.217 72.8733 193.111 72.5467 193.111 72.12ZM225.463 64.26H222.763V73.08H220.743V55.56H222.763V62.56H225.463V64.26ZM216.823 58.24H210.983V56.52H216.823V58.24ZM208.403 60.22H219.103V61.88H216.403V62C217.536 62.6267 218.103 63.74 218.103 65.34C218.103 66.1933 217.916 66.94 217.543 67.58C217.183 68.2067 216.676 68.6933 216.023 69.04C215.383 69.3867 214.656 69.56 213.843 69.56C213.029 69.56 212.296 69.3867 211.643 69.04C211.003 68.6933 210.496 68.2067 210.123 67.58C209.749 66.94 209.563 66.1933 209.563 65.34C209.563 63.74 210.129 62.6333 211.263 62.02V61.88H208.403V60.22ZM216.143 64.52C216.143 63.7467 215.936 63.1533 215.523 62.74C215.109 62.3133 214.549 62.1 213.843 62.1C213.136 62.1 212.569 62.3133 212.143 62.74C211.729 63.1667 211.523 63.76 211.523 64.52V65.44C211.523 66.2 211.736 66.7933 212.163 67.22C212.589 67.6467 213.149 67.86 213.843 67.86C214.536 67.86 215.089 67.6467 215.503 67.22C215.929 66.7933 216.143 66.2 216.143 65.44V64.52ZM241.895 62.62H230.235V56.2H232.255V60.96H241.895V62.62ZM244.175 64.52V66.26H227.775V64.52H244.175ZM232.115 71.72H242.095V73.4H231.375C230.948 73.4 230.621 73.2867 230.395 73.06C230.181 72.8333 230.075 72.5067 230.075 72.08V67.84H232.115V71.72ZM270.053 63.9H267.253V73.08H265.233V55.56H267.253V62.2H270.053V63.9ZM259.453 62.72C259.653 62.72 259.833 62.8133 259.993 63L263.593 67.64L262.013 68.96L258.393 64.12C258.353 64.04 258.287 64 258.193 64C258.127 64 258.06 64.04 257.993 64.12C257.633 64.88 257.167 65.6533 256.593 66.44C256.02 67.2267 255.273 68.1667 254.353 69.26L252.813 67.96C253.907 66.7333 254.753 65.6533 255.353 64.72C255.967 63.7867 256.413 62.8533 256.693 61.92C256.987 60.9733 257.133 59.9133 257.133 58.74V56.7H259.173V58.72C259.173 60.4 258.927 61.88 258.433 63.16L258.533 63.24L258.913 62.94C259.1 62.7933 259.28 62.72 259.453 62.72ZM289.285 59.96V61.66H286.545V66.26H284.525V55.54H286.545V59.96H289.285ZM282.905 65.14C280.772 65.54 278.132 65.74 274.985 65.74H273.045V60.16H279.025V58.06H272.985V56.42H280.965V61.78H274.965V64.12H275.105C277.972 64.12 280.485 63.9267 282.645 63.54L282.905 65.14ZM275.465 67.18H286.565V73.78H276.765C276.339 73.78 276.012 73.6667 275.785 73.44C275.572 73.2133 275.465 72.8867 275.465 72.46V67.18ZM277.505 72.12H284.525V68.86H277.505V72.12Z" fill="#1B1C25"/>
<path d="M57.152 75V53.1818H61.1044V62.4183H71.2145V53.1818H75.1776V75H71.2145V65.7315H61.1044V75H57.152ZM88.5435 75.3196C86.9455 75.3196 85.5606 74.968 84.3887 74.2649C83.2168 73.5618 82.3077 72.5781 81.6614 71.3139C81.0222 70.0497 80.7026 68.5724 80.7026 66.8821C80.7026 65.1918 81.0222 63.7109 81.6614 62.4396C82.3077 61.1683 83.2168 60.1811 84.3887 59.478C85.5606 58.7749 86.9455 58.4233 88.5435 58.4233C90.1415 58.4233 91.5265 58.7749 92.6984 59.478C93.8702 60.1811 94.7758 61.1683 95.415 62.4396C96.0613 63.7109 96.3844 65.1918 96.3844 66.8821C96.3844 68.5724 96.0613 70.0497 95.415 71.3139C94.7758 72.5781 93.8702 73.5618 92.6984 74.2649C91.5265 74.968 90.1415 75.3196 88.5435 75.3196ZM88.5648 72.2301C89.4313 72.2301 90.1558 71.9922 90.7381 71.5163C91.3205 71.0334 91.7538 70.3871 92.0379 69.5774C92.329 68.7678 92.4746 67.8658 92.4746 66.8714C92.4746 65.87 92.329 64.9645 92.0379 64.1548C91.7538 63.3381 91.3205 62.6882 90.7381 62.2053C90.1558 61.7223 89.4313 61.4808 88.5648 61.4808C87.6771 61.4808 86.9384 61.7223 86.3489 62.2053C85.7665 62.6882 85.3298 63.3381 85.0386 64.1548C84.7545 64.9645 84.6124 65.87 84.6124 66.8714C84.6124 67.8658 84.7545 68.7678 85.0386 69.5774C85.3298 70.3871 85.7665 71.0334 86.3489 71.5163C86.9384 71.9922 87.6771 72.2301 88.5648 72.2301ZM104.666 75L100.043 58.6364H103.974L106.85 70.142H106.999L109.94 58.6364H113.828L116.768 70.0781H116.928L119.762 58.6364H123.704L119.069 75H115.053L111.985 63.9418H111.761L108.693 75H104.666Z" fill="#1B1C25"/>
</svg>
