<svg width="184" height="158" viewBox="0 0 184 158" fill="none" xmlns="http://www.w3.org/2000/svg">
<rect width="184" height="158" fill="#1B1C25"/>
<path d="M37.1882 64.0909V75H35.5369V65.7422H35.473L32.8629 67.4467V65.87L35.5849 64.0909H37.1882ZM44.6871 75.1811C43.8455 75.1776 43.1264 74.9556 42.5298 74.5153C41.9332 74.0749 41.4769 73.4339 41.1609 72.5923C40.8448 71.7507 40.6868 70.7369 40.6868 69.5508C40.6868 68.3683 40.8448 67.358 41.1609 66.5199C41.4805 65.6818 41.9386 65.0426 42.5352 64.6023C43.1353 64.1619 43.8526 63.9418 44.6871 63.9418C45.5217 63.9418 46.2372 64.1637 46.8338 64.6076C47.4304 65.0479 47.8867 65.6871 48.2028 66.5252C48.5224 67.3597 48.6822 68.3683 48.6822 69.5508C48.6822 70.7404 48.5241 71.756 48.2081 72.5977C47.892 73.4357 47.4357 74.0767 46.8391 74.5206C46.2425 74.9609 45.5252 75.1811 44.6871 75.1811ZM44.6871 73.7589C45.4258 73.7589 46.0028 73.3984 46.4183 72.6776C46.8374 71.9567 47.0469 70.9144 47.0469 69.5508C47.0469 68.6452 46.951 67.88 46.7592 67.255C46.571 66.6264 46.2994 66.1506 45.9442 65.8274C45.5927 65.5007 45.1737 65.3374 44.6871 65.3374C43.9521 65.3374 43.375 65.6996 42.956 66.424C42.5369 67.1484 42.3256 68.1907 42.3221 69.5508C42.3221 70.4599 42.4162 71.2287 42.6044 71.8572C42.7962 72.4822 43.0678 72.9563 43.4194 73.2795C43.771 73.5991 44.1935 73.7589 44.6871 73.7589ZM55.3491 64.0909H57.2188L60.0685 69.0501H60.1857L63.0355 64.0909H64.9052L60.9474 70.7173V75H59.3068V70.7173L55.3491 64.0909ZM67.2093 75V64.0909H74.0487V65.5078H68.8552V68.8317H73.6919V70.2433H68.8552V73.5831H74.1127V75H67.2093ZM77.9189 75H76.1717L80.0975 64.0909H81.9991L85.9249 75H84.1777L81.0936 66.0724H81.0083L77.9189 75ZM78.2118 70.728H83.8794V72.1129H78.2118V70.728ZM88.2503 75V64.0909H92.1388C92.9839 64.0909 93.6853 64.2365 94.2428 64.5277C94.8039 64.8189 95.2229 65.2219 95.4999 65.7369C95.7769 66.2482 95.9154 66.8395 95.9154 67.5107C95.9154 68.1783 95.7751 68.766 95.4946 69.2738C95.2176 69.7781 94.7986 70.1705 94.2375 70.451C93.68 70.7315 92.9786 70.8718 92.1334 70.8718H89.1878V69.4549H91.9843C92.517 69.4549 92.9502 69.3786 93.284 69.2259C93.6214 69.0732 93.8682 68.8512 94.0244 68.56C94.1807 68.2688 94.2588 67.919 94.2588 67.5107C94.2588 67.0987 94.1789 66.7418 94.0191 66.44C93.8628 66.1381 93.616 65.9073 93.2787 65.7475C92.9449 65.5842 92.5063 65.5025 91.963 65.5025H89.8962V75H88.2503ZM93.6356 70.0781L96.3309 75H94.4559L91.8138 70.0781H93.6356ZM104.618 66.9567C104.561 66.4524 104.327 66.0618 103.915 65.7848C103.503 65.5043 102.985 65.364 102.36 65.364C101.912 65.364 101.525 65.435 101.198 65.5771C100.872 65.7156 100.618 65.9073 100.437 66.1523C100.259 66.3938 100.17 66.669 100.17 66.978C100.17 67.2372 100.231 67.4609 100.351 67.6491C100.476 67.8374 100.637 67.9954 100.836 68.1232C101.039 68.2475 101.255 68.3523 101.486 68.4375C101.717 68.5192 101.939 68.5866 102.152 68.6399L103.217 68.9169C103.565 69.0021 103.922 69.1175 104.288 69.2631C104.654 69.4087 104.993 69.6005 105.305 69.8384C105.618 70.0763 105.87 70.3711 106.062 70.7227C106.257 71.0742 106.355 71.495 106.355 71.9851C106.355 72.603 106.195 73.1516 105.875 73.631C105.559 74.1104 105.099 74.4886 104.496 74.7656C103.896 75.0426 103.169 75.1811 102.317 75.1811C101.5 75.1811 100.794 75.0515 100.197 74.7923C99.6004 74.533 99.1334 74.1655 98.7961 73.6896C98.4587 73.2102 98.2723 72.642 98.2368 71.9851H99.8881C99.92 72.3793 100.048 72.7077 100.272 72.9705C100.499 73.2298 100.788 73.4233 101.14 73.5511C101.495 73.6754 101.884 73.7376 102.306 73.7376C102.772 73.7376 103.185 73.6648 103.547 73.5192C103.913 73.37 104.201 73.1641 104.41 72.9013C104.62 72.6349 104.725 72.3242 104.725 71.9691C104.725 71.646 104.632 71.3814 104.448 71.1754C104.267 70.9695 104.02 70.799 103.707 70.6641C103.398 70.5291 103.049 70.4102 102.658 70.3072L101.369 69.9556C100.495 69.7177 99.8028 69.3679 99.2915 68.9062C98.7836 68.4446 98.5297 67.8338 98.5297 67.0739C98.5297 66.4453 98.7002 65.8967 99.0411 65.4279C99.382 64.9592 99.8437 64.5952 100.426 64.3359C101.008 64.0732 101.665 63.9418 102.397 63.9418C103.136 63.9418 103.787 64.0714 104.352 64.3306C104.92 64.5898 105.367 64.9467 105.694 65.4013C106.021 65.8523 106.191 66.3707 106.206 66.9567H104.618ZM33.1985 93V82.0909H34.8445V91.5831H39.7876V93H33.1985ZM43.8935 93H42.1463L46.0721 82.0909H47.9737L51.8995 93H50.1523L47.0682 84.0724H46.983L43.8935 93ZM44.1864 88.728H49.854V90.1129H44.1864V88.728ZM52.3978 83.5078V82.0909H60.8406V83.5078H57.4369V93H55.7963V83.5078H52.3978ZM63.4563 93V82.0909H70.2958V83.5078H65.1023V86.8317H69.9389V88.2433H65.1023V91.5831H70.3597V93H63.4563ZM73.2444 93V82.0909H77.1329C77.9781 82.0909 78.6794 82.2365 79.2369 82.5277C79.798 82.8189 80.2171 83.2219 80.4941 83.7369C80.771 84.2482 80.9095 84.8395 80.9095 85.5107C80.9095 86.1783 80.7693 86.766 80.4887 87.2738C80.2117 87.7781 79.7927 88.1705 79.2316 88.451C78.6741 88.7315 77.9727 88.8718 77.1276 88.8718H74.1819V87.4549H76.9784C77.5111 87.4549 77.9443 87.3786 78.2781 87.2259C78.6155 87.0732 78.8623 86.8512 79.0186 86.56C79.1748 86.2688 79.2529 85.919 79.2529 85.5107C79.2529 85.0987 79.173 84.7418 79.0132 84.44C78.857 84.1381 78.6102 83.9073 78.2728 83.7475C77.939 83.5842 77.5004 83.5025 76.9571 83.5025H74.8904V93H73.2444ZM78.6297 88.0781L81.325 93H79.45L76.808 88.0781H78.6297Z" fill="#EBECF1"/>
<path d="M33.395 45V34.53H37.565C38.505 34.53 39.225 34.8 39.725 35.34C40.235 35.87 40.49 36.6 40.49 37.53C40.49 38.46 40.235 39.195 39.725 39.735C39.225 40.265 38.505 40.53 37.565 40.53H34.655V45H33.395ZM34.655 39.42H37.565C38.065 39.42 38.45 39.29 38.72 39.03C39 38.77 39.14 38.4 39.14 37.92V37.14C39.14 36.66 39 36.29 38.72 36.03C38.45 35.77 38.065 35.64 37.565 35.64H34.655V39.42ZM44.8017 45H43.5417V34.53H47.7117C48.6317 34.53 49.3467 34.785 49.8567 35.295C50.3767 35.805 50.6367 36.54 50.6367 37.5C50.6367 38.27 50.4567 38.905 50.0967 39.405C49.7467 39.895 49.2267 40.22 48.5367 40.38L50.9367 45H49.5117L47.2467 40.5H44.8017V45ZM47.7117 39.42C48.2117 39.42 48.5967 39.29 48.8667 39.03C49.1467 38.77 49.2867 38.4 49.2867 37.92V37.14C49.2867 36.66 49.1467 36.29 48.8667 36.03C48.5967 35.77 48.2117 35.64 47.7117 35.64H44.8017V39.42H47.7117ZM54.1864 45V34.53L60.5764 34.53V35.64L55.4464 35.64V39.15L60.2764 39.15V40.26L55.4464 40.26V43.89L60.5764 43.89V45H54.1864ZM66.22 45L62.74 34.53H64.09L65.815 39.81L66.97 43.74H67.045L68.23 39.81L69.97 34.53H71.275L67.75 45H66.22ZM73.5307 45V43.95H75.0007V35.58H73.5307V34.53H77.7307V35.58H76.2607V43.95H77.7307V45H73.5307ZM84.9965 45.18C84.3165 45.18 83.7015 45.065 83.1515 44.835C82.6115 44.595 82.1465 44.25 81.7565 43.8C81.3765 43.34 81.0815 42.775 80.8715 42.105C80.6615 41.425 80.5565 40.645 80.5565 39.765C80.5565 38.885 80.6615 38.11 80.8715 37.44C81.0815 36.77 81.3765 36.205 81.7565 35.745C82.1465 35.285 82.6115 34.94 83.1515 34.71C83.7015 34.47 84.3165 34.35 84.9965 34.35C85.6665 34.35 86.2765 34.47 86.8265 34.71C87.3765 34.94 87.8415 35.285 88.2215 35.745C88.6115 36.205 88.9115 36.77 89.1215 37.44C89.3315 38.11 89.4365 38.885 89.4365 39.765C89.4365 40.645 89.3315 41.425 89.1215 42.105C88.9115 42.775 88.6115 43.34 88.2215 43.8C87.8415 44.25 87.3765 44.595 86.8265 44.835C86.2765 45.065 85.6665 45.18 84.9965 45.18ZM84.9965 44.055C85.4465 44.055 85.8615 43.975 86.2415 43.815C86.6215 43.655 86.9465 43.425 87.2165 43.125C87.4965 42.825 87.7115 42.465 87.8615 42.045C88.0115 41.625 88.0865 41.155 88.0865 40.635V38.895C88.0865 38.375 88.0115 37.905 87.8615 37.485C87.7115 37.065 87.4965 36.705 87.2165 36.405C86.9465 36.105 86.6215 35.875 86.2415 35.715C85.8615 35.555 85.4465 35.475 84.9965 35.475C84.5465 35.475 84.1315 35.555 83.7515 35.715C83.3715 35.875 83.0415 36.105 82.7615 36.405C82.4915 36.705 82.2815 37.065 82.1315 37.485C81.9815 37.905 81.9065 38.375 81.9065 38.895V40.635C81.9065 41.155 81.9815 41.625 82.1315 42.045C82.2815 42.465 82.4915 42.825 82.7615 43.125C83.0415 43.425 83.3715 43.655 83.7515 43.815C84.1315 43.975 84.5465 44.055 84.9965 44.055ZM93.9366 34.53V41.01C93.9366 42.01 94.1216 42.77 94.4916 43.29C94.8616 43.8 95.5116 44.055 96.4416 44.055C97.3716 44.055 98.0216 43.8 98.3916 43.29C98.7616 42.77 98.9466 42.01 98.9466 41.01V34.53H100.207V40.71C100.207 41.47 100.137 42.13 99.9966 42.69C99.8666 43.25 99.6516 43.715 99.3516 44.085C99.0516 44.455 98.6566 44.73 98.1666 44.91C97.6866 45.09 97.0966 45.18 96.3966 45.18C95.6966 45.18 95.1066 45.09 94.6266 44.91C94.1566 44.73 93.7766 44.455 93.4866 44.085C93.1966 43.715 92.9866 43.25 92.8566 42.69C92.7366 42.13 92.6766 41.47 92.6766 40.71V34.53H93.9366ZM106.908 45.18C106.058 45.18 105.333 45.02 104.733 44.7C104.133 44.37 103.623 43.92 103.203 43.35L104.133 42.57C104.503 43.06 104.913 43.435 105.363 43.695C105.813 43.945 106.343 44.07 106.953 44.07C107.703 44.07 108.273 43.89 108.663 43.53C109.063 43.17 109.263 42.69 109.263 42.09C109.263 41.59 109.113 41.205 108.813 40.935C108.513 40.665 108.018 40.45 107.328 40.29L106.473 40.095C105.513 39.875 104.778 39.545 104.268 39.105C103.768 38.655 103.518 38.025 103.518 37.215C103.518 36.755 103.603 36.345 103.773 35.985C103.943 35.625 104.178 35.325 104.478 35.085C104.788 34.845 105.153 34.665 105.573 34.545C106.003 34.415 106.473 34.35 106.983 34.35C107.773 34.35 108.448 34.495 109.008 34.785C109.578 35.075 110.058 35.5 110.448 36.06L109.503 36.75C109.213 36.35 108.863 36.035 108.453 35.805C108.043 35.575 107.533 35.46 106.923 35.46C106.253 35.46 105.723 35.605 105.333 35.895C104.953 36.175 104.763 36.6 104.763 37.17C104.763 37.67 104.923 38.05 105.243 38.31C105.573 38.56 106.068 38.76 106.728 38.91L107.583 39.105C108.613 39.335 109.358 39.685 109.818 40.155C110.278 40.625 110.508 41.25 110.508 42.03C110.508 42.51 110.423 42.945 110.253 43.335C110.093 43.725 109.858 44.055 109.548 44.325C109.238 44.595 108.858 44.805 108.408 44.955C107.968 45.105 107.468 45.18 106.908 45.18Z" fill="#EBECF1"/>
<line y1="-1" x2="19" y2="-1" transform="matrix(-1 0 0 1 32 14)" stroke="#F8D554" stroke-width="2"/>
<line y1="-1" x2="19" y2="-1" transform="matrix(0 1 1 0 15 13)" stroke="#F8D554" stroke-width="2"/>
</svg>
