<svg width="271" height="82" viewBox="0 0 271 82" fill="none" xmlns="http://www.w3.org/2000/svg">
<path d="M4.8582 37.8878H0.873557C0.291185 37.8878 0 37.5505 0 36.9602L0 1.66367C0 1.08101 0.291185 0.736023 0.873557 0.736023L4.8582 0.736023C5.44057 0.736023 5.73176 1.07335 5.73176 1.66367L5.73176 36.9679C5.73176 37.5505 5.44057 37.8955 4.8582 37.8955V37.8878Z" fill="#1B1C25"/>
<path d="M134.238 0L16.8516 0L16.8516 37.6041L134.238 37.6041V0Z" fill="#1B1C25"/>
<path d="M43.1187 29.4072L36.961 7.58904L41.2117 7.58904L45.1428 23.6224H45.3452L49.5427 7.58904H53.4099L57.618 23.6331H57.8097L61.7408 7.58904L65.9915 7.58904L59.8339 29.4072H55.9347L51.5668 14.0983H51.3964L47.0178 29.4072H43.1187ZM74.7845 7.58904V29.4072H70.8321V7.58904H74.7845ZM81.1646 29.4072V7.58904L85.117 7.58904V26.094H94.7263V29.4072L81.1646 29.4072ZM100.257 29.4072V7.58904L104.209 7.58904V26.094L113.819 26.094V29.4072L100.257 29.4072Z" fill="#EBECF1"/>
<path d="M156.58 58.62V57.32H147.14V55.84H158.54V60.06H149.16V61.36H159V62.84H147.22V58.62H156.58ZM161.12 64.06V65.6H144.72V64.06H161.12ZM147.16 72.62V69.64H156.86V68.44H147.06V66.88H158.74V71.12H149.04V72.36H159.24V73.94H148.46C148.033 73.94 147.707 73.8267 147.48 73.6C147.267 73.3733 147.16 73.0467 147.16 72.62ZM185.619 55.54V73.06H183.679V63.82H181.599V72.58H179.679V55.82H181.599V62.16H183.679V55.54H185.619ZM176.859 58.26H172.159V56.64H176.859V58.26ZM175.499 64.56C175.699 64.56 175.899 64.66 176.099 64.86L179.039 68.1L177.659 69.28L174.679 65.82C174.585 65.7533 174.505 65.72 174.439 65.72C174.359 65.72 174.285 65.76 174.219 65.84C173.565 66.96 172.559 68.2133 171.199 69.6L169.839 68.46C170.759 67.5267 171.479 66.7 171.999 65.98C172.532 65.2467 172.919 64.5267 173.159 63.82C173.399 63.1133 173.525 62.3333 173.539 61.48H170.379V59.86H178.559V61.48H175.379C175.365 62.72 175.139 63.84 174.699 64.84L174.819 64.9L175.059 64.72C175.205 64.6133 175.352 64.56 175.499 64.56ZM191.391 59.92C191.391 59.1067 191.611 58.3867 192.051 57.76C192.504 57.1333 193.191 56.64 194.111 56.28C195.031 55.9067 196.164 55.72 197.511 55.72C198.857 55.72 199.991 55.9067 200.911 56.28C201.831 56.64 202.511 57.1333 202.951 57.76C203.404 58.3867 203.631 59.1067 203.631 59.92C203.631 60.7333 203.404 61.46 202.951 62.1C202.511 62.7267 201.831 63.2267 200.911 63.6C199.991 63.96 198.857 64.14 197.511 64.14C196.164 64.14 195.031 63.96 194.111 63.6C193.191 63.2267 192.504 62.7267 192.051 62.1C191.611 61.46 191.391 60.7333 191.391 59.92ZM193.591 60.12C193.591 60.8133 193.917 61.3867 194.571 61.84C195.224 62.28 196.204 62.5 197.511 62.5C198.817 62.5 199.797 62.28 200.451 61.84C201.117 61.3867 201.451 60.8133 201.451 60.12V59.72C201.451 59.0267 201.117 58.4533 200.451 58C199.797 57.5467 198.817 57.32 197.511 57.32C196.204 57.32 195.224 57.5467 194.571 58C193.917 58.44 193.591 59.0133 193.591 59.72V60.12ZM205.711 67.46H198.531V73.76H196.511V67.46H189.311V65.74H205.711V67.46ZM222.663 62.62H211.003V56.2H213.023V60.96H222.663V62.62ZM224.943 64.52V66.26H208.543V64.52H224.943ZM212.883 71.72H222.863V73.4H212.143C211.716 73.4 211.389 73.2867 211.163 73.06C210.949 72.8333 210.843 72.5067 210.843 72.08V67.84H212.883V71.72ZM250.821 63.9H248.021V73.08H246.001V55.56H248.021V62.2H250.821V63.9ZM240.221 62.72C240.421 62.72 240.601 62.8133 240.761 63L244.361 67.64L242.781 68.96L239.161 64.12C239.121 64.04 239.055 64 238.961 64C238.895 64 238.828 64.04 238.761 64.12C238.401 64.88 237.935 65.6533 237.361 66.44C236.788 67.2267 236.041 68.1667 235.121 69.26L233.581 67.96C234.675 66.7333 235.521 65.6533 236.121 64.72C236.735 63.7867 237.181 62.8533 237.461 61.92C237.755 60.9733 237.901 59.9133 237.901 58.74V56.7H239.941V58.72C239.941 60.4 239.695 61.88 239.201 63.16L239.301 63.24L239.681 62.94C239.868 62.7933 240.048 62.72 240.221 62.72ZM270.053 59.96V61.66H267.313V66.26H265.293V55.54H267.313V59.96H270.053ZM263.673 65.14C261.54 65.54 258.9 65.74 255.753 65.74H253.813V60.16H259.793V58.06H253.753V56.42H261.733V61.78H255.733V64.12H255.873C258.74 64.12 261.253 63.9267 263.413 63.54L263.673 65.14ZM256.233 67.18H267.333V73.78H257.533C257.107 73.78 256.78 73.6667 256.553 73.44C256.34 73.2133 256.233 72.8867 256.233 72.46V67.18ZM258.273 72.12H265.293V68.86H258.273V72.12Z" fill="#1B1C25"/>
<path d="M61.7436 75L55.5859 53.1818H59.8366L63.7678 69.2152H63.9702L68.1676 53.1818H72.0348L76.2429 69.2259H76.4347L80.3658 53.1818H84.6165L78.4588 75H74.5597L70.1918 59.6911H70.0213L65.6428 75H61.7436ZM93.1431 65.4119V75H89.2866V53.1818H93.0579V61.4169H93.2497C93.6332 60.4936 94.2262 59.7656 95.0288 59.233C95.8385 58.6932 96.8683 58.4233 98.1183 58.4233C99.2547 58.4233 100.245 58.6612 101.091 59.1371C101.936 59.6129 102.589 60.3089 103.051 61.2251C103.52 62.1413 103.754 63.2599 103.754 64.581V75H99.8974V65.1776C99.8974 64.0767 99.6133 63.2209 99.0451 62.6101C98.4841 61.9922 97.6957 61.6832 96.6801 61.6832C95.9983 61.6832 95.3875 61.8324 94.8477 62.1307C94.315 62.4219 93.896 62.8445 93.5906 63.3984C93.2923 63.9524 93.1431 64.6236 93.1431 65.4119ZM111.596 81.1364C111.071 81.1364 110.584 81.0938 110.137 81.0085C109.696 80.9304 109.345 80.8381 109.082 80.7315L109.977 77.7273C110.538 77.8906 111.039 77.9688 111.479 77.9616C111.919 77.9545 112.306 77.8161 112.64 77.5462C112.981 77.2834 113.269 76.843 113.503 76.2251L113.833 75.3409L107.899 58.6364H111.99L115.762 70.9943H115.932L119.714 58.6364H123.816L117.264 76.9815C116.958 77.848 116.554 78.5902 116.049 79.2081C115.545 79.8331 114.927 80.3089 114.196 80.6357C113.471 80.9695 112.605 81.1364 111.596 81.1364Z" fill="#1B1C25"/>
</svg>
