<svg width="198" height="378" viewBox="0 0 198 378" fill="none" xmlns="http://www.w3.org/2000/svg">
<rect y="12" width="184" height="366" fill="#1B1C25"/>
<path d="M31.598 148V133.455H40.6179V135.344H33.7926V139.776H39.9716V141.658H33.7926V148H31.598ZM46.9114 133.455V148H44.7168V133.455H46.9114ZM63.2474 133.455V148H61.2304L53.8369 137.332H53.702V148H51.5074V133.455H53.5386L60.9392 144.136H61.0741V133.455H63.2474ZM69.0775 148H66.7479L71.9823 133.455H74.5178L79.7522 148H77.4227L73.3104 136.097H73.1968L69.0775 148ZM69.4681 142.304H77.0249V144.151H69.4681V142.304ZM83.2527 148V133.455H85.4473V146.111H92.0382V148H83.2527ZM41.4418 162.05C41.3045 161.619 41.1198 161.233 40.8878 160.892C40.6605 160.546 40.3883 160.253 40.071 160.011C39.7538 159.765 39.3916 159.578 38.9844 159.45C38.5819 159.322 38.1392 159.259 37.6562 159.259C36.8371 159.259 36.0985 159.469 35.4403 159.891C34.7822 160.312 34.2614 160.93 33.8778 161.744C33.4991 162.554 33.3097 163.546 33.3097 164.72C33.3097 165.899 33.5014 166.896 33.8849 167.71C34.2685 168.525 34.794 169.143 35.4616 169.564C36.1293 169.985 36.8892 170.196 37.7415 170.196C38.5322 170.196 39.2211 170.035 39.8082 169.713C40.4001 169.391 40.857 168.937 41.179 168.349C41.5057 167.758 41.669 167.062 41.669 166.261L42.2372 166.368H38.0753V164.557H43.7926V166.212C43.7926 167.433 43.5322 168.494 43.0114 169.393C42.4953 170.288 41.7803 170.98 40.8665 171.467C39.9574 171.955 38.9157 172.199 37.7415 172.199C36.4252 172.199 35.2699 171.896 34.2756 171.29C33.286 170.684 32.5142 169.824 31.9602 168.712C31.4063 167.594 31.1293 166.268 31.1293 164.734C31.1293 163.574 31.2902 162.533 31.6122 161.609C31.9342 160.686 32.3864 159.902 32.9688 159.259C33.5559 158.61 34.2448 158.115 35.0355 157.774C35.831 157.429 36.6998 157.256 37.642 157.256C38.428 157.256 39.1596 157.372 39.8366 157.604C40.5185 157.836 41.1245 158.165 41.6548 158.591C42.1899 159.017 42.6326 159.524 42.983 160.111C43.3333 160.693 43.5701 161.339 43.6932 162.05H41.4418ZM60.6134 164.727C60.6134 166.28 60.3293 167.616 59.7612 168.733C59.193 169.846 58.4141 170.703 57.4245 171.304C56.4397 171.901 55.3199 172.199 54.0651 172.199C52.8057 172.199 51.6811 171.901 50.6915 171.304C49.7067 170.703 48.9302 169.843 48.362 168.726C47.7938 167.608 47.5097 166.276 47.5097 164.727C47.5097 163.174 47.7938 161.841 48.362 160.729C48.9302 159.611 49.7067 158.754 50.6915 158.158C51.6811 157.556 52.8057 157.256 54.0651 157.256C55.3199 157.256 56.4397 157.556 57.4245 158.158C58.4141 158.754 59.193 159.611 59.7612 160.729C60.3293 161.841 60.6134 163.174 60.6134 164.727ZM58.4401 164.727C58.4401 163.544 58.2484 162.547 57.8648 161.737C57.4861 160.923 56.9652 160.307 56.3023 159.891C55.6442 159.469 54.8985 159.259 54.0651 159.259C53.2271 159.259 52.479 159.469 51.8208 159.891C51.1627 160.307 50.6418 160.923 50.2583 161.737C49.8795 162.547 49.6901 163.544 49.6901 164.727C49.6901 165.911 49.8795 166.91 50.2583 167.724C50.6418 168.534 51.1627 169.15 51.8208 169.571C52.479 169.988 53.2271 170.196 54.0651 170.196C54.8985 170.196 55.6442 169.988 56.3023 169.571C56.9652 169.15 57.4861 168.534 57.8648 167.724C58.2484 166.91 58.4401 165.911 58.4401 164.727ZM65.2556 172H62.9261L68.1604 157.455H70.696L75.9303 172H73.6008L69.4886 160.097H69.3749L65.2556 172ZM65.6462 166.304H73.2031V168.151H65.6462V166.304ZM79.4308 172V157.455H81.6254V170.111H88.2163V172H79.4308Z" fill="#F8D554"/>
<path d="M33.93 91.61L32.67 89.285H32.625V98H31.395L31.395 87.53H32.85L36.675 93.92L37.935 96.245H37.98V87.53H39.21V98H37.755L33.93 91.61ZM43.0505 98V87.53H49.4405V88.64H44.3105V92.15H49.1405V93.26H44.3105V96.89H49.4405V98H43.0505ZM60.2856 98H58.7706L56.0256 93.605H55.9956L53.2506 98H51.8106L55.2306 92.675L51.9006 87.53H53.4156L56.0406 91.7H56.0706L58.7556 87.53H60.1956L56.8356 92.63L60.2856 98ZM66.6198 88.64V98H65.3598V88.64H62.0298V87.53H69.9498V88.64H66.6198Z" fill="#EBECF1"/>
<path d="M196 129V1.5H103" stroke="#F8D554" stroke-width="3"/>
</svg>
