<svg width="184" height="158" viewBox="0 0 184 158" fill="none" xmlns="http://www.w3.org/2000/svg">
<rect width="184" height="158" fill="#1B1C25"/>
<path d="M37.1882 64.0909V75H35.5369V65.7422H35.473L32.8629 67.4467V65.87L35.5849 64.0909H37.1882ZM44.9165 64.0909H46.7861L49.6359 69.0501H49.7531L52.6029 64.0909H54.4726L50.5148 70.7173V75H48.8742V70.7173L44.9165 64.0909ZM56.7766 75V64.0909H63.6161V65.5078H58.4226V68.8317H63.2592V70.2433H58.4226V73.5831H63.68V75H56.7766ZM67.4862 75H65.7391L69.6649 64.0909H71.5665L75.4923 75H73.7451L70.661 66.0724H70.5757L67.4862 75ZM67.7792 70.728H73.4468V72.1129H67.7792V70.728ZM77.8176 75V64.0909H81.7061C82.5513 64.0909 83.2527 64.2365 83.8102 64.5277C84.3713 64.8189 84.7903 65.2219 85.0673 65.7369C85.3443 66.2482 85.4828 66.8395 85.4828 67.5107C85.4828 68.1783 85.3425 68.766 85.062 69.2738C84.785 69.7781 84.3659 70.1705 83.8049 70.451C83.2473 70.7315 82.546 70.8718 81.7008 70.8718H78.7551V69.4549H81.5517C82.0843 69.4549 82.5176 69.3786 82.8514 69.2259C83.1887 69.0732 83.4355 68.8512 83.5918 68.56C83.748 68.2688 83.8262 67.919 83.8262 67.5107C83.8262 67.0987 83.7463 66.7418 83.5865 66.44C83.4302 66.1381 83.1834 65.9073 82.8461 65.7475C82.5123 65.5842 82.0737 65.5025 81.5304 65.5025H79.4636V75H77.8176ZM83.2029 70.0781L85.8983 75H84.0233L81.3812 70.0781H83.2029ZM94.1855 66.9567C94.1287 66.4524 93.8944 66.0618 93.4824 65.7848C93.0705 65.5043 92.552 65.364 91.927 65.364C91.4796 65.364 91.0925 65.435 90.7658 65.5771C90.4391 65.7156 90.1852 65.9073 90.0041 66.1523C89.8265 66.3938 89.7377 66.669 89.7377 66.978C89.7377 67.2372 89.7981 67.4609 89.9189 67.6491C90.0431 67.8374 90.2047 67.9954 90.4036 68.1232C90.606 68.2475 90.8226 68.3523 91.0534 68.4375C91.2843 68.5192 91.5062 68.5866 91.7193 68.6399L92.7846 68.9169C93.1326 69.0021 93.4895 69.1175 93.8553 69.2631C94.2211 69.4087 94.5602 69.6005 94.8727 69.8384C95.1852 70.0763 95.4373 70.3711 95.6291 70.7227C95.8244 71.0742 95.9221 71.495 95.9221 71.9851C95.9221 72.603 95.7623 73.1516 95.4426 73.631C95.1266 74.1104 94.6667 74.4886 94.063 74.7656C93.4629 75.0426 92.7367 75.1811 91.8844 75.1811C91.0676 75.1811 90.361 75.0515 89.7644 74.7923C89.1678 74.533 88.7008 74.1655 88.3635 73.6896C88.0261 73.2102 87.8397 72.642 87.8042 71.9851H89.4554C89.4874 72.3793 89.6152 72.7077 89.839 72.9705C90.0662 73.2298 90.3556 73.4233 90.7072 73.5511C91.0623 73.6754 91.4512 73.7376 91.8738 73.7376C92.339 73.7376 92.7527 73.6648 93.1149 73.5192C93.4806 73.37 93.7683 73.1641 93.9778 72.9013C94.1873 72.6349 94.2921 72.3242 94.2921 71.9691C94.2921 71.646 94.1998 71.3814 94.0151 71.1754C93.834 70.9695 93.5872 70.799 93.2747 70.6641C92.9657 70.5291 92.6159 70.4102 92.2253 70.3072L90.9363 69.9556C90.0627 69.7177 89.3702 69.3679 88.8588 68.9062C88.351 68.4446 88.0971 67.8338 88.0971 67.0739C88.0971 66.4453 88.2676 65.8967 88.6085 65.4279C88.9494 64.9592 89.411 64.5952 89.9934 64.3359C90.5758 64.0732 91.2328 63.9418 91.9643 63.9418C92.7029 63.9418 93.3546 64.0714 93.9192 64.3306C94.4874 64.5898 94.9348 64.9467 95.2615 65.4013C95.5882 65.8523 95.7587 66.3707 95.7729 66.9567H94.1855ZM33.1985 93V82.0909H34.8445V91.5831H39.7876V93H33.1985ZM43.8935 93H42.1463L46.0721 82.0909H47.9737L51.8995 93H50.1523L47.0682 84.0724H46.983L43.8935 93ZM44.1864 88.728H49.854V90.1129H44.1864V88.728ZM52.3978 83.5078V82.0909H60.8406V83.5078H57.4369V93H55.7963V83.5078H52.3978ZM63.4563 93V82.0909H70.2958V83.5078H65.1023V86.8317H69.9389V88.2433H65.1023V91.5831H70.3597V93H63.4563ZM73.2444 93V82.0909H77.1329C77.9781 82.0909 78.6794 82.2365 79.2369 82.5277C79.798 82.8189 80.2171 83.2219 80.4941 83.7369C80.771 84.2482 80.9095 84.8395 80.9095 85.5107C80.9095 86.1783 80.7693 86.766 80.4887 87.2738C80.2117 87.7781 79.7927 88.1705 79.2316 88.451C78.6741 88.7315 77.9727 88.8718 77.1276 88.8718H74.1819V87.4549H76.9784C77.5111 87.4549 77.9443 87.3786 78.2781 87.2259C78.6155 87.0732 78.8623 86.8512 79.0186 86.56C79.1748 86.2688 79.2529 85.919 79.2529 85.5107C79.2529 85.0987 79.173 84.7418 79.0132 84.44C78.857 84.1381 78.6102 83.9073 78.2728 83.7475C77.939 83.5842 77.5004 83.5025 76.9571 83.5025H74.8904V93H73.2444ZM78.6297 88.0781L81.325 93H79.45L76.808 88.0781H78.6297Z" fill="#EBECF1"/>
<path d="M33.395 45V34.53H37.565C38.505 34.53 39.225 34.8 39.725 35.34C40.235 35.87 40.49 36.6 40.49 37.53C40.49 38.46 40.235 39.195 39.725 39.735C39.225 40.265 38.505 40.53 37.565 40.53H34.655V45H33.395ZM34.655 39.42H37.565C38.065 39.42 38.45 39.29 38.72 39.03C39 38.77 39.14 38.4 39.14 37.92V37.14C39.14 36.66 39 36.29 38.72 36.03C38.45 35.77 38.065 35.64 37.565 35.64H34.655V39.42ZM44.8017 45H43.5417V34.53H47.7117C48.6317 34.53 49.3467 34.785 49.8567 35.295C50.3767 35.805 50.6367 36.54 50.6367 37.5C50.6367 38.27 50.4567 38.905 50.0967 39.405C49.7467 39.895 49.2267 40.22 48.5367 40.38L50.9367 45H49.5117L47.2467 40.5H44.8017V45ZM47.7117 39.42C48.2117 39.42 48.5967 39.29 48.8667 39.03C49.1467 38.77 49.2867 38.4 49.2867 37.92V37.14C49.2867 36.66 49.1467 36.29 48.8667 36.03C48.5967 35.77 48.2117 35.64 47.7117 35.64H44.8017V39.42H47.7117ZM54.1864 45V34.53L60.5764 34.53V35.64L55.4464 35.64V39.15L60.2764 39.15V40.26L55.4464 40.26V43.89L60.5764 43.89V45H54.1864ZM66.22 45L62.74 34.53H64.09L65.815 39.81L66.97 43.74H67.045L68.23 39.81L69.97 34.53H71.275L67.75 45H66.22ZM73.5307 45V43.95H75.0007V35.58H73.5307V34.53H77.7307V35.58H76.2607V43.95H77.7307V45H73.5307ZM84.9965 45.18C84.3165 45.18 83.7015 45.065 83.1515 44.835C82.6115 44.595 82.1465 44.25 81.7565 43.8C81.3765 43.34 81.0815 42.775 80.8715 42.105C80.6615 41.425 80.5565 40.645 80.5565 39.765C80.5565 38.885 80.6615 38.11 80.8715 37.44C81.0815 36.77 81.3765 36.205 81.7565 35.745C82.1465 35.285 82.6115 34.94 83.1515 34.71C83.7015 34.47 84.3165 34.35 84.9965 34.35C85.6665 34.35 86.2765 34.47 86.8265 34.71C87.3765 34.94 87.8415 35.285 88.2215 35.745C88.6115 36.205 88.9115 36.77 89.1215 37.44C89.3315 38.11 89.4365 38.885 89.4365 39.765C89.4365 40.645 89.3315 41.425 89.1215 42.105C88.9115 42.775 88.6115 43.34 88.2215 43.8C87.8415 44.25 87.3765 44.595 86.8265 44.835C86.2765 45.065 85.6665 45.18 84.9965 45.18ZM84.9965 44.055C85.4465 44.055 85.8615 43.975 86.2415 43.815C86.6215 43.655 86.9465 43.425 87.2165 43.125C87.4965 42.825 87.7115 42.465 87.8615 42.045C88.0115 41.625 88.0865 41.155 88.0865 40.635V38.895C88.0865 38.375 88.0115 37.905 87.8615 37.485C87.7115 37.065 87.4965 36.705 87.2165 36.405C86.9465 36.105 86.6215 35.875 86.2415 35.715C85.8615 35.555 85.4465 35.475 84.9965 35.475C84.5465 35.475 84.1315 35.555 83.7515 35.715C83.3715 35.875 83.0415 36.105 82.7615 36.405C82.4915 36.705 82.2815 37.065 82.1315 37.485C81.9815 37.905 81.9065 38.375 81.9065 38.895V40.635C81.9065 41.155 81.9815 41.625 82.1315 42.045C82.2815 42.465 82.4915 42.825 82.7615 43.125C83.0415 43.425 83.3715 43.655 83.7515 43.815C84.1315 43.975 84.5465 44.055 84.9965 44.055ZM93.9366 34.53V41.01C93.9366 42.01 94.1216 42.77 94.4916 43.29C94.8616 43.8 95.5116 44.055 96.4416 44.055C97.3716 44.055 98.0216 43.8 98.3916 43.29C98.7616 42.77 98.9466 42.01 98.9466 41.01V34.53H100.207V40.71C100.207 41.47 100.137 42.13 99.9966 42.69C99.8666 43.25 99.6516 43.715 99.3516 44.085C99.0516 44.455 98.6566 44.73 98.1666 44.91C97.6866 45.09 97.0966 45.18 96.3966 45.18C95.6966 45.18 95.1066 45.09 94.6266 44.91C94.1566 44.73 93.7766 44.455 93.4866 44.085C93.1966 43.715 92.9866 43.25 92.8566 42.69C92.7366 42.13 92.6766 41.47 92.6766 40.71V34.53H93.9366ZM106.908 45.18C106.058 45.18 105.333 45.02 104.733 44.7C104.133 44.37 103.623 43.92 103.203 43.35L104.133 42.57C104.503 43.06 104.913 43.435 105.363 43.695C105.813 43.945 106.343 44.07 106.953 44.07C107.703 44.07 108.273 43.89 108.663 43.53C109.063 43.17 109.263 42.69 109.263 42.09C109.263 41.59 109.113 41.205 108.813 40.935C108.513 40.665 108.018 40.45 107.328 40.29L106.473 40.095C105.513 39.875 104.778 39.545 104.268 39.105C103.768 38.655 103.518 38.025 103.518 37.215C103.518 36.755 103.603 36.345 103.773 35.985C103.943 35.625 104.178 35.325 104.478 35.085C104.788 34.845 105.153 34.665 105.573 34.545C106.003 34.415 106.473 34.35 106.983 34.35C107.773 34.35 108.448 34.495 109.008 34.785C109.578 35.075 110.058 35.5 110.448 36.06L109.503 36.75C109.213 36.35 108.863 36.035 108.453 35.805C108.043 35.575 107.533 35.46 106.923 35.46C106.253 35.46 105.723 35.605 105.333 35.895C104.953 36.175 104.763 36.6 104.763 37.17C104.763 37.67 104.923 38.05 105.243 38.31C105.573 38.56 106.068 38.76 106.728 38.91L107.583 39.105C108.613 39.335 109.358 39.685 109.818 40.155C110.278 40.625 110.508 41.25 110.508 42.03C110.508 42.51 110.423 42.945 110.253 43.335C110.093 43.725 109.858 44.055 109.548 44.325C109.238 44.595 108.858 44.805 108.408 44.955C107.968 45.105 107.468 45.18 106.908 45.18Z" fill="#EBECF1"/>
<line y1="-1" x2="19" y2="-1" transform="matrix(-1 0 0 1 32 14)" stroke="#F8D554" stroke-width="2"/>
<line y1="-1" x2="19" y2="-1" transform="matrix(0 1 1 0 15 13)" stroke="#F8D554" stroke-width="2"/>
</svg>
