<svg width="216" height="183" viewBox="0 0 216 183" fill="none" xmlns="http://www.w3.org/2000/svg">
<path fill-rule="evenodd" clip-rule="evenodd" d="M215.69 113.96C155.98 157.385 82.4812 183 3.00006 183C2.31739 183 1.63516 182.998 0.953369 182.994L0.974679 42.9909C1.64909 42.9969 2.32422 42.9999 3.00006 42.9999C51.7804 42.9999 96.8861 27.2669 133.52 0.598389L215.69 113.96Z" fill="#1B1C25"/>
<path d="M58.7789 101.987H56.7589V92.8471H58.7789V101.987ZM49.1189 98.5271C49.0122 98.5271 48.9255 98.5671 48.8589 98.6471C48.4722 99.2338 47.9922 99.8205 47.4189 100.407C46.8455 100.98 46.1255 101.634 45.2589 102.367L43.7589 101.067C44.8389 100.187 45.6855 99.4005 46.2989 98.7071C46.9122 98.0138 47.3522 97.3271 47.6189 96.6471C47.8989 95.9671 48.0389 95.2138 48.0389 94.3871V93.3071H50.0789V94.5271C50.0789 95.7405 49.8322 96.8405 49.3389 97.8271L49.4389 97.9071L49.8789 97.5271C50.0789 97.3671 50.2655 97.2871 50.4389 97.2871C50.5989 97.2871 50.7722 97.3605 50.9589 97.5071L54.4389 100.567L53.0189 102.007L49.3989 98.6471C49.3189 98.5671 49.2255 98.5271 49.1189 98.5271ZM59.2189 109.467V111.207H48.6989C48.2722 111.207 47.9455 111.094 47.7189 110.867C47.5055 110.64 47.3989 110.314 47.3989 109.887V106.247H56.7389V104.727H47.2989V103.007H58.7989V107.927H49.4589V109.467H59.2189ZM76.9309 100.927H65.2109V93.4071H76.9309V100.927ZM74.9109 95.0871H67.2309V99.2471H74.9109V95.0871ZM79.2709 104.807H72.0909V111.067H70.0709V104.807H62.8709V103.087H79.2709V104.807ZM103.369 92.8471V103.347H101.349V100.767H98.1695V99.1271H101.349V96.9671H98.1695V95.3271H101.349V92.8471H103.369ZM93.2695 102.607C92.3628 102.607 91.5562 102.427 90.8495 102.067C90.1428 101.694 89.5895 101.167 89.1895 100.487C88.8028 99.8071 88.6095 99.0071 88.6095 98.0871C88.6095 97.1671 88.8028 96.3671 89.1895 95.6871C89.5895 95.0071 90.1428 94.4871 90.8495 94.1271C91.5562 93.7538 92.3628 93.5671 93.2695 93.5671C94.1762 93.5671 94.9762 93.7538 95.6695 94.1271C96.3762 94.4871 96.9295 95.0071 97.3295 95.6871C97.7295 96.3671 97.9295 97.1671 97.9295 98.0871C97.9295 99.0071 97.7295 99.8071 97.3295 100.487C96.9295 101.167 96.3762 101.694 95.6695 102.067C94.9628 102.427 94.1628 102.607 93.2695 102.607ZM93.2695 100.987C94.0295 100.987 94.6428 100.767 95.1095 100.327C95.5762 99.8871 95.8095 99.2871 95.8095 98.5271V97.6671C95.8095 96.9071 95.5762 96.3071 95.1095 95.8671C94.6562 95.4271 94.0428 95.2071 93.2695 95.2071C92.4962 95.2071 91.8762 95.4271 91.4095 95.8671C90.9562 96.3071 90.7295 96.9071 90.7295 97.6671V98.5271C90.7295 99.2871 90.9628 99.8871 91.4295 100.327C91.8962 100.767 92.5095 100.987 93.2695 100.987ZM91.7295 104.347H103.369V111.267H101.389V106.047H91.7295V104.347ZM121.662 97.0071V99.2471H124.382V100.907H121.662V103.647H119.662V92.8471H121.662V95.3271H124.382V97.0071H121.662ZM118.002 102.447C115.868 102.847 113.228 103.047 110.082 103.047H108.142V97.4671H114.122V95.3671H108.082V93.7271H116.062V99.0871H110.062V101.427H110.202C113.068 101.427 115.582 101.234 117.742 100.847L118.002 102.447ZM121.802 107.747C121.802 108.467 121.582 109.1 121.142 109.647C120.715 110.207 120.075 110.64 119.222 110.947C118.382 111.254 117.362 111.407 116.162 111.407C114.948 111.407 113.915 111.254 113.062 110.947C112.208 110.64 111.562 110.207 111.122 109.647C110.695 109.1 110.482 108.467 110.482 107.747C110.482 107.027 110.695 106.394 111.122 105.847C111.562 105.3 112.208 104.874 113.062 104.567C113.915 104.26 114.948 104.107 116.162 104.107C117.362 104.107 118.382 104.26 119.222 104.567C120.075 104.874 120.715 105.3 121.142 105.847C121.582 106.394 121.802 107.027 121.802 107.747ZM119.642 107.607C119.642 107.06 119.355 106.607 118.782 106.247C118.208 105.874 117.335 105.687 116.162 105.687C114.988 105.687 114.108 105.874 113.522 106.247C112.935 106.607 112.642 107.06 112.642 107.607V107.907C112.642 108.44 112.935 108.887 113.522 109.247C114.108 109.62 114.988 109.807 116.162 109.807C117.335 109.807 118.208 109.62 118.782 109.247C119.355 108.887 119.642 108.44 119.642 107.907V107.607Z" fill="#EBECF1"/>
</svg>
