<svg width="152" height="229" viewBox="0 0 152 229" fill="none" xmlns="http://www.w3.org/2000/svg">
<path fill-rule="evenodd" clip-rule="evenodd" d="M133.607 0.765381L0.396484 43.9779C7.92106 66.277 12 90.1621 12 115C12 139.503 8.03018 163.079 0.698604 185.12L133.905 228.331C145.647 192.681 152 154.582 152 115C152 75.0832 145.539 36.6755 133.607 0.765381Z" fill="#1B1C25"/>
<path d="M57.2039 118.571H45.6039V111.711H57.2039V118.571ZM55.2039 113.351H47.6039V116.931H55.2039V113.351ZM59.6039 120.271V121.991H52.5439V125.491H50.5039V121.991H43.2039V120.271H59.6039ZM47.4839 127.511H57.4839V129.191H46.7639C46.3373 129.191 46.0106 129.078 45.7839 128.851C45.5706 128.625 45.4639 128.298 45.4639 127.871V123.751H47.4839V127.511ZM77.976 111.151V128.671H76.036V111.151H77.976ZM72.156 111.431H74.076V128.191H72.156V118.711H69.636V117.051H72.156V111.431ZM67.856 118.931C68.0826 118.931 68.276 119.038 68.436 119.251L71.296 123.311L69.856 124.511L66.956 120.271C66.8893 120.191 66.8226 120.151 66.756 120.151C66.676 120.151 66.616 120.191 66.576 120.271C66.2826 120.925 65.896 121.611 65.416 122.331C64.936 123.051 64.336 123.878 63.616 124.811L62.196 123.631C63.116 122.471 63.8293 121.445 64.336 120.551C64.856 119.645 65.2293 118.751 65.456 117.871C65.696 116.991 65.816 116.018 65.816 114.951V114.591H62.696V112.891H70.736V114.591H67.716V114.931C67.716 116.451 67.4826 117.878 67.016 119.211L67.116 119.271L67.376 119.091C67.5226 118.985 67.6826 118.931 67.856 118.931ZM103.335 111.151V128.671H101.395V119.711H99.3946V128.191H97.4546V111.431H99.3946V118.051H101.395V111.151H103.335ZM94.8946 114.151H89.6346V112.511H94.8946V114.151ZM87.6546 115.971H96.6346V117.571H94.4746V117.671C95.4479 118.245 95.9346 119.291 95.9346 120.811C95.9346 122.065 95.5879 123.051 94.8946 123.771C94.2146 124.478 93.3146 124.831 92.1946 124.831C91.0612 124.831 90.1546 124.478 89.4746 123.771C88.7946 123.051 88.4546 122.065 88.4546 120.811C88.4546 119.305 88.9346 118.265 89.8946 117.691V117.571H87.6546V115.971ZM94.0346 119.931C94.0346 119.251 93.8679 118.725 93.5346 118.351C93.2146 117.978 92.7679 117.791 92.1946 117.791C91.6212 117.791 91.1679 117.978 90.8346 118.351C90.5146 118.725 90.3546 119.251 90.3546 119.931V121.051C90.3546 121.718 90.5212 122.245 90.8546 122.631C91.2012 123.005 91.6479 123.191 92.1946 123.191C92.7412 123.191 93.1812 123.005 93.5146 122.631C93.8612 122.245 94.0346 121.718 94.0346 121.051V119.931ZM120.147 118.611H116.507V117.011H120.147V114.991H116.507V113.371H120.147V111.151H122.167V120.291H120.147V118.611ZM108.627 120.811L107.567 119.291C109.233 118.691 110.52 118.138 111.427 117.631C112.333 117.111 112.967 116.585 113.327 116.051C113.687 115.505 113.867 114.871 113.867 114.151V113.611H108.107V111.911H115.907V113.891C115.907 115.011 115.687 115.951 115.247 116.711C114.82 117.471 114.087 118.171 113.047 118.811C112.02 119.438 110.547 120.105 108.627 120.811ZM122.607 127.771V129.511H112.087C111.66 129.511 111.333 129.398 111.107 129.171C110.893 128.945 110.787 128.618 110.787 128.191V124.551H120.127V123.031H110.687V121.311H122.187V126.231H112.847V127.771H122.607Z" fill="#EBECF1"/>
</svg>
