<svg width="217" height="225" viewBox="0 0 217 225" fill="none" xmlns="http://www.w3.org/2000/svg">
<path fill-rule="evenodd" clip-rule="evenodd" d="M216.612 180.782C192.172 107.22 144.77 44.1379 82.9033 0.0334473L0.730957 113.404C38.9828 140.359 68.3367 179.095 83.5163 224.334L216.612 180.782Z" fill="#273F65"/>
<path d="M95.9588 125.359V127.059H93.2188V131.659H91.1988V120.939H93.2188V125.359H95.9588ZM89.4988 130.519C87.2988 130.933 84.6654 131.139 81.5988 131.139H79.6188V121.819H87.8788V123.459H81.5788V125.579H87.6188V127.219H81.5788V129.519H81.7188C84.5054 129.519 87.0188 129.319 89.2588 128.919L89.4988 130.519ZM82.1388 132.579H93.2388V139.179H83.4388C83.0121 139.179 82.6854 139.066 82.4588 138.839C82.2454 138.613 82.1388 138.286 82.1388 137.859V132.579ZM84.1788 137.519H91.1988V134.259H84.1788V137.519ZM114.671 131.439H107.471V139.119H105.451V131.439H98.2708V129.719H109.711C110.124 127.706 110.351 125.599 110.391 123.399H100.411V121.699H112.391V123.039C112.391 125.293 112.164 127.519 111.711 129.719H114.671V131.439ZM132.643 120.939V131.039H130.623V120.939H132.643ZM123.003 127.019C122.896 127.019 122.803 127.066 122.723 127.159C122.363 127.733 121.896 128.319 121.323 128.919C120.763 129.519 120.029 130.226 119.123 131.039L117.623 129.719C118.703 128.799 119.549 127.979 120.163 127.259C120.776 126.539 121.216 125.826 121.483 125.119C121.763 124.413 121.903 123.633 121.903 122.779V121.599H123.943V122.899C123.943 124.153 123.696 125.293 123.203 126.319L123.303 126.399L123.743 126.019C123.929 125.859 124.109 125.779 124.283 125.779C124.456 125.779 124.636 125.859 124.823 126.019L128.323 129.239L126.863 130.659L123.263 127.139C123.183 127.059 123.096 127.019 123.003 127.019ZM121.363 132.039H132.643V139.179H122.663C122.236 139.179 121.909 139.066 121.683 138.839C121.469 138.613 121.363 138.286 121.363 137.859V132.039ZM123.383 137.499H130.623V133.719H123.383V137.499Z" fill="#EBECF1"/>
</svg>
