<svg width="215" height="182" viewBox="0 0 215 182" fill="none" xmlns="http://www.w3.org/2000/svg">
<path fill-rule="evenodd" clip-rule="evenodd" d="M0.975045 140.009C1.64932 140.003 2.32431 140 3.00001 140C51.2024 140 95.8167 155.362 132.214 181.458L214.385 68.0956C154.91 25.2438 81.9031 0 3.00001 0C2.31748 0 1.63538 0.00188893 0.953735 0.00566185L0.975045 140.009Z" fill="#1B1C25"/>
<path d="M65.8967 89.1441V90.8441H49.4967V89.1441H56.6967V84.9441H51.8167V76.4441H63.6567V78.1641H53.8567V83.2041H63.7967V84.9441H58.7167V89.1441H65.8967ZM81.8487 79.8641V75.2641H83.8687V88.4841H81.8487V81.5641H78.5287V79.8641H81.8487ZM74.2487 82.3241C74.1421 82.3241 74.0487 82.3641 73.9687 82.4441C73.5954 82.9908 73.1287 83.5508 72.5687 84.1241C72.0221 84.6975 71.3154 85.3775 70.4487 86.1641L68.9487 84.8841C70.0021 84.0041 70.8354 83.2175 71.4487 82.5241C72.0621 81.8175 72.5087 81.1241 72.7887 80.4441C73.0821 79.7508 73.2287 79.0041 73.2287 78.2041H69.5487V76.5241H78.8887V78.2041H75.2487V78.2841C75.2487 79.4575 75.0021 80.5508 74.5087 81.5641L74.6087 81.6241L75.0287 81.3241C75.2021 81.1908 75.3821 81.1241 75.5687 81.1241C75.7954 81.1241 75.9954 81.2041 76.1687 81.3641L79.5687 84.4641L78.0687 85.7841L74.5487 82.4441C74.4554 82.3641 74.3554 82.3241 74.2487 82.3241ZM84.2287 91.5041V93.1641H73.8287C73.4021 93.1641 73.0754 93.0508 72.8487 92.8241C72.6354 92.5975 72.5287 92.2708 72.5287 91.8441V87.2241H74.5487V91.5041H84.2287ZM101.081 79.4641V75.2641H103.101V85.7441H101.081V81.1241H97.7608V79.4641H101.081ZM89.6808 85.3841L88.1808 84.0841C89.2341 83.2975 90.0674 82.5841 90.6808 81.9441C91.2941 81.3041 91.7408 80.6708 92.0208 80.0441C92.3141 79.4175 92.4608 78.7308 92.4608 77.9841H88.7808V76.3041H98.1208V77.9841H94.4808V78.1041C94.4808 79.1975 94.2341 80.2041 93.7408 81.1241L93.8608 81.2041L94.2808 80.9041C94.4674 80.7575 94.6541 80.6841 94.8408 80.6841C95.0408 80.6841 95.2341 80.7575 95.4208 80.9041L98.8008 83.7241L97.3008 85.0441L93.8008 81.9841C93.7074 81.9041 93.5941 81.8641 93.4608 81.8641C93.3674 81.8641 93.2741 81.8975 93.1808 81.9641C92.8074 82.4708 92.3474 82.9908 91.8008 83.5241C91.2541 84.0441 90.5474 84.6641 89.6808 85.3841ZM103.161 89.9041C103.161 90.6508 102.941 91.3108 102.501 91.8841C102.061 92.4708 101.407 92.9308 100.541 93.2641C99.6741 93.5975 98.6341 93.7641 97.4208 93.7641C96.1941 93.7641 95.1474 93.5975 94.2808 93.2641C93.4141 92.9308 92.7608 92.4708 92.3208 91.8841C91.8808 91.3108 91.6608 90.6508 91.6608 89.9041C91.6608 89.1575 91.8808 88.4975 92.3208 87.9241C92.7608 87.3375 93.4141 86.8841 94.2808 86.5641C95.1474 86.2308 96.1941 86.0641 97.4208 86.0641C98.6474 86.0641 99.6874 86.2308 100.541 86.5641C101.407 86.8841 102.061 87.3375 102.501 87.9241C102.941 88.4975 103.161 89.1575 103.161 89.9041ZM101.041 89.7641C101.041 89.1641 100.741 88.6641 100.141 88.2641C99.5408 87.8508 98.6341 87.6441 97.4208 87.6441C96.2074 87.6441 95.2941 87.8508 94.6808 88.2641C94.0808 88.6641 93.7808 89.1641 93.7808 89.7641V90.0641C93.7808 90.6641 94.0808 91.1641 94.6808 91.5641C95.2941 91.9641 96.2074 92.1641 97.4208 92.1641C98.6341 92.1641 99.5408 91.9641 100.141 91.5641C100.741 91.1641 101.041 90.6641 101.041 90.0641V89.7641ZM122.333 88.4841H120.313V75.2641H122.333V88.4841ZM112.673 81.8841C112.579 81.8841 112.499 81.9241 112.433 82.0041C112.046 82.6175 111.559 83.2441 110.973 83.8841C110.399 84.5108 109.679 85.2241 108.813 86.0241L107.313 84.7041C108.393 83.7575 109.239 82.9108 109.853 82.1641C110.466 81.4175 110.906 80.6775 111.173 79.9441C111.453 79.1975 111.593 78.3775 111.593 77.4841V76.1841H113.633V77.5841C113.633 78.9041 113.386 80.0975 112.893 81.1641L112.993 81.2241L113.433 80.8641C113.619 80.7041 113.799 80.6241 113.973 80.6241C114.159 80.6241 114.333 80.7108 114.493 80.8841L118.013 84.3041L116.533 85.7041L112.933 82.0041C112.853 81.9241 112.766 81.8841 112.673 81.8841ZM122.693 91.5041V93.1641H112.293C111.866 93.1641 111.539 93.0508 111.313 92.8241C111.099 92.5975 110.993 92.2708 110.993 91.8441V87.0441H113.013V91.5041H122.693Z" fill="#EBECF1"/>
</svg>
