<svg width="216" height="227" viewBox="0 0 216 227" fill="none" xmlns="http://www.w3.org/2000/svg">
<path fill-rule="evenodd" clip-rule="evenodd" d="M215.426 43.7395L82.3316 0.1875C67.5713 45.9686 38.3477 85.255 0.0445557 112.663L82.2132 226.029C144.13 181.472 191.403 117.841 215.426 43.7395Z" fill="#273F65"/>
<path d="M66.612 96.7651V114.285H64.592V105.145H61.212V103.445H64.592V96.7651H66.612ZM52.792 98.2451H60.732V101.525C60.732 102.952 60.4853 104.185 59.992 105.225C59.512 106.265 58.7387 107.232 57.672 108.125C56.6053 109.018 55.112 110.005 53.192 111.085L52.012 109.585C53.9187 108.532 55.352 107.598 56.312 106.785C57.2853 105.972 57.9587 105.078 58.332 104.105L52.292 104.625L52.012 102.925L58.712 102.545C58.752 102.198 58.772 101.845 58.772 101.485V99.9051H52.792V98.2451ZM84.804 104.825H73.084V97.3251H84.804V104.825ZM82.784 99.0051H75.104V103.145H82.784V99.0051ZM87.144 108.625H83.084V114.845H81.084V108.625H76.804V114.845H74.804V108.625H70.744V106.925H87.144V108.625ZM105.056 96.7651V114.285H103.016V96.7651H105.056ZM100.856 107.245L101.096 108.905C98.8694 109.345 96.1761 109.565 93.0161 109.565H90.9761V98.1651H92.9961V107.845C96.0361 107.845 98.6561 107.645 100.856 107.245ZM124.748 96.7651V114.285H122.808V96.7651H124.748ZM118.908 97.0451H120.808V113.805H118.908V104.965H116.408C116.021 106.005 115.381 106.985 114.488 107.905C113.595 108.825 112.355 109.845 110.768 110.965L109.488 109.625C110.995 108.572 112.148 107.645 112.948 106.845C113.761 106.032 114.328 105.165 114.648 104.245L109.688 104.685L109.468 103.045L114.988 102.745C115.028 102.425 115.048 102.085 115.048 101.725V100.085H110.108V98.4851H116.928V101.745C116.928 102.225 116.895 102.745 116.828 103.305H118.908V97.0451ZM141.48 96.7651H143.52V114.285H141.48V96.7651ZM128.88 103.865C128.88 101.878 129.313 100.385 130.18 99.3851C131.06 98.3718 132.227 97.8651 133.68 97.8651C135.12 97.8651 136.273 98.3718 137.14 99.3851C138.02 100.385 138.46 101.878 138.46 103.865C138.46 105.838 138.02 107.332 137.14 108.345C136.273 109.358 135.12 109.865 133.68 109.865C132.24 109.865 131.08 109.358 130.2 108.345C129.32 107.332 128.88 105.838 128.88 103.865ZM136.3 104.845V102.885C136.3 101.805 136.06 100.985 135.58 100.425C135.1 99.8518 134.467 99.5651 133.68 99.5651C132.88 99.5651 132.24 99.8518 131.76 100.425C131.28 100.985 131.04 101.805 131.04 102.885V104.845C131.04 105.912 131.28 106.732 131.76 107.305C132.24 107.878 132.88 108.165 133.68 108.165C134.467 108.165 135.1 107.878 135.58 107.305C136.06 106.732 136.3 105.912 136.3 104.845ZM160.792 104.145H157.492V102.505H160.792V100.545H157.492V98.9051H160.792V96.7651H162.812V109.985H160.792V104.145ZM152.912 103.525C152.832 103.525 152.759 103.565 152.692 103.645C152.332 104.258 151.865 104.885 151.292 105.525C150.732 106.152 150.012 106.898 149.132 107.765L147.632 106.465C148.699 105.465 149.532 104.585 150.132 103.825C150.745 103.065 151.185 102.305 151.452 101.545C151.732 100.772 151.872 99.9184 151.872 98.9851V97.6051H153.912V99.0851C153.912 100.445 153.659 101.672 153.152 102.765L153.252 102.825L153.652 102.485C153.852 102.325 154.039 102.245 154.212 102.245C154.399 102.245 154.572 102.332 154.732 102.505L158.212 106.065L156.732 107.445L153.172 103.645C153.092 103.565 153.005 103.525 152.912 103.525ZM163.172 113.005V114.665H152.772C152.345 114.665 152.019 114.552 151.792 114.325C151.579 114.098 151.472 113.772 151.472 113.345V108.685H153.492V113.005H163.172Z" fill="#EBECF1"/>
</svg>
