<?xml version="1.0" encoding="UTF-8"?><svg id="a" xmlns="http://www.w3.org/2000/svg" viewBox="0 0 108.26 108.32"><path d="M32.22,34.3s-.05,.07-.07,.1c-.18-.09-.38-.19-.54-.26-1.13-.51-2.19-.81-3.18-.91-2.2-.22-4.44,.81-6.73,3.1-1.71,1.71-2.84,3.29-3.36,4.74-.23,.66-.31,1.31-.22,1.96,.09,.65,.31,1.16,.68,1.52,.28,.28,.61,.46,1,.54,.38,.08,.72,.04,1.01-.11,.94-.52,1.62-.76,2.05-.73,.43,.03,1.08,.38,1.96,1.05,.53,.41,1.05,.78,1.54,1.1-.87,3.17-1.35,6.51-1.35,9.93,0,6.46,1.69,12.48,4.59,17.55l21.05-21.06-18.43-18.52Z"/><path d="M63.73,24.38c.26-.97,.41-1.99,.41-3.06,0-5.83-4.23-11-9.45-11s-9.45,5.17-9.45,11c0,.92,.12,1.8,.31,2.65-3.72,1.39-7.13,3.64-10.06,6.53l18.68,18.77,18.67-18.68c-2.67-2.67-5.76-4.8-9.12-6.22Z"/><path d="M89.92,41.07c-.53-1.44-1.65-3.02-3.36-4.74-2.29-2.29-4.53-3.32-6.73-3.1-.99,.09-2.05,.4-3.18,.91-.16,.07-.35,.17-.53,.26h0l-18.41,18.42,20.95,21.05c2.9-5.06,4.59-11.08,4.59-17.54,0-3.42-.48-6.76-1.35-9.93,.49-.33,1.01-.69,1.54-1.1,.88-.67,1.53-1.02,1.96-1.05,.43-.03,1.11,.21,2.05,.73,.29,.15,.63,.19,1.01,.11,.38-.08,.71-.26,1-.54,.36-.36,.59-.87,.68-1.52,.09-.65,.01-1.31-.22-1.96Z"/><path d="M83.74,90.09c-.22-.32-.48-.54-.8-.64-1.03-.3-1.69-.61-1.97-.93-.28-.32-.5-1.03-.65-2.13-.35-2.64-.93-4.6-1.74-5.88-.64-1.01-1.58-1.81-2.8-2.41l.02-.02-21.62-21.72-21.71,21.73h.01c-1.22,.62-2.16,1.42-2.8,2.43-.81,1.28-1.39,3.24-1.74,5.88-.15,1.1-.36,1.81-.65,2.13-.28,.32-.94,.64-1.97,.93-.32,.1-.58,.31-.8,.64-.22,.32-.32,.68-.32,1.08,0,.51,.2,1.03,.6,1.56,.4,.52,.91,.93,1.54,1.23,1.39,.65,3.3,.97,5.73,.97,3.24,0,5.55-.86,6.95-2.56,.63-.76,1.17-1.73,1.61-2.89,.33-.87,.7-2.09,1.12-3.68,3.76,1.98,7.96,3.1,12.4,3.1s8.63-1.12,12.4-3.1c.42,1.59,.79,2.81,1.12,3.68,.44,1.16,.98,2.13,1.61,2.89,1.39,1.71,3.71,2.56,6.95,2.56,2.42,0,4.33-.32,5.73-.97,.63-.3,1.15-.71,1.54-1.23,.4-.52,.6-1.04,.6-1.56,0-.4-.11-.76-.32-1.08Z"/></svg>