<svg width="468" height="258" viewBox="0 0 468 258" fill="none" xmlns="http://www.w3.org/2000/svg">
<path d="M285.906 5.95668C285.85 5.45241 285.615 5.06179 285.203 4.7848C284.791 4.50426 284.273 4.36399 283.648 4.36399C283.2 4.36399 282.813 4.43501 282.487 4.57706C282.16 4.71555 281.906 4.90732 281.725 5.15234C281.547 5.39382 281.459 5.66903 281.459 5.97798C281.459 6.23722 281.519 6.46094 281.64 6.64915C281.764 6.83736 281.926 6.99538 282.124 7.12322C282.327 7.24751 282.544 7.35227 282.774 7.4375C283.005 7.51918 283.227 7.58665 283.44 7.63991L284.506 7.9169C284.854 8.00213 285.21 8.11754 285.576 8.26314C285.942 8.40874 286.281 8.6005 286.594 8.83842C286.906 9.07635 287.158 9.37109 287.35 9.72266C287.545 10.0742 287.643 10.495 287.643 10.9851C287.643 11.603 287.483 12.1516 287.164 12.631C286.847 13.1104 286.388 13.4886 285.784 13.7656C285.184 14.0426 284.458 14.1811 283.605 14.1811C282.789 14.1811 282.082 14.0515 281.485 13.7923C280.889 13.533 280.422 13.1655 280.084 12.6896C279.747 12.2102 279.561 11.642 279.525 10.9851H281.176C281.208 11.3793 281.336 11.7077 281.56 11.9705C281.787 12.2298 282.077 12.4233 282.428 12.5511C282.783 12.6754 283.172 12.7376 283.595 12.7376C284.06 12.7376 284.474 12.6648 284.836 12.5192C285.202 12.37 285.489 12.1641 285.699 11.9013C285.908 11.6349 286.013 11.3242 286.013 10.9691C286.013 10.646 285.921 10.3814 285.736 10.1754C285.555 9.96946 285.308 9.79901 284.996 9.66406C284.687 9.52912 284.337 9.41016 283.946 9.30717L282.657 8.95561C281.784 8.71768 281.091 8.3679 280.58 7.90625C280.072 7.4446 279.818 6.83381 279.818 6.07386C279.818 5.44531 279.988 4.89666 280.329 4.42791C280.67 3.95916 281.132 3.59517 281.714 3.33594C282.297 3.07315 282.954 2.94176 283.685 2.94176C284.424 2.94176 285.075 3.07138 285.64 3.33061C286.208 3.58984 286.656 3.94673 286.982 4.40128C287.309 4.85227 287.48 5.37074 287.494 5.95668H285.906ZM290.66 14V3.09091H292.306V8.30043H292.439L297.015 3.09091H299.087L294.687 8.00213L299.103 14H297.121L293.595 9.12607L292.306 10.6069V14H290.66ZM303.317 3.09091V14H301.671V3.09091H303.317ZM306.764 14V3.09091H308.41V12.5831H313.353V14H306.764ZM316.281 14V3.09091H317.926V12.5831H322.87V14H316.281ZM331.747 5.95668C331.69 5.45241 331.456 5.06179 331.044 4.7848C330.632 4.50426 330.114 4.36399 329.489 4.36399C329.041 4.36399 328.654 4.43501 328.328 4.57706C328.001 4.71555 327.747 4.90732 327.566 5.15234C327.388 5.39382 327.299 5.66903 327.299 5.97798C327.299 6.23722 327.36 6.46094 327.481 6.64915C327.605 6.83736 327.766 6.99538 327.965 7.12322C328.168 7.24751 328.384 7.35227 328.615 7.4375C328.846 7.51918 329.068 7.58665 329.281 7.63991L330.346 7.9169C330.694 8.00213 331.051 8.11754 331.417 8.26314C331.783 8.40874 332.122 8.6005 332.434 8.83842C332.747 9.07635 332.999 9.37109 333.191 9.72266C333.386 10.0742 333.484 10.495 333.484 10.9851C333.484 11.603 333.324 12.1516 333.004 12.631C332.688 13.1104 332.228 13.4886 331.625 13.7656C331.025 14.0426 330.298 14.1811 329.446 14.1811C328.629 14.1811 327.923 14.0515 327.326 13.7923C326.73 13.533 326.263 13.1655 325.925 12.6896C325.588 12.2102 325.401 11.642 325.366 10.9851H327.017C327.049 11.3793 327.177 11.7077 327.401 11.9705C327.628 12.2298 327.917 12.4233 328.269 12.5511C328.624 12.6754 329.013 12.7376 329.435 12.7376C329.901 12.7376 330.314 12.6648 330.677 12.5192C331.042 12.37 331.33 12.1641 331.54 11.9013C331.749 11.6349 331.854 11.3242 331.854 10.9691C331.854 10.646 331.761 10.3814 331.577 10.1754C331.396 9.96946 331.149 9.79901 330.836 9.66406C330.527 9.52912 330.178 9.41016 329.787 9.30717L328.498 8.95561C327.624 8.71768 326.932 8.3679 326.421 7.90625C325.913 7.4446 325.659 6.83381 325.659 6.07386C325.659 5.44531 325.829 4.89666 326.17 4.42791C326.511 3.95916 326.973 3.59517 327.555 3.33594C328.138 3.07315 328.794 2.94176 329.526 2.94176C330.265 2.94176 330.916 3.07138 331.481 3.33061C332.049 3.58984 332.497 3.94673 332.823 4.40128C333.15 4.85227 333.32 5.37074 333.335 5.95668H331.747ZM344.567 14.1545C343.836 14.1545 343.205 14.0213 342.676 13.755C342.151 13.4886 341.746 13.1264 341.462 12.6683C341.178 12.2067 341.036 11.6847 341.036 11.1023C341.036 10.6584 341.128 10.2642 341.313 9.91974C341.497 9.57173 341.755 9.25036 342.085 8.95561C342.415 8.66087 342.797 8.36435 343.23 8.06605L344.988 6.82493C345.286 6.62962 345.519 6.42365 345.686 6.20703C345.853 5.98686 345.936 5.7152 345.936 5.39205C345.936 5.13636 345.826 4.89134 345.606 4.65696C345.386 4.42259 345.091 4.3054 344.722 4.3054C344.466 4.3054 344.241 4.36754 344.045 4.49183C343.853 4.61612 343.703 4.77592 343.592 4.97124C343.486 5.163 343.433 5.36541 343.433 5.57848C343.433 5.82706 343.5 6.07741 343.635 6.32955C343.774 6.58168 343.951 6.84268 344.168 7.11257C344.384 7.37891 344.612 7.65589 344.85 7.94354L349.915 14H348.115L343.923 9.0728C343.571 8.65732 343.244 8.26669 342.943 7.90092C342.641 7.53161 342.396 7.15874 342.208 6.78232C342.023 6.40234 341.931 5.99219 341.931 5.55185C341.931 5.05114 342.044 4.60724 342.271 4.22017C342.502 3.82954 342.824 3.52415 343.236 3.30398C343.648 3.08381 344.13 2.97372 344.684 2.97372C345.246 2.97372 345.727 3.08381 346.128 3.30398C346.533 3.5206 346.844 3.81001 347.06 4.17223C347.28 4.53089 347.39 4.9233 347.39 5.34943C347.39 5.8679 347.261 6.32599 347.002 6.72372C346.746 7.1179 346.393 7.48011 345.942 7.81037L343.752 9.42436C343.326 9.73686 343.03 10.0458 342.863 10.3512C342.699 10.6531 342.618 10.8892 342.618 11.0597C342.618 11.3722 342.698 11.6616 342.857 11.9279C343.021 12.1942 343.248 12.4073 343.539 12.5671C343.834 12.7269 344.178 12.8068 344.573 12.8068C344.977 12.8068 345.372 12.7198 345.755 12.5458C346.142 12.3683 346.492 12.1143 346.804 11.7841C347.121 11.4538 347.371 11.0579 347.556 10.5962C347.74 10.1346 347.833 9.6179 347.833 9.04616H349.271C349.271 9.74929 349.191 10.3441 349.031 10.8306C348.871 11.3136 348.678 11.7077 348.45 12.0131C348.227 12.315 348.015 12.5511 347.817 12.7216C347.753 12.7784 347.692 12.8352 347.635 12.892C347.579 12.9489 347.518 13.0057 347.454 13.0625C347.085 13.4354 346.638 13.7106 346.112 13.8881C345.59 14.0657 345.075 14.1545 344.567 14.1545ZM357.361 14V3.09091H364.2V4.50781H359.007V7.83168H363.843V9.24325H359.007V12.5831H364.264V14H357.361ZM368.594 3.09091L371.204 7.3576H371.289L373.899 3.09091H375.806L372.408 8.54545L375.828 14H373.91L371.289 9.7919H371.204L368.583 14H366.666L370.144 8.54545L366.687 3.09091H368.594ZM378.489 14V3.09091H382.377C383.226 3.09091 383.929 3.24538 384.487 3.55433C385.044 3.86328 385.462 4.28587 385.739 4.82209C386.016 5.35476 386.154 5.9549 386.154 6.62251C386.154 7.29368 386.014 7.89737 385.733 8.43359C385.456 8.96626 385.037 9.38885 384.476 9.70135C383.919 10.0103 383.217 10.1648 382.372 10.1648H379.698V8.76918H382.223C382.759 8.76918 383.194 8.67685 383.528 8.49219C383.862 8.30398 384.107 8.0483 384.263 7.72514C384.419 7.40199 384.497 7.03445 384.497 6.62251C384.497 6.21058 384.419 5.84482 384.263 5.52521C384.107 5.20561 383.86 4.95526 383.523 4.77415C383.189 4.59304 382.749 4.50249 382.202 4.50249H380.135V14H378.489ZM389.134 14V3.09091H395.973V4.50781H390.78V7.83168H395.616V9.24325H390.78V12.5831H396.037V14H389.134ZM399.222 14V3.09091H403.11C403.955 3.09091 404.657 3.23651 405.214 3.5277C405.775 3.81889 406.194 4.22195 406.471 4.73686C406.748 5.24822 406.887 5.83949 406.887 6.51065C406.887 7.17827 406.747 7.76598 406.466 8.27379C406.189 8.77805 405.77 9.17045 405.209 9.45099C404.651 9.73153 403.95 9.8718 403.105 9.8718H400.159V8.4549H402.956C403.488 8.4549 403.922 8.37855 404.255 8.22585C404.593 8.07315 404.84 7.85121 404.996 7.56001C405.152 7.26882 405.23 6.91903 405.23 6.51065C405.23 6.09872 405.15 5.74183 404.991 5.43999C404.834 5.13814 404.588 4.90732 404.25 4.74751C403.916 4.58416 403.478 4.50249 402.934 4.50249H400.868V14H399.222ZM404.607 9.07812L407.302 14H405.427L402.785 9.07812H404.607ZM411.586 3.09091V14H409.94V3.09091H411.586ZM415.033 14V3.09091H421.872V4.50781H416.679V7.83168H421.515V9.24325H416.679V12.5831H421.936V14H415.033ZM433.926 3.09091V14H432.413L426.868 5.99929H426.767V14H425.121V3.09091H426.644L432.195 11.1023H432.296V3.09091H433.926ZM446.438 6.63849H444.776C444.712 6.28338 444.593 5.97088 444.419 5.70099C444.245 5.43111 444.032 5.20206 443.78 5.01385C443.527 4.82564 443.245 4.68359 442.933 4.58771C442.624 4.49183 442.295 4.44389 441.947 4.44389C441.319 4.44389 440.756 4.60192 440.259 4.91797C439.765 5.23402 439.374 5.69744 439.087 6.30824C438.803 6.91903 438.661 7.66477 438.661 8.54545C438.661 9.43324 438.803 10.1825 439.087 10.7933C439.374 11.4041 439.767 11.8658 440.264 12.1783C440.761 12.4908 441.32 12.647 441.942 12.647C442.286 12.647 442.613 12.6009 442.922 12.5085C443.234 12.4126 443.517 12.2724 443.769 12.0877C444.021 11.9031 444.234 11.6776 444.408 11.4112C444.586 11.1413 444.708 10.8324 444.776 10.4844L446.438 10.4897C446.349 11.0259 446.177 11.5195 445.921 11.9705C445.669 12.418 445.344 12.805 444.946 13.1317C444.552 13.4549 444.101 13.7053 443.593 13.8828C443.085 14.0604 442.531 14.1491 441.931 14.1491C440.987 14.1491 440.145 13.9254 439.406 13.478C438.668 13.027 438.085 12.3825 437.659 11.5444C437.237 10.7063 437.025 9.70668 437.025 8.54545C437.025 7.38068 437.238 6.38104 437.664 5.54652C438.091 4.70845 438.673 4.0657 439.412 3.61825C440.15 3.16726 440.99 2.94176 441.931 2.94176C442.51 2.94176 443.05 3.02521 443.55 3.19212C444.055 3.35547 444.508 3.59695 444.909 3.91655C445.31 4.2326 445.642 4.61967 445.905 5.07777C446.168 5.53232 446.345 6.05256 446.438 6.63849ZM449.457 14V3.09091H456.297V4.50781H451.103V7.83168H455.94V9.24325H451.103V12.5831H456.361V14H449.457ZM465.495 5.95668C465.438 5.45241 465.204 5.06179 464.792 4.7848C464.38 4.50426 463.862 4.36399 463.237 4.36399C462.789 4.36399 462.402 4.43501 462.075 4.57706C461.749 4.71555 461.495 4.90732 461.314 5.15234C461.136 5.39382 461.047 5.66903 461.047 5.97798C461.047 6.23722 461.108 6.46094 461.228 6.64915C461.353 6.83736 461.514 6.99538 461.713 7.12322C461.916 7.24751 462.132 7.35227 462.363 7.4375C462.594 7.51918 462.816 7.58665 463.029 7.63991L464.094 7.9169C464.442 8.00213 464.799 8.11754 465.165 8.26314C465.531 8.40874 465.87 8.6005 466.182 8.83842C466.495 9.07635 466.747 9.37109 466.939 9.72266C467.134 10.0742 467.232 10.495 467.232 10.9851C467.232 11.603 467.072 12.1516 466.752 12.631C466.436 13.1104 465.976 13.4886 465.373 13.7656C464.772 14.0426 464.046 14.1811 463.194 14.1811C462.377 14.1811 461.671 14.0515 461.074 13.7923C460.477 13.533 460.01 13.1655 459.673 12.6896C459.336 12.2102 459.149 11.642 459.114 10.9851H460.765C460.797 11.3793 460.925 11.7077 461.149 11.9705C461.376 12.2298 461.665 12.4233 462.017 12.5511C462.372 12.6754 462.761 12.7376 463.183 12.7376C463.649 12.7376 464.062 12.6648 464.424 12.5192C464.79 12.37 465.078 12.1641 465.287 11.9013C465.497 11.6349 465.602 11.3242 465.602 10.9691C465.602 10.646 465.509 10.3814 465.325 10.1754C465.144 9.96946 464.897 9.79901 464.584 9.66406C464.275 9.52912 463.926 9.41016 463.535 9.30717L462.246 8.95561C461.372 8.71768 460.68 8.3679 460.168 7.90625C459.661 7.4446 459.407 6.83381 459.407 6.07386C459.407 5.44531 459.577 4.89666 459.918 4.42791C460.259 3.95916 460.721 3.59517 461.303 3.33594C461.885 3.07315 462.542 2.94176 463.274 2.94176C464.013 2.94176 464.664 3.07138 465.229 3.33061C465.797 3.58984 466.244 3.94673 466.571 4.40128C466.898 4.85227 467.068 5.37074 467.082 5.95668H465.495Z" fill="#273F65"/>
<path d="M406.985 43.348C406.917 42.7429 406.636 42.2741 406.141 41.9418C405.647 41.6051 405.025 41.4368 404.275 41.4368C403.738 41.4368 403.274 41.522 402.881 41.6925C402.489 41.8587 402.185 42.0888 401.967 42.3828C401.754 42.6726 401.648 43.0028 401.648 43.3736C401.648 43.6847 401.72 43.9531 401.865 44.179C402.014 44.4048 402.208 44.5945 402.447 44.7479C402.69 44.897 402.95 45.0227 403.227 45.125C403.504 45.223 403.77 45.304 404.026 45.3679L405.304 45.7003C405.722 45.8026 406.15 45.9411 406.589 46.1158C407.028 46.2905 407.435 46.5206 407.81 46.8061C408.185 47.0916 408.487 47.4453 408.717 47.8672C408.952 48.2891 409.069 48.794 409.069 49.3821C409.069 50.1236 408.877 50.782 408.494 51.3572C408.114 51.9325 407.563 52.3864 406.838 52.7188C406.118 53.0511 405.247 53.2173 404.224 53.2173C403.244 53.2173 402.396 53.0618 401.68 52.7507C400.964 52.4396 400.403 51.9986 399.999 51.4276C399.594 50.8523 399.37 50.1705 399.327 49.3821H401.309C401.347 49.8551 401.501 50.2493 401.769 50.5646C402.042 50.8757 402.389 51.108 402.811 51.2614C403.237 51.4105 403.704 51.4851 404.211 51.4851C404.769 51.4851 405.266 51.3977 405.7 51.223C406.139 51.044 406.484 50.7969 406.736 50.4815C406.987 50.1619 407.113 49.7891 407.113 49.3629C407.113 48.9751 407.002 48.6577 406.781 48.4105C406.563 48.1634 406.267 47.9588 405.892 47.7969C405.521 47.6349 405.102 47.4922 404.633 47.3686L403.086 46.9467C402.038 46.6612 401.207 46.2415 400.593 45.6875C399.984 45.1335 399.679 44.4006 399.679 43.4886C399.679 42.7344 399.884 42.076 400.293 41.5135C400.702 40.951 401.256 40.5142 401.955 40.2031C402.653 39.8878 403.442 39.7301 404.32 39.7301C405.206 39.7301 405.988 39.8857 406.666 40.1967C407.347 40.5078 407.884 40.9361 408.276 41.4815C408.668 42.0227 408.873 42.6449 408.89 43.348H406.985ZM412.689 53V39.9091H414.664V46.1605H414.824L420.315 39.9091H422.801L417.522 45.8026L422.821 53H420.443L416.211 47.1513L414.664 48.9283V53H412.689ZM427.877 39.9091V53H425.902V39.9091H427.877ZM432.014 53V39.9091H433.989V51.2997H439.921V53H432.014ZM443.434 53V39.9091H445.409V51.2997H451.341V53H443.434ZM461.994 43.348C461.926 42.7429 461.645 42.2741 461.15 41.9418C460.656 41.6051 460.034 41.4368 459.284 41.4368C458.747 41.4368 458.282 41.522 457.89 41.6925C457.498 41.8587 457.194 42.0888 456.976 42.3828C456.763 42.6726 456.657 43.0028 456.657 43.3736C456.657 43.6847 456.729 43.9531 456.874 44.179C457.023 44.4048 457.217 44.5945 457.456 44.7479C457.699 44.897 457.959 45.0227 458.236 45.125C458.513 45.223 458.779 45.304 459.035 45.3679L460.313 45.7003C460.731 45.8026 461.159 45.9411 461.598 46.1158C462.037 46.2905 462.444 46.5206 462.819 46.8061C463.194 47.0916 463.496 47.4453 463.726 47.8672C463.961 48.2891 464.078 48.794 464.078 49.3821C464.078 50.1236 463.886 50.782 463.503 51.3572C463.123 51.9325 462.572 52.3864 461.847 52.7188C461.127 53.0511 460.256 53.2173 459.233 53.2173C458.253 53.2173 457.405 53.0618 456.689 52.7507C455.973 52.4396 455.412 51.9986 455.008 51.4276C454.603 50.8523 454.379 50.1705 454.336 49.3821H456.318C456.356 49.8551 456.51 50.2493 456.778 50.5646C457.051 50.8757 457.398 51.108 457.82 51.2614C458.246 51.4105 458.713 51.4851 459.22 51.4851C459.778 51.4851 460.275 51.3977 460.709 51.223C461.148 51.044 461.493 50.7969 461.745 50.4815C461.996 50.1619 462.122 49.7891 462.122 49.3629C462.122 48.9751 462.011 48.6577 461.79 48.4105C461.572 48.1634 461.276 47.9588 460.901 47.7969C460.53 47.6349 460.111 47.4922 459.642 47.3686L458.095 46.9467C457.047 46.6612 456.216 46.2415 455.602 45.6875C454.993 45.1335 454.688 44.4006 454.688 43.4886C454.688 42.7344 454.893 42.076 455.302 41.5135C455.711 40.951 456.265 40.5142 456.964 40.2031C457.662 39.8878 458.451 39.7301 459.329 39.7301C460.215 39.7301 460.997 39.8857 461.675 40.1967C462.356 40.5078 462.893 40.9361 463.285 41.4815C463.677 42.0227 463.882 42.6449 463.899 43.348H461.994Z" fill="#1B1C25"/>
<path d="M299.166 236.003V247.287H298.178V236.003H299.166ZM296.553 243.127L296.683 243.92C295.34 244.189 293.667 244.323 291.665 244.323H290.274V236.926H295.513V237.758H291.275V243.491H291.639C293.624 243.491 295.262 243.37 296.553 243.127ZM312.031 241.281H310.159V247.313H309.171V236.029H310.159V240.449H312.031V241.281ZM304.985 240.774C305.089 240.774 305.188 240.822 305.284 240.917L307.819 243.92L307.078 244.557L304.53 241.45C304.478 241.398 304.421 241.372 304.361 241.372C304.3 241.372 304.257 241.398 304.231 241.45C303.997 241.918 303.689 242.399 303.308 242.893C302.935 243.378 302.424 243.989 301.774 244.726L301.046 244.115C301.8 243.318 302.376 242.629 302.775 242.048C303.182 241.467 303.477 240.891 303.659 240.319C303.841 239.738 303.932 239.08 303.932 238.343V237.849H301.384V237.017H307.442V237.849H304.907V238.369C304.907 239.34 304.751 240.211 304.439 240.982L304.504 241.034L304.712 240.878C304.798 240.809 304.889 240.774 304.985 240.774ZM322.413 236.003V244.57H321.412V236.003H322.413ZM313.053 239.513C313.053 238.906 313.178 238.378 313.43 237.927C313.69 237.476 314.045 237.134 314.496 236.9C314.946 236.657 315.462 236.536 316.043 236.536C316.615 236.536 317.126 236.657 317.577 236.9C318.036 237.134 318.391 237.476 318.643 237.927C318.903 238.378 319.033 238.906 319.033 239.513C319.033 240.111 318.903 240.635 318.643 241.086C318.391 241.537 318.036 241.883 317.577 242.126C317.126 242.36 316.615 242.477 316.043 242.477C315.462 242.477 314.946 242.36 314.496 242.126C314.045 241.883 313.69 241.541 313.43 241.099C313.178 240.648 313.053 240.12 313.053 239.513ZM317.98 239.786V239.24C317.98 238.668 317.798 238.213 317.434 237.875C317.078 237.528 316.615 237.355 316.043 237.355C315.462 237.355 314.99 237.528 314.626 237.875C314.27 238.222 314.093 238.677 314.093 239.24V239.786C314.093 240.349 314.275 240.804 314.639 241.151C315.003 241.489 315.471 241.658 316.043 241.658C316.615 241.658 317.078 241.489 317.434 241.151C317.798 240.804 317.98 240.349 317.98 239.786ZM315.185 246.871V243.634H316.186V246.715H322.647V247.534H315.835C315.627 247.534 315.466 247.478 315.354 247.365C315.241 247.252 315.185 247.088 315.185 246.871ZM338.298 239.773H336.491V242.841H335.503V236.003H336.491V238.941H338.298V239.773ZM328.119 242.529L327.391 241.905C328.119 241.316 328.682 240.809 329.081 240.384C329.479 239.959 329.765 239.539 329.939 239.123C330.121 238.698 330.212 238.226 330.212 237.706V237.576H327.729V236.744H333.67V237.576H331.2V237.745C331.2 238.464 331.048 239.119 330.745 239.708L330.823 239.747L331.018 239.604C331.113 239.526 331.208 239.487 331.304 239.487C331.399 239.487 331.499 239.53 331.603 239.617L334.034 241.684L333.306 242.334L330.836 240.163C330.784 240.111 330.723 240.085 330.654 240.085C330.584 240.085 330.524 240.111 330.472 240.163C330.246 240.501 329.952 240.848 329.588 241.203C329.224 241.558 328.734 242 328.119 242.529ZM329.172 243.543H336.491V247.859H335.516V244.375H329.172V243.543ZM348.667 236.003V242.269H347.679V239.526H345.17C345.083 240.263 344.771 240.848 344.234 241.281C343.696 241.706 343.029 241.918 342.232 241.918C341.66 241.918 341.148 241.805 340.698 241.58C340.256 241.355 339.909 241.034 339.658 240.618C339.406 240.193 339.281 239.699 339.281 239.136C339.281 238.573 339.406 238.083 339.658 237.667C339.909 237.242 340.256 236.917 340.698 236.692C341.148 236.467 341.66 236.354 342.232 236.354C343.029 236.354 343.692 236.566 344.221 236.991C344.758 237.407 345.074 237.979 345.17 238.707H347.679V236.003H348.667ZM344.156 238.915C344.156 238.386 343.978 237.962 343.623 237.641C343.267 237.32 342.804 237.16 342.232 237.16C341.66 237.16 341.196 237.32 340.841 237.641C340.494 237.962 340.321 238.386 340.321 238.915V239.344C340.321 239.881 340.494 240.31 340.841 240.631C341.196 240.952 341.66 241.112 342.232 241.112C342.804 241.112 343.267 240.952 343.623 240.631C343.978 240.31 344.156 239.881 344.156 239.344V238.915ZM347.679 242.997H348.667V247.755H342.18C341.972 247.755 341.811 247.699 341.699 247.586C341.586 247.473 341.53 247.309 341.53 247.092V242.997H342.492V244.492H347.679V242.997ZM347.679 245.337H342.492V246.91H347.679V245.337Z" fill="#1B1C25"/>
<path d="M263.276 168L260.26 158.926H261.43L262.925 163.502L263.926 166.908H263.991L265.018 163.502L266.526 158.926H267.657L264.602 168H263.276ZM271.552 168.156C270.815 168.156 270.187 168.017 269.667 167.74C269.147 167.454 268.705 167.064 268.341 166.57L269.147 165.894C269.468 166.319 269.823 166.644 270.213 166.869C270.603 167.086 271.062 167.194 271.591 167.194C272.241 167.194 272.735 167.038 273.073 166.726C273.42 166.414 273.593 165.998 273.593 165.478C273.593 165.045 273.463 164.711 273.203 164.477C272.943 164.243 272.514 164.057 271.916 163.918L271.175 163.749C270.343 163.558 269.706 163.272 269.264 162.891C268.831 162.501 268.614 161.955 268.614 161.253C268.614 160.854 268.688 160.499 268.835 160.187C268.982 159.875 269.186 159.615 269.446 159.407C269.715 159.199 270.031 159.043 270.395 158.939C270.768 158.826 271.175 158.77 271.617 158.77C272.302 158.77 272.887 158.896 273.372 159.147C273.866 159.398 274.282 159.767 274.62 160.252L273.801 160.85C273.55 160.503 273.246 160.23 272.891 160.031C272.536 159.832 272.094 159.732 271.565 159.732C270.984 159.732 270.525 159.858 270.187 160.109C269.858 160.352 269.693 160.72 269.693 161.214C269.693 161.647 269.832 161.977 270.109 162.202C270.395 162.419 270.824 162.592 271.396 162.722L272.137 162.891C273.03 163.09 273.675 163.394 274.074 163.801C274.473 164.208 274.672 164.75 274.672 165.426C274.672 165.842 274.598 166.219 274.451 166.557C274.312 166.895 274.109 167.181 273.84 167.415C273.571 167.649 273.242 167.831 272.852 167.961C272.471 168.091 272.037 168.156 271.552 168.156ZM279.756 168.156C278.603 168.156 277.706 167.766 277.065 166.986C276.423 166.197 276.103 165.04 276.103 163.515C276.103 161.99 276.423 160.82 277.065 160.005C277.706 159.182 278.603 158.77 279.756 158.77C280.518 158.77 281.155 158.943 281.667 159.29C282.187 159.637 282.59 160.126 282.876 160.759L281.992 161.292C281.81 160.824 281.532 160.451 281.16 160.174C280.787 159.888 280.319 159.745 279.756 159.745C279.366 159.745 279.015 159.819 278.703 159.966C278.399 160.113 278.139 160.326 277.923 160.603C277.715 160.872 277.554 161.197 277.442 161.578C277.329 161.951 277.273 162.371 277.273 162.839V164.191C277.273 165.127 277.489 165.859 277.923 166.388C278.356 166.917 278.967 167.181 279.756 167.181C280.336 167.181 280.822 167.034 281.212 166.739C281.602 166.436 281.888 166.037 282.07 165.543L282.941 166.089C282.655 166.73 282.243 167.237 281.706 167.61C281.168 167.974 280.518 168.156 279.756 168.156ZM291.86 160.031V158.913H285.516V158.185H292.809V160.746H286.543V161.851H293.134V162.592H285.581V160.031H291.86ZM294.525 163.567V164.334H283.917V163.567H294.525ZM285.542 169.196V167.233H292.016V166.141H285.464V165.374H292.939V167.961H286.465V169.079H293.277V169.859H286.192C285.984 169.859 285.824 169.803 285.711 169.69C285.598 169.577 285.542 169.413 285.542 169.196ZM309.188 164.321V165.127H298.58V164.321H303.403V163.099H300.192V158.237H307.563V159.017H301.141V160.291H307.368V161.045H301.154V162.319H307.771V163.099H304.378V164.321H309.188ZM307.732 168C307.732 168.615 307.403 169.105 306.744 169.469C306.085 169.833 305.132 170.015 303.884 170.015C302.636 170.015 301.683 169.833 301.024 169.469C300.365 169.105 300.036 168.615 300.036 168C300.036 167.393 300.365 166.908 301.024 166.544C301.683 166.171 302.636 165.985 303.884 165.985C305.132 165.985 306.085 166.171 306.744 166.544C307.403 166.908 307.732 167.393 307.732 168ZM306.692 167.922C306.692 167.584 306.458 167.302 305.99 167.077C305.531 166.852 304.829 166.739 303.884 166.739C302.948 166.739 302.242 166.852 301.765 167.077C301.297 167.302 301.063 167.584 301.063 167.922V168.078C301.063 168.416 301.297 168.698 301.765 168.923C302.242 169.148 302.948 169.261 303.884 169.261C304.829 169.261 305.531 169.148 305.99 168.923C306.458 168.698 306.692 168.416 306.692 168.078V167.922ZM321.13 161.864V162.696H319.323V166.7H318.335V158.003H319.323V161.864H321.13ZM315.358 159.186H311.887V158.354H315.358V159.186ZM313.538 165.348C313 165.348 312.528 165.257 312.121 165.075C311.713 164.893 311.397 164.642 311.172 164.321C310.955 164 310.847 163.636 310.847 163.229C310.847 162.822 310.942 162.466 311.133 162.163C311.332 161.851 311.627 161.613 312.017 161.448V161.383H309.989V160.564H317.035V161.383H315.059V161.448C315.449 161.613 315.739 161.851 315.93 162.163C316.129 162.466 316.229 162.822 316.229 163.229C316.229 163.636 316.116 164 315.891 164.321C315.674 164.642 315.362 164.893 314.955 165.075C314.547 165.257 314.075 165.348 313.538 165.348ZM313.434 164.516H313.655C314.14 164.516 314.534 164.386 314.838 164.126C315.15 163.857 315.306 163.485 315.306 163.008C315.306 162.531 315.154 162.159 314.851 161.89C314.547 161.621 314.149 161.487 313.655 161.487H313.434C312.94 161.487 312.541 161.621 312.238 161.89C311.934 162.15 311.783 162.523 311.783 163.008C311.783 163.485 311.934 163.857 312.238 164.126C312.55 164.386 312.948 164.516 313.434 164.516ZM313.226 168.78H319.583V169.599H312.888C312.68 169.599 312.519 169.543 312.407 169.43C312.294 169.317 312.238 169.153 312.238 168.936V166.336H313.226V168.78ZM332.192 158.822H328.084V158.042H332.192V158.822ZM335.442 164.568V165.374H324.834V164.568H329.657V163.71C328.686 163.667 327.963 163.498 327.486 163.203C327.018 162.9 326.784 162.527 326.784 162.085C326.784 161.487 327.165 161.067 327.928 160.824V160.746H325.549V159.992H334.727V160.746H332.348V160.824C333.111 161.067 333.492 161.487 333.492 162.085C333.492 162.527 333.258 162.9 332.79 163.203C332.322 163.498 331.603 163.667 330.632 163.71V164.568H335.442ZM329.839 162.943H330.437C331.139 162.943 331.659 162.848 331.997 162.657C332.344 162.458 332.517 162.193 332.517 161.864C332.517 161.526 332.344 161.262 331.997 161.071C331.659 160.872 331.139 160.772 330.437 160.772H329.839C329.137 160.772 328.613 160.872 328.266 161.071C327.928 161.262 327.759 161.526 327.759 161.864C327.759 162.193 327.928 162.458 328.266 162.657C328.613 162.848 329.137 162.943 329.839 162.943ZM326.407 166.349H333.869V169.768H327.057C326.849 169.768 326.689 169.712 326.576 169.599C326.463 169.486 326.407 169.322 326.407 169.105V166.349ZM327.369 169.027H332.907V167.09H327.369V169.027ZM346.448 158.003V169.287H345.512V158.003H346.448ZM342.99 158.198H343.913V168.975H342.99V163.138H341.56V162.319H342.99V158.198ZM341.82 159.953H336.516V159.134H341.82V159.953ZM342.106 165.283L342.197 166.05C341.477 166.189 340.598 166.297 339.558 166.375C338.526 166.444 337.465 166.479 336.373 166.479L336.282 165.66C336.914 165.66 337.391 165.656 337.712 165.647L337.387 161.006L338.297 160.915L338.544 165.621C338.838 165.612 339.228 165.591 339.714 165.556L340.039 160.902L340.949 160.993L340.559 165.504C341.243 165.426 341.759 165.352 342.106 165.283ZM356.699 158.003H357.687V169.287H356.699V158.003ZM348.353 162.566C348.353 161.301 348.631 160.343 349.185 159.693C349.749 159.043 350.49 158.718 351.408 158.718C352.318 158.718 353.051 159.043 353.605 159.693C354.169 160.343 354.45 161.301 354.45 162.566C354.45 163.415 354.32 164.13 354.06 164.711C353.8 165.283 353.441 165.712 352.981 165.998C352.522 166.275 351.998 166.414 351.408 166.414C350.49 166.414 349.749 166.089 349.185 165.439C348.631 164.789 348.353 163.831 348.353 162.566ZM353.397 163.073V162.059C353.397 161.253 353.211 160.633 352.838 160.2C352.474 159.767 351.998 159.55 351.408 159.55C350.81 159.55 350.325 159.767 349.952 160.2C349.588 160.625 349.406 161.244 349.406 162.059V163.073C349.406 163.888 349.588 164.512 349.952 164.945C350.325 165.37 350.81 165.582 351.408 165.582C351.998 165.582 352.474 165.365 352.838 164.932C353.211 164.499 353.397 163.879 353.397 163.073ZM369.278 158.003V169.287H368.29V158.003H369.278ZM363.844 162.774C363.966 162.774 364.065 162.822 364.143 162.917L366.691 165.907L365.95 166.544L363.376 163.45C363.333 163.398 363.281 163.372 363.22 163.372C363.168 163.372 363.121 163.398 363.077 163.45C362.843 163.927 362.536 164.412 362.154 164.906C361.773 165.4 361.253 166.007 360.594 166.726L359.853 166.102C360.607 165.313 361.188 164.629 361.595 164.048C362.011 163.467 362.31 162.891 362.492 162.319C362.674 161.738 362.765 161.08 362.765 160.343V159.849H360.204V159.017H366.301V159.849H363.753V160.382C363.753 161.361 363.602 162.232 363.298 162.995L363.363 163.034L363.558 162.878C363.654 162.809 363.749 162.774 363.844 162.774ZM384.292 158.003V169.287H383.343V158.003H384.292ZM380.756 158.198H381.679V168.975H380.756V162.761H378.949V161.942H380.756V158.198ZM377.597 162.904C377.701 162.904 377.801 162.965 377.896 163.086L379.963 165.985L379.261 166.583L377.181 163.593C377.138 163.541 377.095 163.515 377.051 163.515C377.008 163.515 376.973 163.541 376.947 163.593C376.765 164.044 376.514 164.512 376.193 164.997C375.881 165.474 375.457 166.063 374.919 166.765L374.23 166.18C374.863 165.374 375.348 164.681 375.686 164.1C376.024 163.511 376.267 162.93 376.414 162.358C376.562 161.777 376.635 161.119 376.635 160.382V160.005H374.503V159.173H379.664V160.005H377.571V160.382C377.571 161.387 377.433 162.28 377.155 163.06L377.22 163.099L377.35 162.995C377.446 162.934 377.528 162.904 377.597 162.904ZM396.819 161.773H395.012V164.841H394.024V158.003H395.012V160.941H396.819V161.773ZM386.64 164.529L385.912 163.905C386.64 163.316 387.204 162.809 387.602 162.384C388.001 161.959 388.287 161.539 388.46 161.123C388.642 160.698 388.733 160.226 388.733 159.706V159.576H386.25V158.744H392.191V159.576H389.721V159.745C389.721 160.464 389.57 161.119 389.266 161.708L389.344 161.747L389.539 161.604C389.635 161.526 389.73 161.487 389.825 161.487C389.921 161.487 390.02 161.53 390.124 161.617L392.555 163.684L391.827 164.334L389.357 162.163C389.305 162.111 389.245 162.085 389.175 162.085C389.106 162.085 389.045 162.111 388.993 162.163C388.768 162.501 388.473 162.848 388.109 163.203C387.745 163.558 387.256 164 386.64 164.529ZM387.693 165.543H395.012V169.859H394.037V166.375H387.693V165.543Z" fill="#1B1C25"/>
<path d="M277.243 201.826H274.929V201.033H277.243V199.408H274.929V198.615H277.243V197.003H278.231V203.724H277.243V201.826ZM271.744 203.048C271.181 203.048 270.674 202.935 270.223 202.71C269.781 202.476 269.434 202.147 269.183 201.722C268.932 201.297 268.806 200.799 268.806 200.227C268.806 199.655 268.932 199.157 269.183 198.732C269.434 198.307 269.781 197.982 270.223 197.757C270.665 197.523 271.172 197.406 271.744 197.406C272.316 197.406 272.823 197.523 273.265 197.757C273.707 197.982 274.054 198.307 274.305 198.732C274.556 199.157 274.682 199.655 274.682 200.227C274.682 200.799 274.556 201.297 274.305 201.722C274.054 202.147 273.703 202.476 273.252 202.71C272.81 202.935 272.307 203.048 271.744 203.048ZM271.744 202.255C272.316 202.255 272.775 202.095 273.122 201.774C273.477 201.445 273.655 201.007 273.655 200.461V199.993C273.655 199.447 273.477 199.014 273.122 198.693C272.775 198.364 272.316 198.199 271.744 198.199C271.172 198.199 270.708 198.364 270.353 198.693C270.006 199.014 269.833 199.447 269.833 199.993V200.461C269.833 201.007 270.006 201.445 270.353 201.774C270.708 202.095 271.172 202.255 271.744 202.255ZM278.296 206.428C278.296 206.905 278.157 207.329 277.88 207.702C277.611 208.083 277.204 208.382 276.658 208.599C276.112 208.816 275.445 208.924 274.656 208.924C273.867 208.924 273.196 208.816 272.641 208.599C272.095 208.382 271.683 208.083 271.406 207.702C271.137 207.329 271.003 206.905 271.003 206.428C271.003 205.951 271.137 205.527 271.406 205.154C271.683 204.773 272.095 204.474 272.641 204.257C273.196 204.04 273.867 203.932 274.656 203.932C275.445 203.932 276.112 204.04 276.658 204.257C277.204 204.474 277.611 204.773 277.88 205.154C278.157 205.527 278.296 205.951 278.296 206.428ZM277.243 206.324C277.243 205.873 277.026 205.496 276.593 205.193C276.168 204.89 275.523 204.738 274.656 204.738C273.789 204.738 273.139 204.894 272.706 205.206C272.273 205.509 272.056 205.882 272.056 206.324V206.545C272.056 206.987 272.273 207.36 272.706 207.663C273.139 207.975 273.789 208.131 274.656 208.131C275.523 208.131 276.168 207.975 276.593 207.663C277.026 207.36 277.243 206.987 277.243 206.545V206.324ZM291.044 199.915V200.747H289.237V203.724H288.249V197.003H289.237V199.915H291.044ZM283.322 200.695C283.261 200.695 283.205 200.725 283.153 200.786C282.927 201.159 282.628 201.544 282.256 201.943C281.892 202.333 281.398 202.818 280.774 203.399L280.046 202.762C280.782 202.103 281.35 201.54 281.749 201.072C282.147 200.604 282.433 200.14 282.607 199.681C282.78 199.222 282.867 198.702 282.867 198.121V197.419H283.855V198.173C283.855 198.962 283.703 199.681 283.4 200.331L283.465 200.383L283.673 200.201C283.768 200.123 283.863 200.084 283.959 200.084C284.054 200.084 284.141 200.123 284.219 200.201L286.689 202.489L285.987 203.165L283.491 200.773C283.439 200.721 283.382 200.695 283.322 200.695ZM289.328 206.428C289.328 206.905 289.193 207.329 288.925 207.702C288.656 208.083 288.253 208.382 287.716 208.599C287.178 208.816 286.52 208.924 285.74 208.924C284.968 208.924 284.31 208.816 283.764 208.599C283.226 208.382 282.819 208.083 282.542 207.702C282.273 207.329 282.139 206.905 282.139 206.428C282.139 205.951 282.273 205.527 282.542 205.154C282.819 204.773 283.226 204.474 283.764 204.257C284.31 204.04 284.968 203.932 285.74 203.932C286.52 203.932 287.178 204.04 287.716 204.257C288.253 204.474 288.656 204.773 288.925 205.154C289.193 205.527 289.328 205.951 289.328 206.428ZM288.288 206.324C288.288 205.873 288.075 205.496 287.651 205.193C287.235 204.89 286.598 204.738 285.74 204.738C284.89 204.738 284.253 204.894 283.829 205.206C283.404 205.509 283.192 205.882 283.192 206.324V206.545C283.192 206.987 283.404 207.36 283.829 207.663C284.253 207.975 284.89 208.131 285.74 208.131C286.598 208.131 287.235 207.975 287.651 207.663C288.075 207.36 288.288 206.987 288.288 206.545V206.324ZM303.484 202.112H301.391V201.306H303.484V199.694H301.391V198.875H303.484V197.003H304.485V205.635H303.484V202.112ZM300.949 198.693H295.06V197.874H300.949V198.693ZM301.469 203.516C300.663 203.637 299.671 203.733 298.492 203.802C297.322 203.863 296.109 203.893 294.852 203.893L294.761 203.087C295.099 203.087 295.615 203.078 296.308 203.061L295.996 199.616L296.958 199.538L297.192 203.048C297.539 203.039 298.072 203.018 298.791 202.983L299.077 199.512L300.026 199.603L299.675 202.918C300.212 202.883 300.776 202.827 301.365 202.749L301.469 203.516ZM304.719 207.715V208.534H297.881C297.673 208.534 297.513 208.478 297.4 208.365C297.287 208.252 297.231 208.088 297.231 207.871V204.959H298.219V207.715H304.719ZM316.076 197.003V203.308H315.075V197.003H316.076ZM307.418 203.256L306.69 202.632C307.426 202.069 307.998 201.579 308.406 201.163C308.813 200.747 309.108 200.34 309.29 199.941C309.472 199.534 309.563 199.074 309.563 198.563V198.459H307.054V197.64H313.047V198.459H310.538V198.615C310.538 199.343 310.382 199.98 310.07 200.526L310.161 200.565L310.369 200.409C310.464 200.34 310.564 200.305 310.668 200.305C310.78 200.305 310.876 200.34 310.954 200.409L313.424 202.411L312.696 203.061L310.187 200.955C310.126 200.903 310.057 200.877 309.979 200.877C309.909 200.877 309.849 200.903 309.797 200.955C309.571 201.284 309.277 201.622 308.913 201.969C308.549 202.307 308.05 202.736 307.418 203.256ZM315.101 204.036H316.076V208.755H309.576C309.368 208.755 309.207 208.699 309.095 208.586C308.982 208.473 308.926 208.309 308.926 208.092V204.036H309.901V205.57H315.101V204.036ZM315.101 206.35H309.901V207.962H315.101V206.35ZM319.204 205.479C319.481 205.479 319.68 205.553 319.802 205.7C319.932 205.839 319.997 206.021 319.997 206.246V206.428C319.997 206.783 319.893 207.173 319.685 207.598C319.477 208.031 319.186 208.408 318.814 208.729H317.943C318.203 208.452 318.411 208.187 318.567 207.936C318.731 207.693 318.848 207.42 318.918 207.117C318.744 207.074 318.614 206.991 318.528 206.87C318.45 206.749 318.411 206.601 318.411 206.428V206.246C318.411 206.021 318.471 205.839 318.593 205.7C318.723 205.553 318.926 205.479 319.204 205.479ZM335.49 202.281H333.618V208.313H332.63V197.029H333.618V201.449H335.49V202.281ZM328.444 201.774C328.548 201.774 328.647 201.822 328.743 201.917L331.278 204.92L330.537 205.557L327.989 202.45C327.937 202.398 327.88 202.372 327.82 202.372C327.759 202.372 327.716 202.398 327.69 202.45C327.456 202.918 327.148 203.399 326.767 203.893C326.394 204.378 325.883 204.989 325.233 205.726L324.505 205.115C325.259 204.318 325.835 203.629 326.234 203.048C326.641 202.467 326.936 201.891 327.118 201.319C327.3 200.738 327.391 200.08 327.391 199.343V198.849H324.843V198.017H330.901V198.849H328.366V199.369C328.366 200.34 328.21 201.211 327.898 201.982L327.963 202.034L328.171 201.878C328.257 201.809 328.348 201.774 328.444 201.774ZM347.094 200.773H345.287V203.776H344.299V197.003H345.287V199.941H347.094V200.773ZM341.855 202.931H336.525V197.653H341.855V202.931ZM340.88 198.459H337.513V202.125H340.88V198.459ZM337.968 204.478H345.287V208.859H344.312V205.31H337.968V204.478ZM348.999 205.479C349.277 205.479 349.476 205.553 349.597 205.7C349.727 205.839 349.792 206.021 349.792 206.246V206.428C349.792 206.783 349.688 207.173 349.48 207.598C349.272 208.031 348.982 208.408 348.609 208.729H347.738C347.998 208.452 348.206 208.187 348.362 207.936C348.527 207.693 348.644 207.42 348.713 207.117C348.54 207.074 348.41 206.991 348.323 206.87C348.245 206.749 348.206 206.601 348.206 206.428V206.246C348.206 206.021 348.267 205.839 348.388 205.7C348.518 205.553 348.722 205.479 348.999 205.479ZM365.299 200.422V201.254H363.492V205.57H362.504V197.003H363.492V200.422H365.299ZM361.217 202.996C360.584 203.126 359.83 203.23 358.955 203.308C358.079 203.377 357.139 203.412 356.134 203.412H354.795V197.77H359.982V198.602H355.783V202.593H356.121C357.074 202.593 357.98 202.558 358.838 202.489C359.704 202.42 360.454 202.324 361.087 202.203L361.217 202.996ZM357.395 207.715H363.752V208.534H357.057C356.849 208.534 356.688 208.478 356.576 208.365C356.463 208.252 356.407 208.088 356.407 207.871V204.634H357.395V207.715ZM367.14 202.008L366.594 201.254C367.72 200.795 368.583 200.379 369.181 200.006C369.787 199.625 370.208 199.248 370.442 198.875C370.684 198.502 370.806 198.073 370.806 197.588V197.237H371.82V197.627C371.82 198.034 371.768 198.398 371.664 198.719C371.56 199.031 371.391 199.326 371.157 199.603L371.248 199.642L371.573 199.395C371.694 199.308 371.815 199.265 371.937 199.265C372.032 199.265 372.132 199.291 372.236 199.343L375.876 201.215L375.317 201.982L371.508 199.954C371.395 199.893 371.278 199.863 371.157 199.863C371.027 199.863 370.91 199.898 370.806 199.967C370.459 200.279 369.991 200.595 369.402 200.916C368.821 201.237 368.067 201.601 367.14 202.008ZM376.539 203.074V203.919H371.794V206.259H370.806V203.919H365.931V203.074H376.539ZM368.401 207.754H375.148V208.573H368.076C367.868 208.573 367.707 208.517 367.595 208.404C367.482 208.291 367.426 208.127 367.426 207.91V205.167H368.401V207.754ZM388.48 200.864V201.696H386.673V205.7H385.685V197.003H386.673V200.864H388.48ZM382.708 198.186H379.237V197.354H382.708V198.186ZM380.888 204.348C380.351 204.348 379.879 204.257 379.471 204.075C379.064 203.893 378.748 203.642 378.522 203.321C378.306 203 378.197 202.636 378.197 202.229C378.197 201.822 378.293 201.466 378.483 201.163C378.683 200.851 378.977 200.613 379.367 200.448V200.383H377.339V199.564H384.385V200.383H382.409V200.448C382.799 200.613 383.09 200.851 383.28 201.163C383.48 201.466 383.579 201.822 383.579 202.229C383.579 202.636 383.467 203 383.241 203.321C383.025 203.642 382.713 203.893 382.305 204.075C381.898 204.257 381.426 204.348 380.888 204.348ZM380.784 203.516H381.005C381.491 203.516 381.885 203.386 382.188 203.126C382.5 202.857 382.656 202.485 382.656 202.008C382.656 201.531 382.505 201.159 382.201 200.89C381.898 200.621 381.499 200.487 381.005 200.487H380.784C380.29 200.487 379.892 200.621 379.588 200.89C379.285 201.15 379.133 201.523 379.133 202.008C379.133 202.485 379.285 202.857 379.588 203.126C379.9 203.386 380.299 203.516 380.784 203.516ZM380.576 207.78H386.933V208.599H380.238C380.03 208.599 379.87 208.543 379.757 208.43C379.645 208.317 379.588 208.153 379.588 207.936V205.336H380.576V207.78ZM399.555 198.082H395.421V197.263H399.555V198.082ZM395.369 200.383H392.86V199.577H402.116V200.383H399.607V200.461C400.465 200.764 400.894 201.302 400.894 202.073C400.894 202.645 400.613 203.126 400.049 203.516C399.495 203.897 398.641 204.088 397.488 204.088C396.336 204.088 395.478 203.897 394.914 203.516C394.36 203.126 394.082 202.645 394.082 202.073C394.082 201.302 394.511 200.764 395.369 200.461V200.383ZM399.893 201.852C399.893 201.427 399.711 201.085 399.347 200.825C398.992 200.565 398.455 200.435 397.735 200.435H397.241C396.522 200.435 395.98 200.565 395.616 200.825C395.261 201.085 395.083 201.427 395.083 201.852C395.083 202.277 395.261 202.619 395.616 202.879C395.98 203.139 396.522 203.269 397.241 203.269H397.735C398.455 203.269 398.992 203.139 399.347 202.879C399.711 202.619 399.893 202.277 399.893 201.852ZM402.792 206.181V207H392.184V206.181H394.979V204.517H395.954V206.181H399.022V204.517H399.997V206.181H402.792ZM414.721 202.476H412.953V208.287H411.978V197.003H412.953V201.644H414.721V202.476ZM409.209 198.849H404.321V198.03H410.171V199.031C410.171 200.409 410.015 201.783 409.703 203.152L408.754 203.009C409.058 201.752 409.209 200.465 409.209 199.148V198.849ZM411.042 204.582L411.133 205.375C410.18 205.531 409.04 205.648 407.714 205.726C406.397 205.804 405.041 205.843 403.645 205.843L403.554 205.011C404.421 205.011 405.283 204.998 406.141 204.972V201.449H407.103V204.933C408.672 204.864 409.985 204.747 411.042 204.582ZM429.397 200.773H427.59V203.841H426.602V197.003H427.59V199.941H429.397V200.773ZM419.218 203.529L418.49 202.905C419.218 202.316 419.782 201.809 420.18 201.384C420.579 200.959 420.865 200.539 421.038 200.123C421.22 199.698 421.311 199.226 421.311 198.706V198.576H418.828V197.744H424.769V198.576H422.299V198.745C422.299 199.464 422.148 200.119 421.844 200.708L421.922 200.747L422.117 200.604C422.213 200.526 422.308 200.487 422.403 200.487C422.499 200.487 422.598 200.53 422.702 200.617L425.133 202.684L424.405 203.334L421.935 201.163C421.883 201.111 421.823 201.085 421.753 201.085C421.684 201.085 421.623 201.111 421.571 201.163C421.346 201.501 421.051 201.848 420.687 202.203C420.323 202.558 419.834 203 419.218 203.529ZM420.271 204.543H427.59V208.859H426.615V205.375H420.271V204.543ZM439.766 197.003V203.269H438.778V200.526H436.269C436.182 201.263 435.87 201.848 435.333 202.281C434.796 202.706 434.128 202.918 433.331 202.918C432.759 202.918 432.248 202.805 431.797 202.58C431.355 202.355 431.008 202.034 430.757 201.618C430.506 201.193 430.38 200.699 430.38 200.136C430.38 199.573 430.506 199.083 430.757 198.667C431.008 198.242 431.355 197.917 431.797 197.692C432.248 197.467 432.759 197.354 433.331 197.354C434.128 197.354 434.791 197.566 435.32 197.991C435.857 198.407 436.174 198.979 436.269 199.707H438.778V197.003H439.766ZM435.255 199.915C435.255 199.386 435.077 198.962 434.722 198.641C434.367 198.32 433.903 198.16 433.331 198.16C432.759 198.16 432.295 198.32 431.94 198.641C431.593 198.962 431.42 199.386 431.42 199.915V200.344C431.42 200.881 431.593 201.31 431.94 201.631C432.295 201.952 432.759 202.112 433.331 202.112C433.903 202.112 434.367 201.952 434.722 201.631C435.077 201.31 435.255 200.881 435.255 200.344V199.915ZM438.778 203.997H439.766V208.755H433.279C433.071 208.755 432.911 208.699 432.798 208.586C432.685 208.473 432.629 208.309 432.629 208.092V203.997H433.591V205.492H438.778V203.997ZM438.778 206.337H433.591V207.91H438.778V206.337Z" fill="#1B1C25"/>
<path d="M260.602 128.168V129H249.994V128.168H254.804V125.516H251.45V119.601H252.438V121.746H258.145V119.601H259.12V125.516H255.792V128.168H260.602ZM252.438 124.697H258.145V122.565H252.438V124.697ZM270.334 121.798V119.003H271.322V125.789H270.334V122.604H267.968V121.798H270.334ZM262.612 125.399L261.871 124.775C262.599 124.203 263.162 123.709 263.561 123.293C263.959 122.868 264.245 122.452 264.419 122.045C264.601 121.629 264.692 121.165 264.692 120.654V120.524H262.209V119.692H268.137V120.524H265.68V120.693C265.68 121.43 265.528 122.075 265.225 122.63L265.303 122.669L265.511 122.513C265.606 122.444 265.701 122.409 265.797 122.409C265.909 122.409 266.009 122.448 266.096 122.526L268.514 124.554L267.786 125.204L265.329 123.072C265.259 123.02 265.194 122.994 265.134 122.994C265.064 122.994 265.004 123.02 264.952 123.072C264.718 123.41 264.419 123.757 264.055 124.112C263.691 124.467 263.21 124.896 262.612 125.399ZM271.387 128.48C271.387 128.948 271.248 129.364 270.971 129.728C270.702 130.101 270.29 130.391 269.736 130.599C269.19 130.816 268.522 130.924 267.734 130.924C266.936 130.924 266.26 130.816 265.706 130.599C265.16 130.391 264.748 130.101 264.471 129.728C264.202 129.364 264.068 128.948 264.068 128.48C264.068 128.012 264.202 127.596 264.471 127.232C264.748 126.859 265.16 126.569 265.706 126.361C266.26 126.144 266.936 126.036 267.734 126.036C268.522 126.036 269.19 126.144 269.736 126.361C270.29 126.569 270.702 126.859 270.971 127.232C271.248 127.596 271.387 128.012 271.387 128.48ZM270.347 128.376C270.347 127.934 270.13 127.566 269.697 127.271C269.263 126.968 268.609 126.816 267.734 126.816C266.85 126.816 266.187 126.968 265.745 127.271C265.311 127.566 265.095 127.934 265.095 128.376V128.597C265.095 129.03 265.311 129.394 265.745 129.689C266.187 129.992 266.85 130.144 267.734 130.144C268.609 130.144 269.263 129.992 269.697 129.689C270.13 129.394 270.347 129.03 270.347 128.597V128.376ZM274.45 127.479C274.727 127.479 274.926 127.553 275.048 127.7C275.178 127.839 275.243 128.021 275.243 128.246V128.428C275.243 128.783 275.139 129.173 274.931 129.598C274.723 130.031 274.432 130.408 274.06 130.729H273.189C273.449 130.452 273.657 130.187 273.813 129.936C273.977 129.693 274.094 129.42 274.164 129.117C273.99 129.074 273.86 128.991 273.774 128.87C273.696 128.749 273.657 128.601 273.657 128.428V128.246C273.657 128.021 273.717 127.839 273.839 127.7C273.969 127.553 274.172 127.479 274.45 127.479ZM290.749 122.903H288.942V125.737H287.954V119.003H288.942V122.084H290.749V122.903ZM284.977 120.043H281.506V119.237H284.977V120.043ZM283.157 125.607C282.62 125.607 282.147 125.529 281.74 125.373C281.333 125.217 281.016 125 280.791 124.723C280.574 124.437 280.466 124.112 280.466 123.748C280.466 123.029 280.83 122.522 281.558 122.227V122.149H279.608V121.356H286.654V122.149H284.756V122.227C285.484 122.522 285.848 123.029 285.848 123.748C285.848 124.112 285.735 124.437 285.51 124.723C285.293 125 284.981 125.217 284.574 125.373C284.167 125.529 283.694 125.607 283.157 125.607ZM283.014 124.814H283.3C283.777 124.814 284.167 124.701 284.47 124.476C284.782 124.242 284.938 123.926 284.938 123.527C284.938 123.12 284.786 122.803 284.483 122.578C284.18 122.353 283.785 122.24 283.3 122.24H283.014C282.529 122.24 282.134 122.353 281.831 122.578C281.528 122.803 281.376 123.12 281.376 123.527C281.376 123.926 281.528 124.242 281.831 124.476C282.143 124.701 282.537 124.814 283.014 124.814ZM287.98 126.426H288.942V130.755H282.585C282.377 130.755 282.217 130.699 282.104 130.586C281.991 130.473 281.935 130.309 281.935 130.092V126.426H282.884V127.752H287.98V126.426ZM287.98 128.558H282.884V129.949H287.98V128.558ZM300.13 122.292H297.647V121.46H300.13V119.003H301.118V125.724H300.13V122.292ZM294.839 122.682C294.778 122.682 294.726 122.708 294.683 122.76C294.449 123.15 294.141 123.553 293.76 123.969C293.387 124.376 292.893 124.866 292.278 125.438L291.55 124.788C292.286 124.129 292.854 123.566 293.253 123.098C293.651 122.621 293.937 122.153 294.111 121.694C294.293 121.226 294.384 120.697 294.384 120.108V119.393H295.372V120.16C295.372 120.966 295.224 121.694 294.93 122.344L294.982 122.37L295.203 122.188C295.298 122.11 295.393 122.071 295.489 122.071C295.584 122.071 295.671 122.11 295.749 122.188L298.232 124.489L297.517 125.178L295.008 122.76C294.956 122.708 294.899 122.682 294.839 122.682ZM301.183 128.428C301.183 128.905 301.044 129.329 300.767 129.702C300.498 130.083 300.091 130.382 299.545 130.599C298.999 130.816 298.331 130.924 297.543 130.924C296.754 130.924 296.082 130.816 295.528 130.599C294.982 130.382 294.57 130.083 294.293 129.702C294.024 129.329 293.89 128.905 293.89 128.428C293.89 127.951 294.024 127.527 294.293 127.154C294.57 126.773 294.982 126.474 295.528 126.257C296.082 126.04 296.754 125.932 297.543 125.932C298.331 125.932 298.999 126.04 299.545 126.257C300.091 126.474 300.498 126.773 300.767 127.154C301.044 127.527 301.183 127.951 301.183 128.428ZM300.13 128.324C300.13 127.873 299.913 127.496 299.48 127.193C299.055 126.89 298.409 126.738 297.543 126.738C296.676 126.738 296.026 126.894 295.593 127.206C295.159 127.509 294.943 127.882 294.943 128.324V128.545C294.943 128.987 295.159 129.36 295.593 129.663C296.026 129.975 296.676 130.131 297.543 130.131C298.409 130.131 299.055 129.975 299.48 129.663C299.913 129.36 300.13 128.987 300.13 128.545V128.324ZM315.157 123.306H307.656V119.315H315.053V120.134H308.631V122.487H315.157V123.306ZM316.652 124.593V125.438H306.044V124.593H316.652ZM315.183 128.714C315.183 129.156 315.04 129.546 314.754 129.884C314.468 130.231 314.034 130.499 313.454 130.69C312.882 130.889 312.18 130.989 311.348 130.989C310.516 130.989 309.809 130.889 309.229 130.69C308.657 130.499 308.228 130.231 307.942 129.884C307.656 129.546 307.513 129.156 307.513 128.714C307.513 128.281 307.656 127.895 307.942 127.557C308.236 127.219 308.67 126.955 309.242 126.764C309.814 126.573 310.516 126.478 311.348 126.478C312.18 126.478 312.882 126.573 313.454 126.764C314.026 126.955 314.455 127.219 314.741 127.557C315.035 127.895 315.183 128.281 315.183 128.714ZM314.143 128.636C314.143 128.246 313.909 127.921 313.441 127.661C312.981 127.392 312.284 127.258 311.348 127.258C310.412 127.258 309.71 127.392 309.242 127.661C308.774 127.921 308.54 128.246 308.54 128.636V128.818C308.54 129.208 308.774 129.533 309.242 129.793C309.71 130.062 310.412 130.196 311.348 130.196C312.284 130.196 312.981 130.062 313.441 129.793C313.909 129.533 314.143 129.208 314.143 128.818V128.636ZM329.391 119.003H330.379V130.287H329.391V119.003ZM321.045 123.566C321.045 122.301 321.322 121.343 321.877 120.693C322.44 120.043 323.181 119.718 324.1 119.718C325.01 119.718 325.742 120.043 326.297 120.693C326.86 121.343 327.142 122.301 327.142 123.566C327.142 124.415 327.012 125.13 326.752 125.711C326.492 126.283 326.132 126.712 325.673 126.998C325.214 127.275 324.689 127.414 324.1 127.414C323.181 127.414 322.44 127.089 321.877 126.439C321.322 125.789 321.045 124.831 321.045 123.566ZM326.089 124.073V123.059C326.089 122.253 325.903 121.633 325.53 121.2C325.166 120.767 324.689 120.55 324.1 120.55C323.502 120.55 323.017 120.767 322.644 121.2C322.28 121.625 322.098 122.244 322.098 123.059V124.073C322.098 124.888 322.28 125.512 322.644 125.945C323.017 126.37 323.502 126.582 324.1 126.582C324.689 126.582 325.166 126.365 325.53 125.932C325.903 125.499 326.089 124.879 326.089 124.073ZM340.982 119.003H341.97V130.287H340.982V119.003ZM332.961 119.9H338.382V127.141H332.961V119.9ZM337.407 126.322V120.719H333.923V126.322H337.407ZM353.561 119.003V130.287H352.573V119.003H353.561ZM348.127 123.774C348.248 123.774 348.348 123.822 348.426 123.917L350.974 126.907L350.233 127.544L347.659 124.45C347.615 124.398 347.563 124.372 347.503 124.372C347.451 124.372 347.403 124.398 347.36 124.45C347.126 124.927 346.818 125.412 346.437 125.906C346.055 126.4 345.535 127.007 344.877 127.726L344.136 127.102C344.89 126.313 345.47 125.629 345.878 125.048C346.294 124.467 346.593 123.891 346.775 123.319C346.957 122.738 347.048 122.08 347.048 121.343V120.849H344.487V120.017H350.584V120.849H348.036V121.382C348.036 122.361 347.884 123.232 347.581 123.995L347.646 124.034L347.841 123.878C347.936 123.809 348.031 123.774 348.127 123.774ZM359.722 124.437L359.176 123.683C360.32 123.163 361.195 122.695 361.802 122.279C362.408 121.863 362.829 121.451 363.063 121.044C363.305 120.637 363.427 120.164 363.427 119.627V119.224H364.441V119.653C364.441 120.095 364.384 120.489 364.272 120.836C364.168 121.183 363.999 121.512 363.765 121.824L363.83 121.85L364.168 121.603C364.28 121.516 364.397 121.473 364.519 121.473C364.631 121.473 364.735 121.503 364.831 121.564L368.549 123.631L367.99 124.398L364.129 122.175C364.007 122.106 363.89 122.071 363.778 122.071C363.656 122.071 363.539 122.114 363.427 122.201L363.414 122.214C363.067 122.552 362.599 122.894 362.01 123.241C361.429 123.588 360.666 123.986 359.722 124.437ZM369.16 126.517H364.35V130.742H363.362V126.517H358.552V125.685H369.16V126.517ZM378.891 121.798V119.003H379.879V125.789H378.891V122.604H376.525V121.798H378.891ZM371.169 125.399L370.428 124.775C371.156 124.203 371.72 123.709 372.118 123.293C372.517 122.868 372.803 122.452 372.976 122.045C373.158 121.629 373.249 121.165 373.249 120.654V120.524H370.766V119.692H376.694V120.524H374.237V120.693C374.237 121.43 374.086 122.075 373.782 122.63L373.86 122.669L374.068 122.513C374.164 122.444 374.259 122.409 374.354 122.409C374.467 122.409 374.567 122.448 374.653 122.526L377.071 124.554L376.343 125.204L373.886 123.072C373.817 123.02 373.752 122.994 373.691 122.994C373.622 122.994 373.561 123.02 373.509 123.072C373.275 123.41 372.976 123.757 372.612 124.112C372.248 124.467 371.767 124.896 371.169 125.399ZM379.944 128.48C379.944 128.948 379.806 129.364 379.528 129.728C379.26 130.101 378.848 130.391 378.293 130.599C377.747 130.816 377.08 130.924 376.291 130.924C375.494 130.924 374.818 130.816 374.263 130.599C373.717 130.391 373.306 130.101 373.028 129.728C372.76 129.364 372.625 128.948 372.625 128.48C372.625 128.012 372.76 127.596 373.028 127.232C373.306 126.859 373.717 126.569 374.263 126.361C374.818 126.144 375.494 126.036 376.291 126.036C377.08 126.036 377.747 126.144 378.293 126.361C378.848 126.569 379.26 126.859 379.528 127.232C379.806 127.596 379.944 128.012 379.944 128.48ZM378.904 128.376C378.904 127.934 378.688 127.566 378.254 127.271C377.821 126.968 377.167 126.816 376.291 126.816C375.407 126.816 374.744 126.968 374.302 127.271C373.869 127.566 373.652 127.934 373.652 128.376V128.597C373.652 129.03 373.869 129.394 374.302 129.689C374.744 129.992 375.407 130.144 376.291 130.144C377.167 130.144 377.821 129.992 378.254 129.689C378.688 129.394 378.904 129.03 378.904 128.597V128.376ZM392.679 124.476H390.911V130.287H389.936V119.003H390.911V123.644H392.679V124.476ZM387.167 120.849H382.279V120.03H388.129V121.031C388.129 122.409 387.973 123.783 387.661 125.152L386.712 125.009C387.016 123.752 387.167 122.465 387.167 121.148V120.849ZM389 126.582L389.091 127.375C388.138 127.531 386.998 127.648 385.672 127.726C384.355 127.804 382.999 127.843 381.603 127.843L381.512 127.011C382.379 127.011 383.241 126.998 384.099 126.972V123.449H385.061V126.933C386.63 126.864 387.943 126.747 389 126.582ZM406.068 119.003V130.287H405.08V119.003H406.068ZM403.455 126.127L403.585 126.92C402.242 127.189 400.569 127.323 398.567 127.323H397.176V119.926H402.415V120.758H398.177V126.491H398.541C400.526 126.491 402.164 126.37 403.455 126.127ZM418.933 124.281H417.061V130.313H416.073V119.029H417.061V123.449H418.933V124.281ZM411.887 123.774C411.991 123.774 412.091 123.822 412.186 123.917L414.721 126.92L413.98 127.557L411.432 124.45C411.38 124.398 411.324 124.372 411.263 124.372C411.202 124.372 411.159 124.398 411.133 124.45C410.899 124.918 410.591 125.399 410.21 125.893C409.837 126.378 409.326 126.989 408.676 127.726L407.948 127.115C408.702 126.318 409.278 125.629 409.677 125.048C410.084 124.467 410.379 123.891 410.561 123.319C410.743 122.738 410.834 122.08 410.834 121.343V120.849H408.286V120.017H414.344V120.849H411.809V121.369C411.809 122.34 411.653 123.211 411.341 123.982L411.406 124.034L411.614 123.878C411.701 123.809 411.792 123.774 411.887 123.774ZM429.315 119.003V127.57H428.314V119.003H429.315ZM419.955 122.513C419.955 121.906 420.081 121.378 420.332 120.927C420.592 120.476 420.947 120.134 421.398 119.9C421.849 119.657 422.364 119.536 422.945 119.536C423.517 119.536 424.028 119.657 424.479 119.9C424.938 120.134 425.294 120.476 425.545 120.927C425.805 121.378 425.935 121.906 425.935 122.513C425.935 123.111 425.805 123.635 425.545 124.086C425.294 124.537 424.938 124.883 424.479 125.126C424.028 125.36 423.517 125.477 422.945 125.477C422.364 125.477 421.849 125.36 421.398 125.126C420.947 124.883 420.592 124.541 420.332 124.099C420.081 123.648 419.955 123.12 419.955 122.513ZM424.882 122.786V122.24C424.882 121.668 424.7 121.213 424.336 120.875C423.981 120.528 423.517 120.355 422.945 120.355C422.364 120.355 421.892 120.528 421.528 120.875C421.173 121.222 420.995 121.677 420.995 122.24V122.786C420.995 123.349 421.177 123.804 421.541 124.151C421.905 124.489 422.373 124.658 422.945 124.658C423.517 124.658 423.981 124.489 424.336 124.151C424.7 123.804 424.882 123.349 424.882 122.786ZM422.087 129.871V126.634H423.088V129.715H429.549V130.534H422.737C422.529 130.534 422.369 130.478 422.256 130.365C422.143 130.252 422.087 130.088 422.087 129.871ZM445.2 122.773H443.393V125.841H442.405V119.003H443.393V121.941H445.2V122.773ZM435.021 125.529L434.293 124.905C435.021 124.316 435.584 123.809 435.983 123.384C436.382 122.959 436.668 122.539 436.841 122.123C437.023 121.698 437.114 121.226 437.114 120.706V120.576H434.631V119.744H440.572V120.576H438.102V120.745C438.102 121.464 437.95 122.119 437.647 122.708L437.725 122.747L437.92 122.604C438.015 122.526 438.111 122.487 438.206 122.487C438.301 122.487 438.401 122.53 438.505 122.617L440.936 124.684L440.208 125.334L437.738 123.163C437.686 123.111 437.625 123.085 437.556 123.085C437.487 123.085 437.426 123.111 437.374 123.163C437.149 123.501 436.854 123.848 436.49 124.203C436.126 124.558 435.636 125 435.021 125.529ZM436.074 126.543H443.393V130.859H442.418V127.375H436.074V126.543ZM455.569 119.003V125.269H454.581V122.526H452.072C451.985 123.263 451.673 123.848 451.136 124.281C450.599 124.706 449.931 124.918 449.134 124.918C448.562 124.918 448.051 124.805 447.6 124.58C447.158 124.355 446.811 124.034 446.56 123.618C446.309 123.193 446.183 122.699 446.183 122.136C446.183 121.573 446.309 121.083 446.56 120.667C446.811 120.242 447.158 119.917 447.6 119.692C448.051 119.467 448.562 119.354 449.134 119.354C449.931 119.354 450.594 119.566 451.123 119.991C451.66 120.407 451.977 120.979 452.072 121.707H454.581V119.003H455.569ZM451.058 121.915C451.058 121.386 450.88 120.962 450.525 120.641C450.17 120.32 449.706 120.16 449.134 120.16C448.562 120.16 448.098 120.32 447.743 120.641C447.396 120.962 447.223 121.386 447.223 121.915V122.344C447.223 122.881 447.396 123.31 447.743 123.631C448.098 123.952 448.562 124.112 449.134 124.112C449.706 124.112 450.17 123.952 450.525 123.631C450.88 123.31 451.058 122.881 451.058 122.344V121.915ZM454.581 125.997H455.569V130.755H449.082C448.874 130.755 448.714 130.699 448.601 130.586C448.488 130.473 448.432 130.309 448.432 130.092V125.997H449.394V127.492H454.581V125.997ZM454.581 128.337H449.394V129.91H454.581V128.337Z" fill="#1B1C25"/>
<path d="M268.453 83.422V84.254H266.646V88.57H265.658V80.003H266.646V83.422H268.453ZM258.261 86.984L257.728 86.23C258.907 85.7447 259.804 85.3113 260.419 84.93C261.034 84.5487 261.468 84.1457 261.719 83.721C261.97 83.2963 262.096 82.7763 262.096 82.161V81.615H258.053V80.77H263.084V82.07C263.084 82.8673 262.941 83.5303 262.655 84.059C262.378 84.5877 261.897 85.073 261.212 85.515C260.536 85.957 259.552 86.4467 258.261 86.984ZM260.549 90.715H266.906V91.534H260.211C260.003 91.534 259.843 91.4777 259.73 91.365C259.617 91.2523 259.561 91.0877 259.561 90.871V87.634H260.549V90.715ZM280.044 83.422V84.254H278.237V88.57H277.249V80.003H278.237V83.422H280.044ZM275.962 85.996C275.329 86.126 274.575 86.23 273.7 86.308C272.824 86.3773 271.884 86.412 270.879 86.412H269.54V80.77H274.727V81.602H270.528V85.593H270.866C271.819 85.593 272.725 85.5583 273.583 85.489C274.449 85.4197 275.199 85.3243 275.832 85.203L275.962 85.996ZM272.14 90.715H278.497V91.534H271.802C271.594 91.534 271.433 91.4777 271.321 91.365C271.208 91.2523 271.152 91.0877 271.152 90.871V87.634H272.14V90.715ZM291.635 83.864V84.696H289.828V88.7H288.84V80.003H289.828V83.864H291.635ZM285.863 81.186H282.392V80.354H285.863V81.186ZM284.043 87.348C283.505 87.348 283.033 87.257 282.626 87.075C282.218 86.893 281.902 86.6417 281.677 86.321C281.46 86.0003 281.352 85.6363 281.352 85.229C281.352 84.8217 281.447 84.4663 281.638 84.163C281.837 83.851 282.132 83.6127 282.522 83.448V83.383H280.494V82.564H287.54V83.383H285.564V83.448C285.954 83.6127 286.244 83.851 286.435 84.163C286.634 84.4663 286.734 84.8217 286.734 85.229C286.734 85.6363 286.621 86.0003 286.396 86.321C286.179 86.6417 285.867 86.893 285.46 87.075C285.052 87.257 284.58 87.348 284.043 87.348ZM283.939 86.516H284.16C284.645 86.516 285.039 86.386 285.343 86.126C285.655 85.8573 285.811 85.4847 285.811 85.008C285.811 84.5313 285.659 84.1587 285.356 83.89C285.052 83.6213 284.654 83.487 284.16 83.487H283.939C283.445 83.487 283.046 83.6213 282.743 83.89C282.439 84.15 282.288 84.5227 282.288 85.008C282.288 85.4847 282.439 85.8573 282.743 86.126C283.055 86.386 283.453 86.516 283.939 86.516ZM283.731 90.78H290.088V91.599H283.393C283.185 91.599 283.024 91.5427 282.912 91.43C282.799 91.3173 282.743 91.1527 282.743 90.936V88.336H283.731V90.78ZM302.697 80.822H298.589V80.042H302.697V80.822ZM305.947 86.568V87.374H295.339V86.568H300.162V85.71C299.191 85.6667 298.467 85.4977 297.991 85.203C297.523 84.8997 297.289 84.527 297.289 84.085C297.289 83.487 297.67 83.0667 298.433 82.824V82.746H296.054V81.992H305.232V82.746H302.853V82.824C303.615 83.0667 303.997 83.487 303.997 84.085C303.997 84.527 303.763 84.8997 303.295 85.203C302.827 85.4977 302.107 85.6667 301.137 85.71V86.568H305.947ZM300.344 84.943H300.942C301.644 84.943 302.164 84.8477 302.502 84.657C302.848 84.4577 303.022 84.1933 303.022 83.864C303.022 83.526 302.848 83.2617 302.502 83.071C302.164 82.8717 301.644 82.772 300.942 82.772H300.344C299.642 82.772 299.117 82.8717 298.771 83.071C298.433 83.2617 298.264 83.526 298.264 83.864C298.264 84.1933 298.433 84.4577 298.771 84.657C299.117 84.8477 299.642 84.943 300.344 84.943ZM304.452 90.078C304.452 90.6673 304.127 91.1353 303.477 91.482C302.827 91.8373 301.882 92.015 300.643 92.015C299.403 92.015 298.454 91.8373 297.796 91.482C297.146 91.1353 296.821 90.6673 296.821 90.078C296.821 89.4973 297.146 89.0337 297.796 88.687C298.454 88.3317 299.403 88.154 300.643 88.154C301.882 88.154 302.827 88.3273 303.477 88.674C304.127 89.0207 304.452 89.4887 304.452 90.078ZM303.425 90.013C303.425 89.701 303.191 89.4367 302.723 89.22C302.263 89.0033 301.57 88.895 300.643 88.895C299.715 88.895 299.018 89.0033 298.55 89.22C298.09 89.4367 297.861 89.701 297.861 90.013V90.156C297.861 90.468 298.09 90.728 298.55 90.936C299.009 91.1527 299.707 91.261 300.643 91.261C301.579 91.261 302.276 91.1527 302.736 90.936C303.195 90.728 303.425 90.468 303.425 90.156V90.013ZM317.538 89.168V90H306.93V89.168H311.74V86.516H308.386V80.601H309.374V82.746H315.081V80.601H316.056V86.516H312.728V89.168H317.538ZM309.374 85.697H315.081V83.565H309.374V85.697ZM327.542 83.942H320.106V80.198H327.542V83.942ZM326.567 80.965H321.081V83.162H326.567V80.965ZM324.318 85.84V87.023H327.529V89.818H321.12V91.04H327.867V91.859H320.821C320.613 91.859 320.453 91.8027 320.34 91.69C320.228 91.5773 320.171 91.4127 320.171 91.196V89.051H326.58V87.829H320.093V87.023H323.343V85.84H318.52V85.034H329.128V85.84H324.318ZM342.855 80.003V91.287H341.867V80.003H342.855ZM340.242 87.127L340.372 87.92C339.029 88.1887 337.356 88.323 335.354 88.323H333.963V80.926H339.202V81.758H334.964V87.491H335.328C337.313 87.491 338.951 87.3697 340.242 87.127ZM355.72 85.281H353.848V91.313H352.86V80.029H353.848V84.449H355.72V85.281ZM348.674 84.774C348.778 84.774 348.878 84.8217 348.973 84.917L351.508 87.92L350.767 88.557L348.219 85.45C348.167 85.398 348.111 85.372 348.05 85.372C347.99 85.372 347.946 85.398 347.92 85.45C347.686 85.918 347.379 86.399 346.997 86.893C346.625 87.3783 346.113 87.9893 345.463 88.726L344.735 88.115C345.489 87.3177 346.066 86.6287 346.464 86.048C346.872 85.4673 347.166 84.891 347.348 84.319C347.53 83.7383 347.621 83.0797 347.621 82.343V81.849H345.073V81.017H351.131V81.849H348.596V82.369C348.596 83.3397 348.44 84.2107 348.128 84.982L348.193 85.034L348.401 84.878C348.488 84.8087 348.579 84.774 348.674 84.774ZM366.102 80.003V88.57H365.101V80.003H366.102ZM356.742 83.513C356.742 82.9063 356.868 82.3777 357.119 81.927C357.379 81.4763 357.734 81.134 358.185 80.9C358.636 80.6573 359.151 80.536 359.732 80.536C360.304 80.536 360.815 80.6573 361.266 80.9C361.725 81.134 362.081 81.4763 362.332 81.927C362.592 82.3777 362.722 82.9063 362.722 83.513C362.722 84.111 362.592 84.6353 362.332 85.086C362.081 85.5367 361.725 85.8833 361.266 86.126C360.815 86.36 360.304 86.477 359.732 86.477C359.151 86.477 358.636 86.36 358.185 86.126C357.734 85.8833 357.379 85.541 357.119 85.099C356.868 84.6483 356.742 84.1197 356.742 83.513ZM361.669 83.786V83.24C361.669 82.668 361.487 82.213 361.123 81.875C360.768 81.5283 360.304 81.355 359.732 81.355C359.151 81.355 358.679 81.5283 358.315 81.875C357.96 82.2217 357.782 82.6767 357.782 83.24V83.786C357.782 84.3493 357.964 84.8043 358.328 85.151C358.692 85.489 359.16 85.658 359.732 85.658C360.304 85.658 360.768 85.489 361.123 85.151C361.487 84.8043 361.669 84.3493 361.669 83.786ZM358.874 90.871V87.634H359.875V90.715H366.336V91.534H359.524C359.316 91.534 359.156 91.4777 359.043 91.365C358.93 91.2523 358.874 91.0877 358.874 90.871ZM381.987 83.773H380.18V86.841H379.192V80.003H380.18V82.941H381.987V83.773ZM371.808 86.529L371.08 85.905C371.808 85.3157 372.372 84.8087 372.77 84.384C373.169 83.9593 373.455 83.539 373.628 83.123C373.81 82.6983 373.901 82.226 373.901 81.706V81.576H371.418V80.744H377.359V81.576H374.889V81.745C374.889 82.4643 374.738 83.1187 374.434 83.708L374.512 83.747L374.707 83.604C374.803 83.526 374.898 83.487 374.993 83.487C375.089 83.487 375.188 83.5303 375.292 83.617L377.723 85.684L376.995 86.334L374.525 84.163C374.473 84.111 374.413 84.085 374.343 84.085C374.274 84.085 374.213 84.111 374.161 84.163C373.936 84.501 373.641 84.8477 373.277 85.203C372.913 85.5583 372.424 86.0003 371.808 86.529ZM372.861 87.543H380.18V91.859H379.205V88.375H372.861V87.543ZM392.356 80.003V86.269H391.368V83.526H388.859C388.772 84.2627 388.46 84.8477 387.923 85.281C387.386 85.7057 386.718 85.918 385.921 85.918C385.349 85.918 384.838 85.8053 384.387 85.58C383.945 85.3547 383.598 85.034 383.347 84.618C383.096 84.1933 382.97 83.6993 382.97 83.136C382.97 82.5727 383.096 82.083 383.347 81.667C383.598 81.2423 383.945 80.9173 384.387 80.692C384.838 80.4667 385.349 80.354 385.921 80.354C386.718 80.354 387.381 80.5663 387.91 80.991C388.447 81.407 388.764 81.979 388.859 82.707H391.368V80.003H392.356ZM387.845 82.915C387.845 82.3863 387.667 81.9617 387.312 81.641C386.957 81.3203 386.493 81.16 385.921 81.16C385.349 81.16 384.885 81.3203 384.53 81.641C384.183 81.9617 384.01 82.3863 384.01 82.915V83.344C384.01 83.8813 384.183 84.3103 384.53 84.631C384.885 84.9517 385.349 85.112 385.921 85.112C386.493 85.112 386.957 84.9517 387.312 84.631C387.667 84.3103 387.845 83.8813 387.845 83.344V82.915ZM391.368 86.997H392.356V91.755H385.869C385.661 91.755 385.501 91.6987 385.388 91.586C385.275 91.4733 385.219 91.3087 385.219 91.092V86.997H386.181V88.492H391.368V86.997ZM391.368 89.337H386.181V90.91H391.368V89.337Z" fill="#1B1C25"/>
<path d="M154.9 91V89.95H156.37V81.58H154.9V80.53H159.1V81.58H157.63V89.95H159.1V91H154.9ZM161.401 91V80.53H162.661V89.89H167.116V91H161.401ZM168.916 91V80.53H170.176V89.89H174.631V91H168.916ZM177.19 80.53V87.01C177.19 88.01 177.375 88.77 177.745 89.29C178.115 89.8 178.765 90.055 179.695 90.055C180.625 90.055 181.275 89.8 181.645 89.29C182.015 88.77 182.2 88.01 182.2 87.01V80.53H183.46V86.71C183.46 87.47 183.39 88.13 183.25 88.69C183.12 89.25 182.905 89.715 182.605 90.085C182.305 90.455 181.91 90.73 181.42 90.91C180.94 91.09 180.35 91.18 179.65 91.18C178.95 91.18 178.36 91.09 177.88 90.91C177.41 90.73 177.03 90.455 176.74 90.085C176.45 89.715 176.24 89.25 176.11 88.69C175.99 88.13 175.93 87.47 175.93 86.71V80.53H177.19ZM189.111 91.18C188.261 91.18 187.536 91.02 186.936 90.7C186.336 90.37 185.826 89.92 185.406 89.35L186.336 88.57C186.706 89.06 187.116 89.435 187.566 89.695C188.016 89.945 188.546 90.07 189.156 90.07C189.906 90.07 190.476 89.89 190.866 89.53C191.266 89.17 191.466 88.69 191.466 88.09C191.466 87.59 191.316 87.205 191.016 86.935C190.716 86.665 190.221 86.45 189.531 86.29L188.676 86.095C187.716 85.875 186.981 85.545 186.471 85.105C185.971 84.655 185.721 84.025 185.721 83.215C185.721 82.755 185.806 82.345 185.976 81.985C186.146 81.625 186.381 81.325 186.681 81.085C186.991 80.845 187.356 80.665 187.776 80.545C188.206 80.415 188.676 80.35 189.186 80.35C189.976 80.35 190.651 80.495 191.211 80.785C191.781 81.075 192.261 81.5 192.651 82.06L191.706 82.75C191.416 82.35 191.066 82.035 190.656 81.805C190.246 81.575 189.736 81.46 189.126 81.46C188.456 81.46 187.926 81.605 187.536 81.895C187.156 82.175 186.966 82.6 186.966 83.17C186.966 83.67 187.126 84.05 187.446 84.31C187.776 84.56 188.271 84.76 188.931 84.91L189.786 85.105C190.816 85.335 191.561 85.685 192.021 86.155C192.481 86.625 192.711 87.25 192.711 88.03C192.711 88.51 192.626 88.945 192.456 89.335C192.296 89.725 192.061 90.055 191.751 90.325C191.441 90.595 191.061 90.805 190.611 90.955C190.171 91.105 189.671 91.18 189.111 91.18ZM198.222 81.64V91H196.962V81.64H193.632V80.53H201.552V81.64H198.222ZM204.541 91H203.281V80.53H207.451C208.371 80.53 209.086 80.785 209.596 81.295C210.116 81.805 210.376 82.54 210.376 83.5C210.376 84.27 210.196 84.905 209.836 85.405C209.486 85.895 208.966 86.22 208.276 86.38L210.676 91H209.251L206.986 86.5H204.541V91ZM207.451 85.42C207.951 85.42 208.336 85.29 208.606 85.03C208.886 84.77 209.026 84.4 209.026 83.92V83.14C209.026 82.66 208.886 82.29 208.606 82.03C208.336 81.77 207.951 81.64 207.451 81.64H204.541V85.42H207.451ZM219.43 91L218.38 87.91H214.15L213.1 91H211.825L215.485 80.53H217.09L220.75 91H219.43ZM216.295 81.7H216.22L214.45 86.8H218.065L216.295 81.7ZM225.028 81.64V91H223.768V81.64H220.438V80.53H228.358V81.64H225.028ZM233.709 91.18C233.029 91.18 232.414 91.065 231.864 90.835C231.324 90.595 230.859 90.25 230.469 89.8C230.089 89.34 229.794 88.775 229.584 88.105C229.374 87.425 229.269 86.645 229.269 85.765C229.269 84.885 229.374 84.11 229.584 83.44C229.794 82.77 230.089 82.205 230.469 81.745C230.859 81.285 231.324 80.94 231.864 80.71C232.414 80.47 233.029 80.35 233.709 80.35C234.379 80.35 234.989 80.47 235.539 80.71C236.089 80.94 236.554 81.285 236.934 81.745C237.324 82.205 237.624 82.77 237.834 83.44C238.044 84.11 238.149 84.885 238.149 85.765C238.149 86.645 238.044 87.425 237.834 88.105C237.624 88.775 237.324 89.34 236.934 89.8C236.554 90.25 236.089 90.595 235.539 90.835C234.989 91.065 234.379 91.18 233.709 91.18ZM233.709 90.055C234.159 90.055 234.574 89.975 234.954 89.815C235.334 89.655 235.659 89.425 235.929 89.125C236.209 88.825 236.424 88.465 236.574 88.045C236.724 87.625 236.799 87.155 236.799 86.635V84.895C236.799 84.375 236.724 83.905 236.574 83.485C236.424 83.065 236.209 82.705 235.929 82.405C235.659 82.105 235.334 81.875 234.954 81.715C234.574 81.555 234.159 81.475 233.709 81.475C233.259 81.475 232.844 81.555 232.464 81.715C232.084 81.875 231.754 82.105 231.474 82.405C231.204 82.705 230.994 83.065 230.844 83.485C230.694 83.905 230.619 84.375 230.619 84.895V86.635C230.619 87.155 230.694 87.625 230.844 88.045C230.994 88.465 231.204 88.825 231.474 89.125C231.754 89.425 232.084 89.655 232.464 89.815C232.844 89.975 233.259 90.055 233.709 90.055ZM241.675 91H240.415V80.53H244.585C245.505 80.53 246.22 80.785 246.73 81.295C247.25 81.805 247.51 82.54 247.51 83.5C247.51 84.27 247.33 84.905 246.97 85.405C246.62 85.895 246.1 86.22 245.41 86.38L247.81 91H246.385L244.12 86.5H241.675V91ZM244.585 85.42C245.085 85.42 245.47 85.29 245.74 85.03C246.02 84.77 246.16 84.4 246.16 83.92V83.14C246.16 82.66 246.02 82.29 245.74 82.03C245.47 81.77 245.085 81.64 244.585 81.64H241.675V85.42H244.585Z" fill="#1B1C25"/>
<path d="M155.395 130V119.53H159.565C160.505 119.53 161.225 119.8 161.725 120.34C162.235 120.87 162.49 121.6 162.49 122.53C162.49 123.46 162.235 124.195 161.725 124.735C161.225 125.265 160.505 125.53 159.565 125.53H156.655V130H155.395ZM156.655 124.42H159.565C160.065 124.42 160.45 124.29 160.72 124.03C161 123.77 161.14 123.4 161.14 122.92V122.14C161.14 121.66 161 121.29 160.72 121.03C160.45 120.77 160.065 120.64 159.565 120.64H156.655V124.42ZM171.047 125.26H165.752V130H164.492V119.53H165.752V124.15H171.047V119.53H172.307V130H171.047V125.26ZM179.012 130.18C178.332 130.18 177.717 130.065 177.167 129.835C176.627 129.595 176.162 129.25 175.772 128.8C175.392 128.34 175.097 127.775 174.887 127.105C174.677 126.425 174.572 125.645 174.572 124.765C174.572 123.885 174.677 123.11 174.887 122.44C175.097 121.77 175.392 121.205 175.772 120.745C176.162 120.285 176.627 119.94 177.167 119.71C177.717 119.47 178.332 119.35 179.012 119.35C179.682 119.35 180.292 119.47 180.842 119.71C181.392 119.94 181.857 120.285 182.237 120.745C182.627 121.205 182.927 121.77 183.137 122.44C183.347 123.11 183.452 123.885 183.452 124.765C183.452 125.645 183.347 126.425 183.137 127.105C182.927 127.775 182.627 128.34 182.237 128.8C181.857 129.25 181.392 129.595 180.842 129.835C180.292 130.065 179.682 130.18 179.012 130.18ZM179.012 129.055C179.462 129.055 179.877 128.975 180.257 128.815C180.637 128.655 180.962 128.425 181.232 128.125C181.512 127.825 181.727 127.465 181.877 127.045C182.027 126.625 182.102 126.155 182.102 125.635V123.895C182.102 123.375 182.027 122.905 181.877 122.485C181.727 122.065 181.512 121.705 181.232 121.405C180.962 121.105 180.637 120.875 180.257 120.715C179.877 120.555 179.462 120.475 179.012 120.475C178.562 120.475 178.147 120.555 177.767 120.715C177.387 120.875 177.057 121.105 176.777 121.405C176.507 121.705 176.297 122.065 176.147 122.485C175.997 122.905 175.922 123.375 175.922 123.895V125.635C175.922 126.155 175.997 126.625 176.147 127.045C176.297 127.465 176.507 127.825 176.777 128.125C177.057 128.425 177.387 128.655 177.767 128.815C178.147 128.975 178.562 129.055 179.012 129.055ZM188.949 120.64V130H187.689V120.64H184.359V119.53H192.279V120.64H188.949ZM197.63 130.18C196.95 130.18 196.335 130.065 195.785 129.835C195.245 129.595 194.78 129.25 194.39 128.8C194.01 128.34 193.715 127.775 193.505 127.105C193.295 126.425 193.19 125.645 193.19 124.765C193.19 123.885 193.295 123.11 193.505 122.44C193.715 121.77 194.01 121.205 194.39 120.745C194.78 120.285 195.245 119.94 195.785 119.71C196.335 119.47 196.95 119.35 197.63 119.35C198.3 119.35 198.91 119.47 199.46 119.71C200.01 119.94 200.475 120.285 200.855 120.745C201.245 121.205 201.545 121.77 201.755 122.44C201.965 123.11 202.07 123.885 202.07 124.765C202.07 125.645 201.965 126.425 201.755 127.105C201.545 127.775 201.245 128.34 200.855 128.8C200.475 129.25 200.01 129.595 199.46 129.835C198.91 130.065 198.3 130.18 197.63 130.18ZM197.63 129.055C198.08 129.055 198.495 128.975 198.875 128.815C199.255 128.655 199.58 128.425 199.85 128.125C200.13 127.825 200.345 127.465 200.495 127.045C200.645 126.625 200.72 126.155 200.72 125.635V123.895C200.72 123.375 200.645 122.905 200.495 122.485C200.345 122.065 200.13 121.705 199.85 121.405C199.58 121.105 199.255 120.875 198.875 120.715C198.495 120.555 198.08 120.475 197.63 120.475C197.18 120.475 196.765 120.555 196.385 120.715C196.005 120.875 195.675 121.105 195.395 121.405C195.125 121.705 194.915 122.065 194.765 122.485C194.615 122.905 194.54 123.375 194.54 123.895V125.635C194.54 126.155 194.615 126.625 194.765 127.045C194.915 127.465 195.125 127.825 195.395 128.125C195.675 128.425 196.005 128.655 196.385 128.815C196.765 128.975 197.18 129.055 197.63 129.055ZM207.275 130.18C206.425 130.18 205.7 130.02 205.1 129.7C204.5 129.37 203.99 128.92 203.57 128.35L204.5 127.57C204.87 128.06 205.28 128.435 205.73 128.695C206.18 128.945 206.71 129.07 207.32 129.07C208.07 129.07 208.64 128.89 209.03 128.53C209.43 128.17 209.63 127.69 209.63 127.09C209.63 126.59 209.48 126.205 209.18 125.935C208.88 125.665 208.385 125.45 207.695 125.29L206.84 125.095C205.88 124.875 205.145 124.545 204.635 124.105C204.135 123.655 203.885 123.025 203.885 122.215C203.885 121.755 203.97 121.345 204.14 120.985C204.31 120.625 204.545 120.325 204.845 120.085C205.155 119.845 205.52 119.665 205.94 119.545C206.37 119.415 206.84 119.35 207.35 119.35C208.14 119.35 208.815 119.495 209.375 119.785C209.945 120.075 210.425 120.5 210.815 121.06L209.87 121.75C209.58 121.35 209.23 121.035 208.82 120.805C208.41 120.575 207.9 120.46 207.29 120.46C206.62 120.46 206.09 120.605 205.7 120.895C205.32 121.175 205.13 121.6 205.13 122.17C205.13 122.67 205.29 123.05 205.61 123.31C205.94 123.56 206.435 123.76 207.095 123.91L207.95 124.105C208.98 124.335 209.725 124.685 210.185 125.155C210.645 125.625 210.875 126.25 210.875 127.03C210.875 127.51 210.79 127.945 210.62 128.335C210.46 128.725 210.225 129.055 209.915 129.325C209.605 129.595 209.225 129.805 208.775 129.955C208.335 130.105 207.835 130.18 207.275 130.18ZM219.606 125.26H214.311V130H213.051V119.53H214.311V124.15H219.606V119.53H220.866V130H219.606V125.26ZM227.572 130.18C226.892 130.18 226.277 130.065 225.727 129.835C225.187 129.595 224.722 129.25 224.332 128.8C223.952 128.34 223.657 127.775 223.447 127.105C223.237 126.425 223.132 125.645 223.132 124.765C223.132 123.885 223.237 123.11 223.447 122.44C223.657 121.77 223.952 121.205 224.332 120.745C224.722 120.285 225.187 119.94 225.727 119.71C226.277 119.47 226.892 119.35 227.572 119.35C228.242 119.35 228.852 119.47 229.402 119.71C229.952 119.94 230.417 120.285 230.797 120.745C231.187 121.205 231.487 121.77 231.697 122.44C231.907 123.11 232.012 123.885 232.012 124.765C232.012 125.645 231.907 126.425 231.697 127.105C231.487 127.775 231.187 128.34 230.797 128.8C230.417 129.25 229.952 129.595 229.402 129.835C228.852 130.065 228.242 130.18 227.572 130.18ZM227.572 129.055C228.022 129.055 228.437 128.975 228.817 128.815C229.197 128.655 229.522 128.425 229.792 128.125C230.072 127.825 230.287 127.465 230.437 127.045C230.587 126.625 230.662 126.155 230.662 125.635V123.895C230.662 123.375 230.587 122.905 230.437 122.485C230.287 122.065 230.072 121.705 229.792 121.405C229.522 121.105 229.197 120.875 228.817 120.715C228.437 120.555 228.022 120.475 227.572 120.475C227.122 120.475 226.707 120.555 226.327 120.715C225.947 120.875 225.617 121.105 225.337 121.405C225.067 121.705 224.857 122.065 224.707 122.485C224.557 122.905 224.482 123.375 224.482 123.895V125.635C224.482 126.155 224.557 126.625 224.707 127.045C224.857 127.465 225.067 127.825 225.337 128.125C225.617 128.425 225.947 128.655 226.327 128.815C226.707 128.975 227.122 129.055 227.572 129.055ZM234.277 130V119.53H238.447C239.387 119.53 240.107 119.8 240.607 120.34C241.117 120.87 241.372 121.6 241.372 122.53C241.372 123.46 241.117 124.195 240.607 124.735C240.107 125.265 239.387 125.53 238.447 125.53H235.537V130H234.277ZM235.537 124.42H238.447C238.947 124.42 239.332 124.29 239.602 124.03C239.882 123.77 240.022 123.4 240.022 122.92V122.14C240.022 121.66 239.882 121.29 239.602 121.03C239.332 120.77 238.947 120.64 238.447 120.64H235.537V124.42Z" fill="#1B1C25"/>
<path d="M161.95 164.26H156.655V169H155.395V158.53H156.655V163.15H161.95V158.53H163.21V169H161.95V164.26ZM169.525 159.64V169H168.265V159.64H164.935V158.53H172.855V159.64H169.525ZM182.744 160.18H182.669L181.784 161.935L179.279 166.495L176.774 161.935L175.889 160.18H175.814V169H174.584V158.53H176.264L179.264 164.17H179.339L182.354 158.53H183.974V169H182.744V160.18ZM186.757 169V158.53H188.017V167.89H192.472V169H186.757ZM195.298 167.245C195.618 167.245 195.848 167.33 195.988 167.5C196.138 167.66 196.213 167.87 196.213 168.13V168.34C196.213 168.75 196.093 169.2 195.853 169.69C195.613 170.19 195.278 170.625 194.848 170.995H193.843C194.143 170.675 194.383 170.37 194.563 170.08C194.753 169.8 194.888 169.485 194.968 169.135C194.768 169.085 194.618 168.99 194.518 168.85C194.428 168.71 194.383 168.54 194.383 168.34V168.13C194.383 167.87 194.453 167.66 194.593 167.5C194.743 167.33 194.978 167.245 195.298 167.245ZM205.975 169.18C204.645 169.18 203.61 168.73 202.87 167.83C202.13 166.92 201.76 165.585 201.76 163.825C201.76 162.065 202.13 160.715 202.87 159.775C203.61 158.825 204.645 158.35 205.975 158.35C206.855 158.35 207.59 158.55 208.18 158.95C208.78 159.35 209.245 159.915 209.575 160.645L208.555 161.26C208.345 160.72 208.025 160.29 207.595 159.97C207.165 159.64 206.625 159.475 205.975 159.475C205.525 159.475 205.12 159.56 204.76 159.73C204.41 159.9 204.11 160.145 203.86 160.465C203.62 160.775 203.435 161.15 203.305 161.59C203.175 162.02 203.11 162.505 203.11 163.045V164.605C203.11 165.685 203.36 166.53 203.86 167.14C204.36 167.75 205.065 168.055 205.975 168.055C206.645 168.055 207.205 167.885 207.655 167.545C208.105 167.195 208.435 166.735 208.645 166.165L209.65 166.795C209.32 167.535 208.845 168.12 208.225 168.55C207.605 168.97 206.855 169.18 205.975 169.18ZM214.541 169.18C213.691 169.18 212.966 169.02 212.366 168.7C211.766 168.37 211.256 167.92 210.836 167.35L211.766 166.57C212.136 167.06 212.546 167.435 212.996 167.695C213.446 167.945 213.976 168.07 214.586 168.07C215.336 168.07 215.906 167.89 216.296 167.53C216.696 167.17 216.896 166.69 216.896 166.09C216.896 165.59 216.746 165.205 216.446 164.935C216.146 164.665 215.651 164.45 214.961 164.29L214.106 164.095C213.146 163.875 212.411 163.545 211.901 163.105C211.401 162.655 211.151 162.025 211.151 161.215C211.151 160.755 211.236 160.345 211.406 159.985C211.576 159.625 211.811 159.325 212.111 159.085C212.421 158.845 212.786 158.665 213.206 158.545C213.636 158.415 214.106 158.35 214.616 158.35C215.406 158.35 216.081 158.495 216.641 158.785C217.211 159.075 217.691 159.5 218.081 160.06L217.136 160.75C216.846 160.35 216.496 160.035 216.086 159.805C215.676 159.575 215.166 159.46 214.556 159.46C213.886 159.46 213.356 159.605 212.966 159.895C212.586 160.175 212.396 160.6 212.396 161.17C212.396 161.67 212.556 162.05 212.876 162.31C213.206 162.56 213.701 162.76 214.361 162.91L215.216 163.105C216.246 163.335 216.991 163.685 217.451 164.155C217.911 164.625 218.141 165.25 218.141 166.03C218.141 166.51 218.056 166.945 217.886 167.335C217.726 167.725 217.491 168.055 217.181 168.325C216.871 168.595 216.491 168.805 216.041 168.955C215.601 169.105 215.101 169.18 214.541 169.18ZM223.11 169.18C222.26 169.18 221.535 169.02 220.935 168.7C220.335 168.37 219.825 167.92 219.405 167.35L220.335 166.57C220.705 167.06 221.115 167.435 221.565 167.695C222.015 167.945 222.545 168.07 223.155 168.07C223.905 168.07 224.475 167.89 224.865 167.53C225.265 167.17 225.465 166.69 225.465 166.09C225.465 165.59 225.315 165.205 225.015 164.935C224.715 164.665 224.22 164.45 223.53 164.29L222.675 164.095C221.715 163.875 220.98 163.545 220.47 163.105C219.97 162.655 219.72 162.025 219.72 161.215C219.72 160.755 219.805 160.345 219.975 159.985C220.145 159.625 220.38 159.325 220.68 159.085C220.99 158.845 221.355 158.665 221.775 158.545C222.205 158.415 222.675 158.35 223.185 158.35C223.975 158.35 224.65 158.495 225.21 158.785C225.78 159.075 226.26 159.5 226.65 160.06L225.705 160.75C225.415 160.35 225.065 160.035 224.655 159.805C224.245 159.575 223.735 159.46 223.125 159.46C222.455 159.46 221.925 159.605 221.535 159.895C221.155 160.175 220.965 160.6 220.965 161.17C220.965 161.67 221.125 162.05 221.445 162.31C221.775 162.56 222.27 162.76 222.93 162.91L223.785 163.105C224.815 163.335 225.56 163.685 226.02 164.155C226.48 164.625 226.71 165.25 226.71 166.03C226.71 166.51 226.625 166.945 226.455 167.335C226.295 167.725 226.06 168.055 225.75 168.325C225.44 168.595 225.06 168.805 224.61 168.955C224.17 169.105 223.67 169.18 223.11 169.18ZM229.531 167.245C229.851 167.245 230.081 167.33 230.221 167.5C230.371 167.66 230.446 167.87 230.446 168.13V168.34C230.446 168.75 230.326 169.2 230.086 169.69C229.846 170.19 229.511 170.625 229.081 170.995H228.076C228.376 170.675 228.616 170.37 228.796 170.08C228.986 169.8 229.121 169.485 229.201 169.135C229.001 169.085 228.851 168.99 228.751 168.85C228.661 168.71 228.616 168.54 228.616 168.34V168.13C228.616 167.87 228.686 167.66 228.826 167.5C228.976 167.33 229.211 167.245 229.531 167.245ZM241.453 158.53V166.285C241.453 166.725 241.378 167.125 241.228 167.485C241.088 167.845 240.883 168.15 240.613 168.4C240.353 168.65 240.038 168.845 239.668 168.985C239.298 169.115 238.893 169.18 238.453 169.18C237.643 169.18 236.988 168.965 236.488 168.535C235.998 168.095 235.683 167.515 235.543 166.795L236.683 166.525C236.783 166.975 236.973 167.345 237.253 167.635C237.533 167.915 237.943 168.055 238.483 168.055C239.023 168.055 239.443 167.89 239.743 167.56C240.043 167.23 240.193 166.73 240.193 166.06V159.64H236.593V158.53H241.453ZM247.105 169.18C246.255 169.18 245.53 169.02 244.93 168.7C244.33 168.37 243.82 167.92 243.4 167.35L244.33 166.57C244.7 167.06 245.11 167.435 245.56 167.695C246.01 167.945 246.54 168.07 247.15 168.07C247.9 168.07 248.47 167.89 248.86 167.53C249.26 167.17 249.46 166.69 249.46 166.09C249.46 165.59 249.31 165.205 249.01 164.935C248.71 164.665 248.215 164.45 247.525 164.29L246.67 164.095C245.71 163.875 244.975 163.545 244.465 163.105C243.965 162.655 243.715 162.025 243.715 161.215C243.715 160.755 243.8 160.345 243.97 159.985C244.14 159.625 244.375 159.325 244.675 159.085C244.985 158.845 245.35 158.665 245.77 158.545C246.2 158.415 246.67 158.35 247.18 158.35C247.97 158.35 248.645 158.495 249.205 158.785C249.775 159.075 250.255 159.5 250.645 160.06L249.7 160.75C249.41 160.35 249.06 160.035 248.65 159.805C248.24 159.575 247.73 159.46 247.12 159.46C246.45 159.46 245.92 159.605 245.53 159.895C245.15 160.175 244.96 160.6 244.96 161.17C244.96 161.67 245.12 162.05 245.44 162.31C245.77 162.56 246.265 162.76 246.925 162.91L247.78 163.105C248.81 163.335 249.555 163.685 250.015 164.155C250.475 164.625 250.705 165.25 250.705 166.03C250.705 166.51 250.62 166.945 250.45 167.335C250.29 167.725 250.055 168.055 249.745 168.325C249.435 168.595 249.055 168.805 248.605 168.955C248.165 169.105 247.665 169.18 247.105 169.18Z" fill="#1B1C25"/>
<path d="M155.395 208V197.53H159.565C160.505 197.53 161.225 197.8 161.725 198.34C162.235 198.87 162.49 199.6 162.49 200.53C162.49 201.46 162.235 202.195 161.725 202.735C161.225 203.265 160.505 203.53 159.565 203.53H156.655V208H155.395ZM156.655 202.42H159.565C160.065 202.42 160.45 202.29 160.72 202.03C161 201.77 161.14 201.4 161.14 200.92V200.14C161.14 199.66 161 199.29 160.72 199.03C160.45 198.77 160.065 198.64 159.565 198.64H156.655V202.42ZM165.752 208H164.492V197.53H168.662C169.582 197.53 170.297 197.785 170.807 198.295C171.327 198.805 171.587 199.54 171.587 200.5C171.587 201.27 171.407 201.905 171.047 202.405C170.697 202.895 170.177 203.22 169.487 203.38L171.887 208H170.462L168.197 203.5H165.752V208ZM168.662 202.42C169.162 202.42 169.547 202.29 169.817 202.03C170.097 201.77 170.237 201.4 170.237 200.92V200.14C170.237 199.66 170.097 199.29 169.817 199.03C169.547 198.77 169.162 198.64 168.662 198.64H165.752V202.42H168.662ZM174.086 208V197.53H180.476V198.64H175.346V202.15H180.176V203.26H175.346V206.89H180.476V208H174.086ZM190.992 199.18H190.917L190.032 200.935L187.527 205.495L185.022 200.935L184.137 199.18H184.062V208H182.832V197.53H184.512L187.512 203.17H187.587L190.602 197.53H192.222V208H190.992V199.18ZM194.509 208V206.95H195.979V198.58H194.509V197.53H198.709V198.58H197.239V206.95H198.709V208H194.509ZM201.01 208V197.53H207.4V198.64H202.27V202.15H207.1V203.26H202.27V206.89H207.4V208H201.01ZM211.015 208H209.755V197.53H213.925C214.845 197.53 215.56 197.785 216.07 198.295C216.59 198.805 216.85 199.54 216.85 200.5C216.85 201.27 216.67 201.905 216.31 202.405C215.96 202.895 215.44 203.22 214.75 203.38L217.15 208H215.725L213.46 203.5H211.015V208ZM213.925 202.42C214.425 202.42 214.81 202.29 215.08 202.03C215.36 201.77 215.5 201.4 215.5 200.92V200.14C215.5 199.66 215.36 199.29 215.08 199.03C214.81 198.77 214.425 198.64 213.925 198.64H211.015V202.42H213.925ZM219.35 208V197.53H225.74V198.64H220.61V202.15H225.44V203.26H220.61V206.89H225.74V208H219.35ZM231.64 208V197.53H235.81C236.75 197.53 237.47 197.8 237.97 198.34C238.48 198.87 238.735 199.6 238.735 200.53C238.735 201.46 238.48 202.195 237.97 202.735C237.47 203.265 236.75 203.53 235.81 203.53H232.9V208H231.64ZM232.9 202.42H235.81C236.31 202.42 236.695 202.29 236.965 202.03C237.245 201.77 237.385 201.4 237.385 200.92V200.14C237.385 199.66 237.245 199.29 236.965 199.03C236.695 198.77 236.31 198.64 235.81 198.64H232.9V202.42ZM241.997 208H240.737V197.53H244.907C245.827 197.53 246.542 197.785 247.052 198.295C247.572 198.805 247.832 199.54 247.832 200.5C247.832 201.27 247.652 201.905 247.292 202.405C246.942 202.895 246.422 203.22 245.732 203.38L248.132 208H246.707L244.442 203.5H241.997V208ZM244.907 202.42C245.407 202.42 245.792 202.29 246.062 202.03C246.342 201.77 246.482 201.4 246.482 200.92V200.14C246.482 199.66 246.342 199.29 246.062 199.03C245.792 198.77 245.407 198.64 244.907 198.64H241.997V202.42H244.907ZM254.1 208.18C253.42 208.18 252.805 208.065 252.255 207.835C251.715 207.595 251.25 207.25 250.86 206.8C250.48 206.34 250.185 205.775 249.975 205.105C249.765 204.425 249.66 203.645 249.66 202.765C249.66 201.885 249.765 201.11 249.975 200.44C250.185 199.77 250.48 199.205 250.86 198.745C251.25 198.285 251.715 197.94 252.255 197.71C252.805 197.47 253.42 197.35 254.1 197.35C254.77 197.35 255.38 197.47 255.93 197.71C256.48 197.94 256.945 198.285 257.325 198.745C257.715 199.205 258.015 199.77 258.225 200.44C258.435 201.11 258.54 201.885 258.54 202.765C258.54 203.645 258.435 204.425 258.225 205.105C258.015 205.775 257.715 206.34 257.325 206.8C256.945 207.25 256.48 207.595 255.93 207.835C255.38 208.065 254.77 208.18 254.1 208.18ZM254.1 207.055C254.55 207.055 254.965 206.975 255.345 206.815C255.725 206.655 256.05 206.425 256.32 206.125C256.6 205.825 256.815 205.465 256.965 205.045C257.115 204.625 257.19 204.155 257.19 203.635V201.895C257.19 201.375 257.115 200.905 256.965 200.485C256.815 200.065 256.6 199.705 256.32 199.405C256.05 199.105 255.725 198.875 255.345 198.715C254.965 198.555 254.55 198.475 254.1 198.475C253.65 198.475 253.235 198.555 252.855 198.715C252.475 198.875 252.145 199.105 251.865 199.405C251.595 199.705 251.385 200.065 251.235 200.485C251.085 200.905 251.01 201.375 251.01 201.895V203.635C251.01 204.155 251.085 204.625 251.235 205.045C251.385 205.465 251.595 205.825 251.865 206.125C252.145 206.425 252.475 206.655 252.855 206.815C253.235 206.975 253.65 207.055 254.1 207.055Z" fill="#1B1C25"/>
<path d="M155.395 247V236.53H161.635V237.64H156.655V241.15H161.2V242.26H156.655V247H155.395ZM163.279 247V245.95H164.749V237.58H163.279V236.53H167.479V237.58H166.009V245.95H167.479V247H163.279ZM176.56 245.47H176.515C176.385 245.96 176.065 246.37 175.555 246.7C175.055 247.02 174.405 247.18 173.605 247.18C172.965 247.18 172.375 247.065 171.835 246.835C171.305 246.595 170.85 246.25 170.47 245.8C170.09 245.34 169.79 244.775 169.57 244.105C169.36 243.425 169.255 242.645 169.255 241.765C169.255 240.895 169.36 240.125 169.57 239.455C169.78 238.775 170.08 238.21 170.47 237.76C170.86 237.3 171.33 236.95 171.88 236.71C172.43 236.47 173.04 236.35 173.71 236.35C174.65 236.35 175.435 236.56 176.065 236.98C176.695 237.4 177.18 237.955 177.52 238.645L176.485 239.275C176.245 238.715 175.885 238.275 175.405 237.955C174.935 237.635 174.37 237.475 173.71 237.475C173.25 237.475 172.83 237.56 172.45 237.73C172.07 237.89 171.74 238.12 171.46 238.42C171.19 238.72 170.98 239.08 170.83 239.5C170.68 239.92 170.605 240.39 170.605 240.91V242.605C170.605 243.125 170.68 243.6 170.83 244.03C170.98 244.45 171.19 244.81 171.46 245.11C171.74 245.41 172.08 245.645 172.48 245.815C172.88 245.975 173.33 246.055 173.83 246.055C174.19 246.055 174.53 246.01 174.85 245.92C175.18 245.82 175.465 245.675 175.705 245.485C175.955 245.295 176.15 245.06 176.29 244.78C176.43 244.49 176.5 244.15 176.5 243.76V242.725H174.19V241.615H177.73V247H176.56V245.47ZM188.369 238.18H188.294L187.409 239.935L184.904 244.495L182.399 239.935L181.514 238.18H181.439V247H180.209V236.53H181.889L184.889 242.17H184.964L187.979 236.53H189.599V247H188.369V238.18ZM198.937 247L197.887 243.91H193.657L192.607 247H191.332L194.992 236.53H196.597L200.257 247H198.937ZM195.802 237.7H195.727L193.957 242.8H197.572L195.802 237.7ZM202.856 245.245C203.176 245.245 203.406 245.33 203.546 245.5C203.696 245.66 203.771 245.87 203.771 246.13V246.34C203.771 246.75 203.651 247.2 203.411 247.69C203.171 248.19 202.836 248.625 202.406 248.995H201.401C201.701 248.675 201.941 248.37 202.121 248.08C202.311 247.8 202.446 247.485 202.526 247.135C202.326 247.085 202.176 246.99 202.076 246.85C201.986 246.71 201.941 246.54 201.941 246.34V246.13C201.941 245.87 202.011 245.66 202.151 245.5C202.301 245.33 202.536 245.245 202.856 245.245ZM216.398 247L215.348 243.91H211.118L210.068 247H208.793L212.453 236.53H214.058L217.718 247H216.398ZM213.263 237.7H213.188L211.418 242.8H215.033L213.263 237.7ZM219.453 236.53H222.963C223.613 236.53 224.203 236.64 224.733 236.86C225.263 237.08 225.713 237.41 226.083 237.85C226.463 238.28 226.753 238.825 226.953 239.485C227.153 240.135 227.253 240.895 227.253 241.765C227.253 242.635 227.153 243.4 226.953 244.06C226.753 244.71 226.463 245.255 226.083 245.695C225.713 246.125 225.263 246.45 224.733 246.67C224.203 246.89 223.613 247 222.963 247H219.453V236.53ZM222.963 245.89C223.393 245.89 223.788 245.82 224.148 245.68C224.508 245.53 224.818 245.315 225.078 245.035C225.338 244.755 225.538 244.415 225.678 244.015C225.828 243.605 225.903 243.14 225.903 242.62V240.91C225.903 240.39 225.828 239.93 225.678 239.53C225.538 239.12 225.338 238.775 225.078 238.495C224.818 238.215 224.508 238.005 224.148 237.865C223.788 237.715 223.393 237.64 222.963 237.64H220.713V245.89H222.963ZM233.431 247.18C232.751 247.18 232.136 247.065 231.586 246.835C231.046 246.595 230.581 246.25 230.191 245.8C229.811 245.34 229.516 244.775 229.306 244.105C229.096 243.425 228.991 242.645 228.991 241.765C228.991 240.885 229.096 240.11 229.306 239.44C229.516 238.77 229.811 238.205 230.191 237.745C230.581 237.285 231.046 236.94 231.586 236.71C232.136 236.47 232.751 236.35 233.431 236.35C234.101 236.35 234.711 236.47 235.261 236.71C235.811 236.94 236.276 237.285 236.656 237.745C237.046 238.205 237.346 238.77 237.556 239.44C237.766 240.11 237.871 240.885 237.871 241.765C237.871 242.645 237.766 243.425 237.556 244.105C237.346 244.775 237.046 245.34 236.656 245.8C236.276 246.25 235.811 246.595 235.261 246.835C234.711 247.065 234.101 247.18 233.431 247.18ZM233.431 246.055C233.881 246.055 234.296 245.975 234.676 245.815C235.056 245.655 235.381 245.425 235.651 245.125C235.931 244.825 236.146 244.465 236.296 244.045C236.446 243.625 236.521 243.155 236.521 242.635V240.895C236.521 240.375 236.446 239.905 236.296 239.485C236.146 239.065 235.931 238.705 235.651 238.405C235.381 238.105 235.056 237.875 234.676 237.715C234.296 237.555 233.881 237.475 233.431 237.475C232.981 237.475 232.566 237.555 232.186 237.715C231.806 237.875 231.476 238.105 231.196 238.405C230.926 238.705 230.716 239.065 230.566 239.485C230.416 239.905 230.341 240.375 230.341 240.895V242.635C230.341 243.155 230.416 243.625 230.566 244.045C230.716 244.465 230.926 244.825 231.196 245.125C231.476 245.425 231.806 245.655 232.186 245.815C232.566 245.975 232.981 246.055 233.431 246.055ZM240.136 236.53H244.441C245.311 236.53 245.991 236.775 246.481 237.265C246.981 237.755 247.231 238.41 247.231 239.23C247.231 239.62 247.176 239.95 247.066 240.22C246.956 240.49 246.816 240.715 246.646 240.895C246.476 241.065 246.291 241.195 246.091 241.285C245.891 241.365 245.706 241.42 245.536 241.45V241.54C245.726 241.55 245.936 241.6 246.166 241.69C246.406 241.78 246.631 241.925 246.841 242.125C247.051 242.315 247.226 242.565 247.366 242.875C247.516 243.175 247.591 243.54 247.591 243.97C247.591 244.4 247.521 244.8 247.381 245.17C247.251 245.54 247.066 245.86 246.826 246.13C246.586 246.4 246.301 246.615 245.971 246.775C245.641 246.925 245.281 247 244.891 247H240.136V236.53ZM241.396 245.89H244.501C245.041 245.89 245.466 245.755 245.776 245.485C246.086 245.205 246.241 244.8 246.241 244.27V243.76C246.241 243.23 246.086 242.83 245.776 242.56C245.466 242.28 245.041 242.14 244.501 242.14H241.396V245.89ZM241.396 241.06H244.291C244.791 241.06 245.181 240.935 245.461 240.685C245.741 240.435 245.881 240.075 245.881 239.605V239.095C245.881 238.625 245.741 238.265 245.461 238.015C245.181 237.765 244.791 237.64 244.291 237.64H241.396V241.06ZM249.936 247V236.53H256.326V237.64H251.196V241.15H256.026V242.26H251.196V245.89H256.326V247H249.936ZM269.666 247H268.151L265.406 242.605H265.376L262.631 247H261.191L264.611 241.675L261.281 236.53H262.796L265.421 240.7H265.451L268.136 236.53H269.576L266.216 241.63L269.666 247ZM271.425 236.53H274.935C275.585 236.53 276.175 236.64 276.705 236.86C277.235 237.08 277.685 237.41 278.055 237.85C278.435 238.28 278.725 238.825 278.925 239.485C279.125 240.135 279.225 240.895 279.225 241.765C279.225 242.635 279.125 243.4 278.925 244.06C278.725 244.71 278.435 245.255 278.055 245.695C277.685 246.125 277.235 246.45 276.705 246.67C276.175 246.89 275.585 247 274.935 247H271.425V236.53ZM274.935 245.89C275.365 245.89 275.76 245.82 276.12 245.68C276.48 245.53 276.79 245.315 277.05 245.035C277.31 244.755 277.51 244.415 277.65 244.015C277.8 243.605 277.875 243.14 277.875 242.62V240.91C277.875 240.39 277.8 239.93 277.65 239.53C277.51 239.12 277.31 238.775 277.05 238.495C276.79 238.215 276.48 238.005 276.12 237.865C275.76 237.715 275.365 237.64 274.935 237.64H272.685V245.89H274.935Z" fill="#1B1C25"/>
<rect x="24" y="107" width="115" height="34" fill="#273F65"/>
<rect x="24" y="146" width="115" height="34" fill="#1B1C25"/>
<rect x="93" y="224" width="46.5" height="34" fill="#1B1C25"/>
<rect x="69" y="185" width="69.75" height="34" fill="#273F65"/>
<rect y="68" width="139.5" height="34" fill="#1B1C25"/>
</svg>
