<svg width="76" height="85" viewBox="0 0 76 85" fill="none" xmlns="http://www.w3.org/2000/svg">
<path d="M0.958807 61V52.2727H4.0696C4.74574 52.2727 5.30682 52.3892 5.75284 52.6222C6.2017 52.8551 6.53693 53.1776 6.75852 53.5895C6.98011 53.9986 7.09091 54.4716 7.09091 55.0085C7.09091 55.5426 6.97869 56.0128 6.75426 56.419C6.53267 56.8224 6.19744 57.1364 5.74858 57.3608C5.30256 57.5852 4.74148 57.6974 4.06534 57.6974H1.70881V56.5639H3.94602C4.37216 56.5639 4.71875 56.5028 4.9858 56.3807C5.25568 56.2585 5.45312 56.081 5.57812 55.848C5.70312 55.6151 5.76562 55.3352 5.76562 55.0085C5.76562 54.679 5.7017 54.3935 5.57386 54.152C5.44886 53.9105 5.25142 53.7259 4.98153 53.598C4.71449 53.4673 4.36364 53.402 3.92898 53.402H2.27557V61H0.958807ZM5.26705 57.0625L7.4233 61H5.9233L3.80966 57.0625H5.26705ZM9.53318 61V52.2727H15.0048V53.4062H10.8499V56.0653H14.7193V57.1946H10.8499V59.8665H15.0559V61H9.53318ZM22.3636 54.5653C22.3181 54.1619 22.1306 53.8494 21.8011 53.6278C21.4715 53.4034 21.0568 53.2912 20.5568 53.2912C20.1988 53.2912 19.8892 53.348 19.6278 53.4616C19.3664 53.5724 19.1633 53.7259 19.0184 53.9219C18.8764 54.1151 18.8054 54.3352 18.8054 54.5824C18.8054 54.7898 18.8537 54.9687 18.9502 55.1193C19.0497 55.2699 19.1789 55.3963 19.338 55.4986C19.5 55.598 19.6733 55.6818 19.8579 55.75C20.0426 55.8153 20.2201 55.8693 20.3906 55.9119L21.2429 56.1335C21.5213 56.2017 21.8068 56.294 22.0994 56.4105C22.392 56.527 22.6633 56.6804 22.9133 56.8707C23.1633 57.0611 23.365 57.2969 23.5184 57.5781C23.6747 57.8594 23.7528 58.196 23.7528 58.5881C23.7528 59.0824 23.625 59.5213 23.3693 59.9048C23.1164 60.2884 22.7485 60.5909 22.2656 60.8125C21.7855 61.0341 21.2045 61.1449 20.5227 61.1449C19.8693 61.1449 19.3039 61.0412 18.8267 60.8338C18.3494 60.6264 17.9758 60.3324 17.7059 59.9517C17.436 59.5682 17.2869 59.1136 17.2585 58.5881H18.5795C18.6051 58.9034 18.7073 59.1662 18.8863 59.3764C19.0681 59.5838 19.2997 59.7386 19.5809 59.8409C19.865 59.9403 20.1761 59.9901 20.5142 59.9901C20.8863 59.9901 21.2173 59.9318 21.5071 59.8153C21.7997 59.696 22.0298 59.5312 22.1974 59.321C22.365 59.108 22.4488 58.8594 22.4488 58.5753C22.4488 58.3168 22.375 58.1051 22.2272 57.9403C22.0823 57.7756 21.8849 57.6392 21.6349 57.5312C21.3877 57.4233 21.1079 57.3281 20.7954 57.2457L19.7642 56.9645C19.0653 56.7741 18.5113 56.4943 18.1022 56.125C17.696 55.7557 17.4929 55.267 17.4929 54.6591C17.4929 54.1562 17.6292 53.7173 17.9019 53.3423C18.1747 52.9673 18.544 52.6761 19.0099 52.4688C19.4758 52.2585 20.0014 52.1534 20.5866 52.1534C21.1775 52.1534 21.6988 52.2571 22.1505 52.4645C22.6051 52.6719 22.963 52.9574 23.2244 53.321C23.4858 53.6818 23.6221 54.0966 23.6335 54.5653H22.3636ZM27.4831 52.2727V61H26.1663V52.2727H27.4831ZM30.2407 61V52.2727H31.5574V59.8665H35.512V61H30.2407ZM39.1709 52.2727V61H37.8541V52.2727H39.1709ZM41.9285 61V52.2727H47.4001V53.4062H43.2453V56.0653H47.1146V57.1946H43.2453V59.8665H47.4512V61H41.9285ZM57.043 52.2727V61H55.8328L51.3967 54.5994H51.3157V61H49.999V52.2727H51.2177L55.6581 58.6818H55.739V52.2727H57.043ZM67.0524 55.1108H65.7228C65.6717 54.8267 65.5765 54.5767 65.4373 54.3608C65.2981 54.1449 65.1277 53.9616 64.926 53.8111C64.7243 53.6605 64.4984 53.5469 64.2484 53.4702C64.0013 53.3935 63.7385 53.3551 63.4601 53.3551C62.9572 53.3551 62.5069 53.4815 62.1092 53.7344C61.7143 53.9872 61.4018 54.358 61.1717 54.8466C60.9444 55.3352 60.8308 55.9318 60.8308 56.6364C60.8308 57.3466 60.9444 57.946 61.1717 58.4347C61.4018 58.9233 61.7157 59.2926 62.1135 59.5426C62.5112 59.7926 62.9586 59.9176 63.4558 59.9176C63.7314 59.9176 63.9927 59.8807 64.2399 59.8068C64.4899 59.7301 64.7157 59.6179 64.9174 59.4702C65.1191 59.3224 65.2896 59.142 65.4288 58.929C65.5709 58.7131 65.6689 58.4659 65.7228 58.1875L67.0524 58.1918C66.9814 58.6207 66.8436 59.0156 66.639 59.3764C66.4373 59.7344 66.1774 60.044 65.8592 60.3054C65.5439 60.5639 65.1831 60.7642 64.7768 60.9062C64.3706 61.0483 63.9274 61.1193 63.4473 61.1193C62.6916 61.1193 62.0183 60.9403 61.4274 60.5824C60.8365 60.2216 60.3706 59.706 60.0297 59.0355C59.6916 58.3651 59.5226 57.5653 59.5226 56.6364C59.5226 55.7045 59.693 54.9048 60.0339 54.2372C60.3748 53.5668 60.8407 53.0526 61.4316 52.6946C62.0226 52.3338 62.6944 52.1534 63.4473 52.1534C63.9103 52.1534 64.3422 52.2202 64.7427 52.3537C65.1461 52.4844 65.5084 52.6776 65.8294 52.9332C66.1504 53.1861 66.416 53.4957 66.6263 53.8622C66.8365 54.2259 66.9785 54.642 67.0524 55.1108ZM69.468 61V52.2727H74.9396V53.4062H70.7848V56.0653H74.6541V57.1946H70.7848V59.8665H74.9908V61H69.468Z" fill="#EBECF1"/>
<path d="M30.6183 70.772V81.188H29.7183V70.772H30.6183ZM26.8743 71.996H23.6703V71.252H26.8743V71.996ZM28.9383 78.368L29.0343 79.1C28.1223 79.244 27.0303 79.356 25.7583 79.436C24.4863 79.508 23.1783 79.544 21.8343 79.544L21.7503 78.776C22.6783 78.776 23.6943 78.756 24.7983 78.716V77.288C24.1503 77.232 23.6343 77.044 23.2503 76.724C22.8743 76.396 22.6863 75.992 22.6863 75.512C22.6863 75.168 22.7743 74.872 22.9503 74.624C23.1263 74.368 23.3903 74.168 23.7423 74.024V73.952H21.9183V73.232H28.4703V73.952H26.6943V74.024C27.0463 74.168 27.3103 74.368 27.4863 74.624C27.6623 74.872 27.7503 75.168 27.7503 75.512C27.7503 75.992 27.5623 76.392 27.1863 76.712C26.8183 77.032 26.3143 77.224 25.6743 77.288V78.68C27.0423 78.6 28.1303 78.496 28.9383 78.368ZM25.0863 76.568H25.3503C25.8063 76.568 26.1783 76.46 26.4663 76.244C26.7623 76.02 26.9103 75.708 26.9103 75.308C26.9103 74.908 26.7663 74.596 26.4783 74.372C26.1903 74.148 25.8143 74.036 25.3503 74.036H25.0863C24.6303 74.036 24.2543 74.148 23.9583 74.372C23.6703 74.596 23.5263 74.908 23.5263 75.308C23.5263 75.7 23.6703 76.008 23.9583 76.232C24.2543 76.456 24.6303 76.568 25.0863 76.568ZM43.0096 76.28V77.072H33.2176V76.28H37.6576V75.14H34.6696V70.928H35.5696V72.296H40.6696V70.928H41.5576V75.14H38.5696V76.28H43.0096ZM35.5696 74.408H40.6696V73.04H35.5696V74.408ZM34.5736 78.116H41.5576V81.668H40.6456V78.86H34.5736V78.116ZM53.7448 70.772V77.3H52.8208V75.32H50.6848V74.588H52.8208V73.064H50.6848V72.332H52.8208V70.772H53.7448ZM50.6728 76.508C49.5528 76.764 48.1688 76.892 46.5208 76.892H45.4528V73.7H48.8968V72.092H45.4048V71.348H49.7728V74.432H46.3288V76.148H46.6768C48.1888 76.148 49.4848 76.028 50.5648 75.788L50.6728 76.508ZM46.8688 77.936H53.7448V81.716H52.8448V78.704H46.8688V77.936Z" fill="#EBECF1"/>
<path d="M38 25.8333C38.6944 25.8333 39.2844 25.5899 39.77 25.1033C40.2566 24.6177 40.5 24.0277 40.5 23.3333V21.6666H42.1666C42.8611 21.6666 43.4511 21.4233 43.9366 20.9366C44.4233 20.451 44.6666 19.861 44.6666 19.1666C44.6666 18.4721 44.4233 17.8821 43.9366 17.3966C43.4511 16.9099 42.8611 16.6666 42.1666 16.6666H40.5V14.9999C40.5 14.3055 40.2566 13.7155 39.77 13.2299C39.2844 12.7433 38.6944 12.4999 38 12.4999C37.3055 12.4999 36.7155 12.7433 36.23 13.2299C35.7433 13.7155 35.5 14.3055 35.5 14.9999V16.6666H33.8333C33.1388 16.6666 32.5488 16.9099 32.0633 17.3966C31.5766 17.8821 31.3333 18.4721 31.3333 19.1666C31.3333 19.861 31.5766 20.451 32.0633 20.9366C32.5488 21.4233 33.1388 21.6666 33.8333 21.6666H35.5V23.3333C35.5 24.0277 35.7433 24.6177 36.23 25.1033C36.7155 25.5899 37.3055 25.8333 38 25.8333ZM38 36.5416H37.5833C37.4444 36.5416 37.3194 36.5138 37.2083 36.4583C33.5694 35.3194 30.5694 33.0621 28.2083 29.6866C25.8472 26.3121 24.6666 22.5833 24.6666 18.4999V10.6249C24.6666 9.93047 24.8683 9.30547 25.2716 8.74992C25.6738 8.19436 26.1944 7.79159 26.8333 7.54159L36.8333 3.79159C37.2222 3.6527 37.6111 3.58325 38 3.58325C38.3888 3.58325 38.7777 3.6527 39.1666 3.79159L49.1666 7.54159C49.8055 7.79159 50.3266 8.19436 50.73 8.74992C51.1322 9.30547 51.3333 9.93047 51.3333 10.6249V18.4999C51.3333 22.5833 50.1527 26.3121 47.7916 29.6866C45.4305 33.0621 42.4305 35.3194 38.7916 36.4583C38.6527 36.5138 38.3888 36.5416 38 36.5416V36.5416ZM38 33.1666C40.8888 32.2499 43.2777 30.4166 45.1666 27.6666C47.0555 24.9166 48 21.861 48 18.4999V10.6249L38 6.87492L28 10.6249V18.4999C28 21.861 28.9444 24.9166 30.8333 27.6666C32.7222 30.4166 35.1111 32.2499 38 33.1666Z" fill="#EBECF1"/>
</svg>
