<svg width="40" height="85" viewBox="0 0 40 85" fill="none" xmlns="http://www.w3.org/2000/svg">
<path d="M8.91756 55.0298C8.83517 54.7713 8.72438 54.5398 8.58517 54.3352C8.44881 54.1278 8.28545 53.9517 8.09511 53.8068C7.90477 53.6591 7.68744 53.5469 7.44312 53.4702C7.20165 53.3935 6.93602 53.3551 6.64625 53.3551C6.15477 53.3551 5.71159 53.4815 5.3167 53.7344C4.92182 53.9872 4.60932 54.358 4.3792 54.8466C4.15193 55.3324 4.0383 55.9276 4.0383 56.6321C4.0383 57.3395 4.15335 57.9375 4.38347 58.4261C4.61358 58.9148 4.92892 59.2855 5.32949 59.5384C5.73006 59.7912 6.18602 59.9176 6.69739 59.9176C7.17182 59.9176 7.58517 59.821 7.93744 59.6278C8.29256 59.4347 8.5667 59.1619 8.75989 58.8097C8.95591 58.4545 9.05392 58.0369 9.05392 57.5568L9.39483 57.6207H6.89767V56.5341H10.3281V57.527C10.3281 58.2599 10.1718 58.8963 9.85932 59.4361C9.54966 59.973 9.12068 60.3878 8.57239 60.6804C8.02693 60.973 7.40193 61.1193 6.69739 61.1193C5.90761 61.1193 5.21443 60.9375 4.61784 60.5739C4.02409 60.2102 3.56102 59.6946 3.22864 59.027C2.89625 58.3565 2.73006 57.5611 2.73006 56.6406C2.73006 55.9446 2.82665 55.3196 3.01983 54.7656C3.21301 54.2116 3.48432 53.7415 3.83375 53.3551C4.18602 52.9659 4.59937 52.669 5.07381 52.4645C5.55108 52.2571 6.07239 52.1534 6.63773 52.1534C7.10932 52.1534 7.54824 52.223 7.95449 52.3622C8.36358 52.5014 8.72722 52.6989 9.0454 52.9545C9.36642 53.2102 9.63205 53.5142 9.84227 53.8665C10.0525 54.2159 10.1945 54.6037 10.2684 55.0298H8.91756ZM18.4518 52.2727H19.7728V58.0128C19.7728 58.6236 19.6294 59.1648 19.3424 59.6364C19.0555 60.1051 18.6521 60.4744 18.1322 60.7443C17.6123 61.0114 17.0029 61.1449 16.3041 61.1449C15.6081 61.1449 15.0001 61.0114 14.4802 60.7443C13.9603 60.4744 13.5569 60.1051 13.27 59.6364C12.9831 59.1648 12.8396 58.6236 12.8396 58.0128V52.2727H14.1563V57.9062C14.1563 58.3011 14.243 58.652 14.4163 58.9588C14.5924 59.2656 14.841 59.5071 15.162 59.6832C15.4831 59.8565 15.8637 59.9432 16.3041 59.9432C16.7473 59.9432 17.1294 59.8565 17.4504 59.6832C17.7742 59.5071 18.0214 59.2656 18.1919 58.9588C18.3652 58.652 18.4518 58.3011 18.4518 57.9062V52.2727ZM22.0968 53.4062V52.2727H28.8511V53.4062H26.1281V61H24.8156V53.4062H22.0968ZM35.9436 54.5653C35.8981 54.1619 35.7106 53.8494 35.3811 53.6278C35.0515 53.4034 34.6368 53.2912 34.1368 53.2912C33.7788 53.2912 33.4692 53.348 33.2078 53.4616C32.9464 53.5724 32.7433 53.7259 32.5984 53.9219C32.4564 54.1151 32.3854 54.3352 32.3854 54.5824C32.3854 54.7898 32.4337 54.9687 32.5302 55.1193C32.6297 55.2699 32.7589 55.3963 32.918 55.4986C33.08 55.598 33.2533 55.6818 33.4379 55.75C33.6226 55.8153 33.8001 55.8693 33.9706 55.9119L34.8229 56.1335C35.1013 56.2017 35.3868 56.294 35.6794 56.4105C35.972 56.527 36.2433 56.6804 36.4933 56.8707C36.7433 57.0611 36.945 57.2969 37.0984 57.5781C37.2547 57.8594 37.3328 58.196 37.3328 58.5881C37.3328 59.0824 37.205 59.5213 36.9493 59.9048C36.6964 60.2884 36.3285 60.5909 35.8456 60.8125C35.3655 61.0341 34.7845 61.1449 34.1027 61.1449C33.4493 61.1449 32.8839 61.0412 32.4067 60.8338C31.9294 60.6264 31.5558 60.3324 31.2859 59.9517C31.016 59.5682 30.8669 59.1136 30.8385 58.5881H32.1595C32.1851 58.9034 32.2873 59.1662 32.4663 59.3764C32.6481 59.5838 32.8797 59.7386 33.1609 59.8409C33.445 59.9403 33.7561 59.9901 34.0942 59.9901C34.4663 59.9901 34.7973 59.9318 35.0871 59.8153C35.3797 59.696 35.6098 59.5312 35.7774 59.321C35.945 59.108 36.0288 58.8594 36.0288 58.5753C36.0288 58.3168 35.955 58.1051 35.8072 57.9403C35.6623 57.7756 35.4649 57.6392 35.2149 57.5312C34.9677 57.4233 34.6879 57.3281 34.3754 57.2457L33.3442 56.9645C32.6453 56.7741 32.0913 56.4943 31.6822 56.125C31.276 55.7557 31.0729 55.267 31.0729 54.6591C31.0729 54.1562 31.2092 53.7173 31.4819 53.3423C31.7547 52.9673 32.124 52.6761 32.5899 52.4688C33.0558 52.2585 33.5814 52.1534 34.1666 52.1534C34.7575 52.1534 35.2788 52.2571 35.7305 52.4645C36.1851 52.6719 36.543 52.9574 36.8044 53.321C37.0658 53.6818 37.2021 54.0966 37.2135 54.5653H35.9436Z" fill="#EBECF1"/>
<path d="M12.5552 70.772V78.68H11.6312V70.772H12.5552ZM3.91517 74.012C3.91517 73.452 4.03117 72.964 4.26317 72.548C4.50317 72.132 4.83117 71.816 5.24717 71.6C5.66317 71.376 6.13917 71.264 6.67517 71.264C7.20317 71.264 7.67517 71.376 8.09117 71.6C8.51517 71.816 8.84317 72.132 9.07517 72.548C9.31517 72.964 9.43517 73.452 9.43517 74.012C9.43517 74.564 9.31517 75.048 9.07517 75.464C8.84317 75.88 8.51517 76.2 8.09117 76.424C7.67517 76.64 7.20317 76.748 6.67517 76.748C6.13917 76.748 5.66317 76.64 5.24717 76.424C4.83117 76.2 4.50317 75.884 4.26317 75.476C4.03117 75.06 3.91517 74.572 3.91517 74.012ZM8.46317 74.264V73.76C8.46317 73.232 8.29517 72.812 7.95917 72.5C7.63117 72.18 7.20317 72.02 6.67517 72.02C6.13917 72.02 5.70317 72.18 5.36717 72.5C5.03917 72.82 4.87517 73.24 4.87517 73.76V74.264C4.87517 74.784 5.04317 75.204 5.37917 75.524C5.71517 75.836 6.14717 75.992 6.67517 75.992C7.20317 75.992 7.63117 75.836 7.95917 75.524C8.29517 75.204 8.46317 74.784 8.46317 74.264ZM5.88317 80.804V77.816H6.80717V80.66H12.7712V81.416H6.48317C6.29117 81.416 6.14317 81.364 6.03917 81.26C5.93517 81.156 5.88317 81.004 5.88317 80.804ZM24.3584 70.772V81.188H23.4704V75.596H21.7664V80.9H20.8904V70.952H21.7664V74.84H23.4704V70.772H24.3584ZM20.1344 77.204L20.2544 77.948C19.2704 78.188 18.0584 78.308 16.6184 78.308H15.6104V71.828H16.4864V77.552H16.8344C17.4584 77.552 18.0544 77.524 18.6224 77.468C19.1984 77.404 19.7024 77.316 20.1344 77.204ZM35.6336 70.772V76.784H34.7096V70.772H35.6336ZM29.8976 74.18C29.8416 74.18 29.7896 74.208 29.7416 74.264C29.5336 74.608 29.2616 74.96 28.9256 75.32C28.5896 75.672 28.1216 76.124 27.5216 76.676L26.8376 76.088C27.5256 75.48 28.0536 74.96 28.4216 74.528C28.7896 74.096 29.0536 73.668 29.2136 73.244C29.3816 72.82 29.4656 72.34 29.4656 71.804V71.156H30.3896V71.864C30.3896 72.608 30.2496 73.272 29.9696 73.856L30.0296 73.892L30.2216 73.724C30.3096 73.652 30.3976 73.616 30.4856 73.616C30.5736 73.616 30.6576 73.652 30.7376 73.724L33.0416 75.824L32.3816 76.46L30.0536 74.252C30.0056 74.204 29.9536 74.18 29.8976 74.18ZM29.0336 77.432H35.6336V81.62H29.6336C29.4416 81.62 29.2936 81.568 29.1896 81.464C29.0856 81.36 29.0336 81.208 29.0336 81.008V77.432ZM29.9456 80.852H34.7096V78.188H29.9456V80.852Z" fill="#EBECF1"/>
<path d="M32.582 18.3281C31.8237 16.6213 30.7213 15.0893 29.3437 13.8281L28.207 12.7851C28.1684 12.7507 28.122 12.7262 28.0717 12.7139C28.0215 12.7016 27.969 12.7019 27.9189 12.7146C27.8687 12.7273 27.8225 12.7522 27.7842 12.7869C27.7459 12.8217 27.7167 12.8653 27.6992 12.914L27.1914 14.371C26.875 15.2851 26.293 16.2187 25.4687 17.1367C25.4141 17.1953 25.3516 17.2109 25.3086 17.2148C25.2656 17.2187 25.1992 17.2109 25.1406 17.1562C25.0859 17.1093 25.0586 17.039 25.0625 16.9687C25.207 14.6171 24.5039 11.9648 22.9648 9.07808C21.6914 6.67964 19.9219 4.80855 17.7109 3.50386L16.0977 2.55464C15.8867 2.42964 15.6172 2.5937 15.6289 2.8398L15.7148 4.7148C15.7734 5.99605 15.625 7.12886 15.2734 8.07027C14.8437 9.22261 14.2266 10.2929 13.4375 11.2539C12.8884 11.9217 12.266 12.5257 11.582 13.0546C9.93479 14.3209 8.59536 15.9434 7.66406 17.8007C6.73505 19.6742 6.25113 21.7369 6.25 23.8281C6.25 25.6718 6.61328 27.457 7.33203 29.1406C8.02604 30.7615 9.02757 32.2327 10.2813 33.4726C11.5469 34.7226 13.0156 35.707 14.6523 36.3906C16.3477 37.1015 18.1445 37.4609 20 37.4609C21.8555 37.4609 23.6523 37.1015 25.3477 36.3945C26.9803 35.7149 28.465 34.7238 29.7187 33.4765C30.9844 32.2265 31.9766 30.7656 32.668 29.1445C33.3856 27.4655 33.7538 25.6579 33.75 23.832C33.75 21.9257 33.3594 20.0742 32.582 18.3281V18.3281ZM27.8516 31.582C25.7539 33.6601 22.9687 34.8007 20 34.8007C17.0312 34.8007 14.2461 33.6601 12.1484 31.582C10.0586 29.5078 8.90625 26.7578 8.90625 23.832C8.90625 22.1328 9.28906 20.5039 10.043 18.9882C10.7773 17.5078 11.8711 16.1835 13.1992 15.164C14.0462 14.5163 14.8145 13.7717 15.4883 12.9453C16.4648 11.7539 17.2305 10.4257 17.7617 8.99995C17.9796 8.41182 18.138 7.8033 18.2344 7.18355C19.1758 8.05073 19.9648 9.09761 20.625 10.3242C21.9297 12.7695 22.5312 14.9453 22.4141 16.7968C22.3861 17.2329 22.4573 17.6697 22.6224 18.0743C22.7875 18.4788 23.0421 18.8408 23.3672 19.1328C23.6489 19.3872 23.9784 19.5832 24.3365 19.7093C24.6945 19.8353 25.0741 19.889 25.4531 19.8671C26.2227 19.8281 26.9297 19.4882 27.4453 18.914C27.9648 18.332 28.4141 17.7382 28.7891 17.1328C29.3359 17.832 29.793 18.5937 30.1562 19.414C30.7773 20.8125 31.0937 22.3007 31.0937 23.832C31.0937 26.7578 29.9414 29.5117 27.8516 31.582Z" fill="#EBECF1"/>
</svg>
