<svg width="69" height="86" viewBox="0 0 69 86" fill="none" xmlns="http://www.w3.org/2000/svg">
<path d="M2.27557 53.2727V62H0.958807V53.2727H2.27557ZM12.0772 53.2727V62H10.867L6.43091 55.5994H6.34994V62H5.03318V53.2727H6.25193L10.6923 59.6818H10.7732V53.2727H12.0772ZM16.1548 53.2727V62H14.838V53.2727H16.1548ZM18.482 54.4062V53.2727H25.2363V54.4062H22.5133V62H21.2008V54.4062H18.482ZM28.8856 53.2727V62H27.5688V53.2727H28.8856ZM32.3804 62H30.9827L34.1233 53.2727H35.6446L38.7852 62H37.3875L34.9202 54.858H34.852L32.3804 62ZM32.6148 58.5824H37.1489V59.6903H32.6148V58.5824ZM39.4239 54.4062V53.2727H46.1781V54.4062H43.4551V62H42.1426V54.4062H39.4239ZM49.8274 53.2727V62H48.5107V53.2727H49.8274ZM53.3478 53.2727L55.7768 60.3807H55.8748L58.3038 53.2727H59.7271L56.5865 62H55.0652L51.9245 53.2727H53.3478ZM61.8274 62V53.2727H67.299V54.4062H63.1442V57.0653H67.0135V58.1946H63.1442V60.8665H67.3501V62H61.8274Z" fill="#EBECF1"/>
<path d="M27.6663 79.68H26.7423V71.772H27.6663V79.68ZM22.0383 75.732C21.9823 75.732 21.9303 75.756 21.8823 75.804C21.6663 76.14 21.3903 76.484 21.0543 76.836C20.7183 77.188 20.2583 77.624 19.6743 78.144L19.0023 77.556C19.6823 76.98 20.2063 76.484 20.5743 76.068C20.9503 75.644 21.2223 75.228 21.3903 74.82C21.5583 74.412 21.6423 73.948 21.6423 73.428V73.308H19.3383V72.552H24.8703V73.308H22.5543V73.476C22.5543 74.196 22.4143 74.832 22.1343 75.384L22.1943 75.42L22.3863 75.276C22.4743 75.212 22.5623 75.18 22.6503 75.18C22.7543 75.18 22.8463 75.216 22.9263 75.288L25.2183 77.34L24.5343 77.928L22.2183 75.804C22.1623 75.756 22.1023 75.732 22.0383 75.732ZM27.8823 81.66V82.416H21.5943C21.4023 82.416 21.2543 82.364 21.1503 82.26C21.0463 82.156 20.9943 82.004 20.9943 81.804V78.96H21.9183V81.66H27.8823ZM39.1576 71.772V82.188H38.2576V71.772H39.1576ZM35.3896 72.672H32.1976V71.976H35.3896V72.672ZM33.3496 74.34H30.9976V73.644H36.5416V74.34H34.2256C34.2016 74.796 34.0616 75.196 33.8056 75.54L33.8656 75.564L34.0696 75.42C34.1656 75.348 34.2616 75.312 34.3576 75.312C34.4296 75.312 34.5216 75.34 34.6336 75.396L36.7936 76.524L36.1696 77.112L33.9136 75.864C33.8416 75.816 33.7656 75.792 33.6856 75.792C33.6136 75.792 33.5456 75.816 33.4816 75.864C33.2736 76.072 32.9976 76.284 32.6536 76.5C32.3096 76.716 31.8656 76.964 31.3216 77.244L30.6856 76.68C31.3416 76.368 31.8576 76.092 32.2336 75.852C32.6096 75.604 32.8816 75.364 33.0496 75.132C33.2256 74.892 33.3256 74.628 33.3496 74.34ZM37.4776 78.396C36.5016 78.548 35.4056 78.66 34.1896 78.732V82.092H33.2776V78.78C32.1976 78.82 31.2096 78.84 30.3136 78.84L30.2416 78.072C33.3296 78.072 35.7136 77.94 37.3936 77.676L37.4776 78.396ZM49.8328 74.808H47.5408V74.04H49.8328V71.772H50.7448V77.976H49.8328V74.808ZM44.9488 75.168C44.8928 75.168 44.8448 75.192 44.8048 75.24C44.5888 75.6 44.3048 75.972 43.9528 76.356C43.6088 76.732 43.1528 77.184 42.5848 77.712L41.9128 77.112C42.5928 76.504 43.1168 75.984 43.4848 75.552C43.8528 75.112 44.1168 74.68 44.2768 74.256C44.4448 73.824 44.5288 73.336 44.5288 72.792V72.132H45.4408V72.84C45.4408 73.584 45.3048 74.256 45.0328 74.856L45.0808 74.88L45.2848 74.712C45.3728 74.64 45.4608 74.604 45.5488 74.604C45.6368 74.604 45.7168 74.64 45.7888 74.712L48.0808 76.836L47.4208 77.472L45.1048 75.24C45.0568 75.192 45.0048 75.168 44.9488 75.168ZM50.8048 80.472C50.8048 80.912 50.6768 81.304 50.4208 81.648C50.1728 82 49.7968 82.276 49.2928 82.476C48.7888 82.676 48.1728 82.776 47.4448 82.776C46.7168 82.776 46.0968 82.676 45.5848 82.476C45.0808 82.276 44.7008 82 44.4448 81.648C44.1968 81.304 44.0728 80.912 44.0728 80.472C44.0728 80.032 44.1968 79.64 44.4448 79.296C44.7008 78.944 45.0808 78.668 45.5848 78.468C46.0968 78.268 46.7168 78.168 47.4448 78.168C48.1728 78.168 48.7888 78.268 49.2928 78.468C49.7968 78.668 50.1728 78.944 50.4208 79.296C50.6768 79.64 50.8048 80.032 50.8048 80.472ZM49.8328 80.376C49.8328 79.96 49.6328 79.612 49.2328 79.332C48.8408 79.052 48.2448 78.912 47.4448 78.912C46.6448 78.912 46.0448 79.056 45.6448 79.344C45.2448 79.624 45.0448 79.968 45.0448 80.376V80.58C45.0448 80.988 45.2448 81.332 45.6448 81.612C46.0448 81.9 46.6448 82.044 47.4448 82.044C48.2448 82.044 48.8408 81.9 49.2328 81.612C49.6328 81.332 49.8328 80.988 49.8328 80.58V80.376Z" fill="#EBECF1"/>
<path d="M13.8958 21.1876C13.8213 21.1637 13.7412 21.1637 13.6667 21.1876L13.25 21.7501H20.5833C20.6246 21.7442 20.6644 21.7301 20.7001 21.7087C20.7359 21.6872 20.767 21.6588 20.7917 21.6251L21.1458 21.0834V20.9793L13.8958 21.1876ZM10.8333 23.0418C10.7971 23.0263 10.7581 23.0183 10.7188 23.0183C10.6794 23.0183 10.6404 23.0263 10.6042 23.0418L10.1875 23.5834V23.6876H19.7708C19.8114 23.6899 19.8516 23.6789 19.8855 23.6564C19.9193 23.6339 19.9448 23.6009 19.9583 23.5626L20.125 23.0834V22.9584L10.8333 23.0418ZM15.5833 25.0001C15.5413 25.0033 15.5005 25.0162 15.4644 25.0379C15.4282 25.0596 15.3976 25.0895 15.375 25.1251L15.1042 25.6251V25.7501H19.5833C19.6205 25.7457 19.6551 25.7289 19.6815 25.7024C19.708 25.676 19.7248 25.6414 19.7292 25.6043V25.1251C19.7292 25.1251 19.7292 24.9793 19.6042 24.9793L15.5833 25.0001ZM48.8958 18.6043C48.0495 18.0513 47.1007 17.6742 46.1058 17.4952C45.1108 17.3163 44.0901 17.3392 43.1042 17.5626C41.9811 17.7229 40.9014 18.1059 39.9283 18.689C38.9553 19.2721 38.1084 20.0437 37.4375 20.9584C36.8186 21.7427 36.3458 22.6318 36.0417 23.5834H29.5C29.3924 23.5805 29.2866 23.611 29.1971 23.6707C29.1075 23.7304 29.0387 23.8163 29 23.9168C28.7083 24.4376 28.2292 25.5001 27.9583 26.1251C27.6875 26.7501 27.9583 26.7293 28.3333 26.7293H32.25C32.0896 26.9932 31.9085 27.244 31.7083 27.4793C31.2997 27.9809 30.7688 28.369 30.1668 28.6062C29.5648 28.8433 28.9118 28.9216 28.2708 28.8334C27.5034 28.7271 26.8009 28.3449 26.2948 27.7582C25.7886 27.1716 25.5135 26.4207 25.5208 25.6459C25.4921 24.876 25.6702 24.1124 26.0366 23.4346C26.403 22.7568 26.9443 22.1895 27.6042 21.7918C28.1312 21.4069 28.7539 21.1742 29.4042 21.1191C30.0544 21.064 30.7074 21.1886 31.2917 21.4793C31.6562 21.6655 31.976 21.9284 32.2292 22.2501C32.5 22.5626 32.5208 22.5418 32.8333 22.4584L36.2292 21.5626C36.4792 21.5626 36.5625 21.3959 36.4375 21.2293C35.9624 20.0544 35.1414 19.0518 34.0833 18.3543C33.2993 17.8379 32.4192 17.4851 31.4956 17.3169C30.5721 17.1486 29.6241 17.1684 28.7083 17.3751C26.4319 17.7516 24.3878 18.99 23 20.8334C22.3328 21.6587 21.8378 22.6093 21.5444 23.6291C21.251 24.649 21.165 25.7173 21.2917 26.7709C21.3753 27.6569 21.6471 28.5149 22.0891 29.2873C22.531 30.0598 23.1328 30.729 23.8542 31.2501C24.6268 31.8301 25.5081 32.2488 26.4458 32.4814C27.3835 32.7141 28.3584 32.7558 29.3125 32.6043C30.4728 32.4667 31.592 32.0902 32.5996 31.4986C33.6072 30.907 34.4812 30.113 35.1667 29.1668C35.4953 28.7151 35.7812 28.2338 36.0208 27.7293C36.3589 28.9977 37.0878 30.1275 38.1042 30.9584C39.4932 32.123 41.2499 32.7578 43.0625 32.7501C43.5833 32.7501 44.125 32.7501 44.6875 32.5626C46.5294 32.199 48.2201 31.292 49.5417 29.9584C50.4486 29.0902 51.131 28.0147 51.5302 26.8244C51.9294 25.634 52.0334 24.3645 51.8333 23.1251C51.7121 22.2001 51.3854 21.3139 50.8771 20.5316C50.3688 19.7494 49.6918 19.0908 48.8958 18.6043ZM45.1875 28.4584C44.6814 28.7302 44.1198 28.8828 43.5457 28.9044C42.9716 28.9261 42.4002 28.8163 41.875 28.5834C41.1661 28.2614 40.5914 27.7028 40.2493 27.0034C39.9072 26.304 39.8191 25.5074 40 24.7501C40.1634 23.8801 40.5844 23.0792 41.2085 22.4514C41.8326 21.8236 42.6309 21.3978 43.5 21.2293C43.9513 21.103 44.4242 21.0739 44.8876 21.144C45.3509 21.214 45.7942 21.3816 46.188 21.6356C46.5818 21.8896 46.9172 22.2242 47.1721 22.6175C47.427 23.0107 47.5956 23.4536 47.6667 23.9168C47.6789 24.1388 47.6789 24.3614 47.6667 24.5834C47.6516 25.3953 47.412 26.1871 46.9744 26.8711C46.5368 27.5551 45.9183 28.1045 45.1875 28.4584V28.4584Z" fill="#EBECF1"/>
</svg>
