<svg width="66" height="85" viewBox="0 0 66 85" fill="none" xmlns="http://www.w3.org/2000/svg">
<path d="M0.528409 53.4062V52.2727H7.28267V53.4062H4.55966V61H3.24716V53.4062H0.528409ZM9.61521 61V52.2727H15.0868V53.4062H10.932V56.0653H14.8013V57.1946H10.932V59.8665H15.1379V61H9.61521ZM24.7297 52.2727V61H23.5195L19.0834 54.5994H19.0024V61H17.6857V52.2727H18.9044L23.3448 58.6818H23.4257V52.2727H24.7297ZM28.2277 61H26.83L29.9706 52.2727H31.4919L34.6326 61H33.2348L30.7675 53.858H30.6993L28.2277 61ZM28.4621 57.5824H32.9962V58.6903H28.4621V57.5824ZM43.5713 55.1108H42.2417C42.1906 54.8267 42.0954 54.5767 41.9562 54.3608C41.817 54.1449 41.6466 53.9616 41.4449 53.8111C41.2432 53.6605 41.0173 53.5469 40.7673 53.4702C40.5202 53.3935 40.2574 53.3551 39.979 53.3551C39.4761 53.3551 39.0258 53.4815 38.6281 53.7344C38.2332 53.9872 37.9207 54.358 37.6906 54.8466C37.4633 55.3352 37.3497 55.9318 37.3497 56.6364C37.3497 57.3466 37.4633 57.946 37.6906 58.4347C37.9207 58.9233 38.2346 59.2926 38.6324 59.5426C39.0301 59.7926 39.4775 59.9176 39.9747 59.9176C40.2503 59.9176 40.5116 59.8807 40.7588 59.8068C41.0088 59.7301 41.2346 59.6179 41.4364 59.4702C41.6381 59.3224 41.8085 59.142 41.9477 58.929C42.0898 58.7131 42.1878 58.4659 42.2417 58.1875L43.5713 58.1918C43.5003 58.6207 43.3625 59.0156 43.1579 59.3764C42.9562 59.7344 42.6963 60.044 42.3781 60.3054C42.0628 60.5639 41.702 60.7642 41.2957 60.9062C40.8895 61.0483 40.4463 61.1193 39.9662 61.1193C39.2105 61.1193 38.5372 60.9403 37.9463 60.5824C37.3554 60.2216 36.8895 59.706 36.5486 59.0355C36.2105 58.3651 36.0415 57.5653 36.0415 56.6364C36.0415 55.7045 36.2119 54.9048 36.5528 54.2372C36.8937 53.5668 37.3596 53.0526 37.9506 52.6946C38.5415 52.3338 39.2133 52.1534 39.9662 52.1534C40.4292 52.1534 40.8611 52.2202 41.2616 52.3537C41.665 52.4844 42.0273 52.6776 42.3483 52.9332C42.6693 53.1861 42.9349 53.4957 43.1452 53.8622C43.3554 54.2259 43.4974 54.642 43.5713 55.1108ZM47.3037 52.2727V61H45.9869V52.2727H47.3037ZM49.6309 53.4062V52.2727H56.3852V53.4062H53.6622V61H52.3497V53.4062H49.6309ZM58.0444 52.2727H59.5402L61.82 56.2401H61.9137L64.1936 52.2727H65.6893L62.5231 57.5739V61H61.2106V57.5739L58.0444 52.2727Z" fill="#EBECF1"/>
<path d="M33.0096 75.74V76.52H23.2176V75.74H26.1456C26.3296 75.14 26.4696 74.548 26.5656 73.964C26.6696 73.372 26.7176 72.728 26.7096 72.032V71.996H24.1776V71.24H27.5736V72.056C27.5736 73.312 27.3936 74.54 27.0336 75.74H30.4656C30.7696 74.5 30.9176 73.264 30.9096 72.032V71.996H28.3176V71.24H31.7856V72.104C31.7856 73.304 31.6416 74.516 31.3536 75.74H33.0096ZM25.5816 80.612H31.7856V81.368H25.2696C25.0776 81.368 24.9296 81.316 24.8256 81.212C24.7216 81.108 24.6696 80.956 24.6696 80.756V77.888H25.5816V80.612ZM42.7728 70.772H43.6848V81.188H42.7728V70.772ZM35.2248 78.32C36.3288 77.752 37.1728 77.232 37.7568 76.76C38.3408 76.288 38.7488 75.788 38.9808 75.26C39.2208 74.732 39.3408 74.08 39.3408 73.304V72.404H35.5248V71.624H40.2528V73.292C40.2528 74.18 40.1168 74.932 39.8448 75.548C39.5808 76.164 39.1288 76.74 38.4888 77.276C37.8568 77.804 36.9488 78.384 35.7648 79.016L35.2248 78.32Z" fill="#EBECF1"/>
<path d="M33.0001 3.33325C24.1167 10.9166 19.6667 17.4666 19.6667 22.9999C19.6667 31.2999 26.0001 36.6666 33.0001 36.6666C40.0001 36.6666 46.3334 31.2999 46.3334 22.9999C46.3334 17.4666 41.8834 10.9166 33.0001 3.33325ZM33.0001 33.3333C27.4167 33.3333 23.0001 29.0499 23.0001 22.9999C23.0001 19.0999 26.2501 13.9333 33.0001 7.76659C39.7501 13.9333 43.0001 19.0833 43.0001 22.9999C43.0001 29.0499 38.5834 33.3333 33.0001 33.3333ZM26.0501 23.3333C26.6667 23.3333 27.1667 23.7666 27.2834 24.3666C27.9667 28.0666 31.0834 29.3333 33.3501 29.1499C34.0667 29.1166 34.6667 29.6833 34.6667 30.3999C34.6667 31.0666 34.1334 31.6166 33.4667 31.6499C29.9167 31.8666 25.7667 29.8333 24.8167 24.7833C24.7878 24.6046 24.798 24.4217 24.8466 24.2473C24.8953 24.073 24.9812 23.9113 25.0985 23.7734C25.2158 23.6355 25.3616 23.5247 25.5259 23.4487C25.6902 23.3727 25.8691 23.3333 26.0501 23.3333V23.3333Z" fill="#EBECF1"/>
</svg>
