<svg width="95" height="95" viewBox="0 0 95 95" fill="none" xmlns="http://www.w3.org/2000/svg">
<path d="M28.7704 39.6765C28.7704 39.6765 28.7555 39.7325 28.75 39.7562C28.6151 39.7421 28.4652 39.7264 28.3476 39.7202C27.5138 39.6666 26.774 39.7288 26.1257 39.9006C24.6857 40.2837 23.517 41.4649 22.6157 43.4527C21.9427 44.9371 21.6047 46.2018 21.6206 47.2399C21.6321 47.7108 21.7358 48.1398 21.9468 48.5285C22.1578 48.9172 22.4175 49.1867 22.7363 49.326C22.9794 49.4362 23.2303 49.4715 23.4953 49.4294C23.754 49.3898 23.959 49.2839 24.1063 49.1205C24.5759 48.5694 24.948 48.2567 25.2263 48.1736C25.5047 48.0905 25.9978 48.1571 26.7118 48.371C27.1434 48.5039 27.5592 48.614 27.9443 48.6996C28.1475 50.9057 28.637 53.1265 29.4483 55.2839C30.9808 59.3591 33.475 62.7557 36.5072 65.266L44.79 46.9872L28.7704 39.6765V39.6765Z" fill="#EBECF1"/>
<path d="M46.2944 25.9435C46.2283 25.2699 46.081 24.5909 45.8272 23.9159C44.4441 20.2382 40.5492 17.9803 37.2563 19.2186C33.9634 20.457 32.5215 24.7218 33.9046 28.3995C34.1228 28.9799 34.4073 29.5065 34.7288 29.9977C32.7119 31.757 31.0945 33.9853 29.9318 36.5035L46.1684 43.9126L53.5144 27.6997C51.1967 26.6488 48.7422 26.0382 46.2858 25.9395L46.2944 25.9435Z" fill="#EBECF1"/>
<path d="M66.775 30.2589C66.099 29.4762 65.0177 28.7452 63.5309 28.0658C61.5431 27.1645 59.8857 27.0462 58.5501 27.7068C57.9469 27.9985 57.3518 28.4455 56.7599 29.0353C56.6756 29.1174 56.5795 29.2256 56.4873 29.325L49.2436 45.3122L67.453 53.6211C68.082 49.7412 67.72 45.5427 66.1875 41.4676C65.3762 39.3101 64.281 37.3171 62.9802 35.5237C63.211 35.1993 63.4536 34.8489 63.6907 34.4645C64.0869 33.8331 64.4139 33.4581 64.678 33.3372C64.9422 33.2162 65.4281 33.2063 66.1444 33.3113C66.3629 33.3372 66.5869 33.2817 66.8076 33.1411C67.0283 33.0005 67.1938 32.8087 67.3103 32.5633C67.452 32.2508 67.4761 31.8745 67.3787 31.4431C67.2813 31.0117 67.0742 30.6143 66.775 30.2589V30.2589Z" fill="#EBECF1"/>
<path d="M74.5056 62.6479C74.2909 62.4983 74.0747 62.4212 73.8491 62.434C73.1282 62.4891 72.6383 62.4501 72.3857 62.3147C72.1332 62.1792 71.826 61.7835 71.4704 61.1252C70.6233 59.5429 69.7925 58.4441 68.9779 57.8288C68.3345 57.3434 67.5518 57.0618 66.6398 56.9727L66.6477 56.9553L47.8567 48.3827L39.3165 67.2408L39.3228 67.2384C38.7003 67.9189 38.2971 68.6466 38.1329 69.4356C37.9256 70.4352 38.0247 71.8092 38.4302 73.5576C38.5966 74.2871 38.6325 74.7848 38.5255 75.0554C38.4248 75.3237 38.0843 75.6822 37.5034 76.1094C37.3252 76.2484 37.211 76.4426 37.1506 76.703C37.0877 76.957 37.11 77.2078 37.2049 77.4602C37.3259 77.7819 37.5754 78.0625 37.9535 78.3019C38.3292 78.535 38.7481 78.6727 39.2167 78.7125C40.2478 78.7928 41.5286 78.5415 43.0615 77.9651C45.1053 77.1964 46.3585 76.1059 46.8384 74.7014C47.0555 74.0725 47.166 73.3325 47.1684 72.4964C47.1702 71.8693 47.1142 71.0119 47.0019 69.9093C49.8435 70.2663 52.7587 69.9765 55.5596 68.9232C58.3604 67.8699 60.7379 66.1694 62.6464 64.026C63.2885 64.9294 63.8113 65.6112 64.2259 66.0817C64.7786 66.7091 65.3494 67.1929 65.9271 67.5229C67.2096 68.2718 68.8748 68.2577 70.9186 67.489C72.4452 66.9149 73.5742 66.26 74.3032 65.5178C74.6294 65.1791 74.8602 64.7971 74.9828 64.3766C75.1118 63.9536 75.1146 63.5782 74.9912 63.2501C74.8964 62.9978 74.7416 62.7968 74.5332 62.6448L74.5056 62.6479Z" fill="#EBECF1"/>
</svg>
