<svg width="1920" height="4730" viewBox="0 0 1920 4730" fill="none" xmlns="http://www.w3.org/2000/svg">
<path opacity="0.7" d="M-6 4729V137.734C-5.9854 137.721 -5.97031 137.707 -5.95473 137.693C-5.70988 137.47 -5.34429 137.138 -4.8626 136.704C-3.89922 135.835 -2.47146 134.559 -0.616458 132.927C3.0936 129.663 8.5124 124.98 15.343 119.307C29.0048 107.958 48.3104 92.6494 70.8841 76.8073C116.068 45.0974 174.208 11.3516 226.349 2.83044C278.282 -5.6567 310.089 16.7538 341.916 41.5303C343.591 42.8345 345.267 44.1454 346.945 45.4587C377.137 69.0811 408.32 93.479 457.361 93.479C508.594 93.479 555.452 104.652 595.912 115.85C602.936 117.794 609.774 119.741 616.409 121.63C628.863 125.176 640.604 128.518 651.533 131.262C668.289 135.467 683.244 138.294 696.09 138.294C709.085 138.294 723.665 132.196 739.311 123.213C751.788 116.048 765.054 106.981 778.845 97.5533C782.367 95.1458 785.924 92.7149 789.51 90.2862C807.165 78.3301 825.573 66.4083 844.332 57.474C863.09 48.5395 882.139 42.6225 901.073 42.6225C919.979 42.6225 938.54 49.4938 958.37 58.8291C965.123 62.0081 972.032 65.478 979.146 69.0509C992.851 75.9339 1007.32 83.1992 1022.9 89.5037C1070.38 108.72 1128.58 119.201 1209.7 84.3343C1249.97 67.0243 1282.26 63.923 1309.19 68.9309C1336.13 73.9403 1357.83 87.0831 1376.9 102.447C1386.43 110.131 1395.3 118.361 1403.84 126.403C1404.8 127.31 1405.76 128.215 1406.72 129.117C1414.23 136.198 1421.52 143.071 1428.79 149.184C1445.16 162.956 1461.64 173.037 1480.77 173.037C1513.51 173.037 1530.59 160.172 1550.95 144.833C1554.17 142.407 1557.47 139.919 1560.93 137.41C1586.23 119.066 1620.31 99.2505 1692.88 93.4759C1765.73 87.6795 1824.35 74.9523 1864.75 63.671C1884.96 58.0302 1900.61 52.7508 1911.22 48.8796C1916.52 46.944 1920.56 45.3604 1923.28 44.2596C1924.42 43.7979 1925.33 43.4211 1926 43.1389V4729H-6Z" stroke="#36685D" stroke-width="2"/>
</svg>
